<svg width="256" height="256" viewBox="0 0 256 256" fill="none" xmlns="http://www.w3.org/2000/svg">
<path fill-rule="evenodd" clip-rule="evenodd" d="M104.425 42.3784C100.056 37.0733 93.5437 34 86.6712 34H29C22.3726 34 17 39.3726 17 46V58.1371V68.2V160C17 166.627 22.3726 172 29 172H229C235.627 172 241 166.627 241 160V70.1371C241 63.5097 235.627 58.1371 229 58.1371H117.404L104.425 42.3784Z" fill="#12BCC3"/>
<mask id="mask0_849_31477" style="mask-type:alpha" maskUnits="userSpaceOnUse" x="17" y="34" width="224" height="138">
<path fill-rule="evenodd" clip-rule="evenodd" d="M104.425 42.3784C100.056 37.0733 93.5437 34 86.6712 34H29C22.3726 34 17 39.3726 17 46V58.1371V68.2V160C17 166.627 22.3726 172 29 172H229C235.627 172 241 166.627 241 160V70.1371C241 63.5097 235.627 58.1371 229 58.1371H117.404L104.425 42.3784Z" fill="url(#paint0_linear_849_31477)"/>
</mask>
<g mask="url(#mask0_849_31477)">
<g style="mix-blend-mode:multiply" filter="url(#filter0_f_849_31477)">
<path fill-rule="evenodd" clip-rule="evenodd" d="M92.789 74C97.7642 74 102.605 72.3868 106.586 69.4024L116.459 62H229C235.627 62 241 67.3726 241 74V108V160C241 166.627 235.627 172 229 172H29C22.3726 172 17 166.627 17 160L17 108V86C17 79.3726 22.3726 74 29 74H87H92.789Z" fill="black" fill-opacity="0.3"/>
</g>
</g>
<g filter="url(#filter1_ii_849_31477)">
<path fill-rule="evenodd" clip-rule="evenodd" d="M92.789 74C97.7642 74 102.605 72.3868 106.586 69.4024L116.459 62H229C235.627 62 241 67.3726 241 74V108V198C241 204.627 235.627 210 229 210H29C22.3726 210 17 204.627 17 198L17 108V86C17 79.3726 22.3726 74 29 74H87H92.789Z" fill="url(#paint1_linear_849_31477)"/>
</g>
<path d="M128.968 170.124C106.524 170.059 87.6674 152.518 86.9426 130.127C86.8639 127.688 88.0089 126.263 89.5079 125.94C91.5722 125.495 92.9371 126.494 93.6586 128.371C94.4692 130.483 95.136 132.069 96.9876 131.947C97.5608 131.909 97.9849 131.765 98.3031 131.502C99.1768 130.779 99.2041 129.357 99.3141 128.337C99.7415 124.348 101.558 120.807 106.406 120.683C111.384 120.555 113.795 124.121 114.317 130.399C114.563 133.363 114.374 140.472 114.244 144.537C114.201 145.843 113.938 148.253 114.009 149.178C114.2 151.651 115.564 152.475 116.879 152.43C118.529 152.372 119.487 151.019 119.524 149.452C119.559 147.981 119.258 146.035 118.994 144.46C118.559 141.861 118.101 138.375 117.878 135.06C117.532 129.919 117.318 126.1 118.568 121.477C119.781 116.99 123.136 114.137 127.722 114.202C137.242 114.336 138.841 126.558 137.685 133.508C137.436 135.006 137.314 136.687 138.53 137.645C139.157 138.138 141.005 138.285 141.688 136.454C142.406 134.529 141.081 131.299 141.588 127.655C142.075 124.16 146.745 124.335 147.769 127.883C148.737 131.239 148.673 135.263 148.289 138.581C148.055 140.6 147.4 143.304 149.46 144.537C150.158 144.955 150.845 145.007 151.379 144.74C152.252 144.304 152.344 142.921 152.379 142.198C152.552 138.615 151.645 134.322 151.72 130.607C151.83 125.133 153.487 120.307 158.774 120.101C163.941 119.901 165.027 124.106 165.354 126.851C165.659 129.414 165.768 130.526 166.775 130.593C169.317 130.762 167.343 125.917 169.745 125.973C170.817 125.997 170.992 127.172 170.992 128.111C170.998 151.198 152.257 170.059 128.968 170.124ZM151.411 87.8533C144.581 84.0161 136.839 82 128.968 82C117.517 82 106.459 86.2925 98.0019 94.0969C94.2935 97.3485 91.1708 101.251 88.8293 105.608C76.4683 127.785 84.4054 155.816 106.589 168.173C128.772 180.53 156.81 172.595 169.171 150.418C181.531 128.241 173.595 100.21 151.411 87.8533Z" fill="#12BCC3"/>
<path d="M106.354 188.823C106.895 189.417 107.185 190.198 107.161 191.002C107.166 191.656 106.982 192.298 106.633 192.852C106.243 193.451 105.686 193.922 105.032 194.209C104.2 194.572 103.299 194.747 102.392 194.72C101.583 194.719 100.778 194.612 99.9986 194.399C99.283 194.217 98.6062 193.908 98 193.486L99.0363 191.446C99.4965 191.786 100.011 192.044 100.559 192.211C101.13 192.391 101.726 192.482 102.325 192.482C102.878 192.512 103.428 192.377 103.904 192.095C104.278 191.86 104.497 191.443 104.479 191.002C104.479 190.059 103.761 189.588 102.325 189.588H101.109V187.829L103.475 185.137H98.5749V183H106.633V184.727L104.035 187.688C105.045 187.857 105.818 188.236 106.354 188.823Z" fill="white"/>
<path d="M113.975 192.641C115.127 192.641 116.046 192.32 116.732 191.679C117.417 191.037 117.76 190.169 117.758 189.073C117.758 187.978 117.416 187.108 116.732 186.465C116.047 185.822 115.128 185.501 113.975 185.503H111.543V192.641H113.975ZM108.878 183.317H114.109C115.254 183.294 116.388 183.54 117.422 184.032C118.344 184.477 119.12 185.175 119.658 186.046C120.721 187.923 120.721 190.221 119.658 192.098C119.119 192.969 118.344 193.668 117.422 194.114C116.388 194.604 115.253 194.845 114.109 194.82H108.878V183.317Z" fill="white"/>
<path d="M124.5 194.147C123.576 193.657 122.802 192.923 122.265 192.025C121.179 190.124 121.179 187.792 122.265 185.891C122.802 184.992 123.575 184.258 124.5 183.769C126.34 182.838 128.493 182.748 130.405 183.522C131.191 183.86 131.887 184.378 132.436 185.035L130.726 186.614C130.016 185.748 128.951 185.252 127.831 185.267C127.166 185.255 126.508 185.416 125.924 185.735C125.373 186.039 124.92 186.492 124.616 187.043C123.991 188.238 123.991 189.663 124.616 190.858C124.92 191.408 125.373 191.862 125.924 192.165C126.509 192.484 127.166 192.645 127.831 192.634C128.954 192.647 130.021 192.144 130.726 191.27L132.436 192.847C131.891 193.515 131.191 194.04 130.397 194.376C129.539 194.737 128.615 194.917 127.683 194.904C126.576 194.921 125.482 194.661 124.5 194.147Z" fill="white"/>
<path d="M139.438 192.179C140.284 191.14 140.284 189.65 139.438 188.611C139.019 188.168 138.43 187.926 137.82 187.945C137.207 187.926 136.615 188.168 136.191 188.611C135.336 189.647 135.336 191.144 136.191 192.179C136.615 192.622 137.207 192.864 137.82 192.845C138.432 192.867 139.024 192.624 139.446 192.179H139.438ZM135.311 194.365C134.596 193.996 133.998 193.436 133.583 192.747C132.751 191.29 132.751 189.501 133.583 188.044C133.998 187.354 134.596 186.793 135.311 186.423C136.889 185.643 138.741 185.643 140.319 186.423C141.034 186.793 141.631 187.354 142.046 188.044C142.879 189.501 142.879 191.29 142.046 192.747C141.632 193.436 141.034 193.996 140.319 194.365C138.741 195.145 136.889 195.145 135.311 194.365Z" fill="white"/>
<path d="M148.56 192.914C148.899 192.71 149.155 192.392 149.282 192.016V191.103H147.523C146.47 191.103 145.944 191.449 145.944 192.14C145.934 192.448 146.079 192.741 146.331 192.919C146.644 193.128 147.017 193.23 147.392 193.208C147.801 193.218 148.204 193.117 148.56 192.914ZM150.746 186.813C151.481 187.471 151.849 188.458 151.849 189.773V194.804H149.448V193.701C148.964 194.524 148.065 194.935 146.751 194.935C146.143 194.95 145.539 194.832 144.982 194.59C144.516 194.389 144.119 194.057 143.839 193.635C143.573 193.224 143.436 192.743 143.445 192.253C143.415 191.493 143.762 190.767 144.372 190.314C144.991 189.843 145.948 189.607 147.244 189.606H149.282C149.312 189.121 149.125 188.648 148.772 188.315C148.434 188.014 147.923 187.864 147.244 187.864C146.772 187.864 146.302 187.939 145.853 188.086C145.434 188.215 145.041 188.418 144.693 188.685L143.773 186.909C144.299 186.548 144.883 186.281 145.5 186.119C146.178 185.931 146.879 185.837 147.582 185.838C148.958 185.835 150.012 186.16 150.746 186.813Z" fill="white"/>
<path d="M159.419 194.317C159.141 194.516 158.827 194.659 158.494 194.736C158.115 194.832 157.727 194.879 157.336 194.877C156.284 194.877 155.469 194.608 154.894 194.07C154.318 193.532 154.03 192.743 154.03 191.704V188.074H152.666V186.1H154.03V183.946H156.596V186.1H158.8V188.074H156.596V191.674C156.575 191.988 156.678 192.298 156.882 192.538C157.099 192.749 157.394 192.86 157.697 192.841C158.072 192.855 158.44 192.74 158.74 192.515L159.419 194.317Z" fill="white"/>
<defs>
<filter id="filter0_f_849_31477" x="-20" y="25" width="298" height="184" filterUnits="userSpaceOnUse" color-interpolation-filters="sRGB">
<feFlood flood-opacity="0" result="BackgroundImageFix"/>
<feBlend mode="normal" in="SourceGraphic" in2="BackgroundImageFix" result="shape"/>
<feGaussianBlur stdDeviation="18.5" result="effect1_foregroundBlur_849_31477"/>
</filter>
<filter id="filter1_ii_849_31477" x="17" y="62" width="224" height="148" filterUnits="userSpaceOnUse" color-interpolation-filters="sRGB">
<feFlood flood-opacity="0" result="BackgroundImageFix"/>
<feBlend mode="normal" in="SourceGraphic" in2="BackgroundImageFix" result="shape"/>
<feColorMatrix in="SourceAlpha" type="matrix" values="0 0 0 0 0 0 0 0 0 0 0 0 0 0 0 0 0 0 127 0" result="hardAlpha"/>
<feOffset dy="-4"/>
<feComposite in2="hardAlpha" operator="arithmetic" k2="-1" k3="1"/>
<feColorMatrix type="matrix" values="0 0 0 0 0 0 0 0 0 0 0 0 0 0 0 0 0 0 0.25 0"/>
<feBlend mode="normal" in2="shape" result="effect1_innerShadow_849_31477"/>
<feColorMatrix in="SourceAlpha" type="matrix" values="0 0 0 0 0 0 0 0 0 0 0 0 0 0 0 0 0 0 127 0" result="hardAlpha"/>
<feOffset dy="4"/>
<feComposite in2="hardAlpha" operator="arithmetic" k2="-1" k3="1"/>
<feColorMatrix type="matrix" values="0 0 0 0 1 0 0 0 0 1 0 0 0 0 1 0 0 0 0.25 0"/>
<feBlend mode="normal" in2="effect1_innerShadow_849_31477" result="effect2_innerShadow_849_31477"/>
</filter>
<linearGradient id="paint0_linear_849_31477" x1="17" y1="34" x2="197.768" y2="215.142" gradientUnits="userSpaceOnUse">
<stop stop-color="#05815D"/>
<stop offset="1" stop-color="#0C575F"/>
</linearGradient>
<linearGradient id="paint1_linear_849_31477" x1="17" y1="62" x2="241" y2="210" gradientUnits="userSpaceOnUse">
<stop stop-color="#4D6B6B"/>
<stop offset="1" stop-color="#232524"/>
</linearGradient>
</defs>
</svg>
