<svg width="256" height="256" viewBox="0 0 256 256" fill="none" xmlns="http://www.w3.org/2000/svg">
<path fill-rule="evenodd" clip-rule="evenodd" d="M104.425 42.3784C100.056 37.0733 93.5437 34 86.6712 34H29C22.3726 34 17 39.3726 17 46V58.1371V68.2V160C17 166.627 22.3726 172 29 172H229C235.627 172 241 166.627 241 160V70.1371C241 63.5097 235.627 58.1371 229 58.1371H117.404L104.425 42.3784Z" fill="url(#paint0_linear_1015_29948)"/>
<mask id="mask0_1015_29948" style="mask-type:alpha" maskUnits="userSpaceOnUse" x="17" y="34" width="224" height="138">
<path fill-rule="evenodd" clip-rule="evenodd" d="M104.425 42.3784C100.056 37.0733 93.5437 34 86.6712 34H29C22.3726 34 17 39.3726 17 46V58.1371V68.2V160C17 166.627 22.3726 172 29 172H229C235.627 172 241 166.627 241 160V70.1371C241 63.5097 235.627 58.1371 229 58.1371H117.404L104.425 42.3784Z" fill="url(#paint1_linear_1015_29948)"/>
</mask>
<g mask="url(#mask0_1015_29948)">
<g style="mix-blend-mode:multiply" filter="url(#filter0_f_1015_29948)">
<path fill-rule="evenodd" clip-rule="evenodd" d="M92.789 74C97.7642 74 102.605 72.3868 106.586 69.4024L116.459 62H229C235.627 62 241 67.3726 241 74V108V160C241 166.627 235.627 172 229 172H29C22.3726 172 17 166.627 17 160L17 108V86C17 79.3726 22.3726 74 29 74H87H92.789Z" fill="black" fill-opacity="0.3"/>
</g>
</g>
<g filter="url(#filter1_ii_1015_29948)">
<path fill-rule="evenodd" clip-rule="evenodd" d="M92.789 74C97.7642 74 102.605 72.3868 106.586 69.4024L116.459 62H229C235.627 62 241 67.3726 241 74V108V198C241 204.627 235.627 210 229 210H29C22.3726 210 17 204.627 17 198L17 108V86C17 79.3726 22.3726 74 29 74H87H92.789Z" fill="url(#paint2_linear_1015_29948)"/>
</g>
<path fill-rule="evenodd" clip-rule="evenodd" d="M173.67 138.217L166.883 135.348V132.516C166.881 111.829 149.812 95 128.833 95C107.855 95 90.7853 111.829 90.7853 132.516V135.349L83.9971 138.217C82.3421 138.916 81 140.923 81 142.699V157.17C81 158.946 82.3421 160.953 83.9971 161.652L93.2221 165.55C94.8771 166.25 96.2192 165.376 96.2192 163.601V132.516C96.2192 114.785 110.851 100.359 128.833 100.359C146.816 100.359 161.447 114.785 161.447 132.516V163.6C161.447 165.376 162.79 166.25 164.445 165.549L173.67 161.651C175.325 160.953 176.667 158.946 176.667 157.17V142.699C176.667 140.924 175.325 138.918 173.67 138.217ZM141.878 155.564C138.877 155.564 136.443 153.164 136.443 150.204C136.443 147.244 138.876 144.845 141.878 144.845C144.881 144.845 147.315 147.244 147.315 150.204C147.315 153.164 144.882 155.564 141.878 155.564V155.564ZM128.833 142.699C125.831 142.699 123.398 140.3 123.398 137.341C123.398 134.38 125.831 131.981 128.833 131.981C131.836 131.981 134.269 134.38 134.269 137.341C134.269 140.3 131.836 142.699 128.833 142.699ZM126.66 150.202C126.665 149.63 126.896 149.083 127.303 148.681C127.711 148.279 128.261 148.056 128.833 148.059C130.033 148.059 131.006 149.019 131.006 150.202C131.002 150.775 130.771 151.322 130.364 151.724C129.956 152.127 129.406 152.35 128.833 152.347C128.261 152.35 127.71 152.127 127.303 151.724C126.895 151.322 126.664 150.775 126.66 150.202V150.202ZM128.833 168.424C125.831 168.424 123.398 166.026 123.398 163.065C123.398 160.105 125.831 157.705 128.833 157.705C131.836 157.705 134.269 160.105 134.269 163.065C134.269 166.026 131.836 168.424 128.833 168.424ZM115.789 155.562C112.786 155.562 110.352 153.163 110.352 150.202C110.352 147.242 112.786 144.844 115.789 144.844C118.79 144.844 121.224 147.242 121.224 150.202C121.224 153.163 118.791 155.562 115.789 155.562ZM128.833 123.405C113.823 123.405 101.656 135.403 101.656 150.202C101.656 165.003 113.823 177 128.833 177C143.843 177 156.011 165.002 156.011 150.202C156.011 135.403 143.843 123.405 128.833 123.405Z" fill="#8F64CA"/>
<path fill-rule="evenodd" clip-rule="evenodd" d="M173.67 138.217L166.883 135.348V132.516C166.881 111.829 149.812 95 128.833 95C107.855 95 90.7853 111.829 90.7853 132.516V135.349L83.9971 138.217C82.3421 138.916 81 140.923 81 142.699V157.17C81 158.946 82.3421 160.953 83.9971 161.652L93.2221 165.55C94.8771 166.25 96.2192 165.376 96.2192 163.601V132.516C96.2192 114.785 110.851 100.359 128.833 100.359C146.816 100.359 161.447 114.785 161.447 132.516V163.6C161.447 165.376 162.79 166.25 164.445 165.549L173.67 161.651C175.325 160.953 176.667 158.946 176.667 157.17V142.699C176.667 140.924 175.325 138.918 173.67 138.217ZM141.878 155.564C138.877 155.564 136.443 153.164 136.443 150.204C136.443 147.244 138.876 144.845 141.878 144.845C144.881 144.845 147.315 147.244 147.315 150.204C147.315 153.164 144.882 155.564 141.878 155.564V155.564ZM128.833 142.699C125.831 142.699 123.398 140.3 123.398 137.341C123.398 134.38 125.831 131.981 128.833 131.981C131.836 131.981 134.269 134.38 134.269 137.341C134.269 140.3 131.836 142.699 128.833 142.699ZM126.66 150.202C126.665 149.63 126.896 149.083 127.303 148.681C127.711 148.279 128.261 148.056 128.833 148.059C130.033 148.059 131.006 149.019 131.006 150.202C131.002 150.775 130.771 151.322 130.364 151.724C129.956 152.127 129.406 152.35 128.833 152.347C128.261 152.35 127.71 152.127 127.303 151.724C126.895 151.322 126.664 150.775 126.66 150.202V150.202ZM128.833 168.424C125.831 168.424 123.398 166.026 123.398 163.065C123.398 160.105 125.831 157.705 128.833 157.705C131.836 157.705 134.269 160.105 134.269 163.065C134.269 166.026 131.836 168.424 128.833 168.424ZM115.789 155.562C112.786 155.562 110.352 153.163 110.352 150.202C110.352 147.242 112.786 144.844 115.789 144.844C118.79 144.844 121.224 147.242 121.224 150.202C121.224 153.163 118.791 155.562 115.789 155.562ZM128.833 123.405C113.823 123.405 101.656 135.403 101.656 150.202C101.656 165.003 113.823 177 128.833 177C143.843 177 156.011 165.002 156.011 150.202C156.011 135.403 143.843 123.405 128.833 123.405Z" fill="white"/>
<path fill-rule="evenodd" clip-rule="evenodd" d="M128.833 168.558C125.872 168.558 123.469 166.218 123.404 163.31C123.404 163.351 123.398 163.389 123.398 163.43C123.398 166.396 125.831 168.8 128.833 168.8C131.836 168.8 134.269 166.396 134.269 163.43C134.269 163.389 134.263 163.351 134.263 163.31C134.198 166.218 131.795 168.558 128.833 168.558ZM173.67 138.296L166.883 135.423V135.665L173.67 138.538C175.325 139.238 176.667 141.248 176.667 143.027V142.785C176.667 141.006 175.325 138.996 173.67 138.295V138.296ZM128.833 142.787C125.872 142.787 123.469 140.447 123.404 137.539C123.404 137.578 123.398 137.618 123.398 137.659C123.398 140.625 125.831 143.027 128.833 143.027C131.836 143.027 134.269 140.625 134.269 137.659C134.269 137.618 134.263 137.578 134.263 137.537C134.198 140.447 131.795 142.785 128.833 142.785V142.787ZM128.833 123.457C113.823 123.457 101.656 135.477 101.656 150.304V150.424C101.724 135.653 113.866 123.699 128.833 123.699C143.801 123.699 155.944 135.653 156.01 150.424L156.011 150.304C156.011 135.475 143.843 123.457 128.833 123.457V123.457ZM128.833 95.2419C149.813 95.2419 166.881 112.102 166.881 132.825V132.585C166.881 111.861 149.814 95 128.833 95C107.854 95 90.7853 111.861 90.7853 132.583V132.827C90.7853 112.102 107.854 95.2419 128.833 95.2419V95.2419ZM81 142.785V143.027C81 141.248 82.3421 139.238 83.9971 138.538L90.784 135.664V135.423L83.9971 138.296C82.3421 138.997 81 141.007 81 142.785ZM115.789 155.673C112.827 155.673 110.424 153.333 110.359 150.424C110.359 150.465 110.352 150.504 110.352 150.544C110.352 153.51 112.786 155.915 115.789 155.915C118.79 155.915 121.224 153.51 121.224 150.544C121.224 150.503 121.218 150.465 121.217 150.424C121.151 153.333 118.749 155.672 115.789 155.672V155.673ZM131.008 150.544C131.008 150.503 131.004 150.463 131.001 150.424C130.966 150.974 130.723 151.491 130.32 151.868C129.917 152.245 129.385 152.453 128.833 152.451C128.281 152.454 127.749 152.245 127.346 151.868C126.943 151.492 126.7 150.975 126.666 150.424C126.663 150.465 126.659 150.504 126.659 150.544C126.659 151.73 127.632 152.692 128.833 152.692C130.035 152.692 131.006 151.73 131.006 150.544H131.008ZM141.878 155.672C138.918 155.672 136.515 153.333 136.45 150.424C136.45 150.465 136.443 150.504 136.443 150.544C136.443 153.51 138.876 155.915 141.878 155.915C144.881 155.915 147.315 153.51 147.315 150.544C147.315 150.503 147.309 150.465 147.308 150.424C147.242 153.333 144.84 155.672 141.878 155.672Z" fill="white"/>
<defs>
<filter id="filter0_f_1015_29948" x="-20" y="25" width="298" height="184" filterUnits="userSpaceOnUse" color-interpolation-filters="sRGB">
<feFlood flood-opacity="0" result="BackgroundImageFix"/>
<feBlend mode="normal" in="SourceGraphic" in2="BackgroundImageFix" result="shape"/>
<feGaussianBlur stdDeviation="18.5" result="effect1_foregroundBlur_1015_29948"/>
</filter>
<filter id="filter1_ii_1015_29948" x="17" y="62" width="224" height="148" filterUnits="userSpaceOnUse" color-interpolation-filters="sRGB">
<feFlood flood-opacity="0" result="BackgroundImageFix"/>
<feBlend mode="normal" in="SourceGraphic" in2="BackgroundImageFix" result="shape"/>
<feColorMatrix in="SourceAlpha" type="matrix" values="0 0 0 0 0 0 0 0 0 0 0 0 0 0 0 0 0 0 127 0" result="hardAlpha"/>
<feOffset dy="4"/>
<feComposite in2="hardAlpha" operator="arithmetic" k2="-1" k3="1"/>
<feColorMatrix type="matrix" values="0 0 0 0 1 0 0 0 0 1 0 0 0 0 1 0 0 0 0.25 0"/>
<feBlend mode="normal" in2="shape" result="effect1_innerShadow_1015_29948"/>
<feColorMatrix in="SourceAlpha" type="matrix" values="0 0 0 0 0 0 0 0 0 0 0 0 0 0 0 0 0 0 127 0" result="hardAlpha"/>
<feOffset dy="-4"/>
<feComposite in2="hardAlpha" operator="arithmetic" k2="-1" k3="1"/>
<feColorMatrix type="matrix" values="0 0 0 0 0 0 0 0 0 0 0 0 0 0 0 0 0 0 0.9 0"/>
<feBlend mode="soft-light" in2="effect1_innerShadow_1015_29948" result="effect2_innerShadow_1015_29948"/>
</filter>
<linearGradient id="paint0_linear_1015_29948" x1="129" y1="34" x2="129" y2="172" gradientUnits="userSpaceOnUse">
<stop stop-color="#7F33EC"/>
</linearGradient>
<linearGradient id="paint1_linear_1015_29948" x1="17" y1="34" x2="197.768" y2="215.142" gradientUnits="userSpaceOnUse">
<stop stop-color="#05815D"/>
<stop offset="1" stop-color="#0C575F"/>
</linearGradient>
<linearGradient id="paint2_linear_1015_29948" x1="17" y1="62" x2="241" y2="210" gradientUnits="userSpaceOnUse">
<stop stop-color="#AA77F3"/>
<stop offset="1" stop-color="#9153EB"/>
</linearGradient>
</defs>
</svg>
