<svg xmlns="http://www.w3.org/2000/svg" xmlns:xlink="http://www.w3.org/1999/xlink" fill="none" version="1.1" width="256" height="256" viewBox="0 0 256 256"><defs><clipPath id="master_svg0_1_0032"><rect x="0" y="0" width="256" height="256" rx="0"/></clipPath><mask id="master_svg1_1_0042" style="mask-type:alpha" maskUnits="objectBoundingBox"><g><g><path d="M104.425,42.3784C100.056,37.0733,93.5437,34,86.6712,34L29,34C22.3726,34,17,39.3726,17,46L17,58.137100000000004L17,68.2L17,160C17,166.627,22.3726,172,29,172L229,172C235.627,172,241,166.627,241,160L241,70.1371C241,63.509699999999995,235.627,58.137100000000004,229,58.137100000000004L117.404,58.137100000000004L104.425,42.3784Z" fill-rule="evenodd" fill="#252E35" fill-opacity="1" style="mix-blend-mode:passthrough"/></g></g></mask><filter id="master_svg2_1_0047" filterUnits="objectBoundingBox" color-interpolation-filters="sRGB" x="-0.33035714285714285" y="-0.5362318840579711" width="1.6607142857142858" height="2.072463768115942"><feFlood flood-opacity="0" result="BackgroundImageFix"/><feBlend mode="normal" in="SourceGraphic" in2="BackgroundImageFix" result="shape"/><feGaussianBlur stdDeviation="18.5" result="effect1_foregroundBlur"/></filter><linearGradient x1="0" y1="0" x2="1.2066012353081996" y2="0.526733766306418" id="master_svg3_1_2030"><stop offset="0%" stop-color="#242E35" stop-opacity="1"/><stop offset="100%" stop-color="#34424C" stop-opacity="1"/></linearGradient><linearGradient x1="0" y1="0.5" x2="1" y2="0.5" id="master_svg4_1_1042"><stop offset="0%" stop-color="#252D35" stop-opacity="1"/><stop offset="98.57142567634583%" stop-color="#111921" stop-opacity="1"/></linearGradient><linearGradient x1="1.0429493188858032" y1="0.47944968938827515" x2="-0.03502649813890457" y2="0.47944968938827515" id="master_svg5_1_0029"><stop offset="0%" stop-color="#C631FF" stop-opacity="1"/><stop offset="100%" stop-color="#4DC4FE" stop-opacity="1"/></linearGradient><linearGradient x1="-0.0003124999930150807" y1="0.41749998927116394" x2="0.9998560571887892" y2="0.41829728208495" id="master_svg6_2_1219"><stop offset="0%" stop-color="#646F78" stop-opacity="1"/><stop offset="0%" stop-color="#5C7181" stop-opacity="1"/><stop offset="100%" stop-color="#030A0F" stop-opacity="1"/></linearGradient></defs><g clip-path="url(#master_svg0_1_0032)"><g><path d="M104.425,42.3784C100.056,37.0733,93.5437,34,86.6712,34L29,34C22.3726,34,17,39.3726,17,46L17,58.137100000000004L17,68.2L17,160C17,166.627,22.3726,172,29,172L229,172C235.627,172,241,166.627,241,160L241,70.1371C241,63.509699999999995,235.627,58.137100000000004,229,58.137100000000004L117.404,58.137100000000004L104.425,42.3784Z" fill-rule="evenodd" fill="#2C4555" fill-opacity="1" style="mix-blend-mode:passthrough"/></g><g mask="url(#master_svg1_1_0042)"><g><g style="mix-blend-mode:multiply" filter="url(#master_svg2_1_0047)"><g><path d="M92.789,49.054500000000004C97.7642,49.054500000000004,102.605,47.030699999999996,106.586,43.28664L116.459,34L229,34C235.627,34,241,40.74017,241,49.054500000000004L241,91.7091L241,156.945C241,165.259,235.627,172,229,172L29,172C22.3726,172,17,165.259,17,156.945L17,91.7091L17,64.1091C17,55.7947,22.3726,49.054500000000004,29,49.054500000000004L87,49.054500000000004L92.789,49.054500000000004Z" fill-rule="evenodd" fill="#000000" fill-opacity="0.30000001192092896" style="mix-blend-mode:passthrough"/></g></g></g></g><g><g><path d="M92.789,74C97.7642,74,102.605,72.3868,106.586,69.4024L116.459,62L229,62C235.627,62,241,67.3726,241,74L241,108L241,198C241,204.627,235.627,210,229,210L29,210C22.3726,210,17,204.627,17,198L17,108L17,86C17,79.3726,22.3726,74,29,74L87,74L92.789,74Z" fill-rule="evenodd" fill="url(#master_svg3_1_2030)" fill-opacity="1" style="mix-blend-mode:passthrough"/></g><g><path d="M106.59,69.4C102.61,72.38,97.77,74,92.79,74L29,74C22.37,74,17,79.37,17,86L17,90C17,83.37,22.37,78,29,78L92.79,78C97.77,78,102.61,76.39,106.59,73.4L116.46,66L229,66C235.63,66,241,71.37,241,78L241,74C241,67.37,235.63,62,229,62L116.46,62L106.59,69.4Z" fill-rule="evenodd" fill="url(#master_svg4_1_1042)" fill-opacity="1" style="mix-blend-mode:passthrough"/></g></g><g><path d="M134.6181,95.57961C134.6181,94.707202,133.94389999999999,94,133.1127,94L125.88730000000001,94C125.056,94,124.3822,94.707202,124.3822,95.57961L124.3822,125.5919C124.3822,126.4645,123.70830000000001,127.1717,122.8768,127.1717L120.3829,127.1717C119.15870000000001,127.1717,118.4465,128.62380000000002,119.1582,129.6694L128.27519999999998,143.0636C128.8756,143.9454,130.1247,143.9454,130.72480000000002,143.0636L139.84210000000002,129.6694C140.55349999999999,128.62380000000002,139.8416,127.1717,138.6171,127.1717L136.1232,127.1717C135.2919,127.1717,134.6181,126.4645,134.6181,125.5919L134.6181,95.57961ZM90.23512,152.76409999999998C88.09929,147.6078,87,142.0812,87,136.5001L99.7523,136.5001C104.3609,136.5001,107.9511,140.3742,109.7147,144.632C110.7825,147.2101,112.3479,149.55270000000002,114.3211,151.52620000000002C116.2944,153.4992,118.637,155.06459999999998,121.2151,156.1327C123.7933,157.2005,126.5567,157.7501,129.3472,157.7501C132.1378,157.7501,134.9009,157.2005,137.47910000000002,156.1327C140.0572,155.06459999999998,142.4,153.4992,144.3733,151.52620000000002C146.3466,149.55270000000002,147.9117,147.2101,148.9798,144.632C150.7433,140.3742,154.3333,136.5001,158.9419,136.5001L172,136.5001C172,142.0812,170.9008,147.6078,168.7649,152.76409999999998C166.62900000000002,157.9204,163.4986,162.6058,159.5521,166.55200000000002C155.6058,170.4986,150.9204,173.6291,145.76409999999998,175.7649C140.6078,177.9008,135.0812,179,129.5001,179C123.919,179,118.3924,177.9008,113.2361,175.7649C108.0796,173.6291,103.3945,170.4986,99.4479,166.55200000000002C95.50142,162.6058,92.37094,157.9204,90.23512,152.76409999999998ZM107.846,103.22832C106.7027,104.1487,106.5075,105.8403,107.4097,107.0065C108.31190000000001,108.1729,109.9699,108.37219999999999,111.113,107.4518L114.994,104.3268C116.137,103.40637,116.3325,101.715,115.4303,100.54857C114.5281,99.3824,112.87010000000001,99.18318,111.7268,100.10357L107.846,103.22832ZM151.57909999999998,103.22832C152.72230000000002,104.1487,152.9176,105.8403,152.0154,107.0065C151.1131,108.1729,149.45510000000002,108.37219999999999,148.3121,107.4518L144.43110000000001,104.3268C143.2881,103.40637,143.0926,101.715,143.9948,100.54857C144.897,99.3824,146.555,99.18318,147.69830000000002,100.10357L151.57909999999998,103.22832ZM95.04521,125.2617C93.69052,124.7168,93.02538,123.1544,93.55953,121.7724L95.37317,117.08C95.90733,115.6979,97.4386,115.0193,98.7933,115.5645C100.1482,116.1093,100.8133,117.6717,100.2789,119.0538L98.4656,123.7461C97.9311,125.12819999999999,96.39989,125.8068,95.04521,125.2617ZM165.8655,121.7724C166.3997,123.1544,165.7346,124.7168,164.37990000000002,125.2617C163.02519999999998,125.8068,161.4939,125.12819999999999,160.9595,123.7461L159.1461,119.0538C158.61169999999998,117.6717,159.2769,116.1093,160.6318,115.5645C161.9865,115.0193,163.5178,115.6979,164.0519,117.08L165.8655,121.7724Z" fill-rule="evenodd" fill="url(#master_svg5_1_0029)" fill-opacity="1" style="mix-blend-mode:passthrough"/></g><g><path d="M160,165.72909C151.9109,174.2263,140.93970000000002,179,129.4999,179C118.0603,179,107.08905,174.2263,99,165.72909C103.5452,160.95457,110.8973,161.226961,116.7774,163.95457C120.7476,165.79626,125.0757,166.77405,129.4999,166.77405C133.924,166.77405,138.25209999999998,165.79626,142.2226,163.95457C148.1027,161.226961,155.4548,160.95457,160,165.72909Z" fill="#000000" fill-opacity="0.25" style="mix-blend-mode:passthrough"/></g><g><path d="M17,194L17,198C17,204.63,22.37,210,29,210L229,210C235.63,210,241,204.63,241,198L241,194C241,200.63,235.63,206,229,206L29,206C22.37,206,17,200.63,17,194Z" fill-rule="evenodd" fill="url(#master_svg6_2_1219)" fill-opacity="1" style="mix-blend-mode:passthrough"/></g></g></svg>