<svg xmlns="http://www.w3.org/2000/svg" xmlns:xlink="http://www.w3.org/1999/xlink" fill="none" version="1.1" width="256" height="256" viewBox="0 0 256 256"><defs><clipPath id="master_svg0_12_001"><rect x="0" y="0" width="256" height="256" rx="0"/></clipPath><mask id="master_svg1_12_012" style="mask-type:luminance" maskUnits="userSpaceOnUse" x="17" y="34" width="224" height="138"><path d="M104.425003,42.3783989C100.056,37.073299399999996,93.543701,34,86.671204,34L29,34C22.3726006,34,17,39.3726006,17,46L17,58.137100000000004L17,68.199997L17,160C17,166.627,22.3726006,172,29,172L229,172C235.627,172,241,166.627,241,160L241,70.1371C241,63.509701,235.627,58.137100000000004,229,58.137100000000004L117.404,58.137100000000004L104.425003,42.3783989Z" fill-rule="evenodd" fill="#1D1E21" fill-opacity="1" style="mix-blend-mode:passthrough"/></mask><filter id="master_svg2_12_010" filterUnits="objectBoundingBox" color-interpolation-filters="sRGB" x="-0.33035714285714285" y="-0.5362318840579711" width="1.6607142857142858" height="2.072463768115942"><feFlood flood-opacity="0" result="BackgroundImageFix"/><feBlend mode="normal" in="SourceGraphic" in2="BackgroundImageFix" result="shape"/><feGaussianBlur stdDeviation="18.5" result="effect1_foregroundBlur"/></filter><linearGradient x1="-0.03118896484375" y1="0" x2="1.4024671995998657" y2="0.6105594654458093" id="master_svg3_10_2362"><stop offset="0%" stop-color="#303237" stop-opacity="1"/><stop offset="100%" stop-color="#0A0B0D" stop-opacity="1"/></linearGradient><linearGradient x1="0" y1="0.5" x2="1" y2="0.5" id="master_svg4_12_025"><stop offset="0%" stop-color="#58B7FE" stop-opacity="1"/><stop offset="100%" stop-color="#B940FF" stop-opacity="1"/></linearGradient><linearGradient x1="1.0429493188858032" y1="0.47944968938827515" x2="-0.03502649813890457" y2="0.47944968938827515" id="master_svg5_1_0029"><stop offset="0%" stop-color="#C631FF" stop-opacity="1"/><stop offset="100%" stop-color="#4DC4FE" stop-opacity="1"/></linearGradient><linearGradient x1="0" y1="0.5" x2="1" y2="0.5" id="master_svg6_10_4776"><stop offset="0%" stop-color="#404040" stop-opacity="1"/><stop offset="100%" stop-color="#111111" stop-opacity="1"/><stop offset="100%" stop-color="#FFFFFF" stop-opacity="1"/></linearGradient></defs><g clip-path="url(#master_svg0_12_001)"><path d="M104.425003,42.3783989C100.056,37.073299399999996,93.543701,34,86.671204,34L29,34C22.3726006,34,17,39.3726006,17,46L17,58.137100000000004L17,68.199997L17,160C17,166.627,22.3726006,172,29,172L229,172C235.627,172,241,166.627,241,160L241,70.1371C241,63.509701,235.627,58.137100000000004,229,58.137100000000004L117.404,58.137100000000004L104.425003,42.3783989Z" fill-rule="evenodd" fill="#26282C" fill-opacity="1" style="mix-blend-mode:passthrough"/><g mask="url(#master_svg1_12_012)"><g style="mix-blend-mode:multiply" filter="url(#master_svg2_12_010)"><path d="M92.789001,49.054545C97.764198,49.054545,102.605003,47.030716,106.585999,43.286644L116.459,34L229,34C235.627,34,241,40.7401667,241,49.054545L241,91.709091L241,156.94546C241,165.25932,235.627,172,229,172L29,172C22.3726006,172,17,165.25932,17,156.94546L17,91.709091L17,64.109091C17,55.794712000000004,22.3726006,49.054545,29,49.054545L87,49.054545L92.789001,49.054545Z" fill-rule="evenodd" fill="#000000" fill-opacity="1" style="mix-blend-mode:passthrough"/></g></g><path d="M92.789001,74C97.764198,74,102.605003,72.386803,106.585999,69.4023972L116.459,62L229,62C235.627,62,241,67.3725967,241,74L241,108L241,198C241,204.627,235.627,210,229,210L29,210C22.3726006,210,17,204.627,17,198L17,108L17,86C17,79.372597,22.3726006,74,29,74L87,74L92.789001,74Z" fill-rule="evenodd" fill="url(#master_svg3_10_2362)" fill-opacity="1" style="mix-blend-mode:passthrough"/><path d="M106.589996,69.4000015C102.609993,72.380005,97.769997,74,92.789993,74L29,74C22.3699989,74,17,79.370003,17,86L17,90C17,83.370003,22.3699989,78,29,78L92.790001,78C97.770004,78,102.610001,76.389999,106.590004,73.400002L116.460007,66L229,66C235.63,66,241,71.3700027,241,78L241,74C241,67.3700027,235.63,62,229,62L116.459999,62L106.589996,69.4000015Z" fill-rule="evenodd" fill="url(#master_svg4_12_025)" fill-opacity="1" style="mix-blend-mode:passthrough"/><path d="M133.618061,95.5796071C133.618061,94.7072016,132.943947,94,132.112709,94L124.887287,94C124.05604600000001,94,123.382187,94.7072016,123.382187,95.5796071L123.382187,125.591892C123.382187,126.46447,122.708332,127.171696,121.876835,127.171696L119.382866,127.171696C118.158669,127.171696,117.446461,128.623753,118.158169,129.669403L127.275169,143.063637C127.875572,143.945435,129.12466799999999,143.945435,129.724819,143.063637L138.842072,129.669403C139.553535,128.623753,138.841576,127.171696,137.61713,127.171696L135.123161,127.171696C134.291912,127.171696,133.618061,126.46447,133.618061,125.591892L133.618061,95.5796071ZM89.2351167,152.764111C87.0992897,147.607826,86,142.081242,86,136.500122L98.752254,136.500122C103.360933,136.500122,106.95110700000001,140.374187,108.714693,144.631992C109.782509,147.21013299999998,111.347868,149.552704,113.321135,151.526211C115.294397,153.499222,117.63696300000001,155.06459,120.215107,156.132652C122.793251,157.200466,125.556664,157.75006100000002,128.347218,157.75006100000002C131.137787,157.75006100000002,133.900948,157.200466,136.479092,156.132652C139.057228,155.06459,141.400047,153.499222,143.37331,151.526211C145.346573,149.552704,146.91168199999998,147.21013299999998,147.979752,144.631992C149.743336,140.374187,153.33326,136.500122,157.94194,136.500122L171,136.500122C171,142.081242,169.90081800000002,147.607826,167.764923,152.764111C165.629044,157.920387,162.49856599999998,162.60576600000002,158.552055,166.552048C154.60576600000002,170.498573,149.920391,173.629051,144.764107,175.764931C139.607822,177.900803,134.08123799999998,179,128.500122,179C122.91901,179,117.39242,177.900803,112.236137,175.764931C107.079601,173.629051,102.394474,170.498573,98.447947,166.552048C94.50141909999999,162.60576600000002,91.3709421,157.920387,89.2351167,152.764111ZM106.846022,103.2283192C105.702749,104.148709,105.507519,105.840327,106.409731,107.006505C107.31194500000001,108.172933,108.969944,108.372153,110.112959,107.451762L113.993994,104.326764C115.137012,103.4063711,115.332497,101.715003,114.430285,100.5485749C113.528074,99.3823977,111.870071,99.1831794,110.726805,100.1035705L106.846022,103.2283192ZM150.57905599999998,103.2283192C151.722328,104.148709,151.917557,105.840327,151.01535,107.006505C150.113136,108.172933,148.455128,108.372153,147.312119,107.451762L143.43108,104.326764C142.288063,103.4063711,142.092587,101.715003,142.994789,100.5485749C143.89700299999998,99.3823977,145.555,99.1831794,146.698277,100.1035705L150.57905599999998,103.2283192ZM94.045207,125.261684C92.6905174,124.71682,92.0253768,123.154444,92.5595331,121.772364L94.3731718,117.08001300000001C94.9073277,115.697931,96.438575,115.019339,97.793262,115.564453C99.148199,116.109318,99.813342,117.67169200000001,99.278939,119.053774L97.46555000000001,123.746128C96.931142,125.128208,95.3998947,125.806799,94.045207,125.261684ZM164.865547,121.772364C165.39970399999999,123.154444,164.734558,124.71682,163.379868,125.261684C162.025185,125.806799,160.493935,125.128208,159.95953400000002,123.746128L158.14614899999998,119.053774C157.61174,117.67169200000001,158.276871,116.109318,159.631821,115.564453C160.986511,115.019339,162.517761,115.697931,163.051895,117.08001300000001L164.865547,121.772364Z" fill-rule="evenodd" fill="url(#master_svg5_1_0029)" fill-opacity="1" style="mix-blend-mode:passthrough"/><path d="M17,194L17,198C17,204.630005,22.3699989,210,29,210L229,210C235.63,210,241,204.630005,241,198L241,194C241,200.6300049,235.63,206,229,206L29,206C22.3699989,206,17,200.6300049,17,194Z" fill-rule="evenodd" fill="url(#master_svg6_10_4776)" fill-opacity="1" style="mix-blend-mode:passthrough"/></g></svg>