<?xml version="1.0" encoding="UTF-8" standalone="no"?>
<svg
   width="256"
   height="256"
   viewBox="0 0 256 256"
   fill="none"
   version="1.1"
   id="svg12"
   sodipodi:docname="academia_tv.svg"
   xml:space="preserve"
   inkscape:version="1.3.2 (091e20e, 2023-11-25, custom)"
   xmlns:inkscape="http://www.inkscape.org/namespaces/inkscape"
   xmlns:sodipodi="http://sodipodi.sourceforge.net/DTD/sodipodi-0.dtd"
   xmlns="http://www.w3.org/2000/svg"
   xmlns:svg="http://www.w3.org/2000/svg"><sodipodi:namedview
     id="namedview12"
     pagecolor="#ffffff"
     bordercolor="#666666"
     borderopacity="1.0"
     inkscape:showpageshadow="2"
     inkscape:pageopacity="0.0"
     inkscape:pagecheckerboard="0"
     inkscape:deskcolor="#d1d1d1"
     inkscape:zoom="3.2361503"
     inkscape:cx="161.76628"
     inkscape:cy="88.99463"
     inkscape:window-width="2400"
     inkscape:window-height="1494"
     inkscape:window-x="673"
     inkscape:window-y="2149"
     inkscape:window-maximized="1"
     inkscape:current-layer="svg12" /><path
     fill-rule="evenodd"
     clip-rule="evenodd"
     d="M104.425 42.3784C100.056 37.0733 93.5437 34 86.6712 34H29C22.3726 34 17 39.3726 17 46V58.1371V68.2V160C17 166.627 22.3726 172 29 172H229C235.627 172 241 166.627 241 160V70.1371C241 63.5097 235.627 58.1371 229 58.1371H117.404L104.425 42.3784Z"
     fill="#091E36"
     id="path1"
     style="fill:#292d31;fill-opacity:1" /><mask
     id="mask0_510_11951"
     style="mask-type:alpha"
     maskUnits="userSpaceOnUse"
     x="17"
     y="34"
     width="224"
     height="138"><path
       fill-rule="evenodd"
       clip-rule="evenodd"
       d="M104.425 42.3784C100.056 37.0733 93.5437 34 86.6712 34H29C22.3726 34 17 39.3726 17 46V58.1371V68.2V160C17 166.627 22.3726 172 29 172H229C235.627 172 241 166.627 241 160V70.1371C241 63.5097 235.627 58.1371 229 58.1371H117.404L104.425 42.3784Z"
       fill="url(#paint0_linear_510_11951)"
       id="path2" /></mask><g
     mask="url(#mask0_510_11951)"
     id="g4"><g
       style="mix-blend-mode:multiply"
       filter="url(#filter0_f_510_11951)"
       id="g3"><path
         fill-rule="evenodd"
         clip-rule="evenodd"
         d="M92.789 74C97.7642 74 102.605 72.3868 106.586 69.4024L116.459 62H229C235.627 62 241 67.3726 241 74V108V160C241 166.627 235.627 172 229 172H29C22.3726 172 17 166.627 17 160L17 108V86C17 79.3726 22.3726 74 29 74H87H92.789Z"
         fill="black"
         fill-opacity="0.3"
         id="path3" /></g></g><g
     filter="url(#filter1_ii_510_11951)"
     id="g5"
     style="fill:#292e32;fill-opacity:1"><path
       fill-rule="evenodd"
       clip-rule="evenodd"
       d="M92.789 74C97.7642 74 102.605 72.3868 106.586 69.4024L116.459 62H229C235.627 62 241 67.3726 241 74V108V198C241 204.627 235.627 210 229 210H29C22.3726 210 17 204.627 17 198L17 108V86C17 79.3726 22.3726 74 29 74H87H92.789Z"
       fill="url(#paint1_linear_510_11951)"
       id="path4"
       style="fill:#292e32;fill-opacity:1" /></g><defs
     id="defs12"><filter
       id="filter0_f_510_11951"
       x="-20"
       y="25"
       width="298"
       height="184"
       filterUnits="userSpaceOnUse"
       color-interpolation-filters="sRGB"><feFlood
         flood-opacity="0"
         result="BackgroundImageFix"
         id="feFlood5" /><feBlend
         mode="normal"
         in="SourceGraphic"
         in2="BackgroundImageFix"
         result="shape"
         id="feBlend5" /><feGaussianBlur
         stdDeviation="18.5"
         result="effect1_foregroundBlur_510_11951"
         id="feGaussianBlur5" /></filter><filter
       id="filter1_ii_510_11951"
       x="17"
       y="62"
       width="224"
       height="148"
       filterUnits="userSpaceOnUse"
       color-interpolation-filters="sRGB"><feFlood
         flood-opacity="0"
         result="BackgroundImageFix"
         id="feFlood6" /><feBlend
         mode="normal"
         in="SourceGraphic"
         in2="BackgroundImageFix"
         result="shape"
         id="feBlend6" /><feColorMatrix
         in="SourceAlpha"
         type="matrix"
         values="0 0 0 0 0 0 0 0 0 0 0 0 0 0 0 0 0 0 127 0"
         result="hardAlpha"
         id="feColorMatrix6" /><feOffset
         dy="4"
         id="feOffset6" /><feComposite
         in2="hardAlpha"
         operator="arithmetic"
         k2="-1"
         k3="1"
         id="feComposite6" /><feColorMatrix
         type="matrix"
         values="0 0 0 0 1 0 0 0 0 1 0 0 0 0 1 0 0 0 0.25 0"
         id="feColorMatrix7" /><feBlend
         mode="normal"
         in2="shape"
         result="effect1_innerShadow_510_11951"
         id="feBlend7" /><feColorMatrix
         in="SourceAlpha"
         type="matrix"
         values="0 0 0 0 0 0 0 0 0 0 0 0 0 0 0 0 0 0 127 0"
         result="hardAlpha"
         id="feColorMatrix8" /><feOffset
         dy="-4"
         id="feOffset8" /><feComposite
         in2="hardAlpha"
         operator="arithmetic"
         k2="-1"
         k3="1"
         id="feComposite8" /><feColorMatrix
         type="matrix"
         values="0 0 0 0 0 0 0 0 0 0 0 0 0 0 0 0 0 0 0.9 0"
         id="feColorMatrix9" /><feBlend
         mode="soft-light"
         in2="effect1_innerShadow_510_11951"
         result="effect2_innerShadow_510_11951"
         id="feBlend9" /></filter><linearGradient
       id="paint0_linear_510_11951"
       x1="17"
       y1="34"
       x2="197.768"
       y2="215.142"
       gradientUnits="userSpaceOnUse"><stop
         stop-color="#05815D"
         id="stop9" /><stop
         offset="1"
         stop-color="#0C575F"
         id="stop10" /></linearGradient><linearGradient
       id="paint1_linear_510_11951"
       x1="17"
       y1="62"
       x2="241"
       y2="210"
       gradientUnits="userSpaceOnUse"><stop
         stop-color="#0D1027"
         id="stop11" /><stop
         offset="1"
         stop-color="#081F37"
         id="stop12" /></linearGradient></defs><path
     style="fill:#f0f0f0;fill-opacity:1;stroke-width:1"
     d="m 95.005457,182.96795 c -0.0755,-0.12209 0.64191,-2.69145 1.59413,-5.7097 0.95223,-3.01823 3.557523,-11.36054 5.789533,-18.53845 2.23201,-7.1779 4.71634,-15.14012 5.52072,-17.6938 0.80438,-2.55367 2.497,-7.97476 3.76137,-12.04684 1.26438,-4.07207 2.90262,-9.32375 3.64053,-11.67037 0.73792,-2.34663 2.37774,-7.59829 3.64404,-11.67037 1.26633,-4.07208 2.97442,-9.524315 3.79577,-12.116071 l 1.49337,-4.712281 3.80835,0.06925 3.80834,0.06925 1.30138,4.141107 c 0.71577,2.277599 2.33912,7.472795 3.60745,11.544895 1.26834,4.07208 2.96256,9.49315 3.76496,12.04683 0.80238,2.55367 2.44084,7.80534 3.64099,11.67038 1.20017,3.86501 2.84049,9.11669 3.64515,11.67036 0.80466,2.55369 2.72484,8.70887 4.26704,13.67819 1.54221,4.96932 3.23543,10.3904 3.7627,12.04685 3.29323,10.34556 5.27637,16.97592 5.14233,17.19278 -0.1802,0.29159 -14.39217,0.34707 -14.84448,0.0579 -0.29608,-0.18927 -1.09105,-2.79796 -2.73307,-8.96855 -0.51425,-1.93251 -1.03698,-3.71131 -1.16161,-3.95286 -0.21167,-0.41029 -1.14164,-0.43921 -14.11618,-0.43921 -10.81394,0 -13.94375,0.0695 -14.13415,0.31372 -0.13449,0.17253 -1.01266,3.02424 -1.95149,6.33713 -0.93883,3.31288 -1.80656,6.22106 -1.92832,6.46263 -0.20328,0.40331 -0.82445,0.43921 -7.6015,0.43921 -4.059083,0 -7.441893,-0.0999 -7.517353,-0.222 z m 42.271523,-29.03284 c 0,-0.24531 -1.9976,-6.86642 -3.13751,-10.39935 -2.08345,-6.45731 -5.37612,-17.01736 -5.67006,-18.18479 -0.16245,-0.64512 -0.38054,-1.08091 -0.48465,-0.96842 -0.10405,0.11255 -0.38237,0.88217 -0.61835,1.71039 -0.236,0.82822 -1.84126,5.96695 -3.56725,11.4194 -2.84206,8.97805 -5.09438,16.26483 -5.09438,16.48142 0,0.0456 4.17873,0.083 9.28609,0.083 5.10736,0 9.28611,-0.0637 9.28611,-0.14164 z"
     id="path12" /></svg>
