<?xml version="1.0" encoding="UTF-8" standalone="no"?>
<svg
   width="256"
   height="256"
   viewBox="0 0 256 256"
   fill="none"
   version="1.1"
   id="svg12"
   sodipodi:docname="academia_tv_horeca.svg"
   xml:space="preserve"
   inkscape:version="1.3.2 (091e20e, 2023-11-25, custom)"
   xmlns:inkscape="http://www.inkscape.org/namespaces/inkscape"
   xmlns:sodipodi="http://sodipodi.sourceforge.net/DTD/sodipodi-0.dtd"
   xmlns="http://www.w3.org/2000/svg"
   xmlns:svg="http://www.w3.org/2000/svg"><sodipodi:namedview
     id="namedview12"
     pagecolor="#ffffff"
     bordercolor="#666666"
     borderopacity="1.0"
     inkscape:showpageshadow="2"
     inkscape:pageopacity="0.0"
     inkscape:pagecheckerboard="0"
     inkscape:deskcolor="#d1d1d1"
     inkscape:zoom="1.6180752"
     inkscape:cx="197.76584"
     inkscape:cy="127.31176"
     inkscape:window-width="2400"
     inkscape:window-height="1494"
     inkscape:window-x="673"
     inkscape:window-y="2149"
     inkscape:window-maximized="1"
     inkscape:current-layer="svg12"
     showguides="false" /><path
     fill-rule="evenodd"
     clip-rule="evenodd"
     d="M104.425 42.3784C100.056 37.0733 93.5437 34 86.6712 34H29C22.3726 34 17 39.3726 17 46V58.1371V68.2V160C17 166.627 22.3726 172 29 172H229C235.627 172 241 166.627 241 160V70.1371C241 63.5097 235.627 58.1371 229 58.1371H117.404L104.425 42.3784Z"
     fill="#091E36"
     id="path1"
     style="fill:#241425;fill-opacity:1" /><mask
     id="mask0_510_11951"
     style="mask-type:alpha"
     maskUnits="userSpaceOnUse"
     x="17"
     y="34"
     width="224"
     height="138"><path
       fill-rule="evenodd"
       clip-rule="evenodd"
       d="M104.425 42.3784C100.056 37.0733 93.5437 34 86.6712 34H29C22.3726 34 17 39.3726 17 46V58.1371V68.2V160C17 166.627 22.3726 172 29 172H229C235.627 172 241 166.627 241 160V70.1371C241 63.5097 235.627 58.1371 229 58.1371H117.404L104.425 42.3784Z"
       fill="url(#paint0_linear_510_11951)"
       id="path2" /></mask><g
     mask="url(#mask0_510_11951)"
     id="g4"><g
       style="mix-blend-mode:multiply"
       filter="url(#filter0_f_510_11951)"
       id="g3"><path
         fill-rule="evenodd"
         clip-rule="evenodd"
         d="M92.789 74C97.7642 74 102.605 72.3868 106.586 69.4024L116.459 62H229C235.627 62 241 67.3726 241 74V108V160C241 166.627 235.627 172 229 172H29C22.3726 172 17 166.627 17 160L17 108V86C17 79.3726 22.3726 74 29 74H87H92.789Z"
         fill="black"
         fill-opacity="0.3"
         id="path3" /></g></g><g
     filter="url(#filter1_ii_510_11951)"
     id="g5"
     style="fill:#f64c9e;fill-opacity:1"><path
       fill-rule="evenodd"
       clip-rule="evenodd"
       d="M92.789 74C97.7642 74 102.605 72.3868 106.586 69.4024L116.459 62H229C235.627 62 241 67.3726 241 74V108V198C241 204.627 235.627 210 229 210H29C22.3726 210 17 204.627 17 198L17 108V86C17 79.3726 22.3726 74 29 74H87H92.789Z"
       fill="url(#paint1_linear_510_11951)"
       id="path4"
       style="fill:#f64c9e;fill-opacity:1" /></g><defs
     id="defs12"><filter
       id="filter0_f_510_11951"
       x="-20"
       y="25"
       width="298"
       height="184"
       filterUnits="userSpaceOnUse"
       color-interpolation-filters="sRGB"><feFlood
         flood-opacity="0"
         result="BackgroundImageFix"
         id="feFlood5" /><feBlend
         mode="normal"
         in="SourceGraphic"
         in2="BackgroundImageFix"
         result="shape"
         id="feBlend5" /><feGaussianBlur
         stdDeviation="18.5"
         result="effect1_foregroundBlur_510_11951"
         id="feGaussianBlur5" /></filter><filter
       id="filter1_ii_510_11951"
       x="17"
       y="62"
       width="224"
       height="148"
       filterUnits="userSpaceOnUse"
       color-interpolation-filters="sRGB"><feFlood
         flood-opacity="0"
         result="BackgroundImageFix"
         id="feFlood6" /><feBlend
         mode="normal"
         in="SourceGraphic"
         in2="BackgroundImageFix"
         result="shape"
         id="feBlend6" /><feColorMatrix
         in="SourceAlpha"
         type="matrix"
         values="0 0 0 0 0 0 0 0 0 0 0 0 0 0 0 0 0 0 127 0"
         result="hardAlpha"
         id="feColorMatrix6" /><feOffset
         dy="4"
         id="feOffset6" /><feComposite
         in2="hardAlpha"
         operator="arithmetic"
         k2="-1"
         k3="1"
         id="feComposite6" /><feColorMatrix
         type="matrix"
         values="0 0 0 0 1 0 0 0 0 1 0 0 0 0 1 0 0 0 0.25 0"
         id="feColorMatrix7" /><feBlend
         mode="normal"
         in2="shape"
         result="effect1_innerShadow_510_11951"
         id="feBlend7" /><feColorMatrix
         in="SourceAlpha"
         type="matrix"
         values="0 0 0 0 0 0 0 0 0 0 0 0 0 0 0 0 0 0 127 0"
         result="hardAlpha"
         id="feColorMatrix8" /><feOffset
         dy="-4"
         id="feOffset8" /><feComposite
         in2="hardAlpha"
         operator="arithmetic"
         k2="-1"
         k3="1"
         id="feComposite8" /><feColorMatrix
         type="matrix"
         values="0 0 0 0 0 0 0 0 0 0 0 0 0 0 0 0 0 0 0.9 0"
         id="feColorMatrix9" /><feBlend
         mode="soft-light"
         in2="effect1_innerShadow_510_11951"
         result="effect2_innerShadow_510_11951"
         id="feBlend9" /></filter><linearGradient
       id="paint0_linear_510_11951"
       x1="17"
       y1="34"
       x2="197.768"
       y2="215.142"
       gradientUnits="userSpaceOnUse"><stop
         stop-color="#05815D"
         id="stop9" /><stop
         offset="1"
         stop-color="#0C575F"
         id="stop10" /></linearGradient><linearGradient
       id="paint1_linear_510_11951"
       x1="17"
       y1="62"
       x2="241"
       y2="210"
       gradientUnits="userSpaceOnUse"><stop
         stop-color="#0D1027"
         id="stop11" /><stop
         offset="1"
         stop-color="#081F37"
         id="stop12" /></linearGradient></defs><g
     id="g20"
     transform="matrix(0.05991521,0,0,0.05991521,179.82755,37.961582)"
     style="fill:#fbd6f0;fill-opacity:1;stroke-width:16.6902"><path
       style="fill:#fbd6f0;fill-opacity:1;stroke:none;stroke-width:16.6902px;stroke-linecap:butt;stroke-linejoin:miter;stroke-opacity:1"
       d="m -62.453846,2240.3642 c -140.624964,11.1086 -281.282544,23.1809 -422.248124,29.6051 -213.58947,11.1709 -427.65275,8.9173 -641.41973,5.3563 -177.6921,-6.6346 -355.1928,-18.8153 -532.2467,-34.8044 -25.0123,-3.0541 -52.5199,3.6919 -65.6737,27.1148 -16.1894,28.6714 1.7942,74.0219 37.7736,74.6664 142.1003,19.8035 285.741,26.2792 428.864,34.6186 146.4911,6.5167 293.26019,8.9698 439.75685,10.4264 253.31916,-4.2471 507.11329,-12.0911 758.812244,-42.6594 25.16523,-0.811 56.1906198,-13.8611 57.5007898,-42.8017 8.37322,-33.5918 -24.0644298,-67.2816 -57.8279098,-61.5519 z"
       id="path19" /><path
       style="fill:#fbd6f0;fill-opacity:1;stroke:none;stroke-width:16.6902px;stroke-linecap:butt;stroke-linejoin:miter;stroke-opacity:1"
       d="m -552.1793,885.71724 c -86.78015,0.1512 -167.82359,71.17467 -173.85129,158.82236 -3.68972,22.6922 3.49811,46.0326 1.00903,68.2017 -9.26531,12.0107 -25.32912,-4.2302 -37.48002,-0.9696 -96.62626,-3.7414 -195.01959,2.8832 -287.28972,33.7654 -70.3326,23.5259 -139.1365,55.0999 -199.2674,98.7222 -6.6767,7.458 -19.1108,8.2958 -26.193,16.6335 -120.5297,92.8176 -216.2381,220.1591 -263.5413,365.3224 -12.2851,34.4415 22.3156,58.7591 46.0671,76.3108 124.7718,80.9584 268.067,126.1222 405.6321,179.9858 226.65166,81.3157 454.36663,160.3044 685.63053,227.5846 83.28055,20.9222 168.82234,48.1492 255.64389,38.2304 35.04999,-6.2688 40.24609,-48.6881 49.421064,-76.4561 60.42187,-211.7342 23.01848,-449.5578 -102.400324,-630.9756 -60.51301,-89.0189 -139.79906,-166.3915 -232.67173,-220.7735 -6.3574,-15.0049 15.22928,-25.005 21.89804,-35.9163 27.30407,-33.0525 47.26201,-74.4025 43.77394,-118.2847 2.97447,-51.6121 -21.54752,-101.92212 -61.65017,-133.96278 -33.67157,-32.18664 -77.78096,-49.98388 -124.73074,-46.24058 z m 3.35263,106.33558 c 37.54998,0.20414 74.42278,29.59808 73.98357,68.95798 4.16501,47.8068 -46.49078,91.9963 -93.06837,75.1444 -47.16724,-12.4339 -68.40375,-74.4975 -39.40558,-113.4437 12.66336,-19.2069 35.9281,-29.73168 58.49038,-30.65868 z m -341.55345,321.90878 c 33.40025,-1.298 66.36443,23.0026 67.57868,57.9304 2.6708,29.2523 -23.68742,50.6643 -50.18215,56.1365 -69.10233,20.6882 -141.48641,46.958 -187.63211,105.7377 -28.4213,31.8161 -48.7249,69.7729 -72.7118,104.5213 -22.7609,32.2143 -77.4727,22.1154 -91.4502,-13.3765 -19.7929,-38.0109 9.5918,-76.8265 27.5177,-109.1488 67.5595,-107.8756 181.1232,-182.7862 306.87988,-201.8006 z"
       id="path20" /></g></svg>
