<?xml version="1.0" encoding="UTF-8" standalone="no"?>
<svg
   width="256"
   height="256"
   viewBox="0 0 256 256"
   fill="none"
   version="1.1"
   id="svg12"
   sodipodi:docname="academia_tv_benessere.svg"
   xml:space="preserve"
   inkscape:version="1.3.2 (091e20e, 2023-11-25, custom)"
   xmlns:inkscape="http://www.inkscape.org/namespaces/inkscape"
   xmlns:sodipodi="http://sodipodi.sourceforge.net/DTD/sodipodi-0.dtd"
   xmlns="http://www.w3.org/2000/svg"
   xmlns:svg="http://www.w3.org/2000/svg"><sodipodi:namedview
     id="namedview12"
     pagecolor="#ffffff"
     bordercolor="#666666"
     borderopacity="1.0"
     inkscape:showpageshadow="2"
     inkscape:pageopacity="0.0"
     inkscape:pagecheckerboard="0"
     inkscape:deskcolor="#d1d1d1"
     inkscape:zoom="2.2883039"
     inkscape:cx="68.828271"
     inkscape:cy="175.23896"
     inkscape:window-width="2400"
     inkscape:window-height="1494"
     inkscape:window-x="673"
     inkscape:window-y="2149"
     inkscape:window-maximized="1"
     inkscape:current-layer="svg12"
     showguides="false" /><path
     fill-rule="evenodd"
     clip-rule="evenodd"
     d="M104.425 42.3784C100.056 37.0733 93.5437 34 86.6712 34H29C22.3726 34 17 39.3726 17 46V58.1371V68.2V160C17 166.627 22.3726 172 29 172H229C235.627 172 241 166.627 241 160V70.1371C241 63.5097 235.627 58.1371 229 58.1371H117.404L104.425 42.3784Z"
     fill="#091E36"
     id="path1"
     style="fill:#202d1e;fill-opacity:1" /><mask
     id="mask0_510_11951"
     style="mask-type:alpha"
     maskUnits="userSpaceOnUse"
     x="17"
     y="34"
     width="224"
     height="138"><path
       fill-rule="evenodd"
       clip-rule="evenodd"
       d="M104.425 42.3784C100.056 37.0733 93.5437 34 86.6712 34H29C22.3726 34 17 39.3726 17 46V58.1371V68.2V160C17 166.627 22.3726 172 29 172H229C235.627 172 241 166.627 241 160V70.1371C241 63.5097 235.627 58.1371 229 58.1371H117.404L104.425 42.3784Z"
       fill="url(#paint0_linear_510_11951)"
       id="path2" /></mask><g
     mask="url(#mask0_510_11951)"
     id="g4"><g
       style="mix-blend-mode:multiply"
       filter="url(#filter0_f_510_11951)"
       id="g3"><path
         fill-rule="evenodd"
         clip-rule="evenodd"
         d="M92.789 74C97.7642 74 102.605 72.3868 106.586 69.4024L116.459 62H229C235.627 62 241 67.3726 241 74V108V160C241 166.627 235.627 172 229 172H29C22.3726 172 17 166.627 17 160L17 108V86C17 79.3726 22.3726 74 29 74H87H92.789Z"
         fill="black"
         fill-opacity="0.3"
         id="path3" /></g></g><g
     filter="url(#filter1_ii_510_11951)"
     id="g5"
     style="fill:#94a582;fill-opacity:1"><path
       fill-rule="evenodd"
       clip-rule="evenodd"
       d="M92.789 74C97.7642 74 102.605 72.3868 106.586 69.4024L116.459 62H229C235.627 62 241 67.3726 241 74V108V198C241 204.627 235.627 210 229 210H29C22.3726 210 17 204.627 17 198L17 108V86C17 79.3726 22.3726 74 29 74H87H92.789Z"
       fill="url(#paint1_linear_510_11951)"
       id="path4"
       style="fill:#94a582;fill-opacity:1" /></g><defs
     id="defs12"><filter
       id="filter0_f_510_11951"
       x="-20"
       y="25"
       width="298"
       height="184"
       filterUnits="userSpaceOnUse"
       color-interpolation-filters="sRGB"><feFlood
         flood-opacity="0"
         result="BackgroundImageFix"
         id="feFlood5" /><feBlend
         mode="normal"
         in="SourceGraphic"
         in2="BackgroundImageFix"
         result="shape"
         id="feBlend5" /><feGaussianBlur
         stdDeviation="18.5"
         result="effect1_foregroundBlur_510_11951"
         id="feGaussianBlur5" /></filter><filter
       id="filter1_ii_510_11951"
       x="17"
       y="62"
       width="224"
       height="148"
       filterUnits="userSpaceOnUse"
       color-interpolation-filters="sRGB"><feFlood
         flood-opacity="0"
         result="BackgroundImageFix"
         id="feFlood6" /><feBlend
         mode="normal"
         in="SourceGraphic"
         in2="BackgroundImageFix"
         result="shape"
         id="feBlend6" /><feColorMatrix
         in="SourceAlpha"
         type="matrix"
         values="0 0 0 0 0 0 0 0 0 0 0 0 0 0 0 0 0 0 127 0"
         result="hardAlpha"
         id="feColorMatrix6" /><feOffset
         dy="4"
         id="feOffset6" /><feComposite
         in2="hardAlpha"
         operator="arithmetic"
         k2="-1"
         k3="1"
         id="feComposite6" /><feColorMatrix
         type="matrix"
         values="0 0 0 0 1 0 0 0 0 1 0 0 0 0 1 0 0 0 0.25 0"
         id="feColorMatrix7" /><feBlend
         mode="normal"
         in2="shape"
         result="effect1_innerShadow_510_11951"
         id="feBlend7" /><feColorMatrix
         in="SourceAlpha"
         type="matrix"
         values="0 0 0 0 0 0 0 0 0 0 0 0 0 0 0 0 0 0 127 0"
         result="hardAlpha"
         id="feColorMatrix8" /><feOffset
         dy="-4"
         id="feOffset8" /><feComposite
         in2="hardAlpha"
         operator="arithmetic"
         k2="-1"
         k3="1"
         id="feComposite8" /><feColorMatrix
         type="matrix"
         values="0 0 0 0 0 0 0 0 0 0 0 0 0 0 0 0 0 0 0.9 0"
         id="feColorMatrix9" /><feBlend
         mode="soft-light"
         in2="effect1_innerShadow_510_11951"
         result="effect2_innerShadow_510_11951"
         id="feBlend9" /></filter><linearGradient
       id="paint0_linear_510_11951"
       x1="17"
       y1="34"
       x2="197.768"
       y2="215.142"
       gradientUnits="userSpaceOnUse"><stop
         stop-color="#05815D"
         id="stop9" /><stop
         offset="1"
         stop-color="#0C575F"
         id="stop10" /></linearGradient><linearGradient
       id="paint1_linear_510_11951"
       x1="17"
       y1="62"
       x2="241"
       y2="210"
       gradientUnits="userSpaceOnUse"><stop
         stop-color="#0D1027"
         id="stop11" /><stop
         offset="1"
         stop-color="#081F37"
         id="stop12" /></linearGradient></defs><path
     style="fill:#a0a999;fill-opacity:1;stroke:none;stroke-width:0.999996px;stroke-linecap:butt;stroke-linejoin:miter;stroke-opacity:1"
     d="m 156.89493,97.000177 c -4.5637,1.265803 -8.7593,3.605303 -13.1671,5.317203 -12.6779,5.6423 -25.3506,12.00489 -35.6514,21.46369 -5.9503,5.6275 -11.405,12.9952 -11.4571,21.5294 -0.027,5.3171 2.4997,10.4249 6.4148,13.9595 1.1554,1.2871 2.5311,2.4575 3.4075,3.9534 -2.5287,6.7573 -4.8094,13.7412 -5.4622,20.9582 -0.1022,1.8554 2.2739,3.6618 3.8955,2.3954 1.7689,-0.9689 1.2589,-3.449 1.7881,-5.0891 1.1192,-5.1353 2.2556,-10.3492 4.321,-15.1958 0.8238,-0.3807 1.9038,0.4783 2.7547,0.6424 4.2992,1.5451 8.9974,1.7703 13.5125,1.3789 7.2286,-1.0371 13.29,-5.9013 17.357,-11.7642 5.2345,-7.3954 8.1205,-16.1553 10.5123,-24.8124 2.3839,-9.81 3.8115,-19.87799 4.1867,-29.96759 -0.2093,-1.4059 0.7051,-3.3123 -0.8983,-4.104203 -0.4292,-0.3395 -0.9467,-0.6732 -1.514,-0.6648 z m -25.1042,34.222293 c 2.1807,0.1693 3.8546,3.4565 1.7853,4.9082 -5.5429,4.8117 -11.077,9.7953 -15.0534,16.042 -2.0165,2.7339 -3.2421,6.0296 -5.4636,8.5936 -2.1011,1.6241 -5.3871,-1.1487 -4.1629,-3.4836 4.7067,-9.9921 12.016,-18.7764 20.9136,-25.3029 0.5981,-0.3726 1.2548,-0.7565 1.981,-0.7573 z"
     id="path5" /></svg>
