<svg width="256" height="256" viewBox="0 0 256 256" fill="none" xmlns="http://www.w3.org/2000/svg">
<path fill-rule="evenodd" clip-rule="evenodd" d="M104.425 42.3784C100.056 37.0733 93.5437 34 86.6712 34H29C22.3726 34 17 39.3726 17 46V58.1371V68.2V160C17 166.627 22.3726 172 29 172H229C235.627 172 241 166.627 241 160V70.1371C241 63.5097 235.627 58.1371 229 58.1371H117.404L104.425 42.3784Z" fill="#0E0E66"/>
<mask id="mask0_539_13135" style="mask-type:alpha" maskUnits="userSpaceOnUse" x="17" y="34" width="224" height="138">
<path fill-rule="evenodd" clip-rule="evenodd" d="M104.425 42.3784C100.056 37.0733 93.5437 34 86.6712 34H29C22.3726 34 17 39.3726 17 46V58.1371V68.2V160C17 166.627 22.3726 172 29 172H229C235.627 172 241 166.627 241 160V70.1371C241 63.5097 235.627 58.1371 229 58.1371H117.404L104.425 42.3784Z" fill="url(#paint0_linear_539_13135)"/>
</mask>
<g mask="url(#mask0_539_13135)">
<g style="mix-blend-mode:multiply" filter="url(#filter0_f_539_13135)">
<path fill-rule="evenodd" clip-rule="evenodd" d="M92.789 74C97.7642 74 102.605 72.3868 106.586 69.4024L116.459 62H229C235.627 62 241 67.3726 241 74V108V160C241 166.627 235.627 172 229 172H29C22.3726 172 17 166.627 17 160L17 108V86C17 79.3726 22.3726 74 29 74H87H92.789Z" fill="black" fill-opacity="0.3"/>
</g>
</g>
<g filter="url(#filter1_ii_539_13135)">
<path fill-rule="evenodd" clip-rule="evenodd" d="M92.789 74C97.7642 74 102.605 72.3868 106.586 69.4024L116.459 62H229C235.627 62 241 67.3726 241 74V108V198C241 204.627 235.627 210 229 210H29C22.3726 210 17 204.627 17 198L17 108V86C17 79.3726 22.3726 74 29 74H87H92.789Z" fill="url(#paint1_linear_539_13135)"/>
</g>
<path d="M112.53 154.585H86.6388L81.3215 170.923C81.2498 171.222 81.0761 171.486 80.8306 171.67C80.5851 171.854 80.283 171.947 79.9764 171.932H66.8625C66.1147 171.932 65.8531 171.521 66.0779 170.699L88.5882 106.463C88.8125 105.79 89.0365 105.191 89.2609 104.331C89.5541 102.836 89.7042 101.316 89.7092 99.7917C89.694 99.6851 89.7038 99.5764 89.7379 99.4743C89.7719 99.3722 89.8293 99.2794 89.9054 99.2032C89.9815 99.1271 90.0743 99.0697 90.1765 99.0356C90.2786 99.0016 90.3873 98.9918 90.4938 99.0069H108.315C108.837 99.0069 109.136 99.1938 109.212 99.5675L134.562 170.811C134.786 171.559 134.562 171.933 133.889 171.932H119.318C119.068 171.96 118.816 171.895 118.61 171.751C118.404 171.607 118.257 171.392 118.197 171.147L112.53 154.585ZM90.7178 140.761H108.427C107.979 139.267 107.456 137.586 106.858 135.717C106.259 133.85 105.624 131.851 104.953 129.72C104.28 127.591 103.608 125.461 102.935 123.332C102.263 121.202 101.646 119.147 101.086 117.167C100.525 115.188 100.021 113.376 99.5727 111.731H99.4606C98.8296 114.758 98.044 117.751 97.1069 120.698C96.0595 124.06 94.9946 127.497 93.9122 131.009C92.8281 134.523 91.7634 137.773 90.7178 140.761Z" fill="#9999FF"/>
<path d="M142.408 170.865V129.552C142.408 128.283 142.39 126.863 142.353 125.293C142.314 123.724 142.258 122.229 142.184 120.81C142.109 119.391 142.034 118.073 141.96 117.25C141.917 117.138 141.904 117.017 141.924 116.898C141.943 116.78 141.995 116.669 142.072 116.578C142.164 116.497 142.27 116.436 142.386 116.398C142.501 116.359 142.623 116.344 142.745 116.353H153.933C154.319 116.341 154.703 116.417 155.055 116.578C155.204 116.654 155.332 116.766 155.429 116.902C155.527 117.039 155.59 117.196 155.615 117.362C155.764 117.811 155.932 118.315 156.119 118.875C156.326 119.617 156.457 120.378 156.512 121.146C158.679 119.247 161.19 117.783 163.909 116.831C166.613 115.895 169.455 115.421 172.316 115.43C174.544 115.44 176.756 115.799 178.873 116.494C181.316 117.276 183.545 118.614 185.383 120.403C187.221 122.193 188.618 124.385 189.465 126.806C190.585 129.684 191.025 133.402 191.025 137.959V170.865C191.025 171.538 190.726 171.874 190.128 171.874L177.031 171.99C176.879 172.012 176.724 171.998 176.578 171.949C176.432 171.901 176.299 171.819 176.19 171.71C176.082 171.601 176 171.468 175.951 171.322C175.903 171.177 175.889 171.021 175.91 170.869V139.648C175.874 137.557 175.414 135.495 174.557 133.587C173.956 132.18 172.964 130.974 171.699 130.113C170.269 129.238 168.611 128.808 166.936 128.88C165.135 128.854 163.346 129.178 161.668 129.832C160.134 130.445 158.727 131.338 157.52 132.466V170.865C157.52 171.538 157.222 171.874 156.624 171.874H143.417C143.28 171.893 143.14 171.881 143.009 171.837C142.878 171.793 142.758 171.72 142.661 171.622C142.563 171.524 142.489 171.404 142.445 171.273C142.401 171.142 142.389 171.002 142.408 170.865V170.865Z" fill="#9999FF"/>
<defs>
<filter id="filter0_f_539_13135" x="-20" y="25" width="298" height="184" filterUnits="userSpaceOnUse" color-interpolation-filters="sRGB">
<feFlood flood-opacity="0" result="BackgroundImageFix"/>
<feBlend mode="normal" in="SourceGraphic" in2="BackgroundImageFix" result="shape"/>
<feGaussianBlur stdDeviation="18.5" result="effect1_foregroundBlur_539_13135"/>
</filter>
<filter id="filter1_ii_539_13135" x="17" y="62" width="224" height="148" filterUnits="userSpaceOnUse" color-interpolation-filters="sRGB">
<feFlood flood-opacity="0" result="BackgroundImageFix"/>
<feBlend mode="normal" in="SourceGraphic" in2="BackgroundImageFix" result="shape"/>
<feColorMatrix in="SourceAlpha" type="matrix" values="0 0 0 0 0 0 0 0 0 0 0 0 0 0 0 0 0 0 127 0" result="hardAlpha"/>
<feOffset dy="4"/>
<feComposite in2="hardAlpha" operator="arithmetic" k2="-1" k3="1"/>
<feColorMatrix type="matrix" values="0 0 0 0 1 0 0 0 0 1 0 0 0 0 1 0 0 0 0.25 0"/>
<feBlend mode="normal" in2="shape" result="effect1_innerShadow_539_13135"/>
<feColorMatrix in="SourceAlpha" type="matrix" values="0 0 0 0 0 0 0 0 0 0 0 0 0 0 0 0 0 0 127 0" result="hardAlpha"/>
<feOffset dy="-4"/>
<feComposite in2="hardAlpha" operator="arithmetic" k2="-1" k3="1"/>
<feColorMatrix type="matrix" values="0 0 0 0 0 0 0 0 0 0 0 0 0 0 0 0 0 0 0.9 0"/>
<feBlend mode="soft-light" in2="effect1_innerShadow_539_13135" result="effect2_innerShadow_539_13135"/>
</filter>
<linearGradient id="paint0_linear_539_13135" x1="17" y1="34" x2="197.768" y2="215.142" gradientUnits="userSpaceOnUse">
<stop stop-color="#05815D"/>
<stop offset="1" stop-color="#0C575F"/>
</linearGradient>
<linearGradient id="paint1_linear_539_13135" x1="17" y1="62" x2="241" y2="210" gradientUnits="userSpaceOnUse">
<stop stop-color="#5F5FA4"/>
<stop offset="1" stop-color="#00005B"/>
</linearGradient>
</defs>
</svg>
