<svg width="256" height="256" viewBox="0 0 256 256" fill="none" xmlns="http://www.w3.org/2000/svg">
<path fill-rule="evenodd" clip-rule="evenodd" d="M104.425 42.3784C100.056 37.0733 93.5437 34 86.6712 34H29C22.3726 34 17 39.3726 17 46V58.1371V68.2V160C17 166.627 22.3726 172 29 172H229C235.627 172 241 166.627 241 160V70.1371C241 63.5097 235.627 58.1371 229 58.1371H117.404L104.425 42.3784Z" fill="#0E0E66"/>
<mask id="mask0_539_12877" style="mask-type:alpha" maskUnits="userSpaceOnUse" x="17" y="34" width="224" height="138">
<path fill-rule="evenodd" clip-rule="evenodd" d="M104.425 42.3784C100.056 37.0733 93.5437 34 86.6712 34H29C22.3726 34 17 39.3726 17 46V58.1371V68.2V160C17 166.627 22.3726 172 29 172H229C235.627 172 241 166.627 241 160V70.1371C241 63.5097 235.627 58.1371 229 58.1371H117.404L104.425 42.3784Z" fill="url(#paint0_linear_539_12877)"/>
</mask>
<g mask="url(#mask0_539_12877)">
<g style="mix-blend-mode:multiply" filter="url(#filter0_f_539_12877)">
<path fill-rule="evenodd" clip-rule="evenodd" d="M92.789 74C97.7642 74 102.605 72.3868 106.586 69.4024L116.459 62H229C235.627 62 241 67.3726 241 74V108V160C241 166.627 235.627 172 229 172H29C22.3726 172 17 166.627 17 160L17 108V86C17 79.3726 22.3726 74 29 74H87H92.789Z" fill="black" fill-opacity="0.3"/>
</g>
</g>
<g filter="url(#filter1_ii_539_12877)">
<path fill-rule="evenodd" clip-rule="evenodd" d="M92.789 74C97.7642 74 102.605 72.3868 106.586 69.4024L116.459 62H229C235.627 62 241 67.3726 241 74V108V198C241 204.627 235.627 210 229 210H29C22.3726 210 17 204.627 17 198L17 108V86C17 79.3726 22.3726 74 29 74H87H92.789Z" fill="url(#paint1_linear_539_12877)"/>
</g>
<path d="M114.581 153.566H89.1907L84.0248 169.644C83.9545 169.937 83.7842 170.196 83.5435 170.376C83.3027 170.557 83.0064 170.648 82.7057 170.633H69.8458C69.1124 170.633 68.856 170.23 69.0764 169.424L91.0594 106.375C91.2791 105.716 91.4991 105.071 91.7188 104.228C92.0067 102.761 92.1539 101.271 92.1585 99.7763C92.1436 99.6718 92.1532 99.5653 92.1866 99.4651C92.22 99.365 92.2763 99.274 92.3509 99.1993C92.4255 99.1247 92.5165 99.0684 92.6167 99.035C92.7168 99.0016 92.8233 98.9919 92.9279 99.0068H110.404C110.916 99.0068 111.209 99.19 111.284 99.5565L136.234 169.534C136.454 170.267 136.234 170.634 135.575 170.633H121.286C121.04 170.66 120.794 170.597 120.591 170.456C120.389 170.314 120.245 170.104 120.187 169.864L114.581 153.566ZM93.1479 140.009H110.514C110.075 138.544 109.562 136.895 108.975 135.063C108.388 133.232 107.765 131.272 107.107 129.182C106.448 127.094 105.788 125.006 105.128 122.917C104.469 120.829 103.864 118.814 103.315 116.872C102.765 114.931 102.271 113.154 101.831 111.541H101.721C101.102 114.51 100.332 117.445 99.4128 120.334C98.3858 123.632 97.3416 127.002 96.2803 130.446C95.2173 133.892 94.1732 137.079 93.1479 140.009Z" fill="#9999FF"/>
<path d="M176.684 147.308H155.031C155.296 149.45 156.007 151.513 157.119 153.364C158.348 155.196 160.086 156.629 162.12 157.485C164.876 158.678 167.856 159.262 170.858 159.198C173.24 159.152 175.613 158.892 177.948 158.42C180.036 158.138 182.083 157.604 184.043 156.831C184.409 156.539 184.593 156.721 184.593 157.381V167.822C184.611 168.107 184.554 168.391 184.428 168.647C184.302 168.847 184.133 169.016 183.933 169.141C181.759 170.104 179.47 170.786 177.123 171.17C173.935 171.769 170.694 172.045 167.451 171.994C162.247 171.994 157.887 171.188 154.371 169.576C151.047 168.112 148.111 165.891 145.798 163.091C143.637 160.453 142.029 157.406 141.071 154.133C140.123 150.903 139.642 147.553 139.642 144.186C139.632 140.509 140.207 136.855 141.346 133.359C142.443 129.949 144.177 126.779 146.457 124.017C148.706 121.286 151.518 119.074 154.701 117.532C157.924 115.957 161.735 115.392 166.132 115.392C169.778 115.3 173.399 116.013 176.739 117.48C179.546 118.677 182.018 120.544 183.938 122.917C185.739 125.241 187.115 127.864 188.005 130.666C188.871 133.367 189.316 136.184 189.324 139.02C189.324 140.632 189.269 142.098 189.159 143.416C189.049 144.735 188.958 145.688 188.884 146.274C188.856 146.517 188.739 146.74 188.557 146.902C188.374 147.064 188.139 147.154 187.895 147.154C187.455 147.154 186.704 147.209 185.642 147.318C184.579 147.428 183.26 147.502 181.685 147.538C180.108 147.576 178.442 147.308 176.684 147.308ZM155.031 137.295H169.429C171.188 137.295 172.489 137.277 173.331 137.24C173.895 137.184 174.439 137.003 174.925 136.712V136.052C174.903 135.192 174.755 134.341 174.485 133.524C173.892 131.649 172.7 130.02 171.092 128.888C169.483 127.757 167.548 127.184 165.582 127.259C163.733 127.147 161.89 127.576 160.28 128.493C158.67 129.411 157.361 130.777 156.514 132.425C155.761 133.958 155.26 135.602 155.031 137.295V137.295Z" fill="#9999FF"/>
<defs>
<filter id="filter0_f_539_12877" x="-20" y="25" width="298" height="184" filterUnits="userSpaceOnUse" color-interpolation-filters="sRGB">
<feFlood flood-opacity="0" result="BackgroundImageFix"/>
<feBlend mode="normal" in="SourceGraphic" in2="BackgroundImageFix" result="shape"/>
<feGaussianBlur stdDeviation="18.5" result="effect1_foregroundBlur_539_12877"/>
</filter>
<filter id="filter1_ii_539_12877" x="17" y="62" width="224" height="148" filterUnits="userSpaceOnUse" color-interpolation-filters="sRGB">
<feFlood flood-opacity="0" result="BackgroundImageFix"/>
<feBlend mode="normal" in="SourceGraphic" in2="BackgroundImageFix" result="shape"/>
<feColorMatrix in="SourceAlpha" type="matrix" values="0 0 0 0 0 0 0 0 0 0 0 0 0 0 0 0 0 0 127 0" result="hardAlpha"/>
<feOffset dy="4"/>
<feComposite in2="hardAlpha" operator="arithmetic" k2="-1" k3="1"/>
<feColorMatrix type="matrix" values="0 0 0 0 1 0 0 0 0 1 0 0 0 0 1 0 0 0 0.25 0"/>
<feBlend mode="normal" in2="shape" result="effect1_innerShadow_539_12877"/>
<feColorMatrix in="SourceAlpha" type="matrix" values="0 0 0 0 0 0 0 0 0 0 0 0 0 0 0 0 0 0 127 0" result="hardAlpha"/>
<feOffset dy="-4"/>
<feComposite in2="hardAlpha" operator="arithmetic" k2="-1" k3="1"/>
<feColorMatrix type="matrix" values="0 0 0 0 0 0 0 0 0 0 0 0 0 0 0 0 0 0 0.9 0"/>
<feBlend mode="soft-light" in2="effect1_innerShadow_539_12877" result="effect2_innerShadow_539_12877"/>
</filter>
<linearGradient id="paint0_linear_539_12877" x1="17" y1="34" x2="197.768" y2="215.142" gradientUnits="userSpaceOnUse">
<stop stop-color="#05815D"/>
<stop offset="1" stop-color="#0C575F"/>
</linearGradient>
<linearGradient id="paint1_linear_539_12877" x1="17" y1="62" x2="241" y2="210" gradientUnits="userSpaceOnUse">
<stop stop-color="#5F5FA4"/>
<stop offset="1" stop-color="#00005B"/>
</linearGradient>
</defs>
</svg>
