<svg width="256" height="256" viewBox="0 0 256 256" fill="none" xmlns="http://www.w3.org/2000/svg">
<path fill-rule="evenodd" clip-rule="evenodd" d="M104.425 42.3784C100.056 37.0733 93.5437 34 86.6712 34H29C22.3726 34 17 39.3726 17 46V58.1371V68.2V160C17 166.627 22.3726 172 29 172H229C235.627 172 241 166.627 241 160V70.1371C241 63.5097 235.627 58.1371 229 58.1371H117.404L104.425 42.3784Z" fill="#3C032A"/>
<mask id="mask0_539_12820" style="mask-type:alpha" maskUnits="userSpaceOnUse" x="17" y="34" width="224" height="138">
<path fill-rule="evenodd" clip-rule="evenodd" d="M104.425 42.3784C100.056 37.0733 93.5437 34 86.6712 34H29C22.3726 34 17 39.3726 17 46V58.1371V68.2V160C17 166.627 22.3726 172 29 172H229C235.627 172 241 166.627 241 160V70.1371C241 63.5097 235.627 58.1371 229 58.1371H117.404L104.425 42.3784Z" fill="url(#paint0_linear_539_12820)"/>
</mask>
<g mask="url(#mask0_539_12820)">
<g style="mix-blend-mode:multiply" filter="url(#filter0_f_539_12820)">
<path fill-rule="evenodd" clip-rule="evenodd" d="M92.789 74C97.7642 74 102.605 72.3868 106.586 69.4024L116.459 62H229C235.627 62 241 67.3726 241 74V108V160C241 166.627 235.627 172 229 172H29C22.3726 172 17 166.627 17 160L17 108V86C17 79.3726 22.3726 74 29 74H87H92.789Z" fill="black" fill-opacity="0.3"/>
</g>
</g>
<g filter="url(#filter1_ii_539_12820)">
<path fill-rule="evenodd" clip-rule="evenodd" d="M92.789 74C97.7642 74 102.605 72.3868 106.586 69.4024L116.459 62H229C235.627 62 241 67.3726 241 74V108V198C241 204.627 235.627 210 229 210H29C22.3726 210 17 204.627 17 198L17 108V86C17 79.3726 22.3726 74 29 74H87H92.789Z" fill="url(#paint1_linear_539_12820)"/>
</g>
<path d="M61.0056 170.671V100.219C60.9928 100.111 61.002 100.003 61.0326 99.8995C61.0632 99.7961 61.1145 99.7001 61.1834 99.6172C61.2523 99.5342 61.3374 99.4662 61.4335 99.4173C61.5296 99.3683 61.6346 99.3395 61.7422 99.3324C62.7944 99.2597 64.3379 99.2043 66.3725 99.1663C68.4065 99.1298 70.7918 99.0929 73.5283 99.0554C76.2645 99.0191 79.176 99.0007 82.263 99C90.6818 99 97.6624 100.514 103.205 103.542C108.521 106.346 112.868 110.689 115.675 116.004C118.446 121.285 119.831 127.359 119.832 134.226C119.913 139.022 119.184 143.797 117.674 148.35C116.372 152.206 114.374 155.791 111.781 158.929C109.366 161.818 106.506 164.304 103.31 166.295C100.182 168.24 96.7748 169.697 93.2073 170.615C89.7373 171.525 86.1659 171.99 82.5787 172H74.7386C71.9664 172 69.3881 171.982 67.0038 171.945C64.6181 171.906 62.8291 171.851 61.6369 171.778C61.2159 171.778 61.0055 171.409 61.0056 170.671ZM75.5279 112.625V158.486C76.2989 158.486 77.0005 158.504 77.6327 158.541C78.264 158.579 78.9129 158.616 79.5796 158.652C80.2453 158.69 80.9995 158.708 81.8421 158.707C85.0313 158.749 88.2026 158.224 91.208 157.156C93.9338 156.175 96.3993 154.583 98.4165 152.504C100.489 150.317 102.068 147.71 103.047 144.86C104.181 141.546 104.733 138.061 104.678 134.558C104.744 131.259 104.209 127.974 103.1 124.866C102.144 122.226 100.585 119.845 98.5485 117.912C96.5117 115.98 94.0523 114.549 91.3657 113.733C88.4187 112.821 85.3478 112.372 82.263 112.404C80.8587 112.404 79.6836 112.422 78.7376 112.459C77.7904 112.497 76.7204 112.553 75.5279 112.625V112.625Z" fill="#FF61F6"/>
<path d="M181.44 171.789H168.562C168.413 171.81 168.261 171.795 168.118 171.747C167.975 171.699 167.845 171.619 167.738 171.512C167.563 171.256 167.424 170.976 167.326 170.681C166.02 165.143 164.922 160.25 164.029 156.004C163.136 151.758 162.398 148.158 161.814 145.204C161.23 142.251 160.749 139.74 160.372 137.671C159.994 135.604 159.702 133.869 159.496 132.465H159.394C158.706 135.493 158.071 138.429 157.488 141.271C156.903 144.115 156.268 146.976 155.582 149.856C154.895 152.736 154.122 155.912 153.264 159.383C152.404 162.855 151.46 166.621 150.431 170.681C150.292 171.421 149.916 171.789 149.298 171.789H136.42C136.078 171.826 135.734 171.748 135.442 171.568C135.226 171.351 135.066 171.085 134.978 170.792L121.585 117.621C121.379 117.031 121.654 116.735 122.409 116.735H135.39C136.008 116.735 136.351 116.956 136.42 117.399C137.793 123.456 138.944 128.68 139.871 133.074C140.799 137.468 141.52 141.216 142.035 144.317C142.55 147.419 142.979 149.948 143.322 151.905C143.665 153.863 143.94 155.469 144.147 156.724H144.353C144.463 155.644 144.635 154.572 144.868 153.512C145.141 152.182 145.485 150.465 145.898 148.361C146.31 146.256 146.825 143.763 147.443 140.883C148.061 138.003 148.765 134.662 149.555 130.858C150.344 127.056 151.391 122.717 152.697 117.842C152.724 117.533 152.811 117.232 152.955 116.956C153.058 116.809 153.315 116.735 153.727 116.735H167.223C167.635 116.735 167.875 116.994 167.944 117.51C169.111 122.533 170.09 126.946 170.88 130.748C171.669 134.552 172.356 137.912 172.941 140.828C173.523 143.746 173.97 146.257 174.28 148.361C174.589 150.465 174.881 152.238 175.156 153.678C175.388 154.831 175.56 155.996 175.671 157.167H175.877C176.219 155.765 176.528 154.141 176.804 152.293C177.077 150.448 177.438 148.362 177.886 146.034C178.331 143.708 178.812 141.142 179.328 138.336C179.843 135.53 180.478 132.391 181.234 128.92C181.989 125.449 182.847 121.683 183.809 117.621C183.946 117.031 184.255 116.735 184.736 116.735H196.79C197.408 116.735 197.648 117.067 197.511 117.732L182.676 170.792C182.587 171.074 182.447 171.336 182.264 171.568C182.029 171.746 181.733 171.826 181.44 171.789Z" fill="#FF61F6"/>
<defs>
<filter id="filter0_f_539_12820" x="-20" y="25" width="298" height="184" filterUnits="userSpaceOnUse" color-interpolation-filters="sRGB">
<feFlood flood-opacity="0" result="BackgroundImageFix"/>
<feBlend mode="normal" in="SourceGraphic" in2="BackgroundImageFix" result="shape"/>
<feGaussianBlur stdDeviation="18.5" result="effect1_foregroundBlur_539_12820"/>
</filter>
<filter id="filter1_ii_539_12820" x="17" y="62" width="224" height="148" filterUnits="userSpaceOnUse" color-interpolation-filters="sRGB">
<feFlood flood-opacity="0" result="BackgroundImageFix"/>
<feBlend mode="normal" in="SourceGraphic" in2="BackgroundImageFix" result="shape"/>
<feColorMatrix in="SourceAlpha" type="matrix" values="0 0 0 0 0 0 0 0 0 0 0 0 0 0 0 0 0 0 127 0" result="hardAlpha"/>
<feOffset dy="4"/>
<feComposite in2="hardAlpha" operator="arithmetic" k2="-1" k3="1"/>
<feColorMatrix type="matrix" values="0 0 0 0 1 0 0 0 0 1 0 0 0 0 1 0 0 0 0.25 0"/>
<feBlend mode="normal" in2="shape" result="effect1_innerShadow_539_12820"/>
<feColorMatrix in="SourceAlpha" type="matrix" values="0 0 0 0 0 0 0 0 0 0 0 0 0 0 0 0 0 0 127 0" result="hardAlpha"/>
<feOffset dy="-4"/>
<feComposite in2="hardAlpha" operator="arithmetic" k2="-1" k3="1"/>
<feColorMatrix type="matrix" values="0 0 0 0 0 0 0 0 0 0 0 0 0 0 0 0 0 0 0.9 0"/>
<feBlend mode="soft-light" in2="effect1_innerShadow_539_12820" result="effect2_innerShadow_539_12820"/>
</filter>
<linearGradient id="paint0_linear_539_12820" x1="17" y1="34" x2="197.768" y2="215.142" gradientUnits="userSpaceOnUse">
<stop stop-color="#05815D"/>
<stop offset="1" stop-color="#0C575F"/>
</linearGradient>
<linearGradient id="paint1_linear_539_12820" x1="17" y1="62" x2="241" y2="210" gradientUnits="userSpaceOnUse">
<stop stop-color="#861062"/>
<stop offset="1" stop-color="#2E001F"/>
</linearGradient>
</defs>
</svg>
