<?xml version="1.0" encoding="UTF-8"?><svg id="Layer_1" xmlns="http://www.w3.org/2000/svg" width="256" height="256" xmlns:xlink="http://www.w3.org/1999/xlink" viewBox="0 0 256 256"><defs><style>.cls-1{fill:url(#linear-gradient-2);}.cls-1,.cls-2,.cls-3,.cls-4,.cls-5{fill-rule:evenodd;}.cls-2{fill:url(#linear-gradient);}.cls-3{opacity:.3;}.cls-3,.cls-6{fill:#99e83f;}.cls-4{fill:#253a05;}.cls-7{mask:url(#mask);}</style><linearGradient id="linear-gradient" x1="32.5815492418" y1="515.5493793667" x2="213.3495532795" y2="334.4073871477" gradientTransform="translate(0 534) scale(1 -1)" gradientUnits="userSpaceOnUse"><stop offset="0" stop-color="#05815d"/><stop offset="1" stop-color="#0c575f"/></linearGradient><mask id="mask" x="17" y="34" width="224" height="138" maskUnits="userSpaceOnUse"><g id="mask0_539_13364"><path class="cls-2" d="m104.4250030518,42.3783988953c-4.3690032959-5.3050994873-10.8813018799-8.3783988953-17.7537994385-8.3783988953H29c-6.6273994446,0-12,5.3726005554-12,12v114c0,6.6269989014,5.3726005554,12,12,12h200c6.6269989014,0,12-5.3730010986,12-12v-89.8628997803c0-6.6273994446-5.3730010986-12-12-12h-111.5960006714l-12.9789962769-15.7587013245Z"/></g></mask><linearGradient id="linear-gradient-2" x1="16.9999953299" y1="471.9999929318" x2="240.9999869148" y2="324.0000060658" gradientTransform="translate(0 534) scale(1 -1)" gradientUnits="userSpaceOnUse"><stop offset="0" stop-color="#598626"/><stop offset="1" stop-color="#1e3101"/></linearGradient></defs><g><path class="cls-4" d="m104.4250030518,42.3783988953c-4.3690032959-5.3050994873-10.8813018799-8.3783988953-17.7537994385-8.3783988953H29c-6.6273994446,0-12,5.3726005554-12,12v114c0,6.6269989014,5.3726005554,12,12,12h200c6.6269989014,0,12-5.3730010986,12-12v-89.8628997803c0-6.6273994446-5.3730010986-12-12-12h-111.5960006714l-12.9789962769-15.7587013245Z"/><g class="cls-7"><path class="cls-5" d="m92.7890014648,74c4.9751968384,0,9.8160018921-1.6131973267,13.7969970703-4.5976028442l9.8730010986-7.4023971558h112.5410003662c6.6269989014,0,12,5.3725967407,12,12v86c0,6.6269989014-5.3730010986,12-12,12H29c-6.6273994446,0-12-5.3730010986-12-12v-74c0-6.6274032593,5.3726005554-12,12-12h63.7890014648Z"/></g><path class="cls-1" d="m92.7890014648,74c4.9751968384,0,9.8160018921-1.6131973267,13.7969970703-4.5976028442l9.8730010986-7.4023971558h112.5410003662c6.6269989014,0,12,5.3725967407,12,12v124c0,6.6269989014-5.3730010986,12-12,12H29c-6.6273994446,0-12-5.3730010986-12-12v-112c0-6.6274032593,5.3726005554-12,12-12h63.7890014648Z"/><g><path class="cls-6" d="m82.6349929835,170.0279085421v-69.9328247292c0-.5093451491.2164709598-.7640128662.6557786007-.7640128662,1.1651237498,0,2.5509614642-.0180406634,4.1575131429-.0541171328,1.6065541075-.0360764693,3.3393807152-.0732191545,5.1984822518-.1114183406l5.9115669179-.1082342655c2.0798203586-.0382016148,4.1405362666-.0573012078,6.1821525816-.0573012078,5.5454784314,0,10.2144545828.6939777868,14.0069381689,2.0819382178,3.4242772405,1.1558994042,6.5469052624,3.0625361945,9.1395292925,5.5804862562,2.198017306,2.1819487776,3.8966667172,4.8146421218,4.9788345032,7.7165513217,1.024655278,2.8232958191,1.5440554011,5.8049890515,1.5343987401,8.8084534883,0,5.8383501921-1.3497661024,10.6537646525-4.0492788774,14.4462482386-2.717344567,3.8118551978-6.5367142791,6.7002751887-10.9445136964,8.2768270998-4.9122093715,1.7671495285-10.1016980077,2.6383571605-15.3216818741,2.5721789164-1.6065516788,0-2.737721676-.019099593-3.3935002767-.0572987791-.6557786007-.0350126822-1.6426330056-.0541219902-2.954190207-.0541219902v21.5611380924c.0662705361.4752165274-.2637171936.9147208961-.7385499805.9836679011-.0812121302.0127071555-.1639106478.0127071555-.245122778,0h-13.3543412145c-.5093427204-.0127265854-.764015295-.3024166997-.764015295-.8881602209Zm15.1020244106-57.565333062v22.6562219053c.9465276446.0742756554,1.8219612802.1103569822,2.6263009067.1082342655h3.6099688077c2.6489707441.0381506113,5.2880613833-.3311923836,7.8247855873-1.0950886704,2.1684547111-.6439312184,4.1064513622-1.8968878373,5.5836776175-3.6099736652,1.4219190411-1.6765867582,2.1328737042-4.0110748339,2.1328737042-7.0034690845.0550691979-2.1164117203-.4972791804-4.2043003454-1.5916975192-6.0166146796-1.1548501895-1.7551952816-2.8220571628-3.1123058868-4.7750925576-3.8869274792-2.5436218189-.9870972787-5.2600531805-1.4515642131-7.9871369855-1.3656743342-1.7508672711,0-3.3011839579.0180406634-4.6509403454.0541171328-1.349761245.0360764693-2.2803709429.0901936021-2.7918388088.1623513983l.019099593-.0031767889Z"/><path class="cls-6" d="m175.001200508,160.0702395357v8.9739913904c0,.8022120523-.2918079735,1.2765348042-.8754336356,1.4229779708-1.4367634858.4489861606-2.898251521.8146277593-4.3771681778,1.0950886704-1.7334483645.3087314176-3.4919710168.4547374114-5.2526018133.4361235659-4.7432566642,0-8.4635873117-1.2404631924-11.1609822274-3.7213895771s-4.0471513032-6.4569836789-4.0492788774-11.9281815974v-27.1416194911h-6.4622880419c-.5825570174,0-.8754336356-.3183395038-.8754336356-.9836679011v-10.8458292274c0-.5825618749.3183395038-.8754336356.9868544049-.8754336356h6.4559247493c.0721626536-1.2393994053.1634151854-2.6804180394.2737673101-4.323051045.1114207693-1.6394465018.2546677171-3.2820795074.4393100697-4.924712513s.3438023896-2.9732898001.4902455561-3.9919752408c.0698019206-.2177606195.1775698685-.4214491329.3183395038-.601661468.1419159995-.1781236207.3319404348-.3118061995.5475443352-.3851929369l13.0359968532-1.6298967053c.1980295546-.0587365918.4101166429-.0486379006.6016663254.0286493896.1464334516.0732167258.1655330446.2642223711.1655330446.6366790077-.1464431665,1.6787094749-.2525498578,3.9590852753-.3183395038,6.8411176862-.065789646,2.8820372683-.1390015143,5.6717485029-.2196550348,8.3691434186h10.1868641228c.4393100697,0,.6589651045.2928717606.6589651045.8754336356v11.0559296082c.0539859809.3608035533-.1885283329.6991947153-.5475443352.7640128662h-10.419255458v23.4202347715c0,2.483044244.4244559101,4.2530208231,1.2733580154,5.3099005924.8489118202,1.0568894843,2.3992236495,1.5874520857,4.6509354879,1.5916975192.6557786007,0,1.2733580154-.0159130892,1.8622880404-.0541219902s1.1651237498-.0923211763,1.7508672711-.1655330446c.1984861573-.0733673075.4194527105-.0534905184.6016663254.0541219902.1987873208.1735090191.2958882528.4360652762.2578542209.6971642906Z"/></g><path class="cls-3" d="m106.5858917236,69.4023599625c-3.9806976318,2.9844398499-8.8217010498,4.5976400375-13.7968978882,4.5976400375H28.9999923706c-6.627409935,0-11.9999923706,5.3726005554-11.9999923706,12v4c0-6.6273994446,5.3725824356-12,11.9999923706-12h63.7890014648c4.9751968384,0,9.8162002563-1.6132001877,13.7968978882-4.5975999832l9.873298645-7.4024000168h112.540802002c6.6269989014,0,12,5.3725795746,12,12v-4c0-6.6274199486-5.3730010986-12-12-12h-112.540802002l-9.873298645,7.4023599625Z"/></g><path class="cls-4" d="m17,194v4c0,6.6274003983,5.3725800514,12,12,12h200c6.6269989014,0,12-5.3725996017,12-12v-4c0,6.6274199486-5.3730010986,12-12,12H29c-6.6274199486,0-12-5.3725800514-12-12Z"/></svg>