<svg width="256" height="256" viewBox="0 0 256 256" fill="none" xmlns="http://www.w3.org/2000/svg">
<path fill-rule="evenodd" clip-rule="evenodd" d="M104.425 42.3784C100.056 37.0733 93.5437 34 86.6712 34H29C22.3726 34 17 39.3726 17 46V58.1371V68.2V160C17 166.627 22.3726 172 29 172H229C235.627 172 241 166.627 241 160V70.1371C241 63.5097 235.627 58.1371 229 58.1371H117.404L104.425 42.3784Z" fill="#0C0C65"/>
<mask id="mask0_539_13105" style="mask-type:alpha" maskUnits="userSpaceOnUse" x="17" y="34" width="224" height="138">
<path fill-rule="evenodd" clip-rule="evenodd" d="M104.425 42.3784C100.056 37.0733 93.5437 34 86.6712 34H29C22.3726 34 17 39.3726 17 46V58.1371V68.2V160C17 166.627 22.3726 172 29 172H229C235.627 172 241 166.627 241 160V70.1371C241 63.5097 235.627 58.1371 229 58.1371H117.404L104.425 42.3784Z" fill="url(#paint0_linear_539_13105)"/>
</mask>
<g mask="url(#mask0_539_13105)">
<g style="mix-blend-mode:multiply" filter="url(#filter0_f_539_13105)">
<path fill-rule="evenodd" clip-rule="evenodd" d="M92.789 74C97.7642 74 102.605 72.3868 106.586 69.4024L116.459 62H229C235.627 62 241 67.3726 241 74V108V160C241 166.627 235.627 172 229 172H29C22.3726 172 17 166.627 17 160L17 108V86C17 79.3726 22.3726 74 29 74H87H92.789Z" fill="black" fill-opacity="0.3"/>
</g>
</g>
<g filter="url(#filter1_ii_539_13105)">
<path fill-rule="evenodd" clip-rule="evenodd" d="M92.789 74C97.7642 74 102.605 72.3868 106.586 69.4024L116.459 62H229C235.627 62 241 67.3726 241 74V108V198C241 204.627 235.627 210 229 210H29C22.3726 210 17 204.627 17 198L17 108V86C17 79.3726 22.3726 74 29 74H87H92.789Z" fill="url(#paint1_linear_539_13105)"/>
</g>
<path d="M88 171.095V100.172C88 99.6892 88.2033 99.4135 88.6777 99.4135C89.8298 99.4135 90.914 99.4135 92.4727 99.3446C94.0992 99.2757 95.7934 99.2757 97.6231 99.2068C99.4529 99.1378 101.418 99.1378 103.519 99.0689C105.62 99 107.653 99 109.686 99C115.243 99 119.851 99.6892 123.646 101.137C127.035 102.308 130.152 104.238 132.727 106.788C134.896 108.994 136.59 111.682 137.674 114.646C138.691 117.541 139.233 120.505 139.233 123.606C139.233 129.534 137.878 134.427 135.167 138.287C132.456 142.147 128.661 145.042 124.256 146.696C119.648 148.419 114.565 149.039 109.008 149.039C107.382 149.039 106.298 149.039 105.62 148.97C104.942 148.901 103.993 148.901 102.706 148.901V171.026C102.774 171.509 102.435 171.922 101.96 171.991C101.893 171.991 101.825 171.991 101.689 171.991H88.8132C88.2711 171.991 88 171.716 88 171.095ZM102.774 112.716V135.875C103.722 135.944 104.603 136.013 105.417 136.013H109.008C111.651 136.013 114.294 135.599 116.802 134.772C118.97 134.152 120.868 132.842 122.359 131.119C123.782 129.396 124.46 127.052 124.46 124.02C124.527 121.883 123.985 119.746 122.901 117.885C121.749 116.093 120.122 114.715 118.157 113.957C115.65 112.923 112.939 112.509 110.16 112.578C108.398 112.578 106.84 112.578 105.552 112.647C104.197 112.578 103.248 112.647 102.774 112.716Z" fill="#9999FF"/>
<path d="M148.314 157.976V99.8209C148.314 99.2526 148.663 99 149.29 99H162.888C163.585 99 163.864 99.2526 163.864 99.8209C163.864 99.8209 163.864 152.969 163.864 154.422C163.864 155.874 164.143 156.884 164.701 157.452C165.258 158.084 166.235 158.336 167.56 158.336C167.908 158.336 168.257 158.336 168.536 158.273C168.745 158.21 169.094 158.21 169.512 158.147C169.651 158.147 169.721 158.147 169.861 158.21C169.93 158.273 170 158.463 170 158.842V169.91C170 170.163 170 170.479 169.93 170.731C169.861 170.857 169.721 170.984 169.442 171.11C168.536 171.426 167.56 171.615 166.653 171.741C165.258 171.931 163.794 171.994 162.4 171.994C159.959 172.057 157.449 171.615 155.148 170.794C152.986 169.973 151.173 168.458 150.127 166.501C148.942 164.606 148.314 161.702 148.314 157.976Z" fill="#9999FF"/>
<defs>
<filter id="filter0_f_539_13105" x="-20" y="25" width="298" height="184" filterUnits="userSpaceOnUse" color-interpolation-filters="sRGB">
<feFlood flood-opacity="0" result="BackgroundImageFix"/>
<feBlend mode="normal" in="SourceGraphic" in2="BackgroundImageFix" result="shape"/>
<feGaussianBlur stdDeviation="18.5" result="effect1_foregroundBlur_539_13105"/>
</filter>
<filter id="filter1_ii_539_13105" x="17" y="62" width="224" height="148" filterUnits="userSpaceOnUse" color-interpolation-filters="sRGB">
<feFlood flood-opacity="0" result="BackgroundImageFix"/>
<feBlend mode="normal" in="SourceGraphic" in2="BackgroundImageFix" result="shape"/>
<feColorMatrix in="SourceAlpha" type="matrix" values="0 0 0 0 0 0 0 0 0 0 0 0 0 0 0 0 0 0 127 0" result="hardAlpha"/>
<feOffset dy="4"/>
<feComposite in2="hardAlpha" operator="arithmetic" k2="-1" k3="1"/>
<feColorMatrix type="matrix" values="0 0 0 0 1 0 0 0 0 1 0 0 0 0 1 0 0 0 0.25 0"/>
<feBlend mode="normal" in2="shape" result="effect1_innerShadow_539_13105"/>
<feColorMatrix in="SourceAlpha" type="matrix" values="0 0 0 0 0 0 0 0 0 0 0 0 0 0 0 0 0 0 127 0" result="hardAlpha"/>
<feOffset dy="-4"/>
<feComposite in2="hardAlpha" operator="arithmetic" k2="-1" k3="1"/>
<feColorMatrix type="matrix" values="0 0 0 0 0 0 0 0 0 0 0 0 0 0 0 0 0 0 0.9 0"/>
<feBlend mode="soft-light" in2="effect1_innerShadow_539_13105" result="effect2_innerShadow_539_13105"/>
</filter>
<linearGradient id="paint0_linear_539_13105" x1="17" y1="34" x2="197.768" y2="215.142" gradientUnits="userSpaceOnUse">
<stop stop-color="#05815D"/>
<stop offset="1" stop-color="#0C575F"/>
</linearGradient>
<linearGradient id="paint1_linear_539_13105" x1="17" y1="62" x2="241" y2="210" gradientUnits="userSpaceOnUse">
<stop stop-color="#6D6DB6"/>
<stop offset="1" stop-color="#00005B"/>
</linearGradient>
</defs>
</svg>
