<svg width="256" height="256" viewBox="0 0 256 256" fill="none" xmlns="http://www.w3.org/2000/svg">
<path fill-rule="evenodd" clip-rule="evenodd" d="M104.425 42.3784C100.056 37.0733 93.5437 34 86.6712 34H29C22.3726 34 17 39.3726 17 46V58.1371V68.2V160C17 166.627 22.3726 172 29 172H229C235.627 172 241 166.627 241 160V70.1371C241 63.5097 235.627 58.1371 229 58.1371H117.404L104.425 42.3784Z" fill="#07430B"/>
<mask id="mask0_539_13165" style="mask-type:alpha" maskUnits="userSpaceOnUse" x="17" y="34" width="224" height="138">
<path fill-rule="evenodd" clip-rule="evenodd" d="M104.425 42.3784C100.056 37.0733 93.5437 34 86.6712 34H29C22.3726 34 17 39.3726 17 46V58.1371V68.2V160C17 166.627 22.3726 172 29 172H229C235.627 172 241 166.627 241 160V70.1371C241 63.5097 235.627 58.1371 229 58.1371H117.404L104.425 42.3784Z" fill="url(#paint0_linear_539_13165)"/>
</mask>
<g mask="url(#mask0_539_13165)">
<g style="mix-blend-mode:multiply" filter="url(#filter0_f_539_13165)">
<path fill-rule="evenodd" clip-rule="evenodd" d="M92.789 74C97.7642 74 102.605 72.3868 106.586 69.4024L116.459 62H229C235.627 62 241 67.3726 241 74V108V160C241 166.627 235.627 172 229 172H29C22.3726 172 17 166.627 17 160L17 108V86C17 79.3726 22.3726 74 29 74H87H92.789Z" fill="black" fill-opacity="0.3"/>
</g>
</g>
<g filter="url(#filter1_ii_539_13165)">
<path fill-rule="evenodd" clip-rule="evenodd" d="M92.789 74C97.7642 74 102.605 72.3868 106.586 69.4024L116.459 62H229C235.627 62 241 67.3726 241 74V108V198C241 204.627 235.627 210 229 210H29C22.3726 210 17 204.627 17 198L17 108V86C17 79.3726 22.3726 74 29 74H87H92.789Z" fill="url(#paint1_linear_539_13165)"/>
</g>
<path d="M70.0039 170.671V100.219C69.993 100.109 70.0048 99.9978 70.0385 99.8927C70.0721 99.7876 70.127 99.6905 70.1997 99.6075C70.2724 99.5244 70.3613 99.4572 70.461 99.4099C70.5607 99.3626 70.6691 99.3362 70.7794 99.3324C71.887 99.2597 73.5117 99.2043 75.6534 99.1663C77.7944 99.1298 80.3053 99.0929 83.1858 99.0554C86.066 99.0191 89.1308 99.0007 92.3803 99C101.242 99 108.59 100.514 114.424 103.542C119.953 106.281 124.528 110.624 127.551 116.004C130.467 121.285 131.926 127.359 131.927 134.226C132.01 139.031 131.241 143.813 129.655 148.35C128.268 152.233 126.164 155.822 123.452 158.929C120.886 161.838 117.876 164.324 114.535 166.295C111.221 168.249 107.638 169.705 103.9 170.615C100.241 171.526 96.484 171.991 92.7125 172H84.4597C81.5416 172 78.8277 171.982 76.3179 171.945C73.8066 171.906 71.9235 171.851 70.6684 171.778C70.2253 171.778 70.0038 171.409 70.0039 170.671ZM85.2906 112.625V158.486C86.1022 158.486 86.8408 158.504 87.5062 158.541C88.1707 158.579 88.8538 158.616 89.5555 158.652C90.2563 158.69 91.0502 158.708 91.9371 158.707C95.2874 158.751 98.6208 158.226 101.796 157.156C104.64 156.19 107.233 154.6 109.384 152.504C111.548 150.343 113.212 147.734 114.258 144.86C115.449 141.559 116.031 138.068 115.975 134.558C116.043 131.251 115.479 127.961 114.313 124.866C113.274 122.195 111.624 119.805 109.495 117.887C107.32 115.965 104.748 114.547 101.962 113.733C98.8512 112.819 95.6222 112.372 92.3802 112.404C90.902 112.404 89.665 112.422 88.6693 112.459C87.6722 112.497 86.5459 112.553 85.2906 112.625V112.625Z" fill="#33FF66"/>
<path d="M138.697 170.782V129.574C138.697 128.319 138.678 126.916 138.641 125.364C138.603 123.814 138.548 122.337 138.475 120.933C138.401 119.531 138.327 118.424 138.254 117.61C138.21 117.5 138.198 117.38 138.217 117.263C138.237 117.146 138.288 117.036 138.364 116.945C138.455 116.866 138.56 116.806 138.674 116.768C138.788 116.73 138.909 116.715 139.029 116.724H150.55C150.931 116.711 151.31 116.787 151.657 116.945C151.804 117.021 151.932 117.131 152.028 117.266C152.124 117.401 152.187 117.557 152.211 117.721C152.358 118.164 152.525 118.663 152.71 119.216C152.915 119.883 153.045 120.57 153.097 121.266C155.239 119.389 157.721 117.942 160.408 117.001C163.08 116.076 165.889 115.608 168.716 115.616C170.918 115.626 173.105 115.981 175.197 116.669C177.611 117.441 179.814 118.763 181.631 120.532C183.447 122.3 184.828 124.467 185.665 126.86C186.773 129.704 187.326 133.378 187.327 137.882V170.782C187.327 171.446 187.031 171.779 186.44 171.779H173.037C172.886 171.8 172.733 171.786 172.588 171.738C172.444 171.69 172.313 171.609 172.206 171.502C172.098 171.394 172.017 171.263 171.969 171.119C171.921 170.975 171.907 170.821 171.929 170.671V139.211C171.995 137.279 171.655 135.354 170.932 133.562C170.338 132.171 169.357 130.979 168.107 130.128C166.694 129.263 165.055 128.838 163.399 128.909C161.619 128.884 159.851 129.204 158.193 129.851C156.677 130.456 155.287 131.339 154.094 132.454V170.782C154.094 171.446 153.799 171.779 153.208 171.779H139.693C139.558 171.798 139.42 171.785 139.29 171.742C139.16 171.699 139.043 171.626 138.946 171.529C138.849 171.433 138.776 171.315 138.733 171.185C138.69 171.055 138.677 170.917 138.697 170.782V170.782Z" fill="#33FF66"/>
<defs>
<filter id="filter0_f_539_13165" x="-20" y="25" width="298" height="184" filterUnits="userSpaceOnUse" color-interpolation-filters="sRGB">
<feFlood flood-opacity="0" result="BackgroundImageFix"/>
<feBlend mode="normal" in="SourceGraphic" in2="BackgroundImageFix" result="shape"/>
<feGaussianBlur stdDeviation="18.5" result="effect1_foregroundBlur_539_13165"/>
</filter>
<filter id="filter1_ii_539_13165" x="17" y="62" width="224" height="148" filterUnits="userSpaceOnUse" color-interpolation-filters="sRGB">
<feFlood flood-opacity="0" result="BackgroundImageFix"/>
<feBlend mode="normal" in="SourceGraphic" in2="BackgroundImageFix" result="shape"/>
<feColorMatrix in="SourceAlpha" type="matrix" values="0 0 0 0 0 0 0 0 0 0 0 0 0 0 0 0 0 0 127 0" result="hardAlpha"/>
<feOffset dy="4"/>
<feComposite in2="hardAlpha" operator="arithmetic" k2="-1" k3="1"/>
<feColorMatrix type="matrix" values="0 0 0 0 1 0 0 0 0 1 0 0 0 0 1 0 0 0 0.25 0"/>
<feBlend mode="normal" in2="shape" result="effect1_innerShadow_539_13165"/>
<feColorMatrix in="SourceAlpha" type="matrix" values="0 0 0 0 0 0 0 0 0 0 0 0 0 0 0 0 0 0 127 0" result="hardAlpha"/>
<feOffset dy="-4"/>
<feComposite in2="hardAlpha" operator="arithmetic" k2="-1" k3="1"/>
<feColorMatrix type="matrix" values="0 0 0 0 0 0 0 0 0 0 0 0 0 0 0 0 0 0 0.9 0"/>
<feBlend mode="soft-light" in2="effect1_innerShadow_539_13165" result="effect2_innerShadow_539_13165"/>
</filter>
<linearGradient id="paint0_linear_539_13165" x1="17" y1="34" x2="197.768" y2="215.142" gradientUnits="userSpaceOnUse">
<stop stop-color="#05815D"/>
<stop offset="1" stop-color="#0C575F"/>
</linearGradient>
<linearGradient id="paint1_linear_539_13165" x1="17" y1="62" x2="241" y2="210" gradientUnits="userSpaceOnUse">
<stop stop-color="#239640"/>
<stop offset="1" stop-color="#013301"/>
</linearGradient>
</defs>
</svg>
