<svg width="256" height="256" viewBox="0 0 256 256" fill="none" xmlns="http://www.w3.org/2000/svg">
<path fill-rule="evenodd" clip-rule="evenodd" d="M104.425 42.3784C100.056 37.0733 93.5437 34 86.6712 34H29C22.3726 34 17 39.3726 17 46V58.1371V68.2V160C17 166.627 22.3726 172 29 172H229C235.627 172 241 166.627 241 160V70.1371C241 63.5097 235.627 58.1371 229 58.1371H117.404L104.425 42.3784Z" fill="#2D2C2B"/>
<mask id="mask0_539_13340" style="mask-type:alpha" maskUnits="userSpaceOnUse" x="17" y="34" width="224" height="138">
<path fill-rule="evenodd" clip-rule="evenodd" d="M104.425 42.3784C100.056 37.0733 93.5437 34 86.6712 34H29C22.3726 34 17 39.3726 17 46V58.1371V68.2V160C17 166.627 22.3726 172 29 172H229C235.627 172 241 166.627 241 160V70.1371C241 63.5097 235.627 58.1371 229 58.1371H117.404L104.425 42.3784Z" fill="url(#paint0_linear_539_13340)"/>
</mask>
<g mask="url(#mask0_539_13340)">
<g style="mix-blend-mode:multiply" filter="url(#filter0_f_539_13340)">
<path fill-rule="evenodd" clip-rule="evenodd" d="M92.789 74C97.7642 74 102.605 72.3868 106.586 69.4024L116.459 62H229C235.627 62 241 67.3726 241 74V108V160C241 166.627 235.627 172 229 172H29C22.3726 172 17 166.627 17 160L17 108V86C17 79.3726 22.3726 74 29 74H87H92.789Z" fill="black" fill-opacity="0.3"/>
</g>
</g>
<g filter="url(#filter1_ii_539_13340)">
<path fill-rule="evenodd" clip-rule="evenodd" d="M92.789 74C97.7642 74 102.605 72.3868 106.586 69.4024L116.459 62H229C235.627 62 241 67.3726 241 74V108V198C241 204.627 235.627 210 229 210H29C22.3726 210 17 204.627 17 198L17 108V86C17 79.3726 22.3726 74 29 74H87H92.789Z" fill="url(#paint1_linear_539_13340)"/>
</g>
<path fill-rule="evenodd" clip-rule="evenodd" d="M110.791 170.195C110.791 170.841 110.679 171.056 109.93 171.056H99.8609C99.2152 171.056 99 170.738 99 170.195V99.8703C99 99.2152 99.3275 99 99.8609 99H110.033C110.576 99 110.791 99.2152 110.791 99.758V170.195ZM159.097 169.699C159.119 169.883 159.078 170.069 158.981 170.227C158.884 170.385 158.737 170.506 158.563 170.57C155.389 171.621 152.052 172.1 148.71 171.983C133.362 171.983 124.379 160.632 124.379 144.526C124.379 128.749 134.532 116.855 150.094 116.855C154.315 116.855 156.907 117.183 158.517 117.791C158.702 117.9 158.853 118.06 158.949 118.253C159.045 118.446 159.084 118.662 159.059 118.876L158.947 127.841C158.947 128.384 158.629 128.487 158.198 128.384C155.805 127.502 153.261 127.099 150.712 127.196C142.168 127.196 136.338 133.138 136.338 143.946C136.338 156.701 143.684 161.137 150.927 161.137C153.409 161.251 155.891 160.934 158.264 160.201C158.797 160.089 159.013 160.304 159.013 160.734V169.709L159.097 169.699Z" fill="#2D2C2B"/>
<defs>
<filter id="filter0_f_539_13340" x="-20" y="25" width="298" height="184" filterUnits="userSpaceOnUse" color-interpolation-filters="sRGB">
<feFlood flood-opacity="0" result="BackgroundImageFix"/>
<feBlend mode="normal" in="SourceGraphic" in2="BackgroundImageFix" result="shape"/>
<feGaussianBlur stdDeviation="18.5" result="effect1_foregroundBlur_539_13340"/>
</filter>
<filter id="filter1_ii_539_13340" x="17" y="62" width="224" height="148" filterUnits="userSpaceOnUse" color-interpolation-filters="sRGB">
<feFlood flood-opacity="0" result="BackgroundImageFix"/>
<feBlend mode="normal" in="SourceGraphic" in2="BackgroundImageFix" result="shape"/>
<feColorMatrix in="SourceAlpha" type="matrix" values="0 0 0 0 0 0 0 0 0 0 0 0 0 0 0 0 0 0 127 0" result="hardAlpha"/>
<feOffset dy="4"/>
<feComposite in2="hardAlpha" operator="arithmetic" k2="-1" k3="1"/>
<feColorMatrix type="matrix" values="0 0 0 0 1 0 0 0 0 1 0 0 0 0 1 0 0 0 0.25 0"/>
<feBlend mode="normal" in2="shape" result="effect1_innerShadow_539_13340"/>
<feColorMatrix in="SourceAlpha" type="matrix" values="0 0 0 0 0 0 0 0 0 0 0 0 0 0 0 0 0 0 127 0" result="hardAlpha"/>
<feOffset dy="-4"/>
<feComposite in2="hardAlpha" operator="arithmetic" k2="-1" k3="1"/>
<feColorMatrix type="matrix" values="0 0 0 0 0 0 0 0 0 0 0 0 0 0 0 0 0 0 0.9 0"/>
<feBlend mode="soft-light" in2="effect1_innerShadow_539_13340" result="effect2_innerShadow_539_13340"/>
</filter>
<linearGradient id="paint0_linear_539_13340" x1="17" y1="34" x2="197.768" y2="215.142" gradientUnits="userSpaceOnUse">
<stop stop-color="#05815D"/>
<stop offset="1" stop-color="#0C575F"/>
</linearGradient>
<linearGradient id="paint1_linear_539_13340" x1="17" y1="62" x2="241" y2="210" gradientUnits="userSpaceOnUse">
<stop stop-color="#FF7590"/>
<stop offset="1" stop-color="#FF247A"/>
</linearGradient>
</defs>
</svg>
