<svg width="256" height="256" viewBox="0 0 256 256" fill="none" xmlns="http://www.w3.org/2000/svg">
<path fill-rule="evenodd" clip-rule="evenodd" d="M104.425 42.3784C100.056 37.0733 93.5437 34 86.6712 34H29C22.3726 34 17 39.3726 17 46V58.1371V68.2V160C17 166.627 22.3726 172 29 172H229C235.627 172 241 166.627 241 160V70.1371C241 63.5097 235.627 58.1371 229 58.1371H117.404L104.425 42.3784Z" fill="#052B48"/>
<mask id="mask0_539_13023" style="mask-type:alpha" maskUnits="userSpaceOnUse" x="17" y="34" width="224" height="138">
<path fill-rule="evenodd" clip-rule="evenodd" d="M104.425 42.3784C100.056 37.0733 93.5437 34 86.6712 34H29C22.3726 34 17 39.3726 17 46V58.1371V68.2V160C17 166.627 22.3726 172 29 172H229C235.627 172 241 166.627 241 160V70.1371C241 63.5097 235.627 58.1371 229 58.1371H117.404L104.425 42.3784Z" fill="url(#paint0_linear_539_13023)"/>
</mask>
<g mask="url(#mask0_539_13023)">
<g style="mix-blend-mode:multiply" filter="url(#filter0_f_539_13023)">
<path fill-rule="evenodd" clip-rule="evenodd" d="M92.789 74C97.7642 74 102.605 72.3868 106.586 69.4024L116.459 62H229C235.627 62 241 67.3726 241 74V108V160C241 166.627 235.627 172 229 172H29C22.3726 172 17 166.627 17 160L17 108V86C17 79.3726 22.3726 74 29 74H87H92.789Z" fill="black" fill-opacity="0.3"/>
</g>
</g>
<g filter="url(#filter1_ii_539_13023)">
<path fill-rule="evenodd" clip-rule="evenodd" d="M92.789 74C97.7642 74 102.605 72.3868 106.586 69.4024L116.459 62H229C235.627 62 241 67.3726 241 74V108V198C241 204.627 235.627 210 229 210H29C22.3726 210 17 204.627 17 198L17 108V86C17 79.3726 22.3726 74 29 74H87H92.789Z" fill="url(#paint1_linear_539_13023)"/>
</g>
<path d="M101.22 144.097V171.108C101.237 171.228 101.226 171.35 101.188 171.465C101.15 171.58 101.085 171.684 101 171.77C100.914 171.855 100.81 171.92 100.695 171.958C100.58 171.996 100.458 172.007 100.338 171.99H86.7771C86.6658 172.004 86.5529 171.991 86.4476 171.953C86.3422 171.914 86.2474 171.852 86.1709 171.77C86.0389 171.535 85.9812 171.266 86.0054 170.998V100.549C86.0054 99.5203 86.2626 99.0058 86.7771 99.0052H130.436C130.704 98.9815 130.973 99.0391 131.208 99.1705C131.354 99.2809 131.464 99.777 131.538 100.659L132.751 112.676C132.787 112.782 132.79 112.897 132.761 113.005C132.732 113.113 132.67 113.209 132.586 113.283C132.491 113.375 132.379 113.447 132.256 113.494C132.133 113.542 132.001 113.563 131.869 113.558H101.22V130.316H128.782C129.444 130.316 129.774 130.574 129.774 131.088V143.215C129.791 143.335 129.78 143.457 129.742 143.572C129.704 143.687 129.639 143.791 129.554 143.877C129.468 143.962 129.364 144.027 129.249 144.065C129.134 144.103 129.012 144.114 128.892 144.097L101.22 144.097Z" fill="#31A8FF"/>
<path d="M139.477 117.196H151.494C151.82 117.199 152.137 117.308 152.395 117.507C152.654 117.706 152.841 117.984 152.927 118.299C153.189 118.782 153.375 119.302 153.478 119.842C153.632 120.551 153.743 121.269 153.809 121.992C153.881 122.764 153.918 123.591 153.919 124.473C155.98 122.073 158.465 120.074 161.251 118.574C164.38 116.883 167.892 116.028 171.449 116.094C171.584 116.075 171.721 116.087 171.85 116.13C171.979 116.173 172.097 116.246 172.193 116.342C172.289 116.438 172.362 116.555 172.405 116.685C172.448 116.814 172.46 116.951 172.441 117.086V130.426C172.441 130.941 172.072 131.198 171.339 131.198C166.898 130.923 162.455 131.717 158.385 133.513C157.001 134.112 155.747 134.973 154.691 136.049V170.998C154.691 171.659 154.397 171.99 153.809 171.99H140.469C140.319 172.012 140.166 171.998 140.023 171.95C139.879 171.902 139.749 171.822 139.642 171.715C139.535 171.608 139.454 171.477 139.406 171.334C139.358 171.19 139.345 171.037 139.366 170.888V132.962C139.366 131.346 139.348 129.637 139.311 127.835C139.273 126.035 139.218 124.253 139.146 122.488C139.097 120.974 138.95 119.464 138.705 117.968C138.677 117.861 138.678 117.749 138.707 117.643C138.736 117.537 138.792 117.44 138.87 117.362C138.948 117.284 139.045 117.228 139.152 117.199C139.258 117.169 139.37 117.169 139.477 117.196H139.477Z" fill="#31A8FF"/>
<defs>
<filter id="filter0_f_539_13023" x="-20" y="25" width="298" height="184" filterUnits="userSpaceOnUse" color-interpolation-filters="sRGB">
<feFlood flood-opacity="0" result="BackgroundImageFix"/>
<feBlend mode="normal" in="SourceGraphic" in2="BackgroundImageFix" result="shape"/>
<feGaussianBlur stdDeviation="18.5" result="effect1_foregroundBlur_539_13023"/>
</filter>
<filter id="filter1_ii_539_13023" x="17" y="62" width="224" height="148" filterUnits="userSpaceOnUse" color-interpolation-filters="sRGB">
<feFlood flood-opacity="0" result="BackgroundImageFix"/>
<feBlend mode="normal" in="SourceGraphic" in2="BackgroundImageFix" result="shape"/>
<feColorMatrix in="SourceAlpha" type="matrix" values="0 0 0 0 0 0 0 0 0 0 0 0 0 0 0 0 0 0 127 0" result="hardAlpha"/>
<feOffset dy="4"/>
<feComposite in2="hardAlpha" operator="arithmetic" k2="-1" k3="1"/>
<feColorMatrix type="matrix" values="0 0 0 0 1 0 0 0 0 1 0 0 0 0 1 0 0 0 0.25 0"/>
<feBlend mode="normal" in2="shape" result="effect1_innerShadow_539_13023"/>
<feColorMatrix in="SourceAlpha" type="matrix" values="0 0 0 0 0 0 0 0 0 0 0 0 0 0 0 0 0 0 127 0" result="hardAlpha"/>
<feOffset dy="-4"/>
<feComposite in2="hardAlpha" operator="arithmetic" k2="-1" k3="1"/>
<feColorMatrix type="matrix" values="0 0 0 0 0 0 0 0 0 0 0 0 0 0 0 0 0 0 0.9 0"/>
<feBlend mode="soft-light" in2="effect1_innerShadow_539_13023" result="effect2_innerShadow_539_13023"/>
</filter>
<linearGradient id="paint0_linear_539_13023" x1="17" y1="34" x2="197.768" y2="215.142" gradientUnits="userSpaceOnUse">
<stop stop-color="#05815D"/>
<stop offset="1" stop-color="#0C575F"/>
</linearGradient>
<linearGradient id="paint1_linear_539_13023" x1="17" y1="62" x2="241" y2="210" gradientUnits="userSpaceOnUse">
<stop stop-color="#2173AF"/>
<stop offset="1" stop-color="#001E36"/>
</linearGradient>
</defs>
</svg>
