<svg width="256" height="256" viewBox="0 0 256 256" fill="none" xmlns="http://www.w3.org/2000/svg">
<path fill-rule="evenodd" clip-rule="evenodd" d="M104.425 42.3784C100.056 37.0733 93.5437 34 86.6712 34H29C22.3726 34 17 39.3726 17 46V58.1371V68.2V160C17 166.627 22.3726 172 29 172H229C235.627 172 241 166.627 241 160V70.1371C241 63.5097 235.627 58.1371 229 58.1371H117.404L104.425 42.3784Z" fill="#2D2C2B"/>
<mask id="mask0_539_13376" style="mask-type:alpha" maskUnits="userSpaceOnUse" x="17" y="34" width="224" height="138">
<path fill-rule="evenodd" clip-rule="evenodd" d="M104.425 42.3784C100.056 37.0733 93.5437 34 86.6712 34H29C22.3726 34 17 39.3726 17 46V58.1371V68.2V160C17 166.627 22.3726 172 29 172H229C235.627 172 241 166.627 241 160V70.1371C241 63.5097 235.627 58.1371 229 58.1371H117.404L104.425 42.3784Z" fill="url(#paint0_linear_539_13376)"/>
</mask>
<g mask="url(#mask0_539_13376)">
<g style="mix-blend-mode:multiply" filter="url(#filter0_f_539_13376)">
<path fill-rule="evenodd" clip-rule="evenodd" d="M92.789 74C97.7642 74 102.605 72.3868 106.586 69.4024L116.459 62H229C235.627 62 241 67.3726 241 74V108V160C241 166.627 235.627 172 229 172H29C22.3726 172 17 166.627 17 160L17 108V86C17 79.3726 22.3726 74 29 74H87H92.789Z" fill="black" fill-opacity="0.3"/>
</g>
</g>
<g filter="url(#filter1_ii_539_13376)">
<path fill-rule="evenodd" clip-rule="evenodd" d="M92.789 74C97.7642 74 102.605 72.3868 106.586 69.4024L116.459 62H229C235.627 62 241 67.3726 241 74V108V198C241 204.627 235.627 210 229 210H29C22.3726 210 17 204.627 17 198L17 108V86C17 79.3726 22.3726 74 29 74H87H92.789Z" fill="url(#paint1_linear_539_13376)"/>
</g>
<path d="M78 100.161C78 99.6364 78.131 99.3744 78.7862 99.3088C81.2382 99.1778 88.4821 99 95.885 99C117.963 99 128.969 113.263 128.969 134.162C128.969 163.249 109.905 172 95.2767 172C89.6613 172 81.65 171.869 78.7019 171.803C78.2433 171.803 78.0468 171.476 78.0468 170.952L78 100.161ZM89.9888 161.349C91.8606 161.481 93.33 161.546 95.4264 161.546C107.593 161.546 116.653 152.964 116.784 134.405C116.915 116.323 107.546 109.379 95.885 109.379C93.5921 109.379 91.8887 109.51 89.9888 109.576V161.349Z" fill="#29292A"/>
<path d="M139.582 129.117C139.582 128.462 139.582 126.169 139.254 122.369C139.254 121.911 139.385 121.845 139.778 121.583C145.347 119.487 152.816 117.259 160.368 117.259C169.606 117.259 179.957 120.862 179.957 136.782V170.98C179.957 171.635 179.76 171.831 179.17 171.831H168.801C168.146 171.831 167.949 171.504 167.949 170.98V137.634C167.949 131.345 165.328 127.807 158.843 127.807C156.371 127.809 153.916 128.207 151.571 128.986V171.064C151.571 171.523 151.374 171.85 150.916 171.85H140.368C139.844 171.85 139.582 171.654 139.582 171.064V129.136V129.117Z" fill="#29292A"/>
<defs>
<filter id="filter0_f_539_13376" x="-20" y="25" width="298" height="184" filterUnits="userSpaceOnUse" color-interpolation-filters="sRGB">
<feFlood flood-opacity="0" result="BackgroundImageFix"/>
<feBlend mode="normal" in="SourceGraphic" in2="BackgroundImageFix" result="shape"/>
<feGaussianBlur stdDeviation="18.5" result="effect1_foregroundBlur_539_13376"/>
</filter>
<filter id="filter1_ii_539_13376" x="17" y="62" width="224" height="148" filterUnits="userSpaceOnUse" color-interpolation-filters="sRGB">
<feFlood flood-opacity="0" result="BackgroundImageFix"/>
<feBlend mode="normal" in="SourceGraphic" in2="BackgroundImageFix" result="shape"/>
<feColorMatrix in="SourceAlpha" type="matrix" values="0 0 0 0 0 0 0 0 0 0 0 0 0 0 0 0 0 0 127 0" result="hardAlpha"/>
<feOffset dy="4"/>
<feComposite in2="hardAlpha" operator="arithmetic" k2="-1" k3="1"/>
<feColorMatrix type="matrix" values="0 0 0 0 1 0 0 0 0 1 0 0 0 0 1 0 0 0 0.25 0"/>
<feBlend mode="normal" in2="shape" result="effect1_innerShadow_539_13376"/>
<feColorMatrix in="SourceAlpha" type="matrix" values="0 0 0 0 0 0 0 0 0 0 0 0 0 0 0 0 0 0 127 0" result="hardAlpha"/>
<feOffset dy="-4"/>
<feComposite in2="hardAlpha" operator="arithmetic" k2="-1" k3="1"/>
<feColorMatrix type="matrix" values="0 0 0 0 0 0 0 0 0 0 0 0 0 0 0 0 0 0 0.9 0"/>
<feBlend mode="soft-light" in2="effect1_innerShadow_539_13376" result="effect2_innerShadow_539_13376"/>
</filter>
<linearGradient id="paint0_linear_539_13376" x1="17" y1="34" x2="197.768" y2="215.142" gradientUnits="userSpaceOnUse">
<stop stop-color="#05815D"/>
<stop offset="1" stop-color="#0C575F"/>
</linearGradient>
<linearGradient id="paint1_linear_539_13376" x1="17" y1="62" x2="241" y2="210" gradientUnits="userSpaceOnUse">
<stop stop-color="#3CF2A6"/>
<stop offset="1" stop-color="#009CB1"/>
</linearGradient>
</defs>
</svg>
