<svg width="256" height="256" viewBox="0 0 256 256" fill="none" xmlns="http://www.w3.org/2000/svg">
<path fill-rule="evenodd" clip-rule="evenodd" d="M104.425 42.3784C100.056 37.0733 93.5437 34 86.6712 34H29C22.3726 34 17 39.3726 17 46V58.1371V68.2V160C17 166.627 22.3726 172 29 172H229C235.627 172 241 166.627 241 160V70.1371C241 63.5097 235.627 58.1371 229 58.1371H117.404L104.425 42.3784Z" fill="#3B3200"/>
<mask id="mask0_539_13093" style="mask-type:alpha" maskUnits="userSpaceOnUse" x="17" y="34" width="224" height="138">
<path fill-rule="evenodd" clip-rule="evenodd" d="M104.425 42.3784C100.056 37.0733 93.5437 34 86.6712 34H29C22.3726 34 17 39.3726 17 46V58.1371V68.2V160C17 166.627 22.3726 172 29 172H229C235.627 172 241 166.627 241 160V70.1371C241 63.5097 235.627 58.1371 229 58.1371H117.404L104.425 42.3784Z" fill="url(#paint0_linear_539_13093)"/>
</mask>
<g mask="url(#mask0_539_13093)">
<g style="mix-blend-mode:multiply" filter="url(#filter0_f_539_13093)">
<path fill-rule="evenodd" clip-rule="evenodd" d="M92.789 74C97.7642 74 102.605 72.3868 106.586 69.4024L116.459 62H229C235.627 62 241 67.3726 241 74V108V160C241 166.627 235.627 172 229 172H29C22.3726 172 17 166.627 17 160L17 108V86C17 79.3726 22.3726 74 29 74H87H92.789Z" fill="black" fill-opacity="0.3"/>
</g>
</g>
<g filter="url(#filter1_ii_539_13093)">
<path fill-rule="evenodd" clip-rule="evenodd" d="M92.789 74C97.7642 74 102.605 72.3868 106.586 69.4024L116.459 62H229C235.627 62 241 67.3726 241 74V108V198C241 204.627 235.627 210 229 210H29C22.3726 210 17 204.627 17 198L17 108V86C17 79.3726 22.3726 74 29 74H87H92.789Z" fill="url(#paint1_linear_539_13093)"/>
</g>
<path d="M88.2601 147.023C88.2601 147.022 88.2645 147.026 88.2737 147.034C88.2647 147.027 88.2602 147.023 88.2601 147.023ZM99.2501 132.893L99.269 132.904L99.2885 132.913L102.437 134.488C105.365 136.247 107.172 137.708 108.249 139.077C109.297 140.409 109.676 141.68 109.676 143.158C109.676 144.815 109.114 146.32 107.913 147.417C106.705 148.521 104.735 149.319 101.725 149.319C97.3672 149.319 93.4124 148.194 89.631 145.565C89.4987 145.443 89.2964 145.286 89.0322 145.212C88.8468 145.161 88.5993 145.142 88.3386 145.241C88.0799 145.34 87.9127 145.514 87.8144 145.662C87.6468 145.913 87.6175 146.178 87.6084 146.264C87.5966 146.377 87.5967 146.485 87.5967 146.532L87.5967 146.54V154.894C87.5967 154.92 87.5934 154.958 87.5801 155.061C87.5793 155.067 87.5785 155.073 87.5776 155.08C87.5667 155.163 87.547 155.314 87.547 155.466C87.547 155.64 87.5705 155.9 87.7101 156.167C87.8515 156.438 88.0675 156.634 88.3116 156.764C91.8794 158.855 96.4224 159.865 101.648 160.267L101.686 160.27H101.725C107.687 160.27 112.571 158.52 115.975 155.408C119.387 152.289 121.223 147.882 121.223 142.76C121.223 139.334 120.545 136.145 118.522 133.084C116.512 130.044 113.232 127.212 108.181 124.384L108.16 124.372L108.139 124.362L105.372 122.978C102.332 121.31 100.536 119.946 99.4932 118.659C98.4904 117.422 98.1499 116.212 98.1499 114.714C98.1499 113.346 98.6186 111.883 99.7834 110.759C100.943 109.641 102.906 108.752 106.101 108.752C110.201 108.752 114.35 109.541 116.898 111.179L116.943 111.208L116.991 111.232C117.47 111.472 118.012 111.458 118.436 111.299C118.846 111.145 119.433 110.719 119.433 109.94V101.984C119.433 101.423 119.231 100.969 118.892 100.63C118.624 100.362 118.294 100.199 118.117 100.111C118.111 100.108 118.105 100.105 118.1 100.102C115.68 98.7902 111.104 98 105.902 98C99.8275 98 95.0847 99.8573 91.8549 102.98C88.626 106.103 87 110.403 87 115.112C87 118.642 87.7303 121.828 89.6757 124.786C91.6099 127.727 94.6915 130.361 99.2501 132.893ZM147.912 159.813C148.234 159.846 148.588 159.872 148.902 159.872C154.699 159.872 160.427 157.853 164.713 153.724C169.009 149.585 171.782 143.396 171.782 135.202C171.782 128.958 170.041 123.437 166.644 119.46C163.23 115.464 158.218 113.117 151.885 113.117C145.586 113.117 140.11 114.933 136.531 116.126C136.291 116.175 135.946 116.319 135.765 116.741C135.662 116.981 135.675 117.196 135.689 117.301C135.703 117.412 135.731 117.5 135.745 117.541C135.753 117.565 135.761 117.589 135.769 117.608C135.774 118.238 135.823 119.157 135.869 120.014L135.874 120.112C135.923 121.011 135.967 121.826 135.967 122.272V171.403C135.967 171.762 136.061 172.268 136.516 172.632C136.912 172.948 137.398 173 137.763 173H137.811L137.86 172.995L145.974 172.204C146.298 172.195 146.678 172.117 147.012 171.95C147.329 171.791 147.912 171.381 147.912 170.608V159.813ZM149.299 149.518C148.865 149.518 148.332 149.474 147.912 149.409V123.694C148.061 123.666 148.241 123.639 148.45 123.613C149.221 123.52 150.223 123.471 151.09 123.471C154.102 123.471 156.325 124.551 157.826 126.532C159.361 128.555 160.234 131.64 160.234 135.798C160.234 140.88 158.799 144.291 156.778 146.424C154.756 148.558 152.05 149.518 149.299 149.518ZM147.432 149.307C147.429 149.306 147.428 149.306 147.428 149.306C147.429 149.306 147.43 149.307 147.432 149.307Z" fill="#FFDA00" stroke="#FFDA00" stroke-width="2"/>
<defs>
<filter id="filter0_f_539_13093" x="-20" y="25" width="298" height="184" filterUnits="userSpaceOnUse" color-interpolation-filters="sRGB">
<feFlood flood-opacity="0" result="BackgroundImageFix"/>
<feBlend mode="normal" in="SourceGraphic" in2="BackgroundImageFix" result="shape"/>
<feGaussianBlur stdDeviation="18.5" result="effect1_foregroundBlur_539_13093"/>
</filter>
<filter id="filter1_ii_539_13093" x="17" y="62" width="224" height="148" filterUnits="userSpaceOnUse" color-interpolation-filters="sRGB">
<feFlood flood-opacity="0" result="BackgroundImageFix"/>
<feBlend mode="normal" in="SourceGraphic" in2="BackgroundImageFix" result="shape"/>
<feColorMatrix in="SourceAlpha" type="matrix" values="0 0 0 0 0 0 0 0 0 0 0 0 0 0 0 0 0 0 127 0" result="hardAlpha"/>
<feOffset dy="4"/>
<feComposite in2="hardAlpha" operator="arithmetic" k2="-1" k3="1"/>
<feColorMatrix type="matrix" values="0 0 0 0 1 0 0 0 0 1 0 0 0 0 1 0 0 0 0.25 0"/>
<feBlend mode="normal" in2="shape" result="effect1_innerShadow_539_13093"/>
<feColorMatrix in="SourceAlpha" type="matrix" values="0 0 0 0 0 0 0 0 0 0 0 0 0 0 0 0 0 0 127 0" result="hardAlpha"/>
<feOffset dy="-4"/>
<feComposite in2="hardAlpha" operator="arithmetic" k2="-1" k3="1"/>
<feColorMatrix type="matrix" values="0 0 0 0 0 0 0 0 0 0 0 0 0 0 0 0 0 0 0.9 0"/>
<feBlend mode="soft-light" in2="effect1_innerShadow_539_13093" result="effect2_innerShadow_539_13093"/>
</filter>
<linearGradient id="paint0_linear_539_13093" x1="17" y1="34" x2="197.768" y2="215.142" gradientUnits="userSpaceOnUse">
<stop stop-color="#05815D"/>
<stop offset="1" stop-color="#0C575F"/>
</linearGradient>
<linearGradient id="paint1_linear_539_13093" x1="17" y1="62" x2="241" y2="210" gradientUnits="userSpaceOnUse">
<stop stop-color="#B99E00"/>
<stop offset="1" stop-color="#262000"/>
</linearGradient>
</defs>
</svg>
