<svg width="256" height="256" viewBox="0 0 256 256" fill="none" xmlns="http://www.w3.org/2000/svg">
<path fill-rule="evenodd" clip-rule="evenodd" d="M104.425 42.3784C100.056 37.0733 93.5437 34 86.6712 34H29C22.3726 34 17 39.3726 17 46V58.1371V68.2V160C17 166.627 22.3726 172 29 172H229C235.627 172 241 166.627 241 160V70.1371C241 63.5097 235.627 58.1371 229 58.1371H117.404L104.425 42.3784Z" fill="#2D2C2B"/>
<mask id="mask0_539_13352" style="mask-type:alpha" maskUnits="userSpaceOnUse" x="17" y="34" width="224" height="138">
<path fill-rule="evenodd" clip-rule="evenodd" d="M104.425 42.3784C100.056 37.0733 93.5437 34 86.6712 34H29C22.3726 34 17 39.3726 17 46V58.1371V68.2V160C17 166.627 22.3726 172 29 172H229C235.627 172 241 166.627 241 160V70.1371C241 63.5097 235.627 58.1371 229 58.1371H117.404L104.425 42.3784Z" fill="url(#paint0_linear_539_13352)"/>
</mask>
<g mask="url(#mask0_539_13352)">
<g style="mix-blend-mode:multiply" filter="url(#filter0_f_539_13352)">
<path fill-rule="evenodd" clip-rule="evenodd" d="M92.789 74C97.7642 74 102.605 72.3868 106.586 69.4024L116.459 62H229C235.627 62 241 67.3726 241 74V108V160C241 166.627 235.627 172 229 172H29C22.3726 172 17 166.627 17 160L17 108V86C17 79.3726 22.3726 74 29 74H87H92.789Z" fill="black" fill-opacity="0.3"/>
</g>
</g>
<g filter="url(#filter1_ii_539_13352)">
<path fill-rule="evenodd" clip-rule="evenodd" d="M92.789 74C97.7642 74 102.605 72.3868 106.586 69.4024L116.459 62H229C235.627 62 241 67.3726 241 74V108V198C241 204.627 235.627 210 229 210H29C22.3726 210 17 204.627 17 198L17 108V86C17 79.3726 22.3726 74 29 74H87H92.789Z" fill="url(#paint1_linear_539_13352)"/>
</g>
<path fill-rule="evenodd" clip-rule="evenodd" d="M91.6502 168.542C91.4324 168.387 91.2584 168.178 91.1453 167.936C91.0322 167.693 90.9838 167.426 91.0048 167.159V156.933C91.0143 156.839 91.0503 156.748 91.1088 156.673C91.1672 156.598 91.2457 156.541 91.3352 156.508C91.4247 156.475 91.5217 156.468 91.6149 156.488C91.7081 156.508 91.7939 156.554 91.8623 156.62C96.4862 159.757 101.95 161.425 107.537 161.405C115.32 161.405 118.51 157.367 118.51 152.784C118.51 148.736 116.491 145.408 109.031 141.065L105.195 139.045C94.232 132.868 91.0324 126.588 91.0324 118.594C91.0324 107.732 98.5934 99 112.867 99C119.146 99 123.812 99.9221 126.477 101.453C127.011 101.665 127.113 101.987 127.113 102.624V112.204C127.121 112.305 127.098 112.407 127.048 112.496C126.999 112.585 126.924 112.657 126.833 112.703C126.742 112.749 126.64 112.768 126.539 112.756C126.438 112.744 126.342 112.703 126.265 112.637C122.964 110.507 118.086 109.438 113.079 109.438C104.882 109.438 102.217 114.122 102.217 117.856C102.217 121.895 104.236 124.882 111.585 128.921L114.997 130.765C127.141 137.478 130.229 143.969 130.229 151.973C130.229 163.794 121.599 172 107.537 172C101.304 171.954 95.5967 170.783 91.6502 168.542ZM165.554 169.464C165.575 169.714 165.514 169.965 165.379 170.176C165.244 170.388 165.043 170.549 164.807 170.635C162.286 171.555 159.615 171.99 156.933 171.917C148.837 171.917 144.254 167.657 144.254 157.643V128.654H138.132C137.597 128.654 137.477 128.442 137.477 127.907V119.341C137.477 118.806 137.588 118.492 138.224 118.492H144.346C144.429 114.394 144.737 110.303 145.268 106.238C145.268 105.501 145.591 105.316 146.015 105.178L155.605 103.905C156.029 103.795 156.342 103.905 156.342 104.431C156.13 107.52 156.029 112.73 155.918 118.492H165.259C165.794 118.492 166.006 118.705 166.006 119.239V128.017C166.006 128.552 165.683 128.654 165.259 128.654H155.881V155.707C155.881 160.068 157.375 162.051 161.312 162.051C162.53 162.065 163.745 161.922 164.927 161.627C165.25 161.516 165.563 161.728 165.563 162.263L165.554 169.464Z" fill="#2C2B2C"/>
<defs>
<filter id="filter0_f_539_13352" x="-20" y="25" width="298" height="184" filterUnits="userSpaceOnUse" color-interpolation-filters="sRGB">
<feFlood flood-opacity="0" result="BackgroundImageFix"/>
<feBlend mode="normal" in="SourceGraphic" in2="BackgroundImageFix" result="shape"/>
<feGaussianBlur stdDeviation="18.5" result="effect1_foregroundBlur_539_13352"/>
</filter>
<filter id="filter1_ii_539_13352" x="17" y="62" width="224" height="148" filterUnits="userSpaceOnUse" color-interpolation-filters="sRGB">
<feFlood flood-opacity="0" result="BackgroundImageFix"/>
<feBlend mode="normal" in="SourceGraphic" in2="BackgroundImageFix" result="shape"/>
<feColorMatrix in="SourceAlpha" type="matrix" values="0 0 0 0 0 0 0 0 0 0 0 0 0 0 0 0 0 0 127 0" result="hardAlpha"/>
<feOffset dy="4"/>
<feComposite in2="hardAlpha" operator="arithmetic" k2="-1" k3="1"/>
<feColorMatrix type="matrix" values="0 0 0 0 1 0 0 0 0 1 0 0 0 0 1 0 0 0 0.25 0"/>
<feBlend mode="normal" in2="shape" result="effect1_innerShadow_539_13352"/>
<feColorMatrix in="SourceAlpha" type="matrix" values="0 0 0 0 0 0 0 0 0 0 0 0 0 0 0 0 0 0 127 0" result="hardAlpha"/>
<feOffset dy="-4"/>
<feComposite in2="hardAlpha" operator="arithmetic" k2="-1" k3="1"/>
<feColorMatrix type="matrix" values="0 0 0 0 0 0 0 0 0 0 0 0 0 0 0 0 0 0 0.9 0"/>
<feBlend mode="soft-light" in2="effect1_innerShadow_539_13352" result="effect2_innerShadow_539_13352"/>
</filter>
<linearGradient id="paint0_linear_539_13352" x1="17" y1="34" x2="197.768" y2="215.142" gradientUnits="userSpaceOnUse">
<stop stop-color="#05815D"/>
<stop offset="1" stop-color="#0C575F"/>
</linearGradient>
<linearGradient id="paint1_linear_539_13352" x1="17" y1="62" x2="241" y2="210" gradientUnits="userSpaceOnUse">
<stop stop-color="#FF7590"/>
<stop offset="1" stop-color="#FF247A"/>
</linearGradient>
</defs>
</svg>
