<svg width="256" height="256" viewBox="0 0 256 256" fill="none" xmlns="http://www.w3.org/2000/svg">
<path fill-rule="evenodd" clip-rule="evenodd" d="M104.425 42.3784C100.056 37.0733 93.5437 34 86.6712 34H29C22.3726 34 17 39.3726 17 46V58.1371V68.2V160C17 166.627 22.3726 172 29 172H229C235.627 172 241 166.627 241 160V70.1371C241 63.5097 235.627 58.1371 229 58.1371H117.404L104.425 42.3784Z" fill="#50254D"/>
<mask id="mask0_540_15553" style="mask-type:alpha" maskUnits="userSpaceOnUse" x="17" y="34" width="224" height="138">
<path fill-rule="evenodd" clip-rule="evenodd" d="M104.425 42.3784C100.056 37.0733 93.5437 34 86.6712 34H29C22.3726 34 17 39.3726 17 46V58.1371V68.2V160C17 166.627 22.3726 172 29 172H229C235.627 172 241 166.627 241 160V70.1371C241 63.5097 235.627 58.1371 229 58.1371H117.404L104.425 42.3784Z" fill="url(#paint0_linear_540_15553)"/>
</mask>
<g mask="url(#mask0_540_15553)">
<g style="mix-blend-mode:multiply" filter="url(#filter0_f_540_15553)">
<path fill-rule="evenodd" clip-rule="evenodd" d="M92.789 74C97.7642 74 102.605 72.3868 106.586 69.4024L116.459 62H229C235.627 62 241 67.3726 241 74V108V160C241 166.627 235.627 172 229 172H29C22.3726 172 17 166.627 17 160L17 108V86C17 79.3726 22.3726 74 29 74H87H92.789Z" fill="black" fill-opacity="0.3"/>
</g>
</g>
<g filter="url(#filter1_ii_540_15553)">
<path fill-rule="evenodd" clip-rule="evenodd" d="M92.789 74C97.7642 74 102.605 72.3868 106.586 69.4024L116.459 62H229C235.627 62 241 67.3726 241 74V108V198C241 204.627 235.627 210 229 210H29C22.3726 210 17 204.627 17 198L17 108V86C17 79.3726 22.3726 74 29 74H87H92.789Z" fill="url(#paint1_linear_540_15553)"/>
</g>
<path d="M173.837 151.704C166.76 144.355 147.434 147.349 142.807 147.893C136.002 141.361 131.375 133.467 129.742 130.746C132.192 123.396 133.825 116.047 134.097 108.154C134.097 101.349 131.375 94 123.754 94C121.032 94 118.582 95.6331 117.221 97.8106C113.955 103.527 115.316 114.959 120.487 126.663C117.493 135.101 114.772 143.266 107.15 157.692C99.2567 160.959 82.6532 168.58 81.2922 176.746C80.7478 179.195 81.5644 181.645 83.4697 183.55C85.375 185.183 87.8248 186 90.2745 186C100.345 186 110.144 172.118 116.949 160.414C122.665 158.509 131.647 155.787 140.629 154.154C151.245 163.408 160.499 164.769 165.399 164.769C171.931 164.769 174.381 162.047 175.198 159.598C176.558 156.876 175.742 153.882 173.837 151.704ZM167.032 156.331C166.76 158.237 164.31 160.142 159.955 159.053C154.783 157.692 150.156 155.243 146.073 151.976C149.612 151.432 157.505 150.615 163.221 151.704C165.399 152.249 167.576 153.609 167.032 156.331ZM121.576 100.26C122.121 99.4438 122.937 98.8994 123.754 98.8994C126.203 98.8994 126.748 101.893 126.748 104.343C126.476 110.059 125.387 115.775 123.482 121.219C119.399 110.331 120.215 102.71 121.576 100.26ZM121.032 153.065C123.209 148.71 126.203 141.089 127.292 137.822C129.742 141.905 133.825 146.805 136.002 148.982C136.002 149.254 127.564 150.888 121.032 153.065ZM104.973 163.953C98.7123 174.296 92.1798 180.828 88.6413 180.828C88.0969 180.828 87.5526 180.556 87.0082 180.284C86.1916 179.74 85.9194 178.923 86.1916 177.834C87.0082 174.024 94.0851 168.852 104.973 163.953Z" fill="white"/>
<defs>
<filter id="filter0_f_540_15553" x="-20" y="25" width="298" height="184" filterUnits="userSpaceOnUse" color-interpolation-filters="sRGB">
<feFlood flood-opacity="0" result="BackgroundImageFix"/>
<feBlend mode="normal" in="SourceGraphic" in2="BackgroundImageFix" result="shape"/>
<feGaussianBlur stdDeviation="18.5" result="effect1_foregroundBlur_540_15553"/>
</filter>
<filter id="filter1_ii_540_15553" x="17" y="62" width="224" height="148" filterUnits="userSpaceOnUse" color-interpolation-filters="sRGB">
<feFlood flood-opacity="0" result="BackgroundImageFix"/>
<feBlend mode="normal" in="SourceGraphic" in2="BackgroundImageFix" result="shape"/>
<feColorMatrix in="SourceAlpha" type="matrix" values="0 0 0 0 0 0 0 0 0 0 0 0 0 0 0 0 0 0 127 0" result="hardAlpha"/>
<feOffset dy="4"/>
<feComposite in2="hardAlpha" operator="arithmetic" k2="-1" k3="1"/>
<feColorMatrix type="matrix" values="0 0 0 0 1 0 0 0 0 1 0 0 0 0 1 0 0 0 0.25 0"/>
<feBlend mode="normal" in2="shape" result="effect1_innerShadow_540_15553"/>
<feColorMatrix in="SourceAlpha" type="matrix" values="0 0 0 0 0 0 0 0 0 0 0 0 0 0 0 0 0 0 127 0" result="hardAlpha"/>
<feOffset dy="-4"/>
<feComposite in2="hardAlpha" operator="arithmetic" k2="-1" k3="1"/>
<feColorMatrix type="matrix" values="0 0 0 0 0 0 0 0 0 0 0 0 0 0 0 0 0 0 0.9 0"/>
<feBlend mode="soft-light" in2="effect1_innerShadow_540_15553" result="effect2_innerShadow_540_15553"/>
</filter>
<linearGradient id="paint0_linear_540_15553" x1="17" y1="34" x2="197.768" y2="215.142" gradientUnits="userSpaceOnUse">
<stop stop-color="#05815D"/>
<stop offset="1" stop-color="#0C575F"/>
</linearGradient>
<linearGradient id="paint1_linear_540_15553" x1="17" y1="62" x2="241" y2="210" gradientUnits="userSpaceOnUse">
<stop stop-color="#D1224B"/>
<stop offset="1" stop-color="#48254D"/>
</linearGradient>
</defs>
</svg>
