<svg width="256" height="256" viewBox="0 0 256 256" fill="none" xmlns="http://www.w3.org/2000/svg">
<path fill-rule="evenodd" clip-rule="evenodd" d="M104.425 42.3784C100.056 37.0733 93.5437 34 86.6712 34H29C22.3726 34 17 39.3726 17 46V58.1371V68.2V160C17 166.627 22.3726 172 29 172H229C235.627 172 241 166.627 241 160V70.1371C241 63.5097 235.627 58.1371 229 58.1371H117.404L104.425 42.3784Z" fill="#2D2C2B"/>
<mask id="mask0_539_13456" style="mask-type:alpha" maskUnits="userSpaceOnUse" x="17" y="34" width="224" height="138">
<path fill-rule="evenodd" clip-rule="evenodd" d="M104.425 42.3784C100.056 37.0733 93.5437 34 86.6712 34H29C22.3726 34 17 39.3726 17 46V58.1371V68.2V160C17 166.627 22.3726 172 29 172H229C235.627 172 241 166.627 241 160V70.1371C241 63.5097 235.627 58.1371 229 58.1371H117.404L104.425 42.3784Z" fill="url(#paint0_linear_539_13456)"/>
</mask>
<g mask="url(#mask0_539_13456)">
<g style="mix-blend-mode:multiply" filter="url(#filter0_f_539_13456)">
<path fill-rule="evenodd" clip-rule="evenodd" d="M92.789 74C97.7642 74 102.605 72.3868 106.586 69.4024L116.459 62H229C235.627 62 241 67.3726 241 74V108V160C241 166.627 235.627 172 229 172H29C22.3726 172 17 166.627 17 160L17 108V86C17 79.3726 22.3726 74 29 74H87H92.789Z" fill="black" fill-opacity="0.3"/>
</g>
</g>
<g filter="url(#filter1_ii_539_13456)">
<path fill-rule="evenodd" clip-rule="evenodd" d="M92.789 74C97.7642 74 102.605 72.3868 106.586 69.4024L116.459 62H229C235.627 62 241 67.3726 241 74V108V198C241 204.627 235.627 210 229 210H29C22.3726 210 17 204.627 17 198L17 108V86C17 79.3726 22.3726 74 29 74H87H92.789Z" fill="url(#paint1_linear_539_13456)"/>
</g>
<path d="M125.64 172.24C125.676 172.513 125.615 172.79 125.467 173.023C125.318 173.255 125.093 173.428 124.83 173.51C121.83 174.78 116.97 175.24 112 175.24C94 175.24 78 163.46 78 135.74C78 111.94 92.1 96 113.58 96C119.24 96 123.4 96.58 125.58 97.62C126.16 97.85 126.28 98.19 126.28 98.89V108.82C126.28 109.75 125.82 109.75 125.47 109.63C122.7 108.24 118.54 107.43 113.69 107.43C100.17 107.43 91.16 117.72 91.16 135.43C91.16 157.26 103.52 163.73 113.69 163.73C117.446 163.887 121.2 163.379 124.78 162.23C125.24 162 125.58 162 125.58 162.81V172.28L125.64 172.24Z" fill="#2D2C2B"/>
<path d="M148.85 173.39C148.85 173.97 148.62 174.2 148.16 174.2H137.07C136.96 174.213 136.849 174.201 136.745 174.165C136.641 174.129 136.547 174.069 136.469 173.991C136.391 173.913 136.331 173.819 136.295 173.715C136.259 173.611 136.247 173.5 136.26 173.39V97.8502C136.26 97.3902 136.38 97.1502 137.07 97.1502H148.16C148.254 97.1385 148.35 97.1487 148.439 97.18C148.529 97.2112 148.611 97.2626 148.677 97.3303C148.744 97.3979 148.794 97.48 148.824 97.5701C148.854 97.6603 148.863 97.7561 148.85 97.8502V120.85C152.709 117.848 157.481 116.26 162.37 116.35C169.88 116.35 179.12 120.16 179.12 137.03V173.3C179.12 173.99 178.89 174.22 178.31 174.22H167.31C166.73 174.22 166.5 173.88 166.5 173.3V138.3C166.5 131.37 163.61 127.55 158.06 127.55C154.649 127.481 151.342 128.723 148.82 131.02V173.41L148.85 173.39Z" fill="#2D2C2B"/>
<defs>
<filter id="filter0_f_539_13456" x="-20" y="25" width="298" height="184" filterUnits="userSpaceOnUse" color-interpolation-filters="sRGB">
<feFlood flood-opacity="0" result="BackgroundImageFix"/>
<feBlend mode="normal" in="SourceGraphic" in2="BackgroundImageFix" result="shape"/>
<feGaussianBlur stdDeviation="18.5" result="effect1_foregroundBlur_539_13456"/>
</filter>
<filter id="filter1_ii_539_13456" x="17" y="62" width="224" height="148" filterUnits="userSpaceOnUse" color-interpolation-filters="sRGB">
<feFlood flood-opacity="0" result="BackgroundImageFix"/>
<feBlend mode="normal" in="SourceGraphic" in2="BackgroundImageFix" result="shape"/>
<feColorMatrix in="SourceAlpha" type="matrix" values="0 0 0 0 0 0 0 0 0 0 0 0 0 0 0 0 0 0 127 0" result="hardAlpha"/>
<feOffset dy="4"/>
<feComposite in2="hardAlpha" operator="arithmetic" k2="-1" k3="1"/>
<feColorMatrix type="matrix" values="0 0 0 0 1 0 0 0 0 1 0 0 0 0 1 0 0 0 0.25 0"/>
<feBlend mode="normal" in2="shape" result="effect1_innerShadow_539_13456"/>
<feColorMatrix in="SourceAlpha" type="matrix" values="0 0 0 0 0 0 0 0 0 0 0 0 0 0 0 0 0 0 127 0" result="hardAlpha"/>
<feOffset dy="-4"/>
<feComposite in2="hardAlpha" operator="arithmetic" k2="-1" k3="1"/>
<feColorMatrix type="matrix" values="0 0 0 0 0 0 0 0 0 0 0 0 0 0 0 0 0 0 0.9 0"/>
<feBlend mode="soft-light" in2="effect1_innerShadow_539_13456" result="effect2_innerShadow_539_13456"/>
</filter>
<linearGradient id="paint0_linear_539_13456" x1="17" y1="34" x2="197.768" y2="215.142" gradientUnits="userSpaceOnUse">
<stop stop-color="#05815D"/>
<stop offset="1" stop-color="#0C575F"/>
</linearGradient>
<linearGradient id="paint1_linear_539_13456" x1="17" y1="62" x2="241" y2="210" gradientUnits="userSpaceOnUse">
<stop stop-color="#C63EC3"/>
<stop offset="1" stop-color="#7A2598"/>
</linearGradient>
</defs>
</svg>
