<svg width="256" height="256" viewBox="0 0 256 256" fill="none" xmlns="http://www.w3.org/2000/svg">
<path fill-rule="evenodd" clip-rule="evenodd" d="M104.425 42.3784C100.056 37.0733 93.5437 34 86.6712 34H29C22.3726 34 17 39.3726 17 46V58.1371V68.2V160C17 166.627 22.3726 172 29 172H229C235.627 172 241 166.627 241 160V70.1371C241 63.5097 235.627 58.1371 229 58.1371H117.404L104.425 42.3784Z" fill="#2D2C2B"/>
<mask id="mask0_539_13311" style="mask-type:alpha" maskUnits="userSpaceOnUse" x="17" y="34" width="224" height="138">
<path fill-rule="evenodd" clip-rule="evenodd" d="M104.425 42.3784C100.056 37.0733 93.5437 34 86.6712 34H29C22.3726 34 17 39.3726 17 46V58.1371V68.2V160C17 166.627 22.3726 172 29 172H229C235.627 172 241 166.627 241 160V70.1371C241 63.5097 235.627 58.1371 229 58.1371H117.404L104.425 42.3784Z" fill="url(#paint0_linear_539_13311)"/>
</mask>
<g mask="url(#mask0_539_13311)">
<g style="mix-blend-mode:multiply" filter="url(#filter0_f_539_13311)">
<path fill-rule="evenodd" clip-rule="evenodd" d="M92.789 74C97.7642 74 102.605 72.3868 106.586 69.4024L116.459 62H229C235.627 62 241 67.3726 241 74V108V160C241 166.627 235.627 172 229 172H29C22.3726 172 17 166.627 17 160L17 108V86C17 79.3726 22.3726 74 29 74H87H92.789Z" fill="black" fill-opacity="0.3"/>
</g>
</g>
<g filter="url(#filter1_ii_539_13311)">
<path fill-rule="evenodd" clip-rule="evenodd" d="M92.789 74C97.7642 74 102.605 72.3868 106.586 69.4024L116.459 62H229C235.627 62 241 67.3726 241 74V108V198C241 204.627 235.627 210 229 210H29C22.3726 210 17 204.627 17 198L17 108V86C17 79.3726 22.3726 74 29 74H87H92.789Z" fill="url(#paint1_linear_539_13311)"/>
</g>
<path fill-rule="evenodd" clip-rule="evenodd" d="M64 171.008C64 171.622 64.1984 171.953 64.9921 171.953V172H101.152C101.378 172.003 101.598 171.924 101.772 171.779C101.945 171.633 102.061 171.43 102.097 171.206L103.75 161.814C103.883 161.219 103.684 161.021 103.155 161.021H75.9052V99.7937C75.9052 99.1984 75.773 99 75.2438 99H64.7937C64.1984 99 64 99.3307 64 99.8598V171.008ZM114.597 129.094V129.094H114.522V171.159C114.522 171.754 114.786 171.953 115.315 171.953H125.709C126.304 171.953 126.503 171.688 126.503 171.159V129.425C128.817 128.432 134.968 127.903 139.135 128.102C139.731 128.102 139.929 127.969 139.929 127.44V117.916C139.929 117.387 139.664 117.255 139.135 117.255C130.814 117.308 122.571 118.854 114.796 121.818C114.617 121.871 114.464 121.988 114.367 122.147C114.269 122.306 114.233 122.495 114.267 122.678C114.597 126.382 114.597 128.3 114.597 129.094ZM194.992 168.955C195.021 169.198 194.967 169.444 194.839 169.653C194.711 169.862 194.516 170.022 194.286 170.107C190.08 171.499 185.66 172.132 181.232 171.977C160.901 171.977 149 156.951 149 135.631C149 114.745 162.451 99 183.067 99C188.658 99 192.091 99.4336 194.224 100.239C194.47 100.383 194.669 100.596 194.796 100.851C194.924 101.106 194.975 101.392 194.943 101.676L194.794 110.543C194.794 111.262 194.372 111.398 193.802 111.262C190.631 110.095 187.262 109.56 183.885 109.689C172.566 109.689 161.843 120.555 161.843 134.863C161.843 151.748 174.575 160.62 184.17 160.62C187.457 160.77 190.745 160.351 193.889 159.381C194.596 159.232 194.881 159.517 194.881 160.087V168.967L194.992 168.955Z" fill="#2D2C2B"/>
<defs>
<filter id="filter0_f_539_13311" x="-20" y="25" width="298" height="184" filterUnits="userSpaceOnUse" color-interpolation-filters="sRGB">
<feFlood flood-opacity="0" result="BackgroundImageFix"/>
<feBlend mode="normal" in="SourceGraphic" in2="BackgroundImageFix" result="shape"/>
<feGaussianBlur stdDeviation="18.5" result="effect1_foregroundBlur_539_13311"/>
</filter>
<filter id="filter1_ii_539_13311" x="17" y="62" width="224" height="148" filterUnits="userSpaceOnUse" color-interpolation-filters="sRGB">
<feFlood flood-opacity="0" result="BackgroundImageFix"/>
<feBlend mode="normal" in="SourceGraphic" in2="BackgroundImageFix" result="shape"/>
<feColorMatrix in="SourceAlpha" type="matrix" values="0 0 0 0 0 0 0 0 0 0 0 0 0 0 0 0 0 0 127 0" result="hardAlpha"/>
<feOffset dy="4"/>
<feComposite in2="hardAlpha" operator="arithmetic" k2="-1" k3="1"/>
<feColorMatrix type="matrix" values="0 0 0 0 1 0 0 0 0 1 0 0 0 0 1 0 0 0 0.25 0"/>
<feBlend mode="normal" in2="shape" result="effect1_innerShadow_539_13311"/>
<feColorMatrix in="SourceAlpha" type="matrix" values="0 0 0 0 0 0 0 0 0 0 0 0 0 0 0 0 0 0 127 0" result="hardAlpha"/>
<feOffset dy="-4"/>
<feComposite in2="hardAlpha" operator="arithmetic" k2="-1" k3="1"/>
<feColorMatrix type="matrix" values="0 0 0 0 0 0 0 0 0 0 0 0 0 0 0 0 0 0 0.9 0"/>
<feBlend mode="soft-light" in2="effect1_innerShadow_539_13311" result="effect2_innerShadow_539_13311"/>
</filter>
<linearGradient id="paint0_linear_539_13311" x1="17" y1="34" x2="197.768" y2="215.142" gradientUnits="userSpaceOnUse">
<stop stop-color="#05815D"/>
<stop offset="1" stop-color="#0C575F"/>
</linearGradient>
<linearGradient id="paint1_linear_539_13311" x1="17" y1="62" x2="241" y2="210" gradientUnits="userSpaceOnUse">
<stop stop-color="#AFF3FB"/>
<stop offset="1" stop-color="#758DCA"/>
</linearGradient>
</defs>
</svg>
