<svg width="256" height="256" viewBox="0 0 256 256" fill="none" xmlns="http://www.w3.org/2000/svg">
<path fill-rule="evenodd" clip-rule="evenodd" d="M104.425 42.3784C100.056 37.0733 93.5437 34 86.6712 34H29C22.3726 34 17 39.3726 17 46V58.1371V68.2V160C17 166.627 22.3726 172 29 172H229C235.627 172 241 166.627 241 160V70.1371C241 63.5097 235.627 58.1371 229 58.1371H117.404L104.425 42.3784Z" fill="#000B1D"/>
<mask id="mask0_539_13470" style="mask-type:alpha" maskUnits="userSpaceOnUse" x="17" y="34" width="224" height="138">
<path fill-rule="evenodd" clip-rule="evenodd" d="M104.425 42.3784C100.056 37.0733 93.5437 34 86.6712 34H29C22.3726 34 17 39.3726 17 46V58.1371V68.2V160C17 166.627 22.3726 172 29 172H229C235.627 172 241 166.627 241 160V70.1371C241 63.5097 235.627 58.1371 229 58.1371H117.404L104.425 42.3784Z" fill="url(#paint0_linear_539_13470)"/>
</mask>
<g mask="url(#mask0_539_13470)">
<g style="mix-blend-mode:multiply" filter="url(#filter0_f_539_13470)">
<path fill-rule="evenodd" clip-rule="evenodd" d="M92.789 74C97.7642 74 102.605 72.3868 106.586 69.4024L116.459 62H229C235.627 62 241 67.3726 241 74V108V160C241 166.627 235.627 172 229 172H29C22.3726 172 17 166.627 17 160L17 108V86C17 79.3726 22.3726 74 29 74H87H92.789Z" fill="black" fill-opacity="0.3"/>
</g>
</g>
<g filter="url(#filter1_ii_539_13470)">
<path fill-rule="evenodd" clip-rule="evenodd" d="M92.789 74C97.7642 74 102.605 72.3868 106.586 69.4024L116.459 62H229C235.627 62 241 67.3726 241 74V108V198C241 204.627 235.627 210 229 210H29C22.3726 210 17 204.627 17 198L17 108V86C17 79.3726 22.3726 74 29 74H87H92.789Z" fill="url(#paint1_linear_539_13470)"/>
</g>
<path d="M80.043 170.775L80 100.441C80 99.7762 80.2218 99.4067 80.6654 99.3327C81.9213 99.2599 83.8429 99.2045 86.4303 99.1664C89.0167 99.1299 91.5471 99.0936 94.5786 99.0555C97.6085 99.0192 100.38 99.0007 102.894 99C108.953 99 113.915 99.4371 117.501 100.768C121.085 102.098 123.838 103.779 125.761 105.812C127.589 107.597 128.982 109.778 129.831 112.187C130.458 114.161 130.794 116.215 130.829 118.285C130.809 120.509 130.368 122.71 129.53 124.771C128.896 126.471 127.998 128.061 126.869 129.483C126.028 130.562 125.017 131.498 123.876 132.254C125.453 133.09 126.924 134.114 128.255 135.303C129.98 136.849 131.391 138.712 132.413 140.791C133.725 143.394 134.381 146.278 134.323 149.192C134.345 153.465 132.995 157.632 130.473 161.08C127.996 164.481 124.448 167.123 119.829 169.008C114.55 171.069 108.921 172.084 103.254 171.995H95.8815C93.5533 171.995 91.5907 171.976 89.6334 171.939C87.6741 171.901 85.9741 171.864 84.5332 171.828C83.0921 171.79 81.854 171.772 80.8191 171.773C80.3013 171.7 80.0426 171.367 80.043 170.775ZM95.0346 112.038L95.1068 127.376H102.367C104.363 127.376 106.322 127.413 108.244 127.487C109.622 127.497 110.996 127.646 112.345 127.93C113.324 127.094 114.134 126.078 114.729 124.937C115.467 123.642 115.855 122.177 115.856 120.687C115.873 118.869 115.302 117.093 114.23 115.624C113.156 114.29 111.709 113.306 110.073 112.797C107.8 112.135 105.436 111.842 103.071 111.927H99.856C98.8947 111.927 98.3052 111.946 97.5292 111.982C96.7531 112.02 95.9216 112.039 95.0346 112.038ZM95.1068 140.318V158.752C96.363 158.827 97.3401 158.882 98.5977 158.918C99.8536 158.957 101.369 158.975 103.143 158.974C105.856 159.015 108.561 158.679 111.181 157.976C113.208 157.493 115.043 156.411 116.448 154.872C117.766 153.448 118.532 151.6 118.606 149.661C118.519 147.783 117.884 145.972 116.78 144.45C115.819 142.972 114.045 141.759 111.459 141.094C110.454 140.851 109.436 140.666 108.41 140.539C107.067 140.381 105.715 140.307 104.363 140.318L95.1068 140.318Z" fill="white"/>
<path d="M144.164 116.269H156.248C156.577 116.272 156.895 116.382 157.155 116.582C157.415 116.782 157.603 117.061 157.69 117.378C157.953 117.863 158.14 118.387 158.244 118.93C158.399 119.643 158.51 120.365 158.577 121.092C158.65 121.868 158.688 122.941 158.688 123.828C160.749 121.339 163.248 119.247 166.06 117.655C169.054 115.992 172.212 115.613 176.056 115.613C176.191 115.594 176.33 115.606 176.459 115.65C176.589 115.693 176.707 115.766 176.804 115.863C176.901 115.959 176.974 116.077 177.017 116.207C177.06 116.337 177.073 116.475 177.054 116.611V129.815C177.054 130.333 176.684 130.592 175.945 130.591C173.599 130.433 171.243 130.601 168.943 131.09C166.959 131.484 165.026 132.098 163.178 132.92C161.682 133.525 160.303 134.388 159.106 135.47V170.351C159.106 171.016 158.81 171.349 158.219 171.349H145.161C145.011 171.371 144.857 171.357 144.713 171.309C144.568 171.261 144.437 171.18 144.33 171.072C144.222 170.964 144.141 170.833 144.093 170.689C144.045 170.544 144.031 170.391 144.053 170.24V132.365C144.053 130.74 144.034 129.022 143.997 127.21C143.959 125.4 143.904 123.607 143.831 121.833C143.781 120.229 143.633 118.63 143.388 117.045C143.36 116.938 143.361 116.825 143.39 116.718C143.419 116.611 143.476 116.514 143.554 116.435C143.632 116.357 143.73 116.3 143.837 116.271C143.944 116.242 144.056 116.241 144.164 116.269V116.269Z" fill="white"/>
<defs>
<filter id="filter0_f_539_13470" x="-20" y="25" width="298" height="184" filterUnits="userSpaceOnUse" color-interpolation-filters="sRGB">
<feFlood flood-opacity="0" result="BackgroundImageFix"/>
<feBlend mode="normal" in="SourceGraphic" in2="BackgroundImageFix" result="shape"/>
<feGaussianBlur stdDeviation="18.5" result="effect1_foregroundBlur_539_13470"/>
</filter>
<filter id="filter1_ii_539_13470" x="17" y="62" width="224" height="148" filterUnits="userSpaceOnUse" color-interpolation-filters="sRGB">
<feFlood flood-opacity="0" result="BackgroundImageFix"/>
<feBlend mode="normal" in="SourceGraphic" in2="BackgroundImageFix" result="shape"/>
<feColorMatrix in="SourceAlpha" type="matrix" values="0 0 0 0 0 0 0 0 0 0 0 0 0 0 0 0 0 0 127 0" result="hardAlpha"/>
<feOffset dy="4"/>
<feComposite in2="hardAlpha" operator="arithmetic" k2="-1" k3="1"/>
<feColorMatrix type="matrix" values="0 0 0 0 1 0 0 0 0 1 0 0 0 0 1 0 0 0 0.25 0"/>
<feBlend mode="normal" in2="shape" result="effect1_innerShadow_539_13470"/>
<feColorMatrix in="SourceAlpha" type="matrix" values="0 0 0 0 0 0 0 0 0 0 0 0 0 0 0 0 0 0 127 0" result="hardAlpha"/>
<feOffset dy="-4"/>
<feComposite in2="hardAlpha" operator="arithmetic" k2="-1" k3="1"/>
<feColorMatrix type="matrix" values="0 0 0 0 0 0 0 0 0 0 0 0 0 0 0 0 0 0 0.9 0"/>
<feBlend mode="soft-light" in2="effect1_innerShadow_539_13470" result="effect2_innerShadow_539_13470"/>
</filter>
<linearGradient id="paint0_linear_539_13470" x1="17" y1="34" x2="197.768" y2="215.142" gradientUnits="userSpaceOnUse">
<stop stop-color="#05815D"/>
<stop offset="1" stop-color="#0C575F"/>
</linearGradient>
<linearGradient id="paint1_linear_539_13470" x1="17" y1="62" x2="241" y2="210" gradientUnits="userSpaceOnUse">
<stop stop-color="#B8B9B8"/>
<stop offset="1" stop-color="#000B1D"/>
</linearGradient>
</defs>
</svg>
