<svg width="256" height="256" viewBox="0 0 256 256" fill="none" xmlns="http://www.w3.org/2000/svg">
<path fill-rule="evenodd" clip-rule="evenodd" d="M104.425 42.3784C100.056 37.0733 93.5437 34 86.6712 34H29C22.3726 34 17 39.3726 17 46V58.1371V68.2V160C17 166.627 22.3726 172 29 172H229C235.627 172 241 166.627 241 160V70.1371C241 63.5097 235.627 58.1371 229 58.1371H117.404L104.425 42.3784Z" fill="#2D2C2B"/>
<mask id="mask0_539_13402" style="mask-type:alpha" maskUnits="userSpaceOnUse" x="17" y="34" width="224" height="138">
<path fill-rule="evenodd" clip-rule="evenodd" d="M104.425 42.3784C100.056 37.0733 93.5437 34 86.6712 34H29C22.3726 34 17 39.3726 17 46V58.1371V68.2V160C17 166.627 22.3726 172 29 172H229C235.627 172 241 166.627 241 160V70.1371C241 63.5097 235.627 58.1371 229 58.1371H117.404L104.425 42.3784Z" fill="url(#paint0_linear_539_13402)"/>
</mask>
<g mask="url(#mask0_539_13402)">
<g style="mix-blend-mode:multiply" filter="url(#filter0_f_539_13402)">
<path fill-rule="evenodd" clip-rule="evenodd" d="M92.789 74C97.7642 74 102.605 72.3868 106.586 69.4024L116.459 62H229C235.627 62 241 67.3726 241 74V108V160C241 166.627 235.627 172 229 172H29C22.3726 172 17 166.627 17 160L17 108V86C17 79.3726 22.3726 74 29 74H87H92.789Z" fill="black" fill-opacity="0.3"/>
</g>
</g>
<g filter="url(#filter1_ii_539_13402)">
<path fill-rule="evenodd" clip-rule="evenodd" d="M92.789 74C97.7642 74 102.605 72.3868 106.586 69.4024L116.459 62H229C235.627 62 241 67.3726 241 74V108V198C241 204.627 235.627 210 229 210H29C22.3726 210 17 204.627 17 198L17 108V86C17 79.3726 22.3726 74 29 74H87H92.789Z" fill="url(#paint1_linear_539_13402)"/>
</g>
<path fill-rule="evenodd" clip-rule="evenodd" d="M95.4599 150.715L90.3071 170.27C90.1949 170.803 89.9798 171.009 89.3719 171.009H79.6835C79.0382 171.009 78.926 170.794 79.0382 170.074L97.6108 105.013C98.077 103.263 98.2973 101.456 98.2655 99.6453C98.2655 99.2151 98.4805 99 98.8079 99H112.518C112.948 99 113.172 99.1122 113.275 99.6453L134.12 170.148C134.232 170.681 134.12 171.009 133.587 171.009H122.786C122.243 171.009 121.916 170.803 121.851 170.373L116.445 150.734L95.4599 150.715ZM113.827 140.092C111.956 132.853 107.552 116.983 105.934 109.315H105.822C104.419 116.983 100.875 129.889 98.1719 140.082L113.827 140.092ZM148.915 146.788C149.027 155.644 153.235 161.582 163.176 161.582C166.84 161.683 170.482 160.994 173.856 159.562C174.286 159.347 174.613 159.45 174.613 159.992V168.222C174.631 168.476 174.579 168.73 174.464 168.957C174.349 169.185 174.174 169.376 173.959 169.512C170.508 171.243 166.197 172 160.801 172C143.519 171.963 137.066 159.235 137.066 144.973C137.066 129.534 145.062 116.918 159.099 116.918C173.36 116.918 178.326 128.907 178.326 138.623C178.395 140.94 178.213 143.257 177.784 145.534C177.762 145.754 177.664 145.958 177.507 146.112C177.349 146.266 177.143 146.36 176.923 146.376C173.297 146.734 169.653 146.877 166.01 146.806L148.915 146.788ZM162.204 137.791C163.825 137.87 165.45 137.832 167.067 137.679C167.067 137.249 167.169 136.875 167.169 136.557C167.169 132.984 165.449 126.447 158.641 126.447C152.375 126.447 149.672 131.956 149.027 137.791H162.204Z" fill="#2D2C2B"/>
<defs>
<filter id="filter0_f_539_13402" x="-20" y="25" width="298" height="184" filterUnits="userSpaceOnUse" color-interpolation-filters="sRGB">
<feFlood flood-opacity="0" result="BackgroundImageFix"/>
<feBlend mode="normal" in="SourceGraphic" in2="BackgroundImageFix" result="shape"/>
<feGaussianBlur stdDeviation="18.5" result="effect1_foregroundBlur_539_13402"/>
</filter>
<filter id="filter1_ii_539_13402" x="17" y="62" width="224" height="148" filterUnits="userSpaceOnUse" color-interpolation-filters="sRGB">
<feFlood flood-opacity="0" result="BackgroundImageFix"/>
<feBlend mode="normal" in="SourceGraphic" in2="BackgroundImageFix" result="shape"/>
<feColorMatrix in="SourceAlpha" type="matrix" values="0 0 0 0 0 0 0 0 0 0 0 0 0 0 0 0 0 0 127 0" result="hardAlpha"/>
<feOffset dy="4"/>
<feComposite in2="hardAlpha" operator="arithmetic" k2="-1" k3="1"/>
<feColorMatrix type="matrix" values="0 0 0 0 1 0 0 0 0 1 0 0 0 0 1 0 0 0 0.25 0"/>
<feBlend mode="normal" in2="shape" result="effect1_innerShadow_539_13402"/>
<feColorMatrix in="SourceAlpha" type="matrix" values="0 0 0 0 0 0 0 0 0 0 0 0 0 0 0 0 0 0 127 0" result="hardAlpha"/>
<feOffset dy="-4"/>
<feComposite in2="hardAlpha" operator="arithmetic" k2="-1" k3="1"/>
<feColorMatrix type="matrix" values="0 0 0 0 0 0 0 0 0 0 0 0 0 0 0 0 0 0 0.9 0"/>
<feBlend mode="soft-light" in2="effect1_innerShadow_539_13402" result="effect2_innerShadow_539_13402"/>
</filter>
<linearGradient id="paint0_linear_539_13402" x1="17" y1="34" x2="197.768" y2="215.142" gradientUnits="userSpaceOnUse">
<stop stop-color="#05815D"/>
<stop offset="1" stop-color="#0C575F"/>
</linearGradient>
<linearGradient id="paint1_linear_539_13402" x1="17" y1="62" x2="241" y2="210" gradientUnits="userSpaceOnUse">
<stop stop-color="#C63EC3"/>
<stop offset="1" stop-color="#7A2598"/>
</linearGradient>
</defs>
</svg>
