<svg width="256" height="256" viewBox="0 0 256 256" fill="none" xmlns="http://www.w3.org/2000/svg">
<path fill-rule="evenodd" clip-rule="evenodd" d="M104.425 42.3784C100.056 37.0733 93.5437 34 86.6712 34H29C22.3726 34 17 39.3726 17 46V58.1371V68.2V160C17 166.627 22.3726 172 29 172H229C235.627 172 241 166.627 241 160V70.1371C241 63.5097 235.627 58.1371 229 58.1371H117.404L104.425 42.3784Z" fill="#2D2C2B"/>
<mask id="mask0_539_13079" style="mask-type:alpha" maskUnits="userSpaceOnUse" x="17" y="34" width="224" height="138">
<path fill-rule="evenodd" clip-rule="evenodd" d="M104.425 42.3784C100.056 37.0733 93.5437 34 86.6712 34H29C22.3726 34 17 39.3726 17 46V58.1371V68.2V160C17 166.627 22.3726 172 29 172H229C235.627 172 241 166.627 241 160V70.1371C241 63.5097 235.627 58.1371 229 58.1371H117.404L104.425 42.3784Z" fill="url(#paint0_linear_539_13079)"/>
</mask>
<g mask="url(#mask0_539_13079)">
<g style="mix-blend-mode:multiply" filter="url(#filter0_f_539_13079)">
<path fill-rule="evenodd" clip-rule="evenodd" d="M92.789 74C97.7642 74 102.605 72.3868 106.586 69.4024L116.459 62H229C235.627 62 241 67.3726 241 74V108V160C241 166.627 235.627 172 229 172H29C22.3726 172 17 166.627 17 160L17 108V86C17 79.3726 22.3726 74 29 74H87H92.789Z" fill="black" fill-opacity="0.3"/>
</g>
</g>
<g filter="url(#filter1_ii_539_13079)">
<path fill-rule="evenodd" clip-rule="evenodd" d="M92.789 74C97.7642 74 102.605 72.3868 106.586 69.4024L116.459 62H229C235.627 62 241 67.3726 241 74V108V198C241 204.627 235.627 210 229 210H29C22.3726 210 17 204.627 17 198L17 108V86C17 79.3726 22.3726 74 29 74H87H92.789Z" fill="url(#paint1_linear_539_13079)"/>
</g>
<path fill-rule="evenodd" clip-rule="evenodd" d="M109.418 152.348C109.418 152.597 109.534 152.722 109.784 152.722H114.778C114.829 152.73 114.881 152.725 114.93 152.709C114.979 152.693 115.023 152.666 115.059 152.629C115.096 152.593 115.123 152.548 115.139 152.499C115.156 152.451 115.16 152.399 115.153 152.348V138.971C116.044 138.971 116.463 139.033 117.774 139.033C125.39 139.033 131.633 135.35 131.633 126.86C131.633 120.305 127.575 115.267 118.256 115.267C114.947 115.267 111.826 115.329 109.704 115.454C109.454 115.454 109.391 115.641 109.391 115.828L109.418 152.348ZM115.215 120.635C115.839 120.573 117.088 120.51 118.461 120.51C122.92 120.51 125.703 122.695 125.703 126.94C125.703 132.246 121.957 133.62 117.962 133.62C116.651 133.62 116.026 133.62 115.215 133.557V120.635ZM151.297 131.043C151.349 131.074 151.409 131.091 151.47 131.09C151.531 131.09 151.591 131.072 151.643 131.04C151.695 131.008 151.736 130.962 151.764 130.907C151.791 130.852 151.802 130.791 151.797 130.73V126.111C151.806 125.98 151.782 125.848 151.727 125.728C151.673 125.608 151.589 125.504 151.484 125.424C149.502 124.742 147.408 124.439 145.313 124.532C139.445 124.532 136.065 128.153 136.065 132.461C136.065 136.331 138.063 138.641 142.816 140.95C146.178 142.734 146.99 143.76 146.99 145.008C146.99 146.506 145.866 147.63 143.244 147.63C140.753 147.628 138.312 146.937 136.19 145.632C135.949 145.445 135.816 145.57 135.816 145.882V150.814C135.803 150.921 135.82 151.03 135.864 151.129C135.908 151.227 135.977 151.313 136.065 151.376C138.305 152.385 140.744 152.876 143.2 152.811C148.756 152.811 152.876 149.94 152.876 144.571C152.876 140.95 151.19 138.516 145.946 135.956C142.379 134.173 141.764 133.281 141.764 132.086C141.764 130.891 142.656 129.651 145.331 129.651C147.403 129.626 149.45 130.103 151.297 131.043V131.043Z" fill="#29292A"/>
<path d="M128.547 182C126.308 182.003 124.157 181.129 122.554 179.565L84.4746 141.485C83.6902 140.703 83.0679 139.774 82.6432 138.751C82.2186 137.728 82 136.631 82 135.524C82 134.416 82.2186 133.319 82.6432 132.296C83.0679 131.273 83.6902 130.344 84.4746 129.562L122.554 91.4821C123.335 90.6955 124.264 90.0713 125.287 89.6453C126.31 89.2193 127.408 89 128.516 89C129.624 89 130.722 89.2193 131.745 89.6453C132.768 90.0713 133.697 90.6955 134.478 91.4821L172.558 129.562C173.346 130.342 173.973 131.27 174.4 132.293C174.827 133.317 175.047 134.415 175.047 135.524C175.047 136.633 174.827 137.731 174.4 138.754C173.973 139.777 173.346 140.706 172.558 141.485L134.478 179.565C133.7 180.343 132.775 180.959 131.757 181.377C130.739 181.795 129.648 182.007 128.547 182ZM128.547 90.8578C127.678 90.8551 126.816 91.0247 126.013 91.3569C125.209 91.689 124.479 92.1771 123.865 92.793L85.7856 130.873C84.5553 132.108 83.8646 133.78 83.8646 135.524C83.8646 137.267 84.5553 138.939 85.7856 140.174L123.865 178.254C125.101 179.484 126.773 180.175 128.516 180.175C130.259 180.175 131.932 179.484 133.167 178.254L171.247 140.174C172.477 138.939 173.168 137.267 173.168 135.524C173.168 133.78 172.477 132.108 171.247 130.873L133.167 92.793C132.569 92.1728 131.851 91.6813 131.057 91.3485C130.263 91.0157 129.409 90.8487 128.547 90.8578V90.8578Z" fill="#CAF1FE"/>
<defs>
<filter id="filter0_f_539_13079" x="-20" y="25" width="298" height="184" filterUnits="userSpaceOnUse" color-interpolation-filters="sRGB">
<feFlood flood-opacity="0" result="BackgroundImageFix"/>
<feBlend mode="normal" in="SourceGraphic" in2="BackgroundImageFix" result="shape"/>
<feGaussianBlur stdDeviation="18.5" result="effect1_foregroundBlur_539_13079"/>
</filter>
<filter id="filter1_ii_539_13079" x="17" y="62" width="224" height="148" filterUnits="userSpaceOnUse" color-interpolation-filters="sRGB">
<feFlood flood-opacity="0" result="BackgroundImageFix"/>
<feBlend mode="normal" in="SourceGraphic" in2="BackgroundImageFix" result="shape"/>
<feColorMatrix in="SourceAlpha" type="matrix" values="0 0 0 0 0 0 0 0 0 0 0 0 0 0 0 0 0 0 127 0" result="hardAlpha"/>
<feOffset dy="4"/>
<feComposite in2="hardAlpha" operator="arithmetic" k2="-1" k3="1"/>
<feColorMatrix type="matrix" values="0 0 0 0 1 0 0 0 0 1 0 0 0 0 1 0 0 0 0.25 0"/>
<feBlend mode="normal" in2="shape" result="effect1_innerShadow_539_13079"/>
<feColorMatrix in="SourceAlpha" type="matrix" values="0 0 0 0 0 0 0 0 0 0 0 0 0 0 0 0 0 0 127 0" result="hardAlpha"/>
<feOffset dy="-4"/>
<feComposite in2="hardAlpha" operator="arithmetic" k2="-1" k3="1"/>
<feColorMatrix type="matrix" values="0 0 0 0 0 0 0 0 0 0 0 0 0 0 0 0 0 0 0.9 0"/>
<feBlend mode="soft-light" in2="effect1_innerShadow_539_13079" result="effect2_innerShadow_539_13079"/>
</filter>
<linearGradient id="paint0_linear_539_13079" x1="17" y1="34" x2="197.768" y2="215.142" gradientUnits="userSpaceOnUse">
<stop stop-color="#05815D"/>
<stop offset="1" stop-color="#0C575F"/>
</linearGradient>
<linearGradient id="paint1_linear_539_13079" x1="17" y1="62" x2="241" y2="210" gradientUnits="userSpaceOnUse">
<stop offset="0.078125" stop-color="#2374FF"/>
<stop offset="1" stop-color="#A75BF4"/>
</linearGradient>
</defs>
</svg>
