<svg width="256" height="256" viewBox="0 0 256 256" fill="none" xmlns="http://www.w3.org/2000/svg">
<path fill-rule="evenodd" clip-rule="evenodd" d="M104.425 42.3784C100.056 37.0733 93.5437 34 86.6712 34H29C22.3726 34 17 39.3726 17 46V58.1371V68.2V160C17 166.627 22.3726 172 29 172H229C235.627 172 241 166.627 241 160V70.1371C241 63.5097 235.627 58.1371 229 58.1371H117.404L104.425 42.3784Z" fill="#0C0C65"/>
<mask id="mask0_539_12920" style="mask-type:alpha" maskUnits="userSpaceOnUse" x="17" y="34" width="224" height="138">
<path fill-rule="evenodd" clip-rule="evenodd" d="M104.425 42.3784C100.056 37.0733 93.5437 34 86.6712 34H29C22.3726 34 17 39.3726 17 46V58.1371V68.2V160C17 166.627 22.3726 172 29 172H229C235.627 172 241 166.627 241 160V70.1371C241 63.5097 235.627 58.1371 229 58.1371H117.404L104.425 42.3784Z" fill="url(#paint0_linear_539_12920)"/>
</mask>
<g mask="url(#mask0_539_12920)">
<g style="mix-blend-mode:multiply" filter="url(#filter0_f_539_12920)">
<path fill-rule="evenodd" clip-rule="evenodd" d="M92.789 74C97.7642 74 102.605 72.3868 106.586 69.4024L116.459 62H229C235.627 62 241 67.3726 241 74V108V160C241 166.627 235.627 172 229 172H29C22.3726 172 17 166.627 17 160L17 108V86C17 79.3726 22.3726 74 29 74H87H92.789Z" fill="black" fill-opacity="0.3"/>
</g>
</g>
<g filter="url(#filter1_ii_539_12920)">
<path fill-rule="evenodd" clip-rule="evenodd" d="M92.789 74C97.7642 74 102.605 72.3868 106.586 69.4024L116.459 62H229C235.627 62 241 67.3726 241 74V108V198C241 204.627 235.627 210 229 210H29C22.3726 210 17 204.627 17 198L17 108V86C17 79.3726 22.3726 74 29 74H87H92.789Z" fill="url(#paint1_linear_539_12920)"/>
</g>
<path d="M68.8194 100.674C68.829 100.574 68.8587 100.478 68.9067 100.39C68.9547 100.302 69.02 100.224 69.0986 100.162C69.1773 100.1 69.2677 100.055 69.3644 100.028C69.4612 100.002 69.5622 99.9956 69.6615 100.009H89.0276C89.282 99.9751 89.5402 100.035 89.7534 100.178C89.9667 100.321 90.1203 100.537 90.1854 100.785C90.6753 102.707 91.2717 105.015 91.9745 107.709C92.6752 110.406 93.4295 113.379 94.2374 116.628C95.0434 119.879 95.8679 123.203 96.7109 126.599C97.553 129.997 98.3775 133.303 99.1844 136.515C99.9901 139.728 100.674 142.682 101.237 145.378C101.797 148.075 102.254 150.309 102.605 152.081H102.71C102.99 150.53 103.481 148.462 104.184 145.877C104.884 143.292 105.691 140.393 106.604 137.18C107.516 133.967 108.445 130.661 109.394 127.264C110.341 123.867 111.271 120.507 112.183 117.182C113.094 113.858 113.953 110.775 114.761 107.931C115.567 105.088 116.216 102.707 116.708 100.785C116.743 100.562 116.859 100.36 117.034 100.217C117.209 100.073 117.43 99.9997 117.656 100.009H136.496C136.609 99.994 136.725 100.002 136.836 100.033C136.946 100.065 137.049 100.118 137.138 100.191C137.227 100.264 137.3 100.354 137.352 100.456C137.405 100.559 137.436 100.67 137.443 100.785L139.969 171.58C140.008 171.703 140.014 171.835 139.986 171.961C139.959 172.087 139.898 172.204 139.811 172.3C139.723 172.392 139.617 172.464 139.499 172.512C139.381 172.56 139.254 172.582 139.127 172.577H125.444C125.255 172.584 125.069 172.525 124.918 172.411C124.839 172.332 124.779 172.236 124.743 172.131C124.706 172.025 124.694 171.912 124.708 171.802C124.708 168.035 124.69 164.083 124.655 159.947C124.619 155.811 124.566 151.657 124.497 147.483C124.426 143.311 124.426 139.304 124.497 135.462C124.566 131.623 124.601 128.077 124.602 124.826C124.602 121.577 124.62 118.752 124.655 116.351C124.689 113.952 124.707 112.161 124.708 110.978H124.602C124.181 112.825 123.62 115.244 122.918 118.235C122.216 121.226 121.392 124.586 120.445 128.316C119.498 132.047 118.48 135.906 117.393 139.894C116.304 143.882 115.251 147.834 114.235 151.748C113.217 155.664 112.235 159.32 111.288 162.717C110.341 166.115 109.552 169.106 108.92 171.691C108.857 171.948 108.707 172.176 108.497 172.338C108.286 172.499 108.027 172.583 107.762 172.577H95.8688C95.5852 172.617 95.2972 172.547 95.0628 172.383C94.8284 172.218 94.6651 171.971 94.6057 171.691C93.9743 169.106 93.2552 166.115 92.4482 162.717C91.6406 159.32 90.8161 155.775 89.9747 152.081C89.133 148.388 88.2383 144.603 87.2908 140.725C86.3438 136.847 85.4491 133.099 84.607 129.48C83.7652 125.862 83.0109 122.464 82.3441 119.287C81.6763 116.112 81.0624 113.305 80.5023 110.867H80.2916V119.619C80.2916 123.018 80.2391 126.766 80.1339 130.865C80.0286 134.964 79.9234 139.248 79.8183 143.716C79.7129 148.186 79.5901 152.802 79.4499 157.565C79.3085 162.329 79.133 167.037 78.9235 171.691C78.9235 172.283 78.6423 172.577 78.0815 172.577H65.8725C65.6334 172.588 65.3961 172.53 65.1885 172.411C65.0123 172.3 64.9596 172.023 65.0305 171.58L68.8194 100.674Z" fill="#9999FF"/>
<path d="M180.872 148.399H159.046C159.314 150.468 160.033 152.453 161.151 154.215C162.39 156.062 164.142 157.506 166.192 158.37C168.444 159.405 171.38 159.922 175 159.921C177.395 159.931 179.787 159.727 182.146 159.311C184.373 158.913 186.547 158.263 188.627 157.373C188.995 157.078 189.181 157.262 189.181 157.927V168.452C189.199 168.738 189.142 169.025 189.015 169.283C188.888 169.484 188.717 169.654 188.516 169.781C186.222 170.866 183.803 171.666 181.315 172.163C178.101 172.767 174.835 173.045 171.565 172.994C166.32 172.994 161.925 172.182 158.381 170.557C155.031 169.081 152.072 166.842 149.74 164.02C147.561 161.361 145.941 158.29 144.975 154.991C144.019 151.734 143.534 148.358 143.535 144.964C143.525 141.258 144.105 137.575 145.253 134.051C146.358 130.614 148.106 127.419 150.404 124.634C152.671 121.882 155.505 119.652 158.714 118.097C162.322 116.433 166.263 115.618 170.236 115.716C173.911 115.623 177.561 116.341 180.927 117.82C183.771 119.109 186.261 121.066 188.184 123.526C189.999 125.868 191.386 128.512 192.283 131.337C193.156 134.059 193.604 136.899 193.612 139.757C193.612 141.382 193.557 142.86 193.446 144.189C193.336 145.518 193.243 146.478 193.169 147.069C193.14 147.313 193.023 147.539 192.839 147.702C192.655 147.865 192.418 147.956 192.172 147.955C191.729 147.955 190.972 148.011 189.901 148.122C188.829 148.232 187.5 148.306 185.913 148.343C184.323 148.381 182.643 148.4 180.872 148.399ZM159.046 137.652H173.559C175.332 137.652 176.643 137.633 177.492 137.596C178.032 137.597 178.571 137.541 179.099 137.43V136.766C179.077 135.899 178.927 135.041 178.656 134.217C178.058 132.327 176.856 130.686 175.235 129.545C173.614 128.404 171.663 127.827 169.682 127.902C167.817 127.79 165.96 128.222 164.337 129.147C162.714 130.071 161.395 131.448 160.542 133.109C159.786 134.526 159.28 136.063 159.046 137.652V137.652Z" fill="#9999FF"/>
<defs>
<filter id="filter0_f_539_12920" x="-20" y="25" width="298" height="184" filterUnits="userSpaceOnUse" color-interpolation-filters="sRGB">
<feFlood flood-opacity="0" result="BackgroundImageFix"/>
<feBlend mode="normal" in="SourceGraphic" in2="BackgroundImageFix" result="shape"/>
<feGaussianBlur stdDeviation="18.5" result="effect1_foregroundBlur_539_12920"/>
</filter>
<filter id="filter1_ii_539_12920" x="17" y="62" width="224" height="148" filterUnits="userSpaceOnUse" color-interpolation-filters="sRGB">
<feFlood flood-opacity="0" result="BackgroundImageFix"/>
<feBlend mode="normal" in="SourceGraphic" in2="BackgroundImageFix" result="shape"/>
<feColorMatrix in="SourceAlpha" type="matrix" values="0 0 0 0 0 0 0 0 0 0 0 0 0 0 0 0 0 0 127 0" result="hardAlpha"/>
<feOffset dy="4"/>
<feComposite in2="hardAlpha" operator="arithmetic" k2="-1" k3="1"/>
<feColorMatrix type="matrix" values="0 0 0 0 1 0 0 0 0 1 0 0 0 0 1 0 0 0 0.25 0"/>
<feBlend mode="normal" in2="shape" result="effect1_innerShadow_539_12920"/>
<feColorMatrix in="SourceAlpha" type="matrix" values="0 0 0 0 0 0 0 0 0 0 0 0 0 0 0 0 0 0 127 0" result="hardAlpha"/>
<feOffset dy="-4"/>
<feComposite in2="hardAlpha" operator="arithmetic" k2="-1" k3="1"/>
<feColorMatrix type="matrix" values="0 0 0 0 0 0 0 0 0 0 0 0 0 0 0 0 0 0 0.9 0"/>
<feBlend mode="soft-light" in2="effect1_innerShadow_539_12920" result="effect2_innerShadow_539_12920"/>
</filter>
<linearGradient id="paint0_linear_539_12920" x1="17" y1="34" x2="197.768" y2="215.142" gradientUnits="userSpaceOnUse">
<stop stop-color="#05815D"/>
<stop offset="1" stop-color="#0C575F"/>
</linearGradient>
<linearGradient id="paint1_linear_539_12920" x1="17" y1="62" x2="241" y2="210" gradientUnits="userSpaceOnUse">
<stop stop-color="#6D6DB6"/>
<stop offset="1" stop-color="#00005B"/>
</linearGradient>
</defs>
</svg>
