<svg width="256" height="256" viewBox="0 0 256 256" fill="none" xmlns="http://www.w3.org/2000/svg">
<path fill-rule="evenodd" clip-rule="evenodd" d="M104.425 42.3784C100.056 37.0733 93.5437 34 86.6712 34H29C22.3726 34 17 39.3726 17 46V58.1371V68.2V160C17 166.627 22.3726 172 29 172H229C235.627 172 241 166.627 241 160V70.1371C241 63.5097 235.627 58.1371 229 58.1371H117.404L104.425 42.3784Z" fill="#2D2C2B"/>
<mask id="mask0_539_13390" style="mask-type:alpha" maskUnits="userSpaceOnUse" x="17" y="34" width="224" height="138">
<path fill-rule="evenodd" clip-rule="evenodd" d="M104.425 42.3784C100.056 37.0733 93.5437 34 86.6712 34H29C22.3726 34 17 39.3726 17 46V58.1371V68.2V160C17 166.627 22.3726 172 29 172H229C235.627 172 241 166.627 241 160V70.1371C241 63.5097 235.627 58.1371 229 58.1371H117.404L104.425 42.3784Z" fill="url(#paint0_linear_539_13390)"/>
</mask>
<g mask="url(#mask0_539_13390)">
<g style="mix-blend-mode:multiply" filter="url(#filter0_f_539_13390)">
<path fill-rule="evenodd" clip-rule="evenodd" d="M92.789 74C97.7642 74 102.605 72.3868 106.586 69.4024L116.459 62H229C235.627 62 241 67.3726 241 74V108V160C241 166.627 235.627 172 229 172H29C22.3726 172 17 166.627 17 160L17 108V86C17 79.3726 22.3726 74 29 74H87H92.789Z" fill="black" fill-opacity="0.3"/>
</g>
</g>
<g filter="url(#filter1_ii_539_13390)">
<path fill-rule="evenodd" clip-rule="evenodd" d="M92.789 74C97.7642 74 102.605 72.3868 106.586 69.4024L116.459 62H229C235.627 62 241 67.3726 241 74V108V198C241 204.627 235.627 210 229 210H29C22.3726 210 17 204.627 17 198L17 108V86C17 79.3726 22.3726 74 29 74H87H92.789Z" fill="url(#paint1_linear_539_13390)"/>
</g>
<path fill-rule="evenodd" clip-rule="evenodd" d="M94.3831 150.589L89.2146 169.732C89.0998 170.277 88.8796 170.689 88.2575 170.689H78.6862C78.0354 170.689 77.9301 170.469 78.0354 169.732L96.5462 105.126C96.9989 103.337 97.2145 101.496 97.1875 99.6508C97.1875 99.2106 97.4076 99 97.7235 99H111.43C111.86 99 112.08 99.1053 112.186 99.6508L133.003 169.818C133.108 170.363 133.003 170.689 132.458 170.689H121.671C121.441 170.692 121.219 170.612 121.043 170.465C120.867 170.317 120.75 170.111 120.714 169.885L115.325 150.589H94.3831ZM112.616 139.869C110.779 132.643 106.462 116.898 104.854 109.241H104.739C103.342 116.898 99.8866 129.743 97.1875 139.869H112.616ZM179.74 160.132C179.74 160.888 179.845 163.147 180.055 166.832C180.055 167.262 180.055 167.473 179.586 167.578C173.844 169.741 167.393 172 159.41 172C149.6 172 140.21 168.229 140.21 153.125V118.669C140.21 118.123 140.421 117.808 140.966 117.808H151.495C152.031 117.808 152.251 118.123 152.251 118.669V151.766C152.251 158.131 155.027 161.586 161.717 161.586C163.976 161.602 166.218 161.199 168.331 160.4V118.669C168.331 118.123 168.541 117.808 169.087 117.808H178.964C179.615 117.808 179.72 118.123 179.72 118.669V160.179L179.74 160.132Z" fill="#29292A"/>
<defs>
<filter id="filter0_f_539_13390" x="-20" y="25" width="298" height="184" filterUnits="userSpaceOnUse" color-interpolation-filters="sRGB">
<feFlood flood-opacity="0" result="BackgroundImageFix"/>
<feBlend mode="normal" in="SourceGraphic" in2="BackgroundImageFix" result="shape"/>
<feGaussianBlur stdDeviation="18.5" result="effect1_foregroundBlur_539_13390"/>
</filter>
<filter id="filter1_ii_539_13390" x="17" y="62" width="224" height="148" filterUnits="userSpaceOnUse" color-interpolation-filters="sRGB">
<feFlood flood-opacity="0" result="BackgroundImageFix"/>
<feBlend mode="normal" in="SourceGraphic" in2="BackgroundImageFix" result="shape"/>
<feColorMatrix in="SourceAlpha" type="matrix" values="0 0 0 0 0 0 0 0 0 0 0 0 0 0 0 0 0 0 127 0" result="hardAlpha"/>
<feOffset dy="4"/>
<feComposite in2="hardAlpha" operator="arithmetic" k2="-1" k3="1"/>
<feColorMatrix type="matrix" values="0 0 0 0 1 0 0 0 0 1 0 0 0 0 1 0 0 0 0.25 0"/>
<feBlend mode="normal" in2="shape" result="effect1_innerShadow_539_13390"/>
<feColorMatrix in="SourceAlpha" type="matrix" values="0 0 0 0 0 0 0 0 0 0 0 0 0 0 0 0 0 0 127 0" result="hardAlpha"/>
<feOffset dy="-4"/>
<feComposite in2="hardAlpha" operator="arithmetic" k2="-1" k3="1"/>
<feColorMatrix type="matrix" values="0 0 0 0 0 0 0 0 0 0 0 0 0 0 0 0 0 0 0.9 0"/>
<feBlend mode="soft-light" in2="effect1_innerShadow_539_13390" result="effect2_innerShadow_539_13390"/>
</filter>
<linearGradient id="paint0_linear_539_13390" x1="17" y1="34" x2="197.768" y2="215.142" gradientUnits="userSpaceOnUse">
<stop stop-color="#05815D"/>
<stop offset="1" stop-color="#0C575F"/>
</linearGradient>
<linearGradient id="paint1_linear_539_13390" x1="17" y1="62" x2="241" y2="210" gradientUnits="userSpaceOnUse">
<stop stop-color="#3CF2A6"/>
<stop offset="1" stop-color="#009CB1"/>
</linearGradient>
</defs>
</svg>
