<svg width="256" height="256" viewBox="0 0 256 256" fill="none" xmlns="http://www.w3.org/2000/svg">
<path fill-rule="evenodd" clip-rule="evenodd" d="M104.425 42.3784C100.056 37.0733 93.5437 34 86.6712 34H29C22.3726 34 17 39.3726 17 46V58.1371V68.2V160C17 166.627 22.3726 172 29 172H229C235.627 172 241 166.627 241 160V70.1371C241 63.5097 235.627 58.1371 229 58.1371H117.404L104.425 42.3784Z" fill="#10436E"/>
<mask id="mask0_725_16445" style="mask-type:alpha" maskUnits="userSpaceOnUse" x="17" y="34" width="224" height="138">
<path fill-rule="evenodd" clip-rule="evenodd" d="M104.425 42.3784C100.056 37.0733 93.5437 34 86.6712 34H29C22.3726 34 17 39.3726 17 46V58.1371V68.2V160C17 166.627 22.3726 172 29 172H229C235.627 172 241 166.627 241 160V70.1371C241 63.5097 235.627 58.1371 229 58.1371H117.404L104.425 42.3784Z" fill="url(#paint0_linear_725_16445)"/>
</mask>
<g mask="url(#mask0_725_16445)">
<g style="mix-blend-mode:multiply" filter="url(#filter0_f_725_16445)">
<path fill-rule="evenodd" clip-rule="evenodd" d="M92.789 74C97.7642 74 102.605 72.3868 106.586 69.4024L116.459 62H229C235.627 62 241 67.3726 241 74V108V160C241 166.627 235.627 172 229 172H29C22.3726 172 17 166.627 17 160L17 108V86C17 79.3726 22.3726 74 29 74H87H92.789Z" fill="black" fill-opacity="0.3"/>
</g>
</g>
<g filter="url(#filter1_ii_725_16445)">
<path fill-rule="evenodd" clip-rule="evenodd" d="M92.789 74C97.7642 74 102.605 72.3868 106.586 69.4024L116.459 62H229C235.627 62 241 67.3726 241 74V108V198C241 204.627 235.627 210 229 210H29C22.3726 210 17 204.627 17 198L17 108V86C17 79.3726 22.3726 74 29 74H87H92.789Z" fill="url(#paint1_linear_725_16445)"/>
</g>
<g filter="url(#filter2_ii_725_16445)">
<g filter="url(#filter3_i_725_16445)">
<path d="M181.633 149.098V184H141.645L120.611 149.098H141.645H149.504H181.633Z" fill="#1BE8FF"/>
</g>
<path d="M117.143 149.097C115.573 149.097 114.452 148.853 113.676 148.45L135.173 184H141.645L120.611 149.097H117.143Z" fill="#0085D8"/>
<path fill-rule="evenodd" clip-rule="evenodd" d="M181.633 89H144.65L128.701 116.375L128.701 116.375L125.258 122.285L113.677 142.163C112.371 143.944 111.074 147.097 113.677 148.451C114.452 148.854 115.573 149.097 117.144 149.097H120.611L141.645 149.097L149.504 149.097H181.633V89Z" fill="url(#paint2_linear_725_16445)"/>
<path d="M113.677 142.164L125.258 122.285L141.645 149.098H120.611H117.144C115.573 149.098 114.452 148.854 113.677 148.451C111.074 147.097 112.371 143.944 113.677 142.164Z" fill="url(#paint3_linear_725_16445)"/>
<path d="M125.258 122.285L141.645 149.097H149.504L128.701 116.375L125.258 122.285Z" fill="url(#paint4_linear_725_16445)"/>
<path d="M144.65 89H181.633V149.097H149.504L128.701 116.375L144.65 89Z" fill="url(#paint5_linear_725_16445)"/>
<g filter="url(#filter4_i_725_16445)">
<path d="M76 164.122V184H135.173L113.676 148.451C111.074 147.097 112.37 143.944 113.676 142.163L125.258 122.285L128.701 116.375L144.65 89H120.38L76 164.122Z" fill="#1BE8FF"/>
</g>
</g>
<defs>
<filter id="filter0_f_725_16445" x="-20" y="25" width="298" height="184" filterUnits="userSpaceOnUse" color-interpolation-filters="sRGB">
<feFlood flood-opacity="0" result="BackgroundImageFix"/>
<feBlend mode="normal" in="SourceGraphic" in2="BackgroundImageFix" result="shape"/>
<feGaussianBlur stdDeviation="18.5" result="effect1_foregroundBlur_725_16445"/>
</filter>
<filter id="filter1_ii_725_16445" x="17" y="62" width="224" height="148" filterUnits="userSpaceOnUse" color-interpolation-filters="sRGB">
<feFlood flood-opacity="0" result="BackgroundImageFix"/>
<feBlend mode="normal" in="SourceGraphic" in2="BackgroundImageFix" result="shape"/>
<feColorMatrix in="SourceAlpha" type="matrix" values="0 0 0 0 0 0 0 0 0 0 0 0 0 0 0 0 0 0 127 0" result="hardAlpha"/>
<feOffset dy="4"/>
<feComposite in2="hardAlpha" operator="arithmetic" k2="-1" k3="1"/>
<feColorMatrix type="matrix" values="0 0 0 0 1 0 0 0 0 1 0 0 0 0 1 0 0 0 0.25 0"/>
<feBlend mode="normal" in2="shape" result="effect1_innerShadow_725_16445"/>
<feColorMatrix in="SourceAlpha" type="matrix" values="0 0 0 0 0 0 0 0 0 0 0 0 0 0 0 0 0 0 127 0" result="hardAlpha"/>
<feOffset dy="-4"/>
<feComposite in2="hardAlpha" operator="arithmetic" k2="-1" k3="1"/>
<feColorMatrix type="matrix" values="0 0 0 0 0 0 0 0 0 0 0 0 0 0 0 0 0 0 0.9 0"/>
<feBlend mode="soft-light" in2="effect1_innerShadow_725_16445" result="effect2_innerShadow_725_16445"/>
</filter>
<filter id="filter2_ii_725_16445" x="73.6886" y="86.6886" width="110.256" height="99.6229" filterUnits="userSpaceOnUse" color-interpolation-filters="sRGB">
<feFlood flood-opacity="0" result="BackgroundImageFix"/>
<feBlend mode="normal" in="SourceGraphic" in2="BackgroundImageFix" result="shape"/>
<feColorMatrix in="SourceAlpha" type="matrix" values="0 0 0 0 0 0 0 0 0 0 0 0 0 0 0 0 0 0 127 0" result="hardAlpha"/>
<feOffset dx="2.31144" dy="2.31144"/>
<feGaussianBlur stdDeviation="4.5"/>
<feComposite in2="hardAlpha" operator="arithmetic" k2="-1" k3="1"/>
<feColorMatrix type="matrix" values="0 0 0 0 0.712081 0 0 0 0 0.995064 0 0 0 0 1 0 0 0 1 0"/>
<feBlend mode="normal" in2="shape" result="effect1_innerShadow_725_16445"/>
<feColorMatrix in="SourceAlpha" type="matrix" values="0 0 0 0 0 0 0 0 0 0 0 0 0 0 0 0 0 0 127 0" result="hardAlpha"/>
<feOffset dx="-2.31144" dy="-2.31144"/>
<feGaussianBlur stdDeviation="5.77859"/>
<feComposite in2="hardAlpha" operator="arithmetic" k2="-1" k3="1"/>
<feColorMatrix type="matrix" values="0 0 0 0 0.0588235 0 0 0 0 0.458824 0 0 0 0 0.835294 0 0 0 1 0"/>
<feBlend mode="normal" in2="effect1_innerShadow_725_16445" result="effect2_innerShadow_725_16445"/>
</filter>
<filter id="filter3_i_725_16445" x="120.611" y="149.098" width="61.022" height="37.2138" filterUnits="userSpaceOnUse" color-interpolation-filters="sRGB">
<feFlood flood-opacity="0" result="BackgroundImageFix"/>
<feBlend mode="normal" in="SourceGraphic" in2="BackgroundImageFix" result="shape"/>
<feColorMatrix in="SourceAlpha" type="matrix" values="0 0 0 0 0 0 0 0 0 0 0 0 0 0 0 0 0 0 127 0" result="hardAlpha"/>
<feOffset dy="2.31144"/>
<feGaussianBlur stdDeviation="4.62287"/>
<feComposite in2="hardAlpha" operator="arithmetic" k2="-1" k3="1"/>
<feColorMatrix type="matrix" values="0 0 0 0 0.0588235 0 0 0 0 0.458824 0 0 0 0 0.835294 0 0 0 1 0"/>
<feBlend mode="normal" in2="shape" result="effect1_innerShadow_725_16445"/>
</filter>
<filter id="filter4_i_725_16445" x="74" y="89" width="70.6494" height="95" filterUnits="userSpaceOnUse" color-interpolation-filters="sRGB">
<feFlood flood-opacity="0" result="BackgroundImageFix"/>
<feBlend mode="normal" in="SourceGraphic" in2="BackgroundImageFix" result="shape"/>
<feColorMatrix in="SourceAlpha" type="matrix" values="0 0 0 0 0 0 0 0 0 0 0 0 0 0 0 0 0 0 127 0" result="hardAlpha"/>
<feOffset dx="-2"/>
<feGaussianBlur stdDeviation="2"/>
<feComposite in2="hardAlpha" operator="arithmetic" k2="-1" k3="1"/>
<feColorMatrix type="matrix" values="0 0 0 0 0.145098 0 0 0 0 0.509804 0 0 0 0 0.737255 0 0 0 0.7 0"/>
<feBlend mode="normal" in2="shape" result="effect1_innerShadow_725_16445"/>
</filter>
<linearGradient id="paint0_linear_725_16445" x1="17" y1="34" x2="197.768" y2="215.142" gradientUnits="userSpaceOnUse">
<stop stop-color="#05815D"/>
<stop offset="1" stop-color="#0C575F"/>
</linearGradient>
<linearGradient id="paint1_linear_725_16445" x1="17" y1="62" x2="241" y2="210" gradientUnits="userSpaceOnUse">
<stop stop-color="white"/>
<stop offset="1" stop-color="#8EBADE"/>
</linearGradient>
<linearGradient id="paint2_linear_725_16445" x1="142.569" y1="92.9294" x2="181.864" y2="149.097" gradientUnits="userSpaceOnUse">
<stop stop-color="#20F2FF"/>
<stop offset="0.234894" stop-color="#20F4FF"/>
<stop offset="0.443231" stop-color="#1BDCFF"/>
<stop offset="0.693236" stop-color="#0BBCFE"/>
<stop offset="1" stop-color="#0999FA"/>
</linearGradient>
<linearGradient id="paint3_linear_725_16445" x1="122.46" y1="131.3" x2="136.56" y2="149.098" gradientUnits="userSpaceOnUse">
<stop stop-color="#1FF2FF"/>
<stop offset="0.260936" stop-color="#0FD4FF"/>
<stop offset="0.526566" stop-color="#06B9FE"/>
<stop offset="0.958866" stop-color="#07A0FD"/>
</linearGradient>
<linearGradient id="paint4_linear_725_16445" x1="125.465" y1="116.275" x2="145.574" y2="149.097" gradientUnits="userSpaceOnUse">
<stop stop-color="#29E0E3"/>
<stop offset="0.397495" stop-color="#19DBE7"/>
<stop offset="0.673027" stop-color="#13C1E2"/>
<stop offset="1" stop-color="#129CD9"/>
</linearGradient>
<linearGradient id="paint5_linear_725_16445" x1="142.569" y1="92.9294" x2="181.864" y2="149.097" gradientUnits="userSpaceOnUse">
<stop stop-color="#20F2FF"/>
<stop offset="0.234894" stop-color="#20F4FF"/>
<stop offset="0.443231" stop-color="#1BDCFF"/>
<stop offset="0.693236" stop-color="#0BBCFE"/>
<stop offset="1" stop-color="#0999FA"/>
</linearGradient>
</defs>
</svg>
