<svg width="256" height="256" viewBox="0 0 256 256" fill="none" xmlns="http://www.w3.org/2000/svg">
<g clip-path="url(#clip0_4318_2485)">
<path d="M104.425 42.3784C100.056 37.0733 93.5437 34 86.6712 34H29C22.3726 34 17 39.3726 17 46V160C17 166.627 22.3726 172 29 172H229C235.627 172 241 166.627 241 160V70.1371C241 63.5097 235.627 58.1371 229 58.1371H117.404L104.425 42.3784Z" fill="url(#paint0_linear_4318_2485)"/>
<mask id="mask0_4318_2485" style="mask-type:alpha" maskUnits="userSpaceOnUse" x="17" y="34" width="224" height="138">
<path d="M86.6709 34C93.5434 34 100.057 37.0729 104.426 42.3779L117.403 58.1367H229C235.627 58.1367 241 63.5095 241 70.1367V160C241 166.627 235.627 172 229 172H29C22.3726 172 17 166.627 17 160V46C17 39.3726 22.3726 34 29 34H86.6709Z" fill="url(#paint1_linear_4318_2485)"/>
</mask>
<g mask="url(#mask0_4318_2485)">
<g filter="url(#filter0_f_4318_2485)" style="mix-blend-mode:multiply">
<path d="M241 160C241 166.627 235.627 172 229 172H29C22.3726 172 17 166.627 17 160V86C17 79.3726 22.3726 74 29 74H92.79C97.7649 73.9999 102.605 72.3865 106.586 69.4023L116.46 62H229C235.627 62 241 67.3726 241 74V160Z" fill="black" fill-opacity="0.3"/>
</g>
</g>
<g filter="url(#filter1_ii_4318_2485)">
<path d="M241 198C241 204.627 235.627 210 229 210H29C22.3726 210 17 204.627 17 198V86C17 79.3726 22.3726 74 29 74H92.79C97.7649 73.9999 102.605 72.3865 106.586 69.4023L116.46 62H229C235.627 62 241 67.3726 241 74V198Z" fill="url(#paint2_linear_4318_2485)"/>
</g>
<path d="M201.005 126.678V139.005C201.005 146.444 198.791 149.781 195.468 149.781C192.697 149.781 191.294 148.093 191.294 143.276V126.678H183.342V144.467C183.342 150.923 185.347 155.004 191.704 155.004C196.377 155.004 199.994 151.938 201.824 145.052L202.397 145.263V153.649C202.397 158.857 200.339 162.125 195.586 162.125C191.525 162.125 186.701 159.627 184.275 157.8V165.546C186.297 165.769 188.802 166 190.824 166C202.798 166 208.972 160.891 208.972 146.247V126.678H201.005ZM73.2411 132.009C73.2411 127.891 68.4704 126.116 62.3804 126.116C58.6761 126.116 54.4873 126.802 50.5973 128.028V136.082C56.33 131.907 62.6993 130.12 66.802 130.12C69.3818 130.12 71.1323 130.839 71.1323 132.129C71.1323 137.442 48.0762 136.6 48.0762 148.082C48.0762 152.482 51.1023 155.004 55.3597 155.004C61.7993 155.004 66.6702 148.746 70.3141 141.117L71.0524 141.383C69.1332 146.044 65.1617 151.156 64.3881 154.442H72.6787V137.442H70.7638C67.9844 143.482 63.9116 149.047 59.6827 149.047C57.7521 149.047 56.5239 147.876 56.5239 146.39C56.5239 140.033 73.2411 138.761 73.2411 132.009ZM154.199 126.678H162.152V154.442H154.199V126.678ZM141.335 126.116C136.656 126.116 133.035 129.19 131.208 136.098L130.463 135.824C131.093 133.304 132.187 130.316 132.362 126.678H124.071L124.062 154.442H132.035V142.115C132.035 134.675 134.249 131.339 137.572 131.339C140.343 131.339 141.746 133.027 141.746 137.844V154.442H149.698V136.652C149.698 130.196 147.693 126.116 141.335 126.116ZM104.958 126.678C101.752 126.678 99.4947 124.734 99.4947 122.661C99.4947 120.632 101.667 119.233 105.34 119.233C107.979 119.233 111.306 119.969 114.88 121.774V114.438C112.071 114.124 109.616 114 107.48 114C98.436 114 94.651 117.234 94.6766 121.04C94.6923 123.373 95.6492 125.109 98.8125 126.232V126.678H88.1945C84.6009 126.678 82.6948 124.438 82.6948 122.734C82.6948 120.597 84.586 119.233 87.3114 119.233C89.2129 119.233 90.7825 119.821 92.7343 120.869V114.438C82.5193 112.736 77.8456 116.416 77.8768 121.04C77.8924 123.373 78.8494 125.109 82.0127 126.232V126.678H74.7636V128.967H79.1716L79.1817 154.441H87.1356L87.1239 128.967H95.9714L95.9815 154.441H103.935L103.924 128.967H111.359L111.368 154.441H119.321L119.311 126.678L104.958 126.678ZM158.73 116.89C156.1 116.89 153.747 118.437 153.747 120.874C153.747 122.808 155.294 124.129 157.621 124.129C160.245 124.129 162.565 122.575 162.565 120.126C162.565 118.192 161.044 116.89 158.73 116.89ZM176.392 118.814L168.446 121.095V126.678H164.726V128.967H168.446V154.442H176.392V128.967H181.326V126.678H176.392V118.814Z" fill="#1E191A"/>
</g>
<defs>
<filter id="filter0_f_4318_2485" x="-20" y="25" width="298" height="184" filterUnits="userSpaceOnUse" color-interpolation-filters="sRGB">
<feFlood flood-opacity="0" result="BackgroundImageFix"/>
<feBlend mode="normal" in="SourceGraphic" in2="BackgroundImageFix" result="shape"/>
<feGaussianBlur stdDeviation="18.5" result="effect1_foregroundBlur_4318_2485"/>
</filter>
<filter id="filter1_ii_4318_2485" x="17" y="62" width="224" height="148" filterUnits="userSpaceOnUse" color-interpolation-filters="sRGB">
<feFlood flood-opacity="0" result="BackgroundImageFix"/>
<feBlend mode="normal" in="SourceGraphic" in2="BackgroundImageFix" result="shape"/>
<feColorMatrix in="SourceAlpha" type="matrix" values="0 0 0 0 0 0 0 0 0 0 0 0 0 0 0 0 0 0 127 0" result="hardAlpha"/>
<feOffset dy="4"/>
<feComposite in2="hardAlpha" operator="arithmetic" k2="-1" k3="1"/>
<feColorMatrix type="matrix" values="0 0 0 0 1 0 0 0 0 1 0 0 0 0 1 0 0 0 0.25 0"/>
<feBlend mode="normal" in2="shape" result="effect1_innerShadow_4318_2485"/>
<feColorMatrix in="SourceAlpha" type="matrix" values="0 0 0 0 0 0 0 0 0 0 0 0 0 0 0 0 0 0 127 0" result="hardAlpha"/>
<feOffset dy="-4"/>
<feComposite in2="hardAlpha" operator="arithmetic" k2="-1" k3="1"/>
<feColorMatrix type="matrix" values="0 0 0 0 0 0 0 0 0 0 0 0 0 0 0 0 0 0 0.9 0"/>
<feBlend mode="soft-light" in2="effect1_innerShadow_4318_2485" result="effect2_innerShadow_4318_2485"/>
</filter>
<linearGradient id="paint0_linear_4318_2485" x1="17" y1="34" x2="197.768" y2="215.142" gradientUnits="userSpaceOnUse">
<stop stop-color="#1F1D1C"/>
</linearGradient>
<linearGradient id="paint1_linear_4318_2485" x1="17" y1="34" x2="197.768" y2="215.142" gradientUnits="userSpaceOnUse">
<stop stop-color="#05815D"/>
<stop offset="1" stop-color="#0C575F"/>
</linearGradient>
<linearGradient id="paint2_linear_4318_2485" x1="176.439" y1="200.973" x2="119.815" y2="52.5335" gradientUnits="userSpaceOnUse">
<stop stop-color="#9CEE73"/>
<stop offset="1" stop-color="#BCEF74"/>
</linearGradient>
<clipPath id="clip0_4318_2485">
<rect width="256" height="256" fill="white"/>
</clipPath>
</defs>
</svg>
