<svg width="256" height="256" viewBox="0 0 256 256" fill="none" xmlns="http://www.w3.org/2000/svg">
<g clip-path="url(#clip0_2002_36221)">
<path fill-rule="evenodd" clip-rule="evenodd" d="M104.425 42.3784C100.056 37.0733 93.5437 34 86.6712 34H29C22.3726 34 17 39.3726 17 46V58.1371V68.2V160C17 166.627 22.3726 172 29 172H229C235.627 172 241 166.627 241 160V70.1371C241 63.5097 235.627 58.1371 229 58.1371H117.404L104.425 42.3784Z" fill="#E6E6E6"/>
<mask id="mask0_2002_36221" style="mask-type:alpha" maskUnits="userSpaceOnUse" x="17" y="34" width="224" height="138">
<path fill-rule="evenodd" clip-rule="evenodd" d="M104.425 42.3784C100.056 37.0733 93.5437 34 86.6712 34H29C22.3726 34 17 39.3726 17 46V58.1371V68.2V160C17 166.627 22.3726 172 29 172H229C235.627 172 241 166.627 241 160V70.1371C241 63.5097 235.627 58.1371 229 58.1371H117.404L104.425 42.3784Z" fill="url(#paint0_linear_2002_36221)"/>
</mask>
<g mask="url(#mask0_2002_36221)">
<g style="mix-blend-mode:multiply" filter="url(#filter0_f_2002_36221)">
<path fill-rule="evenodd" clip-rule="evenodd" d="M92.789 74C97.7642 74 102.605 72.3868 106.586 69.4024L116.459 62H229C235.627 62 241 67.3726 241 74V108V160C241 166.627 235.627 172 229 172H29C22.3726 172 17 166.627 17 160L17 108V86C17 79.3726 22.3726 74 29 74H87H92.789Z" fill="black" fill-opacity="0.3"/>
</g>
</g>
<g filter="url(#filter1_ii_2002_36221)">
<path fill-rule="evenodd" clip-rule="evenodd" d="M92.789 74C97.7642 74 102.605 72.3868 106.586 69.4024L116.459 62H229C235.627 62 241 67.3726 241 74V108V198C241 204.627 235.627 210 229 210H29C22.3726 210 17 204.627 17 198L17 108V86C17 79.3726 22.3726 74 29 74H87H92.789Z" fill="url(#paint1_linear_2002_36221)"/>
</g>
<path d="M122.699 95.3505C121.632 93.1913 119.334 92 116.955 92C114.657 92 112.359 93.1913 111.374 95.3505L91.1056 136.301C89.7106 139.056 91.1056 142.407 94.2238 143.598C95.0445 143.97 95.8651 144.119 96.6856 144.119C99.0654 144.119 101.281 142.928 102.348 140.843L105.138 135.184H128.935L131.725 140.843C132.71 142.928 135.007 144.119 137.305 144.119C138.126 144.119 139.029 143.97 139.849 143.598C142.885 142.407 144.28 139.056 142.885 136.301L122.699 95.3505ZM124.094 125.356H109.979L116.955 110.986L124.094 125.356Z" fill="url(#paint2_linear_2002_36221)"/>
<path d="M160.364 99.2961C160.364 102.274 157.738 104.657 154.456 104.657C151.173 104.657 148.465 102.274 148.465 99.2961C148.465 96.3924 151.173 94.0098 154.456 94.0098C157.738 94.0098 160.364 96.3924 160.364 99.2961ZM154.456 144.119C150.845 144.119 147.973 141.438 147.973 138.237V112.773C147.973 109.571 150.845 106.891 154.456 106.891C157.984 106.891 160.856 109.571 160.856 112.773V138.237C160.856 141.438 157.984 144.119 154.456 144.119Z" fill="url(#paint3_linear_2002_36221)"/>
<path d="M85.0317 179.174C82.8394 179.174 80.2088 178.391 78.4549 177.217C76.9642 176.217 76.5258 174.217 77.578 172.738C78.5865 171.26 80.6033 170.868 82.0941 171.868C84.1109 173.217 87.9255 172.912 88.2324 169.955C88.3639 168.955 87.8816 167.911 87.0924 167.346C86.1278 166.65 84.7686 166.607 83.7164 166.128C82.4448 165.65 81.261 164.867 80.2964 163.911C78.4988 162.258 77.4904 160.128 77.4027 157.997C77.4027 156.779 77.6219 155.605 78.0604 154.431C78.4988 153.387 79.1565 152.431 79.9457 151.561C80.7787 150.735 81.6994 150.083 82.7079 149.605C83.8478 149.083 84.9878 148.778 86.1716 148.691C87.7939 148.648 90.2054 148.996 91.9592 150.039C93.5376 150.996 94.0199 152.953 93.143 154.518C92.1784 156.04 90.2054 156.518 88.6708 155.605C87.5747 154.996 85.9963 154.996 84.9878 155.779C84.4179 156.214 84.0232 156.953 84.0232 157.649C83.9355 160.215 87.2239 160.258 88.9339 160.954C90.2492 161.519 91.4769 162.345 92.4415 163.433C93.9322 165.085 94.8091 167.172 94.853 169.434C94.9406 171.999 93.976 174.39 92.1345 176.217C90.4246 177.956 88.057 179 85.6017 179.13C85.4263 179.13 85.207 179.174 85.0317 179.174Z" fill="url(#paint4_linear_2002_36221)"/>
<path d="M108.008 179.131C106.517 179.131 105.07 178.87 103.755 178.305C102.44 177.74 101.256 176.957 100.248 175.957C99.2391 174.956 98.4499 173.782 97.8799 172.521C97.3538 171.173 97.0469 169.738 97.0469 168.26C97.0469 166.825 97.3538 165.39 97.8799 163.998C98.4499 162.737 99.2391 161.607 100.248 160.563C101.256 159.563 102.44 158.823 103.755 158.259C105.07 157.65 106.517 157.389 108.008 157.389C109.236 157.389 110.42 157.606 111.603 157.998C112.743 158.345 113.752 158.911 114.672 159.65C116.163 160.78 116.47 162.911 115.33 164.433C114.629 165.303 113.62 165.781 112.568 165.781C111.866 165.781 111.121 165.52 110.463 165.042C109.762 164.477 108.929 164.216 108.008 164.216C105.728 164.216 103.931 166.042 103.931 168.26C103.931 170.521 105.728 172.304 108.008 172.304C108.929 172.304 109.762 172.043 110.463 171.478C111.998 170.347 114.146 170.608 115.286 172.13C116.47 173.609 116.163 175.783 114.672 176.913C112.787 178.392 110.42 179.131 108.008 179.131Z" fill="url(#paint5_linear_2002_36221)"/>
<path d="M128.044 157.432C127.913 157.389 127.738 157.389 127.562 157.389C126.071 157.389 124.581 157.737 123.265 158.389C122.739 157.78 121.906 157.432 121.029 157.432C119.363 157.432 118.004 158.78 118.004 160.432V175.696C118.004 177.609 119.539 179.131 121.424 179.131C123.353 179.131 124.887 177.609 124.887 175.696V166.912C124.887 165.433 126.115 164.259 127.562 164.259H127.869C129.711 164.259 131.245 162.824 131.333 160.998C131.421 159.084 129.93 157.519 128.044 157.432Z" fill="url(#paint6_linear_2002_36221)"/>
<path d="M140.586 152.953C140.586 154.692 139.183 156.083 137.429 156.083C135.675 156.083 134.228 154.692 134.228 152.953C134.228 151.256 135.675 149.865 137.429 149.865C139.183 149.865 140.586 151.256 140.586 152.953ZM137.429 179.13C135.5 179.13 133.965 177.565 133.965 175.695V160.823C133.965 158.953 135.5 157.388 137.429 157.388C139.314 157.388 140.848 158.953 140.848 160.823V175.695C140.848 177.565 139.314 179.13 137.429 179.13Z" fill="url(#paint7_linear_2002_36221)"/>
<path d="M154.921 157.301C152.992 157.301 151.15 157.823 149.528 158.692C149.002 157.823 148.038 157.301 146.941 157.301C145.275 157.301 143.916 158.605 143.916 160.301V182.565C143.916 184.435 145.494 186.001 147.423 186.001C149.309 186.001 150.887 184.435 150.887 182.565V178.347C152.115 178.869 153.518 179.13 154.921 179.13C161.015 179.13 165.926 174.26 165.926 168.215C165.926 162.171 161.015 157.301 154.921 157.301ZM157.815 171.085C157.025 171.868 156.017 172.26 154.921 172.26C153.825 172.26 152.816 171.868 152.027 171.085C151.238 170.346 150.8 169.303 150.8 168.215C150.8 167.128 151.238 166.085 152.027 165.302C152.816 164.563 153.825 164.128 154.921 164.128C156.017 164.128 157.025 164.563 157.815 165.302C158.604 166.085 159.043 167.128 159.043 168.215C159.043 169.303 158.604 170.346 157.815 171.085Z" fill="url(#paint8_linear_2002_36221)"/>
<path d="M177.02 172.302C175.792 172.302 174.784 171.302 174.784 170.084V163.431H177.414C179.081 163.431 180.44 162.083 180.44 160.431C180.44 158.735 179.081 157.387 177.414 157.387H174.784V153.864C174.784 151.995 173.249 150.473 171.364 150.473C169.435 150.473 167.9 151.995 167.9 153.864V170.084C167.9 172.52 168.865 174.781 170.575 176.52C172.285 178.173 174.565 179.129 177.02 179.129C178.905 179.129 180.44 177.607 180.44 175.694C180.44 173.824 178.905 172.302 177.02 172.302Z" fill="url(#paint9_linear_2002_36221)"/>
</g>
<defs>
<filter id="filter0_f_2002_36221" x="-20" y="25" width="298" height="184" filterUnits="userSpaceOnUse" color-interpolation-filters="sRGB">
<feFlood flood-opacity="0" result="BackgroundImageFix"/>
<feBlend mode="normal" in="SourceGraphic" in2="BackgroundImageFix" result="shape"/>
<feGaussianBlur stdDeviation="18.5" result="effect1_foregroundBlur_2002_36221"/>
</filter>
<filter id="filter1_ii_2002_36221" x="17" y="62" width="224" height="148" filterUnits="userSpaceOnUse" color-interpolation-filters="sRGB">
<feFlood flood-opacity="0" result="BackgroundImageFix"/>
<feBlend mode="normal" in="SourceGraphic" in2="BackgroundImageFix" result="shape"/>
<feColorMatrix in="SourceAlpha" type="matrix" values="0 0 0 0 0 0 0 0 0 0 0 0 0 0 0 0 0 0 127 0" result="hardAlpha"/>
<feOffset dy="-4"/>
<feComposite in2="hardAlpha" operator="arithmetic" k2="-1" k3="1"/>
<feColorMatrix type="matrix" values="0 0 0 0 0 0 0 0 0 0 0 0 0 0 0 0 0 0 0.25 0"/>
<feBlend mode="normal" in2="shape" result="effect1_innerShadow_2002_36221"/>
<feColorMatrix in="SourceAlpha" type="matrix" values="0 0 0 0 0 0 0 0 0 0 0 0 0 0 0 0 0 0 127 0" result="hardAlpha"/>
<feOffset dy="4"/>
<feComposite in2="hardAlpha" operator="arithmetic" k2="-1" k3="1"/>
<feColorMatrix type="matrix" values="0 0 0 0 1 0 0 0 0 1 0 0 0 0 1 0 0 0 0.25 0"/>
<feBlend mode="normal" in2="effect1_innerShadow_2002_36221" result="effect2_innerShadow_2002_36221"/>
</filter>
<linearGradient id="paint0_linear_2002_36221" x1="17" y1="34" x2="197.768" y2="215.142" gradientUnits="userSpaceOnUse">
<stop stop-color="#05815D"/>
<stop offset="1" stop-color="#0C575F"/>
</linearGradient>
<linearGradient id="paint1_linear_2002_36221" x1="17" y1="62" x2="241" y2="210" gradientUnits="userSpaceOnUse">
<stop stop-color="#5F585E"/>
<stop offset="1" stop-color="#010101"/>
</linearGradient>
<linearGradient id="paint2_linear_2002_36221" x1="90.5644" y1="123.939" x2="360.59" y2="123.939" gradientUnits="userSpaceOnUse">
<stop stop-color="#82E97A"/>
<stop offset="1" stop-color="#21DEBB"/>
</linearGradient>
<linearGradient id="paint3_linear_2002_36221" x1="90.5643" y1="123.938" x2="360.589" y2="123.938" gradientUnits="userSpaceOnUse">
<stop stop-color="#82E97A"/>
<stop offset="1" stop-color="#21DEBB"/>
</linearGradient>
<linearGradient id="paint4_linear_2002_36221" x1="36.1624" y1="167.344" x2="180.438" y2="167.344" gradientUnits="userSpaceOnUse">
<stop stop-color="#82E97A"/>
<stop offset="1" stop-color="#21DEBB"/>
</linearGradient>
<linearGradient id="paint5_linear_2002_36221" x1="36.1643" y1="167.345" x2="180.44" y2="167.345" gradientUnits="userSpaceOnUse">
<stop stop-color="#82E97A"/>
<stop offset="1" stop-color="#21DEBB"/>
</linearGradient>
<linearGradient id="paint6_linear_2002_36221" x1="36.1635" y1="167.345" x2="180.439" y2="167.345" gradientUnits="userSpaceOnUse">
<stop stop-color="#82E97A"/>
<stop offset="1" stop-color="#21DEBB"/>
</linearGradient>
<linearGradient id="paint7_linear_2002_36221" x1="36.1651" y1="167.344" x2="180.44" y2="167.344" gradientUnits="userSpaceOnUse">
<stop stop-color="#82E97A"/>
<stop offset="1" stop-color="#21DEBB"/>
</linearGradient>
<linearGradient id="paint8_linear_2002_36221" x1="36.1633" y1="167.344" x2="180.439" y2="167.344" gradientUnits="userSpaceOnUse">
<stop stop-color="#82E97A"/>
<stop offset="1" stop-color="#21DEBB"/>
</linearGradient>
<linearGradient id="paint9_linear_2002_36221" x1="36.1643" y1="167.343" x2="180.44" y2="167.343" gradientUnits="userSpaceOnUse">
<stop stop-color="#82E97A"/>
<stop offset="1" stop-color="#21DEBB"/>
</linearGradient>
<clipPath id="clip0_2002_36221">
<rect width="256" height="256" fill="white"/>
</clipPath>
</defs>
</svg>
