<svg width="256" height="256" viewBox="0 0 256 256" fill="none" xmlns="http://www.w3.org/2000/svg">
<path fill-rule="evenodd" clip-rule="evenodd" d="M104.425 42.3784C100.056 37.0733 93.5437 34 86.6712 34H29C22.3726 34 17 39.3726 17 46V58.1371V68.2V160C17 166.627 22.3726 172 29 172H229C235.627 172 241 166.627 241 160V70.1371C241 63.5097 235.627 58.1371 229 58.1371H117.404L104.425 42.3784Z" fill="#9C151C"/>
<mask id="mask0_759_22797" style="mask-type:alpha" maskUnits="userSpaceOnUse" x="17" y="34" width="224" height="138">
<path fill-rule="evenodd" clip-rule="evenodd" d="M104.425 42.3784C100.056 37.0733 93.5437 34 86.6712 34H29C22.3726 34 17 39.3726 17 46V58.1371V68.2V160C17 166.627 22.3726 172 29 172H229C235.627 172 241 166.627 241 160V70.1371C241 63.5097 235.627 58.1371 229 58.1371H117.404L104.425 42.3784Z" fill="url(#paint0_linear_759_22797)"/>
</mask>
<g mask="url(#mask0_759_22797)">
<g style="mix-blend-mode:multiply" filter="url(#filter0_f_759_22797)">
<path fill-rule="evenodd" clip-rule="evenodd" d="M92.789 74C97.7642 74 102.605 72.3868 106.586 69.4024L116.459 62H229C235.627 62 241 67.3726 241 74V108V160C241 166.627 235.627 172 229 172H29C22.3726 172 17 166.627 17 160L17 108V86C17 79.3726 22.3726 74 29 74H87H92.789Z" fill="black" fill-opacity="0.3"/>
</g>
</g>
<g filter="url(#filter1_ii_759_22797)">
<path fill-rule="evenodd" clip-rule="evenodd" d="M92.789 74C97.7642 74 102.605 72.3868 106.586 69.4024L116.459 62H229C235.627 62 241 67.3726 241 74V108V198C241 204.627 235.627 210 229 210H29C22.3726 210 17 204.627 17 198L17 108V86C17 79.3726 22.3726 74 29 74H87H92.789Z" fill="url(#paint1_linear_759_22797)"/>
</g>
<path fill-rule="evenodd" clip-rule="evenodd" d="M121.011 87.612C113.466 89.0526 106.87 91.9782 101.001 96.4873C85.6065 108.315 79.9131 129.401 87.0457 148.174C88.5845 152.225 93.4616 159.829 94.6617 160.05C95.3805 160.182 106.348 151.504 107.275 150.07C107.46 149.784 106.69 148.126 105.563 146.385C100.327 138.297 99.8612 127.584 104.361 118.718C106.344 114.812 111.395 109.787 115.511 107.628C123.711 103.326 132.532 103.131 140.442 107.077C144.307 109.005 144.36 109.132 142.192 111.348C141.134 112.43 140.439 113.566 140.644 113.879C141.01 114.433 148.249 115.321 157.926 115.998L162.776 116.338L162.778 112.729C162.779 110.745 162.933 105.771 163.121 101.676C163.524 92.8854 163.208 92.3321 159.567 95.444C158.365 96.4711 157.121 97.1542 156.802 96.9621C156.483 96.7695 155.161 95.8581 153.863 94.9363C144.979 88.6254 131.474 85.6139 121.011 87.612ZM162.616 119.827C158.635 120.909 155.159 122.013 154.893 122.279C154.307 122.864 155.251 126.657 155.982 126.657C157.397 126.657 171.002 122.804 171.596 122.235C172.171 121.685 172.153 121.244 171.492 119.665C171.053 118.616 170.505 117.781 170.274 117.808C170.043 117.836 166.597 118.744 162.616 119.827ZM155.96 131.63V134.012L164.48 133.868L173 133.724V131.63V129.536L164.48 129.392L155.96 129.248V131.63ZM113.132 150.13C98.0177 164.688 96.7578 165.776 94.6103 166.119C86.3971 167.43 83.4705 177.192 89.6635 182.621C92.4151 185.034 95.1619 185.576 98.7114 184.408C102.502 183.161 104.501 180.768 105.034 176.84C105.423 173.981 108.831 168.567 127.125 141.746C130.622 136.618 131.409 134.509 129.826 134.509C129.564 134.509 122.051 141.539 113.132 150.13ZM155.436 136.737C155.436 136.811 155.226 137.604 154.968 138.499C154.711 139.394 154.67 140.401 154.878 140.736C155.279 141.383 168.014 144.96 169.961 144.971C170.848 144.977 171.239 144.531 171.65 143.045C171.945 141.981 172.075 141.002 171.941 140.867C171.206 140.134 155.436 136.188 155.436 136.737ZM152.284 145.109C151.713 146.045 151.245 146.964 151.244 147.152C151.24 147.686 164.666 155.448 165.593 155.448C166.343 155.448 168.019 153.003 168.019 151.91C168.019 151.489 154.363 143.408 153.651 143.408C153.471 143.408 152.856 144.174 152.284 145.109ZM147.995 150.605C146.202 152.689 146.271 152.822 152.084 158.645C155.216 161.78 158.035 164.346 158.351 164.346C159.135 164.346 161.203 162.084 161.203 161.225C161.203 160.295 150.461 149.689 149.519 149.689C149.114 149.689 148.428 150.101 147.995 150.605ZM142.197 155.225C141.405 155.654 140.756 156.404 140.756 156.892C140.756 157.795 147.137 169.252 148.367 170.557C148.934 171.159 149.297 171.121 150.665 170.314C151.559 169.787 152.29 168.952 152.29 168.46C152.29 167.39 144.916 154.809 144.163 154.595C143.875 154.512 142.99 154.796 142.197 155.225ZM119.002 158.058C118.436 158.971 115.08 171.811 115.072 173.091C115.066 174.002 115.46 174.319 116.939 174.596C117.97 174.789 119.01 174.741 119.251 174.488C119.753 173.964 123.454 160.749 123.454 159.484C123.454 158.487 123.172 158.296 121.013 157.834C120.001 157.617 119.22 157.704 119.002 158.058ZM134.857 158.15C134.064 158.439 133.425 158.951 133.438 159.286C133.45 159.622 134.355 163.195 135.449 167.225C137.398 174.412 137.467 174.557 138.965 174.708C139.806 174.793 140.916 174.553 141.432 174.176C142.324 173.524 142.272 173.12 140.419 166.17C139.345 162.144 138.245 158.556 137.974 158.196C137.402 157.436 136.838 157.427 134.857 158.15ZM126.075 167.487C126.075 172.094 126.252 175.879 126.468 175.899C126.684 175.919 127.47 176.016 128.215 176.115C128.959 176.214 129.826 176.136 130.143 175.941C130.507 175.717 130.759 172.897 130.828 168.265C130.979 158.274 131.199 159.112 128.434 159.112H126.075V167.487Z" fill="white"/>
<defs>
<filter id="filter0_f_759_22797" x="-20" y="25" width="298" height="184" filterUnits="userSpaceOnUse" color-interpolation-filters="sRGB">
<feFlood flood-opacity="0" result="BackgroundImageFix"/>
<feBlend mode="normal" in="SourceGraphic" in2="BackgroundImageFix" result="shape"/>
<feGaussianBlur stdDeviation="18.5" result="effect1_foregroundBlur_759_22797"/>
</filter>
<filter id="filter1_ii_759_22797" x="17" y="62" width="224" height="148" filterUnits="userSpaceOnUse" color-interpolation-filters="sRGB">
<feFlood flood-opacity="0" result="BackgroundImageFix"/>
<feBlend mode="normal" in="SourceGraphic" in2="BackgroundImageFix" result="shape"/>
<feColorMatrix in="SourceAlpha" type="matrix" values="0 0 0 0 0 0 0 0 0 0 0 0 0 0 0 0 0 0 127 0" result="hardAlpha"/>
<feOffset dy="-4"/>
<feComposite in2="hardAlpha" operator="arithmetic" k2="-1" k3="1"/>
<feColorMatrix type="matrix" values="0 0 0 0 0 0 0 0 0 0 0 0 0 0 0 0 0 0 0.25 0"/>
<feBlend mode="normal" in2="shape" result="effect1_innerShadow_759_22797"/>
<feColorMatrix in="SourceAlpha" type="matrix" values="0 0 0 0 0 0 0 0 0 0 0 0 0 0 0 0 0 0 127 0" result="hardAlpha"/>
<feOffset dy="4"/>
<feComposite in2="hardAlpha" operator="arithmetic" k2="-1" k3="1"/>
<feColorMatrix type="matrix" values="0 0 0 0 1 0 0 0 0 1 0 0 0 0 1 0 0 0 0.25 0"/>
<feBlend mode="normal" in2="effect1_innerShadow_759_22797" result="effect2_innerShadow_759_22797"/>
</filter>
<linearGradient id="paint0_linear_759_22797" x1="17" y1="34" x2="197.768" y2="215.142" gradientUnits="userSpaceOnUse">
<stop stop-color="#05815D"/>
<stop offset="1" stop-color="#0C575F"/>
</linearGradient>
<linearGradient id="paint1_linear_759_22797" x1="17" y1="62" x2="241" y2="210" gradientUnits="userSpaceOnUse">
<stop stop-color="#E66020"/>
<stop offset="1" stop-color="#9F191B"/>
</linearGradient>
</defs>
</svg>
