<svg width="256" height="256" viewBox="0 0 256 256" fill="none" xmlns="http://www.w3.org/2000/svg">
<path fill-rule="evenodd" clip-rule="evenodd" d="M104.425 42.3784C100.056 37.0733 93.5437 34 86.6712 34H29C22.3726 34 17 39.3726 17 46V58.1371V68.2V160C17 166.627 22.3726 172 29 172H229C235.627 172 241 166.627 241 160V70.1371C241 63.5097 235.627 58.1371 229 58.1371H117.404L104.425 42.3784Z" fill="#4285F4"/>
<mask id="mask0_2223_38093" style="mask-type:alpha" maskUnits="userSpaceOnUse" x="17" y="34" width="224" height="138">
<path fill-rule="evenodd" clip-rule="evenodd" d="M104.425 42.3784C100.056 37.0733 93.5437 34 86.6712 34H29C22.3726 34 17 39.3726 17 46V58.1371V68.2V160C17 166.627 22.3726 172 29 172H229C235.627 172 241 166.627 241 160V70.1371C241 63.5097 235.627 58.1371 229 58.1371H117.404L104.425 42.3784Z" fill="url(#paint0_linear_2223_38093)"/>
</mask>
<g mask="url(#mask0_2223_38093)">
<g style="mix-blend-mode:multiply" filter="url(#filter0_f_2223_38093)">
<path fill-rule="evenodd" clip-rule="evenodd" d="M92.789 74C97.7642 74 102.605 72.3868 106.586 69.4024L116.459 62H229C235.627 62 241 67.3726 241 74V108V160C241 166.627 235.627 172 229 172H29C22.3726 172 17 166.627 17 160L17 108V86C17 79.3726 22.3726 74 29 74H87H92.789Z" fill="black" fill-opacity="0.3"/>
</g>
</g>
<g filter="url(#filter1_ii_2223_38093)">
<path fill-rule="evenodd" clip-rule="evenodd" d="M92.789 74C97.7642 74 102.605 72.3868 106.586 69.4024L116.459 62H229C235.627 62 241 67.3726 241 74V108V198C241 204.627 235.627 210 229 210H29C22.3726 210 17 204.627 17 198L17 108V86C17 79.3726 22.3726 74 29 74H87H92.789Z" fill="url(#paint1_linear_2223_38093)"/>
</g>
<path d="M109.189 115.6H130.136L109.189 136.546V115.6Z" fill="#1F8E3D"/>
<path d="M151.083 157.493H130.137L151.083 136.547V157.493Z" fill="#1F8E3D"/>
<path d="M151.083 115.6V136.546L130.137 115.6H151.083Z" fill="#34A853"/>
<path d="M109.189 157.493V136.547L130.136 157.493H109.189Z" fill="#34A853"/>
<path d="M130.136 136.546H109.189L130.136 115.6V136.546Z" fill="#34A853"/>
<path d="M130.136 115.6H109.189L130.136 94.6543V115.6Z" fill="#34A853"/>
<path d="M130.137 157.492H151.083L130.137 178.438V157.492Z" fill="#34A853"/>
<path d="M130.137 136.547H151.083L130.137 157.493V136.547Z" fill="#34A853"/>
<path d="M151.082 136.547H172.028L151.082 157.493V136.547Z" fill="#34A853"/>
<path d="M109.191 136.546H88.2441L109.191 115.6V136.546Z" fill="#34A853"/>
<path d="M130.137 136.546V115.6L151.083 136.546H130.137Z" fill="#1F8E3D"/>
<path d="M130.137 115.6V94.6543L151.083 115.6H130.137Z" fill="#1F8E3D"/>
<path d="M130.136 157.492V178.438L109.189 157.492H130.136Z" fill="#1F8E3D"/>
<path d="M151.082 136.546V115.6L172.028 136.546H151.082Z" fill="#1F8E3D"/>
<path d="M109.191 136.547V157.493L88.2441 136.547H109.191Z" fill="#1F8E3D"/>
<path d="M130.136 136.547V157.493L109.189 136.547H130.136Z" fill="#1F8E3D"/>
<path d="M159.233 186.799C158.668 186.799 158.18 186.594 157.769 186.183C157.368 185.772 157.168 185.278 157.168 184.703V169.735L154.47 171.677C154.09 171.954 153.663 172.052 153.191 171.97C152.718 171.888 152.343 171.651 152.066 171.261C151.788 170.87 151.69 170.439 151.772 169.966C151.865 169.483 152.101 169.098 152.482 168.81L158.231 164.709C158.375 164.606 158.529 164.514 158.694 164.432C158.858 164.339 159.079 164.293 159.357 164.293C159.901 164.293 160.359 164.488 160.729 164.879C161.109 165.259 161.299 165.732 161.299 166.297V184.703C161.299 185.278 161.093 185.772 160.683 186.183C160.282 186.594 159.799 186.799 159.233 186.799ZM172.987 186.953C170.603 186.953 168.661 186.239 167.16 184.811C165.67 183.382 164.925 181.568 164.925 179.369C164.925 177.869 165.259 176.466 165.927 175.161C166.605 173.856 167.535 172.438 168.717 170.906L173.08 165.28C173.398 164.869 173.809 164.622 174.313 164.54C174.827 164.457 175.294 164.56 175.716 164.848C176.189 165.187 176.466 165.629 176.548 166.174C176.63 166.718 176.487 167.212 176.117 167.654L173.357 171.168C172.936 171.693 172.073 172.427 170.767 173.373C169.473 174.318 168.589 176.296 168.116 179.308L165.881 179.292C166.199 176.867 167.181 175.084 168.825 173.943C170.48 172.802 172.263 172.232 174.174 172.232C176.065 172.232 177.679 172.89 179.015 174.205C180.351 175.51 181.019 177.211 181.019 179.308C181.019 181.517 180.263 183.346 178.753 184.796C177.252 186.234 175.33 186.953 172.987 186.953ZM172.972 183.346C174.174 183.346 175.161 182.976 175.931 182.237C176.713 181.496 177.103 180.546 177.103 179.385C177.103 178.244 176.713 177.304 175.931 176.564C175.161 175.813 174.184 175.438 173.003 175.438C171.811 175.438 170.819 175.813 170.027 176.564C169.247 177.304 168.856 178.249 168.856 179.4C168.856 180.541 169.241 181.486 170.012 182.237C170.793 182.976 171.78 183.346 172.972 183.346Z" fill="#E8F5E9"/>
<path d="M172.491 134.052L132.629 94.1893C131.251 92.8119 129.018 92.8119 127.641 94.1893L87.7785 134.052C86.4011 135.429 86.4011 137.662 87.7785 139.039L127.641 178.902C129.018 180.279 131.251 180.279 132.629 178.902L172.491 139.039C173.868 137.662 173.868 135.429 172.491 134.052Z" stroke="#5F6368" stroke-width="4.93289"/>
<path fill-rule="evenodd" clip-rule="evenodd" d="M100.715 156.981C100.875 156.78 100.861 156.487 100.679 156.305C100.467 156.093 100.114 156.115 99.926 156.35C87.3076 172.12 80.6981 184.584 84.0488 187.935C89.0688 192.955 114.542 175.62 140.946 149.216C143.477 146.685 145.924 144.164 148.276 141.667C148.531 141.397 148.524 140.973 148.262 140.71L146.821 139.27C146.546 138.995 146.099 139.002 145.832 139.285C143.495 141.764 141.057 144.276 138.532 146.802C114.452 170.882 91.5599 187.031 87.4009 182.872C84.7732 180.244 90.2515 170.139 100.715 156.981Z" fill="#C6FF00"/>
<path d="M160.906 132.778C161.457 132.63 162.023 132.957 162.17 133.508C162.318 134.058 161.991 134.624 161.441 134.772L160.906 132.778ZM161.441 134.772L152.023 137.295L151.488 135.301L160.906 132.778L161.441 134.772Z" fill="black"/>
<path d="M153.281 126.615C153.429 126.064 153.995 125.737 154.546 125.885C155.096 126.033 155.423 126.599 155.276 127.149L153.281 126.615ZM155.276 127.149L152.752 136.567L150.758 136.033L153.281 126.615L155.276 127.149Z" fill="black"/>
<path d="M156.912 131.022C154.1 128.21 149.606 128.144 146.875 130.875L140.776 136.974C140.249 137.501 140.249 138.357 140.776 138.884C141.303 139.411 142.158 139.411 142.686 138.884L144.329 137.24C145.384 136.185 147.093 136.185 148.148 137.24L150.694 139.786C151.749 140.84 151.749 142.549 150.694 143.604L149.05 145.248C148.523 145.775 148.523 146.631 149.05 147.158C149.577 147.684 150.432 147.684 150.959 147.158L157.058 141.058C159.789 138.327 159.724 133.833 156.912 131.022Z" fill="black"/>
<path d="M86.1891 90.1032L83.7559 87.6699L81.3226 90.1032L83.7559 92.5365L86.1891 90.1032Z" fill="#E8F5E9"/>
<path d="M81.027 164.086L78.5938 161.652L76.1605 164.086L78.5938 166.519L81.027 164.086Z" fill="#E8F5E9"/>
<path d="M86.5562 153.947L82.9062 150.297L79.2563 153.947L82.9062 157.597L86.5562 153.947Z" fill="#E8F5E9"/>
<path d="M86.1891 112.963L83.7559 110.529L81.3226 112.963L83.7559 115.396L86.1891 112.963Z" fill="#E8F5E9"/>
<path d="M105.138 98.2027L101.488 94.5527L97.8384 98.2027L101.488 101.853L105.138 98.2027Z" fill="#E8F5E9"/>
<path d="M93.8102 97.7223L91.377 95.2891L88.9437 97.7223L91.377 100.156L93.8102 97.7223Z" fill="#E8F5E9"/>
<path d="M119.25 183.542L115.6 179.893L111.95 183.542L115.6 187.192L119.25 183.542Z" fill="#E8F5E9"/>
<path d="M121.974 87.693L119.541 85.2598L117.108 87.693L119.541 90.1263L121.974 87.693Z" fill="#E8F5E9"/>
<path d="M176.813 92.5368L179.246 90.1035L176.813 87.6702L174.38 90.1035L176.813 92.5368Z" fill="#E8F5E9"/>
<path d="M171.344 102.537L174.994 98.8867L171.344 95.2368L167.694 98.8867L171.344 102.537Z" fill="#E8F5E9"/>
<path d="M152.924 91.5036L155.357 89.0703L152.924 86.637L150.491 89.0703L152.924 91.5036Z" fill="#E8F5E9"/>
<path d="M155.332 102.513L157.766 100.08L155.332 97.6468L152.899 100.08L155.332 102.513Z" fill="#E8F5E9"/>
<path d="M167.721 159.982L170.154 157.549L167.721 155.116L165.288 157.549L167.721 159.982Z" fill="#E8F5E9"/>
<path d="M143.471 88.7749L147.121 85.125L143.471 81.4751L139.821 85.125L143.471 88.7749Z" fill="#E8F5E9"/>
<path d="M101.305 171.338L103.738 168.904L101.305 166.471L98.8717 168.904L101.305 171.338Z" fill="#E8F5E9"/>
<path d="M175.598 116.611L179.248 112.961L175.598 109.311L171.948 112.961L175.598 116.611Z" fill="#E8F5E9"/>
<defs>
<filter id="filter0_f_2223_38093" x="-20" y="25" width="298" height="184" filterUnits="userSpaceOnUse" color-interpolation-filters="sRGB">
<feFlood flood-opacity="0" result="BackgroundImageFix"/>
<feBlend mode="normal" in="SourceGraphic" in2="BackgroundImageFix" result="shape"/>
<feGaussianBlur stdDeviation="18.5" result="effect1_foregroundBlur_2223_38093"/>
</filter>
<filter id="filter1_ii_2223_38093" x="17" y="62" width="224" height="148" filterUnits="userSpaceOnUse" color-interpolation-filters="sRGB">
<feFlood flood-opacity="0" result="BackgroundImageFix"/>
<feBlend mode="normal" in="SourceGraphic" in2="BackgroundImageFix" result="shape"/>
<feColorMatrix in="SourceAlpha" type="matrix" values="0 0 0 0 0 0 0 0 0 0 0 0 0 0 0 0 0 0 127 0" result="hardAlpha"/>
<feOffset dy="4"/>
<feComposite in2="hardAlpha" operator="arithmetic" k2="-1" k3="1"/>
<feColorMatrix type="matrix" values="0 0 0 0 1 0 0 0 0 1 0 0 0 0 1 0 0 0 0.25 0"/>
<feBlend mode="normal" in2="shape" result="effect1_innerShadow_2223_38093"/>
<feColorMatrix in="SourceAlpha" type="matrix" values="0 0 0 0 0 0 0 0 0 0 0 0 0 0 0 0 0 0 127 0" result="hardAlpha"/>
<feOffset dy="-4"/>
<feComposite in2="hardAlpha" operator="arithmetic" k2="-1" k3="1"/>
<feColorMatrix type="matrix" values="0 0 0 0 0 0 0 0 0 0 0 0 0 0 0 0 0 0 0.9 0"/>
<feBlend mode="soft-light" in2="effect1_innerShadow_2223_38093" result="effect2_innerShadow_2223_38093"/>
</filter>
<linearGradient id="paint0_linear_2223_38093" x1="17" y1="34" x2="197.768" y2="215.142" gradientUnits="userSpaceOnUse">
<stop stop-color="#05815D"/>
<stop offset="1" stop-color="#0C575F"/>
</linearGradient>
<linearGradient id="paint1_linear_2223_38093" x1="17" y1="62" x2="241" y2="210" gradientUnits="userSpaceOnUse">
<stop stop-color="#2A2F3A"/>
<stop offset="1" stop-color="#16191C"/>
</linearGradient>
</defs>
</svg>
