<svg width="256" height="256" viewBox="0 0 256 256" fill="none" xmlns="http://www.w3.org/2000/svg">
<path fill-rule="evenodd" clip-rule="evenodd" d="M104.425 42.3784C100.056 37.0733 93.5437 34 86.6712 34H29C22.3726 34 17 39.3726 17 46V58.1371V68.2V160C17 166.627 22.3726 172 29 172H229C235.627 172 241 166.627 241 160V70.1371C241 63.5097 235.627 58.1371 229 58.1371H117.404L104.425 42.3784Z" fill="#61C4F4"/>
<mask id="mask0_1033_27832" style="mask-type:alpha" maskUnits="userSpaceOnUse" x="17" y="34" width="224" height="138">
<path fill-rule="evenodd" clip-rule="evenodd" d="M104.425 42.3784C100.056 37.0733 93.5437 34 86.6712 34H29C22.3726 34 17 39.3726 17 46V58.1371V68.2V160C17 166.627 22.3726 172 29 172H229C235.627 172 241 166.627 241 160V70.1371C241 63.5097 235.627 58.1371 229 58.1371H117.404L104.425 42.3784Z" fill="url(#paint0_linear_1033_27832)"/>
</mask>
<g mask="url(#mask0_1033_27832)">
<g style="mix-blend-mode:multiply" filter="url(#filter0_f_1033_27832)">
<path fill-rule="evenodd" clip-rule="evenodd" d="M92.789 74C97.7642 74 102.605 72.3868 106.586 69.4024L116.459 62H229C235.627 62 241 67.3726 241 74V108V160C241 166.627 235.627 172 229 172H29C22.3726 172 17 166.627 17 160L17 108V86C17 79.3726 22.3726 74 29 74H87H92.789Z" fill="black" fill-opacity="0.3"/>
</g>
</g>
<g filter="url(#filter1_ii_1033_27832)">
<path fill-rule="evenodd" clip-rule="evenodd" d="M92.789 74C97.7642 74 102.605 72.3868 106.586 69.4024L116.459 62H229C235.627 62 241 67.3726 241 74V108V198C241 204.627 235.627 210 229 210H29C22.3726 210 17 204.627 17 198L17 108V86C17 79.3726 22.3726 74 29 74H87H92.789Z" fill="url(#paint1_linear_1033_27832)"/>
</g>
<path d="M139.5 141.251V125.501H146.5V157.001H139.5V141.251ZM118.5 109.751V108.001H122V111.501H118.5V109.751ZM132.5 109.751V108.001H136V111.501H132.5V109.751Z" fill="#FEFEFE"/>
<path d="M139.5 158.749V156.999H146.5V160.499H139.5V158.749ZM139.5 123.749V121.999H146.5V125.499H139.5V123.749Z" fill="#BDBDBD"/>
<path d="M115 169.251V164.001H122V174.501H115V169.251ZM136 169.251V164.001H143V174.501H136V169.251ZM97.5005 134.251V122.001H104.5V146.501H97.5005V134.251ZM153.5 134.251V122.001H160.5V146.501H153.5V134.251ZM108 115.001V111.501H111.5V104.501H115V101.001H111.5V97.501H115V101.001H118.5V97.501H139.5V101.001H143V97.501H146.5V101.001H143V104.501H146.5V111.501H150V118.501H108V115.001ZM125.5 108.001V104.501H118.5V111.501H125.5V108.001ZM139.5 108.001V104.501H132.5V111.501H139.5V108.001Z" fill="#94BF00"/>
<path d="M107.93 141.25V121.93H139.5V160.57H108V160.5H107.93V141.25ZM146.5 141.25V121.93H150.07V160.5H150V160.57H146.5V141.25Z" fill="#482600"/>
<path d="M115 176.25V174.5H111.5V164H108V160.5H104.5V150H97.5V146.5H94V122H97.5V118.5H104.5V111.5H108V94H115V97.5H118.5V94H139.5V97.5H143V94H150V111.5H153.5V118.5H160.5V122H164V146.5H160.5V150H153.5V160.5H150V164H146.5V174.5H143V178H136V174.5H132.5V164H125.5V174.5H122V178H115V176.25ZM122 169.25V164H115V174.5H122V169.25ZM143 169.25V164H136V174.5H143V169.25ZM150 141.25V122H108V160.5H150V141.25ZM115 155.25V153.5H118.5V157H115V155.25ZM129 155.25V153.5H132.5V157H129V155.25ZM122 148.25V146.5H125.5V150H122V148.25ZM115 141.25V139.5H118.5V143H115V141.25ZM129 141.25V139.5H132.5V143H129V141.25ZM122 134.25V132.5H125.5V136H122V134.25ZM115 127.25V125.5H118.5V129H115V127.25ZM129 127.25V125.5H132.5V129H129V127.25ZM104.5 134.25V122H97.5V146.5H104.5V134.25ZM160.5 134.25V122H153.5V146.5H160.5V134.25ZM150 115V111.5H146.5V104.5H143V101H146.5V97.5H143V101H139.5V97.5H118.5V101H115V97.5H111.5V101H115V104.5H111.5V111.5H108V118.5H150V115ZM122 109.75V108H118.5V104.5H125.5V111.5H122V109.75ZM136 109.75V108H132.5V104.5H139.5V111.5H136V109.75Z" fill="black"/>
<defs>
<filter id="filter0_f_1033_27832" x="-20" y="25" width="298" height="184" filterUnits="userSpaceOnUse" color-interpolation-filters="sRGB">
<feFlood flood-opacity="0" result="BackgroundImageFix"/>
<feBlend mode="normal" in="SourceGraphic" in2="BackgroundImageFix" result="shape"/>
<feGaussianBlur stdDeviation="18.5" result="effect1_foregroundBlur_1033_27832"/>
</filter>
<filter id="filter1_ii_1033_27832" x="17" y="62" width="224" height="148" filterUnits="userSpaceOnUse" color-interpolation-filters="sRGB">
<feFlood flood-opacity="0" result="BackgroundImageFix"/>
<feBlend mode="normal" in="SourceGraphic" in2="BackgroundImageFix" result="shape"/>
<feColorMatrix in="SourceAlpha" type="matrix" values="0 0 0 0 0 0 0 0 0 0 0 0 0 0 0 0 0 0 127 0" result="hardAlpha"/>
<feOffset dy="4"/>
<feComposite in2="hardAlpha" operator="arithmetic" k2="-1" k3="1"/>
<feColorMatrix type="matrix" values="0 0 0 0 1 0 0 0 0 1 0 0 0 0 1 0 0 0 0.25 0"/>
<feBlend mode="normal" in2="shape" result="effect1_innerShadow_1033_27832"/>
<feColorMatrix in="SourceAlpha" type="matrix" values="0 0 0 0 0 0 0 0 0 0 0 0 0 0 0 0 0 0 127 0" result="hardAlpha"/>
<feOffset dy="-4"/>
<feComposite in2="hardAlpha" operator="arithmetic" k2="-1" k3="1"/>
<feColorMatrix type="matrix" values="0 0 0 0 0 0 0 0 0 0 0 0 0 0 0 0 0 0 0.9 0"/>
<feBlend mode="soft-light" in2="effect1_innerShadow_1033_27832" result="effect2_innerShadow_1033_27832"/>
</filter>
<linearGradient id="paint0_linear_1033_27832" x1="17" y1="34" x2="197.768" y2="215.142" gradientUnits="userSpaceOnUse">
<stop stop-color="#05815D"/>
<stop offset="1" stop-color="#0C575F"/>
</linearGradient>
<linearGradient id="paint1_linear_1033_27832" x1="17" y1="62" x2="241" y2="210" gradientUnits="userSpaceOnUse">
<stop stop-color="#A8DBF2"/>
<stop offset="1" stop-color="#5CC3F4"/>
</linearGradient>
</defs>
</svg>
