<svg width="256" height="256" viewBox="0 0 256 256" fill="none" xmlns="http://www.w3.org/2000/svg">
<path fill-rule="evenodd" clip-rule="evenodd" d="M104.425 42.3784C100.056 37.0733 93.5437 34 86.6712 34H29C22.3726 34 17 39.3726 17 46V58.1371V68.2V160C17 166.627 22.3726 172 29 172H229C235.627 172 241 166.627 241 160V70.1371C241 63.5097 235.627 58.1371 229 58.1371H117.404L104.425 42.3784Z" fill="#073042"/>
<mask id="mask0_1923_29194" style="mask-type:alpha" maskUnits="userSpaceOnUse" x="17" y="34" width="224" height="138">
<path fill-rule="evenodd" clip-rule="evenodd" d="M104.425 42.3784C100.056 37.0733 93.5437 34 86.6712 34H29C22.3726 34 17 39.3726 17 46V58.1371V68.2V160C17 166.627 22.3726 172 29 172H229C235.627 172 241 166.627 241 160V70.1371C241 63.5097 235.627 58.1371 229 58.1371H117.404L104.425 42.3784Z" fill="url(#paint0_linear_1923_29194)"/>
</mask>
<g mask="url(#mask0_1923_29194)">
<g style="mix-blend-mode:multiply" filter="url(#filter0_f_1923_29194)">
<path fill-rule="evenodd" clip-rule="evenodd" d="M92.789 74C97.7642 74 102.605 72.3868 106.586 69.4024L116.459 62H229C235.627 62 241 67.3726 241 74V108V160C241 166.627 235.627 172 229 172H29C22.3726 172 17 166.627 17 160L17 108V86C17 79.3726 22.3726 74 29 74H87H92.789Z" fill="black" fill-opacity="0.3"/>
</g>
</g>
<g filter="url(#filter1_ii_1923_29194)">
<path fill-rule="evenodd" clip-rule="evenodd" d="M92.789 74C97.7642 74 102.605 72.3868 106.586 69.4024L116.459 62H229C235.627 62 241 67.3726 241 74V108V198C241 204.627 235.627 210 229 210H29C22.3726 210 17 204.627 17 198L17 108V86C17 79.3726 22.3726 74 29 74H87H92.789Z" fill="url(#paint1_linear_1923_29194)"/>
</g>
<path d="M129.339 182C153.827 182 173.678 162.149 173.678 137.661C173.678 113.174 153.827 93.3223 129.339 93.3223C104.851 93.3223 85 113.174 85 137.661C85 162.149 104.851 182 129.339 182Z" fill="url(#paint2_linear_1923_29194)"/>
<mask id="mask1_1923_29194" style="mask-type:luminance" maskUnits="userSpaceOnUse" x="85" y="93" width="89" height="89">
<path d="M129.339 182C153.827 182 173.678 162.149 173.678 137.661C173.678 113.174 153.827 93.3223 129.339 93.3223C104.851 93.3223 85 113.174 85 137.661C85 162.149 104.851 182 129.339 182Z" fill="white"/>
</mask>
<g mask="url(#mask1_1923_29194)">
<path d="M115.875 122.504L116.375 121.021C119.459 138.342 127.647 184.068 127.647 132.18C127.647 131.964 127.807 131.778 128.005 131.778H130.819C131.018 131.778 131.179 131.962 131.179 132.178C131.135 223.053 115.875 122.504 115.875 122.504Z" fill="#3DDC84"/>
<path d="M107.785 120.961L100.432 133.696C100.009 134.428 100.26 135.363 100.992 135.785C101.723 136.208 102.658 135.957 103.081 135.226L110.526 122.33C122.558 127.723 136.319 127.723 148.351 122.33L155.797 135.226C156.234 135.948 157.174 136.18 157.897 135.742C158.598 135.318 158.84 134.415 158.445 133.696L151.092 120.961C163.718 114.094 172.355 101.309 173.618 86.207H85.2588C86.5225 101.309 95.1586 114.094 107.785 120.961Z" fill="white"/>
<path d="M130.708 122.508H128.067C127.807 122.508 127.596 122.719 127.596 122.979V129.202C127.596 129.462 127.807 129.673 128.067 129.673H130.708C130.968 129.673 131.179 129.462 131.179 129.202V122.979C131.179 122.719 130.968 122.508 130.708 122.508Z" fill="#3DDC84"/>
<path d="M130.741 118.656H128.034C127.792 118.656 127.596 118.852 127.596 119.094V120.009C127.596 120.251 127.792 120.448 128.034 120.448H130.741C130.983 120.448 131.179 120.251 131.179 120.009V119.094C131.179 118.852 130.983 118.656 130.741 118.656Z" fill="#3DDC84"/>
<path d="M111.594 128.975H110.698V129.87H111.594V128.975Z" fill="white"/>
<path d="M115.337 142.033H114.441V142.929H115.337V142.033Z" fill="white"/>
<path d="M155.295 155.758H154.399V156.653H155.295V155.758Z" fill="white"/>
<path d="M136.869 136.822H135.973V137.718H136.869V136.822Z" fill="white"/>
<path d="M144.193 129.422H143.297V130.318H144.193V129.422Z" fill="white"/>
<path d="M138.672 144.877H137.776V145.773H138.672V144.877Z" fill="white"/>
<path d="M147.717 141.498H145.926V143.289H147.717V141.498Z" fill="white"/>
<path d="M115.337 147.182H114.441V148.077H115.337V147.182Z" fill="white"/>
<path d="M123.18 133.879H121.389V135.67H123.18V133.879Z" fill="white"/>
<path d="M134.699 151.605H132.908V153.397H134.699V151.605Z" fill="white"/>
<path d="M139.408 158.332H137.617V160.123H139.408V158.332Z" fill="white"/>
<path d="M110.081 137.27H108.29V139.061H110.081V137.27Z" fill="white"/>
<path d="M158.38 123.473H156.589V125.264H158.38V123.473Z" fill="white"/>
<path d="M104.941 152.668H103.15V154.459H104.941V152.668Z" fill="white"/>
</g>
<path d="M129.339 182C153.827 182 173.678 162.149 173.678 137.661C173.678 113.174 153.827 93.3223 129.339 93.3223C104.851 93.3223 85 113.174 85 137.661C85 162.149 104.851 182 129.339 182Z" stroke="#F86734" stroke-width="12.5393" stroke-miterlimit="10"/>
<path d="M129.388 108.967C127.904 108.967 126.701 110.135 126.701 111.576V114.795C126.701 115.073 126.926 115.299 127.205 115.299C127.483 115.299 127.709 115.074 127.709 114.795V113.927C127.709 113.371 128.16 112.92 128.716 112.92H130.06C130.616 112.92 131.067 113.371 131.067 113.927V114.795C131.067 115.073 131.293 115.299 131.571 115.299C131.85 115.299 132.075 115.074 132.075 114.795V111.576C132.075 110.135 130.872 108.967 129.388 108.967H129.388Z" fill="#3DDC84"/>
<path d="M93.2776 106.704L94.1304 105.736L100.701 107.9L99.7178 109.015L98.3369 108.549L96.5955 110.524L97.2299 111.836L96.2467 112.951L93.2773 106.703L93.2776 106.704ZM97.0663 108.122L95.1015 107.452L96.012 109.317L97.0663 108.121V108.122Z" fill="white"/>
<path d="M106.642 103.265L101.829 101.89L104.129 105.078L102.975 105.911L99.2544 100.755L100.249 100.037L105.05 101.41L102.755 98.2291L103.917 97.3906L107.637 102.547L106.642 103.265Z" fill="white"/>
<path d="M108.381 94.9073L110.374 94.0551C112.022 93.3505 113.912 94.0817 114.606 95.7043C115.3 97.3269 114.522 99.1991 112.874 99.9032L110.881 100.755L108.381 94.9073ZM112.36 98.7007C113.349 98.2781 113.681 97.2102 113.28 96.2714C112.878 95.3323 111.877 94.835 110.888 95.2576L110.205 95.5497L111.677 98.9929L112.36 98.7007Z" fill="white"/>
<path d="M117.861 91.4539L120.321 90.967C121.498 90.734 122.42 91.4279 122.626 92.4646C122.786 93.2729 122.457 93.8763 121.723 94.314L124.472 96.6276L122.794 96.9597L120.211 94.7957L119.983 94.8409L120.492 97.415L119.095 97.6915L117.861 91.4539H117.861ZM120.644 93.4775C121.057 93.3959 121.309 93.0995 121.238 92.7393C121.163 92.3615 120.821 92.201 120.408 92.2826L119.512 92.4602L119.748 93.6549L120.644 93.4775Z" fill="white"/>
<path d="M126.744 93.2332C126.773 91.4244 128.266 89.9707 130.083 90.0004C131.892 90.0297 133.345 91.531 133.316 93.3398C133.286 95.1487 131.785 96.6021 129.976 96.5726C128.159 96.5431 126.714 95.042 126.744 93.2332ZM131.874 93.3166C131.891 92.2868 131.09 91.396 130.061 91.3794C129.022 91.3625 128.193 92.2267 128.176 93.2565C128.159 94.2865 128.96 95.177 129.999 95.1939C131.028 95.2105 131.857 94.3463 131.874 93.3166H131.874Z" fill="white"/>
<path d="M137.849 90.8477L139.247 91.1203L138.029 97.3626L136.631 97.0899L137.849 90.8477Z" fill="white"/>
<path d="M143.956 92.3049L145.981 93.0769C147.655 93.7149 148.507 95.5539 147.879 97.2026C147.25 98.8513 145.39 99.6568 143.717 99.0187L141.691 98.2468L143.956 92.3047L143.956 92.3049ZM144.182 97.797C145.187 98.1798 146.168 97.6431 146.531 96.6889C146.895 95.735 146.52 94.6815 145.516 94.2988L144.821 94.0341L143.488 97.5323L144.182 97.797Z" fill="white"/>
<path d="M157.141 100.691L156.208 99.9788L157.018 98.918L159.026 100.45L155.169 105.506L154.093 104.685L157.141 100.691Z" fill="white"/>
<path d="M160.81 108.924L158.691 106.65L159.49 105.905L164.544 105.627L165.375 106.518L162.636 109.071L163.192 109.667L162.287 110.509L161.732 109.913L160.723 110.853L159.801 109.864L160.81 108.924ZM162.998 106.884L160.719 107.013L161.714 108.081L162.998 106.884Z" fill="white"/>
<defs>
<filter id="filter0_f_1923_29194" x="-20" y="25" width="298" height="184" filterUnits="userSpaceOnUse" color-interpolation-filters="sRGB">
<feFlood flood-opacity="0" result="BackgroundImageFix"/>
<feBlend mode="normal" in="SourceGraphic" in2="BackgroundImageFix" result="shape"/>
<feGaussianBlur stdDeviation="18.5" result="effect1_foregroundBlur_1923_29194"/>
</filter>
<filter id="filter1_ii_1923_29194" x="17" y="62" width="224" height="148" filterUnits="userSpaceOnUse" color-interpolation-filters="sRGB">
<feFlood flood-opacity="0" result="BackgroundImageFix"/>
<feBlend mode="normal" in="SourceGraphic" in2="BackgroundImageFix" result="shape"/>
<feColorMatrix in="SourceAlpha" type="matrix" values="0 0 0 0 0 0 0 0 0 0 0 0 0 0 0 0 0 0 127 0" result="hardAlpha"/>
<feOffset dy="4"/>
<feComposite in2="hardAlpha" operator="arithmetic" k2="-1" k3="1"/>
<feColorMatrix type="matrix" values="0 0 0 0 1 0 0 0 0 1 0 0 0 0 1 0 0 0 0.25 0"/>
<feBlend mode="normal" in2="shape" result="effect1_innerShadow_1923_29194"/>
<feColorMatrix in="SourceAlpha" type="matrix" values="0 0 0 0 0 0 0 0 0 0 0 0 0 0 0 0 0 0 127 0" result="hardAlpha"/>
<feOffset dy="-4"/>
<feComposite in2="hardAlpha" operator="arithmetic" k2="-1" k3="1"/>
<feColorMatrix type="matrix" values="0 0 0 0 0 0 0 0 0 0 0 0 0 0 0 0 0 0 0.9 0"/>
<feBlend mode="soft-light" in2="effect1_innerShadow_1923_29194" result="effect2_innerShadow_1923_29194"/>
</filter>
<linearGradient id="paint0_linear_1923_29194" x1="17" y1="34" x2="197.768" y2="215.142" gradientUnits="userSpaceOnUse">
<stop stop-color="#05815D"/>
<stop offset="1" stop-color="#0C575F"/>
</linearGradient>
<linearGradient id="paint1_linear_1923_29194" x1="17" y1="62" x2="241" y2="210" gradientUnits="userSpaceOnUse">
<stop stop-color="#F86734"/>
<stop offset="1" stop-color="#072942"/>
</linearGradient>
<linearGradient id="paint2_linear_1923_29194" x1="129.339" y1="85.7427" x2="129.339" y2="158.594" gradientUnits="userSpaceOnUse">
<stop stop-color="#073042"/>
<stop offset="1" stop-color="#073042"/>
</linearGradient>
</defs>
</svg>
