<svg width="256" height="256" viewBox="0 0 256 256" fill="none" xmlns="http://www.w3.org/2000/svg">
<path fill-rule="evenodd" clip-rule="evenodd" d="M104.425 42.3784C100.056 37.0733 93.5437 34 86.6712 34H29C22.3726 34 17 39.3726 17 46V58.1371V68.2V160C17 166.627 22.3726 172 29 172H229C235.627 172 241 166.627 241 160V70.1371C241 63.5097 235.627 58.1371 229 58.1371H117.404L104.425 42.3784Z" fill="#30904A"/>
<mask id="mask0_2225_38072" style="mask-type:alpha" maskUnits="userSpaceOnUse" x="17" y="34" width="224" height="138">
<path fill-rule="evenodd" clip-rule="evenodd" d="M104.425 42.3784C100.056 37.0733 93.5437 34 86.6712 34H29C22.3726 34 17 39.3726 17 46V58.1371V68.2V160C17 166.627 22.3726 172 29 172H229C235.627 172 241 166.627 241 160V70.1371C241 63.5097 235.627 58.1371 229 58.1371H117.404L104.425 42.3784Z" fill="url(#paint0_linear_2225_38072)"/>
</mask>
<g mask="url(#mask0_2225_38072)">
<g style="mix-blend-mode:multiply" filter="url(#filter0_f_2225_38072)">
<path fill-rule="evenodd" clip-rule="evenodd" d="M92.789 74C97.7642 74 102.605 72.3868 106.586 69.4024L116.459 62H229C235.627 62 241 67.3726 241 74V108V160C241 166.627 235.627 172 229 172H29C22.3726 172 17 166.627 17 160L17 108V86C17 79.3726 22.3726 74 29 74H87H92.789Z" fill="black" fill-opacity="0.3"/>
</g>
</g>
<g filter="url(#filter1_ii_2225_38072)">
<path fill-rule="evenodd" clip-rule="evenodd" d="M92.789 74C97.7642 74 102.605 72.3868 106.586 69.4024L116.459 62H229C235.627 62 241 67.3726 241 74V108V198C241 204.627 235.627 210 229 210H29C22.3726 210 17 204.627 17 198L17 108V86C17 79.3726 22.3726 74 29 74H87H92.789Z" fill="url(#paint1_linear_2225_38072)"/>
</g>
<path d="M72.8411 89.4283C70.7598 90.1729 69.7157 91.094 68.8871 92.5299C68.4969 93.2051 68.2297 93.8649 68.0966 94.6011C67.9473 95.4289 67.9685 96.3534 68.178 97.5051C68.653 100.115 70.0838 103.663 73.0192 108.747L117.022 184.962C119.957 190.046 122.314 193.059 124.337 194.775C126.022 196.205 127.342 196.649 129 196.649C130.659 196.649 131.978 196.205 133.663 194.775C135.686 193.059 138.043 190.046 140.978 184.962L184.981 108.747C187.916 103.663 189.347 100.115 189.822 97.5051C190.217 95.3305 189.942 93.9658 189.113 92.5299C188.862 92.0948 188.591 91.7072 188.278 91.3569C187.556 90.5521 186.609 89.9473 185.159 89.4283C182.662 88.5352 178.873 88 173.003 88H84.9975C79.1267 88 75.338 88.5352 72.8411 89.4283Z" fill="#202124"/>
<path d="M96.8105 149.954C96.912 149.914 97.0135 149.874 97.1153 149.833C118.154 141.49 126.961 114.253 128.121 101.678H130.309C131.468 114.245 140.264 141.453 161.271 149.816L140.979 184.963C140.536 185.731 140.106 186.451 139.688 187.127L129.215 191.394L118.171 186.895C117.798 186.286 117.416 185.643 117.023 184.963L96.8105 149.954Z" fill="#C6FF00"/>
<path d="M112.145 176.515L102.033 159C105.071 156.928 109.115 153.916 114.078 149.749C123.998 141.421 127.572 114.23 128.119 101.676H130.308C130.855 114.23 134.429 141.421 144.349 149.749C149.147 153.778 153.086 156.727 156.088 158.791L145.43 177.25L129.214 191.239L112.145 176.515Z" fill="white"/>
<path d="M129.213 102.77C129.818 102.77 130.307 102.28 130.307 101.676C130.307 101.072 129.818 100.582 129.213 100.582C128.609 100.582 128.119 101.072 128.119 101.676C128.119 102.28 128.609 102.77 129.213 102.77Z" fill="white"/>
<path d="M100 155.478C100.811 154.49 101.671 153.544 102.576 152.644C103.336 151.888 104.128 151.164 104.95 150.474C106.322 149.322 107.778 148.269 109.306 147.319C109.304 147.313 109.3 147.308 109.297 147.302C109.296 147.3 109.294 147.298 109.293 147.296C109.291 147.292 109.289 147.289 109.288 147.286C108.889 146.597 108.49 145.908 108.091 145.22L108.087 145.213C107.729 144.595 107.371 143.977 107.013 143.359C106.557 142.573 106.1 141.786 105.644 140.999L104.789 139.525C104.258 138.607 103.725 137.688 103.193 136.77C103.066 136.552 102.968 136.327 102.892 136.096C102.686 135.453 102.677 134.778 102.843 134.149C102.883 133.994 102.937 133.842 102.999 133.693C103.061 133.545 103.134 133.4 103.216 133.261C103.502 132.785 103.904 132.371 104.414 132.069C104.864 131.8 105.367 131.64 105.883 131.596C106.099 131.578 106.317 131.58 106.533 131.602C106.712 131.62 106.89 131.653 107.066 131.699C107.694 131.865 108.275 132.21 108.729 132.708C108.893 132.887 109.039 133.085 109.165 133.303C109.696 134.22 110.229 135.14 110.762 136.057C111.5 137.331 112.238 138.604 112.977 139.878L112.986 139.892C113.371 140.558 113.757 141.224 114.143 141.89L114.15 141.903C114.521 142.541 114.891 143.18 115.261 143.819C115.293 143.875 115.326 143.932 115.359 143.988C115.404 144.065 115.449 144.143 115.493 144.22C115.921 144.051 116.353 143.89 116.791 143.738C120.567 142.423 124.615 141.691 128.829 141.648C128.959 141.647 129.087 141.647 129.217 141.647C133.956 141.647 138.489 142.518 142.669 144.112C142.713 144.129 142.757 144.146 142.801 144.163C142.857 144.185 142.914 144.207 142.97 144.23L143.013 144.247C143.074 144.139 143.136 144.033 143.199 143.926C143.22 143.89 143.241 143.853 143.262 143.817C143.674 143.106 144.086 142.395 144.498 141.685C144.844 141.087 145.191 140.489 145.538 139.89L147.761 136.055C148.231 135.243 148.703 134.43 149.173 133.618L149.357 133.301C149.484 133.084 149.63 132.886 149.793 132.706C150.247 132.208 150.828 131.864 151.457 131.697C151.633 131.651 151.81 131.618 151.989 131.6C152.205 131.578 152.423 131.576 152.639 131.594C153.155 131.64 153.658 131.8 154.109 132.067C154.617 132.369 155.022 132.783 155.305 133.259C155.389 133.399 155.462 133.543 155.524 133.691C155.587 133.84 155.637 133.992 155.68 134.147C155.846 134.776 155.837 135.452 155.629 136.095C155.555 136.325 155.456 136.55 155.33 136.768C154.799 137.686 154.266 138.605 153.733 139.523C152.993 140.801 152.251 142.079 151.51 143.358C151.146 143.986 150.782 144.614 150.418 145.241C150.024 145.922 149.629 146.603 149.235 147.284C149.23 147.291 149.226 147.298 149.223 147.304C149.219 147.31 149.216 147.316 149.213 147.322C149.206 147.334 149.2 147.346 149.193 147.357C150.847 148.39 152.418 149.546 153.888 150.815C154.567 151.399 155.224 152.009 155.859 152.64C156.671 153.447 157.446 154.29 158.181 155.167L140.979 184.962C138.043 190.045 135.687 193.059 133.664 194.775C131.978 196.205 130.66 196.648 129.001 196.648C127.342 196.648 126.023 196.205 124.338 194.775C122.315 193.059 119.958 190.045 117.022 184.962L100 155.478Z" fill="#5F6368"/>
<path d="M83.6414 94.873H82.168V96.3464H83.6414V94.873Z" fill="white"/>
<path d="M96.7703 139.242H95.2969V140.716H96.7703V139.242Z" fill="white"/>
<path d="M172.061 92.1953H170.588V93.6687H172.061V92.1953Z" fill="white"/>
<path d="M142.358 128.301H140.885V129.774H142.358V128.301Z" fill="white"/>
<path d="M152.204 114.043H150.73V115.516H152.204V114.043Z" fill="white"/>
<path d="M165.335 126.842H163.861V128.315H165.335V126.842Z" fill="white"/>
<path d="M105.887 95.4766H104.414V96.95H105.887V95.4766Z" fill="white"/>
<path d="M158.419 117.359H155.473V120.306H158.419V117.359Z" fill="white"/>
<path d="M116.829 123.195H115.355V124.669H116.829V123.195Z" fill="white"/>
<path d="M95.3257 109.701H92.3789V112.648H95.3257V109.701Z" fill="white"/>
<path d="M112.832 98.0293H109.885V100.976H112.832V98.0293Z" fill="white"/>
<path d="M170.455 120.277H167.508V123.224H170.455V120.277Z" fill="white"/>
<path d="M97.562 120.402H94.6152V123.349H97.562V120.402Z" fill="white"/>
<path d="M175.544 104.254H172.598V107.201H175.544V104.254Z" fill="white"/>
<path d="M105.902 112.619H102.955V115.566H105.902V112.619Z" fill="white"/>
<path d="M122.134 178.356C122.134 179.268 122.134 179.724 122.134 179.724C122.134 179.724 121.672 179.724 120.748 179.724C119.849 179.724 119.399 179.724 119.399 179.724C119.399 179.724 119.399 179.268 119.399 178.356V157.422L114.858 160.668C114.263 161.094 113.965 161.307 113.965 161.307C113.965 161.307 113.728 160.942 113.253 160.212C112.792 159.52 112.561 159.173 112.561 159.173C112.561 159.161 112.877 158.93 113.509 158.48L118.87 154.633C119.843 153.915 120.329 153.557 120.329 153.557C120.329 153.557 120.499 153.557 120.839 153.557C121.703 153.557 122.134 153.557 122.134 153.557C122.134 153.557 122.134 154 122.134 154.888V178.356ZM125.964 166.23L127.459 154.924C127.581 154.049 127.642 153.611 127.642 153.611C127.642 153.611 128.037 153.611 128.827 153.611H139.622C140.509 153.611 140.953 153.611 140.953 153.611C140.953 153.611 140.953 154.043 140.953 154.906C140.953 155.83 140.953 156.292 140.953 156.292C140.953 156.292 140.509 156.292 139.622 156.292H129.757L128.553 165.3L128.626 165.318C129.246 164.686 130.043 164.181 131.015 163.805C131.988 163.416 133.1 163.221 134.352 163.221C136.711 163.221 138.692 164.03 140.297 165.646C141.902 167.251 142.704 169.263 142.704 171.682C142.704 174.162 141.908 176.223 140.315 177.864C138.735 179.493 136.662 180.307 134.097 180.307C131.799 180.307 129.86 179.724 128.28 178.557C126.7 177.39 125.66 176.022 125.162 174.454C124.931 173.64 124.815 173.232 124.815 173.232C124.815 173.232 125.235 173.074 126.073 172.758C126.949 172.43 127.386 172.266 127.386 172.266C127.386 172.266 127.502 172.697 127.733 173.561C128.049 174.521 128.742 175.445 129.812 176.332C130.894 177.22 132.292 177.663 134.006 177.663C135.878 177.663 137.325 177.128 138.346 176.059C139.367 174.977 139.877 173.536 139.877 171.737C139.877 170.011 139.306 168.607 138.163 167.525C137.033 166.443 135.562 165.902 133.75 165.902C132.668 165.902 131.751 166.054 130.997 166.358C130.243 166.649 129.611 167.063 129.1 167.598C128.626 168.145 128.389 168.418 128.389 168.418C128.389 168.418 127.958 168.242 127.095 167.889C126.244 167.549 125.818 167.379 125.818 167.379C125.818 167.379 125.867 166.996 125.964 166.23Z" fill="#E9F3EB"/>
<path d="M129.258 90.0059C126.817 90.0059 124.838 91.9278 124.838 94.2988V99.5939C124.838 100.052 125.209 100.423 125.667 100.423C126.125 100.423 126.496 100.052 126.496 99.5939V98.1664C126.496 97.251 127.238 96.5088 128.153 96.5088H130.363C131.279 96.5088 132.021 97.251 132.021 98.1664V99.5939C132.021 100.052 132.392 100.423 132.85 100.423C133.308 100.423 133.679 100.052 133.679 99.5939V94.2988C133.679 91.9278 131.7 90.0059 129.259 90.0059H129.258Z" fill="#E9F3EB"/>
<defs>
<filter id="filter0_f_2225_38072" x="-20" y="25" width="298" height="184" filterUnits="userSpaceOnUse" color-interpolation-filters="sRGB">
<feFlood flood-opacity="0" result="BackgroundImageFix"/>
<feBlend mode="normal" in="SourceGraphic" in2="BackgroundImageFix" result="shape"/>
<feGaussianBlur stdDeviation="18.5" result="effect1_foregroundBlur_2225_38072"/>
</filter>
<filter id="filter1_ii_2225_38072" x="17" y="62" width="224" height="148" filterUnits="userSpaceOnUse" color-interpolation-filters="sRGB">
<feFlood flood-opacity="0" result="BackgroundImageFix"/>
<feBlend mode="normal" in="SourceGraphic" in2="BackgroundImageFix" result="shape"/>
<feColorMatrix in="SourceAlpha" type="matrix" values="0 0 0 0 0 0 0 0 0 0 0 0 0 0 0 0 0 0 127 0" result="hardAlpha"/>
<feOffset dy="4"/>
<feComposite in2="hardAlpha" operator="arithmetic" k2="-1" k3="1"/>
<feColorMatrix type="matrix" values="0 0 0 0 1 0 0 0 0 1 0 0 0 0 1 0 0 0 0.25 0"/>
<feBlend mode="normal" in2="shape" result="effect1_innerShadow_2225_38072"/>
<feColorMatrix in="SourceAlpha" type="matrix" values="0 0 0 0 0 0 0 0 0 0 0 0 0 0 0 0 0 0 127 0" result="hardAlpha"/>
<feOffset dy="-4"/>
<feComposite in2="hardAlpha" operator="arithmetic" k2="-1" k3="1"/>
<feColorMatrix type="matrix" values="0 0 0 0 0 0 0 0 0 0 0 0 0 0 0 0 0 0 0.9 0"/>
<feBlend mode="soft-light" in2="effect1_innerShadow_2225_38072" result="effect2_innerShadow_2225_38072"/>
</filter>
<linearGradient id="paint0_linear_2225_38072" x1="17" y1="34" x2="197.768" y2="215.142" gradientUnits="userSpaceOnUse">
<stop stop-color="#05815D"/>
<stop offset="1" stop-color="#0C575F"/>
</linearGradient>
<linearGradient id="paint1_linear_2225_38072" x1="17" y1="62" x2="241" y2="210" gradientUnits="userSpaceOnUse">
<stop stop-color="#44C867"/>
<stop offset="1" stop-color="#20803A"/>
</linearGradient>
</defs>
</svg>
