<svg width="256" height="256" viewBox="0 0 256 256" fill="none" xmlns="http://www.w3.org/2000/svg">
<path fill-rule="evenodd" clip-rule="evenodd" d="M104.425 42.3784C100.056 37.0733 93.5437 34 86.6712 34H29C22.3726 34 17 39.3726 17 46V58.1371V68.2V160C17 166.627 22.3726 172 29 172H229C235.627 172 241 166.627 241 160V70.1371C241 63.5097 235.627 58.1371 229 58.1371H117.404L104.425 42.3784Z" fill="#740091"/>
<mask id="mask0_1032_27602" style="mask-type:alpha" maskUnits="userSpaceOnUse" x="17" y="34" width="224" height="138">
<path fill-rule="evenodd" clip-rule="evenodd" d="M104.425 42.3784C100.056 37.0733 93.5437 34 86.6712 34H29C22.3726 34 17 39.3726 17 46V58.1371V68.2V160C17 166.627 22.3726 172 29 172H229C235.627 172 241 166.627 241 160V70.1371C241 63.5097 235.627 58.1371 229 58.1371H117.404L104.425 42.3784Z" fill="url(#paint0_linear_1032_27602)"/>
</mask>
<g mask="url(#mask0_1032_27602)">
<g style="mix-blend-mode:multiply" filter="url(#filter0_f_1032_27602)">
<path fill-rule="evenodd" clip-rule="evenodd" d="M92.789 74C97.7642 74 102.605 72.3868 106.586 69.4024L116.459 62H229C235.627 62 241 67.3726 241 74V108V160C241 166.627 235.627 172 229 172H29C22.3726 172 17 166.627 17 160L17 108V86C17 79.3726 22.3726 74 29 74H87H92.789Z" fill="black" fill-opacity="0.3"/>
</g>
</g>
<g filter="url(#filter1_ii_1032_27602)">
<path fill-rule="evenodd" clip-rule="evenodd" d="M92.789 74C97.7642 74 102.605 72.3868 106.586 69.4024L116.459 62H229C235.627 62 241 67.3726 241 74V108V198C241 204.627 235.627 210 229 210H29C22.3726 210 17 204.627 17 198L17 108V86C17 79.3726 22.3726 74 29 74H87H92.789Z" fill="url(#paint1_linear_1032_27602)"/>
</g>
<path d="M114.919 154.244C127.828 154.244 138.292 143.78 138.292 130.871C138.292 117.963 127.828 107.499 114.919 107.499C102.011 107.499 91.5469 117.963 91.5469 130.871C91.5469 143.78 102.011 154.244 114.919 154.244Z" fill="#A235B6"/>
<path d="M125.451 136.86V138.773C126.875 137.38 128.79 136.521 130.918 136.521C135.328 136.521 138.865 140.121 138.865 144.53C138.865 148.909 135.328 152.493 130.918 152.493C128.79 152.493 126.968 151.696 125.545 150.364V155.999H123.34V136.859L125.451 136.859V136.86ZM125.788 141.561C125.697 141.715 125.543 141.958 125.543 142.494V146.598C125.543 146.981 125.634 147.196 125.757 147.41C126.768 149.139 128.636 150.32 130.749 150.32C133.949 150.32 136.582 147.702 136.582 144.502C136.582 141.331 133.949 138.698 130.749 138.698C128.651 138.698 126.799 139.845 125.788 141.561Z" fill="white"/>
<path d="M160.831 136.86V138.773C162.255 137.38 164.17 136.521 166.298 136.521C170.708 136.521 174.245 140.121 174.245 144.53C174.245 148.909 170.708 152.493 166.298 152.493C164.17 152.493 162.348 151.696 160.925 150.364L160.925 155.999H158.72V136.859L160.831 136.859V136.86ZM161.168 141.561C161.076 141.715 160.923 141.958 160.923 142.494V146.598C160.923 146.981 161.014 147.196 161.137 147.41C162.148 149.139 164.016 150.32 166.129 150.32C169.329 150.32 171.962 147.702 171.962 144.502C171.962 141.331 169.329 138.698 166.129 138.698C164.031 138.698 162.179 139.845 161.168 141.561Z" fill="white"/>
<path d="M107.029 144.484C107.029 148.893 103.461 152.493 99.0803 152.493C94.6707 152.493 91.0869 148.893 91.0869 144.484C91.0869 140.105 94.6687 136.521 99.0803 136.521C103.461 136.521 107.029 140.105 107.029 144.484ZM104.808 144.515C104.808 141.315 102.251 138.697 99.0803 138.697C95.8646 138.697 93.354 141.315 93.354 144.515C93.354 147.686 95.8646 150.319 99.0803 150.319C102.251 150.319 104.808 147.684 104.808 144.515Z" fill="white"/>
<path d="M156.558 144.484C156.558 148.893 152.99 152.493 148.61 152.493C144.2 152.493 140.616 148.893 140.616 144.484C140.616 140.105 144.198 136.521 148.61 136.521C152.99 136.521 156.558 140.105 156.558 144.484ZM154.339 144.515C154.339 141.315 151.781 138.697 148.611 138.697C145.395 138.697 142.884 141.315 142.884 144.515C142.884 147.686 145.395 150.319 148.611 150.319C151.78 150.319 154.339 147.684 154.339 144.515Z" fill="white"/>
<path d="M118.624 133.016H120.799V135.252H118.624V133.016Z" fill="white"/>
<path d="M118.624 136.842H120.799V152.155H118.624V136.842Z" fill="white"/>
<path d="M86.7539 133.016H88.9295V152.156H86.7539V133.016Z" fill="white"/>
<path d="M109.188 133.016H111.364V152.156H109.188V133.016Z" fill="white"/>
<path d="M113.907 133.016H116.082V152.156H113.907V133.016Z" fill="white"/>
<defs>
<filter id="filter0_f_1032_27602" x="-20" y="25" width="298" height="184" filterUnits="userSpaceOnUse" color-interpolation-filters="sRGB">
<feFlood flood-opacity="0" result="BackgroundImageFix"/>
<feBlend mode="normal" in="SourceGraphic" in2="BackgroundImageFix" result="shape"/>
<feGaussianBlur stdDeviation="18.5" result="effect1_foregroundBlur_1032_27602"/>
</filter>
<filter id="filter1_ii_1032_27602" x="17" y="62" width="224" height="148" filterUnits="userSpaceOnUse" color-interpolation-filters="sRGB">
<feFlood flood-opacity="0" result="BackgroundImageFix"/>
<feBlend mode="normal" in="SourceGraphic" in2="BackgroundImageFix" result="shape"/>
<feColorMatrix in="SourceAlpha" type="matrix" values="0 0 0 0 0 0 0 0 0 0 0 0 0 0 0 0 0 0 127 0" result="hardAlpha"/>
<feOffset dy="4"/>
<feComposite in2="hardAlpha" operator="arithmetic" k2="-1" k3="1"/>
<feColorMatrix type="matrix" values="0 0 0 0 1 0 0 0 0 1 0 0 0 0 1 0 0 0 0.25 0"/>
<feBlend mode="normal" in2="shape" result="effect1_innerShadow_1032_27602"/>
<feColorMatrix in="SourceAlpha" type="matrix" values="0 0 0 0 0 0 0 0 0 0 0 0 0 0 0 0 0 0 127 0" result="hardAlpha"/>
<feOffset dy="-4"/>
<feComposite in2="hardAlpha" operator="arithmetic" k2="-1" k3="1"/>
<feColorMatrix type="matrix" values="0 0 0 0 0 0 0 0 0 0 0 0 0 0 0 0 0 0 0.9 0"/>
<feBlend mode="soft-light" in2="effect1_innerShadow_1032_27602" result="effect2_innerShadow_1032_27602"/>
</filter>
<linearGradient id="paint0_linear_1032_27602" x1="17" y1="34" x2="197.768" y2="215.142" gradientUnits="userSpaceOnUse">
<stop stop-color="#05815D"/>
<stop offset="1" stop-color="#0C575F"/>
</linearGradient>
<linearGradient id="paint1_linear_1032_27602" x1="17" y1="62" x2="241" y2="210" gradientUnits="userSpaceOnUse">
<stop stop-color="#7D28B1"/>
<stop offset="1" stop-color="#9C28B1"/>
</linearGradient>
</defs>
</svg>
