<svg width="256" height="256" viewBox="0 0 256 256" fill="none" xmlns="http://www.w3.org/2000/svg">
<path fill-rule="evenodd" clip-rule="evenodd" d="M104.425 42.3784C100.056 37.0733 93.5437 34 86.6712 34H29C22.3726 34 17 39.3726 17 46V58.1371V68.2V160C17 166.627 22.3726 172 29 172H229C235.627 172 241 166.627 241 160V70.1371C241 63.5097 235.627 58.1371 229 58.1371H117.404L104.425 42.3784Z" fill="#073042"/>
<mask id="mask0_2002_34005" style="mask-type:alpha" maskUnits="userSpaceOnUse" x="17" y="34" width="224" height="138">
<path fill-rule="evenodd" clip-rule="evenodd" d="M104.425 42.3784C100.056 37.0733 93.5437 34 86.6712 34H29C22.3726 34 17 39.3726 17 46V58.1371V68.2V160C17 166.627 22.3726 172 29 172H229C235.627 172 241 166.627 241 160V70.1371C241 63.5097 235.627 58.1371 229 58.1371H117.404L104.425 42.3784Z" fill="url(#paint0_linear_2002_34005)"/>
</mask>
<g mask="url(#mask0_2002_34005)">
<g style="mix-blend-mode:multiply" filter="url(#filter0_f_2002_34005)">
<path fill-rule="evenodd" clip-rule="evenodd" d="M92.789 74C97.7642 74 102.605 72.3868 106.586 69.4024L116.459 62H229C235.627 62 241 67.3726 241 74V108V160C241 166.627 235.627 172 229 172H29C22.3726 172 17 166.627 17 160L17 108V86C17 79.3726 22.3726 74 29 74H87H92.789Z" fill="black" fill-opacity="0.3"/>
</g>
</g>
<g filter="url(#filter1_ii_2002_34005)">
<path fill-rule="evenodd" clip-rule="evenodd" d="M92.789 74C97.7642 74 102.605 72.3868 106.586 69.4024L116.459 62H229C235.627 62 241 67.3726 241 74V108V198C241 204.627 235.627 210 229 210H29C22.3726 210 17 204.627 17 198L17 108V86C17 79.3726 22.3726 74 29 74H87H92.789Z" fill="url(#paint1_linear_2002_34005)"/>
</g>
<path d="M118.325 97.9023H96.0776C91.6469 97.9023 88.0052 101.685 88.0052 106.369C87.8469 110.89 91.3284 114.671 95.6836 114.835H118.562L118.325 97.9023Z" fill="#073042"/>
<path d="M168.752 173.194H96.0783C91.5682 173.194 88.0059 169.413 88.0059 164.728V106.289C88.0059 110.973 91.6475 114.755 96.0783 114.836H156.957C156.957 114.836 168.831 113.769 168.831 123.057V173.194H168.752Z" fill="#4285F4"/>
<path d="M134.869 143.275C138.115 140.728 138.748 135.961 136.296 132.672C134.949 130.864 132.891 129.714 130.673 129.631H130.911C131.308 129.549 131.782 129.549 132.18 129.631V124.946C132.18 124.371 131.941 123.878 131.466 123.632C130.753 123.22 129.883 123.467 129.487 124.207C129.328 124.454 129.25 124.7 129.328 125.029V129.795C125.371 130.453 122.6 134.316 123.232 138.509V138.591C123.55 140.563 124.58 142.372 126.162 143.522L112.783 173.276H121.492L127.666 159.632C128.38 157.988 130.279 157.248 131.941 158.07C132.576 158.399 133.128 158.974 133.445 159.632L139.859 173.276H148.724L134.869 143.275ZM130.358 141.961C127.824 141.961 125.845 139.823 125.845 137.194C125.845 134.563 127.903 132.508 130.436 132.59C131.623 132.59 132.655 133.084 133.524 133.906C135.345 135.714 135.345 138.673 133.603 140.563C132.812 141.386 131.623 141.961 130.358 141.961Z" fill="#3870B2"/>
<path d="M113.498 102.016H144.688V107.933H113.498V102.016Z" fill="white"/>
<path d="M127.983 132.507C130.437 132.507 132.496 134.644 132.418 137.274C132.418 139.822 130.358 141.959 127.825 141.877C125.371 141.877 123.392 139.74 123.392 137.193C123.392 135.96 123.866 134.808 124.739 133.905C125.609 133 126.795 132.507 127.983 132.507ZM129.725 129.794V124.863C129.725 124.287 129.488 123.795 129.013 123.547C128.301 123.137 127.43 123.383 127.032 124.123C126.873 124.37 126.795 124.617 126.873 124.945V129.713C122.916 130.369 120.145 134.234 120.78 138.426V138.508C121.097 140.479 122.125 142.288 123.709 143.438L106.847 181.001C106.214 182.317 106.293 183.96 107.164 185.193C108.429 187.083 110.885 187.576 112.704 186.262C113.339 185.85 113.814 185.193 114.13 184.535L125.371 159.548C126.083 157.905 127.983 157.165 129.646 157.986C130.279 158.316 130.833 158.891 131.15 159.548L142.629 184.289C143.58 186.343 145.953 187.165 147.934 186.178C149.912 185.193 150.704 182.727 149.753 180.672L132.418 143.274C135.583 140.644 136.138 135.795 133.604 132.507C132.655 131.192 131.309 130.288 129.725 129.794Z" fill="#073042"/>
<path d="M140.095 107.274C138.906 107.274 137.956 106.369 137.956 105.137C137.956 104.562 138.193 103.905 138.589 103.493C139.46 102.672 140.728 102.672 141.598 103.493C141.993 103.905 142.231 104.48 142.231 105.055C142.152 106.288 141.281 107.192 140.095 107.274ZM116.662 107.192C115.472 107.192 114.524 106.206 114.524 105.055C114.524 104.48 114.762 103.905 115.156 103.493C115.869 102.59 117.217 102.425 118.086 103.166H118.166C119.036 103.987 119.115 105.384 118.325 106.288L118.086 106.616C117.691 107.027 117.138 107.274 116.582 107.274L116.662 107.192ZM140.728 93.9587L144.923 86.3972C145.16 85.9863 145.002 85.4932 144.686 85.1645C144.29 85 143.895 85.0823 143.658 85.4114L139.302 93.2192C132.337 90.0139 124.421 90.0139 117.533 93.2192L113.258 85.4932C113.1 85.2468 112.782 85 112.465 85C112.149 85 111.832 85.1645 111.672 85.4932C111.515 85.74 111.515 86.1504 111.672 86.3972L115.949 93.9587C108.506 98.1493 103.677 106.042 102.967 114.754H153.788C153.157 105.96 148.248 98.1493 140.806 93.9587" fill="#3DDC84"/>
<path d="M161.793 131.112H158.467C158.308 131.192 158.15 131.357 158.15 131.603V186.262C158.15 186.508 158.308 186.673 158.547 186.673H162.03C166.067 186.673 169.313 183.22 169.313 179.111V123.467C169.313 127.658 166.067 131.029 162.03 131.029H161.793V131.112Z" fill="#073042"/>
<defs>
<filter id="filter0_f_2002_34005" x="-20" y="25" width="298" height="184" filterUnits="userSpaceOnUse" color-interpolation-filters="sRGB">
<feFlood flood-opacity="0" result="BackgroundImageFix"/>
<feBlend mode="normal" in="SourceGraphic" in2="BackgroundImageFix" result="shape"/>
<feGaussianBlur stdDeviation="18.5" result="effect1_foregroundBlur_2002_34005"/>
</filter>
<filter id="filter1_ii_2002_34005" x="17" y="62" width="224" height="148" filterUnits="userSpaceOnUse" color-interpolation-filters="sRGB">
<feFlood flood-opacity="0" result="BackgroundImageFix"/>
<feBlend mode="normal" in="SourceGraphic" in2="BackgroundImageFix" result="shape"/>
<feColorMatrix in="SourceAlpha" type="matrix" values="0 0 0 0 0 0 0 0 0 0 0 0 0 0 0 0 0 0 127 0" result="hardAlpha"/>
<feOffset dy="4"/>
<feComposite in2="hardAlpha" operator="arithmetic" k2="-1" k3="1"/>
<feColorMatrix type="matrix" values="0 0 0 0 1 0 0 0 0 1 0 0 0 0 1 0 0 0 0.25 0"/>
<feBlend mode="normal" in2="shape" result="effect1_innerShadow_2002_34005"/>
<feColorMatrix in="SourceAlpha" type="matrix" values="0 0 0 0 0 0 0 0 0 0 0 0 0 0 0 0 0 0 127 0" result="hardAlpha"/>
<feOffset dy="-4"/>
<feComposite in2="hardAlpha" operator="arithmetic" k2="-1" k3="1"/>
<feColorMatrix type="matrix" values="0 0 0 0 0 0 0 0 0 0 0 0 0 0 0 0 0 0 0.9 0"/>
<feBlend mode="soft-light" in2="effect1_innerShadow_2002_34005" result="effect2_innerShadow_2002_34005"/>
</filter>
<linearGradient id="paint0_linear_2002_34005" x1="17" y1="34" x2="197.768" y2="215.142" gradientUnits="userSpaceOnUse">
<stop stop-color="#05815D"/>
<stop offset="1" stop-color="#0C575F"/>
</linearGradient>
<linearGradient id="paint1_linear_2002_34005" x1="17" y1="62" x2="303.5" y2="331.5" gradientUnits="userSpaceOnUse">
<stop stop-color="#FAFAFA"/>
<stop offset="1" stop-color="#DFD8D8"/>
</linearGradient>
</defs>
</svg>
