<svg width="256" height="256" viewBox="0 0 256 256" fill="none" xmlns="http://www.w3.org/2000/svg">
<path fill-rule="evenodd" clip-rule="evenodd" d="M104.425 42.3784C100.056 37.0733 93.5437 34 86.6712 34H29C22.3726 34 17 39.3726 17 46V58.1371V68.2V160C17 166.627 22.3726 172 29 172H229C235.627 172 241 166.627 241 160V70.1371C241 63.5097 235.627 58.1371 229 58.1371H117.404L104.425 42.3784Z" fill="#2C292A"/>
<mask id="mask0_1032_26973" style="mask-type:alpha" maskUnits="userSpaceOnUse" x="17" y="34" width="224" height="138">
<path fill-rule="evenodd" clip-rule="evenodd" d="M104.425 42.3784C100.056 37.0733 93.5437 34 86.6712 34H29C22.3726 34 17 39.3726 17 46V58.1371V68.2V160C17 166.627 22.3726 172 29 172H229C235.627 172 241 166.627 241 160V70.1371C241 63.5097 235.627 58.1371 229 58.1371H117.404L104.425 42.3784Z" fill="url(#paint0_linear_1032_26973)"/>
</mask>
<g mask="url(#mask0_1032_26973)">
<g style="mix-blend-mode:multiply" filter="url(#filter0_f_1032_26973)">
<path fill-rule="evenodd" clip-rule="evenodd" d="M92.789 74C97.7642 74 102.605 72.3868 106.586 69.4024L116.459 62H229C235.627 62 241 67.3726 241 74V108V160C241 166.627 235.627 172 229 172H29C22.3726 172 17 166.627 17 160L17 108V86C17 79.3726 22.3726 74 29 74H87H92.789Z" fill="black" fill-opacity="0.3"/>
</g>
</g>
<g filter="url(#filter1_ii_1032_26973)">
<path fill-rule="evenodd" clip-rule="evenodd" d="M92.789 74C97.7642 74 102.605 72.3868 106.586 69.4024L116.459 62H229C235.627 62 241 67.3726 241 74V108V198C241 204.627 235.627 210 229 210H29C22.3726 210 17 204.627 17 198L17 108V86C17 79.3726 22.3726 74 29 74H87H92.789Z" fill="url(#paint1_linear_1032_26973)"/>
</g>
<path d="M129.786 177.957C125.104 177.493 121.662 176.607 117.368 174.777C117.191 174.701 117.048 174.667 117.048 174.701C117.048 174.743 117.014 174.726 116.98 174.676C116.947 174.625 116.381 174.313 115.715 173.975C112.788 172.508 109.911 170.567 107.608 168.501C107.068 168.02 105.929 166.932 105.069 166.08C104.209 165.236 102.876 163.92 102.1 163.161C101.324 162.41 100.708 161.76 100.733 161.727C100.75 161.693 100.59 161.516 100.37 161.347C100.143 161.17 99.8051 160.883 99.6111 160.706C99.4086 160.529 99.1977 160.385 99.1218 160.385C99.0543 160.385 99.0037 160.352 99.0206 160.309C99.029 160.267 98.5228 159.694 97.8817 159.027C95.9162 156.952 94.6845 155.408 93.3011 153.308C88.2143 145.555 86.0969 136.217 87.3538 127.039C88.1468 121.294 90.2642 115.735 93.5204 110.893C97.1309 105.519 102.167 101.056 107.937 98.1376C111.151 96.5094 114.72 95.3031 118.44 94.5861C122.287 93.8522 127.356 93.8016 131.389 94.468C135.286 95.1175 138.509 96.1467 142.06 97.8676C145.038 99.3186 147.805 101.124 150.201 103.182C151.086 103.941 153.55 106.388 154.098 107.054C154.376 107.392 154.629 107.645 154.663 107.619C154.756 107.569 157.54 110.403 158.316 111.348C163.175 117.228 166.06 123.867 167.03 131.392C167.207 132.809 167.207 139.203 167.03 140.62C166.246 146.703 164.221 152.169 160.872 157.222C159.978 158.572 158.468 160.546 157.683 161.398C157.413 161.685 157.396 161.718 157.616 161.524C157.962 161.212 159.674 159.095 160.374 158.108C164.634 152.11 167.14 144.771 167.393 137.567C167.595 131.923 166.752 126.887 164.752 121.792C164.238 120.467 162.762 117.481 162.053 116.317C161.066 114.68 159.143 111.939 158.763 111.626C158.696 111.567 158.636 111.483 158.636 111.441C158.636 111.323 160.644 113.271 161.53 114.258C161.935 114.705 162.315 115.06 162.374 115.043C162.517 114.984 162.719 115.136 162.652 115.245C162.618 115.296 162.542 115.313 162.492 115.279C162.441 115.245 162.584 115.456 162.804 115.743C163.116 116.131 163.268 116.266 163.428 116.266C163.597 116.266 163.614 116.283 163.529 116.393C163.411 116.536 163.487 116.688 163.681 116.688C163.782 116.688 163.791 116.713 163.723 116.755C163.647 116.798 163.673 116.89 163.825 117.076C163.934 117.211 164.305 117.742 164.651 118.249C166.667 121.235 168.245 124.466 169.451 128.118C169.696 128.861 169.924 129.485 169.966 129.493C170 129.51 170.025 129.603 170.025 129.704C170.033 129.89 170.033 129.89 170.151 129.73C170.219 129.637 170.278 129.603 170.278 129.654C170.278 129.713 170.236 129.78 170.194 129.806C170.143 129.839 170.135 129.898 170.16 129.949C170.194 130.008 170.177 130.016 170.126 129.983C170.067 129.949 170.025 129.974 170.025 130.05C170.025 130.135 170.101 130.185 170.236 130.185C170.388 130.185 170.489 130.101 170.615 129.873C170.776 129.586 170.792 129.628 170.649 129.966C170.624 130.042 170.666 130.101 170.759 130.126C170.86 130.151 170.835 130.168 170.683 130.177C170.472 130.185 170.329 130.354 170.531 130.354C170.582 130.354 170.615 130.396 170.615 130.455C170.615 130.506 170.556 130.489 170.464 130.413C170.177 130.151 170.101 130.303 170.312 130.717C170.379 130.843 170.396 130.944 170.354 130.944C170.278 130.944 170.312 131.231 170.421 131.535C170.447 131.602 170.48 131.78 170.497 131.915C170.531 132.159 170.59 132.463 170.615 132.547C170.624 132.573 170.624 132.657 170.615 132.75C170.607 132.834 170.632 132.885 170.674 132.859C170.717 132.834 170.733 132.918 170.717 133.053C170.7 133.197 170.708 133.374 170.742 133.45C170.784 133.534 170.818 133.644 170.818 133.686C170.97 134.85 170.961 134.808 171.147 134.774C171.316 134.741 171.316 134.741 171.138 134.825C171.003 134.876 170.953 134.96 170.987 135.053C171.012 135.137 171.046 135.449 171.071 135.753C171.113 136.259 171.138 136.774 171.248 138.916C171.299 139.945 171.138 143.176 170.987 144.315C170.919 144.83 170.826 145.513 170.784 145.834C170.691 146.483 170.447 147.681 170.151 148.896C170.033 149.368 169.991 149.689 170.042 149.723C170.084 149.756 170.067 149.832 170 149.908C169.932 149.992 169.848 150.187 169.814 150.347C169.78 150.507 169.713 150.693 169.671 150.743C169.62 150.802 169.603 150.912 169.637 150.979C169.662 151.047 169.645 151.106 169.611 151.106C169.569 151.106 169.434 151.418 169.308 151.806C168.844 153.215 167.865 155.577 167.157 156.969C165.149 160.925 163.167 163.633 159.826 166.965C158.105 168.686 156.519 170.07 155.532 170.719C155.296 170.871 155.186 170.998 155.22 171.082C155.254 171.166 155.22 171.183 155.136 171.149C155.051 171.124 154.705 171.293 154.267 171.58C150.142 174.254 147.012 175.654 142.271 176.911C139.318 177.696 136.492 178.016 132.696 177.999C131.262 177.991 129.946 177.974 129.786 177.957V177.957ZM129.727 174.245C129.39 174.229 128.833 174.229 128.504 174.245C128.166 174.254 128.436 174.271 129.111 174.271C129.786 174.271 130.056 174.254 129.727 174.245ZM154.385 164.755L154.629 164.477L154.36 164.721C154.098 164.958 154.039 165.025 154.106 165.025C154.123 165.025 154.241 164.899 154.385 164.755ZM156.148 163.085C156.84 162.393 157.388 161.819 157.371 161.819C157.346 161.819 156.755 162.393 156.064 163.085C155.372 163.785 154.823 164.35 154.84 164.35C154.866 164.35 155.456 163.785 156.148 163.085Z" fill="#2C292A"/>
<path d="M126.654 174.202C123.845 174.067 120.175 173.384 117.366 172.481C112.827 171.031 108.255 168.525 104.619 165.505C103.354 164.459 100.663 161.827 100.739 161.709C100.764 161.658 100.865 161.726 100.95 161.844C101.043 161.97 101.161 162.072 101.211 162.072C101.27 162.072 101.363 162.148 101.422 162.24C101.481 162.333 101.574 162.409 101.642 162.409C101.709 162.409 101.776 162.468 101.81 162.536C101.836 162.603 101.911 162.662 101.979 162.662C102.038 162.662 102.114 162.721 102.148 162.789C102.173 162.856 102.249 162.915 102.316 162.915C102.375 162.915 102.451 162.974 102.485 163.042C102.51 163.109 102.569 163.168 102.612 163.168C102.662 163.168 102.797 163.261 102.924 163.379C103.05 163.497 103.202 163.59 103.261 163.59C103.329 163.59 103.379 163.632 103.379 163.674C103.379 163.725 103.421 163.759 103.464 163.759C103.514 163.759 103.632 163.835 103.734 163.928C103.835 164.02 104.02 164.147 104.155 164.198C104.282 164.257 104.392 164.332 104.392 164.366C104.392 164.408 104.451 164.434 104.518 164.434C104.586 164.434 104.645 164.467 104.645 164.501C104.645 164.543 104.805 164.653 105.007 164.763C105.201 164.864 105.48 165.024 105.615 165.109C105.758 165.201 105.944 165.319 106.037 165.362C106.129 165.412 106.399 165.564 106.627 165.699C107.175 166.02 108.888 166.88 109.369 167.083C109.58 167.167 109.9 167.31 110.086 167.395C112.347 168.407 116.092 169.521 118.732 169.959C121.246 170.381 122.309 170.465 125.228 170.457C128.147 170.457 129.227 170.373 131.724 169.951C138.16 168.863 144.512 165.944 149.667 161.701C150.755 160.798 153.64 157.93 154.467 156.926C157.343 153.425 159.284 150.169 160.853 146.212C163.544 139.422 164.227 131.931 162.81 124.828C162.101 121.276 161.097 118.332 159.486 115.093C158.744 113.583 158.617 113.355 158.541 113.33C158.499 113.313 158.465 113.254 158.465 113.195C158.465 113.135 158.389 113.001 158.297 112.891C158.204 112.781 158.128 112.646 158.128 112.579C158.128 112.52 158.094 112.469 158.052 112.469C158.01 112.469 157.942 112.385 157.908 112.283C157.875 112.174 157.833 112.073 157.799 112.047C157.774 112.022 157.672 111.862 157.588 111.693C157.495 111.516 157.394 111.372 157.352 111.372C157.318 111.372 157.284 111.313 157.284 111.246C157.284 111.178 157.25 111.119 157.2 111.119C157.158 111.119 157.116 111.06 157.116 110.993C157.116 110.925 157.09 110.866 157.048 110.866C157.014 110.866 156.938 110.757 156.879 110.622C156.82 110.487 156.677 110.276 156.567 110.158C156.449 110.031 156.356 109.896 156.356 109.854C156.356 109.812 156.306 109.744 156.247 109.711C156.196 109.677 156.095 109.542 156.027 109.415C155.96 109.289 155.783 109.044 155.622 108.875C155.471 108.707 155.344 108.538 155.344 108.496C155.344 108.462 155.26 108.369 155.158 108.302C155.057 108.226 155.007 108.167 155.049 108.167C155.099 108.158 155.007 108.049 154.855 107.922C154.694 107.787 154.61 107.661 154.652 107.627C154.753 107.568 157.478 110.335 158.313 111.347C163.172 117.227 166.058 123.866 167.028 131.391C167.205 132.808 167.205 139.202 167.028 140.619C166.648 143.563 166.015 146.221 165.028 148.971C164.843 149.494 164.725 149.966 164.758 150.017C164.792 150.076 164.784 150.093 164.725 150.059C164.615 149.992 164.505 150.304 164.59 150.439C164.623 150.498 164.615 150.515 164.564 150.489C164.446 150.413 164.252 150.894 164.337 151.029C164.37 151.088 164.362 151.114 164.311 151.08C164.193 151.004 163.999 151.485 164.084 151.62C164.126 151.687 164.109 151.696 164.033 151.653C163.949 151.603 163.932 151.62 163.974 151.729C164.008 151.805 163.999 151.856 163.957 151.831C163.864 151.772 163.341 152.953 163.417 153.071C163.451 153.121 163.426 153.13 163.358 153.088C163.274 153.037 163.257 153.054 163.307 153.18C163.341 153.265 163.341 153.307 163.307 153.273C163.215 153.189 162.658 154.209 162.734 154.328C162.776 154.387 162.759 154.395 162.683 154.353C162.599 154.302 162.582 154.319 162.624 154.429C162.658 154.505 162.649 154.555 162.616 154.53C162.514 154.471 162.245 154.969 162.312 155.087C162.346 155.137 162.337 155.154 162.287 155.129C162.194 155.07 161.73 155.854 161.797 155.947C161.823 155.973 161.814 155.981 161.781 155.956C161.696 155.888 161.485 156.243 161.553 156.352C161.587 156.411 161.578 156.42 161.519 156.386C161.426 156.327 161.376 156.437 161.409 156.614C161.418 156.656 161.384 156.664 161.333 156.631C161.249 156.58 161.207 156.706 161.249 156.884C161.258 156.926 161.232 156.943 161.198 156.901C161.114 156.825 160.65 157.525 160.718 157.626C160.743 157.677 160.726 157.685 160.675 157.651C160.583 157.592 160.532 157.702 160.566 157.879C160.574 157.921 160.54 157.93 160.49 157.896C160.414 157.845 160.372 157.963 160.397 158.132C160.405 158.174 160.372 158.183 160.33 158.157C160.254 158.107 160.11 158.343 160.144 158.47C160.152 158.512 160.119 158.52 160.077 158.495C160.001 158.444 159.857 158.68 159.891 158.807C159.899 158.849 159.866 158.858 159.823 158.832C159.739 158.782 159.604 159.018 159.638 159.161C159.655 159.204 159.629 159.22 159.596 159.187C159.528 159.111 159.258 159.457 159.292 159.566C159.3 159.608 159.275 159.617 159.233 159.592C159.165 159.549 159.039 159.727 159.022 159.895C159.014 159.921 158.98 159.98 158.938 160.022C158.895 160.064 158.887 160.039 158.921 159.963C158.963 159.895 158.895 159.946 158.777 160.089C158.659 160.224 158.583 160.376 158.617 160.427C158.642 160.469 158.634 160.486 158.592 160.452C158.524 160.393 158.254 160.688 158.254 160.823C158.254 160.848 158.221 160.908 158.178 160.95C158.128 160.992 158.128 160.967 158.17 160.891C158.254 160.739 158.271 160.722 157.74 161.312C157.512 161.566 157.402 161.717 157.495 161.65C157.588 161.582 157.335 161.835 156.93 162.224C156.525 162.612 156.204 162.974 156.213 163.025C156.221 163.084 156.188 163.118 156.137 163.109C156.078 163.101 155.732 163.413 155.352 163.801C154.973 164.198 154.635 164.518 154.593 164.518C154.551 164.518 154.399 164.653 154.256 164.813C154.112 164.974 153.961 165.109 153.918 165.109C153.876 165.109 153.741 165.227 153.632 165.362C153.513 165.505 153.378 165.615 153.328 165.615C153.277 165.615 153.193 165.691 153.134 165.783C153.075 165.876 152.982 165.952 152.923 165.952C152.864 165.952 152.771 166.028 152.712 166.121C152.653 166.214 152.552 166.29 152.493 166.29C152.434 166.29 152.366 166.349 152.341 166.416C152.307 166.484 152.231 166.543 152.172 166.543C152.105 166.543 152.029 166.602 152.003 166.669C151.97 166.737 151.911 166.796 151.852 166.796C151.801 166.796 151.666 166.88 151.548 166.99C151.43 167.091 151.236 167.226 151.118 167.285C150.991 167.352 150.797 167.496 150.679 167.606C150.561 167.715 150.417 167.808 150.367 167.808C150.325 167.808 150.282 167.833 150.282 167.876C150.282 167.909 150.164 167.985 150.029 168.044C149.886 168.112 149.726 168.205 149.667 168.255C149.506 168.407 149.245 168.567 149.085 168.618C149 168.652 148.933 168.702 148.933 168.736C148.933 168.77 148.84 168.829 148.722 168.854C148.604 168.888 148.511 168.947 148.511 168.989C148.511 169.04 148.46 169.073 148.401 169.073C148.342 169.073 148.216 169.132 148.131 169.2C147.878 169.386 145.617 170.558 144.875 170.879C144.673 170.971 144.394 171.098 144.251 171.165C143.348 171.596 140.303 172.633 138.801 173.03C136.785 173.553 134.609 173.932 132.441 174.135C131.218 174.245 128.231 174.287 126.654 174.202V174.202Z" fill="#413C3E"/>
<path d="M119.535 157.094C117.898 156.765 116.548 155.584 115.933 153.922C115.747 153.45 115.739 153.281 115.713 150.497L115.688 147.562H115.359C114.094 147.562 112.626 146.448 112.12 145.098L111.968 144.71L111.487 144.997C108.745 146.659 105.084 145.149 104.35 142.062C104.165 141.26 104.165 127.004 104.35 126.261C104.553 125.451 104.974 124.726 105.573 124.11C106.24 123.435 106.856 123.064 107.733 122.845C108.965 122.524 110.407 122.71 111.411 123.309L111.9 123.596V122.474C111.9 119.378 113.056 116.29 115.097 113.92L115.629 113.304L114.929 112.57C114.051 111.642 113.815 111.161 113.815 110.275C113.815 109.466 114.043 108.841 114.549 108.31C115.477 107.34 116.92 107.104 117.999 107.728C118.21 107.854 118.902 108.436 119.526 109.035L120.657 110.107L121.677 109.82C123.103 109.407 123.82 109.314 125.355 109.314C126.848 109.314 127.296 109.381 128.882 109.82L129.961 110.124L131.159 108.951C132.543 107.593 132.897 107.39 133.951 107.39C134.449 107.39 134.618 107.433 135.149 107.694C136.702 108.47 137.233 110.318 136.305 111.752C136.179 111.937 135.816 112.368 135.495 112.696L134.905 113.312L135.234 113.667C136.288 114.822 137.275 116.425 137.824 117.91C138.347 119.319 138.6 120.609 138.692 122.406C138.718 123.014 138.76 123.52 138.777 123.52C138.785 123.52 138.979 123.41 139.207 123.267C139.426 123.132 139.932 122.938 140.329 122.836C142.522 122.28 144.766 123.25 145.795 125.198C146.344 126.219 146.327 125.941 146.302 134.377L146.276 142.036L146.082 142.542C145.492 144.095 144.15 145.242 142.522 145.588C141.375 145.832 140.017 145.596 139.064 144.997L138.608 144.71L138.414 145.174C137.891 146.465 136.659 147.418 135.377 147.536L134.846 147.587V150.295C134.846 153.349 134.803 153.678 134.28 154.673C133.293 156.546 131.05 157.541 128.949 157.052C127.177 156.63 125.701 155.12 125.381 153.399L125.279 152.859L125.17 153.399C124.993 154.277 124.529 155.112 123.845 155.787C123.516 156.116 123.052 156.478 122.808 156.613C121.922 157.086 120.53 157.288 119.535 157.094ZM121.703 154.968C122.217 154.732 122.799 154.192 123.035 153.72C123.339 153.121 123.373 152.615 123.373 149.08V145.622H127.161L127.186 149.316C127.211 152.91 127.22 153.011 127.405 153.475C127.641 154.066 128.24 154.69 128.856 154.977C129.48 155.272 130.628 155.289 131.235 155.011C131.792 154.758 132.425 154.133 132.661 153.61C132.863 153.172 132.863 153.138 132.905 149.418L132.948 145.664L134.255 145.622C135.546 145.579 135.571 145.579 135.917 145.326C136.111 145.191 136.381 144.888 136.508 144.651L136.744 144.23L136.769 134.427L136.786 124.616H113.756L113.773 134.427C113.798 143.808 113.807 144.246 113.959 144.525C114.043 144.685 114.212 144.93 114.338 145.056C114.76 145.52 114.962 145.579 116.329 145.622L117.594 145.664L117.637 149.418C117.679 153.011 117.687 153.188 117.856 153.56C118.193 154.294 118.91 154.918 119.644 155.129C120.243 155.297 121.137 155.221 121.703 154.968ZM110.213 143.454C111.107 143.057 111.656 142.315 111.816 141.26C111.875 140.872 111.9 138.358 111.883 133.769L111.858 126.852L111.664 126.379C111.419 125.78 110.837 125.173 110.23 124.886C109.817 124.692 109.639 124.658 108.99 124.658C108.349 124.658 108.155 124.692 107.767 124.878C107.21 125.139 106.662 125.671 106.4 126.202L106.206 126.599V141.783L106.451 142.23C107.193 143.572 108.796 144.095 110.213 143.454ZM142.775 143.462C143.383 143.184 143.889 142.686 144.184 142.045L144.42 141.53V126.852L144.226 126.371C143.982 125.755 143.416 125.182 142.792 124.886C142.379 124.692 142.202 124.658 141.552 124.658C140.911 124.658 140.725 124.692 140.329 124.878C139.772 125.148 139.291 125.603 138.996 126.177L138.768 126.599L138.743 134.039C138.726 141.328 138.726 141.48 138.895 141.927C139.46 143.437 141.24 144.137 142.775 143.462ZM136.735 122.027C136.651 120.913 136.457 119.892 136.136 118.964C135.512 117.117 134.694 115.851 133.192 114.358L132.155 113.338L132.534 112.966C132.745 112.764 133.336 112.148 133.85 111.608C134.626 110.782 134.787 110.562 134.82 110.292C134.854 110.014 134.829 109.921 134.601 109.66C134.28 109.297 133.951 109.213 133.572 109.373C133.412 109.44 132.644 110.149 131.851 110.942C131.066 111.735 130.366 112.384 130.307 112.384C130.248 112.384 130.063 112.317 129.885 112.224C129.286 111.92 127.793 111.473 126.95 111.338C124.891 111.009 122.757 111.305 120.775 112.182C120.522 112.292 120.269 112.384 120.218 112.384C120.167 112.384 119.433 111.693 118.59 110.849C117.063 109.331 117.063 109.322 116.675 109.314C116.346 109.305 116.253 109.347 116.017 109.584C115.789 109.811 115.739 109.921 115.739 110.233C115.739 110.604 115.747 110.621 117.088 111.963L118.43 113.304L117.459 114.257C116.059 115.624 115.3 116.72 114.676 118.256C114.153 119.538 113.925 120.584 113.807 122.153L113.773 122.676H136.786L136.735 122.027Z" fill="#80C566"/>
<path d="M124.992 164.846L125.018 161.945L126.005 161.919C126.975 161.894 127 161.902 127.034 162.088C127.101 162.417 127.371 167.554 127.321 167.597C127.295 167.622 126.755 167.672 126.123 167.698L124.976 167.748L124.992 164.846ZM121.77 167.537C121.281 167.495 120.859 167.428 120.817 167.394C120.783 167.36 120.918 166.07 121.112 164.526L121.475 161.725L122.318 161.784C122.782 161.81 123.179 161.852 123.187 161.869C123.229 161.894 122.867 167.386 122.824 167.537C122.799 167.588 122.757 167.63 122.723 167.63C122.689 167.622 122.259 167.58 121.77 167.537ZM129.413 167.284C129.328 166.896 128.763 161.801 128.797 161.767C128.873 161.691 130.417 161.489 130.467 161.548C130.526 161.607 131.471 166.829 131.471 167.057C131.471 167.149 131.277 167.208 130.695 167.293C130.265 167.343 129.809 167.411 129.683 167.436C129.497 167.478 129.447 167.445 129.413 167.284ZM117.518 166.846C117.054 166.745 116.666 166.626 116.649 166.576C116.616 166.483 117.923 161.168 117.991 161.093C118.016 161.076 118.396 161.143 118.843 161.244C119.458 161.379 119.661 161.455 119.661 161.556C119.661 161.632 119.433 162.889 119.155 164.349C118.876 165.808 118.649 167.014 118.649 167.023C118.649 167.074 118.303 167.023 117.518 166.846ZM132.88 163.961C132.517 162.451 132.239 161.194 132.256 161.177C132.323 161.109 133.85 160.713 133.892 160.747C133.977 160.839 135.529 166.061 135.495 166.154C135.461 166.238 133.85 166.711 133.614 166.711C133.572 166.711 133.243 165.471 132.88 163.961ZM113.57 165.707C113.064 165.53 112.642 165.369 112.617 165.344C112.592 165.319 113.03 164.104 113.596 162.636L114.616 159.979L115.426 160.257C115.882 160.409 116.244 160.57 116.236 160.603C116.219 160.789 114.549 166.036 114.515 166.027C114.49 166.027 114.068 165.884 113.57 165.707ZM136.609 162.898C136.077 161.447 135.647 160.232 135.647 160.19C135.647 160.148 136.001 159.971 136.431 159.793L137.216 159.473L137.385 159.861C137.477 160.08 137.992 161.253 138.532 162.476C139.063 163.699 139.485 164.711 139.468 164.728C139.435 164.762 137.638 165.53 137.596 165.53C137.579 165.53 137.14 164.34 136.609 162.898ZM109.648 164.07C109.167 163.834 108.779 163.598 108.779 163.556C108.779 163.471 111.293 158.688 111.385 158.604C111.411 158.579 111.782 158.714 112.212 158.916L112.988 159.287L112.457 160.443C112.17 161.084 111.63 162.265 111.267 163.067C110.905 163.859 110.584 164.517 110.559 164.509C110.533 164.509 110.12 164.315 109.648 164.07ZM140.118 161.379C139.418 160.021 138.844 158.874 138.827 158.815C138.81 158.764 139.131 158.536 139.536 158.317C140.135 157.988 140.278 157.938 140.362 158.03C140.514 158.199 143.222 162.839 143.18 162.872C143.138 162.915 141.442 163.843 141.409 163.843C141.392 163.843 140.81 162.738 140.118 161.379ZM106.029 162.02C105.573 161.708 105.185 161.447 105.168 161.438C105.134 161.413 107.96 157.288 108.256 156.925L108.416 156.731L109.074 157.145C109.437 157.372 109.766 157.583 109.808 157.609C109.867 157.651 107.513 161.649 106.965 162.425C106.881 162.56 106.788 162.518 106.029 162.02ZM143.416 159.372C142.556 158.073 141.847 156.984 141.856 156.951C141.856 156.908 142.168 156.672 142.539 156.402L143.222 155.93L143.813 156.697C145.711 159.178 146.656 160.485 146.613 160.553C146.571 160.62 145.382 161.497 145.087 161.675C145.027 161.708 144.386 160.814 143.416 159.372ZM102.798 159.65C102.376 159.304 102.03 158.984 102.03 158.941C102.03 158.908 102.865 157.921 103.894 156.757C105.556 154.867 105.776 154.648 105.902 154.757C106.155 154.968 107.049 155.694 107.083 155.719C107.1 155.727 106.315 156.757 105.337 158.013L103.574 160.291L102.798 159.65ZM146.504 157.001L144.631 154.808L145.146 154.327C145.432 154.065 145.728 153.804 145.804 153.753C145.913 153.677 146.259 153.99 147.87 155.651C148.933 156.748 149.819 157.684 149.836 157.735C149.853 157.786 149.532 158.14 149.119 158.511L148.377 159.194L146.504 157.001ZM99.6512 156.723C99.2884 156.326 98.9932 155.989 98.9932 155.964C98.9932 155.904 103.127 152.201 103.194 152.201C103.228 152.201 103.515 152.463 103.835 152.783L104.417 153.374L102.46 155.381C101.381 156.487 100.453 157.398 100.402 157.415C100.343 157.423 100.005 157.111 99.6512 156.723Z" fill="#413C3E"/>
<path d="M119.923 119.149C119.763 119.073 119.552 118.905 119.467 118.778C119.24 118.475 119.181 117.724 119.349 117.395C119.898 116.34 121.365 116.45 121.678 117.58C121.813 118.061 121.787 118.289 121.576 118.66C121.239 119.251 120.522 119.461 119.923 119.149ZM129.464 118.964C129.312 118.871 129.118 118.677 129.025 118.525C128.688 117.968 128.882 117.218 129.464 116.846C129.852 116.61 130.544 116.661 130.847 116.948C131.708 117.749 131.227 119.133 130.08 119.133C129.894 119.133 129.624 119.057 129.464 118.964ZM149.254 154.242L147.179 152.336L147.727 151.703C148.023 151.349 148.301 151.062 148.343 151.062C148.444 151.062 152.73 154.563 152.73 154.647C152.73 154.74 151.473 156.166 151.397 156.157C151.363 156.157 150.402 155.297 149.254 154.242ZM96.91 153.5L96.3027 152.682L96.6148 152.462C98.2935 151.256 100.934 149.417 100.993 149.417C101.027 149.417 101.28 149.721 101.55 150.092L102.047 150.775L101.845 150.927C99.078 153.137 97.5933 154.31 97.5596 154.31C97.5343 154.31 97.239 153.947 96.91 153.5ZM151.802 151.391C150.621 150.531 149.583 149.78 149.499 149.721C149.364 149.62 149.389 149.56 149.803 148.945C150.047 148.582 150.275 148.261 150.317 148.244C150.368 148.219 154.223 150.598 155.117 151.197C155.193 151.248 154.096 152.96 153.995 152.96C153.97 152.952 152.983 152.251 151.802 151.391ZM94.5902 149.991C94.3202 149.51 94.1347 149.096 94.1684 149.063C94.2021 149.029 95.3241 148.413 96.6738 147.688L99.1202 146.363L99.2468 146.557C99.3142 146.659 99.5167 147.004 99.6939 147.317L100.006 147.89L99.6939 148.093C97.2137 149.628 95.206 150.851 95.1469 150.851C95.1048 150.851 94.8517 150.463 94.5902 149.991ZM153.869 148.228C152.62 147.527 151.507 146.903 151.405 146.836L151.211 146.718L151.591 145.95C151.802 145.528 152.013 145.199 152.047 145.216C152.089 145.233 153.261 145.79 154.662 146.456L157.192 147.679L156.72 148.59C156.458 149.088 156.222 149.501 156.197 149.501C156.172 149.501 155.126 148.928 153.869 148.228V148.228ZM92.9789 146.827C92.8608 146.608 92.6753 146.186 92.5572 145.891L92.3378 145.359L92.5234 145.292C92.6246 145.25 93.7719 144.794 95.071 144.271C96.3701 143.748 97.4921 143.301 97.5596 143.284C97.6524 143.259 97.7789 143.461 98.0151 144.018C98.1923 144.448 98.3104 144.82 98.2682 144.853C98.2007 144.912 93.5863 147.08 93.2826 147.198C93.2236 147.224 93.0886 147.055 92.9789 146.827ZM155.345 144.642C153.978 144.077 152.823 143.596 152.789 143.579C152.688 143.537 153.337 141.901 153.438 141.934C153.489 141.951 154.712 142.382 156.163 142.879L158.795 143.782L158.551 144.431C158.163 145.486 158.061 145.705 157.943 145.697C157.884 145.688 156.712 145.216 155.345 144.642V144.642ZM91.3255 142.441C91.1821 141.934 91.064 141.487 91.064 141.428C91.064 141.31 91.0893 141.302 94.219 140.475C95.4675 140.146 96.5136 139.901 96.5473 139.944C96.5979 140.003 96.6907 140.29 97.0197 141.42C97.0534 141.538 96.6654 141.69 94.5058 142.398C93.097 142.862 91.8654 143.259 91.7726 143.293C91.6039 143.343 91.5702 143.276 91.3255 142.441ZM156.627 140.981C155.176 140.576 153.97 140.222 153.945 140.197C153.877 140.138 154.265 138.535 154.341 138.535C154.476 138.535 159.833 139.707 159.875 139.741C159.942 139.817 159.445 141.681 159.352 141.707C159.31 141.715 158.078 141.395 156.627 140.981ZM90.3638 138.417C90.2879 137.936 90.2204 137.472 90.2204 137.379C90.2204 137.236 90.4735 137.185 93.0127 136.822C94.548 136.595 95.8218 136.434 95.8471 136.46C95.8724 136.485 95.9568 136.873 96.0411 137.32C96.1339 137.877 96.1508 138.138 96.0918 138.155C96.0074 138.189 90.5747 139.294 90.5241 139.294C90.5157 139.294 90.4398 138.898 90.3638 138.417ZM157.336 137.177C155.902 136.949 154.712 136.746 154.687 136.73C154.636 136.679 154.763 135.194 154.83 135.093C154.881 135.017 160.432 135.49 160.516 135.582C160.541 135.608 160.508 136.021 160.44 136.51C160.381 137 160.331 137.447 160.322 137.506C160.322 137.649 160.263 137.641 157.336 137.177ZM167.433 136.384C167.433 136.156 167.45 136.063 167.467 136.198C167.484 136.325 167.484 136.51 167.467 136.62C167.45 136.721 167.433 136.62 167.433 136.384ZM167.433 135.498C167.433 135.245 167.45 135.135 167.467 135.27C167.484 135.397 167.484 135.599 167.467 135.734C167.45 135.861 167.433 135.751 167.433 135.498ZM89.9421 134.941C89.9083 134.806 89.883 134.334 89.8661 133.895L89.8408 133.094L91.3593 133.043C92.1944 133.009 93.4935 132.984 94.2528 132.976L95.6194 132.967V133.338C95.6194 133.532 95.6447 133.929 95.67 134.199L95.7206 134.705L93.3332 134.891C92.0173 135 90.7266 135.11 90.4651 135.135C89.9927 135.186 89.9842 135.177 89.9421 134.941ZM157.116 133.296C156.307 133.271 155.48 133.237 155.286 133.229L154.923 133.22V131.466L156.298 131.415C157.049 131.39 158.331 131.348 159.149 131.322L160.634 131.272L160.676 131.803C160.702 132.098 160.702 132.571 160.676 132.866L160.634 133.389L159.613 133.372C159.057 133.364 157.926 133.33 157.116 133.296ZM91.9498 131.027C91.2074 130.993 90.4313 130.96 90.2289 130.951L89.8577 130.943L89.9083 129.913C89.9421 129.348 89.9758 128.876 89.9927 128.867C90.0095 128.851 91.2833 128.96 92.8355 129.112C96.0749 129.424 95.7543 129.281 95.6615 130.411L95.6025 131.111L94.4552 131.094C93.8141 131.086 92.6921 131.052 91.9498 131.027ZM154.813 129.407C154.78 129.255 154.738 128.859 154.704 128.538L154.653 127.948L157.462 127.551C159.344 127.281 160.288 127.18 160.322 127.239C160.381 127.332 160.6 129.18 160.558 129.213C160.533 129.23 155.134 129.677 154.957 129.677C154.898 129.677 154.839 129.551 154.813 129.407ZM93.1308 127.197C91.6461 126.952 90.3891 126.742 90.3385 126.716C90.2457 126.683 90.5494 124.852 90.6675 124.725C90.7097 124.683 96.193 125.839 96.2605 125.906C96.2773 125.915 96.2352 126.168 96.1677 126.472C96.1086 126.775 96.0327 127.163 96.0074 127.341C95.9737 127.509 95.923 127.644 95.8893 127.644C95.8556 127.636 94.6155 127.433 93.1308 127.197ZM154.29 126.033C154.265 125.923 154.172 125.544 154.088 125.189L153.936 124.531L154.282 124.439C158.247 123.359 159.495 123.047 159.529 123.131C159.588 123.283 159.985 125.071 159.959 125.088C159.934 125.113 154.51 126.219 154.417 126.219C154.375 126.219 154.316 126.134 154.29 126.033ZM93.8057 123.35C92.3631 122.945 91.199 122.574 91.199 122.541C91.258 122.178 91.7811 120.651 91.8485 120.651C91.9329 120.651 97.1462 122.422 97.2137 122.473C97.2222 122.49 97.1209 122.861 96.9691 123.3C96.7751 123.899 96.6654 124.11 96.5642 124.101C96.4882 124.101 95.2482 123.764 93.8057 123.35ZM153.126 122.018C152.958 121.57 152.831 121.199 152.84 121.191C152.848 121.182 154.046 120.702 155.497 120.119L158.137 119.057L158.272 119.369C158.686 120.364 158.88 120.997 158.778 121.031C158.728 121.056 157.496 121.469 156.054 121.95L153.422 122.827L153.126 122.018ZM95.2819 119.765C93.9153 119.192 92.7427 118.694 92.6837 118.652C92.5909 118.601 92.6415 118.415 92.9199 117.791C93.1055 117.353 93.2995 116.931 93.3417 116.846C93.4176 116.711 93.6876 116.83 95.9315 117.926C97.315 118.593 98.4707 119.175 98.5128 119.208C98.5719 119.267 97.9055 120.828 97.8211 120.811C97.7958 120.811 96.6485 120.339 95.2819 119.765ZM151.709 118.804C151.507 118.407 151.329 118.053 151.313 118.027C151.304 118.002 152.418 117.361 153.793 116.602C156.146 115.303 156.307 115.235 156.408 115.379C156.577 115.615 157.302 117.032 157.268 117.066C157.243 117.099 153.7 118.795 152.679 119.259L152.08 119.537L151.709 118.804ZM96.8679 116.239C95.1216 115.252 94.4552 114.839 94.489 114.754C94.5058 114.687 94.742 114.273 95.0035 113.843C95.4506 113.092 95.4759 113.059 95.6531 113.168C98.032 114.67 100.259 116.138 100.259 116.197C100.259 116.34 99.4577 117.606 99.3733 117.606C99.3311 117.606 98.2007 116.99 96.8679 116.239ZM149.954 115.792C149.701 115.395 149.533 115.041 149.575 115.007C149.819 114.788 154.08 111.793 154.147 111.793C154.231 111.793 155.261 113.32 155.261 113.438C155.261 113.514 150.68 116.433 150.486 116.484C150.444 116.501 150.208 116.188 149.954 115.792ZM98.9093 113.185C97.6861 112.283 96.6654 111.515 96.6485 111.473C96.6317 111.405 97.6524 109.988 97.8042 109.904C97.8548 109.87 101.626 112.856 102.267 113.438C102.301 113.472 101.271 114.78 101.195 114.805C101.17 114.813 100.141 114.079 98.9093 113.185ZM147.82 112.966L147.255 112.308L149.398 110.368L151.532 108.427L152.173 109.195C152.527 109.625 152.814 109.997 152.814 110.03C152.814 110.072 148.951 113.219 148.47 113.565C148.419 113.607 148.132 113.337 147.82 112.966ZM101.398 110.157C100.293 109.119 99.3733 108.242 99.3564 108.2C99.3396 108.158 99.6432 107.803 100.031 107.424L100.731 106.723L101.744 107.761C102.292 108.326 103.195 109.254 103.735 109.811L104.73 110.832L104.114 111.439C103.777 111.776 103.482 112.046 103.465 112.038C103.439 112.038 102.511 111.186 101.398 110.157ZM145.357 110.401L144.724 109.811L146.563 107.71C147.576 106.546 148.436 105.593 148.487 105.576C148.529 105.559 148.9 105.863 149.305 106.243L150.039 106.943L148.014 108.967L145.998 110.992L145.357 110.401ZM104.207 107.474C103.203 106.302 102.376 105.306 102.368 105.272C102.36 105.23 102.705 104.918 103.136 104.572C103.768 104.075 103.946 103.965 104.03 104.049C104.08 104.108 104.865 105.146 105.768 106.344L107.404 108.529L106.763 109.06C106.409 109.355 106.105 109.6 106.071 109.6C106.046 109.6 105.211 108.638 104.207 107.474ZM142.733 108.233C142.413 108.006 142.092 107.769 142.033 107.71C141.94 107.626 142.21 107.179 143.493 105.272C144.362 103.982 145.112 102.936 145.163 102.936C145.222 102.936 145.618 103.197 146.04 103.509L146.825 104.091L145.087 106.361C144.134 107.609 143.341 108.638 143.341 108.638C143.332 108.647 143.062 108.461 142.733 108.233ZM107.295 105.137C106.434 103.838 105.751 102.742 105.776 102.691C105.877 102.539 107.362 101.654 107.463 101.696C107.548 101.729 110.222 106.31 110.281 106.521C110.298 106.597 109.606 107.086 108.973 107.44C108.906 107.483 108.341 106.707 107.295 105.137ZM139.781 106.344C139.41 106.133 139.089 105.947 139.072 105.93C139.047 105.905 141.468 101.232 141.662 100.928C141.721 100.844 141.94 100.936 142.607 101.308C143.079 101.578 143.476 101.831 143.476 101.873C143.484 101.999 140.624 106.723 140.54 106.723C140.498 106.723 140.152 106.555 139.781 106.344ZM110.551 103.223C109.834 101.814 109.269 100.65 109.294 100.624C109.412 100.498 111.108 99.7555 111.158 99.8061C111.259 99.8989 113.419 104.91 113.394 104.986C113.385 105.028 113.031 105.222 112.609 105.424L111.858 105.77L110.551 103.223ZM136.601 104.809C136.187 104.648 135.858 104.471 135.858 104.429C135.858 104.269 137.824 99.1396 137.891 99.1396C138.052 99.1396 139.781 99.8904 139.764 99.9495C139.722 100.177 137.469 105.087 137.41 105.095C137.368 105.104 137.005 104.977 136.601 104.809ZM115.106 104.336C115.106 104.328 114.667 103.121 114.136 101.67C113.605 100.211 113.191 98.9962 113.233 98.9625C113.36 98.836 115.055 98.2961 115.115 98.3551C115.165 98.4142 116.7 103.484 116.743 103.729C116.743 103.762 116.38 103.923 115.933 104.075C115.477 104.235 115.106 104.345 115.106 104.336ZM133.252 103.653C132.863 103.535 132.526 103.433 132.509 103.408C132.433 103.332 133.808 97.9249 133.91 97.8911C134.078 97.8321 135.867 98.3973 135.833 98.4985C135.816 98.5491 135.428 99.7808 134.972 101.232C134.517 102.674 134.104 103.864 134.053 103.855C134.002 103.855 133.64 103.762 133.252 103.653ZM117.814 100.633C117.477 99.1396 117.19 97.8827 117.181 97.8405C117.173 97.7562 119.122 97.3091 119.189 97.3766C119.257 97.4356 120.176 102.953 120.134 102.995C120.092 103.037 118.691 103.349 118.523 103.358C118.48 103.358 118.16 102.134 117.814 100.633ZM129.666 102.885C129.304 102.826 129 102.767 128.983 102.75C128.966 102.733 129.666 97.0982 129.692 97.0644C129.7 97.056 129.919 97.0897 130.189 97.1235C131.278 97.2838 131.725 97.3934 131.725 97.4862C131.725 97.5875 130.974 101.67 130.788 102.581C130.687 103.079 130.738 103.071 129.666 102.885ZM121.931 102.75C121.905 102.64 121.281 97.0729 121.298 97.056C121.332 97.0138 123.306 96.8535 123.339 96.8873C123.356 96.9042 123.432 97.9924 123.5 99.3168C123.567 100.633 123.635 101.907 123.652 102.151L123.685 102.59L123.213 102.64C122.951 102.666 122.563 102.708 122.344 102.733C122.116 102.759 121.939 102.767 121.931 102.75ZM125.44 102.506C125.406 102.455 125.406 101.139 125.44 99.5867L125.507 96.7607L126.486 96.8198C127.026 96.8535 127.49 96.9042 127.515 96.9379C127.54 96.9632 127.481 98.2454 127.389 99.7723L127.211 102.556L126.351 102.581C125.786 102.598 125.474 102.573 125.44 102.506Z" fill="#413C3E"/>
<path d="M125.441 174.135C120.692 173.62 116.601 172.49 112.551 170.567C109.768 169.234 106.958 167.454 104.622 165.505C103.626 164.678 100.648 161.827 100.716 161.76C100.733 161.743 101.138 162.03 101.619 162.409C106.992 166.61 113.496 169.31 120.38 170.204C123.054 170.55 126.766 170.592 129.28 170.305C136.914 169.419 143.84 166.501 149.669 161.701C150.757 160.798 153.642 157.93 154.469 156.926C158.881 151.552 161.58 145.892 162.846 139.379C163.681 135.027 163.748 130.159 163.023 125.899C161.909 119.387 159.176 113.262 155.152 108.268C154.882 107.922 154.671 107.627 154.688 107.61C154.747 107.551 157.649 110.537 158.316 111.347C162.694 116.645 165.503 122.626 166.684 129.172C167.123 131.61 167.156 132.142 167.156 136.005C167.156 139.869 167.123 140.4 166.684 142.838C164.752 153.543 158.231 163.05 148.927 168.711C144.287 171.537 139.597 173.173 133.666 174.017C132.553 174.177 126.622 174.262 125.441 174.135V174.135Z" fill="#FAFAFA"/>
<defs>
<filter id="filter0_f_1032_26973" x="-20" y="25" width="298" height="184" filterUnits="userSpaceOnUse" color-interpolation-filters="sRGB">
<feFlood flood-opacity="0" result="BackgroundImageFix"/>
<feBlend mode="normal" in="SourceGraphic" in2="BackgroundImageFix" result="shape"/>
<feGaussianBlur stdDeviation="18.5" result="effect1_foregroundBlur_1032_26973"/>
</filter>
<filter id="filter1_ii_1032_26973" x="17" y="62" width="224" height="148" filterUnits="userSpaceOnUse" color-interpolation-filters="sRGB">
<feFlood flood-opacity="0" result="BackgroundImageFix"/>
<feBlend mode="normal" in="SourceGraphic" in2="BackgroundImageFix" result="shape"/>
<feColorMatrix in="SourceAlpha" type="matrix" values="0 0 0 0 0 0 0 0 0 0 0 0 0 0 0 0 0 0 127 0" result="hardAlpha"/>
<feOffset dy="4"/>
<feComposite in2="hardAlpha" operator="arithmetic" k2="-1" k3="1"/>
<feColorMatrix type="matrix" values="0 0 0 0 1 0 0 0 0 1 0 0 0 0 1 0 0 0 0.25 0"/>
<feBlend mode="normal" in2="shape" result="effect1_innerShadow_1032_26973"/>
<feColorMatrix in="SourceAlpha" type="matrix" values="0 0 0 0 0 0 0 0 0 0 0 0 0 0 0 0 0 0 127 0" result="hardAlpha"/>
<feOffset dy="-4"/>
<feComposite in2="hardAlpha" operator="arithmetic" k2="-1" k3="1"/>
<feColorMatrix type="matrix" values="0 0 0 0 0 0 0 0 0 0 0 0 0 0 0 0 0 0 0.9 0"/>
<feBlend mode="soft-light" in2="effect1_innerShadow_1032_26973" result="effect2_innerShadow_1032_26973"/>
</filter>
<linearGradient id="paint0_linear_1032_26973" x1="17" y1="34" x2="197.768" y2="215.142" gradientUnits="userSpaceOnUse">
<stop stop-color="#05815D"/>
<stop offset="1" stop-color="#0C575F"/>
</linearGradient>
<linearGradient id="paint1_linear_1032_26973" x1="17" y1="62" x2="241" y2="210" gradientUnits="userSpaceOnUse">
<stop stop-color="#4FC840"/>
<stop offset="1" stop-color="#389A4F"/>
</linearGradient>
</defs>
</svg>
