<svg width="256" height="256" viewBox="0 0 256 256" fill="none" xmlns="http://www.w3.org/2000/svg">
<path fill-rule="evenodd" clip-rule="evenodd" d="M104.425 42.3784C100.056 37.0733 93.5437 34 86.6712 34H29C22.3726 34 17 39.3726 17 46V58.1371V68.2V160C17 166.627 22.3726 172 29 172H229C235.627 172 241 166.627 241 160V70.1371C241 63.5097 235.627 58.1371 229 58.1371H117.404L104.425 42.3784Z" fill="#3DDC84"/>
<mask id="mask0_1036_27482" style="mask-type:alpha" maskUnits="userSpaceOnUse" x="17" y="34" width="224" height="138">
<path fill-rule="evenodd" clip-rule="evenodd" d="M104.425 42.3784C100.056 37.0733 93.5437 34 86.6712 34H29C22.3726 34 17 39.3726 17 46V58.1371V68.2V160C17 166.627 22.3726 172 29 172H229C235.627 172 241 166.627 241 160V70.1371C241 63.5097 235.627 58.1371 229 58.1371H117.404L104.425 42.3784Z" fill="url(#paint0_linear_1036_27482)"/>
</mask>
<g mask="url(#mask0_1036_27482)">
<g style="mix-blend-mode:multiply" filter="url(#filter0_f_1036_27482)">
<path fill-rule="evenodd" clip-rule="evenodd" d="M92.789 74C97.7642 74 102.605 72.3868 106.586 69.4024L116.459 62H229C235.627 62 241 67.3726 241 74V108V160C241 166.627 235.627 172 229 172H29C22.3726 172 17 166.627 17 160L17 108V86C17 79.3726 22.3726 74 29 74H87H92.789Z" fill="black" fill-opacity="0.3"/>
</g>
</g>
<g filter="url(#filter1_ii_1036_27482)">
<path fill-rule="evenodd" clip-rule="evenodd" d="M92.789 74C97.7642 74 102.605 72.3868 106.586 69.4024L116.459 62H229C235.627 62 241 67.3726 241 74V108V198C241 204.627 235.627 210 229 210H29C22.3726 210 17 204.627 17 198L17 108V86C17 79.3726 22.3726 74 29 74H87H92.789Z" fill="url(#paint1_linear_1036_27482)"/>
</g>
<path d="M79.1219 203.841C79.508 200.021 80.341 196.445 81.8649 192.097C83.2669 188.033 86.5789 182.222 89.6673 178.382C93.1215 174.135 98.8107 169.238 102.692 167.247C104.398 166.353 104.378 166.434 103.382 164.748C102.895 163.915 101.899 162.188 101.147 160.908C100.396 159.628 98.892 157.068 97.8151 155.219C95.6207 151.46 95.4175 150.728 96.3928 149.956C96.982 149.489 97.6932 149.407 98.3231 149.733C98.831 150.017 98.9123 150.159 103.464 158.063C105.577 161.7 107.304 164.687 107.324 164.707C107.345 164.728 108.543 164.301 109.986 163.732C121.832 159.12 135.831 159.16 147.474 163.834C148.754 164.342 149.79 164.748 149.831 164.707C149.892 164.646 154.199 157.21 157.308 151.805C157.857 150.891 158.487 149.997 158.71 149.834C159.32 149.407 160.132 149.448 160.762 149.956C161.839 150.809 161.677 151.195 157.207 158.876C154.951 162.716 153.082 165.967 153.021 166.109C152.98 166.252 153.366 166.597 153.915 166.922C157.958 169.218 161.026 171.575 164.318 174.907C168.199 178.869 170.739 182.446 173.177 187.302C175.839 192.625 177.383 197.847 178.054 203.841L178.175 204.999H128.598H79L79.1219 203.841ZM108.096 190.228C109.255 189.395 109.742 188.379 109.742 186.895C109.742 185.473 109.194 184.477 107.873 183.563C106.735 182.791 104.927 182.73 103.667 183.441C102.001 184.376 101.208 186.855 102.041 188.582C102.854 190.289 104.073 191.02 105.963 190.918C106.999 190.878 107.385 190.736 108.096 190.228ZM153.082 190.654C154.159 190.146 154.972 189.171 155.317 187.972C155.622 186.977 155.601 186.794 155.297 185.839C154.687 183.949 153.387 182.974 151.456 182.974C149.912 182.994 149.14 183.38 148.226 184.579C146.661 186.631 147.291 189.435 149.567 190.553C150.603 191.061 152.127 191.101 153.082 190.654Z" fill="#3DDC84"/>
<path d="M115.35 137.359L114.863 136.973L114.822 130.186C114.782 126.468 114.761 123.359 114.761 123.278C114.761 123.176 113.989 123.115 113.034 123.115C111.876 123.115 111.084 123.014 110.697 122.811C109.011 121.937 109.011 118.808 110.697 117.934C111.084 117.731 111.876 117.629 113.034 117.629H114.761L114.782 111.493C114.782 108.1 114.822 104.971 114.863 104.524C115.005 103.102 115.289 103 119.374 103C121.324 103 123.092 103.081 123.295 103.203C123.823 103.488 124.169 104.666 124.047 105.804C123.844 107.612 123.519 107.876 121.446 107.876H120.247V111.839C120.247 114.46 120.166 115.963 120.003 116.309C119.617 117.142 118.723 117.508 116.691 117.629L114.863 117.731V120.372V123.014L116.793 123.136C120.146 123.339 120.125 123.298 120.247 128.581L120.349 132.767L121.791 132.868C123.762 133.011 123.905 133.153 123.905 135.185C123.905 137.725 124.067 137.623 119.597 137.704C116.123 137.765 115.818 137.745 115.35 137.359Z" fill="#3DDC84"/>
<path d="M133.759 137.481C133.23 137.075 132.986 134.698 133.373 133.743C133.657 133.011 133.962 132.91 135.689 132.828L136.806 132.767L136.908 128.704C136.969 126.469 137.091 124.477 137.172 124.294C137.538 123.563 138.391 123.238 140.261 123.157C141.297 123.096 142.15 122.974 142.231 122.831C142.313 122.71 142.394 121.49 142.394 120.129V117.63H144.121C145.279 117.63 146.072 117.731 146.458 117.935C148.205 118.849 148.144 122.08 146.356 122.831C145.95 122.994 144.974 123.116 144.04 123.116H142.414L142.353 130.024C142.292 136.323 142.252 136.953 141.927 137.278C141.622 137.603 141.094 137.644 137.863 137.705C134.876 137.745 134.084 137.705 133.759 137.481Z" fill="#4285F4"/>
<path d="M138.229 117.243C137.762 117.04 137.294 116.654 137.172 116.349C137.01 115.984 136.908 114.46 136.908 111.839L136.888 107.876H135.526C134.043 107.856 133.596 107.653 133.251 106.779C132.804 105.58 133.149 103.589 133.86 103.203C134.064 103.081 135.831 103 137.782 103C140.972 103 141.378 103.041 141.805 103.386L142.293 103.772L142.374 109.99C142.414 113.423 142.374 116.532 142.313 116.918L142.171 117.629H140.606C139.529 117.629 138.777 117.508 138.229 117.243Z" fill="#4285F4"/>
<defs>
<filter id="filter0_f_1036_27482" x="-20" y="25" width="298" height="184" filterUnits="userSpaceOnUse" color-interpolation-filters="sRGB">
<feFlood flood-opacity="0" result="BackgroundImageFix"/>
<feBlend mode="normal" in="SourceGraphic" in2="BackgroundImageFix" result="shape"/>
<feGaussianBlur stdDeviation="18.5" result="effect1_foregroundBlur_1036_27482"/>
</filter>
<filter id="filter1_ii_1036_27482" x="17" y="62" width="224" height="148" filterUnits="userSpaceOnUse" color-interpolation-filters="sRGB">
<feFlood flood-opacity="0" result="BackgroundImageFix"/>
<feBlend mode="normal" in="SourceGraphic" in2="BackgroundImageFix" result="shape"/>
<feColorMatrix in="SourceAlpha" type="matrix" values="0 0 0 0 0 0 0 0 0 0 0 0 0 0 0 0 0 0 127 0" result="hardAlpha"/>
<feOffset dy="4"/>
<feComposite in2="hardAlpha" operator="arithmetic" k2="-1" k3="1"/>
<feColorMatrix type="matrix" values="0 0 0 0 1 0 0 0 0 1 0 0 0 0 1 0 0 0 0.25 0"/>
<feBlend mode="normal" in2="shape" result="effect1_innerShadow_1036_27482"/>
<feColorMatrix in="SourceAlpha" type="matrix" values="0 0 0 0 0 0 0 0 0 0 0 0 0 0 0 0 0 0 127 0" result="hardAlpha"/>
<feOffset dy="-4"/>
<feComposite in2="hardAlpha" operator="arithmetic" k2="-1" k3="1"/>
<feColorMatrix type="matrix" values="0 0 0 0 0 0 0 0 0 0 0 0 0 0 0 0 0 0 0.9 0"/>
<feBlend mode="soft-light" in2="effect1_innerShadow_1036_27482" result="effect2_innerShadow_1036_27482"/>
</filter>
<linearGradient id="paint0_linear_1036_27482" x1="17" y1="34" x2="197.768" y2="215.142" gradientUnits="userSpaceOnUse">
<stop stop-color="#05815D"/>
<stop offset="1" stop-color="#0C575F"/>
</linearGradient>
<linearGradient id="paint1_linear_1036_27482" x1="17" y1="62" x2="241" y2="210" gradientUnits="userSpaceOnUse">
<stop stop-color="#074242"/>
<stop offset="1" stop-color="#072942"/>
</linearGradient>
</defs>
</svg>
