<svg width="256" height="256" viewBox="0 0 256 256" fill="none" xmlns="http://www.w3.org/2000/svg">
<path fill-rule="evenodd" clip-rule="evenodd" d="M104.425 42.3784C100.056 37.0733 93.5437 34 86.6712 34H29C22.3726 34 17 39.3726 17 46V58.1371V68.2V160C17 166.627 22.3726 172 29 172H229C235.627 172 241 166.627 241 160V70.1371C241 63.5097 235.627 58.1371 229 58.1371H117.404L104.425 42.3784Z" fill="url(#paint0_linear_964_21519)"/>
<mask id="mask0_964_21519" style="mask-type:alpha" maskUnits="userSpaceOnUse" x="17" y="34" width="224" height="138">
<path fill-rule="evenodd" clip-rule="evenodd" d="M104.425 42.3784C100.056 37.0733 93.5437 34 86.6712 34H29C22.3726 34 17 39.3726 17 46V58.1371V68.2V160C17 166.627 22.3726 172 29 172H229C235.627 172 241 166.627 241 160V70.1371C241 63.5097 235.627 58.1371 229 58.1371H117.404L104.425 42.3784Z" fill="url(#paint1_linear_964_21519)"/>
</mask>
<g mask="url(#mask0_964_21519)">
<g style="mix-blend-mode:multiply" filter="url(#filter0_f_964_21519)">
<path fill-rule="evenodd" clip-rule="evenodd" d="M92.789 74C97.7642 74 102.605 72.3868 106.586 69.4024L116.459 62H229C235.627 62 241 67.3726 241 74V108V160C241 166.627 235.627 172 229 172H29C22.3726 172 17 166.627 17 160L17 108V86C17 79.3726 22.3726 74 29 74H87H92.789Z" fill="black" fill-opacity="0.3"/>
</g>
</g>
<g filter="url(#filter1_ii_964_21519)">
<path fill-rule="evenodd" clip-rule="evenodd" d="M92.789 74C97.7642 74 102.605 72.3868 106.586 69.4024L116.459 62H229C235.627 62 241 67.3726 241 74V108V198C241 204.627 235.627 210 229 210H29C22.3726 210 17 204.627 17 198L17 108V86C17 79.3726 22.3726 74 29 74H87H92.789Z" fill="url(#paint2_linear_964_21519)"/>
<path fill-rule="evenodd" clip-rule="evenodd" d="M92.789 74C97.7642 74 102.605 72.3868 106.586 69.4024L116.459 62H229C235.627 62 241 67.3726 241 74V108V198C241 204.627 235.627 210 229 210H29C22.3726 210 17 204.627 17 198L17 108V86C17 79.3726 22.3726 74 29 74H87H92.789Z" fill="url(#paint3_radial_964_21519)" fill-opacity="0.7"/>
<path fill-rule="evenodd" clip-rule="evenodd" d="M92.789 74C97.7642 74 102.605 72.3868 106.586 69.4024L116.459 62H229C235.627 62 241 67.3726 241 74V108V198C241 204.627 235.627 210 229 210H29C22.3726 210 17 204.627 17 198L17 108V86C17 79.3726 22.3726 74 29 74H87H92.789Z" fill="url(#paint4_radial_964_21519)" fill-opacity="0.7"/>
<path fill-rule="evenodd" clip-rule="evenodd" d="M92.789 74C97.7642 74 102.605 72.3868 106.586 69.4024L116.459 62H229C235.627 62 241 67.3726 241 74V108V198C241 204.627 235.627 210 229 210H29C22.3726 210 17 204.627 17 198L17 108V86C17 79.3726 22.3726 74 29 74H87H92.789Z" fill="url(#paint5_radial_964_21519)" fill-opacity="0.7"/>
</g>
<path opacity="0.35" d="M240.999 184.022V181.922C233.074 176.974 225.586 168.1 218.622 152.154C206.564 124.532 189.339 112.025 168.593 111.05C155.172 110.415 143.109 115.986 132.668 124.247C122.227 132.509 113.365 143.468 106.353 153.808C92.2775 174.56 72.5185 183.912 53.3465 186.161C40.2286 187.7 27.4088 185.873 16.9999 182.104V184.053C27.5754 187.775 40.3988 189.503 53.5534 187.959C73.1629 185.659 93.5071 176.028 107.887 154.826C114.836 144.58 123.557 133.747 133.773 125.663C143.99 117.579 155.639 112.278 168.505 112.887C188.575 113.83 205.09 125.65 216.974 152.877C224.292 169.633 232.389 178.938 240.998 184.021L240.999 184.022Z" fill="white" fill-opacity="0.937"/>
<path opacity="0.35" d="M240.995 171.125V169.264C236.345 170.042 231.543 170.17 226.827 169.296C218.041 167.667 209.525 162.63 202.628 151.707C196.24 141.593 189.214 128.763 178.182 118.789C167.15 108.814 152.075 101.764 129.896 103.181C103.445 104.881 76.8332 115.934 63.1153 141.819C53.7653 158.305 40.9024 174.709 22.982 178.738C20.7945 179.205 18.843 179.483 16.9996 179.59V181.403C18.9913 181.297 21.0803 181.002 23.3718 180.512C42.1402 176.293 55.2675 159.375 64.7128 142.718V142.694C78.0694 117.453 103.977 106.66 130.015 104.987C151.76 103.597 166.211 110.431 176.948 120.141C187.688 129.851 194.656 142.512 201.092 152.701C208.218 163.989 217.253 169.387 226.501 171.101C231.365 172.003 236.264 171.888 240.995 171.125L240.995 171.125Z" fill="white" fill-opacity="0.937"/>
<path opacity="0.35" d="M241 150.043V148.07C223.41 154.987 196.001 161.188 173.588 154.649C150.961 148.037 121.36 121.793 65.6451 127.92C50.7212 129.55 38.0912 138.155 26.2596 154.283C22.7353 159.089 19.8364 162.995 17 166.088V168.737C20.4154 165.312 23.6618 160.914 27.7315 155.365C39.3811 139.486 51.5044 131.285 65.8524 129.718C120.936 123.66 149.622 149.539 173.07 156.391C195.867 163.042 223.123 156.98 241 150.043L241 150.043Z" fill="white" fill-opacity="0.937"/>
<path d="M182.206 136.279C182.792 164.909 158.845 189.499 129.162 189.44C99.7119 189.382 76 165.319 76 136.162C76 106.946 100.005 82.9416 129.22 83.0001C158.963 83.0001 182.967 107.883 182.206 136.279ZM84.9578 136.279C84.1382 159.464 104.162 180.541 128.693 180.658C153.342 180.775 173.775 161.279 173.717 136.103C173.658 110.459 152.698 91.7238 129.162 91.6652C104.63 91.6652 84.0796 112.743 84.9578 136.279Z" fill="white"/>
<path d="M111.714 136.103C110.836 134.639 109.548 133.703 108.494 132.59C101.117 125.096 103.4 112.977 112.944 108.761C116.457 107.18 119.56 109.113 119.56 112.918C119.618 128.316 119.618 143.714 119.56 159.113C119.56 163.562 116.515 165.319 112.475 163.504C107.03 161.045 104.162 156.654 103.927 150.974C103.693 146.173 105.684 141.841 109.548 138.679C110.251 137.918 111.187 137.333 111.714 136.103Z" fill="white"/>
<path d="M131.211 136.22V157.825C131.211 158.703 131.211 159.581 131.035 160.459C130.684 162.157 129.337 163.27 127.757 163.328C126.117 163.387 124.595 162.157 124.244 160.401C124.127 159.815 124.127 159.23 124.127 158.644C124.127 144.007 124.185 129.429 124.185 114.792C124.185 113.679 124.302 112.626 124.712 111.63C125.297 110.225 126.644 109.347 128.166 109.464C129.571 109.581 130.918 110.693 131.152 112.216C131.269 112.977 131.269 113.796 131.269 114.558C131.269 121.759 131.269 128.96 131.211 136.22C131.269 136.22 131.269 136.22 131.211 136.22Z" fill="white"/>
<path d="M135.895 136.22V124.277C136.012 121.466 137.358 119.827 139.466 119.885C141.574 119.944 142.92 121.583 142.92 124.452C142.979 132.356 142.92 140.202 142.92 148.106C142.92 148.515 142.92 148.867 142.862 149.277C142.511 151.384 140.93 152.789 139.115 152.614C137.241 152.438 135.895 151.033 135.836 148.867C135.836 144.593 135.836 140.377 135.895 136.22Z" fill="white"/>
<path d="M147.604 136.103C147.604 135.342 147.546 134.522 147.604 133.761C147.838 132.063 148.834 131.127 150.473 130.892C152.171 130.658 153.401 131.185 154.045 132.766C154.981 134.991 154.981 137.333 154.103 139.616C153.459 141.255 152.054 141.841 150.239 141.49C148.658 141.197 147.78 140.202 147.604 138.445C147.487 137.684 147.604 136.923 147.604 136.103Z" fill="white"/>
<defs>
<filter id="filter0_f_964_21519" x="-20" y="25" width="298" height="184" filterUnits="userSpaceOnUse" color-interpolation-filters="sRGB">
<feFlood flood-opacity="0" result="BackgroundImageFix"/>
<feBlend mode="normal" in="SourceGraphic" in2="BackgroundImageFix" result="shape"/>
<feGaussianBlur stdDeviation="18.5" result="effect1_foregroundBlur_964_21519"/>
</filter>
<filter id="filter1_ii_964_21519" x="17" y="62" width="224" height="148" filterUnits="userSpaceOnUse" color-interpolation-filters="sRGB">
<feFlood flood-opacity="0" result="BackgroundImageFix"/>
<feBlend mode="normal" in="SourceGraphic" in2="BackgroundImageFix" result="shape"/>
<feColorMatrix in="SourceAlpha" type="matrix" values="0 0 0 0 0 0 0 0 0 0 0 0 0 0 0 0 0 0 127 0" result="hardAlpha"/>
<feOffset dy="4"/>
<feComposite in2="hardAlpha" operator="arithmetic" k2="-1" k3="1"/>
<feColorMatrix type="matrix" values="0 0 0 0 1 0 0 0 0 1 0 0 0 0 1 0 0 0 0.25 0"/>
<feBlend mode="normal" in2="shape" result="effect1_innerShadow_964_21519"/>
<feColorMatrix in="SourceAlpha" type="matrix" values="0 0 0 0 0 0 0 0 0 0 0 0 0 0 0 0 0 0 127 0" result="hardAlpha"/>
<feOffset dy="-4"/>
<feComposite in2="hardAlpha" operator="arithmetic" k2="-1" k3="1"/>
<feColorMatrix type="matrix" values="0 0 0 0 0 0 0 0 0 0 0 0 0 0 0 0 0 0 0.9 0"/>
<feBlend mode="soft-light" in2="effect1_innerShadow_964_21519" result="effect2_innerShadow_964_21519"/>
</filter>
<linearGradient id="paint0_linear_964_21519" x1="129" y1="34" x2="129" y2="172" gradientUnits="userSpaceOnUse">
<stop stop-color="#4458EB"/>
</linearGradient>
<linearGradient id="paint1_linear_964_21519" x1="17" y1="34" x2="197.768" y2="215.142" gradientUnits="userSpaceOnUse">
<stop stop-color="#05815D"/>
<stop offset="1" stop-color="#0C575F"/>
</linearGradient>
<linearGradient id="paint2_linear_964_21519" x1="17" y1="62" x2="241" y2="210" gradientUnits="userSpaceOnUse">
<stop stop-color="#448BDE"/>
<stop offset="0.433571" stop-color="#A02BD2"/>
<stop offset="0.985677" stop-color="#E13F8C"/>
</linearGradient>
<radialGradient id="paint3_radial_964_21519" cx="0" cy="0" r="1" gradientUnits="userSpaceOnUse" gradientTransform="translate(140.5 161) rotate(-41.1859) scale(201.973 305.689)">
<stop offset="0.162726" stop-color="#448BDE"/>
<stop offset="0.563784" stop-color="#A02BD2" stop-opacity="0.5"/>
<stop offset="0.985677" stop-color="#E13F8C" stop-opacity="0"/>
</radialGradient>
<radialGradient id="paint4_radial_964_21519" cx="0" cy="0" r="1" gradientUnits="userSpaceOnUse" gradientTransform="translate(53 218) rotate(-23.3012) scale(109.969 166.44)">
<stop stop-color="#AF054C"/>
<stop offset="0.567358" stop-color="#E13F8C" stop-opacity="0"/>
</radialGradient>
<radialGradient id="paint5_radial_964_21519" cx="0" cy="0" r="1" gradientUnits="userSpaceOnUse" gradientTransform="translate(205 216.5) rotate(-108.626) scale(142.461 215.617)">
<stop stop-color="#AF054C"/>
<stop offset="0.792085" stop-color="#E13F8C" stop-opacity="0"/>
</radialGradient>
</defs>
</svg>
