<svg width="256" height="256" viewBox="0 0 256 256" fill="none" xmlns="http://www.w3.org/2000/svg">
<g clip-path="url(#clip0_1_38)">
<path d="M86.6709 34C93.5434 34 100.057 37.0729 104.426 42.3779L117.403 58.1367H229C235.627 58.1367 241 63.5095 241 70.1367V160C241 166.627 235.627 172 229 172H29C22.3726 172 17 166.627 17 160V46C17 39.3726 22.3726 34 29 34H86.6709Z" fill="#1E1D25"/>
<mask id="mask0_1_38" style="mask-type:alpha" maskUnits="userSpaceOnUse" x="17" y="34" width="224" height="138">
<path d="M86.6709 34C93.5434 34 100.057 37.0729 104.426 42.3779L117.403 58.1367H229C235.627 58.1367 241 63.5095 241 70.1367V160C241 166.627 235.627 172 229 172H29C22.3726 172 17 166.627 17 160V46C17 39.3726 22.3726 34 29 34H86.6709Z" fill="url(#paint0_linear_1_38)"/>
</mask>
<g mask="url(#mask0_1_38)">
<g filter="url(#filter0_f_1_38)">
<path d="M241 160C241 166.627 235.627 172 229 172H29C22.3726 172 17 166.627 17 160V86C17 79.3726 22.3726 74 29 74H92.79C97.7649 73.9999 102.605 72.3865 106.586 69.4023L116.46 62H229C235.627 62 241 67.3726 241 74V160Z" fill="black" fill-opacity="0.3"/>
</g>
</g>
<g filter="url(#filter1_ii_1_38)">
<path d="M241 198C241 204.627 235.627 210 229 210H29C22.3726 210 17 204.627 17 198V86C17 79.3726 22.3726 74 29 74H92.79C97.7649 73.9999 102.605 72.3865 106.586 69.4023L116.46 62H229C235.627 62 241 67.3726 241 74V198Z" fill="url(#paint1_linear_1_38)"/>
</g>
<g clip-path="url(#clip1_1_38)">
<path fill-rule="evenodd" clip-rule="evenodd" d="M92.7894 155.363C92.9632 158.671 91.8335 160.15 96.7028 160.498V162.239H82.2685V160.498C85.8334 160.063 86.0071 158.933 86.0071 155.363V133.26C86.0071 129.517 86.0071 130.301 82.4423 127.863V127.079L92.7894 122.816V126.819C95.4847 125.166 97.8325 123.686 101.397 123.686C108.179 123.686 112.788 129.255 112.527 135.261C112.179 144.921 103.919 149.273 95.1372 149.273L92.7894 149.185V155.363ZM92.7894 138.741C92.7894 142.919 93.9202 147.183 98.8758 147.009C104.093 146.748 105.31 141.439 105.31 137.785C105.31 132.737 102.701 127.341 96.7881 127.341C95.2226 127.341 94.0055 127.776 92.7884 128.472V138.741H92.7894ZM127.569 134.826C127.83 130.91 127.742 127.08 122.787 127.08C119.918 127.08 120.091 128.908 120.091 131.085V132.041L115.309 132.389C114.701 132.389 113.831 132.389 113.831 131.693C113.831 129.778 120.526 123.512 127.482 123.686C133.83 123.686 134.525 130.212 134.525 135.261V141.874C134.525 145.356 135.308 145.356 139.394 146.66V147.879C137.221 148.227 134.177 149.532 132.004 149.532C129.656 149.532 128.699 148.575 128.091 146.487C125.657 148.227 123.395 149.532 120.091 149.532C116.44 149.532 113.831 146.835 113.831 143.441C113.831 142.397 113.831 141.352 114.44 140.047L127.569 134.826ZM120.7 139.613C120.614 140.57 120.614 141.44 120.614 142.222C120.614 144.485 121.57 146.399 124.178 146.399C125.57 146.399 126.265 146.313 127.222 145.268V137.175L120.7 139.613ZM163.218 143.789C159.74 147.096 156.611 149.532 151.394 149.532C144.177 149.532 138.872 143.789 138.872 137.175C138.872 129.255 146.004 123.773 154.436 123.686C156.957 123.512 161.305 124.208 161.305 127.167C161.305 128.907 159.74 130.561 157.74 130.561C155.045 130.561 152.61 126.296 150.001 126.557C146.872 126.731 145.307 130.647 145.307 133.259C145.307 138.914 148.96 144.833 155.655 144.833C158.003 144.833 160.089 143.876 161.74 142.397L163.218 143.789ZM170.435 133.085C170.26 139.003 173.913 144.833 180.869 144.833C183.651 144.833 185.302 143.528 187.129 141.613L188.605 142.57C185.824 146.313 181.738 149.532 176.694 149.532C169.476 149.532 163.913 143.963 163.913 136.827C163.913 130.038 169.911 123.686 177.391 123.686C183.738 123.686 187.477 127.689 187.651 133.085H170.435ZM180.261 131.258C180.261 129.43 178.955 125.601 176.088 125.601C172.957 125.687 171.392 128.734 170.782 131.258H180.261ZM199.301 123.425V130.561L199.388 130.647C201.476 127.862 204.17 123.947 208.257 123.947C210.258 123.947 211.996 125.34 211.996 127.079C211.996 129.429 209.474 131.605 207.476 132.476C206.52 131.344 205.214 129.255 203.475 129.517C200.344 129.865 199.997 133.434 199.997 135.696V142.136C200.084 145.268 198.954 147.183 204.169 147.792V149.01H189.041V147.792C193.474 146.748 193.126 146.487 193.126 142.136V133.606C193.126 129.864 193.126 130.647 189.648 128.211V127.341L199.301 123.425Z" fill="white"/>
<path fill-rule="evenodd" clip-rule="evenodd" d="M64.7916 109.762L80.1808 144.572C80.4419 144.921 80.7904 145.703 81.1368 146.313C81.8327 147.182 82.2675 147.879 84.4416 147.792V149.358H69.7483V147.879C69.7483 147.879 74.0954 147.792 72.9657 144.921C72.3572 143.528 70.7916 139.872 70.7916 139.872C70.0957 138.219 70.0094 137.436 67.053 137.436H58.8799C55.4024 137.436 54.9666 138.133 54.1843 140.047C53.5758 141.7 52.5324 143.964 51.8365 145.617C50.8805 147.88 55.1403 147.88 55.1403 147.88V149.359H45.0542V147.793C47.5757 147.88 48.1843 147.009 48.7065 145.791C49.4024 144.224 50.3583 142.222 51.0543 140.57L64.7916 109.762ZM56.3584 135.261H68.6176L62.5312 121.424L56.3584 135.261ZM221.995 124.557H220.866C220.44 123.855 220.005 123.159 219.561 122.468C219.388 122.294 219.213 122.033 219.04 121.859C218.866 121.685 218.691 121.598 218.518 121.51C218.431 121.51 218.169 121.424 217.909 121.424H216.865V124.558H215.997V117.508H219.04C219.388 117.508 219.735 117.594 219.996 117.594C220.344 117.681 220.604 117.768 220.779 117.942C220.953 118.116 221.126 118.377 221.301 118.639C221.388 118.9 221.388 119.161 221.388 119.423C221.388 119.945 221.301 120.379 220.953 120.728C220.604 121.076 220.17 121.251 219.475 121.337C219.997 121.599 220.431 121.946 220.779 122.643L221.995 124.557ZM216.865 120.64H218.778C219.213 120.64 219.475 120.552 219.734 120.552C219.959 120.482 220.147 120.326 220.256 120.117C220.431 119.943 220.517 119.682 220.517 119.421C220.517 119.159 220.344 118.898 220.169 118.637C219.838 118.406 219.444 118.284 219.04 118.289H216.865V120.64Z" fill="white"/>
</g>
</g>
<defs>
<filter id="filter0_f_1_38" x="-20" y="25" width="298" height="184" filterUnits="userSpaceOnUse" color-interpolation-filters="sRGB">
<feFlood flood-opacity="0" result="BackgroundImageFix"/>
<feBlend mode="normal" in="SourceGraphic" in2="BackgroundImageFix" result="shape"/>
<feGaussianBlur stdDeviation="18.5" result="effect1_foregroundBlur_1_38"/>
</filter>
<filter id="filter1_ii_1_38" x="17" y="62" width="224" height="148" filterUnits="userSpaceOnUse" color-interpolation-filters="sRGB">
<feFlood flood-opacity="0" result="BackgroundImageFix"/>
<feBlend mode="normal" in="SourceGraphic" in2="BackgroundImageFix" result="shape"/>
<feColorMatrix in="SourceAlpha" type="matrix" values="0 0 0 0 0 0 0 0 0 0 0 0 0 0 0 0 0 0 127 0" result="hardAlpha"/>
<feOffset dy="4"/>
<feComposite in2="hardAlpha" operator="arithmetic" k2="-1" k3="1"/>
<feColorMatrix type="matrix" values="0 0 0 0 1 0 0 0 0 1 0 0 0 0 1 0 0 0 0.25 0"/>
<feBlend mode="normal" in2="shape" result="effect1_innerShadow_1_38"/>
<feColorMatrix in="SourceAlpha" type="matrix" values="0 0 0 0 0 0 0 0 0 0 0 0 0 0 0 0 0 0 127 0" result="hardAlpha"/>
<feOffset dy="-4"/>
<feComposite in2="hardAlpha" operator="arithmetic" k2="-1" k3="1"/>
<feColorMatrix type="matrix" values="0 0 0 0 0 0 0 0 0 0 0 0 0 0 0 0 0 0 0.9 0"/>
<feBlend mode="soft-light" in2="effect1_innerShadow_1_38" result="effect2_innerShadow_1_38"/>
</filter>
<linearGradient id="paint0_linear_1_38" x1="17" y1="34" x2="197.768" y2="215.142" gradientUnits="userSpaceOnUse">
<stop stop-color="#05815D"/>
<stop offset="1" stop-color="#0C575F"/>
</linearGradient>
<linearGradient id="paint1_linear_1_38" x1="17" y1="62" x2="241" y2="210" gradientUnits="userSpaceOnUse">
<stop stop-color="#3A3949"/>
<stop offset="0.953125" stop-color="#12121B"/>
</linearGradient>
<clipPath id="clip0_1_38">
<rect width="256" height="256" fill="white"/>
</clipPath>
<clipPath id="clip1_1_38">
<rect width="167" height="196" fill="white" transform="translate(45 38)"/>
</clipPath>
</defs>
</svg>
