<svg width="256" height="256" viewBox="0 0 256 256" fill="none" xmlns="http://www.w3.org/2000/svg">
<mask id="path-1-inside-1_741_16855" fill="white">
<path fill-rule="evenodd" clip-rule="evenodd" d="M104.425 42.3784C100.056 37.0733 93.5437 34 86.6712 34H29C22.3726 34 17 39.3726 17 46V58.1371V68.2V160C17 166.627 22.3726 172 29 172H229C235.627 172 241 166.627 241 160V70.1371C241 63.5097 235.627 58.1371 229 58.1371H117.404L104.425 42.3784Z"/>
</mask>
<path d="M104.425 42.3784L65.8293 74.1645L65.8294 74.1645L104.425 42.3784ZM117.404 58.1371L78.8076 89.9232L93.8079 108.137H117.404V58.1371ZM86.6712 84C78.6034 84 70.9582 80.3922 65.8293 74.1645L143.021 10.5923C129.154 -6.24554 108.484 -16 86.6712 -16V84ZM29 84H86.6712V-16H29V84ZM67 46C67 66.9868 49.9868 84 29 84V-16C-5.24165 -16 -33 11.7583 -33 46H67ZM67 58.1371V46H-33V58.1371H67ZM67 68.2V58.1371H-33V68.2H67ZM67 160V68.2H-33V160H67ZM29 122C49.9869 122 67 139.013 67 160H-33C-33 194.242 -5.24171 222 29 222V122ZM229 122H29V222H229V122ZM191 160C191 139.013 208.013 122 229 122V222C263.242 222 291 194.242 291 160H191ZM191 70.1371V160H291V70.1371H191ZM229 108.137C208.013 108.137 191 91.1239 191 70.1371H291C291 35.8955 263.242 8.13714 229 8.13714V108.137ZM117.404 108.137H229V8.13714H117.404V108.137ZM65.8294 74.1645L78.8076 89.9232L155.999 26.351L143.021 10.5923L65.8294 74.1645Z" fill="url(#paint0_linear_741_16855)" mask="url(#path-1-inside-1_741_16855)"/>
<mask id="mask0_741_16855" style="mask-type:alpha" maskUnits="userSpaceOnUse" x="17" y="34" width="224" height="138">
<path fill-rule="evenodd" clip-rule="evenodd" d="M104.425 42.3784C100.056 37.0733 93.5437 34 86.6712 34H29C22.3726 34 17 39.3726 17 46V58.1371V68.2V160C17 166.627 22.3726 172 29 172H229C235.627 172 241 166.627 241 160V70.1371C241 63.5097 235.627 58.1371 229 58.1371H117.404L104.425 42.3784Z" fill="url(#paint1_linear_741_16855)"/>
</mask>
<g mask="url(#mask0_741_16855)">
<g style="mix-blend-mode:multiply" filter="url(#filter0_f_741_16855)">
<path fill-rule="evenodd" clip-rule="evenodd" d="M92.789 74C97.7642 74 102.605 72.3868 106.586 69.4024L116.459 62H229C235.627 62 241 67.3726 241 74V108V160C241 166.627 235.627 172 229 172H29C22.3726 172 17 166.627 17 160L17 108V86C17 79.3726 22.3726 74 29 74H87H92.789Z" fill="black" fill-opacity="0.3"/>
</g>
</g>
<g filter="url(#filter1_ii_741_16855)">
<path fill-rule="evenodd" clip-rule="evenodd" d="M92.789 74C97.7642 74 102.605 72.3868 106.586 69.4024L116.459 62H229C235.627 62 241 67.3726 241 74V108V198C241 204.627 235.627 210 229 210H29C22.3726 210 17 204.627 17 198L17 108V86C17 79.3726 22.3726 74 29 74H87H92.789Z" fill="url(#paint2_linear_741_16855)"/>
</g>
<path d="M143.404 115.091V115.131C143.391 115.134 143.378 115.137 143.364 115.139L123.933 119.081V119.031L143.404 115.091ZM143.404 115.091L147.702 114.222L147.707 114.221C147.962 114.169 148.07 114.159 148.07 114.158C148.07 114.158 148.032 114.161 147.964 114.161C147.917 114.161 147.823 114.159 147.692 114.147C147.69 114.147 147.688 114.146 147.687 114.146C147.329 114.112 146.699 113.996 145.974 113.607C144.823 112.991 144.064 112.03 143.682 111.133C143.463 110.618 143.415 110.238 143.405 110.117C143.405 110.113 143.405 110.109 143.404 110.106M143.404 115.091V110.117C143.404 110.113 143.404 110.109 143.404 110.106M143.404 110.106C143.404 110.086 143.404 110.077 143.403 110.078C143.403 110.078 143.403 110.087 143.404 110.106ZM142.318 153.363L142.388 153.349L142.458 153.333L142.825 153.251C142.825 153.251 142.825 153.251 142.825 153.251C142.628 153.386 142.291 153.549 141.781 153.674C141.387 153.771 140.966 153.827 140.564 153.847C140.997 153.681 141.574 153.515 142.318 153.363ZM150.25 110.117V116.239L117.087 115.643C117.087 113.917 118.32 113.177 119.731 112.897L146.344 107.512C148.771 107.019 150.25 107.3 150.25 110.117ZM110.857 159.792C111.276 159.611 111.832 159.427 112.549 159.251L113.238 159.112C113.18 159.174 113.109 159.233 113.021 159.294C112.515 159.645 111.568 159.922 110.534 159.944C110.622 159.898 110.729 159.847 110.857 159.792ZM110.361 159.842C110.361 159.842 110.36 159.844 110.36 159.847C110.36 159.843 110.361 159.842 110.361 159.842Z" stroke="url(#paint3_linear_741_16855)" stroke-width="13.6913"/>
<defs>
<filter id="filter0_f_741_16855" x="-20" y="25" width="298" height="184" filterUnits="userSpaceOnUse" color-interpolation-filters="sRGB">
<feFlood flood-opacity="0" result="BackgroundImageFix"/>
<feBlend mode="normal" in="SourceGraphic" in2="BackgroundImageFix" result="shape"/>
<feGaussianBlur stdDeviation="18.5" result="effect1_foregroundBlur_741_16855"/>
</filter>
<filter id="filter1_ii_741_16855" x="17" y="62" width="224" height="148" filterUnits="userSpaceOnUse" color-interpolation-filters="sRGB">
<feFlood flood-opacity="0" result="BackgroundImageFix"/>
<feBlend mode="normal" in="SourceGraphic" in2="BackgroundImageFix" result="shape"/>
<feColorMatrix in="SourceAlpha" type="matrix" values="0 0 0 0 0 0 0 0 0 0 0 0 0 0 0 0 0 0 127 0" result="hardAlpha"/>
<feOffset dy="4"/>
<feComposite in2="hardAlpha" operator="arithmetic" k2="-1" k3="1"/>
<feColorMatrix type="matrix" values="0 0 0 0 1 0 0 0 0 1 0 0 0 0 1 0 0 0 0.25 0"/>
<feBlend mode="normal" in2="shape" result="effect1_innerShadow_741_16855"/>
<feColorMatrix in="SourceAlpha" type="matrix" values="0 0 0 0 0 0 0 0 0 0 0 0 0 0 0 0 0 0 127 0" result="hardAlpha"/>
<feOffset dy="-4"/>
<feComposite in2="hardAlpha" operator="arithmetic" k2="-1" k3="1"/>
<feColorMatrix type="matrix" values="0 0 0 0 0 0 0 0 0 0 0 0 0 0 0 0 0 0 0.9 0"/>
<feBlend mode="soft-light" in2="effect1_innerShadow_741_16855" result="effect2_innerShadow_741_16855"/>
</filter>
<linearGradient id="paint0_linear_741_16855" x1="65" y1="209" x2="108.843" y2="15.1796" gradientUnits="userSpaceOnUse">
<stop stop-color="#FF5E4E"/>
<stop offset="0.1505" stop-color="#FF5C6D"/>
<stop offset="0.1694" stop-color="#FF5E73"/>
<stop offset="0.2476" stop-color="#FF6385"/>
<stop offset="0.3026" stop-color="#FF658C"/>
<stop offset="0.3685" stop-color="#E4729F"/>
<stop offset="0.4329" stop-color="#D17CAD"/>
<stop offset="0.4772" stop-color="#CA7FB2"/>
<stop offset="0.5528" stop-color="#9D6CFF"/>
<stop offset="0.5934" stop-color="#9870FF" stop-opacity="0.9882"/>
<stop offset="0.6432" stop-color="#897AFE" stop-opacity="0.9725"/>
<stop offset="0.6979" stop-color="#708CFE" stop-opacity="0.9529"/>
<stop offset="0.7556" stop-color="#4DA4FD" stop-opacity="0.9333"/>
<stop offset="0.8022" stop-color="#2CBCFC" stop-opacity="0.9176"/>
<stop offset="1" stop-color="#00C7FF"/>
</linearGradient>
<linearGradient id="paint1_linear_741_16855" x1="17" y1="34" x2="197.768" y2="215.142" gradientUnits="userSpaceOnUse">
<stop stop-color="#05815D"/>
<stop offset="1" stop-color="#0C575F"/>
</linearGradient>
<linearGradient id="paint2_linear_741_16855" x1="17" y1="62" x2="241" y2="210" gradientUnits="userSpaceOnUse">
<stop stop-color="#F5F6F8"/>
<stop offset="1" stop-color="#EEEEF0"/>
</linearGradient>
<linearGradient id="paint3_linear_741_16855" x1="92.8387" y1="203.672" x2="156.945" y2="84.6456" gradientUnits="userSpaceOnUse">
<stop stop-color="#FF5E4E"/>
<stop offset="0.1505" stop-color="#FF5C6D"/>
<stop offset="0.1694" stop-color="#FF5E73"/>
<stop offset="0.2476" stop-color="#FF6385"/>
<stop offset="0.3026" stop-color="#FF658C"/>
<stop offset="0.3685" stop-color="#E4729F"/>
<stop offset="0.4329" stop-color="#D17CAD"/>
<stop offset="0.4772" stop-color="#CA7FB2"/>
<stop offset="0.5528" stop-color="#9D6CFF"/>
<stop offset="0.5934" stop-color="#9870FF" stop-opacity="0.9882"/>
<stop offset="0.6432" stop-color="#897AFE" stop-opacity="0.9725"/>
<stop offset="0.6979" stop-color="#708CFE" stop-opacity="0.9529"/>
<stop offset="0.7556" stop-color="#4DA4FD" stop-opacity="0.9333"/>
<stop offset="0.8022" stop-color="#2CBCFC" stop-opacity="0.9176"/>
<stop offset="1" stop-color="#00C7FF"/>
</linearGradient>
</defs>
</svg>
