<svg width="256" height="256" viewBox="0 0 256 256" fill="none" xmlns="http://www.w3.org/2000/svg">
<g clip-path="url(#clip0_489_334)">
<path fill-rule="evenodd" clip-rule="evenodd" d="M104.425 42.3784C100.056 37.0733 93.5437 34 86.6712 34H29C22.3726 34 17 39.3726 17 46V58.1371V68.2V160C17 166.627 22.3726 172 29 172H229C235.627 172 241 166.627 241 160V70.1371C241 63.5097 235.627 58.1371 229 58.1371H117.404L104.425 42.3784Z" fill="#2B2A29"/>
<mask id="mask0_489_334" style="mask-type:alpha" maskUnits="userSpaceOnUse" x="17" y="34" width="224" height="138">
<path fill-rule="evenodd" clip-rule="evenodd" d="M104.425 42.3784C100.056 37.0733 93.5437 34 86.6712 34H29C22.3726 34 17 39.3726 17 46V58.1371V68.2V160C17 166.627 22.3726 172 29 172H229C235.627 172 241 166.627 241 160V70.1371C241 63.5097 235.627 58.1371 229 58.1371H117.404L104.425 42.3784Z" fill="url(#paint0_linear_489_334)"/>
</mask>
<g mask="url(#mask0_489_334)">
<g filter="url(#filter0_f_489_334)">
<path fill-rule="evenodd" clip-rule="evenodd" d="M92.789 74C97.7642 74 102.605 72.3868 106.586 69.4024L116.459 62H229C235.627 62 241 67.3726 241 74V108V160C241 166.627 235.627 172 229 172H29C22.3726 172 17 166.627 17 160L17 108V86C17 79.3726 22.3726 74 29 74H87H92.789Z" fill="black" fill-opacity="0.3"/>
</g>
</g>
<g filter="url(#filter1_ii_489_334)">
<path fill-rule="evenodd" clip-rule="evenodd" d="M92.789 74C97.7642 74 102.605 72.3868 106.586 69.4024L116.459 62H229C235.627 62 241 67.3726 241 74V108V198C241 204.627 235.627 210 229 210H29C22.3726 210 17 204.627 17 198L17 108V86C17 79.3726 22.3726 74 29 74H87H92.789Z" fill="url(#paint1_linear_489_334)"/>
</g>
<path d="M55.2284 91H211.139C211.749 91 212.333 91.2421 212.764 91.6731C213.195 92.1041 213.437 92.6887 213.437 93.2982V188.253C213.437 188.863 213.195 189.447 212.764 189.878C212.333 190.309 211.749 190.551 211.139 190.551H55.2265C54.6178 190.551 54.034 190.31 53.6034 189.879C53.1729 189.449 52.9307 188.866 52.9302 188.257V93.2963C52.9307 92.6871 53.1731 92.103 53.604 91.6725C54.0349 91.2419 54.6192 91 55.2284 91Z" fill="#797878"/>
<path d="M211.14 91.0003C211.749 91.0004 212.334 91.2423 212.765 91.6732C213.195 92.1041 213.437 92.6887 213.437 93.2982V188.253C213.437 188.863 213.195 189.447 212.765 189.878C212.334 190.309 211.749 190.551 211.14 190.551H71.164L128.64 91.0003H211.14Z" fill="#4C4B4B"/>
<path d="M67.3088 102.949H199.061C199.575 102.949 200.069 103.154 200.433 103.518C200.797 103.882 201.001 104.375 201.001 104.89V175.819C201.001 176.334 200.797 176.827 200.433 177.191C200.069 177.555 199.575 177.76 199.061 177.76H67.3088C66.7936 177.76 66.2995 177.555 65.9352 177.191C65.5708 176.826 65.3662 176.332 65.3662 175.817V104.892C65.3667 104.377 65.5715 103.883 65.9357 103.519C66.2999 103.155 66.7937 102.95 67.3088 102.949Z" fill="#89E3E3"/>
<path d="M107.643 120.002H76.2787V135.157H107.643V120.002Z" fill="#079DAD"/>
<path d="M140.177 120.002H108.811V135.157H140.177V120.002Z" fill="#5D499D"/>
<path d="M156.391 120.002H141.236V135.157H156.391V120.002Z" fill="#4573B8"/>
<path d="M172.392 120.002H157.241V135.157H172.392V120.002Z" fill="#0A8B44"/>
<path d="M156.391 136.11H141.236V151.263H156.391V136.11Z" fill="#973693"/>
<path d="M91.4321 136.11H76.2787V151.263H91.4321V136.11Z" fill="#58843B"/>
<path d="M91.4321 152.427H76.2787V167.583H91.4321V152.427Z" fill="#5894CE"/>
<path d="M107.804 152.427H92.6486V167.583H107.804V152.427Z" fill="#973693"/>
<path d="M140.177 136.11H108.811V151.263H140.177V136.11Z" fill="#E00A75"/>
<path d="M140.177 152.427H108.811V167.583H140.177V152.427Z" fill="#315DAA"/>
<path d="M172.392 162.498H141.026V167.583H172.392V162.498Z" fill="#BC1F4A"/>
<path d="M172.392 152.427H141.026V162.498H172.392V152.427Z" fill="#F4047C"/>
<path d="M172.392 136.11H157.241V151.263H172.392V136.11Z" fill="#315DAA"/>
<path d="M194.859 136.11H179.704V151.263H194.859V136.11Z" fill="#109C49"/>
<path d="M194.859 152.22H179.704V167.375H194.859V152.22Z" fill="#DA562C"/>
<path d="M201.005 136.11H195.546V151.263H201.005V136.11Z" fill="#8A288F"/>
<path d="M201.005 152.22H195.546V167.375H201.005V152.22Z" fill="#B01E40"/>
<path d="M201.005 120.002H179.704V135.157H201.005V120.002Z" fill="#F69A83"/>
<path d="M100.033 136.11H92.4015V143.742V151.368H100.033H107.662V143.742V136.11H100.033Z" fill="#CBC9B4"/>
<path d="M197.826 107.922H193.693V111.845H197.826V107.922Z" fill="#F69A83"/>
<path d="M76.707 109.032C76.7032 109 76.688 108.975 76.6613 108.958C76.6346 108.94 76.6018 108.932 76.563 108.932C76.5346 108.932 76.5098 108.936 76.4885 108.945C76.4674 108.955 76.4509 108.967 76.439 108.983C76.4273 108.999 76.4215 109.018 76.4215 109.038C76.4215 109.055 76.4256 109.07 76.4337 109.082C76.4421 109.094 76.4527 109.104 76.4656 109.113C76.4786 109.121 76.4921 109.127 76.5063 109.132C76.5205 109.137 76.5336 109.141 76.5455 109.145L76.6106 109.162C76.6273 109.166 76.6458 109.172 76.6663 109.18C76.687 109.188 76.7067 109.198 76.7255 109.212C76.7445 109.225 76.7601 109.242 76.7724 109.263C76.7847 109.283 76.7909 109.309 76.7909 109.339C76.7909 109.373 76.7818 109.405 76.7637 109.433C76.7457 109.46 76.7194 109.483 76.6848 109.499C76.6503 109.516 76.6085 109.524 76.5592 109.524C76.5133 109.524 76.4736 109.517 76.44 109.502C76.4066 109.487 76.3803 109.466 76.3611 109.44C76.3421 109.413 76.3313 109.382 76.3288 109.347H76.409C76.4111 109.372 76.4192 109.392 76.4334 109.407C76.4478 109.423 76.4659 109.435 76.4879 109.443C76.51 109.45 76.5338 109.454 76.5592 109.454C76.5889 109.454 76.6155 109.449 76.6391 109.439C76.6626 109.43 76.6813 109.416 76.6951 109.399C76.7089 109.381 76.7158 109.361 76.7158 109.337C76.7158 109.316 76.7098 109.299 76.6979 109.285C76.686 109.272 76.6704 109.261 76.651 109.253C76.6316 109.244 76.6106 109.237 76.588 109.231L76.5092 109.208C76.4591 109.194 76.4194 109.173 76.3902 109.147C76.361 109.12 76.3464 109.085 76.3464 109.042C76.3464 109.006 76.3561 108.975 76.3755 108.948C76.3951 108.921 76.4214 108.9 76.4544 108.885C76.4875 108.87 76.5246 108.863 76.5655 108.863C76.6068 108.863 76.6436 108.87 76.6757 108.885C76.7078 108.9 76.7333 108.92 76.7521 108.945C76.7711 108.971 76.7811 108.999 76.7821 109.032H76.707ZM77.1176 109.032V109.094H76.8684V109.032H77.1176ZM76.9411 108.917H77.015V109.375C77.015 109.396 77.018 109.411 77.024 109.422C77.0303 109.432 77.0382 109.439 77.0478 109.443C77.0576 109.446 77.068 109.448 77.0788 109.448C77.087 109.448 77.0936 109.447 77.0989 109.446C77.1041 109.445 77.1082 109.444 77.1114 109.444L77.1264 109.51C77.1214 109.512 77.1144 109.514 77.1054 109.516C77.0965 109.518 77.0851 109.519 77.0713 109.519C77.0504 109.519 77.03 109.514 77.0099 109.505C76.9901 109.496 76.9736 109.483 76.9605 109.464C76.9475 109.446 76.9411 109.423 76.9411 109.395V108.917ZM77.3703 109.524C77.3398 109.524 77.3121 109.518 77.2873 109.507C77.2625 109.495 77.2427 109.478 77.2281 109.456C77.2135 109.434 77.2062 109.407 77.2062 109.376C77.2062 109.349 77.2117 109.326 77.2225 109.309C77.2334 109.292 77.2479 109.278 77.266 109.268C77.2842 109.259 77.3042 109.251 77.3261 109.247C77.3482 109.242 77.3705 109.238 77.3928 109.235C77.422 109.231 77.4457 109.228 77.4639 109.226C77.4822 109.224 77.4956 109.221 77.5039 109.216C77.5125 109.211 77.5168 109.203 77.5168 109.191V109.188C77.5168 109.157 77.5083 109.133 77.4914 109.116C77.4747 109.099 77.4494 109.091 77.4153 109.091C77.3801 109.091 77.3524 109.098 77.3324 109.114C77.3124 109.129 77.2983 109.146 77.2901 109.163L77.22 109.138C77.2325 109.109 77.2492 109.086 77.2701 109.07C77.2912 109.054 77.3141 109.042 77.339 109.036C77.364 109.029 77.3886 109.026 77.4128 109.026C77.4283 109.026 77.446 109.027 77.4661 109.031C77.4863 109.035 77.5058 109.042 77.5246 109.053C77.5436 109.065 77.5593 109.082 77.5719 109.104C77.5844 109.127 77.5906 109.158 77.5906 109.196V109.513H77.5168V109.448H77.513C77.508 109.458 77.4997 109.469 77.488 109.481C77.4763 109.493 77.4607 109.503 77.4413 109.511C77.4219 109.52 77.3982 109.524 77.3703 109.524ZM77.3815 109.458C77.4108 109.458 77.4354 109.452 77.4554 109.44C77.4757 109.429 77.4909 109.414 77.5011 109.396C77.5116 109.378 77.5168 109.359 77.5168 109.339V109.271C77.5136 109.275 77.5068 109.278 77.4961 109.281C77.4857 109.284 77.4736 109.287 77.4598 109.289C77.4462 109.291 77.433 109.293 77.42 109.295C77.4073 109.296 77.397 109.297 77.389 109.299C77.3698 109.301 77.3519 109.305 77.3352 109.311C77.3187 109.316 77.3054 109.324 77.2951 109.335C77.2851 109.346 77.2801 109.361 77.2801 109.38C77.2801 109.406 77.2896 109.425 77.3086 109.438C77.3278 109.451 77.3521 109.458 77.3815 109.458ZM77.7255 109.513V109.032H77.7969V109.104H77.8019C77.8106 109.081 77.8265 109.061 77.8495 109.047C77.8724 109.032 77.8983 109.024 77.9271 109.024C77.9325 109.024 77.9393 109.024 77.9474 109.025C77.9556 109.025 77.9617 109.025 77.9659 109.026V109.101C77.9634 109.1 77.9577 109.099 77.9487 109.098C77.9399 109.096 77.9306 109.096 77.9208 109.096C77.8975 109.096 77.8766 109.101 77.8582 109.11C77.8401 109.12 77.8257 109.133 77.815 109.15C77.8046 109.167 77.7994 109.187 77.7994 109.208V109.513H77.7255ZM78.2927 109.032V109.094H78.0435V109.032H78.2927ZM78.1162 108.917H78.1901V109.375C78.1901 109.396 78.1931 109.411 78.1991 109.422C78.2054 109.432 78.2133 109.439 78.2229 109.443C78.2327 109.446 78.2431 109.448 78.2539 109.448C78.2621 109.448 78.2687 109.447 78.274 109.446C78.2792 109.445 78.2833 109.444 78.2865 109.444L78.3015 109.51C78.2965 109.512 78.2895 109.514 78.2805 109.516C78.2716 109.518 78.2602 109.519 78.2464 109.519C78.2255 109.519 78.2051 109.514 78.185 109.505C78.1652 109.496 78.1487 109.483 78.1356 109.464C78.1226 109.446 78.1162 109.423 78.1162 109.395V108.917Z" fill="white"/>
<path d="M186.017 113.583H186.057V113.819C186.057 113.84 186.053 113.858 186.045 113.873C186.037 113.887 186.026 113.899 186.012 113.906C185.998 113.914 185.981 113.918 185.962 113.918C185.944 113.918 185.928 113.914 185.914 113.908C185.9 113.901 185.889 113.892 185.881 113.879C185.873 113.867 185.869 113.853 185.869 113.836H185.908C185.908 113.845 185.91 113.853 185.915 113.86C185.92 113.867 185.926 113.872 185.934 113.876C185.943 113.88 185.952 113.882 185.962 113.882C185.974 113.882 185.984 113.88 185.992 113.875C186 113.87 186.006 113.863 186.01 113.854C186.014 113.844 186.017 113.833 186.017 113.819V113.583ZM186.288 113.812V113.665H186.326V113.913H186.288V113.871H186.285C186.28 113.884 186.27 113.894 186.258 113.903C186.246 113.912 186.23 113.916 186.212 113.916C186.196 113.916 186.182 113.913 186.17 113.906C186.158 113.899 186.149 113.889 186.142 113.875C186.135 113.861 186.132 113.844 186.132 113.823V113.665H186.17V113.82C186.17 113.838 186.175 113.853 186.185 113.863C186.195 113.874 186.208 113.88 186.224 113.88C186.233 113.88 186.243 113.877 186.253 113.872C186.263 113.867 186.271 113.86 186.278 113.85C186.285 113.84 186.288 113.827 186.288 113.812ZM186.571 113.721L186.537 113.73C186.535 113.725 186.532 113.719 186.528 113.714C186.524 113.708 186.518 113.704 186.511 113.7C186.504 113.697 186.495 113.695 186.484 113.695C186.468 113.695 186.456 113.698 186.446 113.705C186.436 113.712 186.431 113.721 186.431 113.732C186.431 113.741 186.434 113.749 186.441 113.754C186.448 113.76 186.459 113.764 186.473 113.768L186.51 113.777C186.532 113.782 186.549 113.791 186.56 113.802C186.57 113.813 186.576 113.827 186.576 113.844C186.576 113.858 186.572 113.871 186.564 113.882C186.556 113.893 186.544 113.902 186.53 113.909C186.515 113.915 186.498 113.918 186.479 113.918C186.454 113.918 186.433 113.913 186.416 113.902C186.4 113.891 186.389 113.875 186.385 113.854L186.421 113.845C186.424 113.858 186.431 113.868 186.44 113.875C186.45 113.881 186.463 113.885 186.478 113.885C186.496 113.885 186.51 113.881 186.521 113.873C186.531 113.866 186.537 113.857 186.537 113.846C186.537 113.837 186.534 113.83 186.527 113.824C186.521 113.818 186.512 113.814 186.5 113.811L186.458 113.801C186.436 113.796 186.419 113.788 186.408 113.776C186.398 113.765 186.393 113.751 186.393 113.734C186.393 113.72 186.396 113.707 186.404 113.697C186.412 113.686 186.423 113.677 186.437 113.671C186.451 113.665 186.466 113.662 186.484 113.662C186.508 113.662 186.527 113.667 186.541 113.678C186.555 113.689 186.565 113.703 186.571 113.721ZM186.741 113.665V113.698H186.613V113.665H186.741ZM186.65 113.606H186.688V113.842C186.688 113.853 186.69 113.861 186.693 113.866C186.696 113.872 186.7 113.875 186.705 113.877C186.71 113.879 186.715 113.88 186.721 113.88C186.725 113.88 186.729 113.879 186.731 113.879C186.734 113.878 186.736 113.878 186.738 113.878L186.746 113.912C186.743 113.913 186.739 113.914 186.735 113.915C186.73 113.916 186.724 113.916 186.717 113.916C186.706 113.916 186.696 113.914 186.686 113.909C186.675 113.905 186.667 113.898 186.66 113.888C186.653 113.879 186.65 113.867 186.65 113.852V113.606ZM186.798 113.913V113.665H186.836V113.913H186.798ZM186.818 113.624C186.81 113.624 186.804 113.621 186.799 113.616C186.793 113.611 186.791 113.605 186.791 113.598C186.791 113.591 186.793 113.585 186.799 113.58C186.804 113.575 186.81 113.572 186.818 113.572C186.825 113.572 186.832 113.575 186.837 113.58C186.842 113.585 186.845 113.591 186.845 113.598C186.845 113.605 186.842 113.611 186.837 113.616C186.832 113.621 186.825 113.624 186.818 113.624ZM186.944 113.764V113.913H186.906V113.665H186.943V113.704H186.946C186.952 113.691 186.961 113.681 186.973 113.674C186.985 113.666 187 113.662 187.019 113.662C187.035 113.662 187.05 113.665 187.063 113.672C187.075 113.679 187.085 113.689 187.092 113.703C187.099 113.717 187.103 113.735 187.103 113.756V113.913H187.064V113.758C187.064 113.739 187.059 113.724 187.049 113.713C187.039 113.702 187.025 113.696 187.008 113.696C186.995 113.696 186.985 113.699 186.975 113.704C186.966 113.709 186.958 113.717 186.953 113.727C186.947 113.737 186.944 113.75 186.944 113.764Z" fill="white"/>
</g>
<defs>
<filter id="filter0_f_489_334" x="-20" y="25" width="298" height="184" filterUnits="userSpaceOnUse" color-interpolation-filters="sRGB">
<feFlood flood-opacity="0" result="BackgroundImageFix"/>
<feBlend mode="normal" in="SourceGraphic" in2="BackgroundImageFix" result="shape"/>
<feGaussianBlur stdDeviation="18.5" result="effect1_foregroundBlur_489_334"/>
</filter>
<filter id="filter1_ii_489_334" x="17" y="62" width="224" height="148" filterUnits="userSpaceOnUse" color-interpolation-filters="sRGB">
<feFlood flood-opacity="0" result="BackgroundImageFix"/>
<feBlend mode="normal" in="SourceGraphic" in2="BackgroundImageFix" result="shape"/>
<feColorMatrix in="SourceAlpha" type="matrix" values="0 0 0 0 0 0 0 0 0 0 0 0 0 0 0 0 0 0 127 0" result="hardAlpha"/>
<feOffset dy="4"/>
<feComposite in2="hardAlpha" operator="arithmetic" k2="-1" k3="1"/>
<feColorMatrix type="matrix" values="0 0 0 0 1 0 0 0 0 1 0 0 0 0 1 0 0 0 0.25 0"/>
<feBlend mode="normal" in2="shape" result="effect1_innerShadow_489_334"/>
<feColorMatrix in="SourceAlpha" type="matrix" values="0 0 0 0 0 0 0 0 0 0 0 0 0 0 0 0 0 0 127 0" result="hardAlpha"/>
<feOffset dy="-4"/>
<feComposite in2="hardAlpha" operator="arithmetic" k2="-1" k3="1"/>
<feColorMatrix type="matrix" values="0 0 0 0 0 0 0 0 0 0 0 0 0 0 0 0 0 0 0.9 0"/>
<feBlend mode="soft-light" in2="effect1_innerShadow_489_334" result="effect2_innerShadow_489_334"/>
</filter>
<linearGradient id="paint0_linear_489_334" x1="17" y1="34" x2="197.768" y2="215.142" gradientUnits="userSpaceOnUse">
<stop stop-color="#05815D"/>
<stop offset="1" stop-color="#0C575F"/>
</linearGradient>
<linearGradient id="paint1_linear_489_334" x1="17" y1="62" x2="241" y2="210" gradientUnits="userSpaceOnUse">
<stop stop-color="#38ECA7"/>
<stop offset="1" stop-color="#029FB1"/>
</linearGradient>
<clipPath id="clip0_489_334">
<rect width="256" height="256" fill="white"/>
</clipPath>
</defs>
</svg>
