<svg width="256" height="256" viewBox="0 0 256 256" fill="none" xmlns="http://www.w3.org/2000/svg">
<g clip-path="url(#clip0_2019_32504)">
<path fill-rule="evenodd" clip-rule="evenodd" d="M104.425 42.3784C100.056 37.0733 93.5437 34 86.6712 34H29C22.3726 34 17 39.3726 17 46V58.1371V68.2V160C17 166.627 22.3726 172 29 172H229C235.627 172 241 166.627 241 160V70.1371C241 63.5097 235.627 58.1371 229 58.1371H117.404L104.425 42.3784Z" fill="#029398"/>
<mask id="mask0_2019_32504" style="mask-type:alpha" maskUnits="userSpaceOnUse" x="17" y="34" width="224" height="138">
<path fill-rule="evenodd" clip-rule="evenodd" d="M104.425 42.3784C100.056 37.0733 93.5437 34 86.6712 34H29C22.3726 34 17 39.3726 17 46V58.1371V68.2V160C17 166.627 22.3726 172 29 172H229C235.627 172 241 166.627 241 160V70.1371C241 63.5097 235.627 58.1371 229 58.1371H117.404L104.425 42.3784Z" fill="url(#paint0_linear_2019_32504)"/>
</mask>
<g mask="url(#mask0_2019_32504)">
<g style="mix-blend-mode:multiply" filter="url(#filter0_f_2019_32504)">
<path fill-rule="evenodd" clip-rule="evenodd" d="M92.789 74C97.7642 74 102.605 72.3868 106.586 69.4024L116.459 62H229C235.627 62 241 67.3726 241 74V108V160C241 166.627 235.627 172 229 172H29C22.3726 172 17 166.627 17 160L17 108V86C17 79.3726 22.3726 74 29 74H87H92.789Z" fill="black" fill-opacity="0.3"/>
</g>
</g>
<g filter="url(#filter1_ii_2019_32504)">
<path fill-rule="evenodd" clip-rule="evenodd" d="M92.789 74C97.7642 74 102.605 72.3868 106.586 69.4024L116.459 62H229C235.627 62 241 67.3726 241 74V108V198C241 204.627 235.627 210 229 210H29C22.3726 210 17 204.627 17 198L17 108V86C17 79.3726 22.3726 74 29 74H87H92.789Z" fill="url(#paint1_linear_2019_32504)"/>
</g>
<path fill-rule="evenodd" clip-rule="evenodd" d="M55 141.416V130.267C55.2338 130.151 55.2338 129.919 55.2338 129.687C58.7402 114.472 68.3246 105.297 83.5194 101.697C84.8051 101.348 86.2077 101.465 87.4934 101H94.9739C95.0908 101.232 95.4414 101.116 95.6752 101.116C103.156 101.929 109.935 104.6 115.896 109.246C121.039 113.079 125.013 117.957 128.636 123.182C129.103 123.879 129.338 123.879 129.805 123.182C131.909 120.163 134.13 117.26 136.701 114.588C142.896 107.968 150.377 103.323 159.493 101.697C160.779 101.348 162.298 101.465 163.584 101H170.831C170.947 101.232 171.182 101.116 171.415 101.116C173.636 101.348 175.74 101.813 177.844 102.394C193.506 106.923 204.61 121.208 203.675 137.352C202.973 150.941 196.077 160.696 184.038 166.851C178.078 170.104 171.532 170.917 164.753 170.8C155.87 170.684 148.156 167.664 141.493 161.858C136.818 157.792 133.195 152.915 129.805 147.804C129.338 147.108 129.103 147.224 128.636 147.921C126.532 151.057 124.311 154.192 121.74 157.212C117.182 162.322 111.922 166.503 105.376 168.71C97.3116 171.497 89.1298 171.613 80.948 169.407C69.1428 166.038 61.0779 158.605 56.6364 147.224C55.935 145.366 55.5844 143.275 55 141.416ZM92.1687 158.489C98.831 158.721 104.558 156.515 109.467 151.986C114.493 147.34 118.116 141.533 121.74 135.842C121.857 135.494 121.857 135.262 121.623 134.913C118.584 130.151 115.428 125.39 111.221 121.44C103.156 113.775 93.6882 111.22 83.0519 114.588C74.2856 117.492 68.6753 123.647 67.3896 132.938C66.1039 141.649 69.4935 148.617 76.5064 153.844C81.1817 157.212 86.4415 158.605 92.1687 158.489ZM166.272 158.489C168.843 158.489 171.415 158.373 173.87 157.676C183.103 154.889 189.181 149.198 190.935 139.675C192.688 130.267 189.065 122.718 181.117 117.376C172.351 111.337 159.61 111.917 150.727 118.537C144.766 122.95 140.792 128.874 136.818 135.029C136.584 135.378 136.701 135.61 136.818 135.958C139.974 140.952 143.13 145.946 147.221 150.243C152.363 155.702 158.558 158.838 166.272 158.489Z" fill="white"/>
<path fill-rule="evenodd" clip-rule="evenodd" d="M92.0534 132.126C95.7936 132.126 99.6507 132.243 103.391 132.126C104.326 132.126 104.443 132.359 104.443 133.288C104.326 134.334 104.326 135.379 104.443 136.424C104.56 137.353 104.326 137.585 103.274 137.585H88.3131C85.7417 137.585 83.1702 137.469 80.5988 137.585C79.7806 137.585 79.5469 137.353 79.5469 136.424C79.6638 135.379 79.6638 134.334 79.5469 133.172C79.5469 132.359 79.7806 132.126 80.5988 132.126C84.3391 132.243 88.1962 132.126 92.0534 132.126ZM165.69 124.693C166.624 124.693 167.559 124.809 168.378 124.693C168.962 124.693 169.196 124.926 169.196 125.506C169.079 127.133 169.196 128.759 169.079 130.384C169.079 131.197 169.313 131.43 170.131 131.43C171.65 131.314 173.287 131.43 174.923 131.314C175.625 131.314 175.858 131.43 175.858 132.243V137.585C175.858 138.166 175.625 138.398 175.04 138.398C173.404 138.282 171.767 138.398 170.014 138.282C169.313 138.282 169.079 138.514 169.079 139.211C169.196 140.837 169.079 142.463 169.196 144.089C169.196 144.786 168.962 145.135 168.261 145.135C166.507 145.018 164.755 145.018 163.001 145.135C162.3 145.135 162.066 144.902 162.066 144.205C162.183 142.463 162.066 140.837 162.183 139.095C162.183 138.514 161.949 138.282 161.365 138.282C159.728 138.398 158.092 138.282 156.456 138.398C155.52 138.398 155.404 138.05 155.404 137.353C155.404 135.727 155.52 134.101 155.404 132.475C155.287 131.546 155.755 131.314 156.572 131.314C158.209 131.43 159.728 131.314 161.365 131.43C161.949 131.43 162.183 131.197 162.183 130.617C162.066 128.991 162.183 127.249 162.066 125.623C162.066 124.926 162.3 124.693 163.001 124.693C163.936 124.809 164.755 124.693 165.69 124.693Z" fill="white"/>
</g>
<defs>
<filter id="filter0_f_2019_32504" x="-20" y="25" width="298" height="184" filterUnits="userSpaceOnUse" color-interpolation-filters="sRGB">
<feFlood flood-opacity="0" result="BackgroundImageFix"/>
<feBlend mode="normal" in="SourceGraphic" in2="BackgroundImageFix" result="shape"/>
<feGaussianBlur stdDeviation="18.5" result="effect1_foregroundBlur_2019_32504"/>
</filter>
<filter id="filter1_ii_2019_32504" x="17" y="62" width="224" height="148" filterUnits="userSpaceOnUse" color-interpolation-filters="sRGB">
<feFlood flood-opacity="0" result="BackgroundImageFix"/>
<feBlend mode="normal" in="SourceGraphic" in2="BackgroundImageFix" result="shape"/>
<feColorMatrix in="SourceAlpha" type="matrix" values="0 0 0 0 0 0 0 0 0 0 0 0 0 0 0 0 0 0 127 0" result="hardAlpha"/>
<feOffset dy="-4"/>
<feComposite in2="hardAlpha" operator="arithmetic" k2="-1" k3="1"/>
<feColorMatrix type="matrix" values="0 0 0 0 0 0 0 0 0 0 0 0 0 0 0 0 0 0 0.25 0"/>
<feBlend mode="normal" in2="shape" result="effect1_innerShadow_2019_32504"/>
<feColorMatrix in="SourceAlpha" type="matrix" values="0 0 0 0 0 0 0 0 0 0 0 0 0 0 0 0 0 0 127 0" result="hardAlpha"/>
<feOffset dy="4"/>
<feComposite in2="hardAlpha" operator="arithmetic" k2="-1" k3="1"/>
<feColorMatrix type="matrix" values="0 0 0 0 1 0 0 0 0 1 0 0 0 0 1 0 0 0 0.25 0"/>
<feBlend mode="normal" in2="effect1_innerShadow_2019_32504" result="effect2_innerShadow_2019_32504"/>
</filter>
<linearGradient id="paint0_linear_2019_32504" x1="17" y1="34" x2="197.768" y2="215.142" gradientUnits="userSpaceOnUse">
<stop stop-color="#05815D"/>
<stop offset="1" stop-color="#0C575F"/>
</linearGradient>
<linearGradient id="paint1_linear_2019_32504" x1="17" y1="62" x2="241" y2="210" gradientUnits="userSpaceOnUse">
<stop stop-color="#07A7AD"/>
<stop offset="1" stop-color="#029196"/>
</linearGradient>
<clipPath id="clip0_2019_32504">
<rect width="256" height="256" fill="white"/>
</clipPath>
</defs>
</svg>
