<svg width="256" height="256" viewBox="0 0 256 256" fill="none" xmlns="http://www.w3.org/2000/svg">
<path fill-rule="evenodd" clip-rule="evenodd" d="M104.425 42.3784C100.056 37.0733 93.5437 34 86.6712 34H29C22.3726 34 17 39.3726 17 46V58.1371V68.2V160C17 166.627 22.3726 172 29 172H229C235.627 172 241 166.627 241 160V70.1371C241 63.5097 235.627 58.1371 229 58.1371H117.404L104.425 42.3784Z" fill="#BA2340"/>
<mask id="mask0_758_21432" style="mask-type:alpha" maskUnits="userSpaceOnUse" x="17" y="34" width="224" height="138">
<path fill-rule="evenodd" clip-rule="evenodd" d="M104.425 42.3784C100.056 37.0733 93.5437 34 86.6712 34H29C22.3726 34 17 39.3726 17 46V58.1371V68.2V160C17 166.627 22.3726 172 29 172H229C235.627 172 241 166.627 241 160V70.1371C241 63.5097 235.627 58.1371 229 58.1371H117.404L104.425 42.3784Z" fill="url(#paint0_linear_758_21432)"/>
</mask>
<g mask="url(#mask0_758_21432)">
<g style="mix-blend-mode:multiply" filter="url(#filter0_f_758_21432)">
<path fill-rule="evenodd" clip-rule="evenodd" d="M92.789 74C97.7642 74 102.605 72.3868 106.586 69.4024L116.459 62H229C235.627 62 241 67.3726 241 74V108V160C241 166.627 235.627 172 229 172H29C22.3726 172 17 166.627 17 160L17 108V86C17 79.3726 22.3726 74 29 74H87H92.789Z" fill="black" fill-opacity="0.3"/>
</g>
</g>
<g filter="url(#filter1_ii_758_21432)">
<path fill-rule="evenodd" clip-rule="evenodd" d="M92.789 74C97.7642 74 102.605 72.3868 106.586 69.4024L116.459 62H229C235.627 62 241 67.3726 241 74V108V198C241 204.627 235.627 210 229 210H29C22.3726 210 17 204.627 17 198L17 108V86C17 79.3726 22.3726 74 29 74H87H92.789Z" fill="url(#paint1_linear_758_21432)"/>
</g>
<path fill-rule="evenodd" clip-rule="evenodd" d="M146.375 98.6175C146.108 98.6954 146.039 98.8149 145.775 99.0407C145.563 99.2224 145.384 99.3513 145.177 99.5288C144.705 99.9353 144.428 100.187 144.013 100.536C141.953 102.269 139.159 104.969 137.139 106.859C134.007 109.793 131.184 112.617 128.178 115.535C122.511 121.036 116.088 127.643 110.415 132.947C105.727 137.33 101.706 141.267 96.8071 145.649C94.9349 147.323 93.7554 148.849 91.2062 148.937C86.9993 149.082 81.4499 145.501 78.612 143.873C76.132 142.45 69.5454 138.577 66.37 138.469L68.6964 141.665C70.3599 144.203 73.1567 149.732 74.4999 152.422C79.1147 161.664 85.3447 171.342 93.274 177.78C95.3014 179.426 97.1384 180.809 99.7136 182.368C100.843 183.051 101.996 183.619 103.259 184.335C103.697 184.582 106.734 186.001 107.108 186C106.277 185.166 105.421 184.148 104.745 183.353C101.726 179.803 95.0112 172.901 92.9943 169.378C91.3007 166.42 90.9116 164.609 92.7935 161.64C94.9449 158.246 99.9618 154.046 103.109 151.354C110.768 144.804 117.675 138.871 125.689 132.651C129.486 129.705 133.433 126.698 137.517 123.785C141.522 120.927 145.549 118.173 149.73 115.409L156.045 111.391C156.63 111.055 162.382 107.631 162.473 107.516L168.101 104.412C169.991 103.344 171.826 102.453 173.828 101.375C179.701 98.2122 191.364 93.0575 198.048 90.6996C200.242 89.9257 202.332 89.1946 204.551 88.4364L211.202 86.3531C210.664 86.0764 203.315 86.0002 201.962 86C196.513 85.9992 193.17 86.1512 187.968 86.5622C183.987 86.8767 176.578 87.694 172.958 88.5693C172.306 88.7268 171.535 88.7941 170.879 88.9669C169.623 89.2976 168.186 89.5251 166.901 89.8452C164.25 90.5052 161.843 91.2529 159.352 91.9958C156.788 92.7603 154.468 93.6665 152.174 94.6103C150.819 95.168 146.723 97.9063 146.375 98.6177L146.375 98.6175ZM199.596 111.779L204.432 109.31C206.11 108.511 207.845 107.593 209.425 106.82C212.631 105.254 214.477 100.178 214.431 96.9237C213.865 96.9475 211.561 98.0392 210.936 98.2681C210.506 98.4254 210.11 98.5608 209.707 98.732C206.851 99.9455 203.038 101.38 200.331 102.658C199.545 103.029 198.785 103.336 197.989 103.677C197.365 103.945 195.988 104.486 195.731 104.804C194.871 104.76 177.373 113.432 175.192 114.56C172.087 116.165 168.181 118.09 165.197 119.751C164.843 119.947 155.744 124.763 155.381 125.227C154.782 125.327 148.545 129.031 147.549 129.593C135.207 136.557 121.538 145.318 109.716 153.336C106.431 155.564 102.235 158.487 98.9326 160.975L96.282 162.954C95.9773 163.186 95.6179 163.34 95.4423 163.689C96.6209 164.703 104.429 167.92 106.291 168.592C116.746 172.36 126.531 174.985 137.53 176.873L144.511 177.94L150.009 178.425L145.531 178.03C146.386 178.127 147.234 178.266 148.066 178.346C149.295 178.463 150.515 178.564 151.782 178.691C154.168 178.93 156.938 179.093 159.39 179.136C162.439 179.19 164.119 179.345 166.618 178.29C168.556 177.472 170.133 176.454 171.673 175.273C177.41 170.877 182.514 164.001 186.586 157.778C190.847 151.266 194.685 143.989 197.993 136.78C199.679 133.109 201.259 129.278 202.748 125.376C203.502 123.398 204.157 121.487 204.838 119.388C205.216 118.227 206.588 113.985 206.693 113.037C205.128 113.251 177.766 128.014 175.162 129.411C171.631 131.307 168.25 133.282 164.824 135.142C161.495 136.951 157.973 139.088 154.66 140.929C147.93 144.67 141.151 148.837 134.43 152.728C133.278 153.396 124.719 158.399 124.411 158.751C124.987 158.658 152.122 147.005 152.779 146.734C154.059 146.205 180.701 134.772 181.138 134.753C180.985 135.369 179.336 138.447 178.92 139.352C178.226 140.86 177.39 142.576 176.632 144.075C172.336 152.575 167.673 162.78 158.292 166.547L157.729 166.885C157.226 166.897 155.853 167.455 155.247 167.621C154.335 167.872 153.454 168.046 152.535 168.234C148.212 169.119 141.676 168.657 137.17 167.953C132.032 167.149 128.435 166.247 123.455 165.043C122.266 164.756 113.673 162.342 113.177 162.014C113.457 161.526 118.371 158.377 118.801 158.078C128.309 151.469 144.103 141.757 154.375 135.913C155.462 135.295 156.472 134.733 157.466 134.163C158.293 133.689 159.805 132.9 160.473 132.415L165.279 129.779C166.904 128.877 168.396 128.096 170.108 127.12C173.343 125.273 176.622 123.725 179.807 121.931C180.275 121.667 198.463 112.11 199.596 111.779L199.596 111.779ZM75.9561 161.667C75.7671 161.265 72.4829 157.781 71.8304 157.052C67.6886 152.428 63.6734 148.12 59.5105 143.261C56.6104 139.876 54.0269 136.758 51.5622 133.767C50.5308 132.516 44.8708 125.411 44.0061 123.962C43.8957 124.241 45.3206 130.065 45.531 130.83C45.8536 132.004 46.1032 133.074 46.4323 134.272C49.6485 145.981 52.8627 150.413 63.9379 156.072C65.3022 156.769 75.2197 161.566 75.9561 161.667Z" fill="white"/>
<defs>
<filter id="filter0_f_758_21432" x="-20" y="25" width="298" height="184" filterUnits="userSpaceOnUse" color-interpolation-filters="sRGB">
<feFlood flood-opacity="0" result="BackgroundImageFix"/>
<feBlend mode="normal" in="SourceGraphic" in2="BackgroundImageFix" result="shape"/>
<feGaussianBlur stdDeviation="18.5" result="effect1_foregroundBlur_758_21432"/>
</filter>
<filter id="filter1_ii_758_21432" x="17" y="62" width="224" height="148" filterUnits="userSpaceOnUse" color-interpolation-filters="sRGB">
<feFlood flood-opacity="0" result="BackgroundImageFix"/>
<feBlend mode="normal" in="SourceGraphic" in2="BackgroundImageFix" result="shape"/>
<feColorMatrix in="SourceAlpha" type="matrix" values="0 0 0 0 0 0 0 0 0 0 0 0 0 0 0 0 0 0 127 0" result="hardAlpha"/>
<feOffset dy="4"/>
<feComposite in2="hardAlpha" operator="arithmetic" k2="-1" k3="1"/>
<feColorMatrix type="matrix" values="0 0 0 0 1 0 0 0 0 1 0 0 0 0 1 0 0 0 0.25 0"/>
<feBlend mode="normal" in2="shape" result="effect1_innerShadow_758_21432"/>
<feColorMatrix in="SourceAlpha" type="matrix" values="0 0 0 0 0 0 0 0 0 0 0 0 0 0 0 0 0 0 127 0" result="hardAlpha"/>
<feOffset dy="-4"/>
<feComposite in2="hardAlpha" operator="arithmetic" k2="-1" k3="1"/>
<feColorMatrix type="matrix" values="0 0 0 0 0 0 0 0 0 0 0 0 0 0 0 0 0 0 0.9 0"/>
<feBlend mode="soft-light" in2="effect1_innerShadow_758_21432" result="effect2_innerShadow_758_21432"/>
</filter>
<linearGradient id="paint0_linear_758_21432" x1="17" y1="34" x2="197.768" y2="215.142" gradientUnits="userSpaceOnUse">
<stop stop-color="#05815D"/>
<stop offset="1" stop-color="#0C575F"/>
</linearGradient>
<linearGradient id="paint1_linear_758_21432" x1="17" y1="62" x2="241" y2="210" gradientUnits="userSpaceOnUse">
<stop stop-color="#F5272C"/>
<stop offset="1" stop-color="#85186A"/>
</linearGradient>
</defs>
</svg>
