<svg width="256" height="256" viewBox="0 0 256 256" fill="none" xmlns="http://www.w3.org/2000/svg">
<path fill-rule="evenodd" clip-rule="evenodd" d="M104.425 42.3784C100.056 37.0733 93.5437 34 86.6712 34H29C22.3726 34 17 39.3726 17 46V58.1371V68.2V160C17 166.627 22.3726 172 29 172H229C235.627 172 241 166.627 241 160V70.1371C241 63.5097 235.627 58.1371 229 58.1371H117.404L104.425 42.3784Z" fill="#131313"/>
<mask id="mask0_758_21492" style="mask-type:alpha" maskUnits="userSpaceOnUse" x="17" y="34" width="224" height="138">
<path fill-rule="evenodd" clip-rule="evenodd" d="M104.425 42.3784C100.056 37.0733 93.5437 34 86.6712 34H29C22.3726 34 17 39.3726 17 46V58.1371V68.2V160C17 166.627 22.3726 172 29 172H229C235.627 172 241 166.627 241 160V70.1371C241 63.5097 235.627 58.1371 229 58.1371H117.404L104.425 42.3784Z" fill="url(#paint0_linear_758_21492)"/>
</mask>
<g mask="url(#mask0_758_21492)">
<g style="mix-blend-mode:multiply" filter="url(#filter0_f_758_21492)">
<path fill-rule="evenodd" clip-rule="evenodd" d="M92.789 74C97.7642 74 102.605 72.3868 106.586 69.4024L116.459 62H229C235.627 62 241 67.3726 241 74V108V160C241 166.627 235.627 172 229 172H29C22.3726 172 17 166.627 17 160L17 108V86C17 79.3726 22.3726 74 29 74H87H92.789Z" fill="black" fill-opacity="0.3"/>
</g>
</g>
<g filter="url(#filter1_ii_758_21492)">
<path fill-rule="evenodd" clip-rule="evenodd" d="M92.789 74C97.7642 74 102.605 72.3868 106.586 69.4024L116.459 62H229C235.627 62 241 67.3726 241 74V108V198C241 204.627 235.627 210 229 210H29C22.3726 210 17 204.627 17 198L17 108V86C17 79.3726 22.3726 74 29 74H87H92.789Z" fill="url(#paint1_linear_758_21492)"/>
</g>
<path fill-rule="evenodd" clip-rule="evenodd" d="M72.0401 114.069L72.1326 137.141L76.9884 139.924C79.6592 141.455 84.9622 144.508 88.7724 146.707C92.583 148.907 95.8609 150.707 96.0562 150.707C96.4742 150.707 96.5533 105.44 96.1368 104.798C95.9915 104.573 93.6873 103.134 91.0165 101.599C77.419 93.7851 74.2317 91.9366 73.581 91.4874C71.8908 90.3195 71.9416 89.5745 72.0401 114.069ZM177.703 95.6706C173.252 98.2378 167.954 101.271 165.929 102.412L162.248 104.486L162.242 114.84C162.237 124.615 162.271 125.175 162.87 124.855C163.412 124.564 169.191 121.24 183.188 113.164L186.336 111.348V101.173C186.336 95.576 186.215 90.9986 186.066 91C185.917 91.0014 182.154 93.1031 177.703 95.6706ZM102.047 108.502C101.915 108.634 101.807 122.13 101.807 138.494V168.245L113.565 175.033C120.033 178.766 125.455 181.874 125.615 181.94C125.776 182.006 125.907 168.484 125.907 151.891V121.723L122.76 119.907C106.8 110.699 102.544 108.262 102.425 108.262C102.349 108.262 102.179 108.37 102.047 108.502ZM153.424 109.636C152.237 110.368 147.019 113.393 141.829 116.359L132.393 121.751L132.387 151.876C132.384 168.444 132.452 182 132.538 182C132.624 182 138.006 178.934 144.497 175.187L156.301 168.375L156.393 138.319C156.466 114.383 156.393 108.267 156.034 108.284C155.785 108.295 154.611 108.903 153.424 109.636ZM179.681 120.248C176.12 122.29 170.738 125.389 167.722 127.134L162.236 130.309V140.507C162.236 146.117 162.321 150.707 162.425 150.707C162.529 150.707 165.888 148.822 169.889 146.519C173.89 144.215 179.16 141.197 181.601 139.812C184.042 138.427 186.108 137.113 186.193 136.892C186.278 136.67 186.304 131.999 186.252 126.513L186.156 116.537L179.681 120.248Z" fill="url(#paint2_linear_758_21492)"/>
<defs>
<filter id="filter0_f_758_21492" x="-20" y="25" width="298" height="184" filterUnits="userSpaceOnUse" color-interpolation-filters="sRGB">
<feFlood flood-opacity="0" result="BackgroundImageFix"/>
<feBlend mode="normal" in="SourceGraphic" in2="BackgroundImageFix" result="shape"/>
<feGaussianBlur stdDeviation="18.5" result="effect1_foregroundBlur_758_21492"/>
</filter>
<filter id="filter1_ii_758_21492" x="17" y="62" width="224" height="148" filterUnits="userSpaceOnUse" color-interpolation-filters="sRGB">
<feFlood flood-opacity="0" result="BackgroundImageFix"/>
<feBlend mode="normal" in="SourceGraphic" in2="BackgroundImageFix" result="shape"/>
<feColorMatrix in="SourceAlpha" type="matrix" values="0 0 0 0 0 0 0 0 0 0 0 0 0 0 0 0 0 0 127 0" result="hardAlpha"/>
<feOffset dy="4"/>
<feComposite in2="hardAlpha" operator="arithmetic" k2="-1" k3="1"/>
<feColorMatrix type="matrix" values="0 0 0 0 1 0 0 0 0 1 0 0 0 0 1 0 0 0 0.25 0"/>
<feBlend mode="normal" in2="shape" result="effect1_innerShadow_758_21492"/>
<feColorMatrix in="SourceAlpha" type="matrix" values="0 0 0 0 0 0 0 0 0 0 0 0 0 0 0 0 0 0 127 0" result="hardAlpha"/>
<feOffset dy="-4"/>
<feComposite in2="hardAlpha" operator="arithmetic" k2="-1" k3="1"/>
<feColorMatrix type="matrix" values="0 0 0 0 0 0 0 0 0 0 0 0 0 0 0 0 0 0 0.9 0"/>
<feBlend mode="soft-light" in2="effect1_innerShadow_758_21492" result="effect2_innerShadow_758_21492"/>
</filter>
<linearGradient id="paint0_linear_758_21492" x1="17" y1="34" x2="197.768" y2="215.142" gradientUnits="userSpaceOnUse">
<stop stop-color="#05815D"/>
<stop offset="1" stop-color="#0C575F"/>
</linearGradient>
<linearGradient id="paint1_linear_758_21492" x1="17" y1="62" x2="241" y2="210" gradientUnits="userSpaceOnUse">
<stop stop-color="#2E2E2E"/>
<stop offset="1" stop-color="#101010"/>
</linearGradient>
<linearGradient id="paint2_linear_758_21492" x1="129.168" y1="91" x2="129.168" y2="182" gradientUnits="userSpaceOnUse">
<stop stop-color="#F5D39A"/>
<stop offset="1" stop-color="#E8AE39"/>
</linearGradient>
</defs>
</svg>
