<svg width="256" height="256" viewBox="0 0 256 256" fill="none" xmlns="http://www.w3.org/2000/svg">
<path fill-rule="evenodd" clip-rule="evenodd" d="M104.425 42.3784C100.056 37.0733 93.5437 34 86.6712 34H29C22.3726 34 17 39.3726 17 46V58.1371V68.2V160C17 166.627 22.3726 172 29 172H229C235.627 172 241 166.627 241 160V70.1371C241 63.5097 235.627 58.1371 229 58.1371H117.404L104.425 42.3784Z" fill="#0D5454"/>
<mask id="mask0_727_17526" style="mask-type:alpha" maskUnits="userSpaceOnUse" x="17" y="34" width="224" height="138">
<path fill-rule="evenodd" clip-rule="evenodd" d="M104.425 42.3784C100.056 37.0733 93.5437 34 86.6712 34H29C22.3726 34 17 39.3726 17 46V58.1371V68.2V160C17 166.627 22.3726 172 29 172H229C235.627 172 241 166.627 241 160V70.1371C241 63.5097 235.627 58.1371 229 58.1371H117.404L104.425 42.3784Z" fill="url(#paint0_linear_727_17526)"/>
</mask>
<g mask="url(#mask0_727_17526)">
<g style="mix-blend-mode:multiply" filter="url(#filter0_f_727_17526)">
<path fill-rule="evenodd" clip-rule="evenodd" d="M92.789 74C97.7642 74 102.605 72.3868 106.586 69.4024L116.459 62H229C235.627 62 241 67.3726 241 74V108V160C241 166.627 235.627 172 229 172H29C22.3726 172 17 166.627 17 160L17 108V86C17 79.3726 22.3726 74 29 74H87H92.789Z" fill="black" fill-opacity="0.3"/>
</g>
</g>
<g filter="url(#filter1_ii_727_17526)">
<path fill-rule="evenodd" clip-rule="evenodd" d="M92.789 74C97.7642 74 102.605 72.3868 106.586 69.4024L116.459 62H229C235.627 62 241 67.3726 241 74V108V198C241 204.627 235.627 210 229 210H29C22.3726 210 17 204.627 17 198L17 108V86C17 79.3726 22.3726 74 29 74H87H92.789Z" fill="url(#paint1_linear_727_17526)"/>
</g>
<path d="M109.423 168.836C108.052 172.493 95.9031 173.026 90 172.835C95.1414 165.409 106.224 147.357 109.423 134.561V168.836Z" fill="url(#paint2_linear_727_17526)"/>
<path d="M90 172.836V100.285H109.423V134.561C106.224 147.357 95.1414 165.409 90 172.836Z" fill="url(#paint3_linear_727_17526)"/>
<path d="M112.851 98C109.652 98.914 96.2839 99.9042 90 100.285C92.7421 106.226 112.851 141.607 122.562 158.554H137.415C137.005 158.144 133.587 149.893 129.238 139.131C123.898 125.916 117.154 108.915 112.851 98Z" fill="url(#paint4_linear_727_17526)"/>
<path d="M149.412 100.285V169.98C149.412 170.811 150.287 171.43 151.697 171.882C165.407 140.956 168.835 111.265 168.835 100.285H149.412Z" fill="url(#paint5_linear_727_17526)"/>
<path d="M168.835 172.836V100.285C168.835 111.265 165.407 140.956 151.697 171.882C155.708 173.17 164.044 173.118 168.835 172.836Z" fill="url(#paint6_linear_727_17526)"/>
<path d="M168.835 100.285C166.55 105.769 146.936 141.416 137.415 158.554C137.005 158.144 133.587 149.893 129.238 139.131L145.413 100.285H168.835Z" fill="url(#paint7_linear_727_17526)"/>
<defs>
<filter id="filter0_f_727_17526" x="-20" y="25" width="298" height="184" filterUnits="userSpaceOnUse" color-interpolation-filters="sRGB">
<feFlood flood-opacity="0" result="BackgroundImageFix"/>
<feBlend mode="normal" in="SourceGraphic" in2="BackgroundImageFix" result="shape"/>
<feGaussianBlur stdDeviation="18.5" result="effect1_foregroundBlur_727_17526"/>
</filter>
<filter id="filter1_ii_727_17526" x="17" y="62" width="224" height="148" filterUnits="userSpaceOnUse" color-interpolation-filters="sRGB">
<feFlood flood-opacity="0" result="BackgroundImageFix"/>
<feBlend mode="normal" in="SourceGraphic" in2="BackgroundImageFix" result="shape"/>
<feColorMatrix in="SourceAlpha" type="matrix" values="0 0 0 0 0 0 0 0 0 0 0 0 0 0 0 0 0 0 127 0" result="hardAlpha"/>
<feOffset dy="-4"/>
<feComposite in2="hardAlpha" operator="arithmetic" k2="-1" k3="1"/>
<feColorMatrix type="matrix" values="0 0 0 0 0 0 0 0 0 0 0 0 0 0 0 0 0 0 0.25 0"/>
<feBlend mode="normal" in2="shape" result="effect1_innerShadow_727_17526"/>
<feColorMatrix in="SourceAlpha" type="matrix" values="0 0 0 0 0 0 0 0 0 0 0 0 0 0 0 0 0 0 127 0" result="hardAlpha"/>
<feOffset dy="4"/>
<feComposite in2="hardAlpha" operator="arithmetic" k2="-1" k3="1"/>
<feColorMatrix type="matrix" values="0 0 0 0 1 0 0 0 0 1 0 0 0 0 1 0 0 0 0.25 0"/>
<feBlend mode="normal" in2="effect1_innerShadow_727_17526" result="effect2_innerShadow_727_17526"/>
</filter>
<linearGradient id="paint0_linear_727_17526" x1="17" y1="34" x2="197.768" y2="215.142" gradientUnits="userSpaceOnUse">
<stop stop-color="#05815D"/>
<stop offset="1" stop-color="#0C575F"/>
</linearGradient>
<linearGradient id="paint1_linear_727_17526" x1="17" y1="62" x2="241" y2="210" gradientUnits="userSpaceOnUse">
<stop stop-color="#DDFEFF"/>
<stop offset="1" stop-color="#82F4F4"/>
</linearGradient>
<linearGradient id="paint2_linear_727_17526" x1="99.7115" y1="134.561" x2="99.7115" y2="172.869" gradientUnits="userSpaceOnUse">
<stop stop-color="#198A8D"/>
<stop offset="1" stop-color="#2A616A"/>
</linearGradient>
<linearGradient id="paint3_linear_727_17526" x1="99.7115" y1="100.285" x2="99.7115" y2="172.836" gradientUnits="userSpaceOnUse">
<stop stop-color="#13787C"/>
<stop offset="1" stop-color="#289798"/>
</linearGradient>
<linearGradient id="paint4_linear_727_17526" x1="105.995" y1="98" x2="127.704" y2="158.554" gradientUnits="userSpaceOnUse">
<stop stop-color="#90C1C7"/>
<stop offset="1" stop-color="#377B7D"/>
</linearGradient>
<linearGradient id="paint5_linear_727_17526" x1="159.123" y1="100.285" x2="159.123" y2="171.882" gradientUnits="userSpaceOnUse">
<stop stop-color="#209999"/>
<stop offset="1" stop-color="#106D70"/>
</linearGradient>
<linearGradient id="paint6_linear_727_17526" x1="159.123" y1="100.285" x2="159.123" y2="173" gradientUnits="userSpaceOnUse">
<stop stop-color="#48A4AD"/>
<stop offset="1" stop-color="#177880"/>
</linearGradient>
<linearGradient id="paint7_linear_727_17526" x1="156.267" y1="99.1426" x2="134.559" y2="151.699" gradientUnits="userSpaceOnUse">
<stop stop-color="#54AAB0"/>
<stop offset="1" stop-color="#076267"/>
</linearGradient>
</defs>
</svg>
