<svg width="256" height="256" viewBox="0 0 256 256" fill="none" xmlns="http://www.w3.org/2000/svg">
<path fill-rule="evenodd" clip-rule="evenodd" d="M104.425 42.3784C100.056 37.0733 93.5437 34 86.6712 34H29C22.3726 34 17 39.3726 17 46V58.1371V68.2V160C17 166.627 22.3726 172 29 172H229C235.627 172 241 166.627 241 160V70.1371C241 63.5097 235.627 58.1371 229 58.1371H117.404L104.425 42.3784Z" fill="url(#paint0_linear_2248_38682)"/>
<mask id="mask0_2248_38682" style="mask-type:alpha" maskUnits="userSpaceOnUse" x="17" y="34" width="224" height="138">
<path fill-rule="evenodd" clip-rule="evenodd" d="M104.425 42.3784C100.056 37.0733 93.5437 34 86.6712 34H29C22.3726 34 17 39.3726 17 46V58.1371V68.2V160C17 166.627 22.3726 172 29 172H229C235.627 172 241 166.627 241 160V70.1371C241 63.5097 235.627 58.1371 229 58.1371H117.404L104.425 42.3784Z" fill="url(#paint1_linear_2248_38682)"/>
</mask>
<g mask="url(#mask0_2248_38682)">
<g style="mix-blend-mode:multiply" filter="url(#filter0_f_2248_38682)">
<path fill-rule="evenodd" clip-rule="evenodd" d="M92.789 74C97.7642 74 102.605 72.3868 106.586 69.4024L116.459 62H229C235.627 62 241 67.3726 241 74V108V160C241 166.627 235.627 172 229 172H29C22.3726 172 17 166.627 17 160L17 108V86C17 79.3726 22.3726 74 29 74H87H92.789Z" fill="black" fill-opacity="0.3"/>
</g>
</g>
<g filter="url(#filter1_ii_2248_38682)">
<path d="M92.789 74C97.7642 74 102.605 72.3868 106.586 69.4024L116.459 62H229C235.627 62 241 67.3726 241 74V198C241 204.627 235.627 210 229 210H29C22.3726 210 17 204.627 17 198L17 86C17 79.3726 22.3726 74 29 74H92.789Z" fill="url(#paint2_linear_2248_38682)"/>
</g>
<path d="M116.167 166.26C119.187 167.733 122.177 168.664 125.536 169.16C127.339 169.423 131.407 169.33 133.657 168.989C136.693 168.524 141.27 167.051 143.35 165.888C144.676 165.144 146.232 163.655 146.571 162.833C147.064 161.577 146.602 160.755 144.938 159.918C142.272 158.553 139.76 157.856 135.245 157.189C130.313 156.46 125.028 156.646 119.68 157.747C116.614 158.383 113.362 159.732 112.484 160.755C111.081 162.352 112.484 164.446 116.167 166.26Z" fill="url(#paint3_linear_2248_38682)"/>
<path fill-rule="evenodd" clip-rule="evenodd" d="M106.659 159.111C104.979 153.389 106.551 147.993 111.667 142.008C112.931 140.535 115.35 138.116 116.706 136.999C116.728 136.981 116.75 136.963 116.771 136.945C117.146 136.632 117.346 136.465 117.469 136.511C117.61 136.562 117.651 136.89 117.739 137.59C117.744 137.63 117.749 137.671 117.754 137.712C117.816 138.147 117.893 138.519 117.923 138.519C117.954 138.519 118.524 137.976 119.187 137.309C120.99 135.48 122.839 134.642 125.028 134.642C126.938 134.642 127.801 135.262 128.788 137.356C129.25 138.348 129.389 138.534 129.481 138.286C130.39 135.635 131.608 134.596 133.719 134.627C135.861 134.658 137.895 135.65 139.652 137.511L140.746 138.674L140.854 137.868C140.864 137.793 140.873 137.722 140.882 137.655C140.974 136.941 141.018 136.605 141.166 136.549C141.298 136.499 141.513 136.673 141.919 137.001C141.967 137.039 142.018 137.08 142.071 137.123C143.412 138.178 147.033 141.93 148.143 143.403C152.273 148.924 153.475 153.839 151.965 159.065L151.734 159.902L150.146 159.204C145.616 157.204 140.345 155.7 135.537 155.033C132.995 154.676 128.048 154.568 125.536 154.785C119.449 155.343 113.562 156.909 107.784 159.514L106.905 159.902L106.659 159.111ZM132.163 147.419C135.43 144.938 136.323 143.837 136.323 142.302C136.323 140.705 135.013 139.356 133.781 139.666C132.918 139.883 131.284 142.643 129.928 146.163L129.327 147.683L129.003 146.846C128.819 146.396 128.063 144.799 127.324 143.295C125.567 139.697 124.92 139.108 123.625 139.899C122.978 140.302 122.5 141 122.269 141.822C122.023 142.783 122.408 143.76 123.44 144.783C124.149 145.481 127.971 148.613 128.911 149.265C128.931 149.278 128.949 149.291 128.967 149.303C129.041 149.354 129.101 149.395 129.167 149.415C129.452 149.501 129.855 149.191 131.992 147.551L132.163 147.419Z" fill="url(#paint4_linear_2248_38682)"/>
<path d="M107.075 137.309C106.427 138.488 106.196 139.139 106.073 140.116C106.027 140.426 106.011 140.69 106.058 140.69C106.088 140.69 107.383 140.023 108.939 139.201C112.16 137.48 115.874 135.619 118.987 134.177C120.173 133.619 121.591 132.937 122.146 132.658L123.148 132.161L121.992 132.239C118.108 132.502 115.581 132.518 114.302 132.254C109.91 131.355 107.938 128.905 108.169 124.672C108.261 122.889 108.2 122.765 106.766 122.129C105.534 121.586 104.116 121.307 102.421 121.307L100.957 121.291L101.881 120.439C103.607 118.841 105.58 118.159 107.537 118.516C109.879 118.934 112.16 120.47 115.843 124.114C118.386 126.61 119.896 127.773 121.899 128.75C124.303 129.928 124.673 129.99 129.312 129.99C133.827 129.99 134.289 129.928 136.4 128.921C138.589 127.897 140.191 126.703 142.873 124.083C144.814 122.206 146.725 120.563 147.835 119.818C150.193 118.237 153.136 118.051 155.278 119.338C156.002 119.772 157.59 121.012 157.59 121.152C157.59 121.214 156.727 121.307 155.663 121.353C154.338 121.431 153.444 121.555 152.782 121.788C151.487 122.222 150.516 122.811 150.424 123.214C150.393 123.4 150.331 124.501 150.316 125.649C150.27 127.556 150.223 127.82 149.838 128.61C149.607 129.107 149.052 129.82 148.574 130.285C146.587 132.177 143.951 132.704 138.404 132.332C136.909 132.223 135.645 132.161 135.614 132.208C135.584 132.239 137.032 132.952 138.82 133.79C142.595 135.542 146.232 137.356 149.946 139.325C151.379 140.085 152.566 140.674 152.597 140.643C152.781 140.473 152.258 138.721 151.687 137.542C151.302 136.751 151.102 136.209 151.24 136.271C151.348 136.317 152.581 137.046 153.953 137.899C155.34 138.752 156.542 139.449 156.634 139.449C156.942 139.449 158.607 137.465 159.269 136.286C162.043 131.386 163.245 124.284 162.444 117.337C162.12 114.608 161.75 113.166 160.918 111.46C159.654 108.886 158.175 107.646 156.187 107.537C154.168 107.413 151.734 108.328 147.342 110.887C146.155 111.569 145.169 112.127 145.153 112.112C145.138 112.096 145.23 111.336 145.338 110.452C145.462 109.553 145.569 108.731 145.569 108.623C145.569 108.375 143.612 109.367 141.101 110.887C137.926 112.794 134.058 115.663 130.56 118.702C129.527 119.601 129.312 119.725 129.096 119.555C129.012 119.491 128.594 119.135 128.054 118.674C127.799 118.457 127.518 118.217 127.231 117.973C124.457 115.57 120.281 112.53 117.292 110.732C115.812 109.848 113.177 108.421 113.115 108.483C113.085 108.514 113.162 109.336 113.285 110.297L113.3 110.438C113.401 111.352 113.484 112.097 113.454 112.112C113.439 112.127 112.761 111.755 111.96 111.274C109.972 110.08 107.337 108.731 105.796 108.111C104.655 107.661 104.316 107.599 103.037 107.599C101.82 107.584 101.434 107.646 100.756 107.956C99.3078 108.607 97.8593 110.608 97.0425 113.058C95.5631 117.461 95.5631 124.532 97.0271 130.099C98.1212 134.239 99.2616 136.674 101.003 138.565C101.789 139.403 102.19 139.48 102.929 138.953C103.669 138.41 107.583 136.053 107.629 136.115C107.66 136.146 107.414 136.674 107.075 137.309Z" fill="url(#paint5_linear_2248_38682)"/>
<path fill-rule="evenodd" clip-rule="evenodd" d="M126.784 188.682C120.682 185.271 114.287 180.572 108.169 175.021C104.933 172.059 104.178 171.284 100.417 166.911C96.6574 162.554 95.2396 160.74 93.5445 158.212C91.1867 154.692 89.8152 152.273 87.5345 147.59C82.9114 138.1 81.3704 133.836 78.5349 122.625C77.1788 117.26 75.7456 109.336 76.0384 108.793C76.1001 108.685 77.8106 107.336 79.8448 105.785C88.3975 99.257 96.5187 92.9769 97.0426 92.5117L97.5974 92H161.134L162.952 93.4421C164.493 94.6826 173.786 101.847 180.551 107.026C181.691 107.894 182.678 108.7 182.739 108.809C183.017 109.29 180.674 121.602 179.472 126.036C177.947 131.65 175.342 138.953 173.277 143.403C169.81 150.893 167.699 154.708 164.648 159.003C159.516 166.229 154.508 171.703 147.804 177.44C143.597 181.037 141.424 182.697 138.019 184.96C135.368 186.728 129.743 190 129.373 190C129.25 190 128.079 189.411 126.784 188.682ZM132.147 184.542C137.433 181.425 141.085 178.758 146.587 173.997C151.087 170.121 152.473 168.741 155.648 165.035C159.393 160.647 162.351 156.491 165.541 151.157C167.298 148.21 170.627 141.109 172.322 136.705C173.925 132.549 175.912 126.222 176.991 121.85C177.638 119.198 178.794 113.74 179.056 112.003L179.287 110.53L178.733 110.034C178.085 109.46 170.442 103.506 164.262 98.7763C161.951 97.0085 159.824 95.4579 159.531 95.3339C158.699 94.9772 100.063 94.9927 99.2463 95.3339C98.9381 95.4579 97.505 96.4968 96.0564 97.6288C93.3134 99.7687 88.4591 103.49 83.3891 107.351C79.8756 110.018 79.6136 110.251 79.6136 110.732C79.6136 111.15 80.5691 116.407 81.0005 118.392C81.6015 121.105 83.6665 128.734 84.4216 131.076C86.3325 136.968 89.8923 145.063 93.1747 150.986C95.9947 156.057 101.712 163.794 105.811 168.043C110.111 172.509 116.136 177.61 121.191 181.037C123.857 182.852 129.034 185.968 129.373 185.968C129.589 185.968 130.837 185.333 132.147 184.542Z" fill="url(#paint6_linear_2248_38682)"/>
<defs>
<filter id="filter0_f_2248_38682" x="-20" y="25" width="298" height="184" filterUnits="userSpaceOnUse" color-interpolation-filters="sRGB">
<feFlood flood-opacity="0" result="BackgroundImageFix"/>
<feBlend mode="normal" in="SourceGraphic" in2="BackgroundImageFix" result="shape"/>
<feGaussianBlur stdDeviation="18.5" result="effect1_foregroundBlur_2248_38682"/>
</filter>
<filter id="filter1_ii_2248_38682" x="17" y="62" width="224" height="148" filterUnits="userSpaceOnUse" color-interpolation-filters="sRGB">
<feFlood flood-opacity="0" result="BackgroundImageFix"/>
<feBlend mode="normal" in="SourceGraphic" in2="BackgroundImageFix" result="shape"/>
<feColorMatrix in="SourceAlpha" type="matrix" values="0 0 0 0 0 0 0 0 0 0 0 0 0 0 0 0 0 0 127 0" result="hardAlpha"/>
<feOffset dy="4"/>
<feComposite in2="hardAlpha" operator="arithmetic" k2="-1" k3="1"/>
<feColorMatrix type="matrix" values="0 0 0 0 1 0 0 0 0 1 0 0 0 0 1 0 0 0 0.25 0"/>
<feBlend mode="normal" in2="shape" result="effect1_innerShadow_2248_38682"/>
<feColorMatrix in="SourceAlpha" type="matrix" values="0 0 0 0 0 0 0 0 0 0 0 0 0 0 0 0 0 0 127 0" result="hardAlpha"/>
<feOffset dy="-4"/>
<feComposite in2="hardAlpha" operator="arithmetic" k2="-1" k3="1"/>
<feColorMatrix type="matrix" values="0 0 0 0 0 0 0 0 0 0 0 0 0 0 0 0 0 0 0.9 0"/>
<feBlend mode="soft-light" in2="effect1_innerShadow_2248_38682" result="effect2_innerShadow_2248_38682"/>
</filter>
<linearGradient id="paint0_linear_2248_38682" x1="17" y1="103" x2="241" y2="103" gradientUnits="userSpaceOnUse">
<stop stop-color="#260300"/>
<stop offset="1" stop-color="#9C2C27"/>
</linearGradient>
<linearGradient id="paint1_linear_2248_38682" x1="17" y1="34" x2="197.768" y2="215.142" gradientUnits="userSpaceOnUse">
<stop stop-color="#05815D"/>
<stop offset="1" stop-color="#0C575F"/>
</linearGradient>
<linearGradient id="paint2_linear_2248_38682" x1="17" y1="62" x2="241" y2="210" gradientUnits="userSpaceOnUse">
<stop stop-color="#6B1641"/>
<stop offset="1" stop-color="#1E0000"/>
</linearGradient>
<linearGradient id="paint3_linear_2248_38682" x1="129.309" y1="107.526" x2="128.97" y2="214.709" gradientUnits="userSpaceOnUse">
<stop offset="0.388962" stop-color="#C8090E"/>
<stop offset="1" stop-color="#600605"/>
</linearGradient>
<linearGradient id="paint4_linear_2248_38682" x1="129.309" y1="107.526" x2="128.97" y2="214.709" gradientUnits="userSpaceOnUse">
<stop offset="0.388962" stop-color="#C8090E"/>
<stop offset="1" stop-color="#600605"/>
</linearGradient>
<linearGradient id="paint5_linear_2248_38682" x1="129.309" y1="107.526" x2="128.97" y2="214.709" gradientUnits="userSpaceOnUse">
<stop offset="0.388962" stop-color="#C8090E"/>
<stop offset="1" stop-color="#600605"/>
</linearGradient>
<linearGradient id="paint6_linear_2248_38682" x1="129.309" y1="107.526" x2="128.97" y2="214.709" gradientUnits="userSpaceOnUse">
<stop offset="0.388962" stop-color="#C8090E"/>
<stop offset="1" stop-color="#600605"/>
</linearGradient>
</defs>
</svg>
