<svg width="256" height="256" viewBox="0 0 256 256" fill="none" xmlns="http://www.w3.org/2000/svg">
<g clip-path="url(#clip0_2019_32461)">
<path fill-rule="evenodd" clip-rule="evenodd" d="M104.425 42.3784C100.056 37.0733 93.5437 34 86.6712 34H29C22.3726 34 17 39.3726 17 46V58.1371V68.2V160C17 166.627 22.3726 172 29 172H229C235.627 172 241 166.627 241 160V70.1371C241 63.5097 235.627 58.1371 229 58.1371H117.404L104.425 42.3784Z" fill="#2E2E2C"/>
<mask id="mask0_2019_32461" style="mask-type:alpha" maskUnits="userSpaceOnUse" x="17" y="34" width="224" height="138">
<path fill-rule="evenodd" clip-rule="evenodd" d="M104.425 42.3784C100.056 37.0733 93.5437 34 86.6712 34H29C22.3726 34 17 39.3726 17 46V58.1371V68.2V160C17 166.627 22.3726 172 29 172H229C235.627 172 241 166.627 241 160V70.1371C241 63.5097 235.627 58.1371 229 58.1371H117.404L104.425 42.3784Z" fill="url(#paint0_linear_2019_32461)"/>
</mask>
<g mask="url(#mask0_2019_32461)">
<g style="mix-blend-mode:multiply" filter="url(#filter0_f_2019_32461)">
<path fill-rule="evenodd" clip-rule="evenodd" d="M92.789 74C97.7642 74 102.605 72.3868 106.586 69.4024L116.459 62H229C235.627 62 241 67.3726 241 74V108V160C241 166.627 235.627 172 229 172H29C22.3726 172 17 166.627 17 160L17 108V86C17 79.3726 22.3726 74 29 74H87H92.789Z" fill="black" fill-opacity="0.3"/>
</g>
</g>
<g filter="url(#filter1_ii_2019_32461)">
<path fill-rule="evenodd" clip-rule="evenodd" d="M92.789 74C97.7642 74 102.605 72.3868 106.586 69.4024L116.459 62H229C235.627 62 241 67.3726 241 74V108V198C241 204.627 235.627 210 229 210H29C22.3726 210 17 204.627 17 198L17 108V86C17 79.3726 22.3726 74 29 74H87H92.789Z" fill="url(#paint1_linear_2019_32461)"/>
</g>
<path d="M154.138 114.694L154.107 114.403L153.636 114.444L153.667 114.735L154.138 114.694ZM157.307 122.317L157.317 122.478L157.648 122.448C157.638 122.347 157.678 122.187 157.748 121.986L157.718 121.695C157.578 121.705 157.437 121.916 157.307 122.317ZM144.94 131.916C144.92 131.645 144.077 130.592 142.412 128.736C142.383 128.395 142.954 127.884 144.128 127.212L147.478 124.293C148.23 123.34 148.672 121.796 148.802 119.649L148.762 119.158C148.632 117.673 147.558 116.48 145.522 115.567C144.318 114.755 142.152 114.303 139.023 114.223C136.435 114.444 133.055 115.366 128.892 117.001C127.749 117.823 126.445 118.646 124.98 119.469L125.001 119.719C125.091 119.709 125.232 119.659 125.392 119.549C125.562 119.528 125.663 119.609 125.673 119.77L125.924 119.639L126.044 119.629L126.054 119.74C126.064 119.87 125.161 120.582 123.336 121.856L123.476 122.116L123.356 122.126L123.055 122.016C123.065 122.107 122.935 122.167 122.684 122.187L122.694 122.297L122.985 122.658C122.895 122.668 122.754 122.628 122.564 122.558C122.142 122.598 121.731 122.818 121.32 123.24L121.49 122.498C122.102 119.86 122.523 117.523 122.744 115.497L122.714 115.366C122.293 115.096 121.881 114.714 121.5 114.233C121.511 113.922 121.511 113.742 121.5 113.701L121.471 113.591L121.35 113.621C120.026 115.607 117.479 118.997 113.697 123.791C110.819 127.201 109.334 129.097 109.244 129.478C108.07 130.692 107.509 131.424 107.569 131.675C107.258 131.876 107.127 132.076 107.178 132.297C107.087 132.317 107.027 132.287 107.007 132.196C106.506 133.009 105.763 133.531 104.77 133.762L103.727 134.002C103.587 134.032 103.517 134.132 103.527 134.303L103.557 134.433L103.948 134.343L103.978 134.453L103.095 134.794L101.531 135.156L100.708 135.206C100.588 135.326 101.36 135.196 101.059 135.266L100.036 135.507C99.4145 135.647 99.0734 135.597 99.0132 135.346L98.8929 135.376C98.9129 135.486 98.923 135.566 98.9029 135.637L98.8427 135.386L98.0203 135.577C97.9601 135.196 96.8468 133.811 94.6903 131.424C94.6502 130.963 95.4125 130.291 96.9671 129.419L101.36 125.557C102.343 124.293 102.925 122.267 103.115 119.479L103.055 118.826C102.885 116.861 101.461 115.276 98.7826 114.052C97.1978 112.979 94.3493 112.408 90.2371 112.317C86.8269 112.608 82.3736 113.822 76.8973 115.938C75.3927 117.031 73.6777 118.115 71.7519 119.188L71.7819 119.528C71.9124 119.519 72.0829 119.448 72.2935 119.328C72.5141 119.308 72.6345 119.408 72.6546 119.609L72.9956 119.418L73.1661 119.408L73.1761 119.569C73.1862 119.729 71.9926 120.662 69.5754 122.368L69.766 122.668L69.5954 122.678L69.2243 122.548C69.2344 122.648 69.0639 122.719 68.7128 122.748L68.7328 122.929L69.1341 123.37C69.0037 123.381 68.8232 123.34 68.5924 123.26C67.8101 123.33 67.0478 123.892 66.2956 124.955L66.4862 125.256C67.1381 124.654 67.5192 124.353 67.6296 124.343L67.6697 124.834C67.5594 124.845 67.3889 124.915 67.1582 125.035L67.5694 125.657C68.3618 124.805 69.2344 124.073 70.1872 123.461C70.6586 123.581 70.9094 123.732 70.9194 123.892L71.2805 123.862C73.8682 121.946 76.4258 120.562 78.9634 119.709L78.9935 120.051C78.5221 120.753 78.2011 121.113 78.0306 121.134C78.0507 121.374 78.1309 121.585 78.2814 121.765C78.3215 122.197 77.1681 125.105 74.831 130.481C69.5252 142.979 65.0719 152.226 61.4512 158.204C61.4612 158.325 61.5314 158.485 61.6617 158.686C62.5545 158.475 63.1161 158.254 63.3569 158.044L63.5474 158.024L63.5775 158.365L63.9085 158.335L64.2495 158.144C64.2595 158.245 64.3698 158.295 64.6006 158.274L64.6306 158.615C64.6607 158.947 64.4701 159.448 64.069 160.14C63.7078 160.551 63.3167 161.414 62.9055 162.727L62.9155 162.888L63.2465 162.858C64.6908 161.243 65.784 159.658 66.5363 158.114C70.7489 156.88 73.9584 155.667 76.1851 154.473C78.4218 154.282 80.1268 153.691 81.2904 152.718L81.2703 152.537L80.4278 152.788L80.2372 152.808L80.2172 152.628C81.862 152.377 82.9955 152.016 83.6273 151.514C86.8269 149.047 89.2441 147.301 90.879 146.269C94.239 143.801 96.4255 141.394 97.4185 139.057C97.599 139.017 97.7796 138.977 97.9801 138.927C98.4516 138.907 98.7123 138.896 98.7826 138.877C98.7625 138.786 98.8026 138.736 98.8929 138.716C99.6451 138.636 99.284 138.766 99.7655 138.656L101.029 138.365C100.949 138.385 100.919 138.425 100.939 138.505L101.13 138.385C101.089 138.385 101.059 138.375 101.029 138.365L101.24 138.315L101.14 138.375C101.28 138.395 101.43 138.385 101.601 138.345L101.691 138.716L95.9441 147.853L94.6703 149.448L94.0485 151.534L94.1688 151.505L94.7906 151.244L94.59 152.056L94.6502 152.296L94.8207 152.507C94.7405 152.527 94.7104 152.577 94.7305 152.668L94.7605 152.798L95.0214 152.738C95.4025 152.407 95.563 152.106 95.5028 151.835C95.914 151.905 96.1848 151.936 96.3252 151.896L96.3553 152.026C96.1045 152.086 95.9742 152.287 95.9541 152.628L95.9842 152.758L96.1246 152.728C98.2108 150.451 103.326 142.657 107.428 137.372C107.298 136.8 109.434 136.008 113.848 134.985L113.988 134.955C114.149 135.647 113.807 137.322 112.965 139.98C112.423 141.585 112.162 142.467 112.203 142.608C111.5 144.744 111.17 145.898 111.21 146.078L109.645 151.203C108.632 153.831 107.86 156.589 107.318 159.498C107.408 159.478 107.549 159.488 107.749 159.538L107.97 159.348C107.99 159.438 108.05 159.468 108.14 159.448L108.05 159.077L108.732 159.057C108.933 159.006 109.103 158.756 109.244 158.295C109.214 157.602 109.354 157.231 109.665 157.151C110.086 155.506 110.347 154.684 110.437 154.654C110.828 153.019 111.12 152.086 111.31 151.856C111.902 149.729 112.333 148.636 112.614 148.566L112.674 148.826L112.243 149.939C111.49 153.28 110.728 155.918 109.956 157.853L110.176 158.816L110.317 158.786C112.183 154.774 114.87 146.83 118.371 134.955C118.471 133.912 118.973 133.1 119.865 132.528L119.665 132.317L119.635 132.207C120.036 132.116 120.317 131.956 120.477 131.735C120.457 131.645 120.106 131.515 119.424 131.334L121.169 123.852C121.551 123.511 121.771 123.33 121.841 123.33L121.871 123.711C121.781 123.721 121.641 123.772 121.48 123.882L121.811 124.353C122.413 123.701 123.065 123.14 123.777 122.668C124.138 122.769 124.318 122.889 124.339 123.009L124.6 122.989C126.586 121.535 128.531 120.491 130.447 119.86L130.467 120.11C130.116 120.642 129.876 120.913 129.745 120.923C129.765 121.104 129.815 121.264 129.905 121.405C129.935 121.735 129.073 123.942 127.308 128.034C123.275 137.513 119.895 144.523 117.147 149.077C117.157 149.167 117.218 149.288 117.328 149.448C118 149.288 118.431 149.117 118.602 148.957L118.722 148.947L118.742 149.197L119.023 149.178L119.274 149.047C119.283 149.117 119.374 149.147 119.544 149.137L119.565 149.408C119.585 149.649 119.444 150.03 119.133 150.551C118.842 150.862 118.541 151.514 118.221 152.507L118.23 152.638L118.492 152.617C119.585 151.394 120.417 150.191 120.988 149.007C124.188 148.064 126.626 147.151 128.31 146.249C130.026 146.098 131.32 145.657 132.203 144.915L132.192 144.784L131.541 144.975L131.4 144.985L131.39 144.854C132.634 144.674 133.506 144.393 133.978 144.022C136.405 142.156 138.241 140.822 139.484 140.04C143.356 137.222 145.161 134.513 144.94 131.916ZM144.278 132.086L144.369 133.1C144.249 133.35 144.118 133.48 143.997 133.491L143.847 131.765C144.128 131.866 144.268 131.966 144.278 132.086ZM68.3317 123.922L68.1612 123.932L68.1311 123.621L68.8232 123.561L68.8331 123.721C68.7229 123.732 68.5524 123.791 68.3317 123.922ZM64.9516 157.733C64.5504 157.553 64.1893 157.482 63.8784 157.512L63.8383 157.021C63.8182 156.83 63.9285 156.7 64.1692 156.65C64.3899 156.63 64.5203 156.79 64.5403 157.111C65.1221 156.399 65.443 156.038 65.5033 156.028L65.8744 156.178C65.754 157.181 65.443 157.692 64.9516 157.733ZM101.069 119.95C100.899 119.97 100.558 119.439 100.066 118.386L100.036 118.075C100.357 118.044 100.688 118.566 101.039 119.639L101.069 119.95ZM100.588 116.209L100.448 116.54L95.5429 114.494C98.8126 114.604 100.498 115.176 100.588 116.209ZM79.8761 133.992L79.1841 134.052L79.154 133.741L79.8461 133.681L79.8761 133.992ZM79.3145 123.31L79.485 123.3L79.5251 123.791C79.3646 123.802 79.154 124.042 78.8932 124.504L78.8631 124.163C79.174 123.791 79.3345 123.511 79.3145 123.31ZM77.8601 126.74L77.9203 127.392L77.7498 127.402L77.6896 126.751L77.8601 126.74ZM77.0978 127.964L77.4288 127.934C77.3987 128.475 77.2483 128.767 76.9775 128.786L76.8069 128.797C77.0176 128.435 77.1179 128.155 77.0978 127.964ZM76.5261 129.669L76.7167 129.649L76.7268 129.81L76.4158 130.331L76.0848 130.361L76.0748 130.201C76.4058 130.171 76.5563 130 76.5261 129.669ZM75.9645 131.204L75.8641 132.026L75.6936 132.036L75.6234 131.223L75.9645 131.204ZM70.3377 147.202C70.117 148.325 69.8763 148.896 69.6256 148.917L69.6155 148.756C69.5554 148.204 69.7961 147.683 70.3377 147.202ZM69.3046 149.438L69.3146 149.598C69.3347 149.819 69.2344 149.95 69.0137 149.96L69.0037 149.799C68.9836 149.609 69.0839 149.489 69.3046 149.438ZM69.0037 154.082L69.5252 154.032L69.5453 154.212C69.4149 154.223 69.2444 154.293 69.0338 154.413L68.7028 154.443C68.6827 154.272 68.7931 154.142 69.0037 154.082ZM83.848 149.498C80.9193 150.942 79.1941 151.926 78.6826 152.437C75.5131 153.54 73.9384 154.223 73.9685 154.493C71.1501 155.607 69.2945 156.429 68.4019 156.94C68.1913 156.961 67.8904 156.88 67.4891 156.7C67.439 156.128 67.6998 155.667 68.2514 155.296C68.7429 155.255 69.2143 155.325 69.6656 155.516C70.1872 155.245 71.0999 154.944 72.3938 154.623L72.3637 154.282L71.3206 154.373C71.451 154.192 72.454 153.721 74.3396 152.958L74.8611 152.909L74.8712 153.069C73.9785 153.149 73.4871 153.41 73.3767 153.881C73.3968 154.092 73.5171 154.182 73.7378 154.162C74.4098 153.741 74.7408 153.49 74.7308 153.42C76.0045 153.179 79.5251 151.333 85.2923 147.893L85.3223 148.204C85.3324 148.355 84.8409 148.776 83.848 149.498ZM75.0016 152.407C75.8441 152.337 76.5662 151.995 77.1681 151.404C77.4088 151.384 77.5391 151.474 77.5492 151.684C77.138 151.725 76.3456 152.066 75.1922 152.728L75.0217 152.738L75.0016 152.407ZM89.2741 141.444L84.851 144.944C81.5612 147.101 79.7959 148.184 79.5451 148.204C74.3095 151.083 71.0498 152.577 69.786 152.688L69.5954 152.708C69.7559 152.116 72.0829 147.352 76.5963 138.385C78.5823 138.215 81.7116 137.292 85.9743 135.606L87.0175 135.517C89.1739 135.326 90.7887 135.747 91.8519 136.75L91.912 137.402C91.1096 139.709 90.227 141.053 89.2741 141.444ZM80.6284 136.58L81.3405 136.52L81.3505 136.68L80.6384 136.74L80.6284 136.58ZM90.6282 134.885L91.1498 134.834C91.6312 135.065 91.8819 135.266 91.902 135.446L91.912 135.606C91.4507 135.647 91.0194 135.406 90.6282 134.885ZM92.0424 126.831C91.5811 127.382 90.3173 128.325 88.2511 129.649C87.5691 129.709 85.0315 130.692 80.6384 132.618C80.4177 132.518 80.1871 132.478 79.9363 132.497L79.9062 132.187C79.856 131.555 80.1369 130.762 80.7587 129.799C81.0998 127.994 81.4709 126.961 81.8821 126.711L85.543 118.475C85.5029 117.964 86.2853 117.573 87.89 117.302L88.4116 117.252L88.4517 117.724C90.0264 117.483 91.0093 117.342 91.3905 117.312C94.2991 117.061 95.8137 117.653 95.934 119.067L96.2651 119.038L96.1948 118.205L96.5559 118.175C97.4085 118.646 97.8698 119.218 97.93 119.89C97.9701 120.351 97.7194 120.923 97.1878 121.605C96.9671 121.625 96.8367 121.464 96.8167 121.144L96.4556 121.174L96.3753 122.177C94.901 124.384 93.8278 125.517 93.1658 125.577C92.564 126.409 92.1929 126.821 92.0424 126.831ZM94.2892 132.598C93.9882 132.397 93.7475 132.307 93.567 132.317L93.5269 131.826L93.8578 131.795L94.59 132.227C94.6201 132.457 94.5198 132.578 94.2892 132.598ZM96.6161 135.356C96.937 135.486 97.1276 135.627 97.1678 135.757L97.0072 135.797L97.0173 135.807C96.9872 135.807 96.9471 135.818 96.917 135.827L96.6763 136.018L96.6161 135.356ZM96.8367 136.74L96.8067 136.61L97.2279 136.51L97.258 136.64L96.8367 136.74ZM97.8498 137.874C98.281 137.803 98.4917 137.773 99.2941 137.593L99.3241 137.723L97.7996 138.074C97.8197 138.004 97.8397 137.934 97.8498 137.874ZM99.3342 138.505C98.6923 138.566 98.8327 138.486 97.8096 138.716L97.7796 138.585L99.0533 138.175L99.6652 138.034L99.7254 138.275C99.4546 138.335 99.6552 138.335 99.3342 138.505ZM100.688 138.185C100.538 138.225 100.417 138.154 100.347 137.984L100.738 137.893C100.909 137.853 101.019 137.924 101.059 138.094L100.688 138.185ZM104.359 134.233L104.329 134.102L104.961 133.952L105.021 134.193L104.359 134.233ZM108.281 158.285C108.321 158.104 108.331 157.974 108.311 157.883L108.451 157.853C108.622 157.813 108.722 157.873 108.762 158.034L108.792 158.164L108.281 158.285ZM111.029 135.266L110.748 135.215C110.297 135.396 109.916 135.526 109.605 135.597L109.344 135.657C109.194 135.697 109.073 135.637 109.013 135.476L110.849 135.055L111.45 134.774L111.651 135.005C111.36 135.065 111.149 135.156 111.029 135.266ZM112.444 134.815L112.413 134.684C112.503 134.664 112.624 134.594 112.754 134.464L114.058 134.162L114.088 134.293C113.396 134.464 112.844 134.634 112.444 134.815ZM112.644 132.177C112.554 132.196 112.433 132.277 112.283 132.397C112.263 132.307 112.082 132.307 111.741 132.387C111.681 132.137 112.644 131.786 114.64 131.324L114.921 131.264L114.981 131.504C113.577 131.916 112.795 132.146 112.644 132.177ZM116.154 128.385C116.014 129.98 115.452 130.882 114.46 131.113L114.429 130.983L113.546 131.324L113.155 131.414C112.955 131.464 112.774 131.454 112.614 131.404L112.534 131.053C112.503 130.923 113.777 129.158 116.365 125.767L116.666 125.818C116.776 126.279 116.606 127.132 116.154 128.385ZM122.363 123.07L122.243 123.079L122.222 122.829L122.744 122.778L122.754 122.909C122.664 122.929 122.533 122.979 122.363 123.07ZM119.806 148.756C119.504 148.615 119.234 148.556 119.003 148.575L118.973 148.194C118.963 148.064 119.043 147.974 119.214 147.923C119.384 147.904 119.484 148.024 119.504 148.285C119.936 147.733 120.176 147.452 120.227 147.452L120.498 147.563C120.397 148.325 120.166 148.726 119.806 148.756ZM147.227 120.07C147.097 120.081 146.846 119.679 146.455 118.867L146.435 118.616C146.686 118.596 146.946 118.987 147.207 119.79L147.227 120.07ZM146.866 117.202L146.746 117.463L143.034 115.908C145.512 115.988 146.796 116.42 146.866 117.202ZM131.129 130.712L130.608 130.762L130.587 130.512L131.109 130.472L131.129 130.712ZM130.698 122.598L130.838 122.588L130.868 122.969C130.738 122.979 130.578 123.16 130.387 123.511L130.367 123.26C130.597 122.969 130.708 122.748 130.698 122.598ZM129.605 125.206L129.645 125.697L129.504 125.707L129.464 125.216L129.605 125.206ZM129.013 126.139L129.273 126.118C129.243 126.539 129.133 126.76 128.943 126.78L128.802 126.791C128.953 126.51 129.023 126.289 129.013 126.139ZM128.592 127.422L128.712 127.412L128.722 127.543L128.491 127.944L128.23 127.964L128.22 127.834C128.491 127.813 128.611 127.673 128.592 127.422ZM128.171 128.586L128.08 129.228L127.959 129.238L127.91 128.606L128.171 128.586ZM123.887 140.752C123.717 141.595 123.536 142.026 123.346 142.046L123.336 141.936C123.306 141.515 123.486 141.113 123.887 140.752ZM123.095 142.447L123.105 142.558C123.125 142.738 123.045 142.838 122.865 142.848L122.854 142.718C122.844 142.588 122.924 142.497 123.095 142.447ZM122.874 145.978L123.275 145.947L123.286 146.078C123.195 146.088 123.055 146.138 122.895 146.228L122.634 146.249C122.624 146.108 122.704 146.018 122.874 145.978ZM134.138 142.497C131.932 143.59 130.618 144.333 130.206 144.714C127.799 145.556 126.605 146.078 126.626 146.289C124.49 147.141 123.085 147.753 122.423 148.144C122.262 148.154 122.032 148.094 121.731 147.954C121.691 147.522 121.892 147.171 122.313 146.91C122.694 146.88 123.055 146.931 123.386 147.071C123.787 146.87 124.479 146.649 125.462 146.399L125.442 146.148L124.62 146.208C124.72 146.068 125.492 145.707 126.927 145.125L127.328 145.095L127.338 145.205C126.656 145.266 126.275 145.466 126.195 145.827C126.204 145.987 126.305 146.068 126.475 146.048C126.977 145.717 127.217 145.526 127.217 145.466C128.18 145.296 130.848 143.891 135.231 141.263L135.251 141.515C135.262 141.625 134.89 141.946 134.138 142.497ZM127.418 144.704C128.07 144.644 128.621 144.393 129.083 143.952C129.254 143.931 129.354 144.012 129.364 144.172C129.063 144.202 128.471 144.454 127.578 144.935L127.438 144.944L127.418 144.704ZM138.27 136.369L134.93 139.057C132.433 140.692 131.079 141.515 130.868 141.534C126.897 143.721 124.429 144.854 123.456 144.935L123.316 144.944C123.436 144.494 125.211 140.872 128.642 134.072C130.136 133.942 132.503 133.23 135.753 131.946L136.565 131.876C138.2 131.735 139.424 132.056 140.226 132.829L140.266 133.32C139.654 135.045 138.993 136.058 138.27 136.369ZM131.711 132.678L132.232 132.628L132.243 132.758L131.721 132.808L131.711 132.678ZM139.303 131.384L139.704 131.354C140.076 131.534 140.266 131.695 140.276 131.826L140.286 131.936C139.935 131.966 139.605 131.786 139.303 131.384ZM140.356 125.276C140.005 125.697 139.053 126.419 137.498 127.422C136.977 127.472 135.051 128.215 131.721 129.659C131.56 129.599 131.38 129.579 131.19 129.589L131.169 129.338C131.129 128.857 131.34 128.255 131.801 127.523C132.062 126.139 132.353 125.366 132.653 125.185L135.452 118.927C135.422 118.556 136.014 118.255 137.217 118.024L137.619 117.994L137.648 118.376C138.832 118.185 139.574 118.075 139.875 118.044C142.082 117.854 143.235 118.295 143.326 119.378L143.586 119.358L143.536 118.756L143.797 118.737C144.439 119.088 144.78 119.509 144.82 120.01C144.85 120.371 144.67 120.813 144.289 121.324C144.118 121.344 144.018 121.224 143.997 120.963L143.737 120.983L143.656 121.735C142.543 123.43 141.731 124.303 141.219 124.343C140.768 124.955 140.487 125.266 140.356 125.276ZM141.53 129.448L141.5 129.067L141.761 129.047L142.323 129.388C142.332 129.549 142.252 129.639 142.082 129.659C141.841 129.509 141.661 129.438 141.53 129.448ZM94.8408 153.811L94.58 153.872L94.3594 154.062C94.3994 154.223 94.4998 154.282 94.6703 154.242C94.8408 154.202 94.911 154.102 94.8709 153.942L94.8408 153.811ZM93.8478 151.835L93.8779 151.966C94.0484 151.926 94.1187 151.825 94.0785 151.665L94.0485 151.534C93.8879 151.574 93.8177 151.675 93.8478 151.835ZM100.909 135.035L101.21 134.965L101.15 134.704L100.849 134.774L100.909 135.035ZM191.92 142.678C188.871 143.36 188.491 143.239 187.848 143.29L187.869 143.54L188.149 143.521L188.3 143.51L188.26 143.48L188.59 143.35C191.609 143.019 191.96 143.14 191.93 142.798L191.92 142.678ZM175.501 144.854L175.522 145.105H175.562L175.541 144.854H175.501ZM173.616 138.245L173.345 138.154C173.124 138.746 173.014 139.097 173.024 139.197L173.034 139.308C173.245 139.298 173.435 138.936 173.616 138.245ZM192.542 142.628L192.563 142.878L193.004 142.959L192.984 142.708L192.542 142.628ZM171.791 145.165L171.108 145.085L170.988 145.346L170.998 145.476L175.06 145.135L175.04 144.885L171.791 145.165ZM169.945 136.269L169.935 136.138L169.794 136.148L169.544 136.309L169.684 136.55C169.875 136.529 169.965 136.439 169.945 136.269ZM194.468 140.782L194.659 140.762C194.769 140.752 194.819 140.662 194.809 140.502L194.699 140.261C194.007 140.321 193.686 140.351 193.124 140.662L193.114 140.531L192.282 140.612C192.262 140.361 192.191 140.231 192.081 140.241L191.65 140.281C191.148 140.321 190.907 140.301 190.657 140.491C190.646 140.401 190.617 140.361 190.566 140.361L190.085 140.401L189.804 140.561C189.794 140.471 189.764 140.431 189.714 140.431L189.544 140.582L189.533 140.451L188.861 140.401L188.701 140.411L188.721 140.662L189.062 140.752L189.383 140.732C189.493 140.802 189.614 140.822 189.754 140.813L190.035 140.672L190.045 140.782C188.47 141.173 188.48 141.103 187.397 141.284C187.276 141.204 187.186 141.164 187.126 141.173L187.106 141.194C186.986 141.183 186.916 141.103 186.906 140.973L187.467 140.903C187.507 140.903 187.537 140.943 187.848 141.003C188.3 140.782 188.32 140.692 188.56 140.672L188.541 140.421C186.996 140.722 187.618 140.521 185.682 140.692L185.592 140.702L185.571 140.451C188.059 140.151 187.227 140.321 188.079 140.08C188.089 140.17 188.119 140.21 188.169 140.21C188.27 140.11 188.38 140.06 188.51 140.04L188.681 140.03C189.553 139.96 189.844 140.13 191.569 139.649L191.579 139.759L191.861 139.619L192.121 139.598C192.101 139.348 192.483 139.308 192.613 139.298L192.593 139.027C189.563 139.639 188.771 139.468 187.928 139.709L187.919 139.598C187.126 139.739 187.096 139.679 186.895 139.689C186.835 139.699 186.745 139.749 186.645 139.85C186.635 139.759 186.605 139.719 186.544 139.719C186.515 139.719 186.504 139.729 186.494 139.729L183.927 140.151C183.917 140.08 183.887 140.04 183.826 140.05C182.493 140.331 182.853 140.381 181.068 140.542C180.988 140.552 180.877 140.592 180.737 140.682C180.727 140.612 180.687 140.572 180.597 140.582L179.504 140.672L178.772 140.853C178.761 140.782 178.721 140.742 178.631 140.752C178.22 140.862 177.858 140.933 177.568 140.952H177.547C177.367 140.973 177.638 140.903 177.498 140.842L177.277 140.973C176.956 141.003 177.126 140.952 176.023 140.963C174.087 141.204 174.298 141.234 174.087 141.244L173.365 141.194C173.375 141.263 173.335 141.314 173.255 141.314C172.432 141.204 172.011 141.073 172.001 140.923C172.112 140.14 172.302 139.739 172.573 139.719L172.713 139.709L172.593 139.97L172.733 139.96C172.994 139.819 173.115 139.689 173.104 139.569L173.084 139.298L172.823 139.318L172.804 139.067C172.783 138.877 172.814 138.706 172.884 138.566L173.475 137.613L173.496 137.864L173.777 137.843L173.756 137.593L173.596 137.362C173.807 137.181 173.967 137.081 174.097 137.071L174.087 136.941L173.706 136.971L173.676 136.59C174.438 135.005 174.799 134.082 174.78 133.821L175.05 133.932C175.221 133.922 175.301 133.821 175.291 133.641L175.03 133.661L175.02 133.55C175 133.36 175.04 133.18 175.12 133.019C175.531 132.588 175.722 132.156 175.682 131.705C175.762 131.695 175.802 131.735 175.812 131.826C176.163 131.625 176.434 131.093 176.635 130.211C177.257 129.087 178.139 126.841 179.293 123.48C181.499 117.543 181.409 116.911 181.72 115.507L181.459 115.527C181.48 115.707 181.439 115.878 181.359 116.038C181.179 115.968 181.038 115.928 180.938 115.938L180.928 115.828C180.887 115.316 181.098 114.704 181.579 113.982L181.7 113.972L181.921 114.835L182.182 114.815C182.171 114.755 182.241 114.414 182.382 113.782C182.372 113.651 182.272 113.571 182.071 113.561L181.82 113.721C181.8 113.541 181.81 113.07 181.84 112.317L181.71 112.327C181.489 112.107 181.379 111.926 181.369 111.776L179.935 111.916C179.925 111.816 179.874 111.665 179.775 111.475C179.764 111.344 180.086 111.214 180.747 111.084L181.038 111.194L181.309 111.033C181.319 111.124 181.369 111.164 181.469 111.154L181.74 110.993C181.75 111.084 181.8 111.124 181.901 111.114L182.031 111.104L182.011 110.813C181.81 110.833 181.279 110.833 180.437 110.803L180.166 110.983L180.155 110.823C173.426 111.374 169.604 111.685 168.691 111.776C168.571 111.786 168.099 111.776 167.267 111.756C167.277 111.866 167.177 111.926 166.976 111.946L166.685 111.816L165.702 112.067C165.472 112.087 165.08 112.077 164.539 112.016C164.388 112.137 164.208 112.207 163.987 112.227C163.867 112.237 165.421 112.147 166.866 112.047C166.715 112.167 166.485 112.237 166.163 112.267C165.943 112.287 165.753 112.257 165.592 112.167C165.371 112.267 164.659 112.428 163.466 112.668L163.175 112.558L158.481 113.28C158.3 113.19 158.09 113.16 157.849 113.18C157.598 113.2 157.177 113.29 156.595 113.451L154.328 114.393L154.499 114.674C154.609 114.664 154.769 114.604 154.96 114.494L155.763 114.564L155.662 115.316C154.92 115.647 154.489 116.139 154.369 116.761C153.255 117.252 152.704 117.603 152.704 117.814L152.713 117.944L152.884 117.934L153.185 117.774L153.536 118.195L153.586 118.777C153.606 118.957 151.731 122.899 147.979 130.602C144.73 138.024 143.024 142.086 142.864 142.818C141.751 143.129 141.109 143.58 140.919 144.183C140.938 144.373 141.27 144.503 141.911 144.553L141.941 144.845L141.651 145.326L141.701 145.907C141.731 146.208 142.543 146.439 144.138 146.6C144.128 146.499 144.178 146.439 144.289 146.429C144.318 146.79 144.218 147.492 143.988 148.535L144.158 148.526C144.82 147.623 145.131 147.001 145.101 146.66L145.241 146.649C145.402 146.64 145.572 146.82 145.773 147.212C145.572 147.292 144.87 148.886 143.667 152.006L143.837 152.287L144.007 152.277C145.482 148.545 146.404 146.479 146.786 146.088C148.721 145.917 152.072 145.577 156.825 145.065L157.127 144.885C157.136 144.985 157.197 145.035 157.307 145.025L157.618 144.995L157.919 144.814C157.929 144.915 157.989 144.965 158.099 144.955L161.7 144.644C162.653 144.564 163.104 144.273 163.064 143.781C163.054 143.651 163.616 143.5 164.75 143.34C164.86 143.33 165.02 143.36 165.241 143.43C165.231 143.34 165.803 143.25 166.946 143.149C166.976 142.547 167.166 142.226 167.508 142.196L167.477 141.906C167.157 141.936 166.796 142.016 166.375 142.156C165.622 142.116 165.141 142.056 164.94 141.986C164.74 142.096 164.589 142.156 164.479 142.167L161.971 142.247L161.67 142.407C161.66 142.317 161.6 142.277 161.49 142.287L161.349 142.297L161.029 142.457C161.018 142.367 160.758 142.297 160.236 142.226L159.915 142.417L159.293 142.467L159.283 142.307C162.513 141.956 164.107 141.515 164.067 140.993C164.278 140.973 164.388 141.073 164.408 141.284L165.351 141.043L165.321 140.752L157.588 140.963C157.598 141.063 157.548 141.124 157.437 141.133L156.495 141.053C156.254 141.073 156.053 141.143 155.893 141.263L155.542 141.133C154.569 141.213 153.847 141.334 153.365 141.484C152.704 141.434 151.971 141.444 151.159 141.515L149.423 141.665L148.621 141.574C148.581 141.063 149.574 138.545 151.62 134.032C152.212 132.507 152.753 131.555 153.275 131.193C153.386 131.183 153.546 131.223 153.766 131.314L155 130.893L155.632 130.993C156.695 130.903 157.929 130.602 159.343 130.081C159.694 130.05 159.955 130.07 160.146 130.151L161.088 129.93L163.897 129.689C165.091 129.589 166.384 129.328 167.788 128.897L167.758 128.606C167.237 128.656 166.966 128.566 166.946 128.355C166.916 127.964 166.535 127.804 165.803 127.864L165.772 127.573L166.545 127.352L168.571 127.182L168.541 126.891C168.461 126.901 168.049 126.891 167.287 126.861L167.257 126.55L168.039 126.48C168.25 126.459 168.34 126.359 168.32 126.159C167.267 126.188 166.735 126.139 166.725 125.998C159.383 126.359 155.702 126.429 155.683 126.199C155.572 126.209 155.422 126.279 155.221 126.4L155.03 126.098C156.976 121.966 158.12 119.88 158.45 119.85C158.461 120.01 158.38 120.271 158.2 120.622L158.21 120.753L158.521 120.722C159.293 118.877 159.945 117.924 160.487 117.884C162.793 117.684 160.166 117.533 165.101 116.761C165.301 116.851 165.442 116.891 165.542 116.881C167.477 116.49 170.176 116.078 173.636 115.657L173.616 115.366L171.77 115.537L171.75 115.246C171.971 115.226 172.152 115.156 172.302 115.035L172.312 115.196C172.413 115.186 172.552 115.116 172.733 114.995C173.054 114.965 173.295 114.995 173.466 115.086C174.107 114.915 174.629 114.815 175.01 114.775L176.163 114.664C176.445 114.484 176.575 114.323 176.565 114.173L176.555 114.042C176.264 114.073 175.933 114.052 175.541 113.982C175.531 113.822 175.612 113.711 175.802 113.661L177.949 113.461L178.932 113.21C178.942 113.32 178.992 113.36 179.072 113.36C179.172 113.35 179.313 113.28 179.493 113.16C179.544 113.17 179.604 113.17 179.654 113.18C179.523 113.451 179.373 113.842 179.222 114.353L178.942 114.373C178.922 114.183 178.871 114.012 178.781 113.862L178.641 113.872C176.033 121.134 174.87 124.514 172.463 130.09C172.021 131.515 171.65 132.307 171.329 132.478C171.339 132.638 171.439 132.718 171.61 132.698C171.67 133.4 171.509 134.092 171.118 134.774C170.005 137.984 169.263 139.739 168.882 140.06L169.133 141.574C169.142 141.735 169.062 141.825 168.892 141.845L168.631 141.866C168.591 141.444 168.44 141.244 168.17 141.274L168.029 141.284C167.689 141.816 167.427 142.427 167.257 143.14L167.517 143.119C167.868 142.888 168.029 142.617 167.999 142.307L168.52 142.257L168.822 142.367C168.581 142.748 168.471 143.049 168.49 143.279L168.631 143.521L168.29 144.322L168.3 144.454C168.601 144.423 168.932 144.523 169.283 144.734C169.524 144.714 169.785 144.604 170.075 144.413C170.376 144.383 171.499 144.373 173.435 144.373L174.408 144.042C175.592 144.032 175.783 144.062 176.805 143.972L177.227 143.931L177.448 143.781L177.458 143.912C178.531 143.821 178.6 143.891 179.443 143.992L179.453 144.122L178.861 144.172L178.882 144.423C179.062 144.403 179.222 144.353 179.353 144.242C179.504 144.233 179.594 144.313 179.604 144.494C179.363 144.513 179.092 144.574 178.791 144.674L178.531 144.584C178.119 144.694 178.209 144.724 177.929 144.744L177.517 144.664C177.528 144.734 177.488 144.784 177.417 144.784C177.427 144.944 177.517 145.025 177.668 145.015L178.089 144.975L180.286 144.784L181.118 144.604C181.129 144.674 181.158 144.714 181.228 144.704L181.63 144.553L182.382 144.494C182.964 144.443 182.954 144.403 184.217 144.202C184.207 144.122 184.238 144.092 184.298 144.082L184.308 144.192C186.364 143.841 186.494 143.821 186.826 143.711L186.855 143.771C187.367 143.651 187.076 143.681 187.217 143.58C187.227 143.671 187.257 143.711 187.307 143.711L187.668 143.681L187.648 143.41L186.916 143.4L186.906 143.38C186.876 143.39 186.855 143.39 186.826 143.4H186.725V143.42C186.233 143.521 186.223 143.45 185.903 143.48L184.067 143.58L184.057 143.45L185.08 143.31L185.451 143.279L185.662 143.129L185.672 143.26C187.116 143.14 187.627 143.5 194.308 142.076C194.669 142.046 194.638 141.745 194.869 141.124C194.749 141.133 194.629 141.103 194.518 141.043C193.967 141.254 193.676 141.153 192.613 141.324C192.523 141.334 192.452 141.254 192.422 141.093L192.412 140.983L193.435 141.013C193.625 140.993 193.997 140.963 194.548 140.652C194.548 140.742 194.348 140.792 194.468 140.782ZM145.081 141.574L144.609 141.615C144.589 141.424 144.84 140.702 145.361 139.468L145.672 139.438C145.683 139.729 145.492 140.441 145.081 141.574ZM145.653 139.287L145.643 139.157C145.632 138.997 145.733 138.887 145.954 138.837L145.963 138.967C145.973 139.157 145.873 139.268 145.653 139.287ZM151.921 144.132L151.931 144.263L151.149 144.333L151.139 144.202L151.921 144.132ZM150.978 144.052C150.989 144.212 150.748 144.393 150.226 144.574L149.263 144.503L148.952 144.534L148.922 144.242L150.978 144.052ZM157.317 114.875L156.846 114.915L156.836 114.755C156.825 114.594 156.916 114.484 157.117 114.434L157.287 114.424L157.608 114.554C157.618 114.745 157.528 114.855 157.317 114.875ZM164.489 113.471L164.639 113.461L164.659 113.752L164.228 113.792C164.218 113.631 164.298 113.521 164.489 113.471ZM162.683 114.103L161.971 114.022L161.961 113.892C162.894 113.812 163.205 113.711 163.777 113.551C163.787 113.661 163.887 113.701 164.067 113.681L164.088 113.972L163.807 114.002C163.586 114.022 163.395 113.992 163.235 113.902C163.064 114.012 162.884 114.083 162.683 114.103ZM163.576 116.7L163.566 116.57L164.719 116.46L164.729 116.59L163.576 116.7ZM164.809 115.697L164.799 115.537L165.362 115.487L165.371 115.647L164.809 115.697ZM164.94 113.732L164.79 113.742L164.92 113.431L166.204 113.31L166.214 113.471C165.883 113.501 165.452 113.591 164.94 113.732ZM165.592 116.5L165.572 116.209L166.134 116.159C166.324 116.139 166.424 116.229 166.434 116.43L165.592 116.5ZM168.992 111.866L168.27 112.067L168.139 112.077C167.799 112.107 167.357 112.097 166.836 112.047C167.769 111.986 168.661 111.916 168.992 111.866ZM168.22 115.076L168.23 115.206L167.237 115.296L167.227 115.166L168.22 115.076ZM169.844 115.848C169.835 115.727 169.644 115.647 169.253 115.607L168.26 115.888L167.498 115.918C167.327 115.798 167.237 115.717 167.227 115.657L168.11 115.707L170.096 115.386L171.108 115.427L171.118 115.587C170.617 115.637 170.195 115.727 169.844 115.848ZM180.065 113.21C180.185 113.22 180.265 113.22 180.296 113.22C180.647 112.879 181.038 112.608 181.489 112.418C181.129 114.002 180.567 115.176 179.794 115.938L179.233 115.597C179.704 114.403 179.985 113.611 180.065 113.21ZM178.34 116.169L178.48 116.159C178.29 116.52 178.119 116.71 177.979 116.72L177.949 116.339C178.039 116.339 178.169 116.279 178.34 116.169ZM177.227 118.826C177.498 117.743 177.758 117.132 177.999 116.971L178.009 117.102C177.868 118.105 177.648 118.636 177.357 118.676L177.407 119.308C177.166 119.649 177.056 119.91 177.066 120.11L176.926 120.121L176.845 119.248C177.006 119.228 177.137 119.088 177.227 118.826ZM176.796 120.271C176.805 120.421 176.705 120.772 176.504 121.314L176.364 121.324L176.334 120.943C176.525 120.502 176.685 120.281 176.796 120.271ZM168.701 143.761L168.691 143.651L168.952 143.631L168.982 144.012C168.842 144.022 168.741 143.942 168.701 143.761ZM180.265 144.062C180.256 143.971 180.216 143.931 180.126 143.942L179.473 144.002L179.464 143.872H179.523L181.068 143.741L181.078 143.872C180.627 143.891 180.356 143.962 180.265 144.062ZM179.493 143.741C179.554 143.771 179.523 143.801 179.493 143.821C179.464 143.811 179.423 143.781 179.493 143.741ZM179.574 141.936L178.711 142.006L178.701 141.875L179.483 141.805L180.166 141.635C180.175 141.715 180.216 141.745 180.306 141.735C181.118 141.595 181.038 141.555 181.429 141.524C181.56 141.515 181.64 141.595 181.65 141.755L179.574 141.936ZM182.592 141.675C182.111 141.625 182.081 141.585 181.74 141.615L181.73 141.505L182.502 141.434L182.512 141.545C182.432 141.555 182.723 141.574 182.592 141.675ZM182.653 141.534L182.643 141.424L183.064 141.384L183.074 141.494L182.653 141.534ZM183.586 141.454L183.576 141.344C183.646 141.334 183.746 141.284 183.877 141.183C184.087 141.164 184.198 141.304 184.217 141.464L183.586 141.454ZM184.779 141.304L184.769 141.173L185.281 141.133L185.291 141.263L184.779 141.304ZM185.491 141.244C185.481 141.093 185.542 141.003 185.672 140.983L185.842 141.204C185.832 141.133 185.863 141.093 185.922 141.083L186.053 141.324L185.491 141.244ZM177.919 144.513L177.898 144.263L177.818 144.273L177.839 144.523L177.919 144.513ZM195.542 139.95C195.622 139.899 195.662 139.85 195.471 139.819C195.381 139.92 195.571 139.95 195.371 139.96L195.381 140.05C195.401 140.03 195.451 140 195.491 139.97L195.381 140.06V140.07L195.17 140.341L195.592 140.191H195.641L195.622 139.94L195.542 139.95ZM196.274 140.521L196.193 140.531L196.213 140.782L196.805 140.732C196.795 140.572 196.404 140.521 196.274 140.521ZM195.361 140.08L195.371 140.07V140.06C195.371 140.06 195.361 140.07 195.361 140.08Z" fill="black"/>
<path d="M156.856 121.514L156.866 121.675L157.197 121.645C157.187 121.544 157.227 121.384 157.297 121.184L157.268 120.892C157.127 120.902 156.987 121.113 156.856 121.514ZM153.686 113.892L153.657 113.601L153.185 113.641L153.215 113.932L153.686 113.892ZM144.489 131.113C144.469 130.842 143.627 129.789 141.962 127.934C141.932 127.592 142.504 127.081 143.677 126.409L147.027 123.49C147.779 122.538 148.22 120.993 148.351 118.846L148.311 118.355C148.18 116.871 147.107 115.677 145.071 114.764C143.867 113.952 141.701 113.5 138.571 113.42C135.984 113.641 132.604 114.564 128.442 116.198C127.298 117.021 125.994 117.843 124.53 118.666L124.549 118.916C124.64 118.907 124.78 118.857 124.941 118.746C125.112 118.726 125.211 118.806 125.222 118.967L125.472 118.836L125.593 118.827L125.603 118.937C125.613 119.067 124.71 119.779 122.884 121.053L123.025 121.314L122.905 121.324L122.604 121.213C122.614 121.304 122.484 121.364 122.233 121.384L122.243 121.495L122.533 121.855C122.443 121.865 122.303 121.825 122.112 121.755C121.691 121.795 121.28 122.016 120.868 122.437L121.039 121.695C121.651 119.057 122.072 116.72 122.293 114.694L122.263 114.564C121.841 114.293 121.431 113.912 121.049 113.43C121.059 113.119 121.059 112.939 121.049 112.899L121.019 112.788L120.899 112.818C119.575 114.804 117.027 118.194 113.246 122.989C110.367 126.399 108.883 128.294 108.793 128.676C107.619 129.889 107.057 130.621 107.118 130.873C106.807 131.073 106.676 131.273 106.726 131.494C106.636 131.514 106.576 131.484 106.556 131.394C106.054 132.206 105.312 132.728 104.319 132.959L103.276 133.199C103.136 133.229 103.066 133.329 103.076 133.5L103.106 133.631L103.497 133.54L103.527 133.65L102.644 133.991L101.08 134.353L100.257 134.403C100.137 134.523 100.909 134.393 100.608 134.463L99.5851 134.704C98.9633 134.844 98.6223 134.794 98.5621 134.543L98.4417 134.573C98.4618 134.684 98.4718 134.764 98.4518 134.834L98.3916 134.583L97.5691 134.774C97.5089 134.393 96.3956 133.009 94.2392 130.621C94.1991 130.16 94.9614 129.488 96.516 128.616L100.909 124.754C101.892 123.49 102.474 121.464 102.664 118.676L102.604 118.024C102.434 116.058 101.009 114.473 98.3314 113.25C96.7467 112.176 93.8982 111.605 89.7859 111.515C86.3758 111.805 81.9224 113.019 76.4461 115.135C74.9416 116.229 73.2265 117.312 71.3008 118.385L71.3308 118.726C71.4612 118.716 71.6317 118.646 71.8424 118.525C72.063 118.505 72.1834 118.606 72.2035 118.806L72.5445 118.615L72.715 118.606L72.725 118.766C72.735 118.926 71.5415 119.859 69.1242 121.564L69.3148 121.865L69.1443 121.875L68.7732 121.745C68.7832 121.846 68.6127 121.916 68.2616 121.945L68.2817 122.126L68.6829 122.567C68.5525 122.578 68.372 122.538 68.1413 122.457C67.3589 122.527 66.5967 123.089 65.8444 124.152L66.035 124.453C66.687 123.851 67.0681 123.551 67.1785 123.54L67.2186 124.032C67.1083 124.042 66.9377 124.112 66.707 124.232L67.1182 124.854C67.9107 124.002 68.7832 123.27 69.7361 122.658C70.2075 122.778 70.4582 122.929 70.4683 123.089L70.8293 123.059C73.4171 121.144 75.9747 119.759 78.5122 118.907L78.5424 119.248C78.0709 119.95 77.75 120.311 77.5795 120.331C77.5995 120.572 77.6798 120.782 77.8302 120.963C77.8703 121.394 76.7169 124.303 74.3799 129.679C69.0741 142.176 64.6208 151.423 61 157.401C61.01 157.522 61.0803 157.683 61.2106 157.883C62.1033 157.672 62.665 157.452 62.9057 157.241L63.0963 157.221L63.1264 157.562L63.4573 157.532L63.7983 157.341C63.8084 157.442 63.9187 157.492 64.1494 157.471L64.1795 157.813C64.2096 158.144 64.019 158.645 63.6178 159.337C63.2567 159.748 62.8656 160.611 62.4543 161.925L62.4644 162.085L62.7953 162.056C64.2397 160.441 65.3329 158.856 66.0852 157.311C70.2978 156.077 73.5073 154.864 75.734 153.67C77.9706 153.479 79.6757 152.888 80.8392 151.915L80.8192 151.734L79.9766 151.986L79.7861 152.005L79.766 151.825C81.4109 151.574 82.5443 151.213 83.1762 150.712C86.3758 148.244 88.793 146.499 90.4279 145.466C93.7879 142.999 95.9743 140.592 96.9674 138.254C97.1479 138.214 97.3284 138.174 97.529 138.124C98.0004 138.104 98.2612 138.094 98.3314 138.074C98.3113 137.983 98.3515 137.933 98.4417 137.913C99.194 137.833 98.8329 137.964 99.3143 137.853L100.578 137.562L100.789 137.512L100.688 137.573C100.829 137.592 100.979 137.582 101.15 137.542L101.24 137.913L95.4929 147.05L94.2191 148.645L93.5973 150.731L93.7177 150.702L94.3395 150.441L94.1389 151.253L94.1991 151.494L94.3696 151.704C94.2893 151.725 94.2593 151.774 94.2793 151.865L94.3094 151.995L94.5702 151.935C94.9513 151.604 95.1118 151.303 95.0516 151.032C95.4628 151.103 95.7336 151.133 95.8741 151.093L95.9041 151.223C95.6534 151.283 95.523 151.484 95.503 151.825L95.533 151.955L95.6735 151.925C97.7597 149.648 102.875 141.855 106.977 136.57C106.847 135.998 108.983 135.205 113.396 134.182L113.537 134.152C113.697 134.844 113.356 136.519 112.514 139.177C111.972 140.782 111.711 141.664 111.752 141.805C111.05 143.941 110.718 145.095 110.758 145.275L109.194 150.401C108.181 153.029 107.408 155.787 106.867 158.695C106.957 158.675 107.098 158.686 107.298 158.736L107.519 158.545C107.539 158.635 107.599 158.665 107.689 158.645L107.599 158.274L108.281 158.254C108.482 158.204 108.652 157.953 108.793 157.492C108.763 156.8 108.903 156.428 109.214 156.348C109.635 154.704 109.896 153.881 109.986 153.851C110.377 152.216 110.668 151.283 110.859 151.053C111.45 148.926 111.882 147.833 112.163 147.763L112.223 148.023L111.792 149.137C111.04 152.476 110.277 155.115 109.505 157.05L109.725 158.013L109.866 157.983C111.731 153.971 114.42 146.028 117.92 134.152C118.02 133.109 118.522 132.297 119.415 131.725L119.214 131.514L119.184 131.404C119.585 131.313 119.865 131.153 120.026 130.932C120.006 130.842 119.655 130.712 118.973 130.531L120.718 123.049C121.099 122.708 121.32 122.527 121.39 122.527L121.42 122.908C121.33 122.918 121.19 122.969 121.029 123.079L121.36 123.551C121.962 122.899 122.614 122.337 123.326 121.865C123.687 121.966 123.868 122.086 123.887 122.206L124.149 122.186C126.134 120.732 128.08 119.689 129.996 119.057L130.016 119.308C129.665 119.839 129.424 120.11 129.294 120.12C129.314 120.301 129.364 120.461 129.454 120.602C129.485 120.932 128.622 123.139 126.857 127.232C122.825 136.71 119.444 143.72 116.696 148.274C116.706 148.364 116.766 148.485 116.877 148.645C117.549 148.485 117.98 148.314 118.15 148.154L118.271 148.144L118.291 148.395L118.572 148.375L118.822 148.244C118.833 148.314 118.923 148.345 119.093 148.334L119.113 148.605C119.133 148.846 118.993 149.227 118.682 149.749C118.391 150.06 118.091 150.712 117.769 151.704L117.78 151.835L118.04 151.815C119.133 150.591 119.966 149.388 120.538 148.204C123.737 147.261 126.174 146.348 127.86 145.446C129.575 145.295 130.868 144.854 131.751 144.112L131.741 143.981L131.089 144.172L130.949 144.182L130.939 144.052C132.182 143.871 133.055 143.59 133.526 143.219C135.954 141.353 137.789 140.02 139.033 139.238C142.904 136.419 144.71 133.711 144.489 131.113ZM143.827 131.283L143.917 132.297C143.797 132.547 143.667 132.677 143.547 132.688L143.396 130.962C143.677 131.063 143.817 131.163 143.827 131.283ZM67.8805 123.119L67.71 123.129L67.6799 122.818L68.372 122.758L68.382 122.918C68.2717 122.929 68.1012 122.989 67.8805 123.119ZM64.5005 156.93C64.0993 156.75 63.7382 156.679 63.4272 156.71L63.3871 156.218C63.3671 156.027 63.4774 155.897 63.7181 155.847C63.9388 155.827 64.0691 155.987 64.0892 156.308C64.671 155.596 64.9919 155.235 65.0521 155.225L65.4232 155.375C65.3029 156.378 64.9919 156.89 64.5005 156.93ZM100.618 119.147C100.448 119.168 100.107 118.636 99.6152 117.583L99.5851 117.272C99.9061 117.242 100.237 117.763 100.588 118.836L100.618 119.147ZM100.137 115.406L99.9964 115.737L95.0917 113.691C98.3615 113.801 100.047 114.373 100.137 115.406ZM79.425 133.189L78.7329 133.249L78.7028 132.938L79.3949 132.878L79.425 133.189ZM78.8633 122.507L79.0338 122.497L79.0739 122.989C78.9135 122.999 78.7028 123.24 78.4421 123.701L78.4119 123.36C78.7229 122.989 78.8834 122.708 78.8633 122.507ZM77.4089 125.937L77.4692 126.589L77.2987 126.599L77.2384 125.948L77.4089 125.937ZM76.6467 127.161L76.9777 127.131C76.9476 127.673 76.7971 127.964 76.5263 127.983L76.3558 127.994C76.5665 127.633 76.6668 127.352 76.6467 127.161ZM76.075 128.866L76.2655 128.846L76.2756 129.007L75.9647 129.528L75.6337 129.559L75.6237 129.398C75.9546 129.368 76.1051 129.197 76.075 128.866ZM75.5133 130.401L75.413 131.224L75.2425 131.233L75.1723 130.421L75.5133 130.401ZM69.8866 146.399C69.6659 147.522 69.4252 148.093 69.1744 148.114L69.1643 147.954C69.1042 147.401 69.3449 146.88 69.8866 146.399ZM68.8534 148.635L68.8635 148.796C68.8835 149.016 68.7832 149.147 68.5626 149.157L68.5525 148.996C68.5325 148.806 68.6328 148.685 68.8534 148.635ZM68.5525 153.279L69.0741 153.229L69.0941 153.409C68.9638 153.42 68.7933 153.49 68.5826 153.61L68.2517 153.64C68.2316 153.47 68.3419 153.34 68.5525 153.279ZM83.3969 148.696C80.4681 150.14 78.743 151.123 78.2315 151.635C75.062 152.737 73.4873 153.42 73.5174 153.691C70.6989 154.804 68.8434 155.627 67.9507 156.138C67.7401 156.158 67.4392 156.077 67.038 155.897C66.9879 155.325 67.2487 154.864 67.8003 154.493C68.2918 154.452 68.7632 154.523 69.2145 154.713C69.7361 154.443 70.6488 154.141 71.9426 153.821L71.9126 153.479L70.8694 153.57C70.9998 153.39 72.0028 152.918 73.8885 152.156L74.41 152.106L74.4201 152.266C73.5274 152.346 73.0359 152.607 72.9256 153.079C72.9456 153.289 73.066 153.38 73.2866 153.359C73.9587 152.938 74.2896 152.688 74.2797 152.617C75.5534 152.377 79.0739 150.531 84.8412 147.09L84.8712 147.401C84.8813 147.552 84.3898 147.973 83.3969 148.696ZM74.5504 151.604C75.393 151.534 76.1151 151.193 76.7169 150.601C76.9576 150.581 77.088 150.672 77.098 150.882C76.6868 150.922 75.8944 151.263 74.741 151.925L74.5705 151.935L74.5504 151.604ZM88.823 140.642L84.3999 144.152C81.11 146.308 79.3447 147.391 79.084 147.412C73.8483 150.29 70.5886 151.785 69.3249 151.895L69.1343 151.915C69.2948 151.324 71.6217 146.559 76.1352 137.592C78.1211 137.422 81.2504 136.499 85.5131 134.814L86.5562 134.724C88.7127 134.533 90.3275 134.954 91.3907 135.957L91.4509 136.61C90.6585 138.906 89.7759 140.25 88.823 140.642ZM80.1772 135.777L80.8894 135.717L80.8994 135.877L80.1873 135.937L80.1772 135.777ZM90.1771 134.082L90.6986 134.031C91.1801 134.262 91.4308 134.463 91.4509 134.643L91.4609 134.804C90.9995 134.844 90.5683 134.603 90.1771 134.082ZM91.5913 126.028C91.1299 126.58 89.8662 127.522 87.8 128.846C87.1179 128.906 84.5803 129.889 80.1873 131.815C79.9666 131.715 79.7359 131.675 79.4851 131.695L79.4551 131.384C79.4049 130.752 79.6858 129.959 80.3076 128.996C80.6486 127.192 81.0197 126.158 81.431 125.908L85.0919 117.673C85.0518 117.161 85.8341 116.77 87.4389 116.499L87.9605 116.449L88.0006 116.921C89.5753 116.68 90.5582 116.54 90.9394 116.509C93.848 116.259 95.3625 116.85 95.4829 118.264L95.8139 118.235L95.7437 117.402L96.1048 117.372C96.9573 117.843 97.4187 118.415 97.4789 119.087C97.519 119.548 97.2682 120.12 96.7366 120.802C96.516 120.822 96.3856 120.662 96.3655 120.341L96.0045 120.371L95.9242 121.374C94.4498 123.581 93.3766 124.714 92.7147 124.774C92.1129 125.607 91.7418 126.018 91.5913 126.028ZM93.838 131.795C93.5371 131.594 93.2964 131.504 93.1158 131.514L93.0757 131.023L93.4067 130.993L94.1389 131.424C94.169 131.655 94.0687 131.775 93.838 131.795ZM96.1649 134.554C96.4859 134.684 96.6765 134.824 96.7166 134.954L96.5561 134.994L96.5661 135.004C96.536 135.004 96.4959 135.015 96.4658 135.025L96.2251 135.215L96.1649 134.554ZM96.3856 135.937L96.3555 135.807L96.7768 135.707L96.8068 135.837L96.3856 135.937ZM97.3986 137.071C97.8299 137.001 98.0406 136.97 98.843 136.79L98.873 136.92L97.3485 137.271C97.3685 137.201 97.3886 137.131 97.3986 137.071ZM98.8831 137.703C98.2411 137.763 98.3816 137.683 97.3585 137.913L97.3284 137.783L98.6122 137.372L99.2241 137.231L99.2843 137.472C99.0034 137.532 99.204 137.532 98.8831 137.703ZM100.237 137.382C100.087 137.422 99.9663 137.352 99.8961 137.181L100.287 137.091C100.458 137.051 100.568 137.121 100.608 137.291L100.237 137.382ZM103.908 133.43L103.878 133.299L104.51 133.149L104.57 133.39L103.908 133.43ZM107.83 157.482C107.87 157.301 107.88 157.171 107.86 157.08L108 157.05C108.171 157.01 108.271 157.071 108.311 157.231L108.341 157.361L107.83 157.482ZM110.578 134.463L110.297 134.413C109.846 134.594 109.465 134.724 109.154 134.794L108.893 134.854C108.742 134.894 108.622 134.834 108.562 134.674L110.397 134.252L110.999 133.972L111.2 134.203C110.909 134.262 110.699 134.353 110.578 134.463ZM111.992 134.012L111.962 133.881C112.053 133.861 112.173 133.791 112.303 133.661L113.607 133.36L113.637 133.49C112.945 133.661 112.393 133.831 111.992 134.012ZM112.192 131.374C112.102 131.394 111.982 131.474 111.832 131.594C111.812 131.504 111.631 131.504 111.29 131.584C111.23 131.334 112.192 130.983 114.189 130.522L114.469 130.461L114.53 130.701C113.125 131.113 112.343 131.344 112.192 131.374ZM115.703 127.583C115.562 129.177 115.001 130.08 114.008 130.31L113.978 130.18L113.096 130.522L112.704 130.612C112.503 130.661 112.323 130.652 112.163 130.602L112.082 130.251C112.053 130.12 113.326 128.355 115.914 124.964L116.215 125.015C116.325 125.476 116.155 126.329 115.703 127.583ZM121.912 122.267L121.791 122.277L121.772 122.026L122.293 121.976L122.303 122.106C122.213 122.126 122.083 122.176 121.912 122.267ZM119.354 147.954C119.053 147.813 118.782 147.753 118.552 147.773L118.522 147.391C118.512 147.261 118.592 147.171 118.762 147.121C118.933 147.101 119.033 147.221 119.053 147.482C119.485 146.93 119.725 146.649 119.775 146.649L120.046 146.76C119.946 147.522 119.715 147.923 119.354 147.954ZM146.776 119.267C146.646 119.278 146.395 118.876 146.004 118.064L145.984 117.814C146.234 117.793 146.495 118.184 146.756 118.987L146.776 119.267ZM146.415 116.399L146.295 116.66L142.584 115.105C145.061 115.185 146.345 115.617 146.415 116.399ZM130.678 129.91L130.156 129.959L130.136 129.709L130.658 129.658L130.678 129.91ZM130.246 121.795L130.387 121.785L130.417 122.166C130.287 122.176 130.126 122.357 129.935 122.708L129.916 122.457C130.147 122.166 130.257 121.945 130.246 121.795ZM129.153 124.403L129.193 124.894L129.053 124.905L129.013 124.413L129.153 124.403ZM128.562 125.336L128.823 125.315C128.793 125.737 128.682 125.958 128.491 125.977L128.351 125.988C128.501 125.707 128.572 125.486 128.562 125.336ZM128.14 126.62L128.261 126.61L128.27 126.74L128.04 127.141L127.78 127.161L127.769 127.031C128.04 127.011 128.16 126.87 128.14 126.62ZM127.719 127.783L127.629 128.425L127.509 128.435L127.458 127.803L127.719 127.783ZM123.436 139.949C123.266 140.792 123.085 141.223 122.895 141.243L122.884 141.133C122.855 140.712 123.035 140.31 123.436 139.949ZM122.644 141.645L122.654 141.755C122.674 141.935 122.594 142.036 122.413 142.046L122.403 141.915C122.394 141.785 122.474 141.695 122.644 141.645ZM122.423 145.175L122.825 145.145L122.835 145.275C122.745 145.286 122.604 145.335 122.443 145.425L122.182 145.446C122.173 145.305 122.253 145.215 122.423 145.175ZM133.687 141.695C131.48 142.788 130.166 143.53 129.756 143.911C127.348 144.754 126.155 145.275 126.174 145.486C124.038 146.339 122.634 146.951 121.972 147.342C121.812 147.351 121.581 147.291 121.28 147.151C121.24 146.72 121.44 146.369 121.862 146.108C122.243 146.077 122.604 146.128 122.935 146.268C123.336 146.068 124.028 145.847 125.011 145.596L124.991 145.345L124.179 145.416C124.279 145.275 125.051 144.914 126.485 144.332L126.887 144.302L126.897 144.412C126.214 144.473 125.833 144.674 125.753 145.034C125.764 145.195 125.863 145.275 126.034 145.255C126.536 144.924 126.777 144.734 126.777 144.674C127.739 144.503 130.407 143.098 134.79 140.471L134.81 140.722C134.81 140.822 134.439 141.143 133.687 141.695ZM126.967 143.901C127.619 143.841 128.171 143.59 128.632 143.149C128.802 143.139 128.903 143.209 128.913 143.369C128.612 143.4 128.02 143.651 127.128 144.132L126.987 144.142L126.967 143.901ZM137.819 135.566L134.479 138.254C131.982 139.889 130.628 140.712 130.417 140.731C126.445 142.919 123.978 144.052 123.005 144.132L122.865 144.142C122.985 143.691 124.761 140.07 128.19 133.27C129.685 133.139 132.052 132.427 135.302 131.143L136.114 131.073C137.749 130.932 138.973 131.254 139.775 132.026L139.815 132.517C139.203 134.243 138.541 135.255 137.819 135.566ZM131.26 131.876L131.781 131.825L131.791 131.956L131.27 132.006L131.26 131.876ZM138.852 130.581L139.254 130.551C139.624 130.732 139.815 130.892 139.825 131.023L139.835 131.133C139.484 131.163 139.153 130.983 138.852 130.581ZM139.906 124.473C139.555 124.894 138.602 125.617 137.047 126.62C136.525 126.669 134.6 127.412 131.27 128.857C131.109 128.796 130.929 128.776 130.738 128.786L130.718 128.535C130.678 128.054 130.889 127.452 131.35 126.72C131.611 125.336 131.902 124.564 132.203 124.383L135.001 118.125C134.97 117.753 135.563 117.452 136.766 117.222L137.167 117.191L137.198 117.573C138.381 117.382 139.123 117.272 139.424 117.242C141.63 117.051 142.784 117.492 142.874 118.575L143.135 118.556L143.085 117.953L143.346 117.934C143.988 118.285 144.329 118.706 144.369 119.208C144.399 119.569 144.218 120.01 143.837 120.522C143.667 120.541 143.566 120.421 143.547 120.16L143.286 120.181L143.206 120.932C142.092 122.628 141.279 123.5 140.768 123.54C140.316 124.152 140.036 124.463 139.906 124.473ZM141.079 128.645L141.049 128.264L141.31 128.245L141.871 128.586C141.882 128.746 141.801 128.836 141.63 128.857C141.39 128.706 141.209 128.636 141.079 128.645ZM94.3896 153.008L94.1289 153.069L93.9082 153.259C93.9483 153.42 94.0486 153.479 94.2191 153.439C94.3896 153.399 94.4598 153.299 94.4197 153.139L94.3896 153.008ZM93.3967 151.032L93.4268 151.163C93.5973 151.123 93.6675 151.023 93.6274 150.862L93.5973 150.731C93.4368 150.771 93.3666 150.872 93.3967 151.032ZM100.498 137.693L100.688 137.573C100.648 137.573 100.618 137.562 100.588 137.552C100.518 137.573 100.488 137.622 100.498 137.693ZM100.458 134.232L100.759 134.162L100.698 133.901L100.398 133.972L100.458 134.232ZM171.339 144.363L170.657 144.282L170.537 144.543L170.547 144.674L174.609 144.332L174.589 144.082L171.339 144.363ZM175.051 144.052L175.07 144.302H175.11L175.091 144.052H175.051ZM192.091 141.825L192.111 142.076L192.553 142.156L192.533 141.905L192.091 141.825ZM191.47 141.875C188.42 142.557 188.039 142.437 187.397 142.487L187.417 142.738L187.698 142.718L187.848 142.707L187.808 142.677L188.14 142.547C191.159 142.216 191.51 142.337 191.48 141.996L191.47 141.875ZM173.165 137.442L172.894 137.352C172.673 137.943 172.563 138.294 172.573 138.395L172.583 138.505C172.794 138.495 172.984 138.134 173.165 137.442ZM169.493 135.466L169.484 135.336L169.343 135.345L169.093 135.506L169.233 135.747C169.424 135.727 169.514 135.637 169.493 135.466ZM177.467 143.71L177.448 143.46L177.367 143.47L177.387 143.72L177.467 143.71ZM194.017 139.98L194.207 139.959C194.318 139.949 194.368 139.859 194.358 139.699L194.247 139.458C193.555 139.518 193.235 139.549 192.673 139.859L192.663 139.728L191.831 139.809C191.81 139.558 191.74 139.428 191.63 139.438L191.199 139.478C190.697 139.518 190.456 139.498 190.206 139.688C190.196 139.598 190.166 139.558 190.116 139.558L189.634 139.598L189.353 139.759C189.343 139.669 189.313 139.629 189.263 139.629L189.092 139.779L189.082 139.648L188.41 139.598L188.25 139.608L188.27 139.859L188.611 139.949L188.932 139.929C189.042 139.999 189.162 140.02 189.303 140.01L189.584 139.869L189.594 139.98C188.019 140.371 188.029 140.3 186.946 140.481C186.826 140.401 186.735 140.361 186.675 140.371L186.655 140.391C186.534 140.381 186.464 140.3 186.454 140.17L187.016 140.1C187.057 140.1 187.086 140.14 187.397 140.2C187.848 139.98 187.869 139.889 188.11 139.869L188.089 139.618C186.545 139.919 187.167 139.719 185.231 139.889L185.14 139.899L185.121 139.648C187.608 139.348 186.775 139.518 187.628 139.278C187.638 139.368 187.668 139.408 187.718 139.408C187.818 139.307 187.929 139.257 188.059 139.238L188.23 139.227C189.102 139.157 189.393 139.328 191.118 138.846L191.129 138.956L191.409 138.816L191.67 138.796C191.65 138.545 192.031 138.505 192.161 138.495L192.141 138.224C189.113 138.836 188.32 138.666 187.478 138.906L187.467 138.796C186.675 138.936 186.645 138.876 186.445 138.886C186.384 138.896 186.294 138.946 186.193 139.047C186.183 138.956 186.153 138.916 186.094 138.916C186.063 138.916 186.053 138.927 186.043 138.927L183.475 139.348C183.466 139.278 183.435 139.238 183.376 139.247C182.041 139.528 182.402 139.578 180.617 139.739C180.537 139.749 180.426 139.789 180.286 139.879C180.276 139.809 180.236 139.769 180.145 139.779L179.052 139.869L178.32 140.05C178.31 139.98 178.27 139.94 178.18 139.949C177.769 140.06 177.408 140.13 177.116 140.15H177.097C176.916 140.17 177.187 140.1 177.046 140.039L176.826 140.17C176.504 140.2 176.676 140.15 175.572 140.16C173.636 140.401 173.847 140.431 173.636 140.441L172.914 140.391C172.924 140.461 172.884 140.511 172.804 140.511C171.981 140.401 171.56 140.27 171.55 140.12C171.66 139.337 171.851 138.936 172.121 138.916L172.262 138.906L172.142 139.167L172.282 139.157C172.543 139.017 172.663 138.886 172.653 138.766L172.633 138.495L172.373 138.515L172.352 138.264C172.333 138.074 172.362 137.903 172.432 137.763L173.024 136.81L173.044 137.061L173.325 137.041L173.305 136.79L173.145 136.559C173.355 136.379 173.516 136.278 173.646 136.268L173.636 136.138L173.255 136.168L173.225 135.787C173.987 134.203 174.349 133.28 174.328 133.019L174.599 133.129C174.77 133.119 174.85 133.019 174.839 132.838L174.579 132.858L174.569 132.748C174.549 132.557 174.589 132.377 174.669 132.216C175.081 131.785 175.271 131.354 175.231 130.902C175.311 130.892 175.351 130.932 175.362 131.023C175.712 130.822 175.983 130.291 176.184 129.408C176.806 128.285 177.688 126.038 178.842 122.678C181.048 116.74 180.958 116.108 181.269 114.704L181.008 114.724C181.028 114.905 180.988 115.075 180.908 115.236C180.727 115.165 180.587 115.125 180.487 115.135L180.477 115.025C180.437 114.513 180.647 113.902 181.129 113.179L181.249 113.169L181.469 114.032L181.73 114.012C181.72 113.952 181.791 113.611 181.931 112.979C181.921 112.849 181.821 112.768 181.62 112.758L181.369 112.919C181.349 112.738 181.359 112.267 181.389 111.515L181.259 111.525C181.038 111.304 180.928 111.123 180.918 110.973L179.483 111.113C179.474 111.013 179.424 110.863 179.323 110.672C179.313 110.542 179.634 110.411 180.296 110.281L180.587 110.391L180.858 110.231C180.868 110.321 180.918 110.361 181.018 110.351L181.289 110.191C181.299 110.281 181.349 110.321 181.45 110.311L181.58 110.301L181.56 110.01C181.359 110.03 180.828 110.03 179.985 110L179.714 110.181L179.704 110.02C172.974 110.572 169.153 110.883 168.24 110.973C168.12 110.983 167.649 110.973 166.816 110.953C166.826 111.063 166.726 111.123 166.525 111.143L166.234 111.013L165.251 111.264C165.021 111.284 164.629 111.274 164.088 111.214C163.937 111.334 163.756 111.404 163.536 111.424C163.416 111.434 164.971 111.344 166.415 111.244C166.264 111.364 166.033 111.434 165.713 111.464C165.492 111.484 165.301 111.454 165.141 111.364C164.92 111.464 164.208 111.625 163.014 111.866L162.724 111.755L158.029 112.477C157.849 112.387 157.638 112.357 157.398 112.377C157.147 112.397 156.726 112.487 156.144 112.648L153.877 113.591L154.048 113.872C154.158 113.862 154.319 113.801 154.509 113.691L155.311 113.761L155.211 114.513C154.469 114.844 154.037 115.336 153.917 115.958C152.804 116.449 152.252 116.8 152.252 117.011L152.263 117.141L152.433 117.131L152.734 116.971L153.085 117.392L153.135 117.974C153.155 118.154 151.279 122.096 147.528 129.799C144.279 137.221 142.573 141.283 142.413 142.015C141.3 142.326 140.658 142.778 140.467 143.38C140.488 143.57 140.818 143.701 141.46 143.751L141.49 144.042L141.199 144.523L141.249 145.105C141.279 145.406 142.092 145.637 143.687 145.797C143.677 145.696 143.727 145.637 143.837 145.626C143.867 145.988 143.767 146.689 143.536 147.733L143.707 147.723C144.369 146.82 144.68 146.198 144.65 145.857L144.79 145.847C144.951 145.837 145.121 146.018 145.322 146.409C145.121 146.489 144.419 148.084 143.215 151.203L143.386 151.484L143.556 151.474C145.031 147.742 145.954 145.677 146.335 145.286C148.271 145.114 151.62 144.774 156.375 144.262L156.676 144.082C156.686 144.182 156.745 144.232 156.856 144.222L157.167 144.192L157.468 144.012C157.478 144.112 157.538 144.162 157.649 144.152L161.249 143.841C162.202 143.761 162.654 143.47 162.614 142.978C162.603 142.848 163.165 142.698 164.298 142.537C164.409 142.527 164.569 142.557 164.79 142.627C164.78 142.537 165.351 142.447 166.495 142.347C166.525 141.744 166.716 141.424 167.056 141.393L167.027 141.103C166.705 141.133 166.344 141.213 165.923 141.353C165.171 141.313 164.689 141.254 164.489 141.183C164.288 141.294 164.138 141.353 164.027 141.364L161.52 141.444L161.219 141.605C161.209 141.514 161.149 141.474 161.038 141.484L160.898 141.494L160.577 141.654C160.567 141.564 160.306 141.494 159.785 141.424L159.464 141.614L158.842 141.664L158.832 141.504C162.062 141.153 163.657 140.712 163.617 140.19C163.827 140.17 163.937 140.27 163.957 140.481L164.9 140.24L164.87 139.949L157.137 140.16C157.147 140.26 157.097 140.321 156.987 140.331L156.043 140.25C155.803 140.27 155.603 140.34 155.442 140.461L155.091 140.331C154.118 140.411 153.396 140.531 152.914 140.682C152.252 140.632 151.52 140.642 150.708 140.712L148.973 140.862L148.17 140.772C148.13 140.26 149.123 137.743 151.169 133.229C151.761 131.705 152.303 130.752 152.824 130.391C152.934 130.381 153.095 130.421 153.316 130.511L154.549 130.09L155.181 130.19C156.244 130.1 157.478 129.799 158.892 129.278C159.243 129.248 159.504 129.267 159.694 129.347L160.638 129.127L163.445 128.886C164.639 128.786 165.933 128.525 167.338 128.094L167.307 127.803C166.786 127.853 166.515 127.763 166.495 127.552C166.465 127.161 166.083 127.001 165.351 127.061L165.322 126.77L166.094 126.549L168.12 126.379L168.089 126.088C168.009 126.098 167.598 126.088 166.836 126.058L166.806 125.747L167.588 125.677C167.799 125.657 167.889 125.556 167.869 125.356C166.816 125.386 166.284 125.336 166.274 125.195C158.933 125.556 155.252 125.626 155.231 125.396C155.121 125.406 154.97 125.476 154.77 125.597L154.579 125.296C156.525 121.163 157.668 119.077 158 119.047C158.01 119.208 157.929 119.468 157.759 119.819L157.769 119.95L158.08 119.92C158.852 118.074 159.504 117.121 160.046 117.081C162.352 116.881 159.724 116.73 164.66 115.958C164.86 116.048 165 116.088 165.101 116.078C167.037 115.687 169.735 115.276 173.195 114.854L173.174 114.564L171.33 114.734L171.309 114.443C171.53 114.423 171.711 114.353 171.861 114.233L171.871 114.393C171.971 114.383 172.112 114.313 172.292 114.193C172.613 114.162 172.854 114.193 173.024 114.283C173.666 114.112 174.188 114.012 174.569 113.972L175.722 113.862C176.003 113.681 176.134 113.52 176.124 113.37L176.113 113.24C175.823 113.27 175.492 113.25 175.1 113.179C175.091 113.019 175.171 112.909 175.362 112.858L177.508 112.658L178.491 112.407C178.501 112.517 178.551 112.558 178.631 112.558C178.732 112.548 178.872 112.477 179.052 112.357C179.102 112.367 179.163 112.367 179.213 112.377C179.083 112.648 178.932 113.039 178.781 113.551L178.501 113.571C178.48 113.38 178.43 113.21 178.341 113.059L178.2 113.069C175.592 120.331 174.429 123.711 172.022 129.288C171.58 130.712 171.209 131.504 170.888 131.675C170.898 131.835 170.998 131.916 171.169 131.895C171.229 132.597 171.068 133.289 170.677 133.972C169.564 137.181 168.822 138.936 168.44 139.257L168.692 140.772C168.702 140.932 168.621 141.023 168.451 141.042L168.19 141.063C168.15 140.642 168 140.441 167.729 140.471L167.588 140.481C167.247 141.013 166.987 141.624 166.816 142.337L167.077 142.316C167.428 142.086 167.588 141.815 167.558 141.504L168.08 141.454L168.381 141.564C168.14 141.945 168.03 142.246 168.049 142.477L168.19 142.718L167.849 143.52L167.859 143.651C168.16 143.621 168.491 143.72 168.842 143.931C169.083 143.911 169.343 143.801 169.634 143.61C169.935 143.58 171.059 143.57 172.995 143.57L173.967 143.239C175.15 143.229 175.341 143.259 176.365 143.169L176.786 143.129L177.006 142.978L177.016 143.109C178.089 143.018 178.16 143.089 179.002 143.189L179.012 143.319L178.421 143.369L178.44 143.621C178.621 143.6 178.781 143.55 178.912 143.44C179.062 143.43 179.153 143.51 179.163 143.691C178.922 143.71 178.651 143.771 178.35 143.871L178.089 143.781C177.678 143.891 177.769 143.921 177.488 143.941L177.076 143.861C177.086 143.931 177.046 143.981 176.976 143.981C176.986 144.142 177.076 144.222 177.227 144.212L177.648 144.172L179.845 143.981L180.677 143.801C180.687 143.871 180.717 143.911 180.788 143.901L181.188 143.751L181.941 143.691C182.523 143.64 182.512 143.6 183.776 143.4C183.767 143.319 183.797 143.289 183.857 143.279L183.866 143.39C185.923 143.039 186.053 143.018 186.384 142.908L186.414 142.968C186.926 142.848 186.635 142.878 186.775 142.778C186.786 142.868 186.815 142.908 186.866 142.908L187.227 142.878L187.207 142.608L186.475 142.597L186.464 142.577C186.435 142.587 186.414 142.587 186.384 142.597H186.284V142.617C185.792 142.718 185.783 142.648 185.461 142.677L183.626 142.778L183.616 142.648L184.639 142.507L185.01 142.477L185.22 142.326L185.231 142.457C186.675 142.337 187.187 142.698 193.866 141.273C194.228 141.243 194.198 140.943 194.428 140.321C194.308 140.331 194.188 140.3 194.077 140.24C193.526 140.451 193.235 140.35 192.172 140.521C192.081 140.531 192.011 140.451 191.981 140.291L191.971 140.18L192.994 140.21C193.185 140.19 193.555 140.16 194.108 139.849C194.108 139.94 193.896 139.989 194.017 139.98ZM144.63 140.772L144.158 140.812C144.138 140.621 144.389 139.899 144.911 138.666L145.221 138.635C145.231 138.927 145.041 139.638 144.63 140.772ZM145.201 138.485L145.191 138.355C145.181 138.194 145.281 138.084 145.502 138.034L145.512 138.164C145.522 138.355 145.422 138.465 145.201 138.485ZM151.47 143.329L151.48 143.46L150.697 143.53L150.688 143.4L151.47 143.329ZM150.527 143.249C150.537 143.409 150.297 143.59 149.775 143.771L148.812 143.701L148.501 143.731L148.471 143.44L150.527 143.249ZM156.866 114.072L156.394 114.112L156.385 113.952C156.375 113.791 156.465 113.681 156.665 113.631L156.836 113.621L157.157 113.751C157.167 113.942 157.077 114.052 156.866 114.072ZM164.038 112.668L164.188 112.658L164.208 112.949L163.777 112.989C163.767 112.828 163.847 112.718 164.038 112.668ZM162.232 113.3L161.52 113.22L161.51 113.089C162.442 113.009 162.753 112.909 163.325 112.748C163.335 112.858 163.436 112.899 163.617 112.879L163.636 113.169L163.356 113.2C163.135 113.22 162.944 113.19 162.784 113.099C162.613 113.21 162.433 113.28 162.232 113.3ZM163.125 115.898L163.115 115.767L164.268 115.657L164.278 115.787L163.125 115.898ZM164.359 114.895L164.349 114.734L164.91 114.684L164.92 114.844L164.359 114.895ZM164.489 112.929L164.338 112.939L164.469 112.628L165.753 112.508L165.763 112.668C165.432 112.698 165 112.788 164.489 112.929ZM165.141 115.697L165.121 115.406L165.682 115.356C165.873 115.336 165.973 115.426 165.984 115.627L165.141 115.697ZM168.541 111.063L167.819 111.264L167.689 111.274C167.347 111.304 166.906 111.294 166.384 111.244C167.317 111.184 168.21 111.113 168.541 111.063ZM167.769 114.273L167.779 114.403L166.786 114.493L166.775 114.363L167.769 114.273ZM169.394 115.045C169.383 114.925 169.193 114.844 168.802 114.804L167.809 115.085L167.046 115.115C166.876 114.995 166.786 114.915 166.775 114.854L167.658 114.905L169.644 114.584L170.657 114.624L170.668 114.784C170.166 114.834 169.745 114.925 169.394 115.045ZM179.614 112.407C179.735 112.417 179.815 112.417 179.845 112.417C180.196 112.076 180.587 111.805 181.038 111.615C180.677 113.2 180.116 114.373 179.343 115.135L178.781 114.794C179.253 113.601 179.534 112.808 179.614 112.407ZM177.889 115.366L178.03 115.356C177.839 115.717 177.668 115.908 177.528 115.918L177.498 115.537C177.588 115.537 177.719 115.476 177.889 115.366ZM176.775 118.024C177.046 116.941 177.307 116.329 177.548 116.168L177.558 116.299C177.418 117.302 177.197 117.833 176.906 117.873L176.956 118.505C176.716 118.846 176.605 119.107 176.615 119.308L176.475 119.318L176.394 118.445C176.555 118.425 176.685 118.285 176.775 118.024ZM176.344 119.468C176.354 119.618 176.254 119.969 176.054 120.511L175.913 120.522L175.883 120.141C176.073 119.699 176.234 119.479 176.344 119.468ZM168.25 142.959L168.24 142.848L168.501 142.828L168.531 143.209C168.391 143.219 168.29 143.139 168.25 142.959ZM179.815 143.259C179.805 143.169 179.764 143.129 179.674 143.139L179.022 143.199L179.012 143.069H179.073L180.617 142.938L180.627 143.069C180.176 143.089 179.905 143.159 179.815 143.259ZM179.042 142.938C179.102 142.968 179.073 142.999 179.042 143.018C179.012 143.009 178.972 142.978 179.042 142.938ZM179.123 141.133L178.26 141.203L178.25 141.073L179.032 141.002L179.714 140.832C179.724 140.912 179.764 140.943 179.855 140.932C180.667 140.792 180.587 140.752 180.978 140.722C181.108 140.712 181.188 140.792 181.199 140.952L179.123 141.133ZM182.142 140.872C181.66 140.822 181.63 140.782 181.289 140.812L181.279 140.702L182.051 140.632L182.062 140.742C181.981 140.752 182.272 140.772 182.142 140.872ZM182.201 140.731L182.192 140.621L182.613 140.581L182.623 140.691L182.201 140.731ZM183.134 140.651L183.124 140.541C183.195 140.531 183.295 140.481 183.425 140.381C183.636 140.361 183.746 140.501 183.767 140.661L183.134 140.651ZM184.328 140.501L184.318 140.371L184.829 140.331L184.839 140.461L184.328 140.501ZM185.04 140.441C185.03 140.291 185.09 140.2 185.22 140.18L185.392 140.401C185.381 140.331 185.411 140.291 185.472 140.281L185.602 140.521L185.04 140.441ZM194.909 139.278L194.92 139.267V139.257C194.92 139.257 194.909 139.267 194.909 139.278ZM195.09 139.147C195.17 139.097 195.21 139.047 195.02 139.017C194.93 139.117 195.12 139.147 194.92 139.157L194.93 139.247C194.95 139.227 195 139.197 195.04 139.167L194.93 139.257V139.267L194.719 139.538L195.14 139.388H195.191L195.17 139.137L195.09 139.147ZM195.822 139.719L195.742 139.728L195.762 139.98L196.354 139.929C196.344 139.769 195.952 139.719 195.822 139.719Z" fill="#F9DC3E"/>
</g>
<defs>
<filter id="filter0_f_2019_32461" x="-20" y="25" width="298" height="184" filterUnits="userSpaceOnUse" color-interpolation-filters="sRGB">
<feFlood flood-opacity="0" result="BackgroundImageFix"/>
<feBlend mode="normal" in="SourceGraphic" in2="BackgroundImageFix" result="shape"/>
<feGaussianBlur stdDeviation="18.5" result="effect1_foregroundBlur_2019_32461"/>
</filter>
<filter id="filter1_ii_2019_32461" x="17" y="62" width="224" height="148" filterUnits="userSpaceOnUse" color-interpolation-filters="sRGB">
<feFlood flood-opacity="0" result="BackgroundImageFix"/>
<feBlend mode="normal" in="SourceGraphic" in2="BackgroundImageFix" result="shape"/>
<feColorMatrix in="SourceAlpha" type="matrix" values="0 0 0 0 0 0 0 0 0 0 0 0 0 0 0 0 0 0 127 0" result="hardAlpha"/>
<feOffset dy="-4"/>
<feComposite in2="hardAlpha" operator="arithmetic" k2="-1" k3="1"/>
<feColorMatrix type="matrix" values="0 0 0 0 0 0 0 0 0 0 0 0 0 0 0 0 0 0 0.25 0"/>
<feBlend mode="normal" in2="shape" result="effect1_innerShadow_2019_32461"/>
<feColorMatrix in="SourceAlpha" type="matrix" values="0 0 0 0 0 0 0 0 0 0 0 0 0 0 0 0 0 0 127 0" result="hardAlpha"/>
<feOffset dy="4"/>
<feComposite in2="hardAlpha" operator="arithmetic" k2="-1" k3="1"/>
<feColorMatrix type="matrix" values="0 0 0 0 1 0 0 0 0 1 0 0 0 0 1 0 0 0 0.25 0"/>
<feBlend mode="normal" in2="effect1_innerShadow_2019_32461" result="effect2_innerShadow_2019_32461"/>
</filter>
<linearGradient id="paint0_linear_2019_32461" x1="17" y1="34" x2="197.768" y2="215.142" gradientUnits="userSpaceOnUse">
<stop stop-color="#05815D"/>
<stop offset="1" stop-color="#0C575F"/>
</linearGradient>
<linearGradient id="paint1_linear_2019_32461" x1="17" y1="62" x2="241" y2="210" gradientUnits="userSpaceOnUse">
<stop stop-color="#585955"/>
<stop offset="1" stop-color="#232421"/>
</linearGradient>
<clipPath id="clip0_2019_32461">
<rect width="256" height="256" fill="white"/>
</clipPath>
</defs>
</svg>
