<svg xmlns="http://www.w3.org/2000/svg" xmlns:xlink="http://www.w3.org/1999/xlink" fill="none" version="1.1" width="256" height="256" viewBox="0 0 256 256"><defs><clipPath id="master_svg0_7_07"><rect x="0" y="0" width="256" height="256" rx="0"/></clipPath><mask id="master_svg1_7_844" style="mask-type:alpha" maskUnits="objectBoundingBox"><g><g><path d="M104.425,42.3784C100.056,37.0733,93.5437,34,86.6712,34L29,34C22.3726,34,17,39.3726,17,46L17,58.137100000000004L17,68.2L17,160C17,166.627,22.3726,172,29,172L229,172C235.627,172,241,166.627,241,160L241,70.1371C241,63.509699999999995,235.627,58.137100000000004,229,58.137100000000004L117.404,58.137100000000004L104.425,42.3784Z" fill-rule="evenodd" fill="#3EA6C8" fill-opacity="1" style="mix-blend-mode:passthrough"/></g></g></mask><filter id="master_svg2_7_842" filterUnits="objectBoundingBox" color-interpolation-filters="sRGB" x="-0.33035714285714285" y="-0.5362318840579711" width="1.6607142857142858" height="2.072463768115942"><feFlood flood-opacity="0" result="BackgroundImageFix"/><feBlend mode="normal" in="SourceGraphic" in2="BackgroundImageFix" result="shape"/><feGaussianBlur stdDeviation="18.5" result="effect1_foregroundBlur"/></filter><linearGradient x1="-5.134781488891349e-16" y1="-3.3306690738754696e-16" x2="1.2066012353081996" y2="0.526733766306418" id="master_svg3_7_011"><stop offset="0%" stop-color="#FFFFFF" stop-opacity="1"/><stop offset="100%" stop-color="#DEFDFE" stop-opacity="1"/></linearGradient><linearGradient x1="0" y1="0.5" x2="1" y2="0.5" id="master_svg4_7_0742"><stop offset="0%" stop-color="#247CAC" stop-opacity="1"/><stop offset="100%" stop-color="#2788BF" stop-opacity="1"/></linearGradient><linearGradient x1="-5.134781488891349e-16" y1="0.5" x2="1" y2="0.5" id="master_svg5_7_013"><stop offset="0%" stop-color="#E3EBFF" stop-opacity="1"/><stop offset="100%" stop-color="#17A7FB" stop-opacity="1"/></linearGradient><linearGradient x1="6.217248937900877e-15" y1="0.5" x2="1" y2="0.5" id="master_svg6_7_675"><stop offset="50%" stop-color="#FF4369" stop-opacity="1"/><stop offset="50%" stop-color="#11A7FD" stop-opacity="1"/></linearGradient></defs><g clip-path="url(#master_svg0_7_07)"><g><g><path d="M104.43,42.38C100.06,37.07,93.55,34,86.68,34L29,34C22.37,34,17,39.37,17,46L17,160C17,166.63,22.37,172,29,172L229,172C235.63,172,241,166.63,241,160L241,70.14C241,63.510000000000005,235.63,58.14,229,58.14L117.4,58.14L104.42,42.38L104.43,42.38Z" fill-rule="evenodd" fill="#17A7FB" fill-opacity="1" style="mix-blend-mode:passthrough"/></g><g mask="url(#master_svg1_7_844)"><g><g style="mix-blend-mode:multiply" filter="url(#master_svg2_7_842)"><g><path d="M92.789,49.054500000000004C97.7642,49.054500000000004,102.605,47.030699999999996,106.586,43.28664L116.459,34L229,34C235.627,34,241,40.74017,241,49.054500000000004L241,91.7091L241,156.945C241,165.259,235.627,172,229,172L29,172C22.3726,172,17,165.259,17,156.945L17,91.7091L17,64.1091C17,55.7947,22.3726,49.054500000000004,29,49.054500000000004L87,49.054500000000004L92.789,49.054500000000004Z" fill-rule="evenodd" fill="#000000" fill-opacity="0.30000001192092896" style="mix-blend-mode:passthrough"/></g></g></g></g><g><path d="M92.79,74C97.77,74,102.61,72.39,106.59,69.4L116.46,62L229,62C235.63,62,241,67.37,241,74L241,198C241,204.63,235.63,210,229,210L29,210C22.37,210,17,204.63,17,198L17,86C17,79.37,22.37,74,29,74L92.79,74Z" fill-rule="evenodd" fill="url(#master_svg3_7_011)" fill-opacity="1" style="mix-blend-mode:passthrough"/></g><g><path d="M17,194L17,198C17,204.63,22.37,210,29,210L229,210C235.63,210,241,204.63,241,198L241,194C241,200.63,235.63,206,229,206L29,206C22.37,206,17,200.63,17,194Z" fill-rule="evenodd" fill="url(#master_svg4_7_0742)" fill-opacity="1" style="mix-blend-mode:passthrough"/></g><g><path d="M106.59,69.4C102.61,72.38,97.77,74,92.79,74L29,74C22.37,74,17,79.37,17,86L17,90C17,83.37,22.37,78,29,78L92.79,78C97.77,78,102.61,76.39,106.59,73.4L116.46,66L229,66C235.63,66,241,71.37,241,78L241,74C241,67.37,235.63,62,229,62L116.46,62L106.59,69.4Z" fill-rule="evenodd" fill="url(#master_svg5_7_013)" fill-opacity="1" style="mix-blend-mode:passthrough"/></g></g><g><g><path d="M100.7378,126.1C100.4704,124.48349999999999,100.3272,122.8478,100.3272,121.2122C100.3272,105.0756,113.3809,92,129.4905,92C145.6,92,158.65370000000001,105.0756,158.65370000000001,121.2122C158.65370000000001,122.8478,158.51999999999998,124.48349999999999,158.2431,126.1C173.03480000000002,126.1765,185,138.2191,185,153.0452C185,167.87130000000002,172.95850000000002,179.9904,158.0999,179.9904C150.5942,179.9904,143.8047,176.91039999999998,138.9251,171.9461C136.3563,169.3348,136.3754,165.1261,138.9633,162.53390000000002C141.5702,159.9226,145.8005,159.9226,148.4074,162.53390000000002C148.4934,162.62,148.5698,162.7061,148.6462,162.79219999999998C151.0908,165.1739,154.42340000000002,166.6374,158.0999,166.6374C165.5864,166.6374,171.6597,160.5539,171.6597,153.0548C171.6597,145.5557,165.5864,139.4722,158.0999,139.4722C154.6621,139.4722,151.5205,140.7539,149.1332,142.8678L149.1236,142.8678L148.89440000000002,143.0783C148.62709999999998,143.3174,148.3788,143.57569999999998,148.13049999999998,143.8435L147.6148,144.36L120.12270000000001,171.9078C115.243,176.90089999999998,108.42490000000001,180,100.9001,180C86.0416,180,74,167.9383,74,153.0548C74,138.1713,85.9461,126.20519999999999,100.7187,126.1096L100.7378,126.1ZM100.9383,166.64690000000002C108.42490000000001,166.64690000000002,114.4982,160.5635,114.4982,153.0643C114.4982,145.5652,108.42490000000001,139.4817,100.9383,139.4817C93.4517,139.4817,87.3784,145.5652,87.3784,153.0643C87.3784,160.5635,93.4517,166.64690000000002,100.9383,166.64690000000002ZM129.5,137.0617C138.2375,137.0617,145.3135,129.9644,145.3135,121.2217C145.3135,112.4791,138.228,105.3818,129.5,105.3818C120.77199999999999,105.3818,113.6865,112.4791,113.6865,121.2217C113.6865,129.9644,120.77199999999999,137.0617,129.5,137.0617Z" fill="#06A7FF" fill-opacity="1" style="mix-blend-mode:passthrough"/></g><g><path d="M145.2275543487549,122.89564335388184C145.19885434875488,122.64694335388184,145.18935434875488,122.38869335388183,145.18935434875488,122.13999335388183C145.18935434875488,118.40955335388183,148.2068543487549,115.38695335388184,151.93105434875488,115.38695335388184C155.65525434875488,115.38695335388184,158.67285434875487,118.40956335388184,158.67285434875487,122.13999335388183C158.67285434875487,122.42695335388184,158.6537543487549,122.70433335388184,158.62505434875487,122.98173335388184C157.7179543487549,138.29565335388185,145.02695434875488,150.43385335388183,129.50955434875488,150.43385335388183C113.99205434875488,150.43385335388183,101.31072634875488,138.29565335388185,100.39400334875488,122.98173335388184C100.35580559875488,122.70433335388184,100.34625434875488,122.41738335388183,100.34625434875488,122.13999335388183C100.34625434875488,118.40955335388183,103.36380434875488,115.38695335388184,107.08799434875488,115.38695335388184C110.81215434875489,115.38695335388184,113.82975434875488,118.40956335388184,113.82975434875488,122.13999335388183C113.82975434875488,122.39825335388184,113.81065434875488,122.64694335388184,113.79155434875489,122.89564335388184C114.63185434875489,130.85385335388185,121.35455434875487,137.06175335388184,129.51905434875488,137.06175335388184C137.68365434875489,137.06175335388184,144.4158543487549,130.85385335388185,145.24665434875487,122.89564335388184L145.2275543487549,122.89564335388184Z" fill="#FF436A" fill-opacity="1" style="mix-blend-mode:passthrough"/></g></g><g><path d="M107,198L150.66,198C153.97,198,156.66,200.69,156.66,204L156.66,210L101,210L101,204C101,200.69,103.69,198,107,198Z" fill="url(#master_svg6_7_675)" fill-opacity="1" style="mix-blend-mode:passthrough"/></g></g></svg>