<?xml version="1.0" encoding="UTF-8"?>
<svg id="base" xmlns="http://www.w3.org/2000/svg" width="256" height="256" version="1.1" xmlns:xlink="http://www.w3.org/1999/xlink" viewBox="0 0 256 256">
<defs>
    <style>
      .st0 {
        fill: #1a863b;
      }

      .st0, .st1, .st2, .st3, .st4, .st5 {
        fill-rule: evenodd;
      }

      .st6 {
        fill: #fff;
      }

      .st7 {
        mask: url(#mask);
      }

      .st1 {
        fill: #04752b;
      }

      .st2 {
        fill: #a6a1a1;
      }

      .st3 {
        fill: url(#green);
      }

      .st4 {
        fill: url(#linear-gradient);
      }

      .st5 {
        fill: url(#_未命名的渐变_267);
      }
    </style>
    <linearGradient id="linear-gradient" x1="32.6" y1="239.5" x2="213.3" y2="58.4" gradientTransform="translate(0 258) scale(1 -1)" gradientUnits="userSpaceOnUse">
      <stop offset="0" stop-color="#05815d"/>
      <stop offset="1" stop-color="#0c575f"/>
    </linearGradient>
    <mask id="mask" x="17" y="34" width="224" height="138" maskUnits="userSpaceOnUse">
      <g id="mask0_501_11930">
        <path class="st4" d="M104.4,42.4c-4.4-5.3-10.9-8.4-17.8-8.4H29c-6.6,0-12,5.4-12,12v114c0,6.6,5.4,12,12,12h200c6.6,0,12-5.4,12-12v-89.9c0-6.6-5.4-12-12-12h-111.6l-13-15.8Z"/>
      </g>
    </mask>
    <linearGradient id="green" x1="241.2" y1="200.8" x2="22" y2="74.2" gradientUnits="userSpaceOnUse">
      <stop offset="0" stop-color="#238b15"/>
      <stop offset="0" stop-color="#208d18"/>
      <stop offset="1" stop-color="#00ae42"/>
    </linearGradient>
    <linearGradient id="_未命名的渐变_267" data-name="未命名的渐变 267" x1="17" y1="76" x2="241" y2="76" gradientUnits="userSpaceOnUse">
      <stop offset="0" stop-color="#00c845"/>
      <stop offset="1" stop-color="#00ae42"/>
    </linearGradient>
  </defs>
  <path class="st0" d="M104.4,42.4c-4.4-5.3-10.9-8.4-17.8-8.4H29c-6.6,0-12,5.4-12,12v114c0,6.6,5.4,12,12,12h200c6.6,0,12-5.4,12-12v-89.9c0-6.6-5.4-12-12-12h-111.6l-13-15.8Z"/>
  <g class="st7">
    <path class="st2" d="M92.8,74c5,0,9.8-1.6,13.8-4.6l9.9-7.4h112.5c6.6,0,12,5.4,12,12v86c0,6.6-5.4,12-12,12H29c-6.6,0-12-5.4-12-12v-74c0-6.6,5.4-12,12-12h63.8Z"/>
  </g>
  <path class="st3" d="M92.8,74c5,0,9.8-1.6,13.8-4.6l9.9-7.4h112.5c6.6,0,12,5.4,12,12v124c0,6.6-5.4,12-12,12H29c-6.6,0-12-5.4-12-12v-112c0-6.6,5.4-12,12-12h63.8Z"/>
  <path class="st1" d="M17,194v4c0,6.6,5.4,12,12,12h200c6.6,0,12-5.4,12-12v-4c0,6.6-5.4,12-12,12H29c-6.6,0-12-5.4-12-12Z"/>
  <path class="st5" d="M106.6,69.4c-4,3-8.8,4.6-13.8,4.6H29c-6.6,0-12,5.4-12,12v4c0-6.6,5.4-12,12-12h63.8c5,0,9.8-1.6,13.8-4.6l9.9-7.4h112.5c6.6,0,12,5.4,12,12v-4c0-6.6-5.4-12-12-12h-112.5l-9.9,7.4Z"/>
  <g>
    <polygon class="st6" points="126.9 105.5 126.9 141 101.2 151.1 101.1 105.5 126.9 105.5"/>
    <polygon class="st6" points="131.1 178.5 131.2 132.9 156.9 143 156.9 178.5 131.1 178.5"/>
    <polygon class="st6" points="156.9 105.5 156.9 138.6 131.2 128.3 131.1 105.5 156.9 105.5"/>
    <polygon class="st6" points="126.9 178.5 101.1 178.5 101.1 155.7 126.9 145.4 126.9 178.5"/>
  </g>
</svg>