<svg xmlns="http://www.w3.org/2000/svg" xmlns:xlink="http://www.w3.org/1999/xlink" fill="none" version="1.1" width="256" height="256" viewBox="0 0 256 256"><defs><clipPath id="master_svg0_13_1368"><rect x="0" y="0" width="256" height="256" rx="0"/></clipPath><mask id="master_svg1_13_1376" style="mask-type:luminance" maskUnits="userSpaceOnUse" x="17" y="34" width="224" height="138"><path d="M104.425003,42.3783989C100.056,37.073299399999996,93.543701,34,86.671204,34L29,34C22.3726006,34,17,39.3726006,17,46L17,58.137100000000004L17,68.199997L17,160C17,166.627,22.3726006,172,29,172L229,172C235.627,172,241,166.627,241,160L241,70.1371C241,63.509701,235.627,58.137100000000004,229,58.137100000000004L117.404,58.137100000000004L104.425003,42.3783989Z" fill-rule="evenodd" fill="#FFFFFF" fill-opacity="1" style="mix-blend-mode:passthrough"/></mask><filter id="master_svg2_13_1374" filterUnits="objectBoundingBox" color-interpolation-filters="sRGB" x="-0.33035714285714285" y="-0.5362318840579711" width="1.6607142857142858" height="2.072463768115942"><feFlood flood-opacity="0" result="BackgroundImageFix"/><feBlend mode="normal" in="SourceGraphic" in2="BackgroundImageFix" result="shape"/><feGaussianBlur stdDeviation="18.5" result="effect1_foregroundBlur"/></filter><linearGradient x1="0" y1="0" x2="1.2066012353081996" y2="0.526733766306418" id="master_svg3_13_1872"><stop offset="0%" stop-color="#FA8789" stop-opacity="1"/><stop offset="100%" stop-color="#79BFFA" stop-opacity="1"/></linearGradient><linearGradient x1="0" y1="0.5" x2="1" y2="0.5" id="master_svg4_13_2246"><stop offset="0%" stop-color="#FAB5BC" stop-opacity="1"/><stop offset="100%" stop-color="#D9E2FF" stop-opacity="1"/></linearGradient><linearGradient x1="0" y1="0.5" x2="1" y2="0.5" id="master_svg5_13_2060"><stop offset="0%" stop-color="#985F64" stop-opacity="1"/><stop offset="100%" stop-color="#4D7399" stop-opacity="1"/><stop offset="100%" stop-color="#FFFFFF" stop-opacity="1"/></linearGradient></defs><g clip-path="url(#master_svg0_13_1368)"><path d="M104.425003,42.3783989C100.056,37.073299399999996,93.543701,34,86.671204,34L29,34C22.3726006,34,17,39.3726006,17,46L17,58.137100000000004L17,68.199997L17,160C17,166.627,22.3726006,172,29,172L229,172C235.627,172,241,166.627,241,160L241,70.1371C241,63.509701,235.627,58.137100000000004,229,58.137100000000004L117.404,58.137100000000004L104.425003,42.3783989Z" fill-rule="evenodd" fill="#DD94A3" fill-opacity="1" style="mix-blend-mode:passthrough"/><g mask="url(#master_svg1_13_1376)"><g style="mix-blend-mode:multiply" filter="url(#master_svg2_13_1374)"><path d="M92.789001,49.054545C97.764198,49.054545,102.605003,47.030716,106.585999,43.286644L116.459,34L229,34C235.627,34,241,40.7401667,241,49.054545L241,91.709091L241,156.94546C241,165.25932,235.627,172,229,172L29,172C22.3726006,172,17,165.25932,17,156.94546L17,91.709091L17,64.109091C17,55.794712000000004,22.3726006,49.054545,29,49.054545L87,49.054545L92.789001,49.054545Z" fill-rule="evenodd" fill="#D9E2FF" fill-opacity="0.30000001192092896" style="mix-blend-mode:passthrough"/></g></g><path d="M92.789001,74C97.764198,74,102.605003,72.386803,106.585999,69.4023972C112.994751,64.5973601,120.78881,62,128.79883999999998,62L229,62C235.627,62,241,67.3725967,241,74L241,108L241,198C241,204.627,235.627,210,229,210L29,210C22.3726006,210,17,204.627,17,198L17,108L17,86C17,79.372597,22.3726006,74,29,74L87,74L92.789001,74Z" fill-rule="evenodd" fill="url(#master_svg3_13_1872)" fill-opacity="1"/><path d="M106.589996,69.4000015C102.609993,72.380005,97.769997,74,92.789993,74L29,74C22.3699989,74,17,79.370003,17,86L17,90C17,83.370003,22.3699989,78,29,78L92.790001,78C97.770004,78,102.610001,76.389999,106.590004,73.400002L116.460007,66L229,66C235.63,66,241,71.3700027,241,78L241,74C241,67.3700027,235.63,62,229,62L116.459999,62L106.589996,69.4000015Z" fill-rule="evenodd" fill="url(#master_svg4_13_2246)" fill-opacity="1" style="mix-blend-mode:passthrough"/><path d="M17,194L17,198C17,204.630005,22.3699989,210,29,210L229,210C235.63,210,241,204.630005,241,198L241,194C241,200.6300049,235.63,206,229,206L29,206C22.3699989,206,17,200.6300049,17,194Z" fill-rule="evenodd" fill="url(#master_svg5_13_2060)" fill-opacity="1" style="mix-blend-mode:passthrough"/><path d="M129.22258399999998,182C142.14485200000001,182,154.695953,175.206963,161.198433,164.694252C169.110657,151.908848,167.072014,135.340088,156.353767,125.298124C151.964931,121.184872,146.252907,118.771334,140.229313,118.240774C139.91004900000001,117.02532,139.425388,115.165482,139.052284,113.77253400000001C138.769566,112.74229,138.638783,111.573143,138.940727,110.531328C139.025356,110.241932,139.156139,109.97762,139.29845799999998,109.711378C139.92158899999998,108.5480118,141.088989,107.7473593,142.383339,107.5312777C142.969921,107.4309559,143.573833,107.4618206,144.148876,107.614234C144.750843,107.7743692,145.318214,108.0599022,145.814404,108.434185C146.33560599999998,108.829689,146.741413,109.339023,147.216454,109.780828C147.985744,110.502385,149.016602,110.942266,150.151314,110.942266C152.52845,110.942266,154.455536,109.009115,154.455536,106.6245093C154.455536,105.916461,154.28436299999998,105.2489247,153.984344,104.6585627C153.957417,104.6084023,153.930489,104.5563102,153.901642,104.5061493C153.882404,104.4714198,153.863178,104.438621,153.843945,104.4038944C153.363144,103.5916648,152.666924,102.8836133,151.949547,102.2662408C150.568657,101.0777969,148.93967800000001,100.1826053,147.208759,99.62696987C146.395226,99.36458716,145.55669,99.18323261,144.706619,99.084839672C142.837223,98.86875805,140.927441,99.067474939,139.140751,99.65783978C132.103607,101.9903531,128.72831,108.5692339,130.74387000000002,116.037521C130.943893,116.788015,131.290073,118.105722,131.470856,118.790625C129.964958,119.114746,128.468681,119.560408,127.001247,120.127621C120.125647,122.782322,114.667479,128.6821,112.76154700000001,135.521439C112.080721,137.952347,111.849928,140.473927,112.071106,143.01673499999998C112.548067,148.513298,115.469471,153.627842,119.88331600000001,156.706989C124.043293,159.604786,129.016792,160.453667,133.897995,159.10509100000002C137.35213099999999,158.14817399999998,140.421635,156.091545,142.54297300000002,153.309498C145.89902899999998,148.910717,146.89912,143.128639,145.360516,137.032074C144.80085400000002,134.815323,144.096947,132.349689,143.41420399999998,129.965075C143.168015,129.102686,142.921848,128.238367,142.677593,127.37982600000001C145.597073,128.13225,148.289616,129.557997,150.478264,131.608837C158.077003,138.729855,159.542503,150.994362,153.884331,160.13919099999998C148.91467699999998,168.17469,139.23498899999998,173.366417,129.22258399999998,173.366417C112.342278,173.366417,98.6084003,159.589348,98.6084003,142.655956C98.6084003,141.149181,98.7237968,139.628899,98.9545879,138.133705C99.137291,136.927891,99.3969297,135.725941,99.7219572,134.558723C100.045064,133.406933,100.43933,132.264793,100.895137,131.159313C101.349022,130.063475,101.870219,128.983068,102.447192,127.950895C103.018396,126.926449,103.65884,125.921278,104.349278,124.964355C105.033957,124.015146,105.7821,123.094872,106.57448,122.224762C107.366848,121.36237,108.215002,120.534704,109.099695,119.76684399999999C109.984381,118.998983,110.924849,118.273573,111.894161,117.609894C112.865398,116.94622,113.886646,116.332705,114.929047,115.788647C115.50025,115.487675,116.079145,115.207928,116.667652,114.94747100000001C116.983063,114.808564,117.302326,114.671588,117.623512,114.542323C119.833309,113.65871,120.90840299999999,111.148696,120.02948,108.9338722C119.148636,106.7171164,116.644579,105.6347828,114.434769,106.5222592C114.017424,106.6881781,113.603926,106.8656731,113.180813,107.0508823C112.423058,107.3865814,111.67683600000001,107.7492876,110.944078,108.1312885C109.607428,108.8316221,108.297697,109.61877,107.04759,110.473447C105.803253,111.322334,104.599301,112.252255,103.466512,113.236194C102.331799,114.220128,101.241323,115.283169,100.231615,116.390585C99.2122955,117.50185400000001,98.2526007,118.682583,97.3756022,119.899963C96.4889879,121.128925,95.6677608,122.41769,94.9369307,123.73153500000001C94.19455669999999,125.058891,93.5233459,126.446054,92.9425251,127.854437C92.3540156,129.27632,91.8462774,130.748371,91.4347055,132.228134C91.01543530000001,133.727192,90.68271601000001,135.27449000000001,90.44423419,136.823704C90.14997812,138.751072,89.999964059883,140.713161,89.999964059883,142.655956C89.999964059883,164.350853,107.595716,182,129.22258399999998,182ZM133.680668,127.15024199999999C134.136475,128.842234,134.638439,130.599817,135.138477,132.347755C135.813541,134.705345,136.482826,137.039795,137.01556399999998,139.150436C137.636772,141.618,137.915642,145.165958,135.705845,148.061848C134.719212,149.354465,133.25947200000002,150.32103,131.605488,150.782143C128.568684,151.617527,126.226177,150.610424,124.79527999999999,149.614918C122.456619,147.982735,120.906485,145.237347,120.646845,142.268173C120.516066,140.765247,120.652615,139.277763,121.050732,137.85009C122.239288,133.582497,125.70497900000001,129.882118,130.093819,128.186274C131.272762,127.73096100000001,132.472866,127.385618,133.680668,127.15024199999999Z" fill-rule="evenodd" fill="#FFFFFF" fill-opacity="0.800000011920929"/></g></svg>