<svg width="256" height="256" viewBox="0 0 256 256" fill="none" xmlns="http://www.w3.org/2000/svg">
<path fill-rule="evenodd" clip-rule="evenodd" d="M104.425 42.3784C100.056 37.0733 93.5437 34 86.6712 34H29C22.3726 34 17 39.3726 17 46V58.1371V68.2V160C17 166.627 22.3726 172 29 172H229C235.627 172 241 166.627 241 160V70.1371C241 63.5097 235.627 58.1371 229 58.1371H117.404L104.425 42.3784Z" fill="#B7FBD6"/>
<mask id="mask0_822_19776" style="mask-type:alpha" maskUnits="userSpaceOnUse" x="17" y="34" width="224" height="138">
<path fill-rule="evenodd" clip-rule="evenodd" d="M104.425 42.3784C100.056 37.0733 93.5437 34 86.6712 34H29C22.3726 34 17 39.3726 17 46V58.1371V68.2V160C17 166.627 22.3726 172 29 172H229C235.627 172 241 166.627 241 160V70.1371C241 63.5097 235.627 58.1371 229 58.1371H117.404L104.425 42.3784Z" fill="url(#paint0_linear_822_19776)"/>
</mask>
<g mask="url(#mask0_822_19776)">
<g style="mix-blend-mode:multiply" filter="url(#filter0_f_822_19776)">
<path fill-rule="evenodd" clip-rule="evenodd" d="M92.789 74C97.7642 74 102.605 72.3868 106.586 69.4024L116.459 62H229C235.627 62 241 67.3726 241 74V108V160C241 166.627 235.627 172 229 172H29C22.3726 172 17 166.627 17 160L17 108V86C17 79.3726 22.3726 74 29 74H87H92.789Z" fill="black" fill-opacity="0.3"/>
</g>
</g>
<g filter="url(#filter1_ii_822_19776)">
<path fill-rule="evenodd" clip-rule="evenodd" d="M92.789 74C97.7642 74 102.605 72.3868 106.586 69.4024L116.459 62H229C235.627 62 241 67.3726 241 74V108V198C241 204.627 235.627 210 229 210H29C22.3726 210 17 204.627 17 198L17 108V86C17 79.3726 22.3726 74 29 74H87H92.789Z" fill="url(#paint1_linear_822_19776)"/>
</g>
<g filter="url(#filter2_d_822_19776)">
<path d="M108.376 194.579C107.227 194.054 106.538 192.742 106.867 191.659C106.998 191.298 107.851 190.117 108.77 189.067C109.688 188.05 110.443 186.967 110.443 186.737C110.443 186.311 108.638 184.605 95.1862 172.465C91.3147 168.955 87.8696 165.772 87.5743 165.411C86.2619 163.836 87.4431 161.277 89.4773 161.277C90.4616 161.277 91.3475 161.966 97.2204 167.281C111.329 180.044 112.739 181.258 113.068 180.93C113.232 180.766 113.363 178.535 113.363 175.943C113.363 169.25 112.411 165.214 108.638 155.699C104.865 146.217 103.914 142.083 103.914 135.029C103.914 127.024 105.489 122.725 110.082 118.099C114.15 114.031 118.383 112.161 125.371 111.373C128.554 111.012 133.443 111.209 135.608 111.767C136.297 111.931 136.986 112.358 137.183 112.718C137.741 113.736 137.577 115.278 136.822 116.032C136.166 116.688 135.903 116.721 132.13 116.524C127.209 116.229 123.239 116.688 119.794 117.935C115.594 119.477 113.035 121.643 111.263 125.153L110.541 126.564L113.461 129.255C115.036 130.731 117.005 132.536 117.825 133.257C124.125 138.835 133.344 147.366 133.574 147.858C134.099 148.809 133.935 149.465 132.95 150.483C131.015 152.386 131.572 152.779 117.825 140.344C107.818 131.256 108.31 131.42 108.999 137.654C109.524 142.51 110.935 147.628 113.527 154.157C117.431 163.967 118.547 168.692 118.58 175.549C118.612 183.522 116.709 188.444 111.624 193.693C110.115 195.202 109.951 195.268 108.376 194.579Z" fill="white"/>
<path d="M73.3348 163.082C72.9411 162.819 72.449 162.163 72.2193 161.605C71.8584 160.686 71.8912 160.49 72.7115 159.308C75.3034 155.568 79.7984 152.55 85.1792 150.909C87.9352 150.089 88.5586 150.023 94.2675 149.99C99.9436 149.958 100.436 149.99 101.289 150.647C102.929 151.861 103.126 152.943 101.945 154.551C101.486 155.174 101.092 155.207 95.2846 155.207C88.4602 155.207 86.8525 155.503 82.8169 157.438C81.2092 158.193 79.8968 159.177 78.0923 161.015C75.4675 163.705 74.68 164.033 73.3348 163.082Z" fill="white"/>
<path d="M124.223 160.654C121.368 160.358 120.319 159.997 119.794 158.98C119.301 158.062 119.4 157.176 120.089 156.323C120.712 155.535 120.811 155.535 126.913 155.535C135.575 155.535 139.184 154.485 143.056 150.909C144.86 149.269 146.862 146.217 146.632 145.495C146.566 145.331 141.514 140.64 135.378 135.095C129.243 129.55 124.026 124.596 123.796 124.103C123.271 122.988 123.796 121.676 125.109 120.954C126.684 120.068 125.896 119.444 141.579 133.651C144.992 136.735 148.043 139.294 148.273 139.294C148.666 139.294 148.732 138.769 148.535 136.145C148.076 130.075 146.927 125.547 143.745 117.64C139.939 108.092 138.692 102.81 138.725 96.1495C138.758 91.2936 139.414 88.1767 141.153 84.6332C142.236 82.4349 145.221 78.629 146.763 77.4806C147.649 76.8572 147.715 76.8572 148.83 77.3822C150.143 78.0056 150.799 79.1539 150.504 80.3023C150.405 80.7288 149.487 81.9756 148.469 83.1239C147.485 84.2395 146.698 85.2894 146.763 85.4534C146.829 85.6175 148.798 87.4876 151.127 89.6531C156.836 94.8371 168.254 105.172 169.205 105.992C169.632 106.353 170.124 107.075 170.321 107.6C170.715 108.683 170.222 109.733 168.812 110.651C167.991 111.176 167.893 111.176 166.843 110.586C166.252 110.225 162.414 106.911 158.345 103.204C145.254 91.392 144.565 90.8014 144.335 91.1952C144.204 91.392 144.073 93.6887 144.073 96.3135C144.073 103.105 145.32 108.223 149.454 118.132C152.374 125.186 153.85 132.864 153.489 139.13C153.227 143.232 152.636 145.627 150.963 148.973C148.141 154.715 143.318 158.357 136.395 159.965C133.246 160.686 127.898 160.982 124.223 160.654Z" fill="white"/>
<path d="M157.919 121.905C154.802 121.446 153.621 119.969 154.769 118.001C155.097 117.443 155.524 116.984 155.72 116.951C155.884 116.951 159.001 116.885 162.61 116.852C168.221 116.787 169.468 116.688 171.141 116.098C174.717 114.884 176.227 113.965 179.212 111.176C181.804 108.748 182.296 108.42 183.051 108.584C184.068 108.847 185.413 110.225 185.413 111.012C185.413 112.554 181.411 116.787 178.162 118.723C173.241 121.61 164.973 122.922 157.919 121.905Z" fill="white"/>
</g>
<defs>
<filter id="filter0_f_822_19776" x="-20" y="25" width="298" height="184" filterUnits="userSpaceOnUse" color-interpolation-filters="sRGB">
<feFlood flood-opacity="0" result="BackgroundImageFix"/>
<feBlend mode="normal" in="SourceGraphic" in2="BackgroundImageFix" result="shape"/>
<feGaussianBlur stdDeviation="18.5" result="effect1_foregroundBlur_822_19776"/>
</filter>
<filter id="filter1_ii_822_19776" x="17" y="62" width="224" height="148" filterUnits="userSpaceOnUse" color-interpolation-filters="sRGB">
<feFlood flood-opacity="0" result="BackgroundImageFix"/>
<feBlend mode="normal" in="SourceGraphic" in2="BackgroundImageFix" result="shape"/>
<feColorMatrix in="SourceAlpha" type="matrix" values="0 0 0 0 0 0 0 0 0 0 0 0 0 0 0 0 0 0 127 0" result="hardAlpha"/>
<feOffset dy="-4"/>
<feComposite in2="hardAlpha" operator="arithmetic" k2="-1" k3="1"/>
<feColorMatrix type="matrix" values="0 0 0 0 0 0 0 0 0 0 0 0 0 0 0 0 0 0 0.25 0"/>
<feBlend mode="normal" in2="shape" result="effect1_innerShadow_822_19776"/>
<feColorMatrix in="SourceAlpha" type="matrix" values="0 0 0 0 0 0 0 0 0 0 0 0 0 0 0 0 0 0 127 0" result="hardAlpha"/>
<feOffset dy="4"/>
<feComposite in2="hardAlpha" operator="arithmetic" k2="-1" k3="1"/>
<feColorMatrix type="matrix" values="0 0 0 0 1 0 0 0 0 1 0 0 0 0 1 0 0 0 0.25 0"/>
<feBlend mode="normal" in2="effect1_innerShadow_822_19776" result="effect2_innerShadow_822_19776"/>
</filter>
<filter id="filter2_d_822_19776" x="68" y="77" width="121.413" height="126" filterUnits="userSpaceOnUse" color-interpolation-filters="sRGB">
<feFlood flood-opacity="0" result="BackgroundImageFix"/>
<feColorMatrix in="SourceAlpha" type="matrix" values="0 0 0 0 0 0 0 0 0 0 0 0 0 0 0 0 0 0 127 0" result="hardAlpha"/>
<feOffset dy="4"/>
<feGaussianBlur stdDeviation="2"/>
<feComposite in2="hardAlpha" operator="out"/>
<feColorMatrix type="matrix" values="0 0 0 0 0 0 0 0 0 0 0 0 0 0 0 0 0 0 0.25 0"/>
<feBlend mode="normal" in2="BackgroundImageFix" result="effect1_dropShadow_822_19776"/>
<feBlend mode="normal" in="SourceGraphic" in2="effect1_dropShadow_822_19776" result="shape"/>
</filter>
<linearGradient id="paint0_linear_822_19776" x1="17" y1="34" x2="197.768" y2="215.142" gradientUnits="userSpaceOnUse">
<stop stop-color="#05815D"/>
<stop offset="1" stop-color="#0C575F"/>
</linearGradient>
<linearGradient id="paint1_linear_822_19776" x1="17" y1="62" x2="241" y2="210" gradientUnits="userSpaceOnUse">
<stop stop-color="#00D56C"/>
<stop offset="1" stop-color="#00913B"/>
</linearGradient>
</defs>
</svg>
