<svg width="256" height="256" viewBox="0 0 256 256" fill="none" xmlns="http://www.w3.org/2000/svg">
<path fill-rule="evenodd" clip-rule="evenodd" d="M104.425 42.3784C100.056 37.0733 93.5437 34 86.6712 34H29C22.3726 34 17 39.3726 17 46V58.1371V68.2V160C17 166.627 22.3726 172 29 172H229C235.627 172 241 166.627 241 160V70.1371C241 63.5097 235.627 58.1371 229 58.1371H117.404L104.425 42.3784Z" fill="url(#paint0_linear_1708_28875)"/>
<mask id="mask0_1708_28875" style="mask-type:alpha" maskUnits="userSpaceOnUse" x="17" y="34" width="224" height="138">
<path fill-rule="evenodd" clip-rule="evenodd" d="M104.425 42.3784C100.056 37.0733 93.5437 34 86.6712 34H29C22.3726 34 17 39.3726 17 46V58.1371V68.2V160C17 166.627 22.3726 172 29 172H229C235.627 172 241 166.627 241 160V70.1371C241 63.5097 235.627 58.1371 229 58.1371H117.404L104.425 42.3784Z" fill="url(#paint1_linear_1708_28875)"/>
</mask>
<g mask="url(#mask0_1708_28875)">
<g style="mix-blend-mode:multiply" filter="url(#filter0_f_1708_28875)">
<path fill-rule="evenodd" clip-rule="evenodd" d="M92.789 74C97.7642 74 102.605 72.3868 106.586 69.4024L116.459 62H229C235.627 62 241 67.3726 241 74V108V160C241 166.627 235.627 172 229 172H29C22.3726 172 17 166.627 17 160L17 108V86C17 79.3726 22.3726 74 29 74H87H92.789Z" fill="black" fill-opacity="0.3"/>
</g>
</g>
<g filter="url(#filter1_ii_1708_28875)">
<path d="M92.789 74C97.7642 74 102.605 72.3868 106.586 69.4024L116.459 62H229C235.627 62 241 67.3726 241 74V108V198C241 204.627 235.627 210 229 210H29C22.3726 210 17 204.627 17 198V108V86C17 79.3726 22.3726 74 29 74H92.789Z" fill="url(#paint2_linear_1708_28875)"/>
</g>
<path d="M92.789 78C97.7642 78 102.605 76.3868 106.586 73.4024L116.459 66H229C235.627 66 239 71.3726 239 78V112V194C239 200.627 235.627 206 229 206H29C22.3726 206 18 200.627 18 194V112V90C18 83.3726 22.3726 78 29 78H92.789Z" fill="url(#paint3_linear_1708_28875)"/>
<path fill-rule="evenodd" clip-rule="evenodd" d="M150.412 101.152C151.686 101.375 152.734 101.732 154.122 102.416C158.73 104.689 161.599 109.398 161.332 114.251C160.951 121.182 155.297 126.582 148.424 126.58C146.034 126.579 143.66 125.955 141.565 124.777C140.201 124.01 138.28 123.118 137.412 122.848C135.914 122.382 135.364 122.303 133.604 122.3C131.733 122.297 131.01 122.405 129.374 122.932C126.221 123.947 124.046 125.76 122.101 128.994C120.391 131.835 119.362 133.101 117.849 134.225C113.32 137.588 106.664 137.53 102.043 134.087C99.6138 132.276 97.9591 129.706 97.2004 126.563C96.9355 125.466 96.9325 122.301 97.1955 121.221C98.253 116.872 101.403 113.351 105.58 111.851C107.083 111.311 108.3 111.108 110.072 111.102C112.497 111.094 113.822 111.435 116.312 112.711C120.037 114.619 120.568 114.843 122.252 115.229C123.218 115.45 126.105 115.481 127.047 115.28C131.347 114.364 133.936 112.43 136.436 108.266C137.354 106.738 138.113 105.721 138.994 104.841C140.906 102.928 143.391 101.604 145.926 101.148C147.03 100.949 149.264 100.951 150.412 101.152ZM152.113 130.014C155.662 131.063 158.335 133.693 159.211 136.998C159.503 138.097 159.477 140.496 159.162 141.651C157.82 146.566 153.036 149.704 148.188 148.851C146.888 148.622 145.798 148.22 144.339 147.431C142.576 146.477 141.902 146.191 140.841 145.944C138.909 145.496 137.14 145.592 135.354 146.244C133.199 147.03 131.787 148.18 130.471 150.218C130.133 150.742 129.59 151.584 129.265 152.089C127.788 154.385 125.62 155.8 122.811 156.299C121.855 156.469 119.551 156.386 118.692 156.151C115.734 155.341 113.326 153.384 112.187 150.867C110.682 147.539 111.06 143.865 113.196 141.069C113.718 140.385 114.928 139.222 115.586 138.771C117.937 137.158 121.254 136.623 123.83 137.441C124.145 137.541 125.307 138.083 126.413 138.645C129.428 140.18 130.143 140.387 132.388 140.372C133.734 140.364 134.037 140.328 134.865 140.077C136.566 139.562 137.8 138.84 138.95 137.687C139.58 137.056 139.923 136.58 141.545 134.089C142.56 132.531 144.105 131.204 145.86 130.382C147.136 129.785 147.923 129.643 149.68 129.691C150.893 129.725 151.333 129.783 152.113 130.014ZM132.863 158.116C133.784 158.383 134.29 158.639 135.032 159.21C136.039 159.987 136.74 160.939 137.211 162.169C137.594 163.172 137.683 164.836 137.413 165.953C136.403 170.123 131.711 172.239 127.913 170.238C126.935 169.722 125.649 168.397 125.163 167.404C124.581 166.214 124.421 165.447 124.481 164.127C124.515 163.381 124.605 162.801 124.756 162.363C125.924 158.976 129.453 157.127 132.863 158.116Z" fill="url(#paint4_linear_1708_28875)"/>
<defs>
<filter id="filter0_f_1708_28875" x="-20" y="25" width="298" height="184" filterUnits="userSpaceOnUse" color-interpolation-filters="sRGB">
<feFlood flood-opacity="0" result="BackgroundImageFix"/>
<feBlend mode="normal" in="SourceGraphic" in2="BackgroundImageFix" result="shape"/>
<feGaussianBlur stdDeviation="18.5" result="effect1_foregroundBlur_1708_28875"/>
</filter>
<filter id="filter1_ii_1708_28875" x="17" y="62" width="224" height="148" filterUnits="userSpaceOnUse" color-interpolation-filters="sRGB">
<feFlood flood-opacity="0" result="BackgroundImageFix"/>
<feBlend mode="normal" in="SourceGraphic" in2="BackgroundImageFix" result="shape"/>
<feColorMatrix in="SourceAlpha" type="matrix" values="0 0 0 0 0 0 0 0 0 0 0 0 0 0 0 0 0 0 127 0" result="hardAlpha"/>
<feOffset dy="4"/>
<feComposite in2="hardAlpha" operator="arithmetic" k2="-1" k3="1"/>
<feColorMatrix type="matrix" values="0 0 0 0 1 0 0 0 0 1 0 0 0 0 1 0 0 0 0.5 0"/>
<feBlend mode="normal" in2="shape" result="effect1_innerShadow_1708_28875"/>
<feColorMatrix in="SourceAlpha" type="matrix" values="0 0 0 0 0 0 0 0 0 0 0 0 0 0 0 0 0 0 127 0" result="hardAlpha"/>
<feOffset dy="-4"/>
<feComposite in2="hardAlpha" operator="arithmetic" k2="-1" k3="1"/>
<feColorMatrix type="matrix" values="0 0 0 0 0 0 0 0 0 0 0 0 0 0 0 0 0 0 0.25 0"/>
<feBlend mode="normal" in2="effect1_innerShadow_1708_28875" result="effect2_innerShadow_1708_28875"/>
</filter>
<linearGradient id="paint0_linear_1708_28875" x1="71" y1="8" x2="73" y2="223.5" gradientUnits="userSpaceOnUse">
<stop stop-color="#FBF729"/>
<stop offset="1" stop-color="#EDAC06"/>
</linearGradient>
<linearGradient id="paint1_linear_1708_28875" x1="17" y1="34" x2="197.768" y2="215.142" gradientUnits="userSpaceOnUse">
<stop stop-color="#05815D"/>
<stop offset="1" stop-color="#0C575F"/>
</linearGradient>
<linearGradient id="paint2_linear_1708_28875" x1="129" y1="62" x2="129" y2="210" gradientUnits="userSpaceOnUse">
<stop stop-color="#FBF72A"/>
<stop offset="1" stop-color="#ECA503"/>
</linearGradient>
<linearGradient id="paint3_linear_1708_28875" x1="17" y1="66" x2="238.337" y2="231.315" gradientUnits="userSpaceOnUse">
<stop stop-color="#023C5F"/>
<stop offset="1" stop-color="#080D27"/>
</linearGradient>
<linearGradient id="paint4_linear_1708_28875" x1="129.175" y1="101" x2="129.175" y2="171" gradientUnits="userSpaceOnUse">
<stop stop-color="#FBF82A"/>
<stop offset="1" stop-color="#ECA302"/>
</linearGradient>
</defs>
</svg>
