<?xml version="1.0" encoding="UTF-8"?>
<svg id="Layer_1" data-name="Layer 1" xmlns="http://www.w3.org/2000/svg" xmlns:xlink="http://www.w3.org/1999/xlink" viewBox="0 0 256 256">
  <defs>
    <style>
      .cls-1 {
        fill: url(#_Безымянный_градиент_203);
      }

      .cls-1, .cls-2, .cls-3, .cls-4, .cls-5, .cls-6, .cls-7 {
        stroke-width: 0px;
      }

      .cls-1, .cls-2, .cls-3, .cls-5, .cls-6, .cls-7 {
        fill-rule: evenodd;
      }

      .cls-2 {
        fill: url(#_Безымянный_градиент_201);
      }

      .cls-3 {
        fill: url(#_Безымянный_градиент_202);
      }

      .cls-4 {
        fill: #fff;
      }

      .cls-5 {
        fill: url(#linear-gradient);
      }

      .cls-6 {
        fill: #a6a1a1;
      }

      .cls-8 {
        mask: url(#mask);
      }

      .cls-7 {
        fill: #212e3c;
      }
    </style>
    <linearGradient id="linear-gradient" x1="32.58" y1="239.55" x2="213.35" y2="58.41" gradientTransform="translate(0 258) scale(1 -1)" gradientUnits="userSpaceOnUse">
      <stop offset="0" stop-color="#05815d"/>
      <stop offset="1" stop-color="#0c575f"/>
    </linearGradient>
    <mask id="mask" x="17" y="34" width="224" height="138" maskUnits="userSpaceOnUse">
      <g id="mask0_501_11930" data-name="mask0 501 11930">
        <path class="cls-5" d="m104.43,42.38c-4.37-5.31-10.88-8.38-17.75-8.38H29c-6.63,0-12,5.37-12,12v114c0,6.63,5.37,12,12,12h200c6.63,0,12-5.37,12-12v-89.86c0-6.63-5.37-12-12-12h-111.6l-12.98-15.76Z"/>
      </g>
    </mask>
    <linearGradient id="_Безымянный_градиент_201" data-name="Безымянный градиент 201" x1="17" y1="196" x2="241" y2="48" gradientTransform="translate(0 258) scale(1 -1)" gradientUnits="userSpaceOnUse">
      <stop offset="0" stop-color="#1e93d9"/>
      <stop offset=".95" stop-color="#1c66c5"/>
    </linearGradient>
    <linearGradient id="_Безымянный_градиент_202" data-name="Безымянный градиент 202" x1="16.93" y1="57.32" x2="240.94" y2="54.82" gradientTransform="translate(0 258) scale(1 -1)" gradientUnits="userSpaceOnUse">
      <stop offset="0" stop-color="#2867b6"/>
      <stop offset="1" stop-color="#1c418f"/>
    </linearGradient>
    <linearGradient id="_Безымянный_градиент_203" data-name="Безымянный градиент 203" x1="17" y1="182" x2="241" y2="182" gradientTransform="translate(0 258) scale(1 -1)" gradientUnits="userSpaceOnUse">
      <stop offset="0" stop-color="#49bbed"/>
      <stop offset="1" stop-color="#37a7de"/>
    </linearGradient>
  </defs>
  <path class="cls-7" d="m104.43,42.38c-4.37-5.31-10.88-8.38-17.75-8.38H29c-6.63,0-12,5.37-12,12v114c0,6.63,5.37,12,12,12h200c6.63,0,12-5.37,12-12v-89.86c0-6.63-5.37-12-12-12h-111.6l-12.98-15.76Z"/>
  <g class="cls-8">
    <path class="cls-6" d="m92.79,74c4.98,0,9.82-1.61,13.8-4.6l9.87-7.4h112.54c6.63,0,12,5.37,12,12v86c0,6.63-5.37,12-12,12H29c-6.63,0-12-5.37-12-12v-74c0-6.63,5.37-12,12-12h63.79Z"/>
  </g>
  <path class="cls-2" d="m92.79,74c4.98,0,9.82-1.61,13.8-4.6l9.87-7.4h112.54c6.63,0,12,5.37,12,12v124c0,6.63-5.37,12-12,12H29c-6.63,0-12-5.37-12-12v-112c0-6.63,5.37-12,12-12h63.79Z"/>
  <path class="cls-3" d="m17,194v4c0,6.63,5.37,12,12,12h200c6.63,0,12-5.37,12-12v-4c0,6.63-5.37,12-12,12H29c-6.63,0-12-5.37-12-12Z"/>
  <path class="cls-1" d="m106.59,69.4c-3.98,2.98-8.82,4.6-13.8,4.6H29c-6.63,0-12,5.37-12,12v4c0-6.63,5.37-12,12-12h63.79c4.98,0,9.82-1.61,13.8-4.6l9.87-7.4h112.54c6.63,0,12,5.37,12,12v-4c0-6.63-5.37-12-12-12h-112.54l-9.87,7.4Z"/>
  <g id="layer1">
    <path id="path5085" class="cls-4" d="m193.81,88.46c-1.47.01-5.96.34-20.49,1.34-18,1.24-36.04,2.48-53.81,3.7-17.98,1.23-16.2,1.06-17.05,1.6-.96.6-1.5,1.62-1.82,3.42-2.66,12.86-4.79,22.09-6.51,29.57-.09.24-.28,1.05-.41,1.81-.23,1.29-.22,1.41.07,1.81.62.85,1.36,1.04,6.72,1.74,20.34,2.66,41.58,5.46,60.32,7.92,7.38.97,14.01,1.84,18.89,2.5,5.5.74,5.6.74,5.84.13.19-.48.54-2.12,1.23-5.74,2.81-14.57,6.08-31.69,8.46-43.81.74-3.79.78-4.21.41-4.84-.19-.32-.59-.73-.9-.91-.24-.14-.04-.24-.93-.24h0Zm-104.23,47.29c-.71,0-1.38.04-2.07.15-.95.15-8.36,1.21-16.47,2.36-8.11,1.15-15.08,2.21-15.49,2.36-1.24.45-1.74,1.68-1.15,2.82.36.71,1.27,1.13,4.14,1.91.38.1.88.25,1.12.33,26.81,7.52,55.14,15.82,80.2,22.96,1.41.42,3.33,1.16,4.55,1.17.93-.25,6.21-2.86,18.2-8.89,9.73-4.9,17.84-9.03,18.02-9.18.67-.58,1.02-1.83.67-2.37-.07-.11-1.02-.33-2.11-.49-2.59-.38-10.66-1.56-13.63-1.99-1.28-.19-3.1-.46-4.05-.6s-3.86-.57-6.47-.95c-2.61-.38-6.88-1-9.49-1.38-2.61-.38-6.33-.92-8.28-1.21-4.49-.65-14.04-2.05-19.4-2.84-2.28-.34-5.73-.84-7.68-1.12-11.89-1.71-15.56-2.27-16.56-2.49-1.6-.35-2.87-.53-4.05-.54h0Zm-9.92,19.27s-.07,0-.09,0c-.32.07-6.63,13.6-6.63,14.22s.45,1.4.99,1.7c.6.33.98.33,1.85.03,2.62-.82,5.42-1.73,8.03-2.51,7.77-2.33,7.9-2.38,8.72-3.24.68-.71,1.94-3.32,2.3-4.79.07-.29.22-.69.34-.91.11-.21.18-.38.14-.38-4.53-1.17-9.24-2.45-13.54-3.63-.94-.26-1.81-.45-2.11-.48h0Zm80.57,10.57c-.13,0-.34.09-.72.32-.41.24-1.61.92-2.65,1.5-2.84,1.72-5.53,3.5-8.54,4.92-2.44,1.53-3.51,1.86-4.73,1.46-1.19-.38-4.36-1.21-4.64-1.21-.16,0-.34.14-.4.3-.09.29-.39,1.12-1.12,3.15-1.18,3.03-2.19,6.09-3.25,8.97-.51,1.37-1.39,4.53-1.38,4.92.01.38.84,1.16,1.47,1.39.39.14.97.21,1.36.16,7.42-3,13.08-6.79,19.39-10.1,1.93-1.01,2.64-1.71,2.92-2.91.23-1,.67-2.94.95-4.24.14-.66.43-1.94.63-2.85,1.08-4.79,1.15-5.24.87-5.67-.05-.07-.1-.11-.18-.12h0Z"/>
  </g>
</svg>