<svg xmlns="http://www.w3.org/2000/svg" xmlns:xlink="http://www.w3.org/1999/xlink" fill="none" version="1.1" width="256" height="256" viewBox="0 0 256 256"><defs><clipPath id="master_svg0_13_16"><rect x="0" y="0" width="256" height="256" rx="0"/></clipPath><mask id="master_svg1_13_22" style="mask-type:luminance" maskUnits="userSpaceOnUse" x="17" y="34" width="224" height="138"><path d="M104.425003,42.3783989C100.056,37.073299399999996,93.543701,34,86.671204,34L29,34C22.3726006,34,17,39.3726006,17,46L17,58.137100000000004L17,68.199997L17,160C17,166.627,22.3726006,172,29,172L229,172C235.627,172,241,166.627,241,160L241,70.1371C241,63.509701,235.627,58.137100000000004,229,58.137100000000004L117.404,58.137100000000004L104.425003,42.3783989Z" fill-rule="evenodd" fill="#3EA6C8" fill-opacity="1" style="mix-blend-mode:passthrough"/></mask><filter id="master_svg2_13_20" filterUnits="objectBoundingBox" color-interpolation-filters="sRGB" x="-0.33035714285714285" y="-0.5362318840579711" width="1.6607142857142858" height="2.072463768115942"><feFlood flood-opacity="0" result="BackgroundImageFix"/><feBlend mode="normal" in="SourceGraphic" in2="BackgroundImageFix" result="shape"/><feGaussianBlur stdDeviation="18.5" result="effect1_foregroundBlur"/></filter><linearGradient x1="-0.03118896484375" y1="0" x2="1.4024671995998657" y2="0.6105594654458093" id="master_svg3_13_0003"><stop offset="0%" stop-color="#FFFFFF" stop-opacity="1"/><stop offset="100%" stop-color="#CAFFF8" stop-opacity="1"/></linearGradient><linearGradient x1="0" y1="0.5" x2="1" y2="0.5" id="master_svg4_13_931"><stop offset="0%" stop-color="#A7EAE3" stop-opacity="1"/><stop offset="100%" stop-color="#C5F9FF" stop-opacity="1"/></linearGradient><linearGradient x1="0" y1="0.5" x2="1" y2="0.5" id="master_svg5_13_883"><stop offset="0%" stop-color="#239C90" stop-opacity="1"/><stop offset="100%" stop-color="#018A99" stop-opacity="1"/><stop offset="100%" stop-color="#FFFFFF" stop-opacity="1"/></linearGradient><linearGradient x1="0.5" y1="0" x2="0.5" y2="1" id="master_svg6_13_789"><stop offset="0%" stop-color="#08C8E5" stop-opacity="1"/><stop offset="100%" stop-color="#29E3F0" stop-opacity="1"/></linearGradient></defs><g clip-path="url(#master_svg0_13_16)"><path d="M104.425003,42.3783989C100.056,37.073299399999996,93.543701,34,86.671204,34L29,34C22.3726006,34,17,39.3726006,17,46L17,58.137100000000004L17,68.199997L17,160C17,166.627,22.3726006,172,29,172L229,172C235.627,172,241,166.627,241,160L241,70.1371C241,63.509701,235.627,58.137100000000004,229,58.137100000000004L117.404,58.137100000000004L104.425003,42.3783989Z" fill-rule="evenodd" fill="#EAFAFF" fill-opacity="1" style="mix-blend-mode:passthrough"/><g mask="url(#master_svg1_13_22)"><g style="mix-blend-mode:multiply" filter="url(#master_svg2_13_20)"><path d="M92.789001,49.054545C97.764198,49.054545,102.605003,47.030716,106.585999,43.286644L116.459,34L229,34C235.627,34,241,40.7401667,241,49.054545L241,91.709091L241,156.94546C241,165.25932,235.627,172,229,172L29,172C22.3726006,172,17,165.25932,17,156.94546L17,91.709091L17,64.109091C17,55.794712000000004,22.3726006,49.054545,29,49.054545L87,49.054545L92.789001,49.054545Z" fill-rule="evenodd" fill="#00D6C8" fill-opacity="0.30000001192092896" style="mix-blend-mode:passthrough"/></g></g><path d="M92.789001,74C97.764198,74,102.605003,72.386803,106.585999,69.4023972L116.459,62L229,62C235.627,62,241,67.3725967,241,74L241,108L241,198C241,204.627,235.627,210,229,210L29,210C22.3726006,210,17,204.627,17,198L17,108L17,86C17,79.372597,22.3726006,74,29,74L87,74L92.789001,74Z" fill-rule="evenodd" fill="url(#master_svg3_13_0003)" fill-opacity="1" style="mix-blend-mode:passthrough"/><path d="M106.589996,69.4000015C102.609993,72.380005,97.769997,74,92.789993,74L29,74C22.3699989,74,17,79.370003,17,86L17,90C17,83.370003,22.3699989,78,29,78L92.790001,78C97.770004,78,102.610001,76.389999,106.590004,73.400002L116.460007,66L229,66C235.63,66,241,71.3700027,241,78L241,74C241,67.3700027,235.63,62,229,62L116.459999,62L106.589996,69.4000015Z" fill-rule="evenodd" fill="url(#master_svg4_13_931)" fill-opacity="1" style="mix-blend-mode:passthrough"/><path d="M17,194L17,198C17,204.630005,22.3699989,210,29,210L229,210C235.63,210,241,204.630005,241,198L241,194C241,200.6300049,235.63,206,229,206L29,206C22.3699989,206,17,200.6300049,17,194Z" fill-rule="evenodd" fill="url(#master_svg5_13_883)" fill-opacity="1" style="mix-blend-mode:passthrough"/><path d="M122.18518399999999,92L160.074074,92L160.074074,116.57142999999999L175,116.57142999999999L175,180.00000799999998L111.277779,180.00000799999998L111.277779,160.571434L82,160.571434L82,108L122.18518399999999,108L122.18518399999999,92ZM122.18518399999999,113.714287L87.7407408,113.714287L87.7407408,155.428574L111.277779,155.428574L111.277779,116.57142999999999L122.18518399999999,116.57142999999999L122.18518399999999,113.714287ZM119.31481600000001,160.571434L119.31481600000001,172L127.35185200000001,172L127.35185200000001,168L142.851852,168L142.851852,172L166.388893,172L166.388893,124.57142999999999L160.074074,124.57142999999999L160.074074,129.714287L159.5,129.714287L159.5,130.285717L133.092594,130.285717L133.092594,160.571434L119.31481600000001,160.571434ZM127.35185200000001,130.285717L127.35185200000001,155.428574L119.31481600000001,155.428574L119.31481600000001,124.57142999999999L122.18518399999999,124.57142999999999L122.18518399999999,130.285717L127.35185200000001,130.285717ZM133.092594,125.14286L154.90741,125.14286L154.90741,124.57142999999999L133.092594,124.57142999999999L133.092594,125.14286ZM127.35185200000001,124.57142999999999L127.35185200000001,125.14286L126.77777900000001,125.14286L126.77777900000001,124.57142999999999L127.35185200000001,124.57142999999999ZM127.35185200000001,116.57142999999999L126.77777900000001,116.57142999999999L126.77777900000001,113.714287L127.35185200000001,113.714287L127.35185200000001,116.57142999999999ZM133.092594,116.57142999999999L133.092594,108L126.77777900000001,108L126.77777900000001,96.5714288L154.90741,96.5714288L154.90741,116.57142999999999L133.092594,116.57142999999999ZM86.0185184,164L106.111113,164L106.111113,176L86.0185184,176L86.0185184,164ZM91.1851854,168.571434L100.944445,168.571434L100.944445,171.428574L91.1851854,171.428574L91.1851854,168.571434Z" fill-rule="evenodd" fill="url(#master_svg6_13_789)" fill-opacity="1"/></g></svg>