<?xml version="1.0" encoding="UTF-8" standalone="no"?>
<svg
   id="Layer_1"
   data-name="Layer 1"
   viewBox="0 0 256 256"
   version="1.1"
   sodipodi:docname="bocbank.svg"
   xml:space="preserve"
   inkscape:version="1.4 (86a8ad7, 2024-10-11)"
   xmlns:inkscape="http://www.inkscape.org/namespaces/inkscape"
   xmlns:sodipodi="http://sodipodi.sourceforge.net/DTD/sodipodi-0.dtd"
   xmlns:xlink="http://www.w3.org/1999/xlink"
   xmlns="http://www.w3.org/2000/svg"
   xmlns:svg="http://www.w3.org/2000/svg"><sodipodi:namedview
     id="namedview11"
     pagecolor="#ffffff"
     bordercolor="#000000"
     borderopacity="0.25"
     inkscape:showpageshadow="2"
     inkscape:pageopacity="0.0"
     inkscape:pagecheckerboard="0"
     inkscape:deskcolor="#d1d1d1"
     inkscape:zoom="2.1601563"
     inkscape:cx="166.65461"
     inkscape:cy="121.51899"
     inkscape:window-width="1366"
     inkscape:window-height="745"
     inkscape:window-x="-8"
     inkscape:window-y="-8"
     inkscape:window-maximized="1"
     inkscape:current-layer="Layer_1" /><defs
     id="defs6"><linearGradient
       id="linearGradient13"
       data-name="未命名的渐变 4"
       x1="17"
       y1="155"
       x2="241"
       y2="155"
       gradientTransform="translate(0 258) scale(1 -1)"
       gradientUnits="userSpaceOnUse"><stop
         offset="0"
         stop-color="#2f6cfa"
         id="stop12" /><stop
         offset="1"
         stop-color="#03c"
         id="stop13"
         style="stop-color:#941f28;stop-opacity:1;" /></linearGradient><style
       id="style1">
      .cls-1 {
        fill: #fff;
      }
      .cls-2 {
        fill: url(#_未命名的渐变_5);
      }
      .cls-2, .cls-3, .cls-4, .cls-5, .cls-6 {
        fill-rule: evenodd;
      }
      .cls-3 {
        fill: url(#_未命名的渐变_4-2);
      }
      .cls-4 {
        fill: url(#_未命名的渐变_3);
      }
      .cls-5 {
        fill: url(#_未命名的渐变_4);
      }
      .cls-6 {
        fill: #a6a1a1;
      }
    </style><linearGradient
       id="_未命名的渐变_4"
       data-name="未命名的渐变 4"
       x1="17"
       y1="155"
       x2="241"
       y2="155"
       gradientTransform="translate(0 258) scale(1 -1)"
       gradientUnits="userSpaceOnUse"><stop
         offset="0"
         stop-color="#2f6cfa"
         id="stop1" /><stop
         offset="1"
         stop-color="#03c"
         id="stop2" /></linearGradient><linearGradient
       id="_未命名的渐变_3"
       data-name="未命名的渐变 3"
       x1="-5.2385936"
       y1="1026"
       x2="263.23859"
       y2="1026"
       gradientTransform="translate(0,-890)"
       gradientUnits="userSpaceOnUse"><stop
         offset="0"
         stop-color="#39f"
         id="stop3"
         style="stop-color:#d14747;stop-opacity:1;" /><stop
         offset="0.94999999"
         stop-color="#36f"
         id="stop4"
         style="stop-color:#951e27;stop-opacity:1;" /></linearGradient><linearGradient
       id="_未命名的渐变_4-2"
       data-name="未命名的渐变 4"
       x1="16.93"
       y1="1090.68"
       x2="240.94"
       y2="1093.18"
       gradientTransform="translate(0 -890)"
       xlink:href="#linearGradient13" /><linearGradient
       id="_未命名的渐变_5"
       data-name="未命名的渐变 5"
       x1="17"
       y1="966"
       x2="241"
       y2="966"
       gradientTransform="translate(0 -890)"
       gradientUnits="userSpaceOnUse"><stop
         offset="0"
         stop-color="#39f"
         id="stop5" /><stop
         offset="1"
         stop-color="#39f"
         id="stop6" /></linearGradient></defs><path
     class="cls-5"
     d="m104.43,42.38c-4.37-5.31-10.88-8.38-17.75-8.38H29c-6.63,0-12,5.37-12,12v114c0,6.63,5.37,12,12,12h200c6.63,0,12-5.37,12-12v-89.86c0-6.63-5.37-12-12-12h-111.6l-12.98-15.76h.01Z"
     id="path6"
     style="fill:#941e28;fill-opacity:1" /><path
     class="cls-6"
     d="m92.79,74c4.98,0,9.82-1.61,13.8-4.6l9.87-7.4h112.54c6.63,0,12,5.37,12,12v86c0,6.63-5.37,12-12,12H29c-6.63,0-12-5.37-12-12v-74c0-6.63,5.37-12,12-12h63.79Z"
     id="path7" /><path
     class="cls-4"
     d="m92.79,74c4.98,0,9.82-1.61,13.8-4.6l9.87-7.4h112.54c6.63,0,12,5.37,12,12v124c0,6.63-5.37,12-12,12H29c-6.63,0-12-5.37-12-12v-112c0-6.63,5.37-12,12-12h63.79Z"
     id="path8" /><path
     class="cls-3"
     d="m17,194v4c0,6.63,5.37,12,12,12h200c6.63,0,12-5.37,12-12v-4c0,6.63-5.37,12-12,12H29c-6.63,0-12-5.37-12-12Z"
     id="path9"
     style="fill:#941e28;fill-opacity:1" /><path
     class="cls-2"
     d="m106.59,69.4c-3.98,2.98-8.82,4.6-13.8,4.6H29c-6.63,0-12,5.37-12,12v4c0-6.63,5.37-12,12-12h63.79c4.98,0,9.82-1.61,13.8-4.6l9.87-7.4h112.54c6.63,0,12,5.37,12,12v-4c0-6.63-5.37-12-12-12h-112.54l-9.87,7.4Z"
     id="path10"
     style="fill:#d14747;fill-opacity:1" /><path
     style="fill:#ffffff;stroke-width:1.63046;fill-opacity:1"
     d="m 113.50219,196.22088 c -17.786827,-4.77974 -30.972776,-15.98206 -38.915017,-33.0608 -6.131836,-13.18566 -6.114252,-32.89589 0.04109,-46.13425 17.35756,-37.330733 64.586617,-46.818973 93.214757,-18.726702 4.71611,4.627832 10.18445,11.763872 12.15187,15.857882 16.23491,33.78332 -1.78909,72.82362 -37.93411,82.16593 -11.77456,3.04334 -16.92215,3.02495 -28.55866,-0.10206 z m 8.11279,-31.626 h -4.97236 c -6.02511,0 -13.82555,-3.80006 -15.21088,-7.41014 -1.31629,-3.43021 -1.31629,-30.66346 0,-34.09367 1.38533,-3.61007 9.18577,-7.41016 15.21088,-7.41016 h 4.97236 V 95.707714 l -5.18713,1.037433 c -8.20845,1.641684 -18.97966,8.780623 -24.272706,16.087463 -16.667368,23.00864 -9.483015,54.85271 15.144056,67.12492 7.17725,3.57658 14.32306,5.27253 14.32306,5.27253 0.45557,-0.16591 -0.007,-20.63518 -0.007,-20.63518 z m 27.35952,15.36265 c 15.73138,-7.83928 23.82886,-21.3707 23.82886,-39.81964 0,-18.4489 -8.09747,-31.98033 -23.82886,-39.81961 -7.1927,-3.584274 -14.56271,-5.01087 -14.56271,-5.01087 0.22479,5.06461 0.24692,5.78354 0.24692,20.3735 h 4.99857 c 5.5994,0 11.12876,2.50085 14.10754,6.38059 2.77973,3.62049 2.67359,32.66109 -0.13288,36.35503 -2.51811,3.3144 -9.47281,6.17835 -15.00321,6.17835 h -3.97002 l 0.11646,20.44229 c 0,0 6.79451,-1.38966 14.19933,-5.07964 z m -6.16347,-51.2329 h -29.34838 v 22.82652 h 29.34838 z"
     id="path12"
     sodipodi:nodetypes="cscssscccssssccsssccsssccssssccsccccc" /></svg>
