<svg width="256" height="256" viewBox="0 0 256 256" fill="none" xmlns="http://www.w3.org/2000/svg">
<g clip-path="url(#clip0_2018_32011)">
<path fill-rule="evenodd" clip-rule="evenodd" d="M104.425 42.3784C100.056 37.0733 93.5437 34 86.6712 34H29C22.3726 34 17 39.3726 17 46V58.1371V68.2V160C17 166.627 22.3726 172 29 172H229C235.627 172 241 166.627 241 160V70.1371C241 63.5097 235.627 58.1371 229 58.1371H117.404L104.425 42.3784Z" fill="#6A0CE6"/>
<mask id="mask0_2018_32011" style="mask-type:alpha" maskUnits="userSpaceOnUse" x="17" y="34" width="224" height="138">
<path fill-rule="evenodd" clip-rule="evenodd" d="M104.425 42.3784C100.056 37.0733 93.5437 34 86.6712 34H29C22.3726 34 17 39.3726 17 46V58.1371V68.2V160C17 166.627 22.3726 172 29 172H229C235.627 172 241 166.627 241 160V70.1371C241 63.5097 235.627 58.1371 229 58.1371H117.404L104.425 42.3784Z" fill="url(#paint0_linear_2018_32011)"/>
</mask>
<g mask="url(#mask0_2018_32011)">
<g style="mix-blend-mode:multiply" filter="url(#filter0_f_2018_32011)">
<path fill-rule="evenodd" clip-rule="evenodd" d="M92.789 74C97.7642 74 102.605 72.3868 106.586 69.4024L116.459 62H229C235.627 62 241 67.3726 241 74V108V160C241 166.627 235.627 172 229 172H29C22.3726 172 17 166.627 17 160L17 108V86C17 79.3726 22.3726 74 29 74H87H92.789Z" fill="black" fill-opacity="0.3"/>
</g>
</g>
<g filter="url(#filter1_ii_2018_32011)">
<path fill-rule="evenodd" clip-rule="evenodd" d="M92.789 74C97.7642 74 102.605 72.3868 106.586 69.4024L116.459 62H229C235.627 62 241 67.3726 241 74V108V198C241 204.627 235.627 210 229 210H29C22.3726 210 17 204.627 17 198L17 108V86C17 79.3726 22.3726 74 29 74H87H92.789Z" fill="url(#paint1_linear_2018_32011)"/>
</g>
<path d="M131.484 173.157C147.646 173.157 157.386 165.242 157.386 152.19C157.386 142.322 150.437 135.179 140.118 134.048V133.638C147.699 132.404 153.648 125.363 153.648 117.501C153.648 106.298 144.804 99 131.326 99H101V173.157H131.484ZM112.793 108.405H128.483C137.012 108.405 141.855 112.207 141.855 119.094C141.855 126.443 136.222 130.554 126.008 130.554H112.793V108.405ZM112.793 163.752V139.342H128.377C139.539 139.342 145.33 143.453 145.33 151.47C145.33 159.487 139.697 163.752 129.062 163.752H112.793Z" fill="url(#paint2_linear_2018_32011)"/>
<path d="M131.484 173.157C147.646 173.157 157.386 165.242 157.386 152.19C157.386 142.322 150.437 135.179 140.118 134.048V133.638C147.699 132.404 153.648 125.363 153.648 117.501C153.648 106.298 144.804 99 131.326 99H101V173.157H131.484ZM112.793 108.405H128.483C137.012 108.405 141.855 112.207 141.855 119.094C141.855 126.443 136.222 130.554 126.008 130.554H112.793V108.405ZM112.793 163.752V139.342H128.377C139.539 139.342 145.33 143.453 145.33 151.47C145.33 159.487 139.697 163.752 129.062 163.752H112.793Z" stroke="white" stroke-width="1.08928"/>
</g>
<defs>
<filter id="filter0_f_2018_32011" x="-20" y="25" width="298" height="184" filterUnits="userSpaceOnUse" color-interpolation-filters="sRGB">
<feFlood flood-opacity="0" result="BackgroundImageFix"/>
<feBlend mode="normal" in="SourceGraphic" in2="BackgroundImageFix" result="shape"/>
<feGaussianBlur stdDeviation="18.5" result="effect1_foregroundBlur_2018_32011"/>
</filter>
<filter id="filter1_ii_2018_32011" x="17" y="62" width="224" height="148" filterUnits="userSpaceOnUse" color-interpolation-filters="sRGB">
<feFlood flood-opacity="0" result="BackgroundImageFix"/>
<feBlend mode="normal" in="SourceGraphic" in2="BackgroundImageFix" result="shape"/>
<feColorMatrix in="SourceAlpha" type="matrix" values="0 0 0 0 0 0 0 0 0 0 0 0 0 0 0 0 0 0 127 0" result="hardAlpha"/>
<feOffset dy="-4"/>
<feComposite in2="hardAlpha" operator="arithmetic" k2="-1" k3="1"/>
<feColorMatrix type="matrix" values="0 0 0 0 0 0 0 0 0 0 0 0 0 0 0 0 0 0 0.25 0"/>
<feBlend mode="normal" in2="shape" result="effect1_innerShadow_2018_32011"/>
<feColorMatrix in="SourceAlpha" type="matrix" values="0 0 0 0 0 0 0 0 0 0 0 0 0 0 0 0 0 0 127 0" result="hardAlpha"/>
<feOffset dy="4"/>
<feComposite in2="hardAlpha" operator="arithmetic" k2="-1" k3="1"/>
<feColorMatrix type="matrix" values="0 0 0 0 1 0 0 0 0 1 0 0 0 0 1 0 0 0 0.25 0"/>
<feBlend mode="normal" in2="effect1_innerShadow_2018_32011" result="effect2_innerShadow_2018_32011"/>
</filter>
<linearGradient id="paint0_linear_2018_32011" x1="17" y1="34" x2="197.768" y2="215.142" gradientUnits="userSpaceOnUse">
<stop stop-color="#05815D"/>
<stop offset="1" stop-color="#0C575F"/>
</linearGradient>
<linearGradient id="paint1_linear_2018_32011" x1="17" y1="62" x2="241" y2="210" gradientUnits="userSpaceOnUse">
<stop stop-color="#9623FF"/>
<stop offset="1" stop-color="#5E06DE"/>
</linearGradient>
<linearGradient id="paint2_linear_2018_32011" x1="106.334" y1="103.881" x2="140.509" y2="161.679" gradientUnits="userSpaceOnUse">
<stop stop-color="white"/>
<stop offset="1" stop-color="#F1E5FC"/>
</linearGradient>
<clipPath id="clip0_2018_32011">
<rect width="256" height="256" fill="white"/>
</clipPath>
</defs>
</svg>
