<svg width="256" height="256" viewBox="0 0 256 256" fill="none" xmlns="http://www.w3.org/2000/svg">
<path fill-rule="evenodd" clip-rule="evenodd" d="M104.425 42.3784C100.056 37.0733 93.5437 34 86.6712 34H29C22.3726 34 17 39.3726 17 46V58.1371V68.2V160C17 166.627 22.3726 172 29 172H229C235.627 172 241 166.627 241 160V70.1371C241 63.5097 235.627 58.1371 229 58.1371H117.404L104.425 42.3784Z" fill="#1039DF"/>
<mask id="mask0_600_14341" style="mask-type:alpha" maskUnits="userSpaceOnUse" x="17" y="34" width="224" height="138">
<path fill-rule="evenodd" clip-rule="evenodd" d="M104.425 42.3784C100.056 37.0733 93.5437 34 86.6712 34H29C22.3726 34 17 39.3726 17 46V58.1371V68.2V160C17 166.627 22.3726 172 29 172H229C235.627 172 241 166.627 241 160V70.1371C241 63.5097 235.627 58.1371 229 58.1371H117.404L104.425 42.3784Z" fill="url(#paint0_linear_600_14341)"/>
</mask>
<g mask="url(#mask0_600_14341)">
<g style="mix-blend-mode:multiply" filter="url(#filter0_f_600_14341)">
<path fill-rule="evenodd" clip-rule="evenodd" d="M92.789 74C97.7642 74 102.605 72.3868 106.586 69.4024L116.459 62H229C235.627 62 241 67.3726 241 74V108V160C241 166.627 235.627 172 229 172H29C22.3726 172 17 166.627 17 160L17 108V86C17 79.3726 22.3726 74 29 74H87H92.789Z" fill="black" fill-opacity="0.3"/>
</g>
</g>
<g filter="url(#filter1_ii_600_14341)">
<path fill-rule="evenodd" clip-rule="evenodd" d="M92.789 74C97.7642 74 102.605 72.3868 106.586 69.4024L116.459 62H229C235.627 62 241 67.3726 241 74V108V198C241 204.627 235.627 210 229 210H29C22.3726 210 17 204.627 17 198L17 108V86C17 79.3726 22.3726 74 29 74H87H92.789Z" fill="url(#paint1_linear_600_14341)"/>
</g>
<path fill-rule="evenodd" clip-rule="evenodd" d="M59.3538 118.941C55.2062 118.064 50.9538 119.868 49.2681 123.219C48.2857 125.172 48.2633 127.304 49.2025 129.487L49.5484 130.292L49.2076 130.737C49.0201 130.981 48.825 131.292 48.7738 131.426C48.6492 131.755 48.7458 132.218 48.9861 132.444C49.094 132.545 50.58 133.671 52.2884 134.944C54.816 136.828 55.4473 137.269 55.6775 137.311C56.0965 137.386 56.4921 137.156 56.9117 136.592C57.1061 136.33 57.3235 136.11 57.3945 136.102C57.4656 136.094 57.842 136.129 58.2311 136.18C59.4177 136.336 60.9085 136.149 62.0173 135.705C64.7774 134.6 66.546 131.711 66.5953 128.226C66.6157 126.792 66.2982 125.427 65.6112 123.994C64.861 122.43 63.9519 121.357 62.5129 120.336C61.8011 119.831 60.1827 119.116 59.3538 118.941ZM57.2092 124.745C57.2643 124.869 57.3638 125.392 57.4303 125.909C57.5329 126.706 57.5301 126.884 57.4123 127.077C57.3358 127.202 57.1835 127.326 57.0738 127.354C56.8073 127.421 56.4412 127.273 56.3175 127.048C56.1645 126.769 55.937 124.978 56.0252 124.746C56.2095 124.263 56.9932 124.262 57.2092 124.745ZM54.8407 124.741C55.2211 125.076 55.5724 125.695 55.6779 126.216C55.862 127.124 55.5023 128.214 54.804 128.863C53.0563 130.487 50.3863 129.514 50.1694 127.174C50.129 126.738 50.1532 126.614 50.413 125.933C50.678 125.237 50.7319 125.148 51.0743 124.837C51.5494 124.405 52.4263 124.045 53.0088 124.043C53.6131 124.042 54.3764 124.332 54.8407 124.741ZM60.8459 127.346C61.0838 127.557 61.1033 127.969 60.888 128.233C60.7375 128.418 60.5755 128.468 59.6917 128.598C58.5261 128.769 58.2554 128.72 58.0897 128.309C57.9707 128.014 58.0523 127.725 58.3021 127.555C58.4649 127.445 59.1293 127.311 60.0866 127.194C60.5669 127.136 60.6231 127.147 60.8459 127.346ZM61.6423 129.802C62.5189 130.575 62.7858 131.754 62.3434 132.901C61.858 134.16 60.6551 134.892 59.3222 134.741C57.2793 134.508 56.2992 132.009 57.5856 130.312C58.1872 129.518 59.1581 129.07 60.1318 129.136C60.5392 129.163 61.296 129.497 61.6423 129.802ZM55.7145 130.492C55.6452 131.301 55.4494 132.812 55.4118 132.829C55.3667 132.849 53.2296 131.262 53.1936 131.181C53.1722 131.134 55.6162 130.154 55.6964 130.179C55.7204 130.186 55.7286 130.327 55.7145 130.492Z" fill="white" fill-opacity="0.2"/>
<path fill-rule="evenodd" clip-rule="evenodd" d="M92.5574 149.429C88.4097 148.553 84.1573 150.357 82.4717 153.708C81.4892 155.661 81.4668 157.792 82.406 159.976L82.752 160.78L82.4111 161.225C82.2237 161.47 82.0285 161.78 81.9774 161.915C81.8527 162.243 81.9493 162.706 82.1897 162.932C82.2975 163.034 83.7836 164.159 85.4919 165.432C88.0196 167.317 88.6508 167.757 88.881 167.799C89.3001 167.875 89.6957 167.644 90.1153 167.08C90.3097 166.818 90.527 166.598 90.598 166.59C90.6691 166.582 91.0455 166.618 91.4346 166.669C92.6212 166.824 94.112 166.637 95.2208 166.193C97.981 165.088 99.7495 162.199 99.7989 158.714C99.8193 157.28 99.5018 155.915 98.8147 154.483C98.0645 152.918 97.1555 151.845 95.7164 150.824C95.0047 150.319 93.3863 149.604 92.5574 149.429ZM90.4127 155.234C90.4678 155.357 90.5673 155.881 90.6339 156.398C90.7364 157.194 90.7336 157.373 90.6158 157.565C90.5393 157.69 90.387 157.815 90.2774 157.842C90.0109 157.909 89.6448 157.761 89.521 157.536C89.3681 157.257 89.1405 155.466 89.2287 155.235C89.4131 154.751 90.1967 154.75 90.4127 155.234ZM88.0443 155.23C88.4247 155.565 88.7759 156.184 88.8815 156.704C89.0656 157.613 88.7059 158.702 88.0076 159.351C86.2599 160.975 83.5898 160.002 83.373 157.662C83.3326 157.226 83.3568 157.103 83.6166 156.421C83.8815 155.726 83.9355 155.636 84.2778 155.325C84.7529 154.893 85.6299 154.533 86.2123 154.532C86.8167 154.53 87.58 154.821 88.0443 155.23ZM94.0495 157.834C94.2874 158.046 94.3069 158.457 94.0916 158.722C93.9411 158.907 93.779 158.956 92.8953 159.086C91.7296 159.257 91.459 159.209 91.2932 158.798C91.1743 158.503 91.2558 158.213 91.5056 158.044C91.6685 157.933 92.3328 157.799 93.2902 157.683C93.7704 157.624 93.8267 157.635 94.0495 157.834ZM94.8458 160.291C95.7224 161.063 95.9893 162.242 95.547 163.389C95.0615 164.648 93.8587 165.381 92.5257 165.229C90.4828 164.996 89.5028 162.497 90.7891 160.8C91.3907 160.006 92.3616 159.558 93.3353 159.624C93.7428 159.652 94.4996 159.986 94.8458 160.291ZM88.918 160.98C88.8487 161.789 88.653 163.3 88.6154 163.317C88.5702 163.337 86.4331 161.75 86.3971 161.67C86.3757 161.622 88.8198 160.643 88.8999 160.667C88.924 160.674 88.9321 160.815 88.918 160.98Z" fill="white" fill-opacity="0.2"/>
<path fill-rule="evenodd" clip-rule="evenodd" d="M123.21 178.004C119.063 177.128 114.81 178.932 113.125 182.283C112.142 184.236 112.12 186.368 113.059 188.551L113.405 189.355L113.064 189.8C112.877 190.045 112.681 190.355 112.63 190.49C112.506 190.818 112.602 191.281 112.843 191.507C112.95 191.609 114.436 192.734 116.145 194.008C118.672 195.892 119.304 196.333 119.534 196.374C119.953 196.45 120.349 196.219 120.768 195.655C120.963 195.394 121.18 195.173 121.251 195.165C121.322 195.158 121.698 195.193 122.088 195.244C123.274 195.399 124.765 195.212 125.874 194.768C128.634 193.663 130.402 190.774 130.452 187.29C130.472 185.855 130.155 184.49 129.468 183.058C128.717 181.494 127.808 180.42 126.369 179.399C125.658 178.894 124.039 178.18 123.21 178.004ZM121.066 183.809C121.121 183.932 121.22 184.456 121.287 184.973C121.389 185.769 121.387 185.948 121.269 186.14C121.192 186.265 121.04 186.39 120.93 186.417C120.664 186.485 120.298 186.336 120.174 186.111C120.021 185.833 119.793 184.041 119.882 183.81C120.066 183.326 120.85 183.326 121.066 183.809ZM118.697 183.805C119.078 184.14 119.429 184.759 119.534 185.28C119.718 186.188 119.359 187.277 118.66 187.926C116.913 189.55 114.243 188.578 114.026 186.237C113.985 185.801 114.01 185.678 114.269 184.996C114.534 184.301 114.588 184.212 114.931 183.9C115.406 183.468 116.283 183.108 116.865 183.107C117.47 183.105 118.233 183.396 118.697 183.805ZM124.702 186.409C124.94 186.621 124.96 187.032 124.744 187.297C124.594 187.482 124.432 187.531 123.548 187.661C122.383 187.833 122.112 187.784 121.946 187.373C121.827 187.078 121.909 186.788 122.159 186.619C122.321 186.508 122.986 186.374 123.943 186.258C124.423 186.199 124.48 186.211 124.702 186.409ZM125.499 188.866C126.375 189.638 126.642 190.817 126.2 191.964C125.714 193.223 124.512 193.956 123.179 193.804C121.136 193.572 120.156 191.072 121.442 189.375C122.044 188.581 123.015 188.133 123.988 188.199C124.396 188.227 125.152 188.561 125.499 188.866ZM119.571 189.555C119.502 190.364 119.306 191.875 119.268 191.892C119.223 191.913 117.086 190.325 117.05 190.245C117.029 190.197 119.473 189.218 119.553 189.242C119.577 189.249 119.585 189.39 119.571 189.555Z" fill="white" fill-opacity="0.2"/>
<path fill-rule="evenodd" clip-rule="evenodd" d="M36.9665 156.356C32.8189 155.48 28.5664 157.284 26.8808 160.635C25.8983 162.588 25.876 164.72 26.8152 166.903L27.1611 167.707L26.8202 168.152C26.6328 168.397 26.4376 168.707 26.3865 168.842C26.2619 169.17 26.3585 169.633 26.5988 169.859C26.7066 169.961 28.1927 171.086 29.9011 172.36C32.4287 174.244 33.0599 174.685 33.2901 174.726C33.7092 174.802 34.1048 174.571 34.5244 174.007C34.7188 173.746 34.9361 173.525 35.0072 173.517C35.0782 173.51 35.4546 173.545 35.8437 173.596C37.0304 173.751 38.5211 173.564 39.6299 173.12C42.3901 172.015 44.1586 169.126 44.208 165.642C44.2284 164.207 43.9109 162.843 43.2239 161.41C42.4736 159.846 41.5646 158.772 40.1256 157.751C39.4138 157.246 37.7954 156.532 36.9665 156.356ZM34.8218 162.161C34.8769 162.284 34.9764 162.808 35.043 163.325C35.1455 164.121 35.1427 164.3 35.0249 164.492C34.9484 164.617 34.7961 164.742 34.6865 164.77C34.42 164.837 34.0539 164.688 33.9301 164.463C33.7772 164.185 33.5496 162.393 33.6378 162.162C33.8222 161.678 34.6058 161.678 34.8218 162.161ZM32.4534 162.157C32.8338 162.492 33.185 163.111 33.2906 163.632C33.4747 164.54 33.115 165.629 32.4167 166.278C30.669 167.902 27.9989 166.93 27.7821 164.589C27.7417 164.153 27.7659 164.03 28.0257 163.348C28.2907 162.653 28.3446 162.564 28.687 162.252C29.162 161.82 30.039 161.46 30.6214 161.459C31.2258 161.457 31.9891 161.748 32.4534 162.157ZM38.4586 164.761C38.6965 164.973 38.716 165.384 38.5007 165.649C38.3502 165.834 38.1882 165.883 37.3044 166.013C36.1388 166.185 35.8681 166.136 35.7023 165.725C35.5834 165.43 35.665 165.14 35.9147 164.971C36.0776 164.861 36.7419 164.726 37.6993 164.61C38.1795 164.552 38.2358 164.563 38.4586 164.761ZM39.2549 167.218C40.1316 167.99 40.3984 169.169 39.9561 170.316C39.4706 171.575 38.2678 172.308 36.9348 172.156C34.8919 171.924 33.9119 169.424 35.1982 167.727C35.7998 166.933 36.7707 166.485 37.7444 166.551C38.1519 166.579 38.9087 166.913 39.2549 167.218ZM33.3271 167.907C33.2578 168.716 33.0621 170.227 33.0245 170.244C32.9794 170.265 30.8422 168.677 30.8063 168.597C30.7848 168.549 33.2289 167.57 33.309 167.594C33.3331 167.601 33.3412 167.742 33.3271 167.907Z" fill="white" fill-opacity="0.2"/>
<path fill-rule="evenodd" clip-rule="evenodd" d="M67.6194 184.932C63.4717 184.055 59.2193 185.859 57.5337 189.21C56.5512 191.163 56.5288 193.295 57.4681 195.478L57.814 196.282L57.4731 196.727C57.2857 196.972 57.0905 197.283 57.0394 197.417C56.9148 197.745 57.0113 198.208 57.2517 198.435C57.3595 198.536 58.8456 199.661 60.5539 200.935C63.0816 202.819 63.7128 203.26 63.943 203.301C64.3621 203.377 64.7577 203.147 65.1773 202.582C65.3717 202.321 65.589 202.101 65.66 202.093C65.7311 202.085 66.1075 202.12 66.4966 202.171C67.6832 202.327 69.174 202.139 70.2828 201.695C73.043 200.59 74.8115 197.701 74.8609 194.217C74.8813 192.782 74.5638 191.418 73.8768 189.985C73.1265 188.421 72.2175 187.347 70.7784 186.326C70.0667 185.821 68.4483 185.107 67.6194 184.932ZM65.4747 190.736C65.5298 190.859 65.6293 191.383 65.6959 191.9C65.7984 192.697 65.7956 192.875 65.6778 193.067C65.6013 193.192 65.449 193.317 65.3394 193.345C65.0729 193.412 64.7068 193.264 64.583 193.038C64.4301 192.76 64.2025 190.969 64.2907 190.737C64.4751 190.253 65.2587 190.253 65.4747 190.736ZM63.1063 190.732C63.4867 191.067 63.8379 191.686 63.9435 192.207C64.1276 193.115 63.7679 194.204 63.0696 194.853C61.3219 196.478 58.6518 195.505 58.435 193.165C58.3946 192.728 58.4188 192.605 58.6786 191.923C58.9436 191.228 58.9975 191.139 59.3399 190.827C59.8149 190.395 60.6919 190.036 61.2743 190.034C61.8787 190.032 62.642 190.323 63.1063 190.732ZM69.1115 193.336C69.3494 193.548 69.3689 193.959 69.1536 194.224C69.0031 194.409 68.8411 194.458 67.9573 194.588C66.7917 194.76 66.521 194.711 66.3552 194.3C66.2363 194.005 66.3178 193.715 66.5676 193.546C66.7305 193.436 67.3948 193.301 68.3522 193.185C68.8324 193.127 68.8887 193.138 69.1115 193.336ZM69.9078 195.793C70.7844 196.565 71.0513 197.744 70.609 198.891C70.1235 200.151 68.9207 200.883 67.5877 200.731C65.5448 200.499 64.5648 197.999 65.8511 196.302C66.4527 195.509 67.4236 195.06 68.3973 195.126C68.8048 195.154 69.5616 195.488 69.9078 195.793ZM63.98 196.482C63.9107 197.292 63.715 198.803 63.6774 198.82C63.6323 198.84 61.4951 197.252 61.4592 197.172C61.4377 197.124 63.8818 196.145 63.9619 196.169C63.986 196.177 63.9941 196.318 63.98 196.482Z" fill="white" fill-opacity="0.2"/>
<path fill-rule="evenodd" clip-rule="evenodd" d="M193.521 68.5542C189.374 67.6777 185.121 69.4815 183.436 72.8325C182.453 74.7858 182.431 76.9173 183.37 79.1007L183.716 79.9049L183.375 80.35C183.188 80.5947 182.992 80.9051 182.941 81.0397C182.817 81.3678 182.913 81.8308 183.154 82.0572C183.262 82.1587 184.748 83.2839 186.456 84.5573C188.984 86.4416 189.615 86.8823 189.845 86.9239C190.264 86.9995 190.66 86.7691 191.079 86.205C191.274 85.9434 191.491 85.7231 191.562 85.7152C191.633 85.7075 192.009 85.7428 192.399 85.7937C193.585 85.9491 195.076 85.7618 196.185 85.3179C198.945 84.2128 200.714 81.3239 200.763 77.8395C200.783 76.405 200.466 75.0403 199.779 73.6077C199.028 72.0434 198.119 70.97 196.68 69.9489C195.969 69.4439 194.35 68.7294 193.521 68.5542ZM191.377 74.3587C191.432 74.4819 191.531 75.0057 191.598 75.5228C191.7 76.3192 191.698 76.4976 191.58 76.69C191.503 76.8149 191.351 76.9396 191.241 76.9673C190.975 77.0345 190.609 76.8861 190.485 76.6608C190.332 76.3823 190.105 74.5911 190.193 74.3597C190.377 73.876 191.161 73.8753 191.377 74.3587ZM189.008 74.3548C189.389 74.6898 189.74 75.3085 189.845 75.8293C190.03 76.7376 189.67 77.8268 188.972 78.4759C187.224 80.1002 184.554 79.1273 184.337 76.7872C184.297 76.351 184.321 76.2277 184.581 75.5459C184.846 74.8506 184.899 74.7613 185.242 74.4498C185.717 74.0178 186.594 73.6581 187.176 73.6565C187.781 73.6548 188.544 73.9457 189.008 74.3548ZM195.013 76.9588C195.251 77.1707 195.271 77.5819 195.056 77.8466C194.905 78.0315 194.743 78.0809 193.859 78.2109C192.694 78.3824 192.423 78.3337 192.257 77.9227C192.138 77.6276 192.22 77.3379 192.47 77.1687C192.632 77.0583 193.297 76.9238 194.254 76.8076C194.734 76.7493 194.791 76.7605 195.013 76.9588ZM195.81 79.4157C196.686 80.1878 196.953 81.3669 196.511 82.5139C196.026 83.7731 194.823 84.5056 193.49 84.354C191.447 84.1215 190.467 81.622 191.753 79.9249C192.355 79.1311 193.326 78.6828 194.299 78.7489C194.707 78.7766 195.464 79.1106 195.81 79.4157ZM189.882 80.105C189.813 80.9142 189.617 82.4253 189.579 82.4421C189.534 82.4623 187.397 80.875 187.361 80.7946C187.34 80.7468 189.784 79.7677 189.864 79.7919C189.888 79.7992 189.896 79.9401 189.882 80.105Z" fill="white" fill-opacity="0.2"/>
<path fill-rule="evenodd" clip-rule="evenodd" d="M224.174 97.1289C220.027 96.2524 215.774 98.0562 214.089 101.407C213.106 103.36 213.084 105.492 214.023 107.675L214.369 108.48L214.028 108.925C213.841 109.169 213.645 109.48 213.594 109.614C213.47 109.943 213.566 110.406 213.807 110.632C213.914 110.733 215.4 111.859 217.109 113.132C219.636 115.016 220.268 115.457 220.498 115.499C220.917 115.574 221.313 115.344 221.732 114.78C221.927 114.518 222.144 114.298 222.215 114.29C222.286 114.282 222.662 114.317 223.051 114.368C224.238 114.524 225.729 114.337 226.838 113.893C229.598 112.788 231.366 109.899 231.416 106.414C231.436 104.98 231.119 103.615 230.432 102.182C229.681 100.618 228.772 99.5447 227.333 98.5236C226.622 98.0186 225.003 97.3041 224.174 97.1289ZM222.03 102.933C222.085 103.057 222.184 103.58 222.251 104.097C222.353 104.894 222.351 105.072 222.233 105.265C222.156 105.39 222.004 105.514 221.894 105.542C221.628 105.609 221.262 105.461 221.138 105.236C220.985 104.957 220.757 103.166 220.846 102.934C221.03 102.451 221.814 102.45 222.03 102.933ZM219.661 102.929C220.042 103.264 220.393 103.883 220.498 104.404C220.682 105.312 220.323 106.402 219.624 107.051C217.877 108.675 215.207 107.702 214.99 105.362C214.949 104.926 214.974 104.802 215.233 104.121C215.498 103.425 215.552 103.336 215.895 103.025C216.37 102.592 217.247 102.233 217.829 102.231C218.434 102.23 219.197 102.52 219.661 102.929ZM225.666 105.534C225.904 105.745 225.924 106.157 225.708 106.421C225.558 106.606 225.396 106.656 224.512 106.786C223.347 106.957 223.076 106.908 222.91 106.497C222.791 106.202 222.873 105.913 223.122 105.743C223.285 105.633 223.95 105.499 224.907 105.382C225.387 105.324 225.444 105.335 225.666 105.534ZM226.463 107.99C227.339 108.763 227.606 109.942 227.164 111.089C226.678 112.348 225.476 113.08 224.143 112.929C222.1 112.696 221.12 110.197 222.406 108.5C223.008 107.706 223.978 107.257 224.952 107.324C225.36 107.351 226.116 107.685 226.463 107.99ZM220.535 108.68C220.466 109.489 220.27 111 220.232 111.017C220.187 111.037 218.05 109.45 218.014 109.369C217.993 109.322 220.437 108.342 220.517 108.367C220.541 108.374 220.549 108.515 220.535 108.68Z" fill="white" fill-opacity="0.2"/>
<path fill-rule="evenodd" clip-rule="evenodd" d="M29.0002 90.0283C24.8526 89.1518 20.6002 90.9556 18.9145 94.3067C17.9321 96.2599 17.9097 98.3914 18.8489 100.575L19.1948 101.379L18.854 101.824C18.6665 102.069 18.4714 102.379 18.4203 102.514C18.2956 102.842 18.3922 103.305 18.6325 103.531C18.7404 103.633 20.2265 104.758 21.9348 106.031C24.4625 107.916 25.0937 108.356 25.3239 108.398C25.7429 108.474 26.1385 108.243 26.5581 107.679C26.7526 107.418 26.9699 107.197 27.0409 107.189C27.112 107.182 27.4884 107.217 27.8775 107.268C29.0641 107.423 30.5549 107.236 31.6637 106.792C34.4239 105.687 36.1924 102.798 36.2417 99.3136C36.2621 97.8792 35.9447 96.5144 35.2576 95.0819C34.5074 93.5175 33.5983 92.4441 32.1593 91.423C31.4475 90.9181 29.8292 90.2036 29.0002 90.0283ZM26.8556 95.8328C26.9107 95.956 27.0102 96.4798 27.0767 96.9969C27.1793 97.7933 27.1765 97.9717 27.0587 98.1641C26.9822 98.289 26.8299 98.4138 26.7203 98.4414C26.4537 98.5086 26.0876 98.3603 25.9639 98.1349C25.8109 97.8564 25.5834 96.0653 25.6716 95.8338C25.8559 95.3501 26.6396 95.3495 26.8556 95.8328ZM24.4872 95.8289C24.8676 96.1639 25.2188 96.7826 25.3244 97.3035C25.5084 98.2118 25.1487 99.301 24.4505 99.95C22.7027 101.574 20.0327 100.601 19.8158 98.2614C19.7755 97.8251 19.7996 97.7018 20.0595 97.02C20.3244 96.3248 20.3784 96.2354 20.7207 95.924C21.1958 95.4919 22.0728 95.1323 22.6552 95.1306C23.2595 95.129 24.0228 95.4198 24.4872 95.8289ZM30.4923 98.4329C30.7303 98.6448 30.7498 99.056 30.5344 99.3208C30.384 99.5056 30.2219 99.555 29.3382 99.685C28.1725 99.8565 27.9019 99.8078 27.7361 99.3968C27.6171 99.1017 27.6987 98.8121 27.9485 98.6428C28.1113 98.5324 28.7757 98.3979 29.733 98.2817C30.2133 98.2234 30.2695 98.2346 30.4923 98.4329ZM31.2887 100.89C32.1653 101.662 32.4322 102.841 31.9899 103.988C31.5044 105.247 30.3015 105.98 28.9686 105.828C26.9257 105.596 25.9456 103.096 27.232 101.399C27.8336 100.605 28.8045 100.157 29.7782 100.223C30.1856 100.251 30.9424 100.585 31.2887 100.89ZM25.3609 101.579C25.2916 102.388 25.0959 103.899 25.0582 103.916C25.0131 103.936 22.876 102.349 22.84 102.269C22.8186 102.221 25.2626 101.242 25.3428 101.266C25.3669 101.273 25.375 101.414 25.3609 101.579Z" fill="white" fill-opacity="0.2"/>
<path fill-rule="evenodd" clip-rule="evenodd" d="M113.906 111.84C109.758 110.963 105.506 112.767 103.82 116.118C102.837 118.071 102.815 120.203 103.754 122.386L104.1 123.191L103.759 123.636C103.572 123.88 103.377 124.191 103.326 124.325C103.201 124.653 103.298 125.116 103.538 125.343C103.646 125.444 105.132 126.569 106.84 127.843C109.368 129.727 109.999 130.168 110.229 130.21C110.648 130.285 111.044 130.055 111.463 129.491C111.658 129.229 111.875 129.009 111.946 129.001C112.017 128.993 112.394 129.028 112.783 129.079C113.969 129.235 115.46 129.047 116.569 128.604C119.329 127.498 121.098 124.61 121.147 121.125C121.167 119.691 120.85 118.326 120.163 116.893C119.413 115.329 118.504 114.256 117.065 113.235C116.353 112.73 114.735 112.015 113.906 111.84ZM111.761 117.644C111.816 117.768 111.916 118.291 111.982 118.808C112.085 119.605 112.082 119.783 111.964 119.976C111.888 120.101 111.735 120.225 111.626 120.253C111.359 120.32 110.993 120.172 110.869 119.946C110.716 119.668 110.489 117.877 110.577 117.645C110.761 117.162 111.545 117.161 111.761 117.644ZM109.392 117.64C109.773 117.975 110.124 118.594 110.23 119.115C110.414 120.023 110.054 121.112 109.356 121.761C107.608 123.386 104.938 122.413 104.721 120.073C104.681 119.637 104.705 119.513 104.965 118.832C105.23 118.136 105.284 118.047 105.626 117.735C106.101 117.303 106.978 116.944 107.561 116.942C108.165 116.94 108.928 117.231 109.392 117.64ZM115.398 120.244C115.636 120.456 115.655 120.867 115.44 121.132C115.289 121.317 115.127 121.367 114.244 121.497C113.078 121.668 112.807 121.619 112.641 121.208C112.522 120.913 112.604 120.624 112.854 120.454C113.017 120.344 113.681 120.209 114.638 120.093C115.119 120.035 115.175 120.046 115.398 120.244ZM116.194 122.701C117.071 123.473 117.338 124.653 116.895 125.8C116.41 127.059 115.207 127.791 113.874 127.64C111.831 127.407 110.851 124.908 112.137 123.211C112.739 122.417 113.71 121.968 114.684 122.035C115.091 122.062 115.848 122.396 116.194 122.701ZM110.266 123.391C110.197 124.2 110.001 125.711 109.964 125.728C109.918 125.748 107.781 124.161 107.745 124.08C107.724 124.032 110.168 123.053 110.248 123.078C110.272 123.085 110.28 123.226 110.266 123.391Z" fill="white" fill-opacity="0.2"/>
<path fill-rule="evenodd" clip-rule="evenodd" d="M147.109 142.329C142.961 141.453 138.709 143.256 137.023 146.607C136.041 148.561 136.019 150.692 136.958 152.876L137.304 153.68L136.963 154.125C136.775 154.37 136.58 154.68 136.529 154.815C136.404 155.143 136.501 155.606 136.741 155.832C136.849 155.934 138.335 157.059 140.044 158.332C142.571 160.216 143.203 160.657 143.433 160.699C143.852 160.774 144.247 160.544 144.667 159.98C144.861 159.718 145.079 159.498 145.15 159.49C145.221 159.482 145.597 159.518 145.986 159.569C147.173 159.724 148.664 159.537 149.773 159.093C152.533 157.988 154.301 155.099 154.351 151.614C154.371 150.18 154.053 148.815 153.366 147.383C152.616 145.818 151.707 144.745 150.268 143.724C149.556 143.219 147.938 142.504 147.109 142.329ZM144.964 148.134C145.02 148.257 145.119 148.781 145.186 149.298C145.288 150.094 145.285 150.273 145.168 150.465C145.091 150.59 144.939 150.715 144.829 150.742C144.563 150.809 144.196 150.661 144.073 150.436C143.92 150.157 143.692 148.366 143.78 148.135C143.965 147.651 144.748 147.65 144.964 148.134ZM142.596 148.13C142.976 148.465 143.328 149.083 143.433 149.604C143.617 150.513 143.258 151.602 142.559 152.251C140.812 153.875 138.142 152.902 137.925 150.562C137.884 150.126 137.908 150.003 138.168 149.321C138.433 148.626 138.487 148.536 138.83 148.225C139.305 147.793 140.182 147.433 140.764 147.431C141.368 147.43 142.132 147.721 142.596 148.13ZM148.601 150.734C148.839 150.946 148.859 151.357 148.643 151.622C148.493 151.806 148.331 151.856 147.447 151.986C146.281 152.157 146.011 152.109 145.845 151.698C145.726 151.403 145.808 151.113 146.057 150.944C146.22 150.833 146.885 150.699 147.842 150.582C148.322 150.524 148.378 150.535 148.601 150.734ZM149.398 153.191C150.274 153.963 150.541 155.142 150.099 156.289C149.613 157.548 148.41 158.281 147.077 158.129C145.035 157.896 144.054 155.397 145.341 153.7C145.942 152.906 146.913 152.458 147.887 152.524C148.294 152.552 149.051 152.885 149.398 153.191ZM143.47 153.88C143.4 154.689 143.205 156.2 143.167 156.217C143.122 156.237 140.985 154.65 140.949 154.57C140.927 154.522 143.371 153.543 143.452 153.567C143.476 153.574 143.484 153.715 143.47 153.88Z" fill="white" fill-opacity="0.2"/>
<path fill-rule="evenodd" clip-rule="evenodd" d="M177.762 170.903C173.614 170.027 169.362 171.831 167.676 175.182C166.694 177.135 166.671 179.266 167.611 181.45L167.957 182.254L167.616 182.699C167.428 182.944 167.233 183.254 167.182 183.389C167.057 183.717 167.154 184.18 167.394 184.406C167.502 184.508 168.988 185.633 170.697 186.906C173.224 188.791 173.855 189.231 174.086 189.273C174.505 189.349 174.9 189.118 175.32 188.554C175.514 188.293 175.732 188.072 175.803 188.064C175.874 188.057 176.25 188.092 176.639 188.143C177.826 188.298 179.317 188.111 180.425 187.667C183.186 186.562 184.954 183.673 185.004 180.189C185.024 178.754 184.706 177.389 184.019 175.957C183.269 174.392 182.36 173.319 180.921 172.298C180.209 171.793 178.591 171.079 177.762 170.903ZM175.617 176.708C175.672 176.831 175.772 177.355 175.839 177.872C175.941 178.668 175.938 178.847 175.82 179.039C175.744 179.164 175.592 179.289 175.482 179.316C175.216 179.384 174.849 179.235 174.726 179.01C174.573 178.731 174.345 176.94 174.433 176.709C174.618 176.225 175.401 176.224 175.617 176.708ZM173.249 176.704C173.629 177.039 173.981 177.658 174.086 178.178C174.27 179.087 173.911 180.176 173.212 180.825C171.465 182.449 168.794 181.476 168.578 179.136C168.537 178.7 168.561 178.577 168.821 177.895C169.086 177.2 169.14 177.11 169.483 176.799C169.958 176.367 170.835 176.007 171.417 176.006C172.021 176.004 172.785 176.295 173.249 176.704ZM179.254 179.308C179.492 179.52 179.512 179.931 179.296 180.196C179.146 180.381 178.984 180.43 178.1 180.56C176.934 180.732 176.664 180.683 176.498 180.272C176.379 179.977 176.46 179.687 176.71 179.518C176.873 179.407 177.537 179.273 178.495 179.157C178.975 179.098 179.031 179.11 179.254 179.308ZM180.05 181.765C180.927 182.537 181.194 183.716 180.752 184.863C180.266 186.122 179.063 186.855 177.73 186.703C175.687 186.471 174.707 183.971 175.994 182.274C176.595 181.48 177.566 181.032 178.54 181.098C178.947 181.126 179.704 181.46 180.05 181.765ZM174.123 182.454C174.053 183.263 173.858 184.774 173.82 184.791C173.775 184.811 171.638 183.224 171.602 183.144C171.58 183.096 174.024 182.117 174.105 182.141C174.129 182.148 174.137 182.289 174.123 182.454Z" fill="white" fill-opacity="0.2"/>
<path fill-rule="evenodd" clip-rule="evenodd" d="M83.552 82.9282C79.4044 82.0517 75.1519 83.8555 73.4663 87.2066C72.4838 89.1598 72.4615 91.2913 73.4007 93.4747L73.7466 94.2789L73.4058 94.724C73.2183 94.9687 73.0231 95.2791 72.972 95.4137C72.8474 95.7418 72.944 96.2048 73.1843 96.4312C73.2921 96.5328 74.7782 97.6579 76.4866 98.9313C79.0142 100.816 79.6454 101.256 79.8756 101.298C80.2947 101.374 80.6903 101.143 81.1099 100.579C81.3043 100.317 81.5216 100.097 81.5927 100.089C81.6637 100.082 82.0401 100.117 82.4292 100.168C83.6159 100.323 85.1066 100.136 86.2154 99.6919C88.9756 98.5869 90.7442 95.6979 90.7935 92.2135C90.8139 90.7791 90.4964 89.4143 89.8094 87.9818C89.0591 86.4174 88.1501 85.344 86.7111 84.3229C85.9993 83.818 84.3809 83.1035 83.552 82.9282ZM81.4073 88.7327C81.4624 88.8559 81.5619 89.3797 81.6285 89.8968C81.731 90.6932 81.7283 90.8716 81.6104 91.064C81.5339 91.1889 81.3816 91.3137 81.272 91.3413C81.0055 91.4085 80.6394 91.2602 80.5157 91.0348C80.3627 90.7563 80.1352 88.9652 80.2233 88.7337C80.4077 88.25 81.1914 88.2494 81.4073 88.7327ZM79.0389 88.7288C79.4193 89.0638 79.7705 89.6825 79.8761 90.2034C80.0602 91.1117 79.7005 92.2009 79.0022 92.8499C77.2545 94.4742 74.5844 93.5014 74.3676 91.1613C74.3272 90.725 74.3514 90.6017 74.6112 89.9199C74.8762 89.2247 74.9301 89.1353 75.2725 88.8239C75.7476 88.3918 76.6245 88.0322 77.207 88.0305C77.8113 88.0289 78.5746 88.3197 79.0389 88.7288ZM85.0441 91.3328C85.282 91.5447 85.3015 91.9559 85.0862 92.2207C84.9357 92.4055 84.7737 92.4549 83.8899 92.5849C82.7243 92.7565 82.4536 92.7077 82.2879 92.2967C82.1689 92.0016 82.2505 91.712 82.5002 91.5427C82.6631 91.4323 83.3274 91.2979 84.2848 91.1816C84.765 91.1233 84.8213 91.1345 85.0441 91.3328ZM85.8404 93.7897C86.7171 94.5618 86.984 95.7409 86.5416 96.8879C86.0562 98.1471 84.8533 98.8796 83.5203 98.728C81.4774 98.4955 80.4974 95.996 81.7837 94.2989C82.3854 93.5052 83.3562 93.0568 84.33 93.1229C84.7374 93.1506 85.4942 93.4846 85.8404 93.7897ZM79.9126 94.479C79.8434 95.2882 79.6476 96.7993 79.61 96.8161C79.5649 96.8364 77.4278 95.2491 77.3918 95.1686C77.3704 95.1208 79.8144 94.1417 79.8946 94.166C79.9186 94.1732 79.9268 94.3141 79.9126 94.479Z" fill="white" fill-opacity="0.2"/>
<path fill-rule="evenodd" clip-rule="evenodd" d="M169.15 104.567C165.002 103.69 160.75 105.494 159.064 108.845C158.082 110.798 158.059 112.93 158.999 115.113L159.345 115.918L159.004 116.363C158.816 116.607 158.621 116.918 158.57 117.052C158.445 117.381 158.542 117.843 158.782 118.07C158.89 118.171 160.376 119.297 162.085 120.57C164.612 122.454 165.243 122.895 165.474 122.937C165.893 123.012 166.288 122.782 166.708 122.218C166.902 121.956 167.12 121.736 167.191 121.728C167.262 121.72 167.638 121.755 168.027 121.806C169.214 121.962 170.705 121.775 171.813 121.331C174.574 120.226 176.342 117.337 176.392 113.852C176.412 112.418 176.094 111.053 175.407 109.62C174.657 108.056 173.748 106.983 172.309 105.962C171.597 105.457 169.979 104.742 169.15 104.567ZM167.005 110.371C167.06 110.495 167.16 111.018 167.227 111.535C167.329 112.332 167.326 112.51 167.208 112.703C167.132 112.828 166.98 112.952 166.87 112.98C166.604 113.047 166.237 112.899 166.114 112.673C165.961 112.395 165.733 110.604 165.821 110.372C166.006 109.889 166.789 109.888 167.005 110.371ZM164.637 110.367C165.017 110.702 165.369 111.321 165.474 111.842C165.658 112.75 165.299 113.84 164.6 114.489C162.853 116.113 160.182 115.14 159.966 112.8C159.925 112.364 159.949 112.24 160.209 111.559C160.474 110.863 160.528 110.774 160.871 110.463C161.346 110.03 162.223 109.671 162.805 109.669C163.409 109.668 164.173 109.958 164.637 110.367ZM170.642 112.972C170.88 113.183 170.9 113.595 170.684 113.859C170.534 114.044 170.372 114.094 169.488 114.224C168.322 114.395 168.052 114.346 167.886 113.935C167.767 113.64 167.848 113.351 168.098 113.181C168.261 113.071 168.925 112.937 169.883 112.82C170.363 112.762 170.419 112.773 170.642 112.972ZM171.438 115.428C172.315 116.201 172.582 117.38 172.14 118.527C171.654 119.786 170.451 120.518 169.118 120.367C167.075 120.134 166.095 117.635 167.382 115.938C167.983 115.144 168.954 114.695 169.928 114.762C170.335 114.789 171.092 115.123 171.438 115.428ZM165.511 116.118C165.441 116.927 165.246 118.438 165.208 118.455C165.163 118.475 163.026 116.888 162.99 116.807C162.968 116.76 165.412 115.78 165.493 115.805C165.517 115.812 165.525 115.953 165.511 116.118Z" fill="white" fill-opacity="0.2"/>
<path fill-rule="evenodd" clip-rule="evenodd" d="M202.354 135.055C198.206 134.179 193.954 135.982 192.268 139.334C191.285 141.287 191.263 143.418 192.202 145.602L192.548 146.406L192.207 146.851C192.02 147.096 191.825 147.406 191.774 147.541C191.649 147.869 191.746 148.332 191.986 148.558C192.094 148.66 193.58 149.785 195.288 151.058C197.816 152.943 198.447 153.383 198.677 153.425C199.096 153.501 199.492 153.27 199.911 152.706C200.106 152.444 200.323 152.224 200.394 152.216C200.465 152.208 200.842 152.244 201.231 152.295C202.417 152.45 203.908 152.263 205.017 151.819C207.777 150.714 209.546 147.825 209.595 144.34C209.615 142.906 209.298 141.541 208.611 140.109C207.861 138.544 206.952 137.471 205.513 136.45C204.801 135.945 203.183 135.23 202.354 135.055ZM200.209 140.86C200.264 140.983 200.364 141.507 200.43 142.024C200.533 142.82 200.53 142.999 200.412 143.191C200.336 143.316 200.183 143.441 200.074 143.468C199.807 143.535 199.441 143.387 199.317 143.162C199.164 142.883 198.937 141.092 199.025 140.861C199.209 140.377 199.993 140.376 200.209 140.86ZM197.84 140.856C198.221 141.191 198.572 141.809 198.678 142.33C198.862 143.239 198.502 144.328 197.804 144.977C196.056 146.601 193.386 145.628 193.169 143.288C193.129 142.852 193.153 142.729 193.413 142.047C193.678 141.352 193.732 141.262 194.074 140.951C194.549 140.519 195.426 140.159 196.009 140.158C196.613 140.156 197.376 140.447 197.84 140.856ZM203.846 143.46C204.084 143.672 204.103 144.083 203.888 144.348C203.737 144.533 203.575 144.582 202.692 144.712C201.526 144.883 201.255 144.835 201.089 144.424C200.97 144.129 201.052 143.839 201.302 143.67C201.465 143.559 202.129 143.425 203.086 143.309C203.567 143.25 203.623 143.261 203.846 143.46ZM204.642 145.917C205.519 146.689 205.786 147.868 205.343 149.015C204.858 150.274 203.655 151.007 202.322 150.855C200.279 150.622 199.299 148.123 200.585 146.426C201.187 145.632 202.158 145.184 203.132 145.25C203.539 145.278 204.296 145.612 204.642 145.917ZM198.714 146.606C198.645 147.415 198.449 148.926 198.412 148.943C198.366 148.963 196.229 147.376 196.193 147.296C196.172 147.248 198.616 146.269 198.696 146.293C198.72 146.3 198.728 146.441 198.714 146.606Z" fill="white" fill-opacity="0.2"/>
<path fill-rule="evenodd" clip-rule="evenodd" d="M233.006 163.63C228.859 162.754 224.606 164.558 222.921 167.909C221.938 169.862 221.916 171.993 222.855 174.177L223.201 174.981L222.86 175.426C222.673 175.671 222.478 175.981 222.426 176.116C222.302 176.444 222.398 176.907 222.639 177.133C222.747 177.235 224.233 178.36 225.941 179.633C228.469 181.518 229.1 181.958 229.33 182C229.749 182.076 230.145 181.845 230.564 181.281C230.759 181.02 230.976 180.799 231.047 180.791C231.118 180.784 231.495 180.819 231.884 180.87C233.07 181.025 234.561 180.838 235.67 180.394C238.43 179.289 240.199 176.4 240.248 172.916C240.268 171.481 239.951 170.116 239.264 168.684C238.514 167.12 237.605 166.046 236.166 165.025C235.454 164.52 233.835 163.806 233.006 163.63ZM230.862 169.435C230.917 169.558 231.016 170.082 231.083 170.599C231.186 171.395 231.183 171.574 231.065 171.766C230.988 171.891 230.836 172.016 230.726 172.043C230.46 172.111 230.094 171.962 229.97 171.737C229.817 171.458 229.59 169.667 229.678 169.436C229.862 168.952 230.646 168.952 230.862 169.435ZM228.493 169.431C228.874 169.766 229.225 170.385 229.331 170.906C229.515 171.814 229.155 172.903 228.457 173.552C226.709 175.176 224.039 174.204 223.822 171.863C223.782 171.427 223.806 171.304 224.066 170.622C224.331 169.927 224.385 169.837 224.727 169.526C225.202 169.094 226.079 168.734 226.661 168.733C227.266 168.731 228.029 169.022 228.493 169.431ZM234.499 172.035C234.736 172.247 234.756 172.658 234.541 172.923C234.39 173.108 234.228 173.157 233.344 173.287C232.179 173.459 231.908 173.41 231.742 172.999C231.623 172.704 231.705 172.414 231.955 172.245C232.118 172.134 232.782 172 233.739 171.884C234.22 171.825 234.276 171.837 234.499 172.035ZM235.295 174.492C236.172 175.264 236.438 176.443 235.996 177.59C235.511 178.849 234.308 179.582 232.975 179.43C230.932 179.198 229.952 176.698 231.238 175.001C231.84 174.207 232.811 173.759 233.784 173.825C234.192 173.853 234.949 174.187 235.295 174.492ZM229.367 175.181C229.298 175.99 229.102 177.501 229.064 177.518C229.019 177.539 226.882 175.951 226.846 175.871C226.825 175.823 229.269 174.844 229.349 174.868C229.373 174.875 229.381 175.016 229.367 175.181Z" fill="white" fill-opacity="0.2"/>
<path fill-rule="evenodd" clip-rule="evenodd" d="M138.796 75.6543C134.649 74.7778 130.396 76.5816 128.711 79.9326C127.728 81.8859 127.706 84.0174 128.645 86.2008L128.991 87.005L128.65 87.45C128.463 87.6948 128.268 88.0052 128.216 88.1398C128.092 88.4679 128.188 88.9309 128.429 89.1573C128.537 89.2588 130.023 90.3839 131.731 91.6574C134.259 93.5417 134.89 93.9824 135.12 94.024C135.539 94.0996 135.935 93.8692 136.354 93.3051C136.549 93.0435 136.766 92.8232 136.837 92.8153C136.908 92.8076 137.285 92.8429 137.674 92.8938C138.86 93.0492 140.351 92.8619 141.46 92.418C144.22 91.3129 145.989 88.424 146.038 84.9396C146.058 83.5051 145.741 82.1404 145.054 80.7078C144.304 79.1435 143.395 78.0701 141.956 77.049C141.244 76.544 139.625 75.8295 138.796 75.6543ZM136.652 81.4588C136.707 81.582 136.806 82.1058 136.873 82.6229C136.975 83.4193 136.973 83.5977 136.855 83.7901C136.778 83.915 136.626 84.0397 136.516 84.0674C136.25 84.1346 135.884 83.9862 135.76 83.7609C135.607 83.4824 135.38 81.6912 135.468 81.4598C135.652 80.9761 136.436 80.9754 136.652 81.4588ZM134.283 81.4548C134.664 81.7899 135.015 82.4086 135.121 82.9294C135.305 83.8377 134.945 84.9269 134.247 85.5759C132.499 87.2003 129.829 86.2274 129.612 83.8873C129.572 83.4511 129.596 83.3278 129.856 82.646C130.121 81.9507 130.175 81.8614 130.517 81.5499C130.992 81.1179 131.869 80.7582 132.451 80.7566C133.056 80.7549 133.819 81.0458 134.283 81.4548ZM140.289 84.0589C140.526 84.2708 140.546 84.6819 140.331 84.9467C140.18 85.1316 140.018 85.181 139.134 85.311C137.969 85.4825 137.698 85.4338 137.532 85.0228C137.413 84.7277 137.495 84.438 137.745 84.2688C137.908 84.1584 138.572 84.0239 139.529 83.9077C140.009 83.8494 140.066 83.8606 140.289 84.0589ZM141.085 86.5158C141.962 87.2879 142.228 88.467 141.786 89.614C141.301 90.8732 140.098 91.6057 138.765 91.4541C136.722 91.2216 135.742 88.7221 137.028 87.025C137.63 86.2312 138.601 85.7829 139.574 85.849C139.982 85.8767 140.739 86.2107 141.085 86.5158ZM135.157 87.2051C135.088 88.0143 134.892 89.5253 134.854 89.5422C134.809 89.5624 132.672 87.9751 132.636 87.8947C132.615 87.8469 135.059 86.8678 135.139 86.892C135.163 86.8993 135.171 87.0402 135.157 87.2051Z" fill="white" fill-opacity="0.2"/>
<path d="M127.64 190.624C127.897 190.748 128.332 190.895 128.601 190.951C129.271 191.064 129.874 190.985 130.556 190.68C131.048 190.466 132.31 189.168 139.986 181.076C144.858 175.93 149.003 171.563 149.193 171.36C149.528 171.01 149.863 170.919 162.355 167.839C169.394 166.101 175.361 164.577 175.618 164.453C176.232 164.126 176.769 163.573 177.081 162.907C177.607 161.812 177.551 161.519 175.484 154.51L173.64 148.247L174.523 148.168C177.081 147.942 180.299 147.017 182.679 145.821C184.869 144.715 186.959 142.932 188.087 141.205C189.428 139.151 190.154 136.522 190.154 133.768C190.154 132.752 190.009 130.969 189.875 130.405C189.83 130.202 189.953 130.1 190.657 129.75C191.149 129.502 191.73 129.096 192.054 128.78C192.959 127.854 193.618 126.241 193.618 124.931C193.618 124.412 192.489 124.762 202.691 122.133C207.026 121.015 210.713 120.045 210.881 119.977C211.786 119.627 212.657 118.702 213.015 117.697C213.395 116.625 213.361 116.445 210.489 104.629C209.015 98.5123 207.685 93.2533 207.54 92.9486C207.227 92.2489 206.724 91.6508 206.21 91.3799C205.987 91.2558 205.73 90.9624 205.562 90.6464C205.149 89.8564 204.098 88.5699 203.35 87.9379C200.635 85.6582 197.227 85.0037 193.908 86.1322C190.333 87.3285 187.886 90.3868 187.171 94.5173L187.081 95.0703L186.087 95.3411L185.093 95.6007L184.355 95.296C183.729 95.0364 183.45 94.98 182.556 94.98C181.528 94.98 181.137 95.0703 170.266 97.8916C164.087 99.4941 158.768 100.927 158.444 101.074C158.12 101.232 157.707 101.458 157.528 101.582L157.204 101.819L153.338 100.882L149.461 99.9456L140.243 90.274C133.562 83.2657 130.891 80.5347 130.556 80.3654C129.562 79.8801 128.411 79.8801 127.494 80.3541C127.193 80.5121 124.187 83.593 118.187 89.9241C113.327 95.0703 109.181 99.4264 108.992 99.6296C108.668 99.9681 108.422 100.047 104.857 100.916C101.17 101.819 101.07 101.841 100.779 101.65C99.8295 101.018 98.7121 100.69 87.9188 97.8916C77.0472 95.0703 76.6561 94.98 75.6282 94.98C74.7343 94.98 74.455 95.0364 73.8293 95.296L73.0918 95.6007L72.0974 95.3411L71.103 95.0703L71.0136 94.5173C70.2985 90.3868 67.8516 87.3285 64.2761 86.1322C60.9577 85.0037 57.5498 85.6582 54.8347 87.9379C54.0861 88.5699 53.0358 89.8564 52.6224 90.6464C52.4548 90.9624 52.1978 91.2558 51.9744 91.3799C51.4604 91.6508 50.9576 92.2489 50.6448 92.9486C50.4995 93.2533 49.1699 98.5123 47.695 104.629C44.8235 116.445 44.79 116.625 45.1699 117.697C45.5274 118.702 46.3989 119.627 47.304 119.977C47.4716 120.045 51.1587 121.015 55.494 122.133C65.6951 124.762 64.5666 124.412 64.5666 124.931C64.5666 126.241 65.2259 127.854 66.1309 128.78C66.4549 129.096 67.0359 129.502 67.5276 129.75C68.2315 130.1 68.3544 130.202 68.3097 130.405C68.0415 131.579 67.9633 134.321 68.1533 135.743C68.5555 138.745 69.6617 141.047 71.6617 143.056C73.617 145.019 76.1421 146.396 79.5947 147.389C81.0137 147.784 83.2148 148.191 84.0193 148.191C84.321 148.191 84.5668 148.247 84.5668 148.303C84.5668 148.371 83.7511 151.226 82.7567 154.657C81.1031 160.311 80.9355 160.966 80.9355 161.733C80.9466 162.422 81.0025 162.681 81.2372 163.155C81.5835 163.821 82.1869 164.385 82.8238 164.667C83.0807 164.78 89.0026 166.259 95.997 167.951L108.712 171.044L117.941 180.715C124.723 187.836 127.293 190.454 127.64 190.624Z" fill="#5B1B1C"/>
<path fill-rule="evenodd" clip-rule="evenodd" d="M172.858 145.291C172.802 145.178 172.187 143.135 171.506 140.743L171.305 140.05L171.305 140.048L171.304 140.045C170.695 137.942 170.179 136.158 170.098 135.924C169.953 135.484 169.975 135.371 170.322 134.175C170.372 134 170.514 133.51 170.726 132.776L170.729 132.766C171.368 130.56 172.642 126.16 173.998 121.445L174.374 120.14C177.204 110.331 177.535 109.186 177.194 108.298C177.149 108.181 177.093 108.068 177.028 107.941L177.028 107.941C177.006 107.896 176.983 107.85 176.958 107.801C176.567 107.011 175.908 106.435 175.093 106.164C174.802 106.074 171.785 105.329 168.4 104.505C165.003 103.681 162.266 102.97 162.31 102.925C162.456 102.779 182.165 97.7453 182.556 97.7453C183.026 97.7566 183.763 98.0726 184.053 98.4111C184.176 98.5353 184.322 98.6481 184.389 98.6481C184.456 98.6481 185.729 98.3321 187.227 97.9484L189.942 97.26L189.864 96.3346C189.629 93.4568 191.305 90.4549 193.841 89.2023C194.824 88.717 196.132 88.3784 197.026 88.3784C198.568 88.3784 200.579 89.1684 201.752 90.2518C202.478 90.9176 203.271 92.0349 203.651 92.949C203.852 93.4568 203.931 93.5246 204.322 93.6036C204.568 93.6487 204.847 93.7841 204.947 93.8857C205.115 94.0888 210.489 115.971 210.489 116.502C210.489 116.93 210.188 117.246 209.618 117.416C209.327 117.506 204.892 118.657 199.763 119.978L198.278 120.363C193.844 121.514 190.409 122.406 190.389 122.426C190.366 122.449 190.445 122.957 190.579 123.555L190.618 123.737L190.618 123.737C190.796 124.548 190.842 124.759 190.77 124.813C190.745 124.831 190.706 124.831 190.652 124.83L190.623 124.83C190.456 124.83 190.378 124.627 190.176 123.792C190.042 123.216 189.931 122.596 189.931 122.404V122.065L199.685 119.549C205.037 118.161 209.54 116.953 209.685 116.863C209.83 116.761 209.975 116.614 210.009 116.535C210.042 116.445 208.869 111.457 207.417 105.453C205.406 97.1472 204.713 94.4725 204.545 94.2807C204.411 94.134 204.154 94.0211 203.92 93.9985C203.528 93.9647 203.506 93.9308 203.238 93.2311C203.082 92.8249 202.892 92.4299 202.813 92.3509C202.735 92.2719 202.668 92.1252 202.668 92.0349C202.668 91.9446 202.612 91.8769 202.556 91.8769C202.489 91.8769 202.411 91.8092 202.378 91.7189C202.311 91.5383 200.992 90.1841 200.88 90.1841C200.847 90.1841 200.713 90.0938 200.59 89.9809C200.009 89.4392 198.109 88.8298 197.026 88.8298C195.942 88.8298 194.042 89.4392 193.461 89.9809C193.338 90.0938 193.204 90.1841 193.171 90.1841C193.059 90.1841 191.741 91.5383 191.674 91.7189C191.64 91.8092 191.562 91.8769 191.506 91.8769C191.45 91.8769 191.372 92.001 191.338 92.159C191.294 92.317 191.193 92.4412 191.104 92.4412C191.003 92.4412 190.936 92.5427 190.936 92.6782C190.936 92.8136 190.802 93.2876 190.635 93.7277C190.355 94.4612 190.322 94.6531 190.333 96.0751L190.344 97.6099L187.651 98.3096C186.165 98.7046 184.746 99.0431 184.489 99.077C184.031 99.1221 184.009 99.1108 184.009 98.8287C184.009 98.5804 183.964 98.5353 183.674 98.5353C183.495 98.5353 183.338 98.4901 183.338 98.4337C183.338 98.366 183.104 98.287 182.824 98.2419C182.377 98.1741 181.104 98.4789 173.215 100.522C168.21 101.819 164.12 102.903 164.12 102.937C164.12 102.982 164.791 103.174 165.606 103.365C166.036 103.468 166.907 103.679 167.938 103.93C168.84 104.149 169.865 104.398 170.824 104.629C174.903 105.611 176.076 105.939 176.076 106.085C176.076 106.142 176.176 106.209 176.299 106.243C176.456 106.277 176.523 106.401 176.523 106.593C176.523 106.83 176.579 106.886 176.813 106.886C177.048 106.886 177.148 106.999 177.394 107.541C177.651 108.094 177.696 108.331 177.696 109.256C177.696 110.385 177.484 111.198 175.405 118.228C174.143 122.483 171.595 131.398 171.629 131.421C171.64 131.444 173.875 130.879 176.579 130.168C179.282 129.469 181.651 128.904 181.83 128.916C182.109 128.949 182.188 129.017 182.31 129.39C182.769 130.8 182.903 133.373 182.601 134.829C182.422 135.709 181.942 136.906 181.763 136.906C181.707 136.906 181.662 136.985 181.662 137.075C181.662 137.165 181.584 137.244 181.495 137.244C181.405 137.244 181.327 137.334 181.327 137.447C181.327 137.707 180.88 138.147 180.623 138.147C180.523 138.147 180.433 138.226 180.433 138.316C180.433 138.418 180.299 138.553 180.132 138.632C179.953 138.7 179.796 138.79 179.763 138.835C179.461 139.23 177.282 139.896 175.964 140.009C174.467 140.133 172.411 139.727 171.897 139.208C171.696 139.016 171.45 138.993 171.528 139.197C171.551 139.264 171.953 140.619 172.4 142.176C172.914 143.936 173.282 145.031 173.372 145.031C173.439 145.031 173.506 145.11 173.506 145.2C173.506 145.291 173.461 145.37 173.405 145.37C173.349 145.37 173.227 145.404 173.137 145.437C173.037 145.471 172.925 145.415 172.858 145.291ZM177.081 139.388C179.796 138.734 181.551 137.143 182.165 134.795C182.422 133.836 182.4 131.895 182.12 130.586C181.986 129.999 181.841 129.48 181.774 129.412C181.707 129.344 180.221 129.683 177.674 130.349C175.484 130.913 173.662 131.398 173.651 131.421C173.562 131.5 174.098 132.809 174.355 133.148C174.735 133.655 175.182 133.926 176.087 134.197C177.417 134.603 177.785 135.303 177.26 136.387C176.735 137.47 175.662 138.17 174.176 138.407C173.551 138.497 173.227 138.486 172.467 138.339C171.942 138.237 171.428 138.113 171.305 138.079C170.903 137.944 171.774 138.598 172.478 138.948C173.841 139.648 175.383 139.795 177.081 139.388ZM84.8796 145.404C84.6338 145.348 84.6115 145.032 84.8461 145.032C84.9467 145.032 85.0919 144.738 85.2483 144.219C86.1869 141.037 86.7791 138.881 86.7344 138.836C86.712 138.813 86.6897 138.847 86.6897 138.915C86.6897 138.994 86.6338 139.05 86.5668 139.05C86.4998 139.05 86.3768 139.118 86.2875 139.208C85.7735 139.727 83.7176 140.134 82.2204 140.01C80.9019 139.897 78.7232 139.231 78.4215 138.836C78.388 138.791 78.2315 138.701 78.0639 138.633C77.8852 138.554 77.7511 138.418 77.7511 138.317C77.7511 138.227 77.6617 138.148 77.55 138.148C77.293 138.148 76.8572 137.696 76.8572 137.437C76.8572 137.335 76.779 137.245 76.6896 137.245C76.6002 137.245 76.522 137.166 76.522 137.075C76.522 136.985 76.4773 136.906 76.4215 136.906C76.2427 136.906 75.7622 135.71 75.5835 134.83C75.2818 133.374 75.4159 130.801 75.874 129.39C75.9969 129.018 76.0751 128.95 76.3544 128.916C76.5444 128.905 78.9019 129.469 81.6059 130.169C84.3098 130.88 86.5333 131.444 86.5444 131.444C86.5556 131.433 86.2651 130.417 85.8964 129.176C85.5388 127.934 85.2372 126.783 85.2372 126.614C85.2372 126.456 85.1925 126.298 85.1366 126.275C85.0919 126.264 84.5668 124.594 83.9746 122.574C83.3824 120.554 82.4774 117.461 81.9634 115.69C80.2986 110.036 80.2539 109.821 80.5779 109.821C80.6785 109.821 81.2371 111.559 82.2092 114.933C86.053 128.096 87.0656 131.576 87.558 133.268L87.74 133.893L88.2204 135.552L87.2931 138.802L87.2825 138.839L87.2825 138.839L87.2825 138.839L87.2824 138.839L87.2824 138.839L87.2824 138.839C85.4159 145.348 85.3933 145.427 85.226 145.438C85.1366 145.449 84.9802 145.438 84.8796 145.404ZM84.2539 139.49C84.9578 139.344 86.2763 138.712 86.7456 138.306C86.9579 138.125 87.0025 138.035 86.8796 138.08C86.7567 138.114 86.2428 138.238 85.7176 138.339C84.9578 138.486 84.6338 138.497 84.0081 138.407C82.5221 138.17 81.4494 137.47 80.9243 136.387C80.3992 135.304 80.7679 134.604 82.0975 134.198C83.0025 133.927 83.4495 133.656 83.8293 133.148C84.0863 132.81 84.6226 131.5 84.5333 131.421C84.5221 131.399 82.7008 130.914 80.5109 130.349C77.9634 129.683 76.4773 129.345 76.4103 129.413C76.1645 129.661 75.8405 131.658 75.8405 132.889C75.8405 134.965 76.3097 136.24 77.5276 137.482C79.0807 139.073 82.0304 139.953 84.2539 139.49ZM71.7175 138.463C73.2818 141.837 77.2371 144.286 82.645 145.201C83.9522 145.426 84.2316 145.415 84.2316 145.144C84.2316 144.964 84.1534 144.918 83.8852 144.918C83.2707 144.918 80.8684 144.377 79.6058 143.959C78.1868 143.474 76.8125 142.853 75.9298 142.289C75.5723 142.052 75.2483 141.871 75.1924 141.871C75.1365 141.871 75.0695 141.792 75.0248 141.702C74.9913 141.612 74.9131 141.533 74.8349 141.533C74.7678 141.533 74.6114 141.409 74.4885 141.251C74.3321 141.048 74.1645 140.969 73.8851 140.969C73.5276 140.969 73.5052 140.946 73.5052 140.574C73.5052 140.303 73.4382 140.133 73.2818 140.043C73.1589 139.964 73.0583 139.829 73.0583 139.75C73.0583 139.671 72.9801 139.58 72.8907 139.547C72.8013 139.501 72.7231 139.411 72.7231 139.332C72.7231 139.253 72.6896 139.163 72.6337 139.14C72.4661 139.073 71.7175 137.267 71.4941 136.398C71.3488 135.845 71.2259 134.953 71.1924 134.118C71.1477 133.08 71.0918 132.73 70.9801 132.73C70.7343 132.73 70.6672 133.498 70.8013 134.874C70.9466 136.33 71.2147 137.38 71.7175 138.463ZM173.953 145.155C173.953 144.964 174.02 144.918 174.299 144.918C174.914 144.918 177.316 144.377 178.579 143.959C179.998 143.474 181.372 142.853 182.255 142.289C182.612 142.052 182.936 141.871 182.992 141.871C183.048 141.871 183.115 141.792 183.16 141.702C183.193 141.612 183.271 141.533 183.35 141.533C183.417 141.533 183.573 141.409 183.696 141.251C183.852 141.048 184.02 140.969 184.299 140.969C184.657 140.969 184.679 140.946 184.679 140.574C184.679 140.303 184.746 140.133 184.903 140.043C185.026 139.964 185.126 139.829 185.126 139.75C185.126 139.671 185.204 139.58 185.294 139.547C185.383 139.501 185.461 139.411 185.461 139.332C185.461 139.253 185.495 139.163 185.551 139.14C185.718 139.073 186.467 137.267 186.69 136.398C186.836 135.845 186.959 134.953 186.992 134.118C187.037 133.08 187.093 132.73 187.204 132.73C187.45 132.73 187.517 133.498 187.383 134.874C187.238 136.33 186.97 137.38 186.467 138.463C185.506 140.528 183.651 142.289 181.16 143.463C179.361 144.309 176.59 145.11 174.657 145.325C173.986 145.392 173.953 145.381 173.953 145.155ZM71.4047 129.028C71.1365 130.078 70.8236 131.827 70.8236 132.233C70.8236 132.414 70.8907 132.504 71.0248 132.504C71.1924 132.504 71.2482 132.335 71.36 131.511C71.427 130.958 71.617 130.021 71.7734 129.423C71.9298 128.814 72.0527 128.182 72.0527 128.001C72.0527 127.685 72.0304 127.674 70.8013 127.369C70.1086 127.2 69.3488 126.974 69.1141 126.884C68.5443 126.67 68.0527 126.15 67.8851 125.609C67.7957 125.304 67.684 125.169 67.5387 125.169C67.3599 125.169 67.3376 125.225 67.3935 125.575C67.4828 126.117 67.9186 126.771 68.3879 127.065C68.589 127.189 69.3823 127.46 70.1533 127.663C70.9242 127.866 71.5723 128.046 71.5946 128.058C71.617 128.08 71.5276 128.509 71.4047 129.028ZM186.824 131.511C186.757 130.958 186.567 130.021 186.411 129.423C186.255 128.814 186.132 128.182 186.132 128.001C186.132 127.685 186.154 127.674 187.394 127.369C188.076 127.2 188.836 126.974 189.07 126.884C189.64 126.67 190.132 126.15 190.299 125.609C190.389 125.304 190.5 125.169 190.646 125.169C190.824 125.169 190.847 125.225 190.791 125.564C190.702 126.117 190.311 126.715 189.83 127.031C189.607 127.177 188.802 127.46 188.031 127.663C187.26 127.866 186.612 128.046 186.59 128.058C186.567 128.08 186.657 128.509 186.78 129.028C187.048 130.078 187.361 131.827 187.361 132.233C187.361 132.414 187.294 132.504 187.16 132.504C186.992 132.504 186.936 132.335 186.824 131.511ZM67.6058 123.555C67.4717 124.165 67.3599 124.695 67.3599 124.751C67.3599 124.797 67.4493 124.83 67.5611 124.83C67.7287 124.83 67.8069 124.627 68.008 123.792C68.1421 123.217 68.2538 122.596 68.2538 122.404V122.066L58.4996 119.549C53.1476 118.161 48.6447 116.953 48.4995 116.863C48.3542 116.761 48.209 116.615 48.1755 116.536C48.1419 116.445 49.3151 111.457 50.7677 105.453C52.7788 97.1474 53.4716 94.4728 53.6392 94.2809C53.7733 94.1342 54.0302 94.0213 54.2649 93.9988C54.6559 93.9649 54.6783 93.9311 54.9465 93.2314C55.1029 92.8251 55.2928 92.4301 55.371 92.3511C55.4493 92.2721 55.5163 92.1367 55.5163 92.0464C55.5163 91.9674 55.5945 91.8771 55.6839 91.832C55.7733 91.7981 55.8515 91.7304 55.8515 91.674C55.8515 91.5611 57.1923 90.1843 57.304 90.1843C57.3375 90.1843 57.4716 90.094 57.5945 89.9812C58.1755 89.4395 60.075 88.8301 61.1588 88.8301C62.2426 88.8301 64.142 89.4395 64.7231 89.9812C64.846 90.094 64.98 90.1843 65.0136 90.1843C65.1253 90.1843 66.4661 91.5611 66.4661 91.674C66.4661 91.7304 66.5331 91.7981 66.6225 91.832C66.7119 91.8658 66.8125 92.0125 66.846 92.1592C66.8795 92.306 66.9801 92.4978 67.0583 92.5768C67.1365 92.6558 67.3488 93.1524 67.5275 93.6828C67.8404 94.5743 67.8627 94.7549 67.8516 96.1204L67.8404 97.6101L70.5332 98.3098C72.0192 98.7048 73.4382 99.0433 73.7064 99.0772C74.1533 99.1223 74.1756 99.1111 74.1756 98.8289C74.1756 98.5806 74.2203 98.5355 74.4997 98.5355C74.6784 98.5355 74.846 98.4904 74.8684 98.4226C74.8907 98.3662 75.1254 98.2872 75.4047 98.2421C75.8293 98.1856 77.3712 98.5581 85.1254 100.556C85.7723 100.724 86.4044 100.889 87.015 101.048C91.1818 102.135 94.3462 102.961 94.3657 102.971C94.3769 102.993 91.8182 103.625 88.6674 104.393C83.2483 105.713 81.8852 106.108 81.8852 106.334C81.8852 106.39 81.8293 106.435 81.7511 106.435C81.5723 106.435 81.1031 106.898 81.1031 107.079C81.1031 107.158 81.0584 107.225 80.9913 107.225C80.9355 107.225 80.8796 107.383 80.8796 107.564C80.8796 107.778 80.8237 107.902 80.7232 107.902C80.5444 107.902 80.4327 108.241 80.4327 108.783C80.4327 109.381 80.712 109.211 80.9131 108.478C81.1366 107.665 81.8517 106.819 82.6226 106.458C83.0584 106.266 91.3936 104.144 95.4384 103.208C95.8629 103.106 96.187 103.005 96.1534 102.982C96.0417 102.858 75.9857 97.7455 75.6393 97.7455C75.1589 97.7455 74.4214 98.0728 74.1309 98.4114C74.008 98.5355 73.8628 98.6483 73.7957 98.6483C73.7287 98.6483 72.455 98.3324 70.9577 97.9487L68.2426 97.2602L68.3208 96.3348C68.5555 93.4571 66.8795 90.4551 64.3432 89.2025C63.3599 88.7172 62.0526 88.3786 61.1588 88.3786C59.6169 88.3786 57.6057 89.1686 56.4325 90.252C55.7062 90.9178 54.9129 92.0351 54.533 92.9492C54.3319 93.4571 54.2537 93.5248 53.8626 93.6038C53.6168 93.6489 53.3375 93.7843 53.2369 93.8859C53.0693 94.089 47.695 115.971 47.695 116.502C47.695 116.931 47.9967 117.247 48.5665 117.416C48.857 117.506 53.2928 118.657 58.4213 119.978C58.925 120.109 59.42 120.237 59.9031 120.362C64.3389 121.514 67.7756 122.406 67.7957 122.427C67.8181 122.449 67.7398 122.957 67.6058 123.555Z" fill="#5C92BE"/>
<path fill-rule="evenodd" clip-rule="evenodd" d="M68.9801 97.9374C68.4884 97.8133 68.075 97.6666 68.0527 97.6101C68.0303 97.565 67.9074 97.5199 67.7845 97.5199C67.6616 97.5199 66.6672 97.2829 65.561 96.9894L63.561 96.4703V96.1205C63.561 95.6803 63.2035 95.0709 62.8459 94.9016C62.6113 94.8001 62.4772 94.8339 61.9521 95.1386C61.6057 95.3305 61.17 95.4885 60.98 95.4885C60.7901 95.4885 60.0191 95.3305 59.2593 95.1386L57.8962 94.7775L57.5386 94.1794C57.1364 93.491 56.7118 93.1186 56.3431 93.1186C56.0526 93.1186 55.4492 93.5925 55.3487 93.9085C55.2928 94.0778 55.1811 94.1342 54.8682 94.1342C54.2984 94.1342 53.952 94.0214 53.952 93.8521C53.952 93.7731 54.0414 93.6828 54.1531 93.6603C54.2761 93.6264 54.4548 93.3443 54.6001 92.9606C55.3599 90.963 57.3487 89.2138 59.4828 88.6608C60.332 88.4464 61.9856 88.4464 62.8348 88.6608C64.0974 88.9881 65.1029 89.5749 66.0862 90.5681C67.0471 91.5499 67.4046 92.1029 67.8851 93.3894C68.1532 94.1117 68.1868 94.3374 68.1868 95.7368L68.1979 97.2829L69.4047 97.5876C70.2091 97.7907 70.6002 97.9374 70.6002 98.039C70.6002 98.2534 70.0639 98.2308 68.9801 97.9374ZM51.4939 100.792C51.4939 100.724 51.7285 99.7314 52.0079 98.5915C52.3654 97.147 52.5777 96.5037 52.6783 96.5037C52.9241 96.5037 52.8794 96.8762 52.3654 98.964C51.9744 100.566 51.8626 100.905 51.695 100.905C51.5833 100.905 51.4939 100.849 51.4939 100.792ZM86.388 100.928C85.0808 100.589 84.7902 100.477 84.7902 100.319C84.7902 100.206 84.8461 100.115 84.902 100.115C84.969 100.115 85.8517 100.33 86.8573 100.578C88.1199 100.905 88.7009 101.097 88.7009 101.199C88.7009 101.447 88.1422 101.379 86.388 100.928ZM175.025 106.108C175.819 106.357 176.634 107.022 176.981 107.7C177.115 107.97 177.26 108.128 177.35 108.095C177.528 108.027 184.981 106.097 185.07 106.097C185.338 106.097 184.344 101.797 183.975 101.391C183.54 100.894 182.947 100.996 176.322 102.711C172.958 103.58 170.12 104.325 170.02 104.359C169.908 104.393 169.819 104.506 169.819 104.607C169.819 104.777 170.232 104.901 172.087 105.352C173.327 105.657 174.646 105.995 175.025 106.108ZM80.0975 107.891C79.7829 107.803 78.6485 107.508 77.3407 107.167L76.2203 106.875L73.0583 106.063V105.736C73.0583 105.115 73.9745 101.65 74.2091 101.391C74.6561 100.894 75.2259 100.996 82.0863 102.779L88.4215 104.426L89.6506 104.133C91.0473 103.794 91.3825 103.772 91.3825 103.998C91.3825 104.11 90.3992 104.393 87.8405 105.025C86.6812 105.306 85.5377 105.587 84.7195 105.788L84.7189 105.788L84.7109 105.79L84.7061 105.791L84.7043 105.791L84.7033 105.792L84.6992 105.793L84.6974 105.793L84.6964 105.793L84.6923 105.794C84.1445 105.929 83.7468 106.027 83.5947 106.063C82.6003 106.311 81.7958 106.83 81.3489 107.507C81.1366 107.823 80.9355 108.083 80.9019 108.083C80.8572 108.094 80.4997 108.004 80.0975 107.891ZM49.3263 109.652C49.047 110.791 48.8123 111.784 48.8123 111.852C48.8123 111.909 48.9017 111.965 49.0135 111.965C49.1811 111.965 49.2928 111.626 49.6839 110.024C50.1978 107.936 50.2425 107.564 49.9967 107.564C49.8961 107.564 49.6839 108.207 49.3263 109.652ZM174.992 118.116C174.612 119.425 174.288 120.553 174.288 120.632C174.288 120.7 174.389 120.768 174.512 120.768C174.69 120.768 174.735 120.689 174.735 120.373C174.735 120.158 174.791 119.978 174.847 119.978C174.914 119.978 174.958 119.899 174.958 119.808C174.958 119.662 175.037 119.65 175.383 119.718C175.606 119.763 176.221 119.797 176.746 119.797C177.696 119.786 178.053 119.696 187.394 117.258C187.752 117.168 187.808 117.1 187.808 116.829C187.808 116.581 186.322 110.182 186.065 109.347C186.02 109.2 185.886 109.144 185.618 109.144C185.394 109.144 183.472 109.595 181.327 110.148C179.182 110.701 177.338 111.13 177.227 111.107C177.048 111.062 176.947 111.344 176.366 113.398C175.998 114.685 175.383 116.818 174.992 118.116ZM76.651 126.597L76.6496 126.597L75.0136 126.174C70.7566 125.068 69.2482 124.639 69.0695 124.47C68.6337 124.063 68.7007 123.239 69.3823 120.633C69.4829 120.249 69.5276 120.204 69.8516 120.204C70.2426 120.204 79.9634 122.686 80.7455 122.991C81.9522 123.454 82.8573 124.808 82.969 126.32C83.0025 126.794 83.0025 127.359 82.9578 127.584C82.8796 127.979 82.8684 127.991 82.4103 127.979C82.1533 127.979 81.6617 127.9 81.3265 127.81C81.0528 127.736 79.1096 127.234 76.6962 126.609L76.6796 126.605L76.6729 126.603L76.651 126.597ZM83.8182 131.173C81.5723 130.586 80.5444 130.282 80.5444 130.169C80.5444 130.09 80.6673 130.022 80.8237 130.022C81.226 130.022 84.388 130.835 84.4327 130.947C84.455 130.993 84.6115 131.038 84.7679 131.038C84.9355 131.038 85.3489 131.117 85.6841 131.207C86.0193 131.297 86.3321 131.376 86.3768 131.376C86.4886 131.376 86.3433 130.316 86.2204 130.27C86.1757 130.248 86.131 130.056 86.131 129.853C86.131 129.65 86.0752 129.458 86.0081 129.435C85.9411 129.413 85.8629 129.153 85.8293 128.86C85.7958 128.566 85.7176 128.329 85.6729 128.329C85.6171 128.329 85.5724 128.149 85.5724 127.934C85.5724 127.72 85.5277 127.539 85.4606 127.539C85.4048 127.539 85.3489 127.359 85.3489 127.144C85.3489 126.93 85.3042 126.749 85.2372 126.749C85.1813 126.749 85.1254 126.569 85.1254 126.354C85.1254 126.106 85.1813 125.959 85.2707 125.959C85.3601 125.959 85.7288 127.088 86.2763 128.961C86.7567 130.62 87.1366 131.986 87.1143 131.997C87.0919 132.008 85.6059 131.636 83.8182 131.173ZM79.2707 144.298C80.388 144.67 82.5891 145.178 83.5612 145.291C83.7735 145.313 84.2651 145.347 84.645 145.347C85.3266 145.37 85.3377 145.37 85.4495 145.009C85.5389 144.727 87.1925 138.982 87.5389 137.752C87.5947 137.594 87.4718 137.662 87.1255 138.001C85.9076 139.163 84.6673 139.637 82.8908 139.637C81.9522 139.637 81.5165 139.58 80.712 139.332C77.941 138.508 76.4103 136.951 75.8963 134.412C75.684 133.328 75.7287 131.963 76.0192 130.53C76.0389 130.435 76.0566 130.346 76.0731 130.265C76.1703 129.781 76.2223 129.521 76.3785 129.415C76.5587 129.293 76.8777 129.376 77.5649 129.555L77.5664 129.556C77.6649 129.581 77.7709 129.609 77.8852 129.638C79.617 130.078 79.6505 130.078 79.6505 129.819C79.6505 129.649 79.0695 129.48 75.8852 128.69C72.2315 127.799 71.3823 127.641 71.3823 127.878C71.3823 127.945 71.4605 127.99 71.5611 127.99C71.6728 127.99 71.7064 128.058 71.6728 128.194C70.8125 130.958 70.589 134.581 71.1477 136.737C72.0862 140.337 74.7008 142.763 79.2707 144.298ZM172.023 142.393L172.243 143.158L172.891 145.392L173.919 145.336C176.02 145.189 179.003 144.411 181.037 143.463C184.266 141.962 186.255 139.727 187.037 136.737C187.595 134.581 187.372 130.958 186.512 128.194C186.478 128.058 186.512 127.99 186.623 127.99C186.724 127.99 186.802 127.945 186.802 127.878C186.802 127.641 185.953 127.799 182.31 128.69C179.115 129.48 178.534 129.649 178.534 129.819C178.534 130.078 178.567 130.078 180.299 129.638C180.413 129.609 180.52 129.581 180.618 129.556L180.62 129.555C181.307 129.376 181.626 129.293 181.806 129.415C181.962 129.521 182.014 129.781 182.111 130.265L182.113 130.275C182.123 130.325 182.134 130.378 182.145 130.433L182.165 130.53C182.713 133.204 182.4 135.315 181.182 136.985C180.042 138.554 177.651 139.637 175.294 139.637C173.517 139.637 172.255 139.152 171.081 138.001L170.612 137.549L171.104 139.231C171.329 139.978 171.7 141.269 172.023 142.393ZM172.467 127.313C172.377 127.313 172.076 128.194 171.64 129.695C171.271 130.992 171.014 132.042 171.093 132.019C171.16 131.997 172.657 131.602 174.433 131.15C176.623 130.586 177.64 130.281 177.64 130.169C177.64 130.09 177.517 130.022 177.361 130.022C176.958 130.022 173.796 130.834 173.752 130.947C173.729 130.992 173.573 131.038 173.417 131.038C173.249 131.038 172.836 131.117 172.5 131.207L172.486 131.211C171.988 131.346 171.769 131.405 171.702 131.329C171.65 131.27 171.692 131.126 171.767 130.869L171.774 130.846C171.863 130.541 171.942 130.169 171.942 129.999C171.942 129.819 171.998 129.683 172.053 129.683C172.12 129.683 172.165 129.503 172.165 129.288C172.165 129.074 172.21 128.893 172.266 128.893C172.377 128.893 172.612 128.024 172.612 127.607C172.612 127.437 172.545 127.313 172.467 127.313ZM175.215 126.32C175.182 126.794 175.182 127.359 175.227 127.596L175.305 128.024L175.942 127.957C176.288 127.923 179.35 127.178 182.724 126.298C187.327 125.102 188.936 124.639 189.126 124.47C189.551 124.063 189.484 123.239 188.802 120.633C188.702 120.249 188.657 120.204 188.333 120.204C187.942 120.204 178.221 122.686 177.439 122.991C176.232 123.454 175.327 124.808 175.215 126.32ZM70.1533 127.64C68.8125 127.268 68.5555 127.155 68.1979 126.839C67.5275 126.252 67.2482 125.508 67.6951 125.508C67.8404 125.508 67.9186 125.587 67.9186 125.733C67.9186 125.857 67.9745 125.959 68.0303 125.959C68.0974 125.959 68.1421 126.117 68.1421 126.297C68.1421 126.602 68.1756 126.636 68.4773 126.636C68.7007 126.636 68.8125 126.692 68.8125 126.805C68.8125 126.907 68.913 126.975 69.0695 126.975C69.2035 126.975 69.684 127.054 70.1309 127.166C70.7678 127.313 70.9354 127.392 70.9354 127.561C70.9354 127.787 70.7566 127.798 70.1533 127.64ZM188.065 127.166C187.417 127.313 187.249 127.392 187.249 127.561C187.249 127.674 187.305 127.765 187.372 127.765C187.584 127.765 189.294 127.302 189.54 127.178C190.355 126.749 191.07 125.508 190.489 125.508C190.344 125.508 190.266 125.587 190.266 125.733C190.266 125.857 190.221 125.959 190.154 125.959C190.098 125.959 190.042 126.117 190.042 126.297C190.042 126.602 190.009 126.636 189.707 126.636C189.484 126.636 189.372 126.692 189.372 126.805C189.372 126.907 189.271 126.975 189.126 126.975C188.981 126.975 188.5 127.054 188.065 127.166ZM172.724 126.072C172.724 126.004 172.802 125.654 172.914 125.282C173.115 124.515 173.394 124.357 173.394 125C173.394 125.214 173.35 125.395 173.282 125.395C173.227 125.395 173.171 125.575 173.171 125.79C173.171 126.106 173.126 126.185 172.947 126.185C172.824 126.185 172.724 126.128 172.724 126.072ZM85.1701 125.09C85.0584 124.673 84.7902 124.774 84.7902 125.226C84.7902 125.542 84.8349 125.621 85.0137 125.621C85.2483 125.621 85.2819 125.508 85.1701 125.09ZM67.36 124.819C67.36 124.752 67.4829 124.187 67.6393 123.567C67.7957 122.946 67.9186 122.427 67.8963 122.404C67.8739 122.393 67.2929 122.235 66.6113 122.066C65.7622 121.863 65.3488 121.705 65.3488 121.603C65.3488 121.377 65.6951 121.4 66.8907 121.693C67.7175 121.896 67.9186 121.975 67.9186 122.145C67.9186 122.258 67.9968 122.348 68.0862 122.348C68.3209 122.348 68.2985 122.675 68.008 123.905C67.8069 124.74 67.7287 124.944 67.5611 124.944C67.4493 124.944 67.36 124.887 67.36 124.819ZM190.098 122.348C189.864 122.348 189.886 122.675 190.176 123.905C190.378 124.74 190.456 124.944 190.623 124.944C190.88 124.944 190.88 124.921 190.545 123.567C190.389 122.946 190.266 122.427 190.288 122.404C190.311 122.393 190.892 122.235 191.584 122.066C192.422 121.863 192.836 121.705 192.836 121.603C192.836 121.377 192.489 121.4 191.305 121.693C190.467 121.896 190.266 121.975 190.266 122.145C190.266 122.258 190.188 122.348 190.098 122.348ZM84.2316 123.307C84.2316 122.856 84.4997 122.754 84.6114 123.172C84.7232 123.589 84.6897 123.702 84.455 123.702C84.2762 123.702 84.2316 123.623 84.2316 123.307ZM173.696 122.573C173.584 122.946 173.506 123.296 173.506 123.363C173.506 123.42 173.607 123.476 173.729 123.476C173.908 123.476 173.953 123.397 173.953 123.081C173.953 122.867 174.009 122.686 174.065 122.686C174.132 122.686 174.176 122.506 174.176 122.291C174.176 121.648 173.897 121.806 173.696 122.573ZM83.6729 121.388C83.6729 120.937 83.9411 120.835 84.0528 121.253C84.1645 121.671 84.131 121.783 83.8964 121.783C83.7176 121.783 83.6729 121.704 83.6729 121.388ZM60.9912 120.475C60.9912 120.576 61.5498 120.768 62.7566 121.084C64.8124 121.614 64.9018 121.626 64.9018 121.355C64.9018 121.186 64.6001 121.084 63.2035 120.734C61.3487 120.271 60.9912 120.238 60.9912 120.475ZM193.283 121.355C193.283 121.186 193.584 121.084 194.992 120.734C196.836 120.271 197.193 120.238 197.193 120.475C197.193 120.576 196.612 120.768 195.35 121.095C194.344 121.344 193.461 121.558 193.394 121.558C193.338 121.558 193.283 121.468 193.283 121.355ZM83.3377 120.305C83.3377 119.775 83.1254 119.639 82.5444 119.775C81.5053 120.012 80.6785 119.842 70.8013 117.258C70.4326 117.168 70.3767 117.1 70.3767 116.829C70.3767 116.581 71.8628 110.182 72.1198 109.347C72.1645 109.2 72.2985 109.144 72.5667 109.144C72.779 109.144 74.6449 109.584 76.712 110.114L77.172 110.233L77.1721 110.233C80.232 111.022 80.6689 111.134 80.6732 111.12C80.674 111.117 80.6627 111.111 80.6495 111.105L80.6338 111.096C80.4774 111.006 80.5332 110.272 80.6897 110.272C80.7902 110.272 80.9355 110.622 81.0919 111.209C81.3265 112.044 83.1813 118.409 83.6059 119.808C83.8405 120.542 83.8293 120.655 83.5612 120.655C83.3824 120.655 83.3377 120.576 83.3377 120.305ZM56.6336 119.346C56.6336 119.447 57.1252 119.628 58.1755 119.899C59.9856 120.373 60.0973 120.384 60.0973 120.113C60.0973 119.944 59.8292 119.842 58.6224 119.549C56.9911 119.143 56.6336 119.109 56.6336 119.346ZM198.087 120.113C198.087 119.944 198.355 119.842 199.573 119.549C201.193 119.143 201.551 119.109 201.551 119.346C201.551 119.447 201.037 119.628 199.931 119.91C199.048 120.136 198.266 120.316 198.199 120.316C198.143 120.316 198.087 120.226 198.087 120.113ZM51.8291 118.104C51.8291 118.206 52.3878 118.398 53.5945 118.714C55.6504 119.244 55.7398 119.255 55.7398 118.985C55.7398 118.815 55.4381 118.714 54.0414 118.364C52.1867 117.901 51.8291 117.867 51.8291 118.104ZM202.445 118.985C202.445 118.815 202.746 118.714 204.154 118.364C205.998 117.901 206.355 117.867 206.355 118.104C206.355 118.206 205.774 118.398 204.512 118.725C203.506 118.973 202.623 119.188 202.556 119.188C202.501 119.188 202.445 119.097 202.445 118.985ZM48.3654 117.201C48.3654 117.303 48.7341 117.45 49.4604 117.642C50.8012 117.991 50.9353 118.003 50.9353 117.743C50.9353 117.574 50.7341 117.495 49.9073 117.292C48.7118 116.998 48.3654 116.976 48.3654 117.201ZM207.249 117.743C207.249 117.574 207.45 117.495 208.288 117.292C209.473 116.998 209.819 116.976 209.819 117.201C209.819 117.303 209.428 117.45 208.646 117.653C207.26 118.003 207.249 118.003 207.249 117.743ZM48.0861 114.798C47.7397 116.174 47.6838 116.547 47.7844 116.773C47.9632 117.145 48.1419 117.111 48.1419 116.694C48.1419 116.513 48.2984 115.746 48.4771 115.012C48.8458 113.522 48.8905 113.093 48.6559 113.093C48.5553 113.093 48.3766 113.624 48.0861 114.798ZM210.043 116.694C210.043 116.513 209.897 115.746 209.707 115.012C209.339 113.522 209.294 113.093 209.529 113.093C209.629 113.093 209.808 113.624 210.098 114.798C210.445 116.174 210.501 116.547 210.4 116.773C210.221 117.145 210.043 117.111 210.043 116.694ZM208.501 110.024C207.987 107.936 207.942 107.564 208.188 107.564C208.288 107.564 208.501 108.207 208.858 109.652C209.137 110.791 209.372 111.784 209.372 111.852C209.372 111.909 209.283 111.965 209.171 111.965C209.003 111.965 208.892 111.626 208.501 110.024ZM177.595 109.37C177.45 109.37 177.305 109.686 177.305 110.024C177.305 110.092 177.405 110.16 177.528 110.16C177.707 110.16 177.752 110.081 177.752 109.765C177.752 109.505 177.696 109.37 177.595 109.37ZM50.1531 106.322C50.1531 106.255 50.3877 105.262 50.6671 104.122C51.0246 102.677 51.2369 102.034 51.3375 102.034C51.5833 102.034 51.5386 102.406 51.0246 104.494C50.6336 106.097 50.5218 106.435 50.3542 106.435C50.2425 106.435 50.1531 106.379 50.1531 106.322ZM206.847 102.034C206.601 102.034 206.646 102.406 207.16 104.494C207.551 106.097 207.663 106.435 207.83 106.435C207.942 106.435 208.031 106.379 208.031 106.322C208.031 106.255 207.797 105.262 207.517 104.122C207.16 102.677 206.948 102.034 206.847 102.034ZM168.232 104.438C167.506 104.246 167.137 104.099 167.137 103.998C167.137 103.772 167.484 103.795 168.679 104.088C169.506 104.291 169.707 104.37 169.707 104.54C169.707 104.799 169.573 104.788 168.232 104.438ZM93.1925 103.264C92.2651 103.49 92.0528 103.58 92.0528 103.749C92.0528 103.862 92.1199 103.952 92.1981 103.952C92.2651 103.952 93.1925 103.727 94.2316 103.467L96.1311 102.982L95.159 102.734C94.6227 102.598 94.1311 102.485 94.064 102.485C93.8741 102.485 93.9411 102.914 94.1422 102.959C94.254 102.982 93.8294 103.117 93.1925 103.264ZM164.992 103.648C164.266 103.456 163.897 103.309 163.897 103.208C163.897 102.982 164.243 103.005 165.439 103.298C166.266 103.501 166.467 103.58 166.467 103.75C166.467 104.009 166.333 103.998 164.992 103.648ZM163.294 102.655C162.299 102.914 162.221 102.948 162.556 103.05C162.958 103.174 163.037 103.174 163.662 103.027C164.087 102.925 164.232 102.846 164.232 102.688C164.232 102.44 164.165 102.44 163.294 102.655ZM90.969 102.113C89.8517 101.831 89.5947 101.718 89.5947 101.56C89.5947 101.447 89.6506 101.357 89.7065 101.357C89.7735 101.357 90.5556 101.537 91.4383 101.763C92.5445 102.045 93.0584 102.226 93.0584 102.327C93.0584 102.564 92.511 102.508 90.969 102.113ZM166.746 101.763C165.64 102.045 165.126 102.226 165.126 102.327C165.126 102.564 165.484 102.53 167.115 102.124C168.322 101.831 168.59 101.729 168.59 101.56C168.59 101.447 168.534 101.357 168.478 101.357C168.411 101.357 167.629 101.537 166.746 101.763ZM171.327 100.578C170.065 100.905 169.484 101.097 169.484 101.199C169.484 101.436 169.841 101.402 171.696 100.939C173.092 100.589 173.394 100.488 173.394 100.319C173.394 100.206 173.338 100.115 173.282 100.115C173.215 100.115 172.333 100.33 171.327 100.578ZM205.506 96.5037C205.26 96.5037 205.305 96.8762 205.819 98.964C206.21 100.566 206.322 100.905 206.489 100.905C206.601 100.905 206.691 100.849 206.691 100.792C206.691 100.724 206.456 99.7314 206.177 98.5915C205.819 97.147 205.607 96.5037 205.506 96.5037ZM82.0304 99.7999C80.7232 99.4613 80.4327 99.3484 80.4327 99.1904C80.4327 99.0776 80.4885 98.9873 80.5444 98.9873C80.6114 98.9873 81.4941 99.2017 82.4997 99.45C83.7623 99.7773 84.3433 99.9691 84.3433 100.071C84.3433 100.319 83.7846 100.251 82.0304 99.7999ZM175.685 99.45C174.422 99.7773 173.841 99.9691 173.841 100.071C173.841 100.308 174.199 100.274 176.053 99.8111C177.45 99.4613 177.752 99.3597 177.752 99.1904C177.752 99.0776 177.696 98.9873 177.64 98.9873C177.573 98.9873 176.69 99.2017 175.685 99.45ZM72.4214 98.8401C71.684 98.6595 71.494 98.558 71.494 98.4C71.494 98.1404 71.5611 98.1404 72.779 98.4677L73.7957 98.7272L74.2203 98.3548C74.4661 98.1404 74.8684 97.9373 75.1924 97.8583C75.7064 97.7341 75.8851 97.7567 77.6393 98.1968C78.9578 98.5241 79.5388 98.7272 79.5388 98.8288C79.5388 99.0658 79.1142 99.0207 77.4159 98.5918C75.8516 98.1968 75.0695 98.0953 75.0695 98.3097C75.0695 98.3774 74.9913 98.4225 74.9019 98.4225C74.8125 98.4225 74.7343 98.479 74.7343 98.5354C74.7343 98.6031 74.589 98.6482 74.3991 98.6482C74.1421 98.6482 74.0639 98.6934 74.0639 98.8739C74.0639 99.1674 73.6617 99.1561 72.4214 98.8401ZM183.785 98.6482C184.042 98.6482 184.121 98.6934 184.121 98.8739C184.121 99.1674 184.355 99.1674 185.662 98.8514C186.489 98.6482 186.69 98.5692 186.69 98.4C186.69 98.1404 186.623 98.1404 185.405 98.4677L184.389 98.7272L183.964 98.3548C183.718 98.1404 183.316 97.9373 182.992 97.8583C182.478 97.7341 182.299 97.7567 180.545 98.1968C179.227 98.5241 178.646 98.7272 178.646 98.8288C178.646 99.0658 179.07 99.0207 180.769 98.5918C182.333 98.1968 183.115 98.0953 183.115 98.3097C183.115 98.3774 183.193 98.4225 183.283 98.4225C183.372 98.4225 183.45 98.479 183.45 98.5354C183.45 98.6031 183.607 98.6482 183.785 98.6482ZM188.791 97.5876C187.975 97.7907 187.584 97.9374 187.584 98.039C187.584 98.1293 187.696 98.197 187.864 98.197C188.266 98.197 190.087 97.723 190.132 97.6101C190.154 97.565 190.277 97.5199 190.4 97.5199C190.523 97.5199 191.517 97.2829 192.623 96.9894L194.623 96.4703V96.1205C194.623 95.6803 194.981 95.0709 195.338 94.9016C195.573 94.8001 195.707 94.8339 196.232 95.1386C196.579 95.3305 197.014 95.4885 197.204 95.4885C197.394 95.4885 198.165 95.3305 198.925 95.1386L200.288 94.7775L200.646 94.1794C201.048 93.491 201.473 93.1186 201.841 93.1186C202.132 93.1186 202.735 93.5925 202.836 93.9085C202.892 94.0778 203.003 94.1342 203.316 94.1342C203.886 94.1342 204.232 94.0214 204.232 93.8521C204.232 93.7731 204.143 93.6828 204.031 93.6603C203.908 93.6264 203.73 93.3443 203.584 92.9606C202.825 90.963 200.836 89.2138 198.702 88.6608C197.852 88.4464 196.199 88.4464 195.35 88.6608C194.232 88.943 193.115 89.5749 192.277 90.3762C191.316 91.279 190.791 92.069 190.344 93.2653C190.02 94.1342 189.998 94.2922 189.986 95.7368V97.2829L188.791 97.5876ZM52.8347 95.2519C52.8347 94.9021 53.114 94.1234 53.2928 93.9541C53.4939 93.7735 53.5051 93.7735 53.5051 94.0557C53.5051 94.6538 53.2481 95.3761 53.0358 95.3761C52.9241 95.3761 52.8347 95.3196 52.8347 95.2519ZM204.679 94.0557C204.679 94.225 204.735 94.5861 204.813 94.8682C204.914 95.2294 205.003 95.3761 205.149 95.3761C205.26 95.3761 205.35 95.3196 205.35 95.2519C205.35 94.9021 205.07 94.1234 204.892 93.9541C204.691 93.7735 204.679 93.7735 204.679 94.0557Z" fill="#68C1DF"/>
<path fill-rule="evenodd" clip-rule="evenodd" d="M171.382 130.68L171.382 130.68L171.381 130.683L171.381 130.684L171.38 130.687C171.215 131.262 171.095 131.678 171.081 131.747C171.003 132.018 171.081 132.007 173.059 131.477C174.009 131.228 177.461 130.337 180.713 129.513C188.378 127.549 189.417 127.267 189.819 126.974C190.277 126.646 190.568 126.195 190.735 125.574C190.858 125.112 190.836 124.931 190.556 123.746C190.378 123.035 190.255 122.426 190.277 122.403C190.299 122.381 194.746 121.218 200.143 119.83C207.64 117.889 210.02 117.234 210.188 117.054C210.344 116.907 210.422 116.693 210.411 116.456C210.389 115.767 205.126 94.3138 204.914 94.0204C204.724 93.7721 204.635 93.7382 203.964 93.7495C203.35 93.7495 203.216 93.7269 203.171 93.5577C202.992 92.9821 201.92 92.5081 201.372 92.7677C201.003 92.937 201.037 93.1175 201.439 93.1175C201.629 93.1175 201.975 93.174 202.21 93.253C202.568 93.3658 202.657 93.4561 202.769 93.8737C202.903 94.3251 202.892 94.3815 202.568 94.9571C202.333 95.3633 202.221 95.7245 202.221 96.0292C202.221 96.4016 202.612 98.3427 202.836 99.1101C202.869 99.2004 203.093 99.3922 203.327 99.5276C203.83 99.8098 204.344 100.385 204.344 100.645C204.344 100.882 203.629 101.582 203.394 101.582C203.283 101.582 202.948 101.435 202.646 101.243C202.355 101.062 201.998 100.904 201.853 100.904C201.718 100.904 200.959 101.062 200.165 101.266L198.713 101.638L198.277 102.349C197.73 103.218 197.339 103.466 196.88 103.229C196.087 102.812 195.953 102.326 196.4 101.525C196.836 100.746 196.847 100.261 196.434 98.5345L196.132 97.2367L195.528 96.8417C194.88 96.4016 194.623 96.0292 194.713 95.668C194.769 95.431 195.272 94.9232 195.439 94.9232C195.484 94.9232 195.517 94.8216 195.517 94.6975C195.517 94.2235 194.769 94.5395 194.456 95.1489C194.366 95.3295 194.288 95.6229 194.288 95.8035V96.1307L192.087 96.7176C190.869 97.0449 188.646 97.6317 187.149 98.0267L184.411 98.7489L184.087 98.4668C183.562 98.0154 183.115 97.8348 182.568 97.8235C182.087 97.8235 162.724 102.755 162.534 102.925C162.489 102.97 164.165 103.41 166.255 103.918C169.16 104.629 170.109 104.82 170.299 104.741C170.746 104.538 182.769 101.469 183.093 101.469C183.64 101.469 183.83 101.83 184.322 103.839C184.568 104.854 184.769 105.712 184.757 105.723C184.746 105.735 183.014 106.186 180.903 106.728C177.283 107.664 176.813 107.834 177.193 108.071C177.249 108.105 179.137 107.664 181.383 107.089L185.461 106.039L185.875 106.265C186.366 106.536 186.802 107.134 186.802 107.563C186.802 107.958 186.389 108.567 185.964 108.816C185.774 108.917 183.685 109.504 181.305 110.113C177.584 111.073 176.97 111.253 176.925 111.445C176.891 111.569 176.88 111.682 176.891 111.693C176.903 111.705 178.869 111.219 181.26 110.599C183.64 109.978 185.629 109.493 185.651 109.527C185.73 109.606 187.461 116.749 187.417 116.794C187.372 116.839 177.54 119.367 177.059 119.458C176.78 119.514 176.635 119.593 176.635 119.717C176.635 120.033 177.607 119.841 182.925 118.465C186.366 117.573 188.143 117.155 188.333 117.212C188.501 117.246 188.791 117.449 188.992 117.652C189.629 118.295 189.629 118.905 189.003 119.593C188.657 119.977 188.556 120.011 183.394 121.342C177.763 122.787 177.081 122.99 177.081 123.148C177.081 123.204 177.003 123.25 176.914 123.25C176.802 123.25 176.746 123.362 176.746 123.599V123.938L177.059 123.712C177.238 123.588 177.573 123.408 177.819 123.317C178.366 123.092 188.277 120.53 188.344 120.586C188.433 120.688 189.037 123.216 189.037 123.543C189.037 124.22 188.959 124.254 182.445 125.935C181.576 126.16 180.817 126.356 180.154 126.528L180.154 126.528L180.153 126.528C176.265 127.535 175.678 127.687 175.594 127.543C175.579 127.518 175.58 127.483 175.58 127.442V127.442C175.581 127.406 175.582 127.366 175.573 127.324C175.495 126.94 175.182 126.838 175.182 127.188C175.182 127.369 175.059 127.403 174.411 127.47C173.975 127.515 173.338 127.515 172.981 127.482L172.322 127.403L171.729 129.468C171.606 129.903 171.485 130.322 171.382 130.68ZM77.9187 129.626C81.4271 130.529 84.8461 131.409 85.5165 131.59L85.7484 131.652L85.7484 131.652C86.6216 131.888 86.952 131.977 87.0347 131.872C87.085 131.808 87.0436 131.672 86.9769 131.453L86.9769 131.453L86.9767 131.452L86.9641 131.411L86.9467 131.353C86.9041 131.197 86.8133 130.887 86.7021 130.508L86.7017 130.506L86.7014 130.506L86.7012 130.505L86.7001 130.501L86.7001 130.501L86.7 130.501L86.6993 130.498C86.5777 130.084 86.4322 129.587 86.2987 129.118L85.8182 127.482L85.3378 127.505C85.0696 127.527 84.4327 127.505 83.9299 127.471C83.1143 127.414 83.0026 127.38 83.0026 127.189C83.0026 126.839 82.6897 126.94 82.6115 127.324C82.6023 127.367 82.6033 127.407 82.6041 127.442C82.605 127.483 82.6058 127.518 82.5908 127.544C82.5062 127.687 81.9197 127.536 78.0304 126.528L78.0262 126.527C77.3643 126.356 76.6068 126.16 75.7399 125.936C69.2259 124.254 69.1477 124.221 69.1477 123.543C69.1477 123.216 69.7511 120.688 69.8405 120.587C69.9075 120.53 79.8182 123.092 80.3657 123.318C80.6115 123.408 80.9467 123.589 81.1255 123.713L81.4383 123.938V123.6C81.4383 123.363 81.3824 123.25 81.2707 123.25C81.1813 123.25 81.1031 123.205 81.1031 123.148C81.1031 122.99 80.4215 122.787 74.7902 121.343C69.6282 120.011 69.5276 119.977 69.1812 119.594C68.5555 118.905 68.5555 118.296 69.1924 117.652C69.3935 117.449 69.684 117.246 69.8516 117.212C70.0416 117.156 71.8181 117.573 75.2595 118.465C80.578 119.842 81.55 120.034 81.55 119.718C81.55 119.594 81.4048 119.515 81.1366 119.458C80.645 119.368 70.8125 116.84 70.7678 116.795C70.7231 116.75 72.455 109.606 72.522 109.527C72.5779 109.482 78.1198 110.87 80.4662 111.513L81.226 111.728L81.1478 111.479C81.1143 111.344 81.0696 111.22 81.0584 111.209C81.0472 111.197 79.0919 110.678 76.712 110.057C74.3321 109.448 72.2539 108.85 72.0975 108.748C71.7287 108.511 71.3824 107.924 71.3824 107.552C71.3824 107.134 71.8181 106.536 72.3098 106.266L72.7232 106.04L76.8014 107.089C79.0472 107.665 80.9355 108.105 80.9914 108.071C81.3713 107.834 80.902 107.665 77.2819 106.728C75.1701 106.187 73.4382 105.735 73.4271 105.724C73.4159 105.713 73.617 104.855 73.8628 103.839C74.3656 101.808 74.5444 101.469 75.1142 101.469C75.6059 101.48 87.93 104.686 88.0194 104.832C88.0641 104.911 89.4384 104.618 92.0529 103.963C94.2317 103.41 95.9859 102.959 95.9412 102.948C95.8965 102.936 91.4272 101.785 85.997 100.375C79.9634 98.8171 75.9299 97.824 75.617 97.824C75.0695 97.8353 74.6226 98.0159 74.0975 98.4673L73.7734 98.7494L71.036 98.0272C69.5388 97.6322 67.3153 97.0453 66.1086 96.7181L63.8963 96.1312V95.8039C63.8963 95.6234 63.8181 95.3299 63.7287 95.1494C63.4158 94.54 62.6672 94.224 62.6672 94.698C62.6672 94.8221 62.7007 94.9237 62.7566 94.9237C62.913 94.9237 63.4158 95.4315 63.4717 95.6685C63.5611 96.0296 63.3041 96.4021 62.6561 96.8422L62.0527 97.2372L61.751 98.535C61.3376 100.262 61.3488 100.747 61.7845 101.526C62.2315 102.327 62.0974 102.812 61.3041 103.23C60.846 103.467 60.4549 103.218 59.9074 102.349L59.4717 101.638L58.0191 101.266C57.2258 101.063 56.4661 100.905 56.332 100.905C56.1867 100.905 55.8292 101.063 55.5387 101.243C55.237 101.435 54.9018 101.582 54.7901 101.582C54.5554 101.582 53.8403 100.882 53.8403 100.645C53.8403 100.386 54.3543 99.8103 54.8571 99.5281C55.0918 99.3927 55.3152 99.2008 55.3487 99.1106C55.5722 98.3431 55.9633 96.4021 55.9633 96.0296C55.9633 95.7249 55.8515 95.3638 55.6169 94.9575C55.2929 94.382 55.2817 94.3255 55.4158 93.8741C55.5275 93.4566 55.6169 93.3663 55.9744 93.2534C56.2091 93.1744 56.5555 93.118 56.7454 93.118C57.1476 93.118 57.1812 92.9374 56.8124 92.7682C56.2649 92.5086 55.1923 92.9826 55.0135 93.5581C54.9688 93.7274 54.8348 93.75 54.2202 93.75C53.5498 93.7387 53.4605 93.7726 53.2705 94.0208C53.0582 94.3143 47.7956 115.768 47.7733 116.456C47.7621 116.693 47.8403 116.908 47.9967 117.054C48.1643 117.235 50.5442 117.889 58.0415 119.831C63.4382 121.219 67.8851 122.381 67.9075 122.404C67.9298 122.426 67.8069 123.036 67.6282 123.747C67.3488 124.932 67.3265 125.112 67.4494 125.575C67.617 126.196 67.9075 126.647 68.3656 126.974C68.7678 127.268 69.7287 127.527 77.9187 129.626ZM82.5556 126.026C82.4886 125.687 82.2651 125.134 82.0528 124.784L81.6729 124.152H82.0081C82.1869 124.152 82.3322 124.209 82.3322 124.277C82.3322 124.344 82.4104 124.468 82.4998 124.559C82.7009 124.773 83.0026 125.766 83.0026 126.263C83.0026 126.884 82.7009 126.726 82.5556 126.026ZM175.685 124.559C175.484 124.773 175.182 125.766 175.182 126.263C175.182 126.884 175.484 126.726 175.629 126.026C175.696 125.687 175.919 125.134 176.132 124.784L176.512 124.152H176.176C175.998 124.152 175.852 124.209 175.852 124.277C175.852 124.344 175.774 124.468 175.685 124.559ZM81.6618 119.706C81.6618 119.616 81.9299 119.491 82.3657 119.379C82.7456 119.288 83.1478 119.164 83.2596 119.119C83.4383 119.051 83.4607 119.085 83.4272 119.311C83.4048 119.503 83.2819 119.616 83.0026 119.717C82.4439 119.909 81.6618 119.909 81.6618 119.706ZM174.668 119.232C174.579 119.469 174.623 119.514 175.148 119.695C175.718 119.909 176.523 119.909 176.523 119.706C176.523 119.616 176.255 119.492 175.83 119.379C175.439 119.288 175.037 119.176 174.936 119.13C174.802 119.074 174.713 119.119 174.668 119.232ZM59.2594 95.1715C58.6448 95.0135 58.1309 94.8443 58.1085 94.7878C58.0862 94.7427 57.9968 94.6975 57.9074 94.6975C57.818 94.6975 57.751 94.5847 57.751 94.4154C57.751 94.2348 57.6839 94.1333 57.5834 94.1333C57.4717 94.1333 57.4158 94.0091 57.4158 93.7383C57.4158 93.5239 57.4605 93.3433 57.5052 93.3433C57.5499 93.3433 57.7398 93.5916 57.9074 93.885L58.2203 94.438L59.6057 94.7991L60.9912 95.1602L61.4829 94.8668C62.075 94.517 62.1086 94.517 62.1086 94.8668C62.1086 95.07 62.0303 95.1602 61.8292 95.2167C61.6728 95.2505 61.5499 95.3295 61.5499 95.386C61.5499 95.5778 60.3767 95.465 59.2594 95.1715ZM196.355 95.2167C196.512 95.2505 196.635 95.3295 196.635 95.386C196.635 95.5778 197.651 95.4875 198.847 95.1828C199.506 95.0248 200.065 94.8443 200.076 94.7878C200.098 94.7427 200.188 94.6975 200.277 94.6975C200.367 94.6975 200.434 94.5847 200.434 94.4154C200.434 94.2348 200.501 94.1333 200.601 94.1333C200.713 94.1333 200.769 94.0091 200.769 93.7383C200.769 93.5239 200.724 93.3433 200.679 93.3433C200.635 93.3433 200.445 93.5916 200.277 93.885L199.964 94.438L198.579 94.7991L197.193 95.1602L196.702 94.8668C196.109 94.517 196.076 94.517 196.076 94.8668C196.076 95.07 196.154 95.1602 196.355 95.2167Z" fill="#8EDFF6"/>
<path fill-rule="evenodd" clip-rule="evenodd" d="M196.098 101.12C195.897 101.481 195.741 101.865 195.741 101.966C195.741 102.35 196.154 102.147 196.366 101.673C196.478 101.402 196.635 101.12 196.713 101.041C196.936 100.804 196.892 100.307 196.512 98.6709C196.266 97.6439 196.098 97.136 195.987 97.0909C195.774 97.0119 195.473 96.7862 195.037 96.3574C194.769 96.0978 194.724 95.9849 194.78 95.7028C194.892 95.1047 195.271 94.879 195.975 94.9918C196.232 95.037 196.411 95.1272 196.411 95.2175C196.411 95.3078 196.489 95.3755 196.579 95.3755C196.668 95.3755 196.746 95.432 196.746 95.4884C196.746 95.6802 197.182 95.6238 198.735 95.2401C199.674 95.0031 200.21 94.8225 200.21 94.7323C200.21 94.6533 200.288 94.5855 200.378 94.5855C200.467 94.5855 200.568 94.4614 200.612 94.3034C200.646 94.1454 200.713 94.0213 200.758 94.0213C200.802 94.0213 200.903 93.9084 200.981 93.7617C201.149 93.4457 201.663 93.1184 201.987 93.1184C202.266 93.1184 202.299 92.8137 202.031 92.7573C201.718 92.6896 201.104 92.8589 200.869 93.0733C200.746 93.1862 200.501 93.536 200.311 93.8746L200.27 93.9466L200.269 93.9467C200.174 94.1142 200.108 94.2302 200.017 94.3216C199.813 94.5273 199.483 94.6084 198.411 94.8719L198.199 94.9241L197.137 95.1837L196.568 94.8225C195.663 94.2696 194.836 94.4276 194.456 95.2175C194.087 96.0075 194.311 96.5831 195.204 97.1812L195.797 97.5875L196.132 99.0207L196.456 100.465L196.098 101.12ZM61.818 101.673C61.7063 101.402 61.5499 101.12 61.4716 101.041C61.2482 100.804 61.2929 100.307 61.6728 98.6709C61.9186 97.6439 62.0862 97.136 62.1979 97.0909C62.4102 97.0119 62.7119 96.7862 63.1476 96.3574C63.4158 96.0978 63.4605 95.9849 63.4046 95.7028C63.2929 95.1047 62.913 94.879 62.2091 94.9918C61.9521 95.037 61.7733 95.1272 61.7733 95.2175C61.7733 95.3078 61.6951 95.3755 61.6057 95.3755C61.5163 95.3755 61.4381 95.432 61.4381 95.4884C61.4381 95.6802 61.0024 95.6238 59.4605 95.2401C58.5107 95.0031 57.9744 94.8225 57.9744 94.7323C57.9744 94.6533 57.8962 94.5855 57.8068 94.5855C57.7174 94.5855 57.6169 94.4614 57.5722 94.3034C57.5387 94.1454 57.4716 94.0213 57.4269 94.0213C57.3822 94.0213 57.2817 93.9084 57.2035 93.7617C57.0359 93.4457 56.5219 93.1184 56.1979 93.1184C55.9185 93.1184 55.885 92.8137 56.1643 92.7573C56.466 92.6896 57.0806 92.8589 57.3152 93.0733C57.4381 93.1862 57.6839 93.536 57.8739 93.8746L57.9149 93.9465C58.0103 94.1141 58.0763 94.2301 58.1672 94.3216C58.3716 94.5273 58.7014 94.6084 59.7736 94.872L59.9856 94.9241L61.0471 95.1837L61.6169 94.8225C62.5219 94.2696 63.3488 94.4276 63.7286 95.2175C64.0974 96.0075 63.8739 96.5831 62.98 97.1812L62.3879 97.5875L62.0527 99.0207L61.7286 100.465L62.0862 101.12C62.4996 101.876 62.5331 102.147 62.2426 102.147C62.0973 102.147 61.9633 101.977 61.818 101.673ZM60.2873 103.523C60.1197 103.422 59.7845 103.027 59.561 102.666L59.1476 102L57.7621 101.627L56.3766 101.266L55.8627 101.582C55.1588 102.011 54.9129 102.067 54.4548 101.921C53.5386 101.616 53.1923 100.499 53.7956 99.7878C53.952 99.596 54.2761 99.3364 54.5219 99.1897L54.5451 99.1766C54.658 99.1131 54.7427 99.0654 54.8126 99.0015C55.0234 98.8088 55.0995 98.4689 55.405 97.1046L55.4157 97.0567L55.6616 95.9621L55.304 95.3414C54.9018 94.6304 54.8683 94.3595 55.1699 94.3595C55.3152 94.3595 55.4381 94.4837 55.5275 94.7545C55.6057 94.9689 55.7062 95.1495 55.7398 95.1495C55.8627 95.1495 56.075 95.7025 56.075 95.9959C56.075 96.1426 55.9185 96.91 55.7286 97.7C55.4157 98.9865 55.237 99.438 55.0135 99.438C54.98 99.438 54.8459 99.5395 54.7118 99.6637C54.5777 99.7878 54.3878 99.8894 54.2761 99.8894C54.0526 99.8894 53.9185 100.465 54.0191 100.973C54.0638 101.232 54.1755 101.334 54.4772 101.435C54.9241 101.571 55.2705 101.469 55.6727 101.108C55.9856 100.815 56.5442 100.849 58.1532 101.255C59.4046 101.571 59.5722 101.65 59.6839 101.909C59.7621 102.067 59.8739 102.271 59.9521 102.35C60.0303 102.429 60.0973 102.564 60.0973 102.632C60.0973 102.846 60.8013 103.275 61.1365 103.275C61.3041 103.275 61.4381 103.23 61.4381 103.162C61.4381 103.106 61.5052 103.049 61.5834 103.049C61.6616 103.049 61.7957 102.869 61.8851 102.654C61.9856 102.395 62.1085 102.259 62.2538 102.259C62.4437 102.259 62.4661 102.316 62.399 102.62C62.2203 103.523 61.0694 104.02 60.2873 103.523ZM76.4885 110.442C74.0416 109.798 71.9187 109.2 71.7622 109.087C71.293 108.783 71.0471 108.252 71.0471 107.564C71.0471 106.605 71.6058 105.905 72.522 105.702C72.7231 105.657 74.1868 105.984 76.8796 106.672C79.1142 107.248 80.969 107.744 81.0249 107.79C81.0696 107.823 81.036 108.049 80.9355 108.275C80.7008 108.839 80.7232 109.956 80.9802 110.871C81.1366 111.401 81.1589 111.627 81.0696 111.615C80.9913 111.615 78.9355 111.085 76.4885 110.442ZM82.6562 127.708L83.1366 127.787C83.6729 127.866 85.7512 127.843 85.8405 127.753C85.8741 127.719 85.3378 125.767 84.645 123.408L83.3936 119.109L82.7791 119.334C81.7958 119.684 81.1143 119.571 75.36 118.07C70.712 116.863 70.0751 116.716 69.7064 116.818C69.1924 116.953 68.7455 117.303 68.5332 117.72C68.3209 118.138 68.3209 119.109 68.522 119.504C68.9019 120.237 68.9354 120.248 74.6896 121.738C77.6952 122.517 80.3657 123.25 80.6226 123.374C81.2148 123.657 82.0528 124.571 82.3657 125.259C82.5333 125.643 82.6115 126.049 82.6338 126.749L82.6562 127.708ZM172.277 127.64C172.277 127.697 172.389 127.776 172.534 127.798C172.925 127.877 174.4 127.866 174.992 127.787L175.528 127.708L175.551 126.749C175.573 126.049 175.651 125.643 175.819 125.259C176.132 124.571 176.97 123.657 177.562 123.374C177.819 123.25 180.489 122.517 183.495 121.738C189.249 120.248 189.283 120.237 189.662 119.504C189.864 119.109 189.864 118.138 189.651 117.72C189.439 117.303 188.992 116.953 188.478 116.818C188.109 116.716 187.473 116.863 182.824 118.07C177.026 119.583 176.4 119.684 175.372 119.323C174.903 119.154 174.713 119.12 174.679 119.221C174.512 119.707 172.277 127.55 172.277 127.64ZM177.327 108.737C177.461 109.347 177.45 109.471 177.182 110.509C177.014 111.118 176.936 111.626 176.981 111.626C177.316 111.626 186.188 109.245 186.422 109.087C187.126 108.624 187.383 107.349 186.914 106.57C186.657 106.153 186.121 105.792 185.629 105.702C185.137 105.611 177.126 107.71 177.16 107.913C177.171 108.004 177.238 108.365 177.327 108.737ZM195.785 102.62C195.864 103.038 196.02 103.241 196.467 103.523C196.892 103.783 197.495 103.783 197.897 103.523C198.065 103.422 198.4 103.027 198.623 102.666L199.037 102L200.422 101.627L201.808 101.266L202.322 101.582C203.026 102.011 203.272 102.067 203.73 101.921C204.646 101.616 204.992 100.499 204.389 99.7878C204.232 99.596 203.908 99.3364 203.663 99.1897L203.639 99.1766C203.527 99.1131 203.442 99.0654 203.372 99.0015C203.161 98.8089 203.085 98.469 202.779 97.1049L202.779 97.1046L202.769 97.0567L202.523 95.9621L202.88 95.3414C203.283 94.6304 203.316 94.3595 203.015 94.3595C202.869 94.3595 202.746 94.4837 202.657 94.7545C202.579 94.9689 202.478 95.1495 202.445 95.1495C202.322 95.1495 202.11 95.7025 202.11 95.9959C202.11 96.1426 202.266 96.91 202.456 97.7C202.769 98.9865 202.948 99.438 203.171 99.438C203.204 99.438 203.339 99.5395 203.473 99.6637C203.607 99.7878 203.797 99.8894 203.908 99.8894C204.132 99.8894 204.266 100.442 204.165 100.961C204.121 101.232 204.02 101.334 203.707 101.435C203.26 101.571 202.914 101.469 202.512 101.108C202.199 100.815 201.64 100.849 200.031 101.255C198.78 101.571 198.612 101.65 198.501 101.909C198.422 102.067 198.311 102.271 198.232 102.35C198.154 102.429 198.087 102.564 198.087 102.632C198.087 102.846 197.383 103.275 197.048 103.275C196.88 103.275 196.746 103.23 196.746 103.162C196.746 103.106 196.679 103.049 196.601 103.049C196.523 103.049 196.389 102.869 196.299 102.654C196.199 102.395 196.076 102.259 195.931 102.259C195.741 102.259 195.718 102.316 195.785 102.62ZM54.9576 93.9649C54.9576 93.5473 55.4716 92.8928 55.7845 92.8928C55.9409 92.8928 55.8292 93.3555 55.6057 93.7279C55.3375 94.1342 54.9576 94.2696 54.9576 93.9649ZM202.4 92.8928C202.244 92.8928 202.355 93.3555 202.59 93.7279C202.847 94.1342 203.227 94.2696 203.227 93.9649C203.227 93.5473 202.713 92.8928 202.4 92.8928Z" fill="#D6F9FF"/>
<path fill-rule="evenodd" clip-rule="evenodd" d="M195.741 102.192C195.741 102.846 196.21 103.49 196.802 103.648C197.484 103.839 198.087 103.478 198.623 102.576L198.992 101.944L200.422 101.582L201.852 101.221L202.389 101.571C203.327 102.169 204.311 101.932 204.579 101.041C204.78 100.33 204.568 99.867 203.797 99.3366L203.16 98.8965L202.813 97.4407L202.467 95.9961L202.847 95.3077C203.059 94.924 203.227 94.4613 203.227 94.2582C203.227 93.4682 202.59 92.7798 201.864 92.7798C201.238 92.7798 200.892 93.0281 200.378 93.8293L199.931 94.5177L198.534 94.8676L197.137 95.2174L196.623 94.9014C196.344 94.7209 195.942 94.5516 195.73 94.5177C195.204 94.4275 194.623 94.8337 194.411 95.4319C194.188 96.0977 194.422 96.5943 195.216 97.1247L195.83 97.5422L196.176 98.998L196.512 100.454L196.132 101.176C195.919 101.56 195.741 102.023 195.741 102.192ZM59.5387 102.531C59.9074 103.185 60.142 103.434 60.5443 103.603C60.8795 103.738 61.4828 103.659 61.8404 103.434C62.142 103.231 62.4437 102.621 62.4437 102.192C62.4437 102.023 62.2649 101.56 62.0526 101.177L61.6728 100.454L62.008 98.9985L62.3543 97.5427L62.9689 97.1252C63.7622 96.5947 63.9968 96.0982 63.7733 95.4323C63.561 94.8342 62.98 94.4279 62.4549 94.5182C62.2426 94.5521 61.8404 94.7214 61.561 94.9019L61.0471 95.2179L59.6504 94.8681L58.2537 94.5182L57.8068 93.8298C57.2928 93.0286 56.9465 92.7803 56.3208 92.7803C55.5945 92.7803 54.9576 93.4687 54.9576 94.2587C54.9576 94.4618 55.1252 94.9245 55.3375 95.3082L55.7174 95.9966L55.371 97.4411L55.0247 98.897L54.3878 99.3371C53.6057 99.8675 53.3822 100.364 53.6168 101.064C53.8962 101.944 54.8682 102.17 55.7956 101.572L56.3319 101.222L57.7621 101.583L59.2035 101.944L59.5387 102.531Z" fill="white"/>
<path d="M92.209 135.319L84.41 161.074L116.694 142.392L115.787 127.883L84.41 109.927L92.209 135.319Z" fill="#FFE25B"/>
<path d="M165.484 135.682L173.283 109.927L140.998 128.609L141.905 143.118L173.283 161.074L165.484 135.682Z" fill="#FFB820"/>
<path d="M147.452 103.579L129.028 84.3535V121.354L141.13 128.608L173.283 109.927L147.452 103.579Z" fill="#FFE25B"/>
<path d="M110.603 103.579L129.028 84.3535V121.354L116.925 128.608L84.41 109.927L110.603 103.579Z" fill="white"/>
<path d="M110.452 167.422L129.028 186.647V149.647L116.826 142.393L84.41 161.074L110.452 167.422Z" fill="#FFB820"/>
<path d="M147.452 167.422L129.028 186.647V149.647L141.13 142.393L173.283 161.074L147.452 167.422Z" fill="#C85E40"/>
<circle cx="128.846" cy="137.133" r="31.0147" fill="#FFE25B"/>
<circle cx="128.846" cy="134.594" r="31.0147" fill="#A32423"/>
<circle cx="129.028" cy="135.138" r="25.0294" fill="#56161F"/>
<path fill-rule="evenodd" clip-rule="evenodd" d="M120.524 115.264C111.652 119.26 106.218 128.365 107.635 136.857C108.462 141.808 111.309 145.787 116.008 148.56L117.738 149.581L117.71 150.867C117.694 151.575 117.753 152.414 117.841 152.733C118.055 153.51 118.861 154.237 119.613 154.331C119.951 154.372 124.228 154.443 129.119 154.488C136.356 154.554 138.122 154.515 138.605 154.28C139.484 153.852 139.905 152.889 139.918 151.275C139.924 150.527 140.028 149.825 140.149 149.714C140.27 149.603 141.015 149.158 141.805 148.726C144.214 147.406 146.722 145.038 148.175 142.713C151.791 136.926 151.153 129.177 146.523 122.654C144.617 119.969 142.179 117.871 138.965 116.148C135.455 114.266 132.317 113.509 128.267 113.567C126.264 113.596 122.297 114.465 120.524 115.264ZM124.416 128.924C124.685 129.078 125.579 129.913 126.403 130.781C127.672 132.118 127.909 132.452 127.952 132.968C127.979 133.303 127.866 133.741 127.7 133.941C127.298 134.426 126.418 134.648 125.884 134.398C125.223 134.089 122.374 131.079 122.224 130.531C121.91 129.385 123.361 128.321 124.416 128.924ZM120.023 132.126C121.182 132.232 122.671 132.902 123.572 133.724C125.144 135.157 125.953 137.663 125.539 139.811C124.502 145.189 118.237 147.005 114.664 142.963C113.998 142.21 113.876 141.948 113.433 140.333C112.982 138.686 112.961 138.447 113.173 137.406C113.468 135.962 114.606 134.107 115.682 133.315C116.8 132.493 118.608 131.998 120.023 132.126ZM134.677 128.814C135.405 128.884 135.999 129.619 135.959 130.401C135.93 130.948 135.697 131.259 134.236 132.697C132.309 134.595 131.741 134.871 130.877 134.334C130.257 133.949 130.015 133.302 130.249 132.649C130.401 132.224 131.45 131.075 133.066 129.562C133.877 128.803 133.996 128.748 134.677 128.814ZM139.482 132.286C142.153 132.529 144.245 134.352 144.98 137.076C145.786 140.067 144.55 143.054 141.875 144.58C137.775 146.917 132.573 143.614 132.656 138.727C132.695 136.441 133.886 134.295 135.78 133.098C136.573 132.597 138.427 132.19 139.482 132.286ZM129.434 141.596C130.402 143.189 132.087 146.254 132.04 146.336C131.984 146.435 125.873 146.39 125.698 146.29C125.593 146.23 128.794 141.104 128.976 141.041C129.03 141.021 129.236 141.272 129.434 141.596Z" fill="#FFBE20"/>
<ellipse cx="119.985" cy="123.03" rx="7.67973" ry="5.05511" transform="rotate(-32.9825 119.985 123.03)" fill="white"/>
<defs>
<filter id="filter0_f_600_14341" x="-20" y="25" width="298" height="184" filterUnits="userSpaceOnUse" color-interpolation-filters="sRGB">
<feFlood flood-opacity="0" result="BackgroundImageFix"/>
<feBlend mode="normal" in="SourceGraphic" in2="BackgroundImageFix" result="shape"/>
<feGaussianBlur stdDeviation="18.5" result="effect1_foregroundBlur_600_14341"/>
</filter>
<filter id="filter1_ii_600_14341" x="17" y="62" width="224" height="148" filterUnits="userSpaceOnUse" color-interpolation-filters="sRGB">
<feFlood flood-opacity="0" result="BackgroundImageFix"/>
<feBlend mode="normal" in="SourceGraphic" in2="BackgroundImageFix" result="shape"/>
<feColorMatrix in="SourceAlpha" type="matrix" values="0 0 0 0 0 0 0 0 0 0 0 0 0 0 0 0 0 0 127 0" result="hardAlpha"/>
<feOffset dy="4"/>
<feComposite in2="hardAlpha" operator="arithmetic" k2="-1" k3="1"/>
<feColorMatrix type="matrix" values="0 0 0 0 1 0 0 0 0 1 0 0 0 0 1 0 0 0 0.25 0"/>
<feBlend mode="normal" in2="shape" result="effect1_innerShadow_600_14341"/>
<feColorMatrix in="SourceAlpha" type="matrix" values="0 0 0 0 0 0 0 0 0 0 0 0 0 0 0 0 0 0 127 0" result="hardAlpha"/>
<feOffset dy="-4"/>
<feComposite in2="hardAlpha" operator="arithmetic" k2="-1" k3="1"/>
<feColorMatrix type="matrix" values="0 0 0 0 0 0 0 0 0 0 0 0 0 0 0 0 0 0 0.9 0"/>
<feBlend mode="soft-light" in2="effect1_innerShadow_600_14341" result="effect2_innerShadow_600_14341"/>
</filter>
<linearGradient id="paint0_linear_600_14341" x1="17" y1="34" x2="197.768" y2="215.142" gradientUnits="userSpaceOnUse">
<stop stop-color="#05815D"/>
<stop offset="1" stop-color="#0C575F"/>
</linearGradient>
<linearGradient id="paint1_linear_600_14341" x1="8.5" y1="70" x2="247" y2="210" gradientUnits="userSpaceOnUse">
<stop stop-color="#3DC4F4"/>
<stop offset="1" stop-color="#0B2BDD"/>
</linearGradient>
</defs>
</svg>
