<svg width="256" height="256" viewBox="0 0 256 256" fill="none" xmlns="http://www.w3.org/2000/svg">
<g clip-path="url(#clip0_2031_34679)">
<path fill-rule="evenodd" clip-rule="evenodd" d="M104.425 42.3784C100.056 37.0733 93.5437 34 86.6712 34H29C22.3726 34 17 39.3726 17 46V58.1371V68.2V160C17 166.627 22.3726 172 29 172H229C235.627 172 241 166.627 241 160V70.1371C241 63.5097 235.627 58.1371 229 58.1371H117.404L104.425 42.3784Z" fill="#E6E6E6"/>
<mask id="mask0_2031_34679" style="mask-type:alpha" maskUnits="userSpaceOnUse" x="17" y="34" width="224" height="138">
<path fill-rule="evenodd" clip-rule="evenodd" d="M104.425 42.3784C100.056 37.0733 93.5437 34 86.6712 34H29C22.3726 34 17 39.3726 17 46V58.1371V68.2V160C17 166.627 22.3726 172 29 172H229C235.627 172 241 166.627 241 160V70.1371C241 63.5097 235.627 58.1371 229 58.1371H117.404L104.425 42.3784Z" fill="url(#paint0_linear_2031_34679)"/>
</mask>
<g mask="url(#mask0_2031_34679)">
<g style="mix-blend-mode:multiply" filter="url(#filter0_f_2031_34679)">
<path fill-rule="evenodd" clip-rule="evenodd" d="M92.789 74C97.7642 74 102.605 72.3868 106.586 69.4024L116.459 62H229C235.627 62 241 67.3726 241 74V108V160C241 166.627 235.627 172 229 172H29C22.3726 172 17 166.627 17 160L17 108V86C17 79.3726 22.3726 74 29 74H87H92.789Z" fill="black" fill-opacity="0.3"/>
</g>
</g>
<g filter="url(#filter1_ii_2031_34679)">
<path fill-rule="evenodd" clip-rule="evenodd" d="M92.789 74C97.7642 74 102.605 72.3868 106.586 69.4024L116.459 62H229C235.627 62 241 67.3726 241 74V108V198C241 204.627 235.627 210 229 210H29C22.3726 210 17 204.627 17 198L17 108V86C17 79.3726 22.3726 74 29 74H87H92.789Z" fill="url(#paint1_linear_2031_34679)"/>
</g>
<path d="M138.438 154.318C140.869 176.05 161.525 176.637 170.638 178.987C197.37 184.273 184.004 194.258 173.068 194.258L173.676 196.02L150.589 196.607L169.423 186.035L171.246 190.734C174.283 191.908 194.332 184.86 162.133 181.923C148.766 179.574 140.26 176.637 135.4 170.764L118.996 180.161C114.744 170.764 101.985 167.24 107.453 154.905" fill="#D10000"/>
<path d="M138.438 154.318C140.869 176.05 161.525 176.637 170.638 178.987C197.37 184.273 184.004 194.258 173.068 194.258L173.676 196.02L150.589 196.607L169.423 186.035L171.246 190.734C174.283 191.908 194.332 184.86 162.133 181.923C148.766 179.574 140.26 176.637 135.4 170.764L118.996 180.161C114.744 170.764 101.985 167.24 107.453 154.905" stroke="black" stroke-width="0.597334" stroke-linecap="round" stroke-linejoin="round"/>
<path d="M134.792 167.239C136.007 167.827 137.83 165.477 137.222 164.302L92.8717 132.586C92.8717 130.824 97.1245 127.3 91.049 122.601L91.6566 121.426L83.7585 117.902C84.9736 120.252 86.1887 120.839 87.4038 124.951L89.834 123.776C92.2642 126.713 92.2642 129.062 89.834 130.237L85.5811 127.3C85.5811 126.713 86.1887 126.125 86.1887 125.538C86.1887 125.538 85.5811 124.951 83.7585 124.951C82.5434 124.951 80.1132 122.601 78.2906 122.601C78.2906 124.363 81.3283 127.3 81.3283 130.237L83.1509 129.062C84.9736 129.649 86.1887 130.824 87.4038 132.586C85.5811 134.935 83.1509 136.11 78.2906 133.76C78.2906 132.586 79.5056 131.998 79.5056 130.824C77.0755 130.824 74.0378 129.062 71 127.3C72.2151 131.411 75.8604 136.11 79.5056 137.285C85.5811 139.634 88.0113 135.523 91.049 135.523L134.792 167.239Z" fill="#FFD700" stroke="black" stroke-width="0.597334" stroke-linecap="round" stroke-linejoin="round"/>
<path d="M117.782 129.059L99.5561 107.328C100.771 104.391 100.164 100.28 99.5561 98.5174C96.5184 88.8263 103.201 84.4212 109.277 79.7225C114.137 76.1984 116.567 75.6111 117.782 76.1984C118.997 77.3731 112.922 80.8972 111.707 85.0086C111.707 85.0086 110.492 91.4693 114.745 88.5326C118.39 86.7706 123.251 85.5959 128.718 86.7706C132.971 87.3579 139.654 89.7073 143.907 94.406C156.665 92.0567 149.375 84.4212 148.16 79.7225C152.413 76.1984 174.588 97.9302 147.552 112.026C147.552 120.249 145.73 125.535 140.262 130.234C133.579 135.52 137.831 137.869 139.047 141.393C142.085 151.378 140.87 157.839 128.718 159.601C120.213 160.776 118.997 164.3 112.315 159.601" fill="#D10000"/>
<path d="M117.782 129.059L99.5561 107.328C100.771 104.391 100.164 100.28 99.5561 98.5174C96.5184 88.8263 103.201 84.4212 109.277 79.7225C114.137 76.1984 116.567 75.6111 117.782 76.1984C118.997 77.3731 112.922 80.8972 111.707 85.0086C111.707 85.0086 110.492 91.4693 114.745 88.5326C118.39 86.7706 123.251 85.5959 128.718 86.7706C132.971 87.3579 139.654 89.7073 143.907 94.406C156.665 92.0567 149.375 84.4212 148.16 79.7225C152.413 76.1984 174.588 97.9302 147.552 112.026C147.552 120.249 145.73 125.535 140.262 130.234C133.579 135.52 137.831 137.869 139.047 141.393C142.085 151.378 140.87 157.839 128.718 159.601C120.213 160.776 118.997 164.3 112.315 159.601" stroke="black" stroke-width="0.597334" stroke-linecap="round" stroke-linejoin="round"/>
<path d="M114.746 93.8204C115.354 91.4711 109.278 87.3597 102.595 99.6939C101.988 101.456 99.5575 106.155 99.5575 106.155C98.9499 108.504 98.3424 111.441 97.1273 112.615C91.0518 118.489 94.0895 126.124 101.988 129.061C103.81 129.648 109.278 133.759 112.924 135.522C114.746 136.696 112.924 140.808 109.886 140.221C93.482 136.696 92.8745 147.856 99.5575 149.618L123.252 148.443" fill="#D10000"/>
<path d="M114.746 93.8204C115.354 91.4711 109.278 87.3597 102.595 99.6939C101.988 101.456 99.5575 106.155 99.5575 106.155C98.9499 108.504 98.3424 111.441 97.1273 112.615C91.0518 118.489 94.0895 126.124 101.988 129.061C103.81 129.648 109.278 133.759 112.924 135.522C114.746 136.696 112.924 140.808 109.886 140.221C93.482 136.696 92.8745 147.856 99.5575 149.618L123.252 148.443" stroke="black" stroke-width="0.597334" stroke-linecap="round" stroke-linejoin="round"/>
<path d="M118.389 93.2331C120.819 90.8837 125.072 90.8837 126.895 94.4078C127.502 95.5824 127.502 96.7571 128.11 97.3445" stroke="black" stroke-width="0.597334" stroke-linecap="round" stroke-linejoin="round"/>
<path d="M100.768 124.949C103.805 125.536 103.805 127.298 107.451 130.235C113.526 134.934 120.817 130.822 122.639 129.648C125.07 128.473 125.07 126.711 127.5 127.886" fill="#D10000"/>
<path d="M100.768 124.949C103.805 125.536 103.805 127.298 107.451 130.235C113.526 134.934 120.817 130.822 122.639 129.648C125.07 128.473 125.07 126.711 127.5 127.886" stroke="black" stroke-width="0.896269" stroke-linecap="round" stroke-linejoin="round"/>
<path d="M108.669 116.729C101.378 112.618 99.5557 119.078 102.593 122.015C103.201 122.602 105.024 122.602 106.239 123.19C107.454 123.777 108.061 121.428 111.099 122.896C113.529 124.364 114.744 121.428 112.314 120.253" fill="#D10000"/>
<path d="M108.669 116.729C101.378 112.618 99.5557 119.078 102.593 122.015C103.201 122.602 105.024 122.602 106.239 123.19C107.454 123.777 108.061 121.428 111.099 122.896C113.529 124.364 114.744 121.428 112.314 120.253" stroke="black" stroke-width="0.597334" stroke-linecap="round" stroke-linejoin="round"/>
<path d="M112.922 96.7564C112.922 94.9944 109.277 93.8197 105.024 100.28C100.164 107.916 100.771 112.027 103.201 113.789C105.024 114.964 106.847 114.377 108.669 109.091C109.884 106.154 112.922 98.5184 112.922 96.7564Z" fill="white" stroke="black" stroke-width="0.597334" stroke-linecap="round" stroke-linejoin="round"/>
<path d="M120.212 96.169C126.287 94.9943 125.68 116.726 115.959 117.313C105.023 117.901 112.314 97.931 120.212 96.169Z" fill="white" stroke="black" stroke-width="0.597334" stroke-linecap="round" stroke-linejoin="round"/>
<path d="M117.172 106.743C120.21 109.092 116.565 118.49 112.312 114.966C109.274 112.029 113.527 103.806 117.172 106.743Z" fill="black"/>
<path d="M106.846 105.569C109.884 107.918 105.024 115.553 103.201 112.029C101.379 109.68 103.201 103.219 106.846 105.569Z" fill="black"/>
<path d="M105.021 106.154C105.629 106.154 105.629 109.678 105.021 109.678C103.199 109.678 103.806 106.154 105.021 106.154Z" fill="white"/>
<path d="M114.742 108.504C115.35 108.504 115.35 110.853 114.135 110.853C113.527 110.853 112.92 108.504 114.742 108.504Z" fill="white"/>
<path d="M115.958 159.602C112.921 159.602 111.098 160.189 107.453 156.078L115.958 159.602Z" fill="#D10000"/>
<path d="M115.958 159.602C112.921 159.602 111.098 160.189 107.453 156.078" stroke="black" stroke-width="0.597334" stroke-linecap="round" stroke-linejoin="round"/>
<path d="M112.921 156.08C97.1246 157.255 109.276 135.523 121.427 144.921C123.857 146.683 126.287 147.27 129.932 146.095" fill="#D10000"/>
<path d="M112.921 156.08C97.1246 157.255 109.276 135.523 121.427 144.921C123.857 146.683 126.287 147.27 129.932 146.095" stroke="black" stroke-width="0.597334" stroke-linecap="round" stroke-linejoin="round"/>
<path d="M110.491 145.507C112.314 148.443 106.239 153.141 102.594 150.205C98.9491 147.268 108.669 143.158 110.491 145.507Z" fill="#D10000" stroke="black" stroke-width="0.597334" stroke-linecap="round" stroke-linejoin="round"/>
<path d="M106.845 139.635C92.8713 137.873 93.4789 147.858 99.5544 149.62C106.237 151.382 113.528 141.985 106.845 139.635Z" fill="#D10000" stroke="black" stroke-width="0.597334" stroke-linecap="round" stroke-linejoin="round"/>
<path d="M103.199 142.571C103.806 146.683 94.6933 149.032 92.8707 143.158C91.6555 139.047 101.984 133.174 103.199 142.571Z" fill="#D10000" stroke="black" stroke-width="0.597334" stroke-linecap="round" stroke-linejoin="round"/>
<path d="M105.023 134.348C108.668 139.046 99.555 141.396 97.1248 138.459C92.2644 133.173 101.985 130.823 105.023 134.348Z" fill="#D10000" stroke="black" stroke-width="0.597334" stroke-linecap="round" stroke-linejoin="round"/>
<path d="M92.2637 178.396C100.162 177.809 113.528 177.809 109.883 171.935C108.667 170.173 109.275 168.999 109.275 167.824C110.49 172.523 120.211 169.586 119.603 175.46L108.06 190.731L92.2637 178.396Z" fill="#00B000" stroke="black" stroke-width="0.597334" stroke-linecap="round" stroke-linejoin="round"/>
<path d="M127.503 172.523C129.933 171.348 132.363 172.523 134.793 170.761C139.046 174.872 139.046 180.745 140.261 181.92L119.604 190.143L106.238 183.682C112.314 176.634 118.997 179.571 119.604 175.46C120.819 168.411 124.465 170.173 127.503 173.11C127.503 173.11 128.11 178.983 126.287 178.983C122.035 179.571 112.921 183.095 112.921 183.095" fill="#00B000"/>
<path d="M127.503 172.523C129.933 171.348 132.363 172.523 134.793 170.761C139.046 174.872 139.046 180.745 140.261 181.92L119.604 190.143L106.238 183.682C112.314 176.634 118.997 179.571 119.604 175.46C120.819 168.411 124.465 170.173 127.503 173.11C127.503 173.11 128.11 178.983 126.287 178.983C122.035 179.571 112.921 183.095 112.921 183.095" stroke="black" stroke-width="0.597334" stroke-linecap="round" stroke-linejoin="round"/>
<path d="M81.9375 181.336C83.1526 179.574 100.164 174.875 100.164 181.923L89.8356 187.209L81.9375 181.336Z" fill="white" stroke="black" stroke-width="0.597334" stroke-linecap="round" stroke-linejoin="round"/>
<path d="M136.007 176.636C136.007 180.747 132.362 180.16 131.754 178.398C130.539 174.287 136.007 173.7 136.007 176.636Z" fill="#F4FFF4" stroke="black" stroke-width="0.597334" stroke-linecap="round" stroke-linejoin="round"/>
<path d="M95.9094 187.209C80.7207 188.971 80.7207 184.86 80.7207 184.86C80.7207 181.923 80.7207 181.923 81.9358 181.336C83.7585 183.685 94.0868 184.86 98.9472 182.51" fill="white"/>
<path d="M95.9094 187.209C80.7207 188.971 80.7207 184.86 80.7207 184.86C80.7207 181.923 80.7207 181.923 81.9358 181.336C83.7585 183.685 94.0868 184.86 98.9472 182.51" stroke="black" stroke-width="0.597334" stroke-linecap="round" stroke-linejoin="round"/>
<path d="M117.782 187.795C117.782 177.223 100.163 178.397 96.5176 184.858L104.416 190.732L117.782 187.795Z" fill="white" stroke="black" stroke-width="0.597334" stroke-linecap="round" stroke-linejoin="round"/>
<path d="M139.654 181.336C140.869 180.748 140.261 183.097 140.261 185.447C128.11 193.082 102.593 193.67 95.9102 188.383C95.9102 186.034 95.9102 185.447 96.5177 184.272C100.163 190.145 134.793 187.796 139.654 181.336Z" fill="white" stroke="black" stroke-width="0.597334" stroke-linecap="round" stroke-linejoin="round"/>
<path d="M113.528 179.575L118.388 180.163M111.098 174.289L117.173 174.876M109.882 176.051L115.958 177.226M106.845 177.226L111.705 178.401M101.984 178.401L109.275 179.575M120.211 174.876L127.501 175.464M119.604 176.639L126.894 177.813M117.173 178.401L121.426 178.988" stroke="#00FFFF" stroke-width="0.597334" stroke-linecap="round" stroke-linejoin="round"/>
</g>
<defs>
<filter id="filter0_f_2031_34679" x="-20" y="25" width="298" height="184" filterUnits="userSpaceOnUse" color-interpolation-filters="sRGB">
<feFlood flood-opacity="0" result="BackgroundImageFix"/>
<feBlend mode="normal" in="SourceGraphic" in2="BackgroundImageFix" result="shape"/>
<feGaussianBlur stdDeviation="18.5" result="effect1_foregroundBlur_2031_34679"/>
</filter>
<filter id="filter1_ii_2031_34679" x="17" y="62" width="224" height="148" filterUnits="userSpaceOnUse" color-interpolation-filters="sRGB">
<feFlood flood-opacity="0" result="BackgroundImageFix"/>
<feBlend mode="normal" in="SourceGraphic" in2="BackgroundImageFix" result="shape"/>
<feColorMatrix in="SourceAlpha" type="matrix" values="0 0 0 0 0 0 0 0 0 0 0 0 0 0 0 0 0 0 127 0" result="hardAlpha"/>
<feOffset dy="-4"/>
<feComposite in2="hardAlpha" operator="arithmetic" k2="-1" k3="1"/>
<feColorMatrix type="matrix" values="0 0 0 0 0 0 0 0 0 0 0 0 0 0 0 0 0 0 0.25 0"/>
<feBlend mode="normal" in2="shape" result="effect1_innerShadow_2031_34679"/>
<feColorMatrix in="SourceAlpha" type="matrix" values="0 0 0 0 0 0 0 0 0 0 0 0 0 0 0 0 0 0 127 0" result="hardAlpha"/>
<feOffset dy="4"/>
<feComposite in2="hardAlpha" operator="arithmetic" k2="-1" k3="1"/>
<feColorMatrix type="matrix" values="0 0 0 0 1 0 0 0 0 1 0 0 0 0 1 0 0 0 0.25 0"/>
<feBlend mode="normal" in2="effect1_innerShadow_2031_34679" result="effect2_innerShadow_2031_34679"/>
</filter>
<linearGradient id="paint0_linear_2031_34679" x1="17" y1="34" x2="197.768" y2="215.142" gradientUnits="userSpaceOnUse">
<stop stop-color="#05815D"/>
<stop offset="1" stop-color="#0C575F"/>
</linearGradient>
<linearGradient id="paint1_linear_2031_34679" x1="17" y1="62" x2="241" y2="210" gradientUnits="userSpaceOnUse">
<stop stop-color="#5F585E"/>
<stop offset="1" stop-color="#010101"/>
</linearGradient>
<clipPath id="clip0_2031_34679">
<rect width="256" height="256" fill="white"/>
</clipPath>
</defs>
</svg>
