<svg width="256" height="256" viewBox="0 0 256 256" fill="none" xmlns="http://www.w3.org/2000/svg">
<path fill-rule="evenodd" clip-rule="evenodd" d="M104.425 42.3784C100.056 37.0733 93.5437 34 86.6712 34H29C22.3726 34 17 39.3726 17 46V58.1371V68.2V160C17 166.627 22.3726 172 29 172H229C235.627 172 241 166.627 241 160V70.1371C241 63.5097 235.627 58.1371 229 58.1371H117.404L104.425 42.3784Z" fill="#1A2893"/>
<mask id="mask0_1148_27969" style="mask-type:alpha" maskUnits="userSpaceOnUse" x="17" y="34" width="224" height="138">
<path fill-rule="evenodd" clip-rule="evenodd" d="M104.425 42.3784C100.056 37.0733 93.5437 34 86.6712 34H29C22.3726 34 17 39.3726 17 46V58.1371V68.2V160C17 166.627 22.3726 172 29 172H229C235.627 172 241 166.627 241 160V70.1371C241 63.5097 235.627 58.1371 229 58.1371H117.404L104.425 42.3784Z" fill="url(#paint0_linear_1148_27969)"/>
</mask>
<g mask="url(#mask0_1148_27969)">
<g style="mix-blend-mode:multiply" filter="url(#filter0_f_1148_27969)">
<path fill-rule="evenodd" clip-rule="evenodd" d="M92.789 74C97.7642 74 102.605 72.3868 106.586 69.4024L116.459 62H229C235.627 62 241 67.3726 241 74V108V160C241 166.627 235.627 172 229 172H29C22.3726 172 17 166.627 17 160L17 108V86C17 79.3726 22.3726 74 29 74H87H92.789Z" fill="black" fill-opacity="0.3"/>
</g>
</g>
<g filter="url(#filter1_ii_1148_27969)">
<path fill-rule="evenodd" clip-rule="evenodd" d="M92.789 74C97.7642 74 102.605 72.3868 106.586 69.4024L116.459 62H229C235.627 62 241 67.3726 241 74V108V198C241 204.627 235.627 210 229 210H29C22.3726 210 17 204.627 17 198L17 108V86C17 79.3726 22.3726 74 29 74H87H92.789Z" fill="url(#paint1_linear_1148_27969)"/>
</g>
<path d="M173.86 114.694C173.859 112.996 173.496 111.495 172.762 110.207C172.04 108.941 170.96 107.879 169.51 107.04C157.547 100.142 145.572 93.2645 133.612 86.3593C130.388 84.4979 127.262 84.5661 124.061 86.4542C119.3 89.2621 95.4589 102.921 88.3547 107.036C85.4289 108.73 84.0053 111.322 84.0046 114.691C84 128.563 84.0046 142.436 84 156.309C84 157.97 84.3484 159.442 85.0506 160.71C85.7725 162.015 86.8681 163.105 88.3508 163.964C95.4554 168.078 119.299 181.736 124.06 184.545C127.262 186.434 130.388 186.502 133.613 184.64C145.573 177.735 157.549 170.858 169.514 163.959C170.997 163.101 172.092 162.01 172.814 160.706C173.515 159.438 173.865 157.966 173.865 156.305C173.865 156.305 173.865 128.567 173.86 114.694Z" fill="#5C6BC0"/>
<path d="M129.07 135.365L85.0508 160.71C85.7726 162.015 86.8682 163.106 88.351 163.964C95.4555 168.079 119.299 181.737 124.06 184.546C127.262 186.435 130.388 186.503 133.613 184.641C145.573 177.735 157.549 170.858 169.514 163.96C170.997 163.102 172.093 162.011 172.814 160.707L129.07 135.365Z" fill="#283593"/>
<path d="M173.86 114.694C173.859 112.995 173.496 111.495 172.761 110.207L129.069 135.365L172.814 160.706C173.515 159.437 173.863 157.966 173.864 156.305C173.864 156.305 173.864 128.567 173.86 114.694" fill="#3949AB"/>
<path d="M129.167 102.098C141.524 102.098 152.312 108.809 158.091 118.784L158.034 118.688L143.495 127.059C140.631 122.209 135.38 118.936 129.356 118.869L129.166 118.868C119.981 118.868 112.534 126.315 112.534 135.5C112.531 138.396 113.287 141.241 114.727 143.753C117.594 148.758 122.984 152.133 129.167 152.133C135.388 152.133 140.808 148.715 143.66 143.656L143.591 143.778L158.108 152.187C152.392 162.078 141.752 168.768 129.539 168.901L129.167 168.903C116.771 168.903 105.952 162.151 100.188 152.123C97.3737 147.228 95.7637 141.553 95.7637 135.5C95.7637 117.053 110.718 102.098 129.166 102.098L129.167 102.098Z" fill="white"/>
<defs>
<filter id="filter0_f_1148_27969" x="-20" y="25" width="298" height="184" filterUnits="userSpaceOnUse" color-interpolation-filters="sRGB">
<feFlood flood-opacity="0" result="BackgroundImageFix"/>
<feBlend mode="normal" in="SourceGraphic" in2="BackgroundImageFix" result="shape"/>
<feGaussianBlur stdDeviation="18.5" result="effect1_foregroundBlur_1148_27969"/>
</filter>
<filter id="filter1_ii_1148_27969" x="17" y="62" width="224" height="148" filterUnits="userSpaceOnUse" color-interpolation-filters="sRGB">
<feFlood flood-opacity="0" result="BackgroundImageFix"/>
<feBlend mode="normal" in="SourceGraphic" in2="BackgroundImageFix" result="shape"/>
<feColorMatrix in="SourceAlpha" type="matrix" values="0 0 0 0 0 0 0 0 0 0 0 0 0 0 0 0 0 0 127 0" result="hardAlpha"/>
<feOffset dy="4"/>
<feComposite in2="hardAlpha" operator="arithmetic" k2="-1" k3="1"/>
<feColorMatrix type="matrix" values="0 0 0 0 1 0 0 0 0 1 0 0 0 0 1 0 0 0 0.25 0"/>
<feBlend mode="normal" in2="shape" result="effect1_innerShadow_1148_27969"/>
<feColorMatrix in="SourceAlpha" type="matrix" values="0 0 0 0 0 0 0 0 0 0 0 0 0 0 0 0 0 0 127 0" result="hardAlpha"/>
<feOffset dy="-4"/>
<feComposite in2="hardAlpha" operator="arithmetic" k2="-1" k3="1"/>
<feColorMatrix type="matrix" values="0 0 0 0 0 0 0 0 0 0 0 0 0 0 0 0 0 0 0.9 0"/>
<feBlend mode="soft-light" in2="effect1_innerShadow_1148_27969" result="effect2_innerShadow_1148_27969"/>
</filter>
<linearGradient id="paint0_linear_1148_27969" x1="17" y1="34" x2="197.768" y2="215.142" gradientUnits="userSpaceOnUse">
<stop stop-color="#05815D"/>
<stop offset="1" stop-color="#0C575F"/>
</linearGradient>
<linearGradient id="paint1_linear_1148_27969" x1="17" y1="62" x2="241" y2="210" gradientUnits="userSpaceOnUse">
<stop stop-color="#FFFEFD"/>
<stop offset="1" stop-color="#77818B"/>
</linearGradient>
</defs>
</svg>
