<svg width="256" height="256" viewBox="0 0 256 256" fill="none" xmlns="http://www.w3.org/2000/svg">
<path fill-rule="evenodd" clip-rule="evenodd" d="M104.425 42.3784C100.056 37.0733 93.5437 34 86.6712 34H29C22.3726 34 17 39.3726 17 46V58.1371V68.2V160C17 166.627 22.3726 172 29 172H229C235.627 172 241 166.627 241 160V70.1371C241 63.5097 235.627 58.1371 229 58.1371H117.404L104.425 42.3784Z" fill="#472701"/>
<mask id="mask0_804_18512" style="mask-type:alpha" maskUnits="userSpaceOnUse" x="17" y="34" width="224" height="138">
<path fill-rule="evenodd" clip-rule="evenodd" d="M104.425 42.3784C100.056 37.0733 93.5437 34 86.6712 34H29C22.3726 34 17 39.3726 17 46V58.1371V68.2V160C17 166.627 22.3726 172 29 172H229C235.627 172 241 166.627 241 160V70.1371C241 63.5097 235.627 58.1371 229 58.1371H117.404L104.425 42.3784Z" fill="url(#paint0_linear_804_18512)"/>
</mask>
<g mask="url(#mask0_804_18512)">
<g style="mix-blend-mode:multiply" filter="url(#filter0_f_804_18512)">
<path fill-rule="evenodd" clip-rule="evenodd" d="M92.789 74C97.7642 74 102.605 72.3868 106.586 69.4024L116.459 62H229C235.627 62 241 67.3726 241 74V108V160C241 166.627 235.627 172 229 172H29C22.3726 172 17 166.627 17 160L17 108V86C17 79.3726 22.3726 74 29 74H87H92.789Z" fill="black" fill-opacity="0.3"/>
</g>
</g>
<g filter="url(#filter1_ii_804_18512)">
<path fill-rule="evenodd" clip-rule="evenodd" d="M92.789 74C97.7642 74 102.605 72.3868 106.586 69.4024L116.459 62H229C235.627 62 241 67.3726 241 74V108V198C241 204.627 235.627 210 229 210H29C22.3726 210 17 204.627 17 198L17 108V86C17 79.3726 22.3726 74 29 74H87H92.789Z" fill="url(#paint1_linear_804_18512)"/>
</g>
<g filter="url(#filter2_d_804_18512)">
<path d="M83.6019 179.12C83.6015 179.112 83.601 179.102 83.6005 179.089C83.5987 179.045 83.5969 178.979 83.595 178.893C83.5912 178.72 83.5876 178.471 83.584 178.149C83.5768 177.506 83.5701 176.578 83.5638 175.407C83.5512 173.064 83.5404 169.748 83.5315 165.782C83.5135 157.851 83.503 147.323 83.5006 136.794C83.4981 126.265 83.5037 115.733 83.5179 107.795C83.525 103.825 83.5342 100.504 83.5457 98.1559C83.5515 96.9816 83.5578 96.0512 83.5647 95.4047C83.5681 95.0813 83.5717 94.8303 83.5753 94.6558C83.5772 94.5683 83.579 94.5022 83.5808 94.4567C83.5815 94.4386 83.5821 94.4265 83.5825 94.4191C83.6791 93.9458 83.896 93.6518 84.2407 93.4588L84.2407 93.4588L84.2434 93.4572L84.5635 93.2754H93.9206C96.5294 93.2754 98.93 93.2828 100.696 93.2964C101.58 93.3032 102.303 93.3115 102.814 93.3212C103.07 93.326 103.27 93.3312 103.41 93.3365C103.48 93.3392 103.531 93.3418 103.565 93.3442C103.567 93.3443 103.568 93.3444 103.57 93.3446C103.649 93.3736 103.806 93.467 103.987 93.631C104.154 93.7826 104.275 93.935 104.333 94.038C104.333 94.0438 104.334 94.0502 104.334 94.0573C104.34 94.1208 104.345 94.2181 104.351 94.3583C104.361 94.6373 104.371 95.0652 104.379 95.6876C104.397 96.9312 104.409 98.9369 104.418 102.05C104.437 108.275 104.442 118.92 104.442 136.732V179.143L104.287 179.467C104.287 179.468 104.286 179.47 104.285 179.471C104.196 179.647 104.01 179.856 103.845 179.966C103.845 179.966 103.845 179.966 103.844 179.967L103.566 180.15L94.1766 180.169H94.1764C90.1671 180.179 87.7691 180.179 86.3315 180.162C85.6117 180.153 85.1401 180.14 84.8302 180.123C84.6751 180.114 84.5674 180.105 84.493 180.095C84.4235 180.086 84.3988 180.079 84.3988 180.079C84.3988 180.079 84.3988 180.079 84.3989 180.079M83.6019 179.12L84.3989 180.079M83.6019 179.12C83.7059 179.569 84.0541 179.957 84.3989 180.079M83.6019 179.12L84.3989 180.079M104.329 94.0007C104.327 93.9926 104.327 93.9913 104.329 94.0001L104.329 94.0007ZM103.592 93.3465C103.599 93.3472 103.597 93.3473 103.59 93.3462C103.591 93.3463 103.592 93.3464 103.592 93.3465ZM83.6033 179.142C83.6033 179.142 83.6031 179.14 83.6028 179.136C83.6032 179.14 83.6034 179.142 83.6033 179.142Z" fill="white" stroke="#A57840"/>
<path d="M106.181 179.743L106.185 179.75C106.212 179.792 106.27 179.861 106.353 179.936C106.432 180.007 106.506 180.059 106.552 180.085C106.571 180.093 106.623 180.11 106.783 180.126C106.988 180.146 107.328 180.162 107.93 180.172C109.13 180.191 111.309 180.189 115.388 180.179L106.181 179.743ZM106.181 179.743L106.177 179.737L106.035 179.527V140.874C106.035 121.726 106.035 112.026 106.06 107.073C106.072 104.594 106.091 103.312 106.118 102.632C106.132 102.288 106.147 102.118 106.161 102.03C106.164 102.015 106.166 102.005 106.167 101.998L106.17 101.993C106.229 101.887 106.378 101.733 106.462 101.68L106.462 101.68L106.465 101.679C106.48 101.674 106.521 101.664 106.611 101.654C106.797 101.633 107.121 101.616 107.72 101.604C108.909 101.581 111.107 101.578 115.272 101.578C119.396 101.578 121.597 101.581 122.798 101.604C123.402 101.616 123.734 101.633 123.927 101.654C124.016 101.664 124.061 101.674 124.079 101.679L124.088 101.685C124.115 101.701 124.17 101.743 124.232 101.805C124.275 101.848 124.309 101.888 124.33 101.917C124.333 101.933 124.336 101.955 124.339 101.985C124.354 102.114 124.367 102.338 124.38 102.733C124.405 103.519 124.423 104.93 124.436 107.493C124.463 112.617 124.473 122.32 124.488 140.765M106.181 179.743L115.389 180.179L115.403 180.179C119.717 180.164 121.885 180.157 123.01 180.127C123.581 180.112 123.854 180.092 123.997 180.069C124.039 180.062 124.06 180.056 124.069 180.053C124.072 180.051 124.078 180.047 124.085 180.042L124.089 180.038C124.163 179.984 124.306 179.821 124.381 179.694C124.384 179.677 124.389 179.643 124.395 179.586C124.408 179.447 124.421 179.213 124.433 178.81C124.455 178.007 124.471 176.581 124.481 174.007C124.5 168.864 124.498 159.161 124.488 140.765M124.488 140.765L124.988 140.765M124.488 140.765L124.988 140.765M124.988 140.765C124.958 103.875 124.949 101.948 124.78 101.691L124.84 179.898C124.998 179.582 125.008 177.555 124.988 140.765ZM124.089 101.682C124.089 101.682 124.087 101.682 124.085 101.681C124.088 101.682 124.089 101.682 124.089 101.682Z" fill="white" stroke="#A57840"/>
<path d="M135.152 175.482L135.151 175.477C135.152 175.482 135.152 175.484 135.152 175.482ZM135.178 175.111C135.15 175.115 135.123 175.118 135.099 175.121C135.079 174.979 135.055 174.796 135.025 174.573C134.949 173.994 134.839 173.151 134.7 172.081C134.422 169.941 134.029 166.897 133.56 163.25C132.622 155.956 131.379 146.252 130.139 136.553C128.9 126.855 127.664 117.162 126.741 109.892C126.28 106.256 125.896 103.227 125.629 101.105C125.496 100.044 125.391 99.2104 125.321 98.6414C125.302 98.4842 125.285 98.3473 125.271 98.2316C125.338 98.2212 125.412 98.21 125.492 98.198C125.87 98.1413 126.373 98.0695 126.927 97.9903C126.985 97.9821 127.043 97.9737 127.102 97.9653C128.362 97.7967 131.218 97.3914 133.463 97.0552C134.584 96.8923 135.605 96.7467 136.348 96.6445C136.635 96.6049 136.88 96.5719 137.073 96.547C137.085 96.6396 137.099 96.7453 137.115 96.8638C137.183 97.3862 137.284 98.1556 137.412 99.1456C137.669 101.126 138.038 103.987 138.492 107.516C139.4 114.575 140.648 124.306 142.017 135.006L142.017 135.006L146.936 173.419L145.799 173.57C145.081 173.665 143.248 173.934 141.344 174.214C140.848 174.286 140.348 174.36 139.861 174.431L139.86 174.431C139.4 174.499 138.981 174.562 138.599 174.618C136.675 174.904 135.688 175.05 135.178 175.111Z" fill="white" stroke="#A57840"/>
<path d="M153.06 180.052L153.067 180.057C153.093 180.076 153.164 180.113 153.271 180.152C153.371 180.187 153.469 180.212 153.538 180.223C153.639 180.234 153.828 180.232 155.169 179.99C156.501 179.748 158.912 179.283 163.42 178.408L153.06 180.052ZM153.06 180.052L153.053 180.048L152.932 179.968L147.558 152.027C144.886 138.138 143.533 131.103 142.87 127.507C142.537 125.704 142.38 124.778 142.317 124.286C142.29 124.083 142.283 123.974 142.282 123.917C142.336 123.843 142.452 123.723 142.545 123.663L142.545 123.663L142.552 123.658C142.552 123.658 142.552 123.658 142.553 123.658C142.556 123.655 142.563 123.651 142.587 123.641C142.619 123.628 142.676 123.608 142.783 123.579C142.997 123.521 143.363 123.438 144.023 123.302C145.338 123.031 147.771 122.562 152.374 121.676C156.933 120.8 159.369 120.333 160.703 120.094C161.372 119.974 161.752 119.914 161.98 119.887C162.093 119.874 162.157 119.87 162.193 119.87C162.21 119.87 162.218 119.871 162.221 119.872C162.223 119.872 162.223 119.872 162.223 119.872L162.234 119.874L162.244 119.876C162.29 119.885 162.362 119.906 162.438 119.938C162.468 119.95 162.494 119.962 162.515 119.972C162.543 120.054 162.584 120.198 162.645 120.449C162.78 121.008 162.996 122.023 163.369 123.88C164.114 127.59 165.478 134.624 168.068 148.001C170.645 161.343 172.001 168.379 172.697 172.113C173.045 173.982 173.226 175.016 173.312 175.597C173.356 175.891 173.372 176.052 173.376 176.142C173.376 176.144 173.376 176.145 173.376 176.147C173.313 176.237 173.204 176.357 173.129 176.413L173.126 176.415C173.124 176.417 173.122 176.419 173.12 176.421C173.095 176.445 173.04 176.498 171.845 176.749C170.602 177.01 168.204 177.477 163.443 178.404L163.42 178.408L153.06 180.052ZM142.248 123.972L142.248 123.972L142.248 123.972ZM162.488 119.906C162.488 119.906 162.49 119.908 162.492 119.912C162.489 119.908 162.488 119.906 162.488 119.906Z" fill="white" stroke="#A57840"/>
<path d="M135.811 180.551C135.307 180.333 135.188 179.967 134.892 177.595C134.734 176.389 134.625 175.401 134.625 175.391C134.694 175.332 146.763 173.582 147.159 173.582C147.337 173.582 147.455 173.641 147.485 173.76C147.515 173.849 147.653 174.916 147.801 176.132C148.058 178.208 148.068 178.346 147.91 178.673C147.821 178.86 147.613 179.078 147.455 179.157C147.277 179.256 145.923 179.473 144.065 179.71C135.129 180.867 136.256 180.748 135.811 180.551Z" fill="#A57840"/>
<path d="M124.681 97.7966C124.652 97.6384 124.504 96.5808 124.365 95.444C124.118 93.5264 124.108 93.3386 124.247 93.0025C124.336 92.7851 124.523 92.5775 124.701 92.4786C124.909 92.3798 126.856 92.0833 130.504 91.6187C135.752 90.9465 136.009 90.9268 136.326 91.075C136.889 91.3419 136.958 91.5495 137.274 93.9712C137.433 95.2167 137.561 96.2348 137.561 96.2447C137.561 96.3238 125.492 98.0635 124.948 98.0635C124.8 98.0635 124.721 97.9844 124.681 97.7966Z" fill="#A57840"/>
<path d="M89.845 133.394C90.3392 131.111 92.2964 129.608 94.985 129.43C95.8549 129.371 97.7428 129.539 97.9899 129.687C98.0789 129.746 98.0591 130.033 97.8911 130.913C97.7033 131.842 97.6341 132.069 97.4957 132.069C97.3672 132.069 97.2782 131.852 97.1003 131.17C96.8236 130.122 96.8334 130.122 95.5979 130.033C93.1366 129.845 91.5056 131.368 91.3178 134.046C91.2486 134.896 91.4463 135.994 91.7923 136.705C92.0592 137.269 92.7709 138.04 93.3046 138.346C94.303 138.919 96.0526 139.078 97.4858 138.712C97.8812 138.613 98.2173 138.554 98.2469 138.573C98.4545 138.781 97.8614 139.186 96.8137 139.542C95.9735 139.829 93.9274 139.809 93.0476 139.503C90.5369 138.633 89.2421 136.162 89.845 133.394Z" fill="#A57840"/>
<path d="M109.42 172.594C107.996 172.505 107.453 172.416 107.571 172.297C107.68 172.189 109.252 172.05 110.922 171.991C113.305 171.912 121.103 171.981 121.944 172.1C122.408 172.159 122.843 172.208 122.912 172.218C123.268 172.258 122.764 172.406 121.993 172.495C120.906 172.623 111.08 172.703 109.42 172.594Z" fill="#A57840"/>
<path d="M109.588 110.113C108.797 110.064 108.065 110.004 107.957 109.985C107.848 109.965 107.68 109.935 107.591 109.935C107.492 109.925 107.413 109.886 107.413 109.836C107.413 109.787 107.759 109.718 108.184 109.678C108.599 109.648 109.103 109.599 109.291 109.569C109.479 109.55 111.594 109.5 113.986 109.471C119.087 109.391 123.031 109.55 123.031 109.826C123.031 109.856 122.971 109.896 122.912 109.896C122.843 109.896 122.606 109.925 122.388 109.965C120.995 110.202 112.771 110.291 109.588 110.113Z" fill="#A57840"/>
<path fill-rule="evenodd" clip-rule="evenodd" d="M154.554 120.765L148.73 121.886L154.314 150.909L154.705 150.833L156.666 147.436L159.748 149.863L160.138 149.788L154.554 120.765Z" fill="#A57840"/>
</g>
<defs>
<filter id="filter0_f_804_18512" x="-20" y="25" width="298" height="184" filterUnits="userSpaceOnUse" color-interpolation-filters="sRGB">
<feFlood flood-opacity="0" result="BackgroundImageFix"/>
<feBlend mode="normal" in="SourceGraphic" in2="BackgroundImageFix" result="shape"/>
<feGaussianBlur stdDeviation="18.5" result="effect1_foregroundBlur_804_18512"/>
</filter>
<filter id="filter1_ii_804_18512" x="17" y="62" width="224" height="148" filterUnits="userSpaceOnUse" color-interpolation-filters="sRGB">
<feFlood flood-opacity="0" result="BackgroundImageFix"/>
<feBlend mode="normal" in="SourceGraphic" in2="BackgroundImageFix" result="shape"/>
<feColorMatrix in="SourceAlpha" type="matrix" values="0 0 0 0 0 0 0 0 0 0 0 0 0 0 0 0 0 0 127 0" result="hardAlpha"/>
<feOffset dy="-4"/>
<feComposite in2="hardAlpha" operator="arithmetic" k2="-1" k3="1"/>
<feColorMatrix type="matrix" values="0 0 0 0 0 0 0 0 0 0 0 0 0 0 0 0 0 0 0.25 0"/>
<feBlend mode="normal" in2="shape" result="effect1_innerShadow_804_18512"/>
<feColorMatrix in="SourceAlpha" type="matrix" values="0 0 0 0 0 0 0 0 0 0 0 0 0 0 0 0 0 0 127 0" result="hardAlpha"/>
<feOffset dy="4"/>
<feComposite in2="hardAlpha" operator="arithmetic" k2="-1" k3="1"/>
<feColorMatrix type="matrix" values="0 0 0 0 1 0 0 0 0 1 0 0 0 0 1 0 0 0 0.25 0"/>
<feBlend mode="normal" in2="effect1_innerShadow_804_18512" result="effect2_innerShadow_804_18512"/>
</filter>
<filter id="filter2_d_804_18512" x="78" y="90" width="100.877" height="99.7266" filterUnits="userSpaceOnUse" color-interpolation-filters="sRGB">
<feFlood flood-opacity="0" result="BackgroundImageFix"/>
<feColorMatrix in="SourceAlpha" type="matrix" values="0 0 0 0 0 0 0 0 0 0 0 0 0 0 0 0 0 0 127 0" result="hardAlpha"/>
<feOffset dy="4"/>
<feGaussianBlur stdDeviation="2.5"/>
<feComposite in2="hardAlpha" operator="out"/>
<feColorMatrix type="matrix" values="0 0 0 0 0 0 0 0 0 0 0 0 0 0 0 0 0 0 0.25 0"/>
<feBlend mode="normal" in2="BackgroundImageFix" result="effect1_dropShadow_804_18512"/>
<feBlend mode="normal" in="SourceGraphic" in2="effect1_dropShadow_804_18512" result="shape"/>
</filter>
<linearGradient id="paint0_linear_804_18512" x1="17" y1="34" x2="197.768" y2="215.142" gradientUnits="userSpaceOnUse">
<stop stop-color="#05815D"/>
<stop offset="1" stop-color="#0C575F"/>
</linearGradient>
<linearGradient id="paint1_linear_804_18512" x1="17" y1="62" x2="241" y2="210" gradientUnits="userSpaceOnUse">
<stop stop-color="#8E4F00"/>
<stop offset="1" stop-color="#412301"/>
</linearGradient>
</defs>
</svg>
