<?xml version="1.0" encoding="UTF-8" standalone="no"?>
<!-- Created with Inkscape (http://www.inkscape.org/) -->

<svg
   version="1.1"
   id="svg1"
   width="341.33334"
   height="341.33334"
   viewBox="0 0 341.33334 341.33334"
   sodipodi:docname="canMV.svg"
   xml:space="preserve"
   inkscape:version="1.4 (86a8ad7, 2024-10-11)"
   xmlns:inkscape="http://www.inkscape.org/namespaces/inkscape"
   xmlns:sodipodi="http://sodipodi.sourceforge.net/DTD/sodipodi-0.dtd"
   xmlns:xlink="http://www.w3.org/1999/xlink"
   xmlns="http://www.w3.org/2000/svg"
   xmlns:svg="http://www.w3.org/2000/svg"><defs
     id="defs1"><linearGradient
       id="linearGradient57"
       inkscape:collect="always"><stop
         style="stop-color:#002d5c;stop-opacity:1;"
         offset="0"
         id="stop58" /><stop
         style="stop-color:#71ffff;stop-opacity:1;"
         offset="1"
         id="stop59" /></linearGradient><linearGradient
       id="linearGradient55"
       inkscape:collect="always"><stop
         style="stop-color:#69bfff;stop-opacity:1;"
         offset="0"
         id="stop55" /><stop
         style="stop-color:#ffffff;stop-opacity:1;"
         offset="0.7326315"
         id="stop57" /></linearGradient><clipPath
       clipPathUnits="userSpaceOnUse"
       id="clipPath2"><path
         d="M 0,256 H 256 V 0 H 0 Z"
         transform="translate(-104.425,-213.62161)"
         id="path2" /></clipPath><mask
       maskUnits="userSpaceOnUse"
       x="0"
       y="0"
       width="1"
       height="1"
       id="mask2"><path
         id="path3"
         d="M 17,194 H 241 V 84 H 17 Z"
         style="fill:#000000;fill-opacity:1;fill-rule:nonzero;stroke:none"
         transform="matrix(1.3333333,0,0,-1.3333333,0,341.33333)"
         clip-path="url(#clipPath4)" /><path
         d="M 104.425,213.622 C 100.056,218.927 93.544,222 86.671,222 H 29 c -6.627,0 -12,-5.373 -12,-12 V 197.863 187.8 96 c 0,-6.627 5.373,-12 12,-12 h 200 c 6.627,0 12,5.373 12,12 v 89.863 c 0,6.627 -5.373,12 -12,12 H 117.404 Z"
         transform="matrix(1.3333333,0,0,-1.3333333,0,341.33333)"
         style="fill:url(#linearGradient5);fill-rule:evenodd;stroke:none"
         opacity="1"
         id="path5"
         clip-path="url(#clipPath6)" /></mask><clipPath
       clipPathUnits="userSpaceOnUse"
       id="clipPath4"><path
         d="M 17,194 H 241 V 84 H 17 Z"
         id="path4" /></clipPath><linearGradient
       x1="0"
       y1="0"
       x2="1"
       y2="0"
       gradientUnits="userSpaceOnUse"
       gradientTransform="matrix(180.76801,-181.142,181.142,180.76801,32.581543,237.54932)"
       spreadMethod="pad"
       id="linearGradient5"><stop
         style="stop-opacity:1;stop-color:#05815d"
         offset="0"
         id="stop4" /><stop
         style="stop-opacity:1;stop-color:#0c575f"
         offset="1"
         id="stop5" /></linearGradient><clipPath
       clipPathUnits="userSpaceOnUse"
       id="clipPath6"><path
         d="M 17,194 H 241 V 84 H 17 Z"
         id="path6" /></clipPath><clipPath
       clipPathUnits="userSpaceOnUse"
       id="clipPath7"><path
         d="M 17,194 H 241 V 84 H 17 Z"
         transform="translate(-92.789005,-182)"
         id="path7" /></clipPath><clipPath
       clipPathUnits="userSpaceOnUse"
       id="clipPath9"><path
         d="M 0,256 H 256 V 0 H 0 Z"
         transform="matrix(1.3333333,0,0,-1.3333333,0,341.33333)"
         id="path9" /></clipPath><linearGradient
       x1="0"
       y1="0"
       x2="1"
       y2="0"
       gradientUnits="userSpaceOnUse"
       gradientTransform="matrix(223.99998,-147.99998,147.99998,223.99998,16.999996,194)"
       spreadMethod="pad"
       id="linearGradient11"><stop
         style="stop-opacity:1;stop-color:#ffe7a2"
         offset="0"
         id="stop9" /><stop
         style="stop-opacity:1;stop-color:#ffcb3d"
         offset="0.953125"
         id="stop10" /><stop
         style="stop-opacity:1;stop-color:#ffcb3d"
         offset="1"
         id="stop11" /></linearGradient><linearGradient
       x1="0"
       y1="0"
       x2="1"
       y2="0"
       gradientUnits="userSpaceOnUse"
       gradientTransform="matrix(224.01749,-2.5002055,2.5002055,224.01749,16.925417,55.317421)"
       spreadMethod="pad"
       id="linearGradient13"><stop
         style="stop-opacity:1;stop-color:#ffcf4e"
         offset="0"
         id="stop12" /><stop
         style="stop-opacity:1;stop-color:#ffb504"
         offset="1"
         id="stop13" /></linearGradient><linearGradient
       x1="0"
       y1="0"
       x2="1"
       y2="0"
       gradientUnits="userSpaceOnUse"
       gradientTransform="matrix(224,0,0,224,17,180)"
       spreadMethod="pad"
       id="linearGradient15"><stop
         style="stop-opacity:1;stop-color:#ffecb5"
         offset="0"
         id="stop14" /><stop
         style="stop-opacity:1;stop-color:#ffde82"
         offset="1"
         id="stop15" /></linearGradient><clipPath
       clipPathUnits="userSpaceOnUse"
       id="clipPath16"><g
         inkscape:label="Clip"
         id="use16"><path
           fill-rule="evenodd"
           clip-rule="evenodd"
           d="m 157.61577,343.78868 c 0.0935,0.0177 0.186,0.0501 0.278,0.0927 0.0524,0.0243 0.098,0.0486 0.1348,0.0701 l 0.0363,0.0222 0.5934,0.3299 0.4497,0.2522 c 0.1492,0.084 0.2973,0.1677 0.4432,0.2506 l 0.491,0.2804 0.2719,0.1568 c 0.1032,0.0598 0.2025,0.1177 0.2975,0.1734 0.7592,0.4433 0.8732,0.9957 0.5287,1.4485 -0.0548,0.0719 -0.1101,0.1269 -0.1566,0.1651 l -0.0225,0.0177 -0.0349,0.0227 -9.321,5.1997 -0.1521,-0.2552 0.0478,0.2909 c -0.4837,0.0744 -0.8172,-0.1512 -0.9809,-0.534 l -0.0169,-0.0416 c -0.0649,-0.1687 -0.09,-0.3317 -0.0942,-0.4595 l 0.002,-0.1867 0.0542,-2.6547 c 0.007,-0.2742 0.0115,-0.4389 0.0148,-0.4826 0.008,-0.1099 0.0305,-0.2039 0.0644,-0.2829 0.0293,-0.068 0.0654,-0.121 0.1038,-0.1595 l 0.0233,-0.0213 0.0218,-0.0183 6.4931,-3.6201 c 0.1308,-0.0738 0.2769,-0.0853 0.4294,-0.0565 z m -15.3058,0.311 c 0.65895,0.3668 6.4679,3.6068 6.4679,3.6068 l 0.003,0.003 c 0.0139,0.0142 0.0702,0.082 0.0831,0.2594 0.0142,0.1825 0.0697,3.1662 0.0714,3.2594 v 0.007 c -0.001,0.0727 -0.0298,0.8892 -0.7405,0.7798 l -9.32172,-5.1996 c 0,0 -0.71594,-0.5407 0.32058,-1.1467 1.1164,-0.6539 2.5483,-1.444 2.5483,-1.444 0,0 0.36465,-0.2393 0.56784,-0.1255 z m 15.1745,0.2593 -6.3873,3.5607 -0.005,0.0273 c -8e-4,0.005 -0.002,0.0104 -0.002,0.016 l -0.004,0.0434 c -0.003,0.0671 -0.009,0.2787 -0.0163,0.6026 l -0.0388,1.8863 -0.014,0.7359 0.002,0.0437 c 0.001,0.0133 0.003,0.0287 0.005,0.0459 0.009,0.0713 0.0253,0.1419 0.0494,0.2045 0.0561,0.1457 0.1279,0.2106 0.2676,0.2057 l 0.014,-10e-4 9.2429,-5.156 0.004,-0.003 c 0.01,-0.009 0.0217,-0.0219 0.0348,-0.0377 l 0.0133,-0.0167 c 0.132,-0.1735 0.0996,-0.3306 -0.3535,-0.5952 l -0.3991,-0.232 -0.2268,-0.1306 c -0.2792,-0.1602 -0.5719,-0.3263 -0.869,-0.4935 l -0.7178,-0.4018 -0.3285,-0.1821 -0.0509,-0.0306 c -0.0196,-0.0111 -0.0449,-0.0244 -0.0736,-0.0377 -0.0394,-0.0182 -0.0768,-0.0322 -0.1089,-0.0406 l -0.0387,-0.009 c -0.002,-10e-4 -0.002,-0.002 0.001,-0.004 z m 14.6216,-0.853 c 0.3469,0 0.6439,0.018 0.8827,0.0539 0.2382,0.0361 0.4551,0.0818 0.6448,0.1362 l 0.0379,0.0106 v 1.3253 l -0.0763,-0.0367 c -0.2131,-0.1029 -0.4468,-0.1837 -0.695,-0.2399 -0.5038,-0.1148 -0.9716,-0.1199 -1.3301,0.0277 -0.181,0.0744 -0.3355,0.1798 -0.4596,0.3125 -0.124,0.1328 -0.22,0.2971 -0.2858,0.4875 -0.0659,0.1923 -0.0996,0.4066 -0.0996,0.6368 0,0.2405 0.036,0.4585 0.1072,0.6483 0.0703,0.1884 0.1716,0.351 0.3011,0.4829 0.1288,0.1314 0.286,0.2333 0.4669,0.3028 0.2706,0.1044 0.5859,0.129 0.9588,0.0832 0.1216,-0.0147 0.2452,-0.0367 0.3672,-0.065 0.1216,-0.0281 0.2441,-0.0611 0.364,-0.0982 0.1187,-0.0367 0.231,-0.0771 0.3335,-0.1199 l 0.0738,-0.031 v 1.2148 l -0.0331,0.0129 c -0.253,0.0989 -0.5197,0.1735 -0.7926,0.2217 -0.2717,0.0477 -0.5594,0.0717 -0.8552,0.0717 -0.4272,0 -0.8164,-0.0572 -1.1567,-0.1702 -0.3417,-0.1137 -0.6362,-0.2851 -0.8759,-0.5098 -0.239,-0.2246 -0.4244,-0.5061 -0.5507,-0.8372 -0.126,-0.3292 -0.1898,-0.7149 -0.1898,-1.1459 0,-0.4176 0.0693,-0.8016 0.2057,-1.1416 0.1367,-0.3401 0.3323,-0.6349 0.5819,-0.8764 0.2487,-0.2409 0.5525,-0.4296 0.9032,-0.5606 0.3496,-0.1304 0.7437,-0.1964 1.1717,-0.1964 z m 4.4614,-1e-4 c 1.5414,0 2.3445,0.6343 2.3445,1.8807 v 3.5061 h -1.3419 v -0.4605 c -0.3704,0.3582 -0.7181,0.512 -1.3516,0.512 -0.6233,0 -1.0778,-0.1538 -1.4048,-0.4699 -0.2964,-0.2969 -0.4553,-0.7262 -0.4553,-1.1968 0,-0.848 0.6026,-1.5432 1.8815,-1.5432 h 1.2984 v -0.2655 c 0,-0.5831 -0.2958,-0.8384 -1.024,-0.8384 -0.5293,0 -0.7712,0.123 -1.0566,0.4398 l -0.8774,-0.8277 c 0.5396,-0.5728 1.0674,-0.7366 1.9872,-0.7366 z m 15.7517,0 c 1.5427,0 2.3445,0.6343 2.3445,1.8807 v 3.5061 h -1.3419 v -0.4605 c -0.3697,0.3582 -0.7181,0.512 -1.3516,0.512 -0.6233,0 -1.0772,-0.1538 -1.4048,-0.4699 -0.2964,-0.2969 -0.4547,-0.7262 -0.4547,-1.1968 0,-0.848 0.6026,-1.5432 1.8809,-1.5432 h 1.2984 v -0.2655 c 0,-0.5831 -0.2958,-0.8384 -1.024,-0.8384 -0.5293,0 -0.7712,0.123 -1.056,0.4398 l -0.8781,-0.8277 c 0.5397,-0.5728 1.0681,-0.7366 1.9873,-0.7366 z m -5.1138,0 c 1.5421,0 2.3451,0.6343 2.3451,1.8807 v 3.5061 h -1.3418 v -0.4605 c -0.3697,0.3582 -0.7181,0.512 -1.3522,0.512 -0.6228,0 -1.0772,-0.1538 -1.4048,-0.4699 -0.2958,-0.2969 -0.4541,-0.7262 -0.4541,-1.1968 0,-0.848 0.602,-1.5432 1.8803,-1.5432 h 1.299 v -0.2655 c 0,-0.5831 -0.2952,-0.8384 -1.0247,-0.8384 -0.528,0 -0.7706,0.123 -1.056,0.4398 l -0.8767,-0.8277 c 0.539,-0.5728 1.0668,-0.7366 1.9859,-0.7366 z m -4.6268,3e-4 c 0.5487,0 0.9924,0.1738 1.299,0.4701 0.4437,0.4293 0.5598,0.93 0.5598,1.5125 v 3.4038 h -1.3736 v -3.2193 c 0,-0.7262 -0.4748,-0.971 -0.9079,-0.971 -0.4333,0 -0.9192,0.2448 -0.9192,0.971 v 3.2193 h -1.3736 v -5.3255 h 1.3418 v 0.4908 c 0.3594,-0.3684 0.866,-0.5517 1.3737,-0.5517 z m 15.7512,0 c 0.5488,0 0.9925,0.1738 1.2997,0.4701 0.4437,0.4293 0.5598,0.93 0.5598,1.5125 v 3.4038 h -1.3736 v -3.2193 c 0,-0.7262 -0.4748,-0.971 -0.9079,-0.971 -0.434,0 -0.9192,0.2448 -0.9192,0.971 v 3.2193 h -1.3736 v -5.3255 h 1.3418 v 0.4908 c 0.3594,-0.3684 0.866,-0.5517 1.373,-0.5517 z m -5.0398,3.138 h -1.0876 c -0.4968,0 -0.7712,0.2247 -0.7712,0.6032 0,0.3682 0.253,0.613 0.792,0.613 0.3805,0 0.6231,-0.0307 0.8658,-0.2554 0.1485,-0.1331 0.201,-0.3476 0.201,-0.6752 z m -15.7517,0 h -1.0876 c -0.4968,0 -0.7712,0.2247 -0.7712,0.6032 0,0.3682 0.253,0.613 0.792,0.613 0.3805,0 0.6232,-0.0307 0.8658,-0.2554 0.1485,-0.1331 0.201,-0.3476 0.201,-0.6752 z m 10.6386,0 h -1.0876 c -0.4968,0 -0.7706,0.2247 -0.7706,0.6032 0,0.3682 0.2523,0.613 0.7914,0.613 0.3805,0 0.6238,-0.0307 0.8664,-0.2554 0.1479,-0.1331 0.2004,-0.3476 0.2004,-0.6752 z m -25.9543,-13.66682 c 0.1775,0.0663 0.3351,0.18172 0.4658,0.34622 l 0.0384,0.0508 -0.2499,0.168 0.3044,2e-4 v 10.2146 l -0.003,0.0419 c -0.0147,0.0986 -0.0556,0.2272 -0.1426,0.3593 -0.2773,0.4216 -0.804,0.5179 -1.4992,0.1567 l -0.4604,-0.2407 -0.2406,-0.1273 -0.5162,-0.2756 c -0.1745,-0.0937 -0.351,-0.189 -0.5276,-0.2847 l -0.8421,-0.4597 -0.0172,-0.008 c -0.0528,-0.0259 -0.1166,-0.0619 -0.1834,-0.1076 l -0.0403,-0.0286 c -0.1811,-0.1328 -0.3033,-0.2836 -0.3187,-0.4779 l -0.002,-0.0423 v -7.1166 l 0.006,-0.0284 c 0.0236,-0.115 0.1125,-0.2422 0.2817,-0.3596 l 0.044,-0.0292 c 0.0229,-0.0145 0.0873,-0.0523 0.1903,-0.1118 l 1.273,-0.7258 1.4593,-0.82685 c 0.0403,-0.0226 0.1024,-0.0514 0.1828,-0.0791 0.2563,-0.0883 0.5297,-0.10778 0.7974,-0.008 z m -23.95057,0.34172 c 0,0 2.74789,1.5543 2.90828,1.656 0.16368,0.1043 0.19048,0.1887 0.1932,0.1988 l 2.5e-4,10e-4 v 7.0875 c 0,0.2011 -0.32729,0.3693 -0.38963,0.3995 l -0.0114,0.005 c -0.0474,0.0261 -1.454,0.8002 -2.58648,1.388 -1.05135,0.5462 -1.19226,-0.2693 -1.1968,-0.2976 l -1.2e-4,-10.2153 c 0.42567,-0.5915 1.08272,-0.2235 1.08272,-0.2235 z m 23.35747,0.2209 -0.0379,0.0141 c -0.011,0.004 -0.0203,0.008 -0.0275,0.0116 l -0.1409,0.0785 -2.7456,1.5626 c -0.0112,0.007 -0.0194,0.0115 -0.0243,0.0147 -0.0155,0.01 -0.0285,0.0188 -0.0395,0.027 l -0.017,0.0135 v 6.9791 l 0.002,0.002 c 0.0115,0.0148 0.0296,0.0325 0.0529,0.0514 l 0.0249,0.0192 c 0.046,0.0337 0.0939,0.0614 0.1274,0.0783 l 0.0393,0.0194 0.5822,0.3185 c 0.2635,0.1435 0.5285,0.2869 0.7892,0.4269 l 0.6313,0.3366 0.3558,0.1872 c 0.0762,0.0398 0.1504,0.0784 0.2225,0.1158 l 0.0882,0.044 c 0.3656,0.174 0.5211,0.1371 0.6099,0.002 0.0236,-0.0358 0.0391,-0.0735 0.0472,-0.1005 l 0.003,-0.0119 v -10.0856 l -0.0256,-0.026 c -0.0366,-0.0345 -0.0745,-0.0602 -0.1138,-0.0787 l -0.0298,-0.0125 c -0.111,-0.0415 -0.2426,-0.0321 -0.3738,0.0131 z m 20.8164,-1.24191 v 2.84581 h -2.3444 c -0.0981,0.2122 -0.2253,0.4051 -0.3808,0.5804 h 3.3325 v 1.2978 l -9.3529,0.0146 -0.0879,0.4621 h 3.0324 c -0.0487,1.721 -0.2099,2.9538 -0.4824,3.295 -0.263,0.3408 -0.8914,0.5111 -1.8851,0.5111 -0.2827,0 -0.5312,-0.009 -0.7454,-0.0276 l -0.2914,-1.4092 c 0.438,0.0461 0.7927,0.0687 1.0664,0.0687 0.3015,0 0.4679,-0.5273 0.4963,-1.1812 h -1.5714 c -0.0478,0.4513 -0.3502,1.1222 -0.906,1.6097 -0.5638,0.4972 -1.2859,0.8523 -2.1612,1.0631 l -0.9212,-1.5191 c 1.2952,-0.221 2.0211,-0.7395 2.1773,-1.1537 h -1.6739 v -1.2711 h 2.1273 l 0.0725,-0.4624 h -2.5274 v -1.2978 h 3.2584 c -0.0787,-0.2122 -0.1854,-0.4059 -0.3219,-0.5804 h -2.2703 v -2.84581 z m 0.2121,5.20691 v 3.9105 h -1.812 v -0.5255 h -2.0239 v 0.5255 h -1.7683 v -3.9105 z m 7.4468,-9.10323 v 2.55688 h 1.2279 v 1.65703 h -1.2279 v 0.82952 c 0.5943,0.4045 1.092,0.8099 1.4914,1.2151 v -2.80486 h 3.1567 v -0.98064 h -3.3613 v -1.6029 h 3.3613 v -0.87013 h 1.899 v 0.87013 h 3.5374 v 1.6029 h -3.5374 v 0.98064 h 3.23 v 7.84686 c 0,1.0864 -0.5268,1.6304 -1.5785,1.6304 h -1.1109 l -0.2187,-1.6167 0.6865,0.0558 c 0.3407,0 0.5115,-0.1429 0.5115,-0.4279 v -5.9823 h -4.8371 v 8.0535 h -1.7385 v -6.1196 l -0.7314,1.0089 c -0.2144,-0.3317 -0.4672,-0.6497 -0.76,-0.954 v 6.0647 h -1.7239 v -5.4012 c -0.1752,0.7649 -0.6038,1.607 -1.2859,2.5279 l -0.6865,-2.1687 c 0.9938,-1.151 1.6165,-2.4038 1.8699,-3.75742 h -1.7385 v -1.65703 h 1.841 v -2.55688 z m 6.3721,5.15333 1.461,0.3867 c -0.2043,0.5618 -0.4047,1.0131 -0.5986,1.3537 h 0.5549 v 1.3123 h -1.3592 v 0.8708 h 1.3302 v 1.3123 h -1.3302 v 2.1957 h -1.6078 v -2.1957 h -1.2859 v -1.3123 h 1.2859 v -0.8708 h -1.3293 v -1.3123 h 0.6575 c -0.0975,-0.3867 -0.2922,-0.8194 -0.5842,-1.2988 l 1.4029,-0.4416 c 0.2826,0.6079 0.4822,1.1876 0.5985,1.7404 h 0.2049 c 0.2725,-0.5337 0.4723,-1.114 0.5994,-1.7404 z m -15.6309,5.1386 h -2.0247 v 1.009 h 2.0247 z m -2.7621,-3.5367 h -3.7261 c 0.0974,0.1573 0.1845,0.351 0.2638,0.5802 h 3.0833 c 0.1843,-0.2107 0.3116,-0.4051 0.379,-0.5802 z m 2.4324,-1.6853 h -8.4388 v 0.5252 h 8.4388 z m -31.5808,-7.36114 v 0.007 c -0.002,0.0932 -0.0572,3.07688 -0.0714,3.25933 -0.0148,0.20215 -0.0862,0.26181 -0.0862,0.26181 0,0 -5.80895,3.24024 -6.4679,3.6076 -0.20319,0.1136 -0.56784,-0.12563 -0.56784,-0.12563 0,0 -1.4319,-0.79079 -2.5483,-1.4438 -1.01925,-0.59676 -0.34395,-1.13009 -0.32116,-1.1477 l 5.8e-4,-4.5e-4 9.32172,-5.19844 c 0.7107,-0.10991 0.7393,0.70705 0.7405,0.77988 z m 2.5178,-0.77988 9.321,5.19844 c 0,0 0.7178,0.54127 -0.32,1.14815 -1.1151,0.65301 -2.5482,1.4438 -2.5482,1.4438 0,0 -0.3646,0.23923 -0.5666,0.12563 -0.6602,-0.36736 -6.4691,-3.6076 -6.4691,-3.6076 0,0 -0.0714,-0.0597 -0.0869,-0.26181 -0.0136,-0.18245 -0.069,-3.16614 -0.0707,-3.25933 v -0.007 c 0.001,-0.0728 0.0296,-0.88979 0.7405,-0.77988 z m 25.7111,3.07129 v 0.49719 h 5.8888 v 1.31258 h -5.8888 v 0.42851 h 5.5582 v 1.18874 h -12.9758 v -1.18874 h 5.3426 v -0.42851 h -5.6702 v -1.31258 h 5.6702 v -0.49719 z"
           fill="#002d5c"
           id="path55" /></g></clipPath><linearGradient
       inkscape:collect="always"
       xlink:href="#linearGradient55"
       id="linearGradient56"
       x1="88.862785"
       y1="224.56099"
       x2="169.13721"
       y2="15.438973"
       gradientUnits="userSpaceOnUse" /><linearGradient
       inkscape:collect="always"
       xlink:href="#linearGradient57"
       id="linearGradient59"
       x1="-67.170029"
       y1="3.6185544"
       x2="116.32003"
       y2="-124.86257"
       gradientUnits="userSpaceOnUse" /></defs><sodipodi:namedview
     id="namedview1"
     pagecolor="#ffffff"
     bordercolor="#000000"
     borderopacity="0.25"
     inkscape:showpageshadow="2"
     inkscape:pageopacity="0.0"
     inkscape:pagecheckerboard="0"
     inkscape:deskcolor="#d1d1d1"
     inkscape:zoom="0.82690426"
     inkscape:cx="-16.930618"
     inkscape:cy="128.79363"
     inkscape:window-width="2160"
     inkscape:window-height="1406"
     inkscape:window-x="-11"
     inkscape:window-y="-11"
     inkscape:window-maximized="1"
     inkscape:current-layer="layer-MC0"><inkscape:page
       x="0"
       y="0"
       inkscape:label="1"
       id="page1"
       width="341.33334"
       height="341.33334"
       margin="61.333332 20 45.333332 22.666666"
       bleed="0" /></sodipodi:namedview><g
     id="layer-MC0"
     inkscape:groupmode="layer"
     inkscape:label="Layer 1"><path
       id="path1"
       d="m 0,0 c -4.369,5.305 -10.881,8.378 -17.754,8.378 h -57.671 c -6.627,0 -12,-5.372 -12,-12 v -12.137 -10.063 -91.8 c 0,-6.627 5.373,-12 12,-12 h 200 c 6.627,0 12,5.373 12,12 v 89.863 c 0,6.628 -5.373,12 -12,12 H 12.979 Z"
       style="fill:url(#linearGradient59);fill-opacity:1;fill-rule:evenodd;stroke:none"
       transform="matrix(1.3333333,0,0,-1.3333333,139.23333,56.504533)"
       clip-path="url(#clipPath2)" /><g
       mask="url(#mask2)"
       id="g9"
       clip-path="url(#clipPath9)"><g
         id="g8"><path
           d="M 0,0 C 4.975,0 9.816,1.613 13.797,4.598 L 23.67,12 h 112.541 c 6.627,0 12,-5.373 12,-12 v -34 -52 c 0,-6.627 -5.373,-12 -12,-12 h -200 c -6.627,0 -12,5.373 -12,12 v 52 22 c 0,6.627 5.373,12 12,12 h 58 z"
           style="fill:#a6a1a1;fill-opacity:1;fill-rule:evenodd;stroke:none"
           transform="matrix(1.3333333,0,0,-1.3333333,123.71867,98.666667)"
           clip-path="url(#clipPath7)"
           id="path8" /></g></g><path
       id="path11"
       d="m 116.459,194 -9.873,-7.402 C 102.605,183.613 97.764,182 92.789,182 v 0 H 87 29 c -6.628,0 -12,-5.372 -12,-12 v 0 -22 -90 c 0,-6.627 5.372,-12 12,-12 v 0 h 200 c 6.627,0 12,5.373 12,12 v 0 90 34 c 0,6.627 -5.373,12 -12,12 v 0 z"
       style="fill:url(#linearGradient56);stroke:none;fill-opacity:1;fill-rule:nonzero"
       transform="matrix(1.3333333,0,0,-1.3333333,0,341.33333)" /><path
       id="path13"
       d="M 229,50 H 29 c -6.628,0 -12,5.372 -12,12 v 0 -4 c 0,-6.627 5.372,-12 12,-12 v 0 h 200 c 6.627,0 12,5.373 12,12 v 0 4 c 0,-6.628 -5.373,-12 -12,-12"
       transform="matrix(1.3333333,0,0,-1.3333333,0,341.33333)"
       style="fill:#002d5c;stroke:none;fill-opacity:1" /><path
       id="path15"
       d="m 116.459,194 -9.873,-7.402 C 102.605,183.613 97.764,182 92.789,182 v 0 H 87 29 c -6.628,0 -12,-5.372 -12,-12 v 0 -4 c 0,6.627 5.372,12 12,12 v 0 h 58 5.789 c 4.975,0 9.816,1.613 13.797,4.597 v 0 L 116.459,190 H 229 c 6.627,0 12,-5.372 12,-12 v 0 4 c 0,6.627 -5.373,12 -12,12 v 0 z"
       transform="matrix(1.3333333,0,0,-1.3333333,0,341.33333)"
       style="fill:#76d0eb;stroke:none;fill-opacity:1" /><path
       d="m 240.03398,152.86557 c 0.77145,-0.0173 1.54745,0.0951 2.31891,0.38271 h 0.0115 c 1.02303,0.38212 1.92583,1.04435 2.67913,1.99246 l 0.22535,0.29278 -1.44089,0.96811 h 1.7561 v 58.87372 l -0.0231,0.2363 c -0.0847,0.56828 -0.32046,1.30994 -0.82171,2.0713 -1.59823,2.42991 -4.6385,2.99359 -8.64531,0.91179 l -2.64541,-1.39587 -1.38458,-0.73168 -2.98309,-1.58722 c -1.00574,-0.54005 -2.02151,-1.09196 -3.03935,-1.64353 l -4.85175,-2.64536 -0.10144,-0.0461 c -0.30432,-0.14927 -0.67314,-0.35561 -1.05814,-0.61918 l -0.22535,-0.16887 c -1.04378,-0.7654 -1.75736,-1.63811 -1.84612,-2.75798 l -0.0115,-0.2363 v -41.02022 l 0.0346,-0.15792 c 0.13602,-0.66281 0.65705,-1.40584 1.63224,-2.08249 l 0.24783,-0.16887 c 0.13198,-0.0836 0.5095,-0.29855 1.1032,-0.64166 l 7.32823,-4.17632 8.42019,-4.7729 c 0.23226,-0.13026 0.58349,-0.29048 1.04688,-0.45014 0.73861,-0.25474 1.50245,-0.40805 2.2739,-0.42764 z"
       id="path54"
       style="stroke-width:5.76354" /><path
       d="m 240.05652,156.2652 c -0.36426,0.0173 -0.73635,0.0951 -1.11445,0.22536 l -0.22534,0.0789 c -0.0634,0.023 -0.11585,0.0461 -0.15735,0.0674 l -0.81047,0.45013 -15.82726,9.00553 c -0.0645,0.0404 -0.10662,0.0715 -0.13487,0.0899 -0.0894,0.0576 -0.16195,0.0992 -0.22535,0.14639 l -0.10145,0.0789 v 40.23224 l 0.0115,0.0115 c 0.0662,0.0853 0.16946,0.18386 0.30374,0.2928 l 0.1464,0.11238 c 0.26512,0.19423 0.53831,0.35273 0.73174,0.45013 l 0.22536,0.1124 3.35454,1.83487 c 1.5187,0.82707 3.04523,1.6584 4.54779,2.4653 l 3.64722,1.93615 2.04877,1.08066 c 0.43918,0.22939 0.86776,0.4484 1.28331,0.66419 l 0.50661,0.25878 c 2.10715,1.00286 3.00033,0.7899 3.51213,0.0115 0.13602,-0.20633 0.22363,-0.42996 0.27031,-0.58535 l 0.0231,-0.0674 v -58.13069 l -0.1464,-0.14639 c -0.21094,-0.19884 -0.42649,-0.34351 -0.65295,-0.45013 l -0.17982,-0.0789 c -0.31988,-0.11989 -0.67151,-0.16253 -1.03559,-0.1464 z"
       style="fill:#ffffff;fill-opacity:1;stroke-width:5.76354"
       id="path53" /><path
       d="m 215.0549,218.8424 -36.82143,20.52138 -0.023,0.15735 c -0.004,0.0289 -0.0115,0.0576 -0.0115,0.0899 l -0.0231,0.25878 c -0.0173,0.38674 -0.0593,1.60031 -0.10145,3.46712 l -0.22535,10.87419 -0.0789,4.24387 0.0115,0.24784 c 0.005,0.0767 0.023,0.15964 0.0346,0.25877 0.0519,0.41095 0.14236,0.82119 0.28126,1.18193 0.32334,0.83981 0.73699,1.22153 1.54215,1.19329 l 0.0789,-0.0115 53.27899,-29.71827 0.023,-0.0115 c 0.0576,-0.0519 0.12738,-0.13429 0.20289,-0.22536 l 0.0674,-0.0899 c 0.76079,-0.99997 0.57406,-1.90831 -2.03753,-3.43334 l -2.29636,-1.33957 -1.30584,-0.75421 c -1.60918,-0.92332 -3.29699,-1.87309 -5.00934,-2.83675 l -4.13125,-2.31891 -1.90242,-1.04689 -0.29279,-0.17983 c -0.11297,-0.064 -0.25129,-0.13717 -0.4167,-0.21382 -0.22708,-0.10489 -0.44553,-0.18789 -0.63036,-0.2363 l -0.22536,-0.0576 c -0.0115,-0.005 -0.005,-0.0115 0.0115,-0.023 z"
       id="path52"
       style="stroke-width:5.76354" /><path
       d="m 214.52581,215.49909 c 0.4144,-0.0461 0.84385,-0.0289 1.28331,0.0576 0.53889,0.10199 1.06822,0.29509 1.59846,0.54005 0.30202,0.14005 0.56483,0.27031 0.77669,0.39422 l 0.21384,0.13486 3.4221,1.90244 2.5891,1.45212 c 0.85992,0.48414 1.71442,0.96309 2.55533,1.44089 l 2.82551,1.62099 1.56468,0.90056 c 0.5948,0.34466 1.17479,0.68085 1.72232,1.00188 4.37568,2.55497 5.0249,5.73166 3.03935,8.34139 -0.31584,0.4144 -0.63254,0.73664 -0.90056,0.95681 l -0.12391,0.10145 -0.20287,0.13487 -53.72924,29.96592 -0.86679,-1.47466 0.27032,1.67725 c -2.78783,0.42881 -4.70749,-0.86684 -5.65099,-3.07312 l -0.10144,-0.24784 c -0.37405,-0.9723 -0.51584,-1.90877 -0.54004,-2.64534 l 0.0115,-1.06943 0.31526,-15.30941 c 0.0404,-1.58036 0.06,-2.52858 0.0789,-2.78044 0.0461,-0.63342 0.1758,-1.17692 0.37118,-1.63224 0.16887,-0.39192 0.37521,-0.68996 0.59664,-0.91185 l 0.13487,-0.12392 0.13486,-0.11239 37.41802,-20.85906 c 0.37694,-0.21267 0.7786,-0.33371 1.19323,-0.3827 z"
       style="fill:#ffffff;fill-opacity:1;stroke-width:5.76354"
       id="path51" /><path
       d="m 214.52581,215.49909 c -0.41439,0.0519 -0.81629,0.17002 -1.19323,0.38269 l -37.418,20.85908 -0.13488,0.11239 -0.13486,0.12391 c -0.22132,0.2219 -0.42765,0.51987 -0.59664,0.91184 -0.19539,0.45533 -0.32506,0.99883 -0.37117,1.63224 -0.0173,0.25187 -0.0404,1.20009 -0.0789,2.78045 l -0.31526,15.30941 -0.0115,1.06942 c 0.0231,0.73659 0.16657,1.67304 0.54005,2.64536 l 0.10145,0.24783 c 0.94349,2.20628 2.86315,3.50193 5.65098,3.07311 l -0.27031,-1.67724 0.86677,1.47466 53.72924,-29.96592 0.20289,-0.13487 0.12391,-0.10144 c 0.268,-0.22017 0.58472,-0.54235 0.90056,-0.9568 1.98553,-2.60973 1.33633,-5.78642 -3.03935,-8.34141 -0.54753,-0.32103 -1.12753,-0.65721 -1.72232,-1.00187 l -1.56468,-0.90055 -2.82553,-1.62101 c -0.8409,-0.47779 -1.6954,-0.95669 -2.55532,-1.44087 l -2.58909,-1.45213 -3.42212,-1.90243 -0.21382,-0.13487 c -0.2121,-0.12392 -0.47492,-0.25417 -0.77669,-0.39423 -0.53025,-0.24552 -1.05957,-0.43803 -1.59847,-0.54004 -0.43975,-0.083 -0.86868,-0.10543 -1.28331,-0.0576 z m 0.52909,3.34331 c -0.0173,0.0115 -0.023,0.0173 -0.0115,0.023 l 0.22536,0.0576 c 0.185,0.0461 0.40344,0.13141 0.63036,0.2363 0.1654,0.0767 0.30373,0.14986 0.41669,0.21384 l 0.2928,0.17981 1.90243,1.04689 4.13124,2.31891 c 1.71235,0.96366 3.40015,1.91344 5.00933,2.83676 l 1.30585,0.75422 2.29637,1.33956 c 2.61145,1.52502 2.79831,2.43336 2.03752,3.43334 l -0.0674,0.0899 c -0.0755,0.0911 -0.14525,0.17348 -0.20287,0.22535 l -0.0231,0.0115 -53.27899,29.71826 -0.0789,0.0115 c -0.80517,0.0289 -1.21882,-0.35331 -1.54215,-1.19329 -0.1389,-0.3608 -0.2294,-0.77099 -0.28126,-1.18193 -0.0115,-0.0991 -0.0289,-0.18212 -0.0346,-0.25878 l -0.0115,-0.24783 0.0789,-4.24388 0.22535,-10.87419 c 0.0404,-1.86681 0.0841,-3.08038 0.10145,-3.46711 l 0.0231,-0.25878 c 0,-0.0346 0.005,-0.0611 0.0115,-0.0899 l 0.0231,-0.15735 z"
       style="clip-rule:evenodd;fill:#002d5c;fill-rule:evenodd;stroke-width:5.76354"
       id="path50" /><path
       d="m 240.03398,152.86557 c -0.77144,0.0173 -1.53529,0.17349 -2.27389,0.42766 -0.46339,0.15966 -0.81462,0.31988 -1.04689,0.45014 l -8.42018,4.7729 -7.32823,4.17632 c -0.59365,0.34293 -0.97122,0.55791 -1.10321,0.64166 l -0.24782,0.16887 c -0.97519,0.67663 -1.49622,1.41967 -1.63224,2.08248 l -0.0346,0.15792 v 41.02023 l 0.0115,0.2363 c 0.0887,1.11986 0.80234,1.99258 1.84611,2.75797 l 0.22536,0.16888 c 0.385,0.26339 0.75382,0.46972 1.05812,0.61918 l 0.10145,0.0461 4.85175,2.64536 c 1.01783,0.55157 2.0336,1.10348 3.03935,1.64352 l 2.98309,1.58723 1.38457,0.73168 2.64542,1.39587 c 4.00681,2.08179 7.04707,1.51811 8.6453,-0.9118 0.50143,-0.76136 0.73698,-1.50301 0.82172,-2.0713 l 0.023,-0.23631 v -58.87487 h -1.75609 l 1.44089,-0.9681 -0.22536,-0.29279 c -0.75329,-0.9481 -1.65609,-1.61033 -2.67912,-1.99245 h -0.0115 c -0.77145,-0.2876 -1.54745,-0.4023 -2.3189,-0.3827 z m 0.023,3.39963 c 0.36425,-0.0173 0.71572,0.0289 1.03558,0.1464 l 0.17983,0.0789 c 0.22651,0.10661 0.44207,0.25129 0.65295,0.45013 l 0.1464,0.14639 v 58.13069 l -0.023,0.0674 c -0.0461,0.15561 -0.13429,0.37924 -0.2703,0.58535 -0.5118,0.77865 -1.40499,0.99161 -3.51214,-0.0115 l -0.50661,-0.25878 c -0.41555,-0.21556 -0.84413,-0.43457 -1.28331,-0.6642 l -2.04877,-1.08066 -3.64722,-1.93615 c -1.50257,-0.8069 -3.02909,-1.63822 -4.54779,-2.46529 l -3.35455,-1.83488 -0.22535,-0.11239 c -0.19308,-0.0975 -0.46685,-0.2559 -0.73174,-0.45014 l -0.1464,-0.11238 c -0.13429,-0.10893 -0.23745,-0.2075 -0.30374,-0.2928 l -0.0115,-0.0115 v -40.23221 l 0.10145,-0.0789 c 0.0634,-0.0461 0.13601,-0.0887 0.22535,-0.1464 0.0289,-0.0173 0.0703,-0.0519 0.13487,-0.0899 l 15.82726,-9.00554 0.81047,-0.45014 c 0.0404,-0.023 0.0939,-0.0461 0.15735,-0.0674 l 0.22535,-0.0789 c 0.37808,-0.13025 0.75029,-0.20863 1.11443,-0.22535 z"
       style="clip-rule:evenodd;fill:#002d5c;fill-rule:evenodd;stroke-width:5.76354"
       id="path49" /><path
       d="m 126.58678,217.18763 c 0.36195,-0.0346 0.70909,-0.005 1.00182,0.15734 3.79789,2.11407 37.28291,20.79159 37.28291,20.79159 l 0.0115,0.023 c 0.0801,0.0819 0.40979,0.4634 0.48414,1.48591 0.0819,1.05184 0.39537,18.25065 0.40517,18.78781 v 0.0461 c -0.005,0.41901 -0.17002,5.12205 -4.26635,4.49152 l -53.71799,-29.96593 c 0,0 -4.12791,-3.11507 1.84612,-6.60778 6.43441,-3.76878 14.67905,-8.33016 14.67905,-8.33016 0,0 1.18873,-0.76684 2.27389,-0.87801 z"
       style="clip-rule:evenodd;fill:#002d5c;fill-rule:evenodd;stroke-width:5.76354"
       id="path48" /><path
       d="m 102.1142,154.57666 c -1.25339,-0.10435 -2.814509,0.22017 -4.041217,1.9249 l 0.01152,58.87372 c 0.02886,0.16311 0.82972,4.85907 6.889217,1.71103 6.52711,-3.38782 14.64228,-7.84199 14.91548,-7.99242 l 0.0576,-0.0346 c 0.35907,-0.17406 2.25142,-1.13732 2.25142,-2.29637 v -40.85136 -0.0115 c -0.0173,-0.0582 -0.17118,-0.54696 -1.11444,-1.14821 -0.92441,-0.58615 -16.7616,-9.53458 -16.7616,-9.53458 v -0.0115 c 0,0 -0.95294,-0.52621 -2.20633,-0.63036 z"
       style="clip-rule:evenodd;fill:#002d5c;fill-rule:evenodd;stroke-width:5.76354"
       id="path47" /><path
       d="m 161.50571,109.16623 -53.71799,29.96592 h -0.0115 c -0.1314,0.10145 -4.01713,3.17963 1.85736,6.61908 6.43442,3.76365 14.69029,8.31887 14.69029,8.31887 0,0 2.09337,1.37518 3.26447,0.72044 3.79789,-2.1173 37.28291,-20.79152 37.28291,-20.79152 0,0 0.4098,-0.34351 0.49509,-1.50843 0.0819,-1.05156 0.40518,-18.25066 0.41671,-18.78782 v -0.0346 c -0.005,-0.41959 -0.18155,-5.13624 -4.27765,-4.50277 z"
       style="clip-rule:evenodd;fill:#002d5c;fill-rule:evenodd;stroke-width:5.76354"
       id="path46" /><path
       d="m 178.93144,109.16623 c -2.77652,0.4824 -2.91053,4.13562 -2.91554,4.50277 v 0.0461 c 0.0115,0.53716 0.33832,17.72503 0.4167,18.77659 0.0893,1.16487 0.49509,1.50843 0.49509,1.50843 0,0 33.47782,18.68547 37.28291,20.80276 1.16424,0.65473 3.26453,-0.73169 3.26453,-0.73169 0,0 8.26337,-4.55521 14.6903,-8.31886 5.9814,-3.49778 1.84611,-6.61908 1.84611,-6.61908 l -53.718,-29.95463 c -0.51238,-0.0789 -0.96545,-0.0801 -1.3621,-0.0115 z"
       style="clip-rule:evenodd;fill:#002d5c;fill-rule:evenodd;stroke-width:5.76354"
       id="path45" /></g></svg>
