<svg width="256" height="256" viewBox="0 0 256 256" fill="none" xmlns="http://www.w3.org/2000/svg">
<path fill-rule="evenodd" clip-rule="evenodd" d="M104.425 42.3784C100.056 37.0733 93.5437 34 86.6712 34H29C22.3726 34 17 39.3726 17 46V58.1371V68.2V160C17 166.627 22.3726 172 29 172H229C235.627 172 241 166.627 241 160V70.1371C241 63.5097 235.627 58.1371 229 58.1371H117.404L104.425 42.3784Z" fill="#01C1CC"/>
<mask id="mask0_862_21504" style="mask-type:alpha" maskUnits="userSpaceOnUse" x="17" y="34" width="224" height="138">
<path fill-rule="evenodd" clip-rule="evenodd" d="M104.425 42.3784C100.056 37.0733 93.5437 34 86.6712 34H29C22.3726 34 17 39.3726 17 46V58.1371V68.2V160C17 166.627 22.3726 172 29 172H229C235.627 172 241 166.627 241 160V70.1371C241 63.5097 235.627 58.1371 229 58.1371H117.404L104.425 42.3784Z" fill="url(#paint0_linear_862_21504)"/>
</mask>
<g mask="url(#mask0_862_21504)">
<g style="mix-blend-mode:multiply" filter="url(#filter0_f_862_21504)">
<path fill-rule="evenodd" clip-rule="evenodd" d="M92.789 74C97.7642 74 102.605 72.3868 106.586 69.4024L116.459 62H229C235.627 62 241 67.3726 241 74V108V160C241 166.627 235.627 172 229 172H29C22.3726 172 17 166.627 17 160L17 108V86C17 79.3726 22.3726 74 29 74H87H92.789Z" fill="black" fill-opacity="0.3"/>
</g>
</g>
<g filter="url(#filter1_d_862_21504)">
<g filter="url(#filter2_ii_862_21504)">
<path fill-rule="evenodd" clip-rule="evenodd" d="M92.789 74C97.7642 74 102.605 72.3868 106.586 69.4024L116.459 62H229C235.627 62 241 67.3726 241 74V108V198C241 204.627 235.627 210 229 210H29C22.3726 210 17 204.627 17 198L17 108V86C17 79.3726 22.3726 74 29 74H87H92.789Z" fill="url(#paint1_linear_862_21504)"/>
</g>
</g>
<path fill-rule="evenodd" clip-rule="evenodd" d="M218.597 146.643C218.29 146.643 218.01 146.842 217.865 147.258C216.011 152.548 213.506 155.695 211.445 155.695C210.26 155.695 209.781 154.375 209.781 152.304C209.781 147.123 212.882 136.136 214.447 131.126C214.628 130.52 214.745 129.978 214.745 129.516C214.745 128.06 213.949 127.346 211.978 127.346C209.853 127.346 207.565 128.178 205.341 132.075C204.572 128.639 202.248 127.138 199.002 127.138C195.249 127.138 191.623 129.553 188.639 133.468C185.655 137.384 182.146 138.668 179.506 138.035C181.405 133.387 182.11 129.914 182.11 127.337C182.11 123.295 180.112 120.853 176.883 120.853C171.973 120.853 169.143 125.538 169.143 130.466C169.143 134.273 170.87 138.188 174.668 140.087C171.485 147.285 166.837 153.796 165.074 153.796C162.795 153.796 162.126 142.646 162.252 134.671C162.334 130.095 162.713 129.86 162.713 128.476C162.713 127.681 162.198 127.138 160.127 127.138C155.298 127.138 153.806 131.225 153.58 135.919C153.507 137.702 153.228 139.471 152.748 141.191C150.732 148.389 146.572 153.85 143.859 153.85C142.602 153.85 142.259 152.593 142.259 150.948C142.259 145.766 145.162 139.292 145.162 133.766C145.162 129.706 143.38 127.138 140.025 127.138C136.074 127.138 130.847 131.84 125.901 140.648C127.528 133.902 128.197 127.373 123.378 127.373C122.332 127.389 121.305 127.656 120.384 128.151C120.075 128.296 119.817 128.53 119.643 128.823C119.468 129.117 119.387 129.456 119.408 129.797C119.869 136.977 113.621 155.37 107.698 155.37C106.621 155.37 106.097 154.203 106.097 152.322C106.097 147.132 109.19 136.172 110.745 131.153C110.944 130.502 111.052 129.941 111.052 129.453C111.052 128.079 110.202 127.373 108.276 127.373C106.16 127.373 103.863 128.178 101.648 132.075C100.87 128.639 98.5463 127.138 95.3 127.138C89.9738 127.138 84.0237 132.772 81.4104 140.114C77.9108 149.917 70.8575 159.384 61.3626 159.384C52.7449 159.384 48.1964 152.214 48.1964 140.883C48.1964 124.525 60.2052 111.16 69.1123 111.16C73.3714 111.16 75.406 113.872 75.406 118.032C75.406 123.069 72.5937 125.411 72.5937 127.328C72.5937 127.916 73.082 128.495 74.0496 128.495C77.9199 128.495 82.4774 123.946 82.4774 117.743C82.4774 111.539 77.4406 107 68.5335 107C53.812 107 39 121.812 39 140.793C39 155.894 46.4512 165 59.3371 165C68.1266 165 75.8039 158.164 79.9454 150.188C80.4157 156.798 83.4178 160.253 87.9935 160.253C92.0627 160.253 95.3542 157.829 97.8681 153.57C98.8357 158.028 101.404 160.207 104.741 160.207C108.566 160.207 111.767 157.784 114.814 153.281C114.769 156.816 115.574 160.144 118.639 160.144C120.086 160.144 121.813 159.809 122.121 158.544C125.349 145.196 133.325 134.3 135.766 134.3C136.49 134.3 136.688 134.996 136.688 135.819C136.688 139.445 134.129 146.878 134.129 151.626C134.129 156.753 136.309 160.144 140.812 160.144C145.804 160.144 150.877 154.031 154.258 145.097C155.316 153.443 157.604 160.18 161.185 160.18C165.58 160.18 173.384 150.93 178.113 141.136C179.967 141.371 182.752 141.308 185.429 139.418C184.289 142.303 183.62 145.459 183.62 148.615C183.62 157.703 187.961 160.253 191.695 160.253C195.756 160.253 199.047 157.829 201.57 153.57C202.402 157.413 204.527 160.198 208.433 160.198C214.546 160.198 219.854 153.95 219.854 148.823C219.854 147.466 219.276 146.643 218.597 146.643ZM88.2828 149.022C88.2828 152.729 89.2504 155.216 91.7191 155.216C95.9601 155.216 100.147 143.695 100.147 137.157C100.147 134.228 99.3782 131.831 97.3436 131.831C92.6866 131.831 88.2828 142.583 88.2828 149.022ZM174.27 129.733C174.27 131.858 174.804 134.246 176.278 136C176.938 134.074 177.878 130.231 177.878 127.599C177.878 126.026 177.525 124.896 176.377 124.896C175.229 124.896 174.27 127.111 174.27 129.733ZM191.985 149.022C191.985 152.358 192.952 155.216 195.421 155.216C199.725 155.216 203.84 143.695 203.84 137.157C203.84 134.21 203.116 131.831 201.082 131.831C196.389 131.831 191.985 142.809 191.985 149.022Z" fill="white"/>
<defs>
<filter id="filter0_f_862_21504" x="-20" y="25" width="298" height="184" filterUnits="userSpaceOnUse" color-interpolation-filters="sRGB">
<feFlood flood-opacity="0" result="BackgroundImageFix"/>
<feBlend mode="normal" in="SourceGraphic" in2="BackgroundImageFix" result="shape"/>
<feGaussianBlur stdDeviation="18.5" result="effect1_foregroundBlur_862_21504"/>
</filter>
<filter id="filter1_d_862_21504" x="13" y="62" width="232" height="156" filterUnits="userSpaceOnUse" color-interpolation-filters="sRGB">
<feFlood flood-opacity="0" result="BackgroundImageFix"/>
<feColorMatrix in="SourceAlpha" type="matrix" values="0 0 0 0 0 0 0 0 0 0 0 0 0 0 0 0 0 0 127 0" result="hardAlpha"/>
<feOffset dy="4"/>
<feGaussianBlur stdDeviation="2"/>
<feComposite in2="hardAlpha" operator="out"/>
<feColorMatrix type="matrix" values="0 0 0 0 0 0 0 0 0 0 0 0 0 0 0 0 0 0 0.25 0"/>
<feBlend mode="normal" in2="BackgroundImageFix" result="effect1_dropShadow_862_21504"/>
<feBlend mode="normal" in="SourceGraphic" in2="effect1_dropShadow_862_21504" result="shape"/>
</filter>
<filter id="filter2_ii_862_21504" x="17" y="62" width="224" height="148" filterUnits="userSpaceOnUse" color-interpolation-filters="sRGB">
<feFlood flood-opacity="0" result="BackgroundImageFix"/>
<feBlend mode="normal" in="SourceGraphic" in2="BackgroundImageFix" result="shape"/>
<feColorMatrix in="SourceAlpha" type="matrix" values="0 0 0 0 0 0 0 0 0 0 0 0 0 0 0 0 0 0 127 0" result="hardAlpha"/>
<feOffset dy="4"/>
<feComposite in2="hardAlpha" operator="arithmetic" k2="-1" k3="1"/>
<feColorMatrix type="matrix" values="0 0 0 0 1 0 0 0 0 1 0 0 0 0 1 0 0 0 0.25 0"/>
<feBlend mode="normal" in2="shape" result="effect1_innerShadow_862_21504"/>
<feColorMatrix in="SourceAlpha" type="matrix" values="0 0 0 0 0 0 0 0 0 0 0 0 0 0 0 0 0 0 127 0" result="hardAlpha"/>
<feOffset dy="-4"/>
<feComposite in2="hardAlpha" operator="arithmetic" k2="-1" k3="1"/>
<feColorMatrix type="matrix" values="0 0 0 0 0 0 0 0 0 0 0 0 0 0 0 0 0 0 0.9 0"/>
<feBlend mode="soft-light" in2="effect1_innerShadow_862_21504" result="effect2_innerShadow_862_21504"/>
</filter>
<linearGradient id="paint0_linear_862_21504" x1="17" y1="34" x2="197.768" y2="215.142" gradientUnits="userSpaceOnUse">
<stop stop-color="#05815D"/>
<stop offset="1" stop-color="#0C575F"/>
</linearGradient>
<linearGradient id="paint1_linear_862_21504" x1="59.5" y1="82.5" x2="268.951" y2="150.856" gradientUnits="userSpaceOnUse">
<stop stop-color="#01C2CC"/>
<stop offset="0.251272" stop-color="#16A2D7"/>
<stop offset="0.412737" stop-color="#2A82DE"/>
<stop offset="0.677879" stop-color="#4F55E7"/>
<stop offset="1" stop-color="#7D2AE7"/>
</linearGradient>
</defs>
</svg>
