<svg width="256" height="256" viewBox="0 0 256 256" fill="none" xmlns="http://www.w3.org/2000/svg">
<g clip-path="url(#clip0_2031_34719)">
<path fill-rule="evenodd" clip-rule="evenodd" d="M104.425 42.3784C100.056 37.0733 93.5437 34 86.6712 34H29C22.3726 34 17 39.3726 17 46V58.1371V68.2V160C17 166.627 22.3726 172 29 172H229C235.627 172 241 166.627 241 160V70.1371C241 63.5097 235.627 58.1371 229 58.1371H117.404L104.425 42.3784Z" fill="#E6E6E6"/>
<mask id="mask0_2031_34719" style="mask-type:alpha" maskUnits="userSpaceOnUse" x="17" y="34" width="224" height="138">
<path fill-rule="evenodd" clip-rule="evenodd" d="M104.425 42.3784C100.056 37.0733 93.5437 34 86.6712 34H29C22.3726 34 17 39.3726 17 46V58.1371V68.2V160C17 166.627 22.3726 172 29 172H229C235.627 172 241 166.627 241 160V70.1371C241 63.5097 235.627 58.1371 229 58.1371H117.404L104.425 42.3784Z" fill="url(#paint0_linear_2031_34719)"/>
</mask>
<g mask="url(#mask0_2031_34719)">
<g style="mix-blend-mode:multiply" filter="url(#filter0_f_2031_34719)">
<path fill-rule="evenodd" clip-rule="evenodd" d="M92.789 74C97.7642 74 102.605 72.3868 106.586 69.4024L116.459 62H229C235.627 62 241 67.3726 241 74V108V160C241 166.627 235.627 172 229 172H29C22.3726 172 17 166.627 17 160L17 108V86C17 79.3726 22.3726 74 29 74H87H92.789Z" fill="black" fill-opacity="0.3"/>
</g>
</g>
<g filter="url(#filter1_ii_2031_34719)">
<path fill-rule="evenodd" clip-rule="evenodd" d="M92.789 74C97.7642 74 102.605 72.3868 106.586 69.4024L116.459 62H229C235.627 62 241 67.3726 241 74V108V198C241 204.627 235.627 210 229 210H29C22.3726 210 17 204.627 17 198L17 108V86C17 79.3726 22.3726 74 29 74H87H92.789Z" fill="url(#paint1_linear_2031_34719)"/>
</g>
<path d="M82.0365 159.711C83.0386 159.711 83.9879 159.948 84.4631 160.423C84.5422 161.162 83.8824 162.348 83.4605 162.348C82.9594 162.164 82.4848 162.058 81.9046 162.058C79.505 162.058 78.3178 164.537 78.3178 166.99C78.3178 168.519 78.8452 169.442 80.0588 169.442C81.3509 169.442 82.6694 168.572 83.4077 167.913C83.5923 168.044 83.8296 168.467 83.8296 168.941C83.8296 169.469 83.6714 169.97 83.1968 170.444C82.3529 171.288 80.929 172 78.8716 172C76.4982 172 74.8633 170.655 74.8633 167.517C74.8633 163.403 77.5794 159.711 82.0101 159.711H82.0365Z" fill="white"/>
<path d="M89.7852 169.31C91.0773 169.31 93.4248 167.042 94.0841 162.718C94.1104 162.454 94.1368 162.375 94.1895 162.111C93.8994 162.005 93.5039 161.926 93.1078 161.926C92.1321 161.926 91.1301 162.217 90.2335 163.429C89.3105 164.721 88.915 166.33 88.915 167.623C88.915 168.729 89.2314 169.31 89.7588 169.31H89.7852ZM85.5391 168.124C85.5391 166.568 86.0665 163.851 88.0447 161.874C89.7324 160.133 91.7893 159.711 93.6621 159.711C94.9016 159.711 96.5892 160.106 97.644 160.318C97.3803 161.478 96.7474 165.855 96.4573 168.387C96.3255 169.469 96.2727 170.972 96.3255 171.526C95.4553 171.895 93.8204 172 93.3715 172C93.1347 172 93.0815 170.919 93.1611 169.891C93.1869 169.548 93.2402 169.047 93.266 168.836C92.2376 170.55 90.2071 172 88.0711 172C86.5417 172 85.5391 170.734 85.5391 168.15V168.124Z" fill="white"/>
<path d="M104.211 159.711C105.292 159.711 106.321 160.107 106.796 160.607C106.77 161.347 106.19 162.585 105.266 162.242C104.871 162.11 104.475 162.005 103.948 162.005C103.236 162.005 102.629 162.322 102.629 162.981C102.629 163.482 102.998 163.851 104.765 165.091C106.031 166.014 106.532 166.831 106.532 167.991C106.532 169.917 104.712 172 101.548 172C100.256 172 99.1213 171.499 98.7521 170.972C98.2775 170.181 98.6467 168.625 99.1746 168.888C99.8602 169.231 100.994 169.601 101.917 169.601C102.787 169.601 103.341 169.204 103.341 168.677C103.341 168.229 102.946 167.833 101.337 166.699C99.9915 165.698 99.5696 164.774 99.5696 163.72C99.5696 161.531 101.442 159.711 104.185 159.711H104.211Z" fill="white"/>
<path d="M113.309 159.711C114.39 159.711 115.418 160.107 115.893 160.607C115.867 161.347 115.287 162.585 114.364 162.242C113.968 162.11 113.572 162.005 113.045 162.005C112.333 162.005 111.727 162.322 111.727 162.981C111.727 163.482 112.096 163.851 113.863 165.091C115.128 166.014 115.63 166.831 115.63 167.991C115.63 169.917 113.809 172 110.645 172C109.353 172 108.219 171.499 107.85 170.972C107.375 170.181 107.744 168.625 108.272 168.888C108.957 169.231 110.091 169.601 111.014 169.601C111.885 169.601 112.438 169.204 112.438 168.677C112.438 168.229 112.043 167.833 110.434 166.699C109.089 165.698 108.667 164.774 108.667 163.72C108.667 161.531 110.54 159.711 113.283 159.711H113.309Z" fill="white"/>
<path d="M121.613 169.31C122.906 169.31 125.253 167.042 125.912 162.718C125.938 162.454 125.965 162.375 126.018 162.111C125.727 162.005 125.333 161.926 124.937 161.926C123.961 161.926 122.959 162.217 122.062 163.429C121.14 164.721 120.743 166.33 120.743 167.623C120.743 168.729 121.06 169.31 121.588 169.31H121.613ZM117.367 168.124C117.367 166.568 117.895 163.851 119.873 161.874C121.561 160.133 123.618 159.711 125.491 159.711C126.73 159.711 128.418 160.106 129.473 160.318C129.209 161.478 128.576 165.855 128.286 168.387C128.154 169.469 128.102 170.972 128.154 171.526C127.283 171.895 125.649 172 125.2 172C124.964 172 124.91 170.919 124.989 169.891C125.016 169.548 125.069 169.047 125.095 168.836C124.067 170.55 122.036 172 119.9 172C118.37 172 117.367 170.734 117.367 168.15V168.124Z" fill="white"/>
<path d="M135.429 163.139C136.643 161.188 138.224 159.711 140.44 159.711C142.312 159.711 142.919 161.451 142.577 163.93C142.392 165.091 142.075 166.752 141.864 168.282C141.68 169.574 141.548 170.734 141.575 171.526C140.889 171.869 138.885 172.001 138.436 172.001C138.251 172.001 138.224 170.55 138.462 169.02C138.673 167.755 139.121 165.46 139.332 164.141C139.465 163.377 139.438 162.453 138.7 162.453C137.723 162.453 135.404 164.01 134.243 170.391C134.163 170.919 133.953 171.235 133.662 171.42C133.267 171.658 132.423 171.869 130.709 171.895C131.026 170.287 131.527 166.99 131.896 164.564C132.238 162.348 132.37 160.924 132.291 160.37C132.74 160.212 135.087 159.711 135.35 159.711C135.641 159.711 135.693 160.529 135.429 162.507C135.404 162.691 135.377 162.981 135.35 163.139H135.429Z" fill="white"/>
<path d="M148.829 169.285C149.988 169.285 152.336 167.122 152.995 163.298C153.022 163.087 153.101 162.692 153.154 162.454C152.81 162.137 152.362 161.926 151.651 161.926C148.986 161.926 147.8 165.118 147.8 167.412C147.8 168.652 148.222 169.285 148.802 169.285H148.829ZM147.088 172.001C145.4 172.001 144.346 170.498 144.346 167.914C144.346 163.641 147.008 159.712 151.492 159.712C152.283 159.712 152.995 159.922 153.443 160.186C153.681 158.973 154.234 155.228 154.261 154.12C154.999 153.989 156.581 153.752 157.293 153.752C157.585 153.752 157.664 154.042 157.558 154.7C156.924 158.656 155.791 166.252 155.58 167.94C155.421 169.364 155.395 170.761 155.421 171.552C154.578 171.922 152.863 172.001 152.415 172.001C152.23 172.001 152.125 170.788 152.178 169.707C152.204 169.364 152.256 168.862 152.256 168.783C150.938 170.946 149.118 172.001 147.114 172.001H147.088Z" fill="white"/>
<path d="M162.541 163.509C163.939 160.396 165.599 159.711 166.681 159.711C167.024 159.711 167.551 159.922 167.788 160.186C167.895 161.056 167.209 162.796 166.602 163.455C166.285 163.297 165.89 163.139 165.442 163.139C164.544 163.139 162.777 164.537 161.67 170.55C161.59 171.051 161.433 171.262 161.143 171.394C160.695 171.658 158.928 171.869 158.084 171.895C158.478 169.732 159.164 165.328 159.429 162.743C159.508 162.084 159.534 160.871 159.482 160.396C159.982 160.159 161.961 159.711 162.409 159.711C162.646 159.711 162.831 161.162 162.461 163.509H162.541Z" fill="white"/>
<path d="M171.848 169.31C173.141 169.31 175.487 167.042 176.147 162.718C176.173 162.454 176.2 162.375 176.253 162.111C175.962 162.005 175.567 161.926 175.171 161.926C174.195 161.926 173.193 162.217 172.296 163.429C171.373 164.721 170.977 166.33 170.977 167.623C170.977 168.729 171.294 169.31 171.822 169.31H171.848ZM167.602 168.124C167.602 166.568 168.129 163.851 170.107 161.874C171.795 160.133 173.852 159.711 175.724 159.711C176.964 159.711 178.651 160.106 179.707 160.318C179.443 161.478 178.81 165.855 178.52 168.387C178.388 169.469 178.335 170.972 178.388 171.526C177.518 171.895 175.883 172 175.434 172C175.197 172 175.145 170.919 175.224 169.891C175.25 169.548 175.302 169.047 175.329 168.836C174.3 170.55 172.27 172 170.134 172C168.604 172 167.602 170.734 167.602 168.15V168.124Z" fill="white"/>
<path d="M164.104 115.021C164.974 125.158 149.021 134.806 128.472 136.57C107.923 138.332 90.5594 131.542 89.6902 121.406C88.82 111.267 104.773 101.619 125.322 99.8565C145.871 98.0942 163.234 104.883 164.104 115.021Z" fill="#BBE6FB"/>
<g opacity="0.350006">
<g opacity="0.350006">
<path opacity="0.350006" d="M125.924 101.047C118.086 100.919 108.914 104.032 102.089 106.946C101.378 108.993 100.996 111.17 100.996 113.427C100.996 125.452 111.854 135.201 125.248 135.201C138.642 135.201 149.5 125.452 149.5 113.427C149.5 109.621 148.411 106.046 146.499 102.933C141.039 102.085 133.529 101.17 125.924 101.047Z" fill="white"/>
</g>
</g>
<path d="M125.247 101.043C120.908 100.778 113.428 103.042 107.191 105.3C106.243 107.537 105.717 109.984 105.717 112.553C105.717 123.089 115.269 131.629 125.374 131.629C135.413 131.629 144.295 123.075 145.032 112.553C145.272 109.126 144.093 105.897 142.455 103.114C135.989 101.975 129.126 101.279 125.247 101.043Z" fill="white"/>
<path d="M114.114 111.17C114.646 109.991 115.453 109.414 116.234 108.425C116.147 108.191 115.958 107.426 115.958 107.161C115.958 105.976 116.918 105.015 118.103 105.015C118.383 105.015 118.65 105.07 118.894 105.167C122.446 102.461 127.122 101.281 131.82 102.331C132.25 102.428 132.671 102.545 133.084 102.673C128.44 102.029 123.206 103.674 119.645 106.548C119.753 106.805 120.055 107.538 120.055 107.833C120.055 109.018 119.288 109.306 118.103 109.306C117.834 109.306 117.577 109.255 117.339 109.164C116.535 110.244 115.549 112.302 115.067 113.588C117.035 115.349 118.815 115.987 121.133 116.854C121.127 116.743 121.213 116.641 121.213 116.529C121.213 112.956 124.358 110.052 127.931 110.052C131.133 110.052 133.784 112.381 134.301 115.435C135.899 114.419 137.444 113.64 138.621 112.133C138.347 111.798 138.051 110.85 138.051 110.383C138.051 109.307 138.923 108.436 139.998 108.436C140.15 108.436 140.297 108.458 140.438 108.491C141.037 107.262 141.487 105.96 141.776 104.617C136.189 100.481 125.379 101.045 125.379 101.045C125.379 101.045 116.777 100.597 110.953 103.435C111.342 106.243 112.462 108.912 114.114 111.17Z" fill="white"/>
<path d="M140.819 109.557C141.214 109.913 141.43 110.226 141.6 110.53C142.122 111.469 141.074 112.329 139.998 112.329C139.889 112.329 139.784 112.314 139.679 112.297C138.468 114.19 136.346 116.617 134.461 117.84C137.351 118.313 140.076 119.47 142.246 121.259C143.825 118.43 145.037 114.343 145.037 110.872C145.037 108.23 143.87 106.294 142.11 104.873C142.017 106.288 141.262 108.268 140.819 109.557Z" fill="white"/>
<path d="M117.356 127.482C118.32 124.823 120.688 122.762 122.929 120.949C122.601 120.5 122.109 119.389 121.904 118.862C119.171 118.032 116.753 116.476 114.877 114.416C114.864 114.476 114.847 114.534 114.832 114.594C114.479 116.176 114.415 117.763 114.59 119.31C115.899 119.554 116.89 120.7 116.89 122.08C116.89 122.898 116.172 124.083 115.616 124.599C116.221 125.904 116.633 126.534 117.356 127.482Z" fill="white"/>
<path d="M117.184 129.716C116.035 128.574 115.241 126.296 114.495 124.865C114.356 124.886 114.213 124.901 114.067 124.901C112.509 124.901 110.877 123.594 111.246 122.081C111.45 121.243 112.028 120.696 112.969 120.239C112.755 118.505 112.696 116.011 113.099 114.208C113.215 113.692 113.459 113.451 113.621 112.96C111.902 110.444 110.791 107.142 110.791 103.866C110.791 103.747 110.797 103.628 110.8 103.51C107.895 104.967 105.717 107.262 105.717 110.875C105.717 118.867 110.32 126.708 117.169 129.781C117.174 129.759 117.178 129.737 117.184 129.716Z" fill="white"/>
<path d="M134.029 118.664C133.143 121.181 130.75 122.989 127.93 122.989C126.422 122.989 125.038 122.469 123.938 121.604C121.671 123.37 119.614 126.472 118.568 129.162C119.038 129.667 119.365 130.083 119.891 130.531C121.477 130.943 123.661 130.531 125.378 130.531C132.284 130.531 138.4 127.459 141.907 122.071C139.575 120.457 136.824 118.92 134.029 118.664Z" fill="white"/>
<path d="M113.937 112.105C114.469 110.926 115.137 109.835 115.917 108.847C115.831 108.614 115.78 108.361 115.78 108.096C115.78 106.912 116.74 105.95 117.926 105.95C118.205 105.95 118.472 106.006 118.716 106.103C122.268 103.396 126.944 102.216 131.643 103.267C132.072 103.363 132.493 103.48 132.906 103.609C128.262 102.965 123.464 104.388 119.904 107.263C120.012 107.519 120.072 107.801 120.072 108.096C120.072 109.281 119.11 110.242 117.926 110.242C117.656 110.242 117.399 110.19 117.161 110.1C116.357 111.18 115.699 112.373 115.217 113.66C116.908 115.482 118.983 116.923 121.301 117.789C121.296 117.679 121.285 117.569 121.285 117.457C121.285 113.884 124.18 110.988 127.753 110.988C130.955 110.988 133.606 113.316 134.124 116.371C135.722 115.354 137.141 114.049 138.318 112.543C138.043 112.208 137.873 111.785 137.873 111.318C137.873 110.243 138.745 109.371 139.82 109.371C139.973 109.371 140.119 109.393 140.261 109.426C140.859 108.198 141.309 106.896 141.598 105.553C136.011 101.417 125.201 101.981 125.201 101.981C125.201 101.981 116.599 101.532 110.775 104.37C111.164 107.178 112.284 109.848 113.937 112.105Z" fill="#1287B1"/>
<path d="M141.12 109.879C141.515 110.235 141.768 110.746 141.768 111.319C141.768 112.394 140.896 113.267 139.821 113.267C139.712 113.267 139.606 113.252 139.501 113.234C138.29 115.127 136.685 116.741 134.799 117.963C137.585 118.399 140.208 119.581 142.376 121.37C143.956 118.54 144.859 115.281 144.859 111.81C144.859 109.168 143.692 107.231 141.931 105.811C141.839 107.226 141.562 108.59 141.12 109.879Z" fill="#1287B1"/>
<path d="M117.653 128.123C118.616 125.464 120.29 123.077 122.53 121.265C122.203 120.815 121.932 120.325 121.727 119.798C118.993 118.967 116.576 117.411 114.7 115.352C114.687 115.412 114.669 115.47 114.655 115.53C114.301 117.112 114.236 118.698 114.413 120.246C115.721 120.489 116.712 121.636 116.712 123.016C116.712 123.833 116.361 124.569 115.804 125.085C116.309 126.155 116.93 127.175 117.653 128.123Z" fill="#1287B1"/>
<path d="M117.178 129.68C116.029 128.539 115.065 127.226 114.32 125.797C114.18 125.818 114.037 125.833 113.891 125.833C112.334 125.833 111.07 124.569 111.07 123.012C111.07 121.896 111.721 120.933 112.662 120.476C112.448 118.742 112.521 116.942 112.924 115.139C113.04 114.624 113.18 114.121 113.342 113.629C111.623 111.114 110.616 108.073 110.616 104.797C110.616 104.678 110.622 104.56 110.624 104.441C107.719 105.898 105.541 108.194 105.541 111.806C105.541 119.799 110.314 126.672 117.163 129.746C117.168 129.724 117.172 129.702 117.178 129.68Z" fill="#1287B1"/>
<path d="M133.852 119.6C132.967 122.117 130.574 123.925 127.754 123.925C126.245 123.925 124.862 123.405 123.762 122.54C121.494 124.306 119.783 126.713 118.738 129.404C119.207 129.909 119.708 130.384 120.234 130.832C121.821 131.245 123.485 131.466 125.202 131.466C132.107 131.466 138.178 127.901 141.685 122.514C139.353 120.899 136.648 119.856 133.852 119.6Z" fill="#1287B1"/>
<path d="M134.077 117.93L140.054 116.504L134.054 116.198L138.936 112.467L133.396 114.453L137.162 109.236L131.961 112.692L133.78 106.584L130.209 111.618L130.127 105.257L127.778 110.923L125.818 105.189L125.925 111.944L122.539 105.889L124.371 112.318L118.879 108.324L123.181 113.73L116.363 111.223L121.744 115.204L114.844 115.416L121.899 117.237L114.838 118.763L121.808 119.269L115.93 123.033L121.982 120.838L117.783 126.157L123.09 121.877L121.178 129.014L125.275 123.206L124.701 130.066L127.026 123.847L129.006 130.383L129.487 123.828L132.425 129.421L130.69 123.023L136.07 127.191L132.596 121.877L138.499 124.177L133.985 119.742L140.038 120.217L134.077 117.93Z" fill="white"/>
<g opacity="0.350006">
<g opacity="0.350006">
<path opacity="0.350006" d="M70.4453 129.371C88.9813 110.836 103.785 105.114 117.221 102.502C118.998 102.156 119.334 98.2713 119.334 98.2713C119.334 98.2713 119.584 101.132 120.828 101.505C122.072 101.879 123.689 97.027 123.689 97.027C123.689 97.027 122.196 101.381 123.689 101.63C125.182 101.879 127.918 97.4006 127.918 97.4006C127.918 97.4006 126.799 101.257 127.546 101.505C128.291 101.754 132.023 95.9079 132.023 95.9079C132.023 95.9079 129.784 99.764 131.899 100.138C134.014 100.511 137.1 97.5055 137.1 97.5055C137.1 97.5055 134.674 100.255 135.755 100.635C140.358 102.253 144.083 96.2699 144.083 96.2699C144.083 96.2699 143.22 98.8932 140.981 101.754C145.832 102.998 149.435 95.6898 149.435 95.6898L145.832 102.998C147.698 103.994 155.163 95.4102 155.163 95.4102C155.163 95.4102 151.306 102.128 149.067 103.496C150.31 104.491 154.789 100.511 154.789 100.511C154.789 100.511 151.182 104.989 152.55 105.237C154.541 106.855 161.879 96.9028 161.879 96.9028C161.879 96.9028 159.019 102.749 154.789 107.353C158.325 109.121 167.105 97.7736 167.105 97.7736C167.105 97.7736 166.856 101.381 160.511 107.104C165.239 106.482 171.335 97.5247 171.335 97.5247C171.335 97.5247 169.095 104.242 163.746 108.969C168.387 108.486 175.812 97.027 175.812 97.027C175.812 97.027 172.951 104.989 167.105 109.592C173.574 111.022 182.904 101.381 182.904 101.381C182.904 101.381 179.234 108.224 174.444 111.022C179.794 113.075 187.134 104.616 187.134 104.616C187.134 104.616 179.794 115.937 168.1 115.439C164.264 115.276 152.658 103.799 127.794 104.74C94.9524 105.985 87.9863 119.917 70.4453 129.371Z" fill="white"/>
</g>
</g>
<path d="M71.2109 127.96C89.7468 109.425 104.55 103.703 117.986 101.09C119.764 100.745 120.101 96.8606 120.101 96.8606C120.101 96.8606 120.348 99.7223 121.594 100.095C122.837 100.468 124.454 95.6168 124.454 95.6168C124.454 95.6168 122.961 99.9712 124.454 100.219C125.947 100.468 128.684 95.9898 128.684 95.9898C128.684 95.9898 127.564 99.8459 128.31 100.095C129.057 100.344 132.788 94.4966 132.788 94.4966C132.788 94.4966 130.55 98.3533 132.665 98.7263C134.779 99.0999 137.865 96.0948 137.865 96.0948C137.865 96.0948 135.439 98.8444 136.52 99.224C141.124 100.841 144.848 94.8592 144.848 94.8592C144.848 94.8592 143.984 97.4825 141.746 100.344C146.597 101.588 150.2 94.2785 150.2 94.2785L146.597 101.588C148.464 102.583 155.927 94 155.927 94C155.927 94 152.072 100.717 149.832 102.085C151.076 103.081 155.555 99.0999 155.555 99.0999C155.555 99.0999 151.947 103.578 153.316 103.827C155.306 105.445 162.645 95.4921 162.645 95.4921C162.645 95.4921 159.783 101.339 155.555 105.942C159.09 107.711 167.871 96.3629 167.871 96.3629C167.871 96.3629 167.622 99.9712 161.277 105.693C166.004 105.071 172.1 96.114 172.1 96.114C172.1 96.114 169.861 102.832 164.511 107.559C169.153 107.076 176.578 95.6168 176.578 95.6168C176.578 95.6168 173.717 103.578 167.871 108.181C174.339 109.612 183.67 99.9712 183.67 99.9712C183.67 99.9712 180 106.813 175.21 109.612C180.56 111.664 187.899 103.205 187.899 103.205C187.899 103.205 180.56 114.526 168.865 114.028C165.029 113.864 153.424 102.387 128.559 103.329C95.718 104.573 88.7514 118.506 71.2109 127.96Z" fill="white"/>
<g opacity="0.350006">
<g opacity="0.350006">
<path opacity="0.350006" d="M69.9629 131.398C79.7594 136.312 88.7169 130.652 100.006 133.833C108.589 136.252 119.039 139.235 133.22 137.182C147.402 135.13 159.531 128.972 165.317 117.962C167.121 113.049 174.459 119.082 174.459 119.082C174.459 119.082 169.111 116.843 169.235 117.9C169.36 118.958 177.259 122.628 177.259 122.628C177.259 122.628 170.106 120.388 170.541 122.067C170.977 123.747 179.497 130.464 179.497 130.464C179.497 130.464 169.857 123.125 169.049 124.12C168.24 125.115 173.154 129.159 173.154 129.159C173.154 129.159 165.005 124.12 162.144 125.606C160.085 126.674 170.603 133.575 170.603 133.575C170.603 133.575 163.761 128.35 162.144 129.718C160.527 131.087 169.857 142.283 169.857 142.283C169.857 142.283 159.282 130.837 158.225 131.398C157.168 131.957 161.148 137.431 161.148 137.431C161.148 137.431 155.923 131.709 154.493 132.704C153.063 133.699 161.957 148.565 161.957 148.565C161.957 148.565 152.317 133.326 148.336 135.876C154.587 149.591 152.254 151.551 152.254 151.551C152.254 151.551 151.457 137.558 143.67 137.928C139.751 138.116 145.536 148.378 145.536 148.378C145.536 148.378 140.212 139.004 136.666 139.192C143.201 151.559 140.872 156.588 140.872 156.588C140.872 156.588 141.953 146.026 133.089 140.149C136.448 143.133 130.982 156.588 130.982 156.588C130.982 156.588 135.79 136.761 127.436 140.541C126.116 141.137 127.343 150.431 127.343 150.431C127.343 150.431 125.663 139.794 123.144 140.354C121.676 140.68 113.814 155.096 113.814 155.096C113.814 155.096 120.252 139.514 118.293 140.168C116.866 140.644 114.188 147.072 114.188 147.072C114.188 147.072 115.493 140.727 114.188 140.354C112.882 139.981 105.604 147.072 105.604 147.072C105.604 147.072 111.015 140.727 110.082 139.421C108.668 137.442 107.011 137.349 105.044 138.116C102.182 139.23 98.3266 144.459 98.3266 144.459C98.3266 144.459 102.17 139.165 101.498 137.182C100.42 133.995 89.3696 143.34 89.3696 143.34C89.3696 143.34 95.9006 137.182 94.4079 135.876C92.9152 134.569 84.8098 134.973 82.2788 134.966C74.815 134.943 72.2285 133.192 69.9629 131.398Z" fill="white"/>
</g>
</g>
<path d="M69.5918 130.278C79.3882 135.192 88.3452 129.532 99.6343 132.714C108.217 135.132 118.668 138.115 132.849 136.063C147.031 134.01 159.16 127.852 164.945 116.843C166.749 111.93 174.088 117.962 174.088 117.962C174.088 117.962 168.739 115.724 168.864 116.781C168.988 117.838 176.888 121.508 176.888 121.508C176.888 121.508 169.734 119.269 170.17 120.949C170.605 122.627 179.127 129.345 179.127 129.345C179.127 129.345 169.485 122.005 168.677 123.001C167.869 123.996 172.783 128.039 172.783 128.039C172.783 128.039 164.634 123.001 161.773 124.486C159.714 125.554 170.232 132.455 170.232 132.455C170.232 132.455 163.389 127.231 161.773 128.599C160.155 129.968 169.486 141.163 169.486 141.163C169.486 141.163 158.911 129.718 157.854 130.278C156.797 130.839 160.777 136.312 160.777 136.312C160.777 136.312 155.552 130.589 154.122 131.585C152.691 132.58 161.585 147.446 161.585 147.446C161.585 147.446 151.945 132.207 147.964 134.756C154.215 148.472 151.883 150.432 151.883 150.432C151.883 150.432 151.085 136.439 143.299 136.81C139.38 136.996 145.164 147.259 145.164 147.259C145.164 147.259 139.84 137.885 136.295 138.072C142.831 150.439 140.5 155.469 140.5 155.469C140.5 155.469 141.581 144.906 132.717 139.029C136.076 142.014 130.61 155.469 130.61 155.469C130.61 155.469 135.419 135.642 127.065 139.422C125.745 140.018 126.972 149.312 126.972 149.312C126.972 149.312 125.292 138.676 122.774 139.235C121.304 139.561 113.442 153.976 113.442 153.976C113.442 153.976 119.88 138.395 117.922 139.049C116.494 139.524 113.816 145.952 113.816 145.952C113.816 145.952 115.122 139.608 113.816 139.235C112.51 138.862 105.232 145.952 105.232 145.952C105.232 145.952 110.644 139.608 109.71 138.302C108.296 136.322 106.639 136.23 104.673 136.996C101.81 138.111 97.9549 143.34 97.9549 143.34C97.9549 143.34 101.798 138.045 101.127 136.063C100.048 132.877 88.9984 142.22 88.9984 142.22C88.9984 142.22 95.5294 136.063 94.0362 134.756C92.5436 133.45 84.4381 133.855 81.9071 133.847C74.4433 133.823 71.8574 132.073 69.5918 130.278Z" fill="white"/>
</g>
<defs>
<filter id="filter0_f_2031_34719" x="-20" y="25" width="298" height="184" filterUnits="userSpaceOnUse" color-interpolation-filters="sRGB">
<feFlood flood-opacity="0" result="BackgroundImageFix"/>
<feBlend mode="normal" in="SourceGraphic" in2="BackgroundImageFix" result="shape"/>
<feGaussianBlur stdDeviation="18.5" result="effect1_foregroundBlur_2031_34719"/>
</filter>
<filter id="filter1_ii_2031_34719" x="17" y="62" width="224" height="148" filterUnits="userSpaceOnUse" color-interpolation-filters="sRGB">
<feFlood flood-opacity="0" result="BackgroundImageFix"/>
<feBlend mode="normal" in="SourceGraphic" in2="BackgroundImageFix" result="shape"/>
<feColorMatrix in="SourceAlpha" type="matrix" values="0 0 0 0 0 0 0 0 0 0 0 0 0 0 0 0 0 0 127 0" result="hardAlpha"/>
<feOffset dy="-4"/>
<feComposite in2="hardAlpha" operator="arithmetic" k2="-1" k3="1"/>
<feColorMatrix type="matrix" values="0 0 0 0 0 0 0 0 0 0 0 0 0 0 0 0 0 0 0.25 0"/>
<feBlend mode="normal" in2="shape" result="effect1_innerShadow_2031_34719"/>
<feColorMatrix in="SourceAlpha" type="matrix" values="0 0 0 0 0 0 0 0 0 0 0 0 0 0 0 0 0 0 127 0" result="hardAlpha"/>
<feOffset dy="4"/>
<feComposite in2="hardAlpha" operator="arithmetic" k2="-1" k3="1"/>
<feColorMatrix type="matrix" values="0 0 0 0 1 0 0 0 0 1 0 0 0 0 1 0 0 0 0.25 0"/>
<feBlend mode="normal" in2="effect1_innerShadow_2031_34719" result="effect2_innerShadow_2031_34719"/>
</filter>
<linearGradient id="paint0_linear_2031_34719" x1="17" y1="34" x2="197.768" y2="215.142" gradientUnits="userSpaceOnUse">
<stop stop-color="#05815D"/>
<stop offset="1" stop-color="#0C575F"/>
</linearGradient>
<linearGradient id="paint1_linear_2031_34719" x1="17" y1="62" x2="241" y2="210" gradientUnits="userSpaceOnUse">
<stop stop-color="#5F585E"/>
<stop offset="1" stop-color="#010101"/>
</linearGradient>
<clipPath id="clip0_2031_34719">
<rect width="256" height="256" fill="white"/>
</clipPath>
</defs>
</svg>
