<svg width="256" height="256" viewBox="0 0 256 256" fill="none" xmlns="http://www.w3.org/2000/svg">
<path fill-rule="evenodd" clip-rule="evenodd" d="M104.425 42.3784C100.056 37.0733 93.5437 34 86.6712 34H29C22.3726 34 17 39.3726 17 46V58.1371V68.2V160C17 166.627 22.3726 172 29 172H229C235.627 172 241 166.627 241 160V70.1371C241 63.5097 235.627 58.1371 229 58.1371H117.404L104.425 42.3784Z" fill="#6F3508"/>
<mask id="mask0_1110_27637" style="mask-type:alpha" maskUnits="userSpaceOnUse" x="17" y="34" width="224" height="138">
<path fill-rule="evenodd" clip-rule="evenodd" d="M104.425 42.3784C100.056 37.0733 93.5437 34 86.6712 34H29C22.3726 34 17 39.3726 17 46V58.1371V68.2V160C17 166.627 22.3726 172 29 172H229C235.627 172 241 166.627 241 160V70.1371C241 63.5097 235.627 58.1371 229 58.1371H117.404L104.425 42.3784Z" fill="url(#paint0_linear_1110_27637)"/>
</mask>
<g mask="url(#mask0_1110_27637)">
<g style="mix-blend-mode:multiply" filter="url(#filter0_f_1110_27637)">
<path fill-rule="evenodd" clip-rule="evenodd" d="M92.789 74C97.7642 74 102.605 72.3868 106.586 69.4024L116.459 62H229C235.627 62 241 67.3726 241 74V108V160C241 166.627 235.627 172 229 172H29C22.3726 172 17 166.627 17 160L17 108V86C17 79.3726 22.3726 74 29 74H87H92.789Z" fill="black" fill-opacity="0.3"/>
</g>
</g>
<g filter="url(#filter1_ii_1110_27637)">
<path d="M92.789 74C97.7642 74 102.605 72.3868 106.586 69.4024L116.459 62H229C235.627 62 241 67.3726 241 74V198C241 204.627 235.627 210 229 210H29C22.3726 210 17 204.627 17 198V86C17 79.3726 22.3726 74 29 74H92.789Z" fill="url(#paint1_linear_1110_27637)"/>
</g>
<g filter="url(#filter2_ii_1110_27637)">
<path d="M92.789 74C97.7642 74 102.605 72.3868 106.586 69.4024L116.459 62H229C235.627 62 241 67.3726 241 74V198C241 204.627 235.627 210 229 210H29C22.3726 210 17 204.627 17 198V86C17 79.3726 22.3726 74 29 74H92.789Z" fill="url(#paint2_linear_1110_27637)"/>
</g>
<path d="M93.1102 210.414H164.678L159.921 197.657H98.0835L93.1102 210.41V210.414Z" fill="#A06F58"/>
<path d="M164.679 210.414H229.002C235.629 210.414 241.002 205.042 241.002 198.414V133.009H228.894V185.657C228.894 192.285 223.521 197.657 216.894 197.657H169.651L164.679 210.414Z" fill="#A06F58"/>
<path fill-rule="evenodd" clip-rule="evenodd" d="M93.1102 210.41L98.0835 197.657V137.118H93.1105L93.1102 210.41ZM164.678 210.415L164.678 210.414L164.678 210.413L164.786 137.118H169.651V197.657L164.679 210.414L164.678 210.415Z" fill="#83492D"/>
<path d="M93.1095 137.118H88.3527V197.657L93.1095 210.412L93.1102 210.41L93.1095 137.118Z" fill="#AC816D"/>
<path d="M159.922 137.118V197.659L164.678 210.413L164.786 137.118H159.922Z" fill="#AC816D"/>
<path fill-rule="evenodd" clip-rule="evenodd" d="M29 210.41L93.1105 210.415L88.3481 197.652H41.1076C37.7312 197.652 34.6805 196.258 32.5 194.014L21 207.354C23.123 209.255 25.9266 210.41 29 210.41Z" fill="#A06F58"/>
<path d="M17 133V198.41C17 201.964 18.545 205.157 21 207.354L32.5 194.014C30.4004 191.853 29.1076 188.904 29.1076 185.652V133H17Z" fill="#83492D"/>
<path d="M17 162.784L29.1081 172.298L50.7297 177.271L76.4594 169.703L92.6756 165.163L120.351 175.325L132.027 167.325L148.676 177.92L179.811 172.298L188.027 181.811L208.351 168.406L228.892 172.298L241 163.649V111.325L17 110.893V162.784Z" fill="#80B5E3"/>
<path fill-rule="evenodd" clip-rule="evenodd" d="M114.726 122.165C116.455 121.516 117.536 121.948 117.536 124.11C117.536 125.84 119.266 125.624 120.131 124.543C120.996 120.867 118.834 118.489 115.158 119.138C111.699 119.786 108.239 124.11 107.807 126.921C106.077 136.219 112.996 141.408 119.266 134.921C120.871 133.24 122.017 131.018 123.104 128.743C124.137 134.284 129.714 135.74 133.753 131.894C137.415 128.454 138.115 122.906 136.731 119.169C137.56 119.694 138.267 120.32 138.943 120.919C139.251 121.191 139.553 121.459 139.857 121.708C140.038 123.42 140.37 125.1 140.888 126.705C142.401 131.462 144.563 132.327 147.158 131.678C149.456 131.104 152.432 126.459 154.434 123.302C154.336 126.728 155.905 129.699 159.266 129.948C161.428 130.165 164.455 130.165 166.834 127.786C167.544 127.292 168.145 126.616 168.634 125.821C170.153 129.095 173.525 130.556 177.481 128.628C179.695 130.164 183.399 130.105 188.021 128.004C189.535 129.517 191.481 129.95 193.21 129.95C196.454 129.95 199.048 128.652 202.291 125.409C202.279 125.525 202.264 125.647 202.249 125.774C202.013 127.758 201.647 130.84 205.102 131.247C210.291 131.895 212.454 129.517 213.967 127.787C213.831 128.015 213.771 128.579 213.686 129.371C213.371 132.339 212.714 138.519 206.4 142.274C202.292 144.868 188.886 146.166 185.427 143.571C181.967 140.977 186.292 138.166 188.886 137.733C194.508 136.868 197.751 138.166 199.697 139.247C202.291 140.544 202.94 138.166 201.21 136.652C195.589 131.895 178.292 133.625 173.535 139.463C168.778 145.085 178.075 150.922 183.697 151.355C214.81 153.703 217.588 135.862 219.117 126.041C219.278 125.011 219.424 124.068 219.589 123.247C220.237 119.355 220.237 111.355 216.129 118.922C214.832 121.301 211.156 126.922 207.481 125.409C206.076 124.706 207.667 121.293 209.009 118.413C209.319 117.748 209.616 117.112 209.859 116.544C211.373 113.517 209.643 112.22 207.048 115.031C206.62 115.497 206.039 116.188 205.352 117.003C202.222 120.719 196.912 127.022 194.075 126.49C193.21 126.274 192.346 126.058 191.481 126.058C191.589 125.95 191.697 125.895 191.805 125.841C191.913 125.787 192.021 125.733 192.129 125.625C197.319 122.166 201.859 116.977 199.697 113.733C191.913 107.895 183.913 118.274 186.508 125.409C186.508 125.517 186.562 125.625 186.616 125.733C186.67 125.841 186.724 125.95 186.724 126.058C184.129 127.139 176.994 127.355 180.237 119.139C181.083 117.026 182.357 114.814 183.752 112.657C187.817 112.829 190.753 111.435 191.915 110.273C193.861 108.543 192.347 107.462 190.618 107.895C189.115 108.376 187.662 108.74 186.255 108.968C186.552 108.544 186.846 108.127 187.135 107.717C188.199 106.207 189.19 104.802 189.967 103.571C192.129 100.328 187.156 97.0847 183.264 103.571C182.572 104.759 181.516 106.672 180.347 109.04C178.895 108.803 177.492 108.359 176.131 107.678C172.672 105.949 172.239 108.543 174.185 109.624C175.879 110.616 177.502 111.323 179.032 111.805C178.034 113.988 177.021 116.41 176.129 118.922C175.047 121.952 174.952 124.452 175.659 126.278C174.392 126.412 173.251 126.206 172.671 125.625C169.86 123.463 170.292 118.274 173.319 115.247C175.265 113.301 172.887 111.355 170.941 113.517C170.476 114.06 170.011 114.742 169.595 115.433C168.838 113.294 167.416 111.72 165.32 111.57C159.949 111.195 156.165 116.667 153.01 121.229C150.704 124.563 148.734 127.411 146.726 127.138C144.988 126.87 143.87 125.322 143.212 123.177C144.077 123.195 145.077 122.966 146.293 122.381C151.266 119.786 155.807 110.921 157.104 105.732C160.131 94.4889 146.293 88.6511 141.536 105.732C140.448 109.677 139.617 114.306 139.688 118.866C139.164 118.46 138.693 118.002 138.225 117.546C136.739 116.099 135.28 114.679 132.239 115.029C128.427 115.323 125.61 118.101 124.123 121.477C123.742 122.125 123.369 122.795 122.993 123.466C121.018 127.002 119.008 130.6 115.807 131.462C112.78 132.327 111.05 130.813 110.834 129.083C110.401 126.056 112.347 122.813 114.726 122.165ZM142.61 120.166C142.753 120.188 142.899 120.205 143.05 120.219C148.239 120.651 151.482 109.624 150.834 104.867C150.185 99.6781 146.942 100.327 143.915 107.462C142.826 110.002 142.076 115.586 142.61 120.166ZM158.683 117.442C156.691 120.193 157.8 123.722 160.131 124.11C167.482 125.192 168.347 113.516 162.942 114.597C161.761 114.859 160.342 115.679 158.683 117.442ZM127.295 121.354C125.464 124.167 125.691 127.688 130.077 127.57C135.699 126.705 137.428 116.11 130.942 118.705C129.466 119.265 128.29 120.195 127.295 121.354ZM190.183 123.895C193.643 121.517 196.454 118.274 194.94 117.193C192.562 115.247 188.67 120.436 190.183 123.895Z" fill="#242C5C"/>
<path fill-rule="evenodd" clip-rule="evenodd" d="M53.7523 138.38C59.3739 142.055 68.0226 124.542 63.482 122.164C56.5631 118.272 47.2658 133.191 46.8334 140.326C46.401 146.164 50.9415 151.353 57.6442 148.758C65.8604 145.515 69.9685 140.326 73.2117 134.488C73.3556 134.258 73.5262 133.965 73.7185 133.62C73.2578 130.934 72.7244 128.075 72.1307 124.974C70.1847 114.38 75.8063 104.218 82.509 103.353C92.6712 101.839 88.9955 112.001 85.3198 118.488C83.3788 121.852 81.3798 125.836 79.2879 130.005C78.4788 131.618 77.6556 133.258 76.8167 134.901C77.0022 135.904 77.1734 136.922 77.3198 137.947C78.6171 134.704 81.4279 129.947 84.455 128.866C90.21 127.035 88.9231 132.721 87.9175 137.164C87.2607 140.065 86.7239 142.437 88.3469 141.839C89.3616 141.449 90.1227 139.03 91.0677 136.026C92.7402 130.71 94.9887 123.563 100.239 122.596C107.59 121.299 107.158 135.785 100.455 140.11C96.8692 142.459 94.5562 141.131 93.516 138.432C92.8267 140.419 91.988 142.243 90.7252 143.569C89.2117 145.082 86.6171 145.515 85.9685 144.866C84.8383 143.942 85.3193 140.966 85.7642 138.214C86.2556 135.175 86.703 132.407 84.8874 132.974C82.764 133.628 81.5043 137.86 80.4559 141.382C80.1165 142.522 79.7993 143.588 79.482 144.434C79.2658 145.082 79.0496 148.542 79.0496 148.542L75.5901 150.055C75.4873 146.56 75.1401 143.016 74.595 139.167C70.9609 145.984 67.0175 152.463 62.6172 156.758C50.0766 168.65 35.3739 157.839 38.401 142.488C40.3469 132.974 50.2928 114.812 63.0496 118.272C73.6442 121.299 68.455 133.191 63.482 138.812C60.8874 141.623 55.9145 143.785 52.6712 140.758C51.3739 139.677 52.0226 137.299 53.7523 138.38ZM75.545 128.826C75.6055 129.097 75.6667 129.373 75.7283 129.651C78.8056 123.151 82.826 112.915 80.5631 111.137C77.9685 109.191 73.2117 113.083 74.2928 122.38C74.4969 124.115 74.9901 126.332 75.545 128.826ZM98.9414 135.569C96.774 136.403 95.5065 133.765 95.8329 131.126C96.7209 128.807 97.8786 126.842 99.8063 125.839C104.779 123.028 103.698 133.623 98.9414 135.569Z" fill="#242C5C"/>
<g opacity="0.1">
<path d="M29 210C22.3726 210 17 204.773 17 198.324V89.3514C17 82.9031 22.3726 77.6757 29 77.6757L29 210Z" fill="#6A94B8"/>
<path d="M241 77.6757C241 71.2274 235.627 66 229 66V210C235.627 210 241 204.773 241 198.324V77.6757Z" fill="#99C4E9"/>
</g>
<path d="M17 90C17 83.373 22.373 78 29 78V172.213L17 162.785V90Z" fill="#6A94B8"/>
<path d="M229 172.221L241 163.648V78C241 71.3926 235.659 66.0312 229.059 66H229V172.221Z" fill="#99C4E9"/>
<defs>
<filter id="filter0_f_1110_27637" x="-20" y="25" width="298" height="184" filterUnits="userSpaceOnUse" color-interpolation-filters="sRGB">
<feFlood flood-opacity="0" result="BackgroundImageFix"/>
<feBlend mode="normal" in="SourceGraphic" in2="BackgroundImageFix" result="shape"/>
<feGaussianBlur stdDeviation="18.5" result="effect1_foregroundBlur_1110_27637"/>
</filter>
<filter id="filter1_ii_1110_27637" x="17" y="62" width="224" height="148" filterUnits="userSpaceOnUse" color-interpolation-filters="sRGB">
<feFlood flood-opacity="0" result="BackgroundImageFix"/>
<feBlend mode="normal" in="SourceGraphic" in2="BackgroundImageFix" result="shape"/>
<feColorMatrix in="SourceAlpha" type="matrix" values="0 0 0 0 0 0 0 0 0 0 0 0 0 0 0 0 0 0 127 0" result="hardAlpha"/>
<feOffset dy="4"/>
<feComposite in2="hardAlpha" operator="arithmetic" k2="-1" k3="1"/>
<feColorMatrix type="matrix" values="0 0 0 0 1 0 0 0 0 1 0 0 0 0 1 0 0 0 0.25 0"/>
<feBlend mode="normal" in2="shape" result="effect1_innerShadow_1110_27637"/>
<feColorMatrix in="SourceAlpha" type="matrix" values="0 0 0 0 0 0 0 0 0 0 0 0 0 0 0 0 0 0 127 0" result="hardAlpha"/>
<feOffset dy="-4"/>
<feComposite in2="hardAlpha" operator="arithmetic" k2="-1" k3="1"/>
<feColorMatrix type="matrix" values="0 0 0 0 0 0 0 0 0 0 0 0 0 0 0 0 0 0 0.9 0"/>
<feBlend mode="soft-light" in2="effect1_innerShadow_1110_27637" result="effect2_innerShadow_1110_27637"/>
</filter>
<filter id="filter2_ii_1110_27637" x="17" y="62" width="224" height="148" filterUnits="userSpaceOnUse" color-interpolation-filters="sRGB">
<feFlood flood-opacity="0" result="BackgroundImageFix"/>
<feBlend mode="normal" in="SourceGraphic" in2="BackgroundImageFix" result="shape"/>
<feColorMatrix in="SourceAlpha" type="matrix" values="0 0 0 0 0 0 0 0 0 0 0 0 0 0 0 0 0 0 127 0" result="hardAlpha"/>
<feOffset dy="4"/>
<feComposite in2="hardAlpha" operator="arithmetic" k2="-1" k3="1"/>
<feColorMatrix type="matrix" values="0 0 0 0 1 0 0 0 0 1 0 0 0 0 1 0 0 0 0.25 0"/>
<feBlend mode="normal" in2="shape" result="effect1_innerShadow_1110_27637"/>
<feColorMatrix in="SourceAlpha" type="matrix" values="0 0 0 0 0 0 0 0 0 0 0 0 0 0 0 0 0 0 127 0" result="hardAlpha"/>
<feOffset dy="-4"/>
<feComposite in2="hardAlpha" operator="arithmetic" k2="-1" k3="1"/>
<feColorMatrix type="matrix" values="0 0 0 0 0 0 0 0 0 0 0 0 0 0 0 0 0 0 0.9 0"/>
<feBlend mode="soft-light" in2="effect1_innerShadow_1110_27637" result="effect2_innerShadow_1110_27637"/>
</filter>
<linearGradient id="paint0_linear_1110_27637" x1="17" y1="34" x2="197.768" y2="215.142" gradientUnits="userSpaceOnUse">
<stop stop-color="#05815D"/>
<stop offset="1" stop-color="#0C575F"/>
</linearGradient>
<linearGradient id="paint1_linear_1110_27637" x1="129" y1="62" x2="129" y2="210" gradientUnits="userSpaceOnUse">
<stop offset="0.621427" stop-color="#80B5E3"/>
<stop offset="0.621527" stop-color="#884B2E"/>
</linearGradient>
<linearGradient id="paint2_linear_1110_27637" x1="129" y1="62" x2="129" y2="210" gradientUnits="userSpaceOnUse">
<stop offset="0.621427" stop-color="#80B5E3"/>
<stop offset="0.621527" stop-color="#884B2E"/>
</linearGradient>
</defs>
</svg>
