<svg width="256" height="256" viewBox="0 0 256 256" fill="none" xmlns="http://www.w3.org/2000/svg">
<path fill-rule="evenodd" clip-rule="evenodd" d="M104.425 42.3784C100.056 37.0733 93.5437 34 86.6712 34H29C22.3726 34 17 39.3726 17 46V58.1371V68.2V160C17 166.627 22.3726 172 29 172H229C235.627 172 241 166.627 241 160V70.1371C241 63.5097 235.627 58.1371 229 58.1371H117.404L104.425 42.3784Z" fill="#6F3508"/>
<mask id="mask0_1112_27788" style="mask-type:alpha" maskUnits="userSpaceOnUse" x="17" y="34" width="224" height="138">
<path fill-rule="evenodd" clip-rule="evenodd" d="M104.425 42.3784C100.056 37.0733 93.5437 34 86.6712 34H29C22.3726 34 17 39.3726 17 46V58.1371V68.2V160C17 166.627 22.3726 172 29 172H229C235.627 172 241 166.627 241 160V70.1371C241 63.5097 235.627 58.1371 229 58.1371H117.404L104.425 42.3784Z" fill="url(#paint0_linear_1112_27788)"/>
</mask>
<g mask="url(#mask0_1112_27788)">
<g style="mix-blend-mode:multiply" filter="url(#filter0_f_1112_27788)">
<path fill-rule="evenodd" clip-rule="evenodd" d="M92.789 74C97.7642 74 102.605 72.3868 106.586 69.4024L116.459 62H229C235.627 62 241 67.3726 241 74V108V160C241 166.627 235.627 172 229 172H29C22.3726 172 17 166.627 17 160L17 108V86C17 79.3726 22.3726 74 29 74H87H92.789Z" fill="black" fill-opacity="0.3"/>
</g>
</g>
<path d="M17.077 74.9348V74L16.0285 73.9076L17.077 74.9348Z" fill="#96C3EC"/>
<path d="M1 69L9.42589 91.2554L1 107.804L9.42589 124.81L1 141.815L9.42589 158.821L1.09685 175.484L9.42589 192.603L1.09685 216L17 210L17.077 74.9348L16.0285 73.9076L1 69Z" fill="#7CB3E6"/>
<path d="M17.077 74.9348L17 210H44V74H17.077V74.9348Z" fill="#7CB3E6"/>
<path d="M238.894 210L256 217L244.958 187.785L251.022 172.979L238.894 155.264V192.712V210Z" fill="#7CB3E6"/>
<path d="M224 210H238.894V192.712L224 210Z" fill="#7CB3E6"/>
<path d="M108.187 76.6021C104.491 79.2639 99.9953 80.7027 95.3755 80.7027H36.1429C29.9888 80.7027 25 85.4945 25 91.4054L25 191.297C25 193.998 26.0416 196.465 27.76 198.349C29.8024 200.587 32.8008 202 36.1429 202H221.857C228.011 202 233 197.208 233 191.297V126.5L220.5 83.5L194 89L179 70L157 80L144.5 70H117.355L108.187 76.6021Z" fill="#7CB3E6"/>
<path d="M106.586 69.4024C102.605 72.3868 97.7642 74 92.789 74H29C22.3726 74 17 79.3726 17 86L17 198C17 201.313 18.3428 204.313 20.5139 206.484L27.76 198.349C26.0416 196.465 25 193.998 25 191.297L25 91.4054C25 85.4945 29.9888 80.7027 36.1429 80.7027H95.3755C99.9953 80.7027 104.491 79.2639 108.187 76.6021L117.355 70H144.5L134 62H116.459L106.586 69.4024Z" fill="#96C3EC"/>
<path d="M221.857 70C224.966 70 227.778 71.2232 229.799 73.1959L237.471 65.5C235.3 63.3371 232.306 62 229 62H134L144.5 70H179H221.857Z" fill="#A2541B"/>
<path d="M157 80L179 70H144.5L157 80Z" fill="#954804"/>
<path d="M229.799 73.1959C227.778 71.2232 224.966 70 221.857 70H179L194 89L220.5 83.5L233 126.5V80.7027C233 77.7782 231.779 75.1277 229.799 73.1959Z" fill="#954804"/>
<path d="M229.799 73.1959C231.779 75.1277 233 77.7782 233 80.7027V126.5L241 158.5V74C241 70.6788 239.651 67.6727 237.471 65.5L229.799 73.1959Z" fill="#7C3906"/>
<path d="M29 210H229C235.627 210 241 204.627 241 198V158.5L233 126.5V191.297C233 197.208 228.011 202 221.857 202H36.1429C32.8008 202 29.8024 200.587 27.76 198.349L20.5139 206.484C22.6855 208.657 25.6859 210 29 210Z" fill="#6D96CD"/>
<path fill-rule="evenodd" clip-rule="evenodd" d="M123.739 101.094C111.406 102.061 98.8048 112.22 91.4375 127.135C89.4719 131.114 88.4563 133.988 87.7031 137.702C84.4919 153.534 92.5598 167.948 106.207 170.76C108.666 171.266 113.226 171.271 115.87 170.769C121.463 169.708 127.361 166.694 133.59 161.715C136.796 159.153 144.216 151.717 147.006 148.271C149.317 145.417 150.567 143.226 151.029 141.219C151.837 137.716 150.462 134.769 148.278 135.319C147.95 135.402 146.509 136.383 145.075 137.499C137.749 143.204 129.13 147.559 122.11 149.102C119.816 149.607 116.218 149.665 114.386 149.227C109.246 148 105.168 143.742 104.15 138.544C103.631 135.893 103.946 132.311 104.961 129.326C106.241 125.56 107.795 123.125 110.896 120.027C113.605 117.32 115.685 115.914 118.896 114.617C123.396 112.799 129.649 112.869 132.646 114.769C134.064 115.669 134.664 116.895 134.788 119.154C134.905 121.272 134.429 123.259 133.093 126.234C132.562 127.416 131.994 128.918 131.83 129.574C131.039 132.737 132.749 134.746 135.596 133.998C136.985 133.633 139.159 131.462 141.147 128.456C144.06 124.049 145.563 120.054 145.757 116.2C145.907 113.216 145.572 111.521 144.381 109.236C141.553 103.812 132.85 100.379 123.739 101.094ZM169.732 116.507C167.171 117.509 164.365 120.134 163.102 122.708C162.559 123.814 162.378 124.583 162.309 126.07C162.23 127.796 162.29 128.118 162.881 129.126C165.52 133.631 173.641 130.984 176.655 124.637C178.927 119.853 177.062 116.014 172.482 116.048C171.556 116.054 170.393 116.249 169.732 116.507ZM168.157 141.265C164.103 141.862 159.827 146.07 159.073 150.205C158.631 152.63 159.397 154.849 160.998 155.784C166.002 158.706 174.275 152.633 174.275 146.038C174.275 142.583 171.883 140.717 168.157 141.265Z" fill="#954804"/>
<defs>
<filter id="filter0_f_1112_27788" x="-20" y="25" width="298" height="184" filterUnits="userSpaceOnUse" color-interpolation-filters="sRGB">
<feFlood flood-opacity="0" result="BackgroundImageFix"/>
<feBlend mode="normal" in="SourceGraphic" in2="BackgroundImageFix" result="shape"/>
<feGaussianBlur stdDeviation="18.5" result="effect1_foregroundBlur_1112_27788"/>
</filter>
<linearGradient id="paint0_linear_1112_27788" x1="17" y1="34" x2="197.768" y2="215.142" gradientUnits="userSpaceOnUse">
<stop stop-color="#05815D"/>
<stop offset="1" stop-color="#0C575F"/>
</linearGradient>
</defs>
</svg>
