<svg width="256" height="256" viewBox="0 0 256 256" fill="none" xmlns="http://www.w3.org/2000/svg">
<path fill-rule="evenodd" clip-rule="evenodd" d="M104.425 42.3784C100.056 37.0733 93.5437 34 86.6712 34H29C22.3726 34 17 39.3726 17 46V58.1371V68.2V160C17 166.627 22.3726 172 29 172H229C235.627 172 241 166.627 241 160V70.1371C241 63.5097 235.627 58.1371 229 58.1371H117.404L104.425 42.3784Z" fill="#6F3508"/>
<mask id="mask0_1110_27401" style="mask-type:alpha" maskUnits="userSpaceOnUse" x="17" y="34" width="224" height="138">
<path fill-rule="evenodd" clip-rule="evenodd" d="M104.425 42.3784C100.056 37.0733 93.5437 34 86.6712 34H29C22.3726 34 17 39.3726 17 46V58.1371V68.2V160C17 166.627 22.3726 172 29 172H229C235.627 172 241 166.627 241 160V70.1371C241 63.5097 235.627 58.1371 229 58.1371H117.404L104.425 42.3784Z" fill="url(#paint0_linear_1110_27401)"/>
</mask>
<g mask="url(#mask0_1110_27401)">
<g style="mix-blend-mode:multiply" filter="url(#filter0_f_1110_27401)">
<path fill-rule="evenodd" clip-rule="evenodd" d="M92.789 74C97.7642 74 102.605 72.3868 106.586 69.4024L116.459 62H229C235.627 62 241 67.3726 241 74V108V160C241 166.627 235.627 172 229 172H29C22.3726 172 17 166.627 17 160L17 108V86C17 79.3726 22.3726 74 29 74H87H92.789Z" fill="black" fill-opacity="0.3"/>
</g>
</g>
<g filter="url(#filter1_ii_1110_27401)">
<path fill-rule="evenodd" clip-rule="evenodd" d="M92.789 74C97.7642 74 102.605 72.3868 106.586 69.4024L116.459 62H229C235.627 62 241 67.3726 241 74V108V198C241 204.627 235.627 210 229 210H29C22.3726 210 17 204.627 17 198L17 108V86C17 79.3726 22.3726 74 29 74H87H92.789Z" fill="url(#paint1_linear_1110_27401)"/>
</g>
<path d="M96.595 171.853H159.853V125.143L154.128 106.5L139.326 109.363L131.366 99.2389L118.798 104.266L112.375 99.2389H111.886H96.7347H96.595V171.853Z" fill="#7CB3E6"/>
<path d="M165.858 176.881L179.054 181L170.536 165.569L175.214 157.749L165.858 148.393V176.881Z" fill="#7CB3E6"/>
<path d="M79 91L85.0745 104.615L79 114.739L85.0745 125.143L79 135.546L85.0745 145.95L79.0698 156.144L85.0745 166.617L79.0698 180.93L90.5904 176.881V94.6307L89.8345 94.0023L79 91Z" fill="#7CB3E6"/>
<path d="M105.043 94.2118L111.886 99.2389H112.375L105.951 94.2118H105.043Z" fill="#7CB3E6"/>
<path d="M131.366 99.2389H112.375L118.798 104.266L131.366 99.2389Z" fill="#954804"/>
<path d="M159.853 99.2389H159.295H131.366L139.326 109.363L154.128 106.5L159.853 125.143V99.2389Z" fill="#954804"/>
<path d="M159.853 99.2389L165.858 94.2118H165.16L159.295 99.2389H159.853Z" fill="#954804"/>
<path d="M159.295 99.2389L165.16 94.2118H105.951L112.375 99.2389H131.366H159.295Z" fill="#A2541B"/>
<path d="M165.858 94.2118L159.853 99.2389V125.143L165.858 148.254V94.2118Z" fill="#7C3906"/>
<path d="M165.858 176.881V148.393V148.254L159.853 125.143V171.853L165.858 176.881Z" fill="#6D96CD"/>
<path d="M90.5904 176.881H165.858L159.853 171.853H96.595L90.5904 176.881Z" fill="#6D96CD"/>
<path d="M90.7998 94.2118H90.5904V94.6307L96.1761 99.2389H96.595H96.7347L90.7998 94.2118Z" fill="#ABCFEF"/>
<path d="M90.7998 94.2118L96.7347 99.2389H111.886L105.043 94.2118H90.7998Z" fill="#96C3EC"/>
<path d="M96.595 171.853V99.2389H96.1761L90.5904 94.6307V176.881L96.595 171.853Z" fill="#96C3EC"/>
<path d="M90.5904 94.6307V94.2118L89.8345 94.0023L90.5904 94.6307Z" fill="#96C3EC"/>
<path fill-rule="evenodd" clip-rule="evenodd" d="M123.868 114.753C116.963 115.295 109.907 120.982 105.782 129.333C104.682 131.561 104.113 133.17 103.692 135.25C101.894 144.114 106.411 152.184 114.052 153.758C115.428 154.042 117.982 154.045 119.462 153.764C122.593 153.17 125.896 151.482 129.384 148.694C131.178 147.26 135.333 143.097 136.895 141.167C138.189 139.569 138.888 138.343 139.147 137.219C139.599 135.258 138.83 133.608 137.607 133.916C137.424 133.962 136.617 134.511 135.814 135.136C131.712 138.33 126.886 140.768 122.956 141.633C121.671 141.915 119.657 141.948 118.631 141.703C115.753 141.015 113.47 138.632 112.9 135.721C112.61 134.237 112.786 132.231 113.354 130.56C114.071 128.452 114.941 127.088 116.677 125.353C118.194 123.838 119.358 123.051 121.156 122.325C123.676 121.307 127.177 121.346 128.855 122.41C129.649 122.913 129.984 123.6 130.054 124.865C130.12 126.051 129.853 127.163 129.105 128.829C128.808 129.49 128.49 130.332 128.398 130.699C127.955 132.47 128.912 133.595 130.506 133.176C131.284 132.972 132.501 131.756 133.614 130.073C135.245 127.606 136.087 125.369 136.195 123.211C136.28 121.54 136.092 120.591 135.425 119.312C133.842 116.275 128.969 114.353 123.868 114.753ZM149.619 123.383C148.185 123.944 146.614 125.413 145.907 126.855C145.603 127.474 145.502 127.905 145.463 128.737C145.418 129.703 145.452 129.884 145.783 130.448C147.261 132.97 151.808 131.489 153.495 127.935C154.767 125.256 153.723 123.107 151.159 123.126C150.64 123.129 149.989 123.238 149.619 123.383ZM148.737 137.245C146.467 137.579 144.073 139.935 143.651 142.25C143.404 143.608 143.832 144.85 144.729 145.374C147.53 147.01 152.163 143.61 152.163 139.917C152.163 137.983 150.823 136.938 148.737 137.245Z" fill="#954804"/>
<defs>
<filter id="filter0_f_1110_27401" x="-20" y="25" width="298" height="184" filterUnits="userSpaceOnUse" color-interpolation-filters="sRGB">
<feFlood flood-opacity="0" result="BackgroundImageFix"/>
<feBlend mode="normal" in="SourceGraphic" in2="BackgroundImageFix" result="shape"/>
<feGaussianBlur stdDeviation="18.5" result="effect1_foregroundBlur_1110_27401"/>
</filter>
<filter id="filter1_ii_1110_27401" x="17" y="62" width="224" height="148" filterUnits="userSpaceOnUse" color-interpolation-filters="sRGB">
<feFlood flood-opacity="0" result="BackgroundImageFix"/>
<feBlend mode="normal" in="SourceGraphic" in2="BackgroundImageFix" result="shape"/>
<feColorMatrix in="SourceAlpha" type="matrix" values="0 0 0 0 0 0 0 0 0 0 0 0 0 0 0 0 0 0 127 0" result="hardAlpha"/>
<feOffset dy="4"/>
<feComposite in2="hardAlpha" operator="arithmetic" k2="-1" k3="1"/>
<feColorMatrix type="matrix" values="0 0 0 0 1 0 0 0 0 1 0 0 0 0 1 0 0 0 0.25 0"/>
<feBlend mode="normal" in2="shape" result="effect1_innerShadow_1110_27401"/>
<feColorMatrix in="SourceAlpha" type="matrix" values="0 0 0 0 0 0 0 0 0 0 0 0 0 0 0 0 0 0 127 0" result="hardAlpha"/>
<feOffset dy="-4"/>
<feComposite in2="hardAlpha" operator="arithmetic" k2="-1" k3="1"/>
<feColorMatrix type="matrix" values="0 0 0 0 0 0 0 0 0 0 0 0 0 0 0 0 0 0 0.9 0"/>
<feBlend mode="soft-light" in2="effect1_innerShadow_1110_27401" result="effect2_innerShadow_1110_27401"/>
</filter>
<linearGradient id="paint0_linear_1110_27401" x1="17" y1="34" x2="197.768" y2="215.142" gradientUnits="userSpaceOnUse">
<stop stop-color="#05815D"/>
<stop offset="1" stop-color="#0C575F"/>
</linearGradient>
<linearGradient id="paint1_linear_1110_27401" x1="17" y1="62" x2="241" y2="210" gradientUnits="userSpaceOnUse">
<stop stop-color="#1C3041"/>
<stop offset="1" stop-color="#12202B"/>
</linearGradient>
</defs>
</svg>
