<svg width="256" height="256" viewBox="0 0 256 256" fill="none" xmlns="http://www.w3.org/2000/svg">
<path fill-rule="evenodd" clip-rule="evenodd" d="M104.425 42.3784C100.056 37.0733 93.5437 34 86.6712 34H29C22.3726 34 17 39.3726 17 46V58.1371V68.2V160C17 166.627 22.3726 172 29 172H229C235.627 172 241 166.627 241 160V70.1371C241 63.5097 235.627 58.1371 229 58.1371H117.404L104.425 42.3784Z" fill="#766AFE"/>
<mask id="mask0_1038_27577" style="mask-type:alpha" maskUnits="userSpaceOnUse" x="17" y="34" width="224" height="138">
<path fill-rule="evenodd" clip-rule="evenodd" d="M104.425 42.3784C100.056 37.0733 93.5437 34 86.6712 34H29C22.3726 34 17 39.3726 17 46V58.1371V68.2V160C17 166.627 22.3726 172 29 172H229C235.627 172 241 166.627 241 160V70.1371C241 63.5097 235.627 58.1371 229 58.1371H117.404L104.425 42.3784Z" fill="url(#paint0_linear_1038_27577)"/>
</mask>
<g mask="url(#mask0_1038_27577)">
<g style="mix-blend-mode:multiply" filter="url(#filter0_f_1038_27577)">
<path fill-rule="evenodd" clip-rule="evenodd" d="M92.789 74C97.7642 74 102.605 72.3868 106.586 69.4024L116.459 62H229C235.627 62 241 67.3726 241 74V108V160C241 166.627 235.627 172 229 172H29C22.3726 172 17 166.627 17 160L17 108V86C17 79.3726 22.3726 74 29 74H87H92.789Z" fill="black" fill-opacity="0.3"/>
</g>
</g>
<g filter="url(#filter1_ii_1038_27577)">
<path fill-rule="evenodd" clip-rule="evenodd" d="M92.789 74C97.7642 74 102.605 72.3868 106.586 69.4024L116.459 62H229C235.627 62 241 67.3726 241 74V108V198C241 204.627 235.627 210 229 210H29C22.3726 210 17 204.627 17 198L17 108V86C17 79.3726 22.3726 74 29 74H87H92.789Z" fill="url(#paint1_linear_1038_27577)"/>
</g>
<g filter="url(#filter2_d_1038_27577)">
<circle cx="132.297" cy="134.996" r="37.843" fill="url(#paint2_linear_1038_27577)"/>
<circle cx="131.15" cy="136.144" r="36.6962" fill="url(#paint3_linear_1038_27577)"/>
<path d="M117.71 112.135C114.104 113.534 110.15 115.539 106.495 118.378L106.495 118.378C104.138 124.682 102.502 140.071 114.809 151.195C119.444 156.155 132.87 164.187 149.498 156.629C151.968 152.597 154.193 147.423 155.866 140.749C156.801 136.795 157.46 133.005 157.812 130.41C158.215 127.399 159.016 122.841 161.682 119.659C161.904 119.395 162.121 119.156 162.335 118.942C152.524 121.092 150.358 141.33 141.758 147.324C132.297 153.918 122.263 149.904 117.102 141.16C111.942 132.416 116.386 120.805 131.15 114.642C142.962 109.711 145.543 105.038 145.358 103.317C141.837 107.09 130.954 109.239 124.986 109.911C124.136 110.103 123.203 110.338 122.207 110.623C120.873 111.011 119.333 111.515 117.71 112.135Z" fill="url(#paint4_linear_1038_27577)"/>
<path d="M94.167 138.007C91.7327 149.761 103.656 175.477 129 171.693C129.34 171.579 129.741 171.459 130.192 171.324C134.336 170.083 142.812 167.544 149.498 156.629C132.87 164.187 119.443 156.155 114.809 151.194C102.502 140.071 104.138 124.682 106.495 118.378C100.915 122.712 96.0351 128.987 94.167 138.007Z" fill="url(#paint5_linear_1038_27577)"/>
<path fill-rule="evenodd" clip-rule="evenodd" d="M129 94C129.792 94 130.692 94.0253 131.658 94.0827C131.658 94.0827 131.658 94.0828 131.659 94.0828C130.779 94.0279 129.893 94 129 94Z" fill="url(#paint6_linear_1038_27577)"/>
<path d="M129 178C152.196 178 171 159.196 171 136C170.859 130.367 170.152 127.105 169.291 124.102C166.986 117.078 164.671 116.092 161.683 119.659C159.016 122.841 158.215 127.399 157.812 130.41C153.26 164.415 136.579 169.411 130.192 171.324C129.741 171.459 129.341 171.579 129 171.693C103.657 175.477 91.7329 149.761 94.1672 138.007C98.1809 118.627 116.099 111.918 124.986 109.911C132.201 109.099 146.603 106.127 146.488 100.737C146.442 98.5673 144.535 97.0525 141.897 96.0172C138.643 94.9684 135.215 94.3058 131.668 94.0834L131.659 94.0828L131.658 94.0827C130.692 94.0253 129.792 94 129 94C105.804 94 87 112.804 87 136C87 159.196 105.804 178 129 178Z" fill="url(#paint7_linear_1038_27577)"/>
</g>
<defs>
<filter id="filter0_f_1038_27577" x="-20" y="25" width="298" height="184" filterUnits="userSpaceOnUse" color-interpolation-filters="sRGB">
<feFlood flood-opacity="0" result="BackgroundImageFix"/>
<feBlend mode="normal" in="SourceGraphic" in2="BackgroundImageFix" result="shape"/>
<feGaussianBlur stdDeviation="18.5" result="effect1_foregroundBlur_1038_27577"/>
</filter>
<filter id="filter1_ii_1038_27577" x="17" y="62" width="224" height="148" filterUnits="userSpaceOnUse" color-interpolation-filters="sRGB">
<feFlood flood-opacity="0" result="BackgroundImageFix"/>
<feBlend mode="normal" in="SourceGraphic" in2="BackgroundImageFix" result="shape"/>
<feColorMatrix in="SourceAlpha" type="matrix" values="0 0 0 0 0 0 0 0 0 0 0 0 0 0 0 0 0 0 127 0" result="hardAlpha"/>
<feOffset dy="4"/>
<feComposite in2="hardAlpha" operator="arithmetic" k2="-1" k3="1"/>
<feColorMatrix type="matrix" values="0 0 0 0 1 0 0 0 0 1 0 0 0 0 1 0 0 0 0.25 0"/>
<feBlend mode="normal" in2="shape" result="effect1_innerShadow_1038_27577"/>
<feColorMatrix in="SourceAlpha" type="matrix" values="0 0 0 0 0 0 0 0 0 0 0 0 0 0 0 0 0 0 127 0" result="hardAlpha"/>
<feOffset dy="-4"/>
<feComposite in2="hardAlpha" operator="arithmetic" k2="-1" k3="1"/>
<feColorMatrix type="matrix" values="0 0 0 0 0 0 0 0 0 0 0 0 0 0 0 0 0 0 0.9 0"/>
<feBlend mode="soft-light" in2="effect1_innerShadow_1038_27577" result="effect2_innerShadow_1038_27577"/>
</filter>
<filter id="filter2_d_1038_27577" x="83" y="94" width="92" height="92" filterUnits="userSpaceOnUse" color-interpolation-filters="sRGB">
<feFlood flood-opacity="0" result="BackgroundImageFix"/>
<feColorMatrix in="SourceAlpha" type="matrix" values="0 0 0 0 0 0 0 0 0 0 0 0 0 0 0 0 0 0 127 0" result="hardAlpha"/>
<feOffset dy="4"/>
<feGaussianBlur stdDeviation="2"/>
<feComposite in2="hardAlpha" operator="out"/>
<feColorMatrix type="matrix" values="0 0 0 0 0 0 0 0 0 0 0 0 0 0 0 0 0 0 0.15 0"/>
<feBlend mode="normal" in2="BackgroundImageFix" result="effect1_dropShadow_1038_27577"/>
<feBlend mode="normal" in="SourceGraphic" in2="effect1_dropShadow_1038_27577" result="shape"/>
</filter>
<linearGradient id="paint0_linear_1038_27577" x1="17" y1="34" x2="197.768" y2="215.142" gradientUnits="userSpaceOnUse">
<stop stop-color="#05815D"/>
<stop offset="1" stop-color="#0C575F"/>
</linearGradient>
<linearGradient id="paint1_linear_1038_27577" x1="17" y1="62" x2="241" y2="210" gradientUnits="userSpaceOnUse">
<stop stop-color="#E866EC"/>
<stop offset="1" stop-color="#8882FF"/>
</linearGradient>
<linearGradient id="paint2_linear_1038_27577" x1="132.297" y1="97.1533" x2="152" y2="169.5" gradientUnits="userSpaceOnUse">
<stop stop-color="#E5E5E7"/>
<stop offset="1" stop-color="#9D9DA4"/>
</linearGradient>
<linearGradient id="paint3_linear_1038_27577" x1="133.731" y1="152.055" x2="138.891" y2="107.188" gradientUnits="userSpaceOnUse">
<stop stop-color="#28326F"/>
<stop offset="1" stop-color="#7274A2"/>
</linearGradient>
<linearGradient id="paint4_linear_1038_27577" x1="133.59" y1="103.317" x2="133.59" y2="159.727" gradientUnits="userSpaceOnUse">
<stop stop-color="#171936"/>
<stop offset="1" stop-color="#252B59"/>
</linearGradient>
<linearGradient id="paint5_linear_1038_27577" x1="112.658" y1="121.379" x2="121.678" y2="172.069" gradientUnits="userSpaceOnUse">
<stop stop-color="#3A385F"/>
<stop offset="1" stop-color="#B9BBE1"/>
</linearGradient>
<linearGradient id="paint6_linear_1038_27577" x1="103.055" y1="94" x2="163.833" y2="178" gradientUnits="userSpaceOnUse">
<stop stop-color="#FCFCFC"/>
<stop offset="0.693998" stop-color="#97979F"/>
<stop offset="1" stop-color="#BBBAC1"/>
</linearGradient>
<linearGradient id="paint7_linear_1038_27577" x1="103.055" y1="94" x2="163.833" y2="178" gradientUnits="userSpaceOnUse">
<stop stop-color="#FCFCFC"/>
<stop offset="0.693998" stop-color="#97979F"/>
<stop offset="1" stop-color="#BBBAC1"/>
</linearGradient>
</defs>
</svg>
