<svg width="256" height="256" viewBox="0 0 256 256" fill="none" xmlns="http://www.w3.org/2000/svg">
<g clip-path="url(#clip0_2342_39454)">
<path fill-rule="evenodd" clip-rule="evenodd" d="M104.425 42.3784C100.056 37.0733 93.5437 34 86.6712 34H29C22.3726 34 17 39.3726 17 46V58.1371V68.2V160C17 166.627 22.3726 172 29 172H229C235.627 172 241 166.627 241 160V70.1371C241 63.5097 235.627 58.1371 229 58.1371H117.404L104.425 42.3784Z" fill="#0D0F72"/>
<mask id="mask0_2342_39454" style="mask-type:alpha" maskUnits="userSpaceOnUse" x="17" y="34" width="224" height="138">
<path fill-rule="evenodd" clip-rule="evenodd" d="M104.425 42.3784C100.056 37.0733 93.5437 34 86.6712 34H29C22.3726 34 17 39.3726 17 46V58.1371V68.2V160C17 166.627 22.3726 172 29 172H229C235.627 172 241 166.627 241 160V70.1371C241 63.5097 235.627 58.1371 229 58.1371H117.404L104.425 42.3784Z" fill="url(#paint0_linear_2342_39454)"/>
</mask>
<g mask="url(#mask0_2342_39454)">
<g style="mix-blend-mode:multiply" filter="url(#filter0_f_2342_39454)">
<path fill-rule="evenodd" clip-rule="evenodd" d="M92.789 74C97.7642 74 102.605 72.3868 106.586 69.4024L116.459 62H229C235.627 62 241 67.3726 241 74V108V160C241 166.627 235.627 172 229 172H29C22.3726 172 17 166.627 17 160L17 108V86C17 79.3726 22.3726 74 29 74H87H92.789Z" fill="black" fill-opacity="0.3"/>
</g>
</g>
<g filter="url(#filter1_d_2342_39454)">
<g filter="url(#filter2_ii_2342_39454)">
<path fill-rule="evenodd" clip-rule="evenodd" d="M92.789 74C97.7642 74 102.605 72.3868 106.586 69.4024L116.459 62H229C235.627 62 241 67.3726 241 74V108V198C241 204.627 235.627 210 229 210H29C22.3726 210 17 204.627 17 198L17 108V86C17 79.3726 22.3726 74 29 74H87H92.789Z" fill="url(#paint1_linear_2342_39454)"/>
</g>
</g>
<g clip-path="url(#clip1_2342_39454)">
<path d="M129.303 82L176.326 109.15V163.45L129.303 190.6L82.2788 163.45V109.15L129.303 82Z" fill="url(#paint2_linear_2342_39454)"/>
<path d="M129.299 99.7969L160.906 118.046V154.545L129.299 172.79L97.6914 154.545V118.046L129.299 99.7969Z" fill="url(#paint3_linear_2342_39454)"/>
<path fill-rule="evenodd" clip-rule="evenodd" d="M129.303 113.166L149.348 124.741V130.972H138.552L129.303 125.632L120.053 130.972V141.651L129.303 146.99L138.552 141.651H149.348V147.882L129.303 159.457L109.257 147.882V124.741L129.303 113.166Z" fill="white"/>
</g>
</g>
<defs>
<filter id="filter0_f_2342_39454" x="-20" y="25" width="298" height="184" filterUnits="userSpaceOnUse" color-interpolation-filters="sRGB">
<feFlood flood-opacity="0" result="BackgroundImageFix"/>
<feBlend mode="normal" in="SourceGraphic" in2="BackgroundImageFix" result="shape"/>
<feGaussianBlur stdDeviation="18.5" result="effect1_foregroundBlur_2342_39454"/>
</filter>
<filter id="filter1_d_2342_39454" x="13" y="62" width="232" height="156" filterUnits="userSpaceOnUse" color-interpolation-filters="sRGB">
<feFlood flood-opacity="0" result="BackgroundImageFix"/>
<feColorMatrix in="SourceAlpha" type="matrix" values="0 0 0 0 0 0 0 0 0 0 0 0 0 0 0 0 0 0 127 0" result="hardAlpha"/>
<feOffset dy="4"/>
<feGaussianBlur stdDeviation="2"/>
<feComposite in2="hardAlpha" operator="out"/>
<feColorMatrix type="matrix" values="0 0 0 0 0 0 0 0 0 0 0 0 0 0 0 0 0 0 0.25 0"/>
<feBlend mode="normal" in2="BackgroundImageFix" result="effect1_dropShadow_2342_39454"/>
<feBlend mode="normal" in="SourceGraphic" in2="effect1_dropShadow_2342_39454" result="shape"/>
</filter>
<filter id="filter2_ii_2342_39454" x="17" y="62" width="224" height="148" filterUnits="userSpaceOnUse" color-interpolation-filters="sRGB">
<feFlood flood-opacity="0" result="BackgroundImageFix"/>
<feBlend mode="normal" in="SourceGraphic" in2="BackgroundImageFix" result="shape"/>
<feColorMatrix in="SourceAlpha" type="matrix" values="0 0 0 0 0 0 0 0 0 0 0 0 0 0 0 0 0 0 127 0" result="hardAlpha"/>
<feOffset dy="4"/>
<feComposite in2="hardAlpha" operator="arithmetic" k2="-1" k3="1"/>
<feColorMatrix type="matrix" values="0 0 0 0 1 0 0 0 0 1 0 0 0 0 1 0 0 0 0.25 0"/>
<feBlend mode="normal" in2="shape" result="effect1_innerShadow_2342_39454"/>
<feColorMatrix in="SourceAlpha" type="matrix" values="0 0 0 0 0 0 0 0 0 0 0 0 0 0 0 0 0 0 127 0" result="hardAlpha"/>
<feOffset dy="-4"/>
<feComposite in2="hardAlpha" operator="arithmetic" k2="-1" k3="1"/>
<feColorMatrix type="matrix" values="0 0 0 0 0 0 0 0 0 0 0 0 0 0 0 0 0 0 0.9 0"/>
<feBlend mode="soft-light" in2="effect1_innerShadow_2342_39454" result="effect2_innerShadow_2342_39454"/>
</filter>
<linearGradient id="paint0_linear_2342_39454" x1="17" y1="34" x2="197.768" y2="215.142" gradientUnits="userSpaceOnUse">
<stop stop-color="#05815D"/>
<stop offset="1" stop-color="#0C575F"/>
</linearGradient>
<linearGradient id="paint1_linear_2342_39454" x1="17" y1="62" x2="241" y2="210" gradientUnits="userSpaceOnUse">
<stop stop-color="#DCE6D7"/>
<stop offset="1" stop-color="#B0B6C1"/>
</linearGradient>
<linearGradient id="paint2_linear_2342_39454" x1="129.303" y1="82" x2="129.303" y2="190.6" gradientUnits="userSpaceOnUse">
<stop stop-color="#1281F4"/>
<stop offset="1" stop-color="#0821C6"/>
</linearGradient>
<linearGradient id="paint3_linear_2342_39454" x1="129.299" y1="99.7969" x2="129.299" y2="172.794" gradientUnits="userSpaceOnUse">
<stop stop-color="#09138A"/>
<stop offset="1" stop-color="#150740"/>
</linearGradient>
<clipPath id="clip0_2342_39454">
<rect width="256" height="256" fill="white"/>
</clipPath>
<clipPath id="clip1_2342_39454">
<rect width="108.6" height="108.6" fill="white" transform="translate(75 82)"/>
</clipPath>
</defs>
</svg>
