<svg xmlns="http://www.w3.org/2000/svg" xmlns:xlink="http://www.w3.org/1999/xlink" fill="none" version="1.1" width="256" height="256" viewBox="0 0 256 256"><defs><clipPath id="master_svg0_18_0146"><rect x="0" y="0" width="256" height="256" rx="0"/></clipPath><mask id="master_svg1_18_0172" style="mask-type:luminance" maskUnits="userSpaceOnUse" x="17" y="34" width="224" height="138"><path d="M104.425003,42.3783989C100.056,37.073299399999996,93.543701,34,86.671204,34L29,34C22.3726006,34,17,39.3726006,17,46L17,58.137100000000004L17,68.199997L17,160C17,166.627,22.3726006,172,29,172L229,172C235.627,172,241,166.627,241,160L241,70.1371C241,63.509701,235.627,58.137100000000004,229,58.137100000000004L117.404,58.137100000000004L104.425003,42.3783989Z" fill-rule="evenodd" fill="#FFFFFF" fill-opacity="1" style="mix-blend-mode:passthrough"/></mask><filter id="master_svg2_18_0170" filterUnits="objectBoundingBox" color-interpolation-filters="sRGB" x="-0.33035714285714285" y="-0.5362318840579711" width="1.6607142857142858" height="2.072463768115942"><feFlood flood-opacity="0" result="BackgroundImageFix"/><feBlend mode="normal" in="SourceGraphic" in2="BackgroundImageFix" result="shape"/><feGaussianBlur stdDeviation="18.5" result="effect1_foregroundBlur"/></filter><linearGradient x1="0" y1="0.1200297623872757" x2="1.1659761216193054" y2="0.5679338586501546" id="master_svg3_17_367"><stop offset="0%" stop-color="#6C4DFD" stop-opacity="1"/><stop offset="100%" stop-color="#30BEBC" stop-opacity="1"/></linearGradient><linearGradient x1="0" y1="0" x2="1.015377105198926" y2="0.015865267268736716" id="master_svg4_17_831"><stop offset="0%" stop-color="#8A71FF" stop-opacity="1"/><stop offset="100%" stop-color="#5BDFDD" stop-opacity="1"/></linearGradient><linearGradient x1="0" y1="0" x2="1.0050758778665696" y2="0.005127938152355682" id="master_svg5_17_0132"><stop offset="0%" stop-color="#4934AF" stop-opacity="1"/><stop offset="100%" stop-color="#1C6F6E" stop-opacity="1"/></linearGradient></defs><g clip-path="url(#master_svg0_18_0146)"><path d="M104.425003,42.3783989C100.056,37.073299399999996,93.543701,34,86.671204,34L29,34C22.3726006,34,17,39.3726006,17,46L17,58.137100000000004L17,68.199997L17,160C17,166.627,22.3726006,172,29,172L229,172C235.627,172,241,166.627,241,160L241,70.1371C241,63.509701,235.627,58.137100000000004,229,58.137100000000004L117.404,58.137100000000004L104.425003,42.3783989Z" fill-rule="evenodd" fill="#4E4CDE" fill-opacity="1" style="mix-blend-mode:passthrough"/><g mask="url(#master_svg1_18_0172)"><g style="mix-blend-mode:multiply" filter="url(#master_svg2_18_0170)"><path d="M92.789001,49.054545C97.764198,49.054545,102.605003,47.030716,106.585999,43.286644L116.459,34L229,34C235.627,34,241,40.7401667,241,49.054545L241,91.709091L241,156.94546C241,165.25932,235.627,172,229,172L29,172C22.3726006,172,17,165.25932,17,156.94546L17,91.709091L17,64.109091C17,55.794712000000004,22.3726006,49.054545,29,49.054545L87,49.054545L92.789001,49.054545Z" fill-rule="evenodd" fill="#D9E2FF" fill-opacity="0.30000001192092896" style="mix-blend-mode:passthrough"/></g></g><path d="M92.789001,74C97.764198,74,102.605003,72.386803,106.585999,69.4023972C112.994751,64.5973601,120.78881,62,128.79883999999998,62L229,62C235.627,62,241,67.3725967,241,74L241,108L241,198C241,204.627,235.627,210,229,210L29,210C22.3726006,210,17,204.627,17,198L17,108L17,86C17,79.372597,22.3726006,74,29,74L87,74L92.789001,74Z" fill-rule="evenodd" fill="url(#master_svg3_17_367)" fill-opacity="1"/><path d="M106.580025,69.4074631C102.601913,72.382709,97.765839,74,92.789993,74L29,74C22.3699989,74,17,79.370003,17,86L17,90C17,83.370003,22.3699989,78,29,78L92.790001,78C97.764168,78,102.598656,76.39377,106.576012,73.410507C106.58564,73.403287,106.594818,73.396394,106.604446,73.389175C113.001884,68.5927172,120.78214,66,128.77796,66L229,66C235.63,66,241,71.3700027,241,78L241,74C241,67.3700027,235.63,62,229,62L128.78323,62C120.78398,62,113.000389,64.5938282,106.600212,69.3923416C106.593399,69.397449,106.586853,69.4023643,106.580032,69.4074636" fill-rule="evenodd" fill="url(#master_svg4_17_831)" fill-opacity="1"/><path d="M17,194L17,198C17,204.630005,22.3699989,210,29,210L229,210C235.63,210,241,204.630005,241,198L241,194C241,200.6300049,235.63,206,229,206L29,206C22.3699989,206,17,200.6300049,17,194Z" fill-rule="evenodd" fill="url(#master_svg5_17_0132)" fill-opacity="1"/><path d="M171.7804108125,68.0070486688C171.1650008125,68.043798044,171.1140858125,68.072720543,170.2751538125,68.82131839C167.8370328125,70.9719827,164.41773581249998,77.4367714,161.0788578125,86.205318L160.14579381250002,88.641762L158.4507938125,89.183361C153.16344481250002,90.870295,148.4671168125,92.99965900000001,144.3068428125,95.58932899999999C140.31533981249999,98.065361,138.1495338125,99.676107,134.8904438125,102.548168L132.9265688125,104.27618L132.0337198125,104.121891C123.4326688125,102.61095399999999,115.7008290125,102.052757,112.1560933125,102.672028C110.7484153125,102.930801,109.5803540925,103.400047,109.2241984025,103.854389C108.6390163725,104.60730699999999,108.6102430925,105.626026,109.0866581825,107.919464C109.9892598125,112.10179099999999,112.3284361125,117.575867,116.01104211250001,124.094841L118.3889141125,128.279507L118.3146028125,129.855782C118.2213802125,131.542721,118.3146868125,134.15621199999998,118.5187111125,135.922539C118.6422872125,137.001251,118.6239376125,137.028931,118.0588541125,137.669701C115.8687892125,140.16125499999998,115.5412559125,144.334862,117.1854296125,148.95812999999998C117.8963508125,150.93364,120.0893078125,154.62458800000002,121.4476328125,156.127869C124.8535498125,159.88926700000002,128.8627648125,161.68792000000002,131.92398281250001,160.813278C132.4991818125,160.649406,132.6178988125,160.68111399999998,133.3706378125,161.198883C136.2303578125,163.123512,141.0635868125,164.77981599999998,145.3331678125,165.294388C152.4913518125,166.166901,160.7319108125,164.40271,171.01163081250002,159.798393C175.3026048125,157.86714899999998,184.7932208125,152.364983,188.8050538125,149.46057100000002C196.2753298125,144.08630399999998,201.7960438125,138.382179,204.89597281250002,132.867882C207.6421208125,127.956467,209.00942281250002,122.91864799999999,208.9131628125,117.873165C208.9011828125,116.814228,208.9302728125,116.747402,209.3572428125,116.502251C211.4483928125,115.284138,212.53438281249998,112.59338,212.3050928125,109.224834C212.2342928125,108.265491,212.0396228125,106.977146,211.8928928125,106.37809C210.88815281249998,102.65436600000001,208.2645878125,98.192617,205.5261688125,95.581455C202.4843978125,92.67874499999999,199.0364308125,91.44232600000001,196.6289138125,92.374641C196.0954358125,92.581064,196.02269781249998,92.572554,195.5101848125,92.15098C194.3758318125,91.235476,191.6587828125,89.52832599999999,190.0027088125,88.69581600000001L188.28761281250002,87.84756300000001L187.0734708125,85.610094C183.93032081249999,79.84776600000001,178.87441981249998,73.1009636,175.2439878125,69.8187946C173.6899638125,68.41123578,172.7772138125,67.934692025,171.7804108125,68.0070486688ZM135.2596488125,118.22217599999999C136.6461948125,117.007671,138.5334968125,115.924267,142.3070258125,113.756588L164.0158038125,101.287495C167.7893338125,99.12003899999999,169.6762088125,98.035568,171.4266128125,97.448427C178.5154878125,95.070292,186.3470458125,97.159431,191.2910838125,102.745232C192.5118488125,104.124443,193.6029818125,106.001423,195.7814178125,109.755367C197.9600598125,113.509312,199.0482028125,115.387562,199.63858081249998,117.128975C202.0285648125,124.181446,199.9305728125,131.971947,194.31613881250001,136.890602C192.9296038125,138.105095,191.0425258125,139.18850700000002,187.26876781250002,141.355972L165.5599978125,153.82527199999998C161.7862508125,155.992729,159.8998028125,157.076988,158.1491888125,157.664352C151.0605278125,160.04227400000002,143.2298198125,157.95460500000002,138.2857918125,152.36924C137.0648118125,150.990028,135.97409981250001,149.113266,133.7954538125,145.359116C131.6168158125,141.605164,130.5286678125,139.726913,129.9382838125,137.985489C127.5480918125,130.932808,129.6450218125,123.140816,135.2596488125,118.22217599999999ZM167.9048308125,116.192955L176.0717928125,130.26591100000002C176.2759478125,130.617691,176.72637181250002,130.738281,177.07920881249999,130.535618L183.22956081249998,127.00293400000001C183.58164181249998,126.800709,183.7022018125,126.351128,183.49849681249998,126.000118L175.3315428125,111.92716200000001C175.1273878125,111.57538199999999,174.6769638125,111.454792,174.3241268125,111.657455L168.1737628125,115.19014C167.8217008125,115.392361,167.7011298125,115.841942,167.9048308125,116.192955ZM144.7672348125,129.481045L152.9341848125,143.554001C153.1383398125,143.90578499999998,153.5887638125,144.026367,153.94160081249998,143.823708L160.0919608125,140.291023C160.4440308125,140.088799,160.5645938125,139.63921399999998,160.3608928125,139.288216L152.1939358125,125.215248C151.9897878125,124.863472,151.5393638125,124.74287799999999,151.1865238125,124.945549L145.0361638125,128.478237C144.6840968125,128.680454,144.5635298125,129.130035,144.7672348125,129.481045Z" fill-rule="evenodd" fill="#FFFFFF" fill-opacity="1" style="mix-blend-mode:passthrough" transform="matrix(0.8660253882408142,0.5,-0.5,0.8660253882408142,48.570393201720435,-45.267167806625366)"/></g></svg>