<svg width="256" height="256" viewBox="0 0 256 256" fill="none" xmlns="http://www.w3.org/2000/svg">
<g clip-path="url(#clip0_2283_38773)">
<path fill-rule="evenodd" clip-rule="evenodd" d="M104.425 42.3784C100.056 37.0733 93.5437 34 86.6712 34H29C22.3726 34 17 39.3726 17 46V58.1371V68.2V160C17 166.627 22.3726 172 29 172H229C235.627 172 241 166.627 241 160V70.1371C241 63.5097 235.627 58.1371 229 58.1371H117.404L104.425 42.3784Z" fill="url(#paint0_linear_2283_38773)"/>
<mask id="mask0_2283_38773" style="mask-type:alpha" maskUnits="userSpaceOnUse" x="17" y="34" width="224" height="138">
<path fill-rule="evenodd" clip-rule="evenodd" d="M104.425 42.3784C100.056 37.0733 93.5437 34 86.6712 34H29C22.3726 34 17 39.3726 17 46V58.1371V68.2V160C17 166.627 22.3726 172 29 172H229C235.627 172 241 166.627 241 160V70.1371C241 63.5097 235.627 58.1371 229 58.1371H117.404L104.425 42.3784Z" fill="url(#paint1_linear_2283_38773)"/>
</mask>
<g mask="url(#mask0_2283_38773)">
<g style="mix-blend-mode:multiply" filter="url(#filter0_f_2283_38773)">
<path fill-rule="evenodd" clip-rule="evenodd" d="M92.789 74C97.7642 74 102.605 72.3868 106.586 69.4024L116.459 62H229C235.627 62 241 67.3726 241 74V108V160C241 166.627 235.627 172 229 172H29C22.3726 172 17 166.627 17 160L17 108V86C17 79.3726 22.3726 74 29 74H87H92.789Z" fill="black" fill-opacity="0.3"/>
</g>
</g>
<g filter="url(#filter1_ii_2283_38773)">
<path fill-rule="evenodd" clip-rule="evenodd" d="M92.789 74C97.7642 74 102.605 72.3868 106.586 69.4024L116.459 62H229C235.627 62 241 67.3726 241 74V108V198C241 204.627 235.627 210 229 210H29C22.3726 210 17 204.627 17 198L17 108V86C17 79.3726 22.3726 74 29 74H87H92.789Z" fill="url(#paint2_linear_2283_38773)"/>
</g>
<path d="M128.924 172.848C153.734 172.848 173.848 152.734 173.848 127.924C173.848 103.113 153.734 83 128.924 83C104.113 83 84 103.113 84 127.924C84 152.734 104.113 172.848 128.924 172.848Z" fill="#EC3729"/>
<path fill-rule="evenodd" clip-rule="evenodd" d="M122.375 131.761L135.768 145.961C138.543 148.736 140.802 149.479 144.191 149.479H155.938L139.802 134.343H141.674C149.871 134.343 153.97 131.245 153.97 125.145V115.657C153.97 109.493 149.871 106.395 141.674 106.395H104.27V149.479H116.565V115.657H139.156C140.867 115.657 141.706 116.302 141.706 117.561V123.725C141.706 124.984 140.867 125.629 139.156 125.629H123.181C123.181 125.629 120.309 125.5 120.438 128.308C120.438 128.308 120.341 129.663 122.407 131.761" fill="white"/>
</g>
<defs>
<filter id="filter0_f_2283_38773" x="-20" y="25" width="298" height="184" filterUnits="userSpaceOnUse" color-interpolation-filters="sRGB">
<feFlood flood-opacity="0" result="BackgroundImageFix"/>
<feBlend mode="normal" in="SourceGraphic" in2="BackgroundImageFix" result="shape"/>
<feGaussianBlur stdDeviation="18.5" result="effect1_foregroundBlur_2283_38773"/>
</filter>
<filter id="filter1_ii_2283_38773" x="17" y="62" width="224" height="148" filterUnits="userSpaceOnUse" color-interpolation-filters="sRGB">
<feFlood flood-opacity="0" result="BackgroundImageFix"/>
<feBlend mode="normal" in="SourceGraphic" in2="BackgroundImageFix" result="shape"/>
<feColorMatrix in="SourceAlpha" type="matrix" values="0 0 0 0 0 0 0 0 0 0 0 0 0 0 0 0 0 0 127 0" result="hardAlpha"/>
<feOffset dy="4"/>
<feComposite in2="hardAlpha" operator="arithmetic" k2="-1" k3="1"/>
<feColorMatrix type="matrix" values="0 0 0 0 1 0 0 0 0 1 0 0 0 0 1 0 0 0 0.25 0"/>
<feBlend mode="normal" in2="shape" result="effect1_innerShadow_2283_38773"/>
<feColorMatrix in="SourceAlpha" type="matrix" values="0 0 0 0 0 0 0 0 0 0 0 0 0 0 0 0 0 0 127 0" result="hardAlpha"/>
<feOffset dy="-4"/>
<feComposite in2="hardAlpha" operator="arithmetic" k2="-1" k3="1"/>
<feColorMatrix type="matrix" values="0 0 0 0 0 0 0 0 0 0 0 0 0 0 0 0 0 0 0.9 0"/>
<feBlend mode="soft-light" in2="effect1_innerShadow_2283_38773" result="effect2_innerShadow_2283_38773"/>
</filter>
<linearGradient id="paint0_linear_2283_38773" x1="129" y1="34" x2="129" y2="172" gradientUnits="userSpaceOnUse">
<stop stop-color="#EC3729"/>
</linearGradient>
<linearGradient id="paint1_linear_2283_38773" x1="17" y1="34" x2="197.768" y2="215.142" gradientUnits="userSpaceOnUse">
<stop stop-color="#05815D"/>
<stop offset="1" stop-color="#0C575F"/>
</linearGradient>
<linearGradient id="paint2_linear_2283_38773" x1="17" y1="62" x2="241" y2="210" gradientUnits="userSpaceOnUse">
<stop stop-color="#FDAB2B"/>
<stop offset="1" stop-color="#DD6028"/>
</linearGradient>
<clipPath id="clip0_2283_38773">
<rect width="256" height="256" fill="white"/>
</clipPath>
</defs>
</svg>
