<svg width="256" height="256" viewBox="0 0 256 256" fill="none" xmlns="http://www.w3.org/2000/svg">
<path fill-rule="evenodd" clip-rule="evenodd" d="M104.425 42.3784C100.056 37.0733 93.5437 34 86.6712 34H29C22.3726 34 17 39.3726 17 46V58.1371V68.2V160C17 166.627 22.3726 172 29 172H229C235.627 172 241 166.627 241 160V70.1371C241 63.5097 235.627 58.1371 229 58.1371H117.404L104.425 42.3784Z" fill="#091631"/>
<mask id="mask0_657_15245" style="mask-type:alpha" maskUnits="userSpaceOnUse" x="17" y="34" width="224" height="138">
<path fill-rule="evenodd" clip-rule="evenodd" d="M104.425 42.3784C100.056 37.0733 93.5437 34 86.6712 34H29C22.3726 34 17 39.3726 17 46V58.1371V68.2V160C17 166.627 22.3726 172 29 172H229C235.627 172 241 166.627 241 160V70.1371C241 63.5097 235.627 58.1371 229 58.1371H117.404L104.425 42.3784Z" fill="url(#paint0_linear_657_15245)"/>
</mask>
<g mask="url(#mask0_657_15245)">
<g style="mix-blend-mode:multiply" filter="url(#filter0_f_657_15245)">
<path fill-rule="evenodd" clip-rule="evenodd" d="M92.789 74C97.7642 74 102.605 72.3868 106.586 69.4024L116.459 62H229C235.627 62 241 67.3726 241 74V108V160C241 166.627 235.627 172 229 172H29C22.3726 172 17 166.627 17 160L17 108V86C17 79.3726 22.3726 74 29 74H87H92.789Z" fill="black" fill-opacity="0.3"/>
</g>
</g>
<g filter="url(#filter1_ii_657_15245)">
<path fill-rule="evenodd" clip-rule="evenodd" d="M92.789 74C97.7642 74 102.605 72.3868 106.586 69.4024L116.459 62H229C235.627 62 241 67.3726 241 74V108V198C241 204.627 235.627 210 229 210H29C22.3726 210 17 204.627 17 198L17 108V86C17 79.3726 22.3726 74 29 74H87H92.789Z" fill="url(#paint1_linear_657_15245)"/>
</g>
<path d="M96.5841 119.886C95.357 119.328 94.2947 118.896 93.4299 118.571C93.2467 117.208 93.1157 115.842 93.0309 114.472C92.9651 113.344 93.0056 112.231 93.1409 111.136C93.8771 111.257 94.921 111.44 96.2211 111.692C96.0934 113.242 96.0815 114.875 96.2211 116.6C96.3092 117.702 96.4295 118.798 96.5841 119.886V119.886ZM108.711 127.046C105.608 124.771 102.696 123.006 100.166 121.654C99.6531 118.501 99.433 115.377 99.6271 112.403C101.968 112.92 104.733 113.586 107.777 114.432C107.574 118.409 107.948 122.687 108.711 127.046V127.046ZM140.559 128.705C140.53 129.049 140.49 129.396 140.453 129.745C136.215 131.957 132 134.938 128.209 138.96C126.982 140.26 125.865 141.564 124.843 142.864C123.698 141.414 122.473 139.945 121.174 138.469C120.592 137.809 120.009 137.169 119.42 136.546C118.446 130.023 117.826 123.585 117.712 117.552C125.253 120.23 133.395 123.863 140.559 128.705V128.705Z" fill="#2AC64B"/>
<path d="M97.51 105.353C96.8763 107.276 96.4148 109.388 96.2216 111.692C94.9213 111.44 93.8776 111.257 93.1412 111.136C93.2246 110.447 93.3464 109.766 93.5036 109.096C94.4263 108.102 95.7635 106.788 97.51 105.353V105.353Z" fill="#008A5A"/>
<path d="M112.267 97.0391C110.036 101.13 108.249 106.642 107.798 114C107.791 114.143 107.784 114.289 107.776 114.432C104.732 113.586 101.967 112.92 99.6274 112.403C99.631 112.304 99.6384 112.209 99.6451 112.11C99.9352 108.253 101.074 104.716 102.795 101.573C105.458 99.9286 108.611 98.3317 112.267 97.0391Z" fill="#009550"/>
<path d="M140.559 128.705C133.395 123.863 125.253 120.23 117.712 117.552C117.567 110.367 118.126 103.76 119.613 98.2877C119.654 98.1374 119.694 97.9878 119.738 97.8408C125.719 101.376 133.512 105.316 140.911 107.049C141.555 113.571 141.361 120.984 140.559 128.705Z" fill="#00983E"/>
<path d="M165.955 114.472C165.772 117.508 165.34 120.512 164.666 123.515C163.812 123.547 162.83 123.603 161.739 123.698C162.219 121.383 162.571 119.014 162.765 116.6C163.413 108.481 160.79 102.294 157.755 97.9761C158.645 98.2291 159.487 98.4778 160.274 98.7198C163.684 103.041 166.314 108.593 165.955 114.472V114.472ZM158.374 124.09C155.997 124.43 153.315 124.961 150.485 125.77C151.133 121.694 151.415 117.713 151.187 113.999C150.671 105.529 148.378 99.5067 145.68 95.2769C148.217 95.6945 150.623 96.1888 152.843 96.7089C156.385 100.892 158.89 106.11 159.34 112.11C159.626 115.933 159.216 120.01 158.374 124.09V124.09Z" fill="#009A37"/>
<path d="M140.911 107.049C133.512 105.316 125.719 101.375 119.739 97.8408C120.054 96.7463 120.407 95.7495 120.796 94.8454C121.892 94.6587 123.019 94.505 124.181 94.3873C128.854 93.9116 133.52 93.9554 137.963 94.3209C138.486 95.4789 138.966 96.7935 139.373 98.2877C140.097 100.958 140.603 103.899 140.911 107.049V107.049Z" fill="#00863F"/>
<path d="M108.97 90.3765C108.725 90.527 100.777 95.4201 97.5097 105.352C95.7632 106.788 94.4262 108.103 93.5043 109.096C95.6641 99.7265 104.29 92.0725 108.97 90.3765V90.3765ZM113.999 94.2406C113.402 95.0904 112.82 96.0207 112.266 97.0394C108.611 98.3318 105.458 99.9287 102.796 101.574C104.832 97.8368 107.692 94.6549 110.919 92.1311C111.684 92.6766 112.731 93.4018 113.999 94.2406V94.2406Z" fill="#06CBF6"/>
<path d="M160.275 98.7201C159.487 98.478 158.645 98.2291 157.755 97.9763C154.169 92.8714 150.009 90.3728 150.009 90.3728C152.77 91.3696 156.904 94.4464 160.275 98.7201V98.7201ZM152.843 96.7091C150.623 96.1888 148.217 95.6947 145.68 95.2771C141.127 88.1281 135.41 86.0986 135.131 86.0036C141.262 87.2307 148.016 91.0101 152.843 96.7091ZM137.963 94.3213C133.52 93.9547 128.854 93.9111 124.181 94.3875C123.02 94.5045 121.892 94.6582 120.796 94.8457C124.078 87.1068 129.418 86 129.418 86H129.568C129.568 86 134.667 87.0547 137.963 94.3213V94.3213ZM123.855 86.0038C123.591 86.0953 118.419 87.9302 113.998 94.241C112.732 93.4022 111.684 92.677 110.918 92.1314C114.95 88.9815 119.555 86.8643 123.855 86.0038V86.0038Z" fill="url(#paint2_linear_657_15245)"/>
<path d="M129.492 186.419H134.981L137.011 177.559H121.975L124.005 186.419H129.492Z" fill="#B4B4B4"/>
<path fill-rule="evenodd" clip-rule="evenodd" d="M108.765 146.757C109.82 148.94 110.827 150.889 111.694 152.515C113.182 155.298 114.596 157.663 116.054 159.817C116.475 158.342 117.001 156.785 117.657 155.173C116.525 152.577 115.39 149.789 114.311 146.885C111.963 140.575 109.878 133.712 108.711 127.045C105.609 124.771 102.697 123.006 100.165 121.655C101.616 130.628 105.428 139.868 108.765 146.757V146.757Z" fill="url(#paint3_linear_657_15245)"/>
<path fill-rule="evenodd" clip-rule="evenodd" d="M103.806 146.644C104.404 147.687 105.026 148.738 105.67 149.797C108.684 154.738 112.164 159.302 115.262 163.008C115.354 162.557 115.46 162.095 115.578 161.624C114.324 159.902 113.101 158.151 112.05 156.528C110.541 154.207 108.359 150.841 106.085 146.698C102.187 139.593 98.0274 130.203 96.5842 119.886C95.3573 119.329 94.295 118.897 93.4302 118.571C94.6757 127.823 98.213 136.901 103.806 146.644V146.644Z" fill="url(#paint4_linear_657_15245)"/>
<path fill-rule="evenodd" clip-rule="evenodd" d="M119.965 139.989C120.357 142.326 120.815 144.699 121.309 147.043C121.357 147.267 121.404 147.489 121.452 147.713C122.44 146.113 123.566 144.49 124.843 142.865C123.659 141.367 122.435 139.902 121.174 138.469C120.592 137.81 120.009 137.17 119.42 136.547C119.591 137.693 119.77 138.84 119.965 139.989Z" fill="url(#paint5_linear_657_15245)"/>
<path fill-rule="evenodd" clip-rule="evenodd" d="M161.739 123.698C160.343 130.477 157.884 136.756 155.269 142.126C155.798 142.657 156.314 143.186 156.813 143.71C160.54 136.783 163.188 130.155 164.666 123.515C163.812 123.548 162.83 123.602 161.739 123.698ZM150.485 125.771C149.974 129.008 149.235 132.304 148.344 135.571C149.884 136.961 151.57 138.518 153.226 140.115C155.297 135.168 157.234 129.624 158.374 124.09C155.997 124.431 153.316 124.962 150.485 125.771V125.771Z" fill="#97CC1A"/>
<path fill-rule="evenodd" clip-rule="evenodd" d="M128.209 138.959C126.982 140.259 125.865 141.564 124.843 142.864C129.3 148.497 132.616 153.851 135.014 158.33C135.887 154.961 136.791 151.232 137.599 147.412C138.124 144.947 138.607 142.449 139.02 139.989C139.6 136.553 140.083 133.122 140.453 129.745C136.215 131.957 132 134.939 128.209 138.959V138.959ZM155.269 142.125C155.169 142.331 155.069 142.535 154.968 142.738C152.011 148.707 148.901 153.501 146.936 156.528C144.668 160.019 141.614 164.11 139.193 167.241C139.281 167.472 139.365 167.688 139.446 167.893C143.195 163.809 148.785 157.228 153.316 149.797C154.452 147.931 155.516 146.093 156.507 144.276C156.61 144.087 156.712 143.898 156.813 143.709C156.314 143.186 155.798 142.656 155.269 142.125ZM148.344 135.571L148.226 135.997C145.354 146.371 140.978 156.422 137.515 163.348C137.893 164.171 138.233 164.938 138.534 165.641C141.732 161.835 144.367 157.982 147.291 152.515C148.897 149.505 150.98 145.402 152.964 140.734L153.226 140.115C151.57 138.517 149.884 136.961 148.344 135.571Z" fill="url(#paint6_linear_657_15245)"/>
<path fill-rule="evenodd" clip-rule="evenodd" d="M132.38 172.377C134.717 169.955 136.718 167.806 138.534 165.641C138.233 164.939 137.893 164.172 137.515 163.349C135.062 168.257 133.062 171.596 132.38 172.377V172.377Z" fill="url(#paint7_linear_657_15245)"/>
<path fill-rule="evenodd" clip-rule="evenodd" d="M135.249 172.233C135.373 172.112 137.029 170.52 139.446 167.893C139.365 167.688 139.281 167.472 139.193 167.241C137.029 170.044 135.376 172.08 135.249 172.233V172.233Z" fill="url(#paint8_linear_657_15245)"/>
<path fill-rule="evenodd" clip-rule="evenodd" d="M121.452 147.713C124.214 160.63 128 172.479 128 172.479H130.986C130.986 172.479 132.908 166.461 135.014 158.33C132.616 153.851 129.3 148.497 124.843 142.864C123.566 144.489 122.44 146.112 121.452 147.713Z" fill="url(#paint9_linear_657_15245)"/>
<path fill-rule="evenodd" clip-rule="evenodd" d="M116.054 159.817C119.072 164.3 122.254 167.864 126.606 172.376C125.591 171.215 121.664 164.392 117.657 155.173C117.001 156.785 116.475 158.341 116.054 159.817Z" fill="url(#paint10_linear_657_15245)"/>
<path fill-rule="evenodd" clip-rule="evenodd" d="M115.262 163.008C119.818 168.461 123.551 172.051 123.741 172.234C123.54 171.985 119.427 166.93 115.578 161.624C115.46 162.095 115.354 162.558 115.262 163.008V163.008Z" fill="url(#paint11_linear_657_15245)"/>
<defs>
<filter id="filter0_f_657_15245" x="-20" y="25" width="298" height="184" filterUnits="userSpaceOnUse" color-interpolation-filters="sRGB">
<feFlood flood-opacity="0" result="BackgroundImageFix"/>
<feBlend mode="normal" in="SourceGraphic" in2="BackgroundImageFix" result="shape"/>
<feGaussianBlur stdDeviation="18.5" result="effect1_foregroundBlur_657_15245"/>
</filter>
<filter id="filter1_ii_657_15245" x="17" y="62" width="224" height="148" filterUnits="userSpaceOnUse" color-interpolation-filters="sRGB">
<feFlood flood-opacity="0" result="BackgroundImageFix"/>
<feBlend mode="normal" in="SourceGraphic" in2="BackgroundImageFix" result="shape"/>
<feColorMatrix in="SourceAlpha" type="matrix" values="0 0 0 0 0 0 0 0 0 0 0 0 0 0 0 0 0 0 127 0" result="hardAlpha"/>
<feOffset dy="4"/>
<feComposite in2="hardAlpha" operator="arithmetic" k2="-1" k3="1"/>
<feColorMatrix type="matrix" values="0 0 0 0 1 0 0 0 0 1 0 0 0 0 1 0 0 0 0.25 0"/>
<feBlend mode="normal" in2="shape" result="effect1_innerShadow_657_15245"/>
<feColorMatrix in="SourceAlpha" type="matrix" values="0 0 0 0 0 0 0 0 0 0 0 0 0 0 0 0 0 0 127 0" result="hardAlpha"/>
<feOffset dy="-4"/>
<feComposite in2="hardAlpha" operator="arithmetic" k2="-1" k3="1"/>
<feColorMatrix type="matrix" values="0 0 0 0 0 0 0 0 0 0 0 0 0 0 0 0 0 0 0.9 0"/>
<feBlend mode="soft-light" in2="effect1_innerShadow_657_15245" result="effect2_innerShadow_657_15245"/>
</filter>
<linearGradient id="paint0_linear_657_15245" x1="17" y1="34" x2="197.768" y2="215.142" gradientUnits="userSpaceOnUse">
<stop stop-color="#05815D"/>
<stop offset="1" stop-color="#0C575F"/>
</linearGradient>
<linearGradient id="paint1_linear_657_15245" x1="17" y1="62" x2="241" y2="210" gradientUnits="userSpaceOnUse">
<stop stop-color="#006288"/>
<stop offset="1" stop-color="#0A0D27"/>
</linearGradient>
<linearGradient id="paint2_linear_657_15245" x1="113.113" y1="91.7172" x2="157.356" y2="93.0579" gradientUnits="userSpaceOnUse">
<stop stop-color="#0288F7"/>
<stop offset="1" stop-color="#2EE2BD"/>
</linearGradient>
<linearGradient id="paint3_linear_657_15245" x1="116.511" y1="156.528" x2="105.628" y2="129.616" gradientUnits="userSpaceOnUse">
<stop stop-color="#CB1918"/>
<stop offset="0.388" stop-color="#A2183D"/>
<stop offset="0.749" stop-color="#902869"/>
<stop offset="1" stop-color="#73358A"/>
</linearGradient>
<linearGradient id="paint4_linear_657_15245" x1="111.012" y1="158.752" x2="100.129" y2="131.84" gradientUnits="userSpaceOnUse">
<stop stop-color="#CB1918"/>
<stop offset="0.388" stop-color="#A2183D"/>
<stop offset="0.749" stop-color="#902869"/>
<stop offset="1" stop-color="#73358A"/>
</linearGradient>
<linearGradient id="paint5_linear_657_15245" x1="126.121" y1="152.643" x2="115.238" y2="125.73" gradientUnits="userSpaceOnUse">
<stop stop-color="#CB1918"/>
<stop offset="0.388" stop-color="#A2183D"/>
<stop offset="0.749" stop-color="#902869"/>
<stop offset="1" stop-color="#73358A"/>
</linearGradient>
<linearGradient id="paint6_linear_657_15245" x1="147.762" y1="136.745" x2="131.969" y2="153.996" gradientUnits="userSpaceOnUse">
<stop stop-color="#ADD816"/>
<stop offset="1" stop-color="#DBD704"/>
</linearGradient>
<linearGradient id="paint7_linear_657_15245" x1="136.544" y1="170.554" x2="123.1" y2="147.882" gradientUnits="userSpaceOnUse">
<stop stop-color="#E1282B"/>
<stop offset="0.388" stop-color="#E3402A"/>
<stop offset="0.702" stop-color="#E76226"/>
<stop offset="1" stop-color="#F19A0A"/>
</linearGradient>
<linearGradient id="paint8_linear_657_15245" x1="137.403" y1="170.045" x2="123.959" y2="147.373" gradientUnits="userSpaceOnUse">
<stop stop-color="#E1282B"/>
<stop offset="0.388" stop-color="#E3402A"/>
<stop offset="0.702" stop-color="#E76226"/>
<stop offset="1" stop-color="#F19A0A"/>
</linearGradient>
<linearGradient id="paint9_linear_657_15245" x1="135.118" y1="171.4" x2="121.673" y2="148.728" gradientUnits="userSpaceOnUse">
<stop stop-color="#E1282B"/>
<stop offset="0.388" stop-color="#E3402A"/>
<stop offset="0.702" stop-color="#E76226"/>
<stop offset="1" stop-color="#F19A0A"/>
</linearGradient>
<linearGradient id="paint10_linear_657_15245" x1="127.707" y1="175.794" x2="114.263" y2="153.122" gradientUnits="userSpaceOnUse">
<stop stop-color="#E1282B"/>
<stop offset="0.388" stop-color="#E3402A"/>
<stop offset="0.702" stop-color="#E76226"/>
<stop offset="1" stop-color="#F19A0A"/>
</linearGradient>
<linearGradient id="paint11_linear_657_15245" x1="125.222" y1="177.268" x2="111.778" y2="154.596" gradientUnits="userSpaceOnUse">
<stop stop-color="#E1282B"/>
<stop offset="0.388" stop-color="#E3402A"/>
<stop offset="0.702" stop-color="#E76226"/>
<stop offset="1" stop-color="#F19A0A"/>
</linearGradient>
</defs>
</svg>
