<svg width="256" height="256" viewBox="0 0 256 256" fill="none" xmlns="http://www.w3.org/2000/svg">
<g clip-path="url(#clip0_4402_13348)">
<path d="M104.425 42.3784C100.056 37.0733 93.5437 34 86.6712 34H29C22.3726 34 17 39.3726 17 46V160C17 166.627 22.3726 172 29 172H229C235.627 172 241 166.627 241 160V70.1371C241 63.5097 235.627 58.1371 229 58.1371H117.404L104.425 42.3784Z" fill="url(#paint0_linear_4402_13348)"/>
<mask id="mask0_4402_13348" style="mask-type:alpha" maskUnits="userSpaceOnUse" x="17" y="34" width="224" height="138">
<path d="M86.6709 34C93.5434 34 100.057 37.0729 104.426 42.3779L117.403 58.1367H229C235.627 58.1367 241 63.5095 241 70.1367V160C241 166.627 235.627 172 229 172H29C22.3726 172 17 166.627 17 160V46C17 39.3726 22.3726 34 29 34H86.6709Z" fill="url(#paint1_linear_4402_13348)"/>
</mask>
<g mask="url(#mask0_4402_13348)">
<g filter="url(#filter0_f_4402_13348)" style="mix-blend-mode:multiply">
<path d="M241 160C241 166.627 235.627 172 229 172H29C22.3726 172 17 166.627 17 160V86C17 79.3726 22.3726 74 29 74H92.79C97.7649 73.9999 102.605 72.3865 106.586 69.4023L116.46 62H229C235.627 62 241 67.3726 241 74V160Z" fill="black" fill-opacity="0.3"/>
</g>
</g>
<g filter="url(#filter1_ii_4402_13348)">
<path d="M241 198C241 204.627 235.627 210 229 210H29C22.3726 210 17 204.627 17 198V86C17 79.3726 22.3726 74 29 74H92.79C97.7649 73.9999 102.605 72.3865 106.586 69.4023L116.46 62H229C235.627 62 241 67.3726 241 74V198Z" fill="url(#paint2_linear_4402_13348)"/>
</g>
<g clip-path="url(#clip1_4402_13348)">
<path d="M214.522 119.657V119.666C213.713 122.91 211.39 125.26 209.719 126.743L209.678 126.779C209.418 127.005 209.145 127.217 208.86 127.412C208.984 127.665 209.087 127.926 209.17 128.194L209.184 128.243C209.503 129.313 209.584 130.438 209.422 131.542C209.118 133.387 208.619 135.194 207.935 136.934C207.634 137.779 207.346 138.578 207.126 139.365C206.519 141.468 205.827 143.957 205.27 146.5C204.874 148.355 204.735 150.256 204.857 152.148C204.93 152.985 204.78 153.825 204.423 154.585C204.065 155.344 203.512 155.995 202.821 156.471C201.479 157.507 199.974 158.313 198.368 158.857C195.722 159.662 193.875 158.961 192.792 158.228C192.615 158.108 192.445 157.978 192.284 157.837C190.947 158.674 189.451 159.225 187.89 159.455C187.266 159.548 186.637 159.596 186.007 159.598C184.783 159.633 183.565 159.409 182.433 158.94C181.302 158.47 180.282 157.767 179.442 156.876C179.221 156.643 179.012 156.398 178.817 156.143C178.231 156.566 177.614 156.944 176.971 157.276C175.158 158.235 173.087 158.594 171.057 158.3C169.344 158.111 167.722 157.429 166.389 156.336C164.858 154.979 163.856 153.125 163.558 151.102C163.463 150.598 163.399 150.089 163.365 149.578C162.461 150.868 161.486 152.077 160.547 153.213C158.805 155.417 156.595 157.207 154.077 158.453C151.463 159.729 148.467 159.985 145.674 159.172C144.134 158.791 142.664 158.168 141.32 157.325C140.606 156.861 139.963 156.296 139.41 155.649C138.862 156.215 138.314 156.736 137.788 157.24C137.469 157.545 137.146 157.851 136.831 158.161C136.34 158.646 135.757 159.028 135.115 159.285C134.474 159.541 133.788 159.666 133.097 159.653C132.73 159.652 132.363 159.622 132.001 159.563C130.403 159.326 128.844 158.879 127.363 158.233L127.318 158.21C125.821 157.544 124.541 156.469 123.625 155.11C122.237 156.244 120.709 157.194 119.078 157.936C117.457 158.72 115.713 159.217 113.924 159.405C112.35 159.581 110.766 159.643 109.183 159.59C106.531 159.492 103.957 158.672 101.738 157.217C99.4181 155.638 97.7622 153.259 97.0868 150.535C97.0734 150.477 97.0555 150.418 97.0418 150.36C96.2791 150.714 95.4765 150.975 94.6514 151.138C92.5033 151.61 90.2642 151.453 88.2035 150.684C87.1199 150.273 86.1586 149.593 85.4094 148.709C84.6605 147.825 84.1483 146.765 83.9212 145.629C82.2409 148.03 80.7105 150.534 79.338 153.124C79.1942 153.389 79.0503 153.712 78.8931 154.049C78.5848 154.756 78.2304 155.442 77.8325 156.103C77.1537 157.233 76.1879 158.163 75.0334 158.799C73.8788 159.435 72.5766 159.754 71.2588 159.724H71.2363C69.8333 159.765 68.4416 159.461 67.1832 158.839C67.0394 158.763 66.9002 158.682 66.7654 158.597C66.5722 158.695 66.379 158.79 66.1767 158.884C64.3708 159.795 62.4199 160.383 60.4117 160.623L60.0881 160.659C59.2569 160.74 58.3447 160.83 57.3831 160.83C57.109 160.83 56.8304 160.821 56.5518 160.807C53.7854 160.69 51.1284 159.694 48.967 157.963C46.7836 156.176 45.2902 153.685 44.7431 150.917C44.3527 149.046 44.2934 147.121 44.5679 145.229C44.9709 142.473 45.8642 139.811 47.2055 137.37C48.227 135.419 49.4451 133.577 50.8407 131.874C52.3615 130.021 54.1627 128.417 56.1789 127.12C57.8118 126.056 59.6377 125.321 61.553 124.959C64.1637 124.474 66.671 125.098 69.2368 126.873C70.5652 127.782 71.7074 128.937 72.6022 130.275C74.3547 127.826 76.5474 126.41 79.1222 126.078C80.4219 125.866 81.7555 126.053 82.9462 126.616C84.1369 127.178 85.1288 128.089 85.7904 129.228C86.5306 128.72 87.3122 128.274 88.1269 127.898C89.8378 127.054 91.7293 126.642 93.6359 126.698C96.5791 126.828 98.8168 127.803 100.47 129.681C101.128 130.431 101.628 131.305 101.94 132.252C102.601 131.45 103.326 130.701 104.106 130.014C106.183 128.088 108.768 126.797 111.556 126.293C112.578 126.147 113.613 126.114 114.643 126.195C114.858 126.204 115.079 126.213 115.294 126.217C116.852 126.277 118.383 126.646 119.796 127.304C121.591 128.076 123.116 129.363 124.178 131.002C124.402 130.629 124.645 130.261 124.901 129.906C126.429 127.79 128.343 126.541 130.59 126.19C131.585 126.002 132.609 126.023 133.596 126.249C134.584 126.476 135.514 126.904 136.328 127.507C137.289 128.252 138.013 129.26 138.413 130.408C138.812 131.557 138.87 132.796 138.579 133.977C138.494 134.382 138.404 134.79 138.314 135.195C138.678 134.417 139.051 133.631 139.442 132.854C140.619 130.481 142.174 128.859 144.191 127.902C145.423 127.288 146.799 127.022 148.171 127.131C149.543 127.24 150.859 127.721 151.978 128.522C152.994 129.214 154.238 130.567 154.409 133.083C154.465 134.602 154.232 136.118 153.722 137.549C153.623 137.873 153.524 138.201 153.421 138.529L153.609 138.098C153.991 137.226 154.378 136.354 154.769 135.491C155.964 132.84 157.191 130.131 160.466 128.104C161.191 127.636 161.965 127.25 162.776 126.954C165.315 126.091 170.554 126.302 172.405 129.664C173.392 128.762 174.506 128.013 175.712 127.439C177.356 126.624 179.167 126.201 181.001 126.204L181.172 126.208C182.573 126.169 183.972 126.347 185.319 126.734C186.186 127 186.995 127.425 187.705 127.987C189.718 127.273 192.284 127.318 194.176 128.805C194.549 129.104 194.881 129.45 195.165 129.834C195.738 128.929 196.391 128.077 197.115 127.286C197.925 126.385 198.903 125.649 199.995 125.121C199.588 124.152 199.285 123.143 199.092 122.11C198.883 121.125 198.763 120.124 198.732 119.117V119.037C198.682 117.148 199.245 115.294 200.336 113.752C201.009 112.789 201.899 111.997 202.934 111.441C203.969 110.884 205.12 110.579 206.295 110.549C207.96 110.466 209.618 110.828 211.098 111.596C212.492 112.358 213.588 113.569 214.21 115.032C214.831 116.494 214.941 118.124 214.522 119.657Z" fill="#161616"/>
<mask id="mask1_4402_13348" style="mask-type:luminance" maskUnits="userSpaceOnUse" x="40" y="106" width="178" height="59">
<path d="M217.711 106.85H40.7109V164.006H217.711V106.85Z" fill="white"/>
<path d="M214.522 119.657V119.666C213.713 122.91 211.39 125.26 209.719 126.743L209.678 126.779C209.418 127.005 209.145 127.217 208.86 127.412C208.984 127.665 209.087 127.926 209.17 128.194L209.184 128.243C209.503 129.313 209.584 130.438 209.422 131.542C209.118 133.387 208.619 135.194 207.935 136.934C207.634 137.779 207.346 138.578 207.126 139.365C206.519 141.468 205.827 143.957 205.27 146.5C204.874 148.355 204.735 150.256 204.857 152.148C204.93 152.985 204.78 153.825 204.423 154.585C204.065 155.344 203.512 155.995 202.821 156.471C201.479 157.507 199.974 158.313 198.368 158.857C195.722 159.662 193.875 158.961 192.792 158.228C192.615 158.108 192.445 157.978 192.284 157.837C190.947 158.674 189.451 159.225 187.89 159.455C187.266 159.548 186.637 159.596 186.007 159.598C184.783 159.633 183.565 159.409 182.433 158.94C181.302 158.47 180.282 157.767 179.442 156.876C179.221 156.643 179.012 156.398 178.817 156.143C178.231 156.566 177.614 156.944 176.971 157.276C175.158 158.235 173.087 158.594 171.057 158.3C169.344 158.111 167.722 157.429 166.389 156.336C164.858 154.979 163.856 153.125 163.558 151.102C163.463 150.598 163.399 150.089 163.365 149.578C162.461 150.868 161.486 152.077 160.547 153.213C158.805 155.417 156.595 157.207 154.077 158.453C151.463 159.729 148.467 159.985 145.674 159.172C144.134 158.791 142.664 158.168 141.32 157.325C140.606 156.861 139.963 156.296 139.41 155.649C138.862 156.215 138.314 156.736 137.788 157.24C137.469 157.545 137.146 157.851 136.831 158.161C136.34 158.646 135.757 159.028 135.115 159.285C134.474 159.541 133.788 159.666 133.097 159.653C132.73 159.652 132.363 159.622 132.001 159.563C130.403 159.326 128.844 158.879 127.363 158.233L127.318 158.21C125.821 157.544 124.541 156.469 123.625 155.11C122.237 156.244 120.709 157.194 119.078 157.936C117.457 158.72 115.713 159.217 113.924 159.405C112.35 159.581 110.766 159.643 109.183 159.59C106.531 159.492 103.957 158.672 101.738 157.217C99.4181 155.638 97.7622 153.259 97.0868 150.535C97.0734 150.477 97.0555 150.418 97.0418 150.36C96.2791 150.714 95.4765 150.975 94.6514 151.138C92.5033 151.61 90.2642 151.453 88.2035 150.684C87.1199 150.273 86.1586 149.593 85.4094 148.709C84.6605 147.825 84.1483 146.765 83.9212 145.629C82.2409 148.03 80.7105 150.534 79.338 153.124C79.1942 153.389 79.0503 153.712 78.8931 154.049C78.5848 154.756 78.2304 155.442 77.8325 156.103C77.1537 157.233 76.1879 158.163 75.0334 158.799C73.8788 159.435 72.5766 159.754 71.2588 159.724H71.2363C69.8333 159.765 68.4416 159.461 67.1832 158.839C67.0394 158.763 66.9002 158.682 66.7654 158.597C66.5722 158.695 66.379 158.79 66.1767 158.884C64.3708 159.795 62.4199 160.383 60.4117 160.623L60.0881 160.659C59.2569 160.74 58.3447 160.83 57.3831 160.83C57.109 160.83 56.8304 160.821 56.5518 160.807C53.7854 160.69 51.1284 159.694 48.967 157.963C46.7836 156.176 45.2902 153.685 44.7431 150.917C44.3527 149.046 44.2934 147.121 44.5679 145.229C44.9709 142.473 45.8642 139.811 47.2055 137.37C48.227 135.419 49.4451 133.577 50.8407 131.874C52.3615 130.021 54.1627 128.417 56.1789 127.12C57.8118 126.056 59.6377 125.321 61.553 124.959C64.1637 124.474 66.671 125.098 69.2368 126.873C70.5652 127.782 71.7074 128.937 72.6022 130.275C74.3547 127.826 76.5474 126.41 79.1222 126.078C80.4219 125.866 81.7555 126.053 82.9462 126.616C84.1369 127.178 85.1288 128.089 85.7904 129.228C86.5306 128.72 87.3122 128.274 88.1269 127.898C89.8378 127.054 91.7293 126.642 93.6359 126.698C96.5791 126.828 98.8168 127.803 100.47 129.681C101.128 130.431 101.628 131.305 101.94 132.252C102.601 131.45 103.326 130.701 104.106 130.014C106.183 128.088 108.768 126.797 111.556 126.293C112.578 126.147 113.613 126.114 114.643 126.195C114.858 126.204 115.079 126.213 115.294 126.217C116.852 126.277 118.383 126.646 119.796 127.304C121.591 128.076 123.116 129.363 124.178 131.002C124.402 130.629 124.645 130.261 124.901 129.906C126.429 127.79 128.343 126.541 130.59 126.19C131.585 126.002 132.609 126.023 133.596 126.249C134.584 126.476 135.514 126.904 136.328 127.507C137.289 128.252 138.013 129.26 138.413 130.408C138.812 131.557 138.87 132.796 138.579 133.977C138.494 134.382 138.404 134.79 138.314 135.195C138.678 134.417 139.051 133.631 139.442 132.854C140.619 130.481 142.174 128.859 144.191 127.902C145.423 127.288 146.799 127.022 148.171 127.131C149.543 127.24 150.859 127.721 151.978 128.522C152.994 129.214 154.238 130.567 154.409 133.083C154.465 134.602 154.232 136.118 153.722 137.549C153.623 137.873 153.524 138.201 153.421 138.529L153.609 138.098C153.991 137.226 154.378 136.354 154.769 135.491C155.964 132.84 157.191 130.131 160.466 128.104C161.191 127.636 161.965 127.25 162.776 126.954C165.315 126.091 170.554 126.302 172.405 129.664C173.392 128.762 174.506 128.013 175.712 127.439C177.356 126.624 179.167 126.201 181.001 126.204L181.172 126.208C182.573 126.169 183.972 126.347 185.319 126.734C186.186 127 186.995 127.425 187.705 127.987C189.718 127.273 192.284 127.318 194.176 128.805C194.549 129.104 194.881 129.45 195.165 129.834C195.738 128.929 196.391 128.077 197.115 127.286C197.925 126.385 198.903 125.649 199.995 125.121C199.588 124.152 199.285 123.143 199.092 122.11C198.883 121.125 198.763 120.124 198.732 119.117V119.037C198.682 117.148 199.245 115.294 200.336 113.752C201.009 112.789 201.899 111.997 202.934 111.441C203.969 110.884 205.12 110.579 206.295 110.549C207.96 110.466 209.618 110.828 211.098 111.596C212.492 112.358 213.588 113.569 214.21 115.032C214.831 116.494 214.941 118.124 214.522 119.657Z" fill="black"/>
</mask>
<g mask="url(#mask1_4402_13348)">
<path d="M214.522 119.657V119.666C213.713 122.91 211.39 125.26 209.719 126.743L209.678 126.779C209.418 127.005 209.145 127.217 208.86 127.412C208.984 127.665 209.087 127.926 209.17 128.194L209.184 128.243C209.503 129.313 209.584 130.438 209.422 131.542C209.118 133.387 208.619 135.194 207.935 136.934C207.634 137.779 207.346 138.578 207.126 139.365C206.519 141.468 205.827 143.957 205.27 146.5C204.874 148.355 204.735 150.256 204.857 152.148C204.93 152.985 204.78 153.825 204.423 154.585C204.065 155.344 203.512 155.995 202.821 156.471C201.479 157.507 199.974 158.313 198.368 158.857C195.722 159.662 193.875 158.961 192.792 158.228C192.615 158.108 192.445 157.978 192.284 157.837C190.947 158.674 189.451 159.225 187.89 159.455C187.266 159.548 186.637 159.596 186.007 159.598C184.783 159.633 183.565 159.409 182.433 158.94C181.302 158.47 180.282 157.767 179.442 156.876C179.221 156.643 179.012 156.398 178.817 156.143C178.231 156.566 177.614 156.944 176.971 157.276C175.158 158.235 173.087 158.594 171.057 158.3C169.344 158.111 167.722 157.429 166.389 156.336C164.858 154.979 163.856 153.125 163.558 151.102C163.463 150.598 163.399 150.089 163.365 149.578C162.461 150.868 161.486 152.077 160.547 153.213C158.805 155.417 156.595 157.207 154.077 158.453C151.463 159.729 148.467 159.985 145.674 159.172C144.134 158.791 142.664 158.168 141.32 157.325C140.606 156.861 139.963 156.296 139.41 155.649C138.862 156.215 138.314 156.736 137.788 157.24C137.469 157.545 137.146 157.851 136.831 158.161C136.34 158.646 135.757 159.028 135.115 159.285C134.474 159.541 133.788 159.666 133.097 159.653C132.73 159.652 132.363 159.622 132.001 159.563C130.403 159.326 128.844 158.879 127.363 158.233L127.318 158.21C125.821 157.544 124.541 156.469 123.625 155.11C122.237 156.244 120.709 157.194 119.078 157.936C117.457 158.72 115.713 159.217 113.924 159.405C112.35 159.581 110.766 159.643 109.183 159.59C106.531 159.492 103.957 158.672 101.738 157.217C99.4181 155.638 97.7622 153.259 97.0868 150.535C97.0734 150.477 97.0555 150.418 97.0418 150.36C96.2791 150.714 95.4765 150.975 94.6514 151.138C92.5033 151.61 90.2642 151.453 88.2035 150.684C87.1199 150.273 86.1585 149.593 85.4094 148.709C84.6605 147.825 84.1483 146.765 83.9212 145.629C82.2409 148.03 80.7105 150.534 79.338 153.124C79.1942 153.389 79.0503 153.712 78.8931 154.049C78.5848 154.756 78.2304 155.442 77.8325 156.103C77.1537 157.233 76.1879 158.163 75.0334 158.799C73.8788 159.435 72.5766 159.754 71.2588 159.724H71.2363C69.8332 159.765 68.4416 159.461 67.1832 158.839C67.0394 158.763 66.9002 158.682 66.7654 158.597C66.5722 158.695 66.379 158.79 66.1767 158.884C64.3708 159.795 62.4199 160.383 60.4117 160.623L60.0881 160.659C59.2569 160.74 58.3447 160.83 57.3831 160.83C57.109 160.83 56.8304 160.821 56.5518 160.807C53.7854 160.69 51.1284 159.694 48.967 157.963C46.7836 156.176 45.2902 153.685 44.7431 150.917C44.3527 149.046 44.2934 147.121 44.5679 145.229C44.9709 142.473 45.8642 139.811 47.2055 137.37C48.227 135.419 49.4451 133.577 50.8407 131.874C52.3615 130.021 54.1627 128.417 56.1789 127.12C57.8118 126.056 59.6377 125.321 61.553 124.959C64.1637 124.474 66.671 125.098 69.2368 126.873C70.5652 127.782 71.7074 128.937 72.6022 130.275C74.3547 127.826 76.5474 126.41 79.1222 126.078C80.4219 125.866 81.7555 126.053 82.9462 126.616C84.1369 127.178 85.1288 128.089 85.7904 129.228C86.5306 128.72 87.3122 128.274 88.1269 127.898C89.8378 127.054 91.7293 126.642 93.6359 126.698C96.5791 126.828 98.8168 127.803 100.47 129.681C101.128 130.431 101.628 131.305 101.94 132.252C102.601 131.45 103.326 130.701 104.106 130.014C106.183 128.088 108.768 126.797 111.556 126.293C112.578 126.147 113.613 126.114 114.643 126.195C114.858 126.204 115.079 126.213 115.294 126.217C116.852 126.277 118.383 126.646 119.796 127.304C121.591 128.076 123.116 129.363 124.178 131.002C124.402 130.629 124.645 130.261 124.901 129.906C126.429 127.79 128.343 126.541 130.59 126.19C131.585 126.002 132.609 126.023 133.596 126.249C134.584 126.476 135.514 126.904 136.328 127.507C137.289 128.252 138.013 129.26 138.413 130.408C138.812 131.557 138.87 132.796 138.579 133.977C138.494 134.382 138.404 134.79 138.314 135.195C138.678 134.417 139.051 133.631 139.442 132.854C140.619 130.481 142.174 128.859 144.191 127.902C145.423 127.288 146.799 127.022 148.171 127.131C149.543 127.24 150.859 127.721 151.978 128.522C152.994 129.214 154.238 130.567 154.409 133.083C154.465 134.602 154.232 136.118 153.722 137.549C153.623 137.873 153.524 138.201 153.421 138.529L153.609 138.098C153.991 137.226 154.378 136.354 154.769 135.491C155.964 132.84 157.191 130.131 160.466 128.104C161.191 127.636 161.965 127.25 162.776 126.954C165.315 126.091 170.554 126.302 172.405 129.664C173.392 128.762 174.506 128.013 175.712 127.439C177.356 126.624 179.167 126.201 181.001 126.204L181.172 126.208C182.573 126.169 183.972 126.347 185.319 126.734C186.186 127 186.995 127.425 187.705 127.987C189.718 127.273 192.284 127.318 194.176 128.805C194.549 129.104 194.881 129.45 195.165 129.834C195.739 128.929 196.391 128.077 197.115 127.286C197.925 126.385 198.903 125.649 199.995 125.121C199.588 124.152 199.285 123.143 199.092 122.11C198.883 121.125 198.763 120.124 198.732 119.117V119.037C198.682 117.148 199.245 115.294 200.336 113.752C201.009 112.789 201.899 111.997 202.934 111.441C203.969 110.884 205.12 110.579 206.295 110.549C207.96 110.466 209.618 110.828 211.098 111.596C212.492 112.358 213.588 113.569 214.21 115.032C214.831 116.494 214.941 118.124 214.522 119.657Z" stroke="white" stroke-width="2.46154"/>
</g>
<path d="M211.25 118.851C210.711 121.012 209.102 122.787 207.48 124.225C206.904 124.72 206.255 125.125 205.557 125.425C204.712 125.798 204.146 125.56 203.638 124.8C203.01 123.771 202.587 122.63 202.394 121.439C202.223 120.645 202.125 119.838 202.102 119.026C202.056 117.851 202.395 116.693 203.068 115.728C203.442 115.181 203.941 114.732 204.524 114.417C205.107 114.103 205.757 113.933 206.42 113.922C207.497 113.861 208.57 114.089 209.529 114.582C211.07 115.382 211.655 117.22 211.25 118.851Z" fill="#FF5A50"/>
<path d="M205.963 129.207C205.607 128.08 204.57 127.877 203.567 127.783C201.923 127.635 200.633 128.461 199.595 129.58C198.74 130.537 197.994 131.586 197.371 132.708C196.068 134.961 195.276 137.45 194.517 139.92C194.023 141.527 193.59 142.941 192.975 145.026C192.611 146.259 192.199 148.162 191.057 149.123C190.772 149.386 190.399 149.535 190.01 149.54C189.534 149.473 189.363 148.97 189.341 148.503C189.314 147.986 189.314 147.469 189.336 146.952C189.468 145.368 189.798 143.807 190.32 142.306C191.084 139.835 191.907 137.381 192.648 134.901C192.965 134.045 192.979 133.106 192.688 132.241C192.562 131.935 192.362 131.667 192.104 131.459C191.075 130.65 189.211 130.785 188.083 131.535C187.71 131.792 187.341 132.057 186.95 132.326C186.865 132.187 186.798 132.088 186.735 131.98C186.485 131.497 186.141 131.067 185.724 130.718C185.306 130.369 184.824 130.106 184.304 129.945C183.215 129.657 182.09 129.532 180.965 129.576C179.643 129.583 178.341 129.895 177.159 130.488C175.302 131.428 173.721 132.834 172.571 134.568C171.297 136.307 170.164 138.145 169.183 140.064C168.163 141.994 167.421 144.059 166.977 146.197C166.827 146.98 166.737 147.773 166.708 148.57C166.701 149.215 166.759 149.86 166.883 150.493C167.044 151.753 167.645 152.915 168.581 153.773C169.435 154.451 170.467 154.866 171.551 154.968C172.878 155.163 174.233 154.927 175.416 154.294C176.699 153.619 177.854 152.723 178.826 151.648C179.235 151.208 179.667 150.785 180.134 150.3C180.188 150.583 180.228 150.763 180.255 150.942C180.423 152.286 180.995 153.548 181.895 154.56C183.414 156.159 185.36 156.424 187.409 156.123C188.536 155.956 189.615 155.552 190.575 154.937C191.076 154.618 192.547 152.894 193.121 153.342C193.825 153.891 193.897 154.906 194.685 155.437C195.094 155.67 195.55 155.808 196.019 155.843C196.488 155.878 196.959 155.807 197.398 155.637C198.652 155.191 199.826 154.546 200.876 153.728C201.104 153.578 201.285 153.366 201.395 153.117C201.506 152.867 201.543 152.591 201.5 152.321C201.367 150.129 201.53 147.928 201.986 145.779C202.529 143.312 203.194 140.872 203.891 138.446C204.592 135.974 205.747 133.633 206.097 131.059C206.188 130.439 206.142 129.807 205.963 129.207ZM183.293 136.972C182.579 139.984 181.185 142.793 179.217 145.182C178.533 146.092 177.708 146.887 176.773 147.536C176.22 147.905 175.681 148.04 175.375 147.357C175.292 147.169 175.239 146.968 175.218 146.764C175.097 145.591 175.676 144.368 176.076 143.299C176.517 142.095 177.009 140.916 177.555 139.763C178.341 138.096 179.262 136.496 180.7 135.296C181.171 134.942 181.694 134.662 182.25 134.47C182.632 134.317 183.082 134.658 183.257 135.081C183.466 135.692 183.479 136.354 183.293 136.972Z" fill="#FF5A50"/>
<path d="M98.9961 143.215C98.1963 145.699 96.6013 147.313 93.9861 147.838C92.4647 148.184 90.8757 148.081 89.4118 147.542C88.7565 147.291 88.1907 146.852 87.7858 146.279C87.3809 145.706 87.1556 145.026 87.1381 144.325C87.0302 142.451 87.7806 140.833 88.6523 139.251C89.0163 138.595 89.3937 137.944 89.6948 137.256C89.8242 136.912 89.8735 136.544 89.8386 136.178C89.8207 136.056 89.7752 135.94 89.7057 135.839C89.6362 135.737 89.5443 135.653 89.4372 135.592C89.3303 135.532 89.2108 135.496 89.088 135.489C88.9652 135.481 88.8424 135.502 88.7287 135.549C88.0808 135.85 87.4762 136.237 86.9314 136.699C84.743 138.708 82.9861 141.08 81.2921 143.511C79.4808 146.083 77.8328 148.767 76.3584 151.545C75.8776 152.462 75.5182 153.451 74.9745 154.322C74.5958 154.968 74.0487 155.498 73.3918 155.857C72.7347 156.215 71.9928 156.389 71.2449 156.358C70.3835 156.396 69.526 156.223 68.7467 155.855C68.1445 155.529 67.6836 154.993 67.4525 154.349C66.5583 154.848 65.6731 155.401 64.7385 155.841C63.2807 156.583 61.7059 157.068 60.0833 157.274C58.9796 157.419 57.8663 157.476 56.7537 157.445C54.6911 157.371 52.7067 156.637 51.092 155.351C49.5025 154.047 48.4212 152.226 48.0365 150.206C47.7295 148.714 47.6869 147.179 47.9106 145.673C48.2599 143.312 49.03 141.034 50.1843 138.946C51.101 137.196 52.1941 135.544 53.4465 134.017C54.7454 132.434 56.2826 131.064 58.0028 129.955C59.2735 129.128 60.6928 128.558 62.1816 128.274C64.1094 127.915 65.772 128.58 67.3178 129.649C68.3932 130.378 69.3016 131.328 69.9823 132.435C70.6065 133.564 70.7722 134.89 70.4451 136.138C70.1112 137.5 69.6212 138.819 68.9847 140.069C68.4006 141.363 67.8209 142.657 67.2234 143.947C67.1245 144.227 66.9188 144.457 66.6509 144.586C66.383 144.715 66.0751 144.732 65.7945 144.634C64.9614 144.371 64.2121 143.893 63.6209 143.25C63.0296 142.607 62.6171 141.82 62.4243 140.968C62.2843 139.747 62.4833 138.511 62.9995 137.396C63.5342 136.016 64.1498 134.668 64.743 133.316C64.7977 133.225 64.8335 133.124 64.8481 133.019C64.8624 132.914 64.8554 132.807 64.8272 132.705C64.799 132.603 64.7503 132.507 64.6841 132.425C64.618 132.342 64.5355 132.274 64.4419 132.224C63.7612 132.382 63.1441 132.742 62.6715 133.257C61.8357 134.084 61.045 134.956 60.2899 135.859C58.7701 137.757 57.4735 139.825 56.4257 142.019C55.7696 143.281 55.3609 144.657 55.2214 146.072C55.0825 147.16 55.1174 148.263 55.3248 149.339C55.4386 150.023 55.7843 150.648 56.3038 151.108C56.8232 151.567 57.485 151.835 58.1781 151.864C60.8362 152.013 63.4748 151.33 65.727 149.91C66.5858 149.321 67.4109 148.685 68.1983 148.004C68.3425 147.868 68.4507 147.699 68.5129 147.51C69.3083 145.385 70.0541 143.242 70.8989 141.139C71.5189 139.579 72.2559 138.065 72.9478 136.537C73.5992 135.037 74.397 133.604 75.3294 132.26C76.3809 130.781 77.7064 129.662 79.5533 129.424C81.0406 129.231 82.4111 129.73 83.1209 131.41C83.7456 132.889 83.386 134.309 82.9054 135.729C82.7794 136.093 82.6581 136.457 82.5009 136.924C83.3682 135.98 84.1051 135.081 84.9363 134.291C86.2748 132.933 87.8298 131.808 89.5375 130.961C90.7609 130.348 92.1147 130.041 93.4828 130.067C95.1768 130.143 96.7584 130.57 97.9447 131.914C98.4611 132.52 98.8014 133.257 98.9289 134.044C99.2074 135.504 98.7222 136.816 98.1829 138.128C97.783 139.099 97.374 140.069 97.0729 141.071C96.8303 141.885 97.2617 142.46 98.1244 142.68C98.3158 142.73 98.5114 142.761 98.7087 142.774C99.0277 142.788 99.0727 142.968 98.9961 143.215Z" fill="white"/>
<path d="M169.518 131.409C168.809 129.822 165.312 129.653 163.869 130.146C163.299 130.359 162.754 130.637 162.246 130.973C159.833 132.466 158.974 134.382 157.843 136.886C156.719 139.357 155.686 141.874 154.481 144.305C153.682 145.868 152.772 147.373 151.758 148.807C151.183 149.74 150.26 150.406 149.193 150.658C148.559 150.784 148.299 150.501 148.074 149.948C147.867 149.441 147.741 148.904 147.701 148.358C147.611 146.788 147.813 145.216 148.299 143.721C149.013 141.325 149.781 138.949 150.505 136.558C150.886 135.52 151.072 134.42 151.053 133.314C151.058 132.928 150.973 132.546 150.805 132.198C150.638 131.851 150.392 131.546 150.087 131.31C149.452 130.845 148.7 130.566 147.916 130.501C147.132 130.437 146.345 130.591 145.643 130.946C144.151 131.656 143.176 132.923 142.462 134.361C141.451 136.383 140.538 138.454 139.55 140.485C138.871 141.892 138.139 143.276 137.429 144.664C136.529 146.573 135.447 148.391 134.198 150.092C134.001 150.344 133.65 150.694 133.425 150.654C133.156 150.613 132.94 150.204 132.711 149.948C132.672 149.901 132.644 149.846 132.63 149.787C132.287 148.549 132.227 147.249 132.455 145.985C132.684 144.556 132.972 143.132 133.3 141.721C133.946 138.904 134.683 136.104 135.29 133.273C135.447 132.717 135.435 132.126 135.256 131.577C135.077 131.027 134.738 130.543 134.284 130.186C133.83 129.862 133.315 129.636 132.769 129.521C132.224 129.407 131.661 129.407 131.116 129.521C129.619 129.755 128.518 130.663 127.642 131.876C126.569 133.368 125.808 135.062 125.405 136.855C125.059 138.337 124.83 139.847 124.582 141.357C124.47 142.053 124.466 142.763 124.38 143.469C124.356 143.664 124.273 143.848 124.142 143.995C123.544 144.619 122.938 145.23 122.313 145.828C121.13 146.968 119.775 147.914 118.297 148.632C117.334 149.148 116.271 149.45 115.181 149.518C114.091 149.586 112.999 149.419 111.979 149.027C111.32 148.778 110.734 148.366 110.276 147.829C109.819 147.293 109.505 146.649 109.364 145.958C110.24 145.958 111.085 145.967 111.93 145.958C113.929 145.936 115.892 145.422 117.645 144.462C119.298 143.621 120.641 142.277 121.483 140.624C122.435 138.781 122.664 136.648 122.125 134.644C121.885 133.696 121.427 132.817 120.786 132.078C120.145 131.339 119.341 130.761 118.436 130.389C117.425 129.91 116.328 129.638 115.21 129.589C114.181 129.5 113.146 129.511 112.119 129.62C109.955 130.023 107.952 131.034 106.344 132.537C104.636 134.074 103.224 135.912 102.179 137.96C100.974 140.232 100.229 142.719 99.9863 145.28C99.843 146.744 99.9632 148.221 100.341 149.643C100.807 151.588 101.977 153.292 103.626 154.424C105.34 155.537 107.326 156.16 109.369 156.226C110.792 156.268 112.217 156.21 113.633 156.05C115.045 155.89 116.418 155.488 117.695 154.864C119.798 153.903 121.693 152.542 123.276 150.856C123.77 150.339 124.242 149.796 124.664 149.324C125.068 150.308 125.432 151.328 125.895 152.298C126.454 153.56 127.456 154.572 128.713 155.143C129.929 155.673 131.21 156.04 132.523 156.235C132.862 156.323 133.217 156.326 133.557 156.244C133.898 156.161 134.212 155.996 134.473 155.763C135.34 154.909 136.244 154.087 137.088 153.211C137.561 152.687 138.007 152.14 138.423 151.57C139.039 150.784 139.645 149.984 140.288 149.149C140.36 149.557 140.409 149.904 140.485 150.245C140.885 151.984 141.627 153.494 143.177 154.514C144.229 155.16 145.377 155.636 146.578 155.925C148.587 156.518 150.745 156.337 152.627 155.417C154.7 154.379 156.519 152.895 157.951 151.072C159.101 149.718 160.173 148.3 161.164 146.825C162.669 144.516 164.089 142.139 165.464 139.744C166.164 138.525 166.844 137.296 167.52 136.064C168.072 135.059 169.549 133.285 169.639 132.155C169.663 131.9 169.621 131.643 169.518 131.409ZM109.966 140.211C110.429 138.946 111.128 137.779 112.024 136.774C112.564 136.098 113.311 135.618 114.15 135.408C114.428 135.362 114.713 135.387 114.979 135.482C115.245 135.576 115.483 135.736 115.67 135.947C115.857 136.157 115.989 136.412 116.051 136.687C116.114 136.962 116.106 137.249 116.028 137.52C115.385 140.252 113.574 141.797 110.941 142.471C110.366 142.568 109.785 142.623 109.202 142.638C109.481 141.739 109.697 140.966 109.966 140.211Z" fill="white"/>
</g>
</g>
<defs>
<filter id="filter0_f_4402_13348" x="-20" y="25" width="298" height="184" filterUnits="userSpaceOnUse" color-interpolation-filters="sRGB">
<feFlood flood-opacity="0" result="BackgroundImageFix"/>
<feBlend mode="normal" in="SourceGraphic" in2="BackgroundImageFix" result="shape"/>
<feGaussianBlur stdDeviation="18.5" result="effect1_foregroundBlur_4402_13348"/>
</filter>
<filter id="filter1_ii_4402_13348" x="17" y="62" width="224" height="148" filterUnits="userSpaceOnUse" color-interpolation-filters="sRGB">
<feFlood flood-opacity="0" result="BackgroundImageFix"/>
<feBlend mode="normal" in="SourceGraphic" in2="BackgroundImageFix" result="shape"/>
<feColorMatrix in="SourceAlpha" type="matrix" values="0 0 0 0 0 0 0 0 0 0 0 0 0 0 0 0 0 0 127 0" result="hardAlpha"/>
<feOffset dy="4"/>
<feComposite in2="hardAlpha" operator="arithmetic" k2="-1" k3="1"/>
<feColorMatrix type="matrix" values="0 0 0 0 1 0 0 0 0 1 0 0 0 0 1 0 0 0 0.25 0"/>
<feBlend mode="normal" in2="shape" result="effect1_innerShadow_4402_13348"/>
<feColorMatrix in="SourceAlpha" type="matrix" values="0 0 0 0 0 0 0 0 0 0 0 0 0 0 0 0 0 0 127 0" result="hardAlpha"/>
<feOffset dy="-4"/>
<feComposite in2="hardAlpha" operator="arithmetic" k2="-1" k3="1"/>
<feColorMatrix type="matrix" values="0 0 0 0 0 0 0 0 0 0 0 0 0 0 0 0 0 0 0.9 0"/>
<feBlend mode="soft-light" in2="effect1_innerShadow_4402_13348" result="effect2_innerShadow_4402_13348"/>
</filter>
<linearGradient id="paint0_linear_4402_13348" x1="17" y1="34" x2="197.768" y2="215.142" gradientUnits="userSpaceOnUse">
<stop stop-color="#62100B"/>
</linearGradient>
<linearGradient id="paint1_linear_4402_13348" x1="17" y1="34" x2="197.768" y2="215.142" gradientUnits="userSpaceOnUse">
<stop stop-color="#05815D"/>
<stop offset="1" stop-color="#0C575F"/>
</linearGradient>
<linearGradient id="paint2_linear_4402_13348" x1="17" y1="62" x2="241" y2="210" gradientUnits="userSpaceOnUse">
<stop stop-color="#B32B23"/>
<stop offset="1" stop-color="#9E0A01"/>
</linearGradient>
<clipPath id="clip0_4402_13348">
<rect width="256" height="256" fill="white"/>
</clipPath>
<clipPath id="clip1_4402_13348">
<rect width="177" height="59" fill="white" transform="translate(41 106)"/>
</clipPath>
</defs>
</svg>
