<svg width="256" height="256" viewBox="0 0 256 256" fill="none" xmlns="http://www.w3.org/2000/svg">
<path fill-rule="evenodd" clip-rule="evenodd" d="M104.425 42.3784C100.056 37.0733 93.5437 34 86.6712 34H29C22.3726 34 17 39.3726 17 46V58.1371V68.2V160C17 166.627 22.3726 172 29 172H229C235.627 172 241 166.627 241 160V70.1371C241 63.5097 235.627 58.1371 229 58.1371H117.404L104.425 42.3784Z" fill="#EAEAEA"/>
<mask id="mask0_2270_38797" style="mask-type:alpha" maskUnits="userSpaceOnUse" x="17" y="34" width="224" height="138">
<path fill-rule="evenodd" clip-rule="evenodd" d="M104.425 42.3784C100.056 37.0733 93.5437 34 86.6712 34H29C22.3726 34 17 39.3726 17 46V58.1371V68.2V160C17 166.627 22.3726 172 29 172H229C235.627 172 241 166.627 241 160V70.1371C241 63.5097 235.627 58.1371 229 58.1371H117.404L104.425 42.3784Z" fill="url(#paint0_linear_2270_38797)"/>
</mask>
<g mask="url(#mask0_2270_38797)">
<g style="mix-blend-mode:multiply" filter="url(#filter0_f_2270_38797)">
<path fill-rule="evenodd" clip-rule="evenodd" d="M92.789 74C97.7642 74 102.605 72.3868 106.586 69.4024L116.459 62H229C235.627 62 241 67.3726 241 74V108V160C241 166.627 235.627 172 229 172H29C22.3726 172 17 166.627 17 160L17 108V86C17 79.3726 22.3726 74 29 74H87H92.789Z" fill="black" fill-opacity="0.3"/>
</g>
</g>
<g filter="url(#filter1_ii_2270_38797)">
<path fill-rule="evenodd" clip-rule="evenodd" d="M92.789 74C97.7642 74 102.605 72.3868 106.586 69.4024L116.459 62H229C235.627 62 241 67.3726 241 74V108V198C241 204.627 235.627 210 229 210H29C22.3726 210 17 204.627 17 198L17 108V74H87H92.789Z" fill="url(#paint1_linear_2270_38797)"/>
</g>
<path d="M131.156 188.175C136.764 185.358 139.653 180.535 139.865 173.493L139.993 170.291L135.532 170.163C133.067 170.078 130.263 170.163 129.286 170.291L127.459 170.548V172.426C127.459 176.31 125.76 178.615 122.913 178.615C120.406 178.615 119.472 178.017 118.494 175.926C117.772 174.261 117.687 172.938 117.687 159.237C117.687 148.865 117.857 143.828 118.197 142.633C119.302 138.92 124.358 138.151 126.439 141.395C126.822 141.95 127.247 143.615 127.374 145.066C127.502 146.475 127.799 147.798 128.054 147.968C128.309 148.139 131.071 148.31 134.172 148.31C138.973 148.31 139.865 148.225 140.078 147.627C140.205 147.243 140.12 145.194 139.865 143.103C138.548 132.304 131.453 126.841 120.491 128.206C111.611 129.273 106.768 133.712 105.366 141.907C105.068 143.743 104.941 150.273 105.026 160.901C105.153 176.267 105.238 177.249 106.131 179.895C107.193 183.182 109.19 185.7 112.164 187.535C115.435 189.584 118.069 190.139 123.295 189.968C127.587 189.84 128.054 189.712 131.156 188.175ZM168.672 188.73C173.388 186.596 176.447 182.541 177.637 176.993C178.316 173.578 177.892 167.048 176.787 164.06C174.832 158.895 172.708 156.974 164.126 152.578C160.854 150.914 158.39 149.334 157.88 148.651C156.733 147.029 156.435 142.932 157.37 141.139C158.262 139.432 159.24 138.92 161.576 138.92C163.998 138.92 165.06 140.029 165.783 143.401L166.335 145.962L171.816 146.09L177.297 146.218L177.042 143.103C176.574 136.615 173.685 131.877 168.799 129.444C166.08 128.121 165.698 128.036 161.449 128.036C157.795 128.078 156.52 128.249 154.439 129.103C147.556 131.834 143.774 139.304 144.879 148.096C145.814 155.651 148.703 158.895 158.602 163.676C163.318 165.938 165.018 167.602 165.655 170.462C166.123 172.767 165.74 176.182 164.763 177.718C163.701 179.468 161.067 179.938 158.9 178.828C157.455 178.06 156.435 176.31 156.011 173.791L155.671 171.999L149.85 171.871L144.029 171.743V172.938C144.029 174.944 145.176 179.639 146.154 181.688C148.958 187.749 153.844 190.267 162.086 189.968C165.485 189.84 166.802 189.584 168.672 188.73ZM206.188 188.474C209.587 186.852 212.391 183.822 213.793 180.407C214.643 178.273 214.77 177.249 214.77 171.999C214.77 166.109 214.728 165.98 213.326 162.907C211.244 158.468 208.695 156.249 201.429 152.664C195.991 149.975 195.609 149.676 194.716 147.883C193.102 144.725 193.654 140.542 195.821 139.347C197.011 138.749 200.24 138.834 201.175 139.475C201.599 139.816 202.237 141.31 202.662 143.017L203.426 145.962L208.822 146.09L214.261 146.218L214.048 142.847C213.708 136.7 210.479 131.536 205.551 129.273C203.129 128.164 202.449 128.036 198.413 128.078C194.801 128.078 193.484 128.249 191.53 129.06C188.131 130.383 185.157 133.243 183.457 136.7C182.098 139.475 182.055 139.688 182.055 145.109C182.055 151.255 182.48 152.877 184.944 156.292C186.431 158.426 190.383 161.2 194.716 163.206C198.668 164.999 201.26 166.877 202.109 168.499C203.044 170.291 203.044 175.328 202.109 177.163C201.26 178.828 199.348 179.682 197.308 179.255C195.141 178.871 193.867 177.249 193.229 174.261L192.72 171.743L186.941 171.871L181.206 171.999L181.333 174.133C181.8 180.578 184.859 185.999 189.363 188.389C191.742 189.627 194.886 190.139 199.093 189.968C202.832 189.84 203.766 189.627 206.188 188.474Z" fill="white"/>
<defs>
<filter id="filter0_f_2270_38797" x="-20" y="25" width="298" height="184" filterUnits="userSpaceOnUse" color-interpolation-filters="sRGB">
<feFlood flood-opacity="0" result="BackgroundImageFix"/>
<feBlend mode="normal" in="SourceGraphic" in2="BackgroundImageFix" result="shape"/>
<feGaussianBlur stdDeviation="18.5" result="effect1_foregroundBlur_2270_38797"/>
</filter>
<filter id="filter1_ii_2270_38797" x="17" y="62" width="224" height="148" filterUnits="userSpaceOnUse" color-interpolation-filters="sRGB">
<feFlood flood-opacity="0" result="BackgroundImageFix"/>
<feBlend mode="normal" in="SourceGraphic" in2="BackgroundImageFix" result="shape"/>
<feColorMatrix in="SourceAlpha" type="matrix" values="0 0 0 0 0 0 0 0 0 0 0 0 0 0 0 0 0 0 127 0" result="hardAlpha"/>
<feOffset dy="-4"/>
<feComposite in2="hardAlpha" operator="arithmetic" k2="-1" k3="1"/>
<feColorMatrix type="matrix" values="0 0 0 0 0 0 0 0 0 0 0 0 0 0 0 0 0 0 0.25 0"/>
<feBlend mode="normal" in2="shape" result="effect1_innerShadow_2270_38797"/>
<feColorMatrix in="SourceAlpha" type="matrix" values="0 0 0 0 0 0 0 0 0 0 0 0 0 0 0 0 0 0 127 0" result="hardAlpha"/>
<feOffset dy="4"/>
<feComposite in2="hardAlpha" operator="arithmetic" k2="-1" k3="1"/>
<feColorMatrix type="matrix" values="0 0 0 0 1 0 0 0 0 1 0 0 0 0 1 0 0 0 0.25 0"/>
<feBlend mode="normal" in2="effect1_innerShadow_2270_38797" result="effect2_innerShadow_2270_38797"/>
</filter>
<linearGradient id="paint0_linear_2270_38797" x1="17" y1="34" x2="197.768" y2="215.142" gradientUnits="userSpaceOnUse">
<stop stop-color="#05815D"/>
<stop offset="1" stop-color="#0C575F"/>
</linearGradient>
<linearGradient id="paint1_linear_2270_38797" x1="17" y1="62" x2="241" y2="210" gradientUnits="userSpaceOnUse">
<stop stop-color="#7139A8"/>
<stop offset="1" stop-color="#4C2979"/>
</linearGradient>
</defs>
</svg>
