<?xml version="1.0" encoding="UTF-8"?>
<svg xmlns="http://www.w3.org/2000/svg" width="256" height="256" version="1.1" xmlns:xlink="http://www.w3.org/1999/xlink" viewBox="0 0 256 256">
  <defs>
    <style>
      .st0 {
        fill: url(#top);
      }

      .st0, .st1, .st2, .st3, .st4, .st5 {
        fill-rule: evenodd;
      }

      .st6 {
        fill: #52bedc;
      }

      .st7 {
        mask: url(#mask);
      }

      .st1 {
        fill: #e5e500;
      }

      .st2 {
        fill: url(#bg);
      }

      .st3 {
        fill: url(#bottom);
      }

      .st4 {
        fill: #a6a1a1;
      }

      .st8 {
        fill: #fff000;
      }

      .st5 {
        fill: url(#linear-gradient);
      }
    </style>
    <linearGradient id="linear-gradient" x1="32.6" y1="239.5" x2="213.3" y2="58.4" gradientTransform="translate(0 258) scale(1 -1)" gradientUnits="userSpaceOnUse">
      <stop offset="0" stop-color="#05815d"/>
      <stop offset="1" stop-color="#0c575f"/>
    </linearGradient>
    <mask id="mask" x="17" y="34" width="224" height="138" maskUnits="userSpaceOnUse">
      <g id="mask0_501_11930">
        <path class="st5" d="M104.4,42.4c-4.4-5.3-10.9-8.4-17.8-8.4H29c-6.6,0-12,5.4-12,12v114c0,6.6,5.4,12,12,12h200c6.6,0,12-5.4,12-12v-89.9c0-6.6-5.4-12-12-12h-111.6l-13-15.8Z"/>
      </g>
    </mask>
    <linearGradient id="bg" x1="17" y1="196" x2="241" y2="48" gradientTransform="translate(0 258) scale(1 -1)" gradientUnits="userSpaceOnUse">
      <stop offset="0" stop-color="#ff0"/>
      <stop offset="1" stop-color="#e5e500"/>
    </linearGradient>
    <linearGradient id="bottom" x1="16.9" y1="57.3" x2="240.9" y2="54.8" gradientTransform="translate(0 258) scale(1 -1)" gradientUnits="userSpaceOnUse">
      <stop offset="0" stop-color="#dd0"/>
      <stop offset="1" stop-color="#cece00"/>
    </linearGradient>
    <linearGradient id="top" x1="17" y1="182" x2="241" y2="182" gradientTransform="translate(0 258) scale(1 -1)" gradientUnits="userSpaceOnUse">
      <stop offset="0" stop-color="#ffff72"/>
      <stop offset="1" stop-color="#ffff2b"/>
    </linearGradient>
  </defs>
  <g id="Layer_1">
    <path class="st1" d="M104.4,42.4c-4.4-5.3-10.9-8.4-17.8-8.4H29c-6.6,0-12,5.4-12,12v114c0,6.6,5.4,12,12,12h200c6.6,0,12-5.4,12-12v-89.9c0-6.6-5.4-12-12-12h-111.6l-13-15.8Z"/>
    <g class="st7">
      <path class="st4" d="M92.8,74c5,0,9.8-1.6,13.8-4.6l9.9-7.4h112.5c6.6,0,12,5.4,12,12v86c0,6.6-5.4,12-12,12H29c-6.6,0-12-5.4-12-12v-74c0-6.6,5.4-12,12-12h63.8Z"/>
    </g>
    <path class="st2" d="M92.8,74c5,0,9.8-1.6,13.8-4.6l9.9-7.4h112.5c6.6,0,12,5.4,12,12v124c0,6.6-5.4,12-12,12H29c-6.6,0-12-5.4-12-12v-112c0-6.6,5.4-12,12-12h63.8Z"/>
    <path class="st3" d="M17,194v4c0,6.6,5.4,12,12,12h200c6.6,0,12-5.4,12-12v-4c0,6.6-5.4,12-12,12H29c-6.6,0-12-5.4-12-12Z"/>
    <path class="st0" d="M106.6,69.4c-4,3-8.8,4.6-13.8,4.6H29c-6.6,0-12,5.4-12,12v4c0-6.6,5.4-12,12-12h63.8c5,0,9.8-1.6,13.8-4.6l9.9-7.4h112.5c6.6,0,12,5.4,12,12v-4c0-6.6-5.4-12-12-12h-112.5l-9.9,7.4Z"/>
  </g>
  <g id="Layer_2">
    <g>
      <g>
        <path class="st6" d="M34.7,135.5l4.6-2.1,4.1-1.2,24-9.7,6.1-1,.6.3v.2c0,0,.7.6.7.6l-1.8,1-2.2,1.1-2.7-.4h-.4s-21.4,11.8-21.4,11.8h2.7c0-.1,6.2-.3,6.2-.3l9.2-.2,1.5.2,4.3.6.6.4.6.4h.7c0,.1.4.1.4.1l.4.5.2,1s-.6.7-.9,1c0,0-1.1,1.3-1.3,1.4h-.3l-.4-.3h-.1c0,0-.5,0-.5,0h-.5c0,.1-.6.1-.6.1h-.1c0,0-.1,0-.1,0h-2c0,0-10.2.7-10.2.7l-7.6.4h-6.5s-2.8.4-8,.6h-.3s-1-.3-3.6-1.4l-3.1-1.5.4-.3,4.3-2,.5-.2,1.6-.5,1.3-.6h.3c0-.1-.4-.5-.4-.5Z"/>
        <path class="st6" d="M72,134.6s0,1.1,0,1.6c0,0,.2.8.5,1,0,0,1,.8,1.1,1,0,0,.8.7,1.1.8l1.2-.7-1.1,1.5h-.4c0,.1-.3.5-.3.5l-.6,1.2-5.6,6.9-.4.2h0c0,0,0,.8,0,.8l-1.1,1.1-.3.2h0c0,0-.2,1-.2,1l-4.2,5.1-.4.8-.2.5s-.6.9-.9.8l-.6.8s-.9,1.4-1.5,1.9h.1s.7-.4,1-.7c0,0,2.9-3.8,3.3-4,0,0,.5-.7.7-.7,0,0,.3,0,.4-.2,0,0,.5-.6,1.4-.6,0,0,1.5-1.1,3-1.4,0,0,.3,0,.5.2l18.4-22.3.7-.9h-.9l-4.6.2-6.3,4.7h-1.6l-1-1.4-.4-.3-.6.6Z"/>
        <path class="st6" d="M142.5,134.3l1-.5-.4-.7-4.2-2.2h-8c0,0-11.8-.5-11.8-.5l-12.3.3-1.5.6-.9,1.6h-2.1s-7.6-2.2-7.6-2.2l8-9.6s.3-.4.4-.9c0,0,0-1.2-.3-2l.2-1.4s.3-.3.6-1.1c0,0,.1-.3.4-.4,0,0,.2-.1.3-.4l1.2-1.7s0-.3,0-.2c0,0-.4.3-.9,1.1,0,0,0-.3-.3,0,0,0-.2.4-.5.4,0,0-.6.8-.6,1.2,0,0-.3.8-.7.7l-1.3,3.1-6.3,6.2-6.2,7.6-3.8,2.3-1,.6-.2.2v1.3c-.1,0-3.3,2.9-3.3,2.9l-.3.4.5.3-2,2.5-.3.6,1.8,1.3s2.7,1.9,3.3,2.2l5.1-3.8,7.8-5.8,5-3.7v.4c0,0-.9.9-.9.9h-.2c0,0-.4.6-.4.6l-.4,1.5-1.7,1.6h0s-.2.4-.2.4l-.7,1v.2c-.1,0-.2.1-.2.1l.3.3h0c0,.1-.2.6-.1.8l2.1,1.6s.2.2.4,0l.8-.3h.3s5-1.7,12.8-2.7c0,0,1.1-1.9,1.3-2.6h-4.8c0,0-.8,0-.8,0l-1,.2-1.3.3-3.4.5s1.1-2,1.4-2.2l9.6-1.1s.4-.4.8-1.2c0,0,.4-.6.6-.8h0c0-.1-1.3-.1-1.3-.1l-7.7-.4.5-.8,4.6-.2s.3-.6.8-.7h6c0,0,.8-.7.8-.7l.6,2.5s-2.5,2.9-2.6,3c-.1,0-1.3,1.7-1.3,1.7l-.2.2-1.1,2.5v.2c0,0-.8,2-.8,2l-1.1,2.8v.6c-.1,0,.9,1.5,2.6,2.9,0,0,1.6-3.7,1.8-4.1l2.7-5.8,2.9,1.2s3.5,1.5,3.6,1.6c0,0,3.8,1.4,4.1,1.5,0,0,5,2,6.8,2.2,0,0,1.3-1.1,1.8-1.6,0,0,.8-.9,1.1-1,0,0,.4-.4.4-.7l-.7-.3-1.8-1.5-3.3-1.1-2.8-.9-1.1-.6-.4-.2-1.3-.3-.2-.3,5.8-1.5s5.2-1.5,7.3-2.5ZM92.8,136.5l-.4.3-6.1,4.2,3.7-4.5,2.1-2.4,3.9.2-3.1,2.2ZM123.6,136.4l-1.7-1.1,1.1-2.5s8.5,0,11,.2l1.1.6-11.4,2.7Z"/>
        <path class="st6" d="M181.1,131.6l-.3-.6c-.6-.8-.5-1.6-.5-1.6l.4-.4c0,0-.1-.2-.1-.2,0-.8.3-1.9.3-1.9h-.3s-.4,0-.4,0l-5.9,9.9-1.3,1.6-2.5,1.4-1.9,1.4-1,.5-1.8,1.1v-.2c0,0,1.1-2.7,1.1-2.7,0-.1.6-2,.6-2v-.6s-.1-.2-.1-.2v-1.1s5.5-2,5.5-2c.3-2.5.9-4.4.9-4.4,0,0,.2-.2.2-.2h-.5s-.4-.1-.4-.1l-6.9.5-13.4.5h-2.7c0,.1-2.8,3.2-2.8,3.2l-3.6,5.4h0c0,.1,0,.3,0,.3l-2.7,1.2h-1.2s-.1.1-.1.1l.3.7-.7.3,1.2.9c.8.6,1.2.8,1.2.8l-.3.5-1.4,5.1-4.9,9-2,4.6-.5,1.2c.3-.5.7-.6.7-.6.7-.3.9-.9.9-.9,1.1-2.8,2.1-4.1,2.1-4.1.4,0,.8-.5.8-.5h.4c1-1.2,2.7-2.1,2.7-2.1.7-.3.8-.7.8-.7l.9-1.8,3.8-7.7c.4-1,1.1-2.3,1.1-2.3.2-.5.5-.5.5-.5l16.6-5.4v.2c-.1,0-.2.2-.2.2v.2c.1,0-1.2,2.6-1.2,2.6l-.2.5-1,4.6c-.3.4-.2.6-.2.6l2.4,1.9c.5-.5,2.6-1.9,2.6-1.9.3-.2,2.9-1.9,2.9-1.9l1.4-.9s-.6,2.1-.9,2.3-.2.8-.2.8c.5,0,1.2.5,1.2.5l1.9,1,2.4-4.9c.6-1.1,1.2-2.1,1.2-2.1.3-1,1.4-2.6,1.4-2.6l1.8-3.2,1.9-3.2v-.2ZM158.3,135.4l-5.4,1.5-2.4.5-.7.2.3-.7v-.2l.7-1.3c.3-.6.9-1.4.9-1.4l12.9-.9-6.3,2.3Z"/>
        <polygon class="st6" points="180.7 126.5 181.2 125.5 181.4 125.5 181.4 125.5 181.2 126.2 181.2 126.6 180.9 126.5 180.7 126.5"/>
        <path class="st6" d="M176.5,143l-.6,1.5-.4.9h.1c0,0,.8,0,.8,0,0,0,1.5-.3,2.9-.4h.4c0,0,.1-.1.1-.1l3.5-6.1,1.7,6.9h3.1c0,0,3.5-6.3,3.5-6.3l4.2-7.8h-.9l-5.2,4.1-.8.6h-.3c0,.1-.1.3-.1.3v.2c0,0-.7,2.3-.7,2.3l-.4.5h-.8c0,.1-.8-.9-.8-.9l-1.8-1.3-1.1-.3-4.9,3-.5.4v.2c0,0-.1.4-.1.4l-.3.8-.8,1.4Z"/>
        <path class="st6" d="M203.1,129.7h.6l-2.7,5,20.5-9.5,1.9-.9.9-.4.4-.3h.1c0,.1-.5.9-.5.9,0,0-1.2.6-1.7,1.5l-.9,1.5s-.1.2-.6.4l-5.4,2.6s-.3.4-1,.8l-9.9,5.2,1.1.7,2.2,1.6,1.5.9h0c0,.1.7.6.7.6l-.6.3.2.2.7.5.4.2s.2,0,.3.1.2.6.2.6v.3s5.3,3.1,5.3,3.1l14.3,8.2v.5l.5.5h0c0,.1.2.3.2.3v.2l.3,1h0v.6l.2.3h0c0,.1,0,.1,0,.1l-.4-.3-19.3-10.2-7.6-4.1s-.3-.2-.5-.5l-5.6-3.1-2,3.7-1.8,3.2s-.5,1-.5,1.1h-.1s-2.6-1.7-3.2-2.6c0,0,.7-1.8,1.8-3.7v-.2c.1,0,.9-.6.9-.6l.9-3.1v-.3c-.1,0,.1-.3.1-.3l2.3-2,3-3.1,2.6-1.5.3.2Z"/>
      </g>
      <g>
        <path d="M73.9,120.7l-.9-.6h0c0-.1-2.1-1.4-2.1-1.4h-.3l-1.8.8-.3-.2h0s-2,1.2-3.1,1.5c0,0-2.6,1.2-3.5,1.9,0,0-.6.3-.9.6,0,0,0,.1-1,.6,0,0-2.1,1-3,1.5,0,0-6.1,2.9-7,3.3l-9.9,4.5-.6.3h.5l-2.4,1.4s-.3,0-.4.2v.2c0,0,.2,0,.2,0,0,0,0,.4.3.4h.6c0-.1.1,0,.1,0h.4s0,0,0,0h.2s0,0,0,0h.4c0,.1.2.1.2.1h.2c0,.1.3.1.3.1h0c0,0,0-.2,0-.2h0s0,0,0,0h.4s0,.1,0,.1h.4c0-.1.5-.1.5-.1h0c0,.1.4.1.4.1h0c0-.1.4-.1.4-.1v.2h.3c0,0,.3,0,.3,0h0c0-.1.3-.1.3-.1h.1c0,.1,0,.2,0,.2h0c0,0,.2,0,.2,0v.4h1.3v-.2s0,0,0,0h.5s0,.3,0,.3h1.2v-.3s0,0,0,0h1.4c0,0,.4,0,.4,0h0c0,0-1.4,0-1.4,0h-2.9c0,0,0,0,0,0l2.8-1.5v-.3s.2,0,.2,0v.2s0,0,0,0l19.6-10.7,2.5.4h.3c0,0,4.9-2.4,4.9-2.4,0,0,0-.2-1-.8ZM38.8,134.3h0c0,0,0,0,0,0h0ZM39.6,134.3h0c0-.1,0-.1,0-.1h0ZM40.6,134.3h-.1v-.2h0c0,0,.1,0,.1,0h0c0,.1,0,.2,0,.2h0ZM40.7,134h-.1c0,0,.1,0,.1,0h0ZM41,134.4h-.2c0,0,.2,0,.2,0h0ZM41.6,134.3h-.1v-.2h0c0,.1,0,.1,0,.1h0ZM41.9,134.4h-.3c0,0,.3,0,.3,0h0ZM42.5,134.3h-.1c0,0,.1,0,.1,0h0ZM42.6,133.9h0c0,0,0,0,0,0h0c0,0,0,0,0,0ZM42.9,134.4h-.4c0,0,.4,0,.4,0h0ZM43.8,134.4h-.1c0,0,.1,0,.1,0h0ZM44.1,134h0c0,0,0,0,0,0h0ZM44.6,134.4h0c0,0-.1,0-.1,0v-.3h.1v.3h0ZM44.8,134.2h0c0,0,0,0,0,0h0ZM45.3,134.5h0c0-.1.1-.1.1-.1h0ZM45.8,134.1h-.1c0,0,0-.1,0-.1h.2c0,0,0,.1,0,.1ZM46.3,134.5h-.1c0,0,.1,0,.1,0h0ZM46.7,134h0c0,0,0,0,0,0h0ZM47.1,133.9h0s0,0,0,0h0ZM47.6,134h-.2c0,0,.2,0,.2,0h0Z"/>
        <polygon class="st8" points="57.9 140.6 59.2 140.6 58.4 140.7 57.9 140.7 57.9 140.6"/>
        <polygon class="st8" points="69.3 140.2 69.4 140.2 69.4 140.3 69.6 140.3 69.6 140.2 69.9 140.2 69.7 140.4 69.6 140.4 69.3 140.2"/>
        <path d="M71.8,136.5h-1.2c0,0-.6-.5-.6-.5-1.1-1.1-1.7-1.4-1.7-1.4-.3-.2-.7,0-.7,0-1.2.6-2.6.7-2.6.7l-11.5.4h0c0,.1.4,0,.4,0h1.2c0,.1.5.1.5.1h.3c0,0,0-.1,0-.1h.1c0,.1,0,.2,0,.2h.3s0,0,0,0h.1s0,0,0,0h.3c0,0,.1,0,.1,0h0c0,0,.4,0,.4,0h0c0,0,0,0,0,0h.1c0-.1.1-.1.1-.1h.2c0,.1.1.1.1.1h0c0,0,.4,0,.4,0h.2c0-.1.2-.1.2-.1h.1c0,.1.4.1.4.1h.2c0-.1.2-.1.2-.1h0c0,.1.5.1.5.1h0c0-.1.3-.1.3-.1h0c0,0,.1,0,.1,0h0c0,0,.4,0,.4,0h0c0,0,.3,0,.3,0h.2c0,.1.2.1.2.1l.2-.2h.4s0,0,0,0h.5s.4-.1.4-.1h0c0,.1.6.1.6.1h0c0,0,.2,0,.2,0l.3.3h.1l.3.2h.6c0,0,0,.1,0,.1h-1.1c0,.1-.6,0-.6,0h-.3s-.7,0-.7,0h-.1c0,0,0,0,0,0h0c0,0-.5-.1-.5-.1h-.2s-.1,0-.1,0h0c0,0-.4,0-.4,0h0c0,0-.5,0-.5,0h-.3s0,0,0,0h-.4s0,0,0,0h-1.1c0,0,0,0,0,0h0c0,0-.9,0-.9,0h0c0,0-.1,0-.1,0h-.4s0,0,0,0h0c0,0-.6,0-.6,0h0c0,0-.6,0-.6,0h0c0,0-.1,0-.1,0h0c0,0-.3,0-.3,0h-2c0,0,0,.2,0,.2h-.2s0-.1,0-.1h-.4c0,0-.2,0-.2,0h-.1c0,0-.2,0-.2,0h-.2c0,.1,0,.1,0,.1h0c0,0-.5-.1-.5-.1h-.7s0,0,0,0h-.4c0,0,0,0,0,0h0c0,0,0,0,0,0h0c0,.1-.1.1-.1.1h0c0,0-.4,0-.4,0h0c0,0-.2,0-.2,0v-.4h-.3s0,.3,0,.3h-.1c0,.1,0,.1,0,.1h0c0,0-.7,0-.7,0v-.4h-.3l-.2.4h0c0,0-.2,0-.2,0h0c0,0-.3,0-.3,0h0c0,0,0,0,0,0h-.1c0,0-.1,0-.1,0h0c0,0-.8,0-.8,0v-.2c0,0-.4,0-.4,0l-.2.2h-.5c0,0-.3-.3-.3-.3h-.4s0,.3,0,.3h-.2c0,.1,0,0,0,0h-.8s0-.3,0-.3h-.2s0,.2,0,.2h0c0,0,0,0,0,0h0c0,0-.4,0-.4,0h0c0,0-.3,0-.3,0v-.4h-.4c0,0,0,.4,0,.4h-.1c0,0-.6,0-.6,0h0c0,0,0,0,0,0h0c0,0,0-.7,0-.7h-1.1s.1.1.1.1h-1.3c0-.1-1.6-.1-1.6-.1h-.1c0,0,0,0,0,0h-.5s0,0,0,0h-.2l-.2.2h-.4v.2h0c0,0-.1,0-.1,0h0c0-.1,0-.1,0-.1h0c0,0,0-.1,0-.1l-2.2.8c-1.5.5-2,.8-2,.8-1.2.5-2.1.6-2.1.6h-1.7c-.4,0-1.4.6-1.4.6,2.6,1.4,6.9,3.1,6.9,3.1h.2c.3,0,3.9-.2,3.9-.2.4,0,5-.5,5-.5h4.9l5.9-.2v-.6s2.8,0,2.8,0h-.9v.3h0s0,0,0,0h-1.1c0,0-.4,0-.4,0v.2s.1,0,.1,0h2.2c0,0,3-.3,3-.3h0c0,0-.8-.2-.8-.2h1.2s0-.1,0-.1v-.2h0c0,0,.1,0,.1,0h0c0,0,0,.3,0,.3h.1c0,0,0,0,0,0h.1c0,0,1,0,1,0h0c0,0,5.7-.1,5.7-.1h0c0,0-1.1,0-1.1,0h0c0-.1,1.4-.1,1.4-.1h0c0,0,4.3,0,4.3,0l1.8-2-.2-1.5ZM31.6,137.3h.1c0,.1-.1.1-.1.1h0ZM31.6,137.8h0c0,0,0,0,0,0h0ZM30.9,138.6h0c0,0,0,0,0,0h0ZM31.4,137.8h-.1c0,0,.1,0,.1,0h0ZM31.6,138.8v-.2h.2v.2c0,0-.2,0-.2,0ZM32,138.2h0c0,0,0,0,0,0h0ZM32.3,137.3h0c0,0,0,0,0,0h0ZM32.5,137.8h-.1c0,0,.1,0,.1,0h0ZM34.2,137h0c0,0,0,0,0,0h0ZM34.2,137.3h.1c0,0-.1,0-.1,0h0ZM32.9,136.9h0c0,.1,0,.1,0,.1h0ZM33,137.3h0c0,0,0,0,0,0h0c0,0,0,0,0,0ZM32.8,138.2h0c0,0,0,0,0,0h0ZM32.6,137.3h0c0,0,0,0,0,0h0ZM33.2,138.8h-.3v-.2c-.1,0,.3,0,.3,0v.2ZM33.8,137.8h0c0,0,0,0,0,0h0ZM34.6,138.7h-.1v.2h-.2v-.2c-.1,0,.1,0,.1,0h.2c0,0,0,0,0,0ZM35.2,137.8h0c0,0-.1,0-.1,0h0c0,0,0,0,0,0h0c0,0,.2,0,.2,0h0ZM35.5,138.8v-.4c0,0,0,0,0,0v.2l.2.3h-.3ZM35.6,137.3h0c0,.1,0,.1,0,.1h0c0-.1,0-.1,0-.1ZM35.5,137h0c0,0,0,0,0,0h0c0,0,0,0,0,0ZM35.8,137.9h0c0,0,0,0,0,0h0c0,0,0,0,0,0h0c0,0,.2,0,.2,0h0ZM36.1,138.8h-.1c0-.1.1-.1.1-.1h0ZM36,138.3h0c0,0,0,0,0,0h0c0,0,0,0,0,0ZM35.8,136.6l-.3-.3h0c0,0-.1,0-.1,0h0c0-.1.6-.1.6-.1h.1c0,.1,0,.1,0,.1v.3h0c0,0-.3,0-.3,0ZM36.5,137.8h0c0,0-.2,0-.2,0h0c0,0,0,0,0,0h0c0,0,.3,0,.3,0h0ZM37,137h-.1c0,0,.1,0,.1,0h0ZM37,137.3h0c0,.1,0,.1,0,.1h0c0-.1,0-.1,0-.1ZM36.9,137.8h0c0,0,0,0,0,0h0c0,0,0,0,0,0ZM36.8,137.5h-.1c0,0,.1,0,.1,0h0ZM37.1,138.8h-.3v-.2h.3v.2ZM37.4,138.7h0s0,0,0,0h0ZM37.5,136.5h0c0,.1-.9.1-.9.1h0c0-.1-.1-.1-.1-.1h0c0-.1.1-.1.1-.1h0s.8,0,.8,0h.1s0,0,0,0h0ZM37.8,137.8h-.2c0-.1.2-.1.2-.1h0ZM38.5,138.8h-.4v-.2c0,0,0-.3,0-.3h.1v.2s.2,0,.2,0h0v.2ZM38,137.5h0c0-.1,0-.1,0-.1h0c0,.1,0,.1,0,.1ZM38.2,137.3h0c0,.1,0,.1,0,.1h0c0-.1,0-.1,0-.1ZM38.2,137h0c0,0,0,0,0,0h0c0,0,0,0,0,0ZM38.4,137.9h-.1s0-.1,0-.1h.2,0ZM38.7,138.4h0v-.2h0v.2ZM38,136.7h-.2c0-.1.8-.1.8-.1v-.2h.2l.2.3h-.9ZM39.1,137.8h0c0-.1,0-.1,0-.1h0c0,0,0,.1,0,.1ZM39.6,138.8h-.2,0c0,0,.1-.1.1-.1h0ZM39.4,137h0c0,0,0,0,0,0h0ZM39.5,137.4h0c0,0,0,0,0,0h0c0,0,0,0,0,0ZM39.5,138.3h0c0,.1,0,0,0,0h0ZM39.7,138h-.1c0,0-.1,0-.1,0h0c0,0,.1,0,.1,0h0ZM40,138.7h-.1c0,0,.1,0,.1,0h0ZM40,136.7h-.7s0,0,0,0v-.2h.3s0-.1,0-.1h0c0,0,.3,0,.3,0h0s.1,0,.1,0v.2ZM40.3,137.8h-.2c0,0,0-.1,0-.1h.1ZM40.6,137.4h.3c0,0,0,0,0,0h0c0,0-.4,0-.4,0h0ZM40.8,137.8h0c0,0,0,0,0,0h0c0,0,0,0,0,0ZM40.8,138.8h-.3c0-.1,0-.2,0-.2h.2v.2ZM41,138h0c0,0,0,0,0,0h0ZM41.1,138.4h0c0-.1,0-.1,0-.1h0ZM41.7,137.9h0s-.1-.2-.1-.2h.2v.2ZM42.3,138.8h-.4v-.5h.2,0c0,0,0,.3,0,.3h.3v.2ZM42.3,138h-.2c0,0,.2,0,.2,0h0ZM41.9,137.5h.2v-.4h0v.3s.1,0,.1,0h-.4ZM42.6,138.7h0c0,0,0,0,0,0h0ZM42.6,138.4h0c0-.1,0-.1,0-.1h0ZM42.8,137.8h0c0-.1,0-.1,0-.1h0ZM42.8,137.1h0c0,0,0,0,0,0h0ZM43.3,137h.2c0,0-.2,0-.2,0h0ZM43.2,137.4h.1c0,0,0,0,0,0h0c0,.1-.3.1-.3.1h0ZM43.4,138.4h0c0-.1,0-.1,0-.1h0ZM43.3,138.8h0c0-.1,0-.2,0-.2h0c0-.1,0-.1,0-.1h0c0,.1.2.2.2.2h0c0,.1-.2.1-.2.1ZM43.6,138h-.1s0,0,0,0h.1ZM43.8,138.4h0c0,0,0,0,0,0h0ZM44.6,137h.1c0,0-.1,0-.1,0h0ZM44.3,137.9h-.1c0-.1.1-.1.1-.1h0ZM44.6,137.4h0s.1,0,.1,0h0c0,.1-.4.1-.4.1h0ZM44.8,138.8h-.1v-.2h.1v.2ZM44.9,138h-.3c0,0,.3,0,.3,0h0ZM45.1,138.4h0c0-.1.1-.1.1-.1h-.1ZM46,137h0c0,0,0,0,0,0h0ZM45.9,137.4h.3c0,0-.3,0-.3,0h0ZM45.5,137.8h.2c0,.1-.2.1-.2.1h0ZM46,138.8h-.3c0,0,.3,0,.3,0h0ZM46,138.4h0c0,0,0,0,0,0h0ZM46.1,138h0c0,0,0,0,0,0h0c0,0,0,0,0,0ZM46.3,138.8h-.1c0,0,.1,0,.1,0h0ZM46.5,138.4h0c0-.1,0-.1,0-.1h0ZM46.5,138h0c0,0,0,0,0,0h0ZM46.9,137.9h0c0-.1,0,0,0,0h0ZM47.3,138.8h-.1c0,0,.2,0,.2,0h0ZM47.8,138.8h0,0c0-.1,0,0,0,0ZM48.8,138.8h-.4,0c0,0,.2-.2.2-.2h.3-.1c0,.1,0,.2,0,.2ZM49.1,138.8h0c0,0,0,0,0,0h0ZM49.2,138.4h0s0,0,0,0h0ZM50.4,138.2h0s0,0,0,0h0ZM50.6,138.7h-.2c0,.1-.6.1-.6.1h0c0,0,.3-.2.3-.2h.5ZM52,138.7h-.3c0,.1-.4.1-.4.1v-.2h.4s0,0,0,0h.3c0,0,0,.2,0,.2ZM53.1,138.8h0c0,0-.5,0-.5,0h0c0,0,.2-.2.2-.2h.3,0ZM54.5,138.2h0s0,0,0,0h0c0,.1-.1,0-.1,0h0ZM54.6,138.7h0c0,.1-.6.1-.6.1h0c0,0,.2-.2.2-.2h.5,0ZM54.6,140.7h-.1c0,0,.1,0,.1,0h0ZM55.7,138.8h-.5c0,0,.2,0,.2,0h.2c0-.1.2-.1.2-.1h-.1c0,.1,0,.2,0,.2ZM55.9,138.3h-.1c0,0,.1,0,.1,0h0ZM57,138.7h0c0,.1-.4.1-.4.1h0c0,0,0-.2,0-.2h.5-.2ZM58.3,138.8h-.4v-.2h.4v.2ZM58.6,138.3h0c0,0,0,0,0,0h.1ZM58.8,140.2h0c0,0,.1,0,.1,0h-.1ZM59.8,138.7h-.2c0,.1-.4.1-.4.1h0c0,0,.3-.2.3-.2h.5-.1ZM60.9,138.8h0c0,0-.4,0-.4,0h0c0,0,.2-.2.2-.2h.3-.2ZM61.8,138.8h0c0-.1,0-.2,0-.2l.2.2h-.2ZM62.4,138.4v-.2h0v.2ZM63.8,138.8h0c0,0-.4,0-.4,0h0c0,0,0-.2,0-.2h.2c0,0,.2,0,.2,0h0c0,0,0,0,0,0ZM68.9,136.5h0c0,0,.1,0,.1,0h0c0,0,0,.1,0,.1h-.1ZM68.4,136.3h.2c0,.1-.2.1-.2.1h0ZM67,136.3h.2c0,.1-.1.1-.1.1h0ZM64.5,138.8h0c0-.1.4-.1.4-.1h0c0,.1-.5.1-.5.1ZM65.7,138.8h0c0,0,.3,0,.3,0h0c0,0-.3,0-.3,0ZM66.4,136.6h-.1c0-.1.2-.1.2-.1h0c0,0,0,.1,0,.1ZM66.9,138.6s1.2-.1,2.5,0c0,0-2,.1-2.5,0ZM69.8,136.5h0c0,0,0,0,0,0h0c0,0,.1,0,.1,0h0ZM70.4,136.6h-.1c0,0-.1,0-.1,0h0c0,0,.1,0,.1,0h0Z"/>
        <path d="M82.1,130.1l-2.6,2.1c-1.2,1-3.7,3.1-3.7,3.1h-.3c0,0,.3-5.8.3-5.8-.2-.7-.6-.7-.6-.7-.4.1-1.7,1-1.7,1,0,0-1.5,1.2-1.5,1.2-.4,3.3.4,5.2.4,5.2l.2.2c.7.9,2.3,1.9,2.3,1.9l2.4-1.6c-.2.5-2.8,3.2-2.8,3.2h2s.2.4.2.4h-2.5l-1.3,1.5c-1,1.1-3.2,4.2-3.2,4.2l-2,2.5h4.8s2.5-3,2.5-3l3.3-4h0c0,0-.1,0-.1,0h-.4c0,0,0,0,0,0h.4v-.2s-.9,0-.9,0h0c0,0,.6,0,.6,0h.2c0,0,.6,0,.6,0l3.4-4.2h-3.9c0-.1,4-.1,4-.1l5.4-6.5h0c0,0-5.5,0-5.5,0ZM71.2,144.7h-.1c0,0,.1,0,.1,0h0ZM71.4,144.6h0c0,0,0,0,0,0h0ZM71.8,144.6h0c0,0,0,0,0,0h0ZM72.2,144.7h-.1l.2-.2h0c0,.1,0,.2,0,.2ZM77.2,141.4h.1v.2h-.1v-.2ZM77.1,141.3h0c0,.1,0,.1,0,.1h0ZM76.4,140.8h0c0,0,.1,0,.1,0h0c0,.1,0,.1,0,.1h0ZM76.6,143.3h-.1c0-.1.2-.1.2-.1h0ZM77.6,140.4h0s0,0,0,0h0ZM78,140.4h-.2c0,0,.2,0,.2,0h0Z"/>
        <path d="M71.7,149.1h0c0,0,.3,0,.3,0l.2-.3h-4.6c0,0-1.4,1.9-1.4,1.9h.2s0,0,0,0h-.2s-2.6,3.3-2.6,3.3l-4,5c-.5.5-1.3,1.7-1.3,1.7-.4.2-.7.7-.7.7l1.2-.6,1.3-1.6,1.2-1.4c.2-.2,1.5-1.8,1.5-1.8.1-.1.5,0,.5,0l.5-.7c.8,0,1.1-.3,1.1-.3l2.2-1.3c.5,0,1.2-.2,1.2-.2l3.6-4.3h-.2ZM67.7,150.6h-.5c0,0,.5,0,.5,0h0ZM68.2,149.1h-.6,0c0,0,.6,0,.6,0h0ZM68.6,150.6h0c0,0,.1,0,.1,0h0c0,0-.2,0-.2,0ZM69.1,149.1h-.1c0,0,.2,0,.2,0h0ZM70.1,150.7h-.1s0,0,0,0h0c0,0,.1,0,.1,0h0c0,0,0,0,0,0h0ZM70.4,149.1h-.3c0,0,.3,0,.3,0h0ZM71,149.1h0c0,0,.4,0,.4,0h0c0,0-.4,0-.4,0Z"/>
        <path d="M141.8,130.6s-.2-.1-.4-.1c0,0-12.3-1-17.9-1.1h-2.9s-.3.5-.5.7l-14.8-.3s-1.3,1.6-1.4,1.9c0,0-.4.7-.6.8l-1-1.9-7.8-.2,4.4-5.5,3.9-4.8s0-1.1-.1-1.8c0,0-.2-1.4,0-1.8,0,0,.6-.9.7-1.3,0,0,.2-.3.4-.4,0,0,.2,0,.3-.3,0,0,.2-.3.4-.5,0,0,.9-1.1.9-1.2,0,0,0-.3-.1-.2l-.8.9h-.3s-.4.5-.5.6c0,0-.7.8-.7,1.2,0,0-.2.5-.8,1,0,0-.6.6-.9,1.1,0,0-.6,1.2-.9,1.3,0,0,0,.5-.5.5,0,0,0-.2.2-.3,0,0-.5,0-.9.5,0,0,0,.3-.4.3h-.5s-4.1,4.7-4.1,4.7l-4.4,5-4.2,5.2-1.4,1.7h5.3s2.8-3.3,2.8-3.3l4.7.3h0c0,0-4,3-4,3h5.1s0-.3,0-.3l.2.3h.6l3.9-2.9-2,2.9h.8s1.5,1.5,1.7,1.6h.4c0,0,.8,0,.8,0,0,0,.4-.9.8-1.2l9.6-.9s1.2-2.1,1.6-2.3l-9.6.3s.6-1.4.7-1.5h4.6c0,0,.4-.9.7-.9h5.3s.9,0,.9,0c0,0,.7-.9,1-1l-3.7,8.3h2.5l3.3-.3h0c0,0,0,0,0,0h0c0,0,.4,0,.4,0h0c0,0,.5,0,.5,0h3.9s.2.1.2.1h0c0-.1,0-.1,0-.1h0c0,.1,0,0,0,0h.1s0,0,0,0h3.5s-2.1-.9-2.1-.9v-.2s.3,0,.3,0l2.4-.6h0c0,0,0,0,0,0h0s1-.2,1-.2h0c0,0,0,0,0,0h0c0,0,1.9-.5,1.9-.5l5.5-1.6s3.3-.9,3.6-1.8c0,0-1.4-1.9-1.6-2.4ZM103.8,136h.8,0c0,0-.8,0-.8,0h0ZM103.6,136h0s0,0,0,0h0c0,0,.1,0,.1,0h0ZM105.2,136.3h-1.4c0,0,1.4,0,1.4,0h0ZM124.1,138.1h0c0-.1,0-.1,0-.1h0ZM125.1,138h-.1c0,.1,0,0,0,0h.1ZM126,138h-.1c0,0,0,0,0,0h0c0-.1,0-.1,0-.1v.2ZM126.9,138h0c0-.1,0-.1,0-.1h0ZM127.9,138h0c0,0,0,0,0,0h0c0-.1,0-.1,0-.1v-.2h0v.3ZM131.5,137h0c0-.1,0-.1,0-.1h0ZM131.5,136.6h0c0,0,.1,0,.1,0h0ZM131.7,136.7h0c0,0,0,0,0,0h0ZM130.1,134.2c-1,.2-6.7,1.7-6.7,1.7-.3-.2-1.8-.7-1.8-.7l1.2-2.8c4.3-.1,12.8.3,12.8.3-.3.2-5.5,1.6-5.5,1.6Z"/>
        <path d="M97.8,137.1h-3.1v-.3h-2.3l-4.7,3.2c-.4.3-1.5,1.1-1.5,1.1h.1c0,0-.3,0-.3,0h-.3c0,.1,0,.3,0,.3h-.3s0,0,0,0h-.1l.3-.4h-.4v.4c0,0,0,0,0,0v-.2s-.2,0-.2,0h0c0,0,.8,0,.8,0l3.5-4.3h-5.2l-3.3,4.3h.4s0,0,0,0h.1c0,0,.3,0,.3,0h0c0,0,0,0,0,0h0c0,0,.7,0,.7,0h.1c0,0,0,0,0,0h1.2s-.1.1-.1.1v.2c.1,0-.2,0-.2,0h-2.9s-1.9,2.6-1.9,2.6l1.9,1.3c.6.5,3.1,2.1,3.1,2.1.2.1.3,0,.3,0l2-1.5,2.4-1.8h0c0,0-.4,0-.4,0h-.1c0,0,0,0,0,0h-.6s-.9,0-.9,0h0c0,.1-.2.1-.2.1v.5h-1.3c0-.1-.2-.3-.2-.3h.2s0-.1,0-.1h-.4s-.2,0-.2,0h-3.5c0,0,.1-.2.1-.2h.7s0,0,0,0h.2c0,0,1.4,0,1.4,0h0c0,0,.2,0,.2,0h0c0,0,.7,0,.7,0v-.2h.7,0c0-.1,0-.2,0-.2h1.8c0,0,0-.4,0-.4h-.3l.8-.3h.2s.3.3.3.3h.6v-.4s0,0,0,0h0c0,0,.6,0,.6,0h0c0,0,0,0,0,0h0c0,0,.2,0,.2,0h0c0,0,0-.2,0-.2h0c0,0,.2,0,.2,0v.2h.4l.4-.4h-.5,0c0,0,.4-.1.4-.1h.3l1.2-.9h-1.4s0,0,0,0h1.4l.6-.5h-.2c0,.1-1.2.1-1.2.1h-.7c0,.1-1.9.1-1.9.1l-.3-.3h-.4c0,0,.4-.2.4-.2h.7c0,0,.1,0,.1,0h.2s0,0,0,0h.3c0,0,.1,0,.1,0h0c0,0,.3,0,.3,0h.1c0,0,2.7,0,2.7,0l.7-.5h-3.8s0,0,0,0h.2c0-.1,2.6,0,2.6,0h1.4c0,0,3.9-3,3.9-3h-2.8c0,0,2.9,0,2.9,0h.1ZM82.8,140.5h0c0,0-.1,0-.1,0h0c0-.1,0-.2,0-.2h.1ZM83,139.5h0c0-.1,0-.1,0-.1h0ZM79.9,142.8h0c0,0,0,0,0,0h0ZM80.1,144.7h0s0,0,0,0h0ZM84.5,145.3h.5c0,0,.5,0,.5,0h.2c0,0,0,0,0,0h0c0,.1-1.3.1-1.3.1h0ZM81.7,143.3h-.1c0,0-1,0-1,0h0c0-.1.1-.2.1-.2h.9s0,.1,0,.1h0ZM82,143.3h0c0,0,.4,0,.4,0h0c0,0-.4,0-.4,0ZM82.7,143.3h-.1,0c0,0,0,0,0,0h0ZM83,143.2h0c0,0,0,.1,0,.1h-.1c0-.1,0-.2,0-.2h0s0,0,0,0ZM84.3,141.1h.1c0,0-.1,0-.1,0h0ZM84.1,141.5h.2c0,0,.1,0,.1,0h0c0,.1-.3.1-.3.1h0ZM83.7,143.3h-.4.1c0-.1,0-.1,0-.1h.2ZM84,141.2h-.1,0c0,0,0,0,0,0h0ZM84,143.3h0c0-.1.1,0,.1,0h.2s.1,0,.1,0h0c0,.1-.6.1-.6.1ZM84.7,141.6h0c0,0,0-.1,0-.1h0ZM85.1,143.3h-.3,0c0-.1,0,0,0,0h.2s0,0,0,0ZM85.5,143.3h-.1c0,0,.1,0,.1,0h0ZM86.3,141.6h-.1c0,0,.1,0,.1,0h0ZM88.4,142.8h.3,0c0,.1-.3.1-.3.1h0ZM88.4,143.1h0c0,0-.1,0-.1,0h0ZM89,140.5h0c0,0,0,0,0,0h0ZM89.3,140.5h-.2c0,0,.3,0,.3,0h0Z"/>
        <path d="M100.1,137.1h1.1s.5,0,.7.3l1.1,1.1h.7c0,0,.4,0,.4,0l-.2.4h-.4c0-.1-.5-.1-.5-.1h0c0,0-.1,0-.1,0h-.4c0,0-.3,0-.3,0h0c0,0-1.7,0-1.7,0v.3s0,0,0,0h0v.3s-.2.1-.2.1h0c0,.1.1.1.1.1v.5s-2.4,0-2.4,0l2.2-3.1Z"/>
        <path d="M109.8,139.2h0c0,0,.1,0,.1,0h4.4l.4-1.1-4.3.6-3.9.6-3.4.7v-.2s-.9,0-.9,0v.6s-.8,0-.8,0h0c0,0-.1,0-.1,0h-1.8s-.2,0-.2,0h-1.7l-.2.2h0c0,0,2,0,2,0v.3h.3c0,0,.2,0,.2,0h2.8c0-.1.2,0,.2,0v.2h-.2c0,0-4.8,0-4.8,0h0c0,.1-.9.2-.9.2v.2c-.1,0,.2,0,.2,0h0c0,.1-.4.1-.4.1h-.1c0,.1,2.7,2.2,2.7,2.2h.2s1.4-.5,2.5-.7l1.1-.3h-.8c0-.1-1-.1-1-.1h0c0,0,1.7,0,1.7,0h0c0,0,.2,0,.2,0h0c0,0,.8,0,.8,0l1.4-.4v-.3c.1,0,.1-.5.1-.5h.1c0,0,.5,0,.5,0h.2c0,0-.2.3-.2.3v.4s.1,0,.1,0h.8c0-.1.2-.2.2-.2h.3s-.2,0-.2,0h-.6s0-.1,0-.1v-.3s.7,0,.7,0v-.3s-.1,0-.1,0h1.5v.6s1.5-.3,2.1-.4h0c0,0-.3,0-.3,0v-.2h.1c0,0,.2,0,.2,0h.2v.3s1-.2,2.1-.5h0c0,0-.1-.1-.1-.1h-.3c0-.1.6-.1.6-.1l.4-.7h-1.4,0c0,.1,0,.2,0,.2h-.1v-.2h-1.4,0c0,0-1.9,0-1.9,0v.2c0,0-.3.2-.3.2v-.5h-1.1v-.2h1.1v-.3h.4,0c0,0,0,.3,0,.3h.1c0,0,3.2,0,3.2,0h0c0,0,1.4,0,1.4,0l.3-.6h-.2c0,0-.1,0-.1,0h0s-.3,0-.3,0h0c0,0-1.7,0-1.7,0h0c0,0-.3,0-.3,0h0c0,0-1.4,0-1.4,0h0c0,.1-.2.1-.2.1h0c0,0-.4,0-.4,0v-.2h.4ZM104.3,142.2h-.1v.3h-.4c0-.1.2-.2.2-.2h0c0-.1.2-.1.2-.1v-.2c0,0,0,0,0,0v.3ZM105,141.8h0v.7h0c0,.1-.1,0-.1,0h0v-.9h.2ZM105.7,141.6h-.6c0,0,.2,0,.2,0h0c0,0,.1,0,.1,0h.1ZM105.7,141.2h-.2s0,0,0,0h-.4c0-.1.6-.1.6-.1h0ZM106.6,141.5h-.1c0-.1.1-.1.1-.1h0ZM113.4,140h.1c0,0,0,.1,0,.1h-.1c0,0,0-.1,0-.1ZM112.6,140.7h.2c0,.1-.1.2-.1.2h-.1v-.2ZM112,140.7h.2v.2h-.1c0,0,0,0,0,0h0ZM110,141.6h-.2c0,0,.2,0,.2,0h0ZM111.1,140.8h0c0,0-.1,0-.1,0h0c0-.1.1-.2.1-.2h0ZM110.7,140.4h.3c0,0-.3,0-.3,0h0ZM109.8,140.3h0c0,0,.3,0,.3,0v.2h-.4c0-.1,0-.3,0-.3h0ZM109.8,139.5h.4l-.2.2h-.2v-.2Z"/>
        <g>
          <path d="M138.3,141.7h-.3s0-.1,0-.1l-1.9-.6h-.1c0,0-.4,0-.4,0h-.2s0,0,0,0h.4s-2.7-1-3.6-1.4l-1.1-.5h-10.6l-.9.2h0c0,0-.3.1-.3.1h0c0,0,0,0,0,0h-.1c0,0-.2,0-.2,0h0c0,0-.3,0-.3,0h-.1c0,0-.3,0-.3,0h0s-.3,0-.3,0h0c0,0-.1,0-.1,0h0c0,0-.4,0-.4,0h0c0,0-.6,0-.6,0h0s0,0,0,0h-.5s0,0,0,0h.5c0,.1-.5.1-.5.1v.2c0,0,.2,0,.2,0h0c0,.1-.3.1-.3.1h0c0,0,.3,0,.3,0h0c0,0-.4,0-.4,0l-.4.8h.4c0,.1-.5.1-.5.1l-.2.5h.2c0,.1-.2.1-.2.1h0c0,0-.1.2-.1.2,0,0-2.1,4.1-2.1,4.8,0,0,.5.5,1.5,1.8l.9,1h.2c0,.1.2,0,.2,0h.2s1.3-3,1.3-3l1.4-3s.7-1.6.8-1.8c0,0,.1-.3.2-.4h0c0,0-.4,0-.4,0h0c0,0,0,0,0,0h0c0,0,0,0,0,0h0c0-.1.3-.1.3-.1h0c0,0,.3,0,.3,0,0,0,0,0,0-.2h-.1s0,0,0,0h.1s.3-.8.6-.9l1.5.6,1.4.6h1c0,0-.3,0-.3,0h0c0,0-.1,0-.1,0h-.2,0c0,0,.7.3,1.1.6l1,.5v-.2h0v.2s3.4,1.5,7.7,2.9c0,0,3.5,1,4.1,1.2,0,0,3.2-2.7,3.5-3.5l-2.5-1ZM114.4,143.8h0c0,0,.1,0,.1,0h0s0,0,0,0h-.2ZM115.4,143.8h0c0,0,0,0,0,0h0c0,0-.1,0-.1,0ZM115.5,142h-.2c0,0,0,0,0,0h0c0,0,0,0,0,0h0,0ZM118.4,140.5h.2c0,0-.2,0-.2,0h0ZM118,140.1h.2s0,0,0,0h-.1s0,0,0,0ZM117.5,140.5h.1c0,0,0,0,0,0h-.1s0,0,0,0ZM117.2,140.1h0c0,0-.1,0-.1,0h0c0,0,.2,0,.2,0ZM116.6,140.5h0c0,0-.1,0-.1,0h0ZM116.2,140.1h0c0,0-.2,0-.2,0h0c0,0,.1,0,.1,0ZM115.9,141.4h.3c0,0,0,.1,0,.1h-.3s0-.1,0-.1ZM116.3,143.8h0c0,0,0,0,0,0h0ZM116.4,141.9h0c0,0-.2,0-.2,0h0c0,0,0,0,0,0h0c0,0,0,0,0,0h0ZM116.1,140.9h0c0-.1.1-.2.1-.2h0c0,0,.6,0,.6,0h0c0,.1-.6.1-.6.1ZM116.8,141.6v-.2h.3v.2h-.3ZM117.3,143.8h-.2,0c0,0,.1,0,.1,0h0ZM117.1,142h0c0,0,.1,0,.1,0h0c0,0-.2,0-.2,0ZM118,141.6h-.3,0c0-.1,0-.1,0-.1h0c0,0,.1,0,.1,0h0ZM118.1,143.5h0c0,0,0,0,0,0h0ZM118.1,142h0c0,0,0,0,0,0h0c0,0,0,0,0,0ZM118.4,140.8h0c0,0-1.4,0-1.4,0h0c0-.1.2-.1.2-.1h0c0,0,0,0,0,0h1.3c0,0,.1,0,.1,0h0c0,0-.2,0-.2,0h0c0,0,0,0,0,0ZM118.9,141.5h0c0,.1,0,0,0,0h-.1c0,0,0,0,0,0h0c0,0,0,0,0,0h.1ZM119.1,140.2h-.1c0,0,.1,0,.1,0h0ZM120.9,139.3h0c0-.1,0-.1,0-.1h0c0,0,0,.1,0,.1h-.1ZM121.8,140.3h0c0-.1,0-.1,0-.1h0ZM121.9,139.3h0c0,0,.1,0,.1,0h0ZM122.8,140.3h-.1c0,0,.1,0,.1,0h0ZM122.9,139.3h-.1c0,0,0,0,0,0h0c0,0,0,0,0,0ZM123.1,140.6h0c0,0,0,0,0,0h0c0,0-.2,0-.2,0ZM123.6,140.3h-.1c0,0,0,0,0,0h0c0,0,0,0,0,0ZM123.6,139.3h0c0-.1.1,0,.1,0h-.1ZM132.7,140.2h0v.2h0v-.2ZM132.3,140.6h0c0,0-.1,0-.1,0h0c0,0,.1,0,.1,0ZM131.7,140.3h0c0,0,0,0,0,0h0c0,0-.1.2-.1.2h0ZM131,140.2h0c0,.1,0,0,0,0h0ZM130.1,140.2h0c0,.1,0,0,0,0h0ZM129.5,140.6h0s0,0,0,0h0s0,0,0,0ZM129.2,139.3h0c0,0,0,0,0,0h0c0,0,0,0,0,0h0c0,.1,0,0,0,0ZM129.1,140.2h.1c0,0,0,.1,0,.1h0ZM128.2,139.3h0c0,0,0,0,0,0h0ZM128.2,140.2h.1c0,0-.1,0-.1,0h0ZM127.2,140.2h0c0,0,.1,0,.1,0h0c0,.1,0,.2,0,.2h0s0,0,0,0h0ZM125.4,140.2h0s0,0,0,0h0c0,0,0,0,0,0h0ZM124.6,141h-.2c0,0,0-.1,0-.1h.4,0ZM124.5,139.4h0c0-.1.2-.1.2-.1h-.1ZM125,140.9h0c0,0,0,0,0,0h0ZM125.4,141.6h-.1c0,0,0,0,0,0h0c0,0,0,0,0,0h0c0-.1.2-.1.2-.1h0ZM125.6,141h-.1s0,0,0,0h-.1c0,0,.3,0,.3,0h0ZM125.6,139.3h0c0,0-.1.1-.1.1h0c0-.1.2-.3.2-.3h0s0,.1,0,.1ZM126,141.6h0c0-.1.1-.1.1-.1h0c0,0,0,0,0,0h0c0,0-.4,0-.4,0ZM126.4,140.3h0c0-.1.1-.1.1-.1h0ZM126.5,139.3h-.1c0,0,0,0,0,0h0c0,0,.2-.2.2-.2h0ZM127.2,141.7h-.3s0-.2,0-.2c0,0,.1,0,.1,0h0c0,0,.1,0,.1,0h0ZM127.7,141.3h-.1c0,0,0-.1,0-.1h0ZM127.7,141h-.5c0,0,0,0,0,0h0c0,0,.2,0,.2,0h0c0,0,.4,0,.4,0h0ZM128,141.7h0s0,0,0,0h0c0,0,.3,0,.3,0h-.2ZM128.4,142h0c0,0,0,0,0,0h0ZM128.7,141h-.6c0,0,.6,0,.6,0h0ZM129.1,141.6h0c0,0,0,0,0,0h-.1c0-.1.3-.1.3-.1h0ZM129.7,141h-.6c0-.1.1-.1.1-.1h0c0,0,.4,0,.4,0h0ZM129.8,141.6h0c0,0-.1,0-.1,0h0ZM129.9,143.1h0s0,0,0,0h0s0,0,0,0ZM130.3,141.1h0c0,.1,0,.3,0,.3h-.1s0,0,0,0h-.1v-.6l.3-.2h0s0,.3,0,.3h.4c0,0-.3,0-.3,0h0ZM130.9,141.6h0c0,0,0,0,0,0h0c0-.1.2-.1.2-.1h0ZM131.2,143.9h-.2c0,0,.2,0,.2,0h0ZM131,142h0s0,0,0,0h0c0,0,0,0,0,0h0ZM131.1,141h0c0,0,0,0,0,0h-.2c0,0,.6,0,.6,0h0c0,0-.3,0-.3,0ZM131.7,141.7h-.2c0,0,0-.1,0-.1h.2c0,0,0,.1,0,.1ZM131.9,143.9h0s0,0,0,0h0s0,0,0,0ZM132.7,141.8h-.3v-.2h.3v.2ZM132.9,141h0c0,0,0,0,0,0h-.8s0,0,0,0h0c0,0-.2,0-.2,0h0c0,0,.2,0,.2,0h0c0,0,0,0,0,0h1.4,0c0,0-.4,0-.4,0ZM133.3,141.3h0s0,.1,0,.1h0ZM133.6,141.8l-.2-.2h0c0,0,.2,0,.2,0v.2ZM133.6,140.9h0c0,0,0,0,0,0h0ZM133.6,140.3h0c0-.1,0-.1,0-.1,0,0,0,.1,0,.1s-.1,0-.1,0h0ZM133.9,142.1h-.1c0,0,0,0,0,0h0c0,0,0-.1,0-.1h.1,0ZM133.9,141.1h-.1c0,0,0,0,0,0h0c0,0,.9,0,.9,0h0c0,0-.6,0-.6,0h0ZM134.3,141.6h0c0,0,.3,0,.3,0v.2c.1,0,.1,0,.1,0h-.4s0-.1,0-.1ZM134.8,142.2h-.1c0,0,0-.1,0-.1h0c0,0,.1,0,.1,0h0ZM135.2,141h0c0,0,0,0,0,0h0c0,0-.1,0-.1,0h0c0,0-.1,0-.1,0h0c0-.1.5-.1.5-.1h0ZM135.5,141.8h-.2v-.2h.2v.2ZM136.2,141.6h.3v.2h-.3v-.2ZM136.7,142.2h-.2c0-.1.2-.1.2-.1h0ZM137.4,141.7h0c0,0-.2,0-.2,0v-.2h.3ZM137.6,142.1h-.1c0,0,.1,0,.1,0h0ZM138.5,144.1h-.1c0-.1.1-.1.1-.1h0Z"/>
          <polygon points="115.5 149.3 115.6 149.3 115.6 149.4 115.6 149.5 115.4 149.5 115.5 149.3"/>
        </g>
        <path d="M170.2,128.8s-.2.4-2.1.4l-3.4.3h-.7s-.7-.1-.7-.1h-.5s-3.8.4-5.3.4l-9.4.4-1.6,3.4-2.7,5.4h3.8c0,0,1.3-1.6,1.3-1.6h.7s1-2,1.2-2.4c0,0,.5-1,.6-1.2,0,0,.2-.5.5-.5l6.6-.5,8.4-.5h0c0,0-3.9,1.3-3.9,1.3l-5.3,1.7-7.1,2.1h10.7s1-.4,1.6-.6l1.3-.4v-.2c-.1,0,0,0,0,0h.1c0,.1,8.6-3,8.6-3l.9-4.7-3.5.2ZM160.3,136h-.2c0,0-.3,0-.3,0h0c0,0,0,0,0,0h0c0,0-2.1,0-2.1,0h0c0,0,2.6,0,2.6,0h.2ZM162.3,136.2h-.2c0,0,.2,0,.2,0h0ZM163.1,136.2h-.4c0,0,.4,0,.4,0h0ZM163.6,136.2h-.2c0,0,.2,0,.2,0h0Z"/>
        <path d="M149.9,137.5h-.4c0,.1,0,0,0,0h-.5l-1.3,1.5h-4l-3.9,1.4v.3s0,0,0,0v-.2c-.1,0-.6,0-.6,0h0c0,.4,2.2,1.8,2.2,1.8v-.2c.1,0,1.1,0,1.1,0l-.2.2h-.4v.2h.1c0,.1,0,.6,0,.6h-.3s-.2.3-.2.3c0,0,.5,0,.5,0v.3h-.1s-.4-.2-.4-.2c-.2.3-.9,2-1.9,4.1,0,.2-.3.5-.4.7,0,.1,0,.3,0,.4-.9,1.8-1.6,3.3-1.6,3.3l-2.9,6.1-2.4,5c.2,0,.3-.1.3-.1.2-.4.9-.7.9-.7.4-.2.5-.6.5-.6l1.5-3.1c.4-.7.7-1,.7-1h.2c.3-.4.6-.5.6-.5h.2c.3-.4,1.3-1.2,1.3-1.2l2.2-1.4c.1-.1.2-.2.2-.2l1.5-3.1,3.4-6.8c.4-.8,1.3-2.5,1.3-2.5l5-1.6h.1c0-.1,0,0,0,0l4.1-1.3c2-.5,4.5-1.6,4.5-1.6h-10.9ZM140.5,150.9h0c0,0,0,0,0,0h0ZM142.5,150.8h0c0,0,0,0,0,0h0ZM150.9,138.9h-.1c0,0,.1,0,.1,0h0ZM153.2,139.5v-.3c.1,0,.1,0,.1,0h.5v.2c.1,0,.3.2.3.2h-.9Z"/>
        <polygon points="164 137.1 166.1 136 166.1 136.3 166.2 136.3 167.5 135.9 167.4 137.4 163.8 137.4 164 137.1"/>
        <path d="M179.9,129.6c0-.4.5-.8.5-.8l-.2-.5.4-1.3v-.4l-.2.2h-.4c0,.1-.1.1-.1.1l-.7,1.1-3.2,5.1-2.9,4.6-.4.4-1.5.9-2.9,2-2.8,1.8h-.1v-.2l.4-.3v-.2s0-.1,0-.1l1.8-4.4h-3.6l-1.3,3.1h.9s-.2.3-.2.3h-.3s-.5,0-.5,0l-1.5,3.9v.2l.8.7c.7.6,1.9,1.4,1.9,1.4.4-.2,1.8-1.4,1.8-1.4.2-.1,1.7-1.1,1.7-1.1l2.8-1.9c.6-.5.8-.4.8-.4,0,.3-1.5,3.1-1.5,3.1,0,.2.4.2.4.2.4,0,1.3.7,1.3.7,1.6,1.1,1.6.9,1.6.9l2.9-5.3h-2.8s0-.2,0-.2h1.4c0,0,.3,0,.3,0h0c0,0,.9,0,.9,0h0c0,0,.1,0,.1,0l.6-1.1h-2.8s.2-.1.2-.1h.1s0,0,0,0h.4c0,0,.1,0,.1,0h0c0,0,1.1,0,1.1,0h.2c0,0,.6-.1.6-.1l2.3-4.2c.3-.4.9-1.8.9-1.8.2-.4.5-.5.5-.5,0-.2,1.1-2.1,1.1-2.1-.3-.3-.9-1.9-.9-1.9ZM165.8,138.8h.1c0,0,.1,0,.1,0h0c0,0-.4,0-.4,0h0ZM164.1,138.8h.4c0,0-.4,0-.4,0h0ZM164.8,140.8h-.6c0,0-.4,0-.4,0h0c0,0-.3,0-.3,0h0c0,0,0-.1,0-.1v-.2s-.2,0-.2,0h0c0,0,.8,0,.8,0h0c0,0,0,.2,0,.2h.3l.2.2h.2ZM165,141.8h0c0,0,0,0,0,0h0ZM164.8,138.8h0c0,0,.7,0,.7,0h0c0,0,0,0,0,0h0c0,0,0,0,0,0h0c0,0-.5,0-.5,0ZM167.8,141.8h0c0,0,0,0,0,0h0c0-.1.1-.1.1-.1h0ZM168.6,141.8h0s0,0,0,0h0ZM170.6,141.9h0c0-.1,0-.1,0-.1h0ZM171.3,142.1h0c0,.1,0,.1,0,.1h0ZM171.3,142.7h0c0,0,0,.2,0,.2v.2h-.1v-.4ZM171.3,143.3h.1,0c0,0,0,0,0,0h0ZM172.2,144.1h-.3c0,.1.2.4.2.4h0c0,0-.3,0-.3,0h0c0,0-.2,0-.2,0h0c0,0-.2,0-.2,0v-.3h0s0-.4,0-.4h.1c0,.1.7.2.7.2h0v.2ZM172.9,145h-.1c0,0,.1,0,.1,0h0ZM172.7,143.4h-1.2c0-.1,1.5-.1,1.5-.1h-.3ZM171.7,142.8h.5c0,.1,0,.2,0,.2h-.3l-.2-.2ZM174.1,142.7h-.1c0,0-.2,0-.2,0h0c0,0,0,0,0,0h-2.1s0-.1,0-.1h2.6s0,.2,0,.2ZM174.6,142.1v.2c-.1,0-1.2,0-1.2,0h0c0,0-.1,0-.1,0h0c0,0-.1,0-.1,0h0c0,0,0,0,0,0h0c0,0-.7,0-.7,0h0c0,0,0-.2,0-.2h2.5Z"/>
        <path d="M183.5,129.6s-1.4,2.5-2,3.7c0,0-1.3,2.5-1.7,3l-2.2,4h.5c0,0,0,0,0,0h.3c0,0,0,0,0,0h0c0,0,.9,0,.9,0h0c0,0,.3,0,.3,0h0c0,0,2,0,2,0l1.3-2.3.6,2.3h.4c0,0,.9,0,.9,0h.1c0,0,5.3,0,5.3,0l2.3-4.1h-.5s-.8.1-.8.1h-2.9s-1.7,2.9-1.7,2.9c0,0-1.3-5.8-2.3-8.3h-1.2s0-.4-.2-.6h0c0-.1.3-.6.3-.6v-.3s-.2.1-.2.1Z"/>
        <path d="M194.6,130.5h-1.1c0,0-1.4,0-1.4,0-.9,1.1-3.2,5.5-3.2,5.5h.5s0,0,0,0h1.2c0,0,0,0,0,0h1.2c0,0,1.1-.2,1.1-.2l3-5.5h-1.4ZM190.4,135.9h-.8c0,0,.8,0,.8,0h0Z"/>
        <path d="M177.6,140.4s-1.6,3-2.2,4.2h.3c0,0,.3,0,.3,0h.3s1.7-.4,3.6-.5h.1c0,0,1.2-2.3,1.2-2.3h-1.6c0,0-.1-.2-.1-.2h1.9s.6-1.1.6-1.1h-3.2s0,0,0,0h-1.1Z"/>
        <path d="M189.1,143.1s1.2-2.3,1.4-2.6h-4s-.1,0-.1,0h-.3,0c0,0,0,0,0,0h0c0,0-.2,0-.2,0h0c0,0-.3,0-.3,0h0c0,0-.4,0-.4,0h0c0,0-.1,0-.1,0h-.7s1.1,4.2,1.1,4.2h3.1c0,0,.7-1.4.7-1.4h-.7s0,0,0,0c0,0,.3,0,.8-.1ZM188,143.3h0c0,0,0,0,0,0h0Z"/>
        <path d="M225,122.6l-4.6,2.4-3.9,1.8-4.2,2-11.5,5.7h-.1s3-5.6,3-5.6l-4,.2h-.3c0,0-.3-.5-.3-.5h-.1s-2.7,4.9-2.7,4.9l-1.4,2.6h.4s.1,0,.1,0h.6s0,0,0,0h.3c0,0,.3,0,.3,0h0c0,0,.2,0,.2,0h0c0,0,1.8,0,1.8,0l.5.4h0c0,.1.3.1.3.1l.3.2h.2s.5.4.5.4l.3.3h.3s.5.3.5.3v.2h-.3c0,0-1.5-.9-1.5-.9h-.2s-.2-.1-.2-.1h-.1s0,0,0,0h-.2s0,0,0,0h-.1c0-.1-.1-.2-.1-.2l-.2-.2h-.2c0,0-.4,0-.4,0h0c0,0-.6,0-.6,0h0c0,0-.1,0-.1,0h0c0,0-.5,0-.5,0h-.1c0,0-1.8,0-1.8,0l-1.9,3.5h0c0,0,.2.5.2.5h3.1c0,0,.2,0,.2,0h0c0,0,1,0,1,0l.7-1.2c.3-.5.7-1.1.7-1.1l2,1.1c1.1.6,2.2,1.3,2.2,1.3h.1c0,0,.2,0,.2,0v-.3c0,0,.2.3.2.3h2.8c0,0,.2,0,.2,0h0c0,0,0,0,0,0h0c0,0,.9,0,.9,0h.2c0,.1.2,0,.2,0h.4c0,0,.3,0,.3,0h0c0,0,.7,0,.7,0h0c-.3,0,.2-.4.2-.4.4-.2.8-.4.8-.4h0c0,0-1.2-.9-1.2-.9l-1.8-1.1-1.1-.7-1.2-.7h-.5c0-.1.2-.1.2-.1v-.2c-.1,0,5.5-3,5.5-3l4.6-2.4c.1,0,.3-.2.3-.2.3-.3.7-.6.7-.6l1.1-.5,4.3-2.1c.5-.2.8-.7.8-.7l.9-1.3c.6-1,1.5-1.3,1.5-1.3l.8-1c0-.2-.1-.1-.1-.1ZM200.7,135.9h-.6c0,0,.6,0,.6,0h0ZM202.1,137.7h0c0,0,0,0,0,0h0c0,0,0,0,0,0h0c0,0,.2,0,.2,0h0c0,0-.1,0-.1,0ZM205.8,137.6h.1c0,0-.1,0-.1,0h0ZM205.8,137.9h.1c0-.1,0-.1,0-.1h0c0,.1.1.1.1.1h0c0,.1-.5.1-.5.1h0ZM205.4,137.7h0c0,0,0,0,0,0h0Z"/>
        <path d="M197.5,140.4h-1c0,0-3.3,0-3.3,0,.3.7.3,1,.3,1h.1c0,0,.1,0,.1,0v.2s-1.3,2.6-1.3,2.6v.2c-.1,0-.1.1-.1.1l2.1,1.6h0c0-.3.9-1.7.9-1.7l1.2-2.2h-.2c0,.1-1.9.1-1.9.1h0c0,0,1.9-.1,1.9-.1h.3l.2-.4h-2.3c0-.1,2.4-.1,2.4-.1l.6-1.1ZM194.7,143.2h0c0,0-.3,0-.3,0h0c0,0-.1,0-.1,0h0c0,.1-.9.1-.9.1h.1c0-.1,0-.4,0-.4h0c0,0,.2,0,.2,0h0c0,0,.2,0,.2,0h0c0,0,.3,0,.3,0h0c0,0,.1,0,.1,0h0c0,.1.4.1.4.1h0c0,0,.1,0,.1,0h0c0,0-.3,0-.3,0ZM194.6,142.6h0c0,0,.1,0,.1,0h0c0,0,.4,0,.4,0h0c0,0,.6,0,.6,0h0c0,.1,0,.2,0,.2h-2s.3-.1.3-.1h.6Z"/>
        <path d="M231.7,154.2l-.7-.4c-.2-.1-1.7-1-1.7-1h-.1s-.6.2-.6.2h-.4l-2.1-1.2h0s-.3,0-.3,0h0c0,0-.1,0-.1,0h-.1c0,0-.3,0-.3,0v-.3c.1,0,.3,0,.3,0l-4.4-2.4h-.1c0,0,0,0,0,0l-5-2.7-1-.5-2.9-1.6v-.2c0,0-.4-1.9-.4-1.9h-1.9,0c0,0-.3,0-.3,0h0c0,0-.1,0-.1,0h0c0,0-.3,0-.3,0h-.1c0-.1.6-.1.6-.1v-.2h-2.9c0,0,1.1,0,1.1,0l.3-.4h3.4l-1.1-.6h-1.7c0,0-2.5,0-2.5,0h0c0,0-.3,0-.3,0h0c0,0,0,0,0,0h0c0,0-2.1,0-2.1,0l1,.6c.3.5.6.6.6.6l18,9.6h.4c0,0-.1.1-.1.1l.4.2h0s0-.3,0-.3h-.1s0,0,0,0h.3s0,0,0,0h.2s-.1.2-.1.2h0c0,.1,0,.1,0,.1h0c0,0-.2,0-.2,0h0c0,0,5.4,2.9,5.4,2.9h.2c0,0,2.1,0,2.1,0v-.2c0,0,0-.2,0-.2ZM224.4,151.1h-.1c0,0,.1,0,.1,0h0ZM224.5,151.4h.1c0,0-.1,0-.1,0h0ZM224.8,151.8h-.1c0,0,0,0,0,0h0c0,0,0-.1,0-.1h.1Z"/>
        <path d="M229.6,154.8h2.1s.3.3.4.4h0c0,0,0,.2,0,.2v.2s0,.3,0,.3v.2l.3.3h-.1l-2.8-1.5h0Z"/>
      </g>
    </g>
  </g>
</svg>