<?xml version="1.0" encoding="utf-8"?>
<!-- Generator: Adobe Illustrator 15.0.0, SVG Export Plug-In . SVG Version: 6.00 Build 0)  -->
<!DOCTYPE svg PUBLIC "-//W3C//DTD SVG 1.1//EN" "http://www.w3.org/Graphics/SVG/1.1/DTD/svg11.dtd">
<svg version="1.1" id="Layer_1" xmlns="http://www.w3.org/2000/svg" xmlns:xlink="http://www.w3.org/1999/xlink" x="0px" y="0px"
	 width="256px" height="256px" viewBox="0 0 256 256" enable-background="new 0 0 256 256" xml:space="preserve">
<g>
	<defs>
		<rect id="SVGID_1_" width="256" height="256"/>
	</defs>
	<clipPath id="SVGID_2_">
		<use xlink:href="#SVGID_1_"  overflow="visible"/>
	</clipPath>
	<g clip-path="url(#SVGID_2_)">
		<defs>
			<rect id="SVGID_3_" width="256" height="256"/>
		</defs>
		<clipPath id="SVGID_4_">
			<use xlink:href="#SVGID_3_"  overflow="visible"/>
		</clipPath>
		<path clip-path="url(#SVGID_4_)" fill-rule="evenodd" clip-rule="evenodd" fill="#0C557E" d="M104.425,42.378
			C100.056,37.073,93.544,34,86.671,34H29c-6.627,0-12,5.372-12,12v12.137V68.2V160c0,6.627,5.373,12,12,12h200
			c6.627,0,12-5.373,12-12V70.137c0-6.628-5.373-12-12-12H117.404L104.425,42.378z"/>
		<defs>
			<filter id="Adobe_OpacityMaskFilter" filterUnits="userSpaceOnUse" x="17" y="62" width="224" height="110">
				<feColorMatrix  type="matrix" values="1 0 0 0 0  0 1 0 0 0  0 0 1 0 0  0 0 0 1 0"/>
			</filter>
		</defs>
		<mask maskUnits="userSpaceOnUse" x="17" y="62" width="224" height="110" id="SVGID_5_">
			<g filter="url(#Adobe_OpacityMaskFilter)">
				<rect x="17" y="62" clip-path="url(#SVGID_4_)" width="224" height="110"/>
				<g enable-background="new    ">
					<g>
						<defs>
							<rect id="SVGID_6_" x="17" y="62" width="224" height="110"/>
						</defs>
						<clipPath id="SVGID_7_" clip-path="url(#SVGID_4_)">
							<use xlink:href="#SVGID_6_"  overflow="visible"/>
						</clipPath>
						<g>
							<defs>
								<path id="SVGID_8_" d="M104.425,42.378C100.056,37.073,93.544,34,86.671,34H29c-6.627,0-12,5.373-12,12v12.137V68.2V160
									c0,6.627,5.373,12,12,12h200c6.627,0,12-5.373,12-12V70.137c0-6.627-5.373-12-12-12H117.404L104.425,42.378z"/>
							</defs>
							<clipPath id="SVGID_9_" clip-path="url(#SVGID_7_)">
								<use xlink:href="#SVGID_8_"  overflow="visible"/>
							</clipPath>
							
								<linearGradient id="SVGID_10_" gradientUnits="userSpaceOnUse" x1="4.882813e-004" y1="255.9668" x2="1.0005" y2="255.9668" gradientTransform="matrix(180.768 181.142 -181.142 180.768 46404.9336 -46258.2305)">
								<stop  offset="0" style="stop-color:#05815D"/>
								<stop  offset="1" style="stop-color:#0C575F"/>
							</linearGradient>
							<polygon clip-path="url(#SVGID_9_)" fill="url(#SVGID_10_)" points="-52,102.857 128.769,284 310,103.143 129.231,-78 
															"/>
						</g>
					</g>
				</g>
			</g>
		</mask>
		<g clip-path="url(#SVGID_4_)" mask="url(#SVGID_5_)">
			<g>
				<defs>
					<rect id="SVGID_11_" x="17" y="62" width="224" height="110"/>
				</defs>
				<clipPath id="SVGID_12_">
					<use xlink:href="#SVGID_11_"  overflow="visible"/>
				</clipPath>
				<path clip-path="url(#SVGID_12_)" fill-rule="evenodd" clip-rule="evenodd" fill="#A6A1A1" d="M92.789,74
					c4.975,0,9.816-1.613,13.797-4.598L116.459,62H229c6.627,0,12,5.373,12,12v34v52c0,6.627-5.373,12-12,12H29
					c-6.627,0-12-5.373-12-12v-52V86c0-6.627,5.373-12,12-12h58H92.789z"/>
			</g>
		</g>
	</g>
	<g clip-path="url(#SVGID_2_)">
		<defs>
			<path id="SVGID_13_" d="M116.459,62l-9.873,7.402C102.605,72.387,97.764,74,92.789,74H87H29c-6.628,0-12,5.372-12,12v22v90
				c0,6.627,5.372,12,12,12h200c6.627,0,12-5.373,12-12v-90V74c0-6.627-5.373-12-12-12H116.459z"/>
		</defs>
		<clipPath id="SVGID_14_">
			<use xlink:href="#SVGID_13_"  overflow="visible"/>
		</clipPath>
		
			<linearGradient id="SVGID_15_" gradientUnits="userSpaceOnUse" x1="-4.882813e-004" y1="256" x2="0.9995" y2="256" gradientTransform="matrix(224 148 -148 224 37905 -57281.9961)">
			<stop  offset="0" style="stop-color:#BED5FF"/>
			<stop  offset="1" style="stop-color:#5796CC"/>
		</linearGradient>
		<polygon clip-path="url(#SVGID_14_)" fill="url(#SVGID_15_)" points="-51.07,165.025 172.93,313.025 309.07,106.975 
			85.07,-41.025 		"/>
	</g>
	<g clip-path="url(#SVGID_2_)">
		<defs>
			<path id="SVGID_16_" d="M229,206H29c-6.628,0-12-5.372-12-12v4c0,6.627,5.372,12,12,12h200c6.627,0,12-5.373,12-12v-4
				C241,200.628,235.627,206,229,206"/>
		</defs>
		<clipPath id="SVGID_17_">
			<use xlink:href="#SVGID_16_"  overflow="visible"/>
		</clipPath>
		
			<linearGradient id="SVGID_18_" gradientUnits="userSpaceOnUse" x1="0" y1="256" x2="1.0005" y2="256" gradientTransform="matrix(224.0175 2.5002 -2.5002 224.0175 656.9794 -57147.832)">
			<stop  offset="0" style="stop-color:#61A7E3"/>
			<stop  offset="1" style="stop-color:#4580A3"/>
		</linearGradient>
		<polygon clip-path="url(#SVGID_17_)" fill="url(#SVGID_18_)" points="16.821,209.998 240.972,212.5 241.179,194.002 17.028,191.5 
					"/>
	</g>
	<g clip-path="url(#SVGID_2_)">
		<defs>
			<path id="SVGID_19_" d="M116.459,62l-9.873,7.402C102.605,72.387,97.764,74,92.789,74H87H29c-6.628,0-12,5.372-12,12v4
				c0-6.627,5.372-12,12-12h58h5.789c4.975,0,9.816-1.613,13.797-4.597L116.459,66H229c6.627,0,12,5.372,12,12v-4
				c0-6.627-5.373-12-12-12H116.459z"/>
		</defs>
		<clipPath id="SVGID_20_">
			<use xlink:href="#SVGID_19_"  overflow="visible"/>
		</clipPath>
		
			<linearGradient id="SVGID_21_" gradientUnits="userSpaceOnUse" x1="0" y1="256" x2="1" y2="256" gradientTransform="matrix(224 0 0 224 17 -57268)">
			<stop  offset="0" style="stop-color:#FFFFFF"/>
			<stop  offset="1" style="stop-color:#BED5F4"/>
		</linearGradient>
		<rect x="17" y="62" clip-path="url(#SVGID_20_)" fill="url(#SVGID_21_)" width="224" height="28"/>
	</g>
</g>
<g>
	<polygon fill="#F5E220" points="145.514,166.021 150.768,163.177 154.414,171.684 190.721,154.856 120.885,80.862 103.81,195.139 
		148.992,174.197 	"/>
	<path fill="#394699" d="M134.403,124.536c-11.068,4.487-13.627,19.539-7.552,32.51l15.105-10.508l16.747-3.283
		C156.24,131.104,146.553,119.611,134.403,124.536z M152.136,138.657l-9.429,1.853l-2.979-8.642
		C144.317,131.322,150.031,134.033,152.136,138.657z M134.698,133.953l2.866,8.732l-7.759,4.673
		C128.63,140.563,131.201,136.375,134.698,133.953z"/>
	<polygon fill="#A17A1A" points="65.279,145.005 80.851,165.267 83.833,157.046 86.706,160.658 83.428,168.62 103.81,195.139 
		120.885,80.862 	"/>
</g>
</svg>
