<svg width="256" height="256" viewBox="0 0 256 256" fill="none" xmlns="http://www.w3.org/2000/svg">
<g clip-path="url(#clip0_2032_35231)">
<path fill-rule="evenodd" clip-rule="evenodd" d="M104.425 42.3784C100.056 37.0733 93.5437 34 86.6712 34H29C22.3726 34 17 39.3726 17 46V58.1371V68.2V160C17 166.627 22.3726 172 29 172H229C235.627 172 241 166.627 241 160V70.1371C241 63.5097 235.627 58.1371 229 58.1371H117.404L104.425 42.3784Z" fill="#E6E6E6"/>
<mask id="mask0_2032_35231" style="mask-type:alpha" maskUnits="userSpaceOnUse" x="17" y="34" width="224" height="138">
<path fill-rule="evenodd" clip-rule="evenodd" d="M104.425 42.3784C100.056 37.0733 93.5437 34 86.6712 34H29C22.3726 34 17 39.3726 17 46V58.1371V68.2V160C17 166.627 22.3726 172 29 172H229C235.627 172 241 166.627 241 160V70.1371C241 63.5097 235.627 58.1371 229 58.1371H117.404L104.425 42.3784Z" fill="url(#paint0_linear_2032_35231)"/>
</mask>
<g mask="url(#mask0_2032_35231)">
<g style="mix-blend-mode:multiply" filter="url(#filter0_f_2032_35231)">
<path fill-rule="evenodd" clip-rule="evenodd" d="M92.789 74C97.7642 74 102.605 72.3868 106.586 69.4024L116.459 62H229C235.627 62 241 67.3726 241 74V108V160C241 166.627 235.627 172 229 172H29C22.3726 172 17 166.627 17 160L17 108V86C17 79.3726 22.3726 74 29 74H87H92.789Z" fill="black" fill-opacity="0.3"/>
</g>
</g>
<g filter="url(#filter1_ii_2032_35231)">
<path fill-rule="evenodd" clip-rule="evenodd" d="M92.789 74C97.7642 74 102.605 72.3868 106.586 69.4024L116.459 62H229C235.627 62 241 67.3726 241 74V108V198C241 204.627 235.627 210 229 210H29C22.3726 210 17 204.627 17 198L17 108V86C17 79.3726 22.3726 74 29 74H87H92.789Z" fill="url(#paint1_linear_2032_35231)"/>
</g>
<path d="M107.133 114.298L100.887 108.049L100.911 153.185L100.986 155.293C101.017 156.289 101.205 157.406 101.507 158.568L150.979 176.017L163.356 170.538L163.367 170.52L107.13 114.298H107.133Z" fill="#00C4B3"/>
<path d="M101.513 158.57H101.517C101.513 158.552 101.505 158.531 101.496 158.51C101.507 158.533 101.507 158.555 101.511 158.57H101.513ZM163.348 170.54L150.971 176.019L101.507 158.57C102.45 162.199 104.544 166.277 106.793 168.502L122.929 184.558L158.835 184.604L163.333 170.54H163.348Z" fill="#22D3C5"/>
<path d="M101.058 108.049L81.8236 137.098C80.2267 138.804 81.0237 142.323 83.5942 144.917L94.6976 156.111L101.677 158.571C101.375 157.412 101.185 156.307 101.156 155.296L101.081 153.189L101.058 108.052V108.049Z" fill="#0075C9"/>
<path d="M151.386 108.635C150.224 108.341 149.11 108.155 148.106 108.126L145.875 108.045L100.887 108.055L163.365 170.525L168.854 158.147L151.389 108.638L151.386 108.635Z" fill="#0075C9"/>
<path d="M151.33 108.622C151.35 108.63 151.371 108.634 151.388 108.637V108.631C151.368 108.627 151.35 108.627 151.33 108.619V108.622ZM161.315 113.932C159.043 111.646 155.021 109.555 151.388 108.637L168.852 158.142L163.357 170.519L176.764 166.236L176.794 129.478L161.314 113.931L161.315 113.932Z" fill="#00A8E1"/>
<path d="M148.939 101.698L137.77 90.5885C135.164 88.027 131.645 87.227 129.954 88.821L100.906 108.051L145.895 108.041L148.126 108.122C149.13 108.152 150.245 108.336 151.406 108.631L148.942 101.695L148.939 101.698Z" fill="#00C4B3"/>
</g>
<defs>
<filter id="filter0_f_2032_35231" x="-20" y="25" width="298" height="184" filterUnits="userSpaceOnUse" color-interpolation-filters="sRGB">
<feFlood flood-opacity="0" result="BackgroundImageFix"/>
<feBlend mode="normal" in="SourceGraphic" in2="BackgroundImageFix" result="shape"/>
<feGaussianBlur stdDeviation="18.5" result="effect1_foregroundBlur_2032_35231"/>
</filter>
<filter id="filter1_ii_2032_35231" x="17" y="62" width="224" height="148" filterUnits="userSpaceOnUse" color-interpolation-filters="sRGB">
<feFlood flood-opacity="0" result="BackgroundImageFix"/>
<feBlend mode="normal" in="SourceGraphic" in2="BackgroundImageFix" result="shape"/>
<feColorMatrix in="SourceAlpha" type="matrix" values="0 0 0 0 0 0 0 0 0 0 0 0 0 0 0 0 0 0 127 0" result="hardAlpha"/>
<feOffset dy="-4"/>
<feComposite in2="hardAlpha" operator="arithmetic" k2="-1" k3="1"/>
<feColorMatrix type="matrix" values="0 0 0 0 0 0 0 0 0 0 0 0 0 0 0 0 0 0 0.25 0"/>
<feBlend mode="normal" in2="shape" result="effect1_innerShadow_2032_35231"/>
<feColorMatrix in="SourceAlpha" type="matrix" values="0 0 0 0 0 0 0 0 0 0 0 0 0 0 0 0 0 0 127 0" result="hardAlpha"/>
<feOffset dy="4"/>
<feComposite in2="hardAlpha" operator="arithmetic" k2="-1" k3="1"/>
<feColorMatrix type="matrix" values="0 0 0 0 1 0 0 0 0 1 0 0 0 0 1 0 0 0 0.25 0"/>
<feBlend mode="normal" in2="effect1_innerShadow_2032_35231" result="effect2_innerShadow_2032_35231"/>
</filter>
<linearGradient id="paint0_linear_2032_35231" x1="17" y1="34" x2="197.768" y2="215.142" gradientUnits="userSpaceOnUse">
<stop stop-color="#05815D"/>
<stop offset="1" stop-color="#0C575F"/>
</linearGradient>
<linearGradient id="paint1_linear_2032_35231" x1="17" y1="62" x2="241" y2="210" gradientUnits="userSpaceOnUse">
<stop stop-color="#5F585E"/>
<stop offset="1" stop-color="#010101"/>
</linearGradient>
<clipPath id="clip0_2032_35231">
<rect width="256" height="256" fill="white"/>
</clipPath>
</defs>
</svg>
