<svg width="256" height="256" viewBox="0 0 256 256" fill="none" xmlns="http://www.w3.org/2000/svg">
<g clip-path="url(#clip0_4402_13392)">
<path d="M104.425 42.3784C100.056 37.0733 93.5437 34 86.6712 34H29C22.3726 34 17 39.3726 17 46V160C17 166.627 22.3726 172 29 172H229C235.627 172 241 166.627 241 160V70.1371C241 63.5097 235.627 58.1371 229 58.1371H117.404L104.425 42.3784Z" fill="url(#paint0_linear_4402_13392)"/>
<mask id="mask0_4402_13392" style="mask-type:alpha" maskUnits="userSpaceOnUse" x="17" y="34" width="224" height="138">
<path d="M86.6709 34C93.5434 34 100.057 37.0729 104.426 42.3779L117.403 58.1367H229C235.627 58.1367 241 63.5095 241 70.1367V160C241 166.627 235.627 172 229 172H29C22.3726 172 17 166.627 17 160V46C17 39.3726 22.3726 34 29 34H86.6709Z" fill="url(#paint1_linear_4402_13392)"/>
</mask>
<g mask="url(#mask0_4402_13392)">
<g filter="url(#filter0_f_4402_13392)" style="mix-blend-mode:multiply">
<path d="M241 160C241 166.627 235.627 172 229 172H29C22.3726 172 17 166.627 17 160V86C17 79.3726 22.3726 74 29 74H92.79C97.7649 73.9999 102.605 72.3865 106.586 69.4023L116.46 62H229C235.627 62 241 67.3726 241 74V160Z" fill="black" fill-opacity="0.3"/>
</g>
</g>
<g filter="url(#filter1_ii_4402_13392)">
<path d="M241 198C241 204.627 235.627 210 229 210H29C22.3726 210 17 204.627 17 198V86C17 79.3726 22.3726 74 29 74H92.79C97.7649 73.9999 102.605 72.3865 106.586 69.4023L116.46 62H229C235.627 62 241 67.3726 241 74V198Z" fill="url(#paint2_linear_4402_13392)"/>
</g>
<g clip-path="url(#clip1_4402_13392)">
<mask id="mask1_4402_13392" style="mask-type:luminance" maskUnits="userSpaceOnUse" x="38" y="128" width="183" height="44">
<path d="M38 128H221V171.096H38V128Z" fill="white"/>
</mask>
<g mask="url(#mask1_4402_13392)">
<path fill-rule="evenodd" clip-rule="evenodd" d="M63.6709 131.997H81.846L91.5893 141.741V157.105L81.846 166.848H65.4821C65.0449 166.349 64.3579 165.974 63.6084 165.974C62.2968 165.974 61.1726 167.036 61.1726 168.41C61.1726 169.722 62.2344 170.846 63.6084 170.846C64.3579 170.846 64.9825 170.533 65.4821 169.971H83.1576L94.7122 158.417V140.429L83.1576 128.874H63.6709C63.2337 128.375 62.5467 128 61.7972 128C60.4856 128 59.3613 129.062 59.3613 130.436C59.3613 131.747 60.4231 132.872 61.7972 132.872C62.5467 132.872 63.2337 132.497 63.6709 131.997ZM61.7972 129.374C62.3593 129.374 62.7965 129.811 62.7965 130.373C62.7965 130.935 62.3593 131.373 61.7972 131.373C61.235 131.373 60.7978 130.935 60.7978 130.373C60.7978 129.874 61.235 129.374 61.7972 129.374ZM63.6709 167.411C64.233 167.411 64.6702 167.848 64.6702 168.41C64.6702 168.972 64.233 169.409 63.6709 169.409C63.1088 169.409 62.6716 168.972 62.6716 168.41C62.6716 167.848 63.1088 167.411 63.6709 167.411Z" fill="#02A8E2"/>
<path fill-rule="evenodd" clip-rule="evenodd" d="M80.5963 135.121H57.3622V135.183C56.925 134.683 56.3004 134.434 55.6134 134.434C54.3018 134.434 53.1776 135.495 53.1776 136.869C53.1776 138.181 54.2393 139.305 55.6134 139.305C56.4253 139.305 57.1748 138.931 57.612 138.306H79.2847L85.3431 144.364V154.545L79.2847 160.603H57.2373C56.8001 160.104 56.1131 159.729 55.3636 159.729C54.052 159.729 52.9277 160.791 52.9277 162.165C52.9277 163.476 53.9895 164.6 55.3636 164.6C56.1131 164.6 56.7376 164.288 57.2373 163.726H80.5339L88.4035 155.856V142.99L80.5963 135.121ZM55.6134 135.87C56.1755 135.87 56.6127 136.307 56.6127 136.869C56.6127 137.432 56.1755 137.869 55.6134 137.869C55.0513 137.869 54.6141 137.432 54.6141 136.869C54.5516 136.307 55.0513 135.87 55.6134 135.87ZM55.426 161.103C55.9881 161.103 56.4253 161.54 56.4253 162.102C56.4253 162.664 55.9881 163.102 55.426 163.102C54.8639 163.102 54.4267 162.664 54.4267 162.102C54.3643 161.54 54.8639 161.103 55.426 161.103Z" fill="#02A8E2"/>
<path fill-rule="evenodd" clip-rule="evenodd" d="M76.9737 157.354H48.743C48.3058 157.791 47.7437 158.041 47.0567 158.041C45.7451 158.041 44.6208 156.979 44.6208 155.605C44.6208 154.293 45.6826 153.169 47.0567 153.169C47.8686 153.169 48.6181 153.606 49.0553 154.231H56.8L53.5522 150.983H42.8721C42.4349 151.483 41.7478 151.858 40.9983 151.858C39.6867 151.858 38.5625 150.796 38.5625 149.422C38.5625 148.11 39.6243 146.986 40.9983 146.986C41.7478 146.986 42.3724 147.298 42.8721 147.86H54.8638L61.297 154.231H76.6615L78.9724 151.92V146.986L76.6615 144.675H62.3587L65.6065 147.923H71.9147C72.3519 147.423 73.0389 147.048 73.7884 147.048C75.1 147.048 76.2243 148.11 76.2243 149.484C76.2243 150.796 75.1625 151.92 73.7884 151.92C73.0389 151.92 72.4144 151.608 71.9147 151.046H64.2949L57.9243 144.613H49.4925C49.0553 145.112 48.3683 145.487 47.6188 145.487C46.3072 145.487 45.183 144.425 45.183 143.051C45.183 141.739 46.2447 140.615 47.6188 140.615C48.3683 140.615 48.9929 140.928 49.4925 141.49H77.9731L82.1577 145.674V153.232L77.9731 157.354H76.9737ZM73.7884 148.36C73.2263 148.36 72.7891 148.797 72.7891 149.359C72.7891 149.921 73.2263 150.359 73.7884 150.359C74.3505 150.359 74.7877 149.921 74.7877 149.359C74.8502 148.86 74.3505 148.36 73.7884 148.36ZM47.6813 141.989C47.1191 141.989 46.6819 142.426 46.6819 142.989C46.6819 143.551 47.1191 143.988 47.6813 143.988C48.2434 143.988 48.6806 143.551 48.6806 142.989C48.6806 142.489 48.2434 141.989 47.6813 141.989ZM47.0567 154.606C46.4946 154.606 46.0574 155.043 46.0574 155.605C46.0574 156.167 46.4946 156.604 47.0567 156.604C47.6188 156.604 48.056 156.167 48.056 155.605C48.1185 155.043 47.6188 154.606 47.0567 154.606ZM41.0608 148.36C40.4987 148.36 40.0615 148.797 40.0615 149.359C40.0615 149.921 40.4987 150.359 41.0608 150.359C41.6229 150.359 42.0601 149.921 42.0601 149.359C42.0601 148.86 41.6229 148.36 41.0608 148.36Z" fill="#02A8E2"/>
<path fill-rule="evenodd" clip-rule="evenodd" d="M108.077 142.365H122.318C124.754 142.365 126.752 144.363 126.752 146.799V152.045C126.752 154.481 124.754 156.48 122.318 156.48H108.077V142.365ZM122.38 138.555H104.268V160.352H122.38C126.94 160.352 130.687 156.605 130.687 152.045V146.799C130.625 142.24 126.94 138.555 122.38 138.555ZM166.038 147.486V160.29H188.585V156.417H169.91V151.358H185.462V147.486H169.91H166.038ZM139.119 142.365H153.359C155.795 142.365 157.794 144.363 157.794 146.799V152.045C157.794 154.481 155.795 156.48 153.359 156.48H139.119V142.365ZM153.359 138.555H135.246V160.352H153.359C157.918 160.352 161.666 156.605 161.666 152.045V146.799C161.666 142.24 157.918 138.555 153.359 138.555ZM192.707 138.555L204.637 159.166L205.261 160.29H208.384L209.071 159.166L221 138.555H216.503L206.823 155.293L197.142 138.555H192.707Z" fill="white"/>
<path fill-rule="evenodd" clip-rule="evenodd" d="M169.909 142.365H188.584V138.555H166.037V142.365H169.909Z" fill="#02A8E2"/>
</g>
</g>
</g>
<defs>
<filter id="filter0_f_4402_13392" x="-20" y="25" width="298" height="184" filterUnits="userSpaceOnUse" color-interpolation-filters="sRGB">
<feFlood flood-opacity="0" result="BackgroundImageFix"/>
<feBlend mode="normal" in="SourceGraphic" in2="BackgroundImageFix" result="shape"/>
<feGaussianBlur stdDeviation="18.5" result="effect1_foregroundBlur_4402_13392"/>
</filter>
<filter id="filter1_ii_4402_13392" x="17" y="62" width="224" height="148" filterUnits="userSpaceOnUse" color-interpolation-filters="sRGB">
<feFlood flood-opacity="0" result="BackgroundImageFix"/>
<feBlend mode="normal" in="SourceGraphic" in2="BackgroundImageFix" result="shape"/>
<feColorMatrix in="SourceAlpha" type="matrix" values="0 0 0 0 0 0 0 0 0 0 0 0 0 0 0 0 0 0 127 0" result="hardAlpha"/>
<feOffset dy="4"/>
<feComposite in2="hardAlpha" operator="arithmetic" k2="-1" k3="1"/>
<feColorMatrix type="matrix" values="0 0 0 0 1 0 0 0 0 1 0 0 0 0 1 0 0 0 0.25 0"/>
<feBlend mode="normal" in2="shape" result="effect1_innerShadow_4402_13392"/>
<feColorMatrix in="SourceAlpha" type="matrix" values="0 0 0 0 0 0 0 0 0 0 0 0 0 0 0 0 0 0 127 0" result="hardAlpha"/>
<feOffset dy="-4"/>
<feComposite in2="hardAlpha" operator="arithmetic" k2="-1" k3="1"/>
<feColorMatrix type="matrix" values="0 0 0 0 0 0 0 0 0 0 0 0 0 0 0 0 0 0 0.9 0"/>
<feBlend mode="soft-light" in2="effect1_innerShadow_4402_13392" result="effect2_innerShadow_4402_13392"/>
</filter>
<linearGradient id="paint0_linear_4402_13392" x1="17" y1="34" x2="197.768" y2="215.142" gradientUnits="userSpaceOnUse">
<stop stop-color="#292A31"/>
</linearGradient>
<linearGradient id="paint1_linear_4402_13392" x1="17" y1="34" x2="197.768" y2="215.142" gradientUnits="userSpaceOnUse">
<stop stop-color="#05815D"/>
<stop offset="1" stop-color="#0C575F"/>
</linearGradient>
<linearGradient id="paint2_linear_4402_13392" x1="17" y1="62" x2="241" y2="210" gradientUnits="userSpaceOnUse">
<stop stop-color="#5D6172"/>
<stop offset="1" stop-color="#00092C"/>
</linearGradient>
<clipPath id="clip0_4402_13392">
<rect width="256" height="256" fill="white"/>
</clipPath>
<clipPath id="clip1_4402_13392">
<rect width="183" height="43.0956" fill="white" transform="translate(38 128)"/>
</clipPath>
</defs>
</svg>
