<svg width="256" height="256" viewBox="0 0 256 256" fill="none" xmlns="http://www.w3.org/2000/svg">
<path fill-rule="evenodd" clip-rule="evenodd" d="M104.425 42.3784C100.056 37.0733 93.5437 34 86.6712 34H29C22.3726 34 17 39.3726 17 46V58.1371V68.2V160C17 166.627 22.3726 172 29 172H229C235.627 172 241 166.627 241 160V70.1371C241 63.5097 235.627 58.1371 229 58.1371H117.404L104.425 42.3784Z" fill="#140323"/>
<mask id="mask0_804_18413" style="mask-type:alpha" maskUnits="userSpaceOnUse" x="17" y="34" width="224" height="138">
<path fill-rule="evenodd" clip-rule="evenodd" d="M104.425 42.3784C100.056 37.0733 93.5437 34 86.6712 34H29C22.3726 34 17 39.3726 17 46V58.1371V68.2V160C17 166.627 22.3726 172 29 172H229C235.627 172 241 166.627 241 160V70.1371C241 63.5097 235.627 58.1371 229 58.1371H117.404L104.425 42.3784Z" fill="url(#paint0_linear_804_18413)"/>
</mask>
<g mask="url(#mask0_804_18413)">
<g style="mix-blend-mode:multiply" filter="url(#filter0_f_804_18413)">
<path fill-rule="evenodd" clip-rule="evenodd" d="M92.789 74C97.7642 74 102.605 72.3868 106.586 69.4024L116.459 62H229C235.627 62 241 67.3726 241 74V108V160C241 166.627 235.627 172 229 172H29C22.3726 172 17 166.627 17 160L17 108V86C17 79.3726 22.3726 74 29 74H87H92.789Z" fill="black" fill-opacity="0.3"/>
</g>
</g>
<g filter="url(#filter1_ii_804_18413)">
<path fill-rule="evenodd" clip-rule="evenodd" d="M92.789 74C97.7642 74 102.605 72.3868 106.586 69.4024L116.459 62H229C235.627 62 241 67.3726 241 74V108V198C241 204.627 235.627 210 229 210H29C22.3726 210 17 204.627 17 198L17 108V86C17 79.3726 22.3726 74 29 74H87H92.789Z" fill="url(#paint1_linear_804_18413)"/>
</g>
<path d="M178.153 131.565L178.093 130.378C178.656 128.358 178.893 126.225 178.8 123.974C178.708 121.724 178.65 119.472 178.633 117.215L177.909 116.268L178.736 116L178.716 115.604L179.366 115.574C180.254 115.914 181.166 116.082 182.1 116.084C183.03 116.084 183.997 116.055 185.002 115.996L186.499 115.701L186.641 117.679L186.193 117.719C185.312 117.243 184.321 116.94 183.228 116.816C182.131 116.689 180.959 116.756 179.704 117.014C179.423 117.382 179.34 117.86 179.453 118.454C179.563 119.046 179.644 119.678 179.691 120.343L180.075 122.687L186.556 122.882L186.627 123.879L185.852 123.915C185.197 123.29 183.221 123.156 179.932 123.506C180.012 124.561 179.945 125.563 179.724 126.513C179.507 127.461 179.374 128.471 179.316 129.544C180.316 129.601 181.316 129.594 182.32 129.529C183.324 129.466 184.243 129.521 185.085 129.695L185.984 129.692L185.954 129.106L186.381 129.071L187.098 130.379C186.841 130.666 186.533 130.822 186.174 130.845C185.813 130.868 185.424 130.889 185.003 130.908L179.182 130.892L178.806 131.516L178.153 131.565ZM140.402 129.69C141.067 128.889 141.393 127.932 141.372 126.816C141.352 125.704 141.394 124.621 141.511 123.566L141.279 121.808L141.386 116.887L140.042 111.923L141.415 112.451L143.022 113.328C144.004 115.275 145.247 117.12 146.749 118.863C148.251 120.605 149.561 122.442 150.674 124.369L151.333 124.567L151.281 121.808L150.292 113.006L152.531 111.04L152.062 116.34L152.35 119.582L152.447 124.78L153.749 129.048L152.899 129.247L150.74 127.921C150.017 125.566 148.944 123.388 147.523 121.39C146.099 119.39 144.617 117.422 143.062 115.486L142.606 115.494L142.422 116.286L142.698 120.412L143.197 128.663L140.402 129.69ZM159.89 123.377L158.202 122.554L158.176 121.181L160.713 120.243L161.213 122.917L159.89 123.377ZM160.936 126.525C161.596 125.961 162.136 125.295 162.549 124.524C162.964 123.749 163.36 123.022 163.731 122.337L163.697 120.513C163.3 119.84 162.812 119.165 162.232 118.487C161.656 117.808 161.027 117.219 160.344 116.714L158.803 116.743C158.436 117.008 158.053 117.313 157.65 117.66C157.25 118.006 156.99 118.37 156.869 118.75L155.922 123.355L156.554 125.976C157.088 126.377 157.694 126.666 158.37 126.846C159.043 127.029 159.709 127.047 160.365 126.906L160.936 126.525ZM158.71 127.826L155.445 126.401C154.858 125.527 154.58 124.523 154.617 123.387C154.654 122.25 154.658 121.111 154.637 119.971L157.565 115.877L159.395 115.116C160.562 115.708 161.582 116.419 162.458 117.247C163.329 118.077 164.141 118.985 164.888 119.972L165.166 122.147C164.864 122.853 164.612 123.635 164.416 124.496C164.216 125.355 163.839 126.092 163.275 126.707C162.541 127.139 161.814 127.431 161.096 127.577C160.377 127.726 159.581 127.81 158.71 127.826ZM170.533 127.629L168.604 126.059L169.435 125.962L169.646 124.901L170.572 114.383L169.855 114.28C169.232 114.272 168.6 114.246 167.955 114.199C167.313 114.153 166.659 114.35 165.997 114.79L165.5 112.542L167.158 112.83L168.22 113.179L170.666 113.118L170.877 112.094L170.192 110.118L169.486 109.627L169.56 109.094L172.735 109.022L172.661 109.576L171.822 112.742L171.879 113.096L173.477 113.319L174.433 113.349L174.485 113.026L175.14 113.107L176.428 115.465L174.92 115.229C174.743 114.995 174.484 114.849 174.14 114.791C173.794 114.733 173.457 114.675 173.128 114.618L171.831 114.577L171.736 115.148C171.719 117.141 171.61 119.241 171.414 121.441C171.218 123.644 171.187 125.75 171.32 127.756L170.533 127.629Z" fill="#F2F2F2"/>
<path d="M79.4022 122.687C78.7186 122.256 78.3242 121.681 78.2042 120.942C78.0844 120.209 78.0222 119.349 78.0039 118.37L81.656 116.825L82.768 120.373L82.3317 121.818L79.4022 122.687ZM81.5684 128.816L84.2483 126.628C85.0088 125.892 85.4781 124.778 85.6551 123.285C85.8328 121.799 85.8305 120.25 85.6484 118.651L85.4287 117.179L85.6063 116.401C85.2534 115.58 84.9062 114.719 84.5652 113.826C84.2306 112.925 83.6139 112.149 82.7212 111.49C81.5347 110.347 80.1914 109.671 78.6912 109.454C77.1844 109.237 75.7982 109.097 74.5329 109.048L74.5633 110.676C74.7464 113.751 75.0348 116.784 75.4286 119.776C75.8221 122.767 76.1115 125.853 76.2965 129.028L76.1336 130.579L76.2186 130.889L76.2981 130.888L81.5684 128.816ZM75.4372 136.921L73.3173 135.405L73.2993 134.439C73.8006 133.628 74.0354 132.73 74.0037 131.744C73.9724 130.766 74.0269 129.804 74.1621 128.875C73.6547 125.105 73.2725 121.292 73.0215 117.431C72.764 113.569 71.959 109.818 70.6001 106.169L71.489 104.14L73.1567 104.109L74.3968 105.986C75.9836 106.578 77.6872 107.063 79.5017 107.439C81.3223 107.823 83.1299 108.523 84.9365 109.549C86.1133 111.599 86.9871 113.734 87.5582 115.961C88.1296 118.188 88.5758 120.457 88.9039 122.781L86.8586 127.394C86.0187 128.138 85.1917 128.894 84.3787 129.671C83.5661 130.447 82.6774 131.079 81.7 131.568L76.8531 133.631L76.438 134.453L76.7467 136.467L75.4372 136.921ZM91.3682 130.538L91.3441 129.25C91.9708 127.079 92.2737 124.775 92.2488 122.334C92.224 119.893 92.2344 117.451 92.2868 115.005L91.5895 113.957L92.4263 113.693L92.4182 113.263L93.0713 113.251C93.9519 113.647 94.8604 113.857 95.7971 113.888C96.7303 113.916 97.7011 113.916 98.7099 113.883L100.221 113.61L100.303 115.756L99.8527 115.786C98.9835 115.243 97.9986 114.884 96.9059 114.716C95.8093 114.544 94.6329 114.581 93.3661 114.821C93.0729 115.211 92.9742 115.726 93.0702 116.374C93.1627 117.018 93.2241 117.705 93.2515 118.427L93.5647 120.978L100.058 121.392L100.1 122.474L99.3212 122.488C98.6825 121.791 96.7055 121.584 93.3955 121.862C93.4451 123.007 93.3465 124.091 93.0966 125.112C92.8502 126.133 92.6855 127.223 92.5955 128.384C93.5961 128.477 94.5989 128.5 95.6076 128.46C96.616 128.424 97.5368 128.512 98.3754 128.726L99.277 128.751L99.2651 128.116L99.6945 128.091L100.374 129.531C100.107 129.833 99.7925 129.993 99.4332 130.006C99.0701 130.02 98.6792 130.03 98.2569 130.038L92.4197 129.84L92.0236 130.504L91.3682 130.538ZM107.89 122.199L108.094 121.968C107.71 120.715 107.357 119.476 107.03 118.243C106.702 117.009 106.218 115.911 105.577 114.942C104.892 116.017 104.54 117.205 104.526 118.509C104.507 119.809 104.429 121.151 104.289 122.535L105.284 122.559L107.89 122.199ZM102.015 129.672L101.824 129.488C102.358 127.583 102.767 125.605 103.062 123.546C103.356 121.486 103.587 119.429 103.757 117.38L103.537 116.761L103.781 114.289L103.578 113.464L106.611 112.452C106.861 114.107 107.21 115.729 107.654 117.318C108.098 118.906 108.517 120.467 108.903 121.993C109.159 122.264 109.553 122.338 110.089 122.211C110.628 122.084 110.887 122.295 110.869 122.848L110.083 122.824L109.465 124.244L111.419 129.001L110.031 128.985L109.213 128.564L109.202 127.963L109.297 126.446L108.48 123.64L104.266 123.573L103.939 123.891L103.878 124.972L103.844 127.709L103.198 129.693L102.015 129.672ZM118.511 130.112L116.258 128.681L117.061 128.388L117.04 127.096L115.682 114.539L114.948 114.572C114.329 114.696 113.697 114.802 113.046 114.885C112.4 114.968 111.795 115.34 111.232 115.998L110.253 113.463L111.96 113.447L113.089 113.629L115.501 113.034L115.489 111.784L114.383 109.61L113.576 109.185L113.533 108.542L116.666 107.777L116.712 108.443L116.566 112.343L116.699 112.747L118.332 112.667L119.286 112.497L119.269 112.107L119.935 112.062L121.723 114.556L120.176 114.603C119.95 114.365 119.662 114.25 119.308 114.255C118.953 114.261 118.606 114.265 118.267 114.269L116.972 114.499L117.001 115.19C117.416 117.535 117.762 120.025 118.045 122.653C118.327 125.284 118.752 127.765 119.319 130.094L118.511 130.112ZM124.074 130.432L123.668 130.042C124.462 129.202 124.817 128.192 124.731 127.01C124.649 125.832 124.596 124.694 124.576 123.607L124.364 120.974L124.152 120.978L122.571 121.219L122.617 120.003L124.182 119.998L124.313 119.573C124.042 118.256 123.794 116.925 123.574 115.583C123.353 114.245 122.694 112.811 121.593 111.294L123.087 111.266L124.693 111.141L125.624 119.783L130.25 120.071L129.896 113.517L129.784 111.325L132.117 111.281L132.162 113.662L131.93 116.164L131.969 120.856L131.747 125.154C132.239 127.368 132.656 128.845 132.997 129.588L130.813 130.143L130.276 121.445L125.67 120.973L125.723 123.797L126.561 129.847C126.241 130.212 125.846 130.399 125.38 130.408C124.914 130.417 124.477 130.425 124.074 130.432Z" fill="#F2F2F2" stroke="black" stroke-width="0.0604025" stroke-miterlimit="10"/>
<defs>
<filter id="filter0_f_804_18413" x="-20" y="25" width="298" height="184" filterUnits="userSpaceOnUse" color-interpolation-filters="sRGB">
<feFlood flood-opacity="0" result="BackgroundImageFix"/>
<feBlend mode="normal" in="SourceGraphic" in2="BackgroundImageFix" result="shape"/>
<feGaussianBlur stdDeviation="18.5" result="effect1_foregroundBlur_804_18413"/>
</filter>
<filter id="filter1_ii_804_18413" x="17" y="62" width="224" height="148" filterUnits="userSpaceOnUse" color-interpolation-filters="sRGB">
<feFlood flood-opacity="0" result="BackgroundImageFix"/>
<feBlend mode="normal" in="SourceGraphic" in2="BackgroundImageFix" result="shape"/>
<feColorMatrix in="SourceAlpha" type="matrix" values="0 0 0 0 0 0 0 0 0 0 0 0 0 0 0 0 0 0 127 0" result="hardAlpha"/>
<feOffset dy="-4"/>
<feComposite in2="hardAlpha" operator="arithmetic" k2="-1" k3="1"/>
<feColorMatrix type="matrix" values="0 0 0 0 0 0 0 0 0 0 0 0 0 0 0 0 0 0 0.25 0"/>
<feBlend mode="normal" in2="shape" result="effect1_innerShadow_804_18413"/>
<feColorMatrix in="SourceAlpha" type="matrix" values="0 0 0 0 0 0 0 0 0 0 0 0 0 0 0 0 0 0 127 0" result="hardAlpha"/>
<feOffset dy="4"/>
<feComposite in2="hardAlpha" operator="arithmetic" k2="-1" k3="1"/>
<feColorMatrix type="matrix" values="0 0 0 0 1 0 0 0 0 1 0 0 0 0 1 0 0 0 0.25 0"/>
<feBlend mode="normal" in2="effect1_innerShadow_804_18413" result="effect2_innerShadow_804_18413"/>
</filter>
<linearGradient id="paint0_linear_804_18413" x1="17" y1="34" x2="197.768" y2="215.142" gradientUnits="userSpaceOnUse">
<stop stop-color="#05815D"/>
<stop offset="1" stop-color="#0C575F"/>
</linearGradient>
<linearGradient id="paint1_linear_804_18413" x1="17" y1="62" x2="241" y2="210" gradientUnits="userSpaceOnUse">
<stop stop-color="#2C2C2C"/>
<stop offset="1" stop-color="#0A0A0B"/>
</linearGradient>
</defs>
</svg>
