<svg width="256" height="256" viewBox="0 0 256 256" fill="none" xmlns="http://www.w3.org/2000/svg">
<path fill-rule="evenodd" clip-rule="evenodd" d="M104.425 42.3784C100.056 37.0733 93.5437 34 86.6712 34H29C22.3726 34 17 39.3726 17 46V58.1371V68.2V160C17 166.627 22.3726 172 29 172H229C235.627 172 241 166.627 241 160V70.1371C241 63.5097 235.627 58.1371 229 58.1371H117.404L104.425 42.3784Z" fill="#D70751"/>
<mask id="mask0_1998_31070" style="mask-type:alpha" maskUnits="userSpaceOnUse" x="17" y="34" width="224" height="138">
<path fill-rule="evenodd" clip-rule="evenodd" d="M104.425 42.3784C100.056 37.0733 93.5437 34 86.6712 34H29C22.3726 34 17 39.3726 17 46V58.1371V68.2V160C17 166.627 22.3726 172 29 172H229C235.627 172 241 166.627 241 160V70.1371C241 63.5097 235.627 58.1371 229 58.1371H117.404L104.425 42.3784Z" fill="url(#paint0_linear_1998_31070)"/>
</mask>
<g mask="url(#mask0_1998_31070)">
<g style="mix-blend-mode:multiply" filter="url(#filter0_f_1998_31070)">
<path fill-rule="evenodd" clip-rule="evenodd" d="M92.789 74C97.7642 74 102.605 72.3868 106.586 69.4024L116.459 62H229C235.627 62 241 67.3726 241 74V108V160C241 166.627 235.627 172 229 172H29C22.3726 172 17 166.627 17 160L17 108V86C17 79.3726 22.3726 74 29 74H87H92.789Z" fill="black" fill-opacity="0.3"/>
</g>
</g>
<g filter="url(#filter1_ii_1998_31070)">
<path fill-rule="evenodd" clip-rule="evenodd" d="M92.789 74C97.7642 74 102.605 72.3868 106.586 69.4024L116.459 62H229C235.627 62 241 67.3726 241 74V108V198C241 204.627 235.627 210 229 210H29C22.3726 210 17 204.627 17 198L17 108V86C17 79.3726 22.3726 74 29 74H87H92.789Z" fill="url(#paint1_linear_1998_31070)"/>
</g>
<path d="M120.224 141.801L120.422 140.814C121.038 142.004 121.505 142.756 121.935 143.447C122.315 144.059 122.666 144.623 123.064 145.401C122.203 144.685 121.58 143.767 120.947 142.836C120.711 142.489 120.475 142.141 120.224 141.801Z" fill="white"/>
<path d="M121.624 139.127C121.904 139.695 122.18 140.254 122.609 140.728L123.042 142.005C122.974 141.891 122.906 141.778 122.838 141.664C122.31 140.782 121.779 139.897 121.505 138.885C121.545 138.966 121.585 139.046 121.624 139.127Z" fill="white"/>
<path d="M161.306 132.322L161.308 132.317H161.306C161.306 132.318 161.306 132.32 161.306 132.322Z" fill="white"/>
<path d="M161.306 132.322L161.101 132.835C160.722 135.528 159.903 138.193 158.648 140.663C160.033 138.058 160.93 135.209 161.306 132.322Z" fill="white"/>
<path d="M132.611 94.1534C131.941 94.1883 131.264 94.2236 130.726 94.4207L130.156 94.3429C131.058 94.2269 131.967 94.1597 132.881 94.0922C133.278 94.0629 133.676 94.0335 134.075 94C133.636 94.0998 133.125 94.1265 132.611 94.1534Z" fill="white"/>
<path d="M97.3139 112.188C97.3182 112.228 97.3218 112.268 97.3247 112.308C97.3169 112.275 97.3131 112.235 97.3139 112.188Z" fill="white"/>
<path d="M97.3247 112.308C97.4147 113.557 96.7679 114.304 96.7948 114.329C96.8097 114.343 97.0317 114.135 97.7008 113.667C98.3267 112.258 98.0398 112.33 97.724 112.41C97.5515 112.454 97.3703 112.5 97.3247 112.308Z" fill="white"/>
<path d="M95.63 119.271C95.5174 119.885 95.3885 120.589 95.0642 121.584C95.103 121.264 95.0701 121.01 95.0388 120.769C94.9666 120.212 94.903 119.722 95.7534 118.634C95.7089 118.841 95.6705 119.051 95.63 119.271Z" fill="white"/>
<path d="M155.374 130.703C155.438 132.433 155.02 133.486 154.52 134.749C154.361 135.149 154.194 135.57 154.032 136.039L152.816 136.647C152.281 137.686 152.348 137.963 152.415 138.235C152.472 138.47 152.529 138.701 152.199 139.413C151.99 139.599 151.751 139.813 151.492 140.046C149.831 141.539 147.346 143.772 146.47 144.005C145.974 143.994 146.371 143.604 146.734 143.248C146.911 143.074 147.08 142.908 147.133 142.798C146.432 143.28 146.013 143.68 145.645 144.033C144.921 144.727 144.391 145.235 142.282 145.811L142.189 145.604C134.34 149.295 123.439 141.979 123.583 131.997C123.526 132.427 123.437 132.492 123.331 132.57C123.281 132.606 123.227 132.646 123.171 132.728C122.766 127.592 125.543 122.433 130.226 120.327C134.807 118.059 140.177 118.99 143.459 122.048C141.656 119.687 138.069 117.184 133.817 117.418C129.651 117.484 125.756 120.131 124.455 123.004C123.156 123.822 122.556 125.565 122.075 126.961C121.767 127.857 121.507 128.61 121.144 128.884C119.893 138.078 123.497 142.05 129.593 146.722C130.077 147.048 130.142 147.235 130.104 147.402C130.08 147.424 130.071 147.454 130.076 147.491C130.068 147.511 130.059 147.532 130.05 147.553C130.001 147.668 129.949 147.79 129.994 147.96C127.968 147.011 126.113 145.579 124.588 143.826C125.398 145.011 126.271 146.163 127.4 147.067C126.256 146.68 124.882 145.096 123.803 143.853C123.082 143.021 122.492 142.342 122.194 142.277C125.486 148.172 135.55 152.615 140.821 150.411C138.382 150.501 135.284 150.461 132.544 149.448C131.503 148.912 130.122 147.857 130.076 147.491C130.087 147.461 130.097 147.432 130.104 147.402C130.105 147.401 130.106 147.4 130.107 147.399C137.3 150.087 144.73 149.435 150.953 144.446C151.677 143.882 152.432 143.137 153.086 142.492C153.861 141.727 154.495 141.102 154.766 141.086C154.37 141.681 154.426 141.801 154.484 141.926C154.536 142.039 154.59 142.156 154.316 142.63C155.035 141.47 154.956 141.152 154.877 140.832C154.782 140.45 154.686 140.063 155.947 138.236L156.802 139.414C156.657 138.453 157.188 137.398 157.78 136.219C158.49 134.808 159.289 133.218 159.127 131.398C159.801 130.376 159.88 132.497 159.163 134.847C159.788 133.208 159.731 132.434 159.666 131.551C159.627 131.029 159.586 130.469 159.681 129.67C159.757 129.869 159.839 130.072 159.923 130.277C160.134 130.794 160.35 131.326 160.487 131.856C160.49 131.871 160.494 131.887 160.498 131.903C160.5 131.91 160.502 131.917 160.504 131.924C160.498 131.901 160.492 131.879 160.487 131.856C160.052 130.077 160.592 128.697 161.051 127.524C161.233 127.06 161.402 126.628 161.493 126.217C161.417 126.184 161.322 126.228 161.218 126.276C160.882 126.432 160.457 126.63 160.338 124.355C160.353 123.488 160.51 123.48 160.651 123.472C160.72 123.468 160.785 123.465 160.828 123.36C160.574 123.214 159.909 122.224 159.504 120.323C159.666 120.076 159.889 120.457 160.124 120.858C160.313 121.181 160.51 121.517 160.688 121.547C160.588 120.958 160.46 120.424 160.339 119.922C160.151 119.137 159.982 118.432 159.97 117.724C159.337 116.4 159.269 116.609 159.189 116.857C159.121 117.067 159.044 117.305 158.611 116.677C157.88 114.398 158.365 114.488 158.92 114.591C159.309 114.663 159.732 114.742 159.795 114.017C161.531 116.532 162.58 120.322 163.118 122.271C163.164 122.436 163.206 122.588 163.244 122.724C162.868 120.589 162.261 118.521 161.519 116.519C161.747 116.615 161.646 115.933 161.548 115.274C161.402 114.286 161.263 113.353 162.262 115.195C160.485 108.653 154.652 102.539 149.287 99.6711L149.307 99.6894C149.96 100.287 150.77 101.027 150.475 101.144C148.34 99.8727 148.214 99.5396 148.053 99.1133C148.012 99.0069 147.97 98.8947 147.894 98.7607C146.517 98.2005 145.955 98.3786 145.362 98.5667C145.019 98.6755 144.665 98.7875 144.138 98.762C141.398 97.3086 140.137 96.9309 138.475 96.4325C137.652 96.1858 136.73 95.9096 135.481 95.4586L135.653 96.2601C134.145 95.758 133.337 95.9196 132.413 96.1041C131.674 96.2518 130.862 96.4143 129.558 96.2632C129.379 96.1236 130.497 95.7585 131.418 95.6248C130.201 95.7854 129.575 95.6858 128.997 95.5939C128.329 95.4877 127.726 95.3917 126.349 95.72C126.778 95.4197 127.222 95.1881 127.674 94.9527C127.89 94.8401 128.108 94.7267 128.326 94.6045C127.514 94.6538 126.582 94.8452 125.788 95.0081C124.492 95.2743 123.565 95.4646 124.134 94.8355C123.483 95.1261 122.738 95.4386 121.934 95.7757C118.425 97.2471 113.793 99.1889 110.963 101.843L110.854 101.112C110.337 101.732 109.424 102.552 108.411 103.46C106.303 105.352 103.764 107.631 103.476 109.305L103.05 109.404C102.493 110.346 102.069 111.372 101.651 112.382C101.446 112.878 101.242 113.37 101.025 113.846C100.131 115.369 99.6306 114.865 99.5688 114.802C99.5648 114.798 99.5627 114.796 99.5623 114.797C99.5619 114.797 99.564 114.801 99.5689 114.809C99.5734 114.817 99.5803 114.83 99.5895 114.847C97.5862 118.909 96.5294 122.362 95.6498 125.236L95.6495 125.237C95.5924 125.424 95.536 125.608 95.4801 125.79C95.8578 126.354 95.8035 128.233 95.7386 130.475C95.6914 132.106 95.6386 133.929 95.7425 135.579C94.6707 154.93 109.323 173.718 125.34 178.055C127.388 178.787 130.306 178.856 132.989 178.919L132.99 178.919C133.382 178.928 133.769 178.937 134.148 178.948C132.558 178.494 131.596 178.342 130.701 178.201C129.624 178.032 128.643 177.877 126.779 177.227C125.133 176.452 124.346 175.604 123.484 174.674C123.057 174.213 122.611 173.733 122.034 173.231L122.724 174.45C120.96 173.826 120.486 173.447 120.06 173.106C119.659 172.786 119.3 172.498 117.952 172.071L118.689 171.109C117.581 171.025 115.754 169.241 115.254 168.253L114.041 168.3C112.584 166.502 111.808 165.208 111.865 164.204L111.473 164.902C111.373 164.731 111.046 164.295 110.629 163.738C109.194 161.821 106.687 158.473 108.663 159.552C108.552 159.451 108.433 159.358 108.307 159.26C107.892 158.939 107.4 158.557 106.876 157.606L107.395 157.013C106.168 155.434 105.136 153.409 105.215 152.735C105.87 153.62 106.324 153.785 106.773 153.936C105.212 150.063 104.393 149.984 103.665 149.913C102.947 149.844 102.317 149.783 101.152 146.108L101.649 146.068C101.389 145.677 101.199 145.262 101.007 144.845C100.918 144.65 100.828 144.455 100.731 144.26L100.947 142.106C99.1917 140.077 99.8112 134.455 100.312 129.907C100.448 128.672 100.576 127.516 100.644 126.534C100.773 125.457 101.37 124.34 102.092 122.991C102.624 121.995 103.225 120.873 103.754 119.546L102.994 119.415C104.447 116.882 111.287 109.242 114.454 109.635C115.301 108.571 115.121 108.679 114.738 108.908C114.428 109.094 113.984 109.36 113.849 109.143C116.332 106.573 117.561 106.452 118.946 106.315C119.44 106.267 119.955 106.216 120.554 106.051C121.777 105.325 121.258 105.463 120.574 105.646C119.885 105.83 119.028 106.059 119.612 105.495C121.409 105.036 122.223 104.524 122.985 104.044C124.021 103.392 124.962 102.8 128.15 102.483C128.482 102.671 127.999 102.811 127.432 102.976C127 103.101 126.519 103.24 126.309 103.427C129.842 101.698 137.491 102.091 142.458 104.386C148.223 107.08 154.699 115.043 154.955 122.535L155.245 122.614C155.2 123.537 155.226 124.506 155.253 125.496C155.314 127.701 155.377 130.017 154.656 132.2L155.373 130.704L155.374 130.703Z" fill="white"/>
<path d="M137.889 139.89C136.052 139.607 134.378 138.902 135.785 138.882C136.959 138.989 138.123 138.983 139.268 138.703C138.858 139.093 138.397 139.494 137.889 139.89Z" fill="white"/>
<path d="M145.005 133.266C144.789 134.575 144.179 135.842 143.34 136.998C143.374 136.674 143.136 136.607 142.899 136.541C142.411 136.403 141.926 136.267 143.831 133.869C143.752 134.192 143.45 134.686 143.166 135.151C142.569 136.128 142.05 136.978 143.833 135.856C143.891 135.753 143.949 135.651 144.007 135.548C144.428 134.808 144.84 134.086 145.005 133.266Z" fill="white"/>
<path d="M145.406 128.976C145.631 128.009 146.299 127.207 146.129 129.742C145.97 130.382 145.829 129.972 145.681 129.543C145.593 129.288 145.503 129.027 145.406 128.976Z" fill="white"/>
<path d="M130.849 95.165C130.715 95.1427 130.58 95.12 130.448 95.0963C132.957 95.1676 132.77 95.3338 131.949 95.514C132.05 95.366 131.475 95.2698 130.849 95.165Z" fill="white"/>
<path d="M131.418 95.6234L131.949 95.514L131.912 95.5801L131.418 95.6234Z" fill="white"/>
<defs>
<filter id="filter0_f_1998_31070" x="-20" y="25" width="298" height="184" filterUnits="userSpaceOnUse" color-interpolation-filters="sRGB">
<feFlood flood-opacity="0" result="BackgroundImageFix"/>
<feBlend mode="normal" in="SourceGraphic" in2="BackgroundImageFix" result="shape"/>
<feGaussianBlur stdDeviation="18.5" result="effect1_foregroundBlur_1998_31070"/>
</filter>
<filter id="filter1_ii_1998_31070" x="17" y="62" width="224" height="148" filterUnits="userSpaceOnUse" color-interpolation-filters="sRGB">
<feFlood flood-opacity="0" result="BackgroundImageFix"/>
<feBlend mode="normal" in="SourceGraphic" in2="BackgroundImageFix" result="shape"/>
<feColorMatrix in="SourceAlpha" type="matrix" values="0 0 0 0 0 0 0 0 0 0 0 0 0 0 0 0 0 0 127 0" result="hardAlpha"/>
<feOffset dy="4"/>
<feComposite in2="hardAlpha" operator="arithmetic" k2="-1" k3="1"/>
<feColorMatrix type="matrix" values="0 0 0 0 1 0 0 0 0 1 0 0 0 0 1 0 0 0 0.25 0"/>
<feBlend mode="normal" in2="shape" result="effect1_innerShadow_1998_31070"/>
<feColorMatrix in="SourceAlpha" type="matrix" values="0 0 0 0 0 0 0 0 0 0 0 0 0 0 0 0 0 0 127 0" result="hardAlpha"/>
<feOffset dy="-4"/>
<feComposite in2="hardAlpha" operator="arithmetic" k2="-1" k3="1"/>
<feColorMatrix type="matrix" values="0 0 0 0 0 0 0 0 0 0 0 0 0 0 0 0 0 0 0.9 0"/>
<feBlend mode="soft-light" in2="effect1_innerShadow_1998_31070" result="effect2_innerShadow_1998_31070"/>
</filter>
<linearGradient id="paint0_linear_1998_31070" x1="17" y1="34" x2="197.768" y2="215.142" gradientUnits="userSpaceOnUse">
<stop stop-color="#05815D"/>
<stop offset="1" stop-color="#0C575F"/>
</linearGradient>
<linearGradient id="paint1_linear_1998_31070" x1="17" y1="62" x2="241" y2="210" gradientUnits="userSpaceOnUse">
<stop stop-color="#FA76A5"/>
<stop offset="1" stop-color="#F9548F"/>
</linearGradient>
</defs>
</svg>
