<svg width="256" height="256" viewBox="0 0 256 256" fill="none" xmlns="http://www.w3.org/2000/svg">
<path fill-rule="evenodd" clip-rule="evenodd" d="M104.425 42.3784C100.056 37.0733 93.5437 34 86.6712 34H29C22.3726 34 17 39.3726 17 46V58.1371V68.2V160C17 166.627 22.3726 172 29 172H229C235.627 172 241 166.627 241 160V70.1371C241 63.5097 235.627 58.1371 229 58.1371H117.404L104.425 42.3784Z" fill="#0F66D0"/>
<mask id="mask0_2285_46570" style="mask-type:alpha" maskUnits="userSpaceOnUse" x="17" y="34" width="224" height="138">
<path fill-rule="evenodd" clip-rule="evenodd" d="M104.425 42.3784C100.056 37.0733 93.5437 34 86.6712 34H29C22.3726 34 17 39.3726 17 46V58.1371V68.2V160C17 166.627 22.3726 172 29 172H229C235.627 172 241 166.627 241 160V70.1371C241 63.5097 235.627 58.1371 229 58.1371H117.404L104.425 42.3784Z" fill="url(#paint0_linear_2285_46570)"/>
</mask>
<g mask="url(#mask0_2285_46570)">
<g style="mix-blend-mode:multiply" filter="url(#filter0_f_2285_46570)">
<path fill-rule="evenodd" clip-rule="evenodd" d="M92.789 74C97.7642 74 102.605 72.3868 106.586 69.4024L116.459 62H229C235.627 62 241 67.3726 241 74V108V160C241 166.627 235.627 172 229 172H29C22.3726 172 17 166.627 17 160L17 108V86C17 79.3726 22.3726 74 29 74H87H92.789Z" fill="black" fill-opacity="0.3"/>
</g>
</g>
<g filter="url(#filter1_ii_2285_46570)">
<path fill-rule="evenodd" clip-rule="evenodd" d="M92.789 74C97.7642 74 102.605 72.3868 106.586 69.4024L116.459 62H229C235.627 62 241 67.3726 241 74V108V198C241 204.627 235.627 210 229 210H29C22.3726 210 17 204.627 17 198L17 108V86C17 79.3726 22.3726 74 29 74H87H92.789Z" fill="url(#paint1_linear_2285_46570)"/>
</g>
<path d="M186.982 99.302C185.73 98.6884 185.19 99.8577 184.458 100.452C184.208 100.643 183.996 100.892 183.784 101.122C181.953 103.077 179.815 104.361 177.021 104.208C172.937 103.978 169.45 105.262 166.367 108.386C165.712 104.534 163.535 102.234 160.221 100.758C158.488 99.9915 156.734 99.2248 155.52 97.5573C154.673 96.3695 154.441 95.047 154.018 93.7437C153.748 92.958 153.478 92.1528 152.572 92.0186C151.59 91.8654 151.205 92.6892 150.819 93.3795C149.278 96.197 148.681 99.3018 148.738 102.445C148.873 109.517 151.86 115.151 157.793 119.157C158.468 119.617 158.641 120.077 158.429 120.748C158.025 122.128 157.543 123.469 157.119 124.849C156.849 125.731 156.445 125.922 155.501 125.539C152.245 124.178 149.432 122.166 146.946 119.732C142.727 115.65 138.913 111.146 134.154 107.619C133.037 106.795 131.919 106.029 130.763 105.3C125.908 100.586 131.399 96.7142 132.67 96.2546C134 95.7754 133.133 94.1269 128.836 94.1465C124.54 94.1654 120.61 95.603 115.601 97.5195C114.869 97.807 114.098 98.0176 113.308 98.1901C108.761 97.3278 104.041 97.1358 99.1087 97.6919C89.8224 98.7267 82.4052 103.116 76.9529 110.609C70.4026 119.617 68.8614 129.851 70.7495 140.526C72.7339 151.776 78.475 161.09 87.299 168.373C96.4505 175.924 106.989 179.623 119.011 178.914C126.313 178.493 134.443 177.515 143.614 169.753C145.926 170.903 148.353 171.363 152.38 171.708C155.482 171.996 158.468 171.555 160.78 171.076C164.402 170.309 164.152 166.955 162.842 166.342C152.226 161.397 154.557 163.41 152.438 161.78C157.832 155.399 165.963 148.767 169.142 127.283C169.392 125.577 169.18 124.504 169.142 123.124C169.122 122.281 169.315 121.955 170.278 121.859C172.937 121.552 175.519 120.824 177.888 119.521C184.766 115.765 187.541 109.594 188.196 102.196C188.292 101.065 188.176 99.8956 186.982 99.302ZM127.045 165.882C116.757 157.794 111.767 155.13 109.706 155.245C107.779 155.36 108.126 157.564 108.549 159.002C108.993 160.42 109.571 161.397 110.38 162.643C110.938 163.467 111.324 164.693 109.821 165.614C106.507 167.664 100.747 164.924 100.477 164.79C93.7726 160.841 88.1661 155.628 84.2163 148.499C80.4016 141.638 78.1862 134.278 77.82 126.421C77.7237 124.523 78.2823 123.852 80.1705 123.508C82.6557 123.048 85.2182 122.951 87.7035 123.316C98.2038 124.849 107.143 129.544 114.637 136.981C118.914 141.216 122.151 146.276 125.484 151.22C129.029 156.471 132.844 161.474 137.699 165.575C139.414 167.013 140.781 168.105 142.092 168.91C138.142 169.351 131.553 169.447 127.045 165.882ZM131.977 134.163C131.977 133.32 132.651 132.649 133.499 132.649C133.692 132.649 133.865 132.687 134.02 132.745C134.232 132.822 134.424 132.937 134.578 133.109C134.848 133.377 135.002 133.761 135.002 134.163C135.002 135.006 134.328 135.677 133.48 135.677C132.633 135.677 131.977 135.007 131.977 134.163ZM147.294 142.021C146.311 142.424 145.329 142.768 144.385 142.807C142.92 142.883 141.321 142.289 140.454 141.561C139.106 140.43 138.142 139.798 137.738 137.824C137.564 136.981 137.661 135.677 137.815 134.93C138.162 133.32 137.776 132.285 136.64 131.346C135.715 130.579 134.54 130.369 133.249 130.369C132.767 130.369 132.324 130.158 131.997 129.985C131.457 129.717 131.014 129.046 131.438 128.222C131.573 127.954 132.228 127.302 132.382 127.187C134.135 126.19 136.158 126.516 138.027 127.264C139.761 127.973 141.071 129.276 142.959 131.116C144.886 133.339 145.232 133.953 146.331 135.62C147.198 136.923 147.988 138.265 148.527 139.798C148.855 140.756 148.43 141.542 147.294 142.021Z" fill="#4D6BFE"/>
<defs>
<filter id="filter0_f_2285_46570" x="-20" y="25" width="298" height="184" filterUnits="userSpaceOnUse" color-interpolation-filters="sRGB">
<feFlood flood-opacity="0" result="BackgroundImageFix"/>
<feBlend mode="normal" in="SourceGraphic" in2="BackgroundImageFix" result="shape"/>
<feGaussianBlur stdDeviation="18.5" result="effect1_foregroundBlur_2285_46570"/>
</filter>
<filter id="filter1_ii_2285_46570" x="17" y="62" width="224" height="148" filterUnits="userSpaceOnUse" color-interpolation-filters="sRGB">
<feFlood flood-opacity="0" result="BackgroundImageFix"/>
<feBlend mode="normal" in="SourceGraphic" in2="BackgroundImageFix" result="shape"/>
<feColorMatrix in="SourceAlpha" type="matrix" values="0 0 0 0 0 0 0 0 0 0 0 0 0 0 0 0 0 0 127 0" result="hardAlpha"/>
<feOffset dy="4"/>
<feComposite in2="hardAlpha" operator="arithmetic" k2="-1" k3="1"/>
<feColorMatrix type="matrix" values="0 0 0 0 1 0 0 0 0 1 0 0 0 0 1 0 0 0 0.25 0"/>
<feBlend mode="normal" in2="shape" result="effect1_innerShadow_2285_46570"/>
<feColorMatrix in="SourceAlpha" type="matrix" values="0 0 0 0 0 0 0 0 0 0 0 0 0 0 0 0 0 0 127 0" result="hardAlpha"/>
<feOffset dy="-4"/>
<feComposite in2="hardAlpha" operator="arithmetic" k2="-1" k3="1"/>
<feColorMatrix type="matrix" values="0 0 0 0 0 0 0 0 0 0 0 0 0 0 0 0 0 0 0.9 0"/>
<feBlend mode="soft-light" in2="effect1_innerShadow_2285_46570" result="effect2_innerShadow_2285_46570"/>
</filter>
<linearGradient id="paint0_linear_2285_46570" x1="17" y1="34" x2="197.768" y2="215.142" gradientUnits="userSpaceOnUse">
<stop stop-color="#05815D"/>
<stop offset="1" stop-color="#0C575F"/>
</linearGradient>
<linearGradient id="paint1_linear_2285_46570" x1="17" y1="62" x2="241" y2="210" gradientUnits="userSpaceOnUse">
<stop stop-color="white"/>
<stop offset="1" stop-color="#E3E3E3"/>
</linearGradient>
</defs>
</svg>
