<svg width="256" height="256" viewBox="0 0 256 256" fill="none" xmlns="http://www.w3.org/2000/svg">
<path fill-rule="evenodd" clip-rule="evenodd" d="M104.425 42.3784C100.056 37.0733 93.5437 34 86.6712 34H29C22.3726 34 17 39.3726 17 46V58.1371V68.2V160C17 166.627 22.3726 172 29 172H229C235.627 172 241 166.627 241 160V70.1371C241 63.5097 235.627 58.1371 229 58.1371H117.404L104.425 42.3784Z" fill="#9CA3B7"/>
<mask id="mask0_741_16804" style="mask-type:alpha" maskUnits="userSpaceOnUse" x="17" y="34" width="224" height="138">
<path fill-rule="evenodd" clip-rule="evenodd" d="M104.425 42.3784C100.056 37.0733 93.5437 34 86.6712 34H29C22.3726 34 17 39.3726 17 46V58.1371V68.2V160C17 166.627 22.3726 172 29 172H229C235.627 172 241 166.627 241 160V70.1371C241 63.5097 235.627 58.1371 229 58.1371H117.404L104.425 42.3784Z" fill="url(#paint0_linear_741_16804)"/>
</mask>
<g mask="url(#mask0_741_16804)">
<g style="mix-blend-mode:multiply" filter="url(#filter0_f_741_16804)">
<path fill-rule="evenodd" clip-rule="evenodd" d="M92.789 74C97.7642 74 102.605 72.3868 106.586 69.4024L116.459 62H229C235.627 62 241 67.3726 241 74V108V160C241 166.627 235.627 172 229 172H29C22.3726 172 17 166.627 17 160L17 108V86C17 79.3726 22.3726 74 29 74H87H92.789Z" fill="black" fill-opacity="0.3"/>
</g>
</g>
<g filter="url(#filter1_ii_741_16804)">
<path fill-rule="evenodd" clip-rule="evenodd" d="M92.789 74C97.7642 74 102.605 72.3868 106.586 69.4024L116.459 62H229C235.627 62 241 67.3726 241 74V108V198C241 204.627 235.627 210 229 210H29C22.3726 210 17 204.627 17 198L17 108V86C17 79.3726 22.3726 74 29 74H87H92.789Z" fill="url(#paint1_linear_741_16804)"/>
</g>
<path fill-rule="evenodd" clip-rule="evenodd" d="M167.869 83H197.352V100.25H167.869V83Z" fill="#40AB5D"/>
<path fill-rule="evenodd" clip-rule="evenodd" d="M167.869 106.917H197.352V124.167H167.869V106.917Z" fill="url(#paint2_linear_741_16804)"/>
<path fill-rule="evenodd" clip-rule="evenodd" d="M167.869 130.833H197.352V148.083H167.869V130.833Z" fill="url(#paint3_linear_741_16804)"/>
<path fill-rule="evenodd" clip-rule="evenodd" d="M61 154.75H90.4834V172H61V154.75Z" fill="url(#paint4_linear_741_16804)"/>
<path fill-rule="evenodd" clip-rule="evenodd" d="M96.6 154.75H126.083V172H96.6V154.75Z" fill="url(#paint5_linear_741_16804)"/>
<path fill-rule="evenodd" clip-rule="evenodd" d="M132.269 154.75H161.752V172H132.269V154.75Z" fill="url(#paint6_linear_741_16804)"/>
<path fill-rule="evenodd" clip-rule="evenodd" d="M167.869 154.75H197.352V172H167.869V154.75Z" fill="url(#paint7_linear_741_16804)"/>
<path fill-rule="evenodd" clip-rule="evenodd" d="M132.269 130.833H161.752V148.083H132.269V130.833Z" fill="url(#paint8_linear_741_16804)"/>
<path fill-rule="evenodd" clip-rule="evenodd" d="M96.6 130.833H126.083V148.083H96.6V130.833Z" fill="url(#paint9_linear_741_16804)"/>
<path fill-rule="evenodd" clip-rule="evenodd" d="M96.6 106.917H126.083V124.167H96.6V106.917Z" fill="url(#paint10_linear_741_16804)"/>
<defs>
<filter id="filter0_f_741_16804" x="-20" y="25" width="298" height="184" filterUnits="userSpaceOnUse" color-interpolation-filters="sRGB">
<feFlood flood-opacity="0" result="BackgroundImageFix"/>
<feBlend mode="normal" in="SourceGraphic" in2="BackgroundImageFix" result="shape"/>
<feGaussianBlur stdDeviation="18.5" result="effect1_foregroundBlur_741_16804"/>
</filter>
<filter id="filter1_ii_741_16804" x="17" y="62" width="224" height="148" filterUnits="userSpaceOnUse" color-interpolation-filters="sRGB">
<feFlood flood-opacity="0" result="BackgroundImageFix"/>
<feBlend mode="normal" in="SourceGraphic" in2="BackgroundImageFix" result="shape"/>
<feColorMatrix in="SourceAlpha" type="matrix" values="0 0 0 0 0 0 0 0 0 0 0 0 0 0 0 0 0 0 127 0" result="hardAlpha"/>
<feOffset dy="4"/>
<feComposite in2="hardAlpha" operator="arithmetic" k2="-1" k3="1"/>
<feColorMatrix type="matrix" values="0 0 0 0 1 0 0 0 0 1 0 0 0 0 1 0 0 0 0.25 0"/>
<feBlend mode="normal" in2="shape" result="effect1_innerShadow_741_16804"/>
<feColorMatrix in="SourceAlpha" type="matrix" values="0 0 0 0 0 0 0 0 0 0 0 0 0 0 0 0 0 0 127 0" result="hardAlpha"/>
<feOffset dy="-4"/>
<feComposite in2="hardAlpha" operator="arithmetic" k2="-1" k3="1"/>
<feColorMatrix type="matrix" values="0 0 0 0 0 0 0 0 0 0 0 0 0 0 0 0 0 0 0.9 0"/>
<feBlend mode="soft-light" in2="effect1_innerShadow_741_16804" result="effect2_innerShadow_741_16804"/>
</filter>
<linearGradient id="paint0_linear_741_16804" x1="17" y1="34" x2="197.768" y2="215.142" gradientUnits="userSpaceOnUse">
<stop stop-color="#05815D"/>
<stop offset="1" stop-color="#0C575F"/>
</linearGradient>
<linearGradient id="paint1_linear_741_16804" x1="17" y1="62" x2="241" y2="210" gradientUnits="userSpaceOnUse">
<stop stop-color="#FCFDFF"/>
<stop offset="1" stop-color="#B1B7C7"/>
</linearGradient>
<linearGradient id="paint2_linear_741_16804" x1="182.755" y1="124.315" x2="182.477" y2="106.663" gradientUnits="userSpaceOnUse">
<stop stop-color="#358C7B"/>
<stop offset="0.526" stop-color="#33A65E"/>
</linearGradient>
<linearGradient id="paint3_linear_741_16804" x1="167.435" y1="147.198" x2="197.799" y2="131.727" gradientUnits="userSpaceOnUse">
<stop stop-color="#222B90"/>
<stop offset="1" stop-color="#367B99"/>
</linearGradient>
<linearGradient id="paint4_linear_741_16804" x1="61.005" y1="163.381" x2="90.4637" y2="163.381" gradientUnits="userSpaceOnUse">
<stop stop-color="#FF9900"/>
<stop offset="1" stop-color="#FF8000"/>
</linearGradient>
<linearGradient id="paint5_linear_741_16804" x1="96.6324" y1="163.381" x2="126.091" y2="163.381" gradientUnits="userSpaceOnUse">
<stop stop-color="#FF8000"/>
<stop offset="1" stop-color="#CC1953"/>
</linearGradient>
<linearGradient id="paint6_linear_741_16804" x1="132.26" y1="163.381" x2="161.719" y2="163.381" gradientUnits="userSpaceOnUse">
<stop stop-color="#CC1953"/>
<stop offset="1" stop-color="#241284"/>
</linearGradient>
<linearGradient id="paint7_linear_741_16804" x1="167.852" y1="163.381" x2="197.311" y2="163.381" gradientUnits="userSpaceOnUse">
<stop stop-color="#222B90"/>
<stop offset="1" stop-color="#3559A6"/>
</linearGradient>
<linearGradient id="paint8_linear_741_16804" x1="131.098" y1="144.109" x2="162.882" y2="134.815" gradientUnits="userSpaceOnUse">
<stop stop-color="#CC1953"/>
<stop offset="1" stop-color="#241284"/>
</linearGradient>
<linearGradient id="paint9_linear_741_16804" x1="95.5837" y1="133.72" x2="127.14" y2="145.205" gradientUnits="userSpaceOnUse">
<stop offset="0.003" stop-color="#FFCC00"/>
<stop offset="1" stop-color="#CE1938"/>
</linearGradient>
<linearGradient id="paint10_linear_741_16804" x1="99.1087" y1="104.236" x2="123.615" y2="126.85" gradientUnits="userSpaceOnUse">
<stop offset="0.003" stop-color="#FFD100"/>
<stop offset="1" stop-color="#FD5A22"/>
</linearGradient>
</defs>
</svg>
