<svg width="256" height="256" viewBox="0 0 256 256" fill="none" xmlns="http://www.w3.org/2000/svg">
<g clip-path="url(#clip0_2032_35271)">
<path fill-rule="evenodd" clip-rule="evenodd" d="M104.425 42.3784C100.056 37.0733 93.5437 34 86.6712 34H29C22.3726 34 17 39.3726 17 46V58.1371V68.2V160C17 166.627 22.3726 172 29 172H229C235.627 172 241 166.627 241 160V70.1371C241 63.5097 235.627 58.1371 229 58.1371H117.404L104.425 42.3784Z" fill="#E6E6E6"/>
<mask id="mask0_2032_35271" style="mask-type:alpha" maskUnits="userSpaceOnUse" x="17" y="34" width="224" height="138">
<path fill-rule="evenodd" clip-rule="evenodd" d="M104.425 42.3784C100.056 37.0733 93.5437 34 86.6712 34H29C22.3726 34 17 39.3726 17 46V58.1371V68.2V160C17 166.627 22.3726 172 29 172H229C235.627 172 241 166.627 241 160V70.1371C241 63.5097 235.627 58.1371 229 58.1371H117.404L104.425 42.3784Z" fill="url(#paint0_linear_2032_35271)"/>
</mask>
<g mask="url(#mask0_2032_35271)">
<g style="mix-blend-mode:multiply" filter="url(#filter0_f_2032_35271)">
<path fill-rule="evenodd" clip-rule="evenodd" d="M92.789 74C97.7642 74 102.605 72.3868 106.586 69.4024L116.459 62H229C235.627 62 241 67.3726 241 74V108V160C241 166.627 235.627 172 229 172H29C22.3726 172 17 166.627 17 160L17 108V86C17 79.3726 22.3726 74 29 74H87H92.789Z" fill="black" fill-opacity="0.3"/>
</g>
</g>
<g filter="url(#filter1_ii_2032_35271)">
<path fill-rule="evenodd" clip-rule="evenodd" d="M92.789 74C97.7642 74 102.605 72.3868 106.586 69.4024L116.459 62H229C235.627 62 241 67.3726 241 74V108V198C241 204.627 235.627 210 229 210H29C22.3726 210 17 204.627 17 198L17 108V86C17 79.3726 22.3726 74 29 74H87H92.789Z" fill="url(#paint1_linear_2032_35271)"/>
</g>
<path d="M124.273 81.0281C124.016 81.0538 123.199 81.1493 122.461 81.217C111.966 82.315 101.631 86.7599 93.2027 93.8162C91.6474 95.1075 88.1042 98.6507 86.8129 100.206C79.8359 108.542 75.7571 117.895 74.2512 128.965C73.9163 131.423 73.9163 139.716 74.2512 142.173C75.756 153.242 79.8359 162.596 86.8129 170.932C88.1042 172.488 91.6474 176.03 93.2027 177.322C101.539 184.299 110.892 188.377 121.962 189.883C124.42 190.219 132.713 190.219 135.17 189.883C146.238 188.379 155.593 184.299 163.928 177.322C165.485 176.03 169.027 172.487 170.318 170.932C177.295 162.596 181.374 153.243 182.877 142.173C183.216 139.715 183.216 131.422 182.877 128.965C181.374 117.896 177.295 108.542 170.318 100.206C169.027 98.6507 165.484 95.1075 163.928 93.8162C155.623 86.8651 146.172 82.7347 135.249 81.2717C134.067 81.1075 132.352 81.0409 129.169 81.0152C126.741 80.9862 124.524 81.0034 124.273 81.0281ZM124.943 86.8264C124.943 88.3946 125.048 91.8037 125.199 95.041C125.278 96.621 125.371 98.8901 125.414 100.072C125.56 104.261 126.004 115.249 126.071 116.232L126.138 117.208L125.534 117.142C125.199 117.116 124.889 117.037 124.834 116.995C124.796 116.941 124.7 116.014 124.645 114.927C124.407 110.151 123.615 91.6148 123.534 88.9066L123.45 85.9259L123.828 85.8754C124.029 85.8454 124.365 85.8078 124.579 85.7917L124.943 85.7788V86.8264ZM137.785 86.5044C137.798 86.5162 137.84 90.5714 137.878 95.51C137.932 100.463 138 104.902 138.042 105.385C138.079 105.883 138.067 106.311 137.999 106.34C137.945 106.378 137.609 106.378 137.274 106.34L136.658 106.287L136.566 102.379C136.523 100.603 136.472 98.8284 136.416 97.0535C136.309 94.676 136.214 86.6128 136.298 86.4121C136.348 86.2618 136.498 86.2479 137.06 86.3445C137.45 86.4239 137.774 86.4915 137.785 86.5044ZM106.742 90.9986C106.826 91.1199 107.455 98.5166 108.234 108.19C108.491 111.481 108.742 114.487 108.784 114.861C108.85 115.544 108.837 115.574 108.406 115.842C108.168 115.988 107.924 116.11 107.869 116.11C107.832 116.11 107.752 115.761 107.71 115.33C107.522 113.586 106.796 105.159 106.289 99.0661C105.991 95.4811 105.723 92.2738 105.685 91.925C105.618 91.3346 105.631 91.2799 105.979 91.0952C106.406 90.8645 106.65 90.8269 106.741 90.9986H106.742ZM143.689 93.6993C144.067 93.8334 144.104 93.9 144.188 94.6631C144.322 96.0049 144.28 102.42 144.134 102.42C143.744 102.42 142.939 101.963 142.872 101.708C142.829 101.548 142.793 99.6447 142.793 97.4808C142.793 93.1207 142.738 93.3762 143.689 93.6993ZM118.901 94.3282C118.901 94.6889 118.998 96.6886 119.102 98.7978C119.212 100.902 119.333 103.573 119.388 104.73C119.48 107.066 119.506 106.982 118.607 107.037C118.163 107.049 118.163 107.049 118.138 106.378C118.113 106.006 118.046 104.836 117.962 103.762C117.895 102.689 117.736 100.366 117.626 98.596C117.553 97.2923 117.46 95.9897 117.346 94.6889C117.266 94.018 117.279 93.9923 117.639 93.8581C117.857 93.7787 118.23 93.7121 118.473 93.7121C118.901 93.6993 118.901 93.6993 118.901 94.3282ZM156.129 96.1691L156.587 96.3526L156.683 98.1516C156.721 99.1327 156.75 101.254 156.721 102.853L156.683 105.775L156.118 105.494L155.555 105.225L155.513 100.769C155.489 98.3158 155.5 96.2356 155.526 96.139C155.58 95.9383 155.58 95.9383 156.129 96.1691ZM131.626 97.9251C131.706 98.0056 131.895 104.512 131.908 107.816L131.92 109.804L131.291 109.708C130.926 109.665 130.632 109.628 130.621 109.615C130.578 109.586 130.176 99.6436 130.176 98.6765V97.6825L130.859 97.762C131.25 97.8156 131.584 97.8833 131.626 97.9251ZM162.532 98.8772C162.696 99.0661 162.721 102.005 162.763 118.215C162.8 136.831 162.8 137.314 162.561 137.314C162.39 137.303 162.225 137.242 162.089 137.138C161.887 136.991 161.861 135.368 161.795 119.465C161.74 109.829 161.672 101.078 161.635 100.018L161.551 98.0851L161.941 98.3652C162.171 98.5294 162.428 98.7559 162.532 98.8772ZM150.494 101.628C150.562 101.682 150.628 102.445 150.641 103.322C150.709 106.286 150.721 124.471 150.654 124.526C150.628 124.55 150.386 124.483 150.117 124.378L149.634 124.177V101.346L150.012 101.426C150.214 101.48 150.428 101.561 150.495 101.628H150.494ZM113.455 102.379C113.493 102.744 113.559 103.56 113.601 104.231C113.644 104.89 113.735 106.395 113.816 107.561C113.979 109.922 113.949 110.073 113.186 110.073C112.784 110.073 112.73 110.03 112.675 109.628C112.541 108.835 112.07 102.232 112.138 102.126C112.205 102.03 112.906 101.791 113.224 101.761C113.308 101.75 113.412 102.03 113.455 102.379ZM91.2577 105.804C91.4048 107.225 91.6978 110.207 91.9157 112.42C92.1422 114.634 92.3311 116.513 92.3311 116.592C92.3311 116.755 91.2953 117.263 91.1901 117.158C91.1236 117.091 89.7818 105.212 89.7818 104.676C89.7818 104.354 90.8123 102.999 90.9475 103.146C90.9894 103.171 91.1236 104.365 91.2577 105.804ZM143.878 107.213L144.269 107.438L144.28 110.341C144.293 111.921 144.323 113.695 144.323 114.269C144.348 115.477 144.201 115.678 143.475 115.427L143.061 115.276V114.122C143.061 113.482 143.018 111.615 142.964 109.963L142.884 106.982H143.195C143.354 106.982 143.664 107.091 143.878 107.213ZM97.1484 112.42C97.3921 114.995 97.7774 119.343 98.0329 122.08L98.4901 127.05L97.9663 127.569L97.4586 128.093L97.362 127.032C97.3084 126.442 97.04 123.708 96.7588 120.94C96.4554 117.971 96.1606 115.001 95.8743 112.03L95.4965 108.164L96.0203 107.682C96.4904 107.238 96.5452 107.225 96.6375 107.467C96.6912 107.603 96.9176 109.829 97.1484 112.42ZM87.0984 114.043C87.3914 116.689 88.1718 123.72 88.8426 129.666C89.5135 135.611 90.1414 141.339 90.2638 142.412C90.3733 143.486 90.5568 145.112 90.6663 146.039C90.8552 147.606 90.8552 147.716 90.6416 147.875C90.3185 148.118 90.1844 148.089 90.1844 147.808C90.1844 147.687 90.0631 146.667 89.916 145.569C89.6724 143.728 89.2698 140.613 88.3725 133.623C88.0959 131.545 87.8276 129.466 87.5675 127.385C87.2991 125.355 86.9095 122.337 86.6916 120.672C86.4769 119.007 86.1173 116.164 85.8866 114.324C85.6472 112.499 85.5001 110.878 85.5388 110.702C85.6354 110.341 86.4233 109.079 86.507 109.158C86.5317 109.196 86.8 111.384 87.0973 114.042L87.0984 114.043ZM82.9895 119.825C83.1902 121.44 83.5681 124.378 83.8235 126.374C84.0747 128.362 84.3978 130.843 84.5448 131.88L84.8003 133.759L84.5191 134.001C84.3602 134.135 84.1971 134.186 84.1423 134.135C84.0919 134.081 83.9824 133.544 83.903 132.953C83.5404 130.401 83.1687 127.85 82.7877 125.301L81.8356 118.726L82.1426 117.813C82.3058 117.318 82.4775 116.915 82.5194 116.915C82.5741 116.915 82.7748 118.231 82.9895 119.824V119.825ZM156.666 118.068C156.855 118.257 156.884 119.088 156.884 125.25V132.215H156.507C155.689 132.215 155.702 132.416 155.648 124.794L155.61 117.855H156.037C156.264 117.855 156.562 117.947 156.666 118.068ZM127.291 120.47C130.322 120.928 132.969 121.774 135.585 123.116C137.274 123.989 138.079 124.592 139.958 126.39C142.75 129.063 144.469 131.397 146.079 134.698C148.428 139.502 149.342 143.754 150.494 155.163C151.019 160.278 151.702 169.548 151.849 173.346C151.892 174.449 151.983 176.261 152.067 177.371C152.214 179.737 152.385 179.414 150.306 180.419C147.421 181.817 144.641 182.781 140.981 183.682C136.498 184.781 133.597 185.128 129.169 185.145L125.949 185.158L125.975 183.615C125.975 182.768 126.054 180.797 126.138 179.255C126.541 171.779 126.457 162.345 125.936 157.108C125.639 154.102 125.065 150.453 124.742 149.648C124.675 149.473 124.981 149.326 126.31 148.869C128.742 148.022 130.847 146.961 131.169 146.442C131.749 145.448 130.713 144.022 129.396 144.022C129.17 144.022 128.486 144.265 127.853 144.546C124.847 145.93 118.822 147.552 115.345 147.917C112.943 148.173 109.211 148.022 106.624 147.552C105.216 147.296 102.691 146.345 100.582 145.259C98.1552 143.997 96.6665 142.32 96.2221 140.332C95.9784 139.259 96.0461 137.112 96.3563 135.904C96.6912 134.576 97.6304 132.642 98.4901 131.514C102.315 126.483 110.205 122.122 118.297 120.593C120.876 120.11 124.524 120.056 127.292 120.47H127.291ZM168.691 120.886C169.174 121.086 169.228 121.141 169.228 121.598C169.258 125.263 169.174 133.636 169.106 133.985C169.094 134.105 168.398 134.118 168.101 134.013C167.916 133.947 167.886 133.221 167.886 127.3C167.886 123.061 167.941 120.672 168.02 120.672C168.088 120.672 168.398 120.769 168.691 120.886ZM174.557 128.257L175.04 128.458L174.948 139.569C174.838 153.729 174.825 154.143 174.314 155.364C173.484 157.363 173.526 157.766 173.606 148.991C173.631 144.601 173.697 140.16 173.727 139.125C173.752 138.094 173.778 135.179 173.794 132.642C173.794 129.581 173.831 128.056 173.928 128.056C174.009 128.056 174.289 128.148 174.557 128.257ZM93.8489 131.598C93.9283 132.684 93.8993 132.789 93.5086 133.648L93.0814 134.563L92.9225 133.221C92.666 131.074 92.666 130.978 93.1737 130.659C93.4045 130.496 93.6471 130.39 93.6857 130.416C93.7276 130.441 93.807 130.978 93.8489 131.598ZM85.5517 139.691C85.673 140.789 86.6122 148.089 87.0973 151.674C87.8197 157.217 87.8734 158.009 87.5514 157.675C87.5138 157.632 87.2025 155.766 86.8805 153.527C84.7874 139.058 84.8003 139.155 84.9763 139.045C85.337 138.801 85.4594 138.936 85.5506 139.69L85.5517 139.691ZM95.2153 145.837C95.2958 146.173 95.6854 149.809 95.6854 150.252C95.6854 150.626 95.2024 150.978 94.9888 150.76C94.9222 150.692 94.7462 149.552 94.612 148.24C94.465 146.911 94.3179 145.527 94.2761 145.167L94.1966 144.496L94.6668 145.032C94.9351 145.325 95.1734 145.687 95.2153 145.837ZM106.046 150.894C106.193 151.028 106.289 151.565 106.406 153.016C106.608 155.632 106.637 155.431 106.087 155.431C105.522 155.431 105.535 155.473 105.35 153.107C105.161 150.705 105.161 150.735 105.522 150.735C105.698 150.735 105.924 150.815 106.046 150.894ZM116.675 151.095C116.7 151.229 116.767 152.034 116.821 152.882C116.864 153.729 116.985 155.632 117.09 157.108C117.467 162.528 117.48 163.216 117.254 163.216C116.997 163.216 116.968 163.016 116.674 159.188C116.544 157.339 116.396 155.491 116.23 153.644C116.113 152.185 116.029 150.961 116.071 150.936C116.218 150.773 116.608 150.894 116.675 151.095ZM91.4466 153.674C91.5261 153.795 92.0327 158.089 92.666 163.955C92.8549 165.724 93.0395 167.431 93.0814 167.749L93.149 168.329L92.8131 168.114C92.5576 167.938 92.4653 167.766 92.4653 167.456C92.4653 166.608 91.8857 161.041 91.4456 157.632C91.1901 155.7 90.9894 153.997 90.9894 153.833C90.9894 153.553 91.3114 153.443 91.4466 153.674ZM168.893 159.284L168.801 164.894L168.465 165.388C167.698 166.517 167.74 166.73 167.782 160.45L167.807 154.693L168.301 154.181C168.57 153.912 168.838 153.687 168.892 153.687C168.935 153.687 168.935 156.211 168.892 159.284H168.893ZM156.481 168.182C156.549 175.98 156.532 176.584 156.318 176.823C156.184 176.97 156.063 177.066 156.025 177.024C155.929 176.919 155.794 159.913 155.903 159.82C155.958 159.767 156.092 159.741 156.214 159.754C156.386 159.791 156.428 160.748 156.482 168.181L156.481 168.182ZM112.65 162.84C112.741 163.669 113.077 167.657 113.211 169.535C113.291 170.798 113.291 170.84 112.997 170.931C112.838 170.987 112.649 170.974 112.595 170.907C112.503 170.811 112.205 167.833 111.844 163.242L111.747 162.143H112.167C112.554 162.143 112.582 162.169 112.65 162.84ZM102.1 167.536C102.192 167.632 102.26 167.967 102.26 168.303C102.26 168.651 102.423 170.462 102.595 172.34C103.107 177.482 103.149 178.177 102.918 178.043C102.57 177.841 102.26 177.535 102.327 177.456C102.356 177.402 102.302 176.73 102.192 175.964C102.084 175.026 101.994 174.087 101.924 173.145C101.873 172.37 101.752 170.945 101.644 169.993C101.387 167.644 101.404 167.376 101.697 167.376C101.846 167.38 101.989 167.437 102.1 167.536ZM108.448 176.567C108.491 176.864 108.57 177.962 108.624 179.011C108.716 181.024 108.674 181.171 108.126 180.755C107.966 180.634 107.857 180.126 107.698 178.597C107.417 175.829 107.4 175.938 107.924 175.993C108.314 176.03 108.368 176.085 108.448 176.567Z" fill="white"/>
<path d="M103.656 126.9C102.26 127.503 102.155 129.398 103.467 130.069C104.423 130.551 105.388 130.32 105.887 129.49C106.826 127.96 105.295 126.19 103.656 126.9ZM112.754 128.191C111.466 128.979 111.466 130.886 112.754 131.679C114.029 132.441 115.681 131.436 115.681 129.905C115.681 128.429 113.991 127.436 112.754 128.191Z" fill="white"/>
</g>
<defs>
<filter id="filter0_f_2032_35271" x="-20" y="25" width="298" height="184" filterUnits="userSpaceOnUse" color-interpolation-filters="sRGB">
<feFlood flood-opacity="0" result="BackgroundImageFix"/>
<feBlend mode="normal" in="SourceGraphic" in2="BackgroundImageFix" result="shape"/>
<feGaussianBlur stdDeviation="18.5" result="effect1_foregroundBlur_2032_35271"/>
</filter>
<filter id="filter1_ii_2032_35271" x="17" y="62" width="224" height="148" filterUnits="userSpaceOnUse" color-interpolation-filters="sRGB">
<feFlood flood-opacity="0" result="BackgroundImageFix"/>
<feBlend mode="normal" in="SourceGraphic" in2="BackgroundImageFix" result="shape"/>
<feColorMatrix in="SourceAlpha" type="matrix" values="0 0 0 0 0 0 0 0 0 0 0 0 0 0 0 0 0 0 127 0" result="hardAlpha"/>
<feOffset dy="-4"/>
<feComposite in2="hardAlpha" operator="arithmetic" k2="-1" k3="1"/>
<feColorMatrix type="matrix" values="0 0 0 0 0 0 0 0 0 0 0 0 0 0 0 0 0 0 0.25 0"/>
<feBlend mode="normal" in2="shape" result="effect1_innerShadow_2032_35271"/>
<feColorMatrix in="SourceAlpha" type="matrix" values="0 0 0 0 0 0 0 0 0 0 0 0 0 0 0 0 0 0 127 0" result="hardAlpha"/>
<feOffset dy="4"/>
<feComposite in2="hardAlpha" operator="arithmetic" k2="-1" k3="1"/>
<feColorMatrix type="matrix" values="0 0 0 0 1 0 0 0 0 1 0 0 0 0 1 0 0 0 0.25 0"/>
<feBlend mode="normal" in2="effect1_innerShadow_2032_35271" result="effect2_innerShadow_2032_35271"/>
</filter>
<linearGradient id="paint0_linear_2032_35271" x1="17" y1="34" x2="197.768" y2="215.142" gradientUnits="userSpaceOnUse">
<stop stop-color="#05815D"/>
<stop offset="1" stop-color="#0C575F"/>
</linearGradient>
<linearGradient id="paint1_linear_2032_35271" x1="17" y1="62" x2="241" y2="210" gradientUnits="userSpaceOnUse">
<stop stop-color="#5F585E"/>
<stop offset="1" stop-color="#010101"/>
</linearGradient>
<clipPath id="clip0_2032_35271">
<rect width="256" height="256" fill="white"/>
</clipPath>
</defs>
</svg>
