<?xml version="1.0" encoding="UTF-8" standalone="no"?>
<svg
   width="256"
   height="256"
   viewBox="0 0 256 256"
   fill="none"
   version="1.1"
   id="svg10"
   xml:space="preserve"
   xmlns:xlink="http://www.w3.org/1999/xlink"
   xmlns="http://www.w3.org/2000/svg"
   xmlns:svg="http://www.w3.org/2000/svg"><defs
     id="defs10"><linearGradient
       id="linearGradient155"
       data-name="Unbenannter Verlauf 97"
       x1="15.89"
       y1="78.050003"
       x2="165.28"
       y2="78.050003"
       gradientUnits="userSpaceOnUse"><stop
         offset="0"
         stop-color="#ffedb9"
         id="stop154"
         style="stop-color:#73f5ff;stop-opacity:1;" /><stop
         offset="1"
         stop-color="#ffdd7e"
         id="stop155"
         style="stop-color:#489eff;stop-opacity:1;" /></linearGradient><linearGradient
       id="linearGradient141"
       data-name="Unbenannter Verlauf 130"
       x1="57.470001"
       y1="9.7200003"
       x2="143.3"
       y2="158.38"
       gradientUnits="userSpaceOnUse"
       gradientTransform="matrix(1.2595591,0,0,1.2481084,5.5506032,33.467116)"
       spreadMethod="pad"><stop
         offset="0"
         stop-color="#ffe69c"
         id="stop139"
         style="stop-color:#9ce2ff;stop-opacity:1;" /><stop
         offset="0.88"
         stop-color="#ffca38"
         id="stop141"
         style="stop-color:#dc38ff;stop-opacity:1;" /></linearGradient><filter
       id="filter0_f_16_132"
       x="-20"
       y="25"
       width="298"
       height="184"
       filterUnits="userSpaceOnUse"
       color-interpolation-filters="sRGB"><feFlood
         flood-opacity="0"
         result="BackgroundImageFix"
         id="feFlood3" /><feBlend
         mode="normal"
         in="SourceGraphic"
         in2="BackgroundImageFix"
         result="shape"
         id="feBlend3" /><feGaussianBlur
         stdDeviation="18.5"
         result="effect1_foregroundBlur_16_132"
         id="feGaussianBlur3" /></filter><linearGradient
       id="paint0_linear_16_132"
       x1="17"
       y1="34"
       x2="197.76801"
       y2="215.142"
       gradientUnits="userSpaceOnUse"><stop
         stop-color="#FFE7A2"
         id="stop7" /><stop
         offset="1"
         stop-color="#FFCB3D"
         id="stop8" /></linearGradient><linearGradient
       id="Unbenannter_Verlauf_148"
       data-name="Unbenannter Verlauf 148"
       x1="9.0900002"
       y1="21.25"
       x2="186.91"
       y2="21.25"
       gradientUnits="userSpaceOnUse"
       gradientTransform="translate(-239.12405,29.124955)"><stop
         offset="0"
         stop-color="#febe18"
         id="stop1-0" /><stop
         offset="1"
         stop-color="#efb122"
         id="stop2-9" /></linearGradient><linearGradient
       id="Unbenannter_Verlauf_97-2"
       data-name="Unbenannter Verlauf 97"
       x1="9.0900002"
       y1="78.540001"
       x2="186.91"
       y2="78.540001"
       xlink:href="#linearGradient155"
       gradientTransform="matrix(1.2595591,0,0,1.2481084,5.5506032,33.467116)" /><linearGradient
       id="Unbenannter_Verlauf_84"
       data-name="Unbenannter Verlauf 84"
       x1="9.0900002"
       y1="84.309998"
       x2="186.91"
       y2="84.309998"
       gradientUnits="userSpaceOnUse"
       gradientTransform="matrix(1.2595591,0,0,1.2481084,5.5506032,33.467116)"
       xlink:href="#Unbenannter_Verlauf_148"><stop
         offset="0"
         stop-color="#edb024"
         id="stop7-8"
         style="stop-color:#2448ed;stop-opacity:1;" /><stop
         offset="0.54064274"
         stop-color="#edb024"
         id="stop26"
         style="stop-color:#8225e9;stop-opacity:1;" /><stop
         offset="1"
         stop-color="#dfa32c"
         id="stop10-2"
         style="stop-color:#bc2cdf;stop-opacity:1;" /></linearGradient><linearGradient
       id="Unbenannter_Verlauf_130"
       data-name="Unbenannter Verlauf 130"
       x1="57.470001"
       y1="9.7200003"
       x2="143.3"
       y2="158.38"
       gradientUnits="userSpaceOnUse"
       gradientTransform="matrix(1.2595591,0,0,1.2481084,5.5506032,33.467116)"
       spreadMethod="pad"
       xlink:href="#linearGradient141"><stop
         offset="0"
         stop-color="#ffe69c"
         id="stop11"
         style="stop-color:#9ce2ff;stop-opacity:1;" /><stop
         offset="0.34999999"
         stop-color="#ffde82"
         id="stop13"
         style="stop-color:#6881ff;stop-opacity:1;" /><stop
         offset="0.88"
         stop-color="#ffca38"
         id="stop16"
         style="stop-color:#dc38ff;stop-opacity:1;" /></linearGradient><linearGradient
       xlink:href="#Unbenannter_Verlauf_148-5"
       id="linearGradient14"
       x1="17"
       y1="103"
       x2="241"
       y2="103"
       gradientUnits="userSpaceOnUse" /><clipPath
       clipPathUnits="userSpaceOnUse"
       id="clipPath15"><path
         id="path15"
         fill-rule="evenodd"
         clip-rule="evenodd"
         d="M 104.425,42.3784 C 100.056,37.0733 93.543703,34 86.671203,34 h -57.6712 c -6.6274,0 -12,5.3726 -12,12 V 58.1371 68.2 160 c 0,6.627 5.3726,12 12,12 H 229 c 6.627,0 12,-5.373 12,-12 V 70.1371 c 0,-6.6274 -5.373,-12 -12,-12 H 117.404 Z"
         fill="#fcbc19"
         style="fill:url(#linearGradient16);fill-opacity:1" /></clipPath><linearGradient
       xlink:href="#Unbenannter_Verlauf_148"
       id="linearGradient16"
       gradientUnits="userSpaceOnUse"
       gradientTransform="translate(3.2283464e-6)"
       x1="17"
       y1="103"
       x2="241"
       y2="103" /><clipPath
       clipPathUnits="userSpaceOnUse"
       id="clipPath16"><path
         id="path16"
         fill-rule="evenodd"
         clip-rule="evenodd"
         d="M 104.425,42.3784 C 100.056,37.0733 93.543703,34 86.671203,34 h -57.6712 c -6.6274,0 -12,5.3726 -12,12 V 58.1371 68.2 160 c 0,6.627 5.3726,12 12,12 H 229 c 6.627,0 12,-5.373 12,-12 V 70.1371 c 0,-6.6274 -5.373,-12 -12,-12 H 117.404 Z"
         fill="#fcbc19"
         style="fill:url(#linearGradient17);fill-opacity:1" /></clipPath><linearGradient
       xlink:href="#Unbenannter_Verlauf_148"
       id="linearGradient17"
       gradientUnits="userSpaceOnUse"
       gradientTransform="translate(3.2283464e-6)"
       x1="17"
       y1="103"
       x2="241"
       y2="103" /><linearGradient
       id="Unbenannter_Verlauf_148-5"
       data-name="Unbenannter Verlauf 148"
       x1="9.0900002"
       y1="21.25"
       x2="186.91"
       y2="21.25"
       gradientUnits="userSpaceOnUse"><stop
         offset="0"
         stop-color="#febe18"
         id="stop1"
         style="stop-color:#3d87fe;stop-opacity:1;" /><stop
         offset="1"
         stop-color="#efb122"
         id="stop2"
         style="stop-color:#4242ef;stop-opacity:1;" /></linearGradient><linearGradient
       id="linearGradient43"><stop
         style="stop-color:#ffffff;stop-opacity:1;"
         offset="0"
         id="stop43" /><stop
         style="stop-color:#e9d5ff;stop-opacity:1;"
         offset="1"
         id="stop44" /></linearGradient><linearGradient
       xlink:href="#linearGradient43"
       id="linearGradient63"
       gradientUnits="userSpaceOnUse"
       x1="48.96981"
       y1="72.517822"
       x2="206.1156"
       y2="198.28979"
       gradientTransform="translate(0,3.4476272)" /><linearGradient
       xlink:href="#linearGradient43"
       id="linearGradient64"
       gradientUnits="userSpaceOnUse"
       x1="48.96981"
       y1="71.06884"
       x2="206.1156"
       y2="196.84082" /><linearGradient
       xlink:href="#linearGradient43"
       id="linearGradient65"
       gradientUnits="userSpaceOnUse"
       x1="48.96981"
       y1="62.509686"
       x2="206.1156"
       y2="188.28166"
       gradientTransform="translate(0,13.455767)" /><linearGradient
       xlink:href="#linearGradient43"
       id="linearGradient66"
       gradientUnits="userSpaceOnUse"
       x1="48.96981"
       y1="62.509686"
       x2="206.1156"
       y2="188.28166"
       gradientTransform="translate(-2.6676472,12.799387)" /><linearGradient
       xlink:href="#linearGradient43"
       id="linearGradient67"
       gradientUnits="userSpaceOnUse"
       x1="48.96981"
       y1="62.509686"
       x2="206.1156"
       y2="188.28166"
       gradientTransform="translate(0,13.455764)" /><linearGradient
       xlink:href="#linearGradient43"
       id="linearGradient68"
       gradientUnits="userSpaceOnUse"
       x1="48.96981"
       y1="62.509686"
       x2="206.1156"
       y2="188.28166"
       gradientTransform="translate(0,13.455767)" /><linearGradient
       xlink:href="#linearGradient43"
       id="linearGradient69"
       gradientUnits="userSpaceOnUse"
       x1="48.96981"
       y1="62.509686"
       x2="206.1156"
       y2="188.28166"
       gradientTransform="translate(0,13.455767)" /><linearGradient
       xlink:href="#linearGradient43"
       id="linearGradient71"
       gradientUnits="userSpaceOnUse"
       x1="48.96981"
       y1="62.509686"
       x2="206.1156"
       y2="188.28166"
       gradientTransform="translate(0,13.455767)" /><linearGradient
       xlink:href="#linearGradient43"
       id="linearGradient72"
       gradientUnits="userSpaceOnUse"
       x1="48.96981"
       y1="62.509686"
       x2="206.1156"
       y2="188.28166"
       gradientTransform="translate(0,13.455767)" /><filter
       style="color-interpolation-filters:sRGB"
       id="filter10"
       x="-0.075920356"
       y="-0.10460985"
       width="1.1644941"
       height="1.2266547"><feFlood
         result="flood"
         in="SourceGraphic"
         flood-opacity="0.200000"
         flood-color="rgb(0,0,0)"
         id="feFlood9" /><feGaussianBlur
         result="blur"
         in="SourceGraphic"
         stdDeviation="5.000000"
         id="feGaussianBlur9" /><feOffset
         result="offset"
         in="blur"
         dx="2.000000"
         dy="2.000000"
         id="feOffset9" /><feComposite
         result="comp1"
         operator="in"
         in="flood"
         in2="offset"
         id="feComposite9" /><feComposite
         result="comp2"
         operator="over"
         in="SourceGraphic"
         in2="comp1"
         id="feComposite10" /></filter><linearGradient
       xlink:href="#Unbenannter_Verlauf_84"
       id="linearGradient26"
       gradientUnits="userSpaceOnUse"
       gradientTransform="matrix(1.2595591,0,0,1.2481084,5.5506032,33.467116)"
       x1="9.0900002"
       y1="84.309998"
       x2="186.91"
       y2="84.309998" /></defs><g
     id="layer4"
     style="display:inline"><g
       id="layer1"
       style="display:inline"><g
         clip-path="url(#clip0_16_132)"
         id="g25"
         style="display:inline"><path
           id="path21"
           fill-rule="evenodd"
           clip-rule="evenodd"
           d="M 104.425,42.3784 C 100.056,37.0733 93.5437,34 86.6712,34 H 29 C 22.3726,34 17,39.3726 17,46 V 58.1371 68.2 160 c 0,6.627 5.3726,12 12,12 h 200 c 6.627,0 12,-5.373 12,-12 V 70.1371 c 0,-6.6274 -5.373,-12 -12,-12 H 117.404 Z"
           fill="#fcbc19"
           style="display:inline;fill:url(#linearGradient14)" /><mask
           id="mask22"
           maskUnits="userSpaceOnUse"
           x="17"
           y="34"
           width="224"
           height="138"><path
             id="path22"
             fill-rule="evenodd"
             clip-rule="evenodd"
             d="M 104.425,42.3784 C 100.056,37.0733 93.5437,34 86.6712,34 H 29 C 22.3726,34 17,39.3726 17,46 V 58.1371 68.2 160 c 0,6.627 5.3726,12 12,12 h 200 c 6.627,0 12,-5.373 12,-12 V 70.1371 c 0,-6.6274 -5.373,-12 -12,-12 H 117.404 Z"
             fill="url(#paint0_linear_16_132)" /></mask><path
           fill-rule="evenodd"
           clip-rule="evenodd"
           d="m 92.789,74 c 4.9752,0 9.816,-1.6132 13.797,-4.5976 L 116.459,62 H 229 c 6.627,0 12,5.3726 12,12 v 34 52 c 0,6.627 -5.373,12 -12,12 H 29 c -6.6274,0 -12,-5.373 -12,-12 V 108 86 c 0,-6.6274 5.3726,-12 12,-12 h 58 z"
           fill="#000000"
           fill-opacity="0.3"
           id="path23"
           style="display:inline;mix-blend-mode:multiply;filter:url(#filter0_f_16_132)"
           clip-path="url(#clipPath16)" /><path
           class="cls-2"
           d="m 17.000003,83.828291 c 0,-5.167169 4.66037,-10.59644 10.40395,-10.59644 h 64.3005 c 3.11111,0 7.09131,-0.486767 9.849747,-1.909609 l 10.13945,-6.402797 c 0.15115,-0.08737 0.3023,-0.162254 0.45344,-0.249622 2.8718,-1.784794 5.10122,-3.444779 8.47684,-3.444779 18.99415,-0.04992 85.02025,0 110.77823,0.02496 5.30274,0 9.59784,6.365355 9.59784,11.145609 V 192.85055 c 0,4.95499 -4.47143,8.9739 -9.9883,8.9739 H 27.177233 c -5.61763,0 -10.17723,-4.09379 -10.17723,-9.14862 z"
           id="path18"
           style="display:inline;fill:url(#Unbenannter_Verlauf_97-2);stroke-width:1.25382"
           clip-path="url(#clipPath15)" /><path
           class="cls-4"
           d="m 17.000003,90.992433 c 0,-5.554082 5.01304,-10.059753 11.19748,-10.059753 h 69.09941 c 1.91453,0 3.791267,-0.499244 5.453887,-1.435325 3.90464,-2.221633 11.33603,-6.452724 15.12731,-8.674358 1.61223,-0.94856 3.45119,-1.447805 5.32793,-1.447805 14.8628,0 81.21638,-0.03745 108.18354,0 5.30275,0 9.59784,3.86914 9.59784,8.649395 V 199.0911 c 0,4.95499 -4.47143,8.9739 -9.9883,8.9739 H 27.177233 c -5.61763,0 -10.17723,-4.09379 -10.17723,-9.14864 z"
           id="path19"
           style="display:inline;fill:url(#linearGradient26);stroke-width:1.25382" /><path
           class="cls-1"
           d="m 17.000003,86 c 0,-5.554082 5.01304,-10.059754 11.19748,-10.059754 h 69.09941 c 1.91453,0 3.791267,-0.499243 5.453887,-1.435325 3.90464,-2.221635 11.33603,-6.452724 15.12731,-8.674357 1.61223,-0.948561 3.45119,-1.447805 5.32793,-1.447805 14.8628,0 81.21638,-0.03745 108.18354,0 5.30275,0 9.59784,3.869137 9.59784,8.649392 V 192.85055 c 0,4.95499 -4.47143,11.47012 -9.9883,11.47012 H 27.177233 c -5.61763,0 -10.17723,-6.59001 -10.17723,-11.64484 z"
           id="path20"
           style="display:inline;fill:url(#Unbenannter_Verlauf_130);stroke-width:1.25382" /></g><g
         id="g7"
         style="filter:url(#filter10)"><path
           id="path1-4-8"
           style="display:inline;fill:url(#linearGradient63);fill-opacity:1;stroke:none;stroke-width:1.97662;stroke-linejoin:round;stroke-dasharray:none;stroke-dashoffset:6.34961;stroke-opacity:1;paint-order:stroke markers fill"
           d="m 124.5,114.65195 c -7.70044,16.15065 -17.96028,33.6024 -18.5625,44.15389 -0.54302,9.50718 4.65217,12.75471 5.5,24.52264 0.15869,2.20267 1.90221,3.98632 4.11133,3.97461 6.32879,-0.0335 18.57985,-0.0897 24.90625,-0.0566 2.20743,0.0115 3.95486,-1.71126 4.11328,-3.91406 0.86113,-11.97407 6.04117,-14.94527 5.49414,-24.52655 C 149.45991,148.25442 139.20029,130.8024 131.5,114.65195 v 33.4043 c 3.31529,1.40525 5.46876,4.65699 5.46875,8.25781 -1.3e-4,4.95325 -4.0155,8.96862 -8.96875,8.96875 -4.95325,-1.3e-4 -8.96862,-4.0155 -8.96875,-8.96875 -1e-5,-3.60082 2.15346,-6.85256 5.46875,-8.25781 z" /><path
           d="m 111.57076,190.44812 a 3.9237473,3.9237473 44.370926 0 0 3.97786,3.89145 l 24.85789,0 a 4,4 135 0 0 4,-4 3.9460687,3.9460687 44.211482 0 0 -4,-3.89139 h -24.81299 a 4.0228237,4.0228237 135.163 0 0 -4.02276,3.99994 z"
           style="fill:url(#linearGradient64);fill-opacity:1;stroke:none;stroke-width:1.97662;stroke-linejoin:round;stroke-dasharray:none;stroke-dashoffset:6.34961;stroke-opacity:1;paint-order:stroke markers fill"
           id="path1-9-9"
           transform="translate(0,4.8966121)" /><rect
           style="fill:url(#linearGradient65);fill-opacity:1;stroke:none;stroke-width:17.2745;stroke-linecap:round;stroke-linejoin:round;stroke-dasharray:none;stroke-dashoffset:6.34961;stroke-opacity:1;paint-order:stroke markers fill"
           id="rect19-2"
           width="20.896954"
           height="20.897619"
           x="117.55152"
           y="84.524612"
           ry="5" /><rect
           style="fill:url(#linearGradient66);fill-opacity:1;stroke:none;stroke-width:17.2745;stroke-linecap:round;stroke-linejoin:round;stroke-dasharray:none;stroke-dashoffset:6.34961;stroke-opacity:1;paint-order:stroke markers fill"
           id="rect20-7"
           width="20.896954"
           height="20.897619"
           x="183.46559"
           y="153.20741"
           ry="5" /><rect
           style="fill:url(#linearGradient67);fill-opacity:1;stroke:none;stroke-width:17.2745;stroke-linecap:round;stroke-linejoin:round;stroke-dasharray:none;stroke-dashoffset:6.34961;stroke-opacity:1;paint-order:stroke markers fill"
           id="rect21-9"
           width="20.896954"
           height="20.897619"
           x="51.887726"
           y="153.86371"
           ry="5" /><ellipse
           style="fill:url(#linearGradient68);fill-opacity:1;stroke:none;stroke-width:10;stroke-linecap:round;stroke-linejoin:round;stroke-dasharray:none;stroke-dashoffset:6.34961;stroke-opacity:1;paint-order:stroke markers fill"
           id="path25-5"
           cx="59.418289"
           cy="94.973419"
           rx="10.448477"
           ry="10.44881" /><ellipse
           style="fill:url(#linearGradient69);fill-opacity:1;stroke:none;stroke-width:10;stroke-linecap:round;stroke-linejoin:round;stroke-dasharray:none;stroke-dashoffset:6.34961;stroke-opacity:1;paint-order:stroke markers fill"
           id="ellipse25-4"
           cx="196.58171"
           cy="94.973419"
           rx="10.448477"
           ry="10.44881" /><path
           style="fill:none;fill-opacity:1;stroke:url(#linearGradient71);stroke-width:7;stroke-linecap:round;stroke-linejoin:round;stroke-dasharray:none;stroke-dashoffset:6.34961;stroke-opacity:1;paint-order:stroke markers fill"
           d="m 62.336209,146.11101 c -2e-6,-27.48454 27.33981,-51.137594 47.963101,-51.137592 H 77.369225"
           id="path26-1" /><path
           style="fill:none;fill-opacity:1;stroke:url(#linearGradient72);stroke-width:7;stroke-linecap:round;stroke-linejoin:round;stroke-dasharray:none;stroke-dashoffset:6.34961;stroke-opacity:1;paint-order:stroke markers fill"
           d="m 193.91407,146.11101 c 0,-27.48454 -27.3398,-51.137594 -47.9631,-51.137592 h 32.93009"
           id="path27-2" /></g></g></g></svg>
