<svg width="256" height="256" viewBox="0 0 256 256" fill="none" xmlns="http://www.w3.org/2000/svg">
<path fill-rule="evenodd" clip-rule="evenodd" d="M104.425 42.3784C100.056 37.0733 93.5437 34 86.6712 34H29C22.3726 34 17 39.3726 17 46V58.1371V68.2V160C17 166.627 22.3726 172 29 172H229C235.627 172 241 166.627 241 160V70.1371C241 63.5097 235.627 58.1371 229 58.1371H117.404L104.425 42.3784Z" fill="#080F2A"/>
<mask id="mask0_610_14294" style="mask-type:alpha" maskUnits="userSpaceOnUse" x="17" y="34" width="224" height="138">
<path fill-rule="evenodd" clip-rule="evenodd" d="M104.425 42.3784C100.056 37.0733 93.5437 34 86.6712 34H29C22.3726 34 17 39.3726 17 46V58.1371V68.2V160C17 166.627 22.3726 172 29 172H229C235.627 172 241 166.627 241 160V70.1371C241 63.5097 235.627 58.1371 229 58.1371H117.404L104.425 42.3784Z" fill="url(#paint0_linear_610_14294)"/>
</mask>
<g mask="url(#mask0_610_14294)">
<g style="mix-blend-mode:multiply" filter="url(#filter0_f_610_14294)">
<path fill-rule="evenodd" clip-rule="evenodd" d="M92.789 74C97.7642 74 102.605 72.3868 106.586 69.4024L116.459 62H229C235.627 62 241 67.3726 241 74V108V160C241 166.627 235.627 172 229 172H29C22.3726 172 17 166.627 17 160L17 108V86C17 79.3726 22.3726 74 29 74H87H92.789Z" fill="black" fill-opacity="0.3"/>
</g>
</g>
<g filter="url(#filter1_ii_610_14294)">
<path fill-rule="evenodd" clip-rule="evenodd" d="M92.789 74C97.7642 74 102.605 72.3868 106.586 69.4024L116.459 62H229C235.627 62 241 67.3726 241 74V108V198C241 204.627 235.627 210 229 210H29C22.3726 210 17 204.627 17 198L17 108V86C17 79.3726 22.3726 74 29 74H87H92.789Z" fill="url(#paint1_linear_610_14294)"/>
</g>
<path d="M165.389 149.811C162.953 150.369 156.542 150.691 156.542 150.691L155.73 153.228C155.73 153.228 158.927 152.957 161.262 153.194C161.262 153.194 162.023 153.11 162.108 154.057C162.141 154.936 162.04 155.884 162.04 155.884C162.04 155.884 161.989 156.459 161.177 156.594C160.298 156.746 154.275 156.966 154.275 156.966L153.294 160.265C153.294 160.265 152.939 161.026 153.751 160.806C154.512 160.603 160.822 159.419 161.651 159.588C162.53 159.808 163.512 160.975 163.224 162.058C162.886 163.378 156.593 167.404 152.753 167.116C152.753 167.116 150.74 167.251 149.032 164.528C147.441 161.94 149.64 157.017 149.64 157.017C149.64 157.017 148.642 154.717 149.37 153.955C149.37 153.955 149.81 153.566 151.061 153.465L152.601 150.268C152.601 150.268 150.842 150.386 149.793 149.1C148.812 147.866 148.744 147.307 149.488 146.969C150.283 146.58 157.608 145.244 162.649 145.413C162.649 145.413 164.408 145.244 165.914 148.288C165.897 148.288 166.641 149.523 165.389 149.811V149.811ZM146.426 162.092C145.784 163.614 144.075 165.238 141.961 164.223C139.863 163.208 136.531 156.391 136.531 156.391C136.531 156.391 135.262 153.854 135.025 153.905C135.025 153.905 134.754 153.414 134.585 156.188C134.416 158.962 134.619 164.359 133.52 165.204C132.471 166.05 131.202 165.712 130.542 164.714C129.95 163.733 129.697 161.398 130.018 157.305C130.407 153.211 131.354 148.847 132.572 147.477C133.79 146.123 134.771 147.104 135.143 147.46C135.143 147.46 136.767 148.931 139.457 153.262L139.931 154.057C139.931 154.057 142.367 158.151 142.62 158.134C142.62 158.134 142.823 158.32 142.993 158.184C143.246 158.117 143.145 156.797 143.145 156.797C143.145 156.797 142.637 152.348 140.421 144.804C140.421 144.804 140.083 143.856 140.32 142.977C140.54 142.08 141.436 142.503 141.436 142.503C141.436 142.503 144.887 144.229 146.545 149.845C148.186 155.512 147.069 160.57 146.426 162.092V162.092ZM129.477 147.663C129.189 148.238 129.02 149.067 127.565 149.287C127.565 149.287 113.643 150.234 112.984 151.215C112.984 151.215 112.493 151.79 113.254 151.959C114.015 152.112 117.162 152.534 118.684 152.619C120.308 152.636 125.789 152.687 127.751 155.139C127.751 155.139 128.918 156.307 128.868 158.946C128.817 161.652 128.343 162.599 127.294 163.581C126.195 164.494 116.756 168.723 110.666 162.227C110.666 162.227 107.858 159.098 111.63 156.73C111.63 156.73 114.354 155.089 121.272 157.017C121.272 157.017 123.37 157.778 123.268 158.54C123.15 159.352 121.543 160.214 119.209 160.164C116.942 160.096 115.284 159.013 115.605 159.182C115.91 159.301 113.17 157.863 112.324 158.844C111.478 159.741 111.681 160.299 112.51 160.857C114.624 162.058 122.795 161.635 125.231 158.929C125.231 158.929 126.195 157.829 124.723 156.933C123.252 156.087 119.039 155.579 117.399 155.495C115.825 155.41 109.972 155.512 109.127 153.955C109.127 153.955 108.281 152.907 109.211 149.929C110.192 146.817 117.01 145.616 119.953 145.345C119.953 145.345 128.056 145.058 129.544 146.715C129.527 146.715 129.73 147.104 129.477 147.663V147.663ZM106.471 165.915C105.49 166.642 103.409 166.321 102.817 165.509C102.225 164.782 102.022 161.889 102.14 157.355C102.259 152.771 102.36 147.087 103.341 146.191C104.39 145.277 105.033 146.072 105.439 146.698C105.879 147.307 106.403 147.984 106.522 149.422C106.623 150.86 106.961 158.404 106.961 158.404C106.961 158.404 107.401 165.204 106.471 165.915ZM108.585 141.59C105.727 142.537 103.764 142.216 102.107 141.505C101.379 142.774 100.956 143.163 100.398 143.248C99.586 143.332 98.8587 142.03 98.7233 141.607C98.588 141.285 98.1989 140.744 98.6726 139.458C97.0486 138.004 96.9302 136.041 97.2009 134.722C97.6069 133.199 100.347 127.414 108.687 126.738C108.687 126.738 112.764 126.433 113.457 128.615H113.576C113.576 128.615 117.534 128.632 117.449 132.151C117.399 135.686 113.051 140.084 108.585 141.59V141.59ZM100.804 133.758C99.9582 135.111 99.9244 135.923 100.313 136.481C101.278 135.009 103.037 132.692 105.625 130.933C103.629 131.102 101.954 131.965 100.804 133.758V133.758ZM112.324 131.491C109.702 131.88 105.642 135.399 103.714 138.274C106.674 138.816 111.901 138.613 114.218 133.893C114.201 133.893 115.318 130.967 112.324 131.491ZM183.506 158.743C181.933 161.483 177.518 167.201 171.631 165.864C169.686 170.584 168.062 175.337 167.132 182.476C167.132 182.476 166.929 183.863 165.778 183.372C164.645 182.966 162.75 181.072 162.378 178.45C161.972 174.999 163.512 169.163 166.641 162.481C165.728 160.992 165.102 158.861 165.643 155.833C165.643 155.833 166.438 150.217 172.071 145.142C172.071 145.142 172.748 144.55 173.137 144.736C173.577 144.922 173.374 146.749 173.018 147.629C172.663 148.508 170.143 152.873 170.143 152.873C170.143 152.873 168.569 155.816 169.009 158.134C171.97 153.583 178.702 144.398 182.88 147.29C184.284 148.288 184.927 150.471 184.927 152.822C184.91 154.903 184.42 157.102 183.506 158.743V158.743ZM182.288 151.536C182.288 151.536 182.052 149.726 180.292 151.722C178.77 153.397 176.029 156.56 173.813 160.84C176.131 160.586 178.364 159.318 179.041 158.675C180.14 157.694 182.694 155.055 182.288 151.536V151.536ZM100.161 153.837C99.8398 157.931 98.2666 164.815 87.1189 168.216C79.7605 170.432 72.808 169.366 69.0188 168.402C68.9342 169.907 68.7651 170.55 68.5283 170.804C68.2069 171.125 65.8048 172.512 64.4853 170.55C63.8933 169.62 63.5888 167.928 63.4196 166.422C54.894 162.498 50.9695 156.848 50.8172 156.594C50.6311 156.408 48.6858 154.378 50.6311 151.892C52.4581 149.642 58.4294 147.392 63.8087 146.478C63.9948 141.877 64.5361 138.41 65.1789 136.819C65.957 134.976 66.9382 136.633 67.784 137.885C68.4944 138.816 68.9173 142.825 68.9512 146.022C72.4697 145.853 74.5504 146.106 78.4749 146.817C83.5835 147.747 87.0005 150.352 86.696 153.313C86.4761 156.222 83.8034 157.423 82.7885 157.508C81.7227 157.592 80.065 156.831 80.065 156.831C78.9316 156.29 79.9804 155.816 81.3506 155.224C82.8392 154.497 82.5009 153.752 82.5009 153.752C81.9427 152.128 75.3116 150.995 68.7143 150.995C68.6805 154.632 68.8666 160.671 68.9512 164.19C73.5692 165.069 77.0201 164.9 77.0201 164.9C77.0201 164.9 93.8684 164.426 94.3759 153.668C94.9003 142.892 77.5783 132.557 64.7729 129.275C51.9844 125.926 44.7444 128.26 44.1185 128.581C43.4418 128.92 44.0677 129.021 44.0677 129.021C44.0677 129.021 44.7613 129.123 45.9623 129.529C47.231 129.935 46.2499 130.594 46.2499 130.594C44.0677 131.288 41.6149 130.848 41.1413 129.85C40.6676 128.852 41.4627 127.955 42.3761 126.67C43.2896 125.317 44.2876 125.367 44.2876 125.367C60.1041 119.887 79.3714 129.799 79.3714 129.799C97.4208 138.951 100.5 149.676 100.161 153.837V153.837ZM52.4242 153.279C50.6311 154.158 51.866 155.427 51.866 155.427C55.2323 159.047 59.3767 161.314 63.3181 162.718C63.7749 156.476 63.7072 154.277 63.758 151.13C57.6005 151.553 54.0482 152.534 52.4242 153.279V153.279Z" fill="white"/>
<path d="M217 151.993V154.226C217 154.717 216.611 155.106 216.12 155.106H205.48C205.48 155.664 205.497 156.154 205.497 156.611C205.497 159.91 205.362 162.599 205.04 165.627C204.99 166.084 204.617 166.422 204.178 166.422H201.877C201.64 166.422 201.42 166.321 201.268 166.152C201.116 165.983 201.031 165.746 201.065 165.509C201.386 162.498 201.539 159.842 201.539 156.611C201.539 156.138 201.539 155.647 201.522 155.106H191C190.509 155.106 190.12 154.717 190.12 154.226V151.993C190.12 151.503 190.509 151.114 191 151.114H201.37C201.15 147.477 200.71 143.975 199.999 140.423C199.965 140.203 200.016 139.983 200.152 139.814C200.287 139.644 200.49 139.543 200.71 139.543H203.196C203.586 139.543 203.907 139.814 203.991 140.203C204.685 143.873 205.125 147.443 205.345 151.114H216.12C216.594 151.114 217 151.519 217 151.993V151.993Z" fill="white"/>
<path d="M202.52 134.282C197.022 120.766 187.735 109.246 175.657 100.958C163.292 92.4827 148.795 88 133.74 88C108.839 88 85.7319 100.366 71.9454 121.088C71.7932 121.308 71.7593 121.595 71.8439 121.849C71.9285 122.12 72.1315 122.306 72.3852 122.39L74.3136 123.05C74.432 123.084 74.5505 123.101 74.652 123.101C75.0072 123.101 75.3455 122.915 75.5485 122.627C81.8751 113.323 90.4346 105.593 100.314 100.247C110.514 94.7326 122.067 91.8061 133.723 91.8061C147.814 91.8061 161.397 95.9674 173.035 103.816C184.386 111.479 193.199 122.187 198.528 134.756C198.68 135.128 199.052 135.382 199.458 135.382H201.759C202.029 135.382 202.283 135.246 202.418 135.026C202.588 134.807 202.622 134.536 202.52 134.282ZM74.652 122.526C74.6012 122.526 74.5505 122.509 74.4997 122.492C74.5505 122.509 74.6012 122.526 74.652 122.526ZM198.985 135.077C199.035 135.111 199.086 135.145 199.137 135.162C199.086 135.128 199.035 135.111 198.985 135.077Z" fill="url(#paint2_radial_610_14294)"/>
<defs>
<filter id="filter0_f_610_14294" x="-20" y="25" width="298" height="184" filterUnits="userSpaceOnUse" color-interpolation-filters="sRGB">
<feFlood flood-opacity="0" result="BackgroundImageFix"/>
<feBlend mode="normal" in="SourceGraphic" in2="BackgroundImageFix" result="shape"/>
<feGaussianBlur stdDeviation="18.5" result="effect1_foregroundBlur_610_14294"/>
</filter>
<filter id="filter1_ii_610_14294" x="17" y="62" width="224" height="148" filterUnits="userSpaceOnUse" color-interpolation-filters="sRGB">
<feFlood flood-opacity="0" result="BackgroundImageFix"/>
<feBlend mode="normal" in="SourceGraphic" in2="BackgroundImageFix" result="shape"/>
<feColorMatrix in="SourceAlpha" type="matrix" values="0 0 0 0 0 0 0 0 0 0 0 0 0 0 0 0 0 0 127 0" result="hardAlpha"/>
<feOffset dy="-4"/>
<feComposite in2="hardAlpha" operator="arithmetic" k2="-1" k3="1"/>
<feColorMatrix type="matrix" values="0 0 0 0 0 0 0 0 0 0 0 0 0 0 0 0 0 0 0.25 0"/>
<feBlend mode="normal" in2="shape" result="effect1_innerShadow_610_14294"/>
<feColorMatrix in="SourceAlpha" type="matrix" values="0 0 0 0 0 0 0 0 0 0 0 0 0 0 0 0 0 0 127 0" result="hardAlpha"/>
<feOffset dy="4"/>
<feComposite in2="hardAlpha" operator="arithmetic" k2="-1" k3="1"/>
<feColorMatrix type="matrix" values="0 0 0 0 1 0 0 0 0 1 0 0 0 0 1 0 0 0 0.25 0"/>
<feBlend mode="normal" in2="effect1_innerShadow_610_14294" result="effect2_innerShadow_610_14294"/>
</filter>
<linearGradient id="paint0_linear_610_14294" x1="17" y1="34" x2="197.768" y2="215.142" gradientUnits="userSpaceOnUse">
<stop stop-color="#05815D"/>
<stop offset="1" stop-color="#0C575F"/>
</linearGradient>
<linearGradient id="paint1_linear_610_14294" x1="17" y1="62" x2="241" y2="210" gradientUnits="userSpaceOnUse">
<stop stop-color="#101C50"/>
<stop offset="1" stop-color="#070C23"/>
</linearGradient>
<radialGradient id="paint2_radial_610_14294" cx="0" cy="0" r="1" gradientUnits="userSpaceOnUse" gradientTransform="translate(200.359 135.296) scale(128.583)">
<stop offset="0.007" stop-color="white"/>
<stop offset="0.03" stop-color="#CBFFFF"/>
<stop offset="0.057" stop-color="#96FFFF"/>
<stop offset="0.084" stop-color="#68FFFF"/>
<stop offset="0.111" stop-color="#43FFFF"/>
<stop offset="0.138" stop-color="#25FFFF"/>
<stop offset="0.165" stop-color="#11FFFF"/>
<stop offset="0.191" stop-color="#04FFFF"/>
<stop offset="0.216" stop-color="#00FFFF"/>
<stop offset="1" stop-color="#0000FF" stop-opacity="0"/>
</radialGradient>
</defs>
</svg>
