<svg width="256" height="256" viewBox="0 0 256 256" fill="none" xmlns="http://www.w3.org/2000/svg">
<g clip-path="url(#clip0_2511_11334)">
<path d="M104.425 42.3784C100.056 37.0733 93.5437 34 86.6712 34H29C22.3726 34 17 39.3726 17 46V160C17 166.627 22.3726 172 29 172H229C235.627 172 241 166.627 241 160V70.1371C241 63.5097 235.627 58.1371 229 58.1371H117.404L104.425 42.3784Z" fill="url(#paint0_linear_2511_11334)"/>
<mask id="mask0_2511_11334" style="mask-type:alpha" maskUnits="userSpaceOnUse" x="17" y="34" width="224" height="138">
<path fill-rule="evenodd" clip-rule="evenodd" d="M104.425 42.3784C100.056 37.0733 93.5437 34 86.6712 34H29C22.3726 34 17 39.3726 17 46V58.1371V68.2V160C17 166.627 22.3726 172 29 172H229C235.627 172 241 166.627 241 160V70.1371C241 63.5097 235.627 58.1371 229 58.1371H117.404L104.425 42.3784Z" fill="url(#paint1_linear_2511_11334)"/>
</mask>
<g mask="url(#mask0_2511_11334)">
<g style="mix-blend-mode:multiply" filter="url(#filter0_f_2511_11334)">
<path fill-rule="evenodd" clip-rule="evenodd" d="M92.789 74C97.7642 74 102.605 72.3868 106.586 69.4024L116.459 62H229C235.627 62 241 67.3726 241 74V108V160C241 166.627 235.627 172 229 172H29C22.3726 172 17 166.627 17 160L17 108V86C17 79.3726 22.3726 74 29 74H87H92.789Z" fill="black" fill-opacity="0.3"/>
</g>
</g>
<g filter="url(#filter1_ii_2511_11334)">
<path fill-rule="evenodd" clip-rule="evenodd" d="M92.789 74C97.7642 74 102.605 72.3868 106.586 69.4024L116.459 62H229C235.627 62 241 67.3726 241 74V108V198C241 204.627 235.627 210 229 210H29C22.3726 210 17 204.627 17 198L17 108V86C17 79.3726 22.3726 74 29 74H87H92.789Z" fill="url(#paint2_linear_2511_11334)"/>
<path fill-rule="evenodd" clip-rule="evenodd" d="M92.789 74C97.7642 74 102.605 72.3868 106.586 69.4024L116.459 62H229C235.627 62 241 67.3726 241 74V108V198C241 204.627 235.627 210 229 210H29C22.3726 210 17 204.627 17 198L17 108V86C17 79.3726 22.3726 74 29 74H87H92.789Z" fill="url(#paint3_radial_2511_11334)"/>
<path fill-rule="evenodd" clip-rule="evenodd" d="M92.789 74C97.7642 74 102.605 72.3868 106.586 69.4024L116.459 62H229C235.627 62 241 67.3726 241 74V108V198C241 204.627 235.627 210 229 210H29C22.3726 210 17 204.627 17 198L17 108V86C17 79.3726 22.3726 74 29 74H87H92.789Z" fill="url(#paint4_radial_2511_11334)"/>
<path fill-rule="evenodd" clip-rule="evenodd" d="M92.789 74C97.7642 74 102.605 72.3868 106.586 69.4024L116.459 62H229C235.627 62 241 67.3726 241 74V108V198C241 204.627 235.627 210 229 210H29C22.3726 210 17 204.627 17 198L17 108V86C17 79.3726 22.3726 74 29 74H87H92.789Z" fill="url(#paint5_radial_2511_11334)"/>
</g>
<g filter="url(#filter2_d_2511_11334)">
<path d="M72.6125 120.445C80.6463 111.807 105.519 106.215 134.221 108.25C167.127 109.773 193.532 120.445 195.83 132.639V132.127C196.213 127.554 195.83 124.509 195.83 124.509C195.064 111.807 166.744 102.151 132.306 102.663C103.608 103.17 79.502 110.28 71.8464 119.937C71.8464 119.937 72.2295 120.445 72.6125 120.445Z" fill="url(#paint6_linear_2511_11334)"/>
<path d="M80.2631 126.539C91.7441 120.952 111.642 117.902 134.221 119.43C167.127 120.952 193.532 131.619 195.83 143.306C196.213 138.734 195.83 135.684 195.83 135.684C195.447 122.982 167.127 113.33 132.306 113.838C109.349 114.345 89.4508 118.917 78.3528 125.524C78.3528 125.524 79.1188 126.032 80.2631 126.539Z" fill="url(#paint7_linear_2511_11334)"/>
<path d="M94.8036 133.147C105.902 130.604 119.681 129.589 134.221 130.604C167.127 132.127 193.532 142.799 195.83 154.486C196.213 149.913 195.83 146.863 195.83 146.863C195.064 134.162 166.744 124.509 132.306 125.017C116.234 125.017 101.693 127.554 90.5952 131.112C90.5952 131.112 92.8933 132.127 94.8036 132.639L94.8036 133.147Z" fill="url(#paint8_linear_2511_11334)"/>
<path d="M69.5481 113.33C72.2292 101.643 99.0167 91.9911 132.306 91.4836C164.068 90.9761 189.706 99.1057 194.681 109.773C194.681 109.773 195.447 111.3 195.447 112.315C195.447 112.315 195.83 114.345 195.83 120.952V121.46C193.532 109.265 167.127 98.5982 134.221 97.0709C100.927 95.0409 73.3783 102.663 69.5481 113.33Z" fill="url(#paint9_linear_2511_11334)"/>
<path d="M193.149 149.401C185.498 159.053 161.392 166.675 133.072 166.675C98.251 167.192 69.9315 157.531 69.1702 145.341C69.1702 145.341 68.7872 142.291 69.1702 137.211C71.8466 148.894 98.251 159.57 130.779 161.6C159.477 163.123 184.349 158.038 192.766 148.894L193.149 149.401Z" fill="url(#paint10_linear_2511_11334)"/>
<path d="M186.647 143.814C175.549 150.928 155.651 155.501 132.689 155.501C98.251 156.008 69.9315 146.356 69.1702 134.162C69.1702 134.162 68.7872 131.112 69.1702 126.032C71.8466 137.719 98.251 148.386 130.779 150.421C153.353 151.436 173.251 148.386 184.732 142.799C184.732 142.799 185.881 143.306 186.647 143.814Z" fill="url(#paint11_linear_2511_11334)"/>
<path d="M174.783 138.226C163.685 141.784 148.761 144.321 133.072 144.321C98.2507 144.834 69.9312 135.177 69.1699 122.982C69.1699 122.982 69.1699 119.937 69.1699 114.853C71.8463 126.54 98.2507 137.211 130.779 139.241C145.702 140.256 159.093 139.241 170.191 136.704C170.191 136.704 172.102 137.211 174.4 138.226L174.783 138.226Z" fill="url(#paint12_linear_2511_11334)"/>
<path d="M195.447 156.008C192.766 168.207 165.983 177.342 132.689 177.859C101.31 178.357 75.2887 170.745 70.3142 159.57C70.3142 159.57 69.9312 158.555 69.5482 157.023C69.5482 157.023 69.1699 155.501 69.1699 148.893V148.386C71.8463 160.068 98.2507 170.745 130.779 172.775C164.068 174.805 192.004 166.675 195.447 156.008Z" fill="url(#paint13_linear_2511_11334)"/>
</g>
</g>
<defs>
<filter id="filter0_f_2511_11334" x="-20" y="25" width="298" height="184" filterUnits="userSpaceOnUse" color-interpolation-filters="sRGB">
<feFlood flood-opacity="0" result="BackgroundImageFix"/>
<feBlend mode="normal" in="SourceGraphic" in2="BackgroundImageFix" result="shape"/>
<feGaussianBlur stdDeviation="18.5" result="effect1_foregroundBlur_2511_11334"/>
</filter>
<filter id="filter1_ii_2511_11334" x="17" y="62" width="224" height="148" filterUnits="userSpaceOnUse" color-interpolation-filters="sRGB">
<feFlood flood-opacity="0" result="BackgroundImageFix"/>
<feBlend mode="normal" in="SourceGraphic" in2="BackgroundImageFix" result="shape"/>
<feColorMatrix in="SourceAlpha" type="matrix" values="0 0 0 0 0 0 0 0 0 0 0 0 0 0 0 0 0 0 127 0" result="hardAlpha"/>
<feOffset dy="4"/>
<feComposite in2="hardAlpha" operator="arithmetic" k2="-1" k3="1"/>
<feColorMatrix type="matrix" values="0 0 0 0 1 0 0 0 0 1 0 0 0 0 1 0 0 0 0.25 0"/>
<feBlend mode="normal" in2="shape" result="effect1_innerShadow_2511_11334"/>
<feColorMatrix in="SourceAlpha" type="matrix" values="0 0 0 0 0 0 0 0 0 0 0 0 0 0 0 0 0 0 127 0" result="hardAlpha"/>
<feOffset dy="-4"/>
<feComposite in2="hardAlpha" operator="arithmetic" k2="-1" k3="1"/>
<feColorMatrix type="matrix" values="0 0 0 0 0 0 0 0 0 0 0 0 0 0 0 0 0 0 0.9 0"/>
<feBlend mode="soft-light" in2="effect1_innerShadow_2511_11334" result="effect2_innerShadow_2511_11334"/>
</filter>
<filter id="filter2_d_2511_11334" x="65" y="91.4611" width="135" height="94.4214" filterUnits="userSpaceOnUse" color-interpolation-filters="sRGB">
<feFlood flood-opacity="0" result="BackgroundImageFix"/>
<feColorMatrix in="SourceAlpha" type="matrix" values="0 0 0 0 0 0 0 0 0 0 0 0 0 0 0 0 0 0 127 0" result="hardAlpha"/>
<feOffset dy="4"/>
<feGaussianBlur stdDeviation="2"/>
<feComposite in2="hardAlpha" operator="out"/>
<feColorMatrix type="matrix" values="0 0 0 0 0 0 0 0 0 0 0 0 0 0 0 0 0 0 0.1 0"/>
<feBlend mode="normal" in2="BackgroundImageFix" result="effect1_dropShadow_2511_11334"/>
<feBlend mode="normal" in="SourceGraphic" in2="effect1_dropShadow_2511_11334" result="shape"/>
</filter>
<linearGradient id="paint0_linear_2511_11334" x1="17" y1="34" x2="197.768" y2="215.142" gradientUnits="userSpaceOnUse">
<stop stop-color="#F2852D"/>
</linearGradient>
<linearGradient id="paint1_linear_2511_11334" x1="17" y1="34" x2="197.768" y2="215.142" gradientUnits="userSpaceOnUse">
<stop stop-color="#05815D"/>
<stop offset="1" stop-color="#0C575F"/>
</linearGradient>
<linearGradient id="paint2_linear_2511_11334" x1="17" y1="62" x2="241" y2="210" gradientUnits="userSpaceOnUse">
<stop stop-color="#FBC222"/>
<stop offset="0.782083" stop-color="#F3B77E"/>
</linearGradient>
<radialGradient id="paint3_radial_2511_11334" cx="0" cy="0" r="1" gradientUnits="userSpaceOnUse" gradientTransform="translate(-6.5 195) rotate(-12.4915) scale(166.44 130.936)">
<stop offset="0.313957" stop-color="#ED7227"/>
<stop offset="1" stop-color="#EEDAC6" stop-opacity="0"/>
</radialGradient>
<radialGradient id="paint4_radial_2511_11334" cx="0" cy="0" r="1" gradientUnits="userSpaceOnUse" gradientTransform="translate(270 192) rotate(-155.185) scale(170.28 133.957)">
<stop offset="0.313957" stop-color="#ED7227"/>
<stop offset="1" stop-color="#F1D7BF" stop-opacity="0"/>
</radialGradient>
<radialGradient id="paint5_radial_2511_11334" cx="0" cy="0" r="1" gradientUnits="userSpaceOnUse" gradientTransform="translate(204.5 68.5) rotate(114.957) scale(143.388 503.747)">
<stop stop-color="#FBAD1A"/>
<stop offset="0.434176" stop-color="#FEEEB4" stop-opacity="0.5"/>
<stop offset="0.966361" stop-color="#EECEB1" stop-opacity="0.1"/>
</radialGradient>
<linearGradient id="paint6_linear_2511_11334" x1="133.923" y1="102.643" x2="133.923" y2="132.639" gradientUnits="userSpaceOnUse">
<stop stop-color="#FBBE25"/>
<stop offset="1" stop-color="#FBB61A"/>
</linearGradient>
<linearGradient id="paint7_linear_2511_11334" x1="137.176" y1="113.818" x2="137.176" y2="143.306" gradientUnits="userSpaceOnUse">
<stop stop-color="#FBBE25"/>
<stop offset="1" stop-color="#FBB61A"/>
</linearGradient>
<linearGradient id="paint8_linear_2511_11334" x1="143.298" y1="124.998" x2="143.298" y2="154.486" gradientUnits="userSpaceOnUse">
<stop stop-color="#FBBE25"/>
<stop offset="1" stop-color="#FBB61A"/>
</linearGradient>
<linearGradient id="paint9_linear_2511_11334" x1="132.689" y1="91.4611" x2="132.689" y2="121.46" gradientUnits="userSpaceOnUse">
<stop stop-color="#FBBE25"/>
<stop offset="1" stop-color="#FBB61A"/>
</linearGradient>
<linearGradient id="paint10_linear_2511_11334" x1="131.074" y1="137.211" x2="131.074" y2="166.695" gradientUnits="userSpaceOnUse">
<stop stop-color="#F37723"/>
<stop offset="1" stop-color="#F26F20"/>
</linearGradient>
<linearGradient id="paint11_linear_2511_11334" x1="127.824" y1="126.032" x2="127.824" y2="155.52" gradientUnits="userSpaceOnUse">
<stop stop-color="#F37723"/>
<stop offset="1" stop-color="#F26F20"/>
</linearGradient>
<linearGradient id="paint12_linear_2511_11334" x1="121.976" y1="114.853" x2="121.976" y2="144.341" gradientUnits="userSpaceOnUse">
<stop stop-color="#F37723"/>
<stop offset="1" stop-color="#F26F20"/>
</linearGradient>
<linearGradient id="paint13_linear_2511_11334" x1="132.308" y1="148.386" x2="132.308" y2="177.882" gradientUnits="userSpaceOnUse">
<stop stop-color="#F37723"/>
<stop offset="1" stop-color="#F26F20"/>
</linearGradient>
<clipPath id="clip0_2511_11334">
<rect width="256" height="256" fill="white"/>
</clipPath>
</defs>
</svg>
