<?xml version="1.0" encoding="UTF-8" standalone="no"?>
<!-- Created with Inkscape (http://www.inkscape.org/) -->

<svg
   version="1.1"
   id="svg1"
   width="341.33334"
   height="341.33334"
   viewBox="0 0 341.33334 341.33334"
   sodipodi:docname="JLC.svg"
   xml:space="preserve"
   inkscape:version="1.4 (86a8ad7, 2024-10-11)"
   xmlns:inkscape="http://www.inkscape.org/namespaces/inkscape"
   xmlns:sodipodi="http://sodipodi.sourceforge.net/DTD/sodipodi-0.dtd"
   xmlns="http://www.w3.org/2000/svg"
   xmlns:svg="http://www.w3.org/2000/svg"><defs
     id="defs1"><clipPath
       clipPathUnits="userSpaceOnUse"
       id="clipPath2"><path
         d="M 0,256 H 256 V 0 H 0 Z"
         transform="translate(-104.425,-213.62161)"
         id="path2" /></clipPath><mask
       maskUnits="userSpaceOnUse"
       x="0"
       y="0"
       width="1"
       height="1"
       id="mask2"><path
         id="path3"
         d="M 17,194 H 241 V 84 H 17 Z"
         style="fill:#000000;fill-opacity:1;fill-rule:nonzero;stroke:none"
         transform="matrix(1.3333333,0,0,-1.3333333,0,341.33333)"
         clip-path="url(#clipPath4)" /><path
         d="M 104.425,213.622 C 100.056,218.927 93.544,222 86.671,222 H 29 c -6.627,0 -12,-5.373 -12,-12 V 197.863 187.8 96 c 0,-6.627 5.373,-12 12,-12 h 200 c 6.627,0 12,5.373 12,12 v 89.863 c 0,6.627 -5.373,12 -12,12 H 117.404 Z"
         transform="matrix(1.3333333,0,0,-1.3333333,0,341.33333)"
         style="fill:url(#linearGradient5);fill-rule:evenodd;stroke:none"
         opacity="1"
         id="path5"
         clip-path="url(#clipPath6)" /></mask><clipPath
       clipPathUnits="userSpaceOnUse"
       id="clipPath4"><path
         d="M 17,194 H 241 V 84 H 17 Z"
         id="path4" /></clipPath><linearGradient
       x1="0"
       y1="0"
       x2="1"
       y2="0"
       gradientUnits="userSpaceOnUse"
       gradientTransform="matrix(180.76801,-181.142,181.142,180.76801,32.581543,237.54932)"
       spreadMethod="pad"
       id="linearGradient5"><stop
         style="stop-opacity:1;stop-color:#05815d"
         offset="0"
         id="stop4" /><stop
         style="stop-opacity:1;stop-color:#0c575f"
         offset="1"
         id="stop5" /></linearGradient><clipPath
       clipPathUnits="userSpaceOnUse"
       id="clipPath6"><path
         d="M 17,194 H 241 V 84 H 17 Z"
         id="path6" /></clipPath><clipPath
       clipPathUnits="userSpaceOnUse"
       id="clipPath7"><path
         d="M 17,194 H 241 V 84 H 17 Z"
         transform="translate(-92.789005,-182)"
         id="path7" /></clipPath><clipPath
       clipPathUnits="userSpaceOnUse"
       id="clipPath9"><path
         d="M 0,256 H 256 V 0 H 0 Z"
         transform="matrix(1.3333333,0,0,-1.3333333,0,341.33333)"
         id="path9" /></clipPath><linearGradient
       x1="0"
       y1="0"
       x2="1"
       y2="0"
       gradientUnits="userSpaceOnUse"
       gradientTransform="matrix(223.99998,-147.99998,147.99998,223.99998,16.999996,194)"
       spreadMethod="pad"
       id="linearGradient11"><stop
         style="stop-color:#262626;stop-opacity:1;"
         offset="0"
         id="stop9" /><stop
         style="stop-opacity:1;stop-color:#ffcb3d"
         offset="0.953125"
         id="stop10" /><stop
         style="stop-opacity:1;stop-color:#ffcb3d"
         offset="1"
         id="stop11" /></linearGradient><linearGradient
       x1="0"
       y1="0"
       x2="1"
       y2="0"
       gradientUnits="userSpaceOnUse"
       gradientTransform="matrix(224.01749,-2.5002055,2.5002055,224.01749,16.925417,55.317421)"
       spreadMethod="pad"
       id="linearGradient13"><stop
         style="stop-opacity:1;stop-color:#ffcf4e"
         offset="0"
         id="stop12" /><stop
         style="stop-color:#4f9bba;stop-opacity:1;"
         offset="1"
         id="stop13" /></linearGradient><linearGradient
       x1="0"
       y1="0"
       x2="1"
       y2="0"
       gradientUnits="userSpaceOnUse"
       gradientTransform="matrix(224,0,0,224,17,180)"
       spreadMethod="pad"
       id="linearGradient15"><stop
         style="stop-opacity:1;stop-color:#ffecb5"
         offset="0"
         id="stop14" /><stop
         style="stop-opacity:1;stop-color:#ffde82"
         offset="1"
         id="stop15" /></linearGradient></defs><sodipodi:namedview
     id="namedview1"
     pagecolor="#ffffff"
     bordercolor="#000000"
     borderopacity="0.25"
     inkscape:showpageshadow="2"
     inkscape:pageopacity="0.0"
     inkscape:pagecheckerboard="0"
     inkscape:deskcolor="#d1d1d1"
     inkscape:zoom="2"
     inkscape:cx="211.5"
     inkscape:cy="171.25"
     inkscape:window-width="2160"
     inkscape:window-height="1406"
     inkscape:window-x="-11"
     inkscape:window-y="-11"
     inkscape:window-maximized="1"
     inkscape:current-layer="layer-MC0"><inkscape:page
       x="0"
       y="0"
       inkscape:label="1"
       id="page1"
       width="341.33334"
       height="341.33334"
       margin="61.333332 20 45.333332 22.666666"
       bleed="0" /></sodipodi:namedview><g
     id="layer-MC0"
     inkscape:groupmode="layer"
     inkscape:label="Layer 1"><path
       id="path1"
       d="m 0,0 c -4.369,5.305 -10.881,8.378 -17.754,8.378 h -57.671 c -6.627,0 -12,-5.372 -12,-12 v -12.137 -10.063 -91.8 c 0,-6.627 5.373,-12 12,-12 h 200 c 6.627,0 12,5.373 12,12 v 89.863 c 0,6.628 -5.373,12 -12,12 H 12.979 Z"
       style="fill:#82b3ff;fill-opacity:1;fill-rule:evenodd;stroke:none"
       transform="matrix(1.3333333,0,0,-1.3333333,139.23333,56.504533)"
       clip-path="url(#clipPath2)" /><g
       mask="url(#mask2)"
       id="g9"
       clip-path="url(#clipPath9)"><g
         id="g8"><path
           d="M 0,0 C 4.975,0 9.816,1.613 13.797,4.598 L 23.67,12 h 112.541 c 6.627,0 12,-5.373 12,-12 v -34 -52 c 0,-6.627 -5.373,-12 -12,-12 h -200 c -6.627,0 -12,5.373 -12,12 v 52 22 c 0,6.627 5.373,12 12,12 h 58 z"
           style="fill:#a6a1a1;fill-opacity:1;fill-rule:evenodd;stroke:none"
           transform="matrix(1.3333333,0,0,-1.3333333,123.71867,98.666667)"
           clip-path="url(#clipPath7)"
           id="path8" /></g></g><path
       id="path11"
       d="m 116.459,194 -9.873,-7.402 C 102.605,183.613 97.764,182 92.789,182 v 0 H 87 29 c -6.628,0 -12,-5.372 -12,-12 v 0 -22 -90 c 0,-6.627 5.372,-12 12,-12 v 0 h 200 c 6.627,0 12,5.373 12,12 v 0 90 34 c 0,6.627 -5.373,12 -12,12 v 0 z"
       style="fill:#82a6eb;stroke:none;fill-opacity:1"
       transform="matrix(1.3333333,0,0,-1.3333333,0,341.33333)" /><path
       id="path13"
       d="M 229,50 H 29 c -6.628,0 -12,5.372 -12,12 v 0 -4 c 0,-6.627 5.372,-12 12,-12 v 0 h 200 c 6.627,0 12,5.373 12,12 v 0 4 c 0,-6.628 -5.373,-12 -12,-12"
       transform="matrix(1.3333333,0,0,-1.3333333,0,341.33333)"
       style="fill:#308ee6;stroke:none;fill-opacity:1" /><path
       id="path15"
       d="m 116.459,194 -9.873,-7.402 C 102.605,183.613 97.764,182 92.789,182 v 0 H 87 29 c -6.628,0 -12,-5.372 -12,-12 v 0 -4 c 0,6.627 5.372,12 12,12 v 0 h 58 5.789 c 4.975,0 9.816,1.613 13.797,4.597 v 0 L 116.459,190 H 229 c 6.627,0 12,-5.372 12,-12 v 0 4 c 0,6.627 -5.373,12 -12,12 v 0 z"
       transform="matrix(1.3333333,0,0,-1.3333333,0,341.33333)"
       style="fill:#30a3d0;stroke:none;fill-opacity:0.55066079" /><path
       d="m 137.69549,214.1744 c 8.33615,0 15.18362,6.84452 15.18362,15.17702 0,8.33243 -6.84747,15.17695 -15.18362,15.17695 -8.33607,0 -15.18356,-6.84452 -15.18356,-15.17695 0,-8.3325 6.84749,-15.17702 15.18356,-15.17702 m 109.26237,-63.68374 c -13.39734,-34.81782 -52.39831,-51.7803 -86.93356,-38.09127 -5.35887,2.08309 -10.42006,4.76141 -15.18361,8.33248 -5.35887,3.86862 -9.82466,8.33244 -13.69494,13.68904 -2.08407,-0.29778 -4.46582,-0.29778 -6.54982,-0.29778 -30.069477,-0.2978 -54.184579,24.10462 -54.184579,53.86339 0,23.21188 14.885889,43.74545 36.023849,51.18513 4.16799,13.39142 16.67213,23.21182 31.26029,23.21182 18.16082,0 32.74896,-14.58176 32.74896,-32.73467 0,-1.48792 0,-2.67827 -0.29778,-4.16618 l 46.14618,-23.21189 4.46581,-2.35793 -8.93155,-19.34318 -5.0612,2.35792 -46.14623,23.21188 c -5.95437,-5.95179 -13.99271,-9.52286 -22.92424,-9.52286 -13.09956,0 -24.41282,7.73733 -29.77177,19.04565 -12.206416,-7.14214 -18.458428,-21.72392 -14.885818,-36.00813 4.465728,-17.2601 22.031088,-27.67567 39.298708,-23.21187 3.27487,0.89279 6.25206,2.08315 8.93149,3.86863 7.74066,-23.80701 33.64208,-36.60331 57.16178,-28.86598 16.67215,5.65416 28.87862,20.53355 30.66489,38.09121 0.89315,0 1.78633,0 2.38175,0 13.99275,0 25.30601,11.30837 25.30601,25.29496 0,13.09387 -10.1224,24.10463 -23.22201,25.29498 h -18.45849 v 21.72391 h 19.64936 0.89318 c 25.90143,-2.08308 44.95533,-24.99735 42.87131,-50.8875 -0.29777,-11.01077 -5.06119,-21.42635 -13.09953,-29.16361 -5.06121,-5.05898 -11.31328,-9.22523 -18.45849,-11.30833 z"
       id="Fill-17"
       style="fill:#ffffff;fill-rule:evenodd;stroke:none;stroke-width:5.69384" /></g></svg>
