<svg width="256" height="256" viewBox="0 0 256 256" fill="none" xmlns="http://www.w3.org/2000/svg">
<g clip-path="url(#clip0_2032_35431)">
<path fill-rule="evenodd" clip-rule="evenodd" d="M104.425 42.3784C100.056 37.0733 93.5437 34 86.6712 34H29C22.3726 34 17 39.3726 17 46V58.1371V68.2V160C17 166.627 22.3726 172 29 172H229C235.627 172 241 166.627 241 160V70.1371C241 63.5097 235.627 58.1371 229 58.1371H117.404L104.425 42.3784Z" fill="#E6E6E6"/>
<mask id="mask0_2032_35431" style="mask-type:alpha" maskUnits="userSpaceOnUse" x="17" y="34" width="224" height="138">
<path fill-rule="evenodd" clip-rule="evenodd" d="M104.425 42.3784C100.056 37.0733 93.5437 34 86.6712 34H29C22.3726 34 17 39.3726 17 46V58.1371V68.2V160C17 166.627 22.3726 172 29 172H229C235.627 172 241 166.627 241 160V70.1371C241 63.5097 235.627 58.1371 229 58.1371H117.404L104.425 42.3784Z" fill="url(#paint0_linear_2032_35431)"/>
</mask>
<g mask="url(#mask0_2032_35431)">
<g style="mix-blend-mode:multiply" filter="url(#filter0_f_2032_35431)">
<path fill-rule="evenodd" clip-rule="evenodd" d="M92.789 74C97.7642 74 102.605 72.3868 106.586 69.4024L116.459 62H229C235.627 62 241 67.3726 241 74V108V160C241 166.627 235.627 172 229 172H29C22.3726 172 17 166.627 17 160L17 108V86C17 79.3726 22.3726 74 29 74H87H92.789Z" fill="black" fill-opacity="0.3"/>
</g>
</g>
<g filter="url(#filter1_ii_2032_35431)">
<path fill-rule="evenodd" clip-rule="evenodd" d="M92.789 74C97.7642 74 102.605 72.3868 106.586 69.4024L116.459 62H229C235.627 62 241 67.3726 241 74V108V198C241 204.627 235.627 210 229 210H29C22.3726 210 17 204.627 17 198L17 108V86C17 79.3726 22.3726 74 29 74H87H92.789Z" fill="url(#paint1_linear_2032_35431)"/>
</g>
<path d="M114.761 105.953C100.804 103.411 89.7691 106.071 85.371 113.689C82.0891 119.374 83.0272 126.91 87.6465 134.966C87.7377 135.134 87.8614 135.281 88.0104 135.4C88.1593 135.519 88.3305 135.607 88.5138 135.659C88.6972 135.71 88.8892 135.725 89.0783 135.702C89.2674 135.679 89.45 135.618 89.6153 135.523C89.7806 135.428 89.9253 135.301 90.041 135.15C90.1566 134.998 90.2408 134.825 90.2887 134.641C90.3365 134.457 90.3471 134.264 90.3197 134.076C90.2923 133.887 90.2275 133.706 90.1292 133.543C85.9688 126.286 85.159 119.781 87.8499 115.12C91.5037 108.792 101.347 106.419 114.248 108.769C114.619 108.83 114.999 108.744 115.306 108.528C115.614 108.311 115.824 107.983 115.891 107.613C115.958 107.243 115.878 106.862 115.666 106.551C115.455 106.241 115.13 106.026 114.761 105.953ZM94.9041 144.759C100.547 150.96 107.879 156.777 116.241 161.604C136.486 173.294 158.04 176.418 168.662 169.175C168.821 169.071 168.957 168.936 169.063 168.778C169.169 168.621 169.243 168.443 169.28 168.257C169.317 168.07 169.316 167.878 169.278 167.692C169.24 167.506 169.166 167.329 169.058 167.172C168.951 167.015 168.814 166.881 168.655 166.778C168.495 166.674 168.317 166.604 168.129 166.57C167.943 166.536 167.75 166.54 167.565 166.581C167.38 166.622 167.204 166.7 167.049 166.81C157.542 173.292 137.068 170.325 117.672 159.126C109.561 154.443 102.461 148.81 97.0214 142.832C96.8951 142.692 96.7424 142.579 96.5722 142.498C96.4019 142.417 96.2174 142.371 96.0291 142.362C95.8409 142.352 95.6528 142.381 95.4754 142.444C95.298 142.508 95.135 142.606 94.9956 142.733C94.8563 142.86 94.7433 143.013 94.6633 143.183C94.5832 143.354 94.5376 143.538 94.5291 143.727C94.5206 143.915 94.5493 144.103 94.6137 144.28C94.6781 144.457 94.7767 144.62 94.9041 144.759Z" fill="#9FEAF9"/>
<path d="M165.272 143.017C174.411 132.221 177.601 121.363 173.212 113.761C169.983 108.167 163.156 105.214 154.082 105.096C153.706 105.096 153.345 105.245 153.078 105.509C152.811 105.774 152.658 106.133 152.653 106.509C152.648 106.885 152.791 107.247 153.052 107.519C153.313 107.79 153.669 107.948 154.045 107.958C162.205 108.064 168.088 110.609 170.734 115.192C174.379 121.507 171.534 131.189 163.087 141.168C162.963 141.311 162.869 141.477 162.81 141.657C162.751 141.837 162.728 142.026 162.742 142.215C162.757 142.404 162.809 142.588 162.895 142.756C162.981 142.925 163.1 143.075 163.245 143.197C163.389 143.319 163.556 143.412 163.737 143.469C163.918 143.526 164.107 143.547 164.296 143.53C164.484 143.513 164.668 143.46 164.835 143.371C165.003 143.283 165.151 143.163 165.272 143.017ZM141.786 106.428C133.523 108.199 124.728 111.66 116.282 116.537C95.3819 128.603 81.7485 146.396 83.6419 159.297C83.6671 159.485 83.7294 159.666 83.8251 159.829C83.9207 159.993 84.0479 160.136 84.1992 160.25C84.3505 160.364 84.5229 160.446 84.7065 160.494C84.89 160.54 85.081 160.551 85.2684 160.523C85.4558 160.495 85.636 160.431 85.7982 160.333C85.9606 160.236 86.1019 160.107 86.2141 159.954C86.3262 159.801 86.4069 159.628 86.4515 159.444C86.4962 159.26 86.5038 159.069 86.474 158.881C84.7925 147.426 97.716 130.561 117.713 119.016C125.907 114.285 134.423 110.933 142.386 109.227C142.572 109.19 142.749 109.117 142.907 109.011C143.065 108.905 143.2 108.769 143.304 108.61C143.409 108.452 143.48 108.274 143.515 108.087C143.551 107.901 143.548 107.709 143.508 107.523C143.469 107.337 143.392 107.161 143.284 107.005C143.175 106.849 143.037 106.717 142.877 106.615C142.716 106.513 142.537 106.444 142.35 106.412C142.163 106.38 141.971 106.385 141.786 106.428Z" fill="#9FEAF9"/>
<path d="M107.927 168.243C112.706 181.585 120.523 189.8 129.312 189.8C135.723 189.8 141.654 185.43 146.279 177.737C146.38 177.576 146.446 177.396 146.477 177.209C146.507 177.021 146.499 176.83 146.455 176.646C146.41 176.461 146.33 176.288 146.217 176.135C146.105 175.982 145.964 175.852 145.801 175.755C145.639 175.657 145.458 175.593 145.27 175.565C145.083 175.538 144.891 175.548 144.707 175.595C144.524 175.642 144.351 175.726 144.2 175.84C144.048 175.954 143.922 176.098 143.826 176.262C139.669 183.176 134.564 186.938 129.312 186.938C122.011 186.938 115.039 179.611 110.622 167.279C110.562 167.098 110.466 166.931 110.34 166.789C110.215 166.645 110.061 166.529 109.89 166.446C109.719 166.363 109.533 166.314 109.343 166.304C109.152 166.294 108.962 166.322 108.783 166.386C108.603 166.45 108.439 166.549 108.298 166.678C108.158 166.806 108.045 166.962 107.965 167.135C107.885 167.308 107.841 167.495 107.835 167.685C107.828 167.876 107.859 168.066 107.927 168.243ZM151.572 165.633C154.046 157.729 155.374 148.611 155.374 139.109C155.374 115.398 147.075 94.959 135.255 89.7107C134.91 89.5661 134.522 89.5625 134.174 89.7008C133.826 89.839 133.546 90.108 133.394 90.4501C133.242 90.7923 133.23 91.1804 133.361 91.5311C133.492 91.8819 133.755 92.1674 134.094 92.3266C144.636 97.0081 152.511 116.406 152.511 139.109C152.511 148.327 151.225 157.157 148.84 164.778C148.781 164.959 148.758 165.149 148.773 165.338C148.788 165.527 148.84 165.711 148.927 165.88C149.014 166.049 149.133 166.198 149.278 166.321C149.424 166.443 149.592 166.535 149.773 166.591C149.954 166.648 150.144 166.668 150.333 166.65C150.522 166.633 150.705 166.578 150.873 166.489C151.04 166.4 151.188 166.278 151.308 166.131C151.428 165.984 151.517 165.815 151.572 165.633ZM178.526 164.231C178.526 160.448 175.46 157.382 171.676 157.382C167.893 157.382 164.827 160.448 164.827 164.231C164.827 168.015 167.893 171.081 171.676 171.081C175.46 171.081 178.526 168.015 178.526 164.231ZM175.664 164.231C175.664 164.755 175.561 165.274 175.36 165.757C175.16 166.241 174.867 166.681 174.496 167.051C174.126 167.421 173.686 167.715 173.202 167.916C172.719 168.116 172.2 168.219 171.676 168.219C171.153 168.219 170.634 168.116 170.151 167.916C169.667 167.715 169.227 167.421 168.857 167.051C168.486 166.681 168.193 166.241 167.993 165.757C167.792 165.274 167.689 164.755 167.689 164.231C167.689 163.174 168.109 162.16 168.857 161.412C169.605 160.664 170.619 160.244 171.676 160.244C172.734 160.244 173.748 160.664 174.496 161.412C175.244 162.16 175.664 163.174 175.664 164.231ZM86.8497 171.081C90.6334 171.081 93.7 168.015 93.7 164.231C93.7 160.448 90.6329 157.382 86.8497 157.382C83.0672 157.382 80 160.448 80 164.231C80 168.015 83.0672 171.081 86.8497 171.081ZM86.8497 168.219C85.7922 168.219 84.7779 167.799 84.0301 167.051C83.2823 166.304 82.8622 165.289 82.8622 164.231C82.8622 163.174 83.2823 162.16 84.0301 161.412C84.7779 160.664 85.7922 160.244 86.8497 160.244C87.9073 160.244 88.9216 160.664 89.6694 161.412C90.4172 162.16 90.8373 163.174 90.8373 164.231C90.8373 165.289 90.4172 166.304 89.6694 167.051C88.9216 167.799 87.9073 168.219 86.8497 168.219Z" fill="#9FEAF9"/>
<path d="M129.311 96.6995C133.094 96.6995 136.16 93.6329 136.16 89.8497C136.16 86.0666 133.094 83 129.311 83C125.528 83 122.461 86.0666 122.461 89.8497C122.461 93.6329 125.528 96.6995 129.311 96.6995ZM129.311 93.8373C128.253 93.8373 127.239 93.4172 126.491 92.6694C125.743 91.9216 125.323 90.9073 125.323 89.8497C125.323 88.7921 125.743 87.7779 126.491 87.0301C127.239 86.2823 128.253 85.8622 129.311 85.8622C130.368 85.8622 131.382 86.2823 132.13 87.0301C132.878 87.7779 133.298 88.7921 133.298 89.8497C133.298 90.9073 132.878 91.9216 132.13 92.6694C131.382 93.4172 130.368 93.8373 129.311 93.8373ZM130.357 143.954C127.681 144.532 125.046 142.832 124.467 140.157C124.189 138.872 124.433 137.53 125.145 136.425C125.858 135.321 126.979 134.544 128.264 134.266C130.94 133.688 133.575 135.388 134.155 138.064C134.733 140.739 133.033 143.375 130.357 143.954Z" fill="#9FEAF9"/>
</g>
<defs>
<filter id="filter0_f_2032_35431" x="-20" y="25" width="298" height="184" filterUnits="userSpaceOnUse" color-interpolation-filters="sRGB">
<feFlood flood-opacity="0" result="BackgroundImageFix"/>
<feBlend mode="normal" in="SourceGraphic" in2="BackgroundImageFix" result="shape"/>
<feGaussianBlur stdDeviation="18.5" result="effect1_foregroundBlur_2032_35431"/>
</filter>
<filter id="filter1_ii_2032_35431" x="17" y="62" width="224" height="148" filterUnits="userSpaceOnUse" color-interpolation-filters="sRGB">
<feFlood flood-opacity="0" result="BackgroundImageFix"/>
<feBlend mode="normal" in="SourceGraphic" in2="BackgroundImageFix" result="shape"/>
<feColorMatrix in="SourceAlpha" type="matrix" values="0 0 0 0 0 0 0 0 0 0 0 0 0 0 0 0 0 0 127 0" result="hardAlpha"/>
<feOffset dy="-4"/>
<feComposite in2="hardAlpha" operator="arithmetic" k2="-1" k3="1"/>
<feColorMatrix type="matrix" values="0 0 0 0 0 0 0 0 0 0 0 0 0 0 0 0 0 0 0.25 0"/>
<feBlend mode="normal" in2="shape" result="effect1_innerShadow_2032_35431"/>
<feColorMatrix in="SourceAlpha" type="matrix" values="0 0 0 0 0 0 0 0 0 0 0 0 0 0 0 0 0 0 127 0" result="hardAlpha"/>
<feOffset dy="4"/>
<feComposite in2="hardAlpha" operator="arithmetic" k2="-1" k3="1"/>
<feColorMatrix type="matrix" values="0 0 0 0 1 0 0 0 0 1 0 0 0 0 1 0 0 0 0.25 0"/>
<feBlend mode="normal" in2="effect1_innerShadow_2032_35431" result="effect2_innerShadow_2032_35431"/>
</filter>
<linearGradient id="paint0_linear_2032_35431" x1="17" y1="34" x2="197.768" y2="215.142" gradientUnits="userSpaceOnUse">
<stop stop-color="#05815D"/>
<stop offset="1" stop-color="#0C575F"/>
</linearGradient>
<linearGradient id="paint1_linear_2032_35431" x1="17" y1="62" x2="241" y2="210" gradientUnits="userSpaceOnUse">
<stop stop-color="#5F585E"/>
<stop offset="1" stop-color="#010101"/>
</linearGradient>
<clipPath id="clip0_2032_35431">
<rect width="256" height="256" fill="white"/>
</clipPath>
</defs>
</svg>
