<svg width="256" height="256" viewBox="0 0 256 256" fill="none" xmlns="http://www.w3.org/2000/svg">
<path fill-rule="evenodd" clip-rule="evenodd" d="M104.425 42.3784C100.056 37.0733 93.5437 34 86.6712 34H29C22.3726 34 17 39.3726 17 46V58.1371V68.2V160C17 166.627 22.3726 172 29 172H229C235.627 172 241 166.627 241 160V70.1371C241 63.5097 235.627 58.1371 229 58.1371H117.404L104.425 42.3784Z" fill="#B2B2B2"/>
<mask id="mask0_635_14828" style="mask-type:alpha" maskUnits="userSpaceOnUse" x="17" y="34" width="224" height="138">
<path fill-rule="evenodd" clip-rule="evenodd" d="M104.425 42.3784C100.056 37.0733 93.5437 34 86.6712 34H29C22.3726 34 17 39.3726 17 46V58.1371V68.2V160C17 166.627 22.3726 172 29 172H229C235.627 172 241 166.627 241 160V70.1371C241 63.5097 235.627 58.1371 229 58.1371H117.404L104.425 42.3784Z" fill="url(#paint0_linear_635_14828)"/>
</mask>
<g mask="url(#mask0_635_14828)">
<g style="mix-blend-mode:multiply" filter="url(#filter0_f_635_14828)">
<path fill-rule="evenodd" clip-rule="evenodd" d="M92.789 74C97.7642 74 102.605 72.3868 106.586 69.4024L116.459 62H229C235.627 62 241 67.3726 241 74V108V160C241 166.627 235.627 172 229 172H29C22.3726 172 17 166.627 17 160L17 108V86C17 79.3726 22.3726 74 29 74H87H92.789Z" fill="black" fill-opacity="0.3"/>
</g>
</g>
<g filter="url(#filter1_ii_635_14828)">
<path fill-rule="evenodd" clip-rule="evenodd" d="M92.789 74C97.7642 74 102.605 72.3868 106.586 69.4024L116.459 62H229C235.627 62 241 67.3726 241 74V108V198C241 204.627 235.627 210 229 210H29C22.3726 210 17 204.627 17 198L17 108V86C17 79.3726 22.3726 74 29 74H87H92.789Z" fill="url(#paint1_linear_635_14828)"/>
</g>
<path d="M129 92C104.704 92 85 111.704 85 136C85 160.296 104.704 180 129 180C153.296 180 173 160.296 173 136C173 111.704 153.296 92 129 92ZM128.92 96.196H128.928C128.952 96.1991 128.976 96.1991 129 96.196C147.192 96.196 162.536 108.404 167.28 125.064C163.2 133.452 157.468 140.93 150.428 147.048C147.04 149.98 143.336 152.58 139.268 154.416C135.196 156.248 130.724 157.292 126.28 157.04C123.107 156.85 120.01 155.987 117.196 154.508C124.902 150.28 131.783 144.698 137.508 138.028C141.332 133.564 144.672 128.468 145.968 122.696C146.628 119.808 146.728 116.776 146.128 113.868C145.543 110.931 144.16 108.212 142.132 106.008C140.106 103.895 137.54 102.376 134.712 101.616C131.901 100.868 128.958 100.761 126.1 101.304C120.408 102.348 115.328 105.648 111.28 109.736C104.132 116.936 99.72 127.096 100.532 137.236C100.94 142.304 102.628 147.28 105.54 151.452C106.112 152.272 106.748 153.044 107.408 153.788C103.4 155.174 99.2654 156.164 95.064 156.744C91.3778 150.719 89.3618 143.822 89.2232 136.761C89.0846 129.699 90.8283 122.728 94.2753 116.564C97.7223 110.399 102.748 105.263 108.837 101.684C114.925 98.1042 121.857 96.2101 128.92 96.196ZM129.2 104.276C129.216 104.272 129.264 104.284 129.248 104.28C132.016 104.28 134.796 105.124 136.992 106.788C138.967 108.316 140.452 110.387 141.264 112.748C142.079 115.121 142.342 117.65 142.032 120.14C141.46 125.112 138.952 129.692 135.9 133.712C130.484 140.824 123.276 146.524 115.264 150.512C114.504 150.892 113.72 151.26 112.936 151.608C111.262 150.123 109.843 148.373 108.736 146.428C106.376 142.252 105.6 137.292 106.056 132.5C106.52 127.704 108.16 123.076 110.384 118.78C112.956 113.804 116.448 109.108 121.312 106.42C123.722 105.055 126.435 104.317 129.204 104.272L129.2 104.276ZM168.52 131.516C168.688 132.984 168.804 134.472 168.804 135.984C168.804 157.972 150.996 175.796 129.004 175.796C123.22 175.798 117.506 174.535 112.261 172.096C107.017 169.657 102.369 166.101 98.644 161.676C102.992 160.656 107.237 159.237 111.324 157.436C113.168 158.82 115.192 159.972 117.352 160.796C123.712 163.236 130.92 162.876 137.336 160.656C143.748 158.436 149.42 154.46 154.36 149.836C160.024 144.521 164.804 138.337 168.52 131.516Z" fill="black"/>
<defs>
<filter id="filter0_f_635_14828" x="-20" y="25" width="298" height="184" filterUnits="userSpaceOnUse" color-interpolation-filters="sRGB">
<feFlood flood-opacity="0" result="BackgroundImageFix"/>
<feBlend mode="normal" in="SourceGraphic" in2="BackgroundImageFix" result="shape"/>
<feGaussianBlur stdDeviation="18.5" result="effect1_foregroundBlur_635_14828"/>
</filter>
<filter id="filter1_ii_635_14828" x="17" y="62" width="224" height="148" filterUnits="userSpaceOnUse" color-interpolation-filters="sRGB">
<feFlood flood-opacity="0" result="BackgroundImageFix"/>
<feBlend mode="normal" in="SourceGraphic" in2="BackgroundImageFix" result="shape"/>
<feColorMatrix in="SourceAlpha" type="matrix" values="0 0 0 0 0 0 0 0 0 0 0 0 0 0 0 0 0 0 127 0" result="hardAlpha"/>
<feOffset dy="4"/>
<feComposite in2="hardAlpha" operator="arithmetic" k2="-1" k3="1"/>
<feColorMatrix type="matrix" values="0 0 0 0 1 0 0 0 0 1 0 0 0 0 1 0 0 0 0.25 0"/>
<feBlend mode="normal" in2="shape" result="effect1_innerShadow_635_14828"/>
<feColorMatrix in="SourceAlpha" type="matrix" values="0 0 0 0 0 0 0 0 0 0 0 0 0 0 0 0 0 0 127 0" result="hardAlpha"/>
<feOffset dy="-4"/>
<feComposite in2="hardAlpha" operator="arithmetic" k2="-1" k3="1"/>
<feColorMatrix type="matrix" values="0 0 0 0 0 0 0 0 0 0 0 0 0 0 0 0 0 0 0.9 0"/>
<feBlend mode="soft-light" in2="effect1_innerShadow_635_14828" result="effect2_innerShadow_635_14828"/>
</filter>
<linearGradient id="paint0_linear_635_14828" x1="17" y1="34" x2="197.768" y2="215.142" gradientUnits="userSpaceOnUse">
<stop stop-color="#05815D"/>
<stop offset="1" stop-color="#0C575F"/>
</linearGradient>
<linearGradient id="paint1_linear_635_14828" x1="17" y1="62" x2="241" y2="210" gradientUnits="userSpaceOnUse">
<stop stop-color="#FCFCFC"/>
<stop offset="1" stop-color="#CECECE"/>
</linearGradient>
</defs>
</svg>
