<svg width="256" height="256" viewBox="0 0 256 256" fill="none" xmlns="http://www.w3.org/2000/svg">
<path fill-rule="evenodd" clip-rule="evenodd" d="M104.425 42.3784C100.056 37.0733 93.5437 34 86.6712 34H29C22.3726 34 17 39.3726 17 46V58.1371V68.2V160C17 166.627 22.3726 172 29 172H229C235.627 172 241 166.627 241 160V70.1371C241 63.5097 235.627 58.1371 229 58.1371H117.404L104.425 42.3784Z" fill="#AFAFAF"/>
<mask id="mask0_641_15261" style="mask-type:alpha" maskUnits="userSpaceOnUse" x="17" y="34" width="224" height="138">
<path fill-rule="evenodd" clip-rule="evenodd" d="M104.425 42.3784C100.056 37.0733 93.5437 34 86.6712 34H29C22.3726 34 17 39.3726 17 46V58.1371V68.2V160C17 166.627 22.3726 172 29 172H229C235.627 172 241 166.627 241 160V70.1371C241 63.5097 235.627 58.1371 229 58.1371H117.404L104.425 42.3784Z" fill="url(#paint0_linear_641_15261)"/>
</mask>
<g mask="url(#mask0_641_15261)">
<g style="mix-blend-mode:multiply" filter="url(#filter0_f_641_15261)">
<path fill-rule="evenodd" clip-rule="evenodd" d="M92.789 74C97.7642 74 102.605 72.3868 106.586 69.4024L116.459 62H229C235.627 62 241 67.3726 241 74V108V160C241 166.627 235.627 172 229 172H29C22.3726 172 17 166.627 17 160L17 108V86C17 79.3726 22.3726 74 29 74H87H92.789Z" fill="black" fill-opacity="0.3"/>
</g>
</g>
<g filter="url(#filter1_ii_641_15261)">
<path fill-rule="evenodd" clip-rule="evenodd" d="M92.789 74C97.7642 74 102.605 72.3868 106.586 69.4024L116.459 62H229C235.627 62 241 67.3726 241 74V108V198C241 204.627 235.627 210 229 210H29C22.3726 210 17 204.627 17 198L17 108V86C17 79.3726 22.3726 74 29 74H87H92.789Z" fill="url(#paint1_linear_641_15261)"/>
</g>
<g filter="url(#filter2_d_641_15261)">
<path d="M173.364 159.941C173.364 147.758 163.488 137.882 151.305 137.882C140.947 137.882 132.257 145.021 129.886 154.647C124.75 152.529 124.378 146.118 124.834 143.176C119.893 171.412 140.717 182 151.305 182C163.488 182 173.364 172.124 173.364 159.941Z" fill="url(#paint2_radial_641_15261)"/>
<path d="M151.441 92C139.258 92 129.382 101.876 129.382 114.059C129.382 124.417 136.521 133.107 146.147 135.478C144.029 140.614 137.618 140.986 134.676 140.529C162.912 145.471 173.5 124.647 173.5 114.059C173.5 101.876 163.624 92 151.441 92Z" fill="url(#paint3_radial_641_15261)"/>
<path d="M83.5 114.059C83.5 126.242 93.3761 136.118 105.559 136.118C115.917 136.118 124.607 128.979 126.978 119.353C132.114 121.471 132.486 127.882 132.029 130.824C136.971 102.588 116.147 92 105.559 92C93.3761 92 83.5 101.876 83.5 114.059Z" fill="url(#paint4_radial_641_15261)"/>
<path fill-rule="evenodd" clip-rule="evenodd" d="M126.925 165.311C124.479 174.829 115.84 181.863 105.559 181.863C93.3761 181.863 83.5 171.987 83.5 159.805C83.5 149.216 94.0882 128.393 122.324 133.334C119.382 132.878 112.971 133.25 110.853 138.385C116.457 139.766 121.218 143.288 124.218 148.034C123.689 154.956 124.813 160.671 126.925 165.311Z" fill="url(#paint5_radial_641_15261)"/>
</g>
<defs>
<filter id="filter0_f_641_15261" x="-20" y="25" width="298" height="184" filterUnits="userSpaceOnUse" color-interpolation-filters="sRGB">
<feFlood flood-opacity="0" result="BackgroundImageFix"/>
<feBlend mode="normal" in="SourceGraphic" in2="BackgroundImageFix" result="shape"/>
<feGaussianBlur stdDeviation="18.5" result="effect1_foregroundBlur_641_15261"/>
</filter>
<filter id="filter1_ii_641_15261" x="17" y="62" width="224" height="148" filterUnits="userSpaceOnUse" color-interpolation-filters="sRGB">
<feFlood flood-opacity="0" result="BackgroundImageFix"/>
<feBlend mode="normal" in="SourceGraphic" in2="BackgroundImageFix" result="shape"/>
<feColorMatrix in="SourceAlpha" type="matrix" values="0 0 0 0 0 0 0 0 0 0 0 0 0 0 0 0 0 0 127 0" result="hardAlpha"/>
<feOffset dy="4"/>
<feComposite in2="hardAlpha" operator="arithmetic" k2="-1" k3="1"/>
<feColorMatrix type="matrix" values="0 0 0 0 1 0 0 0 0 1 0 0 0 0 1 0 0 0 0.25 0"/>
<feBlend mode="normal" in2="shape" result="effect1_innerShadow_641_15261"/>
<feColorMatrix in="SourceAlpha" type="matrix" values="0 0 0 0 0 0 0 0 0 0 0 0 0 0 0 0 0 0 127 0" result="hardAlpha"/>
<feOffset dy="-4"/>
<feComposite in2="hardAlpha" operator="arithmetic" k2="-1" k3="1"/>
<feColorMatrix type="matrix" values="0 0 0 0 0 0 0 0 0 0 0 0 0 0 0 0 0 0 0.9 0"/>
<feBlend mode="soft-light" in2="effect1_innerShadow_641_15261" result="effect2_innerShadow_641_15261"/>
</filter>
<filter id="filter2_d_641_15261" x="79.5" y="92" width="98" height="98" filterUnits="userSpaceOnUse" color-interpolation-filters="sRGB">
<feFlood flood-opacity="0" result="BackgroundImageFix"/>
<feColorMatrix in="SourceAlpha" type="matrix" values="0 0 0 0 0 0 0 0 0 0 0 0 0 0 0 0 0 0 127 0" result="hardAlpha"/>
<feOffset dy="4"/>
<feGaussianBlur stdDeviation="2"/>
<feComposite in2="hardAlpha" operator="out"/>
<feColorMatrix type="matrix" values="0 0 0 0 0 0 0 0 0 0 0 0 0 0 0 0 0 0 0.25 0"/>
<feBlend mode="normal" in2="BackgroundImageFix" result="effect1_dropShadow_641_15261"/>
<feBlend mode="normal" in="SourceGraphic" in2="effect1_dropShadow_641_15261" result="shape"/>
</filter>
<linearGradient id="paint0_linear_641_15261" x1="17" y1="34" x2="197.768" y2="215.142" gradientUnits="userSpaceOnUse">
<stop stop-color="#05815D"/>
<stop offset="1" stop-color="#0C575F"/>
</linearGradient>
<linearGradient id="paint1_linear_641_15261" x1="17" y1="62" x2="241" y2="210" gradientUnits="userSpaceOnUse">
<stop stop-color="white"/>
<stop offset="1" stop-color="#C3C3C3"/>
</linearGradient>
<radialGradient id="paint2_radial_641_15261" cx="0" cy="0" r="1" gradientUnits="userSpaceOnUse" gradientTransform="translate(139.834 149.353) rotate(-53.1301) scale(35.2941 39.4205)">
<stop stop-color="#FAEB67"/>
<stop offset="0.708333" stop-color="#FFB814"/>
<stop offset="1" stop-color="#F26322"/>
</radialGradient>
<radialGradient id="paint3_radial_641_15261" cx="0" cy="0" r="1" gradientUnits="userSpaceOnUse" gradientTransform="translate(140.853 125.529) rotate(-143.13) scale(35.2941 39.4205)">
<stop stop-color="#C8DF60"/>
<stop offset="1" stop-color="#3F7334"/>
</radialGradient>
<radialGradient id="paint4_radial_641_15261" cx="0" cy="0" r="1" gradientUnits="userSpaceOnUse" gradientTransform="translate(117.029 124.647) rotate(126.87) scale(35.2941 39.4205)">
<stop stop-color="#F77B2D"/>
<stop offset="1" stop-color="#D0171F"/>
</radialGradient>
<radialGradient id="paint5_radial_641_15261" cx="0" cy="0" r="1" gradientUnits="userSpaceOnUse" gradientTransform="translate(116.147 148.334) rotate(36.8699) scale(35.2941 39.4205)">
<stop stop-color="#85CDDA"/>
<stop offset="1" stop-color="#11479C"/>
</radialGradient>
</defs>
</svg>
