<svg xmlns="http://www.w3.org/2000/svg" xmlns:xlink="http://www.w3.org/1999/xlink" width="256" height="256" viewBox="0 0 256 256">
  <defs>
    <style>
      .cls-1, .cls-3, .cls-5, .cls-6, .cls-7, .cls-8 {
        fill-rule: evenodd;
      }

      .cls-1 {
        fill: url(#linear-gradient);
      }

      .cls-2 {
        isolation: isolate;
      }

      .cls-3 {
        fill: url(#linear-gradient-2);
      }

      .cls-4 {
        mask: url(#mask);
      }

      .cls-5 {
        fill: #a6a1a1;
      }

      .cls-6 {
        fill: url(#linear-gradient-3);
      }

      .cls-7 {
        fill: #0f0f11;
      }

      .cls-8 {
        fill: #606060;
      }

      .cls-9 {
        opacity: 0.52;
        fill: url(#linear-gradient-4);
      }

      .cls-10 {
        fill: url(#linear-gradient-5);
      }

      .cls-11, .cls-15 {
        mix-blend-mode: lighten;
      }

      .cls-12 {
        fill: url(#linear-gradient-6);
      }

      .cls-13 {
        fill: url(#radial-gradient);
      }

      .cls-14 {
        fill: url(#radial-gradient-2);
      }

      .cls-15 {
        fill: url(#linear-gradient-7);
      }

      .cls-16 {
        mix-blend-mode: darken;
        fill: url(#linear-gradient-8);
      }
    </style>
    <linearGradient id="linear-gradient" x1="32.58" y1="239.55" x2="213.35" y2="58.41" gradientTransform="matrix(1, 0, 0, -1, 0, 258)" gradientUnits="userSpaceOnUse">
      <stop offset="0" stop-color="#05815d"/>
      <stop offset="1" stop-color="#0c575f"/>
    </linearGradient>
    <linearGradient id="linear-gradient-2" x1="129" y1="31.57" x2="129" y2="115.59" gradientUnits="userSpaceOnUse">
      <stop offset="0" stop-color="#404047"/>
      <stop offset="1" stop-color="#1b1b1f"/>
    </linearGradient>
    <mask id="mask" x="17" y="34" width="224" height="138" maskUnits="userSpaceOnUse">
      <g id="mask0_501_11930" data-name="mask0 501 11930">
        <path class="cls-1" d="M104.43,42.38A23,23,0,0,0,86.67,34H29A12,12,0,0,0,17,46V160a12,12,0,0,0,12,12H229a12,12,0,0,0,12-12V70.14a12,12,0,0,0-12-12H117.4Z"/>
      </g>
    </mask>
    <linearGradient id="linear-gradient-3" x1="129" y1="66.29" x2="129" y2="212.16" xlink:href="#linear-gradient-2"/>
    <linearGradient id="linear-gradient-4" x1="71.82" y1="138.6" x2="188.35" y2="138.6" gradientUnits="userSpaceOnUse">
      <stop offset="0" stop-color="#131316"/>
      <stop offset="1" stop-color="#242428"/>
    </linearGradient>
    <linearGradient id="linear-gradient-5" x1="97.11" y1="105.94" x2="177.6" y2="181.6" gradientUnits="userSpaceOnUse">
      <stop offset="0" stop-color="#b8f96b"/>
      <stop offset="0.04" stop-color="#a4e466"/>
      <stop offset="0.08" stop-color="#94d362"/>
      <stop offset="0.1" stop-color="#87cd5c"/>
      <stop offset="0.14" stop-color="#71c452"/>
      <stop offset="0.18" stop-color="#64bf4c"/>
      <stop offset="0.22" stop-color="#60bd4a"/>
      <stop offset="0.34" stop-color="#56ba46"/>
      <stop offset="0.52" stop-color="#4fb844"/>
      <stop offset="1" stop-color="#4db743"/>
    </linearGradient>
    <linearGradient id="linear-gradient-6" x1="154.52" y1="103" x2="131.03" y2="133.39" gradientUnits="userSpaceOnUse">
      <stop offset="0.02" stop-color="#b3ed77"/>
      <stop offset="0.15" stop-color="#94d362"/>
      <stop offset="0.2" stop-color="#8dd05f" stop-opacity="0.87"/>
      <stop offset="0.32" stop-color="#7cc957" stop-opacity="0.54"/>
      <stop offset="0.48" stop-color="#61bd4a" stop-opacity="0.02"/>
      <stop offset="0.49" stop-color="#60bd4a" stop-opacity="0"/>
      <stop offset="0.55" stop-color="#5cbc49" stop-opacity="0.19"/>
      <stop offset="0.66" stop-color="#57ba47" stop-opacity="0.47"/>
      <stop offset="0.75" stop-color="#53b945" stop-opacity="0.7"/>
      <stop offset="0.84" stop-color="#50b844" stop-opacity="0.87"/>
      <stop offset="0.92" stop-color="#4eb743" stop-opacity="0.96"/>
      <stop offset="0.98" stop-color="#4db743"/>
    </linearGradient>
    <radialGradient id="radial-gradient" cx="156.11" cy="121.37" r="7.03" gradientTransform="matrix(-0.64, -1, 3.02, -1.74, -132.6, 510.1)" gradientUnits="userSpaceOnUse">
      <stop offset="0.52" stop-color="#459c39"/>
      <stop offset="0.91" stop-color="#5ab743"/>
    </radialGradient>
    <radialGradient id="radial-gradient-2" cx="445.68" cy="-60.58" r="4.85" gradientTransform="matrix(0.88, 0.04, 0.02, 2.51, -268.85, 269.5)" gradientUnits="userSpaceOnUse">
      <stop offset="0.36" stop-color="#459c39"/>
      <stop offset="0.91" stop-color="#5ab743"/>
    </radialGradient>
    <linearGradient id="linear-gradient-7" x1="131.14" y1="135.39" x2="115.72" y2="135.27" gradientUnits="userSpaceOnUse">
      <stop offset="0" stop-color="#f8fff5"/>
      <stop offset="0.31" stop-color="#f7fef3"/>
      <stop offset="0.43" stop-color="#f3fded"/>
      <stop offset="0.52" stop-color="#f0fce9"/>
      <stop offset="0.61" stop-color="#e9fade"/>
      <stop offset="0.69" stop-color="#dcf5cb"/>
      <stop offset="0.77" stop-color="#caefb0"/>
      <stop offset="0.78" stop-color="#c6eeaa"/>
      <stop offset="1" stop-color="#c0eca2"/>
    </linearGradient>
    <linearGradient id="linear-gradient-8" x1="125.48" y1="128.51" x2="137.75" y2="149.37" gradientUnits="userSpaceOnUse">
      <stop offset="0" stop-color="#f8fff5"/>
      <stop offset="0.31" stop-color="#f7fff3"/>
      <stop offset="0.46" stop-color="#f1fdeb"/>
      <stop offset="0.57" stop-color="#e9fade"/>
      <stop offset="0.67" stop-color="#dcf6cc"/>
      <stop offset="0.76" stop-color="#cdf0b4"/>
      <stop offset="0.78" stop-color="#c6eeaa"/>
      <stop offset="1" stop-color="#c0eca2"/>
    </linearGradient>
  </defs>
  <g class="cls-2">
    <g id="Layer_1" data-name="Layer 1">
      <path class="cls-3" d="M104.43,42.38A23,23,0,0,0,86.67,34H29A12,12,0,0,0,17,46V160a12,12,0,0,0,12,12H229a12,12,0,0,0,12-12V70.14a12,12,0,0,0-12-12H117.4Z"/>
      <g class="cls-4">
        <path class="cls-5" d="M92.79,74a23,23,0,0,0,13.8-4.6l9.87-7.4H229a12,12,0,0,1,12,12v86a12,12,0,0,1-12,12H29a12,12,0,0,1-12-12V86A12,12,0,0,1,29,74H92.79Z"/>
      </g>
      <path class="cls-6" d="M92.79,74a23,23,0,0,0,13.8-4.6l9.87-7.4H229a12,12,0,0,1,12,12V198a12,12,0,0,1-12,12H29a12,12,0,0,1-12-12V86A12,12,0,0,1,29,74H92.79Z"/>
      <path class="cls-7" d="M17,194v4a12,12,0,0,0,12,12H229a12,12,0,0,0,12-12v-4a12,12,0,0,1-12,12H29A12,12,0,0,1,17,194Z"/>
      <path class="cls-8" d="M106.59,69.4A23,23,0,0,1,92.79,74H29A12,12,0,0,0,17,86v4A12,12,0,0,1,29,78H92.79a23,23,0,0,0,13.8-4.6l9.87-7.4H229a12,12,0,0,1,12,12V74a12,12,0,0,0-12-12H116.46Z"/>
      <polyline class="cls-9" points="188.35 135.2 162.14 157.32 166.11 161.61 133.64 196.43 107.82 168.68 102.46 174.89 71.82 141.25 97.86 115.27 93.14 110.39 124.3 80.77 151.49 105.91 156.35 101.34 188.35 135.2"/>
      <g id="Emby">
        <g id="layer1">
          <g id="path3427">
            <path class="cls-10" d="M120.67,178.3c-7-7.11-12.83-12.92-12.87-12.92s-1.12,1-2.41,2.29L103.05,170l-6.22-6.27c-3.42-3.44-10-10.08-14.64-14.76l-8.42-8.51,13-12.85,13-12.85-2.35-2.36L95,110l14.76-14.61c8.11-8,14.78-14.62,14.81-14.62s5.8,5.79,12.81,12.87,12.8,12.89,12.86,12.91a28.58,28.58,0,0,0,2.43-2.29l2.33-2.32,1.11,1.11c11.46,11.55,28.14,28.46,28.11,28.51s-5.82,5.81-12.89,12.81-12.89,12.78-12.9,12.82,1,1.14,2.27,2.44L163,162l-2.39,2.37c-3.27,3.25-25.26,25-26.32,26l-.86.84L120.67,178.3Z"/>
            <g class="cls-11">
              <path class="cls-12" d="M120.67,178.3c-7-7.11-12.83-12.92-12.87-12.92s-1.12,1-2.41,2.29L103.05,170l-6.22-6.27c-3.42-3.44-10-10.08-14.64-14.76l-8.42-8.51,13-12.85,13-12.85-2.35-2.36L95,110l14.76-14.61c8.11-8,14.78-14.62,14.81-14.62s5.8,5.79,12.81,12.87,12.8,12.89,12.86,12.91a28.58,28.58,0,0,0,2.43-2.29l2.33-2.32,1.11,1.11c11.46,11.55,28.14,28.46,28.11,28.51s-5.82,5.81-12.89,12.81-12.89,12.78-12.9,12.82,1,1.14,2.27,2.44L163,162l-2.39,2.37c-3.27,3.25-25.26,25-26.32,26l-.86.84L120.67,178.3Z"/>
            </g>
          </g>
        </g>
        <polygon class="cls-13" points="153.61 131.32 164.57 137.13 114.86 165.25 114.86 150.8 153.61 131.32"/>
        <polygon class="cls-14" points="122.63 151.46 114.86 155.34 114.91 115.27 124.24 121.23 122.63 151.46"/>
        <g>
          <path class="cls-15" d="M150.63,133.13,120.91,116a2.51,2.51,0,0,0-3.76,2.18v34.31a2.51,2.51,0,0,0,3.76,2.18l29.72-17.16A2.51,2.51,0,0,0,150.63,133.13Z"/>
          <path class="cls-16" d="M150.63,133.13,120.91,116a2.51,2.51,0,0,0-3.76,2.18v34.31a2.51,2.51,0,0,0,3.76,2.18l29.72-17.16A2.51,2.51,0,0,0,150.63,133.13Z"/>
        </g>
      </g>
    </g>
  </g>
</svg>
