<svg xmlns="http://www.w3.org/2000/svg" xmlns:xlink="http://www.w3.org/1999/xlink" fill="none" version="1.1" width="256" height="256" viewBox="0 0 256 256"><defs><clipPath id="master_svg0_13_1229"><rect x="0" y="0" width="256" height="256" rx="0"/></clipPath><mask id="master_svg1_13_1235" style="mask-type:luminance" maskUnits="userSpaceOnUse" x="17" y="34" width="224" height="138"><path d="M104.425003,42.3783989C100.056,37.073299399999996,93.543701,34,86.671204,34L29,34C22.3726006,34,17,39.3726006,17,46L17,58.137100000000004L17,68.199997L17,160C17,166.627,22.3726006,172,29,172L229,172C235.627,172,241,166.627,241,160L241,70.1371C241,63.509701,235.627,58.137100000000004,229,58.137100000000004L117.404,58.137100000000004L104.425003,42.3783989Z" fill-rule="evenodd" fill="#1D1E21" fill-opacity="1" style="mix-blend-mode:passthrough"/></mask><filter id="master_svg2_13_1233" filterUnits="objectBoundingBox" color-interpolation-filters="sRGB" x="-0.33035714285714285" y="-0.5362318840579711" width="1.6607142857142858" height="2.072463768115942"><feFlood flood-opacity="0" result="BackgroundImageFix"/><feBlend mode="normal" in="SourceGraphic" in2="BackgroundImageFix" result="shape"/><feGaussianBlur stdDeviation="18.5" result="effect1_foregroundBlur"/></filter><linearGradient x1="-0.03118896484375" y1="0" x2="1.4024671995998657" y2="0.6105594654458093" id="master_svg3_10_2362"><stop offset="0%" stop-color="#303237" stop-opacity="1"/><stop offset="100%" stop-color="#0A0B0D" stop-opacity="1"/></linearGradient><linearGradient x1="0" y1="0.5" x2="1" y2="0.5" id="master_svg4_10_4610"><stop offset="0%" stop-color="#636363" stop-opacity="1"/><stop offset="100%" stop-color="#ACACAC" stop-opacity="1"/></linearGradient><linearGradient x1="0" y1="0.5" x2="1" y2="0.5" id="master_svg5_10_4776"><stop offset="0%" stop-color="#404040" stop-opacity="1"/><stop offset="100%" stop-color="#111111" stop-opacity="1"/><stop offset="100%" stop-color="#FFFFFF" stop-opacity="1"/></linearGradient></defs><g clip-path="url(#master_svg0_13_1229)"><path d="M104.425003,42.3783989C100.056,37.073299399999996,93.543701,34,86.671204,34L29,34C22.3726006,34,17,39.3726006,17,46L17,58.137100000000004L17,68.199997L17,160C17,166.627,22.3726006,172,29,172L229,172C235.627,172,241,166.627,241,160L241,70.1371C241,63.509701,235.627,58.137100000000004,229,58.137100000000004L117.404,58.137100000000004L104.425003,42.3783989Z" fill-rule="evenodd" fill="#26282C" fill-opacity="1" style="mix-blend-mode:passthrough"/><g mask="url(#master_svg1_13_1235)"><g style="mix-blend-mode:multiply" filter="url(#master_svg2_13_1233)"><path d="M92.789001,49.054545C97.764198,49.054545,102.605003,47.030716,106.585999,43.286644L116.459,34L229,34C235.627,34,241,40.7401667,241,49.054545L241,91.709091L241,156.94546C241,165.25932,235.627,172,229,172L29,172C22.3726006,172,17,165.25932,17,156.94546L17,91.709091L17,64.109091C17,55.794712000000004,22.3726006,49.054545,29,49.054545L87,49.054545L92.789001,49.054545Z" fill-rule="evenodd" fill="#000000" fill-opacity="1" style="mix-blend-mode:passthrough"/></g></g><path d="M92.789001,74C97.764198,74,102.605003,72.386803,106.585999,69.4023972L116.459,62L229,62C235.627,62,241,67.3725967,241,74L241,108L241,198C241,204.627,235.627,210,229,210L29,210C22.3726006,210,17,204.627,17,198L17,108L17,86C17,79.372597,22.3726006,74,29,74L87,74L92.789001,74Z" fill-rule="evenodd" fill="url(#master_svg3_10_2362)" fill-opacity="1" style="mix-blend-mode:passthrough"/><path d="M106.589996,69.4000015C102.609993,72.380005,97.769997,74,92.789993,74L29,74C22.3699989,74,17,79.370003,17,86L17,90C17,83.370003,22.3699989,78,29,78L92.790001,78C97.770004,78,102.610001,76.389999,106.590004,73.400002L116.460007,66L229,66C235.63,66,241,71.3700027,241,78L241,74C241,67.3700027,235.63,62,229,62L116.459999,62L106.589996,69.4000015Z" fill-rule="evenodd" fill="url(#master_svg4_10_4610)" fill-opacity="1" style="mix-blend-mode:passthrough"/><path d="M17,194L17,198C17,204.630005,22.3699989,210,29,210L229,210C235.63,210,241,204.630005,241,198L241,194C241,200.6300049,235.63,206,229,206L29,206C22.3699989,206,17,200.6300049,17,194Z" fill-rule="evenodd" fill="url(#master_svg5_10_4776)" fill-opacity="1" style="mix-blend-mode:passthrough"/><path d="M63.3322268,138.510752L63.3322268,155.896881L54,155.896881L54,123.028199311L63.5280046,123.028199311L76.351658,140.16052200000001L76.514809,140.097067L76.514809,123.028199311L77.23267200000001,123.028199311C82.322979,123.028199311,87.445915,122.964747228,92.536213,123.028199311C97.626518,123.091651395,101.998962,124.7731584,105.523014,128.3899803C108.166061,131.055007,109.536518,134.29111699999999,109.895454,137.971396C110.25438700000001,141.651676,109.699669,144.443604,108.068165,147.394178C105.718784,151.708984,101.933693,154.247107,97.104424,155.389267C95.574127,155.739101,94.010052,155.930531,92.438316,155.960339C87.282745,156.023796,82.094555,155.99206900000001,76.938988,155.99206900000001L76.319016,155.99206900000001L63.4953785,138.447294L63.3322268,138.510752ZM86.205967,147.521082C88.78374500000001,147.425907,91.328903,147.711443,93.84142299999999,147.267273C97.8223,146.569288,100.07378800000001,144.253254,100.432709,140.35089299999999C100.69375600000001,137.495509,99.84536399999999,135.020843,97.398109,133.212426C96.061703,132.2178545,94.44556800000001,131.6424236,92.76462599999999,131.5626431C90.708923,131.4357386,88.685856,131.4991865,86.630154,131.4674673L86.20595900000001,131.5626431L86.205967,147.521082Z" fill="#FFFFFF" fill-opacity="1" style="mix-blend-mode:passthrough"/><path d="M176,155.928619L176,123.059927795L185.1558819,123.059927795L185.1558819,147.45763399999998L198.37749300000002,147.45763399999998L198.37749300000002,123.028199323L199.145828,123.028199323C204.043905,123.028199323,208.974007,122.964747217,213.872086,123.028199323C218.770161,123.091651425,223.444157,124.8683394,226.901623,128.6755233C229.49472,131.5309172,230.775257,134.925651,230.96735,138.732835C231.145164,141.572306,230.594482,144.410149,229.36667599999998,146.981731C227.061687,151.486908,223.284092,154.183659,218.418018,155.389263C216.919514,155.754787,215.383232,155.946438,213.840076,155.960342C201.450811,156.02379200000001,189.029538,155.99206900000001,176.64027196,155.99206900000001L176,155.99206900000001M207.693464,147.584536L211.439056,147.584536C212.724388,147.569489,214.007473,147.474123,215.280689,147.298998C218.353985,146.696198,220.62696499999998,145.078142,221.39527900000002,141.905487C221.61393,140.9702,221.68946499999998,140.007645,221.619381,139.050098C221.491314,135.972623,219.986691,133.751764,217.169479,132.4192553C216.11455899999999,131.8969603,214.955101,131.6151228,213.776047,131.5943632C211.919258,131.5309076,210.094482,131.5309076,208.237698,131.5309076L207.693464,131.6260834L207.693464,147.584536Z" fill="#FFFFFF" fill-opacity="1" style="mix-blend-mode:passthrough"/><path d="M36.2038212,131.4411192C36.2038212,131.7596512,36.1719742,132.0144739,36.1719742,132.2374506L36.1719742,135.582047L47.414015,135.582047L47.414015,143.25869L36.2356691,143.25869L36.2356691,147.527025L52,147.527025L52,156L27,156L27,123L51.681529999999995,123L51.681529999999995,131.4411192L36.2038212,131.4411192Z" fill="#FFFFFF" fill-opacity="1" style="mix-blend-mode:passthrough"/><path d="M149,156L149,123L173.713367,123L173.713367,131.4411192L158.2356691,131.4411192L158.2356691,135.613901L169.382166,135.613901L169.382166,143.290545L158.2356691,143.290545L158.2356691,147.590736L174,147.590736L174,156L149,156Z" fill="#FFFFFF" fill-opacity="1" style="mix-blend-mode:passthrough"/><path d="M136,131.4411192L120.5065765,131.4411192L120.5065765,136.282822L132.414476,136.282822L132.414476,144.81949600000002L120.440794,144.81949600000002L120.440794,156L111,156L111,123L136,123L136,131.4411192Z" fill="#FFFFFF" fill-opacity="1" style="mix-blend-mode:passthrough"/><rect x="137" y="123" width="10" height="33" rx="0" fill="#FFFFFF" fill-opacity="1" style="mix-blend-mode:passthrough"/><path d="M63,159L64.6179783,159L67.2471924,161.7222188L67.3483167,161.7222188L67.3483167,159.055550467L69,159.055550467L69,163.9722209L67.3820219,163.9722209L64.8202225,161.3055522L64.6516831,161.3611112L64.6516831,164L63,164L63,159Z" fill="#FFFFFF" fill-opacity="1" style="mix-blend-mode:passthrough"/><path d="M83,163.9810743L83,159.035301555C84.0468118,159.062779747,85.0936236,158.87044078,86.1087117,159.17268413C87.3615956,159.57139885,88.13551,160.662133,87.9802809,161.8104315C87.8479314,162.9126365,86.8674951,163.7958379,85.6011653,163.9535961C84.7353622,164.0042763,83.86697924,164.0134497,83,163.9810743ZM84.5860769,162.7995875C85.2839499,162.909492,85.8232148,162.7446311,86.1404307,162.222579C86.4600759,161.773679,86.4476748,161.2044604,86.108707,160.7663271C85.7973919,160.313067,85.1646986,160.1075633,84.5860721,160.2717532L84.5860769,162.7995875Z" fill="#FFFFFF" fill-opacity="1" style="mix-blend-mode:passthrough"/><path d="M158.2333374,162.0129089C158.8333335,162.6566107,159.3666692,163.2723317,160,164L158.0000002,164L156.7999982,162.4886947L156.6666666,162.4886947L156.6666666,163.9720111L155,163.9720111L155,159.018277759C156.0666708,159.018277759,157.1333313,158.962299988,158.1666667,159.046266641C159.2000022,159.1302333,159.2999983,159.63399905,159.4000044,160.2497118C159.5000105,160.8654244,159.3333335,161.4531569,158.6333418,161.8169951L158.2333374,162.0129089ZM156.7000021,160.1097844L156.7000021,161.1173244C157.2666728,161.2292714,157.6333315,161.0893354,157.7333374,160.6135589C157.8333437,160.1377819,157.2666728,159.99783748,156.7000021,160.1097844Z" fill="#FFFFFF" fill-opacity="1" style="mix-blend-mode:passthrough"/><path d="M101.0093466658,159L102.8439785,159C102.8874555,159.24593028,102.9124675,159.49401885,102.918866,159.74272829L102.918866,162.4553232C102.9563098,163.1657667,103.330725,163.5532732,104.00466779999999,163.5532732C104.6786101,163.5532732,105.05302520000001,163.1657567,105.0904694,162.4876182C105.1279125,161.8094788,105.0904694,160.7438138,105.1279125,159.90420157C105.12238310000001,159.61319476,105.1348829,159.3221485,105.1653562,159.032294676L106.9251127,159.032294676C106.9702687,159.27804759,106.9952922,159.52623469,107,159.77502292L107,162.4230285C107,163.4241047,106.5506973,164.2637167,105.4648957,164.6835179C104.3309553,165.1848688,102.9647882,165.0845942,101.94539589,164.42518C101.62327868,164.2139587,101.38728109,163.9199557,101.27145323,163.585568C100.82215053,162.0678067,101.084245689,160.5500556,101.0093466658,159Z" fill="#FFFFFF" fill-opacity="1" style="mix-blend-mode:passthrough"/><path d="M124.6964912,159.52870351C124.472846,159.90623105,124.2492013,160.2522867,124.0628328,160.629814C123.3919108,160.5039748,122.7209768,159.96914589,122.0873303,160.7871156L122.7955289,161.1960957L123.541003,161.4163218C124.5473986,161.6994624,124.9573998,162.1713669,124.9946761,162.9264119C125.0618343,163.7492204,124.4882936,164.5135698,123.5782793,164.8140302C122.3530853,165.1968765,120.97766161,164.9792147,120,164.2477484L120.67092246,163.1781006C122.5718844,163.8073058,122.646425,163.8073058,123.093714,163.0522609C122.8788395,162.9156401,122.6548309,162.7895892,122.4227915,162.6747341L121.7518694,162.4859698C120.59638178,162.1399045,120.1863686,161.6994624,120.2236446,160.8814927C120.21576168,160.008644,120.92947686,159.2490959,121.9382379,159.056799058C122.8954129,158.900380827,123.8870316,159.070038721,124.6964912,159.52870351Z" fill="#FFFFFF" fill-opacity="1" style="mix-blend-mode:passthrough"/><path d="M209.243675,160.6387026C208.112865,160.197633,207.9938245,160.22914,207.7855132,160.9537537C208.0552702,161.0986459,208.3335998,161.2249238,208.6187406,161.3318191C209.6900306,161.7098842,210.0769024,162.2139587,209.987613,163.159112C209.8983235,164.1042657,209.3626966,164.7658749,208.3806601,164.9549079C207.5388598,165.1050301,206.67604482,164.8766646,206,164.3248053L206.56541407,163.159112C207.9938065,163.8522286,208.3509092,163.8207216,208.4104292,162.9070749L207.3688905,162.4660051C206.44639194,162.1194468,206.14880942,161.7098842,206.23808053,160.7017168C206.29794577,159.85372835,206.90242845,159.16153488,207.6962422,159.031949315C208.4255953,158.921160288,209.1678443,159.10078023,209.7793198,159.53603309L209.243675,160.6387026Z" fill="#FFFFFF" fill-opacity="1" style="mix-blend-mode:passthrough"/><path d="M189,164L189,159L192,159L192,160.0674113L190.4854314,160.1797689L190.4854314,160.8539324L191.8834877,160.9101156L191.8834877,162.0056183L190.4562945,162.0898845L190.4562945,162.8202226L191.9708629,162.8202226L191.9708629,164L189,164Z" fill="#FFFFFF" fill-opacity="1" style="mix-blend-mode:passthrough"/><path d="M40,161L40,162L27.065491438,162C27.065112323,161.86221361,27.043035552,161.72526652,27,161.59375536L27,161.0000095367068L40,161Z" fill="#FFFFFF" fill-opacity="1" style="mix-blend-mode:passthrough"/><path d="M217,161.8839255L217,161L229.967263,161C229.967263,161.26517585,230,161.55981767,230,161.82499343C229.443319,162.0312464,217.78588319,162.0607034,217,161.8839255Z" fill="#FFFFFF" fill-opacity="1" style="mix-blend-mode:passthrough"/><path d="M139.1475399,160.229049L138,160.0893842L138,159L142,159L142,160.0893842L140.8196712,160.229049L140.8196712,164L139.1475399,164L139.1475399,160.229049Z" fill="#FFFFFF" fill-opacity="1" style="mix-blend-mode:passthrough"/><rect x="174" y="159" width="1" height="5" rx="0" fill="#FFFFFF" fill-opacity="1" style="mix-blend-mode:passthrough"/><rect x="47" y="159" width="2" height="5" rx="0" fill="#FFFFFF" fill-opacity="1" style="mix-blend-mode:passthrough"/></g></svg>