<?xml version="1.0" encoding="UTF-8" standalone="no"?>
<svg
   width="256"
   height="256"
   viewBox="0 0 256 256"
   fill="none"
   version="1.1"
   id="svg14"
   sodipodi:docname="enpass.svg"
   xml:space="preserve"
   inkscape:version="1.3.2 (091e20e, 2023-11-25, custom)"
   xmlns:inkscape="http://www.inkscape.org/namespaces/inkscape"
   xmlns:sodipodi="http://sodipodi.sourceforge.net/DTD/sodipodi-0.dtd"
   xmlns="http://www.w3.org/2000/svg"
   xmlns:svg="http://www.w3.org/2000/svg"><sodipodi:namedview
     id="namedview14"
     pagecolor="#ffffff"
     bordercolor="#666666"
     borderopacity="1.0"
     inkscape:showpageshadow="2"
     inkscape:pageopacity="0.0"
     inkscape:pagecheckerboard="0"
     inkscape:deskcolor="#d1d1d1"
     inkscape:zoom="2.682034"
     inkscape:cx="141.49709"
     inkscape:cy="68.60465"
     inkscape:window-width="2400"
     inkscape:window-height="1494"
     inkscape:window-x="-11"
     inkscape:window-y="-11"
     inkscape:window-maximized="1"
     inkscape:current-layer="svg14" /><path
     fill-rule="evenodd"
     clip-rule="evenodd"
     d="M104.425 42.3784C100.056 37.0733 93.5437 34 86.6712 34H29C22.3726 34 17 39.3726 17 46V58.1371V68.2V160C17 166.627 22.3726 172 29 172H229C235.627 172 241 166.627 241 160V70.1371C241 63.5097 235.627 58.1371 229 58.1371H117.404L104.425 42.3784Z"
     fill="#F74005"
     id="path1"
     style="fill:#13479d;fill-opacity:1" /><mask
     id="mask0_2031_33936"
     style="mask-type:alpha"
     maskUnits="userSpaceOnUse"
     x="17"
     y="34"
     width="224"
     height="138"><path
       fill-rule="evenodd"
       clip-rule="evenodd"
       d="M104.425 42.3784C100.056 37.0733 93.5437 34 86.6712 34H29C22.3726 34 17 39.3726 17 46V58.1371V68.2V160C17 166.627 22.3726 172 29 172H229C235.627 172 241 166.627 241 160V70.1371C241 63.5097 235.627 58.1371 229 58.1371H117.404L104.425 42.3784Z"
       fill="url(#paint0_linear_2031_33936)"
       id="path2" /></mask><g
     mask="url(#mask0_2031_33936)"
     id="g4"><g
       style="mix-blend-mode:multiply"
       filter="url(#filter0_f_2031_33936)"
       id="g3"><path
         fill-rule="evenodd"
         clip-rule="evenodd"
         d="M92.789 74C97.7642 74 102.605 72.3868 106.586 69.4024L116.459 62H229C235.627 62 241 67.3726 241 74V108V160C241 166.627 235.627 172 229 172H29C22.3726 172 17 166.627 17 160L17 108V86C17 79.3726 22.3726 74 29 74H87H92.789Z"
         fill="black"
         fill-opacity="0.3"
         id="path3" /></g></g><g
     filter="url(#filter1_ii_2031_33936)"
     id="g5"
     style="fill:#3360e6;fill-opacity:1"><path
       fill-rule="evenodd"
       clip-rule="evenodd"
       d="M92.789 74C97.7642 74 102.605 72.3868 106.586 69.4024L116.459 62H229C235.627 62 241 67.3726 241 74V108V198C241 204.627 235.627 210 229 210H29C22.3726 210 17 204.627 17 198L17 108V86C17 79.3726 22.3726 74 29 74H87H92.789Z"
       fill="url(#paint1_linear_2031_33936)"
       id="path4"
       style="fill:#3360e6;fill-opacity:1" /></g><mask
     id="mask1_2031_33936"
     style="mask-type:luminance"
     maskUnits="userSpaceOnUse"
     x="89"
     y="88"
     width="81"
     height="97"><path
       d="M169.312 88H89V184.604H169.312V88Z"
       fill="white"
       id="path5" /></mask><defs
     id="defs14"><filter
       id="filter0_f_2031_33936"
       x="-20"
       y="25"
       width="298"
       height="184"
       filterUnits="userSpaceOnUse"
       color-interpolation-filters="sRGB"><feFlood
         flood-opacity="0"
         result="BackgroundImageFix"
         id="feFlood7" /><feBlend
         mode="normal"
         in="SourceGraphic"
         in2="BackgroundImageFix"
         result="shape"
         id="feBlend7" /><feGaussianBlur
         stdDeviation="18.5"
         result="effect1_foregroundBlur_2031_33936"
         id="feGaussianBlur7" /></filter><filter
       id="filter1_ii_2031_33936"
       x="17"
       y="62"
       width="224"
       height="148"
       filterUnits="userSpaceOnUse"
       color-interpolation-filters="sRGB"><feFlood
         flood-opacity="0"
         result="BackgroundImageFix"
         id="feFlood8" /><feBlend
         mode="normal"
         in="SourceGraphic"
         in2="BackgroundImageFix"
         result="shape"
         id="feBlend8" /><feColorMatrix
         in="SourceAlpha"
         type="matrix"
         values="0 0 0 0 0 0 0 0 0 0 0 0 0 0 0 0 0 0 127 0"
         result="hardAlpha"
         id="feColorMatrix8" /><feOffset
         dy="4"
         id="feOffset8" /><feComposite
         in2="hardAlpha"
         operator="arithmetic"
         k2="-1"
         k3="1"
         id="feComposite8" /><feColorMatrix
         type="matrix"
         values="0 0 0 0 1 0 0 0 0 1 0 0 0 0 1 0 0 0 0.25 0"
         id="feColorMatrix9" /><feBlend
         mode="normal"
         in2="shape"
         result="effect1_innerShadow_2031_33936"
         id="feBlend9" /><feColorMatrix
         in="SourceAlpha"
         type="matrix"
         values="0 0 0 0 0 0 0 0 0 0 0 0 0 0 0 0 0 0 127 0"
         result="hardAlpha"
         id="feColorMatrix10" /><feOffset
         dy="-4"
         id="feOffset10" /><feComposite
         in2="hardAlpha"
         operator="arithmetic"
         k2="-1"
         k3="1"
         id="feComposite10" /><feColorMatrix
         type="matrix"
         values="0 0 0 0 0 0 0 0 0 0 0 0 0 0 0 0 0 0 0.9 0"
         id="feColorMatrix11" /><feBlend
         mode="soft-light"
         in2="effect1_innerShadow_2031_33936"
         result="effect2_innerShadow_2031_33936"
         id="feBlend11" /></filter><linearGradient
       id="paint0_linear_2031_33936"
       x1="17"
       y1="34"
       x2="197.768"
       y2="215.142"
       gradientUnits="userSpaceOnUse"><stop
         stop-color="#05815D"
         id="stop11" /><stop
         offset="1"
         stop-color="#0C575F"
         id="stop12" /></linearGradient><linearGradient
       id="paint1_linear_2031_33936"
       x1="17"
       y1="62"
       x2="241"
       y2="210"
       gradientUnits="userSpaceOnUse"><stop
         stop-color="#FF480E"
         id="stop13" /><stop
         offset="1"
         stop-color="#F63F04"
         id="stop14" /></linearGradient><style
       id="style1">.a{fill:none;stroke:#000000;stroke-linecap:round;stroke-linejoin:round;}</style></defs><path
     id="path1-5"
     style="fill:#ffffff;fill-opacity:1;stroke:none;stroke-width:16.6667;stroke-opacity:1"
     class="a"
     d="M 96.813235,101.30557 A 13.813116,13.813116 0 0 0 83.208018,117.50688 L 92.171969,168.576 A 13.813116,13.813116 0 0 0 105.77717,180 h 44.4457 a 13.813116,13.813116 0 0 0 13.60521,-11.424 l 8.96395,-51.06939 a 13.813116,13.813116 0 0 0 -13.60522,-16.20104 z m 33.657525,16.06392 a 15.067217,15.067217 0 0 1 12.59372,14.8658 15.060756,15.060756 0 0 1 -7.91404,13.26066 v 16.05446 a 2.5848243,2.5848243 0 0 1 -2.58474,2.58472 h -9.1319 a 2.5848243,2.5848243 0 0 1 -2.58474,-2.58472 v -16.05446 a 15.067217,15.067217 0 0 1 9.6217,-28.12646 z" /></svg>
