<svg width="256" height="256" viewBox="0 0 256 256" fill="none" xmlns="http://www.w3.org/2000/svg">
<path d="M85.6709 34C92.5434 34 99.0567 37.0729 103.426 42.3779L116.403 58.1367H228C234.627 58.1367 240 63.5095 240 70.1367V160C240 166.627 234.627 172 228 172H28C21.3726 172 16 166.627 16 160V46C16 39.3726 21.3726 34 28 34H85.6709Z" fill="#8B0E2D"/>
<mask id="mask0_607_212" style="mask-type:alpha" maskUnits="userSpaceOnUse" x="16" y="34" width="224" height="138">
<path d="M85.6709 34C92.5434 34 99.0567 37.0729 103.426 42.3779L116.403 58.1367H228C234.627 58.1367 240 63.5095 240 70.1367V160C240 166.627 234.627 172 228 172H28C21.3726 172 16 166.627 16 160V46C16 39.3726 21.3726 34 28 34H85.6709Z" fill="url(#paint0_linear_607_212)"/>
</mask>
<g mask="url(#mask0_607_212)">
<g filter="url(#filter0_f_607_212)">
<path d="M240 160C240 166.627 234.627 172 228 172H28C21.3726 172 16 166.627 16 160V86C16 79.3726 21.3726 74 28 74H91.79C96.7649 73.9999 101.605 72.3865 105.586 69.4023L115.46 62H228C234.627 62 240 67.3726 240 74V160Z" fill="black" fill-opacity="0.3"/>
</g>
</g>
<g filter="url(#filter1_ii_607_212)">
<path d="M240 198C240 204.627 234.627 210 228 210H28C21.3726 210 16 204.627 16 198V86C16 79.3726 21.3726 74 28 74H91.79C96.7649 73.9999 101.605 72.3865 105.586 69.4023L115.46 62H228C234.627 62 240 67.3726 240 74V198Z" fill="#CD1543"/>
</g>
<path d="M165.292 105.68H151.435L149.661 114.042H163.513L165.292 105.68Z" fill="white"/>
<path d="M57.2892 107.98L48 153.518H94.3274L91.6038 166.32H105.459L108.866 150.308H108.998C110.793 152.923 115.066 154.952 121.208 154.952C131.718 154.952 139.828 149.538 143.707 142.045L141.273 153.518H155.128L157.838 140.769C157.907 150.418 165.599 154.952 179.14 154.952C194.408 154.952 202.479 149.406 206.784 139.624H192.127C190.169 143.758 186.348 145.808 181.338 145.808C174.675 145.808 171.651 142.214 173.009 135.808C174.372 129.403 179.061 125.809 185.535 125.809H186.022L186.482 125.822L186.943 125.848L187.377 125.888L187.798 125.94L188.206 125.993L188.6 126.059L189.337 126.216L189.679 126.322L190.008 126.427L190.324 126.545L190.627 126.664L190.903 126.795L191.179 126.94L191.429 127.098L191.666 127.256L191.89 127.427L192.1 127.611L192.311 127.809L192.495 128.006L192.811 128.427L192.956 128.651L193.087 128.887L193.206 129.124L193.298 129.374L193.39 129.637L193.469 129.901L193.535 130.177L193.613 130.756H207.981C208.45 120.383 200.032 116.664 187.285 116.664C174.096 116.664 164.109 121.419 159.904 131.019L162.654 118.098H148.799L146.247 130.098C145.647 121.772 139.313 117.177 129.103 117.177C123.482 117.177 118.15 119.201 114.445 122.796H114.314L115.313 118.098H101.853L96.472 143.453H65.6836L67.1572 135.506H94.6431L96.6957 125.835H69.223L70.6966 118.046H101.88L104.011 107.98H57.2892ZM123.721 126.848C130.063 126.848 132.85 129.995 131.602 135.874L131.484 136.413L131.339 136.94L131.181 137.453L130.997 137.953L130.813 138.427L130.602 138.887L130.379 139.334L130.142 139.769L129.879 140.177L129.616 140.571L129.326 140.953L129.01 141.308L128.695 141.65L128.366 141.979L128.01 142.295L127.655 142.584L127.274 142.861L126.879 143.124L126.471 143.361L126.05 143.584L125.616 143.795L125.155 143.979L124.695 144.15L124.208 144.308L123.721 144.44L123.208 144.558L122.695 144.663L122.155 144.742L121.603 144.808L121.05 144.847L120.471 144.874L119.879 144.887C113.406 144.887 110.764 141.365 111.932 135.874C113.1 130.385 117.253 126.848 123.721 126.848Z" fill="white"/>
<defs>
<filter id="filter0_f_607_212" x="-21" y="25" width="298" height="184" filterUnits="userSpaceOnUse" color-interpolation-filters="sRGB">
<feFlood flood-opacity="0" result="BackgroundImageFix"/>
<feBlend mode="normal" in="SourceGraphic" in2="BackgroundImageFix" result="shape"/>
<feGaussianBlur stdDeviation="18.5" result="effect1_foregroundBlur_607_212"/>
</filter>
<filter id="filter1_ii_607_212" x="16" y="62" width="224" height="148" filterUnits="userSpaceOnUse" color-interpolation-filters="sRGB">
<feFlood flood-opacity="0" result="BackgroundImageFix"/>
<feBlend mode="normal" in="SourceGraphic" in2="BackgroundImageFix" result="shape"/>
<feColorMatrix in="SourceAlpha" type="matrix" values="0 0 0 0 0 0 0 0 0 0 0 0 0 0 0 0 0 0 127 0" result="hardAlpha"/>
<feOffset dy="4"/>
<feComposite in2="hardAlpha" operator="arithmetic" k2="-1" k3="1"/>
<feColorMatrix type="matrix" values="0 0 0 0 1 0 0 0 0 1 0 0 0 0 1 0 0 0 0.25 0"/>
<feBlend mode="normal" in2="shape" result="effect1_innerShadow_607_212"/>
<feColorMatrix in="SourceAlpha" type="matrix" values="0 0 0 0 0 0 0 0 0 0 0 0 0 0 0 0 0 0 127 0" result="hardAlpha"/>
<feOffset dy="-4"/>
<feComposite in2="hardAlpha" operator="arithmetic" k2="-1" k3="1"/>
<feColorMatrix type="matrix" values="0 0 0 0 0 0 0 0 0 0 0 0 0 0 0 0 0 0 0.9 0"/>
<feBlend mode="soft-light" in2="effect1_innerShadow_607_212" result="effect2_innerShadow_607_212"/>
</filter>
<linearGradient id="paint0_linear_607_212" x1="16" y1="34" x2="196.768" y2="215.142" gradientUnits="userSpaceOnUse">
<stop stop-color="#05815D"/>
<stop offset="1" stop-color="#0C575F"/>
</linearGradient>
</defs>
</svg>
