<svg width="256" height="256" viewBox="0 0 256 256" fill="none" xmlns="http://www.w3.org/2000/svg">
<g clip-path="url(#clip0_493_1724)">
<path d="M86.6709 34C93.5434 34 100.057 37.0729 104.426 42.3779L117.403 58.1367H229C235.627 58.1367 241 63.5095 241 70.1367V160C241 166.627 235.627 172 229 172H29C22.3726 172 17 166.627 17 160V46C17 39.3726 22.3726 34 29 34H86.6709Z" fill="#452222"/>
<mask id="mask0_493_1724" style="mask-type:alpha" maskUnits="userSpaceOnUse" x="17" y="34" width="224" height="138">
<path d="M86.6709 34C93.5434 34 100.057 37.0729 104.426 42.3779L117.403 58.1367H229C235.627 58.1367 241 63.5095 241 70.1367V160C241 166.627 235.627 172 229 172H29C22.3726 172 17 166.627 17 160V46C17 39.3726 22.3726 34 29 34H86.6709Z" fill="url(#paint0_linear_493_1724)"/>
</mask>
<g mask="url(#mask0_493_1724)">
<g filter="url(#filter0_f_493_1724)">
<path d="M241 160C241 166.627 235.627 172 229 172H29C22.3726 172 17 166.627 17 160V86C17 79.3726 22.3726 74 29 74H92.79C97.7649 73.9999 102.605 72.3865 106.586 69.4023L116.46 62H229C235.627 62 241 67.3726 241 74V160Z" fill="black" fill-opacity="0.3"/>
</g>
</g>
<g filter="url(#filter1_ii_493_1724)">
<path d="M241 198C241 204.627 235.627 210 229 210H29C22.3726 210 17 204.627 17 198V86C17 79.3726 22.3726 74 29 74H92.79C97.7649 73.9999 102.605 72.3865 106.586 69.4023L116.46 62H229C235.627 62 241 67.3726 241 74V198Z" fill="url(#paint1_linear_493_1724)"/>
</g>
<g clip-path="url(#clip1_493_1724)">
<path d="M108.078 149.961C108.078 152.144 108.148 154.331 108.059 156.511C107.956 159.04 107.941 161.57 107.903 164.099C107.896 164.576 107.7 164.77 107.243 164.769C103.354 164.767 99.4642 164.764 95.5747 164.769C94.9329 164.77 94.8926 164.356 94.8935 163.875C94.8984 161.096 94.8966 158.317 94.8966 155.538C94.8962 147.546 94.8948 139.555 94.8953 131.563C94.8953 130.37 94.8984 130.371 96.0712 130.374C97.1049 130.377 98.1391 130.376 99.1728 130.377C99.5608 130.377 99.9182 130.372 99.9288 129.821C99.939 129.277 99.609 129.243 99.2038 129.245C98.0469 129.251 96.8892 129.224 95.7328 129.255C95.1446 129.271 94.8851 129.09 94.8891 128.464C94.909 125.489 94.8882 122.513 94.9033 119.538C94.9086 118.42 95.4073 118.007 96.681 118.006C105.962 118.004 115.242 118.003 124.523 118.006C126.874 118.007 126.542 117.769 126.546 120.063C126.557 128.769 126.55 137.474 126.55 146.18C126.55 147.709 125.833 148.419 124.283 148.427C123.594 148.431 122.904 148.445 122.215 148.423C121.687 148.407 121.497 148.557 121.676 149.114C122.461 151.547 123.224 153.986 123.988 156.426C124.781 158.958 125.562 161.494 126.359 164.026C126.541 164.605 126.306 164.776 125.757 164.775C121.498 164.767 117.239 164.764 112.981 164.778C112.381 164.78 112.093 164.525 111.949 163.963C111.081 160.559 110.196 157.159 109.312 153.758C108.979 152.479 108.633 151.203 108.293 149.925C108.222 149.937 108.15 149.949 108.078 149.961ZM113.795 133.195C113.795 131.477 113.78 129.758 113.803 128.04C113.811 127.496 113.61 127.301 113.071 127.31C111.647 127.334 110.22 127.336 108.796 127.312C108.237 127.302 108.079 127.538 108.081 128.061C108.095 131.497 108.095 134.934 108.081 138.371C108.079 138.909 108.278 139.118 108.816 139.11C110.168 139.09 111.521 139.075 112.871 139.117C113.564 139.138 113.83 138.928 113.811 138.202C113.765 136.535 113.796 134.865 113.795 133.195Z" fill="white"/>
<path d="M194.783 135.316C194.783 140.159 194.761 145.002 194.797 149.845C194.807 151.265 194.624 152.575 194.005 153.897C192.288 157.57 190.691 161.299 189.075 165.018C188.837 165.566 188.507 165.726 187.945 165.705C184.875 165.594 181.804 165.502 178.734 165.416C177.604 165.385 176.473 165.396 175.343 165.373C173.034 165.326 170.725 165.251 168.416 165.226C167.853 165.221 167.634 164.927 167.476 164.481C166.718 162.352 165.959 160.223 165.202 158.093C165.144 157.931 165.113 157.757 165.039 157.604C163.614 154.648 163.345 151.527 163.418 148.282C163.542 142.704 163.458 137.122 163.445 131.542C163.444 130.813 163.588 130.149 163.877 129.476C165.368 125.998 166.844 122.513 168.276 119.01C168.582 118.26 168.977 117.978 169.801 117.981C177.724 118.01 185.648 117.998 193.572 117.999C194.781 117.999 194.783 118.002 194.783 119.239C194.784 124.598 194.783 129.957 194.783 135.316ZM181.865 141.527C181.865 137.08 181.852 132.633 181.878 128.186C181.882 127.505 181.674 127.283 180.994 127.305C179.618 127.351 178.24 127.331 176.863 127.314C176.362 127.309 176.165 127.495 176.162 128.007C176.151 130.83 176.292 133.65 176.262 136.475C176.233 139.196 176.385 141.92 176.45 144.643C176.534 148.129 176.343 151.617 176.586 155.102C176.624 155.658 176.765 155.897 177.355 155.881C178.559 155.848 179.766 155.834 180.97 155.885C181.703 155.916 181.881 155.629 181.877 154.942C181.853 150.47 181.865 145.998 181.865 141.527Z" fill="white"/>
<path d="M142.723 125.855C143.466 124.391 144.189 122.972 144.909 121.552C145.408 120.565 145.917 119.582 146.393 118.584C146.601 118.145 146.9 117.99 147.378 117.992C151.366 118.005 155.353 117.996 159.341 118.002C160.186 118.003 160.236 118.093 159.9 118.826C157.785 123.427 155.68 128.031 153.55 132.625C153.214 133.35 153.14 134.022 153.327 134.821C154.64 140.441 155.902 146.074 157.18 151.703C158.132 155.895 159.083 160.087 160.035 164.279C160.22 165.091 160.156 165.206 159.336 165.209C156.334 165.221 153.33 165.202 150.328 165.223C149.67 165.228 149.376 164.94 149.181 164.339C147.63 159.545 146.056 154.759 144.485 149.972C143.627 147.357 142.764 144.743 141.902 142.13C141.857 141.996 141.803 141.865 141.609 141.741C141.609 141.993 141.609 142.246 141.609 142.498C141.609 149.481 141.609 156.464 141.609 163.447C141.609 164.773 141.608 164.774 140.248 164.774C136.999 164.774 133.75 164.776 130.501 164.772C129.547 164.771 129.487 164.714 129.487 163.777C129.484 148.852 129.484 133.928 129.485 119.003C129.485 118.06 129.546 118.002 130.494 118.001C134.062 117.998 137.632 117.997 141.201 118.002C142.214 118.003 142.543 118.386 142.531 119.398C142.508 121.39 142.517 123.381 142.518 125.373C142.518 125.51 142.477 125.67 142.723 125.855Z" fill="white"/>
<path d="M212.603 141.402C213.302 139.258 213.951 137.096 214.719 134.977C215.183 133.695 215.272 132.408 215.262 131.073C215.234 127.409 215.249 123.745 215.247 120.082C215.247 119.836 215.255 119.589 215.237 119.344C215.139 118 215.136 117.999 216.463 117.999C219.318 117.998 222.174 117.994 225.029 118.003C225.395 118.005 225.77 118.034 226.124 118.12C227.04 118.343 227.32 118.788 227.186 119.738C227.082 120.478 227.24 121.207 227.26 121.942C227.41 127.451 227.176 132.938 226.491 138.416C225.871 143.372 224.983 148.274 223.874 153.135C223.021 156.872 221.977 160.561 220.811 164.215C220.574 164.957 220.217 165.243 219.404 165.236C214.875 165.195 210.345 165.198 205.816 165.233C205.03 165.239 204.627 164.986 204.333 164.255C202.765 160.355 201.878 156.276 201.077 152.173C200.254 147.953 199.638 143.7 199.047 139.443C198.524 135.672 198.134 131.885 197.726 128.101C197.436 125.417 197.223 122.724 196.969 120.035C196.842 118.694 197.458 118.003 198.828 118.001C202.127 117.995 205.425 117.996 208.724 118.001C209.624 118.002 209.692 118.063 209.682 118.969C209.644 122.557 209.611 126.145 209.54 129.732C209.51 131.217 209.603 132.655 210.096 134.085C210.929 136.498 211.65 138.949 212.418 141.384C212.48 141.389 212.542 141.396 212.603 141.402Z" fill="white"/>
<path d="M61.6885 147.638C61.6885 142.794 61.7731 137.948 61.6482 133.108C61.5955 131.075 62.1722 129.313 62.9822 127.535C64.1333 125.008 65.2255 122.454 66.3394 119.91C66.4081 119.753 66.4599 119.587 66.5019 119.421C66.75 118.443 67.2695 118.01 68.2744 118.002C70.0217 117.99 71.7693 118 73.517 117.998C79.055 117.993 84.5925 117.99 90.1305 117.976C90.5951 117.975 91.0597 117.903 91.5239 117.862C92.4624 117.778 93.0381 118.273 93.0408 119.214C93.0501 122.509 93.0479 125.804 93.039 129.098C93.0381 129.391 93.159 129.803 92.6949 129.872C92.2055 129.946 92.2307 129.555 92.2117 129.236C92.1838 128.776 91.8397 128.86 91.5571 128.859C90.1305 128.854 88.7031 128.825 87.2778 128.87C86.6671 128.889 86.3894 128.717 86.47 128.095C86.5528 127.455 86.225 127.275 85.6457 127.323C85.279 127.354 84.9079 127.334 84.5385 127.328C83.9282 127.317 83.2297 127.514 83.034 126.593C82.9999 126.434 82.7018 126.323 82.5162 126.204C81.9041 125.812 81.2066 125.526 80.9727 124.722C80.8983 124.467 80.633 124.301 80.3823 124.189C79.6591 123.866 78.8933 123.667 78.1085 123.629C77.1062 123.579 75.991 124.916 76.1305 125.945C76.2745 127.011 76.2528 128.016 75.2709 128.737C74.9732 128.956 74.7084 129.07 74.3319 128.861C73.5843 128.448 72.8974 128.678 72.2928 129.193C71.8428 129.575 71.4411 130.009 71.1311 130.52C71.0044 130.73 70.8862 131.031 70.6475 131.051C69.872 131.118 69.9641 131.692 69.9255 132.187C69.8782 132.797 69.8565 133.41 69.8241 134.022C69.8148 134.196 69.802 134.374 69.6611 134.496C67.9648 135.968 68.0282 137.93 68.1083 139.915C68.1438 140.789 68.5118 141.332 69.3507 141.578C70.0075 141.771 70.2453 142.168 70.1665 142.897C69.945 144.946 69.7896 147.003 69.6536 149.06C69.5876 150.062 69.6213 151.07 69.6142 152.077C69.6133 152.172 69.6133 152.289 69.6638 152.36C70.3977 153.386 70.011 154.25 69.2966 155.083C68.7266 155.747 68.6478 156.616 68.4175 157.408C67.8209 159.461 67.3045 161.537 66.7292 163.595C66.5874 164.103 66.6725 164.258 67.2349 164.33C68.9738 164.553 70.2285 164.226 70.7728 162.264C71.1081 161.056 71.8747 159.969 72.4323 158.82C72.5913 158.493 72.8407 158.289 73.1299 158.087C73.5719 157.779 74.013 157.456 74.3944 157.078C74.9476 156.531 75.3041 155.903 75.239 155.049C75.157 153.972 75.2195 152.891 75.4848 151.828C75.6004 151.365 75.704 151.19 76.1088 151.609C76.8613 152.386 77.6289 153.15 78.4004 153.909C78.6936 154.197 78.7255 154.533 78.7219 154.919C78.6967 157.746 78.7073 160.574 78.663 163.4C78.6519 164.111 78.8867 164.365 79.5953 164.324C80.4293 164.275 81.2699 164.28 82.1048 164.322C82.7456 164.355 82.9919 164.128 82.964 163.479C82.9241 162.546 82.9529 161.611 82.9551 160.676C82.9596 158.666 82.8422 156.651 83.4197 154.678C83.6399 153.926 83.4733 153.153 83.1177 152.459C82.1637 150.597 81.5069 148.608 80.633 146.711C80.3044 145.998 79.9829 145.28 79.6923 144.55C79.2786 143.511 79.4837 142.368 80.8115 142.191C81.1889 142.141 81.3332 141.858 81.4413 141.545C81.7155 140.751 81.835 139.924 81.9932 139.103C82.1132 138.48 81.8674 138.109 81.3217 137.885C81.0197 137.76 80.6401 137.662 80.885 137.229C81.0901 136.867 81.4457 136.753 81.8373 136.973C82.4157 137.297 82.9897 137.611 83.6252 137.835C84.3972 138.106 84.9034 137.905 85.4075 137.295C86.6905 135.742 87.6946 134.032 88.3713 132.144C88.5981 131.511 88.8939 131.208 89.5862 131.269C90.1721 131.321 90.7665 131.278 91.3573 131.28C91.7546 131.281 92.1599 131.324 92.2728 130.779C92.3122 130.59 92.5053 130.545 92.694 130.568C92.8973 130.594 92.9983 130.726 93.0164 130.913C93.0381 131.133 93.0439 131.354 93.0439 131.575C93.0448 142.27 93.0448 152.966 93.0434 163.661C93.0434 164.761 93.0315 164.768 91.9344 164.773C88.9812 164.788 86.0253 164.735 83.0752 164.837C79.2871 164.969 75.4963 164.872 71.7113 165.005C68.7116 165.11 65.7087 164.99 62.7121 165.206C61.7975 165.272 61.6903 165.15 61.6899 164.233C61.6872 158.702 61.6885 153.17 61.6885 147.638Z" fill="white"/>
<path d="M50.2158 146.006C50.2158 151.906 50.2162 157.806 50.2153 163.705C50.2153 164.75 50.195 164.771 49.1373 164.772C45.4706 164.774 41.8043 164.774 38.1375 164.772C37.0471 164.771 37.0081 164.735 37.0081 163.661C37.0059 151.935 37.0059 140.21 37.005 128.484C37.005 127.329 37.0037 127.329 35.8243 127.328C33.5602 127.328 31.2965 127.33 29.0324 127.327C28.0665 127.325 28.0071 127.273 28.0045 126.343C27.9983 124.18 27.9983 122.017 28.0049 119.854C28.0085 118.728 28.5497 118.137 29.6724 118.013C29.8917 117.988 30.1149 117.998 30.3363 117.998C39.5889 117.998 48.8415 117.998 58.094 117.998C59.5795 117.998 59.9511 118.364 59.9604 119.886C59.9728 121.852 59.9666 123.819 59.9635 125.785C59.9617 126.98 59.6535 127.309 58.4244 127.32C56.136 127.34 53.8475 127.324 51.5591 127.33C50.0577 127.333 50.2184 127.192 50.2175 128.677C50.2136 134.453 50.2158 140.23 50.2158 146.006Z" fill="white"/>
<path d="M218.298 114.341C218.208 114.418 218.155 114.442 218.137 114.482C217.444 116.012 216.266 116.45 214.631 116.284C213.146 116.134 211.632 116.226 210.133 116.265C209.497 116.281 209.08 116.094 208.743 115.534C208.395 114.954 208.099 114.323 207.446 113.7C207.446 114.433 207.443 115.005 207.448 115.577C207.451 116.028 207.258 116.255 206.784 116.252C205.112 116.244 203.439 116.243 201.766 116.254C201.274 116.257 201.058 116.065 201.059 115.555C201.071 112.409 201.07 109.263 201.061 106.118C201.06 105.645 201.261 105.449 201.722 105.451C203.886 105.456 206.051 105.455 208.216 105.45C208.658 105.449 208.925 105.686 209.187 106.014C210.323 107.434 211.507 108.815 212.618 110.254C213.078 110.848 213.292 110.664 213.62 110.167C214.513 108.814 215.457 107.493 216.343 106.136C216.657 105.656 217.006 105.429 217.601 105.437C219.888 105.466 222.177 105.467 224.464 105.438C225.146 105.43 225.425 105.624 225.417 106.354C225.384 109.401 225.387 112.449 225.415 115.496C225.421 116.191 225.205 116.453 224.488 116.436C222.791 116.395 221.093 116.405 219.396 116.431C218.795 116.44 218.536 116.202 218.531 115.617C218.528 115.202 218.515 114.783 218.298 114.341Z" fill="white"/>
<path d="M173.349 113.399C173.349 114.078 173.355 114.756 173.348 115.435C173.338 116.348 173.273 116.418 172.397 116.42C170.797 116.425 169.197 116.395 167.598 116.435C166.908 116.451 166.642 116.246 166.649 115.523C166.68 112.548 166.676 109.573 166.646 106.599C166.641 106.012 166.884 105.892 167.39 105.895C169.851 105.906 172.311 105.899 174.773 105.899C177.062 105.899 179.35 105.896 181.639 105.9C182.617 105.902 182.668 105.956 182.67 106.955C182.673 108.455 182.676 109.954 182.669 111.454C182.665 112.337 182.592 112.4 181.686 112.407C181.391 112.41 181.095 112.403 180.8 112.414C180.636 112.421 180.424 112.355 180.33 112.534C180.228 112.728 180.432 112.84 180.529 112.968C181.183 113.829 181.847 114.683 182.496 115.547C182.621 115.712 182.845 115.886 182.689 116.126C182.567 116.315 182.33 116.246 182.141 116.247C180.172 116.251 178.203 116.235 176.234 116.259C175.726 116.265 175.417 116.064 175.147 115.659C174.624 114.873 174.064 114.112 173.519 113.341C173.462 113.361 173.406 113.38 173.349 113.399ZM174.904 107.821C172.992 107.838 173.376 107.659 173.347 109.028C173.336 109.525 173.533 109.745 174.04 109.724C174.577 109.703 175.118 109.691 175.654 109.728C176.273 109.771 176.46 109.504 176.453 108.912C176.44 107.843 176.45 107.825 175.344 107.822C175.198 107.822 175.051 107.822 174.904 107.821Z" fill="white"/>
<path d="M98.3596 111.165C98.3591 112.64 98.3427 114.114 98.3675 115.588C98.3773 116.169 98.2072 116.442 97.5747 116.431C95.9024 116.402 94.2287 116.417 92.5558 116.425C92.1462 116.426 91.8104 116.376 91.8025 115.859C91.7963 115.459 91.535 115.385 91.2015 115.389C90.7094 115.397 90.2165 115.408 89.7257 115.385C89.2341 115.362 88.8523 115.42 88.8085 116.04C88.7837 116.39 88.4763 116.418 88.1929 116.418C86.4952 116.419 84.7976 116.411 83.1 116.424C82.607 116.427 82.4662 116.189 82.4684 115.741C82.4777 113.529 82.4751 111.317 82.4702 109.105C82.4693 108.738 82.5986 108.435 82.8413 108.172C82.8914 108.117 82.9419 108.064 82.9928 108.01C85.0031 105.899 85.0031 105.899 87.9165 105.899C91.0903 105.899 94.2641 105.914 97.4379 105.888C98.1332 105.882 98.3968 106.095 98.3737 106.815C98.3272 108.263 98.36 109.715 98.3596 111.165ZM91.8211 110.183C91.7484 107.369 92.3543 107.877 89.4077 107.822C88.9458 107.814 88.7323 108.002 88.7456 108.475C88.762 109.062 88.7341 109.65 88.7496 110.237C88.8209 112.998 88.2084 112.439 91.1523 112.514C91.6798 112.527 91.8401 112.279 91.8237 111.799C91.8056 111.261 91.8193 110.722 91.8211 110.183Z" fill="white"/>
<path d="M193.11 105.448C195.004 105.448 196.898 105.465 198.792 105.439C199.435 105.43 199.662 105.679 199.656 106.307C199.636 108.518 199.643 110.73 199.652 112.941C199.654 113.44 199.507 113.852 199.127 114.183C198.98 114.312 198.821 114.448 198.726 114.614C197.885 116.091 196.582 116.318 194.987 116.288C191.598 116.227 188.205 116.37 184.814 116.419C183.853 116.433 183.828 116.393 183.828 115.422C183.827 113.505 183.844 111.588 183.821 109.672C183.813 109.072 183.953 108.594 184.388 108.151C185.025 107.504 185.61 106.806 186.187 106.103C186.576 105.628 187.022 105.423 187.651 105.436C189.469 105.47 191.29 105.448 193.11 105.448ZM193.706 111.2C193.706 110.759 193.714 110.318 193.705 109.877C193.653 107.492 194.118 107.866 191.576 107.817C190.959 107.805 190.759 108.053 190.772 108.645C190.8 109.869 190.76 111.094 190.783 112.318C190.831 114.851 190.315 114.368 193.064 114.431C193.545 114.442 193.718 114.233 193.709 113.772C193.692 112.914 193.704 112.057 193.706 111.2Z" fill="white"/>
<path d="M107.475 105.448C109.838 105.448 112.202 105.469 114.565 105.435C115.281 105.425 115.507 105.68 115.493 106.376C115.457 108.097 115.455 109.819 115.494 111.54C115.51 112.24 115.231 112.425 114.579 112.418C112.069 112.394 109.557 112.409 107.047 112.411C106.041 112.412 106.041 112.414 106.038 113.447C106.036 114.209 106.024 114.972 106.037 115.733C106.046 116.236 105.829 116.431 105.326 116.427C103.603 116.41 101.879 116.412 100.157 116.425C99.6587 116.428 99.4519 116.241 99.4536 115.729C99.4638 112.556 99.4656 109.384 99.4426 106.212C99.4377 105.558 99.7544 105.437 100.312 105.441C102.699 105.457 105.087 105.448 107.475 105.448ZM107.43 107.829C107.11 107.829 106.791 107.833 106.471 107.827C106.091 107.821 105.811 107.972 105.871 108.379C105.965 109.016 105.511 109.758 106.202 110.278C106.301 110.353 106.489 110.318 106.636 110.32C107.102 110.325 107.573 110.29 108.036 110.333C108.76 110.4 108.974 110.084 108.959 109.394C108.92 107.601 109.048 107.841 107.43 107.829Z" fill="white"/>
<path d="M39.7785 105.448C42.0917 105.448 44.4054 105.466 46.7187 105.437C47.3972 105.428 47.6931 105.611 47.6789 106.345C47.6439 108.194 47.7325 107.978 46.0366 107.985C43.7725 107.994 41.5084 107.984 39.2444 107.986C38.3723 107.987 38.3745 108.024 38.3346 108.994C38.3067 109.668 38.4241 110.077 39.2413 110.019C40.0739 109.96 40.9154 110.035 41.7503 109.997C42.5718 109.959 42.4943 110.506 42.5036 111.029C42.5125 111.545 42.5342 112.028 41.7711 112C40.8375 111.965 39.9007 112.008 38.9658 111.99C38.5052 111.98 38.3129 112.11 38.3253 112.62C38.3559 113.87 38.3293 113.868 39.6 113.868C41.9872 113.866 44.3744 113.881 46.7612 113.857C47.4207 113.851 47.6855 114.074 47.6753 114.754C47.6461 116.695 47.771 116.414 46.0114 116.419C42.2707 116.431 38.53 116.42 34.7888 116.425C34.0106 116.427 33.2706 116.29 32.592 115.9C31.7851 115.437 31.3435 114.78 31.3564 113.802C31.3856 111.565 31.3617 109.327 31.367 107.09C31.3701 105.824 31.7408 105.451 32.9862 105.449C35.2503 105.445 37.5144 105.448 39.7785 105.448Z" fill="white"/>
<path d="M55.1554 116.252C53.3346 116.252 51.5138 116.23 49.6935 116.264C49.0079 116.277 48.7214 116.085 48.7413 115.351C48.7781 114.024 48.7404 114.022 50.0629 114.022C52.3509 114.021 54.6389 114.024 56.9269 114.02C57.7326 114.018 58.098 113.448 57.7804 112.715C57.6196 112.343 57.2883 112.45 57.012 112.449C54.5765 112.442 52.1401 112.418 49.7051 112.461C48.9667 112.473 48.8086 112.255 48.7329 111.516C48.5442 109.681 49.1076 108.238 50.2981 106.837C51.1405 105.845 51.9386 105.371 53.2646 105.417C56.2382 105.519 59.2176 105.475 62.1943 105.438C63.7281 105.418 63.7157 106.161 63.5655 107.451C63.515 107.885 63.0978 107.819 62.7905 107.821C60.6991 107.829 58.6082 107.825 56.5168 107.827C55.3755 107.827 55.3755 107.828 55.3737 108.955C55.3715 110.248 55.3715 110.247 56.678 110.248C58.6941 110.248 60.7102 110.264 62.7262 110.243C63.3755 110.237 63.7064 110.456 63.6196 111.14C63.6072 111.236 63.6041 111.339 63.6204 111.434C63.9393 113.281 63.3069 114.713 61.8081 115.831C61.448 116.1 61.1345 116.263 60.6911 116.26C58.846 116.245 57.0005 116.252 55.1554 116.252Z" fill="white"/>
<path d="M124.443 105.449C126.829 105.448 129.214 105.465 131.6 105.437C132.264 105.43 132.512 105.642 132.503 106.325C132.483 107.824 132.514 107.825 131.042 107.825C128.656 107.826 126.27 107.857 123.885 107.809C123.052 107.792 123.002 108.194 122.985 108.847C122.967 109.544 123.229 109.748 123.89 109.717C124.823 109.673 125.759 109.722 126.693 109.701C127.207 109.69 127.449 109.852 127.461 110.412C127.488 111.675 127.495 111.693 126.238 111.697C125.328 111.699 124.418 111.711 123.508 111.695C123.038 111.687 122.828 111.873 122.854 112.349C122.875 112.717 122.892 113.09 122.852 113.454C122.772 114.18 123.028 114.442 123.795 114.429C126.376 114.384 128.959 114.408 131.542 114.417C131.843 114.419 132.254 114.28 132.4 114.651C132.572 115.085 132.578 115.586 132.392 116.018C132.237 116.376 131.83 116.247 131.527 116.247C127.395 116.255 123.263 116.253 119.131 116.252C118.467 116.252 117.803 116.241 117.139 116.253C116.657 116.261 116.419 116.086 116.421 115.565C116.433 112.42 116.435 109.276 116.42 106.131C116.416 105.541 116.727 105.443 117.211 105.445C119.622 105.453 122.032 105.449 124.443 105.449Z" fill="white"/>
<path d="M73.7473 105.445C76.1102 105.445 78.4735 105.463 80.8359 105.434C81.5299 105.426 81.7939 105.656 81.7903 106.367C81.7819 107.987 81.8107 107.988 80.2012 107.989C77.8627 107.99 75.5242 108.005 73.1862 107.979C72.5887 107.972 72.3531 108.146 72.3686 108.772C72.4045 110.246 72.4089 111.723 72.3672 113.197C72.3482 113.869 72.6153 114.031 73.2353 114.024C75.6225 113.998 78.0102 114.008 80.3979 114.02C80.7407 114.022 81.2438 113.873 81.3333 114.361C81.4369 114.927 81.5193 115.54 81.2513 116.091C81.1521 116.295 80.8545 116.249 80.6353 116.249C75.9339 116.251 71.2325 116.245 66.5316 116.257C65.9816 116.258 65.7986 116.033 65.8004 115.509C65.8115 112.411 65.8119 109.312 65.7978 106.215C65.7951 105.646 66.0108 105.434 66.5848 105.439C68.972 105.459 71.3597 105.447 73.7473 105.447C73.7473 105.447 73.7473 105.446 73.7473 105.445Z" fill="white"/>
<path d="M157.504 105.9C159.866 105.899 162.227 105.895 164.589 105.902C165.468 105.904 165.508 105.993 165.547 106.89C165.577 107.594 165.31 107.843 164.607 107.835C162.024 107.808 159.44 107.856 156.857 107.808C156.025 107.792 155.968 108.181 155.953 108.838C155.937 109.517 156.157 109.754 156.839 109.719C157.771 109.669 158.708 109.726 159.642 109.701C160.19 109.686 160.367 109.92 160.382 110.445C160.426 111.965 160.442 111.965 158.922 111.965C158.233 111.965 157.543 111.989 156.856 111.955C156.27 111.926 156.069 112.182 156.081 112.739C156.101 113.697 156.061 114.656 156.092 115.613C156.111 116.216 155.887 116.442 155.275 116.432C153.603 116.403 151.929 116.404 150.257 116.431C149.652 116.441 149.415 116.211 149.417 115.617C149.428 112.643 149.43 109.669 149.414 106.696C149.411 106.074 149.693 105.89 150.27 105.894C152.682 105.909 155.093 105.9 157.504 105.9Z" fill="white"/>
<path d="M85.4868 133.583C85.4022 134.021 85.6844 134.586 85.1998 134.926C84.7738 135.226 84.2742 135.422 83.7932 134.984C83.438 134.66 83.3746 133.832 83.6882 133.425C83.9717 133.057 84.3083 132.734 84.714 132.495C84.8942 132.39 85.0532 132.164 85.2982 132.303C85.5271 132.433 85.4678 132.689 85.4828 132.899C85.4992 133.118 85.4868 133.339 85.4868 133.583Z" fill="white"/>
</g>
</g>
<defs>
<filter id="filter0_f_493_1724" x="-20" y="25" width="298" height="184" filterUnits="userSpaceOnUse" color-interpolation-filters="sRGB">
<feFlood flood-opacity="0" result="BackgroundImageFix"/>
<feBlend mode="normal" in="SourceGraphic" in2="BackgroundImageFix" result="shape"/>
<feGaussianBlur stdDeviation="18.5" result="effect1_foregroundBlur_493_1724"/>
</filter>
<filter id="filter1_ii_493_1724" x="17" y="62" width="224" height="148" filterUnits="userSpaceOnUse" color-interpolation-filters="sRGB">
<feFlood flood-opacity="0" result="BackgroundImageFix"/>
<feBlend mode="normal" in="SourceGraphic" in2="BackgroundImageFix" result="shape"/>
<feColorMatrix in="SourceAlpha" type="matrix" values="0 0 0 0 0 0 0 0 0 0 0 0 0 0 0 0 0 0 127 0" result="hardAlpha"/>
<feOffset dy="4"/>
<feComposite in2="hardAlpha" operator="arithmetic" k2="-1" k3="1"/>
<feColorMatrix type="matrix" values="0 0 0 0 1 0 0 0 0 1 0 0 0 0 1 0 0 0 0.25 0"/>
<feBlend mode="normal" in2="shape" result="effect1_innerShadow_493_1724"/>
<feColorMatrix in="SourceAlpha" type="matrix" values="0 0 0 0 0 0 0 0 0 0 0 0 0 0 0 0 0 0 127 0" result="hardAlpha"/>
<feOffset dy="-4"/>
<feComposite in2="hardAlpha" operator="arithmetic" k2="-1" k3="1"/>
<feColorMatrix type="matrix" values="0 0 0 0 0 0 0 0 0 0 0 0 0 0 0 0 0 0 0.9 0"/>
<feBlend mode="soft-light" in2="effect1_innerShadow_493_1724" result="effect2_innerShadow_493_1724"/>
</filter>
<linearGradient id="paint0_linear_493_1724" x1="17" y1="34" x2="197.768" y2="215.142" gradientUnits="userSpaceOnUse">
<stop stop-color="#05815D"/>
<stop offset="1" stop-color="#0C575F"/>
</linearGradient>
<linearGradient id="paint1_linear_493_1724" x1="17" y1="62" x2="241" y2="210" gradientUnits="userSpaceOnUse">
<stop stop-color="#6E4141"/>
<stop offset="0.953125" stop-color="#442222"/>
</linearGradient>
<clipPath id="clip0_493_1724">
<rect width="256" height="256" fill="white"/>
</clipPath>
<clipPath id="clip1_493_1724">
<rect width="199.304" height="61.1198" fill="white" transform="translate(28 105)"/>
</clipPath>
</defs>
</svg>
