<svg width="256" height="256" viewBox="0 0 256 256" fill="none" xmlns="http://www.w3.org/2000/svg">
<g clip-path="url(#clip0_4394_13037)">
<path d="M104.425 42.3784C100.056 37.0733 93.5437 34 86.6712 34H29C22.3726 34 17 39.3726 17 46V160C17 166.627 22.3726 172 29 172H229C235.627 172 241 166.627 241 160V70.1371C241 63.5097 235.627 58.1371 229 58.1371H117.404L104.425 42.3784Z" fill="url(#paint0_linear_4394_13037)"/>
<mask id="mask0_4394_13037" style="mask-type:alpha" maskUnits="userSpaceOnUse" x="17" y="34" width="224" height="138">
<path fill-rule="evenodd" clip-rule="evenodd" d="M104.425 42.3784C100.056 37.0733 93.5437 34 86.6712 34H29C22.3726 34 17 39.3726 17 46V58.1371V68.2V160C17 166.627 22.3726 172 29 172H229C235.627 172 241 166.627 241 160V70.1371C241 63.5097 235.627 58.1371 229 58.1371H117.404L104.425 42.3784Z" fill="url(#paint1_linear_4394_13037)"/>
</mask>
<g mask="url(#mask0_4394_13037)">
<g filter="url(#filter0_f_4394_13037)" style="mix-blend-mode:multiply">
<path fill-rule="evenodd" clip-rule="evenodd" d="M92.789 74C97.7642 74 102.605 72.3868 106.586 69.4024L116.459 62H229C235.627 62 241 67.3726 241 74V108V160C241 166.627 235.627 172 229 172H29C22.3726 172 17 166.627 17 160L17 108V86C17 79.3726 22.3726 74 29 74H87H92.789Z" fill="black" fill-opacity="0.3"/>
</g>
</g>
<g filter="url(#filter1_ii_4394_13037)">
<path d="M241 198C241 204.627 235.627 210 229 210H29C22.3726 210 17 204.627 17 198V86C17 79.3726 22.3726 74 29 74H92.79C97.7649 73.9999 102.605 72.3865 106.586 69.4023L116.46 62H229C235.627 62 241 67.3726 241 74V198Z" fill="url(#paint2_linear_4394_13037)"/>
</g>
<path d="M163.724 111.551L177.84 121.941C178.106 122.137 178.304 122.412 178.405 122.727C178.506 123.041 178.506 123.38 178.403 123.694L160.162 179.775C160.06 180.089 159.861 180.362 159.594 180.557C159.327 180.751 159.005 180.855 158.675 180.855L125.799 180.873C125.683 180.873 125.57 180.843 125.47 180.785C125.369 180.728 125.286 180.645 125.228 180.545C125.17 180.445 125.139 180.332 125.139 180.216C125.138 180.101 125.168 179.987 125.225 179.887L128.025 174.97C128.196 174.67 128.443 174.421 128.741 174.247C129.039 174.074 129.378 173.983 129.723 173.983H153.587C153.917 173.983 154.239 173.878 154.506 173.685C154.773 173.491 154.972 173.217 155.074 172.903L170.283 126.247C170.385 125.931 170.387 125.592 170.288 125.276C170.188 124.96 169.993 124.683 169.728 124.483L160.351 117.402C160.1 117.213 159.928 116.94 159.865 116.633C159.803 116.325 159.855 116.006 160.011 115.734L162.243 111.862C162.314 111.738 162.411 111.631 162.527 111.547C162.642 111.463 162.774 111.404 162.914 111.375C163.054 111.346 163.198 111.346 163.338 111.377C163.478 111.407 163.609 111.466 163.724 111.551Z" fill="white"/>
<path d="M89.0012 150.961L79.7446 124.132C79.6369 123.82 79.6307 123.482 79.7268 123.166C79.8229 122.85 80.0165 122.573 80.2797 122.374L127.503 86.6452C127.765 86.4466 128.084 86.3369 128.413 86.3322C128.743 86.3274 129.065 86.4279 129.333 86.6189L146.669 98.9808C146.781 99.0601 146.873 99.1634 146.939 99.2829C147.005 99.4025 147.043 99.5354 147.051 99.6718C147.06 99.8083 147.037 99.9447 146.985 100.071C146.934 100.198 146.854 100.311 146.753 100.403L143.409 103.437C143.171 103.654 142.865 103.783 142.543 103.804C142.221 103.825 141.902 103.736 141.637 103.551L129.513 95.1119C129.242 94.9235 128.918 94.8257 128.589 94.8327C128.259 94.8397 127.94 94.9511 127.677 95.1508L88.483 124.94C88.2201 125.14 88.0269 125.417 87.931 125.734C87.8352 126.05 87.8415 126.388 87.9492 126.7L94.6211 146.047C94.7305 146.365 94.7429 146.707 94.6565 147.032C94.5702 147.356 94.3892 147.647 94.1365 147.868L90.2263 151.287C90.132 151.369 90.019 151.427 89.897 151.456C89.7751 151.484 89.648 151.482 89.527 151.45C89.406 151.418 89.2948 151.357 89.2031 151.271C89.1114 151.186 89.0421 151.079 89.0012 150.961Z" fill="white"/>
<path d="M85.8266 158.691L160.318 91.5011C160.324 91.4951 160.333 91.4919 160.342 91.4921C160.351 91.4924 160.36 91.496 160.366 91.5024C160.372 91.5087 160.376 91.5172 160.376 91.5262C160.376 91.5352 160.373 91.5439 160.367 91.5505L93.7575 165.323C93.5532 165.549 93.2691 165.687 92.9649 165.709C92.6607 165.73 92.3601 165.632 92.1264 165.436L85.8538 160.18C85.7455 160.09 85.658 159.977 85.5971 159.849C85.5362 159.722 85.5034 159.583 85.5008 159.442C85.4983 159.301 85.526 159.16 85.5822 159.031C85.6384 158.901 85.7217 158.785 85.8266 158.691Z" fill="#F9671E"/>
<path d="M110.284 180.284L116.766 185.778C116.871 185.867 116.995 185.932 117.128 185.968C117.261 186.004 117.401 186.009 117.537 185.985C117.672 185.96 117.801 185.906 117.914 185.826C118.026 185.746 118.119 185.642 118.187 185.522L168 96.6029C168.005 96.595 168.006 96.5858 168.003 96.5772C168.001 96.5685 167.996 96.561 167.988 96.5562C167.981 96.5514 167.971 96.5497 167.963 96.5514C167.954 96.5531 167.946 96.5581 167.941 96.5653L110.073 178.622C109.894 178.875 109.816 179.186 109.856 179.494C109.895 179.802 110.048 180.083 110.284 180.284Z" fill="#F9671E"/>
<path d="M121.417 151.046L133.66 134.584C133.806 134.388 133.87 134.144 133.839 133.901C133.809 133.659 133.685 133.438 133.495 133.285L132.396 132.397C132.208 132.245 131.967 132.174 131.727 132.198C131.486 132.222 131.265 132.341 131.111 132.527L118.055 148.372C117.979 148.464 117.923 148.569 117.889 148.683C117.855 148.796 117.843 148.915 117.856 149.033C117.868 149.151 117.904 149.265 117.961 149.369C118.018 149.473 118.095 149.565 118.188 149.638L120.164 151.209C120.257 151.283 120.363 151.337 120.476 151.368C120.59 151.4 120.709 151.408 120.826 151.393C120.943 151.378 121.055 151.339 121.157 151.279C121.259 151.22 121.347 151.14 121.417 151.046Z" fill="white"/>
<path d="M138.021 128.594L150.901 111.801C150.955 111.73 150.995 111.649 151.018 111.563C151.041 111.476 151.047 111.386 151.035 111.298C151.023 111.209 150.993 111.124 150.949 111.047C150.904 110.97 150.844 110.902 150.773 110.848L150.327 110.51C150.181 110.4 149.998 110.35 149.816 110.371C149.634 110.393 149.468 110.484 149.352 110.625L135.955 126.951C135.898 127.019 135.856 127.099 135.831 127.184C135.805 127.269 135.797 127.359 135.806 127.447C135.816 127.536 135.842 127.621 135.885 127.699C135.928 127.777 135.986 127.846 136.056 127.901L137.073 128.711C137.143 128.766 137.223 128.807 137.308 128.831C137.394 128.855 137.483 128.862 137.572 128.851C137.66 128.84 137.745 128.812 137.822 128.768C137.899 128.724 137.967 128.665 138.021 128.594Z" fill="white"/>
<path d="M154.794 106.881L163.908 94.1283C163.914 94.121 163.916 94.1121 163.914 94.1033C163.913 94.0945 163.909 94.0865 163.902 94.0809C163.895 94.0754 163.886 94.0727 163.877 94.0735C163.868 94.0742 163.86 94.0784 163.854 94.085L153.445 105.892C153.407 105.935 153.378 105.986 153.36 106.041C153.343 106.096 153.337 106.154 153.343 106.211C153.35 106.269 153.368 106.324 153.396 106.374C153.425 106.424 153.464 106.468 153.51 106.502L154.164 106.982C154.211 107.017 154.266 107.042 154.323 107.056C154.381 107.07 154.441 107.072 154.5 107.063C154.558 107.054 154.614 107.033 154.665 107.002C154.715 106.97 154.759 106.929 154.794 106.881Z" fill="white"/>
<path d="M100.333 171.028L102.82 173.072C102.934 173.166 103.066 173.236 103.207 173.278C103.349 173.32 103.497 173.333 103.644 173.317C103.791 173.301 103.933 173.255 104.062 173.183C104.191 173.111 104.304 173.014 104.395 172.898L115.823 158.249C116.01 158.009 116.096 157.706 116.063 157.404C116.029 157.102 115.879 156.825 115.645 156.632L113.973 155.259C113.739 155.066 113.438 154.972 113.135 154.998C112.833 155.024 112.552 155.167 112.353 155.396L100.199 169.448C100.102 169.56 100.029 169.69 99.9831 169.831C99.9374 169.971 99.9204 170.119 99.9329 170.266C99.9454 170.414 99.9872 170.557 100.056 170.688C100.125 170.818 100.219 170.934 100.333 171.028Z" fill="white"/>
</g>
<defs>
<filter id="filter0_f_4394_13037" x="-20" y="25" width="298" height="184" filterUnits="userSpaceOnUse" color-interpolation-filters="sRGB">
<feFlood flood-opacity="0" result="BackgroundImageFix"/>
<feBlend mode="normal" in="SourceGraphic" in2="BackgroundImageFix" result="shape"/>
<feGaussianBlur stdDeviation="18.5" result="effect1_foregroundBlur_4394_13037"/>
</filter>
<filter id="filter1_ii_4394_13037" x="17" y="62" width="224" height="148" filterUnits="userSpaceOnUse" color-interpolation-filters="sRGB">
<feFlood flood-opacity="0" result="BackgroundImageFix"/>
<feBlend mode="normal" in="SourceGraphic" in2="BackgroundImageFix" result="shape"/>
<feColorMatrix in="SourceAlpha" type="matrix" values="0 0 0 0 0 0 0 0 0 0 0 0 0 0 0 0 0 0 127 0" result="hardAlpha"/>
<feOffset dy="4"/>
<feComposite in2="hardAlpha" operator="arithmetic" k2="-1" k3="1"/>
<feColorMatrix type="matrix" values="0 0 0 0 1 0 0 0 0 1 0 0 0 0 1 0 0 0 0.25 0"/>
<feBlend mode="normal" in2="shape" result="effect1_innerShadow_4394_13037"/>
<feColorMatrix in="SourceAlpha" type="matrix" values="0 0 0 0 0 0 0 0 0 0 0 0 0 0 0 0 0 0 127 0" result="hardAlpha"/>
<feOffset dy="-4"/>
<feComposite in2="hardAlpha" operator="arithmetic" k2="-1" k3="1"/>
<feColorMatrix type="matrix" values="0 0 0 0 0 0 0 0 0 0 0 0 0 0 0 0 0 0 0.9 0"/>
<feBlend mode="soft-light" in2="effect1_innerShadow_4394_13037" result="effect2_innerShadow_4394_13037"/>
</filter>
<linearGradient id="paint0_linear_4394_13037" x1="17" y1="34" x2="197.768" y2="215.142" gradientUnits="userSpaceOnUse">
<stop stop-color="#F13D21"/>
</linearGradient>
<linearGradient id="paint1_linear_4394_13037" x1="17" y1="34" x2="197.768" y2="215.142" gradientUnits="userSpaceOnUse">
<stop stop-color="#05815D"/>
<stop offset="1" stop-color="#0C575F"/>
</linearGradient>
<linearGradient id="paint2_linear_4394_13037" x1="17" y1="62" x2="241" y2="210" gradientUnits="userSpaceOnUse">
<stop stop-color="#F06B28"/>
<stop offset="1" stop-color="#F13920"/>
</linearGradient>
<clipPath id="clip0_4394_13037">
<rect width="256" height="256" fill="white"/>
</clipPath>
</defs>
</svg>
