<svg width="256" height="256" viewBox="0 0 256 256" fill="none" xmlns="http://www.w3.org/2000/svg">
<path fill-rule="evenodd" clip-rule="evenodd" d="M104.425 42.3784C100.056 37.0733 93.5437 34 86.6712 34H29C22.3726 34 17 39.3726 17 46V58.1371V68.2V160C17 166.627 22.3726 172 29 172H229C235.627 172 241 166.627 241 160V70.1371C241 63.5097 235.627 58.1371 229 58.1371H117.404L104.425 42.3784Z" fill="#159A11"/>
<mask id="mask0_751_16632" style="mask-type:alpha" maskUnits="userSpaceOnUse" x="17" y="34" width="224" height="138">
<path fill-rule="evenodd" clip-rule="evenodd" d="M104.425 42.3784C100.056 37.0733 93.5437 34 86.6712 34H29C22.3726 34 17 39.3726 17 46V58.1371V68.2V160C17 166.627 22.3726 172 29 172H229C235.627 172 241 166.627 241 160V70.1371C241 63.5097 235.627 58.1371 229 58.1371H117.404L104.425 42.3784Z" fill="url(#paint0_linear_751_16632)"/>
</mask>
<g mask="url(#mask0_751_16632)">
<g style="mix-blend-mode:multiply" filter="url(#filter0_f_751_16632)">
<path fill-rule="evenodd" clip-rule="evenodd" d="M92.789 74C97.7642 74 102.605 72.3868 106.586 69.4024L116.459 62H229C235.627 62 241 67.3726 241 74V108V160C241 166.627 235.627 172 229 172H29C22.3726 172 17 166.627 17 160L17 108V86C17 79.3726 22.3726 74 29 74H87H92.789Z" fill="black" fill-opacity="0.3"/>
</g>
</g>
<g filter="url(#filter1_ii_751_16632)">
<path fill-rule="evenodd" clip-rule="evenodd" d="M92.9424 75C97.9263 75 102.775 73.3811 106.76 70.387L116.59 63H229C235.627 63 241 68.3726 241 75V130L241 199C241 205.627 235.627 211 229 211H129.333C118.074 225.191 101.23 224.204 101.23 224.204C94.3803 224.204 89.2739 221.962 85.9111 219.595C81.6765 216.855 79.4346 213.243 78.5628 211.002C78.5626 211.001 78.5624 211.001 78.5622 211H29C22.3726 211 17 205.627 17 199V156.544C16.4744 154.931 15.9808 153.16 15.5421 151.219C15.3899 150.509 15.2066 149.685 15.004 148.773C14.2118 145.21 13.1226 140.312 12.4284 135.651C12.0725 133.634 11.9426 132.069 11.8234 130.633C11.8175 130.562 11.8116 130.491 11.8057 130.42C11.8057 124.317 15.5421 120.207 20.2749 119.584H21.0221H45.6824C50.0416 119.584 52.5325 118.463 54.1516 116.969C56.2689 114.976 56.7671 112.111 56.7671 108.749V83.2165V82.4692C57.3898 77.861 61.4999 74 67.6027 74H70.5918C71.8373 74 73.3318 74.1245 74.7019 74.2491C75.5218 74.3516 76.2573 74.5384 77.3249 74.8096C77.5547 74.8679 77.7999 74.9302 78.0646 74.9964C78.0695 74.9976 78.0744 74.9988 78.0793 75H92.9424ZM50.4152 113.357C51.9098 111.738 52.0343 109.247 52.0343 107.752V91.1875C52.0343 86.5792 52.0343 83.8392 52.2834 81.971C52.408 80.9746 52.9061 79.7292 53.1552 79.1065L53.1552 79.1064C53.2798 78.8573 53.1552 78.8573 53.0307 78.9819L16.663 115.972C16.5384 116.097 16.5384 116.221 16.7875 116.097C17.4103 115.848 18.6557 115.35 19.6521 115.225C21.5203 114.976 24.2604 114.976 28.8686 114.976H44.8106C46.3052 114.976 48.7961 114.851 50.4152 113.357Z" fill="url(#paint1_linear_751_16632)"/>
</g>
<g filter="url(#filter2_ii_751_16632)">
<path d="M46.9413 110.909C48.308 109.401 48.4219 107.083 48.4219 105.691V90.2707C48.4219 87.2676 48.4219 85.1167 48.5001 83.5L20.1431 112.416C21.7409 112.332 24.2338 112.416 27.2381 112.416H41.8162C43.1829 112.416 45.4607 112.3 46.9413 110.909Z" fill="#C4C4C4"/>
<path d="M46.9413 110.909C48.308 109.401 48.4219 107.083 48.4219 105.691V90.2707C48.4219 87.2676 48.4219 85.1167 48.5001 83.5L20.1431 112.416C21.7409 112.332 24.2338 112.416 27.2381 112.416H41.8162C43.1829 112.416 45.4607 112.3 46.9413 110.909Z" fill="url(#paint2_linear_751_16632)"/>
</g>
<g filter="url(#filter3_d_751_16632)">
<path d="M146 147.461H147.214L147.273 139.704H146V138.216H154.049L154.147 141.232H152.56L152.424 139.704H149.388L149.368 142.74H152.443V144.229H149.349L149.329 147.46H152.384L152.581 145.736H154.304L154.108 148.948H146V147.461ZM166.955 139.704H165.937L162.117 148.949H159.924L156.085 139.704H155.008V138.216H159.592V139.704H158.514L161.158 146.99H161.197L163.821 139.704H162.529V138.216H166.955V139.704ZM168.012 147.461H169.226L169.285 139.704H168.013V138.216H176.061L176.159 141.232H174.573L174.436 139.704H171.4L171.381 142.74H174.456V144.229H171.361L171.341 147.46H174.396L174.593 145.736H176.316L176.12 148.948H168.013L168.012 147.461ZM178.334 147.461H179.548L179.606 139.704H178.334V138.216H183.288C185.776 138.216 186.578 139.646 186.578 141.036C186.578 142.27 185.972 143.387 184.052 143.876V143.915C185.051 144.189 185.306 144.444 186.305 146.168C186.97 147.284 187.205 147.46 187.578 147.46C187.734 147.46 187.891 147.421 188.028 147.402V148.948H186.931C185.481 148.948 185.306 148.773 184.17 146.52C183.151 144.522 182.916 144.386 182.132 144.386H181.702L181.682 147.461H182.955V148.949H178.333V147.46H178.334V147.461ZM181.722 142.897H182.564C183.719 142.897 184.502 142.27 184.502 141.272C184.502 140.292 184.013 139.704 183.033 139.704H181.74L181.722 142.897ZM197.879 139.704H196.606V138.216H200.816V139.704H199.602L199.543 148.949H197.937L192.199 141.31H192.16L192.101 147.461H193.374V148.949H189.164V147.461H190.378L190.437 139.704H189.164V138.216H192.337L197.781 145.482H197.82L197.879 139.704ZM206.907 138C210.609 138 212.234 140.448 212.234 143.426C212.234 146.814 210.216 149.164 206.907 149.164C203.205 149.164 201.58 146.716 201.58 143.72C201.58 140.351 203.596 138 206.907 138ZM206.907 147.441C208.904 147.441 210.04 145.736 210.04 143.562C210.04 141.115 208.709 139.724 206.907 139.724C204.909 139.724 203.773 141.428 203.773 143.641C203.773 146.05 205.105 147.441 206.907 147.441ZM215.602 147.461H216.816L216.874 139.704H214.721L214.641 141.232H213.017L213.134 138.216H222.751L222.868 141.232H221.242L221.164 139.704H219.01L218.951 147.461H220.223V148.949H215.602V147.461H215.602ZM224.062 147.461H225.276L225.335 139.704H224.062V138.216H232.112L232.209 141.232H230.623L230.486 139.704H227.451L227.431 142.74H230.505V144.229H227.411L227.391 147.46H230.446L230.643 145.736H232.366L232.171 148.948H224.062V147.461Z" fill="white"/>
</g>
<g filter="url(#filter4_ii_751_16632)">
<path d="M85.8809 215.753C81.6592 213.236 79.4241 209.918 78.5549 207.858C77.6857 205.913 77.1891 203.739 77.1891 201.565C77.1891 192.069 85.6326 184.288 96.0629 184.288C99.1671 184.288 101.65 186.577 101.65 189.437C101.65 191.382 100.533 192.984 98.7946 193.899C98.1737 194.243 97.3046 194.472 96.6837 194.586C96.0629 194.7 93.7036 194.929 92.5861 195.845C91.3444 196.76 90.351 198.247 90.351 199.849C90.351 201.565 91.0961 203.167 92.3378 204.311C94.5728 206.371 97.5529 207.515 100.781 207.515C109.225 207.515 116.054 201.222 116.054 193.442C116.054 186.462 110.963 180.284 104.258 177.538C103.265 177.08 101.65 176.737 100.16 176.394C98.2979 176.05 96.5595 175.822 96.4354 175.822C91.2202 175.25 78.1824 171.474 77.3132 160.833C77.3132 160.833 73.464 176.851 65.7655 181.199C65.0204 181.542 64.0271 181.886 62.9096 182.115C61.792 182.343 60.5503 182.458 60.1778 182.458C47.6367 183.144 34.3505 179.483 25.162 170.787C25.162 170.787 18.9535 166.096 15.7251 152.938C14.9801 149.735 13.49 144.014 12.6208 138.636C12.2483 136.691 12.1242 135.204 12 133.831C12 128.224 15.7251 124.449 20.4435 123.876C20.5677 123.876 20.9402 123.876 21.1886 123.876C24.0445 123.876 45.7741 123.876 45.7741 123.876C50.1201 123.876 52.6035 122.847 54.2177 121.474C56.3286 119.643 56.8252 117.011 56.8252 113.922C56.8252 113.922 56.8252 89.0984 56.8252 86.4668C56.8252 86.3524 56.8252 85.8947 56.8252 85.7803C57.4461 81.5469 61.5437 78 67.628 78C67.628 78 69.4906 78 70.6081 78C71.8498 78 73.3398 78.1144 74.7057 78.2288C75.699 78.3432 76.5682 78.5721 78.0583 78.9153C85.6326 80.6316 87.2468 87.7254 87.2468 87.7254C87.2468 87.7254 101.526 90.0137 108.728 91.1579C115.557 92.3021 132.445 93.3318 135.673 109.007C143.247 146.307 138.653 186.462 138.281 186.462C132.941 221.703 101.154 219.986 101.154 219.986C94.3245 219.986 89.2335 217.927 85.8809 215.753ZM114.44 136.81C110.342 136.467 106.866 137.954 105.624 140.815C105.376 141.387 105.127 142.073 105.251 142.417C105.376 142.76 105.624 142.874 105.872 142.989C107.362 143.675 109.846 144.018 113.447 144.362C117.048 144.705 119.531 144.934 121.145 144.705C121.393 144.705 121.642 144.59 121.89 144.247C122.138 143.904 122.014 143.217 122.014 142.645C121.518 139.442 118.538 137.268 114.44 136.81Z" fill="url(#paint3_linear_751_16632)"/>
</g>
<defs>
<filter id="filter0_f_751_16632" x="-20" y="25" width="298" height="184" filterUnits="userSpaceOnUse" color-interpolation-filters="sRGB">
<feFlood flood-opacity="0" result="BackgroundImageFix"/>
<feBlend mode="normal" in="SourceGraphic" in2="BackgroundImageFix" result="shape"/>
<feGaussianBlur stdDeviation="18.5" result="effect1_foregroundBlur_751_16632"/>
</filter>
<filter id="filter1_ii_751_16632" x="11.8057" y="63" width="229.194" height="161.219" filterUnits="userSpaceOnUse" color-interpolation-filters="sRGB">
<feFlood flood-opacity="0" result="BackgroundImageFix"/>
<feBlend mode="normal" in="SourceGraphic" in2="BackgroundImageFix" result="shape"/>
<feColorMatrix in="SourceAlpha" type="matrix" values="0 0 0 0 0 0 0 0 0 0 0 0 0 0 0 0 0 0 127 0" result="hardAlpha"/>
<feOffset dy="4"/>
<feComposite in2="hardAlpha" operator="arithmetic" k2="-1" k3="1"/>
<feColorMatrix type="matrix" values="0 0 0 0 1 0 0 0 0 1 0 0 0 0 1 0 0 0 0.25 0"/>
<feBlend mode="normal" in2="shape" result="effect1_innerShadow_751_16632"/>
<feColorMatrix in="SourceAlpha" type="matrix" values="0 0 0 0 0 0 0 0 0 0 0 0 0 0 0 0 0 0 127 0" result="hardAlpha"/>
<feOffset dy="-4"/>
<feComposite in2="hardAlpha" operator="arithmetic" k2="-1" k3="1"/>
<feColorMatrix type="matrix" values="0 0 0 0 0 0 0 0 0 0 0 0 0 0 0 0 0 0 0.9 0"/>
<feBlend mode="soft-light" in2="effect1_innerShadow_751_16632" result="effect2_innerShadow_751_16632"/>
</filter>
<filter id="filter2_ii_751_16632" x="20.1431" y="80.7666" width="28.3569" height="34.3829" filterUnits="userSpaceOnUse" color-interpolation-filters="sRGB">
<feFlood flood-opacity="0" result="BackgroundImageFix"/>
<feBlend mode="normal" in="SourceGraphic" in2="BackgroundImageFix" result="shape"/>
<feColorMatrix in="SourceAlpha" type="matrix" values="0 0 0 0 0 0 0 0 0 0 0 0 0 0 0 0 0 0 127 0" result="hardAlpha"/>
<feOffset dy="2.73342"/>
<feGaussianBlur stdDeviation="2.73342"/>
<feComposite in2="hardAlpha" operator="arithmetic" k2="-1" k3="1"/>
<feColorMatrix type="matrix" values="0 0 0 0 0.47451 0 0 0 0 0.764706 0 0 0 0 0.509804 0 0 0 1 0"/>
<feBlend mode="normal" in2="shape" result="effect1_innerShadow_751_16632"/>
<feColorMatrix in="SourceAlpha" type="matrix" values="0 0 0 0 0 0 0 0 0 0 0 0 0 0 0 0 0 0 127 0" result="hardAlpha"/>
<feOffset dy="-2.73342"/>
<feGaussianBlur stdDeviation="2.73342"/>
<feComposite in2="hardAlpha" operator="arithmetic" k2="-1" k3="1"/>
<feColorMatrix type="matrix" values="0 0 0 0 0 0 0 0 0 0.427451 0 0 0 0 0.0823529 0 0 0 1 0"/>
<feBlend mode="normal" in2="effect1_innerShadow_751_16632" result="effect2_innerShadow_751_16632"/>
</filter>
<filter id="filter3_d_751_16632" x="139" y="132" width="100.366" height="25.1641" filterUnits="userSpaceOnUse" color-interpolation-filters="sRGB">
<feFlood flood-opacity="0" result="BackgroundImageFix"/>
<feColorMatrix in="SourceAlpha" type="matrix" values="0 0 0 0 0 0 0 0 0 0 0 0 0 0 0 0 0 0 127 0" result="hardAlpha"/>
<feOffset dy="1"/>
<feGaussianBlur stdDeviation="3.5"/>
<feComposite in2="hardAlpha" operator="out"/>
<feColorMatrix type="matrix" values="0 0 0 0 0.0431373 0 0 0 0 0.482353 0 0 0 0 0.101961 0 0 0 0.7 0"/>
<feBlend mode="normal" in2="BackgroundImageFix" result="effect1_dropShadow_751_16632"/>
<feBlend mode="normal" in="SourceGraphic" in2="effect1_dropShadow_751_16632" result="shape"/>
</filter>
<filter id="filter4_ii_751_16632" x="12" y="76" width="128" height="146" filterUnits="userSpaceOnUse" color-interpolation-filters="sRGB">
<feFlood flood-opacity="0" result="BackgroundImageFix"/>
<feBlend mode="normal" in="SourceGraphic" in2="BackgroundImageFix" result="shape"/>
<feColorMatrix in="SourceAlpha" type="matrix" values="0 0 0 0 0 0 0 0 0 0 0 0 0 0 0 0 0 0 127 0" result="hardAlpha"/>
<feOffset dy="2"/>
<feGaussianBlur stdDeviation="2"/>
<feComposite in2="hardAlpha" operator="arithmetic" k2="-1" k3="1"/>
<feColorMatrix type="matrix" values="0 0 0 0 0.47451 0 0 0 0 0.764706 0 0 0 0 0.509804 0 0 0 1 0"/>
<feBlend mode="normal" in2="shape" result="effect1_innerShadow_751_16632"/>
<feColorMatrix in="SourceAlpha" type="matrix" values="0 0 0 0 0 0 0 0 0 0 0 0 0 0 0 0 0 0 127 0" result="hardAlpha"/>
<feOffset dy="-2"/>
<feGaussianBlur stdDeviation="2"/>
<feComposite in2="hardAlpha" operator="arithmetic" k2="-1" k3="1"/>
<feColorMatrix type="matrix" values="0 0 0 0 0 0 0 0 0 0.427451 0 0 0 0 0.0823529 0 0 0 1 0"/>
<feBlend mode="normal" in2="effect1_innerShadow_751_16632" result="effect2_innerShadow_751_16632"/>
</filter>
<linearGradient id="paint0_linear_751_16632" x1="17" y1="34" x2="197.768" y2="215.142" gradientUnits="userSpaceOnUse">
<stop stop-color="#05815D"/>
<stop offset="1" stop-color="#0C575F"/>
</linearGradient>
<linearGradient id="paint1_linear_751_16632" x1="17.5053" y1="63" x2="246.225" y2="208.327" gradientUnits="userSpaceOnUse">
<stop stop-color="#F1FCB3"/>
<stop offset="1" stop-color="#77BE7D"/>
</linearGradient>
<linearGradient id="paint2_linear_751_16632" x1="34.4485" y1="84.3147" x2="34.4485" y2="112.5" gradientUnits="userSpaceOnUse">
<stop offset="0.0585554" stop-color="#B8D605"/>
<stop offset="0.667955" stop-color="#53CC55"/>
</linearGradient>
<linearGradient id="paint3_linear_751_16632" x1="75.7646" y1="81.989" x2="75.7646" y2="220" gradientUnits="userSpaceOnUse">
<stop offset="0.0585554" stop-color="#B8D605"/>
<stop offset="0.667955" stop-color="#53CC55"/>
</linearGradient>
</defs>
</svg>
