<?xml version="1.0" encoding="UTF-8" standalone="no"?>
<svg
   width="256"
   height="256"
   viewBox="0 0 256 256"
   fill="none"
   version="1.1"
   id="svg12"
   sodipodi:docname="everything.svg"
   xml:space="preserve"
   inkscape:version="1.4 (86a8ad7, 2024-10-11)"
   xmlns:inkscape="http://www.inkscape.org/namespaces/inkscape"
   xmlns:sodipodi="http://sodipodi.sourceforge.net/DTD/sodipodi-0.dtd"
   xmlns:xlink="http://www.w3.org/1999/xlink"
   xmlns="http://www.w3.org/2000/svg"
   xmlns:svg="http://www.w3.org/2000/svg"><sodipodi:namedview
     id="namedview12"
     pagecolor="#ffffff"
     bordercolor="#000000"
     borderopacity="0.25"
     inkscape:showpageshadow="2"
     inkscape:pageopacity="0.0"
     inkscape:pagecheckerboard="0"
     inkscape:deskcolor="#d1d1d1"
     inkscape:zoom="1.4142136"
     inkscape:cx="6.0104076"
     inkscape:cy="78.135299"
     inkscape:window-width="1366"
     inkscape:window-height="745"
     inkscape:window-x="-8"
     inkscape:window-y="-8"
     inkscape:window-maximized="1"
     inkscape:current-layer="svg12" /><path
     fill-rule="evenodd"
     clip-rule="evenodd"
     d="M104.425 42.3784C100.056 37.0733 93.5437 34 86.6712 34H29C22.3726 34 17 39.3726 17 46V58.1371V68.2V160C17 166.627 22.3726 172 29 172H229C235.627 172 241 166.627 241 160V70.1371C241 63.5097 235.627 58.1371 229 58.1371H117.404L104.425 42.3784Z"
     fill="#E40409"
     id="path1"
     style="fill:#ff8000;fill-opacity:1" /><mask
     id="mask0_1148_28030"
     style="mask-type:alpha"
     maskUnits="userSpaceOnUse"
     x="17"
     y="34"
     width="224"
     height="138"><path
       fill-rule="evenodd"
       clip-rule="evenodd"
       d="M104.425 42.3784C100.056 37.0733 93.5437 34 86.6712 34H29C22.3726 34 17 39.3726 17 46V58.1371V68.2V160C17 166.627 22.3726 172 29 172H229C235.627 172 241 166.627 241 160V70.1371C241 63.5097 235.627 58.1371 229 58.1371H117.404L104.425 42.3784Z"
       fill="url(#paint0_linear_1148_28030)"
       id="path2" /></mask><g
     mask="url(#mask0_1148_28030)"
     id="g4"><g
       style="mix-blend-mode:multiply"
       filter="url(#filter0_f_1148_28030)"
       id="g3"><path
         fill-rule="evenodd"
         clip-rule="evenodd"
         d="M92.789 74C97.7642 74 102.605 72.3868 106.586 69.4024L116.459 62H229C235.627 62 241 67.3726 241 74V108V160C241 166.627 235.627 172 229 172H29C22.3726 172 17 166.627 17 160L17 108V86C17 79.3726 22.3726 74 29 74H87H92.789Z"
         fill="black"
         fill-opacity="0.3"
         id="path3" /></g></g><g
     filter="url(#filter1_ii_1148_28030)"
     id="g5"
     style="stroke-width:10;stroke-dasharray:none"><path
       fill-rule="evenodd"
       clip-rule="evenodd"
       d="M92.789 74C97.7642 74 102.605 72.3868 106.586 69.4024L116.459 62H229C235.627 62 241 67.3726 241 74V108V198C241 204.627 235.627 210 229 210H29C22.3726 210 17 204.627 17 198L17 108V86C17 79.3726 22.3726 74 29 74H87H92.789Z"
       fill="url(#paint1_linear_1148_28030)"
       id="path4"
       style="stroke-width:10;stroke-dasharray:none" /></g><defs
     id="defs12"><filter
       id="filter0_f_1148_28030"
       x="-20"
       y="25"
       width="298"
       height="184"
       filterUnits="userSpaceOnUse"
       color-interpolation-filters="sRGB"><feFlood
         flood-opacity="0"
         result="BackgroundImageFix"
         id="feFlood5" /><feBlend
         mode="normal"
         in="SourceGraphic"
         in2="BackgroundImageFix"
         result="shape"
         id="feBlend5" /><feGaussianBlur
         stdDeviation="18.5"
         result="effect1_foregroundBlur_1148_28030"
         id="feGaussianBlur5" /></filter><filter
       id="filter1_ii_1148_28030"
       x="17"
       y="62"
       width="224"
       height="148"
       filterUnits="userSpaceOnUse"
       color-interpolation-filters="sRGB"><feFlood
         flood-opacity="0"
         result="BackgroundImageFix"
         id="feFlood6" /><feBlend
         mode="normal"
         in="SourceGraphic"
         in2="BackgroundImageFix"
         result="shape"
         id="feBlend6" /><feColorMatrix
         in="SourceAlpha"
         type="matrix"
         values="0 0 0 0 0 0 0 0 0 0 0 0 0 0 0 0 0 0 127 0"
         result="hardAlpha"
         id="feColorMatrix6" /><feOffset
         dy="4"
         id="feOffset6" /><feComposite
         in2="hardAlpha"
         operator="arithmetic"
         k2="-1"
         k3="1"
         id="feComposite6" /><feColorMatrix
         type="matrix"
         values="0 0 0 0 1 0 0 0 0 1 0 0 0 0 1 0 0 0 0.25 0"
         id="feColorMatrix7" /><feBlend
         mode="normal"
         in2="shape"
         result="effect1_innerShadow_1148_28030"
         id="feBlend7" /><feColorMatrix
         in="SourceAlpha"
         type="matrix"
         values="0 0 0 0 0 0 0 0 0 0 0 0 0 0 0 0 0 0 127 0"
         result="hardAlpha"
         id="feColorMatrix8" /><feOffset
         dy="-4"
         id="feOffset8" /><feComposite
         in2="hardAlpha"
         operator="arithmetic"
         k2="-1"
         k3="1"
         id="feComposite8" /><feColorMatrix
         type="matrix"
         values="0 0 0 0 0 0 0 0 0 0 0 0 0 0 0 0 0 0 0.9 0"
         id="feColorMatrix9" /><feBlend
         mode="soft-light"
         in2="effect1_innerShadow_1148_28030"
         result="effect2_innerShadow_1148_28030"
         id="feBlend9" /></filter><linearGradient
       id="paint0_linear_1148_28030"
       x1="17"
       y1="34"
       x2="197.768"
       y2="215.142"
       gradientUnits="userSpaceOnUse"><stop
         stop-color="#05815D"
         id="stop9" /><stop
         offset="1"
         stop-color="#0C575F"
         id="stop10" /></linearGradient><linearGradient
       id="paint1_linear_1148_28030"
       x1="17"
       y1="62"
       x2="241"
       y2="210"
       gradientUnits="userSpaceOnUse"
       xlink:href="#paint0_linear_1148_28030"
       inkscape:collect="always"><stop
         stop-color="#EB1C24"
         id="stop11"
         offset="1"
         style="stop-color:#ff8000;stop-opacity:1;" /><stop
         offset="1"
         stop-color="#EB1C4E"
         id="stop12"
         style="stop-color:#eb1c4e;stop-opacity:1;" /></linearGradient></defs><g
     id="g16"
     style="display:inline;stroke:#a84300;stroke-width:4.40406;stroke-dasharray:none;stroke-opacity:1"
     transform="matrix(1.1353163,0,0,1.1353163,-23.977957,-20.398839)"><circle
       style="fill:#ffffff;fill-opacity:1;stroke:#a84300;stroke-width:7.04649;stroke-dasharray:none;stroke-opacity:1;paint-order:stroke fill markers"
       id="path12-0"
       cx="143.32822"
       cy="130.21609"
       r="23.937071" /><path
       id="rect12"
       style="stroke:#a84300;stroke-width:4.40406;stroke-dasharray:none;stroke-opacity:1;paint-order:stroke fill markers"
       transform="matrix(0.70553507,-0.70867501,-0.70867501,-0.70553507,0,0)"
       d="M -30.012118,-186.15841 H -66.62927 c -4.267676,0 -7.703387,-3.43571 -7.703387,-7.70339 0,-4.26768 3.435711,-7.70339 7.703387,-7.70339 h 36.669712"
       sodipodi:nodetypes="csssc" /><path
       id="path12"
       style="stroke:#a84300;stroke-width:4.40406;stroke-dasharray:none;stroke-opacity:1;paint-order:stroke fill markers"
       d="m 110.49215,155.40816 c -4.56814,-6.50507 -7.12789,-16.18616 -7.12789,-24.73068 0,-22.12524 17.30257,-41.193937 39.42781,-41.193938 22.12524,10e-7 40.06129,17.936058 40.06129,40.061298 0,22.12524 -17.93605,40.06129 -40.06129,40.06129 -8.06521,0 -17.53038,-1.73512 -23.8264,-5.85441"
       sodipodi:nodetypes="cssssc" /></g></svg>
