<svg width="256" height="256" viewBox="0 0 256 256" fill="none" xmlns="http://www.w3.org/2000/svg">
<g clip-path="url(#clip0_2032_35551)">
<path fill-rule="evenodd" clip-rule="evenodd" d="M104.425 42.3784C100.056 37.0733 93.5437 34 86.6712 34H29C22.3726 34 17 39.3726 17 46V58.1371V68.2V160C17 166.627 22.3726 172 29 172H229C235.627 172 241 166.627 241 160V70.1371C241 63.5097 235.627 58.1371 229 58.1371H117.404L104.425 42.3784Z" fill="#E6E6E6"/>
<mask id="mask0_2032_35551" style="mask-type:alpha" maskUnits="userSpaceOnUse" x="17" y="34" width="224" height="138">
<path fill-rule="evenodd" clip-rule="evenodd" d="M104.425 42.3784C100.056 37.0733 93.5437 34 86.6712 34H29C22.3726 34 17 39.3726 17 46V58.1371V68.2V160C17 166.627 22.3726 172 29 172H229C235.627 172 241 166.627 241 160V70.1371C241 63.5097 235.627 58.1371 229 58.1371H117.404L104.425 42.3784Z" fill="url(#paint0_linear_2032_35551)"/>
</mask>
<g mask="url(#mask0_2032_35551)">
<g style="mix-blend-mode:multiply" filter="url(#filter0_f_2032_35551)">
<path fill-rule="evenodd" clip-rule="evenodd" d="M92.789 74C97.7642 74 102.605 72.3868 106.586 69.4024L116.459 62H229C235.627 62 241 67.3726 241 74V108V160C241 166.627 235.627 172 229 172H29C22.3726 172 17 166.627 17 160L17 108V86C17 79.3726 22.3726 74 29 74H87H92.789Z" fill="black" fill-opacity="0.3"/>
</g>
</g>
<g filter="url(#filter1_ii_2032_35551)">
<path fill-rule="evenodd" clip-rule="evenodd" d="M92.789 74C97.7642 74 102.605 72.3868 106.586 69.4024L116.459 62H229C235.627 62 241 67.3726 241 74V108V198C241 204.627 235.627 210 229 210H29C22.3726 210 17 204.627 17 198L17 108V86C17 79.3726 22.3726 74 29 74H87H92.789Z" fill="url(#paint1_linear_2032_35551)"/>
</g>
<path d="M93.6331 121.77C92.4842 123.972 90.684 125.765 88.4785 126.905L116.777 155.339L123.599 151.879L93.6331 121.77ZM130.959 159.274L124.137 162.735L138.475 177.143C139.624 174.94 141.425 173.146 143.631 172.007L130.959 159.274Z" fill="#A730B8"/>
<path d="M163.702 133.02L147.681 141.146L148.862 148.709L166.989 139.513C165.251 137.739 164.103 135.471 163.702 133.02ZM138.381 145.864L100.502 165.078C102.24 166.852 103.388 169.12 103.79 171.573L139.562 153.426L138.381 145.864Z" fill="#5496BE"/>
<path d="M126.198 98.5332L107.92 134.249L113.317 139.671L132.669 101.857C130.222 101.442 127.962 100.282 126.198 98.5332ZM103.166 143.538L93.9082 161.629C96.3554 162.043 98.6151 163.203 100.379 164.952L108.563 148.96L103.166 143.538Z" fill="#CE3D1A"/>
<path d="M88.3209 126.984C86.4566 127.918 84.3821 128.352 82.3001 128.244C81.9106 128.223 81.5223 128.182 81.1367 128.123L86.5428 162.733C88.407 161.799 90.4815 161.365 92.5635 161.474C92.9528 161.495 93.3408 161.536 93.7262 161.595L88.3209 126.984Z" fill="#D0188F"/>
<path d="M103.817 171.744C103.941 172.548 103.983 173.362 103.943 174.174C103.851 175.831 103.418 177.451 102.672 178.933L137.245 184.486C137.121 183.683 137.079 182.868 137.119 182.056C137.211 180.399 137.644 178.779 138.391 177.297L103.817 171.744Z" fill="#5B36E9"/>
<path d="M167.108 139.639L151.15 170.821C153.598 171.236 155.858 172.396 157.622 174.145L173.58 142.963C171.132 142.549 168.872 141.388 167.108 139.639Z" fill="#30B873"/>
<path d="M145.343 95.5371C144.194 97.7398 142.393 99.5335 140.188 100.673L164.9 125.504C166.049 123.302 167.85 121.508 170.056 120.368L145.343 95.5371Z" fill="#EBE305"/>
<path d="M122.789 91.9121L91.5488 107.758C93.2867 109.532 94.4349 111.8 94.8365 114.252L126.076 98.4052C124.339 96.6313 123.19 94.3636 122.789 91.9121Z" fill="#F47601"/>
<path d="M140.132 100.701C138.243 101.67 136.132 102.122 134.012 102.011C133.659 101.99 133.307 101.953 132.957 101.901L135.725 119.637L143.275 120.849L140.132 100.701ZM137.333 129.948L143.875 171.881C145.718 170.977 147.76 170.559 149.808 170.666C150.231 170.69 150.652 170.736 151.069 170.804L144.884 131.16L137.333 129.948Z" fill="#57C115"/>
<path d="M94.8583 114.385C94.9868 115.201 95.0313 116.028 94.9909 116.853C94.8999 118.497 94.4736 120.105 93.7383 121.578L111.472 124.429L114.957 117.616L94.8583 114.385ZM125.252 119.27L121.766 126.084L163.666 132.819C163.546 132.024 163.505 131.22 163.545 130.417C163.638 128.751 164.076 127.121 164.831 125.632L125.252 119.27Z" fill="#DBB210"/>
<path d="M134.072 100.917C140.114 101.246 145.279 96.6109 145.608 90.5632C145.937 84.5156 141.306 79.3459 135.264 79.0165C129.222 78.6871 124.057 83.3226 123.727 89.3703C123.398 95.418 128.03 100.588 134.072 100.917Z" fill="#FFCA00" fill-opacity="0.995968"/>
<path d="M174.984 142.024C181.026 142.354 186.191 137.718 186.52 131.67C186.849 125.623 182.218 120.453 176.176 120.124C170.134 119.795 164.969 124.43 164.64 130.478C164.311 136.525 168.942 141.695 174.984 142.024Z" fill="#64FF00" fill-opacity="0.995968"/>
<path d="M148.556 193.663C154.598 193.993 159.763 189.357 160.092 183.309C160.421 177.262 155.79 172.092 149.748 171.763C143.706 171.433 138.541 176.069 138.212 182.116C137.882 188.164 142.514 193.334 148.556 193.663Z" fill="#00A3FF" fill-opacity="0.995968"/>
<path d="M91.312 184.468C97.3541 184.797 102.519 180.162 102.848 174.114C103.177 168.066 98.5459 162.897 92.5038 162.567C86.4617 162.238 81.2968 166.873 80.9677 172.921C80.6385 178.968 85.2698 184.138 91.312 184.468Z" fill="#9500FF" fill-opacity="0.995968"/>
<path d="M82.3607 127.149C88.4029 127.479 93.5677 122.843 93.8968 116.796C94.226 110.748 89.5947 105.578 83.5526 105.249C77.5105 104.92 72.3456 109.555 72.0165 115.603C71.6874 121.65 76.3187 126.82 82.3607 127.149Z" fill="#FF0000" fill-opacity="0.995968"/>
</g>
<defs>
<filter id="filter0_f_2032_35551" x="-20" y="25" width="298" height="184" filterUnits="userSpaceOnUse" color-interpolation-filters="sRGB">
<feFlood flood-opacity="0" result="BackgroundImageFix"/>
<feBlend mode="normal" in="SourceGraphic" in2="BackgroundImageFix" result="shape"/>
<feGaussianBlur stdDeviation="18.5" result="effect1_foregroundBlur_2032_35551"/>
</filter>
<filter id="filter1_ii_2032_35551" x="17" y="62" width="224" height="148" filterUnits="userSpaceOnUse" color-interpolation-filters="sRGB">
<feFlood flood-opacity="0" result="BackgroundImageFix"/>
<feBlend mode="normal" in="SourceGraphic" in2="BackgroundImageFix" result="shape"/>
<feColorMatrix in="SourceAlpha" type="matrix" values="0 0 0 0 0 0 0 0 0 0 0 0 0 0 0 0 0 0 127 0" result="hardAlpha"/>
<feOffset dy="-4"/>
<feComposite in2="hardAlpha" operator="arithmetic" k2="-1" k3="1"/>
<feColorMatrix type="matrix" values="0 0 0 0 0 0 0 0 0 0 0 0 0 0 0 0 0 0 0.25 0"/>
<feBlend mode="normal" in2="shape" result="effect1_innerShadow_2032_35551"/>
<feColorMatrix in="SourceAlpha" type="matrix" values="0 0 0 0 0 0 0 0 0 0 0 0 0 0 0 0 0 0 127 0" result="hardAlpha"/>
<feOffset dy="4"/>
<feComposite in2="hardAlpha" operator="arithmetic" k2="-1" k3="1"/>
<feColorMatrix type="matrix" values="0 0 0 0 1 0 0 0 0 1 0 0 0 0 1 0 0 0 0.25 0"/>
<feBlend mode="normal" in2="effect1_innerShadow_2032_35551" result="effect2_innerShadow_2032_35551"/>
</filter>
<linearGradient id="paint0_linear_2032_35551" x1="17" y1="34" x2="197.768" y2="215.142" gradientUnits="userSpaceOnUse">
<stop stop-color="#05815D"/>
<stop offset="1" stop-color="#0C575F"/>
</linearGradient>
<linearGradient id="paint1_linear_2032_35551" x1="17" y1="62" x2="241" y2="210" gradientUnits="userSpaceOnUse">
<stop stop-color="#5F585E"/>
<stop offset="1" stop-color="#010101"/>
</linearGradient>
<clipPath id="clip0_2032_35551">
<rect width="256" height="256" fill="white"/>
</clipPath>
</defs>
</svg>
