<svg width="256" height="256" viewBox="0 0 256 256" fill="none" xmlns="http://www.w3.org/2000/svg">
<g clip-path="url(#clip0_4394_12888)">
<path d="M104.425 42.3784C100.056 37.0733 93.5437 34 86.6712 34H29C22.3726 34 17 39.3726 17 46V160C17 166.627 22.3726 172 29 172H229C235.627 172 241 166.627 241 160V70.1371C241 63.5097 235.627 58.1371 229 58.1371H117.404L104.425 42.3784Z" fill="url(#paint0_linear_4394_12888)"/>
<mask id="mask0_4394_12888" style="mask-type:alpha" maskUnits="userSpaceOnUse" x="17" y="34" width="224" height="138">
<path d="M86.6709 34C93.5434 34 100.057 37.0729 104.426 42.3779L117.403 58.1367H229C235.627 58.1367 241 63.5095 241 70.1367V160C241 166.627 235.627 172 229 172H29C22.3726 172 17 166.627 17 160V46C17 39.3726 22.3726 34 29 34H86.6709Z" fill="url(#paint1_linear_4394_12888)"/>
</mask>
<g mask="url(#mask0_4394_12888)">
<g filter="url(#filter0_f_4394_12888)" style="mix-blend-mode:multiply">
<path d="M241 160C241 166.627 235.627 172 229 172H29C22.3726 172 17 166.627 17 160V86C17 79.3726 22.3726 74 29 74H92.79C97.7649 73.9999 102.605 72.3865 106.586 69.4023L116.46 62H229C235.627 62 241 67.3726 241 74V160Z" fill="black" fill-opacity="0.3"/>
</g>
</g>
<g filter="url(#filter1_ii_4394_12888)">
<path d="M241 198C241 204.627 235.627 210 229 210H29C22.3726 210 17 204.627 17 198V86C17 79.3726 22.3726 74 29 74H92.79C97.7649 73.9999 102.605 72.3865 106.586 69.4023L116.46 62H229C235.627 62 241 67.3726 241 74V198Z" fill="url(#paint2_linear_4394_12888)"/>
</g>
<path d="M112.682 177.926C117.159 179.727 122.016 180.797 127.116 180.975C134.018 181.216 140.582 179.789 146.45 177.078C139.413 174.313 133.041 170.271 127.602 165.244C124.076 170.889 118.862 175.347 112.682 177.926Z" fill="#FF9100"/>
<path d="M127.602 165.246C115.187 153.764 107.655 137.145 108.292 118.917C108.313 118.325 108.344 117.734 108.38 117.142C106.157 116.567 103.836 116.216 101.447 116.133C98.0273 116.014 94.7159 116.438 91.5897 117.318C88.2756 123.123 86.2756 129.785 86.0264 136.919C85.3835 155.332 96.5263 171.421 112.681 177.927C118.862 175.349 124.076 170.896 127.602 165.246Z" fill="#FFC400"/>
<path d="M127.601 165.244C130.488 160.625 132.238 155.21 132.441 149.375C132.977 134.027 122.66 120.825 108.38 117.141C108.343 117.732 108.312 118.324 108.291 118.915C107.655 137.143 115.186 153.762 127.601 165.244Z" fill="#FF9100"/>
<path d="M130.844 74C122.711 80.5155 116.289 89.1068 112.404 99.0037C110.179 104.673 108.781 110.762 108.373 117.145C122.653 120.829 132.971 134.032 132.435 149.38C132.231 155.214 130.476 160.624 127.595 165.249C133.033 170.28 139.406 174.318 146.442 177.082C160.566 170.554 170.586 156.506 171.166 139.89C171.542 129.124 167.406 119.529 161.561 111.43C155.389 102.865 130.844 74 130.844 74Z" fill="#DD2C00"/>
</g>
<defs>
<filter id="filter0_f_4394_12888" x="-20" y="25" width="298" height="184" filterUnits="userSpaceOnUse" color-interpolation-filters="sRGB">
<feFlood flood-opacity="0" result="BackgroundImageFix"/>
<feBlend mode="normal" in="SourceGraphic" in2="BackgroundImageFix" result="shape"/>
<feGaussianBlur stdDeviation="18.5" result="effect1_foregroundBlur_4394_12888"/>
</filter>
<filter id="filter1_ii_4394_12888" x="17" y="62" width="224" height="148" filterUnits="userSpaceOnUse" color-interpolation-filters="sRGB">
<feFlood flood-opacity="0" result="BackgroundImageFix"/>
<feBlend mode="normal" in="SourceGraphic" in2="BackgroundImageFix" result="shape"/>
<feColorMatrix in="SourceAlpha" type="matrix" values="0 0 0 0 0 0 0 0 0 0 0 0 0 0 0 0 0 0 127 0" result="hardAlpha"/>
<feOffset dy="4"/>
<feComposite in2="hardAlpha" operator="arithmetic" k2="-1" k3="1"/>
<feColorMatrix type="matrix" values="0 0 0 0 1 0 0 0 0 1 0 0 0 0 1 0 0 0 0.25 0"/>
<feBlend mode="normal" in2="shape" result="effect1_innerShadow_4394_12888"/>
<feColorMatrix in="SourceAlpha" type="matrix" values="0 0 0 0 0 0 0 0 0 0 0 0 0 0 0 0 0 0 127 0" result="hardAlpha"/>
<feOffset dy="-4"/>
<feComposite in2="hardAlpha" operator="arithmetic" k2="-1" k3="1"/>
<feColorMatrix type="matrix" values="0 0 0 0 0 0 0 0 0 0 0 0 0 0 0 0 0 0 0.9 0"/>
<feBlend mode="soft-light" in2="effect1_innerShadow_4394_12888" result="effect2_innerShadow_4394_12888"/>
</filter>
<linearGradient id="paint0_linear_4394_12888" x1="17" y1="34" x2="197.768" y2="215.142" gradientUnits="userSpaceOnUse">
<stop stop-color="#E6E6E6"/>
</linearGradient>
<linearGradient id="paint1_linear_4394_12888" x1="17" y1="34" x2="197.768" y2="215.142" gradientUnits="userSpaceOnUse">
<stop stop-color="#05815D"/>
<stop offset="1" stop-color="#0C575F"/>
</linearGradient>
<linearGradient id="paint2_linear_4394_12888" x1="17" y1="62" x2="241" y2="210" gradientUnits="userSpaceOnUse">
<stop stop-color="#5F585E"/>
<stop offset="1" stop-color="#010101"/>
</linearGradient>
<clipPath id="clip0_4394_12888">
<rect width="256" height="256" fill="white"/>
</clipPath>
</defs>
</svg>
