<svg width="256" height="256" viewBox="0 0 256 256" fill="none" xmlns="http://www.w3.org/2000/svg">
<g clip-path="url(#clip0_2043_34854)">
<path fill-rule="evenodd" clip-rule="evenodd" d="M104.425 42.3784C100.056 37.0733 93.5437 34 86.6712 34H29C22.3726 34 17 39.3726 17 46V58.1371V68.2V160C17 166.627 22.3726 172 29 172H229C235.627 172 241 166.627 241 160V70.1371C241 63.5097 235.627 58.1371 229 58.1371H117.404L104.425 42.3784Z" fill="#E6E6E6"/>
<mask id="mask0_2043_34854" style="mask-type:alpha" maskUnits="userSpaceOnUse" x="17" y="34" width="224" height="138">
<path fill-rule="evenodd" clip-rule="evenodd" d="M104.425 42.3784C100.056 37.0733 93.5437 34 86.6712 34H29C22.3726 34 17 39.3726 17 46V58.1371V68.2V160C17 166.627 22.3726 172 29 172H229C235.627 172 241 166.627 241 160V70.1371C241 63.5097 235.627 58.1371 229 58.1371H117.404L104.425 42.3784Z" fill="url(#paint0_linear_2043_34854)"/>
</mask>
<g mask="url(#mask0_2043_34854)">
<g style="mix-blend-mode:multiply" filter="url(#filter0_f_2043_34854)">
<path fill-rule="evenodd" clip-rule="evenodd" d="M92.789 74C97.7642 74 102.605 72.3868 106.586 69.4024L116.459 62H229C235.627 62 241 67.3726 241 74V108V160C241 166.627 235.627 172 229 172H29C22.3726 172 17 166.627 17 160L17 108V86C17 79.3726 22.3726 74 29 74H87H92.789Z" fill="black" fill-opacity="0.3"/>
</g>
</g>
<g filter="url(#filter1_ii_2043_34854)">
<path fill-rule="evenodd" clip-rule="evenodd" d="M92.789 74C97.7642 74 102.605 72.3868 106.586 69.4024L116.459 62H229C235.627 62 241 67.3726 241 74V108V198C241 204.627 235.627 210 229 210H29C22.3726 210 17 204.627 17 198L17 108V86C17 79.3726 22.3726 74 29 74H87H92.789Z" fill="url(#paint1_linear_2043_34854)"/>
</g>
<path d="M104.486 181.329C99.9623 177.771 95.1367 174.359 91.8391 169.556C84.9006 161.084 79.5581 151.276 75.9059 140.97C73.6983 134.268 72.9422 127.083 70.0964 120.639C67.1194 115.96 70.6066 110.844 75.7325 109.357C78.0147 108.919 82.0274 106.766 77.1836 108.305C72.841 111.491 72.4207 105.413 76.8737 105.028C79.9127 104.624 81.0314 102.136 79.9922 99.8963C76.73 97.769 87.9026 95.431 82.281 92.2567C76.4248 85.9386 90.4725 84.7223 87.0067 91.8978C86.1771 97.4155 96.8226 90.8865 94.3526 97.2582C96.8631 100.318 103.754 97.9546 103.583 102.247C107.24 102.499 108.495 105.576 111.928 105.812C115.486 107.419 121.936 108.685 123.147 112.695C119.617 115.489 111.443 106.922 111.05 114.658C112.116 126.086 111.845 137.858 116.026 148.741C118.004 155.33 122.798 160.518 127.127 165.649C131.271 170.676 136.882 174.214 142.601 177.194C147.619 179.56 153.027 181.129 158.496 182.114C160.713 180.418 164.629 174.111 168.089 176.771C168.252 179.759 161.222 183.017 167.757 182.686C171.596 181.529 174.257 185.655 177.418 181.933C180.33 185.382 189.521 179.729 187.449 186.779C184.647 188.587 180.561 187.494 177.756 189.981C173.129 187.67 169.446 192.049 164.324 191.495C158.636 192.514 152.849 192.925 147.082 192.934C137.621 192.186 127.96 191.871 118.96 188.578C113.89 187.104 108.942 184.217 104.486 181.329ZM112.476 184.791C117.427 186.932 122.268 189.188 127.694 189.869C136.302 191.066 145.191 192.908 153.83 191.228C149.92 189.463 145.878 191.916 141.982 189.966C137.311 190.971 132.297 189.709 127.549 189.088C122.147 186.683 116.319 185.029 111.262 181.906C104.942 179.598 114.53 184.866 116.237 185.293C120.187 187.535 111.892 184.143 110.723 183.211C107.414 181.355 106.992 181.743 110.395 183.628C111.081 184.029 111.758 184.449 112.476 184.791ZM103.056 178.133C107.853 179.911 103.034 174.76 100.836 175.059C99.8621 173.369 97.1149 172.302 99.0528 171.394C95.5669 172.604 95.4011 166.792 93.7626 167.623C90.0747 166.458 92.3272 162.333 87.9344 159.799C87.5334 157.13 83.5699 154.815 82.3057 150.789C81.7474 148.728 77.8279 142.808 80.2356 148.317C82.2857 153.621 85.8927 158.163 88.8945 162.699C91.2253 167.018 93.9776 171.533 98.2224 174.228C99.6534 175.6 101.035 177.703 103.056 178.133ZM89.2352 162.959C89.4026 162.235 90.1126 164.528 89.2352 162.959V162.959ZM108.801 180.264C107.273 179.664 109.863 179.788 108.801 180.264V180.264ZM111.406 181.214C110.216 181.947 111.136 179.902 111.406 181.214V181.214ZM114.665 182.573C112.273 181.642 116.217 181.096 114.665 182.573V182.573ZM120.252 185.688C117.234 185.161 121.196 184.293 120.252 185.688V185.688ZM109.523 178.208C106.41 178.187 111.934 176.649 109.523 178.208V178.208ZM111.969 179.428C111.097 179.797 111.901 178.603 111.969 179.428V179.428ZM124.191 187.056C126.156 188.296 135.664 189.774 129.711 187.564C128.714 187.774 118.67 184.724 124.191 187.056ZM104.788 171.944C101.738 171.032 104.597 171.118 104.788 171.944V171.944ZM110.478 175.261C107.404 174.464 111.959 174.228 110.478 175.261V175.261ZM115.264 178.195C111.817 177.39 117.389 177.394 115.264 178.195V178.195ZM102.473 169.423C104.778 171.191 111.771 169.649 106.004 168.368C103.379 166.968 97.4626 166.011 101.495 169.211L102.473 169.423ZM118.506 179.208C114.478 178.274 119.466 177.572 118.506 179.208V179.208ZM113.634 175.336C119.271 176.931 108.893 171.771 112.242 174.749L112.985 175.086L113.634 175.336ZM123.401 180.982C118.579 180.246 128.741 181.033 123.401 180.982V180.982ZM100.418 166.334C99.1009 166.418 100.21 165.339 100.418 166.334V166.334ZM132.432 186.048C130.691 187.384 132.575 184.252 132.432 186.048V186.048ZM109.53 171.914C107.862 171.875 109.207 170.968 109.53 171.914V171.914ZM100.925 165.71C96.7283 164.359 103.99 165.526 100.925 165.71V165.71ZM90.7309 159.121C87.3955 156.479 90.3494 157.651 90.7309 159.121V159.121ZM117.492 176.104C116.931 175.464 117.228 176.244 117.492 176.104V176.104ZM134.149 186.326C133.242 186.696 134.096 185.348 134.149 186.326V186.326ZM116.018 174.582C113.404 174.2 116.318 173.321 116.018 174.582V174.582ZM103.609 166.718C99.9557 165.176 105.889 166.473 103.609 166.718V166.718ZM124.6 179.761C121.137 179.074 128.154 178.353 124.6 179.761V179.761ZM113.681 172.349C117.777 172.878 108.808 169.564 112.782 172.053L113.681 172.349ZM127.915 181.101C131.739 178.815 130.478 186.454 134.402 181.746C138.273 178.92 131.059 185.241 135.83 182.251C139.28 179.943 144.376 183.344 147.595 184.454C149.91 184.34 152.16 186.456 154.534 185.169C159.102 183.938 145.6 183.344 149.139 181.161C144.959 182.377 141.871 179.71 139.814 177.033C135.124 175.949 129.703 173.553 127.363 169.403C126.409 167.845 128.741 169.623 126.539 167.076C123.714 164.563 122.303 161.71 120.406 158.655C118.14 157.446 117.876 153.888 117.647 158.536C117.665 155.603 114.911 153.628 114.239 154.449C114.227 151.624 117.186 153.04 115.115 150.95C114.669 148.023 113.201 144.971 112.76 141.666C112.074 140.073 112.663 136.66 110.42 140.267C109.603 144.079 110.149 135.583 111.419 138.384C113.088 135.525 110.821 135.861 110.728 136.258C111.814 133.846 111.416 130.424 110.444 131.729C111.023 129.173 111.359 122.32 109.578 123.534C110.658 120.861 111.626 111.3 106.938 114.945C105.038 114.972 101.748 115.635 100.193 116.408C105.069 119.096 99.7022 117.379 97.7172 116.952C97.4586 119.439 95.4926 118.363 93.0364 118.388C96.9595 118.873 91.126 122.4 88.8754 121.03C85.9526 122.427 91.3979 125.914 88.9341 126.992C89.2369 128.618 84.4562 126.405 84.8317 130.159C81.9942 128.965 84.441 134.611 85.8606 132.702C90.6867 134.008 89.2581 136.986 89.3809 139.814C88.5946 141.463 85.4987 135.94 88.6914 136.196C86.1726 132.104 85.9052 134.717 83.8121 136.618C83.3252 136.756 89.1511 139.323 85.495 140.592C88.7116 141.088 88.8031 143.903 89.4579 145.684C91.3912 147.698 90.9955 143.461 93.3088 145.88C91.8449 143.724 85.5549 139.806 90.6192 141.063C90.5922 138.893 89.7033 137.143 91.2549 137.186C92.7914 134.403 89.6457 144.046 93.109 140.51C94.0677 140.091 94.3052 137.724 96.0284 140.733C98.5313 143.196 96.9325 144.98 93.4018 142.725C94.0335 144.868 98.1249 145.634 97.3561 148.985C98.1711 151.932 99.3116 150.847 100.306 150.676C101.085 153.54 101.528 151.434 101.565 150.071C105.135 150.836 104.299 152.946 105.416 154.421C107.876 155.531 101.895 146.893 106.119 151.823C110.562 155.836 107.785 157.511 103.797 156.868C106.321 156.664 107.135 160.28 110.292 160.153C113.171 161.523 115.121 166.783 110.158 164.593C108.437 163.041 102.346 161.127 107.321 164.079C111.916 166.206 115.565 167.479 119.997 170.15C123.168 172.414 124.538 175.008 125.741 175.521C123.075 176.794 117.707 174.504 121.693 173.803C119.207 173.35 116.411 172.093 118.792 175.19C120.817 176.881 125.966 176.701 126.889 176.893C126.106 178.617 124.764 178.754 126.921 178.888C124.514 180.17 127.692 180.368 127.915 181.101ZM122.994 167.205C121.53 165.674 121.152 162.806 122.734 165.301C123.546 165.627 125.334 169.988 122.994 167.205ZM139.02 177.384C139.046 178.078 139.933 177.325 139.02 177.384V177.384ZM120.682 163.451C120.626 161.136 121.212 165.236 120.682 163.451V163.451ZM119.09 161.308C117.248 157.749 121.411 162.315 119.09 161.308V161.308ZM99.7883 147.986C100.321 149.836 100.87 147.697 99.7883 147.986V147.986ZM115.15 156.312C115.814 153.817 115.931 158.406 115.15 156.312V156.312ZM104.297 148.766C103.532 147.389 105.898 150.058 104.297 148.766V148.766ZM113.611 151.752C111.866 147.843 114.846 149.616 113.997 152.393L113.611 151.752ZM97.5496 141.04C96.7696 139.758 95.4793 135.995 95.8947 134.846C96.2704 136.717 99.8729 142.897 97.6617 137.406C95.2183 132.804 100.583 138.901 101.134 140.048C101.391 141.191 99.6268 139.736 100.822 142.414C98.6421 139.366 99.5352 144.098 97.5496 141.04ZM92.5857 137.62C92.79 134.638 93.722 139.664 92.5857 137.62V137.62ZM94.8185 138.388C95.8839 136.138 96.6251 141.526 94.8185 138.388V138.388ZM89.4474 134.233C87.5993 132.397 86.2619 130.704 89.5339 133.094C90.7946 133.143 86.7328 129.244 89.8375 131.856C93.1021 132.451 91.4496 137.208 89.4474 134.233ZM92.2687 134.159C92.8385 135.207 93.342 133.096 92.2687 134.159V134.159ZM94.0047 134.716C92.3777 131.666 95.9795 135.995 94.0047 134.716V134.716ZM90.5537 131.418C85.1812 126.637 97.3046 133.918 91.4314 132.304L90.5537 131.418ZM105.947 140.362C103.622 138.968 105.331 130.548 106.123 136.307C108.384 135.576 105.999 139.281 107.684 139.246C107.419 141.584 106.665 142.424 105.947 140.362ZM111.64 143.727C111.868 141.189 112.12 145.462 111.64 143.727V143.727ZM110.651 142.749C110.678 144.026 110.907 141.666 110.651 142.749V142.749ZM91.6076 129.847C88.1561 125.085 101.638 134.664 93.8182 131.055C93.001 130.841 92.0178 130.765 91.6076 129.847ZM102.571 135.66C102.245 131.651 103.301 136.324 102.571 135.66V135.66ZM110.896 141C110.944 142.511 111.539 138.716 110.896 141V141ZM92.1363 128.029C94.1876 127.591 100.637 131.633 94.7144 129.184C94.0564 128.456 92.6534 128.786 92.1363 128.029ZM109.752 136.809C109.971 132.709 110.976 134.36 109.759 137.396L109.752 136.809ZM93.6633 126.603C94.4991 125.377 91.4446 121.06 94.1036 125.054C95.2526 125.968 97.4302 126.584 95.5076 126.968C98.5314 129.636 94.77 127.691 93.6633 126.603ZM108.88 135.529C109.39 138.265 109.458 130.858 108.88 135.529V135.529ZM91.9177 122.289C92.2548 123.14 92.5561 122.016 91.9177 122.289V122.289ZM95.887 124.652C96.9085 122.508 97.7714 127.043 95.887 124.652V124.652ZM107.083 130.88C107.073 130.057 107.295 132.078 107.083 130.88V130.88ZM106.435 129.444C104.881 125.611 107.88 131.474 106.435 129.444V129.444ZM105.481 126.931C105.22 125.346 106.367 128.921 105.481 126.931V126.931ZM107.033 124.406C105.967 122.527 108.38 116.125 108.649 120.095C107.524 123.189 108.325 124.92 109.11 120.77C110.56 117.505 108.797 127.215 107.033 124.406ZM108.629 114.885C108.732 115.573 109.094 114.314 108.629 114.885V114.885ZM105.964 167.399C105.332 166.847 106.044 167.75 105.964 167.399V167.399ZM111.454 170.176C114.508 170.959 114.492 169.701 111.732 169.327C110.248 167.946 105.564 166.481 109.756 169.156C110.034 169.859 110.911 169.843 111.454 170.176ZM100.612 162.974C102.294 164.229 106.949 166.53 103.008 163.452C104.337 161.908 100.466 161.087 101.75 160.054C98.4834 158.056 99.1731 158.233 101.461 158.296C97.5359 156.541 102.028 156.673 101.817 155.774C100.303 155.474 94.2981 153.104 97.8307 155.968C94.2396 154.138 96.9749 156.651 95.8895 156.385C92.2173 155.383 99.1598 159.181 95.3063 158.239C97.413 159.908 100.977 162.515 96.197 160.006C95.5672 160.912 99.6175 162.286 100.612 162.974ZM106.354 166.273C102.931 163.524 113.336 168.523 106.354 166.273V166.273ZM135.747 184.079C134.793 185.261 135.837 182.694 135.747 184.079V184.079ZM138.768 185.351C140.379 183.79 138.834 187.838 141.437 184.969C141.466 182.916 141.357 181.703 138.446 184.197C137.643 184.642 137.285 186.534 138.768 185.351ZM90.8117 155.234C87.3441 153.299 90.317 153.289 90.8117 155.234V155.234ZM94.0376 157.348C89.7634 155.549 92.8397 155.361 94.0376 157.348V157.348ZM112.39 168.416C114.182 170.007 120.62 169.583 114.567 168.611C113.67 167.286 108.874 167.605 112.39 168.416ZM137.619 183.996C134.947 185.029 140.377 181.683 137.619 183.996V183.996ZM143.354 187.938C142.166 188.263 143.372 187.195 143.354 187.938V187.938ZM143.364 186.898C140.404 187.089 146.417 183.663 143.364 186.898V186.898ZM82.8772 148.591C80.2744 144.877 81.2592 143.208 78.7492 140.176C78.274 137.857 74.4432 132.594 76.7678 138.169C78.897 141.429 79.5297 146.478 82.8772 148.591ZM142.406 185.869C140.099 184.288 148.024 182.238 142.406 185.869V185.869ZM146.694 187.55C144.915 187.044 149.508 185.134 146.694 187.55V187.55ZM89.8554 151.129C87.7759 150.975 90.6607 149.931 89.8554 151.129V151.129ZM145.799 186.403C148.523 184.646 145.171 184.916 145.305 186.564L145.799 186.403ZM108.828 163.1C107.39 163.201 108.735 161.914 108.828 163.1V163.1ZM111.113 164.414C109.997 164.645 110.387 162.946 111.113 164.414V164.414ZM150.17 187.589C153.66 185.072 148.054 187.108 149.437 188.066L150.17 187.589ZM148.834 186.944C145.832 187.999 151.677 184.561 148.834 186.944V186.944ZM155.662 191.491C153.342 191.077 157.571 190.213 155.662 191.491V191.491ZM91.6061 150.264C94.1649 150.838 101.831 156.566 97.3085 150.661C94.992 149.975 96.3813 144.313 94.0184 145.315C95.6044 147.964 95.3232 149.092 91.9935 147.422C87.8086 145.379 89.6417 148.434 90.4596 149.276C89.345 149.529 91.9339 150.243 91.6061 150.264ZM79.9486 141.058C80.4066 139.164 75.7307 130.635 77.7405 136.785C78.466 138.073 78.3922 140.514 79.9486 141.058ZM101.345 154.249C100.028 153.148 101.283 154.094 101.345 154.249V154.249ZM104.59 155.005C101.003 154.19 104.588 152.998 104.59 155.005V155.005ZM132.707 172.73C130.587 172.698 132.171 171.359 132.707 172.73V172.73ZM134.057 173.716C133.278 173.864 133.857 172.949 134.057 173.716V173.716ZM145.201 180.736C143.864 180.635 146.273 179.944 145.201 180.736V180.736ZM85.7716 142.545C82.4868 141.698 88.8374 141.358 85.7716 142.545V142.545ZM130.231 170.555C128.277 171.047 130.197 168.57 130.231 170.555V170.555ZM84.5603 139.722C82.7385 139.284 86.5296 139.057 84.5603 139.722V139.722ZM90.2764 142.491C89.6717 142.738 90.2407 141.839 90.2764 142.491V142.491ZM159.996 185.244C162.528 184.731 168.299 186.533 169.232 184.573C166.156 184.498 158.592 182.403 158.234 185.073L158.907 185.178L159.996 185.244ZM92.0931 142.949C90.5247 142.874 92.1371 140.938 92.0931 142.949V142.949ZM77.0641 132.524C74.4681 131.944 76.3815 128.691 77.0641 132.524V132.524ZM80.6479 133.424C77.3676 132.317 80.6919 132.194 80.6479 133.424V133.424ZM82.696 134.43C82.104 133.951 82.2326 135.036 82.696 134.43V134.43ZM95.5829 142.697C94.1466 142.284 96.1896 142.14 95.5829 142.697V142.697ZM81.3319 132.162C77.181 131.728 80.9855 129.268 81.3319 132.162V132.162ZM73.9844 127.394C73.2684 127.898 73.8799 126.058 73.9844 127.394V127.394ZM75.0773 126.569C74.1389 126.77 74.899 124.985 75.0773 126.569V126.569ZM81.1159 130.173C83.6694 129.17 76.4648 128.099 80.5942 129.984L81.1159 130.173ZM161.934 180.093C159.857 179.63 163.568 178.595 161.934 180.093V180.093ZM171.697 185.154C170.048 185.409 172.352 183.217 171.697 185.154V185.154ZM81.7331 127.008C79.7087 127.38 82.0021 125.134 81.7331 127.008V127.008ZM73.1416 121.252C72.68 118.606 72.7431 113.962 77.1577 115.531C71.2649 116.701 81.2362 122.856 79.977 117.997C82.4548 118.118 84.8241 116.532 83.5238 118.939C88.4057 118.399 91.7904 114.166 96.506 114.759C100.179 114.273 104.195 113.905 108.154 112.426C111.408 112.192 114.541 108.688 112.757 106.611C108.319 106.235 103.673 106.79 98.7677 107.765C93.3317 108.895 88.3941 111.043 82.9094 111.964C77.5633 112.682 83.9847 113.943 82.4533 114.224C79.6637 115.192 85.7802 115.844 82.0917 116.865C79.8137 116.432 77.4426 115.649 78.4157 113.248C73.2946 113.913 68.7947 116.038 72.8406 121.25L73.1416 121.252ZM85.4814 114.967C86.6821 110.544 91.9142 118.607 87.4495 115.555C86.9162 115.156 86.0391 114.83 85.4814 114.967ZM85.7151 112.823C86.6362 113.547 87.448 111.532 85.7151 112.823V112.823ZM87.9155 112.858C88.0719 110.822 92.9527 113.935 88.7203 113.59L87.9155 112.858ZM90.9256 111.647C91.2415 112.79 92.0247 110.363 90.9256 111.647V111.647ZM91.6956 111.132C93.5259 108.933 102.061 109.728 95.8136 110.917C94.1391 109.657 92.8555 111.661 91.6956 111.132ZM102.834 109.415C102.555 103.408 108.367 111.55 102.834 109.415V109.415ZM105.994 109.398C107.15 106.37 110.478 108.183 106.529 108.789C106.615 109.111 106.413 110.352 105.994 109.398ZM80.4868 125.454C76.8217 123.62 83.9392 123.34 80.4868 125.454V125.454ZM83.0395 126.163C80.4094 125.641 84.2499 124.876 83.0395 126.163V126.163ZM75.5181 120.825C73.1837 120.249 77.4908 119.31 75.5181 120.825V120.825ZM177.46 184.601C175.952 185.393 177.517 182.843 177.46 184.601V184.601ZM167.102 177.531C165.771 177.708 167.396 175.508 167.102 177.531V177.531ZM180.309 185.282C183.067 185.291 188.666 184.426 182.664 184.428C181.722 184.575 177.177 184.544 180.309 185.282ZM85.2849 124.923C87.5171 124.769 88.7772 122.461 84.8532 122.593C78.7716 121.964 90.2189 124.676 84.0731 123.9C83.2472 124.447 85.2369 125.074 85.2849 124.923ZM87.2508 125.918C86.5606 126.679 87.0177 124.484 87.2508 125.918V125.918ZM89.5827 119.7C88.2424 119.378 90.5514 118.498 89.5827 119.7V119.7ZM82.1592 107.291C86.143 105.935 91.5907 104.413 93.4717 107.958C91.5574 105.654 92.6991 103.386 94.5072 106.754C97.0639 110.163 98.3437 105.204 96.6809 104.061C98.5759 106.416 100.731 107.528 97.9496 104.21C100.972 100.574 91.8974 104.686 89.8347 104.645C88.8423 105.09 79.5887 107.004 82.1592 107.291ZM84.4939 102.819C86.7659 101.105 92.3516 103.839 88.7673 101.115C88.4169 100.806 80.9176 103.181 84.4939 102.819ZM92.7768 103.161C95.4359 103.229 91.6299 99.5891 94.7984 101.239C94.2781 99.5385 91.1094 99.2203 89.5602 98.541C88.684 100.095 91.3437 103.182 92.7768 103.161ZM85.9463 95.6425C84.3341 96.2747 86.8662 94.3955 85.9463 95.6425V95.6425ZM89.3316 96.4528C93.6167 95.8844 88.2394 94.6075 88.4682 96.4071L89.3316 96.4528ZM83.0105 91.5066C79.9934 87.568 88.6846 92.1687 85.6192 88.0448C83.0392 85.9903 80.5599 90.3568 83.0105 91.5066ZM121.731 112.362C123.114 109.909 116.017 109.056 120.798 111.493C121.239 111.64 121.139 112.532 121.731 112.362Z" fill="white"/>
</g>
<defs>
<filter id="filter0_f_2043_34854" x="-20" y="25" width="298" height="184" filterUnits="userSpaceOnUse" color-interpolation-filters="sRGB">
<feFlood flood-opacity="0" result="BackgroundImageFix"/>
<feBlend mode="normal" in="SourceGraphic" in2="BackgroundImageFix" result="shape"/>
<feGaussianBlur stdDeviation="18.5" result="effect1_foregroundBlur_2043_34854"/>
</filter>
<filter id="filter1_ii_2043_34854" x="17" y="62" width="224" height="148" filterUnits="userSpaceOnUse" color-interpolation-filters="sRGB">
<feFlood flood-opacity="0" result="BackgroundImageFix"/>
<feBlend mode="normal" in="SourceGraphic" in2="BackgroundImageFix" result="shape"/>
<feColorMatrix in="SourceAlpha" type="matrix" values="0 0 0 0 0 0 0 0 0 0 0 0 0 0 0 0 0 0 127 0" result="hardAlpha"/>
<feOffset dy="-4"/>
<feComposite in2="hardAlpha" operator="arithmetic" k2="-1" k3="1"/>
<feColorMatrix type="matrix" values="0 0 0 0 0 0 0 0 0 0 0 0 0 0 0 0 0 0 0.25 0"/>
<feBlend mode="normal" in2="shape" result="effect1_innerShadow_2043_34854"/>
<feColorMatrix in="SourceAlpha" type="matrix" values="0 0 0 0 0 0 0 0 0 0 0 0 0 0 0 0 0 0 127 0" result="hardAlpha"/>
<feOffset dy="4"/>
<feComposite in2="hardAlpha" operator="arithmetic" k2="-1" k3="1"/>
<feColorMatrix type="matrix" values="0 0 0 0 1 0 0 0 0 1 0 0 0 0 1 0 0 0 0.25 0"/>
<feBlend mode="normal" in2="effect1_innerShadow_2043_34854" result="effect2_innerShadow_2043_34854"/>
</filter>
<linearGradient id="paint0_linear_2043_34854" x1="17" y1="34" x2="197.768" y2="215.142" gradientUnits="userSpaceOnUse">
<stop stop-color="#05815D"/>
<stop offset="1" stop-color="#0C575F"/>
</linearGradient>
<linearGradient id="paint1_linear_2043_34854" x1="17" y1="62" x2="241" y2="210" gradientUnits="userSpaceOnUse">
<stop stop-color="#5F585E"/>
<stop offset="1" stop-color="#010101"/>
</linearGradient>
<clipPath id="clip0_2043_34854">
<rect width="256" height="256" fill="white"/>
</clipPath>
</defs>
</svg>
