<svg width="256" height="256" viewBox="0 0 256 256" fill="none" xmlns="http://www.w3.org/2000/svg">
<path fill-rule="evenodd" clip-rule="evenodd" d="M104.425 42.3784C100.056 37.0733 93.5437 34 86.6712 34H29C22.3726 34 17 39.3726 17 46V58.1371V68.2V160C17 166.627 22.3726 172 29 172H229C235.627 172 241 166.627 241 160V70.1371C241 63.5097 235.627 58.1371 229 58.1371H117.404L104.425 42.3784Z" fill="url(#paint0_linear_16_131)"/>
<mask id="mask0_16_131" style="mask-type:alpha" maskUnits="userSpaceOnUse" x="17" y="34" width="224" height="138">
<path fill-rule="evenodd" clip-rule="evenodd" d="M104.425 42.3784C100.056 37.0733 93.5437 34 86.6712 34H29C22.3726 34 17 39.3726 17 46V58.1371V68.2V160C17 166.627 22.3726 172 29 172H229C235.627 172 241 166.627 241 160V70.1371C241 63.5097 235.627 58.1371 229 58.1371H117.404L104.425 42.3784Z" fill="url(#paint1_linear_16_131)"/>
</mask>
<g mask="url(#mask0_16_131)">
<g filter="url(#filter0_f_16_131)">
<path fill-rule="evenodd" clip-rule="evenodd" d="M92.789 74C97.7642 74 102.605 72.3868 106.586 69.4024L116.459 62H229C235.627 62 241 67.3726 241 74V108V160C241 166.627 235.627 172 229 172H29C22.3726 172 17 166.627 17 160L17 108V86C17 79.3726 22.3726 74 29 74H87H92.789Z" fill="black" fill-opacity="0.3"/>
</g>
</g>
<g filter="url(#filter1_ii_16_131)">
<path fill-rule="evenodd" clip-rule="evenodd" d="M92.789 74C97.7642 74 102.605 72.3868 106.586 69.4024L116.459 62H229C235.627 62 241 67.3726 241 74V108V198C241 204.627 235.627 210 229 210H29C22.3726 210 17 204.627 17 198L17 108V86C17 79.3726 22.3726 74 29 74H87H92.789Z" fill="url(#paint2_linear_16_131)"/>
</g>
<g filter="url(#filter2_ddi_16_131)">
<path fill-rule="evenodd" clip-rule="evenodd" d="M108.506 110.86C103.479 111.687 103.422 111.729 100.866 116.469C98.5523 120.76 95.763 133.16 94.4935 144.801C93.8427 150.768 93.9667 164.713 94.7144 169.662C96.342 180.432 99.6366 187.18 104.575 189.857C106.699 191.007 107.268 191.115 110.202 190.924C115.047 190.609 119.435 188.106 125.487 182.205C135.335 172.603 146.906 152.881 151.868 137.241C153.59 131.813 153.557 131.676 149.474 127.298L145.924 123.492L144.598 125.396C142.447 128.488 137.732 132.564 134.568 134.067C128.967 136.73 123.626 135.755 119.349 131.291C115.119 126.877 113.618 122.957 113.259 115.392L113.008 110.119L108.506 110.86Z" fill="#C4C8CB"/>
<path d="M150.041 79.2625C146.746 81.7121 145.03 83.3734 142.085 86.9651C138.192 91.7136 135.188 96.4898 133.851 100.058C133.236 101.7 132.722 101.638 131.57 99.7819C130.288 97.7157 126.572 94.3112 124.392 93.2055C113.835 87.8509 101.212 92.0018 95.7438 102.626C93.7952 106.412 93.4439 109.261 94.8708 109.712C95.3341 109.858 98.1078 109.463 101.034 108.832C105.789 107.809 116.9 106.254 117.267 106.56C117.345 106.626 117.177 108.368 116.893 110.43C115.661 119.391 118.432 127.732 123.655 130.785C129.925 134.45 138.936 129.96 143.924 120.685C144.334 119.922 144.982 119.237 145.363 119.162C145.759 119.083 147.693 120.819 149.883 123.219C157.42 131.479 159.587 133.644 160.302 133.629C162.011 133.596 164 128.492 164 124.14C164 115.854 159.384 108.602 151.696 104.811C151.696 104.811 150.668 104.104 147.83 102.904C144.992 101.704 139.475 101.596 137.675 102.364C135.874 103.132 136.456 101.538 136.456 101.538C136.964 95.9456 145.648 83.2714 151.605 79.426C152.209 79.0366 152.616 78.4601 152.511 78.1445C152.383 77.7629 151.556 78.1377 150.041 79.2625Z" fill="#C4C8CB"/>
</g>
<defs>
<filter id="filter0_f_16_131" x="-20" y="25" width="298" height="184" filterUnits="userSpaceOnUse" color-interpolation-filters="sRGB">
<feFlood flood-opacity="0" result="BackgroundImageFix"/>
<feBlend mode="normal" in="SourceGraphic" in2="BackgroundImageFix" result="shape"/>
<feGaussianBlur stdDeviation="18.5" result="effect1_foregroundBlur_16_131"/>
</filter>
<filter id="filter1_ii_16_131" x="17" y="62" width="224" height="150" filterUnits="userSpaceOnUse" color-interpolation-filters="sRGB">
<feFlood flood-opacity="0" result="BackgroundImageFix"/>
<feBlend mode="normal" in="SourceGraphic" in2="BackgroundImageFix" result="shape"/>
<feColorMatrix in="SourceAlpha" type="matrix" values="0 0 0 0 0 0 0 0 0 0 0 0 0 0 0 0 0 0 127 0" result="hardAlpha"/>
<feOffset dy="2"/>
<feGaussianBlur stdDeviation="1.05"/>
<feComposite in2="hardAlpha" operator="arithmetic" k2="-1" k3="1"/>
<feColorMatrix type="matrix" values="0 0 0 0 0.355781 0 0 0 0 0.390685 0 0 0 0 0.4125 0 0 0 0.79 0"/>
<feBlend mode="normal" in2="shape" result="effect1_innerShadow_16_131"/>
<feColorMatrix in="SourceAlpha" type="matrix" values="0 0 0 0 0 0 0 0 0 0 0 0 0 0 0 0 0 0 127 0" result="hardAlpha"/>
<feOffset dy="-4"/>
<feComposite in2="hardAlpha" operator="arithmetic" k2="-1" k3="1"/>
<feColorMatrix type="matrix" values="0 0 0 0 0.0854167 0 0 0 0 0.09375 0 0 0 0 0.1 0 0 0 0.28 0"/>
<feBlend mode="soft-light" in2="effect1_innerShadow_16_131" result="effect2_innerShadow_16_131"/>
</filter>
<filter id="filter2_ddi_16_131" x="77.2" y="57.2" width="101.6" height="148.8" filterUnits="userSpaceOnUse" color-interpolation-filters="sRGB">
<feFlood flood-opacity="0" result="BackgroundImageFix"/>
<feColorMatrix in="SourceAlpha" type="matrix" values="0 0 0 0 0 0 0 0 0 0 0 0 0 0 0 0 0 0 127 0" result="hardAlpha"/>
<feOffset dx="-1" dy="-5"/>
<feGaussianBlur stdDeviation="7.9"/>
<feComposite in2="hardAlpha" operator="out"/>
<feColorMatrix type="matrix" values="0 0 0 0 0 0 0 0 0 0 0 0 0 0 0 0 0 0 0.26 0"/>
<feBlend mode="normal" in2="BackgroundImageFix" result="effect1_dropShadow_16_131"/>
<feColorMatrix in="SourceAlpha" type="matrix" values="0 0 0 0 0 0 0 0 0 0 0 0 0 0 0 0 0 0 127 0" result="hardAlpha"/>
<feOffset dx="1" dy="5"/>
<feGaussianBlur stdDeviation="5"/>
<feComposite in2="hardAlpha" operator="out"/>
<feColorMatrix type="matrix" values="0 0 0 0 1 0 0 0 0 1 0 0 0 0 1 0 0 0 0.13 0"/>
<feBlend mode="normal" in2="effect1_dropShadow_16_131" result="effect2_dropShadow_16_131"/>
<feBlend mode="normal" in="SourceGraphic" in2="effect2_dropShadow_16_131" result="shape"/>
<feColorMatrix in="SourceAlpha" type="matrix" values="0 0 0 0 0 0 0 0 0 0 0 0 0 0 0 0 0 0 127 0" result="hardAlpha"/>
<feOffset dy="-2"/>
<feGaussianBlur stdDeviation="3.5"/>
<feComposite in2="hardAlpha" operator="arithmetic" k2="-1" k3="1"/>
<feColorMatrix type="matrix" values="0 0 0 0 0 0 0 0 0 0 0 0 0 0 0 0 0 0 0.12 0"/>
<feBlend mode="normal" in2="shape" result="effect3_innerShadow_16_131"/>
</filter>
<linearGradient id="paint0_linear_16_131" x1="17" y1="34" x2="197.768" y2="215.142" gradientUnits="userSpaceOnUse">
<stop stop-color="#40464A"/>
<stop offset="0.59" stop-color="#2B2F32"/>
</linearGradient>
<linearGradient id="paint1_linear_16_131" x1="17" y1="34" x2="197.768" y2="215.142" gradientUnits="userSpaceOnUse">
<stop stop-color="#05815D"/>
<stop offset="1" stop-color="#0C575F"/>
</linearGradient>
<linearGradient id="paint2_linear_16_131" x1="17" y1="62" x2="241" y2="210" gradientUnits="userSpaceOnUse">
<stop stop-color="#474E53"/>
<stop offset="1" stop-color="#2A2F32"/>
</linearGradient>
</defs>
</svg>
