<svg id="Layer_1" data-name="Layer 1" xmlns="http://www.w3.org/2000/svg" xmlns:xlink="http://www.w3.org/1999/xlink" width="256" height="256" viewBox="0 0 256 256">
  <defs>
    <style>
      .cls-1, .cls-2, .cls-4, .cls-5, .cls-6, .cls-7, .cls-9 {
        fill-rule: evenodd;
      }

      .cls-1 {
        fill: url(#linear-gradient);
      }

      .cls-2 {
        fill: url(#linear-gradient-2);
      }

      .cls-3 {
        mask: url(#mask);
      }

      .cls-4 {
        fill: #a6a1a1;
      }

      .cls-5 {
        fill: url(#linear-gradient-3);
      }

      .cls-6 {
        opacity: 0.26;
        fill: url(#linear-gradient-4);
      }

      .cls-7 {
        fill: #f9f9f9;
      }

      .cls-8 {
        fill: #232c31;
      }

      .cls-9 {
        fill: #ff5900;
        stroke: #cc4700;
        stroke-linejoin: round;
        stroke-width: 0.1px;
      }
    </style>
    <linearGradient id="linear-gradient" x1="32.58" y1="239.55" x2="213.35" y2="58.41" gradientTransform="matrix(1, 0, 0, -1, 0, 258)" gradientUnits="userSpaceOnUse">
      <stop offset="0" stop-color="#05815d"/>
      <stop offset="1" stop-color="#0c575f"/>
    </linearGradient>
    <linearGradient id="linear-gradient-2" x1="132.26" y1="23.47" x2="126.55" y2="162.9" gradientUnits="userSpaceOnUse">
      <stop offset="0" stop-color="#f7f7f7"/>
      <stop offset="0.95" stop-color="#a8a8a8"/>
    </linearGradient>
    <mask id="mask" x="17" y="34" width="224" height="138" maskUnits="userSpaceOnUse">
      <g id="mask0_501_11930" data-name="mask0 501 11930">
        <path class="cls-1" d="M104.43,42.38A23,23,0,0,0,86.67,34H29A12,12,0,0,0,17,46V160a12,12,0,0,0,12,12H229a12,12,0,0,0,12-12V70.14a12,12,0,0,0-12-12H117.4Z"/>
      </g>
    </mask>
    <linearGradient id="linear-gradient-3" x1="17" y1="196" x2="241" y2="48" gradientTransform="matrix(1, 0, 0, -1, 0, 258)" gradientUnits="userSpaceOnUse">
      <stop offset="0" stop-color="#f7f7f7"/>
      <stop offset="0.95" stop-color="#d8d8d8"/>
    </linearGradient>
    <linearGradient id="linear-gradient-4" x1="16.93" y1="57.32" x2="240.94" y2="54.82" gradientTransform="matrix(1, 0, 0, -1, 0, 258)" gradientUnits="userSpaceOnUse">
      <stop offset="0" stop-color="#b7b7b7"/>
      <stop offset="1" stop-color="#7c7c7c"/>
    </linearGradient>
  </defs>
  <path class="cls-2" d="M104.43,42.38A23,23,0,0,0,86.67,34H29A12,12,0,0,0,17,46V160a12,12,0,0,0,12,12H229a12,12,0,0,0,12-12V70.14a12,12,0,0,0-12-12H117.4Z"/>
  <g class="cls-3">
    <path class="cls-4" d="M92.79,74a23,23,0,0,0,13.8-4.6l9.87-7.4H229a12,12,0,0,1,12,12v86a12,12,0,0,1-12,12H29a12,12,0,0,1-12-12V86A12,12,0,0,1,29,74H92.79Z"/>
  </g>
  <path class="cls-5" d="M92.79,74a23,23,0,0,0,13.8-4.6l9.87-7.4H229a12,12,0,0,1,12,12V198a12,12,0,0,1-12,12H29a12,12,0,0,1-12-12V86A12,12,0,0,1,29,74H92.79Z"/>
  <path class="cls-6" d="M17,194v4a12,12,0,0,0,12,12H229a12,12,0,0,0,12-12v-4a12,12,0,0,1-12,12H29A12,12,0,0,1,17,194Z"/>
  <path class="cls-7" d="M106.59,69.4A23,23,0,0,1,92.79,74H29A12,12,0,0,0,17,86v4A12,12,0,0,1,29,78H92.79a23,23,0,0,0,13.8-4.6l9.87-7.4H229a12,12,0,0,1,12,12V74a12,12,0,0,0-12-12H116.46Z"/>
  <path class="cls-8" d="M140.27,97.89c4.94,0,9.47,1.65,11.74,4.48,5.55-5.61,10.75-7.15,15.23-7.15,7.21,0,9.47,4.58,9.47,7.61,0,3.81-2.42,6.49-6.07,6.49-4,0-2-9.06-7.62-9.06-4.58,0-8.39,12.09-10.29,22.65h9.88c1.13,0,1.34.82,1.34,1.69,0,2.37-1.08,4.38-3,4.38h-9.73s-4.47,21.16-7.77,34.38c-4.44,17.79-18.06,22.75-26.61,22.75a15.81,15.81,0,0,1-11.27-4.43,23.07,23.07,0,0,1-16,7.1c-3.08,0-8.23-2.05-8.23-6,0-2.21,2.21-5.55,4.58-5.55,4.17,0,4.68,4.52,9.37,4.52,2.26,0,3.83-.62,5.71-7.41C105.07,159.5,111.3,129,111.3,129h-7.36c-1.19,0-1.34-.72-1.34-1.49,0-2.06.77-4.58,3.39-4.58h6.85C116.6,110,124.93,97.89,140.27,97.89Zm-4,5.15c-7.26,0-10.55,12-12.15,19.87H141.3a59.48,59.48,0,0,1,5.51-13.54C144.34,105.46,140.07,103,136.26,103Zm-15.44,76.79c4,0,7.2-1.34,9.16-8.34,4.63-16.67,9.78-42.51,9.78-42.51h-17c-2.46,11.39-5.18,23.66-7.57,32.89a66,66,0,0,1-4.42,12.76A13.7,13.7,0,0,0,120.82,179.83Z"/>
  <path class="cls-9" d="M124.45,189.19l-.14,3.6-2-.08.15-3.6-3.61-.15.08-2,3.61.15.14-3.61,2,.08-.09,2.4,14.21-13.13a3.7,3.7,0,0,1,4.4-5.2,4,4,0,0,1,.84.37l14.43-13.33-2.28-.09.08-2,3.61.15.14-3.61,2,.08-.14,3.6,3.61.15-.08,2-3.61-.14-.14,3.6-2-.07.09-2.15L145.37,169.5a3.69,3.69,0,0,1-4.38,5.24,3.82,3.82,0,0,1-.87-.4l-14,12.94,2,.08-.08,2Z"/>
</svg>
