<?xml version="1.0" encoding="UTF-8"?>
<svg id="base" xmlns="http://www.w3.org/2000/svg" width="256" height="256" version="1.1" xmlns:xlink="http://www.w3.org/1999/xlink" viewBox="0 0 256 256">
  <defs>
    <style>
      .st0 {
        fill: url(#top);
      }

      .st0, .st1, .st2, .st3, .st4, .st5 {
        fill-rule: evenodd;
      }

      .st1 {
        fill: url(#fortnite);
      }

      .st6 {
        fill: #fff;
      }

      .st7 {
        mask: url(#mask);
      }

      .st2 {
        fill: url(#bottom);
      }

      .st3 {
        fill: #a6a1a1;
      }

      .st4 {
        fill: url(#linear-gradient);
      }

      .st5 {
        fill: #307eaf;
      }
    </style>
    <linearGradient id="linear-gradient" x1="32.6" y1="239.5" x2="213.3" y2="58.4" gradientTransform="translate(0 258) scale(1 -1)" gradientUnits="userSpaceOnUse">
      <stop offset="0" stop-color="#05815d"/>
      <stop offset="1" stop-color="#0c575f"/>
    </linearGradient>
    <mask id="mask" x="17" y="34" width="224" height="138" maskUnits="userSpaceOnUse">
      <g id="mask0_501_11930">
        <path class="st4" d="M104.4,42.4c-4.4-5.3-10.9-8.4-17.8-8.4H29c-6.6,0-12,5.4-12,12v114c0,6.6,5.4,12,12,12h200c6.6,0,12-5.4,12-12v-89.9c0-6.6-5.4-12-12-12h-111.6l-13-15.8Z"/>
      </g>
    </mask>
    <linearGradient id="fortnite" x1="17" y1="196" x2="241" y2="48" gradientTransform="translate(0 258) scale(1 -1)" gradientUnits="userSpaceOnUse">
      <stop offset="0" stop-color="#2a9ddd"/>
      <stop offset="1" stop-color="#6fd8f8"/>
    </linearGradient>
    <linearGradient id="bottom" x1="16.9" y1="57.3" x2="240.9" y2="54.8" gradientTransform="translate(0 258) scale(1 -1)" gradientUnits="userSpaceOnUse">
      <stop offset="0" stop-color="#478397"/>
      <stop offset="1" stop-color="#2a9ddd"/>
    </linearGradient>
    <linearGradient id="top" x1="17" y1="182" x2="241" y2="182" gradientTransform="translate(0 258) scale(1 -1)" gradientUnits="userSpaceOnUse">
      <stop offset="0" stop-color="#64bceb"/>
      <stop offset="1" stop-color="#3caadd"/>
    </linearGradient>
  </defs>
  <path class="st5" d="M104.4,42.4c-4.4-5.3-10.9-8.4-17.8-8.4H29c-6.6,0-12,5.4-12,12v114c0,6.6,5.4,12,12,12h200c6.6,0,12-5.4,12-12v-89.9c0-6.6-5.4-12-12-12h-111.6l-13-15.8Z"/>
  <g class="st7">
    <path class="st3" d="M92.8,74c5,0,9.8-1.6,13.8-4.6l9.9-7.4h112.5c6.6,0,12,5.4,12,12v86c0,6.6-5.4,12-12,12H29c-6.6,0-12-5.4-12-12v-74c0-6.6,5.4-12,12-12h63.8Z"/>
  </g>
  <path class="st1" d="M92.8,74c5,0,9.8-1.6,13.8-4.6l9.9-7.4h112.5c6.6,0,12,5.4,12,12v124c0,6.6-5.4,12-12,12H29c-6.6,0-12-5.4-12-12v-112c0-6.6,5.4-12,12-12h63.8Z"/>
  <path class="st2" d="M17,194v4c0,6.6,5.4,12,12,12h200c6.6,0,12-5.4,12-12v-4c0,6.6-5.4,12-12,12H29c-6.6,0-12-5.4-12-12Z"/>
  <path class="st0" d="M106.6,69.4c-4,3-8.8,4.6-13.8,4.6H29c-6.6,0-12,5.4-12,12v4c0-6.6,5.4-12,12-12h63.8c5,0,9.8-1.6,13.8-4.6l9.9-7.4h112.5c6.6,0,12,5.4,12,12v-4c0-6.6-5.4-12-12-12h-112.5l-9.9,7.4Z"/>
  <path id="_x31_" class="st6" d="M130.7,122.1v-4.6c2.8,0,13.5-.1,14.5,0,0,0,1.6-17.7,1.7-19.1-5.4.1-10.3,0-14.7,0-4.4,0-8.1-.2-11.3-.2-3.7,0-7,0-9.9,0,.2,11.1.4,21.8.5,31,.1,9.2.2,17.2.3,23.9,0,7.8.1,32.6.1,32.6l19.6-4.1c-.1-4.1-.2-15.4-.3-19,0-3.7,0-9.3-.2-12.6,2.5,0,3.8-.1,5.6-.1,0,0,5.2-.2,6.1-.1,0-2.8.3-18.2.3-18.2-4.2.1-5.2,0-7.7,0h-4.7c0-2.4,0-2.9,0-4.8v-4.8h0Z"/>
</svg>