<svg width="256" height="256" viewBox="0 0 256 256" fill="none" xmlns="http://www.w3.org/2000/svg" xmlns:xlink="http://www.w3.org/1999/xlink">
<path fill-rule="evenodd" clip-rule="evenodd" d="M104.753 42.4179C100.367 37.0876 93.8307 34 86.9321 34H29.045C22.3933 34 17 39.3975 17 46.0572V160.601C17 167.259 22.3933 172.658 29.045 172.658H229.794C236.446 172.658 241.839 167.259 241.839 160.601V70.3094C241.839 63.6497 236.446 58.2521 229.794 58.2521H117.78L104.753 42.4179Z" fill="#641E0E"/>
<rect x="17" y="62.0918" width="224.839" height="110.566" fill="url(#pattern0_2271_38796)"/>
<path d="M116.832 62.1328L106.922 69.5699C102.926 72.5693 98.0667 74.19 93.0731 74.19H29.045C22.392 74.19 17 79.5876 17 86.2473V198.781C17 205.44 22.392 210.838 29.045 210.838H229.794C236.446 210.838 241.839 205.44 241.839 198.781V74.19C241.839 67.5313 236.446 62.1328 229.794 62.1328H116.832Z" fill="url(#paint0_linear_2271_38796)"/>
<path d="M229.794 206.821H29.045C22.392 206.821 17 201.423 17 194.764V198.783C17 205.441 22.392 210.84 29.045 210.84H229.794C236.446 210.84 241.839 205.441 241.839 198.783V194.764C241.839 201.423 236.446 206.821 229.794 206.821Z" fill="#A32E13"/>
<path d="M116.832 62.1328L106.922 69.5699C102.926 72.5693 98.0667 74.19 93.0731 74.19H29.045C22.392 74.19 17 79.5876 17 86.2473V90.2662C17 83.6077 22.392 78.2089 29.045 78.2089H93.0731C98.0667 78.2089 102.926 76.5885 106.922 73.5901L116.832 66.1517H229.794C236.446 66.1517 241.839 71.5495 241.839 78.2089V74.19C241.839 67.5313 236.446 62.1328 229.794 62.1328H116.832H116.832Z" fill="#FC8973"/>
<path d="M223.524 103.996H113.889C104.841 104.414 98.2144 107.702 92.8691 112.05C88.8324 115.367 85.4357 119.435 82.4013 123.755L79.6729 127.852H188.501C194.904 127.573 199.748 126.263 204.175 123.811C211.33 119.909 216.592 114.168 221.074 107.675L223.524 103.996ZM45.7634 132.729L45.0116 133.258C45.0116 133.537 45.2064 133.732 45.7634 133.816L110.882 144.489L95.5139 167.592L119.067 163.997L139.836 132.729H45.7634ZM141.618 132.729L141.534 132.868L141.645 132.952C142.703 133.453 144.457 135.069 141.144 140.058L125.916 162.938L149.413 159.343L167.091 132.729H141.618ZM168.873 132.729L168.817 132.868L168.929 132.952C169.987 133.453 171.741 135.069 168.4 140.058L156.373 158.201L156.289 158.284L172.131 155.86C173.801 155.553 175.304 155.107 176.641 154.382C181.067 151.93 184.046 148.279 186.775 144.183L194.375 132.728L168.873 132.729ZM71.7384 142.873L43.2578 185.735L81.1205 179.938L102.223 148.196L71.7384 142.873Z" fill="white"/>
<defs>
<pattern id="pattern0_2271_38796" patternContentUnits="objectBoundingBox" width="1" height="1">
<use xlink:href="#image0_2271_38796" transform="scale(0.00107066 0.00217865)"/>
</pattern>
<linearGradient id="paint0_linear_2271_38796" x1="26.4135" y1="68.3589" x2="238.096" y2="208.078" gradientUnits="userSpaceOnUse">
<stop stop-color="#FF591F"/>
<stop offset="1" stop-color="#FF2A64"/>
</linearGradient>
</defs>
</svg>
