<svg width="256" height="256" viewBox="0 0 256 256" fill="none" xmlns="http://www.w3.org/2000/svg" xmlns:xlink="http://www.w3.org/1999/xlink">
<path fill-rule="evenodd" clip-rule="evenodd" d="M104.815 42.4255C100.427 37.0904 93.8856 34 86.9821 34H29.0536C22.3971 34 17 39.4024 17 46.0682V160.716C17 167.38 22.3971 172.784 29.0536 172.784H229.946C236.603 172.784 242 167.38 242 160.716V70.3423C242 63.6766 236.603 58.2742 229.946 58.2742H117.852L104.815 42.4255Z" fill="black"/>
<rect x="17" y="62.1172" width="225" height="110.666" fill="url(#pattern0_2271_38842)"/>
<path d="M116.903 62.1602L106.986 69.604C102.987 72.6061 98.1246 74.2283 93.1275 74.2283H29.0536C22.3959 74.2283 17 79.6308 17 86.2965V198.933C17 205.597 22.3959 211.001 29.0536 211.001H229.946C236.603 211.001 242 205.597 242 198.933V74.2283C242 67.5636 236.603 62.1602 229.946 62.1602H116.903Z" fill="url(#paint0_radial_2271_38842)"/>
<path d="M229.946 206.978H29.0536C22.3959 206.978 17 201.576 17 194.91V198.933C17 205.597 22.3959 211.001 29.0536 211.001H229.946C236.603 211.001 242 205.597 242 198.933V194.91C242 201.576 236.603 206.978 229.946 206.978Z" fill="#A7153A"/>
<path d="M116.903 62.1602L106.986 69.604C102.987 72.6061 98.1246 74.2283 93.1275 74.2283H29.0536C22.3959 74.2283 17 79.6308 17 86.2965V90.3191C17 83.6545 22.3959 78.2509 29.0536 78.2509H93.1275C98.1246 78.2509 102.987 76.6289 106.986 73.6278L116.903 66.1827H229.946C236.603 66.1827 242 71.5854 242 78.2509V74.2283C242 67.5636 236.603 62.1602 229.946 62.1602H116.903H116.903Z" fill="#ED7B98"/>
<path d="M223.672 104.061H113.959C104.904 104.479 98.2732 107.77 92.9241 112.122C88.8845 115.441 85.4853 119.514 82.4488 123.837L79.7184 127.938H188.624C195.032 127.659 199.88 126.348 204.309 123.893C211.469 119.988 216.735 114.242 221.22 107.743L223.672 104.061ZM45.7847 132.819L45.0323 133.349C45.0323 133.628 45.2274 133.823 45.7847 133.907L110.95 144.59L95.5708 167.715L119.141 164.116L139.924 132.819H45.7847ZM141.707 132.819L141.624 132.959L141.735 133.042C142.794 133.544 144.549 135.162 141.234 140.155L125.994 163.056L149.508 159.458L167.199 132.819H141.707ZM168.983 132.819L168.927 132.959L169.038 133.042C170.097 133.544 171.852 135.162 168.509 140.155L156.473 158.314L156.39 158.398L172.242 155.971C173.914 155.664 175.418 155.218 176.755 154.493C181.185 152.038 184.166 148.384 186.897 144.284L194.502 132.819L168.983 132.819ZM71.7783 142.973L43.2773 185.874L81.167 180.071L102.285 148.3L71.7783 142.973Z" fill="black"/>
<defs>
<pattern id="pattern0_2271_38842" patternContentUnits="objectBoundingBox" width="1" height="1">
<use xlink:href="#image0_2271_38842" transform="scale(0.00107066 0.00217865)"/>
</pattern>
<radialGradient id="paint0_radial_2271_38842" cx="0" cy="0" r="1" gradientUnits="userSpaceOnUse" gradientTransform="translate(128.496 137.274) rotate(37.392) scale(121.408 114.283)">
<stop stop-color="#E8685A"/>
<stop offset="1" stop-color="#F01F8C"/>
</radialGradient>
</defs>
</svg>
