<svg width="256" height="256" viewBox="0 0 256 256" fill="none" xmlns="http://www.w3.org/2000/svg" xmlns:xlink="http://www.w3.org/1999/xlink">
<path fill-rule="evenodd" clip-rule="evenodd" d="M104.815 42.4255C100.427 37.0904 93.8856 34 86.9821 34H29.0536C22.3971 34 17 39.4025 17 46.0682V160.716C17 167.381 22.3971 172.785 29.0536 172.785H229.946C236.603 172.785 242 167.381 242 160.716V70.3425C242 63.6767 236.603 58.2743 229.946 58.2743H117.852L104.815 42.4255Z" fill="#C1C1C1"/>
<rect x="17" y="62.1172" width="225" height="110.707" fill="url(#pattern0_2271_38852)"/>
<path d="M116.903 62.1582L106.986 69.6024C102.987 72.6042 98.1246 74.2264 93.1275 74.2264H29.0536C22.3959 74.2264 17 79.6289 17 86.2946V198.931C17 205.596 22.3959 211 29.0536 211H229.946C236.603 211 242 205.596 242 198.931V74.2264C242 67.5616 236.603 62.1582 229.946 62.1582H116.903Z" fill="url(#paint0_linear_2271_38852)"/>
<path d="M229.946 206.976H29.0536C22.3959 206.976 17 201.574 17 194.908V198.931C17 205.596 22.3959 210.999 29.0536 210.999H229.946C236.603 210.999 242 205.596 242 198.931V194.908C242 201.574 236.603 206.976 229.946 206.976Z" fill="#2A2A2A"/>
<path d="M116.903 62.1582L106.986 69.6024C102.987 72.6042 98.1246 74.2264 93.1275 74.2264H29.0536C22.3959 74.2264 17 79.6289 17 86.2946V90.3175C17 83.6527 22.3959 78.2492 29.0536 78.2492H93.1275C98.1246 78.2492 102.987 76.627 106.986 73.6259L116.903 66.181H229.946C236.603 66.181 242 71.5835 242 78.2492V74.2264C242 67.5616 236.603 62.1582 229.946 62.1582H116.903H116.903Z" fill="#474747"/>
<path d="M223.672 104.059H113.959C104.904 104.477 98.2732 107.769 92.9241 112.12C88.8844 115.439 85.4853 119.512 82.4488 123.836L79.7184 127.936H188.624C195.032 127.657 199.88 126.346 204.309 123.891C211.469 119.986 216.735 114.24 221.22 107.741L223.672 104.059ZM45.7847 132.817L45.0323 133.347C45.0323 133.626 45.2274 133.821 45.7847 133.905L110.95 144.589L95.5708 167.713L119.141 164.115L139.924 132.817H45.7847ZM141.707 132.817L141.624 132.957L141.735 133.04C142.794 133.543 144.549 135.161 141.234 140.153L125.994 163.055L149.508 159.456L167.199 132.817H141.707ZM168.983 132.817L168.927 132.957L169.038 133.04C170.097 133.543 171.852 135.161 168.509 140.153L156.473 158.312L156.39 158.396L172.242 155.969C173.914 155.663 175.418 155.216 176.755 154.491C181.185 152.036 184.166 148.382 186.897 144.282L194.502 132.817H168.983ZM71.7783 142.971L43.2773 185.872L81.167 180.07L102.285 148.299L71.7783 142.971Z" fill="white"/>
<defs>
<pattern id="pattern0_2271_38852" patternContentUnits="objectBoundingBox" width="1" height="1">
<use xlink:href="#image0_2271_38852" transform="scale(0.00107066 0.00217865)"/>
</pattern>
<linearGradient id="paint0_linear_2271_38852" x1="17" y1="62.1582" x2="242.166" y2="210.748" gradientUnits="userSpaceOnUse">
<stop stop-color="#363636"/>
<stop offset="1"/>
</linearGradient>
</defs>
</svg>
