<svg width="256" height="256" viewBox="0 0 256 256" fill="none" xmlns="http://www.w3.org/2000/svg">
<path fill-rule="evenodd" clip-rule="evenodd" d="M104.425 42.3784C100.056 37.0733 93.5437 34 86.6712 34H29C22.3726 34 17 39.3726 17 46V58.1371V68.2V160C17 166.627 22.3726 172 29 172H229C235.627 172 241 166.627 241 160V70.1371C241 63.5097 235.627 58.1371 229 58.1371H117.404L104.425 42.3784Z" fill="#D12F0E"/>
<mask id="mask0_571_14762" style="mask-type:alpha" maskUnits="userSpaceOnUse" x="17" y="34" width="224" height="138">
<path fill-rule="evenodd" clip-rule="evenodd" d="M104.425 42.3784C100.056 37.0733 93.5437 34 86.6712 34H29C22.3726 34 17 39.3726 17 46V58.1371V68.2V160C17 166.627 22.3726 172 29 172H229C235.627 172 241 166.627 241 160V70.1371C241 63.5097 235.627 58.1371 229 58.1371H117.404L104.425 42.3784Z" fill="url(#paint0_linear_571_14762)"/>
</mask>
<g mask="url(#mask0_571_14762)">
<g style="mix-blend-mode:multiply" filter="url(#filter0_f_571_14762)">
<path fill-rule="evenodd" clip-rule="evenodd" d="M92.789 74C97.7642 74 102.605 72.3868 106.586 69.4024L116.459 62H229C235.627 62 241 67.3726 241 74V108V160C241 166.627 235.627 172 229 172H29C22.3726 172 17 166.627 17 160L17 108V86C17 79.3726 22.3726 74 29 74H87H92.789Z" fill="black" fill-opacity="0.3"/>
</g>
</g>
<g filter="url(#filter1_ii_571_14762)">
<path fill-rule="evenodd" clip-rule="evenodd" d="M92.789 74C97.7642 74 102.605 72.3868 106.586 69.4024L116.459 62H229C235.627 62 241 67.3726 241 74V108V198C241 204.627 235.627 210 229 210H29C22.3726 210 17 204.627 17 198L17 108V86C17 79.3726 22.3726 74 29 74H87H92.789Z" fill="url(#paint1_linear_571_14762)"/>
</g>
<g filter="url(#filter2_d_571_14762)">
<path d="M167.802 181C192.655 181 212.802 160.853 212.802 136C212.802 111.147 192.655 91 167.802 91C142.949 91 122.802 111.147 122.802 136C122.802 160.853 142.949 181 167.802 181Z" fill="black"/>
</g>
<path d="M167.802 181C192.655 181 212.802 160.853 212.802 136C212.802 111.147 192.655 91 167.802 91C142.949 91 122.802 111.147 122.802 136C122.802 160.853 142.949 181 167.802 181Z" fill="white"/>
<path fill-rule="evenodd" clip-rule="evenodd" d="M177.797 142.995L152.943 178.489C136.015 172.57 123.703 156.82 122.849 138.083L125.406 143.643L129.456 134.517L133.56 143.643L139.743 130.197H136.449L133.695 136.758L130.995 130.197H128.268L125.487 136.758L123.096 130.829C124.102 122.032 127.646 114.006 132.976 107.5H202.628C202.632 107.505 202.636 107.51 202.64 107.515L178.709 141.692L173.871 136.245L179.487 130.197H175.302L170.712 135.246V122.583H167.472V142.995H170.712V137.406L175.599 142.995H177.797ZM147.438 129.873C146.484 129.873 145.593 130.044 144.765 130.386C143.937 130.728 143.213 131.205 142.592 131.817C141.971 132.429 141.485 133.144 141.134 133.963C140.783 134.782 140.607 135.66 140.607 136.596C140.607 137.532 140.783 138.409 141.134 139.228C141.485 140.047 141.971 140.758 142.592 141.361C143.213 141.964 143.937 142.441 144.765 142.792C145.593 143.143 146.484 143.319 147.438 143.319C148.392 143.319 149.283 143.143 150.111 142.792C150.939 142.441 151.664 141.964 152.285 141.361C152.906 140.758 153.392 140.047 153.743 139.228C154.094 138.409 154.269 137.532 154.269 136.596C154.269 135.66 154.094 134.782 153.743 133.963C153.392 133.144 152.906 132.429 152.285 131.817C151.664 131.205 150.939 130.728 150.111 130.386C149.283 130.044 148.392 129.873 147.438 129.873ZM147.438 140.295C146.898 140.295 146.408 140.196 145.967 139.998C145.526 139.8 145.152 139.534 144.846 139.201C144.54 138.868 144.306 138.477 144.144 138.027C143.982 137.577 143.901 137.1 143.901 136.596C143.901 136.092 143.982 135.619 144.144 135.178C144.306 134.737 144.54 134.346 144.846 134.004C145.152 133.662 145.526 133.392 145.967 133.194C146.408 132.996 146.898 132.897 147.438 132.897C147.978 132.897 148.469 132.996 148.91 133.194C149.351 133.392 149.724 133.662 150.03 134.004C150.336 134.346 150.57 134.737 150.732 135.178C150.894 135.619 150.975 136.092 150.975 136.596C150.975 137.1 150.894 137.577 150.732 138.027C150.57 138.477 150.336 138.868 150.03 139.201C149.724 139.534 149.351 139.8 148.91 139.998C148.469 140.196 147.978 140.295 147.438 140.295ZM163.26 129.873C162.396 129.873 161.667 130.098 161.073 130.548C160.479 130.998 160.029 131.502 159.723 132.06V130.197H156.645V142.995H159.885V134.625C160.137 134.211 160.497 133.819 160.965 133.45C161.433 133.081 162.045 132.897 162.801 132.897C163.089 132.897 163.364 132.924 163.625 132.978C163.886 133.032 164.106 133.104 164.286 133.194L165.42 130.278C165.042 130.134 164.664 130.03 164.286 129.967C163.908 129.904 163.566 129.873 163.26 129.873Z" fill="#EE350F"/>
<path d="M48.2401 131.79H55.6651V134.868H48.2401V142.995H45.0001V124.095H56.2051V127.173H48.2401V131.79Z" fill="#EE350F"/>
<path d="M65.4662 129.872C65.7722 129.872 66.1142 129.904 66.4922 129.967C66.8702 130.03 67.2482 130.133 67.6262 130.277L66.4922 133.193C66.3122 133.103 66.0917 133.031 65.8307 132.977C65.5697 132.923 65.2952 132.896 65.0072 132.896C64.2512 132.896 63.6392 133.081 63.1712 133.45C62.7032 133.819 62.3432 134.21 62.0912 134.624V142.994H58.8512V130.196H61.9292V132.059C62.2352 131.501 62.6852 130.997 63.2792 130.547C63.8732 130.097 64.6022 129.872 65.4662 129.872ZM74.7812 129.872C76.5632 129.872 77.9672 130.304 78.9932 131.168C80.0192 132.032 80.5322 133.193 80.5322 134.651V142.994H77.5352V141.374C77.1212 141.932 76.5497 142.396 75.8207 142.765C75.0917 143.134 74.2772 143.318 73.3772 143.318C72.7652 143.318 72.1757 143.224 71.6087 143.035C71.0417 142.846 70.5422 142.567 70.1102 142.198C69.6782 141.829 69.3362 141.383 69.0842 140.861C68.8322 140.339 68.7062 139.754 68.7062 139.106C68.7062 138.458 68.8367 137.869 69.0977 137.338C69.3587 136.807 69.7187 136.352 70.1777 135.974C70.6367 135.596 71.1767 135.304 71.7977 135.097C72.4187 134.89 73.0892 134.786 73.8092 134.786C74.4032 134.786 75.0152 134.863 75.6452 135.016C76.2752 135.169 76.8242 135.398 77.2922 135.704V134.975C77.2922 134.561 77.2022 134.21 77.0222 133.922C76.8422 133.634 76.6172 133.405 76.3472 133.234C76.0772 133.063 75.7757 132.941 75.4427 132.869C75.1097 132.797 74.7902 132.761 74.4842 132.761C74.0522 132.761 73.5032 132.833 72.8372 132.977C72.1712 133.121 71.4602 133.364 70.7042 133.706L69.6512 131.033C70.2992 130.727 71.0687 130.457 71.9597 130.223C72.8507 129.989 73.7912 129.872 74.7812 129.872ZM74.2682 140.618C75.0242 140.618 75.6452 140.461 76.1312 140.146C76.6172 139.831 77.0042 139.493 77.2922 139.133V137.81C76.8782 137.594 76.4102 137.432 75.8882 137.324C75.3662 137.216 74.8982 137.162 74.4842 137.162C74.1962 137.162 73.9082 137.194 73.6202 137.257C73.3322 137.32 73.0667 137.419 72.8237 137.554C72.5807 137.689 72.3827 137.873 72.2297 138.107C72.0767 138.341 72.0002 138.629 72.0002 138.971C72.0002 139.313 72.0722 139.592 72.2162 139.808C72.3602 140.024 72.5447 140.191 72.7697 140.308C72.9947 140.425 73.2422 140.506 73.5122 140.551C73.7822 140.596 74.0342 140.618 74.2682 140.618ZM98.5952 129.872C99.2432 129.872 99.8462 129.985 100.404 130.21C100.962 130.435 101.439 130.754 101.835 131.168C102.231 131.582 102.542 132.091 102.767 132.694C102.992 133.297 103.104 133.985 103.104 134.759V142.994H99.8642V135.596C99.8642 133.796 99.1352 132.896 97.6772 132.896C96.9572 132.896 96.3947 133.076 95.9897 133.436C95.5847 133.796 95.2742 134.165 95.0582 134.543V142.994H91.8182V135.596C91.8182 133.796 91.0892 132.896 89.6312 132.896C88.9112 132.896 88.3487 133.076 87.9437 133.436C87.5387 133.796 87.2282 134.165 87.0122 134.543V142.994H83.7722V130.196H86.7962V132.059C87.1202 131.519 87.5972 131.02 88.2272 130.561C88.8572 130.102 89.6672 129.872 90.6572 129.872C91.5032 129.872 92.2772 130.066 92.9792 130.453C93.6812 130.84 94.2032 131.393 94.5452 132.113C94.6892 131.843 94.8827 131.573 95.1257 131.303C95.3687 131.033 95.6612 130.795 96.0032 130.588C96.3452 130.381 96.7322 130.21 97.1642 130.075C97.5962 129.94 98.0732 129.872 98.5952 129.872ZM111.906 129.872C112.788 129.872 113.621 130.034 114.404 130.358C115.187 130.682 115.871 131.137 116.456 131.722C117.041 132.307 117.504 133.009 117.846 133.828C118.188 134.647 118.359 135.551 118.359 136.541V137.054C118.359 137.27 118.35 137.504 118.332 137.756H108.774C108.846 138.062 108.977 138.368 109.166 138.674C109.355 138.98 109.607 139.255 109.922 139.498C110.237 139.741 110.601 139.943 111.015 140.105C111.429 140.267 111.897 140.348 112.419 140.348C112.959 140.348 113.544 140.249 114.174 140.051C114.804 139.853 115.371 139.52 115.875 139.052L117.495 141.482C116.973 141.914 116.271 142.328 115.389 142.724C114.507 143.12 113.499 143.318 112.365 143.318C111.393 143.318 110.489 143.147 109.652 142.805C108.815 142.463 108.086 141.986 107.465 141.374C106.844 140.762 106.358 140.042 106.007 139.214C105.656 138.386 105.48 137.495 105.48 136.541C105.48 135.623 105.642 134.759 105.966 133.949C106.29 133.139 106.736 132.433 107.303 131.83C107.87 131.227 108.549 130.75 109.341 130.399C110.133 130.048 110.988 129.872 111.906 129.872ZM115.119 135.407C115.101 135.137 115.025 134.849 114.89 134.543C114.755 134.237 114.557 133.954 114.296 133.693C114.035 133.432 113.706 133.22 113.31 133.058C112.914 132.896 112.446 132.815 111.906 132.815C111.384 132.815 110.934 132.896 110.556 133.058C110.178 133.22 109.859 133.427 109.598 133.679C109.337 133.931 109.139 134.21 109.004 134.516C108.869 134.822 108.792 135.119 108.774 135.407H115.119Z" fill="#EE350F"/>
<path fill-rule="evenodd" clip-rule="evenodd" d="M159.099 180.159L206.32 112.72C210.434 119.512 212.802 127.479 212.802 136C212.802 160.853 192.655 181 167.802 181C164.825 181 161.915 180.711 159.099 180.159ZM138.908 101.5C146.726 94.9462 156.803 91 167.802 91C178.801 91 188.879 94.9462 196.696 101.5H138.908Z" fill="#EE350F"/>
<defs>
<filter id="filter0_f_571_14762" x="-20" y="25" width="298" height="184" filterUnits="userSpaceOnUse" color-interpolation-filters="sRGB">
<feFlood flood-opacity="0" result="BackgroundImageFix"/>
<feBlend mode="normal" in="SourceGraphic" in2="BackgroundImageFix" result="shape"/>
<feGaussianBlur stdDeviation="18.5" result="effect1_foregroundBlur_571_14762"/>
</filter>
<filter id="filter1_ii_571_14762" x="17" y="62" width="224" height="148" filterUnits="userSpaceOnUse" color-interpolation-filters="sRGB">
<feFlood flood-opacity="0" result="BackgroundImageFix"/>
<feBlend mode="normal" in="SourceGraphic" in2="BackgroundImageFix" result="shape"/>
<feColorMatrix in="SourceAlpha" type="matrix" values="0 0 0 0 0 0 0 0 0 0 0 0 0 0 0 0 0 0 127 0" result="hardAlpha"/>
<feOffset dy="4"/>
<feComposite in2="hardAlpha" operator="arithmetic" k2="-1" k3="1"/>
<feColorMatrix type="matrix" values="0 0 0 0 1 0 0 0 0 1 0 0 0 0 1 0 0 0 0.25 0"/>
<feBlend mode="normal" in2="shape" result="effect1_innerShadow_571_14762"/>
<feColorMatrix in="SourceAlpha" type="matrix" values="0 0 0 0 0 0 0 0 0 0 0 0 0 0 0 0 0 0 127 0" result="hardAlpha"/>
<feOffset dy="-4"/>
<feComposite in2="hardAlpha" operator="arithmetic" k2="-1" k3="1"/>
<feColorMatrix type="matrix" values="0 0 0 0 0 0 0 0 0 0 0 0 0 0 0 0 0 0 0.9 0"/>
<feBlend mode="soft-light" in2="effect1_innerShadow_571_14762" result="effect2_innerShadow_571_14762"/>
</filter>
<filter id="filter2_d_571_14762" x="110.802" y="85" width="114" height="114" filterUnits="userSpaceOnUse" color-interpolation-filters="sRGB">
<feFlood flood-opacity="0" result="BackgroundImageFix"/>
<feColorMatrix in="SourceAlpha" type="matrix" values="0 0 0 0 0 0 0 0 0 0 0 0 0 0 0 0 0 0 127 0" result="hardAlpha"/>
<feOffset dy="6"/>
<feGaussianBlur stdDeviation="6"/>
<feColorMatrix type="matrix" values="0 0 0 0 0.933333 0 0 0 0 0.207843 0 0 0 0 0.0588235 0 0 0 0.3013 0"/>
<feBlend mode="normal" in2="BackgroundImageFix" result="effect1_dropShadow_571_14762"/>
<feBlend mode="normal" in="SourceGraphic" in2="effect1_dropShadow_571_14762" result="shape"/>
</filter>
<linearGradient id="paint0_linear_571_14762" x1="17" y1="34" x2="197.768" y2="215.142" gradientUnits="userSpaceOnUse">
<stop stop-color="#05815D"/>
<stop offset="1" stop-color="#0C575F"/>
</linearGradient>
<linearGradient id="paint1_linear_571_14762" x1="8.5" y1="70" x2="247" y2="210" gradientUnits="userSpaceOnUse">
<stop stop-color="#FDFFFD"/>
<stop offset="1" stop-color="#ECBFB9"/>
</linearGradient>
</defs>
</svg>
