<svg width="256" height="256" viewBox="0 0 256 256" fill="none" xmlns="http://www.w3.org/2000/svg">
<path fill-rule="evenodd" clip-rule="evenodd" d="M104.425 42.3784C100.056 37.0733 93.5437 34 86.6712 34H29C22.3726 34 17 39.3726 17 46V58.1371V68.2V160C17 166.627 22.3726 172 29 172H229C235.627 172 241 166.627 241 160V70.1371C241 63.5097 235.627 58.1371 229 58.1371H117.404L104.425 42.3784Z" fill="#003648"/>
<mask id="mask0_658_15603" style="mask-type:alpha" maskUnits="userSpaceOnUse" x="17" y="34" width="224" height="138">
<path fill-rule="evenodd" clip-rule="evenodd" d="M104.425 42.3784C100.056 37.0733 93.5437 34 86.6712 34H29C22.3726 34 17 39.3726 17 46V58.1371V68.2V160C17 166.627 22.3726 172 29 172H229C235.627 172 241 166.627 241 160V70.1371C241 63.5097 235.627 58.1371 229 58.1371H117.404L104.425 42.3784Z" fill="url(#paint0_linear_658_15603)"/>
</mask>
<g mask="url(#mask0_658_15603)">
<g style="mix-blend-mode:multiply" filter="url(#filter0_f_658_15603)">
<path fill-rule="evenodd" clip-rule="evenodd" d="M92.789 74C97.7642 74 102.605 72.3868 106.586 69.4024L116.459 62H229C235.627 62 241 67.3726 241 74V108V160C241 166.627 235.627 172 229 172H29C22.3726 172 17 166.627 17 160L17 108V86C17 79.3726 22.3726 74 29 74H87H92.789Z" fill="black" fill-opacity="0.3"/>
</g>
</g>
<g filter="url(#filter1_ii_658_15603)">
<path fill-rule="evenodd" clip-rule="evenodd" d="M92.789 74C97.7642 74 102.605 72.3868 106.586 69.4024L116.459 62H229C235.627 62 241 67.3726 241 74V108V198C241 204.627 235.627 210 229 210H29C22.3726 210 17 204.627 17 198L17 108V86C17 79.3726 22.3726 74 29 74H87H92.789Z" fill="url(#paint1_linear_658_15603)"/>
</g>
<path d="M126.871 190.011C126.272 189.938 125.409 189.821 124.97 189.733C124.531 189.645 123.946 189.543 123.683 189.485C123.419 189.441 123.171 189.353 123.127 189.28C123.083 189.207 122.893 189.148 122.702 189.148C122.512 189.148 122.308 189.09 122.264 189.002C122.22 188.929 122.044 188.856 121.898 188.856C121.591 188.856 118.285 187.232 117.583 186.749C117.349 186.574 116.983 186.296 116.778 186.12C116.588 185.93 116.354 185.784 116.281 185.784C116.091 185.784 113.428 183.136 113.209 182.712C113.092 182.507 112.873 182.098 112.712 181.805C112.565 181.512 112.258 181.059 112.039 180.81C111.834 180.562 111.658 180.298 111.658 180.225C111.658 180.152 111.571 180.006 111.454 179.903C111.351 179.786 111.117 179.421 110.942 179.099C110.781 178.762 110.576 178.455 110.488 178.397C110.415 178.353 110.342 178.177 110.342 178.016C110.342 177.87 110.283 177.738 110.196 177.738C110.123 177.738 110.049 177.636 110.049 177.519C110.049 177.402 109.991 177.183 109.918 177.036C109.435 176.085 108.762 173.935 108.455 172.399C108.06 170.395 108.002 169.167 108.002 163.403V157.26H121.752H135.502V163.476C135.502 166.943 135.56 169.693 135.633 169.693C135.707 169.693 135.838 169.591 135.941 169.474C136.043 169.357 136.175 169.254 136.248 169.254C136.321 169.254 136.657 169.079 137.008 168.859C137.345 168.64 137.915 168.304 138.281 168.099C138.647 167.909 138.969 167.704 139.012 167.66C139.056 167.601 139.334 167.44 139.627 167.309C139.919 167.163 140.256 166.972 140.358 166.87C140.461 166.768 140.797 166.563 141.09 166.431C141.382 166.285 141.719 166.095 141.821 165.992C141.923 165.89 142.26 165.685 142.552 165.554C142.845 165.407 143.181 165.217 143.284 165.115C143.386 165.027 143.737 164.807 144.059 164.632C144.82 164.237 145.361 163.93 145.449 163.842C145.493 163.798 145.668 163.681 145.858 163.593C146.034 163.491 146.326 163.315 146.516 163.228C146.692 163.125 146.868 163.008 146.911 162.964C147.058 162.818 147.862 162.365 148.126 162.277C148.257 162.233 148.374 162.145 148.374 162.072C148.374 161.999 148.447 161.94 148.535 161.94C148.623 161.94 148.974 161.765 149.31 161.531C149.632 161.311 150.217 160.975 150.612 160.77C150.993 160.565 151.3 160.361 151.3 160.302C151.3 160.229 151.373 160.185 151.461 160.185C151.548 160.185 151.899 160.01 152.236 159.776C152.558 159.556 153.143 159.22 153.538 159.015C153.918 158.81 154.225 158.605 154.225 158.547C154.225 158.474 154.298 158.43 154.372 158.43C154.459 158.43 154.796 158.254 155.147 158.035C155.483 157.815 156.054 157.479 156.419 157.303C156.771 157.113 157.092 156.908 157.151 156.85C157.195 156.777 157.473 156.616 157.765 156.484C158.058 156.338 158.394 156.148 158.497 156.045C158.599 155.943 158.935 155.738 159.228 155.607C159.521 155.46 159.857 155.27 159.959 155.168C160.062 155.08 160.413 154.861 160.735 154.685C161.495 154.29 162.037 153.983 162.124 153.895C162.168 153.851 162.329 153.749 162.49 153.661C163.192 153.281 163.514 153.091 163.587 153.018C163.631 152.974 163.792 152.871 163.953 152.783C164.67 152.389 164.977 152.213 165.05 152.14C165.094 152.096 165.43 151.891 165.825 151.701C166.205 151.496 166.513 151.291 166.513 151.233C166.513 151.16 166.586 151.116 166.674 151.116C166.761 151.116 167.112 150.94 167.449 150.706C167.771 150.487 168.356 150.15 168.751 149.946C169.131 149.741 169.438 149.536 169.438 149.478C169.438 149.404 169.511 149.361 169.599 149.361C169.687 149.361 170.053 149.17 170.418 148.922C170.769 148.688 171.12 148.483 171.179 148.483C171.237 148.483 171.413 148.351 171.559 148.19C171.823 147.912 171.808 147.898 171.515 147.898C171.34 147.898 171.194 147.839 171.194 147.781C171.194 147.708 171.033 147.576 170.828 147.488C170.623 147.386 170.374 147.24 170.272 147.166C169.95 146.888 168.253 145.85 168.136 145.85C168.078 145.85 167.902 145.718 167.756 145.557C167.61 145.396 167.405 145.265 167.288 145.265C167.186 145.265 167.098 145.221 167.098 145.148C167.098 145.089 166.791 144.884 166.41 144.68C166.015 144.49 165.679 144.285 165.635 144.226C165.591 144.182 165.401 144.051 165.211 143.948C165.006 143.846 164.772 143.7 164.699 143.626C164.377 143.363 162.695 142.339 162.578 142.339C162.519 142.339 162.344 142.208 162.197 142.047C162.051 141.886 161.876 141.754 161.802 141.754C161.729 141.754 161.378 141.564 161.027 141.315C160.676 141.081 160.325 140.876 160.237 140.876C160.15 140.876 160.076 140.818 160.076 140.759C160.076 140.686 159.901 140.54 159.681 140.423C159.447 140.306 159.213 140.174 159.126 140.101C158.862 139.911 157.136 138.829 157.078 138.829C157.048 138.829 156.522 138.507 155.922 138.097C155.308 137.688 154.752 137.366 154.664 137.366C154.591 137.366 154.518 137.307 154.518 137.234C154.518 137.161 154.328 137.029 154.079 136.927C153.845 136.825 153.64 136.708 153.64 136.649C153.64 136.605 153.333 136.4 152.953 136.196C152.558 135.991 152.119 135.713 151.973 135.581C151.812 135.435 151.636 135.318 151.578 135.318C151.519 135.318 150.963 134.996 150.364 134.587C149.749 134.192 149.193 133.855 149.106 133.855C149.032 133.855 148.959 133.797 148.959 133.723C148.959 133.65 148.769 133.519 148.52 133.416C148.272 133.314 148.082 133.197 148.082 133.138C148.082 133.094 147.774 132.89 147.38 132.685C146.999 132.48 146.56 132.202 146.414 132.071C146.253 131.924 146.078 131.807 146.019 131.807C145.961 131.807 145.405 131.485 144.805 131.076C144.191 130.681 143.635 130.344 143.547 130.344C143.474 130.344 143.401 130.286 143.401 130.213C143.401 130.14 143.211 130.008 142.962 129.906C142.713 129.803 142.523 129.686 142.523 129.628C142.523 129.584 142.216 129.379 141.821 129.174C141.441 128.969 141.002 128.692 140.856 128.56C140.695 128.414 140.519 128.297 140.461 128.297C140.402 128.297 139.846 127.96 139.246 127.565C138.632 127.156 138.076 126.834 137.988 126.834C137.915 126.834 137.842 126.775 137.842 126.702C137.842 126.629 137.652 126.497 137.403 126.395C137.169 126.293 136.965 126.161 136.965 126.088C136.965 126.015 136.877 125.956 136.789 125.956C136.687 125.956 136.438 125.824 136.233 125.664C135.487 125.078 135.502 124.888 135.502 132.027V138.682L121.796 138.653L108.075 138.609V126.102V113.596L133.82 113.552C158.409 113.523 161.568 113.566 163.66 113.947C164.801 114.152 166.059 114.503 167.317 114.985C168.078 115.263 170.857 116.682 171.106 116.916C171.267 117.062 171.471 117.179 171.574 117.179C171.676 117.179 171.779 117.238 171.808 117.296C171.837 117.37 172.144 117.618 172.51 117.867C172.876 118.13 173.783 118.92 174.543 119.652C175.304 120.383 175.977 120.983 176.05 120.983C176.108 120.983 176.167 121.07 176.167 121.173C176.167 121.275 176.284 121.495 176.43 121.656C176.679 121.933 176.869 122.285 177.849 124.201C178.303 125.093 178.683 125.927 178.946 126.614C179.005 126.775 179.122 127.068 179.21 127.273C179.297 127.477 179.444 127.902 179.546 128.223C179.634 128.545 179.765 128.926 179.839 129.057C179.912 129.204 179.97 129.511 179.97 129.745C179.97 129.993 180.029 130.213 180.102 130.257C180.175 130.301 180.263 130.593 180.307 130.886C180.351 131.193 180.468 132.071 180.585 132.831C180.731 133.943 180.775 139.794 180.775 162.16V190.099L154.372 190.114C139.846 190.128 127.471 190.07 126.871 190.011Z" fill="#00CAE6"/>
<path d="M95.568 165.115C95.1145 164.705 93.403 163.082 91.7647 161.517C84.1437 154.305 80.75 149.858 79.0678 144.899C78.0146 141.813 78.1024 144.68 78.0585 111.694L78 82L105.471 82.0293C120.581 82.0439 133.366 82.1024 133.893 82.1463C136.467 82.3657 139.861 83.6822 142.552 85.4814C146.005 87.778 148.389 90.1038 155.571 98.1637C158.116 101.016 160.618 103.825 161.13 104.38L162.051 105.404L160.735 104.234C155.747 99.7874 152.031 97.4177 148.082 96.1743C146.048 95.5307 146.078 95.5307 117.846 95.5307H91.0333V124.874C91.0333 153.691 91.0333 154.247 91.3259 155.665C91.9549 158.737 93.5347 161.999 96.0068 165.276C96.2555 165.612 96.4456 165.89 96.4164 165.89C96.4017 165.89 96.0068 165.539 95.568 165.115Z" fill="#003648"/>
<defs>
<filter id="filter0_f_658_15603" x="-20" y="25" width="298" height="184" filterUnits="userSpaceOnUse" color-interpolation-filters="sRGB">
<feFlood flood-opacity="0" result="BackgroundImageFix"/>
<feBlend mode="normal" in="SourceGraphic" in2="BackgroundImageFix" result="shape"/>
<feGaussianBlur stdDeviation="18.5" result="effect1_foregroundBlur_658_15603"/>
</filter>
<filter id="filter1_ii_658_15603" x="17" y="62" width="224" height="148" filterUnits="userSpaceOnUse" color-interpolation-filters="sRGB">
<feFlood flood-opacity="0" result="BackgroundImageFix"/>
<feBlend mode="normal" in="SourceGraphic" in2="BackgroundImageFix" result="shape"/>
<feColorMatrix in="SourceAlpha" type="matrix" values="0 0 0 0 0 0 0 0 0 0 0 0 0 0 0 0 0 0 127 0" result="hardAlpha"/>
<feOffset dy="4"/>
<feComposite in2="hardAlpha" operator="arithmetic" k2="-1" k3="1"/>
<feColorMatrix type="matrix" values="0 0 0 0 1 0 0 0 0 1 0 0 0 0 1 0 0 0 0.25 0"/>
<feBlend mode="normal" in2="shape" result="effect1_innerShadow_658_15603"/>
<feColorMatrix in="SourceAlpha" type="matrix" values="0 0 0 0 0 0 0 0 0 0 0 0 0 0 0 0 0 0 127 0" result="hardAlpha"/>
<feOffset dy="-4"/>
<feComposite in2="hardAlpha" operator="arithmetic" k2="-1" k3="1"/>
<feColorMatrix type="matrix" values="0 0 0 0 0 0 0 0 0 0 0 0 0 0 0 0 0 0 0.9 0"/>
<feBlend mode="soft-light" in2="effect1_innerShadow_658_15603" result="effect2_innerShadow_658_15603"/>
</filter>
<linearGradient id="paint0_linear_658_15603" x1="17" y1="34" x2="197.768" y2="215.142" gradientUnits="userSpaceOnUse">
<stop stop-color="#05815D"/>
<stop offset="1" stop-color="#0C575F"/>
</linearGradient>
<linearGradient id="paint1_linear_658_15603" x1="17" y1="62" x2="241" y2="210" gradientUnits="userSpaceOnUse">
<stop stop-color="#FAFAFA"/>
<stop offset="0.984908" stop-color="#E7E7E7"/>
</linearGradient>
</defs>
</svg>
