<svg width="256" height="256" viewBox="0 0 256 256" fill="none" xmlns="http://www.w3.org/2000/svg">
<rect x="105.6" y="46.7998" width="3.2" height="3.2" fill="#F9C63C"/>
<rect x="233.6" y="203.6" width="3.2" height="3.2" fill="#1C8018"/>
<rect x="236.8" y="200.4" width="3.2" height="3.2" fill="#1C8018"/>
<rect x="22.3999" y="206.8" width="211.2" height="3.2" fill="#1C8018"/>
<rect x="19.2" y="203.6" width="3.2" height="3.2" fill="#1C8018"/>
<rect x="16" y="200.4" width="3.2" height="3.2" fill="#1C8018"/>
<rect x="22.3999" y="34" width="73.6" height="3.2" fill="#2E7D6D"/>
<rect x="96" y="37.2002" width="3.2" height="3.2" fill="#2E7D6D"/>
<rect x="99.2" y="40.3999" width="3.2" height="3.2" fill="#2E7D6D"/>
<rect x="102.4" y="43.6001" width="3.2" height="3.2" fill="#2E7D6D"/>
<rect x="105.6" y="46.7998" width="3.2" height="3.2" fill="#2E7D6D"/>
<rect x="108.8" y="50" width="3.2" height="3.2" fill="#2E7D6D"/>
<path d="M236.8 60.7998H233.6V65.9998H236.8L239 65.9998L239.015 62.9998H236.8V60.7998Z" fill="#2E7D6D"/>
<rect x="115.2" y="58.6001" width="118.4" height="3.2" fill="#2E7D6D"/>
<rect x="112" y="53.2002" width="3.2" height="6.4" fill="#2E7D6D"/>
<rect x="236.8" y="66" width="3.2" height="6.4" fill="#2E7D6D"/>
<rect x="16" y="40.3999" width="3.2" height="44.8" fill="#2E7D6D"/>
<path d="M19.2 40.4002H22.4V37.2002H96V40.4002H99.2V43.6002H102.4V46.8002H105.6V50.0002H108.8V53.2002H112V59.6002H115.2V61.8002H233.6V66.0002H236.8V69.2002H233.6V66.0002H115.2V69.2002H112V72.4002H108.8V75.6002H102.4V78.8002H22.4V82.0002H19.2V40.4002Z" fill="#2E7D6D"/>
<path d="M22.4 203.6V206.8H70.4V199.6H73.6V193.2H76.8V186.8H80V180.4H83.2V174H86.4V167.6H89.6V161.2H92.7999V151.6H96V145.2H99.2V138.8H102.4V129.2H105.6V122.8H108.8V116.4H112V110H115.2V106.8H118.4V100.4H121.6V94.0002H124.8V90.8002H128V84.4002H131.2V81.2002H134.4V78.0002H137.6V74.8002H140.8V71.6002H144V68.4002H147.2V65.2002H115.2V68.4002H112V71.6002H108.8V74.8002H102.4V78.0002H22.4V81.2002H19.2V203.6H22.4Z" fill="url(#paint0_linear_682_16605)"/>
<path d="M220.8 68.4002V65.2002H147.2V68.4002H144V71.6002H140.8V74.8002H137.6V78.0002H134.4V81.2002H131.2V84.4002H128V90.8002H124.8V94.0002H121.6V100.4H118.4V106.8H115.2V110H112V116.4H108.8V122.8H105.6V129.2H102.4V138.8H99.1999V145.2H95.9999V151.6H92.7999V161.2H89.5999V167.6H86.3999V174H83.1999V180.4H79.9999V186.8H76.7999V193.2H73.5999V199.6H70.3999V206.8H144V199.6H147.2V193.2H150.4V186.8H153.6V180.4H156.8V174H160V167.6H163.2V161.2H166.4V151.6H169.6V145.2H172.8V138.8H176V129.2H179.2V122.8H182.4V116.4H185.6V110H188.8V106.8H192V100.4H195.2V94.0002H198.4V90.8002H201.6V84.4002H204.8V81.2002H208V78.0002H211.2V74.8002H214.4V71.6002H217.6V68.4002H220.8Z" fill="url(#paint1_linear_682_16605)"/>
<path d="M220.8 68.4002V65.2002H233.6V68.4002H236.8V203.6H233.6V206.8H144V199.6H147.2V193.2H150.4V186.8H153.6V180.4H156.8V174H160V167.6H163.2V161.2H166.4V151.6H169.6V145.2H172.8V138.8H176V129.2H179.2V122.8H182.4V116.4H185.6V110H188.8V106.8H192V100.4H195.2V94.0002H198.4V90.8002H201.6V84.4002H204.8V81.2002H208V78.0002H211.2V74.8002H214.4V71.6002H217.6V68.4002H220.8Z" fill="url(#paint2_linear_682_16605)"/>
<path d="M236.8 71.6001H240V200.4H236.8V71.6001Z" fill="#328968"/>
<path d="M16 84.3999H19.2V200.4H16V84.3999Z" fill="#BAF10B"/>
<rect x="19.2" y="78" width="3.2" height="3.2" fill="#ADDD5D"/>
<rect x="112" y="65.2002" width="3.2" height="3.2" fill="#ADDD5D"/>
<rect x="108.8" y="68.3999" width="3.2" height="3.2" fill="#ADDD5D"/>
<rect x="102.4" y="71.6001" width="6.4" height="3.2" fill="#ADDD5D"/>
<rect x="22.3999" y="74.7998" width="80" height="3.2" fill="#ADDD5D"/>
<rect x="115.2" y="62" width="118.4" height="3.2" fill="#ADDD5D"/>
<rect x="233.6" y="65.2002" width="3.2" height="3.2" fill="#ADDD5D"/>
<rect x="236.8" y="68.3999" width="3.2" height="3.2" fill="#ADDD5D"/>
<rect x="16" y="81.2002" width="3.2" height="3.2" fill="#ADDD5D"/>
<rect x="19.2" y="37.2002" width="3.2" height="3.2" fill="#2E7D6D"/>
<g filter="url(#filter0_d_682_16605)">
<path fill-rule="evenodd" clip-rule="evenodd" d="M94 110C94 111.667 93.333 112 90 112C86.667 112 86 112.333 86 114C86 115.333 85.333 116 84 116C82.222 116 82 116.667 82 122C82 127.333 82.222 128 84 128C85.333 128 86 128.667 86 130C86 131.667 86.667 132 90 132C93.333 132 94 132.333 94 134C94 135.778 94.667 136 100 136C105.333 136 106 135.778 106 134C106 132.333 106.667 132 110 132C113.333 132 114 131.667 114 130C114 128.667 114.667 128 116 128C117.778 128 118 127.333 118 122C118 116.667 117.778 116 116 116C114.667 116 114 115.333 114 114C114 112.333 113.333 112 110 112C106.667 112 106 111.667 106 110C106 108.222 105.333 108 100 108C94.667 108 94 108.222 94 110ZM150 110C150 111.667 149.333 112 146 112C142.667 112 142 112.333 142 114C142 115.333 141.333 116 140 116C138.222 116 138 116.667 138 122C138 127.333 138.222 128 140 128C141.333 128 142 128.667 142 130C142 131.667 142.667 132 146 132C149.333 132 150 132.333 150 134C150 135.778 150.667 136 156 136C161.333 136 162 135.778 162 134C162 132.333 162.667 132 166 132C169.333 132 170 131.667 170 130C170 128.667 170.667 128 172 128C173.778 128 174 127.333 174 122C174 116.667 173.778 116 172 116C170.667 116 170 115.333 170 114C170 112.333 169.333 112 166 112C162.667 112 162 111.667 162 110C162 108.222 161.333 108 156 108C150.667 108 150 108.222 150 110ZM102 114C102 115.333 102.667 116 104 116C105.778 116 106 116.667 106 122C106 127.333 105.778 128 104 128C102.667 128 102 128.667 102 130C102 131.333 101.333 132 100 132C98.667 132 98 131.333 98 130C98 128.667 97.333 128 96 128C94.222 128 94 127.333 94 122C94 116.667 94.222 116 96 116C97.333 116 98 115.333 98 114C98 112.667 98.667 112 100 112C101.333 112 102 112.667 102 114ZM158 114C158 115.333 158.667 116 160 116C161.778 116 162 116.667 162 122C162 127.333 161.778 128 160 128C158.667 128 158 128.667 158 130C158 131.333 157.333 132 156 132C154.667 132 154 131.333 154 130C154 128.667 153.333 128 152 128C150.222 128 150 127.333 150 122C150 116.667 150.222 116 152 116C153.333 116 154 115.333 154 114C154 112.667 154.667 112 156 112C157.333 112 158 112.667 158 114ZM94 148C94 151.333 94.333 152 96 152C97.667 152 98 151.333 98 148C98 144.667 97.667 144 96 144C94.333 144 94 144.667 94 148ZM158 148C158 151.333 158.333 152 160 152C161.667 152 162 151.333 162 148C162 144.667 161.667 144 160 144C158.333 144 158 144.667 158 148ZM102 156C102 163.333 102.167 164 104 164C105.667 164 106 164.667 106 168C106 171.333 106.333 172 108 172C109.667 172 110 171.333 110 168C110 164.667 109.667 164 108 164C106.667 164 106 163.333 106 162C106 160.667 106.667 160 108 160C109.667 160 110 159.333 110 156C110 152.667 109.667 152 108 152C106.667 152 106 151.333 106 150C106 148.667 105.333 148 104 148C102.167 148 102 148.667 102 156ZM150 150C150 151.333 149.333 152 148 152C146.333 152 146 152.667 146 156C146 159.333 146.333 160 148 160C149.333 160 150 160.667 150 162C150 163.333 149.333 164 148 164C146.333 164 146 164.667 146 168C146 171.333 146.333 172 148 172C149.667 172 150 171.333 150 168C150 164.667 150.333 164 152 164C153.833 164 154 163.333 154 156C154 148.667 153.833 148 152 148C150.667 148 150 148.667 150 150ZM114 156C114 159.333 114.333 160 116 160C117.333 160 118 160.667 118 162C118 163.333 117.333 164 116 164C114.333 164 114 164.667 114 168C114 171.333 114.333 172 116 172C117.333 172 118 172.667 118 174C118 175.667 118.667 176 122 176H126V172V168H122C118.667 168 118 167.667 118 166C118 164.333 118.667 164 122 164H126V158V152H120H114V156ZM130 158V164H134C137.333 164 138 164.333 138 166C138 167.667 137.333 168 134 168H130V172V176H134C137.333 176 138 175.667 138 174C138 172.667 138.667 172 140 172C141.667 172 142 171.333 142 168C142 164.667 141.667 164 140 164C138.667 164 138 163.333 138 162C138 160.667 138.667 160 140 160C141.667 160 142 159.333 142 156V152H136H130V158Z" fill="white"/>
</g>
<defs>
<filter id="filter0_d_682_16605" x="78" y="108" width="100" height="76" filterUnits="userSpaceOnUse" color-interpolation-filters="sRGB">
<feFlood flood-opacity="0" result="BackgroundImageFix"/>
<feColorMatrix in="SourceAlpha" type="matrix" values="0 0 0 0 0 0 0 0 0 0 0 0 0 0 0 0 0 0 127 0" result="hardAlpha"/>
<feOffset dy="4"/>
<feGaussianBlur stdDeviation="2"/>
<feComposite in2="hardAlpha" operator="out"/>
<feColorMatrix type="matrix" values="0 0 0 0 0 0 0 0 0 0 0 0 0 0 0 0 0 0 0.25 0"/>
<feBlend mode="normal" in2="BackgroundImageFix" result="effect1_dropShadow_682_16605"/>
<feBlend mode="normal" in="SourceGraphic" in2="effect1_dropShadow_682_16605" result="shape"/>
</filter>
<linearGradient id="paint0_linear_682_16605" x1="22.5" y1="79.5" x2="118.5" y2="117" gradientUnits="userSpaceOnUse">
<stop stop-color="#C0F607"/>
<stop offset="1" stop-color="#8DCF29"/>
</linearGradient>
<linearGradient id="paint1_linear_682_16605" x1="123" y1="100" x2="180.5" y2="127" gradientUnits="userSpaceOnUse">
<stop stop-color="#82C631"/>
<stop offset="1" stop-color="#65B044"/>
</linearGradient>
<linearGradient id="paint2_linear_682_16605" x1="190" y1="144.5" x2="237" y2="172.5" gradientUnits="userSpaceOnUse">
<stop stop-color="#50A053"/>
<stop offset="1" stop-color="#2E866A"/>
</linearGradient>
</defs>
</svg>
