<svg width="256" height="256" viewBox="0 0 256 256" fill="none" xmlns="http://www.w3.org/2000/svg">
<path fill-rule="evenodd" clip-rule="evenodd" d="M104.425 42.3784C100.056 37.0733 93.5437 34 86.6712 34H29C22.3726 34 17 39.3726 17 46V58.1371V68.2V160C17 166.627 22.3726 172 29 172H229C235.627 172 241 166.627 241 160V70.1371C241 63.5097 235.627 58.1371 229 58.1371H117.404L104.425 42.3784Z" fill="#2F7F6F"/>
<mask id="mask0_510_12018" style="mask-type:alpha" maskUnits="userSpaceOnUse" x="17" y="34" width="224" height="138">
<path fill-rule="evenodd" clip-rule="evenodd" d="M104.425 42.3784C100.056 37.0733 93.5437 34 86.6712 34H29C22.3726 34 17 39.3726 17 46V58.1371V68.2V160C17 166.627 22.3726 172 29 172H229C235.627 172 241 166.627 241 160V70.1371C241 63.5097 235.627 58.1371 229 58.1371H117.404L104.425 42.3784Z" fill="url(#paint0_linear_510_12018)"/>
</mask>
<g mask="url(#mask0_510_12018)">
<g style="mix-blend-mode:multiply" filter="url(#filter0_f_510_12018)">
<path fill-rule="evenodd" clip-rule="evenodd" d="M92.789 74C97.7642 74 102.605 72.3868 106.586 69.4024L116.459 62H229C235.627 62 241 67.3726 241 74V108V160C241 166.627 235.627 172 229 172H29C22.3726 172 17 166.627 17 160L17 108V86C17 79.3726 22.3726 74 29 74H87H92.789Z" fill="black" fill-opacity="0.3"/>
</g>
</g>
<g filter="url(#filter1_ii_510_12018)">
<path fill-rule="evenodd" clip-rule="evenodd" d="M92.789 74C97.7642 74 102.605 72.3868 106.586 69.4024L116.459 62H229C235.627 62 241 67.3726 241 74V108V198C241 204.627 235.627 210 229 210H29C22.3726 210 17 204.627 17 198L17 108V86C17 79.3726 22.3726 74 29 74H87H92.789Z" fill="url(#paint1_linear_510_12018)"/>
</g>
<path d="M159.901 97.5555V103.111H154.337V108.667H148.773V114.222H143.208V125.333H154.337V130.889H148.773V136.444H143.208V142H137.644V147.556H132.08V153.111H126.515V158.667H120.951V164.222H115.386V169.778H109.822V175.333H104.258V192H109.822V186.444H115.386V180.889H120.951V175.333H126.515V169.778H132.08V164.222H137.644V158.667H143.208V153.111H148.773V147.556H154.337V142H159.901V136.444H165.466V130.889H171.03V125.333H159.901V114.222H165.466V108.667H171.03V103.111H176.595V97.5555H159.901ZM87.5644 142V153.111H120.951V142H87.5644Z" fill="black"/>
<path d="M104.258 92V103.111H98.6932V114.222H93.1288V125.333H87.5644V136.444H82V147.556H115.386V158.667H109.822V169.778H104.258V180.889H109.822V175.333H115.386V169.778H120.951V164.222H126.515V158.667H132.079V153.111H137.644V147.556H143.208V142H148.773V136.444H154.337V130.889H159.901V125.333H165.466V119.778H148.773V114.222H154.337V108.667H159.901V103.111H165.466V97.5556H171.03V92H104.258ZM104.258 180.889H98.6932V186.444H104.258V180.889Z" fill="white"/>
<path d="M109.822 103.111V114.222H104.257V125.333H109.822V130.889H115.386V125.333H120.951V130.889H126.515V125.333H132.079V119.778H137.644V114.222H143.208V108.667H148.773V103.111H109.822ZM126.515 130.889V136.445H132.079V130.889H126.515ZM120.951 130.889H115.386V136.445H120.951V130.889ZM109.822 130.889H104.257V136.445H109.822V130.889ZM104.257 130.889V125.333H98.6931V130.889H104.257ZM137.644 130.889V136.445H143.208V130.889H137.644Z" fill="#2F7F6F"/>
<path d="M104.257 125.333V130.889H109.822V125.333H104.257ZM109.822 130.889V136.444H115.386V130.889H109.822ZM115.386 130.889H120.951V125.333H115.386V130.889ZM120.951 130.889V136.444H126.515V130.889H120.951ZM126.515 130.889H132.079V125.333H126.515V130.889ZM132.079 130.889V136.444H126.515V147.556H132.079V142H137.644V130.889H132.079ZM104.257 130.889H98.6931V136.444H104.257V130.889Z" fill="#CCFF00"/>
<defs>
<filter id="filter0_f_510_12018" x="-20" y="25" width="298" height="184" filterUnits="userSpaceOnUse" color-interpolation-filters="sRGB">
<feFlood flood-opacity="0" result="BackgroundImageFix"/>
<feBlend mode="normal" in="SourceGraphic" in2="BackgroundImageFix" result="shape"/>
<feGaussianBlur stdDeviation="18.5" result="effect1_foregroundBlur_510_12018"/>
</filter>
<filter id="filter1_ii_510_12018" x="17" y="62" width="224" height="148" filterUnits="userSpaceOnUse" color-interpolation-filters="sRGB">
<feFlood flood-opacity="0" result="BackgroundImageFix"/>
<feBlend mode="normal" in="SourceGraphic" in2="BackgroundImageFix" result="shape"/>
<feColorMatrix in="SourceAlpha" type="matrix" values="0 0 0 0 0 0 0 0 0 0 0 0 0 0 0 0 0 0 127 0" result="hardAlpha"/>
<feOffset dy="4"/>
<feComposite in2="hardAlpha" operator="arithmetic" k2="-1" k3="1"/>
<feColorMatrix type="matrix" values="0 0 0 0 1 0 0 0 0 1 0 0 0 0 1 0 0 0 0.25 0"/>
<feBlend mode="normal" in2="shape" result="effect1_innerShadow_510_12018"/>
<feColorMatrix in="SourceAlpha" type="matrix" values="0 0 0 0 0 0 0 0 0 0 0 0 0 0 0 0 0 0 127 0" result="hardAlpha"/>
<feOffset dy="-4"/>
<feComposite in2="hardAlpha" operator="arithmetic" k2="-1" k3="1"/>
<feColorMatrix type="matrix" values="0 0 0 0 0 0 0 0 0 0 0 0 0 0 0 0 0 0 0.9 0"/>
<feBlend mode="soft-light" in2="effect1_innerShadow_510_12018" result="effect2_innerShadow_510_12018"/>
</filter>
<linearGradient id="paint0_linear_510_12018" x1="17" y1="34" x2="197.768" y2="215.142" gradientUnits="userSpaceOnUse">
<stop stop-color="#05815D"/>
<stop offset="1" stop-color="#0C575F"/>
</linearGradient>
<linearGradient id="paint1_linear_510_12018" x1="17" y1="62" x2="241" y2="210" gradientUnits="userSpaceOnUse">
<stop stop-color="#CAFE00"/>
<stop offset="1" stop-color="#26806F"/>
</linearGradient>
</defs>
</svg>
