<svg width="256" height="256" viewBox="0 0 256 256" fill="none" xmlns="http://www.w3.org/2000/svg">
<rect x="105.6" y="46.7998" width="3.2" height="3.2" fill="#F9C63C"/>
<rect x="233.6" y="203.6" width="3.2" height="3.2" fill="#1C8018"/>
<rect x="236.8" y="200.4" width="3.2" height="3.2" fill="#1C8018"/>
<rect x="22.3999" y="206.8" width="211.2" height="3.2" fill="#1C8018"/>
<rect x="19.2" y="203.6" width="3.2" height="3.2" fill="#1C8018"/>
<rect x="16" y="200.4" width="3.2" height="3.2" fill="#1C8018"/>
<rect x="22.3999" y="34" width="73.6" height="3.2" fill="#2E7D6D"/>
<rect x="96" y="37.2002" width="3.2" height="3.2" fill="#2E7D6D"/>
<rect x="99.2" y="40.3999" width="3.2" height="3.2" fill="#2E7D6D"/>
<rect x="102.4" y="43.6001" width="3.2" height="3.2" fill="#2E7D6D"/>
<rect x="105.6" y="46.7998" width="3.2" height="3.2" fill="#2E7D6D"/>
<rect x="108.8" y="50" width="3.2" height="3.2" fill="#2E7D6D"/>
<path d="M236.8 60.7998H233.6V65.9998H236.8L239 65.9998L239.015 62.9998H236.8V60.7998Z" fill="#2E7D6D"/>
<rect x="115.2" y="58.6001" width="118.4" height="3.2" fill="#2E7D6D"/>
<rect x="112" y="53.2002" width="3.2" height="6.4" fill="#2E7D6D"/>
<rect x="236.8" y="66" width="3.2" height="6.4" fill="#2E7D6D"/>
<rect x="16" y="40.3999" width="3.2" height="44.8" fill="#2E7D6D"/>
<path d="M19.2 40.4002H22.4V37.2002H96V40.4002H99.2V43.6002H102.4V46.8002H105.6V50.0002H108.8V53.2002H112V59.6002H115.2V61.8002H233.6V66.0002H236.8V69.2002H233.6V66.0002H115.2V69.2002H112V72.4002H108.8V75.6002H102.4V78.8002H22.4V82.0002H19.2V40.4002Z" fill="#2E7D6D"/>
<path d="M22.4 203.6V206.8H70.4V199.6H73.6V193.2H76.8V186.8H80V180.4H83.2V174H86.4V167.6H89.6V161.2H92.7999V151.6H96V145.2H99.2V138.8H102.4V129.2H105.6V122.8H108.8V116.4H112V110H115.2V106.8H118.4V100.4H121.6V94.0002H124.8V90.8002H128V84.4002H131.2V81.2002H134.4V78.0002H137.6V74.8002H140.8V71.6002H144V68.4002H147.2V65.2002H115.2V68.4002H112V71.6002H108.8V74.8002H102.4V78.0002H22.4V81.2002H19.2V203.6H22.4Z" fill="url(#paint0_linear_682_16567)"/>
<path d="M220.8 68.4002V65.2002H147.2V68.4002H144V71.6002H140.8V74.8002H137.6V78.0002H134.4V81.2002H131.2V84.4002H128V90.8002H124.8V94.0002H121.6V100.4H118.4V106.8H115.2V110H112V116.4H108.8V122.8H105.6V129.2H102.4V138.8H99.1999V145.2H95.9999V151.6H92.7999V161.2H89.5999V167.6H86.3999V174H83.1999V180.4H79.9999V186.8H76.7999V193.2H73.5999V199.6H70.3999V206.8H144V199.6H147.2V193.2H150.4V186.8H153.6V180.4H156.8V174H160V167.6H163.2V161.2H166.4V151.6H169.6V145.2H172.8V138.8H176V129.2H179.2V122.8H182.4V116.4H185.6V110H188.8V106.8H192V100.4H195.2V94.0002H198.4V90.8002H201.6V84.4002H204.8V81.2002H208V78.0002H211.2V74.8002H214.4V71.6002H217.6V68.4002H220.8Z" fill="url(#paint1_linear_682_16567)"/>
<path d="M220.8 68.4002V65.2002H233.6V68.4002H236.8V203.6H233.6V206.8H144V199.6H147.2V193.2H150.4V186.8H153.6V180.4H156.8V174H160V167.6H163.2V161.2H166.4V151.6H169.6V145.2H172.8V138.8H176V129.2H179.2V122.8H182.4V116.4H185.6V110H188.8V106.8H192V100.4H195.2V94.0002H198.4V90.8002H201.6V84.4002H204.8V81.2002H208V78.0002H211.2V74.8002H214.4V71.6002H217.6V68.4002H220.8Z" fill="url(#paint2_linear_682_16567)"/>
<path d="M236.8 71.6001H240V200.4H236.8V71.6001Z" fill="#328968"/>
<path d="M16 84.3999H19.2V200.4H16V84.3999Z" fill="#BAF10B"/>
<rect x="19.2" y="78" width="3.2" height="3.2" fill="#ADDD5D"/>
<rect x="112" y="65.2002" width="3.2" height="3.2" fill="#ADDD5D"/>
<rect x="108.8" y="68.3999" width="3.2" height="3.2" fill="#ADDD5D"/>
<rect x="102.4" y="71.6001" width="6.4" height="3.2" fill="#ADDD5D"/>
<rect x="22.3999" y="74.7998" width="80" height="3.2" fill="#ADDD5D"/>
<rect x="115.2" y="62" width="118.4" height="3.2" fill="#ADDD5D"/>
<rect x="233.6" y="65.2002" width="3.2" height="3.2" fill="#ADDD5D"/>
<rect x="236.8" y="68.3999" width="3.2" height="3.2" fill="#ADDD5D"/>
<rect x="16" y="81.2002" width="3.2" height="3.2" fill="#ADDD5D"/>
<rect x="19.2" y="37.2002" width="3.2" height="3.2" fill="#2E7D6D"/>
<g filter="url(#filter0_d_682_16567)">
<path fill-rule="evenodd" clip-rule="evenodd" d="M118 92C118 93.333 117.333 94 116 94C114.333 94 114 94.667 114 98C114 101.333 114.333 102 116 102C117.333 102 118 102.667 118 104C118 105.333 118.667 106 120 106C121.333 106 122 106.667 122 108C122 109.333 122.667 110 124 110C125.333 110 126 110.667 126 112C126 113.333 126.667 114 128 114C129.333 114 130 113.333 130 112C130 110.667 130.667 110 132 110C133.333 110 134 109.333 134 108C134 106.667 134.667 106 136 106C137.333 106 138 105.333 138 104C138 102.667 138.667 102 140 102C141.667 102 142 101.333 142 98C142 94.667 141.667 94 140 94C138.667 94 138 93.333 138 92C138 90.333 137.333 90 134 90C130.667 90 130 90.333 130 92C130 93.333 129.333 94 128 94C126.667 94 126 93.333 126 92C126 90.333 125.333 90 122 90C118.667 90 118 90.333 118 92ZM114 124C114 125.667 113.333 126 110 126C106.667 126 106 126.333 106 128C106 129.333 105.333 130 104 130C102.333 130 102 130.667 102 134C102 137.333 101.667 138 100 138C98.222 138 98 138.667 98 144C98 149.333 98.222 150 100 150C101.778 150 102 149.333 102 144C102 138.667 102.222 138 104 138C105.667 138 106 137.333 106 134V130H110C113.333 130 114 129.667 114 128C114 126.095 114.667 126 128 126C141.333 126 142 126.095 142 128C142 129.667 142.667 130 146 130H150V134C150 137.333 150.333 138 152 138C153.778 138 154 138.667 154 144C154 149.333 154.222 150 156 150C157.778 150 158 149.333 158 144C158 138.667 157.778 138 156 138C154.333 138 154 137.333 154 134C154 130.667 153.667 130 152 130C150.667 130 150 129.333 150 128C150 126.333 149.333 126 146 126C142.667 126 142 125.667 142 124C142 122.095 141.333 122 128 122C114.667 122 114 122.095 114 124ZM82 152C82 153.333 81.333 154 80 154C78.111 154 78 154.667 78 166C78 177.333 78.111 178 80 178C81.333 178 82 178.667 82 180C82 181.667 82.667 182 86 182H90V178V174H100H110V178V182H114C117.333 182 118 181.667 118 180C118 178.667 118.667 178 120 178C121.889 178 122 177.333 122 166C122 154.667 121.889 154 120 154C118.667 154 118 153.333 118 152C118 150.333 117.333 150 114 150C110.667 150 110 150.333 110 152C110 153.867 109.333 154 100 154C90.667 154 90 153.867 90 152C90 150.333 89.333 150 86 150C82.667 150 82 150.333 82 152ZM138 152C138 153.333 137.333 154 136 154C134.111 154 134 154.667 134 166C134 177.333 134.111 178 136 178C137.333 178 138 178.667 138 180C138 181.667 138.667 182 142 182H146V178V174H156H166V178V182H170C173.333 182 174 181.667 174 180C174 178.667 174.667 178 176 178C177.889 178 178 177.333 178 166C178 154.667 177.889 154 176 154C174.667 154 174 153.333 174 152C174 150.333 173.333 150 170 150C166.667 150 166 150.333 166 152C166 153.867 165.333 154 156 154C146.667 154 146 153.867 146 152C146 150.333 145.333 150 142 150C138.667 150 138 150.333 138 152ZM90 160C90 161.333 90.667 162 92 162C93.333 162 94 162.667 94 164C94 165.333 93.333 166 92 166C90.667 166 90 166.667 90 168C90 169.333 89.333 170 88 170C86.667 170 86 169.333 86 168C86 166.667 85.333 166 84 166C82.667 166 82 165.333 82 164C82 162.667 82.667 162 84 162C85.333 162 86 161.333 86 160C86 158.667 86.667 158 88 158C89.333 158 90 158.667 90 160ZM114 160C114 161.333 114.667 162 116 162C117.333 162 118 162.667 118 164C118 165.333 117.333 166 116 166C114.667 166 114 166.667 114 168C114 169.333 113.333 170 112 170C110.667 170 110 169.333 110 168C110 166.667 109.333 166 108 166C106.667 166 106 165.333 106 164C106 162.667 106.667 162 108 162C109.333 162 110 161.333 110 160C110 158.667 110.667 158 112 158C113.333 158 114 158.667 114 160ZM146 160C146 161.333 146.667 162 148 162C149.333 162 150 162.667 150 164C150 165.333 149.333 166 148 166C146.667 166 146 166.667 146 168C146 169.333 145.333 170 144 170C142.667 170 142 169.333 142 168C142 166.667 141.333 166 140 166C138.667 166 138 165.333 138 164C138 162.667 138.667 162 140 162C141.333 162 142 161.333 142 160C142 158.667 142.667 158 144 158C145.333 158 146 158.667 146 160ZM170 160C170 161.333 170.667 162 172 162C173.333 162 174 162.667 174 164C174 165.333 173.333 166 172 166C170.667 166 170 166.667 170 168C170 169.333 169.333 170 168 170C166.667 170 166 169.333 166 168C166 166.667 165.333 166 164 166C162.667 166 162 165.333 162 164C162 162.667 162.667 162 164 162C165.333 162 166 161.333 166 160C166 158.667 166.667 158 168 158C169.333 158 170 158.667 170 160ZM110 164C110 165.333 110.667 166 112 166C113.333 166 114 165.333 114 164C114 162.667 113.333 162 112 162C110.667 162 110 162.667 110 164ZM166 164C166 165.333 166.667 166 168 166C169.333 166 170 165.333 170 164C170 162.667 169.333 162 168 162C166.667 162 166 162.667 166 164Z" fill="white"/>
</g>
<defs>
<filter id="filter0_d_682_16567" x="74" y="90" width="108" height="100" filterUnits="userSpaceOnUse" color-interpolation-filters="sRGB">
<feFlood flood-opacity="0" result="BackgroundImageFix"/>
<feColorMatrix in="SourceAlpha" type="matrix" values="0 0 0 0 0 0 0 0 0 0 0 0 0 0 0 0 0 0 127 0" result="hardAlpha"/>
<feOffset dy="4"/>
<feGaussianBlur stdDeviation="2"/>
<feComposite in2="hardAlpha" operator="out"/>
<feColorMatrix type="matrix" values="0 0 0 0 0 0 0 0 0 0 0 0 0 0 0 0 0 0 0.25 0"/>
<feBlend mode="normal" in2="BackgroundImageFix" result="effect1_dropShadow_682_16567"/>
<feBlend mode="normal" in="SourceGraphic" in2="effect1_dropShadow_682_16567" result="shape"/>
</filter>
<linearGradient id="paint0_linear_682_16567" x1="22.5" y1="79.5" x2="118.5" y2="117" gradientUnits="userSpaceOnUse">
<stop stop-color="#C0F607"/>
<stop offset="1" stop-color="#8DCF29"/>
</linearGradient>
<linearGradient id="paint1_linear_682_16567" x1="123" y1="100" x2="180.5" y2="127" gradientUnits="userSpaceOnUse">
<stop stop-color="#82C631"/>
<stop offset="1" stop-color="#65B044"/>
</linearGradient>
<linearGradient id="paint2_linear_682_16567" x1="190" y1="144.5" x2="237" y2="172.5" gradientUnits="userSpaceOnUse">
<stop stop-color="#50A053"/>
<stop offset="1" stop-color="#2E866A"/>
</linearGradient>
</defs>
</svg>
