<svg width="256" height="256" viewBox="0 0 256 256" fill="none" xmlns="http://www.w3.org/2000/svg">
<rect x="105.6" y="46.7998" width="3.2" height="3.2" fill="#F9C63C"/>
<rect x="233.6" y="203.6" width="3.2" height="3.2" fill="#1C8018"/>
<rect x="236.8" y="200.4" width="3.2" height="3.2" fill="#1C8018"/>
<rect x="22.4" y="206.8" width="211.2" height="3.2" fill="#1C8018"/>
<rect x="19.2" y="203.6" width="3.2" height="3.2" fill="#1C8018"/>
<rect x="16" y="200.4" width="3.2" height="3.2" fill="#1C8018"/>
<rect x="22.4" y="34" width="73.6" height="3.2" fill="#2E7D6D"/>
<rect x="96" y="37.2002" width="3.2" height="3.2" fill="#2E7D6D"/>
<rect x="99.2" y="40.3999" width="3.2" height="3.2" fill="#2E7D6D"/>
<rect x="102.4" y="43.6001" width="3.2" height="3.2" fill="#2E7D6D"/>
<rect x="105.6" y="46.7998" width="3.2" height="3.2" fill="#2E7D6D"/>
<rect x="108.8" y="50" width="3.2" height="3.2" fill="#2E7D6D"/>
<path d="M236.8 60.7998H233.6V65.9998H236.8L239 65.9998L239.015 62.9998H236.8V60.7998Z" fill="#2E7D6D"/>
<rect x="115.2" y="58.6001" width="118.4" height="3.2" fill="#2E7D6D"/>
<rect x="112" y="53.2002" width="3.2" height="6.4" fill="#2E7D6D"/>
<rect x="236.8" y="66" width="3.2" height="6.4" fill="#2E7D6D"/>
<rect x="16" y="40.3999" width="3.2" height="44.8" fill="#2E7D6D"/>
<path d="M19.2 40.4002H22.4V37.2002H96V40.4002H99.2V43.6002H102.4V46.8002H105.6V50.0002H108.8V53.2002H112V59.6002H115.2V61.8002H233.6V66.0002H236.8V69.2002H233.6V66.0002H115.2V69.2002H112V72.4002H108.8V75.6002H102.4V78.8002H22.4V82.0002H19.2V40.4002Z" fill="#2E7D6D"/>
<path d="M22.4 203.6V206.8H70.4V199.6H73.6V193.2H76.8V186.8H80V180.4H83.2V174H86.4V167.6H89.6V161.2H92.7999V151.6H96V145.2H99.2V138.8H102.4V129.2H105.6V122.8H108.8V116.4H112V110H115.2V106.8H118.4V100.4H121.6V94.0002H124.8V90.8002H128V84.4002H131.2V81.2002H134.4V78.0002H137.6V74.8002H140.8V71.6002H144V68.4002H147.2V65.2002H115.2V68.4002H112V71.6002H108.8V74.8002H102.4V78.0002H22.4V81.2002H19.2V203.6H22.4Z" fill="url(#paint0_linear_682_16263)"/>
<path d="M220.8 68.4002V65.2002H147.2V68.4002H144V71.6002H140.8V74.8002H137.6V78.0002H134.4V81.2002H131.2V84.4002H128V90.8002H124.8V94.0002H121.6V100.4H118.4V106.8H115.2V110H112V116.4H108.8V122.8H105.6V129.2H102.4V138.8H99.2V145.2H96V151.6H92.8V161.2H89.6V167.6H86.4V174H83.2V180.4H80V186.8H76.8V193.2H73.6V199.6H70.4V206.8H144V199.6H147.2V193.2H150.4V186.8H153.6V180.4H156.8V174H160V167.6H163.2V161.2H166.4V151.6H169.6V145.2H172.8V138.8H176V129.2H179.2V122.8H182.4V116.4H185.6V110H188.8V106.8H192V100.4H195.2V94.0002H198.4V90.8002H201.6V84.4002H204.8V81.2002H208V78.0002H211.2V74.8002H214.4V71.6002H217.6V68.4002H220.8Z" fill="url(#paint1_linear_682_16263)"/>
<path d="M220.8 68.4002V65.2002H233.6V68.4002H236.8V203.6H233.6V206.8H144V199.6H147.2V193.2H150.4V186.8H153.6V180.4H156.8V174H160V167.6H163.2V161.2H166.4V151.6H169.6V145.2H172.8V138.8H176V129.2H179.2V122.8H182.4V116.4H185.6V110H188.8V106.8H192V100.4H195.2V94.0002H198.4V90.8002H201.6V84.4002H204.8V81.2002H208V78.0002H211.2V74.8002H214.4V71.6002H217.6V68.4002H220.8Z" fill="url(#paint2_linear_682_16263)"/>
<path d="M236.8 71.6001H240V200.4H236.8V71.6001Z" fill="#328968"/>
<path d="M16 84.3999H19.2V200.4H16V84.3999Z" fill="#BAF10B"/>
<rect x="19.2" y="78" width="3.2" height="3.2" fill="#ADDD5D"/>
<rect x="112" y="65.2002" width="3.2" height="3.2" fill="#ADDD5D"/>
<rect x="108.8" y="68.3999" width="3.2" height="3.2" fill="#ADDD5D"/>
<rect x="102.4" y="71.6001" width="6.4" height="3.2" fill="#ADDD5D"/>
<rect x="22.4" y="74.7998" width="80" height="3.2" fill="#ADDD5D"/>
<rect x="115.2" y="62" width="118.4" height="3.2" fill="#ADDD5D"/>
<rect x="233.6" y="65.2002" width="3.2" height="3.2" fill="#ADDD5D"/>
<rect x="236.8" y="68.3999" width="3.2" height="3.2" fill="#ADDD5D"/>
<rect x="16" y="81.2002" width="3.2" height="3.2" fill="#ADDD5D"/>
<rect x="19.2" y="37.2002" width="3.2" height="3.2" fill="#2E7D6D"/>
<g filter="url(#filter0_d_682_16263)">
<path fill-rule="evenodd" clip-rule="evenodd" d="M154 100C154 103.333 153.667 104 152 104C150.048 104 150 104.667 150 132V160H158H166V132C166 104.667 165.952 104 164 104C162.333 104 162 103.333 162 100V96H158H154V100ZM78 128C78 147.333 78.067 148 80 148C81.667 148 82 148.667 82 152C82 155.333 82.333 156 84 156C85.333 156 86 156.667 86 158C86 159.333 86.667 160 88 160C89.333 160 90 160.667 90 162C90 163.333 90.667 164 92 164C93.333 164 94 164.667 94 166C94 167.333 94.667 168 96 168C97.333 168 98 168.667 98 170C98 171.333 98.667 172 100 172C101.333 172 102 172.667 102 174C102 175.778 102.667 176 108 176C113.333 176 114 175.778 114 174C114 172.667 114.667 172 116 172C117.333 172 118 171.333 118 170C118 168.667 118.667 168 120 168C121.333 168 122 167.333 122 166C122 164.667 122.667 164 124 164C125.333 164 126 163.333 126 162C126 160.667 126.667 160 128 160C129.333 160 130 159.333 130 158C130 156.667 130.667 156 132 156C133.667 156 134 155.333 134 152C134 148.667 134.333 148 136 148C137.933 148 138 147.333 138 128V108H108H78V128ZM110 114C110 115.333 109.333 116 108 116C106.667 116 106 115.333 106 114C106 112.667 106.667 112 108 112C109.333 112 110 112.667 110 114ZM162 114C162 115.333 161.333 116 160 116C158.667 116 158 115.333 158 114C158 112.667 158.667 112 160 112C161.333 112 162 112.667 162 114ZM90 118C90 119.333 90.667 120 92 120C93.333 120 94 119.333 94 118C94 116.333 94.667 116 98 116H102V120C102 123.333 101.667 124 100 124C98.667 124 98 124.667 98 126C98 127.333 97.333 128 96 128C94.667 128 94 128.667 94 130C94 131.333 93.333 132 92 132C90.667 132 90 131.333 90 130C90 128.667 89.333 128 88 128C86.667 128 86 127.333 86 126C86 124.667 85.333 124 84 124C82.333 124 82 123.333 82 120V116H86C89.333 116 90 116.333 90 118ZM110 128C110 135.333 109.833 136 108 136C106.167 136 106 135.333 106 128C106 120.667 106.167 120 108 120C109.833 120 110 120.667 110 128ZM162 138V156H158H154V152C154 148.667 154.333 148 156 148C157.333 148 158 147.333 158 146C158 144.667 157.333 144 156 144C154.667 144 154 143.333 154 142C154 140.667 154.667 140 156 140C157.867 140 158 139.333 158 130C158 120.667 158.133 120 160 120C161.926 120 162 120.667 162 138ZM86 142C86 143.333 85.333 144 84 144C82.667 144 82 143.333 82 142C82 140.667 82.667 140 84 140C85.333 140 86 140.667 86 142ZM102 142C102 143.778 101.333 144 96 144C90.667 144 90 143.778 90 142C90 140.222 90.667 140 96 140C101.333 140 102 140.222 102 142ZM134 146C134 147.333 133.333 148 132 148C130.333 148 130 148.667 130 152C130 155.333 129.667 156 128 156C126.667 156 126 156.667 126 158C126 159.333 125.333 160 124 160C122.667 160 122 160.667 122 162C122 163.333 121.333 164 120 164C118.667 164 118 164.667 118 166C118 167.333 117.333 168 116 168C114.667 168 114 168.667 114 170C114 171.333 113.333 172 112 172C110.095 172 110 171.333 110 158V144H122C133.333 144 134 144.111 134 146ZM118 158C118 159.333 117.333 160 116 160C114.667 160 114 160.667 114 162C114 163.333 114.667 164 116 164C117.333 164 118 163.333 118 162C118 160.667 118.667 160 120 160C121.333 160 122 159.333 122 158C122 156.667 121.333 156 120 156C118.667 156 118 156.667 118 158ZM142 166C142 167.333 141.333 168 140 168C138.333 168 138 168.667 138 172V176H142C145.333 176 146 175.667 146 174C146 172.333 146.667 172 150 172H154V180V188H158H162V180V172H166C169.333 172 170 172.333 170 174C170 175.667 170.667 176 174 176H178V172C178 168.667 177.667 168 176 168C174.667 168 174 167.333 174 166C174 164.083 173.333 164 158 164C142.667 164 142 164.083 142 166Z" fill="white"/>
</g>
<defs>
<filter id="filter0_d_682_16263" x="74" y="96" width="108" height="100" filterUnits="userSpaceOnUse" color-interpolation-filters="sRGB">
<feFlood flood-opacity="0" result="BackgroundImageFix"/>
<feColorMatrix in="SourceAlpha" type="matrix" values="0 0 0 0 0 0 0 0 0 0 0 0 0 0 0 0 0 0 127 0" result="hardAlpha"/>
<feOffset dy="4"/>
<feGaussianBlur stdDeviation="2"/>
<feComposite in2="hardAlpha" operator="out"/>
<feColorMatrix type="matrix" values="0 0 0 0 0 0 0 0 0 0 0 0 0 0 0 0 0 0 0.25 0"/>
<feBlend mode="normal" in2="BackgroundImageFix" result="effect1_dropShadow_682_16263"/>
<feBlend mode="normal" in="SourceGraphic" in2="effect1_dropShadow_682_16263" result="shape"/>
</filter>
<linearGradient id="paint0_linear_682_16263" x1="22.5" y1="79.5" x2="118.5" y2="117" gradientUnits="userSpaceOnUse">
<stop stop-color="#C0F607"/>
<stop offset="1" stop-color="#8DCF29"/>
</linearGradient>
<linearGradient id="paint1_linear_682_16263" x1="123" y1="100" x2="180.5" y2="127" gradientUnits="userSpaceOnUse">
<stop stop-color="#82C631"/>
<stop offset="1" stop-color="#65B044"/>
</linearGradient>
<linearGradient id="paint2_linear_682_16263" x1="190" y1="144.5" x2="237" y2="172.5" gradientUnits="userSpaceOnUse">
<stop stop-color="#50A053"/>
<stop offset="1" stop-color="#2E866A"/>
</linearGradient>
</defs>
</svg>
