<svg width="256" height="256" viewBox="0 0 256 256" fill="none" xmlns="http://www.w3.org/2000/svg">
<rect x="105.6" y="46.7998" width="3.2" height="3.2" fill="#F9C63C"/>
<rect x="233.6" y="203.6" width="3.2" height="3.2" fill="#1C8018"/>
<rect x="236.8" y="200.4" width="3.2" height="3.2" fill="#1C8018"/>
<rect x="22.4" y="206.8" width="211.2" height="3.2" fill="#1C8018"/>
<rect x="19.2" y="203.6" width="3.2" height="3.2" fill="#1C8018"/>
<rect x="16" y="200.4" width="3.2" height="3.2" fill="#1C8018"/>
<rect x="22.4" y="34" width="73.6" height="3.2" fill="#2E7D6D"/>
<rect x="96" y="37.2002" width="3.2" height="3.2" fill="#2E7D6D"/>
<rect x="99.2" y="40.3999" width="3.2" height="3.2" fill="#2E7D6D"/>
<rect x="102.4" y="43.6001" width="3.2" height="3.2" fill="#2E7D6D"/>
<rect x="105.6" y="46.7998" width="3.2" height="3.2" fill="#2E7D6D"/>
<rect x="108.8" y="50" width="3.2" height="3.2" fill="#2E7D6D"/>
<path d="M236.8 60.7998H233.6V65.9998H236.8L239 65.9998L239.015 62.9998H236.8V60.7998Z" fill="#2E7D6D"/>
<rect x="115.2" y="58.6001" width="118.4" height="3.2" fill="#2E7D6D"/>
<rect x="112" y="53.2002" width="3.2" height="6.4" fill="#2E7D6D"/>
<rect x="236.8" y="66" width="3.2" height="6.4" fill="#2E7D6D"/>
<rect x="16" y="40.3999" width="3.2" height="44.8" fill="#2E7D6D"/>
<path d="M19.2 40.4002H22.4V37.2002H96V40.4002H99.2V43.6002H102.4V46.8002H105.6V50.0002H108.8V53.2002H112V59.6002H115.2V61.8002H233.6V66.0002H236.8V69.2002H233.6V66.0002H115.2V69.2002H112V72.4002H108.8V75.6002H102.4V78.8002H22.4V82.0002H19.2V40.4002Z" fill="#2E7D6D"/>
<path d="M22.4 203.6V206.8H70.4V199.6H73.6V193.2H76.8V186.8H80V180.4H83.2V174H86.4V167.6H89.6V161.2H92.7999V151.6H96V145.2H99.2V138.8H102.4V129.2H105.6V122.8H108.8V116.4H112V110H115.2V106.8H118.4V100.4H121.6V94.0002H124.8V90.8002H128V84.4002H131.2V81.2002H134.4V78.0002H137.6V74.8002H140.8V71.6002H144V68.4002H147.2V65.2002H115.2V68.4002H112V71.6002H108.8V74.8002H102.4V78.0002H22.4V81.2002H19.2V203.6H22.4Z" fill="url(#paint0_linear_682_16681)"/>
<path d="M220.8 68.4002V65.2002H147.2V68.4002H144V71.6002H140.8V74.8002H137.6V78.0002H134.4V81.2002H131.2V84.4002H128V90.8002H124.8V94.0002H121.6V100.4H118.4V106.8H115.2V110H112V116.4H108.8V122.8H105.6V129.2H102.4V138.8H99.2V145.2H96V151.6H92.8V161.2H89.6V167.6H86.4V174H83.2V180.4H80V186.8H76.8V193.2H73.6V199.6H70.4V206.8H144V199.6H147.2V193.2H150.4V186.8H153.6V180.4H156.8V174H160V167.6H163.2V161.2H166.4V151.6H169.6V145.2H172.8V138.8H176V129.2H179.2V122.8H182.4V116.4H185.6V110H188.8V106.8H192V100.4H195.2V94.0002H198.4V90.8002H201.6V84.4002H204.8V81.2002H208V78.0002H211.2V74.8002H214.4V71.6002H217.6V68.4002H220.8Z" fill="url(#paint1_linear_682_16681)"/>
<path d="M220.8 68.4002V65.2002H233.6V68.4002H236.8V203.6H233.6V206.8H144V199.6H147.2V193.2H150.4V186.8H153.6V180.4H156.8V174H160V167.6H163.2V161.2H166.4V151.6H169.6V145.2H172.8V138.8H176V129.2H179.2V122.8H182.4V116.4H185.6V110H188.8V106.8H192V100.4H195.2V94.0002H198.4V90.8002H201.6V84.4002H204.8V81.2002H208V78.0002H211.2V74.8002H214.4V71.6002H217.6V68.4002H220.8Z" fill="url(#paint2_linear_682_16681)"/>
<path d="M236.8 71.6001H240V200.4H236.8V71.6001Z" fill="#328968"/>
<path d="M16 84.3999H19.2V200.4H16V84.3999Z" fill="#BAF10B"/>
<rect x="19.2" y="78" width="3.2" height="3.2" fill="#ADDD5D"/>
<rect x="112" y="65.2002" width="3.2" height="3.2" fill="#ADDD5D"/>
<rect x="108.8" y="68.3999" width="3.2" height="3.2" fill="#ADDD5D"/>
<rect x="102.4" y="71.6001" width="6.4" height="3.2" fill="#ADDD5D"/>
<rect x="22.4" y="74.7998" width="80" height="3.2" fill="#ADDD5D"/>
<rect x="115.2" y="62" width="118.4" height="3.2" fill="#ADDD5D"/>
<rect x="233.6" y="65.2002" width="3.2" height="3.2" fill="#ADDD5D"/>
<rect x="236.8" y="68.3999" width="3.2" height="3.2" fill="#ADDD5D"/>
<rect x="16" y="81.2002" width="3.2" height="3.2" fill="#ADDD5D"/>
<rect x="19.2" y="37.2002" width="3.2" height="3.2" fill="#2E7D6D"/>
<g filter="url(#filter0_d_682_16681)">
<path fill-rule="evenodd" clip-rule="evenodd" d="M86 94V98H90H94V104C94 109.333 93.778 110 92 110C90.333 110 90 110.667 90 114C90 117.333 89.667 118 88 118C86.333 118 86 118.667 86 122C86 125.333 85.667 126 84 126C82.333 126 82 126.667 82 130C82 133.333 81.667 134 80 134C78.222 134 78 134.667 78 140C78 145.333 78.222 146 80 146C81.333 146 82 146.667 82 148C82 149.667 82.667 150 86 150C89.333 150 90 150.333 90 152C90 153.667 90.667 154 94 154C97.333 154 98 154.333 98 156C98 157.333 97.333 158 96 158C94.667 158 94 158.667 94 160C94 161.333 93.333 162 92 162C90.667 162 90 161.333 90 160C90 158.667 89.333 158 88 158C86.667 158 86 157.333 86 156C86 154.667 85.333 154 84 154C82.333 154 82 154.667 82 158V162H86C89.333 162 90 162.333 90 164C90 165.778 90.667 166 96 166C101.333 166 102 166.222 102 168C102 169.833 102.667 170 110 170H118V160C118 150.667 117.867 150 116 150C114.333 150 114 149.333 114 146C114 142.667 114.333 142 116 142C117.667 142 118 141.333 118 138C118 134.667 118.333 134 120 134C121.333 134 122 134.667 122 136C122 137.333 122.667 138 124 138C125.333 138 126 137.333 126 136C126 134.667 126.667 134 128 134C129.333 134 130 134.667 130 136C130 137.333 130.667 138 132 138C133.333 138 134 138.667 134 140C134 141.333 134.667 142 136 142C137.333 142 138 142.667 138 144C138 145.333 138.667 146 140 146C141.333 146 142 146.667 142 148C142 149.333 141.333 150 140 150C138.133 150 138 150.667 138 160V170H146H154V166C154 162.667 154.333 162 156 162C157.333 162 158 162.667 158 164C158 165.333 158.667 166 160 166C161.333 166 162 166.667 162 168C162 169.333 162.667 170 164 170C165.333 170 166 170.667 166 172C166 173.333 166.667 174 168 174C169.333 174 170 174.667 170 176C170 177.333 170.667 178 172 178C173.333 178 174 178.667 174 180C174 181.333 174.667 182 176 182C177.333 182 178 181.333 178 180C178 178.667 177.333 178 176 178C174.667 178 174 177.333 174 176C174 174.667 173.333 174 172 174C170.667 174 170 173.333 170 172C170 170.667 169.333 170 168 170C166.667 170 166 169.333 166 168C166 166.667 165.333 166 164 166C162.667 166 162 165.333 162 164C162 162.667 161.333 162 160 162C158.667 162 158 161.333 158 160C158 158.667 157.333 158 156 158C154.667 158 154 157.333 154 156C154 154.667 153.333 154 152 154C150.667 154 150 153.333 150 152C150 150.667 150.667 150 152 150C153.333 150 154 149.333 154 148C154 146.667 153.333 146 152 146C150.667 146 150 145.333 150 144C150 142.667 150.667 142 152 142C153.333 142 154 141.333 154 140C154 138.667 154.667 138 156 138C157.333 138 158 137.333 158 136C158 134.667 158.667 134 160 134C161.333 134 162 134.667 162 136C162 137.333 162.667 138 164 138C165.667 138 166 138.667 166 142C166 145.333 165.667 146 164 146C162.667 146 162 146.667 162 148C162 149.333 161.333 150 160 150C158.667 150 158 150.667 158 152C158 153.667 158.667 154 162 154C165.333 154 166 153.667 166 152C166 150.333 166.667 150 170 150C173.333 150 174 149.667 174 148C174 146.667 174.667 146 176 146C177.778 146 178 145.333 178 140C178 134.667 177.778 134 176 134C174.333 134 174 133.333 174 130C174 126.667 173.667 126 172 126C170.333 126 170 125.333 170 122C170 118.667 169.667 118 168 118C166.333 118 166 117.333 166 114C166 110.667 165.667 110 164 110C162.222 110 162 109.333 162 104V98H166H170V94V90H166H162V94C162 97.333 161.667 98 160 98C158.667 98 158 98.667 158 100C158 101.333 157.333 102 156 102C154.667 102 154 102.667 154 104C154 105.333 153.333 106 152 106C150.667 106 150 106.667 150 108C150 109.333 149.333 110 148 110C146.667 110 146 110.667 146 112C146 113.333 145.333 114 144 114C142.667 114 142 114.667 142 116C142 117.333 141.333 118 140 118C138.667 118 138 118.667 138 120C138 121.333 137.333 122 136 122C134.667 122 134 122.667 134 124C134 125.333 133.333 126 132 126C130.667 126 130 126.667 130 128C130 129.333 129.333 130 128 130C126.667 130 126 129.333 126 128C126 126.667 125.333 126 124 126C122.667 126 122 125.333 122 124C122 122.667 121.333 122 120 122C118.667 122 118 121.333 118 120C118 118.667 117.333 118 116 118C114.667 118 114 117.333 114 116C114 114.667 113.333 114 112 114C110.667 114 110 113.333 110 112C110 110.667 109.333 110 108 110C106.667 110 106 109.333 106 108C106 106.667 105.333 106 104 106C102.667 106 102 105.333 102 104C102 102.667 101.333 102 100 102C98.667 102 98 101.333 98 100C98 98.667 97.333 98 96 98C94.333 98 94 97.333 94 94V90H90H86V94ZM106 112C106 113.333 106.667 114 108 114C109.333 114 110 114.667 110 116C110 117.333 110.667 118 112 118C113.333 118 114 118.667 114 120C114 121.333 113.333 122 112 122C110.333 122 110 122.667 110 126V130H114C117.333 130 118 130.333 118 132C118 133.333 117.333 134 116 134C114.333 134 114 134.667 114 138V142H110C106.667 142 106 142.333 106 144C106 145.333 105.333 146 104 146C102.333 146 102 146.667 102 150C102 153.333 101.667 154 100 154C98.667 154 98 153.333 98 152C98 150.667 97.333 150 96 150C94.667 150 94 149.333 94 148C94 146.667 93.333 146 92 146C90.333 146 90 145.333 90 142C90 138.667 90.333 138 92 138C93.333 138 94 137.333 94 136C94 134.333 93.333 134 90 134H86V130C86 126.667 86.333 126 88 126C89.667 126 90 125.333 90 122C90 118.667 90.333 118 92 118C93.333 118 94 118.667 94 120C94 121.333 94.667 122 96 122C97.667 122 98 121.333 98 118C98 114.667 98.333 114 100 114C101.333 114 102 113.333 102 112C102 110.667 102.667 110 104 110C105.333 110 106 110.667 106 112ZM154 112C154 113.333 154.667 114 156 114C157.667 114 158 114.667 158 118C158 121.333 158.333 122 160 122C161.333 122 162 121.333 162 120C162 118.667 162.667 118 164 118C165.667 118 166 118.667 166 122C166 125.333 166.333 126 168 126C169.667 126 170 126.667 170 130V134H166H162V130C162 126.667 161.667 126 160 126C158.667 126 158 125.333 158 124C158 122.667 157.333 122 156 122C154.667 122 154 122.667 154 124C154 125.333 153.333 126 152 126C150.667 126 150 126.667 150 128C150 129.333 149.333 130 148 130C146.667 130 146 130.667 146 132C146 133.333 146.667 134 148 134C149.667 134 150 134.667 150 138C150 141.333 149.667 142 148 142C146.667 142 146 142.667 146 144C146 145.333 146.667 146 148 146C149.333 146 150 146.667 150 148C150 149.333 149.333 150 148 150C146.667 150 146 150.667 146 152C146 153.333 146.667 154 148 154C149.333 154 150 154.667 150 156C150 157.333 150.667 158 152 158C153.333 158 154 158.667 154 160C154 161.333 153.333 162 152 162C150.667 162 150 162.667 150 164C150 165.667 149.333 166 146 166H142V158C142 150.667 142.167 150 144 150C145.333 150 146 149.333 146 148C146 146.667 145.333 146 144 146C142.667 146 142 145.333 142 144C142 142.667 141.333 142 140 142C138.667 142 138 141.333 138 140C138 138.667 137.333 138 136 138C134.667 138 134 137.333 134 136C134 134.667 133.333 134 132 134C130.667 134 130 133.333 130 132C130 130.667 130.667 130 132 130C133.333 130 134 130.667 134 132C134 133.333 134.667 134 136 134C137.333 134 138 133.333 138 132C138 130.333 138.667 130 142 130H146V126C146 122.667 145.667 122 144 122C142.667 122 142 121.333 142 120C142 118.667 142.667 118 144 118C145.333 118 146 117.333 146 116C146 114.667 146.667 114 148 114C149.333 114 150 113.333 150 112C150 110.667 150.667 110 152 110C153.333 110 154 110.667 154 112ZM98 124C98 125.333 97.333 126 96 126C94.333 126 94 126.667 94 130C94 133.333 94.333 134 96 134C97.333 134 98 134.667 98 136C98 137.333 98.667 138 100 138C101.333 138 102 138.667 102 140C102 141.333 102.667 142 104 142C105.667 142 106 141.333 106 138C106 134.667 106.333 134 108 134C109.333 134 110 133.333 110 132C110 130.667 109.333 130 108 130C106.667 130 106 129.333 106 128C106 126.667 105.333 126 104 126C102.667 126 102 125.333 102 124C102 122.667 101.333 122 100 122C98.667 122 98 122.667 98 124ZM126 132C126 133.333 125.333 134 124 134C122.667 134 122 133.333 122 132C122 130.667 122.667 130 124 130C125.333 130 126 130.667 126 132ZM138 136C138 137.333 138.667 138 140 138C141.333 138 142 137.333 142 136C142 134.667 141.333 134 140 134C138.667 134 138 134.667 138 136ZM114 158V166H110C106.667 166 106 165.667 106 164C106 162.333 105.333 162 102 162C98.667 162 98 161.667 98 160C98 158.222 98.667 158 104 158H110V154C110 150.667 110.333 150 112 150C113.833 150 114 150.667 114 158ZM170 156C170 157.333 169.333 158 168 158C166.667 158 166 158.667 166 160C166 161.667 166.667 162 170 162H174V158C174 154.667 173.667 154 172 154C170.667 154 170 154.667 170 156ZM86 172C86 173.333 85.333 174 84 174C82.667 174 82 174.667 82 176C82 177.333 81.333 178 80 178C78.667 178 78 178.667 78 180C78 181.333 78.667 182 80 182C81.333 182 82 181.333 82 180C82 178.667 82.667 178 84 178C85.333 178 86 177.333 86 176C86 174.667 86.667 174 88 174C89.333 174 90 173.333 90 172C90 170.667 89.333 170 88 170C86.667 170 86 170.667 86 172Z" fill="white"/>
</g>
<defs>
<filter id="filter0_d_682_16681" x="74" y="90" width="108" height="100" filterUnits="userSpaceOnUse" color-interpolation-filters="sRGB">
<feFlood flood-opacity="0" result="BackgroundImageFix"/>
<feColorMatrix in="SourceAlpha" type="matrix" values="0 0 0 0 0 0 0 0 0 0 0 0 0 0 0 0 0 0 127 0" result="hardAlpha"/>
<feOffset dy="4"/>
<feGaussianBlur stdDeviation="2"/>
<feComposite in2="hardAlpha" operator="out"/>
<feColorMatrix type="matrix" values="0 0 0 0 0 0 0 0 0 0 0 0 0 0 0 0 0 0 0.25 0"/>
<feBlend mode="normal" in2="BackgroundImageFix" result="effect1_dropShadow_682_16681"/>
<feBlend mode="normal" in="SourceGraphic" in2="effect1_dropShadow_682_16681" result="shape"/>
</filter>
<linearGradient id="paint0_linear_682_16681" x1="22.5" y1="79.5" x2="118.5" y2="117" gradientUnits="userSpaceOnUse">
<stop stop-color="#C0F607"/>
<stop offset="1" stop-color="#8DCF29"/>
</linearGradient>
<linearGradient id="paint1_linear_682_16681" x1="123" y1="100" x2="180.5" y2="127" gradientUnits="userSpaceOnUse">
<stop stop-color="#82C631"/>
<stop offset="1" stop-color="#65B044"/>
</linearGradient>
<linearGradient id="paint2_linear_682_16681" x1="190" y1="144.5" x2="237" y2="172.5" gradientUnits="userSpaceOnUse">
<stop stop-color="#50A053"/>
<stop offset="1" stop-color="#2E866A"/>
</linearGradient>
</defs>
</svg>
