<svg width="256" height="256" viewBox="0 0 256 256" fill="none" xmlns="http://www.w3.org/2000/svg">
<rect x="105.6" y="46.7998" width="3.2" height="3.2" fill="#F9C63C"/>
<rect x="233.6" y="203.6" width="3.2" height="3.2" fill="#1C8018"/>
<rect x="236.8" y="200.4" width="3.2" height="3.2" fill="#1C8018"/>
<rect x="22.4" y="206.8" width="211.2" height="3.2" fill="#1C8018"/>
<rect x="19.2" y="203.6" width="3.2" height="3.2" fill="#1C8018"/>
<rect x="16" y="200.4" width="3.2" height="3.2" fill="#1C8018"/>
<rect x="22.4" y="34" width="73.6" height="3.2" fill="#2E7D6D"/>
<rect x="96" y="37.2002" width="3.2" height="3.2" fill="#2E7D6D"/>
<rect x="99.2" y="40.3999" width="3.2" height="3.2" fill="#2E7D6D"/>
<rect x="102.4" y="43.6001" width="3.2" height="3.2" fill="#2E7D6D"/>
<rect x="105.6" y="46.7998" width="3.2" height="3.2" fill="#2E7D6D"/>
<rect x="108.8" y="50" width="3.2" height="3.2" fill="#2E7D6D"/>
<path d="M236.8 60.7998H233.6V65.9998H236.8L239 65.9998L239.015 62.9998H236.8V60.7998Z" fill="#2E7D6D"/>
<rect x="115.2" y="58.6001" width="118.4" height="3.2" fill="#2E7D6D"/>
<rect x="112" y="53.2002" width="3.2" height="6.4" fill="#2E7D6D"/>
<rect x="236.8" y="66" width="3.2" height="6.4" fill="#2E7D6D"/>
<rect x="16" y="40.3999" width="3.2" height="44.8" fill="#2E7D6D"/>
<path d="M19.2 40.4002H22.4V37.2002H96V40.4002H99.2V43.6002H102.4V46.8002H105.6V50.0002H108.8V53.2002H112V59.6002H115.2V61.8002H233.6V66.0002H236.8V69.2002H233.6V66.0002H115.2V69.2002H112V72.4002H108.8V75.6002H102.4V78.8002H22.4V82.0002H19.2V40.4002Z" fill="#2E7D6D"/>
<path d="M22.4 203.6V206.8H70.4V199.6H73.6V193.2H76.8V186.8H80V180.4H83.2V174H86.4V167.6H89.6V161.2H92.7999V151.6H96V145.2H99.2V138.8H102.4V129.2H105.6V122.8H108.8V116.4H112V110H115.2V106.8H118.4V100.4H121.6V94.0002H124.8V90.8002H128V84.4002H131.2V81.2002H134.4V78.0002H137.6V74.8002H140.8V71.6002H144V68.4002H147.2V65.2002H115.2V68.4002H112V71.6002H108.8V74.8002H102.4V78.0002H22.4V81.2002H19.2V203.6H22.4Z" fill="url(#paint0_linear_682_16491)"/>
<path d="M220.8 68.4002V65.2002H147.2V68.4002H144V71.6002H140.8V74.8002H137.6V78.0002H134.4V81.2002H131.2V84.4002H128V90.8002H124.8V94.0002H121.6V100.4H118.4V106.8H115.2V110H112V116.4H108.8V122.8H105.6V129.2H102.4V138.8H99.2V145.2H96V151.6H92.8V161.2H89.6V167.6H86.4V174H83.2V180.4H80V186.8H76.8V193.2H73.6V199.6H70.4V206.8H144V199.6H147.2V193.2H150.4V186.8H153.6V180.4H156.8V174H160V167.6H163.2V161.2H166.4V151.6H169.6V145.2H172.8V138.8H176V129.2H179.2V122.8H182.4V116.4H185.6V110H188.8V106.8H192V100.4H195.2V94.0002H198.4V90.8002H201.6V84.4002H204.8V81.2002H208V78.0002H211.2V74.8002H214.4V71.6002H217.6V68.4002H220.8Z" fill="url(#paint1_linear_682_16491)"/>
<path d="M220.8 68.4002V65.2002H233.6V68.4002H236.8V203.6H233.6V206.8H144V199.6H147.2V193.2H150.4V186.8H153.6V180.4H156.8V174H160V167.6H163.2V161.2H166.4V151.6H169.6V145.2H172.8V138.8H176V129.2H179.2V122.8H182.4V116.4H185.6V110H188.8V106.8H192V100.4H195.2V94.0002H198.4V90.8002H201.6V84.4002H204.8V81.2002H208V78.0002H211.2V74.8002H214.4V71.6002H217.6V68.4002H220.8Z" fill="url(#paint2_linear_682_16491)"/>
<path d="M236.8 71.6001H240V200.4H236.8V71.6001Z" fill="#328968"/>
<path d="M16 84.3999H19.2V200.4H16V84.3999Z" fill="#BAF10B"/>
<rect x="19.2" y="78" width="3.2" height="3.2" fill="#ADDD5D"/>
<rect x="112" y="65.2002" width="3.2" height="3.2" fill="#ADDD5D"/>
<rect x="108.8" y="68.3999" width="3.2" height="3.2" fill="#ADDD5D"/>
<rect x="102.4" y="71.6001" width="6.4" height="3.2" fill="#ADDD5D"/>
<rect x="22.4" y="74.7998" width="80" height="3.2" fill="#ADDD5D"/>
<rect x="115.2" y="62" width="118.4" height="3.2" fill="#ADDD5D"/>
<rect x="233.6" y="65.2002" width="3.2" height="3.2" fill="#ADDD5D"/>
<rect x="236.8" y="68.3999" width="3.2" height="3.2" fill="#ADDD5D"/>
<rect x="16" y="81.2002" width="3.2" height="3.2" fill="#ADDD5D"/>
<rect x="19.2" y="37.2002" width="3.2" height="3.2" fill="#2E7D6D"/>
<g filter="url(#filter0_d_682_16491)">
<path fill-rule="evenodd" clip-rule="evenodd" d="M138 92C138 97.333 138.222 98 140 98C141.333 98 142 98.667 142 100C142 101.333 142.667 102 144 102C145.333 102 146 102.667 146 104C146 105.333 146.667 106 148 106C149.333 106 150 105.333 150 104C150 102.667 150.667 102 152 102C153.333 102 154 101.333 154 100C154 98.667 154.667 98 156 98C157.778 98 158 97.333 158 92V86H154C150.667 86 150 86.333 150 88C150 89.333 149.333 90 148 90C146.667 90 146 89.333 146 88C146 86.333 145.333 86 142 86H138V92ZM102 114V130H96C90.667 130 90 130.222 90 132C90 133.333 89.333 134 88 134C86.333 134 86 134.667 86 138V142H90H94V138V134H98H102V138C102 141.333 102.333 142 104 142C105.333 142 106 142.667 106 144C106 145.867 106.667 146 116 146H126V150C126 153.333 126.333 154 128 154C129.778 154 130 153.333 130 148C130 142.667 129.778 142 128 142C126.667 142 126 141.333 126 140C126 138.667 125.333 138 124 138C122.222 138 122 137.333 122 132C122 126.667 122.222 126 124 126C125.778 126 126 125.333 126 120C126 114.667 125.778 114 124 114C122.667 114 122 113.333 122 112C122 110.333 121.333 110 118 110H114V104C114 98.667 113.778 98 112 98C110.222 98 110 98.667 110 104C110 109.333 109.778 110 108 110C106.222 110 106 109.333 106 104C106 98.667 105.778 98 104 98C102.083 98 102 98.667 102 114ZM114 118C114 121.333 113.667 122 112 122C110.333 122 110 121.333 110 118C110 114.667 110.333 114 112 114C113.667 114 114 114.667 114 118ZM130 126C130 129.333 129.667 130 128 130C126.667 130 126 130.667 126 132C126 133.667 126.667 134 130 134C133.333 134 134 133.667 134 132C134 130.667 134.667 130 136 130C137.667 130 138 129.333 138 126V122H134H130V126ZM102 152C102 153.333 101.333 154 100 154C98.667 154 98 154.667 98 156C98 157.333 98.667 158 100 158C101.333 158 102 157.333 102 156C102 154.333 102.667 154 106 154C109.333 154 110 153.667 110 152C110 150.333 109.333 150 106 150C102.667 150 102 150.333 102 152ZM170 156C170 157.333 169.333 158 168 158C166.667 158 166 158.667 166 160C166 161.333 166.667 162 168 162C169.333 162 170 162.667 170 164C170 165.333 169.333 166 168 166C166.667 166 166 166.667 166 168C166 169.333 166.667 170 168 170C169.333 170 170 170.667 170 172C170 173.667 169.333 174 166 174C162.667 174 162 173.667 162 172C162 170.667 161.333 170 160 170C158.667 170 158 170.667 158 172C158 173.333 157.333 174 156 174C154.667 174 154 174.667 154 176C154 177.333 153.333 178 152 178C150.333 178 150 178.667 150 182V186H164H178V180C178 174.667 177.778 174 176 174C174.222 174 174 173.333 174 168C174 162.667 174.222 162 176 162C177.333 162 178 161.333 178 160C178 158.667 177.333 158 176 158C174.667 158 174 157.333 174 156C174 154.667 173.333 154 172 154C170.667 154 170 154.667 170 156ZM174 160C174 161.333 173.333 162 172 162C170.667 162 170 161.333 170 160C170 158.667 170.667 158 172 158C173.333 158 174 158.667 174 160ZM82 172C82 173.333 81.333 174 80 174C78.222 174 78 174.667 78 180V186H92H106V182C106 178.667 105.667 178 104 178C102.667 178 102 177.333 102 176C102 174.333 101.333 174 98 174C94.667 174 94 173.667 94 172C94 170.667 93.333 170 92 170C90.667 170 90 170.667 90 172C90 173.333 89.333 174 88 174C86.667 174 86 173.333 86 172C86 170.667 85.333 170 84 170C82.667 170 82 170.667 82 172Z" fill="white"/>
</g>
<defs>
<filter id="filter0_d_682_16491" x="74" y="86" width="108" height="108" filterUnits="userSpaceOnUse" color-interpolation-filters="sRGB">
<feFlood flood-opacity="0" result="BackgroundImageFix"/>
<feColorMatrix in="SourceAlpha" type="matrix" values="0 0 0 0 0 0 0 0 0 0 0 0 0 0 0 0 0 0 127 0" result="hardAlpha"/>
<feOffset dy="4"/>
<feGaussianBlur stdDeviation="2"/>
<feComposite in2="hardAlpha" operator="out"/>
<feColorMatrix type="matrix" values="0 0 0 0 0 0 0 0 0 0 0 0 0 0 0 0 0 0 0.25 0"/>
<feBlend mode="normal" in2="BackgroundImageFix" result="effect1_dropShadow_682_16491"/>
<feBlend mode="normal" in="SourceGraphic" in2="effect1_dropShadow_682_16491" result="shape"/>
</filter>
<linearGradient id="paint0_linear_682_16491" x1="22.5" y1="79.5" x2="118.5" y2="117" gradientUnits="userSpaceOnUse">
<stop stop-color="#C0F607"/>
<stop offset="1" stop-color="#8DCF29"/>
</linearGradient>
<linearGradient id="paint1_linear_682_16491" x1="123" y1="100" x2="180.5" y2="127" gradientUnits="userSpaceOnUse">
<stop stop-color="#82C631"/>
<stop offset="1" stop-color="#65B044"/>
</linearGradient>
<linearGradient id="paint2_linear_682_16491" x1="190" y1="144.5" x2="237" y2="172.5" gradientUnits="userSpaceOnUse">
<stop stop-color="#50A053"/>
<stop offset="1" stop-color="#2E866A"/>
</linearGradient>
</defs>
</svg>
