<svg width="256" height="256" viewBox="0 0 256 256" fill="none" xmlns="http://www.w3.org/2000/svg">
<rect x="105.6" y="46.7998" width="3.2" height="3.2" fill="#F9C63C"/>
<rect x="233.6" y="203.6" width="3.2" height="3.2" fill="#1C8018"/>
<rect x="236.8" y="200.4" width="3.2" height="3.2" fill="#1C8018"/>
<rect x="22.4" y="206.8" width="211.2" height="3.2" fill="#1C8018"/>
<rect x="19.2" y="203.6" width="3.2" height="3.2" fill="#1C8018"/>
<rect x="16" y="200.4" width="3.2" height="3.2" fill="#1C8018"/>
<rect x="22.4" y="34" width="73.6" height="3.2" fill="#2E7D6D"/>
<rect x="96" y="37.2002" width="3.2" height="3.2" fill="#2E7D6D"/>
<rect x="99.2" y="40.3999" width="3.2" height="3.2" fill="#2E7D6D"/>
<rect x="102.4" y="43.6001" width="3.2" height="3.2" fill="#2E7D6D"/>
<rect x="105.6" y="46.7998" width="3.2" height="3.2" fill="#2E7D6D"/>
<rect x="108.8" y="50" width="3.2" height="3.2" fill="#2E7D6D"/>
<path d="M236.8 60.7998H233.6V65.9998H236.8L239 65.9998L239.015 62.9998H236.8V60.7998Z" fill="#2E7D6D"/>
<rect x="115.2" y="58.6001" width="118.4" height="3.2" fill="#2E7D6D"/>
<rect x="112" y="53.2002" width="3.2" height="6.4" fill="#2E7D6D"/>
<rect x="236.8" y="66" width="3.2" height="6.4" fill="#2E7D6D"/>
<rect x="16" y="40.3999" width="3.2" height="44.8" fill="#2E7D6D"/>
<path d="M19.2 40.4002H22.4V37.2002H96V40.4002H99.2V43.6002H102.4V46.8002H105.6V50.0002H108.8V53.2002H112V59.6002H115.2V61.8002H233.6V66.0002H236.8V69.2002H233.6V66.0002H115.2V69.2002H112V72.4002H108.8V75.6002H102.4V78.8002H22.4V82.0002H19.2V40.4002Z" fill="#2E7D6D"/>
<path d="M22.4 203.6V206.8H70.4V199.6H73.6V193.2H76.8V186.8H80V180.4H83.2V174H86.4V167.6H89.6V161.2H92.7999V151.6H96V145.2H99.2V138.8H102.4V129.2H105.6V122.8H108.8V116.4H112V110H115.2V106.8H118.4V100.4H121.6V94.0002H124.8V90.8002H128V84.4002H131.2V81.2002H134.4V78.0002H137.6V74.8002H140.8V71.6002H144V68.4002H147.2V65.2002H115.2V68.4002H112V71.6002H108.8V74.8002H102.4V78.0002H22.4V81.2002H19.2V203.6H22.4Z" fill="url(#paint0_linear_682_16719)"/>
<path d="M220.8 68.4002V65.2002H147.2V68.4002H144V71.6002H140.8V74.8002H137.6V78.0002H134.4V81.2002H131.2V84.4002H128V90.8002H124.8V94.0002H121.6V100.4H118.4V106.8H115.2V110H112V116.4H108.8V122.8H105.6V129.2H102.4V138.8H99.2V145.2H96V151.6H92.8V161.2H89.6V167.6H86.4V174H83.2V180.4H80V186.8H76.8V193.2H73.6V199.6H70.4V206.8H144V199.6H147.2V193.2H150.4V186.8H153.6V180.4H156.8V174H160V167.6H163.2V161.2H166.4V151.6H169.6V145.2H172.8V138.8H176V129.2H179.2V122.8H182.4V116.4H185.6V110H188.8V106.8H192V100.4H195.2V94.0002H198.4V90.8002H201.6V84.4002H204.8V81.2002H208V78.0002H211.2V74.8002H214.4V71.6002H217.6V68.4002H220.8Z" fill="url(#paint1_linear_682_16719)"/>
<path d="M220.8 68.4002V65.2002H233.6V68.4002H236.8V203.6H233.6V206.8H144V199.6H147.2V193.2H150.4V186.8H153.6V180.4H156.8V174H160V167.6H163.2V161.2H166.4V151.6H169.6V145.2H172.8V138.8H176V129.2H179.2V122.8H182.4V116.4H185.6V110H188.8V106.8H192V100.4H195.2V94.0002H198.4V90.8002H201.6V84.4002H204.8V81.2002H208V78.0002H211.2V74.8002H214.4V71.6002H217.6V68.4002H220.8Z" fill="url(#paint2_linear_682_16719)"/>
<path d="M236.8 71.6001H240V200.4H236.8V71.6001Z" fill="#328968"/>
<path d="M16 84.3999H19.2V200.4H16V84.3999Z" fill="#BAF10B"/>
<rect x="19.2" y="78" width="3.2" height="3.2" fill="#ADDD5D"/>
<rect x="112" y="65.2002" width="3.2" height="3.2" fill="#ADDD5D"/>
<rect x="108.8" y="68.3999" width="3.2" height="3.2" fill="#ADDD5D"/>
<rect x="102.4" y="71.6001" width="6.4" height="3.2" fill="#ADDD5D"/>
<rect x="22.4" y="74.7998" width="80" height="3.2" fill="#ADDD5D"/>
<rect x="115.2" y="62" width="118.4" height="3.2" fill="#ADDD5D"/>
<rect x="233.6" y="65.2002" width="3.2" height="3.2" fill="#ADDD5D"/>
<rect x="236.8" y="68.3999" width="3.2" height="3.2" fill="#ADDD5D"/>
<rect x="16" y="81.2002" width="3.2" height="3.2" fill="#ADDD5D"/>
<rect x="19.2" y="37.2002" width="3.2" height="3.2" fill="#2E7D6D"/>
<g filter="url(#filter0_d_682_16719)">
<path fill-rule="evenodd" clip-rule="evenodd" d="M126 96C126 97.333 125.333 98 124 98C122.667 98 122 98.667 122 100C122 101.778 121.333 102 116 102C110.667 102 110 102.222 110 104C110 105.333 109.333 106 108 106C106.667 106 106 106.667 106 108C106 109.333 105.333 110 104 110C102.133 110 102 110.667 102 120V130H98C94.667 130 94 130.333 94 132C94 133.667 93.333 134 90 134C86.667 134 86 134.333 86 136C86 137.667 85.333 138 82 138C78.667 138 78 138.333 78 140C78 141.973 78.667 142 128 142C177.333 142 178 141.973 178 140C178 138.333 177.333 138 174 138C170.667 138 170 137.667 170 136C170 134.333 169.333 134 166 134C162.667 134 162 133.667 162 132C162 130.333 161.333 130 158 130H154V120C154 110.667 153.867 110 152 110C150.667 110 150 109.333 150 108C150 106.667 149.333 106 148 106C146.667 106 146 105.333 146 104C146 102.222 145.333 102 140 102C134.667 102 134 101.778 134 100C134 98.667 133.333 98 132 98C130.667 98 130 97.333 130 96C130 94.667 129.333 94 128 94C126.667 94 126 94.667 126 96ZM146 108C146 109.333 146.667 110 148 110C149.867 110 150 110.667 150 120C150 129.333 149.867 130 148 130C146.333 130 146 129.333 146 126V122H142C138.667 122 138 122.333 138 124C138 125.333 138.667 126 140 126C141.333 126 142 126.667 142 128C142 129.333 141.333 130 140 130C138.667 130 138 129.333 138 128C138 126.667 137.333 126 136 126C134.667 126 134 126.667 134 128C134 129.333 133.333 130 132 130C130.667 130 130 129.333 130 128C130 126.667 130.667 126 132 126C133.333 126 134 125.333 134 124C134 122.667 133.333 122 132 122C130.667 122 130 121.333 130 120C130 118.667 130.667 118 132 118C133.333 118 134 117.333 134 116C134 114.222 133.333 114 128 114H122V120C122 125.333 122.222 126 124 126C125.333 126 126 126.667 126 128C126 129.667 125.333 130 122 130H118V126C118 122.667 117.667 122 116 122C114.333 122 114 122.667 114 126V130H110H106V120C106 110.667 106.133 110 108 110C109.333 110 110 109.333 110 108C110 106.074 110.667 106 128 106C145.333 106 146 106.074 146 108ZM110 114V118H114H118V114V110H114H110V114ZM106 148C106 149.667 106.667 150 110 150C113.333 150 114 150.333 114 152C114 153.905 114.667 154 128 154C141.333 154 142 153.905 142 152C142 150.333 142.667 150 146 150C149.333 150 150 149.667 150 148C150 146.061 149.333 146 128 146C106.667 146 106 146.061 106 148ZM122 160C122 161.778 122.667 162 128 162C133.333 162 134 161.778 134 160C134 158.222 133.333 158 128 158C122.667 158 122 158.222 122 160ZM118 168C118 169.867 118.667 170 128 170C137.333 170 138 169.867 138 168C138 166.133 137.333 166 128 166C118.667 166 118 166.133 118 168ZM114 176C114 177.905 114.667 178 128 178C141.333 178 142 177.905 142 176C142 174.095 141.333 174 128 174C114.667 174 114 174.095 114 176Z" fill="white"/>
</g>
<defs>
<filter id="filter0_d_682_16719" x="74" y="94" width="108" height="92" filterUnits="userSpaceOnUse" color-interpolation-filters="sRGB">
<feFlood flood-opacity="0" result="BackgroundImageFix"/>
<feColorMatrix in="SourceAlpha" type="matrix" values="0 0 0 0 0 0 0 0 0 0 0 0 0 0 0 0 0 0 127 0" result="hardAlpha"/>
<feOffset dy="4"/>
<feGaussianBlur stdDeviation="2"/>
<feComposite in2="hardAlpha" operator="out"/>
<feColorMatrix type="matrix" values="0 0 0 0 0 0 0 0 0 0 0 0 0 0 0 0 0 0 0.25 0"/>
<feBlend mode="normal" in2="BackgroundImageFix" result="effect1_dropShadow_682_16719"/>
<feBlend mode="normal" in="SourceGraphic" in2="effect1_dropShadow_682_16719" result="shape"/>
</filter>
<linearGradient id="paint0_linear_682_16719" x1="22.5" y1="79.5" x2="118.5" y2="117" gradientUnits="userSpaceOnUse">
<stop stop-color="#C0F607"/>
<stop offset="1" stop-color="#8DCF29"/>
</linearGradient>
<linearGradient id="paint1_linear_682_16719" x1="123" y1="100" x2="180.5" y2="127" gradientUnits="userSpaceOnUse">
<stop stop-color="#82C631"/>
<stop offset="1" stop-color="#65B044"/>
</linearGradient>
<linearGradient id="paint2_linear_682_16719" x1="190" y1="144.5" x2="237" y2="172.5" gradientUnits="userSpaceOnUse">
<stop stop-color="#50A053"/>
<stop offset="1" stop-color="#2E866A"/>
</linearGradient>
</defs>
</svg>
