<svg width="256" height="256" viewBox="0 0 256 256" fill="none" xmlns="http://www.w3.org/2000/svg">
<rect x="105.6" y="46.7998" width="3.2" height="3.2" fill="#F9C63C"/>
<rect x="233.6" y="203.6" width="3.2" height="3.2" fill="#1C8018"/>
<rect x="236.8" y="200.4" width="3.2" height="3.2" fill="#1C8018"/>
<rect x="22.4" y="206.8" width="211.2" height="3.2" fill="#1C8018"/>
<rect x="19.2" y="203.6" width="3.2" height="3.2" fill="#1C8018"/>
<rect x="16" y="200.4" width="3.2" height="3.2" fill="#1C8018"/>
<rect x="22.4" y="34" width="73.6" height="3.2" fill="#2E7D6D"/>
<rect x="96" y="37.2002" width="3.2" height="3.2" fill="#2E7D6D"/>
<rect x="99.2" y="40.3999" width="3.2" height="3.2" fill="#2E7D6D"/>
<rect x="102.4" y="43.6001" width="3.2" height="3.2" fill="#2E7D6D"/>
<rect x="105.6" y="46.7998" width="3.2" height="3.2" fill="#2E7D6D"/>
<rect x="108.8" y="50" width="3.2" height="3.2" fill="#2E7D6D"/>
<path d="M236.8 60.7998H233.6V65.9998H236.8L239 65.9998L239.015 62.9998H236.8V60.7998Z" fill="#2E7D6D"/>
<rect x="115.2" y="58.6001" width="118.4" height="3.2" fill="#2E7D6D"/>
<rect x="112" y="53.2002" width="3.2" height="6.4" fill="#2E7D6D"/>
<rect x="236.8" y="66" width="3.2" height="6.4" fill="#2E7D6D"/>
<rect x="16" y="40.3999" width="3.2" height="44.8" fill="#2E7D6D"/>
<path d="M19.2 40.4002H22.4V37.2002H96V40.4002H99.2V43.6002H102.4V46.8002H105.6V50.0002H108.8V53.2002H112V59.6002H115.2V61.8002H233.6V66.0002H236.8V69.2002H233.6V66.0002H115.2V69.2002H112V72.4002H108.8V75.6002H102.4V78.8002H22.4V82.0002H19.2V40.4002Z" fill="#2E7D6D"/>
<path d="M22.4 203.6V206.8H70.4V199.6H73.6V193.2H76.8V186.8H80V180.4H83.2V174H86.4V167.6H89.6V161.2H92.7999V151.6H96V145.2H99.2V138.8H102.4V129.2H105.6V122.8H108.8V116.4H112V110H115.2V106.8H118.4V100.4H121.6V94.0002H124.8V90.8002H128V84.4002H131.2V81.2002H134.4V78.0002H137.6V74.8002H140.8V71.6002H144V68.4002H147.2V65.2002H115.2V68.4002H112V71.6002H108.8V74.8002H102.4V78.0002H22.4V81.2002H19.2V203.6H22.4Z" fill="url(#paint0_linear_682_16224)"/>
<path d="M220.8 68.4002V65.2002H147.2V68.4002H144V71.6002H140.8V74.8002H137.6V78.0002H134.4V81.2002H131.2V84.4002H128V90.8002H124.8V94.0002H121.6V100.4H118.4V106.8H115.2V110H112V116.4H108.8V122.8H105.6V129.2H102.4V138.8H99.2V145.2H96V151.6H92.8V161.2H89.6V167.6H86.4V174H83.2V180.4H80V186.8H76.8V193.2H73.6V199.6H70.4V206.8H144V199.6H147.2V193.2H150.4V186.8H153.6V180.4H156.8V174H160V167.6H163.2V161.2H166.4V151.6H169.6V145.2H172.8V138.8H176V129.2H179.2V122.8H182.4V116.4H185.6V110H188.8V106.8H192V100.4H195.2V94.0002H198.4V90.8002H201.6V84.4002H204.8V81.2002H208V78.0002H211.2V74.8002H214.4V71.6002H217.6V68.4002H220.8Z" fill="url(#paint1_linear_682_16224)"/>
<path d="M220.8 68.4002V65.2002H233.6V68.4002H236.8V203.6H233.6V206.8H144V199.6H147.2V193.2H150.4V186.8H153.6V180.4H156.8V174H160V167.6H163.2V161.2H166.4V151.6H169.6V145.2H172.8V138.8H176V129.2H179.2V122.8H182.4V116.4H185.6V110H188.8V106.8H192V100.4H195.2V94.0002H198.4V90.8002H201.6V84.4002H204.8V81.2002H208V78.0002H211.2V74.8002H214.4V71.6002H217.6V68.4002H220.8Z" fill="url(#paint2_linear_682_16224)"/>
<path d="M236.8 71.6001H240V200.4H236.8V71.6001Z" fill="#328968"/>
<path d="M16 84.3999H19.2V200.4H16V84.3999Z" fill="#BAF10B"/>
<rect x="19.2" y="78" width="3.2" height="3.2" fill="#ADDD5D"/>
<rect x="112" y="65.2002" width="3.2" height="3.2" fill="#ADDD5D"/>
<rect x="108.8" y="68.3999" width="3.2" height="3.2" fill="#ADDD5D"/>
<rect x="102.4" y="71.6001" width="6.4" height="3.2" fill="#ADDD5D"/>
<rect x="22.4" y="74.7998" width="80" height="3.2" fill="#ADDD5D"/>
<rect x="115.2" y="62" width="118.4" height="3.2" fill="#ADDD5D"/>
<rect x="233.6" y="65.2002" width="3.2" height="3.2" fill="#ADDD5D"/>
<rect x="236.8" y="68.3999" width="3.2" height="3.2" fill="#ADDD5D"/>
<rect x="16" y="81.2002" width="3.2" height="3.2" fill="#ADDD5D"/>
<rect x="19.2" y="37.2002" width="3.2" height="3.2" fill="#2E7D6D"/>
<g filter="url(#filter0_d_682_16224)">
<path fill-rule="evenodd" clip-rule="evenodd" d="M119 88C119 89.667 118.333 90 115 90C111.667 90 111 90.333 111 92C111 93.333 110.333 94 109 94C107.667 94 107 94.667 107 96C107 97.333 106.333 98 105 98C103.667 98 103 98.667 103 100C103 101.949 103.667 102 129 102C154.333 102 155 101.949 155 100C155 98.667 154.333 98 153 98C151.667 98 151 97.333 151 96C151 94.667 150.333 94 149 94C147.667 94 147 93.333 147 92C147 90.333 146.333 90 143 90C139.667 90 139 89.667 139 88C139 86.133 138.333 86 129 86C119.667 86 119 86.133 119 88ZM99 108C99 109.333 98.333 110 97 110C95.111 110 95 110.667 95 122C95 133.333 95.111 134 97 134C98.333 134 99 134.667 99 136C99 137.889 99.667 138 111 138C122.333 138 123 138.111 123 140C123 141.833 122.333 142 115 142H107V146C107 149.333 107.333 150 109 150C110.333 150 111 150.667 111 152C111 153.333 111.667 154 113 154C114.333 154 115 154.667 115 156C115 157.333 114.333 158 113 158C111.222 158 111 158.667 111 164V170H103C95.667 170 95 170.167 95 172C95 173.667 94.333 174 91 174C87.667 174 87 174.333 87 176C87 177.333 86.333 178 85 178C83.333 178 83 178.667 83 182V186H129H175V182C175 178.667 174.667 178 173 178C171.667 178 171 177.333 171 176C171 174.333 170.333 174 167 174C163.667 174 163 173.667 163 172C163 170.167 162.333 170 155 170H147V164C147 158.667 146.778 158 145 158C143.667 158 143 157.333 143 156C143 154.667 143.667 154 145 154C146.333 154 147 153.333 147 152C147 150.667 147.667 150 149 150C150.667 150 151 149.333 151 146V142H143C135.667 142 135 141.833 135 140C135 138.111 135.667 138 147 138C158.333 138 159 137.889 159 136C159 134.667 159.667 134 161 134C162.889 134 163 133.333 163 122C163 110.667 162.889 110 161 110C159.667 110 159 109.333 159 108C159 106.044 158.333 106 129 106C99.667 106 99 106.044 99 108ZM155 116C155 117.333 155.667 118 157 118C158.778 118 159 118.667 159 124C159 129.333 158.778 130 157 130C155.667 130 155 130.667 155 132C155 133.867 154.333 134 145 134C135.667 134 135 134.133 135 136C135 137.778 134.333 138 129 138C123.667 138 123 137.778 123 136C123 134.133 122.333 134 113 134C103.667 134 103 133.867 103 132C103 130.667 102.333 130 101 130C99.222 130 99 129.333 99 124C99 118.667 99.222 118 101 118C102.333 118 103 117.333 103 116C103 114.051 103.667 114 129 114C154.333 114 155 114.051 155 116ZM123 132C123 133.778 123.667 134 129 134C134.333 134 135 133.778 135 132C135 130.222 134.333 130 129 130C123.667 130 123 130.222 123 132ZM123 148C123 149.778 123.667 150 129 150C134.333 150 135 149.778 135 148C135 146.667 135.667 146 137 146C138.333 146 139 146.667 139 148C139 149.333 138.333 150 137 150C135.667 150 135 150.667 135 152C135 153.778 134.333 154 129 154C123.667 154 123 153.778 123 152C123 150.667 122.333 150 121 150C119.667 150 119 149.333 119 148C119 146.667 119.667 146 121 146C122.333 146 123 146.667 123 148ZM119 160C119 161.867 119.667 162 129 162C138.333 162 139 161.867 139 160C139 158.667 139.667 158 141 158C142.333 158 143 158.667 143 160C143 161.333 142.333 162 141 162C139.667 162 139 162.667 139 164C139 165.867 138.333 166 129 166C119.667 166 119 165.867 119 164C119 162.667 118.333 162 117 162C115.667 162 115 161.333 115 160C115 158.667 115.667 158 117 158C118.333 158 119 158.667 119 160Z" fill="white"/>
</g>
<defs>
<filter id="filter0_d_682_16224" x="79" y="86" width="100" height="108" filterUnits="userSpaceOnUse" color-interpolation-filters="sRGB">
<feFlood flood-opacity="0" result="BackgroundImageFix"/>
<feColorMatrix in="SourceAlpha" type="matrix" values="0 0 0 0 0 0 0 0 0 0 0 0 0 0 0 0 0 0 127 0" result="hardAlpha"/>
<feOffset dy="4"/>
<feGaussianBlur stdDeviation="2"/>
<feComposite in2="hardAlpha" operator="out"/>
<feColorMatrix type="matrix" values="0 0 0 0 0 0 0 0 0 0 0 0 0 0 0 0 0 0 0.25 0"/>
<feBlend mode="normal" in2="BackgroundImageFix" result="effect1_dropShadow_682_16224"/>
<feBlend mode="normal" in="SourceGraphic" in2="effect1_dropShadow_682_16224" result="shape"/>
</filter>
<linearGradient id="paint0_linear_682_16224" x1="22.5" y1="79.5" x2="118.5" y2="117" gradientUnits="userSpaceOnUse">
<stop stop-color="#C0F607"/>
<stop offset="1" stop-color="#8DCF29"/>
</linearGradient>
<linearGradient id="paint1_linear_682_16224" x1="123" y1="100" x2="180.5" y2="127" gradientUnits="userSpaceOnUse">
<stop stop-color="#82C631"/>
<stop offset="1" stop-color="#65B044"/>
</linearGradient>
<linearGradient id="paint2_linear_682_16224" x1="190" y1="144.5" x2="237" y2="172.5" gradientUnits="userSpaceOnUse">
<stop stop-color="#50A053"/>
<stop offset="1" stop-color="#2E866A"/>
</linearGradient>
</defs>
</svg>
