<svg width="256" height="256" viewBox="0 0 256 256" fill="none" xmlns="http://www.w3.org/2000/svg">
<rect x="105.6" y="46.7998" width="3.2" height="3.2" fill="#F9C63C"/>
<rect x="233.6" y="203.6" width="3.2" height="3.2" fill="#1C8018"/>
<rect x="236.8" y="200.4" width="3.2" height="3.2" fill="#1C8018"/>
<rect x="22.4" y="206.8" width="211.2" height="3.2" fill="#1C8018"/>
<rect x="19.2" y="203.6" width="3.2" height="3.2" fill="#1C8018"/>
<rect x="16" y="200.4" width="3.2" height="3.2" fill="#1C8018"/>
<rect x="22.4" y="34" width="73.6" height="3.2" fill="#2E7D6D"/>
<rect x="96" y="37.2002" width="3.2" height="3.2" fill="#2E7D6D"/>
<rect x="99.2" y="40.3999" width="3.2" height="3.2" fill="#2E7D6D"/>
<rect x="102.4" y="43.6001" width="3.2" height="3.2" fill="#2E7D6D"/>
<rect x="105.6" y="46.7998" width="3.2" height="3.2" fill="#2E7D6D"/>
<rect x="108.8" y="50" width="3.2" height="3.2" fill="#2E7D6D"/>
<path d="M236.8 60.7998H233.6V65.9998H236.8L239 65.9998L239.015 62.9998H236.8V60.7998Z" fill="#2E7D6D"/>
<rect x="115.2" y="58.6001" width="118.4" height="3.2" fill="#2E7D6D"/>
<rect x="112" y="53.2002" width="3.2" height="6.4" fill="#2E7D6D"/>
<rect x="236.8" y="66" width="3.2" height="6.4" fill="#2E7D6D"/>
<rect x="16" y="40.3999" width="3.2" height="44.8" fill="#2E7D6D"/>
<path d="M19.2 40.4002H22.4V37.2002H96V40.4002H99.2V43.6002H102.4V46.8002H105.6V50.0002H108.8V53.2002H112V59.6002H115.2V61.8002H233.6V66.0002H236.8V69.2002H233.6V66.0002H115.2V69.2002H112V72.4002H108.8V75.6002H102.4V78.8002H22.4V82.0002H19.2V40.4002Z" fill="#2E7D6D"/>
<path d="M22.4 203.6V206.8H70.4V199.6H73.6V193.2H76.8V186.8H80V180.4H83.2V174H86.4V167.6H89.6V161.2H92.7999V151.6H96V145.2H99.2V138.8H102.4V129.2H105.6V122.8H108.8V116.4H112V110H115.2V106.8H118.4V100.4H121.6V94.0002H124.8V90.8002H128V84.4002H131.2V81.2002H134.4V78.0002H137.6V74.8002H140.8V71.6002H144V68.4002H147.2V65.2002H115.2V68.4002H112V71.6002H108.8V74.8002H102.4V78.0002H22.4V81.2002H19.2V203.6H22.4Z" fill="url(#paint0_linear_682_16643)"/>
<path d="M220.8 68.4002V65.2002H147.2V68.4002H144V71.6002H140.8V74.8002H137.6V78.0002H134.4V81.2002H131.2V84.4002H128V90.8002H124.8V94.0002H121.6V100.4H118.4V106.8H115.2V110H112V116.4H108.8V122.8H105.6V129.2H102.4V138.8H99.2V145.2H96V151.6H92.8V161.2H89.6V167.6H86.4V174H83.2V180.4H80V186.8H76.8V193.2H73.6V199.6H70.4V206.8H144V199.6H147.2V193.2H150.4V186.8H153.6V180.4H156.8V174H160V167.6H163.2V161.2H166.4V151.6H169.6V145.2H172.8V138.8H176V129.2H179.2V122.8H182.4V116.4H185.6V110H188.8V106.8H192V100.4H195.2V94.0002H198.4V90.8002H201.6V84.4002H204.8V81.2002H208V78.0002H211.2V74.8002H214.4V71.6002H217.6V68.4002H220.8Z" fill="url(#paint1_linear_682_16643)"/>
<path d="M220.8 68.4002V65.2002H233.6V68.4002H236.8V203.6H233.6V206.8H144V199.6H147.2V193.2H150.4V186.8H153.6V180.4H156.8V174H160V167.6H163.2V161.2H166.4V151.6H169.6V145.2H172.8V138.8H176V129.2H179.2V122.8H182.4V116.4H185.6V110H188.8V106.8H192V100.4H195.2V94.0002H198.4V90.8002H201.6V84.4002H204.8V81.2002H208V78.0002H211.2V74.8002H214.4V71.6002H217.6V68.4002H220.8Z" fill="url(#paint2_linear_682_16643)"/>
<path d="M236.8 71.6001H240V200.4H236.8V71.6001Z" fill="#328968"/>
<path d="M16 84.3999H19.2V200.4H16V84.3999Z" fill="#BAF10B"/>
<rect x="19.2" y="78" width="3.2" height="3.2" fill="#ADDD5D"/>
<rect x="112" y="65.2002" width="3.2" height="3.2" fill="#ADDD5D"/>
<rect x="108.8" y="68.3999" width="3.2" height="3.2" fill="#ADDD5D"/>
<rect x="102.4" y="71.6001" width="6.4" height="3.2" fill="#ADDD5D"/>
<rect x="22.4" y="74.7998" width="80" height="3.2" fill="#ADDD5D"/>
<rect x="115.2" y="62" width="118.4" height="3.2" fill="#ADDD5D"/>
<rect x="233.6" y="65.2002" width="3.2" height="3.2" fill="#ADDD5D"/>
<rect x="236.8" y="68.3999" width="3.2" height="3.2" fill="#ADDD5D"/>
<rect x="16" y="81.2002" width="3.2" height="3.2" fill="#ADDD5D"/>
<rect x="19.2" y="37.2002" width="3.2" height="3.2" fill="#2E7D6D"/>
<g filter="url(#filter0_d_682_16643)">
<path fill-rule="evenodd" clip-rule="evenodd" d="M98 92C98 93.333 97.333 94 96 94C94.333 94 94 94.667 94 98V102H98C101.333 102 102 102.333 102 104C102 105.778 101.333 106 96 106C90.667 106 90 106.222 90 108C90 109.333 89.333 110 88 110C86.667 110 86 110.667 86 112C86 113.333 85.333 114 84 114C82.333 114 82 114.667 82 118C82 121.333 81.667 122 80 122C78.333 122 78 122.667 78 126C78 129.333 77.667 130 76 130C74.222 130 74 130.667 74 136C74 141.333 74.222 142 76 142C77.333 142 78 141.333 78 140C78 138.333 78.667 138 82 138C85.333 138 86 138.333 86 140C86 141.333 85.333 142 84 142C82.333 142 82 142.667 82 146C82 149.333 82.333 150 84 150C85.333 150 86 149.333 86 148C86 146.667 86.667 146 88 146C89.333 146 90 145.333 90 144C90 142.667 90.667 142 92 142C93.333 142 94 141.333 94 140C94 138.667 94.667 138 96 138C97.778 138 98 138.667 98 144V150H94H90V154C90 157.333 90.333 158 92 158C93.333 158 94 158.667 94 160C94 161.667 94.667 162 98 162C101.333 162 102 162.333 102 164C102 165.926 102.667 166 120 166C137.333 166 138 165.926 138 164C138 162.333 138.667 162 142 162C145.333 162 146 161.667 146 160C146 158.667 146.667 158 148 158C149.667 158 150 157.333 150 154C150 150.667 149.667 150 148 150C146.667 150 146 149.333 146 148C146 146.667 146.667 146 148 146C149.667 146 150 145.333 150 142C150 138.667 149.667 138 148 138C146.667 138 146 137.333 146 136C146 134.222 146.667 134 152 134C157.333 134 158 134.222 158 136C158 137.333 157.333 138 156 138C154.667 138 154 138.667 154 140C154 141.333 154.667 142 156 142C157.333 142 158 142.667 158 144C158 145.333 157.333 146 156 146C154.667 146 154 146.667 154 148C154 149.667 154.667 150 158 150H162V142C162 134.667 161.833 134 160 134C158.667 134 158 133.333 158 132C158 130.667 158.667 130 160 130C161.778 130 162 129.333 162 124C162 118.667 161.778 118 160 118C158.333 118 158 117.333 158 114C158 110.667 157.667 110 156 110C154.333 110 154 109.333 154 106C154 102.667 153.667 102 152 102C150.667 102 150 101.333 150 100C150 98.667 149.333 98 148 98C146.667 98 146 97.333 146 96C146 94.333 145.333 94 142 94C138.667 94 138 93.667 138 92C138 90.067 137.333 90 118 90C98.667 90 98 90.067 98 92ZM122 106C122 113.333 122.167 114 124 114C125.333 114 126 114.667 126 116C126 117.333 126.667 118 128 118C129.333 118 130 118.667 130 120C130 121.333 130.667 122 132 122C133.667 122 134 121.333 134 118C134 114.667 134.333 114 136 114C137.778 114 138 113.333 138 108C138 102.667 138.222 102 140 102C141.333 102 142 101.333 142 100C142 98.667 142.667 98 144 98C145.333 98 146 98.667 146 100C146 101.333 145.333 102 144 102C142.222 102 142 102.667 142 108C142 113.333 142.222 114 144 114C145.333 114 146 114.667 146 116C146 117.333 145.333 118 144 118C142.667 118 142 118.667 142 120C142 121.333 141.333 122 140 122C138.667 122 138 122.667 138 124C138 125.333 138.667 126 140 126C141.333 126 142 126.667 142 128C142 129.333 142.667 130 144 130C145.333 130 146 130.667 146 132C146 133.333 145.333 134 144 134C142.667 134 142 133.333 142 132C142 130.667 141.333 130 140 130C138.333 130 138 130.667 138 134V138H142H146V142C146 145.333 145.667 146 144 146C142.333 146 142 146.667 142 150C142 153.333 141.667 154 140 154C138.667 154 138 154.667 138 156C138 157.905 137.333 158 124 158C110.667 158 110 157.905 110 156C110 154.133 110.667 154 120 154C129.333 154 130 153.867 130 152C130 150.333 129.333 150 126 150H122V144C122 138.667 121.778 138 120 138C118.667 138 118 138.667 118 140C118 141.333 117.333 142 116 142C114.333 142 114 142.667 114 146V150H110H106V144V138H102C98.667 138 98 137.667 98 136C98 134.333 98.667 134 102 134C105.333 134 106 133.667 106 132C106 130.667 105.333 130 104 130C102.667 130 102 129.333 102 128C102 126.667 101.333 126 100 126C98.667 126 98 125.333 98 124C98 122.667 97.333 122 96 122C94.667 122 94 121.333 94 120C94 118.667 94.667 118 96 118C97.333 118 98 118.667 98 120C98 121.667 98.667 122 102 122C105.333 122 106 122.333 106 124C106 125.333 106.667 126 108 126C109.333 126 110 126.667 110 128C110 129.333 110.667 130 112 130C113.333 130 114 129.333 114 128C114 126.333 114.667 126 118 126C121.333 126 122 126.333 122 128C122 129.333 122.667 130 124 130C125.333 130 126 129.333 126 128C126 126.667 126.667 126 128 126C129.333 126 130 125.333 130 124C130 122.667 129.333 122 128 122C126.667 122 126 121.333 126 120C126 118.667 125.333 118 124 118C122.667 118 122 117.333 122 116C122 114.667 121.333 114 120 114C118.333 114 118 113.333 118 110C118 106.667 117.667 106 116 106C114.222 106 114 106.667 114 112C114 117.333 113.778 118 112 118C110.667 118 110 117.333 110 116C110 114.667 109.333 114 108 114C106.667 114 106 113.333 106 112C106 110.667 105.333 110 104 110C102.667 110 102 109.333 102 108C102 106.667 102.667 106 104 106C105.333 106 106 106.667 106 108C106 109.333 106.667 110 108 110C109.333 110 110 109.333 110 108C110 106.667 110.667 106 112 106C113.333 106 114 105.333 114 104C114 102.667 114.667 102 116 102C117.333 102 118 101.333 118 100C118 98.667 118.667 98 120 98C121.833 98 122 98.667 122 106ZM138 116C138 117.333 138.667 118 140 118C141.333 118 142 117.333 142 116C142 114.667 141.333 114 140 114C138.667 114 138 114.667 138 116ZM114 132C114 133.333 114.667 134 116 134C117.333 134 118 133.333 118 132C118 130.667 117.333 130 116 130C114.667 130 114 130.667 114 132ZM130 140C130 149.333 130.133 150 132 150C133.333 150 134 150.667 134 152C134 153.333 134.667 154 136 154C137.333 154 138 153.333 138 152C138 150.667 137.333 150 136 150C134.667 150 134 149.333 134 148C134 146.333 134.667 146 138 146C141.333 146 142 145.667 142 144C142 142.333 141.333 142 138 142H134V136C134 130.667 133.778 130 132 130C130.133 130 130 130.667 130 140ZM166 140C166 141.333 166.667 142 168 142C169.333 142 170 142.667 170 144C170 145.778 170.667 146 176 146H182V142V138H174C166.667 138 166 138.167 166 140Z" fill="white"/>
</g>
<defs>
<filter id="filter0_d_682_16643" x="70" y="90" width="116" height="84" filterUnits="userSpaceOnUse" color-interpolation-filters="sRGB">
<feFlood flood-opacity="0" result="BackgroundImageFix"/>
<feColorMatrix in="SourceAlpha" type="matrix" values="0 0 0 0 0 0 0 0 0 0 0 0 0 0 0 0 0 0 127 0" result="hardAlpha"/>
<feOffset dy="4"/>
<feGaussianBlur stdDeviation="2"/>
<feComposite in2="hardAlpha" operator="out"/>
<feColorMatrix type="matrix" values="0 0 0 0 0 0 0 0 0 0 0 0 0 0 0 0 0 0 0.25 0"/>
<feBlend mode="normal" in2="BackgroundImageFix" result="effect1_dropShadow_682_16643"/>
<feBlend mode="normal" in="SourceGraphic" in2="effect1_dropShadow_682_16643" result="shape"/>
</filter>
<linearGradient id="paint0_linear_682_16643" x1="22.5" y1="79.5" x2="118.5" y2="117" gradientUnits="userSpaceOnUse">
<stop stop-color="#C0F607"/>
<stop offset="1" stop-color="#8DCF29"/>
</linearGradient>
<linearGradient id="paint1_linear_682_16643" x1="123" y1="100" x2="180.5" y2="127" gradientUnits="userSpaceOnUse">
<stop stop-color="#82C631"/>
<stop offset="1" stop-color="#65B044"/>
</linearGradient>
<linearGradient id="paint2_linear_682_16643" x1="190" y1="144.5" x2="237" y2="172.5" gradientUnits="userSpaceOnUse">
<stop stop-color="#50A053"/>
<stop offset="1" stop-color="#2E866A"/>
</linearGradient>
</defs>
</svg>
