<svg width="256" height="256" viewBox="0 0 256 256" fill="none" xmlns="http://www.w3.org/2000/svg">
<path fill-rule="evenodd" clip-rule="evenodd" d="M104.425 42.3784C100.056 37.0733 93.5437 34 86.6712 34H29C22.3726 34 17 39.3726 17 46V58.1371V68.2V160C17 166.627 22.3726 172 29 172H229C235.627 172 241 166.627 241 160V70.1371C241 63.5097 235.627 58.1371 229 58.1371H117.404L104.425 42.3784Z" fill="#8A6795"/>
<mask id="mask0_2391_40149" style="mask-type:alpha" maskUnits="userSpaceOnUse" x="17" y="34" width="224" height="138">
<path fill-rule="evenodd" clip-rule="evenodd" d="M104.425 42.3784C100.056 37.0733 93.5437 34 86.6712 34H29C22.3726 34 17 39.3726 17 46V58.1371V68.2V160C17 166.627 22.3726 172 29 172H229C235.627 172 241 166.627 241 160V70.1371C241 63.5097 235.627 58.1371 229 58.1371H117.404L104.425 42.3784Z" fill="url(#paint0_linear_2391_40149)"/>
</mask>
<g mask="url(#mask0_2391_40149)">
<g style="mix-blend-mode:multiply" filter="url(#filter0_f_2391_40149)">
<path fill-rule="evenodd" clip-rule="evenodd" d="M92.789 74C97.7642 74 102.605 72.3868 106.586 69.4024L116.459 62H229C235.627 62 241 67.3726 241 74V108V160C241 166.627 235.627 172 229 172H29C22.3726 172 17 166.627 17 160L17 108V86C17 79.3726 22.3726 74 29 74H87H92.789Z" fill="black" fill-opacity="0.3"/>
</g>
</g>
<g filter="url(#filter1_ii_2391_40149)">
<path fill-rule="evenodd" clip-rule="evenodd" d="M92.789 74C97.7642 74 102.605 72.3868 106.586 69.4024L116.459 62H229C235.627 62 241 67.3726 241 74V108V198C241 204.627 235.627 210 229 210H29C22.3726 210 17 204.627 17 198L17 108V86C17 79.3726 22.3726 74 29 74H87H92.789Z" fill="url(#paint1_linear_2391_40149)"/>
</g>
<rect x="34.9766" y="154.313" width="27.7557" height="9.02592" rx="4.51296" transform="rotate(15.4426 34.9766 154.313)" stroke="#201F25" stroke-width="0.509554"/>
<path d="M198.777 163.084C198.777 162.68 199.056 162.329 199.45 162.238L225.229 156.271C225.773 156.145 226.293 156.558 226.293 157.117C226.293 157.522 226.014 157.872 225.62 157.964L199.842 163.931C199.297 164.057 198.777 163.643 198.777 163.084Z" fill="#1D1D1E"/>
<path d="M198.777 168.18C198.777 167.776 199.056 167.425 199.45 167.334L225.229 161.367C225.773 161.241 226.293 161.654 226.293 162.213C226.293 162.617 226.014 162.968 225.62 163.059L199.842 169.027C199.297 169.153 198.777 168.739 198.777 168.18Z" fill="#1D1D1E"/>
<path d="M198.777 173.276C198.777 172.872 199.056 172.521 199.45 172.43L225.229 166.462C225.773 166.336 226.293 166.75 226.293 167.309C226.293 167.713 226.014 168.064 225.62 168.155L199.842 174.122C199.297 174.248 198.777 173.835 198.777 173.276Z" fill="#1D1D1E"/>
<path d="M198.777 178.372C198.777 177.967 199.056 177.616 199.45 177.525L225.229 171.558C225.773 171.432 226.293 171.845 226.293 172.404C226.293 172.809 226.014 173.16 225.62 173.251L199.842 179.218C199.297 179.344 198.777 178.93 198.777 178.372Z" fill="#1D1D1E"/>
<path d="M198.777 183.467C198.777 183.063 199.056 182.712 199.45 182.621L225.229 176.654C225.773 176.528 226.293 176.941 226.293 177.5C226.293 177.904 226.014 178.255 225.62 178.346L199.842 184.314C199.297 184.44 198.777 184.026 198.777 183.467Z" fill="#1D1D1E"/>
<circle cx="56.722" cy="165.11" r="3.82166" fill="#1D1D1E"/>
<circle cx="56.4673" cy="165.364" r="3.56688" fill="#BBB4D3"/>
<rect x="35.2324" y="168.581" width="27.7557" height="9.02592" rx="4.51296" transform="rotate(15.4426 35.2324 168.581)" stroke="#201F25" stroke-width="0.509554"/>
<circle cx="56.9779" cy="179.377" r="3.82166" fill="#1D1D1E"/>
<circle cx="56.7231" cy="179.631" r="3.56688" fill="#BBB4D3"/>
<circle cx="204.697" cy="135.134" r="8.40764" fill="#313136"/>
<circle cx="227.117" cy="127.491" r="8.40764" fill="#313136"/>
<circle cx="204.441" cy="135.388" r="7.89809" fill="#BBB4D3"/>
<circle cx="226.863" cy="127.746" r="7.89809" fill="#BBB4D3"/>
<circle cx="205.205" cy="97.4268" r="2.6242" fill="#0B9444" stroke="#5E527C" stroke-width="0.66242"/>
<path d="M224.494 132.586H223.295L225.123 125.707H226.565L228.39 132.586H227.191L225.865 127.279H225.823L224.494 132.586ZM224.42 129.882H227.253V131.017H224.42V129.882Z" fill="#A09DB0"/>
<path d="M200.875 139.72V132.841H202.991C203.379 132.841 203.704 132.916 203.963 133.066C204.223 133.216 204.418 133.424 204.549 133.691C204.68 133.955 204.745 134.259 204.745 134.604C204.745 134.873 204.704 135.109 204.621 135.313C204.539 135.514 204.425 135.68 204.281 135.81C204.138 135.938 203.974 136.028 203.79 136.082V136.149C203.992 136.161 204.18 136.234 204.355 136.371C204.533 136.508 204.676 136.699 204.786 136.945C204.896 137.189 204.951 137.481 204.951 137.819C204.951 138.184 204.882 138.509 204.742 138.796C204.605 139.08 204.401 139.306 204.131 139.471C203.861 139.637 203.528 139.72 203.133 139.72H200.875ZM201.992 138.531H202.903C203.214 138.531 203.441 138.454 203.584 138.299C203.727 138.142 203.798 137.934 203.798 137.674C203.798 137.484 203.763 137.316 203.692 137.17C203.622 137.025 203.521 136.911 203.391 136.828C203.262 136.745 203.108 136.704 202.929 136.704H201.992V138.531ZM201.992 135.719H202.82C202.973 135.719 203.109 135.685 203.228 135.615C203.348 135.544 203.443 135.443 203.512 135.313C203.582 135.183 203.618 135.027 203.618 134.846C203.618 134.598 203.55 134.397 203.414 134.245C203.28 134.093 203.089 134.016 202.841 134.016H201.992V135.719Z" fill="#A09DB0"/>
<path d="M40.7389 114.714C39.1913 114.714 37.9363 115.969 37.9363 117.516V125.16H30.8025C29.255 125.16 28 126.414 28 127.962V134.332C28 135.88 29.255 137.134 30.8025 137.134H37.9363V145.542C37.9363 147.09 39.1913 148.344 40.7389 148.344H46.5987C48.1463 148.344 49.4013 147.09 49.4013 145.542V137.134H57.0446C58.5922 137.134 59.8471 135.88 59.8471 134.332V127.962C59.8471 126.414 58.5922 125.16 57.0446 125.16H49.4013V117.516C49.4013 115.969 48.1463 114.714 46.5987 114.714H40.7389Z" fill="#1D1D1E"/>
<path d="M41.7573 116.242C40.069 116.242 38.7 117.611 38.7 119.3V126.179H31.5662C29.878 126.179 28.5089 127.547 28.5089 129.236V133.567C28.5089 135.256 29.878 136.624 31.5662 136.624H38.7V143.758C38.7 145.447 40.069 146.816 41.7573 146.816H44.8146C46.5029 146.816 47.872 145.447 47.872 143.758V136.624H55.2605C56.9488 136.624 58.3178 135.256 58.3178 133.567V129.236C58.3178 127.547 56.9488 126.179 55.2605 126.179H48.6363V119.3C48.6363 117.611 47.2672 116.242 45.579 116.242H41.7573Z" fill="#BBB4D3" stroke="#0F0F0F" stroke-width="0.509554"/>
<path fill-rule="evenodd" clip-rule="evenodd" d="M42.7039 118.917C42.8019 118.748 43.0471 118.748 43.1451 118.917L45.4619 122.93C45.56 123.1 45.4374 123.312 45.2413 123.312H40.6077C40.4116 123.312 40.289 123.1 40.3871 122.93L42.7039 118.917ZM46.3638 131.401C46.3638 133.301 44.8239 134.841 42.9244 134.841C41.0248 134.841 39.4849 133.301 39.4849 131.401C39.4849 129.502 41.0248 127.962 42.9244 127.962C44.8239 127.962 46.3638 129.502 46.3638 131.401ZM42.6009 143.822C42.699 143.992 42.9441 143.992 43.0422 143.822L45.359 139.809C45.457 139.639 45.3344 139.427 45.1383 139.427H40.5048C40.3087 139.427 40.1861 139.639 40.2842 139.809L42.6009 143.822ZM30.4215 131.604C30.2512 131.507 30.2499 131.262 30.4192 131.163L34.4198 128.825C34.5891 128.726 34.802 128.847 34.8031 129.044L34.8273 133.677C34.8284 133.873 34.6167 133.997 34.4463 133.9L30.4215 131.604ZM55.3262 131.577C55.4955 131.478 55.4943 131.233 55.3239 131.135L51.2991 128.84C51.1287 128.742 50.917 128.866 50.9181 129.062L50.9423 133.696C50.9434 133.892 51.1563 134.013 51.3256 133.914L55.3262 131.577Z" fill="#A6A3B8"/>
<path fill-rule="evenodd" clip-rule="evenodd" d="M80.4314 86.9477C76.2992 87.3551 75.6832 87.624 74.3229 88.3114C71.551 89.7118 69.744 92.2612 68.8457 95.6985C68.5633 96.717 67.762 108.268 66.1707 132.889C63.7324 170.648 63.6165 173.901 64.5148 177.211C65.6185 181.259 68.0585 184.624 71.1385 186.126C84.2584 190.712 114.702 195.424 129.223 195.042V195.064C143.745 195.446 174.191 190.732 187.312 186.146C190.392 184.644 192.833 181.278 193.936 177.229C194.835 173.919 194.719 170.665 192.28 132.898C190.689 108.272 189.887 96.7193 189.605 95.7006C188.707 92.2627 186.9 89.7127 184.127 88.3121C182.767 87.6245 182.151 87.3556 178.018 86.9481C165.396 85.6552 147.336 85.0059 129.223 85C111.112 85.0059 93.0532 85.6551 80.4314 86.9477ZM181.197 96.465L181.707 168.057L76.7431 168.041L77.2526 96.4627L181.197 96.465Z" fill="black"/>
<path d="M181.707 168.057L181.197 96.465L77.2526 96.4627L76.7431 168.041L181.707 168.057Z" fill="#58585A"/>
<path d="M137.218 181.621H136.137V179.426H137.671C138.49 179.426 138.891 179.757 138.891 180.471C138.891 181.342 138.455 181.621 137.218 181.621ZM144.765 178.503H143.51L143.475 178.573L142.063 181.168L140.547 178.573L140.512 178.52H139.17L139.275 178.695L139.536 179.113C139.118 178.712 138.49 178.503 137.671 178.503H134.969V181.883L132.965 178.573L132.93 178.52H131.901L131.867 178.573L129.583 182.405L129.479 182.579H130.367H132.355V181.673H131.187L132.355 179.566L134.01 182.51L134.045 182.562H135.37H137.409C139.17 182.562 140.076 181.865 140.076 180.506C140.076 180.262 140.041 180.053 139.989 179.862L141.593 182.51L141.628 182.562H142.412L142.447 182.51L144.661 178.677L144.765 178.503Z" fill="#ADAFB2"/>
<path d="M152.702 178.503H152.577V180.924L149.456 178.538L149.421 178.503H148.6V181.883L146.549 178.573L146.514 178.503H145.461L145.426 178.573L143.089 182.388L142.982 182.579H144.231H145.943V181.673H144.748L145.943 179.566L147.637 182.51L147.673 182.579H149.028H149.706V180.123L152.827 182.545L152.863 182.579H153.683V178.503H152.702Z" fill="#ADAFB2"/>
<path d="M157.416 178.503H155.045C154.214 178.503 153.938 178.764 153.938 179.531V181.552C153.938 182.318 154.214 182.579 155.045 182.579H157.416C158.247 182.579 158.523 182.318 158.523 181.552V180.977H158.402H157.468H157.347V181.604H155.08V179.461H157.347V180.019H157.468H158.523V179.531C158.523 178.747 158.247 178.503 157.416 178.503Z" fill="#ADAFB2"/>
<path d="M163.244 181.621H160.185V180.907H162.024V180.019H160.185V179.426H163.313V178.503H159.033V182.579H163.364V181.621H163.244Z" fill="#ADAFB2"/>
<path d="M101.723 180.621L102.23 179.472L102.458 180.621H101.723ZM108.708 177.634L107.342 180.869L106.764 177.634H105.574L104.034 182.407L103.246 177.634H101.775L99.5346 182.76L99.8672 180.621H97.644L97.4689 181.717H98.3967L98.2917 182.301C97.7665 182.531 96.8562 182.46 96.4711 181.753C96.226 181.311 95.9984 180.321 97.0313 179.419C97.8715 178.677 99.3245 178.553 100.165 178.942C100.165 178.942 100.27 178.323 100.357 177.74C98.7468 177.174 97.4864 177.652 96.6461 178.164C95.5083 178.871 94.9656 179.967 95.1056 181.452C95.2807 183.167 97.4689 184.245 99.342 183.167C99.3595 183.149 99.377 183.149 99.377 183.149L99.202 183.556H100.462L101.25 181.788H102.633L102.931 183.556H104.961L105.994 180.268L106.659 183.556H107.465L109.023 179.914L109.18 183.556H110.371L110.143 177.634H108.708Z" fill="#ADAFB2"/>
<path d="M110.369 183.344H113.788L113.984 182.136H111.837L112.016 181.146H113.877L114.074 179.938H112.195L112.356 178.948H114.503L114.7 177.739H111.318L110.369 183.344Z" fill="#ADAFB2"/>
<path d="M126.814 179.568L126.058 177.739H124.637L126.094 180.693L125.644 183.344H126.886L127.264 180.995L129.477 177.739H128.038L126.814 179.568Z" fill="#ADAFB2"/>
<path d="M124.007 181.167C123.685 182.114 122.882 182.666 122.239 182.39C121.596 182.114 121.346 181.115 121.668 180.15C121.989 179.202 122.793 178.651 123.435 178.926C124.096 179.219 124.346 180.219 124.007 181.167ZM123.542 177.789C122.186 177.496 120.775 178.53 120.4 180.115C120.025 181.701 120.811 183.235 122.168 183.545C123.525 183.855 124.935 182.804 125.31 181.218C125.685 179.633 124.881 178.099 123.542 177.789Z" fill="#ADAFB2"/>
<path d="M118.304 179.979C117.641 179.979 117.466 179.979 117.466 179.979L117.658 178.931C117.658 178.931 117.676 178.931 118.426 178.931C119.282 178.931 119.125 179.979 118.304 179.979ZM118.165 182.262C117.501 182.262 117.117 182.262 117.117 182.262L117.309 181.146C117.309 181.146 117.554 181.146 118.304 181.146C119.247 181.129 119.229 182.262 118.165 182.262ZM118.863 177.747C118.217 177.73 116.628 177.747 116.628 177.747H116.646L115.721 183.344C115.721 183.344 117.623 183.344 118.409 183.344C119.509 183.344 121.132 181.772 119.666 180.469C121.167 178.947 119.666 177.764 118.863 177.747Z" fill="#ADAFB2"/>
<defs>
<filter id="filter0_f_2391_40149" x="-20" y="25" width="298" height="184" filterUnits="userSpaceOnUse" color-interpolation-filters="sRGB">
<feFlood flood-opacity="0" result="BackgroundImageFix"/>
<feBlend mode="normal" in="SourceGraphic" in2="BackgroundImageFix" result="shape"/>
<feGaussianBlur stdDeviation="18.5" result="effect1_foregroundBlur_2391_40149"/>
</filter>
<filter id="filter1_ii_2391_40149" x="17" y="62" width="224" height="148" filterUnits="userSpaceOnUse" color-interpolation-filters="sRGB">
<feFlood flood-opacity="0" result="BackgroundImageFix"/>
<feBlend mode="normal" in="SourceGraphic" in2="BackgroundImageFix" result="shape"/>
<feColorMatrix in="SourceAlpha" type="matrix" values="0 0 0 0 0 0 0 0 0 0 0 0 0 0 0 0 0 0 127 0" result="hardAlpha"/>
<feOffset dy="4"/>
<feComposite in2="hardAlpha" operator="arithmetic" k2="-1" k3="1"/>
<feColorMatrix type="matrix" values="0 0 0 0 1 0 0 0 0 1 0 0 0 0 1 0 0 0 0.25 0"/>
<feBlend mode="normal" in2="shape" result="effect1_innerShadow_2391_40149"/>
<feColorMatrix in="SourceAlpha" type="matrix" values="0 0 0 0 0 0 0 0 0 0 0 0 0 0 0 0 0 0 127 0" result="hardAlpha"/>
<feOffset dy="-4"/>
<feComposite in2="hardAlpha" operator="arithmetic" k2="-1" k3="1"/>
<feColorMatrix type="matrix" values="0 0 0 0 0 0 0 0 0 0 0 0 0 0 0 0 0 0 0.9 0"/>
<feBlend mode="soft-light" in2="effect1_innerShadow_2391_40149" result="effect2_innerShadow_2391_40149"/>
</filter>
<linearGradient id="paint0_linear_2391_40149" x1="17" y1="34" x2="197.768" y2="215.142" gradientUnits="userSpaceOnUse">
<stop stop-color="#05815D"/>
<stop offset="1" stop-color="#0C575F"/>
</linearGradient>
<linearGradient id="paint1_linear_2391_40149" x1="17" y1="62" x2="241" y2="210" gradientUnits="userSpaceOnUse">
<stop stop-color="#653E82"/>
<stop offset="1" stop-color="#544389"/>
</linearGradient>
</defs>
</svg>
