<svg width="256" height="256" viewBox="0 0 256 256" fill="none" xmlns="http://www.w3.org/2000/svg">
<path fill-rule="evenodd" clip-rule="evenodd" d="M104.425 42.3784C100.056 37.0733 93.5437 34 86.6712 34H29C22.3726 34 17 39.3726 17 46V58.1371V68.2V160C17 166.627 22.3726 172 29 172H229C235.627 172 241 166.627 241 160V70.1371C241 63.5097 235.627 58.1371 229 58.1371H117.404L104.425 42.3784Z" fill="#301F06"/>
<mask id="mask0_610_14323" style="mask-type:alpha" maskUnits="userSpaceOnUse" x="17" y="34" width="224" height="138">
<path fill-rule="evenodd" clip-rule="evenodd" d="M104.425 42.3784C100.056 37.0733 93.5437 34 86.6712 34H29C22.3726 34 17 39.3726 17 46V58.1371V68.2V160C17 166.627 22.3726 172 29 172H229C235.627 172 241 166.627 241 160V70.1371C241 63.5097 235.627 58.1371 229 58.1371H117.404L104.425 42.3784Z" fill="url(#paint0_linear_610_14323)"/>
</mask>
<g mask="url(#mask0_610_14323)">
<g style="mix-blend-mode:multiply" filter="url(#filter0_f_610_14323)">
<path fill-rule="evenodd" clip-rule="evenodd" d="M92.789 74C97.7642 74 102.605 72.3868 106.586 69.4024L116.459 62H229C235.627 62 241 67.3726 241 74V108V160C241 166.627 235.627 172 229 172H29C22.3726 172 17 166.627 17 160L17 108V86C17 79.3726 22.3726 74 29 74H87H92.789Z" fill="black" fill-opacity="0.3"/>
</g>
</g>
<g filter="url(#filter1_ii_610_14323)">
<path fill-rule="evenodd" clip-rule="evenodd" d="M92.789 74C97.7642 74 102.605 72.3868 106.586 69.4024L116.459 62H229C235.627 62 241 67.3726 241 74V108V198C241 204.627 235.627 210 229 210H29C22.3726 210 17 204.627 17 198L17 108V86C17 79.3726 22.3726 74 29 74H87H92.789Z" fill="url(#paint1_linear_610_14323)"/>
</g>
<path fill-rule="evenodd" clip-rule="evenodd" d="M65.1892 110.087C65.1892 110.136 64.933 110.173 64.5941 110.173C64.2669 110.173 63.7889 110.216 63.532 110.268C63.0158 110.372 62.1595 110.504 61.5261 110.576C61.2996 110.602 61.1143 110.659 61.1143 110.702C61.1143 110.745 60.9387 110.78 60.7241 110.78C60.5096 110.78 60.334 110.819 60.334 110.867C60.334 110.914 60.2352 110.953 60.1145 110.953C59.9937 110.953 59.7548 111.012 59.5837 111.083C59.4125 111.155 59.1992 111.213 59.1096 111.213C59.0201 111.213 58.9468 111.252 58.9468 111.3C58.9468 111.348 58.8102 111.387 58.6433 111.387C58.4765 111.387 58.3399 111.426 58.3399 111.473C58.3399 111.521 58.2229 111.56 58.0798 111.56C57.9367 111.56 57.8197 111.599 57.8197 111.647C57.8197 111.694 57.7643 111.733 57.6967 111.733C57.6291 111.733 57.4437 111.799 57.2849 111.878C56.7586 112.142 56.696 112.167 56.5638 112.167C56.4916 112.167 56.4325 112.206 56.4325 112.253C56.4325 112.301 56.335 112.34 56.2158 112.34C56.0966 112.34 55.999 112.379 55.999 112.427C55.999 112.474 55.9238 112.513 55.8318 112.513C55.7399 112.513 55.6061 112.572 55.5346 112.643C55.463 112.715 55.3432 112.773 55.2682 112.773C55.1933 112.773 55.132 112.812 55.132 112.86C55.132 112.908 55.0345 112.947 54.9153 112.947C54.7961 112.947 54.6985 112.986 54.6985 113.033C54.6985 113.081 54.6567 113.12 54.6057 113.12C54.5545 113.12 54.4584 113.169 54.3919 113.228C54.0912 113.498 54.0036 113.554 53.8785 113.554C53.805 113.554 53.7448 113.593 53.7448 113.64C53.7448 113.688 53.6559 113.727 53.5472 113.727C53.4385 113.727 53.2934 113.805 53.2246 113.9C53.1559 113.996 53.0591 114.074 53.0095 114.074C52.9599 114.074 52.8142 114.171 52.6856 114.29C52.5571 114.409 52.3917 114.507 52.3181 114.507C52.2445 114.507 52.1842 114.546 52.1842 114.594C52.1842 114.641 52.1455 114.68 52.0982 114.68C52.02 114.68 51.7313 114.899 51.4419 115.179C51.3802 115.238 51.3055 115.287 51.2761 115.287C51.2468 115.287 51.1288 115.375 51.0141 115.482C50.7103 115.766 50.5504 115.894 50.4988 115.894C50.4737 115.894 50.2701 116.069 50.0461 116.284C49.8222 116.498 49.608 116.674 49.5702 116.674C49.4878 116.674 47.7626 118.403 47.7626 118.485C47.7626 118.517 47.5675 118.747 47.3291 118.997C47.0906 119.247 46.8956 119.471 46.8956 119.496C46.8956 119.547 46.767 119.708 46.4837 120.011C46.3764 120.125 46.2887 120.26 46.2887 120.31C46.2887 120.36 46.2544 120.401 46.2125 120.401C46.1706 120.401 46.0878 120.518 46.0286 120.661C45.9694 120.804 45.8671 120.921 45.8013 120.921C45.7355 120.921 45.6818 120.979 45.6818 121.051C45.6818 121.122 45.6428 121.181 45.5951 121.181C45.5474 121.181 45.5084 121.259 45.5084 121.354C45.5084 121.449 45.4755 121.527 45.4353 121.527C45.3951 121.527 45.2888 121.664 45.1989 121.831C45.1089 121.997 45.0053 122.134 44.9685 122.134C44.9316 122.134 44.9015 122.212 44.9015 122.307C44.9015 122.403 44.8625 122.481 44.8148 122.481C44.7671 122.481 44.7281 122.539 44.7281 122.611C44.7281 122.682 44.6891 122.741 44.6414 122.741C44.5937 122.741 44.5547 122.802 44.5547 122.877C44.5547 122.952 44.506 123.067 44.4463 123.134C44.1696 123.442 44.1212 123.525 44.1212 123.69C44.1212 123.788 44.0822 123.867 44.0345 123.867C43.9868 123.867 43.9478 123.945 43.9478 124.041C43.9478 124.136 43.913 124.214 43.8704 124.214C43.828 124.214 43.7687 124.312 43.7388 124.431C43.7088 124.55 43.6461 124.647 43.5993 124.647C43.5525 124.647 43.5143 124.725 43.5143 124.821C43.5143 124.916 43.4753 124.994 43.4276 124.994C43.3799 124.994 43.3409 125.092 43.3409 125.211C43.3409 125.33 43.3019 125.427 43.2542 125.427C43.2065 125.427 43.1675 125.525 43.1675 125.644C43.1675 125.763 43.1285 125.861 43.0808 125.861C43.0331 125.861 42.9941 125.918 42.9941 125.988C42.9941 126.145 42.7147 126.76 42.6256 126.8C42.5899 126.816 42.5606 126.962 42.5606 127.125C42.5606 127.288 42.5216 127.421 42.4739 127.421C42.4262 127.421 42.3872 127.538 42.3872 127.681C42.3872 127.824 42.3482 127.941 42.3005 127.941C42.2528 127.941 42.2124 128.068 42.2108 128.223C42.209 128.377 42.1519 128.602 42.0837 128.721C42.0156 128.84 41.9585 129.025 41.9567 129.133C41.9551 129.24 41.9147 129.328 41.867 129.328C41.8193 129.328 41.7803 129.503 41.7803 129.718C41.7803 129.932 41.7413 130.108 41.6936 130.108C41.6459 130.108 41.6069 130.322 41.6069 130.584C41.6069 130.847 41.5724 131.061 41.5303 131.061C41.4882 131.061 41.4316 131.305 41.4046 131.603C41.3777 131.901 41.3169 132.339 41.2696 132.578C41.2224 132.816 41.1814 133.313 41.1786 133.683C41.1756 134.069 41.1366 134.355 41.0867 134.355C41.0322 134.355 41 134.918 41 135.871C41 136.825 41.0322 137.388 41.0867 137.388C41.1366 137.388 41.1756 137.673 41.1786 138.06C41.1814 138.429 41.2224 138.926 41.2696 139.165C41.3169 139.403 41.3777 139.842 41.4046 140.14C41.4316 140.438 41.4882 140.681 41.5303 140.681C41.5724 140.681 41.6069 140.896 41.6069 141.158C41.6069 141.42 41.6459 141.635 41.6936 141.635C41.7413 141.635 41.7803 141.81 41.7803 142.025C41.7803 142.239 41.8193 142.415 41.867 142.415C41.9147 142.415 41.9551 142.503 41.9567 142.61C41.9585 142.717 42.0156 142.902 42.0837 143.022C42.1519 143.141 42.209 143.365 42.2108 143.52C42.2124 143.675 42.2528 143.802 42.3005 143.802C42.3482 143.802 42.3872 143.919 42.3872 144.062C42.3872 144.205 42.4262 144.322 42.4739 144.322C42.5216 144.322 42.5606 144.455 42.5606 144.618C42.5606 144.781 42.5899 144.927 42.6256 144.943C42.7147 144.982 42.9941 145.598 42.9941 145.755C42.9941 145.825 43.0331 145.882 43.0808 145.882C43.1285 145.882 43.1675 145.979 43.1675 146.098C43.1675 146.218 43.2065 146.315 43.2542 146.315C43.3019 146.315 43.3409 146.413 43.3409 146.532C43.3409 146.651 43.3799 146.748 43.4276 146.748C43.4753 146.748 43.5143 146.826 43.5143 146.922C43.5143 147.017 43.5525 147.095 43.5993 147.095C43.6461 147.095 43.7088 147.193 43.7388 147.312C43.7687 147.431 43.828 147.528 43.8704 147.528C43.913 147.528 43.9478 147.606 43.9478 147.702C43.9478 147.797 43.9868 147.875 44.0345 147.875C44.0822 147.875 44.1212 147.956 44.1212 148.055C44.1212 148.153 44.17 148.289 44.2296 148.355C44.4993 148.656 44.5547 148.743 44.5547 148.868C44.5547 148.942 44.5937 149.002 44.6414 149.002C44.6891 149.002 44.7281 149.06 44.7281 149.132C44.7281 149.203 44.7671 149.262 44.8148 149.262C44.8625 149.262 44.9015 149.34 44.9015 149.435C44.9015 149.531 44.9316 149.609 44.9685 149.609C45.0053 149.609 45.1089 149.745 45.1989 149.912C45.2888 150.079 45.3951 150.215 45.4353 150.215C45.4755 150.215 45.5084 150.293 45.5084 150.389C45.5084 150.484 45.5474 150.562 45.5951 150.562C45.6428 150.562 45.6818 150.62 45.6818 150.692C45.6818 150.763 45.7355 150.822 45.8013 150.822C45.8671 150.822 45.9694 150.939 46.0286 151.082C46.0878 151.225 46.1706 151.342 46.2125 151.342C46.2544 151.342 46.2887 151.383 46.2887 151.433C46.2887 151.482 46.3764 151.617 46.4837 151.732C46.767 152.035 46.8956 152.195 46.8956 152.246C46.8956 152.271 47.0906 152.496 47.3291 152.746C47.5675 152.995 47.7626 153.227 47.7626 153.26C47.7626 153.338 49.4071 154.982 49.4854 154.982C49.5183 154.982 49.7499 155.177 49.9998 155.416C50.2498 155.654 50.4746 155.849 50.4993 155.849C50.5504 155.849 50.7111 155.977 51.0141 156.261C51.1288 156.368 51.2436 156.456 51.2693 156.456C51.3143 156.456 51.6542 156.73 51.8862 156.954C51.9479 157.014 52.0402 157.062 52.0914 157.062C52.1424 157.062 52.1842 157.101 52.1842 157.149C52.1842 157.197 52.2623 157.236 52.3576 157.236C52.453 157.236 52.531 157.266 52.531 157.304C52.531 157.341 52.6579 157.445 52.8128 157.536C52.9677 157.626 53.1577 157.771 53.2348 157.858C53.3119 157.945 53.4582 158.016 53.5599 158.016C53.6616 158.016 53.7448 158.055 53.7448 158.102C53.7448 158.15 53.8061 158.189 53.881 158.189C53.956 158.189 54.0717 158.238 54.1382 158.297C54.4467 158.574 54.5296 158.622 54.6949 158.622C54.7922 158.622 54.8719 158.661 54.8719 158.709C54.8719 158.757 54.9304 158.796 55.002 158.796C55.0735 158.796 55.132 158.835 55.132 158.882C55.132 158.93 55.1933 158.969 55.2682 158.969C55.3432 158.969 55.463 159.028 55.5346 159.099C55.6061 159.171 55.7399 159.229 55.8318 159.229C55.9238 159.229 55.999 159.268 55.999 159.316C55.999 159.363 56.0966 159.402 56.2158 159.402C56.335 159.402 56.4325 159.441 56.4325 159.489C56.4325 159.537 56.4916 159.576 56.5638 159.576C56.696 159.576 56.7586 159.601 57.2849 159.864C57.4437 159.944 57.6291 160.009 57.6967 160.009C57.7643 160.009 57.8197 160.048 57.8197 160.096C57.8197 160.143 57.9367 160.182 58.0798 160.182C58.2229 160.182 58.3399 160.221 58.3399 160.269C58.3399 160.317 58.4765 160.356 58.6433 160.356C58.8102 160.356 58.9468 160.395 58.9468 160.442C58.9468 160.49 59.0201 160.529 59.1096 160.529C59.1992 160.529 59.4125 160.588 59.5837 160.659C59.7548 160.731 59.9937 160.789 60.1145 160.789C60.2352 160.789 60.334 160.828 60.334 160.876C60.334 160.923 60.5096 160.962 60.7241 160.962C60.9387 160.962 61.1143 161.001 61.1143 161.049C61.1143 161.097 61.307 161.136 61.5427 161.136C61.7783 161.136 61.9952 161.175 62.0246 161.222C62.0541 161.27 62.2222 161.309 62.3982 161.309C62.5743 161.309 62.9914 161.367 63.3251 161.438C63.6589 161.508 64.2148 161.567 64.5606 161.568C64.9208 161.569 65.1892 161.606 65.1892 161.656C65.1892 161.71 65.7672 161.742 66.7498 161.742C67.7323 161.742 68.3103 161.71 68.3103 161.656C68.3103 161.607 68.5811 161.567 68.9389 161.564C69.2847 161.561 69.7626 161.52 70.001 161.474C70.2394 161.427 70.6595 161.366 70.9344 161.338C71.2093 161.311 71.4555 161.254 71.4814 161.212C71.5073 161.17 71.7407 161.136 72.0002 161.136C72.2597 161.136 72.4719 161.097 72.4719 161.049C72.4719 161.001 72.6475 160.962 72.8621 160.962C73.0767 160.962 73.2522 160.923 73.2522 160.876C73.2522 160.828 73.34 160.789 73.4473 160.789C73.5546 160.788 73.7541 160.73 73.8907 160.659C74.0273 160.587 74.2298 160.529 74.3407 160.529C74.4517 160.529 74.5666 160.49 74.5961 160.442C74.6255 160.395 74.7643 160.356 74.9046 160.356C75.0449 160.356 75.1596 160.317 75.1596 160.269C75.1596 160.221 75.2794 160.182 75.4259 160.182C75.5724 160.182 75.7458 160.129 75.8112 160.063C75.8767 159.998 76.108 159.892 76.3253 159.828C76.5425 159.764 76.7202 159.681 76.7202 159.643C76.7202 159.606 76.8177 159.576 76.9369 159.576C77.0562 159.576 77.1537 159.537 77.1537 159.489C77.1537 159.441 77.2317 159.402 77.3271 159.402C77.4225 159.402 77.5005 159.363 77.5005 159.316C77.5005 159.268 77.5559 159.229 77.6235 159.229C77.7682 159.229 78.3111 158.955 78.353 158.861C78.369 158.825 78.4567 158.796 78.5481 158.796C78.6396 158.796 78.7143 158.757 78.7143 158.709C78.7143 158.661 78.7923 158.622 78.8877 158.622C78.9831 158.622 79.0611 158.588 79.0611 158.545C79.0611 158.503 79.1586 158.443 79.2778 158.413C79.397 158.383 79.4946 158.321 79.4946 158.274C79.4946 158.227 79.5726 158.189 79.668 158.189C79.7634 158.189 79.8414 158.15 79.8414 158.102C79.8414 158.055 79.8999 158.016 79.9714 158.016C80.043 158.016 80.1015 157.977 80.1015 157.929C80.1015 157.881 80.158 157.842 80.227 157.842C80.2961 157.842 80.4579 157.745 80.5866 157.626C80.7151 157.506 80.8646 157.409 80.9186 157.409C80.9727 157.409 81.0731 157.331 81.1419 157.236C81.2106 157.14 81.3187 157.062 81.3819 157.062C81.4451 157.062 81.5873 156.965 81.6978 156.846C81.8083 156.726 81.9539 156.629 82.0214 156.629C82.0888 156.629 82.2002 156.551 82.269 156.456C82.3377 156.36 82.4262 156.282 82.4654 156.282C82.5048 156.282 82.6309 156.194 82.7456 156.087C83.0468 155.806 83.2091 155.676 83.2592 155.676C83.3302 155.676 85.9373 153.055 86.126 152.794C86.2207 152.663 86.3476 152.555 86.4077 152.555C86.468 152.555 86.5172 152.497 86.5172 152.425C86.5172 152.354 86.5467 152.295 86.5828 152.295C86.6189 152.295 86.7001 152.178 86.7635 152.035C86.8268 151.892 86.9171 151.775 86.9642 151.775C87.0961 151.775 87.2975 151.544 87.2975 151.391C87.2975 151.317 87.3366 151.255 87.3842 151.255C87.4319 151.255 87.4709 151.197 87.4709 151.125C87.4709 151.054 87.5015 150.995 87.5389 150.995C87.5764 150.995 87.6808 150.869 87.7712 150.714C87.8615 150.559 88.0065 150.369 88.0934 150.292C88.1802 150.215 88.2512 150.088 88.2512 150.01C88.2512 149.932 88.2902 149.869 88.3379 149.869C88.3856 149.869 88.4246 149.827 88.4246 149.776C88.4246 149.725 88.4734 149.629 88.533 149.562C88.8098 149.254 88.8581 149.171 88.8581 149.006C88.8581 148.908 88.8873 148.828 88.9232 148.828C88.959 148.828 89.1038 148.614 89.2452 148.352C89.3867 148.089 89.5329 147.875 89.5704 147.875C89.6078 147.875 89.6384 147.778 89.6384 147.658C89.6384 147.539 89.6774 147.442 89.7251 147.442C89.7728 147.442 89.8118 147.364 89.8118 147.268C89.8118 147.173 89.8508 147.095 89.8985 147.095C89.9462 147.095 89.9864 147.027 89.988 146.943C89.9895 146.86 90.048 146.716 90.118 146.624C90.188 146.531 90.2453 146.385 90.2453 146.299C90.2453 146.212 90.2843 146.142 90.332 146.142C90.3797 146.142 90.4187 146.044 90.4187 145.925C90.4187 145.806 90.4577 145.708 90.5054 145.708C90.5531 145.708 90.5921 145.611 90.5921 145.492C90.5921 145.373 90.6216 145.275 90.6576 145.275C90.729 145.275 90.924 144.767 90.9986 144.387C91.0242 144.256 91.0799 144.148 91.1221 144.148C91.1644 144.148 91.199 144.012 91.199 143.845C91.199 143.678 91.238 143.542 91.2857 143.542C91.3334 143.542 91.3724 143.427 91.3724 143.287C91.3724 143.146 91.4071 143.01 91.4496 142.984C91.492 142.958 91.5491 142.809 91.5764 142.654C91.7043 141.929 91.8494 141.375 91.9113 141.375C91.9487 141.375 91.9793 141.121 91.9793 140.811C91.9793 140.502 92.0151 140.248 92.0589 140.248C92.1475 140.248 92.1902 139.818 92.3353 137.461C92.4105 136.242 92.4103 135.455 92.3346 134.255C92.1761 131.739 92.144 131.408 92.0592 131.408C92.0152 131.408 91.9793 131.174 91.9793 130.888C91.9793 130.602 91.9487 130.368 91.9113 130.368C91.8494 130.368 91.7043 129.813 91.5764 129.088C91.5491 128.933 91.492 128.785 91.4496 128.758C91.4071 128.732 91.3724 128.596 91.3724 128.456C91.3724 128.316 91.3334 128.201 91.2857 128.201C91.238 128.201 91.199 128.064 91.199 127.898C91.199 127.731 91.1644 127.594 91.1221 127.594C91.0799 127.594 91.0242 127.487 90.9986 127.356C90.924 126.976 90.729 126.467 90.6576 126.467C90.6216 126.467 90.5921 126.37 90.5921 126.251C90.5921 126.132 90.5531 126.034 90.5054 126.034C90.4577 126.034 90.4187 125.937 90.4187 125.817C90.4187 125.698 90.3797 125.601 90.332 125.601C90.2843 125.601 90.2453 125.53 90.2453 125.444C90.2453 125.358 90.188 125.212 90.118 125.119C90.048 125.026 89.9895 124.883 89.988 124.799C89.9864 124.716 89.9462 124.647 89.8985 124.647C89.8508 124.647 89.8118 124.569 89.8118 124.474C89.8118 124.379 89.7728 124.301 89.7251 124.301C89.6774 124.301 89.6384 124.203 89.6384 124.084C89.6384 123.965 89.6078 123.867 89.5704 123.867C89.5329 123.867 89.3867 123.653 89.2452 123.391C89.1038 123.129 88.959 122.914 88.9232 122.914C88.8873 122.914 88.8581 122.833 88.8581 122.734C88.8581 122.636 88.8094 122.501 88.7498 122.434C88.4924 122.147 88.4246 122.049 88.4246 121.964C88.4246 121.915 88.3856 121.874 88.3379 121.874C88.2902 121.874 88.2512 121.804 88.2512 121.72C88.2512 121.635 88.1732 121.509 88.0778 121.441C87.9825 121.372 87.9044 121.275 87.9044 121.226C87.9044 121.176 87.8069 121.03 87.6877 120.902C87.5685 120.773 87.4709 120.627 87.4709 120.578C87.4709 120.528 87.4319 120.487 87.3842 120.487C87.3366 120.487 87.2975 120.426 87.2975 120.351C87.2975 120.199 87.0961 119.967 86.9642 119.967C86.9171 119.967 86.8268 119.85 86.7635 119.707C86.7001 119.564 86.6189 119.447 86.5828 119.447C86.5467 119.447 86.5172 119.395 86.5172 119.332C86.5172 119.268 86.4197 119.164 86.3005 119.1C86.1813 119.037 86.0837 118.95 86.0837 118.908C86.0837 118.829 83.3401 116.067 83.2609 116.067C83.2092 116.067 83.0493 115.939 82.7456 115.655C82.6309 115.548 82.5048 115.46 82.4654 115.46C82.4262 115.46 82.3377 115.382 82.269 115.287C82.2002 115.192 82.0888 115.114 82.0214 115.114C81.9539 115.114 81.8083 115.016 81.6978 114.897C81.5873 114.778 81.4451 114.68 81.3819 114.68C81.3187 114.68 81.2106 114.602 81.1419 114.507C81.0731 114.412 80.9764 114.334 80.9268 114.334C80.8772 114.334 80.7314 114.236 80.6029 114.117C80.4744 113.998 80.309 113.9 80.2353 113.9C80.1617 113.9 80.1015 113.861 80.1015 113.814C80.1015 113.766 80.043 113.727 79.9714 113.727C79.8999 113.727 79.8414 113.688 79.8414 113.64C79.8414 113.593 79.7634 113.554 79.668 113.554C79.5726 113.554 79.4946 113.515 79.4946 113.468C79.4946 113.422 79.397 113.359 79.2778 113.329C79.1586 113.299 79.0611 113.24 79.0611 113.197C79.0611 113.155 78.9831 113.12 78.8877 113.12C78.7923 113.12 78.7143 113.081 78.7143 113.033C78.7143 112.986 78.6395 112.947 78.5481 112.947C78.4567 112.947 78.369 112.918 78.353 112.882C78.3111 112.788 77.7682 112.513 77.6235 112.513C77.5559 112.513 77.5005 112.474 77.5005 112.427C77.5005 112.379 77.4225 112.34 77.3271 112.34C77.2317 112.34 77.1537 112.301 77.1537 112.253C77.1537 112.206 77.0562 112.167 76.9369 112.167C76.8177 112.167 76.7202 112.128 76.7202 112.08C76.7202 112.032 76.663 111.993 76.5931 111.993C76.4363 111.993 75.8205 111.714 75.781 111.625C75.765 111.589 75.6188 111.56 75.4559 111.56C75.2929 111.56 75.1596 111.521 75.1596 111.473C75.1596 111.426 75.0449 111.387 74.9046 111.387C74.7643 111.387 74.6255 111.348 74.5961 111.3C74.5666 111.252 74.4517 111.213 74.3407 111.213C74.2298 111.213 74.0273 111.155 73.8907 111.084C73.7541 111.013 73.5546 110.954 73.4473 110.954C73.34 110.954 73.2522 110.914 73.2522 110.867C73.2522 110.819 73.0767 110.78 72.8621 110.78C72.6475 110.78 72.4719 110.741 72.4719 110.693C72.4719 110.646 72.2597 110.607 72.0002 110.607C71.7407 110.607 71.5073 110.572 71.4814 110.531C71.4555 110.489 71.2093 110.432 70.9344 110.404C70.6595 110.377 70.2394 110.316 70.001 110.269C69.7626 110.222 69.2847 110.181 68.9389 110.179C68.5811 110.176 68.3103 110.136 68.3103 110.087C68.3103 110.032 67.7323 110 66.7498 110C65.7672 110 65.1892 110.032 65.1892 110.087ZM68.3103 113.814C68.3103 113.866 68.6716 113.9 69.2207 113.9C69.7698 113.9 70.131 113.935 70.131 113.987C70.131 114.035 70.3456 114.074 70.6079 114.074C70.8701 114.074 71.0847 114.113 71.0847 114.16C71.0847 114.208 71.2258 114.247 71.3982 114.247C71.7253 114.247 72.5807 114.502 72.6308 114.615C72.6468 114.651 72.8321 114.68 73.0427 114.68C73.2533 114.68 73.4256 114.719 73.4256 114.767C73.4256 114.815 73.4866 114.854 73.561 114.854C73.7629 114.854 74.5482 115.123 74.6025 115.211C74.6284 115.253 74.7253 115.287 74.8179 115.287C74.9105 115.287 74.9862 115.326 74.9862 115.374C74.9862 115.421 75.0837 115.46 75.203 115.46C75.3222 115.46 75.4197 115.491 75.4197 115.528C75.4197 115.565 75.5974 115.648 75.8146 115.712C76.0319 115.776 76.2632 115.882 76.3287 115.948C76.3941 116.013 76.509 116.067 76.584 116.067C76.6589 116.067 76.7202 116.106 76.7202 116.154C76.7202 116.201 76.7738 116.24 76.8393 116.24C76.9606 116.24 77.9619 116.788 78.1074 116.934C78.1312 116.958 78.2678 117.036 78.4108 117.107C78.6727 117.238 78.7922 117.319 79.0145 117.519C79.081 117.578 79.1686 117.627 79.2092 117.627C79.2497 117.627 79.3391 117.705 79.4079 117.8C79.4766 117.896 79.588 117.974 79.6552 117.974C79.7225 117.974 79.9063 118.11 80.0638 118.277C80.2211 118.444 80.3983 118.58 80.4573 118.58C80.5163 118.58 80.7329 118.756 80.9386 118.97C81.1441 119.185 81.3337 119.36 81.3597 119.36C81.4151 119.36 81.8969 119.801 82.2938 120.214C82.447 120.373 82.7577 120.694 82.9842 120.927C83.2108 121.16 83.3961 121.37 83.3961 121.395C83.3961 121.42 83.5326 121.585 83.6995 121.762C83.8664 121.939 84.003 122.116 84.003 122.155C84.003 122.194 84.1395 122.363 84.3064 122.53C84.4733 122.697 84.6099 122.882 84.6099 122.941C84.6099 123 84.6879 123.105 84.7833 123.174C84.8786 123.243 84.9567 123.368 84.9567 123.453C84.9567 123.538 84.9957 123.607 85.0434 123.607C85.091 123.607 85.13 123.666 85.13 123.737C85.13 123.809 85.1886 123.867 85.2601 123.867C85.3323 123.867 85.3901 123.944 85.3901 124.041C85.3901 124.136 85.4292 124.214 85.4768 124.214C85.5245 124.214 85.5635 124.273 85.5635 124.344C85.5635 124.416 85.6026 124.474 85.6502 124.474C85.6979 124.474 85.7369 124.552 85.7369 124.647C85.7369 124.743 85.7662 124.821 85.802 124.821C85.8892 124.822 86.1704 125.323 86.1704 125.478C86.1704 125.545 86.2095 125.601 86.2571 125.601C86.3048 125.601 86.3438 125.679 86.3438 125.774C86.3438 125.869 86.3829 125.947 86.4305 125.947C86.4782 125.947 86.5172 126.045 86.5172 126.164C86.5172 126.283 86.5465 126.381 86.5823 126.381C86.6695 126.382 86.9507 126.883 86.9507 127.038C86.9507 127.105 86.9898 127.161 87.0374 127.161C87.0851 127.161 87.1241 127.258 87.1241 127.378C87.1241 127.497 87.1632 127.594 87.2108 127.594C87.2585 127.594 87.2975 127.711 87.2975 127.854C87.2975 127.997 87.3366 128.114 87.3842 128.114C87.4319 128.114 87.4709 128.204 87.4709 128.314C87.4709 128.424 87.5282 128.59 87.5982 128.683C87.6683 128.775 87.7268 128.958 87.7283 129.089C87.7298 129.22 87.77 129.328 87.8177 129.328C87.8654 129.328 87.9044 129.464 87.9044 129.631C87.9044 129.798 87.9434 129.934 87.9911 129.934C88.0388 129.934 88.0778 130.11 88.0778 130.324C88.0778 130.539 88.1094 130.714 88.1481 130.714C88.2299 130.714 88.4167 131.588 88.4815 132.274C88.5063 132.537 88.5621 132.788 88.6057 132.833C88.6492 132.879 88.6847 133.337 88.6847 133.852C88.6847 134.418 88.719 134.788 88.7714 134.788C88.8246 134.788 88.8581 135.207 88.8581 135.871C88.8581 136.536 88.8246 136.955 88.7714 136.955C88.719 136.955 88.6847 137.324 88.6847 137.891C88.6847 138.405 88.6492 138.864 88.6057 138.909C88.5621 138.954 88.5063 139.206 88.4815 139.468C88.4167 140.155 88.2299 141.028 88.1481 141.028C88.1094 141.028 88.0778 141.204 88.0778 141.418C88.0778 141.633 88.0388 141.808 87.9911 141.808C87.9434 141.808 87.9044 141.945 87.9044 142.112C87.9044 142.278 87.8654 142.415 87.8177 142.415C87.77 142.415 87.7298 142.522 87.7283 142.653C87.7268 142.784 87.6683 142.967 87.5982 143.06C87.5282 143.152 87.4709 143.318 87.4709 143.428C87.4709 143.538 87.4319 143.628 87.3842 143.628C87.3366 143.628 87.2975 143.745 87.2975 143.888C87.2975 144.031 87.2585 144.148 87.2108 144.148C87.1632 144.148 87.1241 144.246 87.1241 144.365C87.1241 144.484 87.0851 144.582 87.0374 144.582C86.9898 144.582 86.9507 144.637 86.9507 144.705C86.9507 144.859 86.6695 145.36 86.5823 145.361C86.5465 145.361 86.5172 145.459 86.5172 145.578C86.5172 145.698 86.4782 145.795 86.4305 145.795C86.3829 145.795 86.3438 145.873 86.3438 145.968C86.3438 146.064 86.3048 146.142 86.2571 146.142C86.2095 146.142 86.1704 146.197 86.1704 146.265C86.1704 146.419 85.8892 146.92 85.802 146.921C85.7662 146.922 85.7369 147 85.7369 147.095C85.7369 147.19 85.6979 147.268 85.6502 147.268C85.6026 147.268 85.5635 147.327 85.5635 147.398C85.5635 147.47 85.5245 147.528 85.4768 147.528C85.4292 147.528 85.3901 147.606 85.3901 147.702C85.3901 147.798 85.3323 147.875 85.2601 147.875C85.1886 147.875 85.13 147.934 85.13 148.005C85.13 148.077 85.091 148.135 85.0434 148.135C84.9957 148.135 84.9567 148.195 84.9567 148.269C84.9567 148.343 84.8591 148.501 84.7399 148.62C84.6207 148.739 84.5232 148.868 84.5232 148.906C84.5232 148.945 84.4061 149.099 84.2631 149.248C84.12 149.398 84.003 149.552 84.003 149.59C84.003 149.628 83.8664 149.804 83.6995 149.981C83.5326 150.158 83.3961 150.323 83.3961 150.348C83.3961 150.373 83.162 150.629 82.8759 150.916C82.5898 151.202 82.3557 151.474 82.3557 151.52C82.3557 151.565 82.3164 151.602 82.2684 151.602C82.2205 151.602 82.0082 151.778 81.7966 151.992C81.5851 152.207 81.3896 152.382 81.3622 152.382C81.3348 152.382 81.1441 152.558 80.9386 152.772C80.7329 152.987 80.5163 153.162 80.4573 153.162C80.3983 153.162 80.2211 153.299 80.0638 153.465C79.9063 153.632 79.7225 153.769 79.6552 153.769C79.588 153.769 79.4766 153.847 79.4079 153.942C79.3391 154.037 79.2509 154.115 79.2117 154.115C79.1461 154.115 79.0595 154.177 78.7763 154.424C78.7184 154.475 78.5442 154.572 78.3892 154.64C78.2341 154.709 78.1074 154.794 78.1074 154.83C78.1074 154.866 78.0294 154.895 77.934 154.895C77.8386 154.895 77.7606 154.935 77.7606 154.984C77.7606 155.032 77.624 155.137 77.4571 155.216C77.2902 155.296 77.1537 155.393 77.1537 155.432C77.1537 155.47 77.0562 155.502 76.9369 155.502C76.8177 155.502 76.7202 155.541 76.7202 155.589C76.7202 155.637 76.6589 155.676 76.584 155.676C76.509 155.676 76.3941 155.729 76.3287 155.795C76.2632 155.86 76.0319 155.966 75.8146 156.03C75.5974 156.094 75.4197 156.177 75.4197 156.214C75.4197 156.252 75.3222 156.282 75.203 156.282C75.0837 156.282 74.9862 156.321 74.9862 156.369C74.9862 156.417 74.9105 156.456 74.8179 156.456C74.7253 156.456 74.6284 156.49 74.6025 156.532C74.5482 156.62 73.7629 156.889 73.561 156.889C73.4866 156.889 73.4256 156.928 73.4256 156.976C73.4256 157.023 73.25 157.062 73.0355 157.062C72.8209 157.062 72.6453 157.101 72.6453 157.149C72.6453 157.197 72.512 157.236 72.3491 157.236C72.1862 157.236 72.0396 157.275 72.0234 157.324C72.0073 157.372 71.7894 157.436 71.5394 157.466C71.2893 157.496 71.0847 157.553 71.0847 157.594C71.0847 157.635 70.8701 157.669 70.6079 157.669C70.3456 157.669 70.131 157.708 70.131 157.756C70.131 157.808 69.7698 157.842 69.2207 157.842C68.6716 157.842 68.3103 157.877 68.3103 157.929C68.3103 157.983 67.7468 158.016 66.7931 158.016C65.8394 158.016 65.2759 157.983 65.2759 157.929C65.2759 157.877 64.9146 157.842 64.3655 157.842C63.8648 157.842 63.4552 157.807 63.4552 157.763C63.4552 157.72 63.2309 157.665 62.9567 157.641C62.2428 157.58 61.6419 157.451 61.5262 157.335C61.4713 157.281 61.2781 157.236 61.0969 157.236C60.9157 157.236 60.7675 157.197 60.7675 157.149C60.7675 157.101 60.6309 157.062 60.464 157.062C60.2971 157.062 60.1606 157.023 60.1606 156.976C60.1606 156.928 60.024 156.889 59.8571 156.889C59.6902 156.889 59.5537 156.854 59.5537 156.812C59.5537 156.77 59.4171 156.709 59.2502 156.678C59.0833 156.647 58.9468 156.584 58.9468 156.538C58.9468 156.493 58.8493 156.456 58.73 156.456C58.6108 156.456 58.5133 156.417 58.5133 156.369C58.5133 156.321 58.3963 156.282 58.2532 156.282C58.1101 156.282 57.9931 156.243 57.9931 156.196C57.9931 156.148 57.9377 156.109 57.8701 156.109C57.7154 156.109 57.2141 155.828 57.2133 155.741C57.2131 155.705 57.1153 155.676 56.9961 155.676C56.8768 155.676 56.7793 155.637 56.7793 155.589C56.7793 155.541 56.7013 155.502 56.6059 155.502C56.5105 155.502 56.4325 155.463 56.4325 155.416C56.4325 155.368 56.3545 155.329 56.2591 155.329C56.1637 155.329 56.0857 155.294 56.0857 155.252C56.0857 155.209 55.9882 155.15 55.869 155.12C55.7498 155.09 55.6522 155.027 55.6522 154.981C55.6522 154.934 55.5937 154.895 55.5222 154.895C55.4506 154.895 55.3921 154.856 55.3921 154.809C55.3921 154.761 55.3227 154.722 55.2379 154.722C55.153 154.722 55.0274 154.644 54.9586 154.549C54.8899 154.453 54.7855 154.375 54.7267 154.375C54.6678 154.375 54.5222 154.278 54.403 154.159C54.2838 154.04 54.1259 153.942 54.0522 153.942C53.9785 153.942 53.9182 153.903 53.9182 153.855C53.9182 153.808 53.8775 153.769 53.8276 153.769C53.7778 153.769 53.643 153.681 53.5283 153.574C53.2154 153.281 53.0643 153.162 53.0065 153.162C52.9779 153.162 52.7814 152.987 52.5699 152.772C52.3583 152.558 52.1432 152.382 52.0918 152.382C51.9904 152.382 51.7507 152.169 51.7507 152.079C51.7507 152.008 51.5202 151.775 51.4495 151.775C51.3799 151.775 50.9704 151.366 50.9704 151.296C50.9704 151.226 50.7382 150.995 50.667 150.995C50.5767 150.995 50.3635 150.756 50.3635 150.654C50.3635 150.603 50.188 150.388 49.9734 150.176C49.7588 149.965 49.5833 149.767 49.5833 149.737C49.5833 149.707 49.5345 149.631 49.4749 149.569C49.4153 149.506 49.2885 149.346 49.1931 149.214C49.0977 149.082 48.971 148.924 48.9113 148.864C48.8518 148.803 48.803 148.711 48.803 148.657C48.803 148.604 48.7054 148.463 48.5862 148.344C48.467 148.225 48.3695 148.079 48.3695 148.02C48.3695 147.962 48.2914 147.857 48.1961 147.788C48.1007 147.72 48.0227 147.593 48.0227 147.506C48.0227 147.361 47.9794 147.288 47.7139 146.984C47.6633 146.926 47.5659 146.752 47.4976 146.597C47.4293 146.442 47.344 146.315 47.3079 146.315C47.2718 146.315 47.2424 146.237 47.2424 146.142C47.2424 146.046 47.2033 145.968 47.1557 145.968C47.108 145.968 47.069 145.871 47.069 145.752C47.069 145.633 47.0307 145.535 46.9839 145.535C46.9372 145.535 46.8744 145.438 46.8445 145.318C46.8146 145.199 46.7553 145.102 46.7128 145.102C46.6702 145.102 46.6355 145.024 46.6355 144.928C46.6355 144.833 46.5965 144.755 46.5488 144.755C46.5011 144.755 46.4621 144.638 46.4621 144.495C46.4621 144.352 46.4231 144.235 46.3754 144.235C46.3277 144.235 46.2887 144.137 46.2887 144.018C46.2887 143.899 46.2514 143.802 46.2059 143.802C46.1604 143.802 46.0975 143.665 46.0662 143.498C46.0349 143.331 45.9746 143.195 45.9322 143.195C45.8899 143.195 45.8552 143.058 45.8552 142.892C45.8552 142.725 45.8162 142.588 45.7685 142.588C45.7208 142.588 45.6818 142.452 45.6818 142.285C45.6818 142.118 45.6428 141.982 45.5951 141.982C45.5474 141.982 45.5084 141.829 45.5084 141.642C45.5084 141.455 45.4685 141.289 45.4198 141.273C45.3182 141.239 45.1647 140.524 45.1021 139.793C45.0787 139.519 45.0239 139.295 44.9805 139.295C44.937 139.295 44.9015 138.924 44.9015 138.471C44.9015 137.98 44.8665 137.648 44.8148 137.648C44.7598 137.648 44.7281 136.998 44.7281 135.871C44.7281 134.745 44.7598 134.094 44.8148 134.094C44.8665 134.094 44.9015 133.762 44.9015 133.271C44.9015 132.78 44.9365 132.448 44.9882 132.448C45.0362 132.448 45.0749 132.218 45.0749 131.933C45.0749 131.65 45.1087 131.397 45.15 131.371C45.1914 131.346 45.2461 131.14 45.2716 130.914C45.2971 130.688 45.3608 130.489 45.4132 130.472C45.4655 130.454 45.5084 130.287 45.5084 130.1C45.5084 129.914 45.5474 129.761 45.5951 129.761C45.6428 129.761 45.6818 129.624 45.6818 129.458C45.6818 129.291 45.7208 129.154 45.7685 129.154C45.8162 129.154 45.8552 129.018 45.8552 128.851C45.8552 128.684 45.8899 128.548 45.9322 128.548C45.9746 128.548 46.0349 128.411 46.0662 128.244C46.0975 128.077 46.1604 127.941 46.2059 127.941C46.2514 127.941 46.2887 127.843 46.2887 127.724C46.2887 127.605 46.3277 127.508 46.3754 127.508C46.4231 127.508 46.4621 127.391 46.4621 127.247C46.4621 127.104 46.5011 126.987 46.5488 126.987C46.5965 126.987 46.6355 126.909 46.6355 126.814C46.6355 126.719 46.6702 126.641 46.7128 126.641C46.7553 126.641 46.8146 126.543 46.8445 126.424C46.8744 126.305 46.9372 126.207 46.9839 126.207C47.0307 126.207 47.069 126.11 47.069 125.991C47.069 125.872 47.108 125.774 47.1557 125.774C47.2033 125.774 47.2424 125.699 47.2424 125.608C47.2424 125.517 47.2717 125.429 47.3074 125.413C47.3897 125.376 47.6571 124.938 47.7876 124.626C47.8424 124.495 47.9178 124.387 47.9549 124.387C47.9922 124.387 48.0227 124.318 48.0227 124.233C48.0227 124.148 48.1007 124.023 48.1961 123.954C48.2914 123.885 48.3695 123.781 48.3695 123.722C48.3695 123.663 48.467 123.518 48.5862 123.399C48.7054 123.279 48.803 123.122 48.803 123.048C48.803 122.974 48.842 122.914 48.8897 122.914C48.9373 122.914 48.9764 122.873 48.9764 122.823C48.9764 122.774 49.0641 122.639 49.1714 122.524C49.464 122.211 49.5833 122.06 49.5833 122.003C49.5833 121.974 49.7588 121.778 49.9734 121.566C50.188 121.355 50.3635 121.14 50.3635 121.088C50.3635 120.968 50.5839 120.747 50.7042 120.747C50.7553 120.747 50.797 120.716 50.797 120.677C50.797 120.589 51.3634 119.967 51.4435 119.967C51.5187 119.967 51.7507 119.738 51.7507 119.664C51.7507 119.577 51.9888 119.36 52.0845 119.36C52.1318 119.36 52.3461 119.185 52.5607 118.97C52.7753 118.756 52.9751 118.58 53.0047 118.58C53.0642 118.58 53.2131 118.463 53.5283 118.169C53.643 118.062 53.7778 117.974 53.8276 117.974C53.8775 117.974 53.9182 117.935 53.9182 117.887C53.9182 117.839 53.9785 117.8 54.0522 117.8C54.1259 117.8 54.2838 117.703 54.403 117.584C54.5222 117.465 54.6678 117.367 54.7267 117.367C54.7855 117.367 54.8899 117.289 54.9586 117.194C55.0274 117.098 55.153 117.02 55.2379 117.02C55.3227 117.02 55.3921 116.981 55.3921 116.934C55.3921 116.886 55.4506 116.847 55.5222 116.847C55.5937 116.847 55.6522 116.809 55.6522 116.762C55.6522 116.715 55.7498 116.653 55.869 116.623C55.9882 116.593 56.0857 116.533 56.0857 116.491C56.0857 116.448 56.1637 116.414 56.2591 116.414C56.3545 116.414 56.4325 116.375 56.4325 116.327C56.4325 116.279 56.5105 116.24 56.6059 116.24C56.7013 116.24 56.7793 116.201 56.7793 116.154C56.7793 116.106 56.8768 116.067 56.9961 116.067C57.1153 116.067 57.2131 116.038 57.2133 116.002C57.2141 115.915 57.7154 115.634 57.8701 115.634C57.9377 115.634 57.9931 115.595 57.9931 115.547C57.9931 115.499 58.1101 115.46 58.2532 115.46C58.3963 115.46 58.5133 115.421 58.5133 115.374C58.5133 115.326 58.6108 115.287 58.73 115.287C58.8493 115.287 58.9468 115.25 58.9468 115.204C58.9468 115.159 59.0833 115.096 59.2502 115.065C59.4171 115.033 59.5537 114.973 59.5537 114.931C59.5537 114.888 59.6902 114.854 59.8571 114.854C60.024 114.854 60.1606 114.815 60.1606 114.767C60.1606 114.719 60.2971 114.68 60.464 114.68C60.6309 114.68 60.7675 114.646 60.7675 114.605C60.7675 114.564 60.9724 114.484 61.2227 114.427C61.473 114.371 61.8534 114.284 62.068 114.234C62.2826 114.185 62.6825 114.125 62.9567 114.101C63.2309 114.078 63.4552 114.023 63.4552 113.979C63.4552 113.936 63.8453 113.9 64.3222 113.9C64.8424 113.9 65.1892 113.866 65.1892 113.814C65.1892 113.759 65.7672 113.727 66.7498 113.727C67.7323 113.727 68.3103 113.759 68.3103 113.814ZM178.939 120.834C178.939 120.883 178.679 120.921 178.332 120.921C177.998 120.921 177.725 120.958 177.725 121.003C177.725 121.049 177.589 121.112 177.422 121.143C177.255 121.174 177.118 121.235 177.118 121.277C177.118 121.319 177.04 121.354 176.945 121.354C176.849 121.354 176.771 121.393 176.771 121.441C176.771 121.488 176.693 121.527 176.598 121.527C176.503 121.527 176.425 121.566 176.425 121.614C176.425 121.662 176.384 121.701 176.334 121.701C176.15 121.701 175.211 122.64 175.211 122.824C175.211 122.874 175.172 122.914 175.124 122.914C175.076 122.914 175.037 122.99 175.037 123.082C175.037 123.175 175.001 123.273 174.957 123.3C174.913 123.327 174.852 123.466 174.82 123.608C174.789 123.751 174.728 123.867 174.684 123.867C174.64 123.867 174.604 124.004 174.604 124.171C174.604 124.338 174.565 124.474 174.517 124.474C174.468 124.474 174.431 124.72 174.431 125.037C174.431 125.355 174.393 125.601 174.344 125.601C174.291 125.601 174.257 125.991 174.257 126.597V127.594H173.65C173.303 127.594 173.043 127.631 173.043 127.681C173.043 127.729 172.924 127.768 172.777 127.768C172.511 127.768 172.263 127.932 172.263 128.108C172.263 128.159 172.224 128.201 172.176 128.201C172.129 128.201 172.09 128.279 172.09 128.374C172.09 128.47 172.051 128.548 172.003 128.548C171.955 128.548 171.916 128.723 171.916 128.938C171.916 129.152 171.955 129.328 172.003 129.328C172.051 129.328 172.09 129.387 172.09 129.461C172.09 129.534 172.208 129.709 172.353 129.851C172.604 130.096 172.649 130.108 173.384 130.108C174.004 130.108 174.162 130.134 174.205 130.245C174.233 130.32 174.257 133.304 174.257 136.875C174.257 141.146 174.287 143.368 174.344 143.368C174.392 143.368 174.431 143.448 174.431 143.546C174.431 143.726 174.787 144.148 174.94 144.148C174.985 144.148 175.037 144.19 175.054 144.24C175.071 144.294 175.339 144.332 175.688 144.332C176.036 144.332 176.304 144.294 176.322 144.24C176.339 144.19 176.39 144.148 176.436 144.148C176.588 144.148 176.945 143.726 176.945 143.546C176.945 143.448 176.984 143.368 177.032 143.368C177.089 143.368 177.118 141.146 177.118 136.875C177.118 133.304 177.142 130.32 177.171 130.245C177.217 130.125 177.497 130.108 179.425 130.108C180.835 130.108 181.627 130.076 181.627 130.021C181.627 129.973 181.678 129.934 181.741 129.934C181.804 129.934 181.94 129.837 182.044 129.717C182.201 129.537 182.233 129.393 182.233 128.872C182.233 128.271 182.222 128.237 181.973 128.071C181.831 127.976 181.714 127.868 181.714 127.833C181.713 127.797 180.703 127.768 179.468 127.768C177.501 127.768 177.217 127.751 177.171 127.63C177.081 127.397 177.111 125.269 177.205 125.211C177.253 125.181 177.292 125.084 177.292 124.995C177.292 124.906 177.35 124.775 177.422 124.703C177.493 124.632 177.552 124.51 177.552 124.433C177.552 124.277 177.926 123.867 178.068 123.867C178.118 123.867 178.159 123.834 178.159 123.794C178.159 123.753 178.323 123.646 178.524 123.555C178.843 123.412 179.066 123.394 180.258 123.415C181.159 123.432 181.627 123.409 181.627 123.35C181.627 123.301 181.702 123.261 181.794 123.261C181.886 123.261 181.986 123.183 182.017 123.087C182.047 122.992 182.108 122.914 182.153 122.914C182.197 122.914 182.233 122.816 182.233 122.697C182.233 122.578 182.273 122.481 182.32 122.481C182.368 122.481 182.407 122.364 182.407 122.221C182.407 122.078 182.368 121.961 182.32 121.961C182.273 121.961 182.233 121.877 182.233 121.776C182.233 121.564 181.985 121.323 181.522 121.085C181.289 120.966 181.018 120.921 180.546 120.921C180.168 120.921 179.893 120.884 179.893 120.834C179.893 120.786 179.678 120.747 179.416 120.747C179.153 120.747 178.939 120.786 178.939 120.834ZM187.696 120.834C187.696 120.882 187.608 120.921 187.5 120.922C187.244 120.924 186.742 121.372 186.742 121.599C186.742 121.697 186.703 121.801 186.655 121.831C186.598 121.866 186.568 125.558 186.568 132.626C186.568 139.73 186.598 143.368 186.655 143.368C186.703 143.368 186.742 143.448 186.742 143.546C186.742 143.726 187.099 144.148 187.251 144.148C187.297 144.148 187.348 144.19 187.365 144.24C187.383 144.294 187.65 144.332 187.999 144.332C188.348 144.332 188.615 144.294 188.633 144.24C188.65 144.19 188.701 144.148 188.747 144.148C188.899 144.148 189.256 143.726 189.256 143.546C189.256 143.448 189.295 143.368 189.343 143.368C189.4 143.368 189.43 139.728 189.43 132.621C189.43 125.514 189.4 121.874 189.343 121.874C189.295 121.874 189.256 121.774 189.256 121.651C189.256 121.446 189.085 121.181 188.953 121.181C188.922 121.181 188.838 121.122 188.767 121.051C188.695 120.979 188.562 120.921 188.47 120.921C188.378 120.921 188.302 120.882 188.302 120.834C188.302 120.786 188.166 120.747 187.999 120.747C187.832 120.747 187.696 120.786 187.696 120.834ZM195.499 121.441C195.499 121.488 195.435 121.527 195.358 121.527C195.122 121.527 194.721 122.058 194.72 122.372C194.719 122.527 194.679 122.654 194.632 122.654C194.584 122.654 194.545 122.79 194.545 122.957C194.545 123.124 194.584 123.261 194.632 123.261C194.679 123.261 194.718 123.379 194.718 123.524C194.718 123.669 194.767 123.847 194.827 123.918C194.966 124.086 195.28 124.4 195.447 124.539C195.605 124.67 196.886 124.689 196.886 124.561C196.886 124.513 196.956 124.474 197.041 124.474C197.126 124.474 197.341 124.317 197.518 124.124L197.839 123.775V122.954C197.839 122.465 197.804 122.134 197.753 122.134C197.705 122.134 197.666 122.075 197.666 122.004C197.666 121.836 197.357 121.527 197.189 121.527C197.118 121.527 197.059 121.488 197.059 121.441C197.059 121.389 196.741 121.354 196.279 121.354C195.816 121.354 195.499 121.389 195.499 121.441ZM65.3626 122.221C65.3626 122.268 65.148 122.307 64.8857 122.307C64.6234 122.307 64.4089 122.346 64.4089 122.394C64.4089 122.442 64.3015 122.482 64.1704 122.483C64.0394 122.485 63.8562 122.543 63.7637 122.613C63.6711 122.683 63.5249 122.741 63.4386 122.741C63.3523 122.741 63.2818 122.78 63.2818 122.827C63.2818 122.875 63.2037 122.914 63.1084 122.914C63.013 122.914 62.935 122.953 62.935 123.001C62.935 123.048 62.8765 123.087 62.8049 123.087C62.7334 123.087 62.6749 123.126 62.6749 123.174C62.6749 123.222 62.6333 123.261 62.5824 123.261C62.5316 123.261 62.3621 123.358 62.2057 123.477C62.0494 123.596 61.895 123.694 61.8627 123.694C61.7495 123.694 60.334 125.188 60.334 125.307C60.334 125.373 60.3015 125.427 60.2617 125.427C60.222 125.427 60.0772 125.642 59.9399 125.904C59.8028 126.166 59.6597 126.381 59.6221 126.381C59.5845 126.381 59.5537 126.478 59.5537 126.597C59.5537 126.717 59.5147 126.814 59.467 126.814C59.4193 126.814 59.3803 126.912 59.3803 127.031C59.3803 127.15 59.3413 127.247 59.2936 127.247C59.2459 127.247 59.2063 127.335 59.2056 127.443C59.2049 127.55 59.148 127.794 59.0794 127.984C59.0106 128.175 58.9527 128.555 58.9506 128.829C58.9485 129.103 58.9078 129.328 58.8601 129.328C58.8124 129.328 58.7734 129.542 58.7734 129.804C58.7734 130.066 58.8124 130.281 58.8601 130.281C58.908 130.281 58.9468 130.508 58.9468 130.79C58.9468 131.07 59.0053 131.465 59.0768 131.668C59.1484 131.87 59.2069 132.129 59.2069 132.242C59.2069 132.355 59.2459 132.448 59.2936 132.448C59.3413 132.448 59.3803 132.565 59.3803 132.708C59.3803 132.851 59.4193 132.968 59.467 132.968C59.5147 132.968 59.5537 133.065 59.5537 133.184C59.5537 133.304 59.5839 133.401 59.6207 133.401C59.6576 133.401 59.7612 133.538 59.8511 133.704C59.941 133.871 60.0474 134.008 60.0875 134.008C60.1277 134.008 60.1606 134.086 60.1606 134.181C60.1606 134.277 60.1996 134.355 60.2473 134.355C60.295 134.355 60.334 134.397 60.334 134.449C60.334 134.547 61.4979 135.741 61.5931 135.741C61.6816 135.741 61.8946 135.982 61.8946 136.082C61.8946 136.133 61.9531 136.175 62.0246 136.175C62.0962 136.175 62.1547 136.214 62.1547 136.261C62.1547 136.309 62.2294 136.348 62.3209 136.348C62.4123 136.348 62.5 136.379 62.516 136.416C62.5618 136.524 63.3419 136.955 63.4923 136.955C63.5673 136.955 63.6286 136.994 63.6286 137.041C63.6286 137.089 63.7261 137.128 63.8453 137.128C63.9645 137.128 64.0621 137.167 64.0621 137.215C64.0621 137.262 64.1817 137.301 64.3279 137.301C64.4741 137.301 64.667 137.341 64.7566 137.389C64.8462 137.436 65.4971 137.515 66.2031 137.564C68.0558 137.691 68.4837 137.741 68.4837 137.829C68.4837 137.873 68.5813 137.908 68.7005 137.908C68.8197 137.908 68.9172 137.947 68.9172 137.995C68.9172 138.042 68.9856 138.081 69.069 138.081C69.2007 138.082 69.3486 138.18 69.8456 138.6C69.9032 138.648 69.9743 138.688 70.0035 138.688C70.0726 138.688 70.3044 138.92 70.3044 138.989C70.3044 139.048 70.4223 139.197 70.7163 139.512C70.8236 139.626 70.9113 139.8 70.9113 139.898C70.9113 139.995 70.9503 140.075 70.998 140.075C71.0457 140.075 71.0847 140.15 71.0847 140.241C71.0847 140.332 71.114 140.42 71.1498 140.436C71.2562 140.483 71.5181 141.59 71.5189 141.996C71.5198 142.423 71.2544 143.542 71.1523 143.542C71.1151 143.542 71.0847 143.639 71.0847 143.758C71.0847 143.877 71.0457 143.975 70.998 143.975C70.9503 143.975 70.9113 144.053 70.9113 144.148C70.9113 144.244 70.8723 144.322 70.8246 144.322C70.7769 144.322 70.7379 144.363 70.7379 144.414C70.7379 144.535 70.5174 144.755 70.3973 144.755C70.3462 144.755 70.3044 144.795 70.3044 144.845C70.3044 144.961 69.7303 145.535 69.6137 145.535C69.5645 145.535 69.5239 145.564 69.5236 145.6C69.5228 145.687 69.0215 145.968 68.8669 145.968C68.7992 145.968 68.7438 146.007 68.7438 146.055C68.7438 146.103 68.6463 146.142 68.5271 146.142C68.4079 146.142 68.3103 146.181 68.3103 146.228C68.3103 146.282 67.8335 146.315 67.0532 146.315C66.2729 146.315 65.7961 146.282 65.7961 146.228C65.7961 146.181 65.679 146.142 65.536 146.142C65.3929 146.142 65.2759 146.107 65.2759 146.064C65.2759 146.022 65.1783 145.963 65.0591 145.933C64.9399 145.903 64.8424 145.84 64.8424 145.793C64.8424 145.747 64.7838 145.708 64.7123 145.708C64.6408 145.708 64.5823 145.669 64.5823 145.622C64.5823 145.574 64.5232 145.535 64.4511 145.535C64.2821 145.535 63.4552 144.707 63.4552 144.537C63.4552 144.466 63.4162 144.408 63.3685 144.408C63.3208 144.408 63.2818 144.35 63.2818 144.278C63.2818 144.207 63.2503 144.148 63.2117 144.148C63.1055 144.148 62.8483 143.514 62.8483 143.252C62.8483 143.126 62.8093 143.022 62.7616 143.022C62.7115 143.022 62.6749 142.746 62.6749 142.368C62.6749 141.719 62.6725 141.712 62.3246 141.371C62.1319 141.183 61.9173 141.028 61.8478 141.028C61.7781 141.028 61.7212 140.989 61.7212 140.941C61.7212 140.892 61.4611 140.855 61.1143 140.855C60.7675 140.855 60.5074 140.892 60.5074 140.941C60.5074 140.989 60.4443 141.028 60.3671 141.028C60.29 141.028 60.0755 141.18 59.8903 141.365L59.5537 141.701V142.838C59.5537 143.538 59.587 143.975 59.6404 143.975C59.6881 143.975 59.7271 144.052 59.7271 144.145C59.7271 144.299 59.8812 144.72 60.0845 145.122C60.1263 145.205 60.1606 145.332 60.1606 145.404C60.1606 145.476 60.1996 145.535 60.2473 145.535C60.295 145.535 60.334 145.613 60.334 145.708C60.334 145.804 60.3646 145.882 60.402 145.882C60.4394 145.882 60.5439 146.008 60.6342 146.163C60.7246 146.318 60.8695 146.508 60.9564 146.585C61.0433 146.662 61.1143 146.753 61.1143 146.786C61.1143 146.862 61.3421 147.095 61.4155 147.095C61.4851 147.095 61.8946 147.504 61.8946 147.574C61.8946 147.654 62.1311 147.875 62.2161 147.875C62.2566 147.875 62.346 147.953 62.4148 148.048C62.4835 148.144 62.5916 148.222 62.6548 148.222C62.7181 148.222 62.8602 148.319 62.9707 148.439C63.0812 148.558 63.2354 148.655 63.3134 148.655C63.3914 148.655 63.4552 148.694 63.4552 148.742C63.4552 148.79 63.5527 148.829 63.6719 148.829C63.7911 148.829 63.8887 148.868 63.8887 148.915C63.8887 148.963 63.9619 149.002 64.0515 149.002C64.141 149.002 64.2628 149.06 64.3222 149.132C64.3816 149.203 64.5229 149.262 64.6362 149.262C64.7496 149.262 64.8424 149.297 64.8424 149.34C64.8424 149.453 65.5652 149.53 67.0749 149.576C67.9655 149.604 68.397 149.587 68.397 149.526C68.397 149.475 68.5859 149.435 68.8305 149.435C69.069 149.435 69.264 149.396 69.264 149.349C69.264 149.301 69.3541 149.262 69.4642 149.262C69.5743 149.262 69.7401 149.205 69.8327 149.135C69.9252 149.065 70.0693 149.006 70.1527 149.005C70.2361 149.003 70.3044 148.963 70.3044 148.915C70.3044 148.868 70.3825 148.829 70.4778 148.829C70.5732 148.829 70.6512 148.79 70.6512 148.742C70.6512 148.694 70.7286 148.655 70.8231 148.655C70.9176 148.655 71.1354 148.519 71.3074 148.352C71.4792 148.185 71.6566 148.048 71.7016 148.048C71.8153 148.048 72.8155 147.022 73.0788 146.635C73.198 146.46 73.3248 146.316 73.3606 146.316C73.3964 146.315 73.4256 146.257 73.4256 146.185C73.4256 146.114 73.4646 146.055 73.5123 146.055C73.56 146.055 73.599 145.977 73.599 145.882C73.599 145.786 73.638 145.708 73.6857 145.708C73.7334 145.708 73.7724 145.63 73.7724 145.535C73.7724 145.44 73.8106 145.362 73.8575 145.362C73.9042 145.362 73.967 145.264 73.9969 145.145C74.0268 145.026 74.0861 144.928 74.1286 144.928C74.1711 144.928 74.2059 144.792 74.2059 144.625C74.2059 144.458 74.2449 144.322 74.2926 144.322C74.3403 144.322 74.3793 144.193 74.3793 144.036C74.3793 143.878 74.4218 143.707 74.4736 143.655C74.6066 143.522 74.6094 140.484 74.4767 140.439C74.4231 140.422 74.3793 140.235 74.3793 140.024C74.3793 139.814 74.3403 139.641 74.2926 139.641C74.2449 139.641 74.2059 139.524 74.2059 139.381C74.2059 139.238 74.1711 139.121 74.1286 139.121C74.0861 139.121 74.0268 139.024 73.9969 138.905C73.967 138.786 73.9042 138.688 73.8575 138.688C73.8106 138.688 73.7724 138.61 73.7724 138.515C73.7724 138.419 73.7334 138.341 73.6857 138.341C73.638 138.341 73.599 138.262 73.599 138.164C73.599 138.067 73.5015 137.889 73.3823 137.77C73.2631 137.651 73.1655 137.518 73.1655 137.475C73.1655 137.432 72.8339 137.063 72.4286 136.654C72.0233 136.245 71.6916 135.89 71.6916 135.865C71.6916 135.841 71.9062 135.604 72.1685 135.34C72.4307 135.076 72.6453 134.813 72.6453 134.756C72.6453 134.699 72.7234 134.597 72.8187 134.528C72.9141 134.459 72.9921 134.371 72.9921 134.332C72.9921 134.264 73.069 134.158 73.3172 133.881C73.3769 133.815 73.4256 133.699 73.4256 133.624C73.4256 133.549 73.4646 133.488 73.5123 133.488C73.56 133.488 73.599 133.39 73.599 133.271C73.599 133.152 73.638 133.054 73.6857 133.054C73.7334 133.054 73.7736 132.986 73.7752 132.903C73.7767 132.819 73.8352 132.675 73.9052 132.583C73.9752 132.49 74.0325 132.305 74.0325 132.171C74.0325 132.037 74.0715 131.928 74.1192 131.928C74.1687 131.928 74.2059 131.668 74.2059 131.321C74.2059 130.974 74.2431 130.714 74.2926 130.714C74.3446 130.714 74.3793 130.368 74.3793 129.848C74.3793 129.328 74.3446 128.981 74.2926 128.981C74.2444 128.981 74.2059 128.75 74.2059 128.461C74.2059 128.172 74.1674 127.941 74.1192 127.941C74.0715 127.941 74.0325 127.831 74.0325 127.697C74.0325 127.563 73.9752 127.378 73.9052 127.286C73.8352 127.193 73.7767 127.049 73.7752 126.966C73.7736 126.882 73.7334 126.814 73.6857 126.814C73.638 126.814 73.599 126.717 73.599 126.597C73.599 126.478 73.56 126.381 73.5123 126.381C73.4646 126.381 73.4256 126.303 73.4256 126.207C73.4256 126.112 73.3954 126.034 73.3586 126.034C73.3217 126.034 73.2181 125.898 73.1282 125.731C73.0383 125.564 72.9319 125.427 72.8918 125.427C72.8516 125.427 72.8187 125.39 72.8187 125.345C72.8187 125.299 72.9553 125.236 73.1222 125.205C73.2891 125.174 73.4256 125.113 73.4256 125.071C73.4256 125.029 73.5036 124.994 73.599 124.994C73.6944 124.994 73.7724 124.955 73.7724 124.907C73.7724 124.86 73.8142 124.821 73.8653 124.821C74.0035 124.821 74.2059 124.593 74.2059 124.437C74.2059 124.362 74.2449 124.301 74.2926 124.301C74.3432 124.301 74.3793 124.012 74.3793 123.607C74.3793 123.203 74.3432 122.914 74.2926 122.914C74.2449 122.914 74.2059 122.872 74.2059 122.821C74.2059 122.701 73.9853 122.481 73.8653 122.481C73.8142 122.481 73.7724 122.442 73.7724 122.394C73.7724 122.346 73.6944 122.307 73.599 122.307C73.5036 122.307 73.4256 122.268 73.4256 122.221C73.4256 122.164 72.0239 122.134 69.3941 122.134C66.7642 122.134 65.3626 122.164 65.3626 122.221ZM66.7498 125.341C66.7498 125.39 67.0099 125.427 67.3567 125.427C67.7034 125.427 67.9635 125.465 67.9635 125.514C67.9635 125.562 68.0611 125.601 68.1803 125.601C68.2995 125.601 68.397 125.64 68.397 125.687C68.397 125.735 68.4572 125.774 68.5307 125.774C68.6558 125.774 68.7434 125.829 69.0441 126.099C69.1106 126.159 69.1903 126.207 69.2215 126.207C69.2936 126.207 70.3044 127.216 70.3044 127.288C70.3044 127.339 70.3935 127.458 70.6296 127.721C70.6892 127.787 70.7379 127.923 70.7379 128.021C70.7379 128.12 70.7769 128.201 70.8246 128.201C70.8723 128.201 70.9113 128.337 70.9113 128.504C70.9113 128.671 70.9503 128.808 70.998 128.808C71.051 128.808 71.0847 129.212 71.0847 129.848C71.0847 130.483 71.051 130.888 70.998 130.888C70.9503 130.888 70.9113 131.024 70.9113 131.191C70.9113 131.358 70.8772 131.494 70.8355 131.494C70.7938 131.494 70.7379 131.602 70.7114 131.733C70.6849 131.864 70.5824 132.057 70.4838 132.162C70.3852 132.268 70.3044 132.414 70.3044 132.487C70.3044 132.561 70.2654 132.621 70.2177 132.621C70.17 132.621 70.131 132.663 70.131 132.714C70.131 132.813 69.9183 133.054 69.8309 133.054C69.802 133.054 69.6419 133.191 69.475 133.358C69.3081 133.525 69.1143 133.661 69.0444 133.661C68.9745 133.661 68.9172 133.7 68.9172 133.748C68.9172 133.795 68.8587 133.834 68.7872 133.834C68.7157 133.834 68.6571 133.864 68.6571 133.9C68.6571 133.961 68.4523 134.044 67.7034 134.288C67.3113 134.416 65.8414 134.416 65.4493 134.288C64.7004 134.044 64.4956 133.961 64.4956 133.9C64.4956 133.864 64.437 133.834 64.3655 133.834C64.294 133.834 64.2355 133.795 64.2355 133.748C64.2355 133.7 64.1748 133.661 64.1006 133.661C63.9362 133.661 62.8483 132.59 62.8483 132.428C62.8483 132.365 62.7702 132.256 62.6749 132.188C62.5795 132.119 62.5015 131.977 62.5015 131.873C62.5015 131.768 62.4599 131.668 62.4091 131.651C62.3584 131.635 62.2948 131.456 62.2677 131.254C62.2407 131.053 62.1847 130.888 62.1432 130.888C62.0055 130.888 62.0573 129.089 62.2084 128.628C62.2857 128.391 62.3832 128.177 62.4252 128.151C62.4671 128.125 62.5015 128.028 62.5015 127.936C62.5015 127.843 62.5405 127.768 62.5882 127.768C62.6359 127.768 62.6749 127.69 62.6749 127.594C62.6749 127.499 62.7139 127.421 62.7616 127.421C62.8093 127.421 62.8483 127.379 62.8483 127.328C62.8483 127.208 63.0688 126.987 63.1889 126.987C63.24 126.987 63.2818 126.947 63.2818 126.898C63.2818 126.803 63.8458 126.207 63.9353 126.207C63.9642 126.207 64.0421 126.159 64.1086 126.099C64.4081 125.831 64.4965 125.774 64.6169 125.774C64.6876 125.774 64.7695 125.735 64.799 125.687C64.8285 125.64 64.9283 125.601 65.0209 125.601C65.1135 125.601 65.1892 125.562 65.1892 125.514C65.1892 125.465 65.4493 125.427 65.7961 125.427C66.1429 125.427 66.403 125.39 66.403 125.341C66.403 125.293 66.481 125.254 66.5764 125.254C66.6717 125.254 66.7498 125.293 66.7498 125.341ZM138.97 127.336C138.756 127.375 138.397 127.411 138.174 127.414C137.95 127.418 137.743 127.46 137.713 127.508C137.684 127.555 137.526 127.594 137.361 127.594C137.197 127.594 137.063 127.633 137.063 127.681C137.063 127.729 136.946 127.768 136.803 127.768C136.66 127.768 136.543 127.802 136.543 127.845C136.543 127.887 136.445 127.947 136.326 127.976C136.207 128.006 136.109 128.069 136.109 128.116C136.109 128.163 136.031 128.201 135.936 128.201C135.841 128.201 135.763 128.24 135.763 128.288C135.763 128.335 135.685 128.374 135.589 128.374C135.494 128.374 135.416 128.413 135.416 128.461C135.416 128.509 135.374 128.548 135.323 128.548C135.272 128.548 135.179 128.596 135.118 128.656C134.896 128.87 134.547 129.154 134.506 129.154C134.403 129.154 133.422 130.219 133.422 130.33C133.422 130.399 133.383 130.454 133.335 130.454C133.287 130.454 133.248 130.513 133.248 130.584C133.248 130.656 133.19 130.714 133.118 130.714C133.046 130.714 132.988 130.791 132.988 130.888C132.988 130.983 132.949 131.061 132.901 131.061C132.854 131.061 132.815 131.12 132.815 131.191C132.815 131.263 132.776 131.321 132.728 131.321C132.68 131.321 132.641 131.399 132.641 131.494C132.641 131.59 132.602 131.668 132.555 131.668C132.507 131.668 132.467 131.736 132.465 131.819C132.464 131.903 132.405 132.047 132.335 132.139C132.265 132.232 132.208 132.378 132.208 132.464C132.208 132.551 132.169 132.621 132.121 132.621C132.073 132.621 132.034 132.758 132.034 132.924C132.034 133.091 131.995 133.228 131.948 133.228C131.9 133.228 131.861 133.4 131.861 133.611C131.861 133.821 131.821 134.007 131.771 134.023C131.632 134.07 131.566 136.617 131.684 137.388C131.738 137.746 131.805 138.184 131.831 138.363C131.858 138.542 131.914 138.688 131.957 138.688C132 138.688 132.034 138.825 132.034 138.991C132.034 139.158 132.073 139.295 132.121 139.295C132.169 139.295 132.208 139.365 132.208 139.452C132.208 139.538 132.265 139.684 132.335 139.777C132.405 139.869 132.464 140.013 132.465 140.096C132.467 140.18 132.507 140.248 132.555 140.248C132.602 140.248 132.641 140.326 132.641 140.421C132.641 140.517 132.68 140.595 132.728 140.595C132.776 140.595 132.815 140.653 132.815 140.725C132.815 140.796 132.854 140.855 132.901 140.855C132.949 140.855 132.988 140.915 132.988 140.988C132.988 141.061 133.047 141.143 133.118 141.17C133.19 141.198 133.248 141.266 133.248 141.322C133.248 141.378 133.326 141.479 133.422 141.548C133.517 141.617 133.595 141.718 133.595 141.773C133.595 141.887 134.42 142.762 134.528 142.762C134.567 142.762 134.744 142.898 134.921 143.065C135.098 143.232 135.279 143.368 135.322 143.368C135.444 143.368 135.935 143.663 135.935 143.737C135.936 143.772 136.014 143.802 136.109 143.802C136.205 143.802 136.283 143.841 136.283 143.888C136.283 143.936 136.38 143.975 136.5 143.975C136.619 143.975 136.716 144.014 136.716 144.062C136.716 144.109 136.814 144.148 136.934 144.148C137.054 144.148 137.22 144.183 137.303 144.225C137.385 144.267 137.713 144.364 138.031 144.441C138.709 144.606 141.059 144.634 141.615 144.484C141.806 144.433 142.108 144.371 142.287 144.347C142.466 144.323 142.612 144.269 142.612 144.226C142.612 144.183 142.729 144.148 142.872 144.148C143.015 144.148 143.132 144.109 143.132 144.062C143.132 144.014 143.23 143.975 143.349 143.975C143.468 143.975 143.566 143.936 143.566 143.888C143.566 143.841 143.644 143.802 143.739 143.802C143.834 143.802 143.912 143.763 143.912 143.717C143.912 143.67 144.01 143.607 144.129 143.577C144.248 143.547 144.346 143.488 144.346 143.446C144.346 143.403 144.424 143.368 144.519 143.368C144.615 143.368 144.693 143.329 144.693 143.282C144.693 143.234 144.733 143.195 144.782 143.195C144.866 143.195 144.955 143.123 145.513 142.61C145.63 142.503 145.749 142.415 145.779 142.415C145.867 142.415 146.08 142.174 146.08 142.074C146.08 142.023 146.113 141.982 146.153 141.982C146.288 141.982 146.427 141.542 146.427 141.111C146.427 140.875 146.388 140.681 146.34 140.681C146.292 140.681 146.253 140.641 146.253 140.591C146.253 140.433 145.835 140.075 145.65 140.075C145.553 140.075 145.473 140.036 145.473 139.988C145.473 139.94 145.356 139.901 145.213 139.901C145.07 139.901 144.953 139.94 144.953 139.988C144.953 140.036 144.875 140.075 144.779 140.075C144.684 140.075 144.462 140.211 144.285 140.378C144.108 140.545 143.927 140.681 143.883 140.681C143.839 140.681 143.74 140.752 143.662 140.839C143.585 140.926 143.395 141.071 143.24 141.161C143.085 141.252 142.959 141.356 142.959 141.394C142.959 141.431 142.861 141.462 142.742 141.462C142.623 141.462 142.525 141.501 142.525 141.548C142.525 141.596 142.411 141.635 142.272 141.635C142.133 141.635 142.006 141.664 141.99 141.7C141.975 141.736 141.761 141.833 141.516 141.917C140.933 142.116 138.787 142.131 138.45 141.938C138.331 141.87 138.146 141.813 138.038 141.811C137.931 141.81 137.843 141.769 137.843 141.722C137.843 141.674 137.765 141.635 137.67 141.635C137.575 141.635 137.497 141.596 137.497 141.548C137.497 141.501 137.417 141.462 137.32 141.462C137.141 141.462 137.054 141.406 136.673 141.05C136.558 140.943 136.441 140.855 136.413 140.855C136.345 140.855 135.936 140.444 135.936 140.376C135.936 140.288 135.695 140.075 135.595 140.075C135.544 140.075 135.502 139.997 135.502 139.901C135.502 139.806 135.463 139.728 135.416 139.728C135.368 139.728 135.329 139.67 135.329 139.598C135.329 139.527 135.29 139.468 135.242 139.468C135.195 139.468 135.156 139.393 135.156 139.302C135.156 139.211 135.126 139.123 135.091 139.107C134.989 139.062 134.722 138.442 134.722 138.252C134.722 138.158 134.683 138.081 134.635 138.081C134.588 138.081 134.549 137.867 134.549 137.605V137.128H140.314C144.1 137.128 146.08 137.098 146.08 137.041C146.08 136.994 146.168 136.954 146.275 136.953C146.557 136.951 146.979 136.534 147.11 136.126C147.183 135.9 147.205 135.581 147.172 135.237C147.144 134.942 147.097 134.457 147.07 134.159C147.042 133.862 146.983 133.581 146.94 133.535C146.896 133.49 146.86 133.305 146.86 133.124C146.86 132.943 146.821 132.794 146.773 132.794C146.726 132.794 146.687 132.694 146.687 132.572C146.687 132.449 146.628 132.29 146.557 132.219C146.485 132.147 146.427 131.994 146.427 131.878C146.427 131.762 146.388 131.668 146.34 131.668C146.292 131.668 146.253 131.59 146.253 131.494C146.253 131.399 146.214 131.321 146.167 131.321C146.119 131.321 146.08 131.241 146.08 131.144C146.08 131.046 145.982 130.869 145.863 130.75C145.744 130.631 145.646 130.502 145.646 130.463C145.646 130.425 145.529 130.271 145.386 130.121C145.243 129.972 145.126 129.828 145.126 129.801C145.126 129.704 144.541 129.068 144.45 129.067C144.417 129.067 144.264 128.95 144.112 128.807C143.96 128.664 143.774 128.548 143.7 128.548C143.626 128.548 143.566 128.515 143.566 128.475C143.566 128.436 143.341 128.289 143.067 128.15C142.793 128.011 142.555 127.868 142.54 127.833C142.524 127.797 142.397 127.768 142.258 127.768C142.119 127.768 142.005 127.729 142.005 127.681C142.005 127.633 141.868 127.594 141.701 127.594C141.535 127.594 141.398 127.561 141.398 127.521C141.398 127.48 141.057 127.422 140.639 127.393C140.222 127.363 139.764 127.322 139.621 127.301C139.478 127.28 139.185 127.296 138.97 127.336ZM160.212 127.339C159.997 127.377 159.636 127.411 159.41 127.414C159.183 127.418 158.998 127.46 158.998 127.508C158.998 127.555 158.861 127.594 158.695 127.594C158.528 127.594 158.391 127.633 158.391 127.681C158.391 127.729 158.274 127.768 158.131 127.768C157.988 127.768 157.871 127.802 157.871 127.845C157.871 127.887 157.773 127.947 157.654 127.976C157.535 128.006 157.437 128.069 157.437 128.116C157.437 128.163 157.379 128.201 157.307 128.201C157.236 128.201 157.177 128.24 157.177 128.288C157.177 128.335 157.113 128.374 157.035 128.374C156.957 128.374 156.589 128.686 156.218 129.068C155.848 129.449 155.521 129.761 155.494 129.761C155.466 129.761 155.443 129.488 155.443 129.154C155.443 128.808 155.406 128.548 155.357 128.548C155.309 128.548 155.27 128.45 155.27 128.331C155.27 128.212 155.234 128.114 155.189 128.114C155.145 128.114 155.083 128.036 155.053 127.941C155.023 127.846 154.923 127.768 154.831 127.768C154.738 127.768 154.663 127.733 154.663 127.691C154.663 127.617 154.239 127.5 153.969 127.5C153.7 127.5 153.276 127.617 153.276 127.691C153.276 127.733 153.198 127.768 153.102 127.768C152.987 127.768 152.929 127.825 152.929 127.941C152.929 128.036 152.89 128.114 152.842 128.114C152.795 128.114 152.756 128.212 152.756 128.331C152.756 128.45 152.717 128.548 152.669 128.548C152.612 128.548 152.582 131.075 152.582 135.958C152.582 140.84 152.612 143.368 152.669 143.368C152.717 143.368 152.756 143.448 152.756 143.546C152.756 143.73 153.114 144.148 153.272 144.148C153.322 144.148 153.363 144.187 153.363 144.235C153.363 144.285 153.637 144.322 154.013 144.322C154.388 144.322 154.663 144.285 154.663 144.235C154.663 144.187 154.704 144.148 154.754 144.148C154.912 144.148 155.27 143.73 155.27 143.546C155.27 143.448 155.309 143.368 155.357 143.368C155.413 143.368 155.443 141.68 155.443 138.476C155.443 135.309 155.474 133.566 155.53 133.531C155.578 133.502 155.617 133.395 155.617 133.295C155.617 133.071 155.884 132.448 155.98 132.448C156.019 132.448 156.05 132.35 156.05 132.231C156.05 132.112 156.089 132.014 156.137 132.014C156.185 132.014 156.224 131.956 156.224 131.886C156.224 131.765 157.028 130.888 157.139 130.888C157.167 130.888 157.244 130.839 157.311 130.779C157.66 130.466 157.997 130.281 158.217 130.281C158.313 130.281 158.391 130.242 158.391 130.194C158.391 130.147 158.528 130.108 158.695 130.108C158.861 130.108 158.998 130.069 158.998 130.021C158.998 129.968 159.403 129.934 160.038 129.934C160.674 129.934 161.079 129.968 161.079 130.021C161.079 130.069 161.235 130.108 161.426 130.108C161.616 130.108 161.772 130.147 161.772 130.194C161.772 130.242 161.85 130.281 161.946 130.281C162.041 130.281 162.119 130.32 162.119 130.368C162.119 130.415 162.192 130.454 162.282 130.454C162.371 130.454 162.561 130.591 162.703 130.758C162.846 130.925 162.997 131.061 163.04 131.061C163.083 131.061 163.196 131.165 163.291 131.292C163.386 131.419 163.512 131.572 163.571 131.633C163.631 131.693 163.68 131.823 163.68 131.922C163.68 132.02 163.709 132.101 163.745 132.101C163.806 132.101 163.87 132.258 164.136 133.054C164.207 133.268 164.245 134.836 164.263 138.338C164.28 141.452 164.321 143.351 164.375 143.404C164.422 143.451 164.46 143.542 164.46 143.606C164.46 143.74 164.844 144.148 164.969 144.148C165.015 144.148 165.066 144.19 165.083 144.24C165.101 144.294 165.368 144.332 165.717 144.332C166.066 144.332 166.334 144.294 166.351 144.24C166.368 144.19 166.42 144.148 166.465 144.148C166.618 144.148 166.974 143.726 166.974 143.546C166.974 143.448 167.014 143.368 167.062 143.368C167.122 143.368 167.138 141.69 167.113 138.276C167.076 133.184 167.03 131.928 166.881 131.928C166.837 131.928 166.801 131.791 166.801 131.624C166.801 131.458 166.762 131.321 166.714 131.321C166.667 131.321 166.628 131.226 166.628 131.111C166.628 130.995 166.569 130.842 166.498 130.77C166.426 130.699 166.367 130.586 166.367 130.52C166.367 130.454 166.289 130.317 166.194 130.214C166.099 130.112 166.021 129.985 166.021 129.932C166.021 129.879 165.972 129.786 165.912 129.726C165.853 129.666 165.726 129.508 165.631 129.375C165.535 129.242 165.407 129.089 165.345 129.035C165.283 128.982 165.138 128.85 165.023 128.743C164.909 128.635 164.774 128.548 164.724 128.548C164.674 128.548 164.633 128.515 164.633 128.475C164.633 128.436 164.419 128.291 164.157 128.154C163.894 128.017 163.68 127.874 163.68 127.836C163.68 127.798 163.543 127.768 163.376 127.768C163.209 127.768 163.073 127.729 163.073 127.681C163.073 127.633 162.936 127.594 162.769 127.594C162.603 127.594 162.466 127.561 162.466 127.519C162.466 127.478 162.092 127.417 161.634 127.384C161.177 127.35 160.757 127.311 160.702 127.296C160.647 127.282 160.426 127.301 160.212 127.339ZM196.066 127.502C196.034 127.552 195.911 127.594 195.793 127.594C195.583 127.594 195.152 127.936 195.152 128.103C195.152 128.149 195.103 128.203 195.043 128.223C194.958 128.251 194.935 129.876 194.935 135.958C194.935 142.04 194.958 143.665 195.043 143.693C195.103 143.713 195.152 143.768 195.152 143.815C195.152 143.929 195.376 144.148 195.492 144.148C195.543 144.148 195.585 144.187 195.585 144.235C195.585 144.285 195.86 144.322 196.235 144.322C196.611 144.322 196.886 144.285 196.886 144.235C196.886 144.187 196.949 144.148 197.027 144.148C197.191 144.148 197.493 143.83 197.493 143.658C197.493 143.594 197.532 143.542 197.579 143.542C197.636 143.542 197.666 140.956 197.666 135.958C197.666 130.96 197.636 128.374 197.579 128.374C197.532 128.374 197.492 128.326 197.491 128.266C197.488 128.037 197.014 127.618 196.711 127.576C196.545 127.553 196.345 127.506 196.266 127.471C196.187 127.437 196.097 127.451 196.066 127.502ZM203.822 127.507C203.75 127.554 203.619 127.592 203.53 127.593C203.441 127.594 203.236 127.738 203.075 127.914C202.799 128.215 202.781 128.272 202.781 128.849C202.781 129.363 202.809 129.483 202.955 129.588C203.05 129.656 203.128 129.745 203.128 129.784C203.128 129.86 203.228 129.991 203.54 130.325C203.647 130.439 203.735 130.556 203.735 130.584C203.735 130.612 203.823 130.726 203.93 130.837C204.037 130.948 204.203 131.149 204.299 131.282C204.394 131.416 204.56 131.614 204.667 131.723C204.774 131.831 204.862 131.943 204.862 131.971C204.862 132.031 204.915 132.096 205.425 132.664C205.639 132.903 205.814 133.125 205.815 133.159C205.815 133.192 205.913 133.317 206.033 133.437C206.152 133.556 206.249 133.676 206.249 133.704C206.249 133.733 206.337 133.85 206.444 133.964C206.723 134.262 206.856 134.428 206.856 134.476C206.856 134.499 207.032 134.696 207.246 134.913C207.461 135.131 207.636 135.367 207.636 135.438C207.636 135.51 207.675 135.568 207.723 135.568C207.92 135.568 207.805 136.095 207.55 136.362C207.407 136.511 207.29 136.667 207.29 136.707C207.29 136.748 207.231 136.781 207.16 136.781C207.088 136.781 207.03 136.851 207.03 136.935C207.03 137.02 206.952 137.146 206.856 137.215C206.761 137.283 206.683 137.373 206.683 137.413C206.683 137.518 206.453 137.735 206.342 137.735C206.291 137.735 206.249 137.793 206.249 137.865C206.249 137.936 206.21 137.995 206.163 137.995C206.115 137.995 206.076 138.049 206.076 138.115C206.076 138.181 205.9 138.413 205.686 138.631C205.471 138.848 205.296 139.069 205.296 139.121C205.296 139.172 205.12 139.385 204.905 139.594C204.691 139.802 204.515 140.017 204.515 140.07C204.515 140.124 204.34 140.339 204.125 140.547C203.911 140.755 203.735 140.965 203.735 141.013C203.735 141.061 203.598 141.241 203.432 141.412C203.265 141.584 203.128 141.743 203.128 141.766C203.128 141.806 202.842 142.156 202.63 142.377C202.57 142.439 202.521 142.606 202.521 142.748C202.521 142.891 202.472 143.03 202.413 143.058C202.326 143.098 202.326 143.118 202.413 143.159C202.472 143.187 202.521 143.313 202.521 143.44C202.521 143.68 202.858 144.148 203.03 144.148C203.084 144.148 203.128 144.187 203.128 144.235C203.128 144.284 203.388 144.322 203.735 144.322C204.082 144.322 204.342 144.284 204.342 144.235C204.342 144.187 204.403 144.148 204.478 144.148C204.609 144.148 204.862 143.953 204.862 143.852C204.862 143.825 204.938 143.715 205.03 143.607C205.123 143.5 205.271 143.326 205.361 143.222C205.45 143.118 205.599 142.928 205.691 142.799C205.784 142.671 205.947 142.476 206.054 142.365C206.161 142.254 206.249 142.14 206.249 142.112C206.249 142.055 206.37 141.903 206.661 141.591C206.768 141.477 206.856 141.36 206.856 141.332C206.856 141.303 206.954 141.183 207.073 141.064C207.192 140.944 207.29 140.815 207.29 140.777C207.29 140.739 207.407 140.585 207.55 140.435C207.693 140.285 207.81 140.124 207.81 140.076C207.81 140.027 207.849 139.988 207.897 139.988C207.944 139.988 207.983 139.935 207.983 139.869C207.983 139.804 208.12 139.634 208.287 139.491C208.454 139.349 208.59 139.168 208.59 139.09C208.59 139.012 208.629 138.948 208.677 138.948C208.725 138.948 208.764 138.906 208.764 138.856C208.764 138.805 208.9 138.634 209.067 138.477C209.234 138.32 209.37 138.127 209.37 138.049C209.37 137.836 209.694 137.877 209.938 138.121C210.055 138.238 210.151 138.356 210.151 138.384C210.151 138.441 210.271 138.594 210.563 138.905C210.67 139.02 210.758 139.137 210.758 139.165C210.758 139.193 210.845 139.31 210.953 139.424C211.24 139.732 211.365 139.888 211.365 139.942C211.365 139.968 211.482 140.112 211.625 140.262C211.768 140.411 211.885 140.565 211.885 140.604C211.885 140.642 211.982 140.771 212.101 140.89C212.221 141.009 212.318 141.13 212.318 141.158C212.318 141.221 212.451 141.383 212.817 141.767C212.972 141.929 213.099 142.085 213.099 142.112C213.099 142.168 213.22 142.322 213.51 142.632C213.618 142.746 213.705 142.863 213.705 142.892C213.705 142.92 213.793 143.037 213.9 143.151C214.192 143.463 214.312 143.615 214.312 143.672C214.312 143.76 214.733 144.148 214.829 144.148C214.878 144.148 214.919 144.187 214.919 144.235C214.919 144.285 215.194 144.322 215.569 144.322C215.945 144.322 216.22 144.285 216.22 144.235C216.22 144.187 216.288 144.148 216.371 144.148C216.526 144.147 216.827 143.714 216.827 143.491C216.827 143.424 216.866 143.368 216.913 143.368C216.961 143.368 217 143.232 217 143.065C217 142.898 216.961 142.762 216.913 142.762C216.866 142.762 216.827 142.69 216.827 142.601C216.827 142.513 216.758 142.361 216.675 142.262C216.275 141.789 216.22 141.714 216.22 141.641C216.22 141.597 216.044 141.386 215.83 141.172C215.615 140.957 215.439 140.74 215.439 140.688C215.439 140.636 215.264 140.421 215.049 140.209C214.835 139.998 214.659 139.783 214.659 139.732C214.659 139.68 214.523 139.506 214.356 139.344C214.189 139.182 214.052 139.025 214.052 138.995C214.052 138.965 213.964 138.849 213.857 138.738C213.75 138.627 213.584 138.428 213.489 138.296C213.393 138.163 213.218 137.944 213.099 137.81C212.733 137.397 212.665 137.311 212.665 137.259C212.665 137.231 212.528 137.072 212.362 136.905C212.195 136.739 212.058 136.57 212.058 136.531C212.058 136.492 211.941 136.338 211.798 136.188C211.547 135.925 211.447 135.568 211.625 135.568C211.672 135.568 211.711 135.503 211.711 135.423C211.711 135.343 211.887 135.11 212.101 134.904C212.316 134.699 212.492 134.494 212.492 134.45C212.492 134.406 212.628 134.229 212.795 134.057C212.962 133.885 213.099 133.724 213.099 133.699C213.099 133.674 213.186 133.558 213.294 133.442C213.786 132.906 213.879 132.797 213.879 132.75C213.879 132.723 213.976 132.602 214.096 132.483C214.215 132.364 214.312 132.237 214.312 132.201C214.312 132.165 214.439 131.997 214.594 131.827C214.749 131.658 214.954 131.412 215.049 131.28C215.145 131.147 215.31 130.948 215.418 130.837C215.525 130.726 215.613 130.612 215.613 130.584C215.613 130.556 215.701 130.439 215.808 130.325C216.108 130.004 216.22 129.86 216.22 129.796C216.22 129.764 216.305 129.664 216.409 129.574C216.775 129.256 216.602 127.768 216.199 127.768C216.115 127.768 216.046 127.729 216.046 127.681C216.046 127.633 215.966 127.594 215.867 127.594C215.769 127.594 215.608 127.552 215.511 127.499C215.383 127.431 215.308 127.431 215.239 127.499C215.187 127.552 215.054 127.594 214.944 127.594C214.741 127.594 213.879 128.372 213.879 128.555C213.879 128.605 213.83 128.696 213.77 128.756C213.711 128.816 213.585 128.97 213.49 129.097C213.395 129.224 213.268 129.328 213.208 129.328C213.148 129.328 213.099 129.406 213.099 129.501C213.099 129.596 213.06 129.674 213.012 129.674C212.964 129.674 212.925 129.716 212.925 129.767C212.925 129.887 212.705 130.108 212.584 130.108C212.533 130.108 212.492 130.166 212.492 130.238C212.492 130.309 212.453 130.368 212.405 130.368C212.357 130.368 212.318 130.428 212.318 130.502C212.318 130.575 212.23 130.726 212.123 130.835C211.798 131.169 211.538 131.492 211.538 131.563C211.538 131.599 211.46 131.686 211.365 131.754C211.269 131.823 211.191 131.911 211.191 131.951C211.191 131.99 211.151 132.069 211.103 132.126C210.86 132.414 210.688 132.632 210.536 132.843C210.443 132.971 210.28 133.167 210.172 133.278C210.065 133.389 209.977 133.521 209.977 133.571C209.977 133.704 209.638 133.681 209.494 133.537C209.426 133.469 209.37 133.389 209.37 133.36C209.37 133.331 209.283 133.213 209.175 133.098C208.888 132.791 208.764 132.634 208.764 132.581C208.764 132.554 208.647 132.41 208.503 132.261C208.36 132.111 208.243 131.957 208.243 131.919C208.243 131.88 208.146 131.751 208.027 131.632C207.907 131.513 207.81 131.393 207.81 131.365C207.81 131.302 207.677 131.14 207.311 130.756C207.156 130.593 207.03 130.438 207.03 130.41C207.03 130.354 206.908 130.201 206.618 129.891C206.51 129.776 206.423 129.65 206.423 129.611C206.423 129.571 206.345 129.483 206.249 129.414C206.154 129.346 206.076 129.239 206.076 129.177C206.076 129.115 205.939 128.932 205.772 128.77C205.606 128.608 205.469 128.432 205.469 128.379C205.469 128.238 204.965 127.768 204.816 127.768C204.746 127.768 204.689 127.733 204.689 127.691C204.689 127.648 204.581 127.595 204.45 127.573C204.319 127.55 204.153 127.507 204.082 127.477C204.01 127.447 203.893 127.461 203.822 127.507ZM116.949 127.681C116.949 127.729 116.734 127.768 116.472 127.768C116.21 127.768 115.995 127.797 115.995 127.833C115.995 127.868 115.741 127.974 115.432 128.068C115.122 128.161 114.868 128.268 114.868 128.306C114.868 128.343 114.77 128.374 114.651 128.374C114.532 128.374 114.434 128.413 114.434 128.461C114.434 128.509 114.374 128.548 114.301 128.548C114.227 128.548 114.062 128.645 113.933 128.764C113.805 128.883 113.659 128.981 113.609 128.981C113.56 128.981 113.463 129.059 113.394 129.154C113.325 129.25 113.237 129.328 113.198 129.328C113.057 129.328 111.92 130.442 111.92 130.58C111.92 130.606 111.784 130.772 111.617 130.949C111.45 131.126 111.313 131.312 111.313 131.363C111.313 131.414 111.235 131.512 111.14 131.581C111.045 131.65 110.967 131.795 110.967 131.904C110.967 132.012 110.927 132.101 110.88 132.101C110.832 132.101 110.793 132.174 110.793 132.264C110.793 132.353 110.735 132.475 110.663 132.534C110.592 132.594 110.533 132.735 110.533 132.848C110.533 132.962 110.494 133.054 110.446 133.054C110.399 133.054 110.36 133.191 110.36 133.358C110.36 133.525 110.324 133.661 110.281 133.661C110.165 133.661 110.09 134.399 110.045 135.993C110.019 136.922 110.036 137.446 110.095 137.505C110.145 137.555 110.186 137.764 110.186 137.969C110.186 138.174 110.225 138.341 110.273 138.341C110.321 138.341 110.36 138.478 110.36 138.645C110.36 138.812 110.399 138.948 110.446 138.948C110.494 138.948 110.533 139.065 110.533 139.208C110.533 139.351 110.562 139.468 110.598 139.469C110.685 139.469 110.967 139.971 110.967 140.125C110.967 140.193 111.006 140.248 111.053 140.248C111.101 140.248 111.14 140.307 111.14 140.378C111.14 140.45 111.179 140.508 111.227 140.508C111.274 140.508 111.313 140.586 111.313 140.681C111.313 140.777 111.362 140.855 111.422 140.856C111.519 140.857 111.92 141.384 111.92 141.51C111.92 141.577 112.153 141.808 112.221 141.808C112.311 141.808 112.7 142.228 112.7 142.324C112.7 142.374 112.759 142.415 112.831 142.415C112.902 142.415 112.961 142.454 112.961 142.502C112.961 142.549 113.019 142.588 113.091 142.588C113.162 142.588 113.221 142.627 113.221 142.675C113.221 142.723 113.265 142.762 113.319 142.762C113.373 142.762 113.508 142.859 113.618 142.978C113.729 143.097 113.88 143.195 113.953 143.195C114.027 143.195 114.088 143.234 114.088 143.282C114.088 143.329 114.166 143.368 114.261 143.368C114.356 143.368 114.435 143.397 114.435 143.433C114.435 143.469 114.611 143.57 114.825 143.659C115.039 143.747 115.215 143.854 115.215 143.897C115.215 143.94 115.351 143.975 115.518 143.975C115.685 143.975 115.822 144.014 115.822 144.062C115.822 144.109 115.997 144.148 116.212 144.148C116.426 144.148 116.602 144.182 116.602 144.223C116.602 144.264 117.236 144.324 118.011 144.356C119.476 144.416 120.677 144.565 120.677 144.685C120.677 144.724 120.774 144.755 120.894 144.755C121.013 144.755 121.11 144.794 121.11 144.842C121.11 144.889 121.208 144.928 121.327 144.928C121.446 144.928 121.544 144.958 121.545 144.993C121.545 145.029 121.701 145.133 121.892 145.224C122.082 145.315 122.237 145.422 122.237 145.462C122.237 145.502 122.278 145.535 122.328 145.535C122.425 145.535 122.844 145.924 122.844 146.014C122.844 146.085 123.077 146.315 123.148 146.315C123.255 146.315 123.451 146.564 123.451 146.699C123.451 146.774 123.49 146.835 123.538 146.835C123.586 146.835 123.625 146.894 123.625 146.965C123.625 147.037 123.654 147.095 123.69 147.096C123.777 147.096 124.058 147.598 124.058 147.752C124.058 147.82 124.097 147.875 124.145 147.875C124.193 147.875 124.232 147.973 124.232 148.092C124.232 148.211 124.271 148.309 124.318 148.309C124.366 148.309 124.405 148.523 124.405 148.785C124.405 149.047 124.444 149.262 124.492 149.262C124.543 149.262 124.578 149.58 124.578 150.042C124.578 150.504 124.543 150.822 124.492 150.822C124.444 150.822 124.405 151.036 124.405 151.299C124.405 151.561 124.366 151.775 124.318 151.775C124.271 151.775 124.232 151.858 124.232 151.959C124.232 152.169 123.807 152.989 123.698 152.989C123.657 152.989 123.625 153.067 123.625 153.162C123.625 153.257 123.586 153.335 123.538 153.335C123.49 153.335 123.451 153.376 123.451 153.426C123.451 153.523 123.062 153.942 122.972 153.942C122.901 153.942 122.671 154.174 122.671 154.245C122.671 154.327 122.436 154.549 122.349 154.549C122.309 154.549 122.219 154.627 122.151 154.722C122.082 154.817 121.956 154.895 121.871 154.895C121.787 154.895 121.717 154.934 121.717 154.981C121.717 155.027 121.62 155.09 121.5 155.12C121.381 155.15 121.284 155.209 121.284 155.252C121.284 155.294 121.186 155.329 121.067 155.329C120.948 155.329 120.85 155.368 120.85 155.416C120.85 155.463 120.694 155.502 120.503 155.502C120.313 155.502 120.157 155.541 120.157 155.589C120.157 155.643 119.665 155.676 118.856 155.676C118.047 155.676 117.556 155.643 117.556 155.589C117.556 155.541 117.419 155.502 117.252 155.502C117.085 155.502 116.949 155.463 116.949 155.416C116.949 155.368 116.877 155.329 116.789 155.329C116.574 155.329 116.072 155.076 115.898 154.88C115.821 154.793 115.694 154.722 115.616 154.722C115.539 154.722 115.475 154.683 115.475 154.635C115.475 154.588 115.433 154.549 115.382 154.549C115.262 154.549 115.041 154.328 115.041 154.208C115.041 154.157 115.001 154.115 114.951 154.115C114.856 154.115 114.434 153.727 114.434 153.639C114.434 153.611 114.395 153.541 114.346 153.483C113.927 152.987 113.828 152.839 113.828 152.707C113.828 152.624 113.789 152.555 113.741 152.555C113.693 152.555 113.654 152.458 113.654 152.339C113.654 152.22 113.615 152.122 113.567 152.122C113.52 152.122 113.481 151.968 113.481 151.78C113.481 151.593 113.447 151.418 113.405 151.392C113.364 151.367 113.302 151.063 113.268 150.718C113.183 149.854 112.923 149.435 112.47 149.435C112.359 149.435 112.267 149.396 112.267 149.349C112.267 149.301 112.15 149.262 112.007 149.262C111.864 149.262 111.747 149.301 111.747 149.349C111.747 149.396 111.61 149.435 111.443 149.435C111.276 149.435 111.14 149.467 111.14 149.506C111.14 149.544 111.052 149.67 110.945 149.786C110.764 149.981 110.751 150.069 110.761 151.023C110.769 151.647 110.811 152.088 110.87 152.147C110.923 152.2 110.967 152.37 110.967 152.524C110.967 152.679 111.006 152.829 111.053 152.859C111.101 152.888 111.14 153.007 111.14 153.124C111.14 153.24 111.179 153.335 111.227 153.335C111.274 153.335 111.313 153.433 111.313 153.552C111.313 153.671 111.346 153.769 111.386 153.769C111.426 153.769 111.533 153.924 111.624 154.115C111.716 154.305 111.819 154.461 111.855 154.461C111.891 154.462 111.92 154.521 111.92 154.592C111.92 154.664 111.959 154.722 112.007 154.722C112.055 154.722 112.094 154.765 112.094 154.818C112.094 154.924 112.222 155.073 113.029 155.898C113.329 156.205 113.612 156.456 113.658 156.456C113.703 156.456 113.741 156.495 113.741 156.542C113.741 156.59 113.797 156.629 113.865 156.629C113.933 156.629 114.065 156.726 114.159 156.846C114.253 156.965 114.392 157.062 114.469 157.062C114.545 157.062 114.608 157.101 114.608 157.149C114.608 157.197 114.666 157.236 114.738 157.236C114.809 157.236 114.868 157.275 114.868 157.322C114.868 157.37 114.946 157.409 115.041 157.409C115.137 157.409 115.215 157.448 115.215 157.496C115.215 157.543 115.294 157.582 115.391 157.582C115.488 157.582 115.589 157.641 115.617 157.712C115.645 157.786 115.775 157.842 115.918 157.842C116.056 157.842 116.168 157.881 116.168 157.929C116.168 157.977 116.305 158.016 116.472 158.016C116.639 158.016 116.775 158.049 116.775 158.09C116.775 158.369 120.815 158.37 120.987 158.091C121.013 158.05 121.168 158.016 121.332 158.016C121.496 158.016 121.631 157.977 121.631 157.929C121.631 157.881 121.711 157.842 121.81 157.842C121.909 157.842 122.048 157.784 122.12 157.712C122.191 157.641 122.325 157.582 122.417 157.582C122.509 157.582 122.584 157.543 122.584 157.496C122.584 157.448 122.643 157.409 122.714 157.409C122.786 157.409 122.844 157.37 122.844 157.322C122.844 157.275 122.922 157.236 123.018 157.236C123.113 157.236 123.191 157.197 123.191 157.149C123.191 157.101 123.244 157.062 123.308 157.062C123.372 157.062 123.572 156.936 123.752 156.781C124.249 156.355 125.359 155.264 125.359 155.202C125.359 155.172 125.446 155.054 125.554 154.939C125.892 154.578 125.966 154.473 125.966 154.353C125.966 154.289 126.001 154.2 126.045 154.154C126.177 154.018 126.572 153.231 126.572 153.106C126.572 153.041 126.611 152.989 126.659 152.989C126.707 152.989 126.746 152.852 126.746 152.685C126.746 152.519 126.781 152.382 126.824 152.382C126.951 152.382 127.023 151.564 127.023 150.129C127.023 148.693 126.951 147.875 126.824 147.875C126.781 147.875 126.746 147.739 126.746 147.572C126.746 147.405 126.707 147.268 126.659 147.268C126.611 147.268 126.572 147.176 126.572 147.062C126.572 146.949 126.514 146.808 126.442 146.748C126.371 146.689 126.312 146.567 126.312 146.478C126.312 146.388 126.273 146.315 126.226 146.315C126.178 146.315 126.139 146.237 126.139 146.142C126.139 146.046 126.1 145.968 126.052 145.968C126.005 145.968 125.966 145.91 125.966 145.838C125.966 145.767 125.927 145.708 125.879 145.708C125.831 145.708 125.792 145.652 125.792 145.583C125.792 145.514 125.695 145.352 125.575 145.223C125.456 145.095 125.359 144.959 125.359 144.922C125.359 144.846 124.343 143.802 124.27 143.802C124.218 143.802 124.059 143.674 123.754 143.39C123.64 143.283 123.49 143.195 123.421 143.195C123.21 143.195 123.172 142.922 123.359 142.748C123.453 142.66 123.574 142.588 123.628 142.588C123.748 142.588 125.185 141.129 125.185 141.007C125.185 140.958 125.258 140.855 125.346 140.778C125.435 140.701 125.535 140.55 125.569 140.443C125.603 140.336 125.667 140.248 125.711 140.248C125.756 140.248 125.792 140.17 125.792 140.075C125.792 139.979 125.831 139.901 125.879 139.901C125.927 139.901 125.966 139.826 125.966 139.733C125.966 139.641 126.005 139.541 126.052 139.511C126.1 139.482 126.139 139.382 126.139 139.29C126.139 139.197 126.178 139.121 126.226 139.121C126.273 139.121 126.314 139.034 126.315 138.926C126.317 138.819 126.374 138.634 126.442 138.515C126.511 138.396 126.568 138.132 126.569 137.93C126.571 137.727 126.611 137.561 126.659 137.561C126.714 137.561 126.746 136.983 126.746 136.001C126.746 135.019 126.714 134.441 126.659 134.441C126.611 134.441 126.572 134.268 126.572 134.056C126.572 133.845 126.538 133.65 126.496 133.624C126.408 133.57 126.139 132.785 126.139 132.583C126.139 132.509 126.1 132.448 126.052 132.448C126.005 132.448 125.966 132.37 125.966 132.274C125.966 132.179 125.927 132.101 125.879 132.101C125.831 132.101 125.792 132.049 125.792 131.985C125.792 131.92 125.695 131.755 125.575 131.616C125.456 131.478 125.359 131.316 125.359 131.256C125.359 131.196 125.32 131.148 125.272 131.148C125.224 131.148 125.185 131.105 125.185 131.054C125.185 131.002 125.049 130.827 124.882 130.665C124.445 130.241 124.478 130.108 125.019 130.108C125.389 130.108 125.499 130.068 125.712 129.854C125.852 129.715 125.966 129.539 125.966 129.464C125.966 129.389 126.005 129.328 126.052 129.328C126.1 129.328 126.139 129.096 126.139 128.808C126.139 128.519 126.1 128.288 126.052 128.288C126.005 128.288 125.966 128.226 125.966 128.151C125.966 127.996 125.763 127.768 125.625 127.768C125.574 127.768 125.532 127.729 125.532 127.681C125.532 127.624 124.044 127.594 121.24 127.594C118.437 127.594 116.949 127.624 116.949 127.681ZM140.336 129.822C140.729 129.903 141.051 130.001 141.051 130.039C141.051 130.077 141.168 130.108 141.311 130.108C141.454 130.108 141.571 130.147 141.571 130.194C141.571 130.242 141.63 130.281 141.701 130.281C141.773 130.281 141.832 130.32 141.832 130.368C141.832 130.415 141.889 130.454 141.96 130.454C142.261 130.454 143.566 131.972 143.566 132.323C143.566 132.391 143.605 132.448 143.652 132.448C143.7 132.448 143.739 132.503 143.739 132.571C143.739 132.638 143.804 132.824 143.884 132.982C143.963 133.141 144.061 133.339 144.1 133.422C144.14 133.504 144.172 133.709 144.172 133.877C144.172 134.044 144.211 134.181 144.259 134.181C144.307 134.181 144.346 134.318 144.346 134.485V134.788H139.447H134.549V134.311C134.549 134.049 134.588 133.834 134.635 133.834C134.683 133.834 134.722 133.715 134.722 133.568C134.722 133.422 134.781 133.244 134.852 133.172C134.924 133.101 134.982 132.967 134.982 132.875C134.982 132.783 135.021 132.708 135.069 132.708C135.117 132.708 135.156 132.61 135.156 132.491C135.156 132.372 135.195 132.274 135.242 132.274C135.29 132.274 135.329 132.234 135.329 132.184C135.329 132.09 135.416 131.972 135.741 131.624C135.848 131.509 135.936 131.393 135.936 131.364C135.936 131.293 136.348 130.888 136.42 130.888C136.453 130.888 136.542 130.818 136.619 130.734C136.816 130.518 137.205 130.281 137.363 130.281C137.437 130.281 137.497 130.242 137.497 130.194C137.497 130.147 137.591 130.108 137.706 130.108C137.821 130.108 137.929 130.074 137.945 130.032C137.978 129.945 138.975 129.7 139.361 129.684C139.504 129.678 139.943 129.74 140.336 129.822ZM119.116 130.194C119.116 130.242 119.309 130.281 119.545 130.281C119.78 130.281 119.997 130.32 120.027 130.368C120.056 130.415 120.175 130.454 120.292 130.454C120.408 130.454 120.503 130.489 120.503 130.532C120.503 130.574 120.601 130.633 120.72 130.663C120.839 130.693 120.937 130.756 120.937 130.803C120.937 130.849 121.015 130.888 121.11 130.888C121.206 130.888 121.284 130.927 121.284 130.974C121.284 131.022 121.347 131.061 121.425 131.061C121.503 131.061 121.695 131.198 121.853 131.364C122.01 131.531 122.163 131.668 122.192 131.668C122.258 131.668 122.671 132.075 122.671 132.14C122.671 132.166 122.807 132.332 122.974 132.509C123.141 132.686 123.278 132.881 123.278 132.942C123.278 133.004 123.317 133.054 123.365 133.054C123.412 133.054 123.451 133.132 123.451 133.228C123.451 133.323 123.49 133.401 123.538 133.401C123.586 133.401 123.625 133.499 123.625 133.618C123.625 133.737 123.664 133.834 123.711 133.834C123.759 133.834 123.798 133.905 123.798 133.991C123.798 134.078 123.855 134.224 123.925 134.316C123.995 134.409 124.054 134.662 124.055 134.879C124.057 135.096 124.101 135.316 124.153 135.368C124.371 135.586 123.944 138.255 123.69 138.255C123.654 138.255 123.625 138.352 123.625 138.471C123.625 138.591 123.586 138.688 123.538 138.688C123.49 138.688 123.451 138.747 123.451 138.818C123.451 138.89 123.412 138.948 123.365 138.948C123.317 138.948 123.278 139.012 123.278 139.09C123.278 139.168 123.18 139.322 123.061 139.432C122.942 139.543 122.844 139.674 122.844 139.724C122.844 139.774 122.805 139.815 122.758 139.815C122.71 139.815 122.671 139.873 122.671 139.945C122.671 140.016 122.631 140.075 122.581 140.075C122.532 140.075 122.359 140.201 122.196 140.356C121.77 140.762 121.649 140.855 121.547 140.855C121.498 140.855 121.457 140.884 121.457 140.92C121.456 141.007 120.955 141.288 120.8 141.288C120.732 141.288 120.677 141.327 120.677 141.375C120.677 141.423 120.579 141.462 120.46 141.462C120.341 141.462 120.243 141.501 120.243 141.548C120.243 141.596 120.068 141.635 119.853 141.635C119.639 141.635 119.463 141.674 119.463 141.722C119.463 141.775 119.03 141.808 118.336 141.808C117.642 141.808 117.209 141.775 117.209 141.722C117.209 141.674 117.033 141.635 116.819 141.635C116.604 141.635 116.429 141.596 116.429 141.548C116.429 141.501 116.331 141.462 116.212 141.462C116.093 141.462 115.995 141.423 115.995 141.375C115.995 141.327 115.94 141.288 115.872 141.288C115.717 141.288 115.216 141.007 115.215 140.92C115.215 140.884 115.137 140.855 115.041 140.855C114.946 140.855 114.868 140.816 114.868 140.768C114.868 140.72 114.809 140.681 114.738 140.681C114.666 140.681 114.608 140.652 114.608 140.616C114.608 140.528 114.213 140.075 114.136 140.075C114.042 140.075 113.828 139.838 113.828 139.734C113.828 139.683 113.789 139.641 113.741 139.641C113.693 139.641 113.654 139.581 113.654 139.508C113.654 139.434 113.557 139.276 113.437 139.157C113.318 139.038 113.221 138.883 113.221 138.814C113.221 138.745 113.182 138.688 113.134 138.688C113.086 138.688 113.047 138.61 113.047 138.515C113.047 138.419 113.008 138.341 112.961 138.341C112.913 138.341 112.874 138.205 112.874 138.038C112.874 137.871 112.835 137.735 112.787 137.735C112.74 137.735 112.7 137.559 112.7 137.345C112.7 137.127 112.66 136.955 112.608 136.955C112.546 136.955 112.53 136.649 112.559 136.023C112.611 134.877 112.693 134.268 112.796 134.268C112.839 134.268 112.874 134.151 112.874 134.008C112.874 133.865 112.913 133.748 112.961 133.748C113.008 133.748 113.047 133.689 113.047 133.617C113.047 133.451 113.23 133.119 113.372 133.028C113.432 132.99 113.481 132.901 113.481 132.83C113.481 132.653 115.07 131.061 115.246 131.061C115.324 131.061 115.388 131.022 115.388 130.974C115.388 130.927 115.447 130.888 115.518 130.888C115.59 130.888 115.648 130.849 115.648 130.801C115.648 130.753 115.724 130.714 115.816 130.714C115.907 130.714 116.041 130.656 116.113 130.584C116.184 130.513 116.324 130.454 116.422 130.454C116.521 130.454 116.602 130.415 116.602 130.368C116.602 130.32 116.817 130.281 117.079 130.281C117.341 130.281 117.556 130.242 117.556 130.194C117.556 130.143 117.874 130.108 118.336 130.108C118.798 130.108 119.116 130.143 119.116 130.194Z" fill="#F49712"/>
<defs>
<filter id="filter0_f_610_14323" x="-20" y="25" width="298" height="184" filterUnits="userSpaceOnUse" color-interpolation-filters="sRGB">
<feFlood flood-opacity="0" result="BackgroundImageFix"/>
<feBlend mode="normal" in="SourceGraphic" in2="BackgroundImageFix" result="shape"/>
<feGaussianBlur stdDeviation="18.5" result="effect1_foregroundBlur_610_14323"/>
</filter>
<filter id="filter1_ii_610_14323" x="17" y="62" width="224" height="148" filterUnits="userSpaceOnUse" color-interpolation-filters="sRGB">
<feFlood flood-opacity="0" result="BackgroundImageFix"/>
<feBlend mode="normal" in="SourceGraphic" in2="BackgroundImageFix" result="shape"/>
<feColorMatrix in="SourceAlpha" type="matrix" values="0 0 0 0 0 0 0 0 0 0 0 0 0 0 0 0 0 0 127 0" result="hardAlpha"/>
<feOffset dy="-4"/>
<feComposite in2="hardAlpha" operator="arithmetic" k2="-1" k3="1"/>
<feColorMatrix type="matrix" values="0 0 0 0 0 0 0 0 0 0 0 0 0 0 0 0 0 0 0.25 0"/>
<feBlend mode="normal" in2="shape" result="effect1_innerShadow_610_14323"/>
<feColorMatrix in="SourceAlpha" type="matrix" values="0 0 0 0 0 0 0 0 0 0 0 0 0 0 0 0 0 0 127 0" result="hardAlpha"/>
<feOffset dy="4"/>
<feComposite in2="hardAlpha" operator="arithmetic" k2="-1" k3="1"/>
<feColorMatrix type="matrix" values="0 0 0 0 1 0 0 0 0 1 0 0 0 0 1 0 0 0 0.25 0"/>
<feBlend mode="normal" in2="effect1_innerShadow_610_14323" result="effect2_innerShadow_610_14323"/>
</filter>
<linearGradient id="paint0_linear_610_14323" x1="17" y1="34" x2="197.768" y2="215.142" gradientUnits="userSpaceOnUse">
<stop stop-color="#05815D"/>
<stop offset="1" stop-color="#0C575F"/>
</linearGradient>
<linearGradient id="paint1_linear_610_14323" x1="17" y1="62" x2="241" y2="210" gradientUnits="userSpaceOnUse">
<stop stop-color="#65410E"/>
<stop offset="1" stop-color="#291A05"/>
</linearGradient>
</defs>
</svg>
