<svg width="256" height="256" viewBox="0 0 256 256" fill="none" xmlns="http://www.w3.org/2000/svg">
<path fill-rule="evenodd" clip-rule="evenodd" d="M104.425 42.3784C100.056 37.0733 93.5437 34 86.6712 34H29C22.3726 34 17 39.3726 17 46V58.1371V68.2V160C17 166.627 22.3726 172 29 172H229C235.627 172 241 166.627 241 160V70.1371C241 63.5097 235.627 58.1371 229 58.1371H117.404L104.425 42.3784Z" fill="#00115B"/>
<mask id="mask0_804_18008" style="mask-type:alpha" maskUnits="userSpaceOnUse" x="17" y="34" width="224" height="138">
<path fill-rule="evenodd" clip-rule="evenodd" d="M104.425 42.3784C100.056 37.0733 93.5437 34 86.6712 34H29C22.3726 34 17 39.3726 17 46V58.1371V68.2V160C17 166.627 22.3726 172 29 172H229C235.627 172 241 166.627 241 160V70.1371C241 63.5097 235.627 58.1371 229 58.1371H117.404L104.425 42.3784Z" fill="url(#paint0_linear_804_18008)"/>
</mask>
<g mask="url(#mask0_804_18008)">
<g style="mix-blend-mode:multiply" filter="url(#filter0_f_804_18008)">
<path fill-rule="evenodd" clip-rule="evenodd" d="M92.789 74C97.7642 74 102.605 72.3868 106.586 69.4024L116.459 62H229C235.627 62 241 67.3726 241 74V108V160C241 166.627 235.627 172 229 172H29C22.3726 172 17 166.627 17 160L17 108V86C17 79.3726 22.3726 74 29 74H87H92.789Z" fill="black" fill-opacity="0.3"/>
</g>
</g>
<g filter="url(#filter1_ii_804_18008)">
<path fill-rule="evenodd" clip-rule="evenodd" d="M92.789 74C97.7642 74 102.605 72.3868 106.586 69.4024L116.459 62H229C235.627 62 241 67.3726 241 74V108V198C241 204.627 235.627 210 229 210H29C22.3726 210 17 204.627 17 198L17 108V86C17 79.3726 22.3726 74 29 74H87H92.789Z" fill="url(#paint1_linear_804_18008)"/>
</g>
<path fill-rule="evenodd" clip-rule="evenodd" d="M128.493 101.586C128.259 102.151 127.747 103.509 127.353 104.604C126.195 107.827 124.903 108.798 119.051 110.841C118.374 111.077 118.814 111.857 119.623 111.857C119.954 111.857 121.416 112.397 122.873 113.058C125.802 114.386 126.648 115.42 127.799 119.08C128.184 120.305 128.65 121.306 128.834 121.306C129.018 121.306 129.483 120.305 129.868 119.08C131.184 114.897 132.751 113.401 137.161 112.116C138.038 111.86 138.75 111.489 138.745 111.291C138.74 111.093 137.301 110.353 135.548 109.648C132.015 108.226 131.482 107.612 129.828 103.065C128.965 100.69 128.895 100.613 128.493 101.586ZM106.444 114.16C101.07 115.73 94.9223 118.514 92.7289 120.37C91.6348 121.296 91.4003 121.74 91.6262 122.452C92.0066 123.65 94.7941 125.216 97.6576 125.839C100.067 126.364 101.819 126.203 100.281 125.598C99.8292 125.42 99.0462 124.958 98.5409 124.571L97.6223 123.867L99.5679 123.043C101.993 122.015 104.359 121.516 111.711 120.48C114.903 120.031 117.565 119.663 117.628 119.663C117.69 119.663 117.741 119.41 117.741 119.101C117.741 118.791 116.955 117.714 115.995 116.706C115.035 115.698 113.917 114.38 113.511 113.776C113.105 113.173 112.458 112.688 112.073 112.699C111.688 112.71 109.155 113.367 106.444 114.16ZM144.794 113.1C144.42 113.318 143.65 114.29 143.082 115.259C142.514 116.229 141.571 117.278 140.987 117.591C139.671 118.295 139.606 119.494 140.867 119.81C141.385 119.94 143.557 120.241 145.695 120.479C151.881 121.168 155.943 122.011 158.775 123.194L160.164 123.774L159.121 124.594C158.548 125.045 157.876 125.414 157.63 125.414C157.383 125.414 157.181 125.62 157.181 125.872C157.181 126.598 160.785 125.922 163.27 124.73C164.582 124.101 165.645 123.267 165.928 122.645C166.356 121.705 166.268 121.496 164.992 120.431C161.97 117.908 155.382 115.101 148.289 113.315C145.361 112.577 145.658 112.595 144.794 113.1ZM45.0247 114.881C38.8446 116.563 33.8078 121.528 31.8478 127.87C30.7324 131.479 30.7151 137.465 31.8108 140.635C33.7992 146.388 36.8582 150.053 41.6436 152.419C44.5485 153.854 45.0559 153.969 49.1034 154.103C55.5555 154.317 60.6637 152.884 64.2749 149.845L65.5661 148.759V144.071C65.5661 138.959 65.9227 138.078 68.2234 137.501C70.6846 136.883 68.2751 136.621 59.3737 136.541C51.9356 136.474 49.9062 136.567 50.0397 136.968C50.1338 137.249 51.1004 137.777 52.1879 138.141C53.2758 138.505 54.6044 139.313 55.1413 139.937C56.0431 140.986 56.1171 141.421 56.1171 145.682C56.1171 151.187 55.7095 152.118 53.2988 152.118C51.2668 152.118 47.8516 150.379 46.2087 148.508C43.5054 145.43 41.7381 139.95 41.7381 134.648C41.7381 131.747 42.9299 126.677 44.1956 124.197C46.9412 118.815 52.4512 116.22 56.7769 118.273C58.944 119.301 62.0979 123.026 63.0864 125.724C64.4626 129.482 64.4331 129.44 64.7605 128.085C65.1339 126.538 65.2403 119.952 64.9059 119.08C64.7687 118.723 64.1981 118.43 63.6373 118.43C63.0765 118.43 61.1201 117.772 59.2895 116.967C53.3485 114.354 49.1909 113.746 45.0247 114.881ZM221.476 117.614C218.764 118.237 215.113 119.064 213.362 119.452C211.611 119.839 210.182 120.276 210.187 120.423C210.192 120.57 210.792 120.967 211.52 121.306C213.632 122.289 213.863 123.226 213.869 130.858C213.872 134.642 213.737 137.737 213.567 137.734C213.397 137.731 212.057 136.697 210.589 135.437C209.12 134.178 205.28 130.935 202.056 128.232L196.194 123.318L192.812 123.807C190.953 124.076 189.061 124.437 188.609 124.609L187.788 124.921L188.609 125.19C190.507 125.812 191.468 126.514 191.735 127.475C191.891 128.036 192.038 132.892 192.06 138.266C192.106 149.104 191.904 150.228 189.677 151.544C188.977 151.957 188.404 152.44 188.404 152.618C188.404 152.795 192.101 152.94 196.62 152.94C201.14 152.94 204.83 152.801 204.821 152.632C204.813 152.462 204.084 151.824 203.2 151.214C201.158 149.801 201.073 149.316 201.224 139.883L201.345 132.371L207.61 137.623L213.875 142.874L213.879 144.723C213.887 148.122 216.482 152.565 219.647 154.596C223.158 156.849 222.913 158.033 222.913 138.753C222.913 119.965 222.927 119.855 225.419 117.904C226.174 117.314 226.705 116.752 226.599 116.656C226.492 116.559 224.187 116.99 221.476 117.614ZM125.072 123.761C120.233 125.222 117.743 130.288 119.543 135.004C120.402 137.251 121.795 138.556 127.484 142.439C133.117 146.284 133.922 147.203 133.623 149.447C133.306 151.821 131.857 152.942 129.119 152.931C125.292 152.915 122.708 151.18 119.756 146.648L118.199 144.258L117.926 145.718C117.614 147.381 118.254 151.58 119.075 153.254C119.535 154.194 119.853 154.359 121.017 154.264C121.782 154.201 123.785 154.455 125.469 154.83C133.967 156.721 139.532 153.167 139.506 145.866C139.49 141.115 138.044 139.256 130.354 134.097C125.653 130.943 124.308 129.565 124.328 127.927C124.351 126.029 125.3 125.279 127.908 125.096C130.733 124.898 132.433 125.835 134.301 128.617C135.326 130.143 138.469 132.349 138.943 131.875C139.185 131.633 138.139 128.789 136.927 126.397L135.893 124.357L132.445 123.859C128.583 123.3 126.679 123.275 125.072 123.761ZM69.084 128.316L70.2906 129.574L70.4229 135.711C70.4957 139.086 70.6329 141.848 70.7274 141.848C70.8223 141.848 71.7795 141.176 72.8546 140.355C73.9302 139.533 75.2189 138.675 75.7189 138.447C76.5398 138.072 76.6396 137.688 76.746 134.496L76.8639 130.961L80.2417 130.841C84.295 130.698 85.6704 131.265 87.0233 133.634C87.5364 134.533 88.0721 135.269 88.2139 135.271C88.5795 135.276 88.1309 131.638 87.5615 129.979L87.0833 128.586L80.9837 128.419C77.6289 128.327 73.6073 127.983 72.0469 127.655C67.9 126.782 67.6638 126.835 69.084 128.316ZM90.3752 128.677C90.2762 128.777 90.708 129.268 91.3354 129.768L92.4754 130.676L92.6069 139.651C92.7466 149.203 92.4557 151.463 91.0285 151.916C88.9591 152.573 90.623 152.94 95.6593 152.938L101.103 152.936L99.8703 151.951L98.6378 150.965L98.5088 143.49C98.4172 138.18 98.5092 136.095 98.8264 136.291C99.0725 136.443 101.808 139.835 104.907 143.829C108.005 147.823 111.176 151.797 111.953 152.659C113.304 154.157 115.572 155.657 115.936 155.293C116.031 155.198 115.785 154.398 115.39 153.517C114.782 152.159 114.651 150.33 114.533 141.607L114.394 131.302L115.451 130.045C116.033 129.353 116.509 128.722 116.509 128.642C116.509 128.561 114.199 128.496 111.374 128.496C108.55 128.496 106.239 128.567 106.239 128.654C106.239 128.741 106.7 129.24 107.265 129.764C108.274 130.699 108.292 130.827 108.292 136.966C108.292 140.404 108.153 143.082 107.984 142.917C107.815 142.751 105.267 139.531 102.323 135.761L96.9695 128.906L93.7625 128.701C91.9988 128.588 90.4747 128.577 90.3752 128.677ZM141.523 128.712C140.619 128.925 140.621 128.934 141.706 129.646L142.802 130.363V140.857C142.802 151.887 142.755 152.207 140.826 154.275C139.85 155.322 139.832 155.405 140.588 155.405C141.037 155.405 142.966 154.854 144.876 154.181C146.786 153.507 149.061 152.953 149.932 152.948L151.516 152.94L150.24 151.748C149.021 150.609 148.965 150.413 148.971 147.332C148.974 145.558 149.128 143.87 149.312 143.579C149.56 143.189 150.821 143.082 154.133 143.168L158.619 143.285L158.738 146.883C158.849 150.265 158.794 150.543 157.813 151.523C157.24 152.097 156.77 152.65 156.77 152.753C156.77 152.856 159.081 152.94 161.905 152.94C164.73 152.94 167.041 152.856 167.041 152.753C167.041 152.65 166.579 152.104 166.014 151.539L164.987 150.512V140.614V130.716L166.074 129.708C166.671 129.155 166.995 128.689 166.793 128.674C166.337 128.639 158.496 128.641 157.429 128.676C156.745 128.698 156.785 128.826 157.753 129.723C158.816 130.708 158.851 130.879 158.737 134.55L158.619 138.356H153.894H149.17L149.051 134.746C148.935 131.223 148.961 131.106 150.149 129.918C150.818 129.249 151.334 128.687 151.295 128.669C150.941 128.508 142.221 128.547 141.523 128.712ZM171.318 128.76C171.228 128.905 171.662 129.151 172.282 129.305C174.85 129.946 174.847 129.931 174.847 140.649V150.415L173.764 151.267C173.169 151.735 172.429 152.118 172.121 152.118C171.812 152.118 171.56 152.303 171.56 152.529C171.56 152.786 174.093 152.94 178.339 152.94C182.584 152.94 185.117 152.786 185.117 152.529C185.117 152.303 184.739 152.118 184.277 152.118C183.815 152.118 182.983 151.664 182.428 151.11L181.42 150.102V140.812C181.42 135.453 181.592 131.201 181.827 130.761C182.052 130.342 182.884 129.785 183.676 129.524C184.469 129.262 185.117 128.924 185.117 128.772C185.116 128.418 171.536 128.407 171.318 128.76ZM78.7126 138.263C73.8032 139.943 69.8161 142.942 67.6807 146.562C66.7522 148.136 67.11 148.39 68.8527 147.394C70.3186 146.556 70.4961 146.625 70.4961 148.037C70.4961 149.59 69.9534 150.683 68.2899 152.481L67.004 153.871L68.6473 153.553C69.5512 153.378 74.3521 153.122 79.3166 152.985L88.3425 152.735L88.8367 151.091C89.1087 150.187 89.342 148.524 89.356 147.394L89.3806 145.34L88.4567 146.971C87.9485 147.868 86.8984 149.03 86.1228 149.552C84.8541 150.407 84.318 150.491 80.7881 150.386L76.8639 150.27L76.7448 147.137L76.6256 144.004L77.7718 143.769C78.4025 143.64 81.1636 143.305 83.908 143.025C89.2179 142.482 89.7311 142.141 87.1165 140.894C85.8947 140.312 85.6967 140.016 85.6967 138.773V137.328L83.5399 137.339C82.3538 137.345 80.1814 137.761 78.7126 138.263ZM169.917 138.734C169.917 139.908 169.697 140.297 168.757 140.783C168.119 141.113 167.357 141.672 167.063 142.026C166.596 142.589 166.708 142.669 167.957 142.669C168.743 142.669 170.531 142.789 171.93 142.935L174.476 143.201L174.353 140.368L174.23 137.534L172.073 137.41L169.917 137.285V138.734ZM182.241 143.061V145.096L185.528 146.753C187.336 147.664 188.815 148.307 188.815 148.181C188.815 147.151 183.452 141.026 182.55 141.026C182.38 141.026 182.241 141.942 182.241 143.061ZM136.782 160.936C137.109 161.789 133.592 169.776 132.477 170.708C131.638 171.41 131.669 171.427 133.797 171.427C135.675 171.427 135.875 171.354 135.25 170.898C134.719 170.509 134.601 170.072 134.806 169.254C135.07 168.2 135.216 168.141 137.516 168.141C139.761 168.141 139.978 168.223 140.356 169.219C140.686 170.087 140.625 170.404 140.038 170.849C139.409 171.326 139.775 171.403 142.722 171.414L146.135 171.427L145.092 170.503C144.519 169.994 143.154 167.545 142.059 165.059L140.068 160.54L138.3 160.411C136.822 160.304 136.573 160.39 136.782 160.936ZM71.0568 161.597C72.0741 162.397 72.1394 162.658 72.1394 165.93C72.1394 169.078 72.0428 169.507 71.1308 170.419L70.1226 171.427H73.8566H77.5911L76.5085 170.576C75.4848 169.77 75.426 169.527 75.426 166.086C75.426 162.646 75.4848 162.403 76.5085 161.597L77.5911 160.746H73.7827H69.9743L71.0568 161.597ZM87.34 161.567C88.0376 162.265 88.1609 162.932 88.1555 165.984C88.1486 169.786 88.0302 170.196 86.7238 170.936C86.032 171.329 86.2513 171.404 88.1091 171.415C89.8428 171.424 90.2241 171.316 89.8855 170.908C89.4299 170.359 88.9776 164.032 89.3938 164.032C89.5273 164.032 90.3473 165.691 91.2158 167.719C92.0843 169.747 92.9631 171.301 93.1689 171.174C93.3751 171.047 94.3171 169.341 95.2625 167.385L96.9818 163.827L97.1108 166.415C97.1954 168.105 97.0303 169.423 96.6355 170.215L96.0303 171.427L99.3884 171.415C102.105 171.405 102.589 171.313 101.924 170.936C100.618 170.196 100.5 169.786 100.493 166C100.487 162.843 100.593 162.322 101.386 161.583L102.285 160.746L99.6398 160.746L96.9945 160.748L95.7168 163.52L94.4392 166.292L93.1664 163.519L91.8937 160.746H89.206H86.5184L87.34 161.567ZM112.542 161.497C113.069 162.079 113.221 163.073 113.216 165.913C113.21 169.786 113.093 170.194 111.784 170.936C111.128 171.308 111.75 171.401 114.866 171.393C118.532 171.384 118.712 171.345 117.844 170.739C117.208 170.295 116.92 169.679 116.92 168.761C116.92 167.513 117.027 167.413 118.579 167.205C120.718 166.918 122.177 165.946 122.52 164.58C123.146 162.086 120.702 160.747 115.521 160.746C112.003 160.746 111.888 160.774 112.542 161.497ZM158.088 161.431C156.102 162.41 155.126 163.861 155.128 165.834C155.132 169.996 159.314 172.503 163.702 170.973C164.418 170.723 165.192 170.169 165.421 169.74C165.823 168.989 165.788 168.985 164.428 169.634C160.908 171.312 157.428 167.422 159.302 163.902C160.45 161.748 163.105 161.292 164.775 162.962C165.899 164.085 166.179 164.008 165.919 162.647C165.773 161.885 165.321 161.596 163.687 161.219C160.95 160.587 159.705 160.634 158.088 161.431ZM176.047 160.848C175.953 161.156 175.89 163.621 175.976 163.621C176.033 163.621 176.449 163.252 176.901 162.8C177.357 162.343 178.27 161.978 178.955 161.978H180.187L180.181 165.778C180.175 169.788 180.062 170.192 178.749 170.936C178.09 171.31 178.677 171.405 181.709 171.415L185.491 171.427L184.467 170.403C183.508 169.444 183.45 169.147 183.561 165.781L183.679 162.184L184.996 162.056C185.969 161.962 186.45 162.15 186.841 162.775C187.612 164.01 187.993 163.815 187.993 162.184V160.746H182.036C178.76 160.746 176.065 160.792 176.047 160.848ZM118.222 162.247C118.636 162.621 118.974 163.424 118.974 164.032C118.974 165.243 117.641 166.738 116.946 166.308C116.258 165.883 116.529 161.567 117.243 161.567C117.369 161.567 117.809 161.873 118.222 162.247ZM138.683 165.175C139.331 166.817 139.181 166.998 137.314 166.833L135.852 166.703L136.668 164.886C137.533 162.959 137.826 163.001 138.683 165.175Z" fill="white"/>
<defs>
<filter id="filter0_f_804_18008" x="-20" y="25" width="298" height="184" filterUnits="userSpaceOnUse" color-interpolation-filters="sRGB">
<feFlood flood-opacity="0" result="BackgroundImageFix"/>
<feBlend mode="normal" in="SourceGraphic" in2="BackgroundImageFix" result="shape"/>
<feGaussianBlur stdDeviation="18.5" result="effect1_foregroundBlur_804_18008"/>
</filter>
<filter id="filter1_ii_804_18008" x="17" y="62" width="224" height="148" filterUnits="userSpaceOnUse" color-interpolation-filters="sRGB">
<feFlood flood-opacity="0" result="BackgroundImageFix"/>
<feBlend mode="normal" in="SourceGraphic" in2="BackgroundImageFix" result="shape"/>
<feColorMatrix in="SourceAlpha" type="matrix" values="0 0 0 0 0 0 0 0 0 0 0 0 0 0 0 0 0 0 127 0" result="hardAlpha"/>
<feOffset dy="4"/>
<feComposite in2="hardAlpha" operator="arithmetic" k2="-1" k3="1"/>
<feColorMatrix type="matrix" values="0 0 0 0 1 0 0 0 0 1 0 0 0 0 1 0 0 0 0.25 0"/>
<feBlend mode="normal" in2="shape" result="effect1_innerShadow_804_18008"/>
<feColorMatrix in="SourceAlpha" type="matrix" values="0 0 0 0 0 0 0 0 0 0 0 0 0 0 0 0 0 0 127 0" result="hardAlpha"/>
<feOffset dy="-4"/>
<feComposite in2="hardAlpha" operator="arithmetic" k2="-1" k3="1"/>
<feColorMatrix type="matrix" values="0 0 0 0 0 0 0 0 0 0 0 0 0 0 0 0 0 0 0.9 0"/>
<feBlend mode="soft-light" in2="effect1_innerShadow_804_18008" result="effect2_innerShadow_804_18008"/>
</filter>
<linearGradient id="paint0_linear_804_18008" x1="17" y1="34" x2="197.768" y2="215.142" gradientUnits="userSpaceOnUse">
<stop stop-color="#05815D"/>
<stop offset="1" stop-color="#0C575F"/>
</linearGradient>
<linearGradient id="paint1_linear_804_18008" x1="17" y1="62" x2="241" y2="210" gradientUnits="userSpaceOnUse">
<stop stop-color="#4CB3DE"/>
<stop offset="0.0001" stop-color="#42A7BA"/>
<stop offset="0.511699" stop-color="#075ABC"/>
<stop offset="1" stop-color="#1D416A"/>
</linearGradient>
</defs>
</svg>
