<svg width="256" height="256" viewBox="0 0 256 256" fill="none" xmlns="http://www.w3.org/2000/svg">
<path fill-rule="evenodd" clip-rule="evenodd" d="M104.425 42.3784C100.056 37.0733 93.5437 34 86.6712 34H29C22.3726 34 17 39.3726 17 46V58.1371V68.2V160C17 166.627 22.3726 172 29 172H229C235.627 172 241 166.627 241 160V70.1371C241 63.5097 235.627 58.1371 229 58.1371H117.404L104.425 42.3784Z" fill="#E4AB09"/>
<mask id="mask0_1065_27457" style="mask-type:alpha" maskUnits="userSpaceOnUse" x="17" y="34" width="224" height="138">
<path fill-rule="evenodd" clip-rule="evenodd" d="M104.425 42.3784C100.056 37.0733 93.5437 34 86.6712 34H29C22.3726 34 17 39.3726 17 46V58.1371V68.2V160C17 166.627 22.3726 172 29 172H229C235.627 172 241 166.627 241 160V70.1371C241 63.5097 235.627 58.1371 229 58.1371H117.404L104.425 42.3784Z" fill="url(#paint0_linear_1065_27457)"/>
</mask>
<g mask="url(#mask0_1065_27457)">
<g style="mix-blend-mode:multiply" filter="url(#filter0_f_1065_27457)">
<path fill-rule="evenodd" clip-rule="evenodd" d="M92.789 74C97.7642 74 102.605 72.3868 106.586 69.4024L116.459 62H229C235.627 62 241 67.3726 241 74V108V160C241 166.627 235.627 172 229 172H29C22.3726 172 17 166.627 17 160L17 108V86C17 79.3726 22.3726 74 29 74H87H92.789Z" fill="black" fill-opacity="0.3"/>
</g>
</g>
<g filter="url(#filter1_d_1065_27457)">
<g filter="url(#filter2_ii_1065_27457)">
<path fill-rule="evenodd" clip-rule="evenodd" d="M92.789 74C97.7642 74 102.605 72.3868 106.586 69.4024L116.459 62H229C235.627 62 241 67.3726 241 74V108V198C241 204.627 235.627 210 229 210H29C22.3726 210 17 204.627 17 198L17 108V86C17 79.3726 22.3726 74 29 74H87H92.789Z" fill="url(#paint1_linear_1065_27457)"/>
</g>
</g>
<path d="M98.011 83.1351C102.213 83.1351 106.302 81.7726 109.664 79.252L118.003 73H222.054C227.652 73 232.189 77.5377 232.189 83.1351V187.865C232.189 193.462 227.652 198 222.054 198H36.1351C30.5376 198 26 193.462 26 187.865V93.2703C26 87.6728 30.5377 83.1351 36.1351 83.1351H98.011Z" fill="url(#paint2_linear_1065_27457)"/>
<path d="M161.044 97.4203C161.044 95.5298 159.512 94 157.624 94H151.638C142.745 96.7362 135.392 101.981 132.827 104.261H157.624C159.512 104.261 161.044 102.731 161.044 100.841V97.4203Z" fill="#3F3F3F"/>
<path d="M159.982 113.754C159.369 113.169 158.537 112.812 157.624 112.812H123.421C118.632 116.232 113.445 121.077 111.45 123.072H157.624C159.512 123.072 161.044 121.543 161.044 119.652V116.232C161.044 115.257 160.636 114.378 159.982 113.754Z" fill="#3F3F3F"/>
<path d="M112.305 162.66C118.29 162.575 135.905 156.249 158.479 131.623H106.319L95.2034 144.925L112.305 162.66Z" fill="#3F3F3F"/>
<path d="M99.4786 94C97.5898 94 96.0583 95.5298 96.0583 97.4203V100.841C96.0583 102.731 97.5898 104.261 99.4786 104.261H132.827C135.392 101.981 142.745 96.7362 151.638 94H99.4786Z" fill="#60605F"/>
<path d="M99.4786 112.812C97.5898 112.812 96.0583 114.341 96.0583 116.232V119.652C96.0583 120.507 96.3723 121.289 96.8917 121.89C97.5179 122.615 98.4448 123.072 99.4786 123.072H111.45C113.445 121.077 118.632 116.232 123.421 112.812H99.4786Z" fill="#60605F"/>
<path d="M90.4269 131.623C87.4091 131.623 85.8709 135.247 87.9652 137.418L95.2034 144.925L106.319 131.623H90.4269Z" fill="#60605F"/>
<path d="M126.089 176.955C127.434 178.348 129.668 178.348 131.013 176.955L169.137 137.418C171.231 135.247 169.693 131.623 166.675 131.623H158.479C135.905 156.249 118.29 162.575 112.305 162.66L126.089 176.955Z" fill="#60605F"/>
<defs>
<filter id="filter0_f_1065_27457" x="-20" y="25" width="298" height="184" filterUnits="userSpaceOnUse" color-interpolation-filters="sRGB">
<feFlood flood-opacity="0" result="BackgroundImageFix"/>
<feBlend mode="normal" in="SourceGraphic" in2="BackgroundImageFix" result="shape"/>
<feGaussianBlur stdDeviation="18.5" result="effect1_foregroundBlur_1065_27457"/>
</filter>
<filter id="filter1_d_1065_27457" x="13" y="62" width="232" height="156" filterUnits="userSpaceOnUse" color-interpolation-filters="sRGB">
<feFlood flood-opacity="0" result="BackgroundImageFix"/>
<feColorMatrix in="SourceAlpha" type="matrix" values="0 0 0 0 0 0 0 0 0 0 0 0 0 0 0 0 0 0 127 0" result="hardAlpha"/>
<feOffset dy="4"/>
<feGaussianBlur stdDeviation="2"/>
<feComposite in2="hardAlpha" operator="out"/>
<feColorMatrix type="matrix" values="0 0 0 0 0 0 0 0 0 0 0 0 0 0 0 0 0 0 0.25 0"/>
<feBlend mode="normal" in2="BackgroundImageFix" result="effect1_dropShadow_1065_27457"/>
<feBlend mode="normal" in="SourceGraphic" in2="effect1_dropShadow_1065_27457" result="shape"/>
</filter>
<filter id="filter2_ii_1065_27457" x="17" y="62" width="224" height="148" filterUnits="userSpaceOnUse" color-interpolation-filters="sRGB">
<feFlood flood-opacity="0" result="BackgroundImageFix"/>
<feBlend mode="normal" in="SourceGraphic" in2="BackgroundImageFix" result="shape"/>
<feColorMatrix in="SourceAlpha" type="matrix" values="0 0 0 0 0 0 0 0 0 0 0 0 0 0 0 0 0 0 127 0" result="hardAlpha"/>
<feOffset dy="4"/>
<feComposite in2="hardAlpha" operator="arithmetic" k2="-1" k3="1"/>
<feColorMatrix type="matrix" values="0 0 0 0 1 0 0 0 0 1 0 0 0 0 1 0 0 0 0.25 0"/>
<feBlend mode="normal" in2="shape" result="effect1_innerShadow_1065_27457"/>
<feColorMatrix in="SourceAlpha" type="matrix" values="0 0 0 0 0 0 0 0 0 0 0 0 0 0 0 0 0 0 127 0" result="hardAlpha"/>
<feOffset dy="-4"/>
<feComposite in2="hardAlpha" operator="arithmetic" k2="-1" k3="1"/>
<feColorMatrix type="matrix" values="0 0 0 0 0 0 0 0 0 0 0 0 0 0 0 0 0 0 0.9 0"/>
<feBlend mode="soft-light" in2="effect1_innerShadow_1065_27457" result="effect2_innerShadow_1065_27457"/>
</filter>
<linearGradient id="paint0_linear_1065_27457" x1="17" y1="34" x2="197.768" y2="215.142" gradientUnits="userSpaceOnUse">
<stop stop-color="#05815D"/>
<stop offset="1" stop-color="#0C575F"/>
</linearGradient>
<linearGradient id="paint1_linear_1065_27457" x1="17" y1="62" x2="241" y2="210" gradientUnits="userSpaceOnUse">
<stop stop-color="#656565"/>
<stop offset="1" stop-color="#696969"/>
</linearGradient>
<linearGradient id="paint2_linear_1065_27457" x1="41.8733" y1="64.998" x2="179.744" y2="235.564" gradientUnits="userSpaceOnUse">
<stop stop-color="#FFE535"/>
<stop offset="1" stop-color="#E3A908"/>
</linearGradient>
</defs>
</svg>
