<svg width="256" height="256" viewBox="0 0 256 256" fill="none" xmlns="http://www.w3.org/2000/svg">
<path fill-rule="evenodd" clip-rule="evenodd" d="M104.425 42.3784C100.056 37.0733 93.5437 34 86.6712 34H29C22.3726 34 17 39.3726 17 46V58.1371V68.2V160C17 166.627 22.3726 172 29 172H229C235.627 172 241 166.627 241 160V70.1371C241 63.5097 235.627 58.1371 229 58.1371H117.404L104.425 42.3784Z" fill="#333333"/>
<mask id="mask0_27_1434" style="mask-type:alpha" maskUnits="userSpaceOnUse" x="17" y="34" width="224" height="138">
<path fill-rule="evenodd" clip-rule="evenodd" d="M104.425 42.3784C100.056 37.0733 93.5437 34 86.6712 34H29C22.3726 34 17 39.3726 17 46V58.1371V68.2V160C17 166.627 22.3726 172 29 172H229C235.627 172 241 166.627 241 160V70.1371C241 63.5097 235.627 58.1371 229 58.1371H117.404L104.425 42.3784Z" fill="url(#paint0_linear_27_1434)"/>
</mask>
<g mask="url(#mask0_27_1434)">
<g style="mix-blend-mode:multiply" filter="url(#filter0_f_27_1434)">
<path fill-rule="evenodd" clip-rule="evenodd" d="M92.789 74C97.7642 74 102.605 72.3868 106.586 69.4024L116.459 62H229C235.627 62 241 67.3726 241 74V108V160C241 166.627 235.627 172 229 172H29C22.3726 172 17 166.627 17 160L17 108V86C17 79.3726 22.3726 74 29 74H87H92.789Z" fill="#A6A1A1"/>
</g>
</g>
<g filter="url(#filter1_ii_27_1434)">
<path fill-rule="evenodd" clip-rule="evenodd" d="M92.789 74C97.7642 74 102.605 72.3868 106.586 69.4024L116.459 62H229C235.627 62 241 67.3726 241 74V108V198C241 204.627 235.627 210 229 210H29C22.3726 210 17 204.627 17 198L17 108V86C17 79.3726 22.3726 74 29 74H87H92.789Z" fill="url(#paint1_linear_27_1434)"/>
</g>
<path fill-rule="evenodd" clip-rule="evenodd" d="M79.0038 132.719H65.37C65.0182 132.719 64.7331 133.005 64.7331 133.357V140.022C64.7331 140.374 65.0182 140.66 65.37 140.66H70.6885V148.942C70.6885 148.942 69.4944 149.349 66.1926 149.349C62.2975 149.349 56.8561 147.926 56.8561 135.96C56.8561 123.992 62.5223 122.418 67.8417 122.418C71.9823 122.418 74.0034 123.073 75.2867 123.489C75.4306 123.536 75.5653 123.579 75.6926 123.619C76.0894 123.74 76.4561 123.346 76.4561 122.993L77.9768 116.553C77.9768 116.388 77.921 116.19 77.7336 116.055C77.221 115.69 74.0935 113.94 66.1926 113.94C57.0912 113.94 47.7547 117.812 47.7547 136.427C47.7547 155.042 58.4439 157.816 67.4516 157.816C74.9097 157.816 79.434 154.629 79.434 154.629C79.6205 154.526 79.6408 154.266 79.6408 154.146V133.357C79.6408 133.005 79.3557 132.719 79.0038 132.719ZM149.267 116.17C149.267 115.815 148.986 115.529 148.634 115.529H140.957C140.607 115.529 140.321 115.815 140.321 116.17L140.324 131.005H128.358V116.17C128.358 115.815 128.076 115.529 127.724 115.529H120.048C119.699 115.529 119.414 115.815 119.414 116.17V156.34C119.414 156.695 119.699 156.983 120.048 156.983H127.724C128.076 156.983 128.358 156.695 128.358 156.34V139.158H140.324L140.303 156.34C140.303 156.695 140.587 156.983 140.939 156.983H148.633C148.985 156.983 149.266 156.695 149.267 156.34V116.17ZM88.5399 116.443C91.2741 116.443 93.4899 118.677 93.4899 121.441C93.4899 124.203 91.2741 126.442 88.5399 126.442C85.8083 126.442 83.5903 124.203 83.5903 121.441C83.5903 118.677 85.8083 116.443 88.5399 116.443ZM92.9412 147.867V129.324C92.9412 128.972 92.657 128.684 92.3061 128.684H84.6534C84.3025 128.684 83.9885 129.046 83.9885 129.398V155.964C83.9885 156.745 84.475 156.977 85.1043 156.977H91.9989C92.7557 156.977 92.9412 156.606 92.9412 155.951V147.867ZM170.824 128.744H178.441C178.793 128.744 179.077 129.033 179.077 129.387L179.08 156.352C179.08 156.705 178.794 156.993 178.445 156.993L173.527 157.015C173.281 157.015 173.053 156.841 172.966 156.668C172.879 156.494 172.686 155.031 172.686 155.031C172.686 155.031 168.635 157.807 163.609 157.807C157.485 157.807 153.032 155.853 153.032 147.864V129.387C153.032 129.033 153.318 128.744 153.667 128.744H161.399C161.749 128.744 162.032 129.033 162.032 129.387V146.563C162.032 149.253 162.761 150.499 165.508 150.499C168.254 150.499 170.19 149.083 170.19 149.083V129.387C170.19 129.033 170.475 128.744 170.824 128.744ZM196.258 150.475C193.615 150.395 191.823 149.196 191.823 149.196V136.474C191.823 136.474 193.591 135.391 195.76 135.197C198.504 134.951 201.147 135.78 201.147 142.324C201.147 149.224 199.954 150.587 196.258 150.475ZM199.262 127.842C194.936 127.842 191.993 129.773 191.993 129.773V116.17C191.993 115.815 191.709 115.529 191.359 115.529H183.661C183.311 115.529 183.027 115.815 183.027 116.17V156.34C183.027 156.695 183.311 156.983 183.662 156.983H189.003C189.244 156.983 189.426 156.859 189.56 156.642C189.693 156.426 189.885 154.79 189.885 154.79C189.885 154.79 193.032 157.773 198.991 157.773C205.988 157.773 210 154.224 210 141.842C210 129.46 203.592 127.842 199.262 127.842ZM109.246 128.68H115.004C115.355 128.68 115.639 128.966 115.639 129.32V135.508C115.639 135.864 115.355 136.15 115.004 136.15H109.245L109.246 147.444C109.246 149.147 110.204 150.462 113.033 150.462C113.579 150.462 114.116 150.41 114.526 150.37C114.778 150.345 114.982 150.325 115.111 150.325C115.448 150.325 115.747 150.612 115.747 150.966L115.74 156.401C115.74 156.657 115.608 156.893 115.38 156.977C115.003 157.116 112.719 157.729 110.81 157.729C106.632 157.729 100.44 156.862 100.44 148.035V136.15H96.4165C96.0656 136.15 95.7818 135.864 95.7818 135.508V130.568C95.7818 130.277 95.9768 130.033 96.2412 129.956C96.5075 129.879 100.44 128.93 100.44 128.93V121.069C100.44 120.775 100.603 120.641 100.909 120.641H108.756C109.089 120.641 109.237 120.785 109.237 121.073L109.246 128.68Z" fill="white"/>
<defs>
<filter id="filter0_f_27_1434" x="-20" y="25" width="298" height="184" filterUnits="userSpaceOnUse" color-interpolation-filters="sRGB">
<feFlood flood-opacity="0" result="BackgroundImageFix"/>
<feBlend mode="normal" in="SourceGraphic" in2="BackgroundImageFix" result="shape"/>
<feGaussianBlur stdDeviation="18.5" result="effect1_foregroundBlur_27_1434"/>
</filter>
<filter id="filter1_ii_27_1434" x="17" y="62" width="224" height="148" filterUnits="userSpaceOnUse" color-interpolation-filters="sRGB">
<feFlood flood-opacity="0" result="BackgroundImageFix"/>
<feBlend mode="normal" in="SourceGraphic" in2="BackgroundImageFix" result="shape"/>
<feColorMatrix in="SourceAlpha" type="matrix" values="0 0 0 0 0 0 0 0 0 0 0 0 0 0 0 0 0 0 127 0" result="hardAlpha"/>
<feOffset dy="4"/>
<feComposite in2="hardAlpha" operator="arithmetic" k2="-1" k3="1"/>
<feColorMatrix type="matrix" values="0 0 0 0 1 0 0 0 0 1 0 0 0 0 1 0 0 0 0.25 0"/>
<feBlend mode="normal" in2="shape" result="effect1_innerShadow_27_1434"/>
<feColorMatrix in="SourceAlpha" type="matrix" values="0 0 0 0 0 0 0 0 0 0 0 0 0 0 0 0 0 0 127 0" result="hardAlpha"/>
<feOffset dy="-4"/>
<feComposite in2="hardAlpha" operator="arithmetic" k2="-1" k3="1"/>
<feColorMatrix type="matrix" values="0 0 0 0 0 0 0 0 0 0 0 0 0 0 0 0 0 0 0.9 0"/>
<feBlend mode="soft-light" in2="effect1_innerShadow_27_1434" result="effect2_innerShadow_27_1434"/>
</filter>
<linearGradient id="paint0_linear_27_1434" x1="17" y1="34" x2="197.768" y2="215.142" gradientUnits="userSpaceOnUse">
<stop stop-color="#05815D"/>
<stop offset="1" stop-color="#0C575F"/>
</linearGradient>
<linearGradient id="paint1_linear_27_1434" x1="17" y1="62" x2="241" y2="210" gradientUnits="userSpaceOnUse">
<stop stop-color="#383838"/>
<stop offset="1" stop-color="#1E1E1E"/>
</linearGradient>
</defs>
</svg>
