<svg width="256" height="256" viewBox="0 0 256 256" fill="none" xmlns="http://www.w3.org/2000/svg">
<g clip-path="url(#clip0_2043_35027)">
<path fill-rule="evenodd" clip-rule="evenodd" d="M104.425 42.3784C100.056 37.0733 93.5437 34 86.6712 34H29C22.3726 34 17 39.3726 17 46V58.1371V68.2V160C17 166.627 22.3726 172 29 172H229C235.627 172 241 166.627 241 160V70.1371C241 63.5097 235.627 58.1371 229 58.1371H117.404L104.425 42.3784Z" fill="#E6E6E6"/>
<mask id="mask0_2043_35027" style="mask-type:alpha" maskUnits="userSpaceOnUse" x="17" y="34" width="224" height="138">
<path fill-rule="evenodd" clip-rule="evenodd" d="M104.425 42.3784C100.056 37.0733 93.5437 34 86.6712 34H29C22.3726 34 17 39.3726 17 46V58.1371V68.2V160C17 166.627 22.3726 172 29 172H229C235.627 172 241 166.627 241 160V70.1371C241 63.5097 235.627 58.1371 229 58.1371H117.404L104.425 42.3784Z" fill="url(#paint0_linear_2043_35027)"/>
</mask>
<g mask="url(#mask0_2043_35027)">
<g style="mix-blend-mode:multiply" filter="url(#filter0_f_2043_35027)">
<path fill-rule="evenodd" clip-rule="evenodd" d="M92.789 74C97.7642 74 102.605 72.3868 106.586 69.4024L116.459 62H229C235.627 62 241 67.3726 241 74V108V160C241 166.627 235.627 172 229 172H29C22.3726 172 17 166.627 17 160L17 108V86C17 79.3726 22.3726 74 29 74H87H92.789Z" fill="black" fill-opacity="0.3"/>
</g>
</g>
<g filter="url(#filter1_ii_2043_35027)">
<path fill-rule="evenodd" clip-rule="evenodd" d="M92.789 74C97.7642 74 102.605 72.3868 106.586 69.4024L116.459 62H229C235.627 62 241 67.3726 241 74V108V198C241 204.627 235.627 210 229 210H29C22.3726 210 17 204.627 17 198L17 108V86C17 79.3726 22.3726 74 29 74H87H92.789Z" fill="url(#paint1_linear_2043_35027)"/>
</g>
<path d="M131.588 143.303C132.358 142.534 132.359 141.285 131.59 140.515C130.82 139.744 129.572 139.744 128.801 140.513L131.588 143.303ZM123.147 148.946L121.756 150.342C122.526 151.11 123.772 151.109 124.541 150.341L123.147 148.946ZM121.116 144.138C120.345 143.369 119.097 143.372 118.328 144.143C117.559 144.914 117.561 146.163 118.333 146.931L121.116 144.138ZM172.917 143.303C173.688 142.534 173.688 141.285 172.919 140.515C172.149 139.744 170.901 139.744 170.131 140.513L172.917 143.303ZM164.477 148.946L163.085 150.342C163.855 151.11 165.101 151.109 165.87 150.341L164.477 148.946ZM162.447 144.138C161.675 143.369 160.427 143.372 159.658 144.143C158.889 144.914 158.891 146.163 159.663 146.931L162.447 144.138ZM92.2994 101.402L93.3503 99.7336L93.3503 99.7336L92.2994 101.402ZM104.04 108.798L102.989 110.466L102.989 110.466L104.04 108.798ZM104.026 112.692L105.066 114.368L105.066 114.368L104.026 112.692ZM92.2855 119.972L93.3244 121.648L93.3245 121.648L92.2855 119.972ZM95.3409 131.33C95.3409 130.241 94.4581 129.358 93.3691 129.358C92.2802 129.358 91.3974 130.241 91.3974 131.33H95.3409ZM111.739 183.818C112.828 183.818 113.711 182.935 113.711 181.846C113.711 180.757 112.828 179.875 111.739 179.875V183.818ZM91.0742 131.412V129.44H89.1025V131.412H91.0742ZM95.6666 131.412H97.6383V129.44H95.6666V131.412ZM139.422 143.134C138.333 143.134 137.45 144.017 137.45 145.105C137.45 146.194 138.333 147.077 139.422 147.077V143.134ZM153.072 147.077C154.161 147.077 155.044 146.194 155.044 145.105C155.044 144.017 154.161 143.134 153.072 143.134V147.077ZM150.85 183.832C151.939 183.796 152.792 182.885 152.756 181.797C152.721 180.708 151.809 179.855 150.721 179.891L150.85 183.832ZM148.396 179.967C147.308 180.003 146.455 180.914 146.49 182.002C146.526 183.091 147.437 183.944 148.526 183.908L148.396 179.967ZM95.6657 91.9717C105.99 91.9717 114.359 100.341 114.359 110.666H118.303C118.303 98.1632 108.168 88.0283 95.6657 88.0283V91.9717ZM114.359 110.666C114.359 120.99 105.99 129.359 95.6657 129.359V133.303C108.168 133.303 118.303 123.168 118.303 110.666H114.359ZM95.6657 129.359C85.3411 129.359 76.9717 120.99 76.9717 110.666H73.0283C73.0283 123.168 83.1632 133.303 95.6657 133.303V129.359ZM76.9717 110.666C76.9717 100.341 85.3411 91.9717 95.6657 91.9717V88.0283C83.1632 88.0283 73.0283 98.1632 73.0283 110.666H76.9717ZM125.519 133.302C132.039 133.302 137.325 138.588 137.325 145.108H141.268C141.268 136.41 134.217 129.358 125.519 129.358V133.302ZM137.325 145.108C137.325 151.627 132.039 156.913 125.519 156.913V160.856C134.217 160.856 141.268 153.805 141.268 145.108H137.325ZM125.519 156.913C118.999 156.913 113.714 151.627 113.714 145.108H109.77C109.77 153.805 116.821 160.856 125.519 160.856V156.913ZM113.714 145.108C113.714 138.588 118.999 133.302 125.519 133.302V129.358C116.821 129.358 109.77 136.41 109.77 145.108H113.714ZM125.519 170.04C132.039 170.04 137.325 175.326 137.325 181.846H141.268C141.268 173.147 134.217 166.097 125.519 166.097V170.04ZM137.325 181.846C137.325 188.366 132.039 193.651 125.519 193.651V197.594C134.217 197.594 141.268 190.544 141.268 181.846H137.325ZM125.519 193.651C118.999 193.651 113.714 188.366 113.714 181.846H109.77C109.77 190.544 116.821 197.594 125.519 197.594V193.651ZM113.714 181.846C113.714 175.325 118.999 170.04 125.519 170.04V166.097C116.821 166.097 109.77 173.148 109.77 181.846H113.714ZM166.85 170.04C173.369 170.04 178.655 175.325 178.655 181.846H182.598C182.598 173.148 175.548 166.097 166.85 166.097V170.04ZM178.655 181.846C178.655 188.366 173.37 193.651 166.85 193.651V197.594C175.547 197.594 182.598 190.544 182.598 181.846H178.655ZM166.85 193.651C160.329 193.651 155.044 188.366 155.044 181.846H151.101C151.101 190.544 158.151 197.594 166.85 197.594V193.651ZM155.044 181.846C155.044 175.325 160.329 170.04 166.85 170.04V166.097C158.151 166.097 151.101 173.148 151.101 181.846H155.044ZM128.801 140.513L121.754 147.551L124.541 150.341L131.588 143.303L128.801 140.513ZM124.539 147.549L121.116 144.138L118.333 146.931L121.756 150.342L124.539 147.549ZM166.85 133.302C173.369 133.302 178.655 138.588 178.655 145.108H182.598C182.598 136.41 175.548 129.358 166.85 129.358V133.302ZM178.655 145.108C178.655 151.627 173.37 156.913 166.85 156.913V160.856C175.547 160.856 182.598 153.805 182.598 145.108H178.655ZM166.85 156.913C160.329 156.913 155.044 151.627 155.044 145.108H151.101C151.101 153.805 158.151 160.856 166.85 160.856V156.913ZM155.044 145.108C155.044 138.588 160.329 133.302 166.85 133.302V129.358C158.151 129.358 151.101 136.41 151.101 145.108H155.044ZM170.131 140.513L163.084 147.551L165.87 150.341L172.917 143.303L170.131 140.513ZM165.869 147.549L162.447 144.138L159.663 146.931L163.085 150.342L165.869 147.549ZM90.751 103.345C90.751 103.089 91.0324 102.934 91.2484 103.07L93.3503 99.7336C90.5082 97.9433 86.8076 99.9858 86.8076 103.345H90.751ZM91.2484 103.07L102.989 110.466L105.091 107.13L93.3503 99.7336L91.2484 103.07ZM102.989 110.466C103.192 110.594 103.191 110.89 102.987 111.017L105.066 114.368C107.746 112.706 107.76 108.811 105.091 107.13L102.989 110.466ZM102.987 111.017L91.2464 118.297L93.3245 121.648L105.066 114.368L102.987 111.017ZM91.2465 118.297C91.0303 118.431 90.751 118.275 90.751 118.021H86.8076C86.8076 121.366 90.4814 123.411 93.3244 121.648L91.2465 118.297ZM90.751 118.021V103.345H86.8076V118.021H90.751ZM91.3974 131.33V165.773H95.3409V131.33H91.3974ZM91.3974 165.773C91.3974 175.747 99.5835 183.818 109.442 183.818V179.875C101.746 179.875 95.3409 173.553 95.3409 165.773H91.3974ZM109.442 183.818H111.739V179.875H109.442V183.818ZM111.623 149.376C113.98 149.376 115.891 147.466 115.891 145.108H111.947C111.947 145.288 111.802 145.433 111.623 145.433V149.376ZM115.891 145.108C115.891 142.751 113.979 140.841 111.623 140.841V144.784C111.803 144.784 111.947 144.93 111.947 145.108H115.891ZM109.651 142.813V147.405H113.595V142.813H109.651ZM89.1025 131.412C89.1025 141.334 97.1455 149.376 107.067 149.376V145.433C99.3234 145.433 93.046 139.156 93.046 131.412H89.1025ZM109.039 147.405V142.813H105.095V147.405H109.039ZM107.067 140.841C101.86 140.841 97.6383 136.619 97.6383 131.412H93.6949C93.6949 138.797 99.6815 144.784 107.067 144.784V140.841ZM95.6666 129.44H91.0742V133.384H95.6666V129.44ZM107.067 149.376H111.623V145.433H107.067V149.376ZM111.623 140.841H107.067V144.784H111.623V140.841ZM139.422 147.077H153.072V143.134H139.422V147.077ZM120.927 181.521C121.105 181.521 121.251 181.666 121.251 181.845H125.195C125.195 179.489 123.283 177.577 120.927 177.577V181.521ZM121.251 181.845C121.251 182.024 121.106 182.169 120.927 182.169V186.113C123.283 186.113 125.195 184.203 125.195 181.845H121.251ZM120.927 182.169C120.748 182.169 120.603 182.024 120.603 181.845H116.659C116.659 184.204 118.572 186.113 120.927 186.113V182.169ZM120.603 181.845C120.603 181.667 120.749 181.521 120.927 181.521V177.577C118.572 177.577 116.659 179.488 116.659 181.845H120.603ZM130.109 181.521C130.287 181.521 130.433 181.667 130.433 181.845H134.376C134.376 179.488 132.464 177.577 130.109 177.577V181.521ZM130.433 181.845C130.433 182.024 130.287 182.169 130.109 182.169V186.113C132.463 186.113 134.376 184.204 134.376 181.845H130.433ZM130.109 182.169C129.93 182.169 129.784 182.024 129.784 181.845H125.841C125.841 184.204 127.754 186.113 130.109 186.113V182.169ZM129.784 181.845C129.784 181.667 129.93 181.521 130.109 181.521V177.577C127.753 177.577 125.841 179.488 125.841 181.845H129.784ZM150.721 179.891L148.396 179.967L148.526 183.908L150.85 183.832L150.721 179.891Z" fill="#79B8FF"/>
</g>
<defs>
<filter id="filter0_f_2043_35027" x="-20" y="25" width="298" height="184" filterUnits="userSpaceOnUse" color-interpolation-filters="sRGB">
<feFlood flood-opacity="0" result="BackgroundImageFix"/>
<feBlend mode="normal" in="SourceGraphic" in2="BackgroundImageFix" result="shape"/>
<feGaussianBlur stdDeviation="18.5" result="effect1_foregroundBlur_2043_35027"/>
</filter>
<filter id="filter1_ii_2043_35027" x="17" y="62" width="224" height="148" filterUnits="userSpaceOnUse" color-interpolation-filters="sRGB">
<feFlood flood-opacity="0" result="BackgroundImageFix"/>
<feBlend mode="normal" in="SourceGraphic" in2="BackgroundImageFix" result="shape"/>
<feColorMatrix in="SourceAlpha" type="matrix" values="0 0 0 0 0 0 0 0 0 0 0 0 0 0 0 0 0 0 127 0" result="hardAlpha"/>
<feOffset dy="-4"/>
<feComposite in2="hardAlpha" operator="arithmetic" k2="-1" k3="1"/>
<feColorMatrix type="matrix" values="0 0 0 0 0 0 0 0 0 0 0 0 0 0 0 0 0 0 0.25 0"/>
<feBlend mode="normal" in2="shape" result="effect1_innerShadow_2043_35027"/>
<feColorMatrix in="SourceAlpha" type="matrix" values="0 0 0 0 0 0 0 0 0 0 0 0 0 0 0 0 0 0 127 0" result="hardAlpha"/>
<feOffset dy="4"/>
<feComposite in2="hardAlpha" operator="arithmetic" k2="-1" k3="1"/>
<feColorMatrix type="matrix" values="0 0 0 0 1 0 0 0 0 1 0 0 0 0 1 0 0 0 0.25 0"/>
<feBlend mode="normal" in2="effect1_innerShadow_2043_35027" result="effect2_innerShadow_2043_35027"/>
</filter>
<linearGradient id="paint0_linear_2043_35027" x1="17" y1="34" x2="197.768" y2="215.142" gradientUnits="userSpaceOnUse">
<stop stop-color="#05815D"/>
<stop offset="1" stop-color="#0C575F"/>
</linearGradient>
<linearGradient id="paint1_linear_2043_35027" x1="17" y1="62" x2="241" y2="210" gradientUnits="userSpaceOnUse">
<stop stop-color="#5F585E"/>
<stop offset="1" stop-color="#010101"/>
</linearGradient>
<clipPath id="clip0_2043_35027">
<rect width="256" height="256" fill="white"/>
</clipPath>
</defs>
</svg>
