<svg xmlns="http://www.w3.org/2000/svg" width="256" height="256" fill="none" viewBox="0 0 256 256">
  <path fill="#FCBC19" fill-rule="evenodd" d="M104.425 42.378A23 23 0 0 0 86.671 34H29c-6.627 0-12 5.373-12 12v114c0 6.627 5.373 12 12 12h200c6.627 0 12-5.373 12-12V70.137c0-6.627-5.373-12-12-12H117.404l-12.979-15.759Z" clip-rule="evenodd"/>
  <mask id="c" width="224" height="138" x="17" y="34" maskUnits="userSpaceOnUse" style="mask-type:alpha">
    <path fill="url(#a)" fill-rule="evenodd" d="M104.425 42.378A23 23 0 0 0 86.671 34H29c-6.627 0-12 5.373-12 12v114c0 6.627 5.373 12 12 12h200c6.627 0 12-5.373 12-12V70.137c0-6.627-5.373-12-12-12H117.404l-12.979-15.759Z" clip-rule="evenodd"/>
  </mask>
  <g filter="url(#b)" mask="url(#c)">
    <path fill="#000" fill-opacity=".3" fill-rule="evenodd" d="M92.789 74c4.975 0 9.816-1.613 13.797-4.598L116.459 62H229c6.627 0 12 5.373 12 12v86c0 6.627-5.373 12-12 12H29c-6.627 0-12-5.373-12-12V86c0-6.627 5.373-12 12-12h63.789Z" clip-rule="evenodd"/>
  </g>
  <g filter="url(#d)">
    <rect width="135" height="42" x="27" y="63" fill="#fff" rx="12"/>
  </g>
  <g filter="url(#e)">
    <path fill="url(#f)" fill-rule="evenodd" d="M92.789 74c4.975 0 9.816-1.613 13.797-4.598L116.459 62H229c6.627 0 12 5.373 12 12v124c0 6.627-5.373 12-12 12H29c-6.627 0-12-5.373-12-12V86c0-6.627 5.373-12 12-12h63.789Z" clip-rule="evenodd"/>
  </g>
  <path fill="url(#g)" d="m158.904 162.548-.512 7.349a1.785 1.785 0 0 1-1.653 1.655l-17.64 1.258a1.784 1.784 0 0 1-1.891-1.519l-1.011-6.86h-14.394l-1.011 6.86a1.78 1.78 0 0 1-1.891 1.519l-17.64-1.258a1.784 1.784 0 0 1-1.652-1.655l-.513-7.349-14.891-1.436c.007 1.601.027 3.354.027 3.703 0 15.727 19.951 23.286 44.738 23.373h.061c24.787-.087 44.73-7.646 44.73-23.373 0-.355.022-2.101.029-3.703l-14.886 1.436Z"/>
  <path fill="#A06C01" d="M113.103 142.084a6.621 6.621 0 0 1-6.625 6.621 6.623 6.623 0 1 1 0-13.246 6.624 6.624 0 0 1 6.625 6.625Z"/>
  <path fill="url(#h)" fill-rule="evenodd" d="M84.232 152.265v-21.739h-.061c-2.194-2.8-4.225-5.75-6.171-8.898 2.586-4.402 5.752-8.335 9.139-11.979a89.033 89.033 0 0 1 9.072 5.277c1.205-1.198 2.539-2.213 3.874-3.23.263-.2.525-.399.787-.601 1.082-.868 2.257-1.577 3.433-2.286.528-.319 1.056-.637 1.576-.97-.5-3.714-.746-7.37-.845-11.186 4.321-2.175 8.93-3.617 13.59-4.653 1.864 3.128 3.565 6.516 5.046 9.827 1.759-.293 3.523-.402 5.295-.423v-.003l.017.001a.088.088 0 0 0 .016.002.088.088 0 0 0 .016-.002l.009-.001h.01v.003c1.768.021 3.534.13 5.292.423 1.482-3.311 3.184-6.699 5.045-9.827 4.662 1.036 9.271 2.478 13.593 4.653-.1 3.816-.346 7.472-.845 11.186.523.336 1.056.657 1.588.978h.001c1.171.707 2.342 1.413 3.419 2.278.252.194.505.386.757.578l.001.001c1.346 1.024 2.689 2.045 3.903 3.252a89.172 89.172 0 0 1 9.071-5.277c3.387 3.644 6.555 7.577 9.14 11.979-1.947 3.148-3.977 6.098-6.171 8.898h-.061v24.855l-.007.003v2.155a1.808 1.808 0 0 0-.147.007l-16.554 1.597a1.784 1.784 0 0 0-1.608 1.651l-.51 7.31-14.447 1.031-.995-6.747a1.782 1.782 0 0 0-1.764-1.523h-17.472c-.885 0-1.635.648-1.764 1.523l-.995 6.747-14.446-1.031-.511-7.31a1.782 1.782 0 0 0-1.608-1.651l-16.56-1.597a1.819 1.819 0 0 0-.148-.007v-5.274Zm21.292-.792c5.512 0 9.98-4.467 9.98-9.981 0-5.511-4.468-9.975-9.98-9.975-5.509 0-9.978 4.464-9.978 9.975 0 5.514 4.469 9.981 9.978 9.981Zm23.475.908c-1.774 0-3.212-1.308-3.212-2.92v-9.188c0-1.61 1.438-2.919 3.212-2.919 1.775 0 3.216 1.309 3.216 2.919v9.188c0 1.612-1.441 2.92-3.216 2.92Zm23.478-.908a9.98 9.98 0 0 1-9.981-9.981c0-5.511 4.468-9.975 9.981-9.975 5.509 0 9.978 4.464 9.978 9.975 0 5.514-4.469 9.981-9.978 9.981Z" clip-rule="evenodd"/>
  <path fill="#A06C01" d="M144.898 142.084a6.62 6.62 0 0 0 6.621 6.621 6.623 6.623 0 1 0-6.621-6.621Z"/>
  <defs>
    <linearGradient id="a" x1="17" x2="197.768" y1="34" y2="215.142" gradientUnits="userSpaceOnUse">
      <stop stop-color="#05815D"/>
      <stop offset="1" stop-color="#0C575F"/>
    </linearGradient>
    <linearGradient id="f" x1="17" x2="241" y1="62" y2="210" gradientUnits="userSpaceOnUse">
      <stop stop-color="#FFE7A2"/>
      <stop offset=".953" stop-color="#FFCB3D"/>
    </linearGradient>
    <linearGradient id="g" x1="142.5" x2="93.5" y1="190" y2="156.5" gradientUnits="userSpaceOnUse">
      <stop stop-color="#BD8600"/>
      <stop offset="1" stop-color="#A06C01"/>
    </linearGradient>
    <linearGradient id="h" x1="160.5" x2="86.5" y1="181.5" y2="99" gradientUnits="userSpaceOnUse">
      <stop stop-color="#BD8600"/>
      <stop offset="1" stop-color="#A06C01"/>
    </linearGradient>
    <filter id="b" width="298" height="184" x="-20" y="25" color-interpolation-filters="sRGB" filterUnits="userSpaceOnUse">
      <feFlood flood-opacity="0" result="BackgroundImageFix"/>
      <feBlend in="SourceGraphic" in2="BackgroundImageFix" result="shape"/>
      <feGaussianBlur result="effect1_foregroundBlur_494_182" stdDeviation="18.5"/>
    </filter>
    <filter id="d" width="135" height="46" x="27" y="59" color-interpolation-filters="sRGB" filterUnits="userSpaceOnUse">
      <feFlood flood-opacity="0" result="BackgroundImageFix"/>
      <feBlend in="SourceGraphic" in2="BackgroundImageFix" result="shape"/>
      <feColorMatrix in="SourceAlpha" result="hardAlpha" values="0 0 0 0 0 0 0 0 0 0 0 0 0 0 0 0 0 0 127 0"/>
      <feOffset dy="-4"/>
      <feGaussianBlur stdDeviation="20"/>
      <feComposite in2="hardAlpha" k2="-1" k3="1" operator="arithmetic"/>
      <feColorMatrix values="0 0 0 0 0 0 0 0 0 0 0 0 0 0 0 0 0 0 0.25 0"/>
      <feBlend in2="shape" result="effect1_innerShadow_494_182"/>
    </filter>
    <filter id="e" width="224" height="148" x="17" y="62" color-interpolation-filters="sRGB" filterUnits="userSpaceOnUse">
      <feFlood flood-opacity="0" result="BackgroundImageFix"/>
      <feBlend in="SourceGraphic" in2="BackgroundImageFix" result="shape"/>
      <feColorMatrix in="SourceAlpha" result="hardAlpha" values="0 0 0 0 0 0 0 0 0 0 0 0 0 0 0 0 0 0 127 0"/>
      <feOffset dy="4"/>
      <feComposite in2="hardAlpha" k2="-1" k3="1" operator="arithmetic"/>
      <feColorMatrix values="0 0 0 0 1 0 0 0 0 1 0 0 0 0 1 0 0 0 0.25 0"/>
      <feBlend in2="shape" result="effect1_innerShadow_494_182"/>
      <feColorMatrix in="SourceAlpha" result="hardAlpha" values="0 0 0 0 0 0 0 0 0 0 0 0 0 0 0 0 0 0 127 0"/>
      <feOffset dy="-4"/>
      <feComposite in2="hardAlpha" k2="-1" k3="1" operator="arithmetic"/>
      <feColorMatrix values="0 0 0 0 0 0 0 0 0 0 0 0 0 0 0 0 0 0 0.9 0"/>
      <feBlend in2="effect1_innerShadow_494_182" mode="soft-light" result="effect2_innerShadow_494_182"/>
    </filter>
  </defs>
</svg>
