<svg width="256" height="256" viewBox="0 0 256 256" fill="none" xmlns="http://www.w3.org/2000/svg">
<path fill-rule="evenodd" clip-rule="evenodd" d="M104.425 42.3784C100.056 37.0733 93.5437 34 86.6712 34H29C22.3726 34 17 39.3726 17 46V58.1371V68.2V160C17 166.627 22.3726 172 29 172H229C235.627 172 241 166.627 241 160V70.1371C241 63.5097 235.627 58.1371 229 58.1371H117.404L104.425 42.3784Z" fill="#230A54"/>
<mask id="mask0_532_12597" style="mask-type:alpha" maskUnits="userSpaceOnUse" x="17" y="34" width="224" height="138">
<path fill-rule="evenodd" clip-rule="evenodd" d="M104.425 42.3784C100.056 37.0733 93.5437 34 86.6712 34H29C22.3726 34 17 39.3726 17 46V58.1371V68.2V160C17 166.627 22.3726 172 29 172H229C235.627 172 241 166.627 241 160V70.1371C241 63.5097 235.627 58.1371 229 58.1371H117.404L104.425 42.3784Z" fill="url(#paint0_linear_532_12597)"/>
</mask>
<g mask="url(#mask0_532_12597)">
<g style="mix-blend-mode:multiply" filter="url(#filter0_f_532_12597)">
<path fill-rule="evenodd" clip-rule="evenodd" d="M92.789 74C97.7642 74 102.605 72.3868 106.586 69.4024L116.459 62H229C235.627 62 241 67.3726 241 74V108V160C241 166.627 235.627 172 229 172H29C22.3726 172 17 166.627 17 160L17 108V86C17 79.3726 22.3726 74 29 74H87H92.789Z" fill="black" fill-opacity="0.3"/>
</g>
</g>
<g filter="url(#filter1_ii_532_12597)">
<path fill-rule="evenodd" clip-rule="evenodd" d="M92.789 74C97.7642 74 102.605 72.3868 106.586 69.4024L116.459 62H229C235.627 62 241 67.3726 241 74V108V198C241 204.627 235.627 210 229 210H29C22.3726 210 17 204.627 17 198L17 108V86C17 79.3726 22.3726 74 29 74H87H92.789Z" fill="url(#paint1_linear_532_12597)"/>
</g>
<g filter="url(#filter2_d_532_12597)">
<path fill-rule="evenodd" clip-rule="evenodd" d="M90.5987 98.146C89.2712 98.8111 87.8268 100.007 87.1559 100.997L86 102.701V136V169.299L87.1559 171.003C87.8268 171.993 89.2712 173.189 90.5987 173.854L92.886 175H129H165.114L167.401 173.854C168.729 173.189 170.173 171.993 170.844 171.003L172 169.299V136V102.701L170.844 100.997C170.173 100.007 168.729 98.8111 167.401 98.146L165.114 97H129H92.886L90.5987 98.146ZM114.294 109.19L115.591 110.303L115.729 122.283L115.866 134.263L114.647 135.708L113.428 137.154H103.76H94.0914V134.615V132.077L101.605 132.07C105.737 132.066 109.383 131.895 109.707 131.69C110.157 131.405 110.265 129.262 110.169 122.582L110.043 113.846H104.957H99.871V118.692V123.538L103.801 123.769L107.731 124L107.87 126.654L108.009 129.308H102.463C97.2669 129.308 96.8351 129.238 95.62 128.194L94.3226 127.08V118.692V110.305L95.62 109.191C96.8836 108.106 97.1245 108.077 104.957 108.077C112.788 108.077 113.03 108.106 114.294 109.19ZM138.337 109.191L139.634 110.305V118.692V127.08L138.337 128.194C137.073 129.279 136.832 129.308 129 129.308C121.168 129.308 120.927 129.279 119.663 128.194L118.366 127.08V118.692V110.305L119.663 109.191C120.927 108.106 121.168 108.077 129 108.077C136.832 108.077 137.073 108.106 138.337 109.191ZM162.38 109.191L163.677 110.305V122.538V134.772L162.557 135.963L161.435 137.154H151.807H142.177V134.615V132.077H149.75C155.625 132.077 157.441 131.934 157.852 131.44C158.218 130.999 158.343 128.187 158.255 122.325L158.129 113.846H153.043H147.957V118.692V123.538L151.772 123.672L155.586 123.807V126.557V129.308H150.295C145.368 129.308 144.914 129.231 143.706 128.194L142.409 127.08V118.692V110.305L143.706 109.191C144.97 108.106 145.211 108.077 153.043 108.077C160.875 108.077 161.116 108.106 162.38 109.191ZM123.887 114.211C123.754 114.556 123.706 116.796 123.78 119.188L123.914 123.538H129H134.086V118.692V113.846L129.107 113.715C125.245 113.614 124.074 113.725 123.887 114.211ZM113.048 145.449V148.205L106.46 148.334L99.871 148.462V153.308V158.154L106.344 158.385L112.817 158.615L112.956 161.269L113.095 163.923H105.006C97.1217 163.923 96.8845 163.895 95.62 162.809L94.3226 161.695V153.308V144.92L95.62 143.806C96.8841 142.721 97.1231 142.692 104.983 142.692H113.048V145.449ZM135.74 144.041L137.091 145.39V153.308V161.225L135.74 162.574L134.388 163.923H126.24C115.191 163.923 115.823 164.566 115.823 153.308C115.823 142.049 115.191 142.692 126.24 142.692H134.388L135.74 144.041ZM163.909 153.308V163.923H161.134H158.36V156.077V148.231H156.28H154.199V156.077V163.923H151.656H149.113V156.051V148.178L147.148 148.32L145.183 148.462L145.056 156.192L144.929 163.923H142.132H139.335L139.485 154.421L139.634 144.918L140.932 143.806C142.223 142.697 142.279 142.692 153.069 142.692H163.909V153.308ZM121.107 148.842C120.977 149.179 120.932 151.411 121.006 153.804L121.14 158.154H126.226H131.312L131.443 153.192L131.574 148.231H126.458C122.637 148.231 121.283 148.385 121.107 148.842Z" fill="white"/>
</g>
<defs>
<filter id="filter0_f_532_12597" x="-20" y="25" width="298" height="184" filterUnits="userSpaceOnUse" color-interpolation-filters="sRGB">
<feFlood flood-opacity="0" result="BackgroundImageFix"/>
<feBlend mode="normal" in="SourceGraphic" in2="BackgroundImageFix" result="shape"/>
<feGaussianBlur stdDeviation="18.5" result="effect1_foregroundBlur_532_12597"/>
</filter>
<filter id="filter1_ii_532_12597" x="17" y="62" width="224" height="148" filterUnits="userSpaceOnUse" color-interpolation-filters="sRGB">
<feFlood flood-opacity="0" result="BackgroundImageFix"/>
<feBlend mode="normal" in="SourceGraphic" in2="BackgroundImageFix" result="shape"/>
<feColorMatrix in="SourceAlpha" type="matrix" values="0 0 0 0 0 0 0 0 0 0 0 0 0 0 0 0 0 0 127 0" result="hardAlpha"/>
<feOffset dy="4"/>
<feComposite in2="hardAlpha" operator="arithmetic" k2="-1" k3="1"/>
<feColorMatrix type="matrix" values="0 0 0 0 1 0 0 0 0 1 0 0 0 0 1 0 0 0 0.25 0"/>
<feBlend mode="normal" in2="shape" result="effect1_innerShadow_532_12597"/>
<feColorMatrix in="SourceAlpha" type="matrix" values="0 0 0 0 0 0 0 0 0 0 0 0 0 0 0 0 0 0 127 0" result="hardAlpha"/>
<feOffset dy="-4"/>
<feComposite in2="hardAlpha" operator="arithmetic" k2="-1" k3="1"/>
<feColorMatrix type="matrix" values="0 0 0 0 0 0 0 0 0 0 0 0 0 0 0 0 0 0 0.9 0"/>
<feBlend mode="soft-light" in2="effect1_innerShadow_532_12597" result="effect2_innerShadow_532_12597"/>
</filter>
<filter id="filter2_d_532_12597" x="74" y="85" width="110" height="102" filterUnits="userSpaceOnUse" color-interpolation-filters="sRGB">
<feFlood flood-opacity="0" result="BackgroundImageFix"/>
<feColorMatrix in="SourceAlpha" type="matrix" values="0 0 0 0 0 0 0 0 0 0 0 0 0 0 0 0 0 0 127 0" result="hardAlpha"/>
<feOffset/>
<feGaussianBlur stdDeviation="6"/>
<feComposite in2="hardAlpha" operator="out"/>
<feColorMatrix type="matrix" values="0 0 0 0 0 0 0 0 0 0 0 0 0 0 0 0 0 0 0.2 0"/>
<feBlend mode="normal" in2="BackgroundImageFix" result="effect1_dropShadow_532_12597"/>
<feBlend mode="normal" in="SourceGraphic" in2="effect1_dropShadow_532_12597" result="shape"/>
</filter>
<linearGradient id="paint0_linear_532_12597" x1="17" y1="34" x2="197.768" y2="215.142" gradientUnits="userSpaceOnUse">
<stop stop-color="#05815D"/>
<stop offset="1" stop-color="#0C575F"/>
</linearGradient>
<linearGradient id="paint1_linear_532_12597" x1="17" y1="62" x2="241" y2="210" gradientUnits="userSpaceOnUse">
<stop stop-color="#A637C6"/>
<stop offset="1" stop-color="#1C074E"/>
</linearGradient>
</defs>
</svg>
