<svg width="256" height="256" viewBox="0 0 256 256" fill="none" xmlns="http://www.w3.org/2000/svg">
<path fill-rule="evenodd" clip-rule="evenodd" d="M104.425 42.3784C100.056 37.0733 93.5437 34 86.6712 34H29C22.3726 34 17 39.3726 17 46V58.1371V68.2V160C17 166.627 22.3726 172 29 172H229C235.627 172 241 166.627 241 160V70.1371C241 63.5097 235.627 58.1371 229 58.1371H117.404L104.425 42.3784Z" fill="#1A0132"/>
<mask id="mask0_532_12600" style="mask-type:alpha" maskUnits="userSpaceOnUse" x="17" y="34" width="224" height="138">
<path fill-rule="evenodd" clip-rule="evenodd" d="M104.425 42.3784C100.056 37.0733 93.5437 34 86.6712 34H29C22.3726 34 17 39.3726 17 46V58.1371V68.2V160C17 166.627 22.3726 172 29 172H229C235.627 172 241 166.627 241 160V70.1371C241 63.5097 235.627 58.1371 229 58.1371H117.404L104.425 42.3784Z" fill="url(#paint0_linear_532_12600)"/>
</mask>
<g mask="url(#mask0_532_12600)">
<g style="mix-blend-mode:multiply" filter="url(#filter0_f_532_12600)">
<path fill-rule="evenodd" clip-rule="evenodd" d="M92.789 74C97.7642 74 102.605 72.3868 106.586 69.4024L116.459 62H229C235.627 62 241 67.3726 241 74V108V160C241 166.627 235.627 172 229 172H29C22.3726 172 17 166.627 17 160L17 108V86C17 79.3726 22.3726 74 29 74H87H92.789Z" fill="black" fill-opacity="0.3"/>
</g>
</g>
<g filter="url(#filter1_ii_532_12600)">
<path fill-rule="evenodd" clip-rule="evenodd" d="M92.789 74C97.7642 74 102.605 72.3868 106.586 69.4024L116.459 62H229C235.627 62 241 67.3726 241 74V108V198C241 204.627 235.627 210 229 210H29C22.3726 210 17 204.627 17 198L17 108V86C17 79.3726 22.3726 74 29 74H87H92.789Z" fill="url(#paint1_linear_532_12600)"/>
</g>
<mask id="path-5-inside-1_532_12600" fill="white">
<path fill-rule="evenodd" clip-rule="evenodd" d="M129 192C156.614 192 179 169.614 179 142C179 114.386 156.614 92 129 92C101.386 92 79 114.386 79 142C79 169.614 101.386 192 129 192ZM129 173C146.121 173 160 159.121 160 142C160 124.879 146.121 111 129 111C111.879 111 98 124.879 98 142C98 159.121 111.879 173 129 173Z"/>
</mask>
<path fill-rule="evenodd" clip-rule="evenodd" d="M129 192C156.614 192 179 169.614 179 142C179 114.386 156.614 92 129 92C101.386 92 79 114.386 79 142C79 169.614 101.386 192 129 192ZM129 173C146.121 173 160 159.121 160 142C160 124.879 146.121 111 129 111C111.879 111 98 124.879 98 142C98 159.121 111.879 173 129 173Z" fill="url(#paint2_linear_532_12600)"/>
<path d="M178 142C178 169.062 156.062 191 129 191V193C157.167 193 180 170.167 180 142H178ZM129 93C156.062 93 178 114.938 178 142H180C180 113.833 157.167 91 129 91V93ZM80 142C80 114.938 101.938 93 129 93V91C100.833 91 78 113.833 78 142H80ZM129 191C101.938 191 80 169.062 80 142H78C78 170.167 100.833 193 129 193V191ZM159 142C159 158.569 145.569 172 129 172V174C146.673 174 161 159.673 161 142H159ZM129 112C145.569 112 159 125.431 159 142H161C161 124.327 146.673 110 129 110V112ZM99 142C99 125.431 112.431 112 129 112V110C111.327 110 97 124.327 97 142H99ZM129 172C112.431 172 99 158.569 99 142H97C97 159.673 111.327 174 129 174V172Z" fill="#C83EEA" mask="url(#path-5-inside-1_532_12600)"/>
<defs>
<filter id="filter0_f_532_12600" x="-20" y="25" width="298" height="184" filterUnits="userSpaceOnUse" color-interpolation-filters="sRGB">
<feFlood flood-opacity="0" result="BackgroundImageFix"/>
<feBlend mode="normal" in="SourceGraphic" in2="BackgroundImageFix" result="shape"/>
<feGaussianBlur stdDeviation="18.5" result="effect1_foregroundBlur_532_12600"/>
</filter>
<filter id="filter1_ii_532_12600" x="17" y="62" width="224" height="148" filterUnits="userSpaceOnUse" color-interpolation-filters="sRGB">
<feFlood flood-opacity="0" result="BackgroundImageFix"/>
<feBlend mode="normal" in="SourceGraphic" in2="BackgroundImageFix" result="shape"/>
<feColorMatrix in="SourceAlpha" type="matrix" values="0 0 0 0 0 0 0 0 0 0 0 0 0 0 0 0 0 0 127 0" result="hardAlpha"/>
<feOffset dy="4"/>
<feComposite in2="hardAlpha" operator="arithmetic" k2="-1" k3="1"/>
<feColorMatrix type="matrix" values="0 0 0 0 1 0 0 0 0 1 0 0 0 0 1 0 0 0 0.25 0"/>
<feBlend mode="normal" in2="shape" result="effect1_innerShadow_532_12600"/>
<feColorMatrix in="SourceAlpha" type="matrix" values="0 0 0 0 0 0 0 0 0 0 0 0 0 0 0 0 0 0 127 0" result="hardAlpha"/>
<feOffset dy="-4"/>
<feComposite in2="hardAlpha" operator="arithmetic" k2="-1" k3="1"/>
<feColorMatrix type="matrix" values="0 0 0 0 0 0 0 0 0 0 0 0 0 0 0 0 0 0 0.9 0"/>
<feBlend mode="soft-light" in2="effect1_innerShadow_532_12600" result="effect2_innerShadow_532_12600"/>
</filter>
<linearGradient id="paint0_linear_532_12600" x1="17" y1="34" x2="197.768" y2="215.142" gradientUnits="userSpaceOnUse">
<stop stop-color="#05815D"/>
<stop offset="1" stop-color="#0C575F"/>
</linearGradient>
<linearGradient id="paint1_linear_532_12600" x1="17" y1="62" x2="241" y2="210" gradientUnits="userSpaceOnUse">
<stop stop-color="#470272"/>
<stop offset="1" stop-color="#15002B"/>
</linearGradient>
<linearGradient id="paint2_linear_532_12600" x1="97.5" y1="105" x2="161.5" y2="179" gradientUnits="userSpaceOnUse">
<stop stop-color="#C702E7"/>
<stop offset="1" stop-color="#6800D0"/>
</linearGradient>
</defs>
</svg>
