<svg width="256" height="256" viewBox="0 0 256 256" fill="none" xmlns="http://www.w3.org/2000/svg">
<path fill-rule="evenodd" clip-rule="evenodd" d="M104.425 42.3784C100.056 37.0733 93.5437 34 86.6712 34H29C22.3726 34 17 39.3726 17 46V58.1371V68.2V160C17 166.627 22.3726 172 29 172H229C235.627 172 241 166.627 241 160V70.1371C241 63.5097 235.627 58.1371 229 58.1371H117.404L104.425 42.3784Z" fill="#02A5CE"/>
<mask id="mask0_2031_32743" style="mask-type:alpha" maskUnits="userSpaceOnUse" x="17" y="34" width="224" height="138">
<path fill-rule="evenodd" clip-rule="evenodd" d="M104.425 42.3784C100.056 37.0733 93.5437 34 86.6712 34H29C22.3726 34 17 39.3726 17 46V58.1371V68.2V160C17 166.627 22.3726 172 29 172H229C235.627 172 241 166.627 241 160V70.1371C241 63.5097 235.627 58.1371 229 58.1371H117.404L104.425 42.3784Z" fill="url(#paint0_linear_2031_32743)"/>
</mask>
<g mask="url(#mask0_2031_32743)">
<g style="mix-blend-mode:multiply" filter="url(#filter0_f_2031_32743)">
<path fill-rule="evenodd" clip-rule="evenodd" d="M92.789 74C97.7642 74 102.605 72.3868 106.586 69.4024L116.459 62H229C235.627 62 241 67.3726 241 74V108V160C241 166.627 235.627 172 229 172H29C22.3726 172 17 166.627 17 160L17 108V86C17 79.3726 22.3726 74 29 74H87H92.789Z" fill="black" fill-opacity="0.3"/>
</g>
</g>
<g filter="url(#filter1_ii_2031_32743)">
<path fill-rule="evenodd" clip-rule="evenodd" d="M92.789 74C97.7642 74 102.605 72.3868 106.586 69.4024L116.459 62H229C235.627 62 241 67.3726 241 74V108V198C241 204.627 235.627 210 229 210H29C22.3726 210 17 204.627 17 198L17 108V86C17 79.3726 22.3726 74 29 74H87H92.789Z" fill="url(#paint1_linear_2031_32743)"/>
</g>
<path d="M82.3182 127.468C82.1035 127.468 82.0498 127.361 82.1572 127.2L83.2842 125.751C83.3916 125.59 83.6599 125.482 83.8746 125.482H103.034C103.249 125.482 103.303 125.643 103.195 125.804L102.283 127.2C102.176 127.361 101.907 127.522 101.746 127.522L82.3182 127.468Z" fill="white"/>
<path d="M74.2147 132.406C74 132.406 73.9463 132.298 74.0537 132.137L75.1807 130.688C75.2881 130.527 75.5564 130.42 75.7711 130.42H100.244C100.459 130.42 100.566 130.581 100.512 130.742L100.083 132.03C100.029 132.245 99.8147 132.352 99.6 132.352L74.2147 132.406Z" fill="white"/>
<path d="M87.201 137.343C86.9863 137.343 86.9327 137.182 87.04 137.021L87.7914 135.679C87.8987 135.518 88.1134 135.357 88.328 135.357H99.0618C99.2765 135.357 99.3838 135.518 99.3838 135.733L99.2765 137.021C99.2765 137.236 99.0618 137.397 98.9008 137.397L87.201 137.343Z" fill="white"/>
<path d="M142.911 126.503C139.53 127.362 137.222 128.006 133.895 128.865C133.09 129.079 133.036 129.133 132.338 128.328C131.533 127.416 130.943 126.825 129.816 126.289C126.435 124.625 123.161 125.108 120.102 127.094C116.452 129.455 114.574 132.944 114.628 137.291C114.681 141.584 117.633 145.126 121.873 145.717C125.522 146.2 128.581 144.912 130.997 142.175C131.48 141.584 131.909 140.94 132.446 140.189C130.514 140.189 128.098 140.189 122.088 140.189C120.96 140.189 120.692 139.491 121.068 138.579C121.766 136.915 123.054 134.124 123.805 132.729C123.966 132.407 124.342 131.87 125.147 131.87C127.884 131.87 137.974 131.87 144.682 131.87C144.575 133.319 144.575 134.768 144.36 136.217C143.77 140.082 142.321 143.624 139.959 146.737C136.095 151.835 131.05 155.002 124.664 155.86C119.404 156.558 114.52 155.538 110.227 152.318C106.255 149.313 104.001 145.341 103.411 140.404C102.713 134.554 104.431 129.294 107.973 124.679C111.783 119.688 116.828 116.521 123 115.394C128.045 114.482 132.875 115.072 137.222 118.024C140.067 119.902 142.106 122.478 143.448 125.591C143.77 126.074 143.555 126.342 142.911 126.503Z" fill="white"/>
<path d="M160.673 156.183C155.79 156.076 151.335 154.681 147.578 151.46C144.412 148.723 142.426 145.235 141.782 141.102C140.816 135.038 142.48 129.671 146.129 124.894C150.047 119.742 154.77 117.059 161.156 115.932C166.631 114.966 171.783 115.503 176.452 118.669C180.692 121.567 183.322 125.485 184.019 130.637C184.932 137.882 182.839 143.786 177.847 148.831C174.305 152.426 169.958 154.681 164.967 155.7C163.518 155.969 162.069 156.022 160.673 156.183ZM173.447 134.501C173.393 133.803 173.393 133.267 173.286 132.73C172.32 127.417 167.436 124.411 162.337 125.592C157.346 126.719 154.126 129.886 152.945 134.93C151.979 139.117 154.018 143.356 157.883 145.074C160.834 146.362 163.786 146.201 166.631 144.752C170.87 142.551 173.178 139.117 173.447 134.501Z" fill="white"/>
<defs>
<filter id="filter0_f_2031_32743" x="-20" y="25" width="298" height="184" filterUnits="userSpaceOnUse" color-interpolation-filters="sRGB">
<feFlood flood-opacity="0" result="BackgroundImageFix"/>
<feBlend mode="normal" in="SourceGraphic" in2="BackgroundImageFix" result="shape"/>
<feGaussianBlur stdDeviation="18.5" result="effect1_foregroundBlur_2031_32743"/>
</filter>
<filter id="filter1_ii_2031_32743" x="17" y="62" width="224" height="148" filterUnits="userSpaceOnUse" color-interpolation-filters="sRGB">
<feFlood flood-opacity="0" result="BackgroundImageFix"/>
<feBlend mode="normal" in="SourceGraphic" in2="BackgroundImageFix" result="shape"/>
<feColorMatrix in="SourceAlpha" type="matrix" values="0 0 0 0 0 0 0 0 0 0 0 0 0 0 0 0 0 0 127 0" result="hardAlpha"/>
<feOffset dy="4"/>
<feComposite in2="hardAlpha" operator="arithmetic" k2="-1" k3="1"/>
<feColorMatrix type="matrix" values="0 0 0 0 1 0 0 0 0 1 0 0 0 0 1 0 0 0 0.25 0"/>
<feBlend mode="normal" in2="shape" result="effect1_innerShadow_2031_32743"/>
<feColorMatrix in="SourceAlpha" type="matrix" values="0 0 0 0 0 0 0 0 0 0 0 0 0 0 0 0 0 0 127 0" result="hardAlpha"/>
<feOffset dy="-4"/>
<feComposite in2="hardAlpha" operator="arithmetic" k2="-1" k3="1"/>
<feColorMatrix type="matrix" values="0 0 0 0 0 0 0 0 0 0 0 0 0 0 0 0 0 0 0.9 0"/>
<feBlend mode="soft-light" in2="effect1_innerShadow_2031_32743" result="effect2_innerShadow_2031_32743"/>
</filter>
<linearGradient id="paint0_linear_2031_32743" x1="17" y1="34" x2="197.768" y2="215.142" gradientUnits="userSpaceOnUse">
<stop stop-color="#05815D"/>
<stop offset="1" stop-color="#0C575F"/>
</linearGradient>
<linearGradient id="paint1_linear_2031_32743" x1="17" y1="62" x2="241" y2="210" gradientUnits="userSpaceOnUse">
<stop stop-color="#0EBEEA"/>
<stop offset="1" stop-color="#00A2CA"/>
</linearGradient>
</defs>
</svg>
