<svg width="256" height="256" viewBox="0 0 256 256" fill="none" xmlns="http://www.w3.org/2000/svg">
<path fill-rule="evenodd" clip-rule="evenodd" d="M104.425 42.3784C100.056 37.0733 93.5437 34 86.6712 34H29C22.3726 34 17 39.3726 17 46V58.1371V68.2V160C17 166.627 22.3726 172 29 172H229C235.627 172 241 166.627 241 160V70.1371C241 63.5097 235.627 58.1371 229 58.1371H117.404L104.425 42.3784Z" fill="#6AC8D8"/>
<mask id="mask0_2034_35980" style="mask-type:alpha" maskUnits="userSpaceOnUse" x="17" y="34" width="224" height="138">
<path fill-rule="evenodd" clip-rule="evenodd" d="M104.425 42.3784C100.056 37.0733 93.5437 34 86.6712 34H29C22.3726 34 17 39.3726 17 46V58.1371V68.2V160C17 166.627 22.3726 172 29 172H229C235.627 172 241 166.627 241 160V70.1371C241 63.5097 235.627 58.1371 229 58.1371H117.404L104.425 42.3784Z" fill="url(#paint0_linear_2034_35980)"/>
</mask>
<g mask="url(#mask0_2034_35980)">
<g style="mix-blend-mode:multiply" filter="url(#filter0_f_2034_35980)">
<path fill-rule="evenodd" clip-rule="evenodd" d="M92.789 74C97.7642 74 102.605 72.3868 106.586 69.4024L116.459 62H229C235.627 62 241 67.3726 241 74V108V160C241 166.627 235.627 172 229 172H29C22.3726 172 17 166.627 17 160L17 108V86C17 79.3726 22.3726 74 29 74H87H92.789Z" fill="black" fill-opacity="0.3"/>
</g>
</g>
<g filter="url(#filter1_ii_2034_35980)">
<path fill-rule="evenodd" clip-rule="evenodd" d="M92.789 74C97.7642 74 102.605 72.3868 106.586 69.4024L116.459 62H229C235.627 62 241 67.3726 241 74V108V198C241 204.627 235.627 210 229 210H29C22.3726 210 17 204.627 17 198L17 108V86C17 79.3726 22.3726 74 29 74H87H92.789Z" fill="url(#paint1_linear_2034_35980)"/>
</g>
<path d="M87.1613 140.735C87.3272 144.218 90.8474 142.578 92.3771 141.509C93.9068 140.44 94.2201 141.343 94.4413 139.298C94.5772 137.963 94.6326 136.621 94.6071 135.28C92.2845 135.042 89.953 135.636 88.0275 136.957C87.0692 137.657 85.2814 139.869 87.1429 140.643" fill="#F6D2A2"/>
<path d="M88.9673 143.26C88.6228 143.265 88.282 143.189 87.972 143.039C87.6175 142.834 87.3243 142.538 87.1233 142.181C86.9223 141.825 86.8208 141.421 86.8294 141.011C86.6014 140.898 86.4058 140.728 86.2608 140.519C86.1158 140.31 86.0261 140.067 86 139.814C86.0661 139.2 86.2652 138.609 86.5836 138.08C86.9019 137.552 87.3317 137.099 87.843 136.754C89.8314 135.385 92.2429 134.771 94.6438 135.022H94.9203V135.298C94.9588 136.349 94.928 137.402 94.8281 138.45V139.371C94.736 140.809 94.4595 141.03 93.7223 141.214C93.329 141.336 92.9562 141.516 92.6165 141.749C91.556 142.568 90.2964 143.09 88.9673 143.26ZM93.6486 135.648C91.713 135.618 89.8172 136.199 88.2301 137.307C87.8177 137.592 87.4677 137.958 87.2015 138.382C86.9353 138.807 86.7585 139.281 86.6819 139.777C86.7045 139.949 86.7754 140.111 86.8862 140.245C86.9971 140.379 87.1435 140.478 87.3086 140.532H87.4929V140.735C87.4662 141.055 87.5236 141.376 87.6594 141.667C87.7952 141.958 88.0046 142.209 88.2669 142.394C88.965 142.502 89.6784 142.456 90.3567 142.258C91.0349 142.061 91.6617 141.717 92.1926 141.251C92.5771 140.981 92.9994 140.77 93.4458 140.624C93.925 140.459 94.0356 140.422 94.1093 139.279V138.358C94.1956 137.439 94.2325 136.516 94.2199 135.593H93.6486V135.648Z" fill="#010101"/>
<path d="M87.1602 140.735C87.687 140.618 88.1677 140.349 88.5424 139.961Z" fill="#C7B199"/>
<path d="M87.1621 141.067C87.0766 141.094 86.9839 141.085 86.9044 141.044C86.8249 141.002 86.7651 140.931 86.7382 140.846C86.7113 140.76 86.7195 140.667 86.761 140.588C86.8025 140.508 86.8738 140.449 86.9594 140.422H87.1805C87.57 140.331 87.9232 140.126 88.1942 139.832C88.2208 139.797 88.2541 139.767 88.2921 139.745C88.3302 139.723 88.3722 139.708 88.4158 139.702C88.4595 139.696 88.5039 139.699 88.5465 139.71C88.5891 139.721 88.6291 139.741 88.6642 139.767C88.6993 139.794 88.7288 139.827 88.751 139.865C88.7732 139.903 88.7878 139.945 88.7938 139.989C88.7998 140.033 88.7971 140.077 88.7859 140.12C88.7748 140.162 88.7553 140.202 88.7287 140.237C88.3803 140.638 87.9169 140.921 87.4017 141.048H87.1621V141.067Z" fill="#010101"/>
<path d="M95.1969 99.2849C81.8718 95.5989 91.7873 78.5877 102.569 85.5544L95.1969 99.2849Z" fill="#74CDDD"/>
<path d="M95.3624 99.6727H95.1044C91.3077 98.6037 88.9671 96.3552 88.5248 93.3511C88.368 91.7177 88.6695 90.073 89.3955 88.6016C90.1215 87.1301 91.2432 85.89 92.6347 85.0206C94.1465 84.0642 95.9109 83.5844 97.6988 83.6436C99.4867 83.7027 101.216 84.2981 102.661 85.3523L102.919 85.5182L95.3624 99.6727ZM97.2054 84.2281C95.693 84.23 94.2138 84.6719 92.948 85.4998C91.6601 86.299 90.6206 87.4418 89.9467 88.7995C89.2727 90.1572 88.9909 91.6761 89.133 93.1852C89.5384 95.8576 91.6026 97.8849 94.9754 98.8986L101.979 85.6841C100.562 84.7981 98.9314 84.3139 97.2607 84.2834L97.2054 84.2281Z" fill="#010101"/>
<path d="M154.395 84.2837C164.937 76.9116 174.465 93.4988 162.209 97.7931L154.395 84.2837Z" fill="#74CDDD"/>
<path d="M162.062 98.1976L153.953 84.1906L154.193 84.0247C155.542 82.943 157.184 82.2881 158.907 82.1437C160.63 81.9992 162.358 82.3718 163.869 83.2138C165.294 84.0487 166.46 85.2622 167.238 86.7197C168.015 88.1772 168.374 89.8217 168.273 91.4706C168.089 93.3136 167.094 96.4652 162.32 98.1055L162.062 98.1976ZM154.838 84.3749L162.357 97.3867C163.722 97.0166 164.948 96.253 165.882 95.1912C166.816 94.1294 167.417 92.8162 167.61 91.4153C167.706 89.8882 167.377 88.3643 166.657 87.0137C165.938 85.6632 164.858 84.539 163.537 83.7667C162.19 82.9945 160.644 82.64 159.095 82.7483C157.546 82.8566 156.064 83.4228 154.838 84.3749Z" fill="#010101"/>
<path d="M156.662 183.568C159.334 185.227 164.236 190.24 160.219 192.673C156.367 196.212 154.192 188.784 150.801 187.77C151.452 186.718 152.305 185.805 153.311 185.084C154.317 184.363 155.456 183.848 156.662 183.568Z" fill="#F6D2A2"/>
<path d="M158.172 193.944H158.025C156.495 193.852 155.242 192.359 154.025 190.94C153.185 189.717 152.042 188.733 150.708 188.083L150.266 187.954L150.542 187.493C151.913 185.306 154.092 183.75 156.606 183.162H156.845C158.559 184.231 162.098 187.327 162.079 190.129C162.069 190.682 161.909 191.223 161.617 191.693C161.325 192.163 160.912 192.546 160.421 192.801C159.85 193.462 159.042 193.872 158.172 193.944ZM151.316 187.604C152.566 188.339 153.652 189.324 154.505 190.497C155.31 191.821 156.567 192.809 158.043 193.28C158.393 193.265 158.735 193.181 159.052 193.032C159.368 192.884 159.652 192.674 159.886 192.414C160.288 192.218 160.628 191.914 160.869 191.537C161.109 191.16 161.241 190.724 161.25 190.276C161.25 188.028 158.412 185.208 156.44 183.936C154.339 184.476 152.517 185.785 151.335 187.604H151.316Z" fill="#010101"/>
<path d="M160.219 193.022C160.158 193.021 160.098 193.004 160.046 192.971C159.994 192.939 159.952 192.892 159.924 192.837C159.729 192.429 159.557 192.011 159.408 191.584C159.184 190.75 158.767 189.98 158.192 189.336C158.16 189.305 158.135 189.269 158.118 189.229C158.1 189.189 158.091 189.146 158.09 189.103C158.089 189.059 158.097 189.016 158.113 188.975C158.129 188.934 158.152 188.897 158.183 188.866C158.213 188.834 158.249 188.809 158.289 188.792C158.329 188.774 158.372 188.765 158.416 188.764C158.459 188.763 158.503 188.771 158.543 188.787C158.584 188.802 158.621 188.826 158.653 188.856C159.289 189.551 159.756 190.384 160.016 191.289C160.161 191.691 160.327 192.085 160.514 192.469C160.553 192.547 160.559 192.637 160.531 192.72C160.504 192.803 160.444 192.872 160.367 192.911L160.219 193.022Z" fill="#010101"/>
<path d="M108.797 189.225C105.646 189.704 103.877 192.542 101.259 193.98C100.985 194.233 100.652 194.415 100.291 194.51C99.9295 194.606 99.5503 194.611 99.1864 194.525C98.8226 194.44 98.4854 194.266 98.2041 194.02C97.9229 193.774 97.7063 193.463 97.5734 193.113C97.3905 193.118 97.209 193.08 97.0429 193.003C96.8767 192.927 96.7304 192.813 96.615 192.671C94.3297 188.985 98.9925 186.423 101.444 184.617C104.89 183.953 107.01 186.884 108.797 189.225Z" fill="#F6D2A2"/>
<path d="M99.6008 194.865C99.405 194.891 99.2067 194.891 99.011 194.865C98.6651 194.753 98.3451 194.573 98.0697 194.336C97.7943 194.099 97.5692 193.809 97.4075 193.483C97.2296 193.482 97.0545 193.438 96.8973 193.354C96.7401 193.271 96.6053 193.151 96.5045 193.004C94.2928 189.521 98.0526 186.885 100.541 185.134L101.407 184.508C104.89 183.807 107.102 186.682 108.871 189.005L109.369 189.668H108.816C107.037 190.093 105.419 191.021 104.153 192.34C103.304 193.121 102.378 193.812 101.388 194.405C100.841 194.707 100.226 194.866 99.6008 194.865ZM97.3891 192.727C97.5166 192.699 97.6487 192.699 97.7762 192.727H97.8683L98.0157 193.022C98.1356 193.283 98.3067 193.517 98.5189 193.71C98.731 193.903 98.9798 194.052 99.2506 194.147C99.899 194.244 100.56 194.085 101.094 193.704C102.049 193.133 102.945 192.466 103.766 191.714C105.01 190.47 106.533 189.541 108.208 189.005C106.512 186.793 104.522 184.397 101.628 184.95L100.799 185.54C98.2553 187.383 95.1038 189.557 96.9284 192.488C96.9693 192.557 97.0253 192.616 97.0923 192.661C97.1594 192.706 97.2356 192.735 97.3154 192.746L97.3891 192.727Z" fill="#010101"/>
<path d="M97.6295 193.464C97.5748 193.467 97.5202 193.457 97.4706 193.434C97.4209 193.41 97.3778 193.375 97.3449 193.332C97.3121 193.288 97.2906 193.237 97.2823 193.183C97.2741 193.128 97.2794 193.073 97.2977 193.022C97.4336 192.136 97.8026 191.303 98.3667 190.607C98.6335 190.241 98.8678 189.853 99.0671 189.446C99.1037 189.365 99.1709 189.303 99.2539 189.271C99.3368 189.24 99.4287 189.244 99.5094 189.28C99.59 189.317 99.6528 189.384 99.6839 189.467C99.715 189.55 99.7119 189.642 99.6753 189.722C99.4612 190.168 99.2084 190.593 98.9196 190.994C98.433 191.62 98.1213 192.364 98.0165 193.151C98.0146 193.198 98.0026 193.244 97.9815 193.286C97.9603 193.328 97.9304 193.365 97.8938 193.395C97.8572 193.424 97.8147 193.446 97.7691 193.458C97.7235 193.47 97.6759 193.472 97.6295 193.464ZM95.7496 94.6038C93.9066 93.6823 92.7086 92.4106 93.7776 90.3832C94.8465 88.3559 96.6158 88.7061 98.3851 89.6276L95.7496 94.6038ZM159.426 92.8345C161.269 91.913 162.467 90.6413 161.398 88.6139C160.329 86.5866 158.56 86.9368 156.791 87.8583L159.426 92.8345Z" fill="#010101"/>
<path d="M171.536 140.292C171.37 143.775 167.85 142.135 166.32 141.066C164.79 139.997 164.477 140.9 164.256 138.854C164.12 137.519 164.065 136.178 164.09 134.836C166.413 134.599 168.744 135.193 170.67 136.513C171.628 137.214 173.416 139.425 171.554 140.2" fill="#F6D2A2"/>
<path d="M169.729 142.743C168.462 142.606 167.251 142.149 166.209 141.417C165.869 141.184 165.496 141.004 165.103 140.882C164.365 140.624 164.089 140.403 163.997 139.039V138.117C163.897 137.07 163.866 136.017 163.905 134.966V134.524H164.181C166.582 134.273 168.994 134.887 170.982 136.256C171.493 136.601 171.923 137.054 172.241 137.582C172.56 138.111 172.759 138.702 172.825 139.315C172.799 139.569 172.709 139.812 172.564 140.021C172.419 140.23 172.224 140.4 171.996 140.513C172.004 140.923 171.903 141.327 171.702 141.683C171.501 142.04 171.208 142.336 170.853 142.541C170.502 142.705 170.115 142.775 169.729 142.743ZM164.365 135.15C164.353 136.073 164.39 136.996 164.476 137.915V138.836C164.476 139.961 164.642 139.997 165.14 140.182C165.586 140.328 166.008 140.539 166.393 140.808C166.923 141.275 167.55 141.62 168.228 141.817C168.907 142.015 169.62 142.061 170.318 141.951C170.581 141.766 170.79 141.515 170.926 141.225C171.062 140.934 171.119 140.612 171.093 140.292V140.071H171.277C171.442 140.017 171.588 139.917 171.699 139.784C171.81 139.65 171.881 139.488 171.903 139.315C171.827 138.82 171.65 138.346 171.384 137.921C171.118 137.496 170.768 137.131 170.355 136.846C168.609 135.617 166.497 135.019 164.365 135.15Z" fill="#010101"/>
<path d="M171.535 140.293C171.014 140.192 170.534 139.942 170.152 139.574Z" fill="#C7B199"/>
<path d="M171.535 140.624H171.184C170.668 140.46 170.217 140.137 169.894 139.702C169.868 139.667 169.848 139.627 169.837 139.585C169.826 139.542 169.823 139.498 169.829 139.454C169.835 139.41 169.85 139.368 169.872 139.33C169.894 139.292 169.924 139.259 169.959 139.232C169.994 139.206 170.034 139.186 170.077 139.175C170.119 139.164 170.164 139.161 170.207 139.167C170.251 139.173 170.293 139.188 170.331 139.21C170.369 139.232 170.402 139.262 170.429 139.297C170.7 139.591 171.053 139.796 171.443 139.887H171.664C171.761 139.904 171.848 139.959 171.905 140.04C171.962 140.121 171.985 140.222 171.968 140.32C171.951 140.417 171.895 140.504 171.814 140.561C171.733 140.618 171.632 140.641 171.535 140.624Z" fill="#010101"/>
<path d="M128.021 77.2422C141.365 77.2422 153.823 79.0852 160.385 91.9864C166.227 106.344 164.071 121.843 165.048 137.012C165.822 150.042 167.517 165.099 161.472 177.19C155.15 189.87 139.19 193.021 126.104 192.597C115.82 192.229 103.398 188.911 97.5927 179.475C90.7735 168.417 93.9988 152.051 94.4964 139.795C95.0862 125.272 90.5523 110.693 95.3258 96.465C100.284 81.7207 113.627 78.3849 128.003 77.2422" fill="#74CDDD"/>
<path d="M128.371 193.022H126.085C120.592 192.867 115.164 191.783 110.033 189.815C104.808 187.921 100.34 184.384 97.2974 179.734C91.7683 170.813 92.7635 158.502 93.6113 147.628C93.8325 144.9 94.0352 142.302 94.1274 139.869C94.225 134.712 94.0034 129.554 93.4639 124.424C92.6898 115.209 91.8789 105.681 94.9752 96.4471C95.9741 93.2031 97.637 90.2024 99.858 87.6355C102.079 85.0687 104.81 82.9919 107.876 81.537C112.853 79.1042 118.935 77.7035 127.873 77.0032C141.032 76.911 154.007 78.7541 160.679 91.8211C164.955 102.326 165.01 113.606 165.084 124.516C165.084 128.608 165.084 132.829 165.379 136.957C165.379 138.21 165.526 139.482 165.618 140.754C166.393 152.715 167.277 166.298 161.767 177.282C154.874 191.031 137.549 193.022 128.371 193.022ZM128.021 77.5745C114.143 78.7541 100.615 81.7398 95.6386 96.5761C92.5792 105.681 93.3902 115.135 94.1458 124.222C94.6872 129.376 94.9088 134.558 94.8093 139.74C94.7171 142.191 94.496 144.79 94.2932 147.536C93.4454 158.299 92.4502 170.518 97.8503 179.236C100.117 182.922 107.416 191.529 126.104 192.137C134.195 192.432 153.749 191.511 161.121 176.877C166.54 166.04 165.674 152.567 164.9 140.68C164.9 139.39 164.734 138.118 164.66 136.883C164.457 132.865 164.365 128.626 164.365 124.535C164.365 113.698 164.255 102.419 160.016 92.0976C157.289 86.4871 152.462 82.1766 146.58 80.0995C140.583 78.2049 134.306 77.3509 128.021 77.5745Z" fill="#010101"/>
<path d="M130.361 95.1376C132.757 109.052 155.5 105.385 152.238 91.3409C149.307 78.7531 129.569 82.2364 130.361 95.1376Z" fill="white"/>
<path d="M141.18 104.225C139.763 104.231 138.356 104 137.015 103.543C135.191 102.939 133.571 101.838 132.34 100.362C131.109 98.8869 130.315 97.0967 130.048 95.1938C129.924 93.7043 130.116 92.2054 130.612 90.7953C131.107 89.3851 131.895 88.0955 132.923 87.0108C134.896 84.9872 137.493 83.6885 140.295 83.3247C142.864 82.9182 145.494 83.3718 147.778 84.6148C148.996 85.3264 150.051 86.2866 150.874 87.433C151.696 88.5794 152.268 89.8861 152.552 91.2682C153.048 93.0156 153.045 94.867 152.543 96.6128C152.041 98.3586 151.061 99.9292 149.713 101.147C147.335 103.172 144.303 104.266 141.18 104.225ZM130.693 95.1017C130.946 96.8873 131.692 98.5669 132.848 99.9509C134.004 101.335 135.524 102.368 137.236 102.935C139.276 103.617 141.456 103.765 143.57 103.365C145.683 102.965 147.659 102.03 149.308 100.649C150.55 99.5027 151.453 98.0365 151.918 96.4112C152.383 94.7859 152.392 93.064 151.943 91.434C151.378 88.9275 149.854 86.7416 147.698 85.3434C145.543 83.9452 142.925 83.4456 140.406 83.9513C137.657 84.1867 135.107 85.4814 133.294 87.562C131.482 89.6426 130.549 92.3462 130.693 95.1017Z" fill="#010101"/>
<path d="M103.177 97.4041C106.273 109.513 125.662 106.398 124.943 94.2525C124.077 79.6926 100.21 82.4387 103.177 97.4041Z" fill="white"/>
<path d="M113.536 105.386C111.564 105.401 109.62 104.926 107.878 104.004C106.63 103.328 105.54 102.395 104.679 101.267C103.819 100.14 103.206 98.8423 102.883 97.4609C102.402 95.5756 102.474 93.592 103.088 91.746C103.702 89.8999 104.834 88.2692 106.348 87.0478C108.179 85.6506 110.346 84.7615 112.631 84.4703C114.916 84.179 117.237 84.496 119.36 85.389C121.087 86.1441 122.561 87.3791 123.606 88.9474C124.652 90.5156 125.225 92.3511 125.257 94.2356C125.645 100.686 120.521 104.446 115.618 105.294C114.928 105.378 114.231 105.409 113.536 105.386ZM103.547 97.3319C104.185 99.8938 105.804 102.102 108.055 103.481C110.306 104.861 113.01 105.3 115.582 104.704C120.226 103.967 125.073 100.428 124.705 94.3646C124.682 92.5912 124.149 90.8619 123.168 89.3843C122.187 87.9066 120.801 86.7434 119.175 86.0341C117.157 85.1868 114.951 84.8872 112.779 85.1655C110.608 85.4438 108.548 86.2902 106.809 87.6191C105.4 88.7621 104.345 90.2821 103.768 92.0019C103.19 93.7216 103.113 95.5702 103.547 97.3319Z" fill="#010101"/>
<path d="M133.034 111.93C133.211 113.849 133.211 115.78 133.034 117.699C132.494 118.382 131.73 118.852 130.877 119.026C130.353 118.945 129.857 118.734 129.435 118.412C129.013 118.09 128.679 117.667 128.463 117.183C128.344 115.007 128.4 112.825 128.629 110.658L133.034 111.93Z" fill="white"/>
<path d="M131.081 119.301H130.988C130.403 119.21 129.85 118.971 129.382 118.607C128.914 118.242 128.547 117.764 128.316 117.218C128.163 115.73 128.163 114.229 128.316 112.74C128.316 112.058 128.427 111.339 128.445 110.639V110.086L133.421 111.616V111.929C133.421 112.519 133.421 113.145 133.513 113.772C133.68 115.088 133.68 116.419 133.513 117.735V117.827C133.32 118.142 133.066 118.415 132.765 118.631C132.464 118.846 132.123 118.999 131.762 119.08L131.191 119.301H131.081ZM128.943 116.979C129.127 117.4 129.411 117.769 129.771 118.055C130.131 118.341 130.555 118.535 131.007 118.619L131.523 118.416C132.078 118.283 132.56 117.939 132.868 117.458C133.015 116.234 133.015 114.996 132.868 113.772C132.868 113.201 132.868 112.648 132.776 112.095L129.09 110.971C129.09 111.542 129.09 112.113 128.979 112.666C128.816 114.092 128.798 115.531 128.924 116.96L128.943 116.979Z" fill="#010101"/>
<path d="M108.521 98.9715C110.333 98.9715 111.801 97.379 111.801 95.4145C111.801 93.45 110.333 91.8574 108.521 91.8574C106.709 91.8574 105.24 93.45 105.24 95.4145C105.24 97.379 106.709 98.9715 108.521 98.9715Z" fill="#010101"/>
<path d="M110.014 97.1284C110.442 97.1284 110.788 96.7241 110.788 96.2253C110.788 95.7266 110.442 95.3223 110.014 95.3223C109.587 95.3223 109.24 95.7266 109.24 96.2253C109.24 96.7241 109.587 97.1284 110.014 97.1284Z" fill="white"/>
<path d="M135.983 98.0867C137.764 98.0867 139.208 96.4942 139.208 94.5297C139.208 92.5652 137.764 90.9727 135.983 90.9727C134.202 90.9727 132.758 92.5652 132.758 94.5297C132.758 96.4942 134.202 98.0867 135.983 98.0867Z" fill="#010101"/>
<path d="M137.439 96.2437C137.857 96.2437 138.195 95.8393 138.195 95.3406C138.195 94.8418 137.857 94.4375 137.439 94.4375C137.022 94.4375 136.684 94.8418 136.684 95.3406C136.684 95.8393 137.022 96.2437 137.439 96.2437Z" fill="white"/>
<path d="M123.818 111.651C122.38 115.116 124.61 122.046 128.499 116.94C128.381 114.765 128.436 112.583 128.665 110.416L123.818 111.651Z" fill="white"/>
<path d="M125.828 119.098C125.491 119.101 125.16 119.012 124.87 118.84C123.303 117.937 122.326 114.233 123.432 111.468V111.321L128.961 109.92V110.362C128.961 111.081 128.961 111.8 128.832 112.482C128.682 113.928 128.682 115.385 128.832 116.831V117.071C128.534 117.627 128.104 118.103 127.581 118.456C127.057 118.809 126.456 119.03 125.828 119.098ZM124.004 111.929C123.211 114.085 123.838 117.458 125.22 118.25C126.215 118.822 127.321 117.827 128.095 116.831C127.955 115.385 127.955 113.928 128.095 112.482C128.095 111.947 128.095 111.376 128.206 110.823L124.004 111.929Z" fill="#010101"/>
<path d="M124.243 104.981C123.578 105.044 122.938 105.264 122.375 105.623C121.812 105.982 121.342 106.469 121.003 107.044C120.665 107.62 120.468 108.268 120.429 108.934C120.39 109.601 120.509 110.267 120.778 110.878C122.621 114.196 126.712 110.584 129.256 110.878C132.186 110.878 134.6 113.975 136.959 111.431C139.577 108.593 135.835 105.902 132.905 104.594L124.243 104.981Z" fill="#F6D2A2"/>
<path d="M134.877 112.832C133.94 112.754 133.026 112.498 132.186 112.076C131.274 111.626 130.287 111.351 129.274 111.265C128.218 111.265 127.175 111.491 126.214 111.929C124.15 112.648 121.809 113.459 120.482 111.081C120.153 110.489 119.98 109.823 119.98 109.146C119.98 108.469 120.153 107.803 120.482 107.211C120.84 106.518 121.364 105.925 122.008 105.484C122.651 105.044 123.393 104.769 124.169 104.686L133.034 104.299C135.208 105.22 137.696 106.897 138.12 108.851C138.184 109.328 138.15 109.813 138.019 110.276C137.889 110.739 137.664 111.171 137.36 111.544C137.056 111.917 136.679 112.224 136.252 112.445C135.825 112.667 135.357 112.799 134.877 112.832ZM129.347 110.602C130.437 110.69 131.5 110.984 132.481 111.468C134.139 112.169 135.448 112.703 136.775 111.265C137.078 110.987 137.306 110.637 137.438 110.247C137.57 109.857 137.602 109.441 137.53 109.035C137.162 107.34 134.821 105.792 132.904 104.981L124.334 105.331C123.675 105.412 123.045 105.652 122.499 106.031C121.953 106.41 121.508 106.916 121.201 107.506C120.929 107.999 120.786 108.554 120.786 109.118C120.786 109.682 120.929 110.237 121.201 110.731C122.252 112.574 124.132 111.966 126.141 111.284C127.149 110.832 128.242 110.6 129.347 110.602Z" fill="#231F20"/>
<path d="M123.82 104.852C123.617 100.244 132.427 99.6547 133.459 103.525C134.491 107.395 124.244 108.28 123.82 104.852Z" fill="#010101"/>
<defs>
<filter id="filter0_f_2034_35980" x="-20" y="25" width="298" height="184" filterUnits="userSpaceOnUse" color-interpolation-filters="sRGB">
<feFlood flood-opacity="0" result="BackgroundImageFix"/>
<feBlend mode="normal" in="SourceGraphic" in2="BackgroundImageFix" result="shape"/>
<feGaussianBlur stdDeviation="18.5" result="effect1_foregroundBlur_2034_35980"/>
</filter>
<filter id="filter1_ii_2034_35980" x="17" y="62" width="224" height="148" filterUnits="userSpaceOnUse" color-interpolation-filters="sRGB">
<feFlood flood-opacity="0" result="BackgroundImageFix"/>
<feBlend mode="normal" in="SourceGraphic" in2="BackgroundImageFix" result="shape"/>
<feColorMatrix in="SourceAlpha" type="matrix" values="0 0 0 0 0 0 0 0 0 0 0 0 0 0 0 0 0 0 127 0" result="hardAlpha"/>
<feOffset dy="4"/>
<feComposite in2="hardAlpha" operator="arithmetic" k2="-1" k3="1"/>
<feColorMatrix type="matrix" values="0 0 0 0 1 0 0 0 0 1 0 0 0 0 1 0 0 0 0.25 0"/>
<feBlend mode="normal" in2="shape" result="effect1_innerShadow_2034_35980"/>
<feColorMatrix in="SourceAlpha" type="matrix" values="0 0 0 0 0 0 0 0 0 0 0 0 0 0 0 0 0 0 127 0" result="hardAlpha"/>
<feOffset dy="-4"/>
<feComposite in2="hardAlpha" operator="arithmetic" k2="-1" k3="1"/>
<feColorMatrix type="matrix" values="0 0 0 0 0 0 0 0 0 0 0 0 0 0 0 0 0 0 0.9 0"/>
<feBlend mode="soft-light" in2="effect1_innerShadow_2034_35980" result="effect2_innerShadow_2034_35980"/>
</filter>
<linearGradient id="paint0_linear_2034_35980" x1="17" y1="34" x2="197.768" y2="215.142" gradientUnits="userSpaceOnUse">
<stop stop-color="#05815D"/>
<stop offset="1" stop-color="#0C575F"/>
</linearGradient>
<linearGradient id="paint1_linear_2034_35980" x1="17" y1="62" x2="241" y2="210" gradientUnits="userSpaceOnUse">
<stop stop-color="#F3F3F3"/>
<stop offset="1" stop-color="#C8C8C8"/>
</linearGradient>
</defs>
</svg>
