<svg width="256" height="256" viewBox="0 0 256 256" fill="none" xmlns="http://www.w3.org/2000/svg">
          <g clip-path="url(#clip0_16_132)" id="base-svg-group">
            <path id="back-svg-group" fill-rule="evenodd" clip-rule="evenodd" d="M104.425 42.3784C100.056 37.0733 93.5437 34 86.6712 34H29C22.3726 34 17 39.3726 17 46V58.1371V68.2V160C17 166.627 22.3726 172 29 172H229C235.627 172 241 166.627 241 160V70.1371C241 63.5097 235.627 58.1371 229 58.1371H117.404L104.425 42.3784Z" fill="#d9d9d9"/>
            <mask id="mask0_16_132" style="mask-type:alpha" maskUnits="userSpaceOnUse" x="17" y="34" width="224" height="138">
              <path id="back-svg-group" fill-rule="evenodd" clip-rule="evenodd" d="M104.425 42.3784C100.056 37.0733 93.5437 34 86.6712 34H29C22.3726 34 17 39.3726 17 46V58.1371V68.2V160C17 166.627 22.3726 172 29 172H229C235.627 172 241 166.627 241 160V70.1371C241 63.5097 235.627 58.1371 229 58.1371H117.404L104.425 42.3784Z" fill="url(#paint0_linear_16_132)"/>
            </mask>
            <g mask="url(#mask0_16_132)">
              <g style="mix-blend-mode:multiply" filter="url(#filter0_f_16_132)">
                <path fill-rule="evenodd" clip-rule="evenodd" d="M92.789 74C97.7642 74 102.605 72.3868 106.586 69.4024L116.459 62H229C235.627 62 241 67.3726 241 74V108V160C241 166.627 235.627 172 229 172H29C22.3726 172 17 166.627 17 160L17 108V86C17 79.3726 22.3726 74 29 74H87H92.789Z" fill="black" fill-opacity="0.3"/>
              </g>
            </g>
            <path id="front-svg-group" filter="url(#filter1_ii_16_132)" fill-rule="evenodd" clip-rule="evenodd" d="M92.789 74C97.7642 74 102.605 72.3868 106.586 69.4024L116.459 62H229C235.627 62 241 67.3726 241 74V108V198C241 204.627 235.627 210 229 210H29C22.3726 210 17 204.627 17 198L17 108V86C17 79.3726 22.3726 74 29 74H87H92.789Z" fill="url(#paint1_linear_16_132)"/>
          </g>
          <g id="custom-svg-container"><g class="custom-svg" transform="translate(63.0221238938053 87.9) scale(0.4256637168141593)">
<path d="M28 34C28 15.2223 43.2223 0 62 0H276C294.778 0 310 15.2223 310 34V192C310 210.778 294.778 226 276 226H62C43.2223 226 28 210.778 28 192V34Z" fill="url(#paint0_linear_1_355)" transform="skewX(0) skewY(0)"/>
<path d="M28 34C28 15.2223 43.2223 0 62 0H276C294.778 0 310 15.2223 310 34V192C310 210.778 294.778 226 276 226H62C43.2223 226 28 210.778 28 192V34Z" fill="url(#paint1_linear_1_355)" transform="skewX(0) skewY(0)"/>
<path d="M28 34C28 15.2223 43.2223 0 62 0H276C294.778 0 310 15.2223 310 34V192C310 210.778 294.778 226 276 226H62C43.2223 226 28 210.778 28 192V34Z" fill="url(#paint2_linear_1_355)" transform="skewX(0) skewY(0)"/>
<path d="M239 66C245.075 66 250 70.9249 250 77V146H275C281.075 146 286 150.925 286 157C286 163.075 281.075 168 275 168H250V191C250 197.075 245.075 202 239 202C232.925 202 228 197.075 228 191V168H127C120.925 168 116 163.075 116 157C116 150.925 120.925 146 127 146H228V77C228 70.9249 232.925 66 239 66Z" fill="white" transform="skewX(0) skewY(0)"/>
<path d="M29.4023 24.3125C28.4913 27.3828 28 30.634 28 34V192C28 195.366 28.4913 198.617 29.4023 201.688C12.7994 199.443 0 185.218 0 168V58C1.24066e-06 40.7818 12.7994 26.5572 29.4023 24.3125Z" fill="#019853" transform="skewX(0) skewY(0)"/>
<defs transform="skewX(0) skewY(0)">
<linearGradient id="paint0_linear_1_355" x1="28" y1="113" x2="310" y2="113" gradientUnits="userSpaceOnUse" transform="skewX(0) skewY(0)">
<stop stop-color="#7BC8FE" transform="skewX(0) skewY(0)"/>
<stop offset="0.676754" stop-color="#11BC5C" transform="skewX(0) skewY(0)"/>
<stop offset="1" stop-color="#0EBB5E" transform="skewX(0) skewY(0)"/>
</linearGradient>
<linearGradient id="paint1_linear_1_355" x1="170" y1="-3.73944e-07" x2="170" y2="226" gradientUnits="userSpaceOnUse" transform="skewX(0) skewY(0)">
<stop stop-color="#14BA61" transform="skewX(0) skewY(0)"/>
<stop offset="0.230381" stop-color="#14BA61" stop-opacity="0" transform="skewX(0) skewY(0)"/>
</linearGradient>
<linearGradient id="paint2_linear_1_355" x1="170" y1="226" x2="170" y2="1.97431e-06" gradientUnits="userSpaceOnUse" transform="skewX(0) skewY(0)">
<stop stop-color="#14BA61" transform="skewX(0) skewY(0)"/>
<stop offset="0.230381" stop-color="#14BA61" stop-opacity="0" transform="skewX(0) skewY(0)"/>
</linearGradient>
</defs>
</g></g>
          <defs>
            <filter id="filter0_f_16_132" x="-20" y="25" width="298" height="184" filterUnits="userSpaceOnUse" color-interpolation-filters="sRGB">
              <feFlood flood-opacity="0" result="BackgroundImageFix"/>
              <feBlend mode="normal" in="SourceGraphic" in2="BackgroundImageFix" result="shape"/>
              <feGaussianBlur stdDeviation="18.5" result="effect1_foregroundBlur_16_132"/>
            </filter>
            <filter id="filter1_ii_16_132" x="17" y="62" width="224" height="148" filterUnits="userSpaceOnUse" color-interpolation-filters="sRGB">
              <feFlood flood-opacity="0" result="BackgroundImageFix"/>
              <feBlend mode="normal" in="SourceGraphic" in2="BackgroundImageFix" result="shape"/>
              <feColorMatrix in="SourceAlpha" type="matrix" values="0 0 0 0 0 0 0 0 0 0 0 0 0 0 0 0 0 0 127 0" result="hardAlpha"/>
              <feOffset dy="4"/>
              <feComposite in2="hardAlpha" operator="arithmetic" k2="-1" k3="1"/>
              <feColorMatrix type="matrix" values="0 0 0 0 1 0 0 0 0 1 0 0 0 0 1 0 0 0 0.25 0"/>
              <feBlend mode="normal" in2="shape" result="effect1_innerShadow_16_132"/>
              <feColorMatrix in="SourceAlpha" type="matrix" values="0 0 0 0 0 0 0 0 0 0 0 0 0 0 0 0 0 0 127 0" result="hardAlpha"/>
              <feOffset dy="-4"/>
              <feComposite in2="hardAlpha" operator="arithmetic" k2="-1" k3="1"/>
              <feColorMatrix type="matrix" values="0 0 0 0 0 0 0 0 0 0 0 0 0 0 0 0 0 0 0.9 0"/>
              <feBlend mode="soft-light" in2="effect1_innerShadow_16_132" result="effect2_innerShadow_16_132"/>
            </filter>
            <linearGradient id="paint0_linear_16_132" x1="17" y1="34" x2="197.768" y2="215.142" gradientUnits="userSpaceOnUse">
              <stop stop-color="#FFE7A2"/>
              <stop offset="1" stop-color="#FFCB3D"/>
            </linearGradient>
            <linearGradient id="paint1_linear_16_132" x1="17" y1="62" x2="241" y2="210" gradientUnits="userSpaceOnUse">
              <stop stop-color="#ffffff"/>
              <stop offset="0.953125" stop-color="#d1d1d1"/>
            </linearGradient>
          </defs>
        </svg>