<svg width="256" height="256" viewBox="0 0 256 256" fill="none" xmlns="http://www.w3.org/2000/svg">
          <g clip-path="url(#clip0_16_132)" id="base-svg-group">
            <path id="back-svg-group" fill-rule="evenodd" clip-rule="evenodd" d="M104.425 42.3784C100.056 37.0733 93.5437 34 86.6712 34H29C22.3726 34 17 39.3726 17 46V58.1371V68.2V160C17 166.627 22.3726 172 29 172H229C235.627 172 241 166.627 241 160V70.1371C241 63.5097 235.627 58.1371 229 58.1371H117.404L104.425 42.3784Z" fill="#d9d9d9"/>
            <mask id="mask0_16_132" style="mask-type:alpha" maskUnits="userSpaceOnUse" x="17" y="34" width="224" height="138">
              <path id="back-svg-group" fill-rule="evenodd" clip-rule="evenodd" d="M104.425 42.3784C100.056 37.0733 93.5437 34 86.6712 34H29C22.3726 34 17 39.3726 17 46V58.1371V68.2V160C17 166.627 22.3726 172 29 172H229C235.627 172 241 166.627 241 160V70.1371C241 63.5097 235.627 58.1371 229 58.1371H117.404L104.425 42.3784Z" fill="url(#paint0_linear_16_132)"/>
            </mask>
            <g mask="url(#mask0_16_132)">
              <g style="mix-blend-mode:multiply" filter="url(#filter0_f_16_132)">
                <path fill-rule="evenodd" clip-rule="evenodd" d="M92.789 74C97.7642 74 102.605 72.3868 106.586 69.4024L116.459 62H229C235.627 62 241 67.3726 241 74V108V160C241 166.627 235.627 172 229 172H29C22.3726 172 17 166.627 17 160L17 108V86C17 79.3726 22.3726 74 29 74H87H92.789Z" fill="black" fill-opacity="0.3"/>
              </g>
            </g>
            <path id="front-svg-group" filter="url(#filter1_ii_16_132)" fill-rule="evenodd" clip-rule="evenodd" d="M92.789 74C97.7642 74 102.605 72.3868 106.586 69.4024L116.459 62H229C235.627 62 241 67.3726 241 74V108V198C241 204.627 235.627 210 229 210H29C22.3726 210 17 204.627 17 198L17 108V86C17 79.3726 22.3726 74 29 74H87H92.789Z" fill="url(#paint1_linear_16_132)"/>
          </g>
          <g id="custom-svg-container"><g class="custom-svg" transform="translate(75.42727556319828 82.3) scale(1.7245053018069123)">
<mask id="mask0_7_12710" style="mask-type:alpha" maskUnits="userSpaceOnUse" x="2" y="7" width="59" height="49" transform="skewX(0) skewY(0)">
<path d="M39.3087 20.9577H41.0976L46.1959 15.8595L46.4463 13.6949C43.5257 11.1171 39.9961 9.32636 36.191 8.49189C32.3859 7.65742 28.4309 7.80676 24.6995 8.92581C20.9682 10.0449 17.5837 12.0967 14.8658 14.8874C12.1479 17.6782 10.1863 21.1157 9.16634 24.8753C9.73431 24.6425 10.3635 24.6048 10.9552 24.768L21.1517 23.0865C21.1517 23.0865 21.6705 22.2278 21.9388 22.2815C24.1236 19.882 27.143 18.4084 30.3787 18.1623C33.6145 17.9162 36.822 18.9163 39.3445 20.9577H39.3087Z" fill="#EA4335" transform="skewX(0) skewY(0)"/>
<path d="M53.462 24.8756C52.2901 20.5602 49.8841 16.6807 46.5391 13.7131L39.3836 20.8685C40.8749 22.087 42.07 23.6283 42.8788 25.376C43.6876 27.1237 44.0889 29.0323 44.0526 30.9577V32.2278C44.8889 32.2278 45.717 32.3925 46.4896 32.7126C47.2623 33.0326 47.9643 33.5017 48.5557 34.0931C49.147 34.6844 49.6161 35.3865 49.9362 36.1591C50.2562 36.9318 50.4209 37.7599 50.4209 38.5962C50.4209 39.4325 50.2562 40.2606 49.9362 41.0333C49.6161 41.8059 49.147 42.5079 48.5557 43.0993C47.9643 43.6907 47.2623 44.1597 46.4896 44.4798C45.717 44.7998 44.8889 44.9645 44.0526 44.9645H31.3158L30.0458 46.2525V53.891L31.3158 55.1611H44.0526C47.6093 55.1888 51.0804 54.0709 53.9525 51.9729C56.8247 49.8749 58.9452 46.9081 60.0005 43.5115C61.0558 40.1149 60.9898 36.4688 59.8123 33.1126C58.6347 29.7563 56.4082 26.8683 53.462 24.8756Z" fill="#4285F4" transform="skewX(0) skewY(0)"/>
<path d="M18.5582 55.0893H31.2949V44.8928H18.5582C17.6507 44.8926 16.7539 44.6973 15.9285 44.3203L14.1397 44.8749L9.00562 49.9731L8.5584 51.762C11.4375 53.936 14.9505 55.1049 18.5582 55.0893Z" fill="#34A853" transform="skewX(0) skewY(0)"/>
<path d="M18.5607 22.0133C15.1096 22.0339 11.7512 23.1319 8.95445 25.1539C6.15771 27.1758 4.06231 30.0208 2.96093 33.2914C1.85956 36.5621 1.8072 40.095 2.81117 43.3969C3.81514 46.6987 5.82531 49.6045 8.56091 51.7085L15.9489 44.3205C15.0101 43.8963 14.1881 43.2507 13.5536 42.439C12.9191 41.6273 12.4911 40.6738 12.3061 39.6604C12.1211 38.6469 12.1848 37.6036 12.4916 36.6201C12.7985 35.6367 13.3393 34.7423 14.0678 34.0138C14.7963 33.2853 15.6907 32.7445 16.6742 32.4376C17.6576 32.1308 18.7009 32.0671 19.7144 32.2521C20.7279 32.437 21.6813 32.8651 22.493 33.4996C23.3047 34.1341 23.9503 34.9561 24.3745 35.8949L31.7625 28.5069C30.2118 26.4797 28.2132 24.8387 25.923 23.7122C23.6327 22.5857 21.113 22.0042 18.5607 22.0133Z" fill="#FBBC05" transform="skewX(0) skewY(0)"/>
</mask>
<g mask="url(#mask0_7_12710)" transform="skewX(0) skewY(0)">
<g filter="url(#filter0_f_7_12710)" transform="skewX(0) skewY(0)">
<path d="M39.3084 20.9577H41.0973L46.1955 15.8595L46.446 13.6949C43.5254 11.1171 39.9958 9.32636 36.1907 8.49189C32.3856 7.65742 28.4305 7.80676 24.6992 8.92581C20.9678 10.0449 17.5834 12.0967 14.8655 14.8874C12.1476 17.6782 10.186 21.1157 9.16602 24.8753C9.73399 24.6425 10.3632 24.6048 10.9549 24.768L21.1514 23.0865C21.1514 23.0865 21.6702 22.2278 21.9385 22.2815C24.1233 19.882 27.1426 18.4084 30.3784 18.1623C33.6142 17.9162 36.8216 18.9163 39.3442 20.9577H39.3084Z" fill="#EA4335" transform="skewX(0) skewY(0)"/>
<path d="M53.4617 24.8759C52.2898 20.5605 49.8838 16.681 46.5387 13.7134L39.3833 20.8688C40.8746 22.0874 42.0697 23.6286 42.8784 25.3763C43.6872 27.124 44.0886 29.0326 44.0522 30.958V32.2281C44.8885 32.2281 45.7166 32.3929 46.4893 32.7129C47.2619 33.0329 47.964 33.502 48.5553 34.0934C49.1467 34.6847 49.6158 35.3868 49.9358 36.1594C50.2559 36.9321 50.4206 37.7602 50.4206 38.5965C50.4206 39.4328 50.2559 40.2609 49.9358 41.0336C49.6158 41.8062 49.1467 42.5083 48.5553 43.0996C47.964 43.691 47.2619 44.1601 46.4893 44.4801C45.7166 44.8001 44.8885 44.9649 44.0522 44.9649H31.3155L30.0454 46.2528V53.8913L31.3155 55.1614H44.0522C47.6089 55.1891 51.0801 54.0712 53.9522 51.9732C56.8243 49.8752 58.9449 46.9085 60.0002 43.5118C61.0555 40.1152 60.9895 36.4691 59.8119 33.1129C58.6344 29.7567 56.4078 26.8686 53.4617 24.8759Z" fill="#4285F4" transform="skewX(0) skewY(0)"/>
<path d="M18.5579 55.0893H31.2946V44.8928H18.5579C17.6504 44.8926 16.7536 44.6973 15.9282 44.3203L14.1394 44.8749L9.00532 49.9731L8.55811 51.762C11.4372 53.936 14.9502 55.1049 18.5579 55.0893Z" fill="#34A853" transform="skewX(0) skewY(0)"/>
<path d="M18.5602 22.0133C15.1091 22.0339 11.7507 23.1319 8.95397 25.1538C6.15722 27.1758 4.06182 30.0208 2.96045 33.2914C1.85907 36.562 1.80671 40.095 2.81068 43.3968C3.81466 46.6987 5.82482 49.6045 8.56043 51.7085L15.9484 44.3204C15.0096 43.8963 14.1876 43.2507 13.5532 42.439C12.9187 41.6273 12.4906 40.6738 12.3056 39.6603C12.1206 38.6468 12.1843 37.6036 12.4911 36.6201C12.798 35.6366 13.3389 34.7423 14.0673 34.0138C14.7958 33.2853 15.6902 32.7444 16.6737 32.4376C17.6571 32.1307 18.7004 32.0671 19.7139 32.252C20.7274 32.437 21.6809 32.8651 22.4925 33.4996C23.3042 34.1341 23.9498 34.956 24.374 35.8949L31.762 28.5069C30.2113 26.4797 28.2127 24.8386 25.9225 23.7121C23.6323 22.5856 21.1125 22.0042 18.5602 22.0133Z" fill="#FBBC05" transform="skewX(0) skewY(0)"/>
</g>
<g filter="url(#filter1_f_7_12710)" transform="skewX(0) skewY(0)">
<path d="M39.3084 20.9577H41.0973L46.1955 15.8595L46.446 13.6949C43.5254 11.1171 39.9958 9.32636 36.1907 8.49189C32.3856 7.65742 28.4305 7.80676 24.6992 8.92581C20.9678 10.0449 17.5834 12.0967 14.8655 14.8874C12.1476 17.6782 10.186 21.1157 9.16602 24.8753C9.73399 24.6425 10.3632 24.6048 10.9549 24.768L21.1514 23.0865C21.1514 23.0865 21.6702 22.2278 21.9385 22.2815C24.1233 19.882 27.1426 18.4084 30.3784 18.1623C33.6142 17.9162 36.8216 18.9163 39.3442 20.9577H39.3084Z" fill="#EA4335" transform="skewX(0) skewY(0)"/>
<path d="M53.4617 24.8759C52.2898 20.5605 49.8838 16.681 46.5387 13.7134L39.3833 20.8688C40.8746 22.0874 42.0697 23.6286 42.8784 25.3763C43.6872 27.124 44.0886 29.0326 44.0522 30.958V32.2281C44.8885 32.2281 45.7166 32.3929 46.4893 32.7129C47.2619 33.0329 47.964 33.502 48.5553 34.0934C49.1467 34.6847 49.6158 35.3868 49.9358 36.1594C50.2559 36.9321 50.4206 37.7602 50.4206 38.5965C50.4206 39.4328 50.2559 40.2609 49.9358 41.0336C49.6158 41.8062 49.1467 42.5083 48.5553 43.0996C47.964 43.691 47.2619 44.1601 46.4893 44.4801C45.7166 44.8001 44.8885 44.9649 44.0522 44.9649H31.3155L30.0454 46.2528V53.8913L31.3155 55.1614H44.0522C47.6089 55.1891 51.0801 54.0712 53.9522 51.9732C56.8243 49.8752 58.9449 46.9085 60.0002 43.5118C61.0555 40.1152 60.9895 36.4691 59.8119 33.1129C58.6344 29.7567 56.4078 26.8686 53.4617 24.8759Z" fill="#4285F4" transform="skewX(0) skewY(0)"/>
<path d="M18.5579 55.0893H31.2946V44.8928H18.5579C17.6504 44.8926 16.7536 44.6973 15.9282 44.3203L14.1394 44.8749L9.00532 49.9731L8.55811 51.762C11.4372 53.936 14.9502 55.1049 18.5579 55.0893Z" fill="#34A853" transform="skewX(0) skewY(0)"/>
<path d="M18.5602 22.0133C15.1091 22.0339 11.7507 23.1319 8.95397 25.1538C6.15722 27.1758 4.06182 30.0208 2.96045 33.2914C1.85907 36.562 1.80671 40.095 2.81068 43.3968C3.81466 46.6987 5.82482 49.6045 8.56043 51.7085L15.9484 44.3204C15.0096 43.8963 14.1876 43.2507 13.5532 42.439C12.9187 41.6273 12.4906 40.6738 12.3056 39.6603C12.1206 38.6468 12.1843 37.6036 12.4911 36.6201C12.798 35.6366 13.3389 34.7423 14.0673 34.0138C14.7958 33.2853 15.6902 32.7444 16.6737 32.4376C17.6571 32.1307 18.7004 32.0671 19.7139 32.252C20.7274 32.437 21.6809 32.8651 22.4925 33.4996C23.3042 34.1341 23.9498 34.956 24.374 35.8949L31.762 28.5069C30.2113 26.4797 28.2127 24.8386 25.9225 23.7121C23.6323 22.5856 21.1125 22.0042 18.5602 22.0133Z" fill="#FBBC05" transform="skewX(0) skewY(0)"/>
</g>
<g filter="url(#filter2_f_7_12710)" transform="skewX(0) skewY(0)">
<path d="M39.3084 20.9577H41.0973L46.1955 15.8595L46.446 13.6949C43.5254 11.1171 39.9958 9.32636 36.1907 8.49189C32.3856 7.65742 28.4305 7.80676 24.6992 8.92581C20.9678 10.0449 17.5834 12.0967 14.8655 14.8874C12.1476 17.6782 10.186 21.1157 9.16602 24.8753C9.73399 24.6425 10.3632 24.6048 10.9549 24.768L21.1514 23.0865C21.1514 23.0865 21.6702 22.2278 21.9385 22.2815C24.1233 19.882 27.1426 18.4084 30.3784 18.1623C33.6142 17.9162 36.8216 18.9163 39.3442 20.9577H39.3084Z" fill="#EA4335" transform="skewX(0) skewY(0)"/>
<path d="M53.4617 24.8759C52.2898 20.5605 49.8838 16.681 46.5387 13.7134L39.3833 20.8688C40.8746 22.0874 42.0697 23.6286 42.8784 25.3763C43.6872 27.124 44.0886 29.0326 44.0522 30.958V32.2281C44.8885 32.2281 45.7166 32.3929 46.4893 32.7129C47.2619 33.0329 47.964 33.502 48.5553 34.0934C49.1467 34.6847 49.6158 35.3868 49.9358 36.1594C50.2559 36.9321 50.4206 37.7602 50.4206 38.5965C50.4206 39.4328 50.2559 40.2609 49.9358 41.0336C49.6158 41.8062 49.1467 42.5083 48.5553 43.0996C47.964 43.691 47.2619 44.1601 46.4893 44.4801C45.7166 44.8001 44.8885 44.9649 44.0522 44.9649H31.3155L30.0454 46.2528V53.8913L31.3155 55.1614H44.0522C47.6089 55.1891 51.0801 54.0712 53.9522 51.9732C56.8243 49.8752 58.9449 46.9085 60.0002 43.5118C61.0555 40.1152 60.9895 36.4691 59.8119 33.1129C58.6344 29.7567 56.4078 26.8686 53.4617 24.8759Z" fill="#4285F4" transform="skewX(0) skewY(0)"/>
<path d="M18.5579 55.0893H31.2946V44.8928H18.5579C17.6504 44.8926 16.7536 44.6973 15.9282 44.3203L14.1394 44.8749L9.00532 49.9731L8.55811 51.762C11.4372 53.936 14.9502 55.1049 18.5579 55.0893Z" fill="#34A853" transform="skewX(0) skewY(0)"/>
<path d="M18.5602 22.0133C15.1091 22.0339 11.7507 23.1319 8.95397 25.1538C6.15722 27.1758 4.06182 30.0208 2.96045 33.2914C1.85907 36.562 1.80671 40.095 2.81068 43.3968C3.81466 46.6987 5.82482 49.6045 8.56043 51.7085L15.9484 44.3204C15.0096 43.8963 14.1876 43.2507 13.5532 42.439C12.9187 41.6273 12.4906 40.6738 12.3056 39.6603C12.1206 38.6468 12.1843 37.6036 12.4911 36.6201C12.798 35.6366 13.3389 34.7423 14.0673 34.0138C14.7958 33.2853 15.6902 32.7444 16.6737 32.4376C17.6571 32.1307 18.7004 32.0671 19.7139 32.252C20.7274 32.437 21.6809 32.8651 22.4925 33.4996C23.3042 34.1341 23.9498 34.956 24.374 35.8949L31.762 28.5069C30.2113 26.4797 28.2127 24.8386 25.9225 23.7121C23.6323 22.5856 21.1125 22.0042 18.5602 22.0133Z" fill="#FBBC05" transform="skewX(0) skewY(0)"/>
</g>
<g filter="url(#filter3_f_7_12710)" transform="skewX(0) skewY(0)">
<path d="M39.3084 20.9577H41.0973L46.1955 15.8595L46.446 13.6949C43.5254 11.1171 39.9958 9.32636 36.1907 8.49189C32.3856 7.65742 28.4305 7.80676 24.6992 8.92581C20.9678 10.0449 17.5834 12.0967 14.8655 14.8874C12.1476 17.6782 10.186 21.1157 9.16602 24.8753C9.73399 24.6425 10.3632 24.6048 10.9549 24.768L21.1514 23.0865C21.1514 23.0865 21.6702 22.2278 21.9385 22.2815C24.1233 19.882 27.1426 18.4084 30.3784 18.1623C33.6142 17.9162 36.8216 18.9163 39.3442 20.9577H39.3084Z" fill="#EA4335" transform="skewX(0) skewY(0)"/>
<path d="M53.4617 24.8759C52.2898 20.5605 49.8838 16.681 46.5387 13.7134L39.3833 20.8688C40.8746 22.0874 42.0697 23.6286 42.8784 25.3763C43.6872 27.124 44.0886 29.0326 44.0522 30.958V32.2281C44.8885 32.2281 45.7166 32.3929 46.4893 32.7129C47.2619 33.0329 47.964 33.502 48.5553 34.0934C49.1467 34.6847 49.6158 35.3868 49.9358 36.1594C50.2559 36.9321 50.4206 37.7602 50.4206 38.5965C50.4206 39.4328 50.2559 40.2609 49.9358 41.0336C49.6158 41.8062 49.1467 42.5083 48.5553 43.0996C47.964 43.691 47.2619 44.1601 46.4893 44.4801C45.7166 44.8001 44.8885 44.9649 44.0522 44.9649H31.3155L30.0454 46.2528V53.8913L31.3155 55.1614H44.0522C47.6089 55.1891 51.0801 54.0712 53.9522 51.9732C56.8243 49.8752 58.9449 46.9085 60.0002 43.5118C61.0555 40.1152 60.9895 36.4691 59.8119 33.1129C58.6344 29.7567 56.4078 26.8686 53.4617 24.8759Z" fill="#4285F4" transform="skewX(0) skewY(0)"/>
<path d="M18.5579 55.0893H31.2946V44.8928H18.5579C17.6504 44.8926 16.7536 44.6973 15.9282 44.3203L14.1394 44.8749L9.00532 49.9731L8.55811 51.762C11.4372 53.936 14.9502 55.1049 18.5579 55.0893Z" fill="#34A853" transform="skewX(0) skewY(0)"/>
<path d="M18.5602 22.0133C15.1091 22.0339 11.7507 23.1319 8.95397 25.1538C6.15722 27.1758 4.06182 30.0208 2.96045 33.2914C1.85907 36.562 1.80671 40.095 2.81068 43.3968C3.81466 46.6987 5.82482 49.6045 8.56043 51.7085L15.9484 44.3204C15.0096 43.8963 14.1876 43.2507 13.5532 42.439C12.9187 41.6273 12.4906 40.6738 12.3056 39.6603C12.1206 38.6468 12.1843 37.6036 12.4911 36.6201C12.798 35.6366 13.3389 34.7423 14.0673 34.0138C14.7958 33.2853 15.6902 32.7444 16.6737 32.4376C17.6571 32.1307 18.7004 32.0671 19.7139 32.252C20.7274 32.437 21.6809 32.8651 22.4925 33.4996C23.3042 34.1341 23.9498 34.956 24.374 35.8949L31.762 28.5069C30.2113 26.4797 28.2127 24.8386 25.9225 23.7121C23.6323 22.5856 21.1125 22.0042 18.5602 22.0133Z" fill="#FBBC05" transform="skewX(0) skewY(0)"/>
</g>
<g filter="url(#filter4_f_7_12710)" transform="skewX(0) skewY(0)">
<path d="M39.3084 20.9577H41.0973L46.1955 15.8595L46.446 13.6949C43.5254 11.1171 39.9958 9.32636 36.1907 8.49189C32.3856 7.65742 28.4305 7.80676 24.6992 8.92581C20.9678 10.0449 17.5834 12.0967 14.8655 14.8874C12.1476 17.6782 10.186 21.1157 9.16602 24.8753C9.73399 24.6425 10.3632 24.6048 10.9549 24.768L21.1514 23.0865C21.1514 23.0865 21.6702 22.2278 21.9385 22.2815C24.1233 19.882 27.1426 18.4084 30.3784 18.1623C33.6142 17.9162 36.8216 18.9163 39.3442 20.9577H39.3084Z" fill="#EA4335" transform="skewX(0) skewY(0)"/>
<path d="M53.4617 24.8759C52.2898 20.5605 49.8838 16.681 46.5387 13.7134L39.3833 20.8688C40.8746 22.0874 42.0697 23.6286 42.8784 25.3763C43.6872 27.124 44.0886 29.0326 44.0522 30.958V32.2281C44.8885 32.2281 45.7166 32.3929 46.4893 32.7129C47.2619 33.0329 47.964 33.502 48.5553 34.0934C49.1467 34.6847 49.6158 35.3868 49.9358 36.1594C50.2559 36.9321 50.4206 37.7602 50.4206 38.5965C50.4206 39.4328 50.2559 40.2609 49.9358 41.0336C49.6158 41.8062 49.1467 42.5083 48.5553 43.0996C47.964 43.691 47.2619 44.1601 46.4893 44.4801C45.7166 44.8001 44.8885 44.9649 44.0522 44.9649H31.3155L30.0454 46.2528V53.8913L31.3155 55.1614H44.0522C47.6089 55.1891 51.0801 54.0712 53.9522 51.9732C56.8243 49.8752 58.9449 46.9085 60.0002 43.5118C61.0555 40.1152 60.9895 36.4691 59.8119 33.1129C58.6344 29.7567 56.4078 26.8686 53.4617 24.8759Z" fill="#4285F4" transform="skewX(0) skewY(0)"/>
<path d="M18.5579 55.0893H31.2946V44.8928H18.5579C17.6504 44.8926 16.7536 44.6973 15.9282 44.3203L14.1394 44.8749L9.00532 49.9731L8.55811 51.762C11.4372 53.936 14.9502 55.1049 18.5579 55.0893Z" fill="#34A853" transform="skewX(0) skewY(0)"/>
<path d="M18.5602 22.0133C15.1091 22.0339 11.7507 23.1319 8.95397 25.1538C6.15722 27.1758 4.06182 30.0208 2.96045 33.2914C1.85907 36.562 1.80671 40.095 2.81068 43.3968C3.81466 46.6987 5.82482 49.6045 8.56043 51.7085L15.9484 44.3204C15.0096 43.8963 14.1876 43.2507 13.5532 42.439C12.9187 41.6273 12.4906 40.6738 12.3056 39.6603C12.1206 38.6468 12.1843 37.6036 12.4911 36.6201C12.798 35.6366 13.3389 34.7423 14.0673 34.0138C14.7958 33.2853 15.6902 32.7444 16.6737 32.4376C17.6571 32.1307 18.7004 32.0671 19.7139 32.252C20.7274 32.437 21.6809 32.8651 22.4925 33.4996C23.3042 34.1341 23.9498 34.956 24.374 35.8949L31.762 28.5069C30.2113 26.4797 28.2127 24.8386 25.9225 23.7121C23.6323 22.5856 21.1125 22.0042 18.5602 22.0133Z" fill="#FBBC05" transform="skewX(0) skewY(0)"/>
</g>
<g filter="url(#filter5_f_7_12710)" transform="skewX(0) skewY(0)">
<path d="M39.3084 20.9577H41.0973L46.1955 15.8595L46.446 13.6949C43.5254 11.1171 39.9958 9.32636 36.1907 8.49189C32.3856 7.65742 28.4305 7.80676 24.6992 8.92581C20.9678 10.0449 17.5834 12.0967 14.8655 14.8874C12.1476 17.6782 10.186 21.1157 9.16602 24.8753C9.73399 24.6425 10.3632 24.6048 10.9549 24.768L21.1514 23.0865C21.1514 23.0865 21.6702 22.2278 21.9385 22.2815C24.1233 19.882 27.1426 18.4084 30.3784 18.1623C33.6142 17.9162 36.8216 18.9163 39.3442 20.9577H39.3084Z" fill="#EA4335" transform="skewX(0) skewY(0)"/>
<path d="M53.4617 24.8759C52.2898 20.5605 49.8838 16.681 46.5387 13.7134L39.3833 20.8688C40.8746 22.0874 42.0697 23.6286 42.8784 25.3763C43.6872 27.124 44.0886 29.0326 44.0522 30.958V32.2281C44.8885 32.2281 45.7166 32.3929 46.4893 32.7129C47.2619 33.0329 47.964 33.502 48.5553 34.0934C49.1467 34.6847 49.6158 35.3868 49.9358 36.1594C50.2559 36.9321 50.4206 37.7602 50.4206 38.5965C50.4206 39.4328 50.2559 40.2609 49.9358 41.0336C49.6158 41.8062 49.1467 42.5083 48.5553 43.0996C47.964 43.691 47.2619 44.1601 46.4893 44.4801C45.7166 44.8001 44.8885 44.9649 44.0522 44.9649H31.3155L30.0454 46.2528V53.8913L31.3155 55.1614H44.0522C47.6089 55.1891 51.0801 54.0712 53.9522 51.9732C56.8243 49.8752 58.9449 46.9085 60.0002 43.5118C61.0555 40.1152 60.9895 36.4691 59.8119 33.1129C58.6344 29.7567 56.4078 26.8686 53.4617 24.8759Z" fill="#4285F4" transform="skewX(0) skewY(0)"/>
<path d="M18.5579 55.0893H31.2946V44.8928H18.5579C17.6504 44.8926 16.7536 44.6973 15.9282 44.3203L14.1394 44.8749L9.00532 49.9731L8.55811 51.762C11.4372 53.936 14.9502 55.1049 18.5579 55.0893Z" fill="#34A853" transform="skewX(0) skewY(0)"/>
<path d="M18.5602 22.0133C15.1091 22.0339 11.7507 23.1319 8.95397 25.1538C6.15722 27.1758 4.06182 30.0208 2.96045 33.2914C1.85907 36.562 1.80671 40.095 2.81068 43.3968C3.81466 46.6987 5.82482 49.6045 8.56043 51.7085L15.9484 44.3204C15.0096 43.8963 14.1876 43.2507 13.5532 42.439C12.9187 41.6273 12.4906 40.6738 12.3056 39.6603C12.1206 38.6468 12.1843 37.6036 12.4911 36.6201C12.798 35.6366 13.3389 34.7423 14.0673 34.0138C14.7958 33.2853 15.6902 32.7444 16.6737 32.4376C17.6571 32.1307 18.7004 32.0671 19.7139 32.252C20.7274 32.437 21.6809 32.8651 22.4925 33.4996C23.3042 34.1341 23.9498 34.956 24.374 35.8949L31.762 28.5069C30.2113 26.4797 28.2127 24.8386 25.9225 23.7121C23.6323 22.5856 21.1125 22.0042 18.5602 22.0133Z" fill="#FBBC05" transform="skewX(0) skewY(0)"/>
</g>
</g>
<defs transform="skewX(0) skewY(0)">
<filter id="filter0_f_7_12710" x="-10.474" y="-4.60826" width="83.7883" height="72.3386" filterUnits="userSpaceOnUse" color-interpolation-filters="sRGB" transform="skewX(0) skewY(0)">
<feFlood flood-opacity="0" result="BackgroundImageFix" transform="skewX(0) skewY(0)"/>
<feBlend mode="normal" in="SourceGraphic" in2="BackgroundImageFix" result="shape" transform="skewX(0) skewY(0)"/>
<feGaussianBlur stdDeviation="6.28411" result="effect1_foregroundBlur_7_12710" transform="skewX(0) skewY(0)"/>
</filter>
<filter id="filter1_f_7_12710" x="-10.474" y="-4.60826" width="83.7883" height="72.3386" filterUnits="userSpaceOnUse" color-interpolation-filters="sRGB" transform="skewX(0) skewY(0)">
<feFlood flood-opacity="0" result="BackgroundImageFix" transform="skewX(0) skewY(0)"/>
<feBlend mode="normal" in="SourceGraphic" in2="BackgroundImageFix" result="shape" transform="skewX(0) skewY(0)"/>
<feGaussianBlur stdDeviation="6.28411" result="effect1_foregroundBlur_7_12710" transform="skewX(0) skewY(0)"/>
</filter>
<filter id="filter2_f_7_12710" x="-10.474" y="-4.60826" width="83.7883" height="72.3386" filterUnits="userSpaceOnUse" color-interpolation-filters="sRGB" transform="skewX(0) skewY(0)">
<feFlood flood-opacity="0" result="BackgroundImageFix" transform="skewX(0) skewY(0)"/>
<feBlend mode="normal" in="SourceGraphic" in2="BackgroundImageFix" result="shape" transform="skewX(0) skewY(0)"/>
<feGaussianBlur stdDeviation="6.28411" result="effect1_foregroundBlur_7_12710" transform="skewX(0) skewY(0)"/>
</filter>
<filter id="filter3_f_7_12710" x="-10.474" y="-4.60826" width="83.7883" height="72.3386" filterUnits="userSpaceOnUse" color-interpolation-filters="sRGB" transform="skewX(0) skewY(0)">
<feFlood flood-opacity="0" result="BackgroundImageFix" transform="skewX(0) skewY(0)"/>
<feBlend mode="normal" in="SourceGraphic" in2="BackgroundImageFix" result="shape" transform="skewX(0) skewY(0)"/>
<feGaussianBlur stdDeviation="6.28411" result="effect1_foregroundBlur_7_12710" transform="skewX(0) skewY(0)"/>
</filter>
<filter id="filter4_f_7_12710" x="-10.474" y="-4.60826" width="83.7883" height="72.3386" filterUnits="userSpaceOnUse" color-interpolation-filters="sRGB" transform="skewX(0) skewY(0)">
<feFlood flood-opacity="0" result="BackgroundImageFix" transform="skewX(0) skewY(0)"/>
<feBlend mode="normal" in="SourceGraphic" in2="BackgroundImageFix" result="shape" transform="skewX(0) skewY(0)"/>
<feGaussianBlur stdDeviation="6.28411" result="effect1_foregroundBlur_7_12710" transform="skewX(0) skewY(0)"/>
</filter>
<filter id="filter5_f_7_12710" x="-10.474" y="-4.60826" width="83.7883" height="72.3386" filterUnits="userSpaceOnUse" color-interpolation-filters="sRGB" transform="skewX(0) skewY(0)">
<feFlood flood-opacity="0" result="BackgroundImageFix" transform="skewX(0) skewY(0)"/>
<feBlend mode="normal" in="SourceGraphic" in2="BackgroundImageFix" result="shape" transform="skewX(0) skewY(0)"/>
<feGaussianBlur stdDeviation="6.28411" result="effect1_foregroundBlur_7_12710" transform="skewX(0) skewY(0)"/>
</filter>
</defs>
</g></g>
          <defs>
            <filter id="filter0_f_16_132" x="-20" y="25" width="298" height="184" filterUnits="userSpaceOnUse" color-interpolation-filters="sRGB">
              <feFlood flood-opacity="0" result="BackgroundImageFix"/>
              <feBlend mode="normal" in="SourceGraphic" in2="BackgroundImageFix" result="shape"/>
              <feGaussianBlur stdDeviation="18.5" result="effect1_foregroundBlur_16_132"/>
            </filter>
            <filter id="filter1_ii_16_132" x="17" y="62" width="224" height="148" filterUnits="userSpaceOnUse" color-interpolation-filters="sRGB">
              <feFlood flood-opacity="0" result="BackgroundImageFix"/>
              <feBlend mode="normal" in="SourceGraphic" in2="BackgroundImageFix" result="shape"/>
              <feColorMatrix in="SourceAlpha" type="matrix" values="0 0 0 0 0 0 0 0 0 0 0 0 0 0 0 0 0 0 127 0" result="hardAlpha"/>
              <feOffset dy="4"/>
              <feComposite in2="hardAlpha" operator="arithmetic" k2="-1" k3="1"/>
              <feColorMatrix type="matrix" values="0 0 0 0 1 0 0 0 0 1 0 0 0 0 1 0 0 0 0.25 0"/>
              <feBlend mode="normal" in2="shape" result="effect1_innerShadow_16_132"/>
              <feColorMatrix in="SourceAlpha" type="matrix" values="0 0 0 0 0 0 0 0 0 0 0 0 0 0 0 0 0 0 127 0" result="hardAlpha"/>
              <feOffset dy="-4"/>
              <feComposite in2="hardAlpha" operator="arithmetic" k2="-1" k3="1"/>
              <feColorMatrix type="matrix" values="0 0 0 0 0 0 0 0 0 0 0 0 0 0 0 0 0 0 0.9 0"/>
              <feBlend mode="soft-light" in2="effect1_innerShadow_16_132" result="effect2_innerShadow_16_132"/>
            </filter>
            <linearGradient id="paint0_linear_16_132" x1="17" y1="34" x2="197.768" y2="215.142" gradientUnits="userSpaceOnUse">
              <stop stop-color="#FFE7A2"/>
              <stop offset="1" stop-color="#FFCB3D"/>
            </linearGradient>
            <linearGradient id="paint1_linear_16_132" x1="17" y1="62" x2="241" y2="210" gradientUnits="userSpaceOnUse">
              <stop stop-color="#ffffff"/>
              <stop offset="0.953125" stop-color="#d1d1d1"/>
            </linearGradient>
          </defs>
        </svg>