<svg width="256" height="256" viewBox="0 0 256 256" fill="none" xmlns="http://www.w3.org/2000/svg">
<path fill-rule="evenodd" clip-rule="evenodd" d="M104.425 42.3784C100.056 37.0733 93.5437 34 86.6712 34H29C22.3726 34 17 39.3726 17 46V58.1371V68.2V160C17 166.627 22.3726 172 29 172H229C235.627 172 241 166.627 241 160V70.1371C241 63.5097 235.627 58.1371 229 58.1371H117.404L104.425 42.3784Z" fill="#005A0E"/>
<mask id="mask0_927_20631" style="mask-type:alpha" maskUnits="userSpaceOnUse" x="17" y="34" width="224" height="138">
<path fill-rule="evenodd" clip-rule="evenodd" d="M104.425 42.3784C100.056 37.0733 93.5437 34 86.6712 34H29C22.3726 34 17 39.3726 17 46V58.1371V68.2V160C17 166.627 22.3726 172 29 172H229C235.627 172 241 166.627 241 160V70.1371C241 63.5097 235.627 58.1371 229 58.1371H117.404L104.425 42.3784Z" fill="url(#paint0_linear_927_20631)"/>
</mask>
<g mask="url(#mask0_927_20631)">
<g style="mix-blend-mode:multiply" filter="url(#filter0_f_927_20631)">
<path fill-rule="evenodd" clip-rule="evenodd" d="M92.789 74C97.7642 74 102.605 72.3868 106.586 69.4024L116.459 62H229C235.627 62 241 67.3726 241 74V108V160C241 166.627 235.627 172 229 172H29C22.3726 172 17 166.627 17 160L17 108V86C17 79.3726 22.3726 74 29 74H87H92.789Z" fill="black" fill-opacity="0.3"/>
</g>
</g>
<g filter="url(#filter1_ii_927_20631)">
<path fill-rule="evenodd" clip-rule="evenodd" d="M92.789 74C97.7642 74 102.605 72.3868 106.586 69.4024L116.459 62H229C235.627 62 241 67.3726 241 74V108V198C241 204.627 235.627 210 229 210H29C22.3726 210 17 204.627 17 198L17 108V86C17 79.3726 22.3726 74 29 74H87H92.789Z" fill="url(#paint1_linear_927_20631)"/>
</g>
<path d="M37.8379 209.883H48.8983V232.004H43.3681C40.3138 232.004 37.8379 229.528 37.8379 226.473V209.883Z" fill="url(#paint2_linear_927_20631)"/>
<rect x="59.959" y="209.883" width="11.0604" height="22.1208" fill="url(#paint3_linear_927_20631)"/>
<rect x="82.0801" y="209.883" width="11.0604" height="22.1208" fill="url(#paint4_linear_927_20631)"/>
<rect x="104.2" y="209.883" width="11.0604" height="22.1208" fill="url(#paint5_linear_927_20631)"/>
<path d="M126.321 209.883H137.382V226.473C137.382 229.528 134.906 232.004 131.851 232.004H126.321V209.883Z" fill="url(#paint6_linear_927_20631)"/>
<rect x="71.0195" y="209.883" width="11.0604" height="22.1208" fill="#E3A600"/>
<rect x="48.8984" y="209.883" width="11.0604" height="22.1208" fill="#E3A600"/>
<rect x="93.1396" y="209.883" width="11.0604" height="22.1208" fill="#E3A600"/>
<rect x="115.261" y="209.883" width="11.0604" height="22.1208" fill="#E3A600"/>
<path d="M153.099 209.883H164.159V232.004H158.629C155.575 232.004 153.099 229.528 153.099 226.473V209.883Z" fill="url(#paint7_linear_927_20631)"/>
<rect x="175.22" y="209.883" width="11.0604" height="22.1208" fill="url(#paint8_linear_927_20631)"/>
<path d="M197.341 209.883H208.401V226.473C208.401 229.528 205.925 232.004 202.871 232.004H197.341V209.883Z" fill="url(#paint9_linear_927_20631)"/>
<rect x="164.159" y="209.883" width="11.0604" height="22.1208" fill="#E3A600"/>
<rect x="186.28" y="209.883" width="11.0604" height="22.1208" fill="#E3A600"/>
<rect x="43.4111" y="101.243" width="30.9944" height="30.9944" rx="4.42777" fill="url(#paint10_linear_927_20631)"/>
<rect x="43.4111" y="153.27" width="30.9944" height="30.9944" rx="4.42777" fill="url(#paint11_linear_927_20631)"/>
<rect x="89.9023" y="101.243" width="26.0132" height="9.96249" rx="4.98125" fill="#CCCCCC"/>
<rect x="89.9023" y="122.274" width="26.0132" height="9.96249" rx="4.98125" fill="#CCCCCC"/>
<circle cx="105.4" cy="168.766" r="10.516" fill="url(#paint12_linear_927_20631)"/>
<circle cx="176.457" cy="136.753" r="47.0451" fill="#CCCCCC"/>
<circle cx="176.458" cy="136.753" r="36.5291" fill="#424242"/>
<circle cx="176.457" cy="136.753" r="10.516" fill="#999999"/>
<g filter="url(#filter2_ii_927_20631)">
<path d="M2 36.7987H10.4783C13.854 36.7987 16.2995 39.2442 16.2995 42.6199V240.26H27.3599V42.6199C27.3599 33.1357 19.9625 25.7383 10.4783 25.7383H2V36.7987Z" fill="#8E959C"/>
</g>
<defs>
<filter id="filter0_f_927_20631" x="-20" y="25" width="298" height="184" filterUnits="userSpaceOnUse" color-interpolation-filters="sRGB">
<feFlood flood-opacity="0" result="BackgroundImageFix"/>
<feBlend mode="normal" in="SourceGraphic" in2="BackgroundImageFix" result="shape"/>
<feGaussianBlur stdDeviation="18.5" result="effect1_foregroundBlur_927_20631"/>
</filter>
<filter id="filter1_ii_927_20631" x="17" y="62" width="224" height="148" filterUnits="userSpaceOnUse" color-interpolation-filters="sRGB">
<feFlood flood-opacity="0" result="BackgroundImageFix"/>
<feBlend mode="normal" in="SourceGraphic" in2="BackgroundImageFix" result="shape"/>
<feColorMatrix in="SourceAlpha" type="matrix" values="0 0 0 0 0 0 0 0 0 0 0 0 0 0 0 0 0 0 127 0" result="hardAlpha"/>
<feOffset dy="4"/>
<feComposite in2="hardAlpha" operator="arithmetic" k2="-1" k3="1"/>
<feColorMatrix type="matrix" values="0 0 0 0 1 0 0 0 0 1 0 0 0 0 1 0 0 0 0.25 0"/>
<feBlend mode="normal" in2="shape" result="effect1_innerShadow_927_20631"/>
<feColorMatrix in="SourceAlpha" type="matrix" values="0 0 0 0 0 0 0 0 0 0 0 0 0 0 0 0 0 0 127 0" result="hardAlpha"/>
<feOffset dy="-4"/>
<feComposite in2="hardAlpha" operator="arithmetic" k2="-1" k3="1"/>
<feColorMatrix type="matrix" values="0 0 0 0 0 0 0 0 0 0 0 0 0 0 0 0 0 0 0.9 0"/>
<feBlend mode="soft-light" in2="effect1_innerShadow_927_20631" result="effect2_innerShadow_927_20631"/>
</filter>
<filter id="filter2_ii_927_20631" x="2" y="25.7383" width="25.3604" height="214.521" filterUnits="userSpaceOnUse" color-interpolation-filters="sRGB">
<feFlood flood-opacity="0" result="BackgroundImageFix"/>
<feBlend mode="normal" in="SourceGraphic" in2="BackgroundImageFix" result="shape"/>
<feColorMatrix in="SourceAlpha" type="matrix" values="0 0 0 0 0 0 0 0 0 0 0 0 0 0 0 0 0 0 127 0" result="hardAlpha"/>
<feOffset dy="4.01251"/>
<feComposite in2="hardAlpha" operator="arithmetic" k2="-1" k3="1"/>
<feColorMatrix type="matrix" values="0 0 0 0 1 0 0 0 0 1 0 0 0 0 1 0 0 0 0.25 0"/>
<feBlend mode="normal" in2="shape" result="effect1_innerShadow_927_20631"/>
<feColorMatrix in="SourceAlpha" type="matrix" values="0 0 0 0 0 0 0 0 0 0 0 0 0 0 0 0 0 0 127 0" result="hardAlpha"/>
<feOffset dy="-4.01251"/>
<feComposite in2="hardAlpha" operator="arithmetic" k2="-1" k3="1"/>
<feColorMatrix type="matrix" values="0 0 0 0 0 0 0 0 0 0 0 0 0 0 0 0 0 0 0.9 0"/>
<feBlend mode="soft-light" in2="effect1_innerShadow_927_20631" result="effect2_innerShadow_927_20631"/>
</filter>
<linearGradient id="paint0_linear_927_20631" x1="17" y1="34" x2="197.768" y2="215.142" gradientUnits="userSpaceOnUse">
<stop stop-color="#05815D"/>
<stop offset="1" stop-color="#0C575F"/>
</linearGradient>
<linearGradient id="paint1_linear_927_20631" x1="17" y1="68" x2="235.276" y2="218.312" gradientUnits="userSpaceOnUse">
<stop stop-color="#20AB63"/>
<stop offset="1" stop-color="#098444"/>
</linearGradient>
<linearGradient id="paint2_linear_927_20631" x1="43.3681" y1="209.883" x2="43.3681" y2="232.004" gradientUnits="userSpaceOnUse">
<stop stop-color="#EDBE00"/>
<stop offset="1" stop-color="#EDBE00"/>
</linearGradient>
<linearGradient id="paint3_linear_927_20631" x1="65.4892" y1="209.883" x2="65.4892" y2="232.004" gradientUnits="userSpaceOnUse">
<stop stop-color="#EDBE00"/>
<stop offset="1" stop-color="#EDBE00"/>
</linearGradient>
<linearGradient id="paint4_linear_927_20631" x1="87.6103" y1="209.883" x2="87.6103" y2="232.004" gradientUnits="userSpaceOnUse">
<stop stop-color="#EDBE00"/>
<stop offset="1" stop-color="#EDBE00"/>
</linearGradient>
<linearGradient id="paint5_linear_927_20631" x1="109.73" y1="209.883" x2="109.73" y2="232.004" gradientUnits="userSpaceOnUse">
<stop stop-color="#EDBE00"/>
<stop offset="1" stop-color="#EDBE00"/>
</linearGradient>
<linearGradient id="paint6_linear_927_20631" x1="131.851" y1="209.883" x2="131.851" y2="232.004" gradientUnits="userSpaceOnUse">
<stop stop-color="#EDBE00"/>
<stop offset="1" stop-color="#EDBE00"/>
</linearGradient>
<linearGradient id="paint7_linear_927_20631" x1="158.629" y1="209.883" x2="158.629" y2="232.004" gradientUnits="userSpaceOnUse">
<stop stop-color="#EDBE00"/>
<stop offset="1" stop-color="#EDBE00"/>
</linearGradient>
<linearGradient id="paint8_linear_927_20631" x1="180.75" y1="209.883" x2="180.75" y2="232.004" gradientUnits="userSpaceOnUse">
<stop stop-color="#EDBE00"/>
<stop offset="1" stop-color="#EDBE00"/>
</linearGradient>
<linearGradient id="paint9_linear_927_20631" x1="202.871" y1="209.883" x2="202.871" y2="232.004" gradientUnits="userSpaceOnUse">
<stop stop-color="#EDBE00"/>
<stop offset="1" stop-color="#EDBE00"/>
</linearGradient>
<linearGradient id="paint10_linear_927_20631" x1="43.4111" y1="101.243" x2="77.4496" y2="132.238" gradientUnits="userSpaceOnUse">
<stop stop-color="#464646"/>
<stop offset="1" stop-color="#343434"/>
</linearGradient>
<linearGradient id="paint11_linear_927_20631" x1="43.4111" y1="153.27" x2="77.4496" y2="184.264" gradientUnits="userSpaceOnUse">
<stop stop-color="#464646"/>
<stop offset="1" stop-color="#343434"/>
</linearGradient>
<linearGradient id="paint12_linear_927_20631" x1="94.8838" y1="158.25" x2="115.916" y2="179.282" gradientUnits="userSpaceOnUse">
<stop stop-color="#4A4A4A"/>
<stop offset="1" stop-color="#353535"/>
</linearGradient>
</defs>
</svg>
