<svg width="256" height="256" viewBox="0 0 256 256" fill="none" xmlns="http://www.w3.org/2000/svg">
<g clip-path="url(#clip0_2043_35307)">
<path fill-rule="evenodd" clip-rule="evenodd" d="M104.425 42.3784C100.056 37.0733 93.5437 34 86.6712 34H29C22.3726 34 17 39.3726 17 46V58.1371V68.2V160C17 166.627 22.3726 172 29 172H229C235.627 172 241 166.627 241 160V70.1371C241 63.5097 235.627 58.1371 229 58.1371H117.404L104.425 42.3784Z" fill="#E6E6E6"/>
<mask id="mask0_2043_35307" style="mask-type:alpha" maskUnits="userSpaceOnUse" x="17" y="34" width="224" height="138">
<path fill-rule="evenodd" clip-rule="evenodd" d="M104.425 42.3784C100.056 37.0733 93.5437 34 86.6712 34H29C22.3726 34 17 39.3726 17 46V58.1371V68.2V160C17 166.627 22.3726 172 29 172H229C235.627 172 241 166.627 241 160V70.1371C241 63.5097 235.627 58.1371 229 58.1371H117.404L104.425 42.3784Z" fill="url(#paint0_linear_2043_35307)"/>
</mask>
<g mask="url(#mask0_2043_35307)">
<g style="mix-blend-mode:multiply" filter="url(#filter0_f_2043_35307)">
<path fill-rule="evenodd" clip-rule="evenodd" d="M92.789 74C97.7642 74 102.605 72.3868 106.586 69.4024L116.459 62H229C235.627 62 241 67.3726 241 74V108V160C241 166.627 235.627 172 229 172H29C22.3726 172 17 166.627 17 160L17 108V86C17 79.3726 22.3726 74 29 74H87H92.789Z" fill="black" fill-opacity="0.3"/>
</g>
</g>
<g filter="url(#filter1_ii_2043_35307)">
<path fill-rule="evenodd" clip-rule="evenodd" d="M92.789 74C97.7642 74 102.605 72.3868 106.586 69.4024L116.459 62H229C235.627 62 241 67.3726 241 74V108V198C241 204.627 235.627 210 229 210H29C22.3726 210 17 204.627 17 198L17 108V86C17 79.3726 22.3726 74 29 74H87H92.789Z" fill="url(#paint1_linear_2043_35307)"/>
</g>
<path d="M127.75 104.188L99.9839 101.113L79 92H103.374L127.75 104.19" fill="#FBC707"/>
<path d="M127.752 104.188L156.154 101.749L176.502 92H152.126L127.752 104.19" fill="#FBC707"/>
<path d="M127.752 177.315L154.247 178.269L176.502 189.503H152.126L127.752 177.312" fill="#F68712"/>
<path d="M127.75 177.315H101.044L79 189.503H103.374L127.75 177.312" fill="#F25C19"/>
<path d="M91.1872 140.754V166.401L79 189.505V165.13L91.1872 140.754Z" fill="#FFF200"/>
<path d="M91.1872 140.751L89.1739 115.314L79 92V116.375L91.1872 140.751Z" fill="#FFF200"/>
<path d="M164.312 140.751L166.963 114.043L176.502 92V116.375L164.312 140.751Z" fill="#F1471D"/>
<path d="M164.312 140.754L166.54 169.369L176.502 189.505V165.13L164.312 140.754Z" fill="#F1471D"/>
<path d="M79 92L127.75 104.188L119.908 135.239L91.1872 140.751L79 92.0026" fill="#FAB20B"/>
<path d="M176.502 92L164.313 140.751L131.567 134.814L127.752 104.187L176.502 92.0026" fill="#F47216"/>
<path d="M176.502 189.502L127.752 177.314L133.263 144.992L164.313 140.754L176.502 189.499" fill="#F25C19"/>
<path d="M79 189.505L91.1872 140.754L120.544 147.324L127.75 177.317L79 189.502" fill="#F89C0E"/>
<path d="M127.755 104.188L91.1914 140.751L127.755 177.314L164.316 140.751L127.755 104.189" fill="#F68712"/>
</g>
<defs>
<filter id="filter0_f_2043_35307" x="-20" y="25" width="298" height="184" filterUnits="userSpaceOnUse" color-interpolation-filters="sRGB">
<feFlood flood-opacity="0" result="BackgroundImageFix"/>
<feBlend mode="normal" in="SourceGraphic" in2="BackgroundImageFix" result="shape"/>
<feGaussianBlur stdDeviation="18.5" result="effect1_foregroundBlur_2043_35307"/>
</filter>
<filter id="filter1_ii_2043_35307" x="17" y="62" width="224" height="148" filterUnits="userSpaceOnUse" color-interpolation-filters="sRGB">
<feFlood flood-opacity="0" result="BackgroundImageFix"/>
<feBlend mode="normal" in="SourceGraphic" in2="BackgroundImageFix" result="shape"/>
<feColorMatrix in="SourceAlpha" type="matrix" values="0 0 0 0 0 0 0 0 0 0 0 0 0 0 0 0 0 0 127 0" result="hardAlpha"/>
<feOffset dy="-4"/>
<feComposite in2="hardAlpha" operator="arithmetic" k2="-1" k3="1"/>
<feColorMatrix type="matrix" values="0 0 0 0 0 0 0 0 0 0 0 0 0 0 0 0 0 0 0.25 0"/>
<feBlend mode="normal" in2="shape" result="effect1_innerShadow_2043_35307"/>
<feColorMatrix in="SourceAlpha" type="matrix" values="0 0 0 0 0 0 0 0 0 0 0 0 0 0 0 0 0 0 127 0" result="hardAlpha"/>
<feOffset dy="4"/>
<feComposite in2="hardAlpha" operator="arithmetic" k2="-1" k3="1"/>
<feColorMatrix type="matrix" values="0 0 0 0 1 0 0 0 0 1 0 0 0 0 1 0 0 0 0.25 0"/>
<feBlend mode="normal" in2="effect1_innerShadow_2043_35307" result="effect2_innerShadow_2043_35307"/>
</filter>
<linearGradient id="paint0_linear_2043_35307" x1="17" y1="34" x2="197.768" y2="215.142" gradientUnits="userSpaceOnUse">
<stop stop-color="#05815D"/>
<stop offset="1" stop-color="#0C575F"/>
</linearGradient>
<linearGradient id="paint1_linear_2043_35307" x1="17" y1="62" x2="241" y2="210" gradientUnits="userSpaceOnUse">
<stop stop-color="#5F585E"/>
<stop offset="1" stop-color="#010101"/>
</linearGradient>
<clipPath id="clip0_2043_35307">
<rect width="256" height="256" fill="white"/>
</clipPath>
</defs>
</svg>
