<svg width="256" height="256" viewBox="0 0 256 256" fill="none" xmlns="http://www.w3.org/2000/svg">
<path fill-rule="evenodd" clip-rule="evenodd" d="M104.425 42.3784C100.056 37.0733 93.5437 34 86.6712 34H29C22.3726 34 17 39.3726 17 46V58.1371V68.2V160C17 166.627 22.3726 172 29 172H229C235.627 172 241 166.627 241 160V70.1371C241 63.5097 235.627 58.1371 229 58.1371H117.404L104.425 42.3784Z" fill="#140323"/>
<mask id="mask0_610_14268" style="mask-type:alpha" maskUnits="userSpaceOnUse" x="17" y="34" width="224" height="138">
<path fill-rule="evenodd" clip-rule="evenodd" d="M104.425 42.3784C100.056 37.0733 93.5437 34 86.6712 34H29C22.3726 34 17 39.3726 17 46V58.1371V68.2V160C17 166.627 22.3726 172 29 172H229C235.627 172 241 166.627 241 160V70.1371C241 63.5097 235.627 58.1371 229 58.1371H117.404L104.425 42.3784Z" fill="url(#paint0_linear_610_14268)"/>
</mask>
<g mask="url(#mask0_610_14268)">
<g style="mix-blend-mode:multiply" filter="url(#filter0_f_610_14268)">
<path fill-rule="evenodd" clip-rule="evenodd" d="M92.789 74C97.7642 74 102.605 72.3868 106.586 69.4024L116.459 62H229C235.627 62 241 67.3726 241 74V108V160C241 166.627 235.627 172 229 172H29C22.3726 172 17 166.627 17 160L17 108V86C17 79.3726 22.3726 74 29 74H87H92.789Z" fill="black" fill-opacity="0.3"/>
</g>
</g>
<g filter="url(#filter1_ii_610_14268)">
<path fill-rule="evenodd" clip-rule="evenodd" d="M92.789 74C97.7642 74 102.605 72.3868 106.586 69.4024L116.459 62H229C235.627 62 241 67.3726 241 74V108V198C241 204.627 235.627 210 229 210H29C22.3726 210 17 204.627 17 198L17 108V86C17 79.3726 22.3726 74 29 74H87H92.789Z" fill="url(#paint1_linear_610_14268)"/>
</g>
<path d="M62.6775 151.851H54.5521V140.077H49.3014V151.821H41V121.507H49.3014V132.834H54.5521V121.507H62.6775V151.851ZM99.8724 151.97C108.174 151.97 114.95 144.936 114.95 136.411C114.95 127.707 108.174 121 99.8724 121C91.4537 121 87.2003 127.23 86.1736 129.734C86.1736 125.978 82.4776 121.477 78.1949 121.477H64.3495V151.821H77.2562C82.5069 151.821 86.203 147.261 86.203 143.266C87.347 145.77 91.4537 151.97 99.8724 151.97ZM76.2002 139.66C77.4029 139.66 78.3709 140.852 78.3709 142.193C78.3709 143.624 77.4029 144.787 76.2002 144.787H72.0935V139.66H76.2002ZM76.2002 128.273C77.4029 128.273 78.3709 129.465 78.3709 130.807C78.3709 132.148 77.4029 133.34 76.2002 133.34H72.0935V128.273H76.2002ZM81.6563 136.411C82.6243 136.351 84.1789 135.218 84.7949 134.563C84.5603 135.367 84.5603 137.931 84.7949 138.736C84.1203 137.752 82.6243 136.56 81.6563 136.411ZM92.3043 136.411C92.3043 132.148 95.707 128.69 99.931 128.72C104.155 128.75 107.528 132.237 107.47 136.53C107.411 140.762 104.038 144.161 99.9017 144.161C95.6777 144.131 92.3043 140.703 92.3043 136.411V136.411ZM99.8724 142.491C103.099 142.491 105.827 139.779 105.827 136.411C105.827 133.042 103.099 130.36 99.8724 130.36C96.5577 130.36 93.8883 133.042 93.8883 136.411C93.8883 139.779 96.5577 142.491 99.8724 142.491ZM158.305 132.238C158.158 124.905 153.054 121 146.777 121C143.315 121 140.235 122.163 138.123 124.458C135.982 122.163 132.902 121 129.441 121C123.163 121 118.059 124.905 117.883 132.267V149.079C117.883 150.629 119.115 151.881 120.641 151.881H123.222C123.486 151.881 123.691 151.672 123.691 151.404V132.327C123.809 128.69 126.331 126.783 129.441 126.783C132.55 126.783 135.102 128.69 135.19 132.327V149.079C135.19 150.629 136.422 151.881 137.947 151.881H140.529C140.793 151.881 140.998 151.672 140.998 151.404V132.327C141.115 128.69 143.638 126.783 146.747 126.783C149.857 126.783 152.409 128.69 152.497 132.327V149.079C152.497 150.629 153.729 151.881 155.254 151.881H157.835C158.099 151.881 158.305 151.672 158.305 151.404V132.327C158.334 132.297 158.305 132.267 158.305 132.238V132.238ZM216.649 121.507H212.249C211.046 121.507 209.902 122.133 209.228 123.146L204.358 130.479C203.713 131.433 202.334 131.433 201.718 130.479L196.849 123.146C196.174 122.133 195.03 121.507 193.828 121.507H189.428C189.164 121.507 188.988 121.805 189.134 122.043L197.817 135.129C198.433 136.083 198.433 137.305 197.817 138.259L189.134 151.314C188.988 151.553 189.134 151.851 189.428 151.851H193.828C195.03 151.851 196.174 151.225 196.849 150.212L201.718 142.879C202.364 141.925 203.742 141.925 204.358 142.879L209.228 150.212C209.902 151.225 211.046 151.851 212.249 151.851H216.649C216.913 151.851 217.089 151.553 216.942 151.314L208.26 138.229C207.644 137.275 207.644 136.053 208.26 135.099L216.942 122.013C217.089 121.805 216.942 121.507 216.649 121.507V121.507ZM187.14 121.507H184.558C183.238 121.507 182.153 122.461 181.889 123.713C179.572 121.924 176.697 121.03 173.558 121.03C165.931 121 159.801 126.365 159.801 136.5C159.801 146.635 165.961 152 173.529 152C176.638 152 179.513 151.106 181.801 149.347C181.918 150.778 183.092 151.881 184.529 151.881H187.11C187.374 151.881 187.58 151.672 187.58 151.404V121.954C187.58 121.715 187.374 121.507 187.14 121.507V121.507ZM173.529 146.217C169.011 146.217 165.315 142.849 165.315 136.5C165.315 130.151 168.982 126.783 173.529 126.783C178.076 126.783 181.742 130.151 181.742 136.5C181.742 142.849 178.076 146.217 173.529 146.217Z" fill="white"/>
<defs>
<filter id="filter0_f_610_14268" x="-20" y="25" width="298" height="184" filterUnits="userSpaceOnUse" color-interpolation-filters="sRGB">
<feFlood flood-opacity="0" result="BackgroundImageFix"/>
<feBlend mode="normal" in="SourceGraphic" in2="BackgroundImageFix" result="shape"/>
<feGaussianBlur stdDeviation="18.5" result="effect1_foregroundBlur_610_14268"/>
</filter>
<filter id="filter1_ii_610_14268" x="17" y="62" width="224" height="148" filterUnits="userSpaceOnUse" color-interpolation-filters="sRGB">
<feFlood flood-opacity="0" result="BackgroundImageFix"/>
<feBlend mode="normal" in="SourceGraphic" in2="BackgroundImageFix" result="shape"/>
<feColorMatrix in="SourceAlpha" type="matrix" values="0 0 0 0 0 0 0 0 0 0 0 0 0 0 0 0 0 0 127 0" result="hardAlpha"/>
<feOffset dy="-4"/>
<feComposite in2="hardAlpha" operator="arithmetic" k2="-1" k3="1"/>
<feColorMatrix type="matrix" values="0 0 0 0 0 0 0 0 0 0 0 0 0 0 0 0 0 0 0.25 0"/>
<feBlend mode="normal" in2="shape" result="effect1_innerShadow_610_14268"/>
<feColorMatrix in="SourceAlpha" type="matrix" values="0 0 0 0 0 0 0 0 0 0 0 0 0 0 0 0 0 0 127 0" result="hardAlpha"/>
<feOffset dy="4"/>
<feComposite in2="hardAlpha" operator="arithmetic" k2="-1" k3="1"/>
<feColorMatrix type="matrix" values="0 0 0 0 1 0 0 0 0 1 0 0 0 0 1 0 0 0 0.25 0"/>
<feBlend mode="normal" in2="effect1_innerShadow_610_14268" result="effect2_innerShadow_610_14268"/>
</filter>
<linearGradient id="paint0_linear_610_14268" x1="17" y1="34" x2="197.768" y2="215.142" gradientUnits="userSpaceOnUse">
<stop stop-color="#05815D"/>
<stop offset="1" stop-color="#0C575F"/>
</linearGradient>
<linearGradient id="paint1_linear_610_14268" x1="17" y1="62" x2="241" y2="210" gradientUnits="userSpaceOnUse">
<stop stop-color="#17052D"/>
<stop offset="1" stop-color="#140322"/>
</linearGradient>
</defs>
</svg>
