<?xml version="1.0" encoding="UTF-8" standalone="no"?>
<!-- Created with Inkscape (http://www.inkscape.org/) -->

<svg
   version="1.1"
   id="svg1"
   width="341.33334"
   height="341.33334"
   viewBox="0 0 341.33334 341.33334"
   sodipodi:docname="HiSpark.svg"
   xml:space="preserve"
   inkscape:version="1.4 (86a8ad7, 2024-10-11)"
   xmlns:inkscape="http://www.inkscape.org/namespaces/inkscape"
   xmlns:sodipodi="http://sodipodi.sourceforge.net/DTD/sodipodi-0.dtd"
   xmlns:xlink="http://www.w3.org/1999/xlink"
   xmlns="http://www.w3.org/2000/svg"
   xmlns:svg="http://www.w3.org/2000/svg"><defs
     id="defs1"><linearGradient
       id="linearGradient19"
       inkscape:collect="always"><stop
         style="stop-color:#e20004;stop-opacity:0.67843137;"
         offset="0"
         id="stop20" /><stop
         style="stop-color:#969696;stop-opacity:1;"
         offset="0.76842105"
         id="stop21" /></linearGradient><linearGradient
       id="linearGradient16"
       inkscape:collect="always"><stop
         style="stop-color:#e20004;stop-opacity:1;"
         offset="0"
         id="stop16" /><stop
         style="stop-color:#e20004;stop-opacity:0;"
         offset="0.74473685"
         id="stop17" /></linearGradient><clipPath
       clipPathUnits="userSpaceOnUse"
       id="clipPath2"><path
         d="M 0,256 H 256 V 0 H 0 Z"
         transform="translate(-104.425,-213.62161)"
         id="path2" /></clipPath><mask
       maskUnits="userSpaceOnUse"
       x="0"
       y="0"
       width="1"
       height="1"
       id="mask2"><path
         id="path3"
         d="M 17,194 H 241 V 84 H 17 Z"
         style="fill:#000000;fill-opacity:1;fill-rule:nonzero;stroke:none"
         transform="matrix(1.3333333,0,0,-1.3333333,0,341.33333)"
         clip-path="url(#clipPath4)" /><path
         d="M 104.425,213.622 C 100.056,218.927 93.544,222 86.671,222 H 29 c -6.627,0 -12,-5.373 -12,-12 V 197.863 187.8 96 c 0,-6.627 5.373,-12 12,-12 h 200 c 6.627,0 12,5.373 12,12 v 89.863 c 0,6.627 -5.373,12 -12,12 H 117.404 Z"
         transform="matrix(1.3333333,0,0,-1.3333333,0,341.33333)"
         style="fill:url(#linearGradient5);fill-rule:evenodd;stroke:none"
         opacity="1"
         id="path5"
         clip-path="url(#clipPath6)" /></mask><clipPath
       clipPathUnits="userSpaceOnUse"
       id="clipPath4"><path
         d="M 17,194 H 241 V 84 H 17 Z"
         id="path4" /></clipPath><linearGradient
       x1="0"
       y1="0"
       x2="1"
       y2="0"
       gradientUnits="userSpaceOnUse"
       gradientTransform="matrix(180.76801,-181.142,181.142,180.76801,32.581543,237.54932)"
       spreadMethod="pad"
       id="linearGradient5"><stop
         style="stop-opacity:1;stop-color:#05815d"
         offset="0"
         id="stop4" /><stop
         style="stop-opacity:1;stop-color:#0c575f"
         offset="1"
         id="stop5" /></linearGradient><clipPath
       clipPathUnits="userSpaceOnUse"
       id="clipPath6"><path
         d="M 17,194 H 241 V 84 H 17 Z"
         id="path6" /></clipPath><clipPath
       clipPathUnits="userSpaceOnUse"
       id="clipPath7"><path
         d="M 17,194 H 241 V 84 H 17 Z"
         transform="translate(-92.789005,-182)"
         id="path7" /></clipPath><clipPath
       clipPathUnits="userSpaceOnUse"
       id="clipPath9"><path
         d="M 0,256 H 256 V 0 H 0 Z"
         transform="matrix(1.3333333,0,0,-1.3333333,0,341.33333)"
         id="path9" /></clipPath><linearGradient
       x1="0"
       y1="0"
       x2="1"
       y2="0"
       gradientUnits="userSpaceOnUse"
       gradientTransform="matrix(223.99998,-147.99998,147.99998,223.99998,16.999996,194)"
       spreadMethod="pad"
       id="linearGradient11"><stop
         style="stop-opacity:1;stop-color:#ffe7a2"
         offset="0"
         id="stop9" /><stop
         style="stop-opacity:1;stop-color:#ffcb3d"
         offset="0.953125"
         id="stop10" /><stop
         style="stop-opacity:1;stop-color:#ffcb3d"
         offset="1"
         id="stop11" /></linearGradient><linearGradient
       x1="1"
       y1="-9.7144515e-17"
       x2="4.2747732e-08"
       y2="9.7144515e-17"
       gradientUnits="userSpaceOnUse"
       gradientTransform="matrix(224.01749,-2.5002055,2.5002055,224.01749,16.925417,55.317421)"
       spreadMethod="pad"
       id="linearGradient13"><stop
         style="stop-opacity:1;stop-color:#ffcf4e"
         offset="0"
         id="stop12" /><stop
         style="stop-color:#e20005;stop-opacity:0.65882355;"
         offset="0.5"
         id="stop19" /></linearGradient><linearGradient
       x1="0"
       y1="0"
       x2="1"
       y2="0"
       gradientUnits="userSpaceOnUse"
       gradientTransform="matrix(224,0,0,224,17,180)"
       spreadMethod="pad"
       id="linearGradient15"><stop
         style="stop-opacity:1;stop-color:#ffecb5"
         offset="0"
         id="stop14" /><stop
         style="stop-opacity:1;stop-color:#ffde82"
         offset="1"
         id="stop15" /></linearGradient><style
       id="style1">.cls-1{fill:#e20004;}</style><linearGradient
       inkscape:collect="always"
       xlink:href="#linearGradient16"
       id="linearGradient17"
       x1="40.162384"
       y1="50.288021"
       x2="8.9876022"
       y2="-171.53206"
       gradientUnits="userSpaceOnUse" /><linearGradient
       inkscape:collect="always"
       xlink:href="#linearGradient19"
       id="linearGradient21"
       x1="18.701546"
       y1="199.44861"
       x2="239.29845"
       y2="160.55141"
       gradientUnits="userSpaceOnUse" /></defs><sodipodi:namedview
     id="namedview1"
     pagecolor="#ffffff"
     bordercolor="#000000"
     borderopacity="0.25"
     inkscape:showpageshadow="2"
     inkscape:pageopacity="0.0"
     inkscape:pagecheckerboard="0"
     inkscape:deskcolor="#d1d1d1"
     inkscape:zoom="3.3076171"
     inkscape:cx="170.81784"
     inkscape:cy="170.66667"
     inkscape:window-width="2160"
     inkscape:window-height="1406"
     inkscape:window-x="-11"
     inkscape:window-y="-11"
     inkscape:window-maximized="1"
     inkscape:current-layer="layer-MC0"><inkscape:page
       x="0"
       y="0"
       inkscape:label="1"
       id="page1"
       width="341.33334"
       height="341.33334"
       margin="61.333332 20 45.333332 22.666666"
       bleed="0" /></sodipodi:namedview><g
     id="layer-MC0"
     inkscape:groupmode="layer"
     inkscape:label="Layer 1"><path
       id="path1"
       d="m 0,0 c -4.369,5.305 -10.881,8.378 -17.754,8.378 h -57.671 c -6.627,0 -12,-5.372 -12,-12 v -12.137 -10.063 -91.8 c 0,-6.627 5.373,-12 12,-12 h 200 c 6.627,0 12,5.373 12,12 v 89.863 c 0,6.628 -5.373,12 -12,12 H 12.979 Z"
       style="fill:url(#linearGradient17);fill-opacity:1;fill-rule:evenodd;stroke:none"
       transform="matrix(1.3333333,0,0,-1.3333333,139.23333,56.504533)"
       clip-path="url(#clipPath2)" /><g
       mask="url(#mask2)"
       id="g9"
       clip-path="url(#clipPath9)"><g
         id="g8"><path
           d="M 0,0 C 4.975,0 9.816,1.613 13.797,4.598 L 23.67,12 h 112.541 c 6.627,0 12,-5.373 12,-12 v -34 -52 c 0,-6.627 -5.373,-12 -12,-12 h -200 c -6.627,0 -12,5.373 -12,12 v 52 22 c 0,6.627 5.373,12 12,12 h 58 z"
           style="fill:#a6a1a1;fill-opacity:1;fill-rule:evenodd;stroke:none"
           transform="matrix(1.3333333,0,0,-1.3333333,123.71867,98.666667)"
           clip-path="url(#clipPath7)"
           id="path8" /></g></g><path
       id="path11"
       d="m 116.459,194 -9.873,-7.402 C 102.605,183.613 97.764,182 92.789,182 v 0 H 87 29 c -6.628,0 -12,-5.372 -12,-12 v 0 -22 -90 c 0,-6.627 5.372,-12 12,-12 v 0 h 200 c 6.627,0 12,5.373 12,12 v 0 90 34 c 0,6.627 -5.373,12 -12,12 v 0 z"
       style="fill:#e2e2e2;stroke:none;fill-opacity:1"
       transform="matrix(1.3333333,0,0,-1.3333333,0,341.33333)" /><path
       id="path13"
       d="M 229,50 H 29 c -6.628,0 -12,5.372 -12,12 v 0 -4 c 0,-6.627 5.372,-12 12,-12 v 0 h 200 c 6.627,0 12,5.373 12,12 v 0 4 c 0,-6.628 -5.373,-12 -12,-12"
       transform="matrix(1.3333333,0,0,-1.3333333,0,341.33333)"
       style="fill:url(#linearGradient13);stroke:none" /><path
       id="path15"
       d="m 116.459,194 -9.873,-7.402 C 102.605,183.613 97.764,182 92.789,182 v 0 H 87 29 c -6.628,0 -12,-5.372 -12,-12 v 0 -4 c 0,6.627 5.372,12 12,12 v 0 h 58 5.789 c 4.975,0 9.816,1.613 13.797,4.597 v 0 L 116.459,190 H 229 c 6.627,0 12,-5.372 12,-12 v 0 4 c 0,6.627 -5.373,12 -12,12 v 0 z"
       transform="matrix(1.3333333,0,0,-1.3333333,0,341.33333)"
       style="fill:url(#linearGradient21);stroke:none;fill-opacity:0.67843139" /><g
       id="g15"
       transform="matrix(4.6186391,0,0,4.6186391,-783.63545,33.362601)"><path
         class="cls-1"
         d="m 203.30005,17.877667 a 17,17 0 0 1 10.82,0.81 16.17,16.17 0 0 1 9.12,10.32 16.74,16.74 0 0 1 -0.2,9.41 c -4.84,0 -9.68,0 -14.51,0 a 3.13,3.13 0 0 1 -2.51,-0.78 2.69,2.69 0 0 1 0,-2 q 2.27,-6.84 4.54,-13.67 h -5.65 c -0.49,1.57 -1.07,3.11 -1.55,4.69 h -2.87 c 0.95,-2.9 1.91,-5.83 2.81,-8.78 z m 9.74,4.11 c -0.21,0.79 -0.46,1.56 -0.74,2.32 1.9,0 3.8,0 5.7,0 0.25,-0.78 0.52,-1.56 0.8,-2.34 -1.92,0 -3.84,-0.01 -5.76,0.02 z m -1.53,4.7 c -1,3.1 -2.07,6.19 -3,9.3 1.89,0 3.78,0 5.67,0 1,-3.1 2,-6.21 3,-9.31 -1.94,-0.01 -3.79,0 -5.67,0.01 z"
         id="path1-9" /><path
         class="cls-1"
         d="m 191.24005,31.337667 a 17,17 0 0 1 5.12,-9.72 c -1.52,4.81 -3.12,9.61 -4.66,14.38 h 5.7 c 0.74,-2.35 1.58,-4.67 2.3,-7 1,0 1.95,0 2.93,0 -1.5,4.36 -2.9,8.74 -4.39,13.1 a 7,7 0 0 0 -0.4,1.68 1.91,1.91 0 0 0 2.05,1.58 c 6.16,0 12.32,0 18.48,0 a 16.77,16.77 0 0 1 -18.67,2.06 16.21,16.21 0 0 1 -8.46,-12.4 z"
         id="path2-4" /></g></g></svg>
