<svg width="256" height="256" viewBox="0 0 256 256" fill="none" xmlns="http://www.w3.org/2000/svg">
<g clip-path="url(#clip0_1_38)">
<path d="M86.6709 34C93.5434 34 100.057 37.0729 104.426 42.3779L117.403 58.1367H229C235.627 58.1367 241 63.5095 241 70.1367V160C241 166.627 235.627 172 229 172H29C22.3726 172 17 166.627 17 160V46C17 39.3726 22.3726 34 29 34H86.6709Z" fill="#AB5921"/>
<mask id="mask0_1_38" style="mask-type:alpha" maskUnits="userSpaceOnUse" x="17" y="34" width="224" height="138">
<path d="M86.6709 34C93.5434 34 100.057 37.0729 104.426 42.3779L117.403 58.1367H229C235.627 58.1367 241 63.5095 241 70.1367V160C241 166.627 235.627 172 229 172H29C22.3726 172 17 166.627 17 160V46C17 39.3726 22.3726 34 29 34H86.6709Z" fill="url(#paint0_linear_1_38)"/>
</mask>
<g mask="url(#mask0_1_38)">
<g filter="url(#filter0_f_1_38)">
<path fill-rule="evenodd" clip-rule="evenodd" d="M241 74C241 67.3726 235.627 62 229 62H116.46L106.586 69.4023C102.605 72.3865 97.7649 73.9999 92.79 74H29C22.3726 74 17 79.3726 17 86V108L17 160C17 166.627 22.3726 172 29 172H229C235.627 172 241 166.627 241 160V108V74Z" fill="black" fill-opacity="0.3"/>
</g>
</g>
<g filter="url(#filter1_ii_1_38)">
<path d="M241 198C241 204.627 235.627 210 229 210H29C22.3726 210 17 204.627 17 198V86C17 79.3726 22.3726 74 29 74H92.7891C97.7642 74 102.605 72.3868 106.586 69.4023L116.459 62H229C235.627 62 241 67.3726 241 74V198Z" fill="url(#paint1_linear_1_38)"/>
</g>
<path d="M129.231 184C102.636 184 81 162.467 81 136C81 109.533 102.636 88 129.231 88C146.392 88 162.396 97.1906 170.999 111.985L150.125 124.006C145.82 116.6 137.813 112 129.231 112C115.933 112 105.116 122.766 105.116 136C105.116 149.233 115.933 160 129.231 160C137.814 160 145.821 155.4 150.127 147.993L171 160.013C162.398 174.809 146.393 184 129.231 184Z" fill="white"/>
<path d="M177 127.876H172V122H167V127.876H162V133.753H167V150H172V133.753H177V127.876Z" fill="white"/>
</g>
<defs>
<filter id="filter0_f_1_38" x="-20" y="25" width="298" height="184" filterUnits="userSpaceOnUse" color-interpolation-filters="sRGB">
<feFlood flood-opacity="0" result="BackgroundImageFix"/>
<feBlend mode="normal" in="SourceGraphic" in2="BackgroundImageFix" result="shape"/>
<feGaussianBlur stdDeviation="18.5" result="effect1_foregroundBlur_1_38"/>
</filter>
<filter id="filter1_ii_1_38" x="17" y="62" width="224" height="148" filterUnits="userSpaceOnUse" color-interpolation-filters="sRGB">
<feFlood flood-opacity="0" result="BackgroundImageFix"/>
<feBlend mode="normal" in="SourceGraphic" in2="BackgroundImageFix" result="shape"/>
<feColorMatrix in="SourceAlpha" type="matrix" values="0 0 0 0 0 0 0 0 0 0 0 0 0 0 0 0 0 0 127 0" result="hardAlpha"/>
<feOffset dy="4"/>
<feComposite in2="hardAlpha" operator="arithmetic" k2="-1" k3="1"/>
<feColorMatrix type="matrix" values="0 0 0 0 1 0 0 0 0 1 0 0 0 0 1 0 0 0 0.25 0"/>
<feBlend mode="normal" in2="shape" result="effect1_innerShadow_1_38"/>
<feColorMatrix in="SourceAlpha" type="matrix" values="0 0 0 0 0 0 0 0 0 0 0 0 0 0 0 0 0 0 127 0" result="hardAlpha"/>
<feOffset dy="-4"/>
<feComposite in2="hardAlpha" operator="arithmetic" k2="-1" k3="1"/>
<feColorMatrix type="matrix" values="0 0 0 0 0 0 0 0 0 0 0 0 0 0 0 0 0 0 0.9 0"/>
<feBlend mode="soft-light" in2="effect1_innerShadow_1_38" result="effect2_innerShadow_1_38"/>
</filter>
<linearGradient id="paint0_linear_1_38" x1="17" y1="34" x2="197.768" y2="215.142" gradientUnits="userSpaceOnUse">
<stop offset="1" stop-color="#0C575F"/>
</linearGradient>
<linearGradient id="paint1_linear_1_38" x1="17" y1="62" x2="241" y2="210" gradientUnits="userSpaceOnUse">
<stop stop-color="#D39A3F"/>
<stop offset="1" stop-color="#C37C2E"/>
</linearGradient>
<clipPath id="clip0_1_38">
<rect width="256" height="256" fill="white"/>
</clipPath>
</defs>
</svg>
