<svg width="256" height="256" viewBox="0 0 256 256" fill="none" xmlns="http://www.w3.org/2000/svg">
<path fill-rule="evenodd" clip-rule="evenodd" d="M104.425 42.3784C100.056 37.0733 93.5437 34 86.6712 34H29C22.3726 34 17 39.3726 17 46V58.1371V68.2V160C17 166.627 22.3726 172 29 172H229C235.627 172 241 166.627 241 160V70.1371C241 63.5097 235.627 58.1371 229 58.1371H117.404L104.425 42.3784Z" fill="#121229"/>
<mask id="mask0_2236_39507" style="mask-type:alpha" maskUnits="userSpaceOnUse" x="17" y="34" width="224" height="138">
<path fill-rule="evenodd" clip-rule="evenodd" d="M104.425 42.3784C100.056 37.0733 93.5437 34 86.6712 34H29C22.3726 34 17 39.3726 17 46V58.1371V68.2V160C17 166.627 22.3726 172 29 172H229C235.627 172 241 166.627 241 160V70.1371C241 63.5097 235.627 58.1371 229 58.1371H117.404L104.425 42.3784Z" fill="url(#paint0_linear_2236_39507)"/>
</mask>
<g mask="url(#mask0_2236_39507)">
<g style="mix-blend-mode:multiply" filter="url(#filter0_f_2236_39507)">
<path fill-rule="evenodd" clip-rule="evenodd" d="M92.789 74C97.7642 74 102.605 72.3868 106.586 69.4024L116.459 62H229C235.627 62 241 67.3726 241 74V108V160C241 166.627 235.627 172 229 172H29C22.3726 172 17 166.627 17 160L17 108V86C17 79.3726 22.3726 74 29 74H87H92.789Z" fill="black" fill-opacity="0.3"/>
</g>
</g>
<g filter="url(#filter1_ii_2236_39507)">
<path d="M92.789 74C97.7642 74 102.605 72.3868 106.586 69.4024L116.459 62H229C235.627 62 241 67.3726 241 74V198C241 204.627 235.627 210 229 210H29C22.3726 210 17 204.627 17 198L17 86C17 79.3726 22.3726 74 29 74H92.789Z" fill="url(#paint1_linear_2236_39507)"/>
</g>
<path d="M110.069 174.246L136.489 96.8805C136.584 96.6019 136.772 96.3637 137.022 96.205C137.272 96.0463 137.569 95.9765 137.865 96.007L148.82 97.1173C149.015 97.1364 149.204 97.1987 149.371 97.2996C149.539 97.4004 149.681 97.5372 149.788 97.7C149.895 97.8627 149.964 98.0472 149.989 98.2398C150.014 98.4323 149.995 98.628 149.934 98.8124L124.135 175.112C124.048 175.37 123.882 175.595 123.659 175.754C123.437 175.914 123.169 176 122.894 176L111.303 175.956C111.096 175.955 110.891 175.905 110.708 175.81C110.523 175.716 110.364 175.58 110.244 175.413C110.124 175.246 110.045 175.053 110.014 174.85C109.984 174.648 110.002 174.44 110.069 174.246Z" fill="#3D72D7"/>
<path d="M77.4641 138.571C76.5974 138.911 76.6023 139.238 77.4789 139.553C86.4272 142.788 95.0553 145.823 103.363 148.659C103.557 148.727 103.725 148.851 103.845 149.017C103.965 149.181 104.032 149.379 104.036 149.582C104.11 153.472 104.009 157.39 103.733 161.339C103.703 161.738 103.62 162.12 103.482 162.484C103.304 162.942 102.989 163.077 102.536 162.89L60.3038 145.365C60.2088 145.325 60.1287 145.255 60.0745 145.168C60.0203 145.081 59.9946 144.98 60.0009 144.878L60.5476 133.409C60.5542 133.27 60.6 133.134 60.6797 133.019C60.7594 132.905 60.8697 132.815 60.9982 132.759L102.292 115.065C102.396 115.02 102.507 114.998 102.62 115C102.733 115.002 102.844 115.029 102.947 115.078C103.049 115.126 103.141 115.197 103.215 115.283C103.289 115.37 103.345 115.472 103.378 115.582C103.6 116.335 103.738 117.073 103.792 117.797C104.063 121.49 104.137 125.17 104.013 128.838C104.009 128.945 103.973 129.048 103.909 129.135C103.846 129.221 103.759 129.288 103.659 129.325C95.6069 132.299 87.2988 135.312 78.7347 138.364C78.5229 138.438 78.3087 138.48 78.092 138.49C77.7768 138.505 77.5675 138.532 77.4641 138.571ZM180.662 138.446L154.298 129.244C154.246 129.227 154.202 129.195 154.17 129.151C154.138 129.107 154.12 129.054 154.12 129C154.047 125.357 154.061 121.647 154.165 117.871C154.185 117.044 154.322 116.274 154.578 115.56C154.672 115.313 154.844 115.225 155.096 115.294C155.933 115.525 156.716 115.791 157.445 116.091C170.825 121.595 184.193 127.127 197.549 132.685C197.835 132.804 197.978 133.018 197.978 133.328L198 144.93C197.999 145.07 197.958 145.207 197.88 145.323C197.804 145.441 197.693 145.532 197.564 145.587L155.524 162.942C155.413 162.988 155.293 163.007 155.173 162.998C155.053 162.99 154.937 162.954 154.835 162.892C154.732 162.831 154.646 162.748 154.581 162.647C154.518 162.547 154.479 162.432 154.468 162.314C154.03 157.907 153.919 153.58 154.135 149.331C154.144 149.2 154.191 149.075 154.269 148.972C154.348 148.867 154.456 148.79 154.578 148.748C163.685 145.681 172.384 142.559 180.677 139.384C181.529 139.059 181.524 138.746 180.662 138.446Z" fill="#F5F5F5"/>
<defs>
<filter id="filter0_f_2236_39507" x="-20" y="25" width="298" height="184" filterUnits="userSpaceOnUse" color-interpolation-filters="sRGB">
<feFlood flood-opacity="0" result="BackgroundImageFix"/>
<feBlend mode="normal" in="SourceGraphic" in2="BackgroundImageFix" result="shape"/>
<feGaussianBlur stdDeviation="18.5" result="effect1_foregroundBlur_2236_39507"/>
</filter>
<filter id="filter1_ii_2236_39507" x="17" y="62" width="224" height="148" filterUnits="userSpaceOnUse" color-interpolation-filters="sRGB">
<feFlood flood-opacity="0" result="BackgroundImageFix"/>
<feBlend mode="normal" in="SourceGraphic" in2="BackgroundImageFix" result="shape"/>
<feColorMatrix in="SourceAlpha" type="matrix" values="0 0 0 0 0 0 0 0 0 0 0 0 0 0 0 0 0 0 127 0" result="hardAlpha"/>
<feOffset dy="4"/>
<feComposite in2="hardAlpha" operator="arithmetic" k2="-1" k3="1"/>
<feColorMatrix type="matrix" values="0 0 0 0 1 0 0 0 0 1 0 0 0 0 1 0 0 0 0.25 0"/>
<feBlend mode="normal" in2="shape" result="effect1_innerShadow_2236_39507"/>
<feColorMatrix in="SourceAlpha" type="matrix" values="0 0 0 0 0 0 0 0 0 0 0 0 0 0 0 0 0 0 127 0" result="hardAlpha"/>
<feOffset dy="-4"/>
<feComposite in2="hardAlpha" operator="arithmetic" k2="-1" k3="1"/>
<feColorMatrix type="matrix" values="0 0 0 0 0 0 0 0 0 0 0 0 0 0 0 0 0 0 0.9 0"/>
<feBlend mode="soft-light" in2="effect1_innerShadow_2236_39507" result="effect2_innerShadow_2236_39507"/>
</filter>
<linearGradient id="paint0_linear_2236_39507" x1="17" y1="34" x2="197.768" y2="215.142" gradientUnits="userSpaceOnUse">
<stop stop-color="#05815D"/>
<stop offset="1" stop-color="#0C575F"/>
</linearGradient>
<linearGradient id="paint1_linear_2236_39507" x1="17" y1="62" x2="241" y2="210" gradientUnits="userSpaceOnUse">
<stop stop-color="#27434B"/>
<stop offset="1" stop-color="#111028"/>
</linearGradient>
</defs>
</svg>
