<?xml version="1.0" encoding="UTF-8"?>
<svg version="1.1" xmlns="http://www.w3.org/2000/svg" width="256" height="256">
<path d="M0 0 C1.76729713 0.02046135 1.76729713 0.02046135 3.57029724 0.04133606 C4.82979691 0.06209702 6.08929657 0.08285797 7.38696289 0.10424805 C8.69363419 0.12311569 10.00030548 0.14198334 11.34657288 0.16142273 C14.10612366 0.20227388 16.86556367 0.24747018 19.625 0.29541016 C23.14623456 0.35597917 26.6675032 0.40292819 30.18898678 0.44624043 C33.56762806 0.49028054 36.9460015 0.54808498 40.32446289 0.60424805 C41.58193832 0.61893631 42.83941376 0.63362457 44.13499451 0.64875793 C58.35833694 0.92684817 58.35833694 0.92684817 63.12133789 4.87768555 C65.68865268 7.97962554 68.17056351 11.13443898 70.62915039 14.32299805 C71.76416992 15.67458008 71.76416992 15.67458008 72.92211914 17.0534668 C73.6019893 17.93180601 73.6019893 17.93180601 74.29559422 18.82788944 C76.70949199 21.64111005 78.64821171 23.72678495 82.30933952 24.66564751 C85.15757248 24.8571129 87.92653756 24.82881994 90.77929688 24.72119141 C91.85011505 24.70936325 92.92093323 24.6975351 94.02420044 24.68534851 C96.34120434 24.65544299 98.65804468 24.60943057 100.97445488 24.5490551 C104.64463008 24.45481122 108.31297825 24.40563133 111.98414612 24.36830139 C121.09890242 24.26686702 130.21196189 24.09324495 139.32543945 23.91217041 C147.03136408 23.7607216 154.73640014 23.6414183 162.44346809 23.56701851 C166.05425989 23.51899487 169.66182869 23.42350602 173.27159119 23.3266449 C175.49288265 23.30077055 177.71420274 23.27721519 179.93554688 23.25634766 C181.43280556 23.19670837 181.43280556 23.19670837 182.96031189 23.13586426 C188.17243211 23.14077722 191.49511184 23.86502991 195.54804993 27.26072693 C200.3291311 32.78465434 200.01968428 38.52155506 199.89379883 45.53442383 C199.89809726 46.88547229 199.90586264 48.23651346 199.91680908 49.58752441 C199.93610172 53.23683521 199.90571876 56.8841716 199.86499691 60.53324366 C199.82970851 64.36075023 199.83690782 68.18820251 199.83843994 72.01583862 C199.8347011 78.44001061 199.80006931 84.86342393 199.74536133 91.28735352 C199.68241274 98.70616113 199.66137112 106.12413948 199.66430354 113.54319489 C199.66700856 121.45672164 199.63923298 129.36993036 199.60251713 137.28336096 C199.59400725 139.55777674 199.59115457 141.83214096 199.58956146 144.1065712 C199.58553291 147.68394372 199.56102923 151.26062463 199.52089691 154.83776855 C199.5037085 156.77115796 199.50587707 158.70468928 199.50866699 160.63815308 C199.34737901 171.58459866 199.34737901 171.58459866 194.92211914 176.0534668 C190.6261677 178.32523528 186.47993243 178.3426463 181.73048401 178.32762146 C180.90965126 178.33285814 180.0888185 178.33809482 179.24311203 178.34349018 C176.49487032 178.35848234 173.74681493 178.35919516 170.99853516 178.35986328 C169.02725918 178.36748516 167.05598617 178.37591271 165.0847168 178.38508606 C159.73146922 178.40703199 154.37827876 178.41582982 149.02499127 178.4209125 C145.68091418 178.42455522 142.33685207 178.43079477 138.99278069 178.43791389 C127.32786272 178.46240637 115.66298924 178.47546036 103.99804688 178.47900391 C93.1217304 178.48264151 82.24569572 178.51255363 71.36946541 178.55440849 C62.03260788 178.58908094 52.69584391 178.6045518 43.35892242 178.60524994 C37.78184828 178.60604363 32.20506133 178.61482526 26.62805367 178.6432476 C21.38386821 178.66937671 16.14020916 178.67166218 10.89598846 178.65559196 C8.97148684 178.65377351 7.04695529 178.6605038 5.12251854 178.67641068 C2.49463263 178.69680789 -0.13140035 178.68635782 -2.75926208 178.66819763 C-3.90105153 178.68799758 -3.90105153 178.68799758 -5.06590742 178.70819753 C-10.83758691 178.61711864 -13.18248287 177.01626475 -17.07788086 173.0534668 C-18.48582302 170.23758248 -18.22539658 167.87850388 -18.2495575 164.72769165 C-18.2559066 164.07135313 -18.26225571 163.41501462 -18.26879722 162.73878706 C-18.28891126 160.52940235 -18.30191713 158.32003277 -18.31494141 156.1105957 C-18.32778988 154.53060077 -18.34104415 152.9506091 -18.35467529 151.37062073 C-18.39033744 147.07104755 -18.41954314 142.77145347 -18.44706702 138.47182131 C-18.46455251 135.78725975 -18.48343111 133.10271177 -18.50281715 130.4181633 C-18.57039985 121.05736823 -18.63280979 111.69655492 -18.69042969 102.33569336 C-18.74431928 93.60264325 -18.80941823 84.86972536 -18.87976807 76.13679373 C-18.9396255 68.64549968 -18.99169832 61.1541778 -19.03769523 53.66278589 C-19.0653157 49.18573853 -19.09610749 44.70876738 -19.13471031 40.23180008 C-19.17074518 36.02120145 -19.19710655 31.81065257 -19.21598816 27.59994316 C-19.22457201 26.05354287 -19.23662301 24.50715741 -19.25237465 22.96081352 C-19.27332214 20.85154004 -19.2818162 18.74257158 -19.28715515 16.63320923 C-19.29507426 15.45222467 -19.30299337 14.27124012 -19.31115246 13.05446815 C-18.97043426 8.67118364 -17.61943017 6.70031736 -14.82788086 3.3659668 C-10.39941427 -0.35797102 -5.60690975 -0.07584784 0 0 Z " fill="#F7F6F6" transform="translate(33.077880859375,64.946533203125)"/>
<path d="M0 0 C1.76729713 0.02046135 1.76729713 0.02046135 3.57029724 0.04133606 C4.82979691 0.06209702 6.08929657 0.08285797 7.38696289 0.10424805 C8.69363419 0.12311569 10.00030548 0.14198334 11.34657288 0.16142273 C14.10612366 0.20227388 16.86556367 0.24747018 19.625 0.29541016 C23.14623456 0.35597917 26.6675032 0.40292819 30.18898678 0.44624043 C33.56762806 0.49028054 36.9460015 0.54808498 40.32446289 0.60424805 C41.58193832 0.61893631 42.83941376 0.63362457 44.13499451 0.64875793 C58.35833694 0.92684817 58.35833694 0.92684817 63.12133789 4.87768555 C65.68865268 7.97962554 68.17056351 11.13443898 70.62915039 14.32299805 C71.76416992 15.67458008 71.76416992 15.67458008 72.92211914 17.0534668 C73.6019893 17.93180601 73.6019893 17.93180601 74.29559422 18.82788944 C76.70949199 21.64111005 78.64821171 23.72678495 82.30933952 24.66564751 C85.15757248 24.8571129 87.92653756 24.82881994 90.77929688 24.72119141 C91.85011505 24.70936325 92.92093323 24.6975351 94.02420044 24.68534851 C96.34120434 24.65544299 98.65804468 24.60943057 100.97445488 24.5490551 C104.64463008 24.45481122 108.31297825 24.40563133 111.98414612 24.36830139 C121.09890242 24.26686702 130.21196189 24.09324495 139.32543945 23.91217041 C147.03136408 23.7607216 154.73640014 23.6414183 162.44346809 23.56701851 C166.05425989 23.51899487 169.66182869 23.42350602 173.27159119 23.3266449 C175.49288265 23.30077055 177.71420274 23.27721519 179.93554688 23.25634766 C181.43280556 23.19670837 181.43280556 23.19670837 182.96031189 23.13586426 C188.56249714 23.1411449 191.46667457 23.95411879 195.57752991 27.88453674 C198.17123413 30.71069219 198.86600534 31.66067022 199.42211914 35.5534668 C199.25711914 36.3784668 199.09211914 37.2034668 198.92211914 38.0534668 C198.30336914 37.1872168 198.30336914 37.1872168 197.67211914 36.3034668 C195.03256789 32.90975805 193.05838463 30.43222196 188.92211914 29.0534668 C187.42219032 28.94835421 185.91816039 28.89711261 184.41465759 28.87937927 C183.4910141 28.86644333 182.56737061 28.85350739 181.61573792 28.84017944 C180.09858437 28.82671982 180.09858437 28.82671982 178.55078125 28.81298828 C176.95024902 28.79349373 176.95024902 28.79349373 175.31738281 28.77360535 C164.15229315 28.64682094 152.98644848 28.59013303 141.82080078 28.53857422 C136.52545407 28.51183825 131.23100847 28.46311761 125.93603516 28.39501953 C119.53932968 28.31296422 113.14348198 28.27037278 106.74627876 28.25551033 C104.31223322 28.24327997 101.8782152 28.21728799 99.44447136 28.17706108 C84.80809724 27.27474325 84.80809724 27.27474325 71.91259766 32.85449219 C70.56985225 34.24208081 69.23827942 35.64063648 67.92211914 37.0534668 C61.05238585 41.8313121 53.41572852 41.61565602 45.34485626 41.56988716 C43.08241672 41.55713159 40.82117474 41.5686565 38.55877686 41.58592224 C34.57571175 41.61247555 30.59294629 41.61822306 26.60980225 41.61682129 C20.22190308 41.61458211 13.83437195 41.62877193 7.44661713 41.67240715 C5.22350958 41.68221525 3.00098816 41.67354879 0.77789307 41.66371155 C-0.58777243 41.66985626 -1.95343476 41.67676817 -3.3190918 41.68457031 C-4.50662048 41.68360855 -5.69414917 41.68264679 -6.91766357 41.68165588 C-10.41829439 42.09351767 -12.28884135 42.92913274 -15.07788086 45.0534668 C-16.42478001 47.62446082 -16.42478001 47.62446082 -17.07788086 50.0534668 C-17.40788086 50.0534668 -17.73788086 50.0534668 -18.07788086 50.0534668 C-18.27038754 44.43044552 -18.44907164 38.80721835 -18.61499023 33.18334961 C-18.67336908 31.27046958 -18.73551577 29.35770067 -18.80151367 27.44506836 C-18.89575453 24.69494863 -18.9764131 21.94471332 -19.05444336 19.1940918 C-19.10273788 17.91263275 -19.10273788 17.91263275 -19.15200806 16.60528564 C-19.17217987 15.80475769 -19.19235168 15.00422974 -19.21313477 14.17944336 C-19.23534088 13.4777301 -19.257547 12.77601685 -19.28042603 12.05303955 C-18.78651471 7.17703275 -15.70604805 4.10442557 -12.07788086 1.0534668 C-8.01565149 0.12056845 -4.15585147 -0.05621855 0 0 Z " fill="#E04919" transform="translate(33.077880859375,64.946533203125)"/>
<path d="M0 0 C4.94385608 15.74354169 7.18704274 29.55359187 7.18530273 46.04882812 C7.18748911 48.36346853 7.20570602 50.67763092 7.22460938 52.9921875 C7.25578154 61.52788032 6.80231607 69.61233758 5 78 C4.34 78 3.68 78 3 78 C1.63061523 76.09838867 1.63061523 76.09838867 0.05859375 73.41796875 C-0.52116211 72.43175537 -1.10091797 71.44554199 -1.69824219 70.42944336 C-2.31344727 69.35960205 -2.92865234 68.28976074 -3.5625 67.1875 C-4.18930664 66.10412354 -4.81611328 65.02074707 -5.46191406 63.90454102 C-9.2983347 57.19277532 -12.93606146 50.42247949 -16.25 43.4375 C-16.60779541 42.68428467 -16.96559082 41.93106934 -17.33422852 41.1550293 C-20.55326466 34.1626597 -22.36023754 27.69517161 -22.375 19.9375 C-22.39949219 19.25623047 -22.42398438 18.57496094 -22.44921875 17.87304688 C-22.47873663 12.7516947 -21.21139693 9.9282266 -18 6 C-12.75716985 1.06838807 -7.16743327 -1.66516126 0 0 Z " fill="#BC1B13" transform="translate(115,111)"/>
<path d="M0 0 C6.41776284 -1.04779801 10.91724893 1.35450625 16 5 C19.87612791 8.59138865 21.65258739 11.90745828 22.23828125 17.12109375 C22.94237447 39.09621369 6.52242362 60.46297443 -5 78 C-5.66 77.67 -6.32 77.34 -7 77 C-8.33380186 72.59479744 -8.16148818 68.03453876 -8.16796875 63.47265625 C-8.17129715 62.64728867 -8.17462555 61.82192108 -8.17805481 60.97154236 C-8.18310824 59.22411656 -8.18546363 57.47668115 -8.18530273 55.72924805 C-8.18746702 53.10253139 -8.20557753 50.47625058 -8.22460938 47.84960938 C-8.26858207 35.01026683 -7.2560313 22.7897137 -4 10.3125 C-3.835 9.63767578 -3.67 8.96285156 -3.5 8.26757812 C-2.6796746 5.04075125 -1.86789676 2.80184514 0 0 Z " fill="#D85044" transform="translate(135,111)"/>
<path d="M0 0 C6.38363921 4.7339347 9.50380038 9.51140115 12 17 C12.8224949 23.71704168 10.65477047 28.51350371 7 34 C-2.18642176 44.73469509 -16.77115888 51.88004026 -28.9375 58.6875 C-29.71279053 59.12175293 -30.48808105 59.55600586 -31.28686523 60.00341797 C-36.74470686 63 -36.74470686 63 -39 63 C-37.35111266 56.97753952 -34.31647431 51.82689723 -31.25 46.4375 C-30.39088013 44.92470459 -30.39088013 44.92470459 -29.5144043 43.38134766 C-20.76799035 28.18102712 -11.00004048 13.6613406 0 0 Z " fill="#B6140D" transform="translate(174,131)"/>
<path d="M0 0 C2.59125263 0.35818611 3.74990146 0.72508252 5.53515625 2.6875 C6.03917969 3.450625 6.54320313 4.21375 7.0625 5 C7.66835937 5.91136719 8.27421875 6.82273438 8.8984375 7.76171875 C9.59195313 8.83035156 10.28546875 9.89898437 11 11 C11.82462895 12.23627246 12.65020165 13.47191577 13.4765625 14.70703125 C23.46360852 29.75710719 32.95086725 45.33560283 40 62 C36.26218858 61.41905955 33.52264391 60.38286819 30.26171875 58.48046875 C29.36638428 57.95855957 28.4710498 57.43665039 27.54858398 56.89892578 C26.60442627 56.33415527 25.66026855 55.76938477 24.6875 55.1875 C23.71433838 54.60726074 22.74117676 54.02702148 21.73852539 53.42919922 C15.62810927 49.72892752 9.6838926 45.86989152 3.9375 41.625 C3.30223389 41.16246826 2.66696777 40.69993652 2.01245117 40.22338867 C-4.21241785 35.47294197 -8.61328302 29.9042868 -10 22 C-9.71255255 12.94540534 -5.95844848 6.62049832 0 0 Z " fill="#A60E08" transform="translate(73,131)"/>
<path d="M0 0 C0.66944169 9.03746281 -2.27316296 17.1560337 -8.14746094 24.11645508 C-13.3924786 29.44925836 -19.30549598 31.24382773 -26.63302612 31.47117615 C-30.79995424 31.50042004 -34.95961713 31.41766639 -39.125 31.3125 C-40.86194693 31.28737619 -42.59892901 31.26457025 -44.3359375 31.24414062 C-48.55817149 31.18948978 -52.77869123 31.10344785 -57 31 C-53.33653878 28.02375197 -49.61796751 25.40716996 -45.5625 23 C-44.61262207 22.43285278 -44.61262207 22.43285278 -43.64355469 21.85424805 C-35.13232108 16.82754009 -26.42267549 12.14656345 -17.71289062 7.47509766 C-15.80470618 6.43754812 -13.90848719 5.3778377 -12.02148438 4.30224609 C-11.05017578 3.75262207 -10.07886719 3.20299805 -9.078125 2.63671875 C-8.2005957 2.13229248 -7.32306641 1.62786621 -6.41894531 1.1081543 C-4 0 -4 0 0 0 Z " fill="#A00B06" transform="translate(196,169)"/>
<path d="M0 0 C3.83404835 1.43234259 7.29062018 3.20394594 10.83984375 5.23828125 C11.97583008 5.88780762 13.11181641 6.53733398 14.28222656 7.20654297 C15.50083592 7.90820766 16.71925664 8.61020006 17.9375 9.3125 C19.18585603 10.03013914 20.43422859 10.74774955 21.68261719 11.46533203 C24.84660264 13.28603391 28.00722399 15.11249871 31.16693115 16.94061279 C32.93112729 17.96019633 34.69721582 18.97650328 36.46337891 19.99267578 C39.56385198 21.77844102 42.65803226 23.57455816 45.75 25.375 C46.689646 25.91552002 47.62929199 26.45604004 48.59741211 27.01293945 C49.44698486 27.51140381 50.29655762 28.00986816 51.171875 28.5234375 C51.9153418 28.95575684 52.65880859 29.38807617 53.42480469 29.83349609 C53.94461914 30.21844238 54.46443359 30.60338867 55 31 C55 31.66 55 32.32 55 33 C50.32273411 33.09968761 45.64610125 33.17184934 40.96801758 33.21972656 C39.38034274 33.23970745 37.79274021 33.26690203 36.20532227 33.30175781 C19.30381487 33.66328738 19.30381487 33.66328738 12 29 C10.948125 28.34 9.89625 27.68 8.8125 27 C3.68473234 22.30313718 0.36891065 15.39320942 -0.375 8.55078125 C-0.375 5.6737118 -0.27411483 2.86297713 0 0 Z " fill="#990B07" transform="translate(53,167)"/>
<path d="M0 0 C0.75 1.6875 0.75 1.6875 1 4 C-1.86277463 8.55923367 -1.86277463 8.55923367 -4.63922882 9.63533306 C-8.11591234 10.17237432 -11.57600556 10.14801366 -15.08483887 10.14717102 C-16.31692306 10.15268605 -16.31692306 10.15268605 -17.57389784 10.1583125 C-20.32987051 10.16933741 -23.08580546 10.17319108 -25.84179688 10.17700195 C-27.81616841 10.18326726 -29.79053877 10.18991412 -31.76490784 10.19691467 C-37.13046681 10.21431223 -42.49601689 10.224872 -47.86159706 10.2331202 C-51.2118457 10.23827064 -54.56209157 10.2443462 -57.91233826 10.25063133 C-68.38922222 10.2696758 -78.86609914 10.28391125 -89.34299707 10.2922433 C-101.44774785 10.3020286 -113.5523164 10.32838493 -125.65700293 10.36874419 C-135.00823802 10.39885675 -144.35942071 10.41370735 -153.71070337 10.41702431 C-159.29887127 10.41937938 -164.88684431 10.42839983 -170.47496033 10.45348549 C-175.72808658 10.47668771 -180.98088854 10.48103118 -186.23405266 10.47072411 C-188.16423048 10.4702268 -190.09442386 10.47660427 -192.0245533 10.49028015 C-194.65514921 10.50787996 -197.28456603 10.50095243 -199.91516113 10.48774719 C-200.6828619 10.49871644 -201.45056266 10.50968568 -202.24152708 10.52098733 C-205.85672057 10.47702623 -207.65179644 10.28221017 -210.50530243 7.9695158 C-210.99855263 7.31957559 -211.49180283 6.66963537 -212 6 C-211.01 5.67 -210.02 5.34 -209 5 C-208.34 5.33 -207.68 5.66 -207 6 C-205.61528721 6.09383113 -204.22616017 6.12629561 -202.83827209 6.12698364 C-201.96277395 6.12980661 -201.08727581 6.13262959 -200.18524742 6.1355381 C-199.21927446 6.13351072 -198.25330151 6.13148335 -197.25805664 6.12939453 C-196.23860773 6.13111853 -195.21915882 6.13284252 -194.16881752 6.13461876 C-190.7492479 6.13899051 -187.32972661 6.13599954 -183.91015625 6.1328125 C-181.49143965 6.13391224 -179.07272318 6.13534298 -176.65400696 6.13708496 C-170.13983094 6.14000536 -163.62567567 6.13571836 -157.1115036 6.12897491 C-153.74958347 6.1255059 -150.38766391 6.12322405 -147.02574253 6.12139618 C-112.36325271 6.10252556 -77.70105269 6.01973909 -43.04026413 5.6521225 C-40.37493339 5.62499932 -37.70959157 5.60139622 -35.04421997 5.57867432 C-30.91651351 5.54276239 -26.78904968 5.49677048 -22.66155052 5.44206238 C-21.1751687 5.42367244 -19.68874401 5.40842643 -18.2022953 5.3966217 C-16.20165977 5.37992423 -14.20114987 5.34976722 -12.20068359 5.31884766 C-10.53614639 5.29886215 -10.53614639 5.29886215 -8.83798218 5.2784729 C-5.98931814 4.99895186 -4.36109512 4.58665692 -2 3 C-1.34 2.01 -0.68 1.02 0 0 Z " fill="#EAEAEB" transform="translate(230,233)"/>
<path d="M0 0 C0.60575363 0.65325256 1.21150726 1.30650513 1.83561707 1.97955322 C6.41895092 4.90599491 10.30516458 4.46960098 15.63012695 4.32714844 C17.23591614 4.30874908 17.23591614 4.30874908 18.87414551 4.28997803 C21.19651071 4.2613865 23.51877903 4.22384091 25.84087563 4.17839813 C29.5190789 4.10879219 33.19658617 4.06762959 36.87528992 4.034729 C47.33313903 3.93695406 57.79005099 3.79478291 68.24682617 3.61621094 C74.64564502 3.50892947 81.04392117 3.44085781 87.44347191 3.39673615 C89.87926469 3.37193812 92.31495279 3.33196639 94.75023842 3.27642059 C98.16141716 3.19931904 101.56975515 3.17194631 104.98168945 3.15527344 C105.983004 3.12022705 106.98431854 3.08518066 108.01597595 3.04907227 C113.62177528 3.0802574 116.54402892 3.90120053 120.65739441 7.83404541 C123.25074645 10.65933884 123.94397672 11.60783702 124.5 15.5 C124.335 16.325 124.17 17.15 124 18 C123.5875 17.4225 123.175 16.845 122.75 16.25 C120.11044875 12.85629125 118.13626549 10.37875516 114 9 C112.45182673 8.9107274 110.90006351 8.87802435 109.34931946 8.87974548 C108.39439606 8.87837082 107.43947266 8.87699615 106.45561218 8.87557983 C105.40976456 8.87917511 104.36391693 8.88277039 103.28637695 8.88647461 C102.1837854 8.88632858 101.08119385 8.88618256 99.94519043 8.8860321 C96.29286751 8.88672998 92.64059529 8.89451656 88.98828125 8.90234375 C86.4590813 8.90420837 83.92988098 8.90563207 81.40068054 8.90663147 C75.41901338 8.91006232 69.43736805 8.91794756 63.45570964 8.92798096 C56.64561498 8.93915613 49.83551946 8.94465609 43.02541792 8.94967639 C29.01693517 8.96013054 15.00846858 8.97772125 1 9 C1.33 8.34 1.66 7.68 2 7 C2.66 7 3.32 7 4 7 C3.01 5.824375 3.01 5.824375 2 4.625 C0 2 0 2 0 0 Z " fill="#D23804" transform="translate(108,85)"/>
<path d="M0 0 C12.8539779 -0.23105878 25.28663202 -0.03996736 38 2 C35.71968378 6.88194973 32.64703503 9.92584672 28.125 12.875 C23.03691521 14.70671052 19.21942863 13.56545553 14.39453125 11.328125 C13.19375814 10.64720677 11.9997103 9.95429924 10.8125 9.25 C10.20986328 8.91484375 9.60722656 8.5796875 8.98632812 8.234375 C5.13030027 5.99948729 2.56117457 3.63521551 0 0 Z " fill="#9D0C0A" transform="translate(142,205)"/>
<path d="M0 0 C0.75 1.6875 0.75 1.6875 1 4 C-1.89392053 8.60883639 -1.89392053 8.60883639 -4.80126572 9.63701534 C-7.39933489 10.0659254 -9.85776225 10.12275878 -12.49224854 10.12025452 C-13.60841553 10.12162918 -14.72458252 10.12300385 -15.87457275 10.12442017 C-17.09448914 10.12082489 -18.31440552 10.11722961 -19.57128906 10.11352539 C-21.50337219 10.11374443 -21.50337219 10.11374443 -23.4744873 10.1139679 C-27.00307749 10.11425477 -30.53163367 10.10837583 -34.06021595 10.10139394 C-37.74910624 10.09514207 -41.43799732 10.09455515 -45.12689209 10.09336853 C-52.11079515 10.09026063 -59.09468255 10.08205451 -66.07857871 10.07201904 C-74.03015042 10.06084113 -81.98172288 10.05534322 -89.9333005 10.05032361 C-106.28887616 10.03987146 -122.64443608 10.02228247 -139 10 C-139 9.67 -139 9.34 -139 9 C-138.33823257 8.98969254 -137.67646515 8.97938507 -136.99464417 8.96876526 C-130.13328687 8.86094051 -123.27206734 8.74632391 -116.41088867 8.62768555 C-113.84711579 8.58425934 -111.28331254 8.54259015 -108.71948242 8.50268555 C-105.04336372 8.44516853 -101.36739901 8.38142137 -97.69140625 8.31640625 C-96.53725723 8.29969376 -95.38310822 8.28298126 -94.19398499 8.26576233 C-93.13296066 8.24581711 -92.07193634 8.22587189 -90.97875977 8.20532227 C-89.56978172 8.18200584 -89.56978172 8.18200584 -88.13233948 8.15821838 C-86.01693335 8.23454841 -86.01693335 8.23454841 -85 7 C-82.59299508 6.89098945 -80.21362442 6.84578127 -77.80566406 6.84228516 C-77.052771 6.83720444 -76.29987793 6.83212372 -75.52416992 6.82688904 C-73.88339667 6.81616169 -72.24260857 6.80755085 -70.60181427 6.80076981 C-68.00430075 6.78901124 -65.4069558 6.76956511 -62.80950928 6.74765015 C-55.42221699 6.68594124 -48.03493966 6.63202164 -40.64746094 6.59863281 C-36.1333632 6.57767807 -31.61956866 6.54236348 -27.10564423 6.49787521 C-25.38492149 6.48371575 -23.66414507 6.47499289 -21.943367 6.47182083 C-19.53256073 6.46690788 -17.12255706 6.44373929 -14.71191406 6.41650391 C-14.00210388 6.41951004 -13.2922937 6.42251617 -12.56097412 6.4256134 C-8.21003992 6.35267626 -5.45313399 5.67720905 -2 3 C-1.34 2.01 -0.68 1.02 0 0 Z " fill="#D7D7D8" transform="translate(230,233)"/>
<path d="M0 0 C1.40429527 0.00502634 2.8085923 0.00958724 4.21289062 0.01367188 C7.62113903 0.02538407 11.0292964 0.04178628 14.4375 0.0625 C11.2615063 3.30366774 8.36459353 5.9612408 4.4375 8.25 C3.6125 8.73855469 2.7875 9.22710937 1.9375 9.73046875 C-3.03128717 12.37790067 -6.86759307 13.83469077 -12.5625 13.0625 C-17.45108866 10.32525654 -21.39122689 6.68727328 -24.5625 2.0625 C-24.5625 1.7325 -24.5625 1.4025 -24.5625 1.0625 C-16.37603269 -0.08886362 -8.24740646 -0.05164983 0 0 Z " fill="#990C0A" transform="translate(91.5625,204.9375)"/>
<path d="M0 0 C1.12588014 0.95729916 2.2506715 1.91587895 3.375 2.875 C4.00148438 3.40867187 4.62796875 3.94234375 5.2734375 4.4921875 C6.55836651 5.61432007 7.79371975 6.79371975 9 8 C9.125 11.125 9.125 11.125 9 14 C8.5875 13.4225 8.175 12.845 7.75 12.25 C5.11044875 8.85629125 3.13626549 6.37875516 -1 5 C-2.54817327 4.9107274 -4.09993649 4.87802435 -5.65068054 4.87974548 C-6.60560394 4.87837082 -7.56052734 4.87699615 -8.54438782 4.87557983 C-9.59023544 4.87917511 -10.63608307 4.88277039 -11.71362305 4.88647461 C-12.8162146 4.88632858 -13.91880615 4.88618256 -15.05480957 4.8860321 C-18.70713249 4.88672998 -22.35940471 4.89451656 -26.01171875 4.90234375 C-28.5409187 4.90420837 -31.07011902 4.90563207 -33.59931946 4.90663147 C-39.58098662 4.91006232 -45.56263195 4.91794756 -51.54429036 4.92798096 C-58.35438502 4.93915613 -65.16448054 4.94465609 -71.97458208 4.94967639 C-85.98306483 4.96013054 -99.99153142 4.97772125 -114 5 C-113.67 4.34 -113.34 3.68 -113 3 C-112.16289553 2.99503478 -112.16289553 2.99503478 -111.30887985 2.98996925 C-97.72974486 2.90874852 -84.15072285 2.81653385 -70.57174301 2.71247292 C-64.00504426 2.66248272 -57.43836182 2.6161528 -50.87158203 2.578125 C-44.53675356 2.54130679 -38.20206059 2.49495606 -31.86734772 2.44193649 C-29.44801455 2.42337415 -27.02865231 2.40827304 -24.60927582 2.39665604 C-21.22602907 2.37982529 -17.84309391 2.35079739 -14.45996094 2.31884766 C-12.95268684 2.31560738 -12.95268684 2.31560738 -11.41496277 2.31230164 C-10.0310006 2.29555641 -10.0310006 2.29555641 -8.61907959 2.2784729 C-7.41890512 2.27017676 -7.41890512 2.27017676 -6.19448471 2.26171303 C-3.75868207 1.97122056 -2.11481532 1.21428082 0 0 Z " fill="#BA3909" transform="translate(223,89)"/>
<path d="M0 0 C0.99 0.99 1.98 1.98 3 3 C1.9171875 4.0209375 1.9171875 4.0209375 0.8125 5.0625 C-2.82241975 8.7076302 -5.61385985 12.85708139 -8.40234375 17.16796875 C-11.8759344 22.52116813 -15.67683745 27.30591521 -20 32 C-20.66 31.67 -21.32 31.34 -22 31 C-15.05117237 20.34285187 -7.94140684 9.94432803 0 0 Z " fill="#CD4244" transform="translate(174,131)"/>
<path d="M0 0 C2.475 0.495 2.475 0.495 5 1 C11.34045226 21.19095477 11.34045226 21.19095477 11 28 C10.34 28.33 9.68 28.66 9 29 C6.39981184 25.09971775 6.84914486 21.52565431 7 17 C6.34 17.33 5.68 17.66 5 18 C4.90912109 16.96939453 4.90912109 16.96939453 4.81640625 15.91796875 C4.73261719 15.01691406 4.64882812 14.11585937 4.5625 13.1875 C4.48128906 12.29417969 4.40007812 11.40085937 4.31640625 10.48046875 C4.06510233 7.87256441 4.06510233 7.87256441 3 5 C3 3.68 3 2.36 3 1 C2.01 0.67 1.02 0.34 0 0 Z " fill="#D8625E" transform="translate(110,110)"/>
<path d="M0 0 C0.33 0 0.66 0 1 0 C1.92808938 8.25026468 2.1230629 16.3903828 2.0625 24.6875 C2.05798828 25.87794922 2.05347656 27.06839844 2.04882812 28.29492188 C2.03717452 31.19666936 2.02081559 34.09830626 2 37 C2.66 37 3.32 37 4 37 C3.67 38.32 3.34 39.64 3 41 C2.34 40.67 1.68 40.34 1 40 C-0.29566295 35.70105679 -0.12868832 31.30334857 -0.09765625 26.85546875 C-0.09553383 25.7007885 -0.09553383 25.7007885 -0.09336853 24.52278137 C-0.08779606 22.07764712 -0.07524871 19.63260632 -0.0625 17.1875 C-0.05748144 15.52408987 -0.05291915 13.8606783 -0.04882812 12.19726562 C-0.03783566 8.13147472 -0.0205901 4.06575317 0 0 Z " fill="#BA0E0F" transform="translate(127,148)"/>
<path d="M0 0 C1.32 0.33 2.64 0.66 4 1 C2.59310776 2.96604172 1.17534751 4.92240796 -0.25 6.875 C-0.64574219 7.43058594 -1.04148438 7.98617187 -1.44921875 8.55859375 C-3.66678625 11.57593969 -5.43056157 13.70648791 -9 15 C-6.20274084 9.8411204 -3.341475 4.82657501 0 0 Z " fill="#CD3839" transform="translate(161,148)"/>
<path d="M0 0 C0.87785156 0.82564453 0.87785156 0.82564453 1.7734375 1.66796875 C2.36382812 2.21066406 2.95421875 2.75335938 3.5625 3.3125 C7.14618225 6.79908741 7.14618225 6.79908741 7.2734375 9.98046875 C7.2321875 10.92921875 7.1909375 11.87796875 7.1484375 12.85546875 C6.7359375 12.27796875 6.3234375 11.70046875 5.8984375 11.10546875 C3.25888625 7.71176 1.28470299 5.23422391 -2.8515625 3.85546875 C-2.8515625 3.19546875 -2.8515625 2.53546875 -2.8515625 1.85546875 C-3.8415625 1.19546875 -4.8315625 0.53546875 -5.8515625 -0.14453125 C-3.31949126 -1.1093954 -2.36705352 -1.46317865 0 0 Z " fill="#C6532A" transform="translate(224.8515625,90.14453125)"/>
<path d="M0 0 C0.75 1.6875 0.75 1.6875 1 4 C-0.9375 6.75 -0.9375 6.75 -3 9 C-4.65 8.67 -6.3 8.34 -8 8 C-5.33333333 5.33333333 -2.66666667 2.66666667 0 0 Z " fill="#C6C8C9" transform="translate(230,233)"/>
<path d="M0 0 C2.4375 0.375 2.4375 0.375 5 1 C6.32336149 3.64672298 6.41270467 5.99326431 6.6875 8.9375 C6.79449219 9.99839844 6.90148437 11.05929688 7.01171875 12.15234375 C7 15 7 15 5 18 C4.90912109 16.96939453 4.90912109 16.96939453 4.81640625 15.91796875 C4.73261719 15.01691406 4.64882812 14.11585937 4.5625 13.1875 C4.48128906 12.29417969 4.40007812 11.40085937 4.31640625 10.48046875 C4.06510233 7.87256441 4.06510233 7.87256441 3 5 C3 3.68 3 2.36 3 1 C2.01 0.67 1.02 0.34 0 0 Z " fill="#D3514C" transform="translate(110,110)"/>
<path d="M0 0 C0.33 0 0.66 0 1 0 C2.13835673 4.78109828 1.67624234 7.43689586 0 12 C-0.165 13.258125 -0.33 14.51625 -0.5 15.8125 C-0.665 16.864375 -0.83 17.91625 -1 19 C-1.66 19.33 -2.32 19.66 -3 20 C-2.45136137 13.2142064 -1.45732062 6.64990964 0 0 Z " fill="#DF6F67" transform="translate(131,120)"/>
<path d="M0 0 C2 2 2 2 2.125 5.125 C2.08375 6.07375 2.0425 7.0225 2 8 C2.66 8 3.32 8 4 8 C3.67 9.32 3.34 10.64 3 12 C2.34 11.67 1.68 11.34 1 11 C0.5859375 8.49609375 0.5859375 8.49609375 0.375 5.4375 C0.30023438 4.42558594 0.22546875 3.41367188 0.1484375 2.37109375 C0.09945312 1.58863281 0.05046875 0.80617187 0 0 Z " fill="#A82323" transform="translate(127,177)"/>
<path d="M0 0 C0.99 0.33 1.98 0.66 3 1 C0.69 3.31 -1.62 5.62 -4 8 C-4 4.09161134 -2.49432124 2.88405893 0 0 Z " fill="#A32426" transform="translate(73,131)"/>
<path d="M0 0 C0.66 0.33 1.32 0.66 2 1 C-0.31 3.31 -2.62 5.62 -5 8 C-5.33 7.01 -5.66 6.02 -6 5 C-4.02 3.35 -2.04 1.7 0 0 Z " fill="#B42323" transform="translate(101,114)"/>
<path d="M0 0 C0 3.10551666 -0.5393715 4.35261084 -2 7 C-2.99 7 -3.98 7 -5 7 C-3.35 4.69 -1.7 2.38 0 0 Z " fill="#C42E30" transform="translate(157,155)"/>
<path d="" fill="#FFFFFF" transform="translate(0,0)"/>
</svg>
