<svg width="256" height="256" viewBox="0 0 256 256" fill="none" xmlns="http://www.w3.org/2000/svg">
<path fill-rule="evenodd" clip-rule="evenodd" d="M104.425 42.3784C100.056 37.0733 93.5437 34 86.6712 34H29C22.3726 34 17 39.3726 17 46V58.1371V68.2V160C17 166.627 22.3726 172 29 172H229C235.627 172 241 166.627 241 160V70.1371C241 63.5097 235.627 58.1371 229 58.1371H117.404L104.425 42.3784Z" fill="#77552F"/>
<mask id="mask0_823_20025" style="mask-type:alpha" maskUnits="userSpaceOnUse" x="17" y="34" width="224" height="138">
<path fill-rule="evenodd" clip-rule="evenodd" d="M104.425 42.3784C100.056 37.0733 93.5437 34 86.6712 34H29C22.3726 34 17 39.3726 17 46V58.1371V68.2V160C17 166.627 22.3726 172 29 172H229C235.627 172 241 166.627 241 160V70.1371C241 63.5097 235.627 58.1371 229 58.1371H117.404L104.425 42.3784Z" fill="url(#paint0_linear_823_20025)"/>
</mask>
<g mask="url(#mask0_823_20025)">
<g style="mix-blend-mode:multiply" filter="url(#filter0_f_823_20025)">
<path fill-rule="evenodd" clip-rule="evenodd" d="M92.789 74C97.7642 74 102.605 72.3868 106.586 69.4024L116.459 62H229C235.627 62 241 67.3726 241 74V108V160C241 166.627 235.627 172 229 172H29C22.3726 172 17 166.627 17 160L17 108V86C17 79.3726 22.3726 74 29 74H87H92.789Z" fill="black" fill-opacity="0.3"/>
</g>
</g>
<g filter="url(#filter1_ii_823_20025)">
<path fill-rule="evenodd" clip-rule="evenodd" d="M92.789 74C97.7642 74 102.605 72.3868 106.586 69.4024L116.459 62H229C235.627 62 241 67.3726 241 74V108V198C241 204.627 235.627 210 229 210H29C22.3726 210 17 204.627 17 198L17 108V86C17 79.3726 22.3726 74 29 74H87H92.789Z" fill="url(#paint1_linear_823_20025)"/>
</g>
<path d="M155.664 185.504C155.612 181.755 155.352 180.662 153.633 176.548C152.176 173.163 151.603 170.872 151.394 168.217C151.134 164.676 151.238 164.468 153.894 159.105C155.352 156.085 157.122 152.023 157.747 149.992L158.893 146.347L159.205 149.367C159.413 151.034 159.413 152.7 159.257 153.012C158.997 153.481 159.049 153.481 159.569 153.012C160.715 151.919 159.986 144.108 158.424 140.932C157.695 139.474 157.278 138.277 157.487 138.277C158.216 138.277 160.767 142.494 161.756 145.202L162.746 147.91L162.433 145.306C162.277 143.9 161.6 141.609 160.923 140.255L159.726 137.756H161.184C162.798 137.756 163.891 139.006 164.881 141.974C165.245 143.119 165.453 149.055 165.505 158.167L165.558 172.591L163.371 169.154C160.559 164.832 160.507 165.926 163.214 171.341C164.568 173.997 165.297 176.184 165.297 177.485C165.297 179.828 163.891 182.796 161.756 184.775L160.246 186.233L159.986 183.213C159.83 181.547 158.84 178.006 157.747 175.246C156.654 172.539 155.352 168.894 154.831 167.175C154.31 165.457 153.894 164.572 153.894 165.197C153.79 167.175 154.935 171.706 156.497 175.663C159.413 183.057 159.517 186.181 156.81 188.68L155.664 189.774V185.504Z" fill="#77552F"/>
<path d="M90.0042 180.245C89.9001 179.932 91.7226 173.84 94.1178 166.655L98.4396 153.689L101.824 153.637C104.636 153.585 105.729 153.273 108.802 151.658C110.832 150.565 112.915 149.367 113.488 148.899C114.477 148.17 114.477 148.118 112.967 146.816C108.125 142.754 103.334 141.401 100.522 143.223C99.1686 144.108 97.3982 147.805 96.8254 150.877C96.513 152.596 94.7947 154.939 94.274 154.366C94.1699 154.262 94.7947 152.023 95.6278 149.367C97.7106 142.911 99.6372 140.88 103.49 140.88C105.521 140.88 106.875 141.244 108.802 142.39C112.186 144.317 116.456 148.118 116.039 148.795C115.831 149.055 114.269 150.252 112.551 151.346C109.114 153.585 103.282 155.616 101.043 155.355C99.6893 155.199 99.5851 155.407 95.8361 166.394C93.7533 172.538 91.8267 178.006 91.6184 178.527C91.2539 179.36 91.4622 179.412 93.4929 179.099C101.772 177.902 112.967 171.237 121.715 162.333L125.308 158.74L127.755 161.187C131.452 164.884 136.451 166.186 141.501 164.78C143.897 164.155 144.157 163.582 143.48 160.614C143.22 159.365 142.803 156.501 142.595 154.21C142.283 150.825 142.335 150.148 142.959 150.357C143.376 150.461 143.741 151.398 143.845 152.387C143.897 153.377 144.365 156.449 144.782 159.313C145.511 163.634 145.511 164.52 144.938 164.884C142.23 166.655 134.472 166.915 131.192 165.405C130.046 164.884 128.328 163.582 127.338 162.541L125.568 160.666L121.09 164.988C114.009 171.809 106.25 176.86 99.4289 179.047C95.6799 180.297 90.2646 180.974 90.0042 180.245Z" fill="#77552F"/>
<path d="M92.66 177.798C92.8683 177.485 94.6387 172.538 96.5653 166.759L100.054 156.241L103.178 155.928C106.563 155.616 112.342 152.856 115.675 149.992L117.549 148.378L114.477 145.67C110.78 142.338 105.938 139.839 103.334 139.839C102.137 139.839 100.679 140.307 99.5333 141.088L97.6587 142.338L98.3877 140.411C99.1167 138.224 102.137 132.08 102.918 131.143C103.334 130.622 104.376 131.351 107.188 133.955C115.415 141.609 128.536 148.222 138.377 149.628C141.293 150.044 141.71 150.617 141.814 154.678C141.866 155.824 142.179 158.219 142.595 160.042C143.272 163.322 143.272 163.374 142.022 163.843C140.252 164.52 135.357 164.416 132.858 163.687C130.775 163.062 127.443 160.302 126.349 158.323C125.829 157.334 125.464 157.594 121.194 161.76C115.571 167.227 109.635 171.705 104.063 174.621C98.8043 177.329 91.7748 179.308 92.66 177.798Z" fill="#77552F"/>
<path d="M137.857 148.431C130.151 147.025 120.934 143.119 114.425 138.485C110.729 135.882 104.376 130.102 104.376 129.373C104.376 129.165 105.105 128.123 105.99 127.134L107.552 125.312L110.729 128.696C114.738 132.966 121.038 137.183 127.443 139.839C132.442 141.922 141.971 144.525 144.678 144.525C145.876 144.525 146.084 144.682 145.772 145.463C145.563 145.931 145.147 146.973 144.886 147.806C144.314 149.42 143.689 149.472 137.857 148.431Z" fill="#77552F"/>
<path d="M137.44 142.234C129.942 140.255 124.422 137.808 118.799 134.007C115.675 131.872 108.541 125.467 108.541 124.738C108.541 123.957 114.894 121.041 118.747 120.052C126.141 118.125 132.597 118.906 137.961 122.343C141.345 124.53 143.22 126.769 145.146 130.935C146.5 133.798 146.708 134.892 146.76 138.745L146.812 143.223L144.469 143.327C143.168 143.379 140.043 142.911 137.44 142.234Z" fill="#77552F"/>
<path d="M147.958 136.142C146.969 127.967 139.471 120.261 130.671 118.49C125.099 117.345 117.705 118.595 111.613 121.667L108.697 123.125L107.76 121.094C107.291 120 107.031 118.803 107.239 118.438C107.5 118.074 107.448 117.918 107.083 118.178C106.771 118.334 106.25 118.022 105.886 117.397C105.157 115.939 105.417 115.783 111.457 113.856C125.36 109.326 136.867 111.149 144.105 119.011C148.323 123.541 151.759 131.456 151.759 136.663C151.759 139.318 151.03 138.017 150.249 134.111C148.375 124.478 140.512 115.939 132.233 114.585C130.619 114.325 130.983 114.533 133.587 115.47C141.97 118.438 147.542 124.999 149.416 134.007C150.249 137.86 150.145 138.798 148.947 138.798C148.531 138.798 148.166 137.808 147.958 136.142ZM127.703 113.96C126.297 113.856 124.11 113.856 122.756 113.96C121.35 114.064 122.496 114.117 125.203 114.117C127.911 114.117 129.057 114.064 127.703 113.96Z" fill="#77552F"/>
<path d="M153.321 135.517C153.321 135.1 154.102 134.528 155.04 134.215L156.706 133.695L154.831 133.642C152.957 133.59 152.905 133.538 151.759 129.945C149.676 123.541 144.886 117.032 139.835 113.752L138.586 112.971L140.512 107.92C143.116 100.942 142.855 100.526 139.783 106.931C138.377 109.846 137.023 112.242 136.763 112.242C136.503 112.242 135.305 111.929 134.16 111.513C133.014 111.096 130.411 110.575 128.38 110.367C124.475 110.003 124.214 109.742 124.162 106.254C124.162 105.42 123.902 104.327 123.641 103.91C123.277 103.39 123.225 104.223 123.433 106.618L123.798 110.107L122.027 110.367C115.571 111.409 113.696 111.877 109.687 113.231C107.239 114.116 105.157 114.741 105.104 114.689C105.104 114.637 103.647 111.617 101.876 108.024C99.3247 102.661 98.2313 101.047 96.0443 99.068C94.5343 97.7141 93.1284 96.6207 92.868 96.6207C92.6077 96.6207 92.3994 96.4124 92.3994 96.152C92.3994 95.7355 100.002 94.0172 101.824 94.0172C102.293 94.0172 104.584 96.881 107.135 100.682C111.665 107.347 113.436 109.638 113.904 109.638C114.217 109.638 108.125 98.5473 106.198 95.4751L104.948 93.6006L106.094 93.3403C106.719 93.184 108.801 92.8716 110.676 92.7154L114.061 92.3509L114.998 96.5686C115.466 98.9117 115.987 100.786 116.091 100.786C116.195 100.786 116.195 98.9117 115.987 96.6727L115.675 92.5071L117.133 92.1426C118.903 91.7261 132.545 92.2989 133.066 92.8716C133.274 93.0799 132.754 95.371 131.921 97.9224C131.087 100.526 130.515 102.817 130.567 103.077C130.671 103.286 131.764 101.151 133.014 98.2348C135.357 93.0278 135.357 92.9758 136.919 93.2882C140.043 93.913 145.667 96.0479 148.531 97.7662C151.707 99.6407 159.049 106.618 159.049 107.764C159.049 108.18 157.07 109.794 154.623 111.409C150.353 114.22 148.427 115.991 151.915 113.908C152.801 113.335 155.04 112.085 156.81 111.044L160.038 109.17L161.028 110.888C162.434 113.231 164.777 119.271 164.777 120.417C164.777 121.25 163.892 121.614 159.466 122.604C156.498 123.281 153.425 124.114 152.54 124.478C151.03 125.155 151.134 125.207 153.842 124.895C155.404 124.738 158.58 124.322 160.871 123.957C165.037 123.281 166.183 123.489 165.662 124.895C165.506 125.415 164.204 125.78 161.965 126.04C160.09 126.196 158.528 126.613 158.528 126.873C158.528 127.134 160.247 127.342 162.382 127.342H166.183L166.547 131.299C166.755 133.486 166.86 135.309 166.755 135.413C166.651 135.465 163.631 135.673 159.986 135.881C154.415 136.194 153.321 136.142 153.321 135.517Z" fill="#77552F"/>
<defs>
<filter id="filter0_f_823_20025" x="-20" y="25" width="298" height="184" filterUnits="userSpaceOnUse" color-interpolation-filters="sRGB">
<feFlood flood-opacity="0" result="BackgroundImageFix"/>
<feBlend mode="normal" in="SourceGraphic" in2="BackgroundImageFix" result="shape"/>
<feGaussianBlur stdDeviation="18.5" result="effect1_foregroundBlur_823_20025"/>
</filter>
<filter id="filter1_ii_823_20025" x="17" y="62" width="224" height="148" filterUnits="userSpaceOnUse" color-interpolation-filters="sRGB">
<feFlood flood-opacity="0" result="BackgroundImageFix"/>
<feBlend mode="normal" in="SourceGraphic" in2="BackgroundImageFix" result="shape"/>
<feColorMatrix in="SourceAlpha" type="matrix" values="0 0 0 0 0 0 0 0 0 0 0 0 0 0 0 0 0 0 127 0" result="hardAlpha"/>
<feOffset dy="-4"/>
<feComposite in2="hardAlpha" operator="arithmetic" k2="-1" k3="1"/>
<feColorMatrix type="matrix" values="0 0 0 0 0 0 0 0 0 0 0 0 0 0 0 0 0 0 0.25 0"/>
<feBlend mode="normal" in2="shape" result="effect1_innerShadow_823_20025"/>
<feColorMatrix in="SourceAlpha" type="matrix" values="0 0 0 0 0 0 0 0 0 0 0 0 0 0 0 0 0 0 127 0" result="hardAlpha"/>
<feOffset dy="4"/>
<feComposite in2="hardAlpha" operator="arithmetic" k2="-1" k3="1"/>
<feColorMatrix type="matrix" values="0 0 0 0 1 0 0 0 0 1 0 0 0 0 1 0 0 0 0.25 0"/>
<feBlend mode="normal" in2="effect1_innerShadow_823_20025" result="effect2_innerShadow_823_20025"/>
</filter>
<linearGradient id="paint0_linear_823_20025" x1="17" y1="34" x2="197.768" y2="215.142" gradientUnits="userSpaceOnUse">
<stop stop-color="#05815D"/>
<stop offset="1" stop-color="#0C575F"/>
</linearGradient>
<linearGradient id="paint1_linear_823_20025" x1="17" y1="62" x2="241" y2="210" gradientUnits="userSpaceOnUse">
<stop stop-color="#DCBA82"/>
<stop offset="1" stop-color="#C3A374"/>
</linearGradient>
</defs>
</svg>
