<svg width="256" height="256" viewBox="0 0 256 256" fill="none" xmlns="http://www.w3.org/2000/svg">
<path fill-rule="evenodd" clip-rule="evenodd" d="M104.425 42.3784C100.056 37.0733 93.5437 34 86.6712 34H29C22.3726 34 17 39.3726 17 46V58.1371V68.2V160C17 166.627 22.3726 172 29 172H229C235.627 172 241 166.627 241 160V70.1371C241 63.5097 235.627 58.1371 229 58.1371H117.404L104.425 42.3784Z" fill="url(#paint0_linear_1709_29872)"/>
<mask id="mask0_1709_29872" style="mask-type:alpha" maskUnits="userSpaceOnUse" x="17" y="34" width="224" height="138">
<path fill-rule="evenodd" clip-rule="evenodd" d="M104.425 42.3784C100.056 37.0733 93.5437 34 86.6712 34H29C22.3726 34 17 39.3726 17 46V58.1371V68.2V160C17 166.627 22.3726 172 29 172H229C235.627 172 241 166.627 241 160V70.1371C241 63.5097 235.627 58.1371 229 58.1371H117.404L104.425 42.3784Z" fill="url(#paint1_linear_1709_29872)"/>
</mask>
<g mask="url(#mask0_1709_29872)">
<g style="mix-blend-mode:multiply" filter="url(#filter0_f_1709_29872)">
<path fill-rule="evenodd" clip-rule="evenodd" d="M92.789 74C97.7642 74 102.605 72.3868 106.586 69.4024L116.459 62H229C235.627 62 241 67.3726 241 74V108V160C241 166.627 235.627 172 229 172H29C22.3726 172 17 166.627 17 160L17 108V86C17 79.3726 22.3726 74 29 74H87H92.789Z" fill="black" fill-opacity="0.3"/>
</g>
</g>
<g filter="url(#filter1_ii_1709_29872)">
<path fill-rule="evenodd" clip-rule="evenodd" d="M92.789 74C97.7642 74 102.605 72.3868 106.586 69.4024L116.459 62H229C235.627 62 241 67.3726 241 74V108V198C241 204.627 235.627 210 229 210H29C22.3726 210 17 204.627 17 198L17 108V86C17 79.3726 22.3726 74 29 74H87H92.789Z" fill="url(#paint2_linear_1709_29872)"/>
</g>
<path d="M95.059 148.969L105.98 138.048C106.77 137.257 107.627 136.575 108.534 136C107.627 135.426 106.77 134.743 105.98 133.953L95.059 123.032C94.5228 122.496 94.0362 121.929 93.5993 121.337C86.4672 122.413 81 128.568 81 136C81 143.432 86.4675 149.588 93.5998 150.663C94.0366 150.071 94.523 149.505 95.059 148.969Z" fill="url(#paint3_linear_1709_29872)"/>
<path d="M114.17 169.17V153.726C114.17 152.608 114.294 151.519 114.528 150.472C113.481 150.706 112.392 150.83 111.274 150.83H95.83C95.0719 150.83 94.3272 150.773 93.5998 150.663C89.3172 156.467 89.8036 164.686 95.059 169.941C100.314 175.197 108.533 175.683 114.337 171.401C114.227 170.673 114.17 169.928 114.17 169.17Z" fill="url(#paint4_linear_1709_29872)"/>
<path d="M126.953 159.021L116.032 169.941C115.496 170.477 114.929 170.964 114.337 171.401C115.413 178.533 121.568 184 129 184C136.432 184 142.587 178.533 143.663 171.401C143.071 170.964 142.504 170.478 141.968 169.942L131.048 159.021C130.257 158.23 129.575 157.373 129 156.467C128.425 157.373 127.743 158.23 126.953 159.021Z" fill="url(#paint5_linear_1709_29872)"/>
<path d="M143.83 153.726V169.17C143.83 169.928 143.773 170.673 143.663 171.401C143.871 171.554 144.081 171.701 144.295 171.842C150.051 175.642 157.874 175.009 162.941 169.942C168.197 164.686 168.683 156.467 164.4 150.663C163.673 150.773 162.928 150.83 162.17 150.83H146.726C145.608 150.83 144.519 150.706 143.472 150.472C143.706 151.519 143.83 152.608 143.83 153.726Z" fill="url(#paint6_linear_1709_29872)"/>
<path d="M162.941 123.032L152.02 133.953C151.23 134.743 150.373 135.426 149.466 136C150.373 136.575 151.23 137.258 152.02 138.048L162.941 148.969C163.477 149.505 163.964 150.071 164.4 150.663C171.533 149.588 177 143.432 177 136C177 128.568 171.533 122.413 164.401 121.337C163.964 121.929 163.477 122.496 162.941 123.032Z" fill="url(#paint7_linear_1709_29872)"/>
<path d="M143.83 102.83V118.274C143.83 119.392 143.706 120.481 143.472 121.528C144.519 121.294 145.608 121.17 146.726 121.17H162.17C162.928 121.17 163.673 121.227 164.401 121.337C164.554 121.129 164.701 120.919 164.842 120.706C168.642 114.949 168.009 107.127 162.941 102.059C157.686 96.8038 149.467 96.3173 143.664 100.6C143.773 101.327 143.83 102.072 143.83 102.83Z" fill="url(#paint8_linear_1709_29872)"/>
<path d="M131.048 112.98L141.968 102.059C142.505 101.523 143.071 101.037 143.664 100.6C143.625 100.345 143.58 100.092 143.529 99.8412C142.146 93.0835 136.167 88 129 88C121.568 88 115.412 93.4676 114.337 100.6C114.929 101.037 115.496 101.523 116.032 102.059L126.952 112.98C127.743 113.77 128.425 114.628 129 115.534C129.575 114.628 130.257 113.77 131.048 112.98Z" fill="url(#paint9_linear_1709_29872)"/>
<path d="M114.17 118.274V102.83C114.17 102.072 114.227 101.327 114.337 100.6C108.533 96.3175 100.314 96.8039 95.059 102.059C89.8037 107.315 89.3172 115.533 93.5993 121.337C94.3269 121.227 95.0718 121.17 95.83 121.17H111.274C112.392 121.17 113.481 121.294 114.528 121.528C114.294 120.481 114.17 119.392 114.17 118.274Z" fill="url(#paint10_linear_1709_29872)"/>
<path d="M95.0593 123.033L105.98 133.953C106.77 134.744 107.628 135.426 108.534 136.001C113.361 132.939 119.572 132.939 124.399 136.001C124.972 135.637 125.526 135.231 126.055 134.781C125.999 134.088 125.895 133.409 125.746 132.747C120.168 131.498 115.777 127.107 114.529 121.529C113.481 121.294 112.392 121.171 111.275 121.171H95.8303C95.0721 121.171 94.3272 121.227 93.5996 121.337C94.0365 121.929 94.5231 122.496 95.0593 123.033Z" fill="url(#paint11_linear_1709_29872)"/>
<path d="M105.98 138.048L95.0593 148.969C94.5233 149.505 94.0369 150.072 93.6001 150.664C94.3275 150.774 95.0722 150.831 95.8303 150.831H111.275C112.392 150.831 113.481 150.707 114.529 150.472C115.777 144.894 120.168 140.503 125.746 139.254C125.895 138.592 125.999 137.913 126.055 137.221C125.526 136.771 124.972 136.364 124.399 136.001C119.572 139.062 113.361 139.062 108.534 136.001C107.628 136.576 106.77 137.258 105.98 138.048Z" fill="url(#paint12_linear_1709_29872)"/>
<path d="M114.17 153.726V169.171C114.17 169.929 114.227 170.674 114.337 171.401C114.929 170.964 115.496 170.478 116.032 169.942L126.953 159.021C127.743 158.231 128.426 157.373 129 156.467C125.939 151.64 125.939 145.43 129 140.602C128.637 140.029 128.23 139.475 127.78 138.946C127.088 139.002 126.409 139.106 125.746 139.254C124.498 144.832 120.107 149.224 114.529 150.472C114.294 151.52 114.17 152.609 114.17 153.726Z" fill="url(#paint13_linear_1709_29872)"/>
<path d="M143.83 169.171V153.726C143.83 152.609 143.707 151.52 143.472 150.473C137.894 149.224 133.503 144.833 132.254 139.254C131.592 139.106 130.913 139.002 130.221 138.946C129.771 139.475 129.364 140.029 129 140.602C132.062 145.43 132.062 151.64 129 156.467C129.575 157.373 130.258 158.231 131.048 159.021L141.969 169.942C142.505 170.478 143.072 170.965 143.664 171.401C143.774 170.674 143.83 169.929 143.83 169.171Z" fill="url(#paint14_linear_1709_29872)"/>
<path d="M162.941 148.969L152.021 138.049C151.23 137.258 150.373 136.576 149.467 136.001C144.639 139.062 138.429 139.062 133.602 136.001C133.029 136.364 132.475 136.771 131.946 137.221C132.002 137.913 132.106 138.592 132.254 139.254C137.832 140.503 142.224 144.894 143.472 150.473C144.519 150.707 145.608 150.831 146.726 150.831H162.17C162.928 150.831 163.673 150.774 164.401 150.664C163.964 150.072 163.477 149.505 162.941 148.969Z" fill="url(#paint15_linear_1709_29872)"/>
<path d="M152.021 133.953L162.941 123.032C163.478 122.496 163.964 121.929 164.401 121.337C163.673 121.227 162.929 121.171 162.17 121.171H146.726C145.608 121.171 144.519 121.294 143.472 121.529C142.224 127.107 137.832 131.498 132.254 132.747C132.106 133.409 132.002 134.088 131.946 134.781C132.475 135.231 133.029 135.637 133.602 136.001C138.429 132.94 144.639 132.94 149.467 136.001C150.373 135.426 151.23 134.744 152.021 133.953Z" fill="url(#paint16_linear_1709_29872)"/>
<path d="M143.83 118.275V102.831C143.83 102.073 143.774 101.328 143.664 100.6C143.072 101.037 142.505 101.524 141.969 102.06L131.048 112.98C130.258 113.771 129.575 114.628 129 115.535C132.062 120.362 132.062 126.572 129 131.399C129.364 131.972 129.77 132.526 130.22 133.055C130.913 132.999 131.592 132.895 132.254 132.747C133.503 127.169 137.894 122.777 143.472 121.529C143.707 120.482 143.83 119.393 143.83 118.275Z" fill="url(#paint17_linear_1709_29872)"/>
<path d="M114.17 102.831V118.275C114.17 119.393 114.294 120.482 114.529 121.529C120.107 122.778 124.498 127.169 125.746 132.747C126.409 132.895 127.088 132.999 127.781 133.055C128.23 132.526 128.637 131.972 129 131.399C125.939 126.572 125.939 120.362 129 115.535C128.426 114.628 127.743 113.771 126.953 112.981L116.032 102.06C115.496 101.524 114.929 101.037 114.337 100.601C114.227 101.328 114.17 102.073 114.17 102.831Z" fill="url(#paint18_linear_1709_29872)"/>
<path d="M125.746 132.745C120.168 131.497 115.777 127.105 114.528 121.527C120.106 122.776 124.497 127.167 125.746 132.745Z" fill="#CA2725"/>
<path d="M124.398 136C119.571 132.938 113.361 132.938 108.533 136C113.361 139.061 119.571 139.061 124.398 136Z" fill="#9F2827"/>
<path d="M125.746 139.253C120.168 140.502 115.777 144.893 114.528 150.471C120.106 149.222 124.497 144.831 125.746 139.253Z" fill="#643454"/>
<path d="M129 140.601C132.061 145.428 132.061 151.639 129 156.466C125.938 151.639 125.938 145.428 129 140.601Z" fill="#464882"/>
<path d="M132.253 139.253C137.832 140.502 142.223 144.893 143.472 150.471C137.894 149.222 133.502 144.831 132.253 139.253Z" fill="#31654B"/>
<path d="M133.601 136C138.429 132.938 144.639 132.938 149.466 136C144.639 139.061 138.429 139.061 133.601 136Z" fill="#337533"/>
<path d="M143.472 121.527C142.223 127.105 137.832 131.497 132.253 132.745C133.502 127.167 137.894 122.776 143.472 121.527Z" fill="#6D981C"/>
<path d="M129 131.398C125.938 126.571 125.938 120.361 129 115.533C132.061 120.36 132.061 126.571 129 131.398Z" fill="#BF6B1D"/>
<path d="M125.746 132.746C125.894 133.408 125.998 134.088 126.055 134.78C126.362 134.519 126.662 134.243 126.952 133.953C127.243 133.662 127.519 133.362 127.78 133.054C127.088 132.998 126.408 132.894 125.746 132.746Z" fill="#EC311A"/>
<path d="M126.055 134.78C125.525 135.23 124.972 135.637 124.398 136C124.972 136.363 125.525 136.77 126.055 137.22C126.087 136.817 126.104 136.411 126.104 136C126.104 135.589 126.087 135.182 126.055 134.78Z" fill="#D34B6D"/>
<path d="M125.746 139.254C126.408 139.105 127.087 139.001 127.78 138.945C127.519 138.637 127.243 138.338 126.952 138.048C126.662 137.757 126.362 137.481 126.055 137.22C125.998 137.912 125.894 138.591 125.746 139.254Z" fill="#9474BB"/>
<path d="M129 140.602C129.364 140.028 129.77 139.475 130.22 138.945C129.818 138.912 129.411 138.896 129 138.896C128.589 138.896 128.182 138.912 127.78 138.945C128.23 139.475 128.636 140.028 129 140.602Z" fill="#7C6992"/>
<path d="M131.945 137.22C131.637 137.481 131.338 137.757 131.047 138.048C130.757 138.338 130.481 138.637 130.22 138.945C130.913 139.001 131.591 139.105 132.254 139.254C132.105 138.591 132.001 137.912 131.945 137.22Z" fill="#50AA8A"/>
<path d="M131.945 134.78C131.912 135.182 131.896 135.589 131.896 136C131.896 136.411 131.912 136.818 131.945 137.22C132.475 136.77 133.028 136.364 133.602 136C133.028 135.637 132.475 135.23 131.945 134.78Z" fill="#65B52B"/>
<path d="M132.254 132.746C131.591 132.894 130.912 132.998 130.22 133.054C130.481 133.362 130.757 133.662 131.048 133.952C131.338 134.243 131.637 134.519 131.945 134.78C132.001 134.087 132.105 133.408 132.254 132.746Z" fill="#CCB806"/>
<path d="M129 131.398C128.637 131.971 128.23 132.525 127.78 133.054C128.183 133.087 128.589 133.104 129 133.104C129.411 133.104 129.817 133.087 130.22 133.054C129.77 132.525 129.363 131.971 129 131.398Z" fill="#DBAD08"/>
<defs>
<filter id="filter0_f_1709_29872" x="-20" y="25" width="298" height="184" filterUnits="userSpaceOnUse" color-interpolation-filters="sRGB">
<feFlood flood-opacity="0" result="BackgroundImageFix"/>
<feBlend mode="normal" in="SourceGraphic" in2="BackgroundImageFix" result="shape"/>
<feGaussianBlur stdDeviation="18.5" result="effect1_foregroundBlur_1709_29872"/>
</filter>
<filter id="filter1_ii_1709_29872" x="17" y="62" width="224" height="148" filterUnits="userSpaceOnUse" color-interpolation-filters="sRGB">
<feFlood flood-opacity="0" result="BackgroundImageFix"/>
<feBlend mode="normal" in="SourceGraphic" in2="BackgroundImageFix" result="shape"/>
<feColorMatrix in="SourceAlpha" type="matrix" values="0 0 0 0 0 0 0 0 0 0 0 0 0 0 0 0 0 0 127 0" result="hardAlpha"/>
<feOffset dy="4"/>
<feComposite in2="hardAlpha" operator="arithmetic" k2="-1" k3="1"/>
<feColorMatrix type="matrix" values="0 0 0 0 1 0 0 0 0 1 0 0 0 0 1 0 0 0 0.25 0"/>
<feBlend mode="normal" in2="shape" result="effect1_innerShadow_1709_29872"/>
<feColorMatrix in="SourceAlpha" type="matrix" values="0 0 0 0 0 0 0 0 0 0 0 0 0 0 0 0 0 0 127 0" result="hardAlpha"/>
<feOffset dy="-4"/>
<feComposite in2="hardAlpha" operator="arithmetic" k2="-1" k3="1"/>
<feColorMatrix type="matrix" values="0 0 0 0 0 0 0 0 0 0 0 0 0 0 0 0 0 0 0.9 0"/>
<feBlend mode="soft-light" in2="effect1_innerShadow_1709_29872" result="effect2_innerShadow_1709_29872"/>
</filter>
<linearGradient id="paint0_linear_1709_29872" x1="38.5" y1="34" x2="241" y2="103" gradientUnits="userSpaceOnUse">
<stop stop-color="#FD6453"/>
<stop offset="1" stop-color="#F3DC0D"/>
</linearGradient>
<linearGradient id="paint1_linear_1709_29872" x1="17" y1="34" x2="197.768" y2="215.142" gradientUnits="userSpaceOnUse">
<stop stop-color="#05815D"/>
<stop offset="1" stop-color="#0C575F"/>
</linearGradient>
<linearGradient id="paint2_linear_1709_29872" x1="17" y1="62" x2="241" y2="210" gradientUnits="userSpaceOnUse">
<stop stop-color="#FFF9FB"/>
<stop offset="1" stop-color="#D0FFE8"/>
</linearGradient>
<linearGradient id="paint3_linear_1709_29872" x1="81" y1="136.088" x2="113.293" y2="136.088" gradientUnits="userSpaceOnUse">
<stop stop-color="#CF85B7"/>
<stop offset="1" stop-color="#D05E7E"/>
</linearGradient>
<linearGradient id="paint4_linear_1709_29872" x1="115.574" y1="149.075" x2="96.9707" y2="171.013" gradientUnits="userSpaceOnUse">
<stop stop-color="#AA7DB3"/>
<stop offset="1" stop-color="#9686C9"/>
</linearGradient>
<linearGradient id="paint5_linear_1709_29872" x1="128.912" y1="154.954" x2="129" y2="184" gradientUnits="userSpaceOnUse">
<stop stop-color="#6D92CC"/>
<stop offset="1" stop-color="#5DB4E3"/>
</linearGradient>
<linearGradient id="paint6_linear_1709_29872" x1="143.567" y1="150.567" x2="162.521" y2="170.486" gradientUnits="userSpaceOnUse">
<stop stop-color="#50A99D"/>
<stop offset="1" stop-color="#62C17E"/>
</linearGradient>
<linearGradient id="paint7_linear_1709_29872" x1="148.13" y1="136.088" x2="177" y2="136.088" gradientUnits="userSpaceOnUse">
<stop stop-color="#94C64A"/>
<stop offset="1" stop-color="#BFDB31"/>
</linearGradient>
<linearGradient id="paint8_linear_1709_29872" x1="162.872" y1="102.83" x2="143.216" y2="121.96" gradientUnits="userSpaceOnUse">
<stop stop-color="#FFE20D"/>
<stop offset="1" stop-color="#D3CE0E"/>
</linearGradient>
<linearGradient id="paint9_linear_1709_29872" x1="129" y1="88" x2="128.912" y2="116.519" gradientUnits="userSpaceOnUse">
<stop stop-color="#EB9332"/>
<stop offset="1" stop-color="#F5B20D"/>
</linearGradient>
<linearGradient id="paint10_linear_1709_29872" x1="93.9872" y1="102.654" x2="114.96" y2="121.433" gradientUnits="userSpaceOnUse">
<stop stop-color="#FF5959"/>
<stop offset="1" stop-color="#FA7748"/>
</linearGradient>
<linearGradient id="paint11_linear_1709_29872" x1="93.6365" y1="121.434" x2="127.245" y2="134.86" gradientUnits="userSpaceOnUse">
<stop stop-color="#D02729"/>
<stop offset="1" stop-color="#EE321A"/>
</linearGradient>
<linearGradient id="paint12_linear_1709_29872" x1="93.6365" y1="150.216" x2="126.543" y2="136.966" gradientUnits="userSpaceOnUse">
<stop stop-color="#A35487"/>
<stop offset="1" stop-color="#D54B6C"/>
</linearGradient>
<linearGradient id="paint13_linear_1709_29872" x1="127.508" y1="138.809" x2="114.258" y2="171.891" gradientUnits="userSpaceOnUse">
<stop stop-color="#9674BC"/>
<stop offset="1" stop-color="#5A6CB3"/>
</linearGradient>
<linearGradient id="paint14_linear_1709_29872" x1="130.317" y1="139.072" x2="143.742" y2="171.891" gradientUnits="userSpaceOnUse">
<stop stop-color="#688CD7"/>
<stop offset="1" stop-color="#3E899B"/>
</linearGradient>
<linearGradient id="paint15_linear_1709_29872" x1="132.247" y1="136.966" x2="164.891" y2="150.743" gradientUnits="userSpaceOnUse">
<stop stop-color="#50AA8B"/>
<stop offset="1" stop-color="#50A942"/>
</linearGradient>
<linearGradient id="paint16_linear_1709_29872" x1="164.891" y1="121.083" x2="131.457" y2="134.333" gradientUnits="userSpaceOnUse">
<stop stop-color="#9ABC11"/>
<stop offset="1" stop-color="#64B52C"/>
</linearGradient>
<linearGradient id="paint17_linear_1709_29872" x1="143.742" y1="99.7592" x2="129.264" y2="133.719" gradientUnits="userSpaceOnUse">
<stop stop-color="#EDA20A"/>
<stop offset="1" stop-color="#CAB906"/>
</linearGradient>
<linearGradient id="paint18_linear_1709_29872" x1="114.258" y1="99.7592" x2="127.859" y2="133.192" gradientUnits="userSpaceOnUse">
<stop stop-color="#F5540F"/>
<stop offset="1" stop-color="#FB7705"/>
</linearGradient>
</defs>
</svg>
