<?xml version="1.0" encoding="UTF-8"?>
<svg width="256" height="256" viewBox="0 0 256 256" xmlns="http://www.w3.org/2000/svg">
  <defs>
    <style>
      .cls-1 {
        fill: #0068b5;
      }

      .cls-2 {
        fill: url(#linear-gradient);
      }

      .cls-2, .cls-3, .cls-4, .cls-5, .cls-6, .cls-7 {
        fill-rule: evenodd;
      }

      .cls-3 {
        fill: #00446d;
      }

      .cls-4 {
        fill: url(#_未命名的渐变_3);
      }

      .cls-8 {
        fill: none;
        mask: url(#mask);
      }

      .cls-5 {
        fill: url(#_未命名的渐变_8);
      }

      .cls-6 {
        fill: #a6a1a1;
      }

      .cls-7 {
        fill: #005487;
      }
    </style>
    <linearGradient id="_未命名的渐变_8" data-name="未命名的渐变 8" x1="112" y1="81.26" x2="112" y2="-133.86" gradientUnits="userSpaceOnUse">
      <stop offset="0" stop-color="#0a1c29"/>
      <stop offset=".11" stop-color="#0f233a"/>
      <stop offset=".37" stop-color="#19345e"/>
      <stop offset=".61" stop-color="#214078"/>
      <stop offset=".83" stop-color="#264788"/>
      <stop offset="1" stop-color="#284a8e"/>
    </linearGradient>
    <linearGradient id="linear-gradient" x1="15.58" y1="205.55" x2="196.35" y2="24.41" gradientTransform="translate(0 190) scale(1 -1)" gradientUnits="userSpaceOnUse">
      <stop offset="0" stop-color="#05815d"/>
      <stop offset="1" stop-color="#0c575f"/>
    </linearGradient>
    <mask id="mask" x="0" y="0" width="224" height="138" maskUnits="userSpaceOnUse">
      <g id="mask0_501_11930" data-name="mask0 501 11930">
        <path class="cls-2" d="m87.43,8.38c-4.37-5.31-10.88-8.38-17.75-8.38H12C5.37,0,0,5.37,0,12v114c0,6.63,5.37,12,12,12h200c6.63,0,12-5.37,12-12V36.14c0-6.63-5.37-12-12-12h-111.6l-12.98-15.76Z"/>
      </g>
    </mask>
    <linearGradient id="_未命名的渐变_3" data-name="未命名的渐变 3" x1="0" y1="162" x2="224" y2="14" gradientTransform="translate(0 190) scale(1 -1)" gradientUnits="userSpaceOnUse">
      <stop offset="0" stop-color="#0b2f3d"/>
      <stop offset=".97" stop-color="#0a1926"/>
    </linearGradient>
  </defs>
  <g transform="translate(17, 34)">
  <path class="cls-5" d="m87.43,8.38c-4.37-5.31-10.88-8.38-17.75-8.38H12C5.37,0,0,5.37,0,12v114c0,6.63,5.37,12,12,12h200c6.63,0,12-5.37,12-12V36.14c0-6.63-5.37-12-12-12h-111.6l-12.98-15.76Z"/>
  <g class="cls-8">
    <path class="cls-6" d="m75.79,40c4.98,0,9.82-1.61,13.8-4.6l9.87-7.4h112.54c6.63,0,12,5.37,12,12v86c0,6.63-5.37,12-12,12H12c-6.63,0-12-5.37-12-12V52c0-6.63,5.37-12,12-12h63.79Z"/>
  </g>
  <path class="cls-4" d="m75.79,40c4.98,0,9.82-1.61,13.8-4.6l9.87-7.4h112.54c6.63,0,12,5.37,12,12v124c0,6.63-5.37,12-12,12H12c-6.63,0-12-5.37-12-12V52c0-6.63,5.37-12,12-12h63.79Z"/>
  <path class="cls-7" d="m0,160v4c0,6.63,5.37,12,12,12h200c6.63,0,12-5.37,12-12v-4c0,6.63-5.37,12-12,12H12c-6.63,0-12-5.37-12-12Z"/>
  <path class="cls-3" d="m89.59,35.4c-3.98,2.98-8.82,4.6-13.8,4.6H12c-6.63,0-12,5.37-12,12v4c0-6.63,5.37-12,12-12h63.79c4.98,0,9.82-1.61,13.8-4.6l9.87-7.4h112.54c6.63,0,12,5.37,12,12v-4c0-6.63-5.37-12-12-12h-112.54l-9.87,7.4Z"/>
  <g>
    <path class="cls-1" d="m91.37,92.85s-5.12,10.13-5.97,11.79c-.84-1.66-5.99-11.79-5.99-11.79h-10v19.69h5.57v-14.25h1.14c.29.6,6.96,14.25,6.96,14.25h4.61s6.67-13.66,6.96-14.25h1.14v14.25h5.57v-19.69h-10Z"/>
    <polygon class="cls-1" points="58.78 92.85 58.78 112.54 65.05 112.54 65.05 92.85 58.78 92.85 58.78 92.85"/>
    <path class="cls-1" d="m117.38,97.31c.26.51,3.14,6.2,3.79,7.48h-8.22c.65-1.28,3.53-6.96,3.79-7.48h.64Zm-14.9,15.23h6.62s1.45-2.84,1.71-3.34h12.5c.26.5,1.7,3.34,1.7,3.34h6.62l-9.99-19.69h-.34s-8.82,0-8.82,0l-10,19.69h0Z"/>
    <path class="cls-1" d="m158.13,92.83h-6.38s-4.64,5.54-5.38,6.41c-.73-.88-5.28-6.41-5.28-6.41h-7.66s7.21,8.57,7.78,9.24c-.59.67-9.26,10.47-9.26,10.47h8.17s5.56-6.33,6.3-7.17c.73.84,6.21,7.17,6.21,7.17h8.18s-8.67-9.8-9.26-10.47c.57-.67,7.78-9.24,7.78-9.24h-1.2Z"/>
    <path class="cls-1" d="m161.57,93.04c-.68,0-1.24.56-1.24,1.24s.56,1.24,1.24,1.24,1.24-.56,1.24-1.24-.56-1.24-1.24-1.24h0Zm0,2.74c-.82,0-1.49-.67-1.49-1.49s.67-1.49,1.49-1.49,1.49.67,1.49,1.49-.67,1.49-1.49,1.49h0Z"/>
    <path class="cls-1" d="m161.66,94.28c.23,0,.28-.05.28-.28s-.04-.27-.26-.27h-.43v.55h.41Zm-.41.27v.54h-.31v-1.62h.83c.36,0,.49.12.49.49,0,.24-.01.41-.29.46h0c.22.03.27.15.27.38v.3h-.31v-.3c0-.14-.06-.23-.21-.23h-.48Z"/>
  </g>
  </g>
</svg>
