<svg width="256" height="256" viewBox="0 0 256 256" fill="none" xmlns="http://www.w3.org/2000/svg">
<path fill-rule="evenodd" clip-rule="evenodd" d="M104.425 42.3784C100.056 37.0733 93.5437 34 86.6712 34H29C22.3726 34 17 39.3726 17 46V58.1371V68.2V160C17 166.627 22.3726 172 29 172H229C235.627 172 241 166.627 241 160V70.1371C241 63.5097 235.627 58.1371 229 58.1371H117.404L104.425 42.3784Z" fill="url(#paint0_linear_958_21726)"/>
<mask id="mask0_958_21726" style="mask-type:alpha" maskUnits="userSpaceOnUse" x="17" y="34" width="224" height="138">
<path fill-rule="evenodd" clip-rule="evenodd" d="M104.425 42.3784C100.056 37.0733 93.5437 34 86.6712 34H29C22.3726 34 17 39.3726 17 46V58.1371V68.2V160C17 166.627 22.3726 172 29 172H229C235.627 172 241 166.627 241 160V70.1371C241 63.5097 235.627 58.1371 229 58.1371H117.404L104.425 42.3784Z" fill="url(#paint1_linear_958_21726)"/>
</mask>
<g mask="url(#mask0_958_21726)">
<g style="mix-blend-mode:multiply" filter="url(#filter0_f_958_21726)">
<path fill-rule="evenodd" clip-rule="evenodd" d="M92.789 74C97.7642 74 102.605 72.3868 106.586 69.4024L116.459 62H229C235.627 62 241 67.3726 241 74V108V160C241 166.627 235.627 172 229 172H29C22.3726 172 17 166.627 17 160L17 108V86C17 79.3726 22.3726 74 29 74H87H92.789Z" fill="black" fill-opacity="0.3"/>
</g>
</g>
<g filter="url(#filter1_ii_958_21726)">
<path fill-rule="evenodd" clip-rule="evenodd" d="M92.789 74C97.7642 74 102.605 72.3868 106.586 69.4024L116.459 62H229C235.627 62 241 67.3726 241 74V108V198C241 204.627 235.627 210 229 210H29C22.3726 210 17 204.627 17 198L17 108V86C17 79.3726 22.3726 74 29 74H87H92.789Z" fill="url(#paint2_linear_958_21726)"/>
</g>
<path d="M108.675 187.688C108.675 187.495 109.759 187.185 111.113 187.069C112.429 186.914 114.403 186.605 115.448 186.411C119.474 185.559 127.331 182.811 128.725 181.766C129.228 181.379 130.815 180.605 132.286 180.063C133.795 179.483 134.995 178.825 134.995 178.592C135.034 178.321 136.466 177.16 138.208 175.999C141.343 173.87 145.446 170.154 145.446 169.38C145.446 169.187 146.917 167.251 148.736 165.084C150.555 162.955 152.026 161.02 152.026 160.787C152.026 160.594 152.607 159.626 153.304 158.62C157.484 152.852 162.167 141.124 163.909 132.067C164.722 127.654 164.838 116.894 164.064 113.488C163.445 110.778 162.322 107.101 161.78 106.095C161.548 105.669 161.161 104.779 160.929 104.082C160.387 102.65 158.258 100.289 156.361 98.9728C155.626 98.5084 154.658 97.6955 154.155 97.1923C153.691 96.7279 152.026 95.915 150.478 95.4505C147.11 94.4442 147.42 94.0184 151.949 93.5539C158.645 92.8572 165.032 93.8249 169.831 96.2247C176.257 99.476 178.811 101.837 181.211 106.908C184.54 113.836 184.695 123.745 181.637 132.957C179.663 138.879 177.495 143.176 173.741 148.633C173.199 149.446 172.579 150.375 172.347 150.762C171.573 152.156 170.025 154.168 168.399 156.026C167.47 157.033 166.735 158.117 166.735 158.387C166.735 158.813 160.271 165.161 159.806 165.161C159.729 165.161 158.839 165.974 157.871 167.019C154.929 169.999 153.033 171.548 152.491 171.432C152.181 171.354 151.871 171.664 151.755 172.09C151.639 172.515 150.826 173.251 149.936 173.715C147.381 175.031 146.646 175.457 145.949 176.076C144.788 177.044 138.827 180.257 136.35 181.224C135.073 181.728 132.983 182.579 131.705 183.121C127.022 185.056 117.19 187.417 112.158 187.843C109.836 187.998 108.675 187.959 108.675 187.688Z" fill="white"/>
<path d="M98.224 179.405C94.3146 179.057 90.4052 177.935 86.9603 176.154C81.464 173.328 76.974 167.135 75.4258 160.129C75.1935 159.162 75 156.065 75 153.24C75 143.873 77.1676 136.867 83.4767 126.068C88.6247 117.165 99.6561 105.321 107.668 100.057C109.178 99.0505 110.61 98.0828 110.804 97.928C113.629 95.5669 127.215 89.2964 133.718 87.3998C138.75 85.8903 144.633 85 149.084 85C151.407 85.0387 153.381 85.1161 153.497 85.2322C153.613 85.3484 152.568 85.4258 151.213 85.4645C145.33 85.5032 135.769 87.9804 130.157 90.8834C128.454 91.7737 126.209 92.8961 125.125 93.438C124.08 93.9799 122.841 94.7541 122.377 95.2185C121.951 95.6443 120.867 96.3797 120.054 96.8442C119.242 97.3087 118.39 98.0441 118.158 98.5086C117.964 98.9731 117.5 99.4376 117.19 99.5537C116.339 99.8246 113.32 102.844 113.32 103.424C113.32 103.695 113.049 104.16 112.662 104.431C112.313 104.74 111.384 105.824 110.571 106.908C109.759 107.953 108.442 109.734 107.63 110.817C104.959 114.34 104.572 114.998 101.785 120.455C98.7271 126.532 97.6821 129.28 95.979 135.744C94.3533 141.86 93.8114 146.66 94.0823 153.278C94.2759 159.394 95.2823 163.574 97.5659 168.258C98.7271 170.58 102.404 174.838 103.256 174.838C103.488 174.838 104.185 175.341 104.843 175.96C105.733 176.812 106.817 177.315 109.178 177.857L112.352 178.554L109.062 179.018C104.649 179.638 101.708 179.754 98.224 179.405Z" fill="white"/>
<defs>
<filter id="filter0_f_958_21726" x="-20" y="25" width="298" height="184" filterUnits="userSpaceOnUse" color-interpolation-filters="sRGB">
<feFlood flood-opacity="0" result="BackgroundImageFix"/>
<feBlend mode="normal" in="SourceGraphic" in2="BackgroundImageFix" result="shape"/>
<feGaussianBlur stdDeviation="18.5" result="effect1_foregroundBlur_958_21726"/>
</filter>
<filter id="filter1_ii_958_21726" x="17" y="62" width="224" height="148" filterUnits="userSpaceOnUse" color-interpolation-filters="sRGB">
<feFlood flood-opacity="0" result="BackgroundImageFix"/>
<feBlend mode="normal" in="SourceGraphic" in2="BackgroundImageFix" result="shape"/>
<feColorMatrix in="SourceAlpha" type="matrix" values="0 0 0 0 0 0 0 0 0 0 0 0 0 0 0 0 0 0 127 0" result="hardAlpha"/>
<feOffset dy="4"/>
<feComposite in2="hardAlpha" operator="arithmetic" k2="-1" k3="1"/>
<feColorMatrix type="matrix" values="0 0 0 0 1 0 0 0 0 1 0 0 0 0 1 0 0 0 0.25 0"/>
<feBlend mode="normal" in2="shape" result="effect1_innerShadow_958_21726"/>
<feColorMatrix in="SourceAlpha" type="matrix" values="0 0 0 0 0 0 0 0 0 0 0 0 0 0 0 0 0 0 127 0" result="hardAlpha"/>
<feOffset dy="-4"/>
<feComposite in2="hardAlpha" operator="arithmetic" k2="-1" k3="1"/>
<feColorMatrix type="matrix" values="0 0 0 0 0 0 0 0 0 0 0 0 0 0 0 0 0 0 0.9 0"/>
<feBlend mode="soft-light" in2="effect1_innerShadow_958_21726" result="effect2_innerShadow_958_21726"/>
</filter>
<linearGradient id="paint0_linear_958_21726" x1="129" y1="34" x2="129" y2="172" gradientUnits="userSpaceOnUse">
<stop stop-color="#1167F9"/>
</linearGradient>
<linearGradient id="paint1_linear_958_21726" x1="17" y1="34" x2="197.768" y2="215.142" gradientUnits="userSpaceOnUse">
<stop stop-color="#05815D"/>
<stop offset="1" stop-color="#0C575F"/>
</linearGradient>
<linearGradient id="paint2_linear_958_21726" x1="17" y1="62" x2="241" y2="210" gradientUnits="userSpaceOnUse">
<stop stop-color="#0198CA"/>
<stop offset="0.985677" stop-color="#1264FC"/>
</linearGradient>
</defs>
</svg>
