<svg width="256" height="256" viewBox="0 0 256 256" fill="none" xmlns="http://www.w3.org/2000/svg">
<g clip-path="url(#clip0_2043_35467)">
<path fill-rule="evenodd" clip-rule="evenodd" d="M104.425 42.3784C100.056 37.0733 93.5437 34 86.6712 34H29C22.3726 34 17 39.3726 17 46V58.1371V68.2V160C17 166.627 22.3726 172 29 172H229C235.627 172 241 166.627 241 160V70.1371C241 63.5097 235.627 58.1371 229 58.1371H117.404L104.425 42.3784Z" fill="#E6E6E6"/>
<mask id="mask0_2043_35467" style="mask-type:alpha" maskUnits="userSpaceOnUse" x="17" y="34" width="224" height="138">
<path fill-rule="evenodd" clip-rule="evenodd" d="M104.425 42.3784C100.056 37.0733 93.5437 34 86.6712 34H29C22.3726 34 17 39.3726 17 46V58.1371V68.2V160C17 166.627 22.3726 172 29 172H229C235.627 172 241 166.627 241 160V70.1371C241 63.5097 235.627 58.1371 229 58.1371H117.404L104.425 42.3784Z" fill="url(#paint0_linear_2043_35467)"/>
</mask>
<g mask="url(#mask0_2043_35467)">
<g style="mix-blend-mode:multiply" filter="url(#filter0_f_2043_35467)">
<path fill-rule="evenodd" clip-rule="evenodd" d="M92.789 74C97.7642 74 102.605 72.3868 106.586 69.4024L116.459 62H229C235.627 62 241 67.3726 241 74V108V160C241 166.627 235.627 172 229 172H29C22.3726 172 17 166.627 17 160L17 108V86C17 79.3726 22.3726 74 29 74H87H92.789Z" fill="black" fill-opacity="0.3"/>
</g>
</g>
<g filter="url(#filter1_ii_2043_35467)">
<path fill-rule="evenodd" clip-rule="evenodd" d="M92.789 74C97.7642 74 102.605 72.3868 106.586 69.4024L116.459 62H229C235.627 62 241 67.3726 241 74V108V198C241 204.627 235.627 210 229 210H29C22.3726 210 17 204.627 17 198L17 108V86C17 79.3726 22.3726 74 29 74H87H92.789Z" fill="url(#paint1_linear_2043_35467)"/>
</g>
<path d="M80 162.698L128.321 190.597L176.641 162.698V106.899L128.321 79L80 106.899V162.698Z" fill="#469EA2"/>
<path d="M123.373 85.671L88.2826 105.92C88.3401 106.551 88.3401 107.186 88.2826 107.818L123.315 128.066C124.755 127.001 126.499 126.427 128.291 126.427C130.082 126.427 131.826 127.001 133.267 128.066L168.299 107.818C168.241 107.186 168.241 106.551 168.299 105.92L133.324 85.671C131.883 86.7359 130.14 87.3107 128.348 87.3107C126.557 87.3107 124.813 86.7359 123.373 85.671ZM171.693 113.398L136.603 133.876C136.793 135.653 136.417 137.443 135.529 138.993C134.64 140.543 133.285 141.772 131.656 142.505L131.713 182.772C132.281 183.022 132.82 183.33 133.324 183.692L168.356 163.444C168.166 161.668 168.542 159.877 169.431 158.328C170.319 156.777 171.675 155.548 173.303 154.815V114.318C172.743 114.055 172.204 113.747 171.693 113.398ZM84.9462 113.628C84.4426 113.99 83.9028 114.298 83.3355 114.548V155.045C84.9842 155.753 86.3584 156.977 87.2507 158.533C88.1431 160.089 88.5052 161.894 88.2826 163.674L123.315 183.922C123.818 183.561 124.358 183.253 124.926 183.002V142.505C123.277 141.797 121.903 140.574 121.011 139.017C120.118 137.461 119.756 135.657 119.978 133.876L84.9462 113.628Z" fill="#6ACAD1"/>
<path d="M128.321 85.0405L171.521 110.006V159.879L128.321 184.845L85.1197 159.879V109.948L128.321 85.0405ZM128.321 79.1155L80 107.015V162.813L128.321 190.712L176.641 162.813V107.015L128.321 79.1155Z" fill="#469EA2"/>
<path d="M128.666 144.291H127.975C126.788 144.293 125.612 144.062 124.515 143.609C123.418 143.157 122.422 142.491 121.582 141.652C120.743 140.813 120.078 139.816 119.625 138.719C119.173 137.622 118.941 136.446 118.944 135.259V134.569C118.941 133.382 119.173 132.206 119.625 131.109C120.078 130.012 120.743 129.015 121.582 128.176C122.422 127.337 123.418 126.671 124.515 126.219C125.612 125.766 126.788 125.535 127.975 125.537H128.666C129.852 125.535 131.028 125.766 132.125 126.219C133.222 126.671 134.219 127.337 135.059 128.176C135.897 129.015 136.563 130.012 137.016 131.109C137.468 132.206 137.7 133.382 137.697 134.569V135.259C137.7 136.446 137.468 137.622 137.016 138.719C136.563 139.816 135.897 140.813 135.059 141.652C134.219 142.491 133.222 143.157 132.125 143.609C131.028 144.062 129.852 144.293 128.666 144.291ZM128.666 181.393H127.975C126.371 181.389 124.794 181.813 123.408 182.622C122.023 183.431 120.879 184.596 120.094 185.995L128.321 190.712L136.546 185.995C135.762 184.596 134.618 183.431 133.232 182.622C131.847 181.813 130.27 181.389 128.666 181.393ZM176.698 153.494H176.353C175.166 153.491 173.991 153.723 172.893 154.176C171.796 154.628 170.799 155.294 169.96 156.133C169.121 156.972 168.456 157.969 168.003 159.066C167.55 160.163 167.319 161.339 167.322 162.526V163.216C167.313 164.749 167.71 166.257 168.473 167.588L176.698 162.813V153.494ZM168.473 102.298C167.717 103.631 167.321 105.137 167.322 106.67V107.36C167.319 108.547 167.55 109.723 168.003 110.82C168.456 111.917 169.121 112.914 169.96 113.753C170.799 114.592 171.796 115.257 172.893 115.71C173.991 116.163 175.166 116.394 176.353 116.391H176.698V107.015L168.473 102.298ZM128.321 79.1155L120.094 83.8325C120.875 85.2398 122.017 86.4134 123.402 87.2325C124.788 88.0515 126.366 88.4862 127.975 88.492H128.666C130.27 88.4968 131.847 88.0727 133.232 87.2636C134.618 86.4545 135.762 85.2898 136.546 83.89L128.321 79.1155ZM88.226 102.24L80 107.015V116.391H80.3451C81.532 116.394 82.7078 116.163 83.8049 115.71C84.902 115.257 85.8988 114.592 86.738 113.753C87.5772 112.914 88.2424 111.917 88.6952 110.82C89.148 109.723 89.3795 108.547 89.3765 107.36V106.67C89.357 105.122 88.9622 103.602 88.226 102.24ZM80.3451 153.494H80V162.813L88.226 167.588C88.9811 166.254 89.3775 164.748 89.3765 163.216V162.526C89.3795 161.339 89.148 160.163 88.6952 159.066C88.2424 157.969 87.5772 156.972 86.738 156.133C85.8988 155.294 84.902 154.628 83.8049 154.176C82.7078 153.723 81.532 153.491 80.3451 153.494Z" fill="#469EA2"/>
<path d="M128.321 190.998V135.142L80 107.243V163.099L128.321 190.998Z" fill="#083B54" fill-opacity="0.15"/>
<path d="M176.695 162.581V106.783L128.375 134.682V190.538L176.695 162.581Z" fill="#083B54" fill-opacity="0.05"/>
</g>
<defs>
<filter id="filter0_f_2043_35467" x="-20" y="25" width="298" height="184" filterUnits="userSpaceOnUse" color-interpolation-filters="sRGB">
<feFlood flood-opacity="0" result="BackgroundImageFix"/>
<feBlend mode="normal" in="SourceGraphic" in2="BackgroundImageFix" result="shape"/>
<feGaussianBlur stdDeviation="18.5" result="effect1_foregroundBlur_2043_35467"/>
</filter>
<filter id="filter1_ii_2043_35467" x="17" y="62" width="224" height="148" filterUnits="userSpaceOnUse" color-interpolation-filters="sRGB">
<feFlood flood-opacity="0" result="BackgroundImageFix"/>
<feBlend mode="normal" in="SourceGraphic" in2="BackgroundImageFix" result="shape"/>
<feColorMatrix in="SourceAlpha" type="matrix" values="0 0 0 0 0 0 0 0 0 0 0 0 0 0 0 0 0 0 127 0" result="hardAlpha"/>
<feOffset dy="-4"/>
<feComposite in2="hardAlpha" operator="arithmetic" k2="-1" k3="1"/>
<feColorMatrix type="matrix" values="0 0 0 0 0 0 0 0 0 0 0 0 0 0 0 0 0 0 0.25 0"/>
<feBlend mode="normal" in2="shape" result="effect1_innerShadow_2043_35467"/>
<feColorMatrix in="SourceAlpha" type="matrix" values="0 0 0 0 0 0 0 0 0 0 0 0 0 0 0 0 0 0 127 0" result="hardAlpha"/>
<feOffset dy="4"/>
<feComposite in2="hardAlpha" operator="arithmetic" k2="-1" k3="1"/>
<feColorMatrix type="matrix" values="0 0 0 0 1 0 0 0 0 1 0 0 0 0 1 0 0 0 0.25 0"/>
<feBlend mode="normal" in2="effect1_innerShadow_2043_35467" result="effect2_innerShadow_2043_35467"/>
</filter>
<linearGradient id="paint0_linear_2043_35467" x1="17" y1="34" x2="197.768" y2="215.142" gradientUnits="userSpaceOnUse">
<stop stop-color="#05815D"/>
<stop offset="1" stop-color="#0C575F"/>
</linearGradient>
<linearGradient id="paint1_linear_2043_35467" x1="17" y1="62" x2="241" y2="210" gradientUnits="userSpaceOnUse">
<stop stop-color="#5F585E"/>
<stop offset="1" stop-color="#010101"/>
</linearGradient>
<clipPath id="clip0_2043_35467">
<rect width="256" height="256" fill="white"/>
</clipPath>
</defs>
</svg>
