<svg width="256" height="256" viewBox="0 0 256 256" fill="none" xmlns="http://www.w3.org/2000/svg">
<path fill-rule="evenodd" clip-rule="evenodd" d="M104.425 42.3784C100.056 37.0733 93.5437 34 86.6712 34H29C22.3726 34 17 39.3726 17 46V58.1371V68.2V160C17 166.627 22.3726 172 29 172H229C235.627 172 241 166.627 241 160V70.1371C241 63.5097 235.627 58.1371 229 58.1371H117.404L104.425 42.3784Z" fill="#18404A"/>
<mask id="mask0_657_15485" style="mask-type:alpha" maskUnits="userSpaceOnUse" x="17" y="34" width="224" height="138">
<path fill-rule="evenodd" clip-rule="evenodd" d="M104.425 42.3784C100.056 37.0733 93.5437 34 86.6712 34H29C22.3726 34 17 39.3726 17 46V58.1371V68.2V160C17 166.627 22.3726 172 29 172H229C235.627 172 241 166.627 241 160V70.1371C241 63.5097 235.627 58.1371 229 58.1371H117.404L104.425 42.3784Z" fill="url(#paint0_linear_657_15485)"/>
</mask>
<g mask="url(#mask0_657_15485)">
<g style="mix-blend-mode:multiply" filter="url(#filter0_f_657_15485)">
<path fill-rule="evenodd" clip-rule="evenodd" d="M92.789 74C97.7642 74 102.605 72.3868 106.586 69.4024L116.459 62H229C235.627 62 241 67.3726 241 74V108V160C241 166.627 235.627 172 229 172H29C22.3726 172 17 166.627 17 160L17 108V86C17 79.3726 22.3726 74 29 74H87H92.789Z" fill="black" fill-opacity="0.3"/>
</g>
</g>
<g filter="url(#filter1_ii_657_15485)">
<path fill-rule="evenodd" clip-rule="evenodd" d="M92.789 74C97.7642 74 102.605 72.3868 106.586 69.4024L116.459 62H229C235.627 62 241 67.3726 241 74V108V198C241 204.627 235.627 210 229 210H29C22.3726 210 17 204.627 17 198L17 108V86C17 79.3726 22.3726 74 29 74H87H92.789Z" fill="url(#paint1_linear_657_15485)"/>
</g>
<path fill-rule="evenodd" clip-rule="evenodd" d="M241 171.079V186.022C240.706 186.13 240.402 186.256 240.082 186.402C238.446 187.145 237.822 187.27 236.44 187.131C235.522 187.038 234.171 187.119 233.436 187.311C232.701 187.503 232.004 187.564 231.888 187.448C231.771 187.331 231.634 186.652 231.583 185.94C231.532 185.227 231.327 184.446 231.127 184.205C230.927 183.964 230.691 183.296 230.602 182.721C230.514 182.146 230.188 181.39 229.878 181.041C229.448 180.558 229.377 180.188 229.578 179.477C229.743 178.892 229.713 178.393 229.499 178.135C229.309 177.905 229.266 177.478 229.402 177.166C229.537 176.859 229.625 176.504 229.599 176.377C229.523 176.012 231.294 175.202 232.616 174.998C235.581 174.54 235.997 174.373 236.519 173.43C236.805 172.913 237.291 172.442 237.599 172.382C237.906 172.322 238.556 171.829 239.042 171.284C239.778 170.461 240.006 170.361 240.404 170.692C240.612 170.864 240.807 170.994 241 171.079ZM241 157.134V157.759C240.983 157.762 240.965 157.763 240.947 157.763C240.773 157.763 240.631 157.621 240.631 157.447C240.631 157.272 240.773 157.13 240.947 157.13C240.965 157.13 240.983 157.131 241 157.134ZM238.072 70.145C239.896 72.2499 241 74.996 241 78V104V112V127.399L240.664 127.76L240.459 126.944C240.347 126.496 240.348 125.977 240.463 125.791C240.692 125.421 239.926 124.509 239.387 124.509C239.046 124.509 238.956 124.217 238.965 123.133C238.969 122.67 238.796 122.583 238.138 122.714C236.136 123.114 236.041 123.099 235.937 122.371C235.877 121.945 235.615 121.659 235.287 121.659C234.678 121.659 232.713 123.535 232.713 124.117C232.713 124.613 233.755 125.142 234.732 125.142C235.947 125.142 236.021 125.684 234.952 126.753C234.035 127.67 233.99 127.829 234.138 129.641C234.249 131.003 234.472 131.712 234.906 132.089C235.499 132.604 235.501 132.656 234.954 133.869C234.088 135.789 231.635 138.336 230.42 138.577C229.852 138.69 228.82 139.05 228.127 139.378C227.433 139.706 226.726 139.888 226.555 139.783C226.207 139.567 224.299 139.64 223.449 139.9C222.532 140.182 222.808 143.332 223.821 144.145C224.369 144.585 225.107 146.109 225.17 146.932C225.26 148.117 224.385 149.461 223.354 149.72C222.692 149.886 222.283 149.654 220.983 148.379C220.119 147.531 219.412 146.649 219.412 146.42C219.411 146.153 219.101 146.039 218.548 146.103C217.613 146.212 216.713 147.518 217.178 148.091C217.325 148.272 217.627 149.031 217.849 149.778C218.07 150.525 218.563 151.471 218.943 151.881C219.99 153.011 221.095 154.918 220.846 155.167C220.725 155.288 220.213 154.889 219.709 154.279C219.204 153.67 218.525 152.886 218.199 152.538C217.048 151.309 216.806 150.446 216.372 146.032C216.127 143.547 215.502 142.428 214.622 142.899C213.977 143.244 213.394 143.059 213.394 142.509C213.394 142.327 213.051 141.77 212.632 141.273C212.214 140.775 211.814 140.197 211.744 139.989C211.675 139.78 210.699 139.498 209.576 139.361C207.581 139.118 207.514 139.134 206.634 140.06C206.138 140.581 205.182 141.355 204.509 141.78C203.283 142.554 202.582 143.481 202.401 144.57C202.348 144.891 202.091 145.457 201.831 145.828C201.572 146.199 201.359 146.694 201.359 146.928C201.359 147.599 199.207 149.728 198.895 149.366C198.746 149.195 198.435 148.27 198.203 147.312C197.971 146.354 197.447 145.074 197.037 144.467C196.627 143.861 196.292 142.97 196.292 142.488C196.292 142.006 196.152 141.611 195.981 141.611C195.81 141.611 195.58 141.254 195.471 140.817C195.35 140.335 194.973 139.947 194.515 139.832C194.092 139.726 193.758 139.407 193.758 139.11C193.758 138.521 191.357 136.381 190.212 135.949C189.811 135.798 188.707 135.581 187.759 135.466C185.429 135.185 184.621 134.974 183.24 134.282C182.594 133.958 181.694 133.693 181.24 133.693C179.935 133.693 179.194 133.123 178.551 131.622C177.944 130.206 177.603 130.002 175.547 129.819C174.441 129.721 174.418 130.171 175.42 132.249C175.751 132.935 176.022 133.754 176.022 134.07C176.022 134.496 176.266 134.644 176.972 134.644C177.767 134.644 177.922 134.769 177.922 135.413C177.922 136.967 179.785 137.799 180.456 136.544C180.843 135.821 182.04 135.682 182.04 136.36C182.04 136.607 182.538 137.117 183.148 137.494C183.758 137.871 184.253 138.346 184.248 138.549C184.233 139.208 182.042 141.305 180.677 141.967C179.946 142.322 179.134 142.721 178.873 142.855C178.611 142.988 177.614 143.272 176.656 143.485C175.698 143.699 174.616 144.018 174.252 144.194C173.889 144.37 173.181 144.466 172.68 144.408C171.933 144.322 171.73 144.113 171.554 143.242C171.435 142.659 170.837 141.661 170.225 141.025C169.612 140.39 168.888 139.37 168.615 138.761C168.343 138.151 167.36 136.227 166.431 134.485C165.003 131.807 164.624 131.318 163.973 131.318C162.888 131.318 162.817 132.237 163.803 133.529C164.332 134.223 164.621 135.004 164.621 135.742C164.621 136.369 164.841 137.219 165.111 137.631C165.38 138.042 165.667 138.743 165.747 139.187C165.828 139.632 166.32 140.462 166.841 141.032C167.402 141.647 167.788 142.417 167.788 142.924C167.788 143.62 167.993 143.847 168.896 144.145C169.506 144.346 170.016 144.678 170.03 144.882C170.044 145.086 170.08 145.823 170.11 146.52C170.161 147.75 170.193 147.784 171.192 147.688C171.758 147.633 172.222 147.735 172.222 147.914C172.222 148.606 173.391 148.895 174.325 148.435C174.823 148.189 175.644 147.886 176.15 147.762C177.054 147.539 177.066 147.554 176.858 148.596C176.741 149.179 176.526 149.734 176.38 149.83C176.234 149.926 175.915 150.387 175.672 150.855C175.184 151.797 172.657 154.752 170.066 157.411C167.776 159.762 167.4 160.728 167.936 162.891C168.165 163.816 168.688 165.475 169.099 166.578L169.846 168.584L168.579 169.662C167.883 170.254 167.063 170.741 166.758 170.744C166.454 170.746 166.204 170.891 166.204 171.065C166.204 171.239 166.006 171.382 165.763 171.382C165.125 171.382 164.924 172.149 165.144 173.751C165.33 175.107 165.297 175.179 164.187 175.833C163.555 176.206 163.114 176.634 163.206 176.783C163.299 176.933 162.807 178.184 162.114 179.563C160.355 183.061 157.415 185.243 155.079 184.784C154.621 184.693 154.149 184.777 154.031 184.968C153.72 185.471 153.046 185.397 152.555 184.805C151.959 184.087 150.997 181.404 150.468 178.983C150.373 178.547 150.12 178.049 149.906 177.874C149.25 177.342 148.565 175.73 148.381 174.287C148.284 173.533 147.989 172.677 147.725 172.385C146.879 171.45 146.764 168.931 147.455 166.452C147.995 164.514 148.024 164.069 147.667 163.127C147.441 162.529 146.881 161.052 146.422 159.846C145.964 158.64 145.359 157.485 145.078 157.28C144.662 156.976 144.606 156.546 144.772 154.951L144.977 152.995L144.053 152.81C143.544 152.709 142.839 152.356 142.486 152.027C142.133 151.698 141.711 151.429 141.548 151.429C141.385 151.429 141.17 151.215 141.07 150.954C140.831 150.332 139.302 150.343 138.402 150.973C137.651 151.499 136.213 151.413 134.311 150.728C133.541 150.451 133.101 150.453 132.475 150.738C130.879 151.465 129.865 151.211 128.36 149.706C127.587 148.933 126.871 147.971 126.77 147.569C126.668 147.166 126.098 146.518 125.502 146.128C123.925 145.096 123.463 144.012 123.782 142.086C123.926 141.215 124.053 139.676 124.063 138.666C124.085 136.539 124.621 135.309 126.299 133.535C126.958 132.838 127.594 131.948 127.711 131.556C127.829 131.164 128.054 130.843 128.212 130.843C128.83 130.843 130.493 128.698 131.159 127.043C131.499 126.196 131.668 125.739 131.994 125.533C132.391 125.282 133.022 125.402 134.478 125.641C135.572 125.82 136.089 125.73 137.045 125.193C138.022 124.643 138.867 124.505 141.655 124.435C144.884 124.355 145.081 124.387 145.318 125.023C145.475 125.445 145.4 126.02 145.118 126.564C144.433 127.884 144.532 127.993 146.414 127.993C147.375 127.993 148.408 128.114 148.71 128.263C149.013 128.412 149.933 128.749 150.754 129.012C152.153 129.46 152.283 129.453 152.783 128.9C153.375 128.246 153.902 128.164 154.728 128.599C156.252 129.403 157.674 129.883 158.942 130.02C159.714 130.104 160.738 130.268 161.218 130.386C161.699 130.505 162.485 130.438 162.965 130.24C164.434 129.631 165.779 126.376 165.012 125.287C164.614 124.723 162.32 124.187 160.662 124.271C159.116 124.349 159.076 124.328 158.971 123.4C158.912 122.878 158.731 122.29 158.57 122.095C158.002 121.408 158.638 120.841 160.985 119.945C163.193 119.103 163.467 119.067 165.017 119.418C168.016 120.099 168.404 120.148 169.209 119.946C170.44 119.637 170.191 118.666 168.421 116.878C167.55 115.997 166.838 115.018 166.838 114.701C166.838 114.13 166.25 113.741 165.386 113.741C165.096 113.741 164.937 114.085 164.937 114.713C164.937 115.54 164.831 115.67 164.225 115.584C163.76 115.518 163.476 115.228 163.408 114.751C163.351 114.348 163.101 113.941 162.852 113.845C162.166 113.582 160.926 114.543 160.678 115.53C160.558 116.011 160.184 116.597 159.848 116.832C159.483 117.088 159.237 117.631 159.237 118.18C159.237 119.322 158.151 120.392 156.994 120.392C156.094 120.392 155.753 120.872 155.753 122.141C155.753 123.256 155.285 123.341 154.197 122.425C153.553 121.883 153.053 121.027 152.728 119.909C152.287 118.392 152.087 118.143 150.811 117.525C150.027 117.146 149.163 116.495 148.891 116.08C148.264 115.124 147.202 115.066 147.202 115.988C147.202 117.046 148.341 118.362 149.889 119.089C151.418 119.808 151.588 120.091 150.854 120.7C150.598 120.912 150.401 121.179 150.416 121.293C150.576 122.501 149.584 122.677 149.287 121.494C149.177 121.055 148.769 120.32 148.382 119.862C147.554 118.883 144.613 115.958 144.457 115.958C144.397 115.958 143.817 116.243 143.167 116.591C142.517 116.94 141.528 117.225 140.969 117.225C139.947 117.225 138.967 118.122 138.967 119.06C138.967 119.482 138.197 120.425 137.87 120.403C137.777 120.397 137.561 120.392 137.39 120.392C137.219 120.392 136.773 120.997 136.397 121.738C135.683 123.146 135.21 123.623 134.787 123.361C134.648 123.276 134.131 123.444 133.638 123.735C132.808 124.225 132.668 124.227 131.747 123.75C130.534 123.123 130.131 122.426 130.156 121.002C130.166 120.405 130.109 119.552 130.029 119.105C129.949 118.659 130.005 117.964 130.154 117.56C130.4 116.896 130.555 116.847 131.767 117.048C133.923 117.404 134.69 117.559 135.019 117.249C135.225 117.054 135.257 116.677 135.351 116.052C135.604 114.368 135 113.014 133.922 112.848C133.562 112.792 133.266 112.565 133.266 112.342C133.266 111.717 134.385 110.574 134.998 110.574C136.165 110.574 137.72 109.483 140.817 106.49C143.87 103.539 144.035 103.314 144.035 102.078C144.035 100.231 144.847 100.647 145.11 102.63L145.311 104.149L147.391 104.343C149.005 104.494 149.642 104.425 150.24 104.033C150.732 103.71 151.346 103.596 151.944 103.715C153.009 103.928 153.227 103.701 153.713 101.865C154.041 100.627 154.081 100.597 155.455 100.597C156.831 100.597 156.864 100.573 156.966 99.4901C157.101 98.0696 157.448 97.6756 158.961 97.2221C160.754 96.6851 161.142 96.0922 160.178 95.3648C159.105 94.5558 158.013 94.4098 156.62 94.8896C155.168 95.39 155.041 95.2361 154.909 92.8033C154.826 91.2838 154.964 90.6944 155.761 89.181C156.902 87.0119 157.119 85.4732 156.308 85.3053C155.459 85.1298 153.895 87.071 154.325 87.7661C154.511 88.0676 152.094 90.621 151.622 90.621C151.305 90.621 150.677 92.5133 150.781 93.1568C150.824 93.4193 151.104 93.9855 151.405 94.415C151.996 95.2585 152.138 96.803 151.652 97.1031C151.488 97.205 150.885 98.1398 150.313 99.1804C149.74 100.221 149.114 101.072 148.92 101.072C148.396 101.072 147.518 99.9964 147.518 99.3545C147.518 98.5814 146.517 96.9552 146.041 96.9552C145.826 96.9552 145.536 97.1334 145.396 97.3511C145.257 97.5688 144.9 97.937 144.604 98.1692C144.136 98.5358 143.938 98.4614 143.099 97.604C142.569 97.061 142.134 96.2938 142.134 95.8991C142.134 95.5045 141.969 95.0163 141.767 94.8142C141.565 94.6121 141.426 93.7064 141.458 92.8008C141.52 91.029 141.716 90.7658 143.797 89.6573C144.977 89.0287 146.247 87.3868 146.726 85.8704C146.863 85.4349 147.24 84.8924 147.564 84.6648C147.887 84.4372 148.152 83.9814 148.152 83.6519C148.152 83.3225 148.835 82.226 149.67 81.2154C150.505 80.2047 151.437 78.8453 151.741 78.1945C152.345 76.9042 153.304 76.2124 154.078 76.5094C154.349 76.6134 155.3 76.2933 156.191 75.7982C157.409 75.1214 158.263 74.89 159.632 74.8661C161.694 74.83 161.991 75.281 160.765 76.5862L160.076 77.3192H161.217C162.057 77.3192 162.522 77.5283 162.98 78.111C163.418 78.6678 163.911 78.9028 164.641 78.9028C165.212 78.9028 165.95 79.1474 166.28 79.4464C166.61 79.7453 167.386 80.2798 168.004 80.634C168.763 81.0695 169.258 81.6649 169.531 82.4724C169.899 83.5619 169.879 83.7056 169.3 84.1112C168.951 84.3557 168.453 84.4745 168.194 84.3752C167.936 84.2758 167.611 84.3767 167.474 84.5993C167.125 85.163 165.417 84.3911 164.908 83.44C164.58 82.8281 163.645 82.3975 162.562 82.3601C162.388 82.3541 162.165 82.6783 162.067 83.0805C161.931 83.6413 162.116 83.9809 162.859 84.5372C163.926 85.3351 164.248 85.9298 164.282 87.1612C164.306 88.043 165.435 89.2504 166.204 89.2166C166.465 89.2052 166.726 88.8675 166.783 88.4662C166.845 88.0242 167.215 87.6115 167.72 87.4194C168.179 87.245 168.916 86.699 169.359 86.2061C170.084 85.3984 171.041 85.0861 173.251 84.9364C173.712 84.9051 173.48 84.061 172.855 83.4951C172.094 82.8063 172.043 81.9773 172.719 81.3007C173.454 80.5662 173.805 80.692 173.805 81.6898C173.805 83.4867 175.508 83.9589 176.391 82.4069C177.108 81.1466 181.089 79.2326 181.089 80.1483C181.089 80.8427 182.423 80.8508 183.158 80.1608C183.689 79.6614 184.128 79.5148 184.679 79.6531C185.279 79.8037 185.676 79.6197 186.443 78.8357C187.393 77.8643 187.484 77.838 188.747 78.175C189.47 78.3681 190.238 78.4584 190.454 78.3758C190.955 78.1834 191.214 77.2019 191.22 75.4774C191.222 74.7256 191.367 73.8435 191.542 73.5171C191.76 73.11 191.751 72.8571 191.515 72.7112C191.311 72.5847 191.567 72.2585 192.148 71.9049C192.685 71.5783 193.124 71.1665 193.124 70.9897C193.124 70.4822 194.903 70.6157 195.353 71.1568C195.66 71.5268 195.669 71.7343 195.391 72.012C194.862 72.5415 194.944 75.1003 195.527 76.2108C196.274 77.6341 196.331 80.2234 195.655 81.99C195.132 83.3573 194.994 83.4866 194.152 83.4023C192.722 83.2593 192.254 84.0362 192.924 85.4408C193.334 86.3004 193.588 86.5109 194.005 86.3366C194.304 86.2113 194.977 86.0152 195.5 85.9008C196.658 85.6474 198.508 83.0829 198.508 81.7323C198.508 80.6144 199.121 79.2195 199.611 79.2195C199.848 79.2195 200 79.9764 200.037 81.3433C200.069 82.5114 200.229 83.6004 200.392 83.7635C200.798 84.1696 202.942 83.1233 202.942 82.5189C202.942 82.2597 202.728 81.7206 202.466 81.321C202.204 80.9213 201.934 80.0098 201.865 79.2954C201.704 77.625 201.495 77.3151 200.577 77.3911C199.594 77.4724 198.252 76.7396 198.014 75.9927C197.483 74.3179 197.363 71.2775 197.798 70.5002C198.08 69.9972 198.156 70.0308 198.548 70.8292C198.787 71.3183 199.197 71.8137 199.459 71.9301C202.253 73.1754 202.467 73.3926 202.477 74.9936C202.49 77.0193 202.738 77.3989 203.745 76.9398C204.362 76.6587 204.527 76.346 204.53 75.4473C204.533 74.8221 204.612 74.0229 204.706 73.6714C204.827 73.2232 204.502 72.6122 203.618 71.6259C202.62 70.5126 202.421 70.1012 202.661 69.6521C202.828 69.3401 203.067 69.0742 203.191 69.0613C204.699 68.9045 205.588 68.3268 205.626 67.4781C205.631 67.3782 205.991 66.7724 206.426 66.1319C206.457 66.0865 206.488 66.0425 206.518 66H224.66C224.025 66.4062 223.528 66.8695 223.528 67.0673C223.528 67.2811 223.322 67.6626 223.069 67.9151C222.693 68.2917 222.683 68.4733 223.014 68.9266C223.393 69.4447 223.496 69.4301 224.666 68.6916C225.352 68.2585 226.103 67.675 226.336 67.3949C226.718 66.9347 226.869 66.9317 227.904 67.3641C228.533 67.6272 229.125 67.9462 229.218 68.0729C229.311 68.1996 229.851 68.6839 230.417 69.1491C231.214 69.8034 231.68 69.9587 232.476 69.8348C233.042 69.7467 234.385 69.8831 235.46 70.1378C237.065 70.5178 237.371 70.5744 238.072 70.145ZM181.99 66H183.326C183.117 66.2596 182.99 66.4696 182.99 66.587C182.99 66.7014 182.633 67.0285 182.198 67.3138C181.528 67.7528 181.406 67.7613 181.406 67.3689C181.406 67.1139 181.529 66.829 181.68 66.7359C181.777 66.6763 181.894 66.3865 181.99 66ZM97.4826 77.516C100.763 76.8321 103.874 75.4354 106.586 73.4024L116.459 66H120.215C120.153 66.161 120.136 66.3125 120.178 66.4225C120.228 66.5527 120.268 66.6488 120.243 66.7233C120.172 66.9389 119.557 66.9738 117.069 67.1315C115.89 67.2062 115.64 68.0716 116.684 68.4682C117.387 68.7357 117.48 68.9185 117.32 69.7187C117.169 70.4742 117.269 70.7262 117.836 71.0184C119.141 71.6911 119.965 72.6665 119.965 73.5401C119.965 74.5504 119.191 74.9745 118.621 74.277C117.717 73.1717 117.101 72.5687 116.877 72.5706C116.746 72.5717 116.388 73.0139 116.081 73.5531C115.736 74.1586 115.352 74.4679 115.075 74.3617C114.583 74.1731 113.827 74.8761 114.161 75.2106C114.276 75.3252 114.768 75.419 115.256 75.419C115.818 75.419 116.266 75.6507 116.481 76.0524C116.703 76.4672 117.144 76.6858 117.759 76.6858C118.466 76.6858 118.698 76.8325 118.698 77.2805C118.698 78.1 118.13 78.4977 116.41 78.8832C115.486 79.0902 114.491 79.625 113.731 80.323C113.066 80.9338 112.237 81.4349 111.889 81.4366C111.35 81.4395 110.103 82.8447 108.63 85.1089C108.506 85.2997 107.981 85.656 107.464 85.9007C106.815 86.2072 106.364 86.7759 106.011 87.7303C105.73 88.4919 105.17 89.3639 104.766 89.668C104.272 90.0407 104.088 90.4302 104.202 90.8634C104.432 91.7448 103.16 93.9334 102.379 93.9988C102.035 94.0277 101.292 93.9389 100.727 93.8017C100.25 93.6859 99.9066 93.6164 99.6213 93.4485C98.8204 92.977 98.4763 91.7295 96.9176 86.5038C96.6319 85.5458 96.2849 84.6265 96.1464 84.461C95.5384 83.7341 95.899 81.4619 96.8449 80.0604C97.7588 78.7063 97.9678 78.1476 97.4826 77.516ZM77.6711 78H84.4551C84.3994 78.3509 84.2887 78.664 84.1618 78.7908C83.9311 79.0216 84.2527 79.2835 85.2207 79.6532C85.9874 79.946 86.791 80.5206 87.0125 80.9344C87.2334 81.3471 87.9682 81.9024 88.6455 82.1685C89.5131 82.5093 89.8231 82.7929 89.6944 83.1281C89.594 83.3898 89.6752 83.9092 89.8749 84.2823C90.4468 85.351 89.7512 85.9299 88.0229 85.8237C86.342 85.7203 86.1373 86.0348 86.7254 87.8168C87.0505 88.8017 87.054 89.1359 86.7427 89.4429C86.4339 89.7474 86.2642 89.7119 85.9414 89.275C85.5096 88.6905 84.4933 88.5112 84.4933 89.0195C84.4933 89.1838 84.7913 89.527 85.1555 89.7821C85.5198 90.0373 85.7692 90.4951 85.7098 90.7995C85.6098 91.3117 85.5694 91.314 85.1689 90.8309C84.8497 90.4458 84.4335 90.357 83.5841 90.4928C82.4688 90.6712 82.392 90.6184 81.1622 88.828C79.9603 87.0781 79.8174 86.9756 78.5009 86.9173C75.5535 86.787 76.1041 84.2045 79.1412 83.9145C80.183 83.8151 80.218 83.7673 80.2281 82.4322C80.2338 81.6735 80.0681 80.8197 79.8599 80.535C79.5202 80.0704 79.3961 80.1094 78.6491 80.9154C77.8799 81.7453 77.7637 81.7782 77.117 81.3496C75.6928 80.4055 76.3667 79.5278 78.6064 79.4098C79.6357 79.3555 79.4907 78.7368 78.3523 78.3251C78.1107 78.2377 77.8738 78.1227 77.6711 78ZM71.6205 78H72.8248C73.0567 78.1504 73.0807 78.4035 72.9744 78.9355C72.8761 79.4266 72.9316 79.9123 73.0977 80.015C73.4222 80.2155 73.3545 81.2793 72.9943 81.6394C72.8737 81.7601 72.775 82.1913 72.775 82.5977C72.775 83.1952 72.6059 83.3367 71.8919 83.3367C71.4061 83.3367 70.4441 83.6266 69.7541 83.9808C69.064 84.3351 68.2132 84.5548 67.8634 84.4691C67.053 84.2705 66.1671 84.7789 66.6019 85.193C66.7746 85.3576 67.1891 85.5417 67.5231 85.6021C67.857 85.6626 68.1849 85.8762 68.2517 86.0767C68.3861 86.4803 66.6539 87.4539 65.8015 87.4539C64.251 87.4539 62.8218 89.802 62.4793 92.9122C62.3693 93.911 62.1468 94.8102 61.9848 94.9103C61.6101 95.1419 61.6134 96.0267 61.9912 96.6239C62.2383 97.0145 62.4023 97.0202 63.0734 96.661C64.2673 96.022 64.8573 96.4129 64.8573 97.8426C64.8573 99.2637 65.0997 99.6282 65.7085 99.1229C66.3797 98.5659 67.6141 99.2853 68.1378 100.539C68.5282 101.473 68.7671 101.635 70.0065 101.805C72.1963 102.105 73.1738 102.647 72.9338 103.429C72.8237 103.788 72.6719 104.295 72.5965 104.556C72.5157 104.836 72.9462 105.397 73.645 105.923L74.8306 106.815L75.5447 105.985C76.0541 105.392 76.2588 104.751 76.2588 103.747C76.2588 102.973 76.2715 102.304 76.2869 102.26C76.7003 101.093 76.7412 99.1929 76.3787 97.9885C76.0366 96.8516 76.014 96.0821 76.2749 94.4493C76.8407 90.909 76.8464 90.8932 77.4543 91.1959C77.7548 91.3456 78.8202 91.644 79.8218 91.859C80.9423 92.0996 81.6429 92.4139 81.6429 92.676C81.6429 92.9102 81.7946 93.1525 81.98 93.2143C82.1655 93.2761 82.3976 93.9266 82.496 94.6597C82.6522 95.8242 82.8504 96.0957 84.0635 96.8067C85.5904 97.7015 86.0768 97.6226 86.0768 96.4801C86.0768 95.4481 86.5994 95.2038 86.8313 96.1274C86.935 96.5406 87.5915 97.8197 88.2902 98.9699C88.989 100.12 89.5606 101.145 89.5606 101.248C89.5606 101.542 90.2922 102.137 91.3138 102.674C92.1459 103.111 92.2509 103.328 92.237 104.585C92.2152 106.571 90.9182 108.04 89.1873 108.04C88.5169 108.04 87.7069 107.877 87.3872 107.677C86.1832 106.925 83.5431 108.399 83.5431 109.824C83.5431 110.296 83.677 110.528 83.8778 110.404C84.0619 110.29 84.5311 110.277 84.9204 110.375C85.4323 110.503 85.6247 110.782 85.615 111.38C85.6041 112.061 85.8189 112.283 86.8291 112.634C88.6345 113.261 88.7954 113.542 87.9944 114.667C87.5452 115.297 87.0289 115.641 86.5303 115.641C85.6385 115.641 85.5785 115.408 86.2306 114.477C86.6492 113.879 86.6466 113.784 86.2066 113.615C85.3579 113.29 82.9816 114.92 80.4869 117.539C79.6805 118.386 78.8748 119.025 78.3724 119.218C78.061 119.338 77.834 119.785 77.8222 120.303C77.7647 122.804 77.6016 123.21 76.1064 124.571C74.0576 126.435 73.6288 127.359 73.8666 129.395C73.993 130.477 73.9114 131.397 73.6294 132.068C73.2037 133.08 73.1925 133.085 72.4865 132.513C71.8445 131.993 71.8137 131.848 72.1771 131.05C72.4228 130.511 72.4638 130.08 72.282 129.949C72.1177 129.831 71.8263 129.45 71.6345 129.101C71.1342 128.193 69.119 128.067 68.2258 128.889C67.659 129.411 67.18 129.496 65.2714 129.416C62.6069 129.303 61.2343 129.864 60.3642 131.422C59.3677 133.206 60.0375 137.37 61.3773 137.72C61.7236 137.81 62.0069 138.004 62.0069 138.149C62.0069 138.472 63.827 139.002 64.6998 138.933C65.0477 138.906 65.9299 138.486 66.6601 138C67.3904 137.515 68.1386 137.21 68.3228 137.324C68.8117 137.626 68.7322 138.622 68.1828 139.077C67.0484 140.019 67.8783 141.294 69.625 141.294C71.298 141.294 72.5581 142.521 72.3641 143.961C72.285 144.548 72.1346 145.167 72.03 145.336C71.6948 145.878 72.9777 146.757 73.7478 146.513C74.1336 146.391 74.9763 146.464 75.6205 146.677C76.6048 147.002 76.9484 146.982 77.7733 146.556C78.3131 146.277 79.0078 145.62 79.317 145.097C79.6262 144.573 79.9901 144.145 80.1256 144.145C80.4805 144.145 80.258 145.266 79.7917 145.828C79.5211 146.154 79.5015 146.371 79.7301 146.512C80.1843 146.793 81.4033 146.377 81.8277 145.797C82.0994 145.425 82.5059 145.377 83.7292 145.572C84.5849 145.708 85.8602 145.79 86.5632 145.754C88.0153 145.68 89.2764 146.477 90.0379 147.95C90.3964 148.643 90.9193 148.968 92.3277 149.373C94.4482 149.983 95.7371 151.055 96.5707 152.903C96.9697 153.787 97.4591 154.321 98.0637 154.532C98.5583 154.704 99.4764 155.296 100.104 155.847C101.193 156.803 101.302 156.832 102.498 156.473C104.27 155.942 105.783 156.31 106.781 157.514C107.239 158.067 107.613 158.66 107.613 158.833C107.613 159.006 107.923 159.478 108.302 159.881C108.963 160.585 108.972 160.675 108.515 162.118C108.116 163.38 107.924 163.609 107.322 163.542C106.83 163.487 106.552 163.661 106.438 164.096C106.347 164.445 106.123 164.731 105.94 164.731C105.757 164.731 105.697 164.82 105.806 164.929C105.915 165.039 105.769 165.573 105.482 166.117C105.196 166.661 104.857 167.959 104.729 169.001C104.472 171.102 103.487 172.332 102.06 172.332C101.586 172.332 101.09 172.643 100.759 173.147C100.415 173.672 100.023 173.909 99.6582 173.814C98.4833 173.507 98.1842 174.119 97.3376 178.566C97.1507 179.548 96.5628 180.566 96.1828 180.566C96.0051 180.566 95.5635 181.279 95.2016 182.15C94.8396 183.021 94.3545 183.733 94.1235 183.733C93.8925 183.733 93.3378 183.342 92.891 182.863C92.2041 182.126 92.0302 182.065 91.7663 182.467C91.5946 182.728 91.5235 183.441 91.6083 184.05C91.7048 184.744 91.557 185.573 91.2128 186.267C90.7679 187.164 90.4826 187.376 89.716 187.376C88.7132 187.376 88.2222 187.686 87.9074 188.518C87.8015 188.798 87.2588 189.119 86.7014 189.23C85.6969 189.431 85.6899 189.445 85.9048 190.878C86.1552 192.549 85.8652 193.05 84.2607 193.72C83.271 194.134 83.2021 194.252 83.3903 195.206C83.5026 195.777 83.6702 196.634 83.7626 197.11C83.8756 197.693 83.6463 198.521 83.0621 199.638C82.5845 200.551 82.0281 201.871 81.8257 202.57C81.3826 204.1 80.4992 204.445 80.1889 203.209C80.0735 202.749 79.6527 202.249 79.2538 202.097C78.5982 201.848 78.5318 201.63 78.5625 199.824C78.5812 198.726 78.4847 197.169 78.3481 196.364C78.161 195.263 78.2243 194.661 78.6044 193.926C79.2554 192.667 79.2616 190.588 78.6159 190.053C77.9961 189.538 78.1093 188.016 78.8621 186.742C79.1709 186.22 79.425 185.578 79.4267 185.317C79.4283 185.056 79.6423 184.434 79.9021 183.936C80.3751 183.029 81.1673 180.437 81.6118 178.341C81.8894 177.032 81.8001 173.034 81.4288 170.14C81.1795 168.198 81.1042 168.062 79.7426 167.106C78.0118 165.891 75.6254 162.604 75.6254 161.436C75.6254 161.245 75.091 160.64 74.4378 160.091C73.3685 159.194 73.2531 158.949 73.2805 157.637C73.2983 156.78 73.5207 155.947 73.8196 155.617C74.0995 155.308 74.4223 154.468 74.537 153.751C74.6822 152.842 75.011 152.25 75.6205 151.8C76.58 151.09 76.6101 150.285 75.7489 148.36C75.2975 147.351 75.2948 147.35 74.1896 147.812C73.1132 148.262 73.0571 148.248 72.1685 147.339C71.6658 146.825 71.169 146.49 71.0646 146.594C70.9602 146.699 70.8748 146.56 70.8748 146.285C70.8748 146.011 70.2404 145.385 69.4651 144.895C68.6898 144.404 67.885 143.684 67.6767 143.295C67.1831 142.373 64.8786 141.301 63.5007 141.353C62.3436 141.396 56.9396 138.993 56.9396 138.435C56.9396 138.266 56.7614 138.124 56.5437 138.121C56.0893 138.113 54.5971 136.095 54.2707 135.047C54.1499 134.659 53.57 133.765 52.9822 133.062C52.3943 132.358 51.677 131.25 51.3883 130.6C50.7924 129.259 49.5245 128.17 48.856 128.427C48.4695 128.575 48.4688 128.774 48.8509 129.857C49.2735 131.055 50.2009 132.72 50.6346 133.06C50.9912 133.339 51.2917 134.644 50.9995 134.644C50.3318 134.644 48.074 131.329 47.586 129.632C47.3016 128.643 46.6978 127.442 46.2442 126.963C45.7907 126.484 45.5386 126.092 45.6841 126.092C45.9236 126.092 45.0709 125.228 43.4506 123.828C42.6206 123.111 41.6041 121.82 41.4592 121.299C41.1904 120.332 40.8621 115.743 41.007 114.98C41.0926 114.53 41.0246 113.662 40.8559 113.051C40.6286 112.228 40.6661 111.662 41.0009 110.866C41.638 109.351 41.3687 108.706 39.3844 106.993C37.6556 105.5 37.2375 104.841 36.1837 101.948C35.8833 101.123 35.4423 100.286 35.2037 100.088C34.9651 99.89 34.77 99.5999 34.77 99.4433C34.77 99.2867 34.3947 98.5916 33.9361 97.8985C33.3021 96.9405 32.8948 96.6385 32.2369 96.6385C31.761 96.6385 31.0092 96.3535 30.5663 96.0051C30.1234 95.6567 29.4841 95.3717 29.1457 95.3717C28.2891 95.3717 26.6696 94.8288 24.7314 93.8919C23.8262 93.4543 22.9573 93.1756 22.8005 93.2726C22.6437 93.3695 22.5024 93.9032 22.4866 94.4585C22.4607 95.3719 22.0225 95.9873 21.389 96.0002C21.0125 96.0079 21.1104 95.2305 21.6482 93.9435C22.2632 92.4714 21.8399 91.8328 20.8833 92.7895C19.8683 93.8044 19.2958 95.1452 19.4756 96.086C19.5988 96.7304 19.4915 97.004 19.0498 97.1725C18.7503 97.2867 17.8595 97.9035 17 98.5867V90C17 83.3726 22.3726 78 29 78H32.032C32.7591 78.7225 33.427 78.7252 34.1797 78H45.0303C45.0412 78.0063 45.0521 78.0126 45.063 78.0189C45.4114 78.2207 46.1952 78.4684 46.8049 78.5694C47.6506 78.7095 47.9379 78.9249 48.0168 79.4784C48.0807 79.9261 48.4444 80.3193 48.9669 80.5056C49.4326 80.6716 50.1919 81.0202 50.6543 81.2803C51.9273 81.9964 52.3831 81.8685 53.4969 80.4825C54.4366 79.3132 54.6084 79.2281 55.6497 79.4153C56.272 79.5272 56.9525 79.7545 57.1619 79.9204C57.3713 80.0862 57.8113 80.1367 58.1397 80.0325C58.5056 79.9163 59.1867 80.1483 59.8991 80.6317C61.0262 81.3966 61.0728 81.4022 61.4391 80.8156C61.7119 80.3789 62.0503 80.2575 62.6569 80.3788C63.6861 80.5846 64.7418 79.4057 64.8485 78H66.5769C66.7435 78.1888 66.932 78.2974 67.1449 78.3289C67.5778 78.393 67.9375 78.8 68.1673 79.4856C68.7295 81.1628 69.4958 81.3837 70.5912 80.1844C71.0956 79.6322 71.5082 78.9279 71.5082 78.6193C71.5082 78.3361 71.5409 78.1332 71.6205 78ZM60.8069 78H62.9709C63.0995 78.1495 63.1475 78.2901 63.0577 78.3799C62.7339 78.7037 61.1157 78.6209 60.8984 78.2694C60.8431 78.1798 60.8137 78.0886 60.8069 78ZM50.1743 78H58.0831C57.8954 78.3115 57.6626 78.3686 57.2214 78.2861C56.0974 78.0757 53.4308 78.1162 52.3473 78.3602C51.7537 78.4939 51.1168 78.3923 50.1743 78ZM82.1687 206C81.8982 205.621 82.3664 204.687 82.9274 204.54C83.6392 204.354 84.3198 205.073 84.0636 205.741C84.0256 205.84 83.9346 205.927 83.8114 206H82.1687ZM66.2825 115.324C65.9932 116.195 65.7084 116.908 65.6495 116.908C65.5907 116.908 65.328 116.99 65.0658 117.091C64.5234 117.299 63.9072 116.362 63.9072 115.329C63.9072 114.961 64.1296 114.229 64.4015 113.704C64.6733 113.178 64.8515 112.437 64.7973 112.057C64.7165 111.489 64.4904 111.365 63.5277 111.365C62.8835 111.365 62.1709 111.177 61.9441 110.947C61.3089 110.302 62.795 109.19 63.8871 109.493C64.3336 109.617 65.1861 109.733 65.7815 109.751C66.6545 109.778 66.9178 109.946 67.1416 110.617C67.343 111.222 67.9363 111.682 69.3053 112.296C71.2328 113.161 71.6871 113.857 70.5581 114.216C70.2097 114.326 69.9246 114.616 69.9246 114.859C69.9246 115.303 68.9937 115.958 68.3619 115.958C68.1763 115.958 68.0244 115.63 68.0244 115.229C68.0244 114.525 67.5039 113.741 67.0364 113.741C66.911 113.741 66.5718 114.453 66.2825 115.324ZM58.4287 103.543C58.4638 104.013 58.5873 105.058 58.7031 105.864C58.8189 106.671 58.7826 107.565 58.6224 107.851C58.3627 108.315 58.2551 108.291 57.6297 107.625C57.244 107.215 56.9535 106.606 56.9841 106.272C57.1169 104.827 56.9166 104.174 56.2908 104.011C55.3989 103.777 55.6357 102.917 56.7371 102.389C57.8082 101.875 58.3308 102.232 58.4287 103.543ZM50.0512 93.0115C51.3838 93.3357 51.2112 93.7215 48.8693 95.6536C48.0015 96.3695 47.0395 96.9552 46.7315 96.9552C46.0074 96.9552 46.0029 96.0474 46.7257 95.7807C47.5981 95.4588 47.7594 95.003 47.5566 93.4328C47.3338 91.7082 47.861 91.0956 48.6694 92.1398C48.9504 92.5027 49.5721 92.8949 50.0512 93.0115ZM44.6671 87.0106C44.5365 87.2023 44.1183 87.523 43.7378 87.7232C42.5545 88.3461 42.1972 88.0136 42.8989 86.9426C43.4091 86.1639 43.3282 86.079 42.1637 86.1707C40.4412 86.3065 41.3909 84.9427 43.9648 83.5843C45.143 82.9625 45.5971 82.8775 46.4985 83.1103C47.8635 83.4627 48.3884 83.8821 48.3884 84.6203C48.3884 84.9708 48.115 85.2322 47.6838 85.2941C47.2962 85.3498 46.8139 85.728 46.612 86.1346C46.0038 87.3591 45.5569 87.6775 45.2082 87.1346C44.999 86.809 44.8308 86.7705 44.6671 87.0106ZM179.617 119.518C180.483 120.454 180.992 123.508 180.449 124.522C180.029 125.308 178.066 125.366 177.007 124.624C176.376 124.183 176.293 123.916 176.439 122.82C176.587 121.717 176.48 121.384 175.684 120.477C175.173 119.895 174.755 119.161 174.755 118.846C174.755 118.53 174.47 117.943 174.122 117.541C173.348 116.649 173.321 115.864 174.025 114.672C174.46 113.935 174.943 113.678 176.59 113.302C178.454 112.876 178.7 112.884 179.617 113.394C180.485 113.877 180.627 114.143 180.711 115.435L180.808 116.921L179.524 116.716C178.302 116.52 177.762 116.893 178.556 117.383C178.73 117.491 178.873 117.834 178.873 118.147C178.873 118.46 179.207 119.077 179.617 119.518ZM187.058 114.157C187.49 114.677 187.193 116.765 186.52 117.937C185.86 119.088 185.205 119.034 184.336 117.757C183.463 116.476 183.453 116.083 184.253 114.77C184.728 113.991 185.103 113.741 185.797 113.741C186.3 113.741 186.868 113.928 187.058 114.157ZM171.724 175.034C171.998 175.452 172.222 176.012 172.222 176.28C172.222 176.855 172.442 176.877 173.722 176.431C174.637 176.112 175.171 175.07 175.498 172.965C175.538 172.704 175.956 171.685 176.425 170.7C176.894 169.716 177.316 168.433 177.363 167.85C177.438 166.912 177.35 166.778 176.607 166.692C175.648 166.581 174.755 167.577 174.755 168.756C174.755 169.341 174.494 169.538 173.33 169.831C171.847 170.205 171.806 170.264 171.895 171.915C171.925 172.469 171.787 173.227 171.588 173.599C171.302 174.133 171.331 174.434 171.724 175.034ZM238.889 165.364C238.628 165.364 238.414 165.502 238.414 165.671C238.414 165.84 238.628 165.896 238.889 165.796C239.497 165.562 239.497 165.364 238.889 165.364ZM223.978 163.359C223.597 163.506 224.154 163.794 225.773 164.288C227.855 164.923 228.32 165.085 228.588 164.923C228.688 164.862 228.76 164.756 228.88 164.612C229.169 164.264 229.022 164.071 228.158 163.662C227.046 163.134 224.959 162.983 223.978 163.359ZM234.434 161.597C234.338 161.753 234.347 162.023 234.455 162.197C234.702 162.597 235.247 162.611 235.247 162.219C235.247 162.056 235.532 161.833 235.88 161.722C236.666 161.473 236.744 159.939 236.008 159.203C235.416 158.611 235.671 157.615 236.348 157.875C236.602 157.973 236.885 157.931 236.977 157.783C237.134 157.528 236.463 157.13 235.877 157.13C235.34 157.13 234.613 158.144 234.613 158.894C234.613 159.367 234.43 159.664 234.138 159.664C233.519 159.664 233.518 160.894 234.136 161.132C234.397 161.232 234.531 161.441 234.434 161.597ZM220.085 160.287C220.369 160.292 220.783 160.517 221.006 160.785C221.239 161.066 221.53 161.155 221.689 160.996C222.045 160.641 220.957 158.088 220.165 157.418C219.117 156.533 215.254 154.531 215.033 154.758C214.915 154.879 215.553 155.64 216.45 156.45C217.348 157.259 218.188 158.277 218.318 158.712C218.586 159.612 219.327 160.272 220.085 160.287ZM226.573 157.19C226.245 158.83 226.332 158.98 227.883 159.434C228.863 159.722 229.526 159.77 229.783 159.572C230.041 159.375 230.331 159.395 230.613 159.629C230.955 159.913 231.225 159.757 231.884 158.892C233.015 157.41 233.258 154.644 232.344 153.663C231.742 153.017 231.699 153.014 230.766 153.56C230.238 153.869 229.67 154.375 229.502 154.684C229.334 154.994 228.65 155.466 227.982 155.734C227.04 156.111 226.723 156.438 226.573 157.19ZM237.966 151.176C237.047 151.308 237.137 152.149 238.097 152.396C238.533 152.508 239.018 152.485 239.176 152.345C239.624 151.948 238.714 151.069 237.966 151.176ZM201.324 150.208C201.174 150.444 201.05 150.816 201.047 151.033C201.04 151.58 201.656 151.532 201.872 150.969C202.13 150.296 201.672 149.659 201.324 150.208ZM235.281 143.332C234.986 143.514 234.948 144.913 235.218 145.649C235.27 145.793 236.514 145.731 236.514 145.585C236.514 145.164 235.738 143.828 235.494 143.828C235.337 143.828 235.311 143.664 235.435 143.462C235.578 143.231 235.522 143.183 235.281 143.332ZM101.795 141.144C101.696 141.401 101.702 141.836 101.807 142.111C101.978 142.556 102.051 142.558 102.476 142.133C102.901 141.709 102.899 141.603 102.463 141.167C102.037 140.74 101.951 140.737 101.795 141.144ZM226.239 141.294C225.988 141.294 225.695 141.437 225.587 141.611C225.479 141.785 225.685 141.928 226.043 141.928C226.402 141.928 226.696 141.785 226.696 141.611C226.696 141.437 226.49 141.294 226.239 141.294ZM84.9496 139.394C84.6781 139.394 84.544 139.537 84.6516 139.711C84.7593 139.885 84.9815 140.028 85.1454 140.028C85.3093 140.028 85.4434 139.885 85.4434 139.711C85.4434 139.537 85.2212 139.394 84.9496 139.394ZM81.859 138.266C81.2679 138.037 79.7426 138.66 79.7426 139.131C79.7426 139.56 81.1552 139.431 81.8199 138.942C82.4062 138.51 82.408 138.479 81.859 138.266ZM235.247 138.127C235.073 138.127 234.93 138.341 234.93 138.602C234.93 138.864 235.073 139.077 235.247 139.077C235.421 139.077 235.563 138.864 235.563 138.602C235.563 138.341 235.421 138.127 235.247 138.127ZM74.8304 137.08C75.6037 137.205 75.9421 137.427 75.9421 137.808C75.9421 138.295 76.1016 138.32 77.3673 138.03C78.1512 137.851 78.7925 137.542 78.7925 137.345C78.7925 137.147 78.0443 136.717 77.1298 136.389C76.2153 136.061 75.2659 135.592 75.0201 135.348C74.5958 134.926 73.36 134.938 71.6665 135.38C71.3182 135.471 70.9262 135.556 70.7956 135.569C70.665 135.583 70.5581 135.727 70.5581 135.891C70.5581 136.054 71.0321 136.11 71.6114 136.016C72.3484 135.897 72.8231 136.004 73.1917 136.372C73.4816 136.662 74.219 136.98 74.8304 137.08ZM147.965 122.609C147.904 122.609 147.937 122.822 148.037 123.084C148.137 123.345 148.364 123.559 148.541 123.559C148.727 123.559 148.696 123.358 148.468 123.084C148.252 122.822 148.025 122.609 147.965 122.609ZM143.842 120.708C143.774 120.708 143.718 120.922 143.718 121.183C143.718 121.445 143.856 121.659 144.025 121.659C144.193 121.659 144.249 121.445 144.149 121.183C144.049 120.922 143.911 120.708 143.842 120.708ZM91.8157 111.025C91.9714 110.929 92.1842 111.073 92.2887 111.345C92.6303 112.235 94.6279 111.858 94.6279 110.903C94.6279 110.306 92.9252 108.357 92.4036 108.357C92.2283 108.357 91.8079 108.812 91.4692 109.369C91.0187 110.11 90.9446 110.492 91.193 110.791C91.3798 111.016 91.66 111.121 91.8157 111.025ZM134.037 106.255C134.014 106.627 133.894 107.43 133.77 108.04C133.646 108.65 133.661 108.983 133.802 108.782C133.944 108.58 134.629 108.312 135.326 108.186C136.022 108.06 136.77 107.816 136.988 107.643C137.519 107.222 137.491 105.989 136.94 105.532C136.696 105.329 136.401 104.787 136.286 104.327C136.17 103.867 135.715 103.061 135.273 102.536C134.643 101.788 134.508 101.353 134.643 100.517C134.738 99.9316 134.737 99.2468 134.641 98.9956C134.426 98.4347 133.079 98.3916 132.739 98.9346C132.269 99.6835 132.274 100.865 132.748 101.131C133.006 101.275 133.311 101.82 133.425 102.341C133.54 102.863 133.769 103.289 133.935 103.289C134.446 103.289 134.812 104.671 134.428 105.147C134.236 105.385 134.06 105.884 134.037 106.255ZM131.42 103.132C131.149 102.861 129.851 104.777 129.635 105.768H129.635L129.405 106.821L130.351 106.332C131.123 105.932 131.32 105.604 131.421 104.549C131.489 103.838 131.488 103.201 131.42 103.132ZM35.0867 103.131C34.9125 103.023 34.77 103.157 34.77 103.429C34.77 103.701 34.9125 103.923 35.0867 103.923C35.2609 103.923 35.4034 103.789 35.4034 103.625C35.4034 103.461 35.2609 103.239 35.0867 103.131ZM33.1677 100.122C32.9832 100.122 32.9204 100.265 33.0281 100.439C33.1357 100.613 33.2866 100.756 33.3635 100.756C33.4403 100.756 33.5031 100.613 33.5031 100.439C33.5031 100.265 33.3522 100.122 33.1677 100.122ZM70.3318 86.395C69.3658 87.6021 69.4273 88.1109 70.6427 88.9662L71.6665 89.6868L72.1924 89.0454C72.4816 88.6927 73.016 88.4041 73.38 88.4041C73.8596 88.4041 74.0419 88.2034 74.0419 87.6754C74.0419 87.1205 73.6854 86.7736 72.5472 86.2206L71.0525 85.4944L70.3318 86.395ZM120.44 88.1018C121.136 88.1968 121.992 88.4419 122.34 88.6464C123.228 89.1679 123.234 89.1663 124.765 87.8932C126.707 86.2783 126.8 86.0113 125.761 85.0467C124.99 84.3317 124.689 84.2489 123.466 84.416C122.691 84.5218 121.958 84.7691 121.837 84.9655C121.673 85.2301 121.346 85.2284 120.573 84.9589C119.242 84.4951 118.949 84.8044 119.073 86.54C119.171 87.8992 119.2 87.9327 120.44 88.1018ZM176.816 78.7876C176.555 78.8874 176.423 79.0991 176.521 79.2579C176.726 79.59 177.289 79.3234 177.289 78.894C177.289 78.7356 177.076 78.6877 176.816 78.7876ZM180.304 74.7308C180.823 74.7877 181.383 74.9659 181.549 75.1267C181.714 75.2874 181.966 75.419 182.109 75.419C182.372 75.419 182.327 75.0899 181.728 72.6352C181.518 71.7699 181.506 71.0739 181.696 70.7181C181.923 70.2946 181.84 70.0629 181.355 69.7597C180.813 69.4213 180.648 69.4483 180.279 69.9349C180.039 70.2512 179.838 70.7838 179.833 71.1185C179.827 71.4531 179.583 71.9919 179.29 72.3157C178.479 73.2113 179.06 74.5944 180.304 74.7308Z" fill="url(#paint2_linear_657_15485)"/>
<g filter="url(#filter2_d_657_15485)">
<path d="M95 74H69.4376C71.4131 75.288 72.384 76.473 74.3448 78H98.5947C97 76.5 97 76 95 74Z" fill="#FDF095"/>
</g>
<g filter="url(#filter3_d_657_15485)">
<path d="M151.377 66H133.286C126.721 147.355 85.0201 188.69 67.8896 206H86.1249C109.801 182.924 146.14 137.585 151.377 66Z" fill="url(#paint3_linear_657_15485)"/>
</g>
<path d="M81.9169 210H64C65.0821 208.843 66.392 207.513 67.8897 206H86.1249C84.6711 207.417 83.2651 208.75 81.9169 210Z" fill="#D0A713"/>
<path d="M151.636 62H133.578C133.49 63.344 133.393 64.6773 133.286 66H151.377C151.474 64.6757 151.561 63.3423 151.636 62Z" fill="#FDF095"/>
<g filter="url(#filter4_d_657_15485)">
<path d="M137.975 162.107L118.504 167.917L156.661 191.628L168.438 152.529L153.991 157.711C137 115 109 88.3999 98 77.3999C98 77.3999 95.5 78 93.2188 78H74.4376C115.5 112.5 132.322 151.116 137.975 162.107Z" fill="url(#paint4_linear_657_15485)"/>
</g>
<defs>
<filter id="filter0_f_657_15485" x="-20" y="25" width="298" height="184" filterUnits="userSpaceOnUse" color-interpolation-filters="sRGB">
<feFlood flood-opacity="0" result="BackgroundImageFix"/>
<feBlend mode="normal" in="SourceGraphic" in2="BackgroundImageFix" result="shape"/>
<feGaussianBlur stdDeviation="18.5" result="effect1_foregroundBlur_657_15485"/>
</filter>
<filter id="filter1_ii_657_15485" x="17" y="62" width="224" height="148" filterUnits="userSpaceOnUse" color-interpolation-filters="sRGB">
<feFlood flood-opacity="0" result="BackgroundImageFix"/>
<feBlend mode="normal" in="SourceGraphic" in2="BackgroundImageFix" result="shape"/>
<feColorMatrix in="SourceAlpha" type="matrix" values="0 0 0 0 0 0 0 0 0 0 0 0 0 0 0 0 0 0 127 0" result="hardAlpha"/>
<feOffset dy="4"/>
<feComposite in2="hardAlpha" operator="arithmetic" k2="-1" k3="1"/>
<feColorMatrix type="matrix" values="0 0 0 0 1 0 0 0 0 1 0 0 0 0 1 0 0 0 0.25 0"/>
<feBlend mode="normal" in2="shape" result="effect1_innerShadow_657_15485"/>
<feColorMatrix in="SourceAlpha" type="matrix" values="0 0 0 0 0 0 0 0 0 0 0 0 0 0 0 0 0 0 127 0" result="hardAlpha"/>
<feOffset dy="-4"/>
<feComposite in2="hardAlpha" operator="arithmetic" k2="-1" k3="1"/>
<feColorMatrix type="matrix" values="0 0 0 0 0 0 0 0 0 0 0 0 0 0 0 0 0 0 0.9 0"/>
<feBlend mode="soft-light" in2="effect1_innerShadow_657_15485" result="effect2_innerShadow_657_15485"/>
</filter>
<filter id="filter2_d_657_15485" x="67.8674" y="73.686" width="32.2976" height="7.14049" filterUnits="userSpaceOnUse" color-interpolation-filters="sRGB">
<feFlood flood-opacity="0" result="BackgroundImageFix"/>
<feColorMatrix in="SourceAlpha" type="matrix" values="0 0 0 0 0 0 0 0 0 0 0 0 0 0 0 0 0 0 127 0" result="hardAlpha"/>
<feOffset dy="1.2562"/>
<feGaussianBlur stdDeviation="0.785123"/>
<feComposite in2="hardAlpha" operator="out"/>
<feColorMatrix type="matrix" values="0 0 0 0 0 0 0 0 0 0 0 0 0 0 0 0 0 0 0.5 0"/>
<feBlend mode="normal" in2="BackgroundImageFix" result="effect1_dropShadow_657_15485"/>
<feBlend mode="normal" in="SourceGraphic" in2="effect1_dropShadow_657_15485" result="shape"/>
</filter>
<filter id="filter3_d_657_15485" x="63.8896" y="66" width="91.4878" height="148" filterUnits="userSpaceOnUse" color-interpolation-filters="sRGB">
<feFlood flood-opacity="0" result="BackgroundImageFix"/>
<feColorMatrix in="SourceAlpha" type="matrix" values="0 0 0 0 0 0 0 0 0 0 0 0 0 0 0 0 0 0 127 0" result="hardAlpha"/>
<feOffset dy="4"/>
<feGaussianBlur stdDeviation="2"/>
<feComposite in2="hardAlpha" operator="out"/>
<feColorMatrix type="matrix" values="0 0 0 0 0 0 0 0 0 0 0 0 0 0 0 0 0 0 0.25 0"/>
<feBlend mode="normal" in2="BackgroundImageFix" result="effect1_dropShadow_657_15485"/>
<feBlend mode="normal" in="SourceGraphic" in2="effect1_dropShadow_657_15485" result="shape"/>
</filter>
<filter id="filter4_d_657_15485" x="70.4376" y="77.3999" width="102" height="122.228" filterUnits="userSpaceOnUse" color-interpolation-filters="sRGB">
<feFlood flood-opacity="0" result="BackgroundImageFix"/>
<feColorMatrix in="SourceAlpha" type="matrix" values="0 0 0 0 0 0 0 0 0 0 0 0 0 0 0 0 0 0 127 0" result="hardAlpha"/>
<feOffset dy="4"/>
<feGaussianBlur stdDeviation="2"/>
<feComposite in2="hardAlpha" operator="out"/>
<feColorMatrix type="matrix" values="0 0 0 0 0 0 0 0 0 0 0 0 0 0 0 0 0 0 0.25 0"/>
<feBlend mode="normal" in2="BackgroundImageFix" result="effect1_dropShadow_657_15485"/>
<feBlend mode="normal" in="SourceGraphic" in2="effect1_dropShadow_657_15485" result="shape"/>
</filter>
<linearGradient id="paint0_linear_657_15485" x1="17" y1="34" x2="197.768" y2="215.142" gradientUnits="userSpaceOnUse">
<stop stop-color="#05815D"/>
<stop offset="1" stop-color="#0C575F"/>
</linearGradient>
<linearGradient id="paint1_linear_657_15485" x1="17" y1="62" x2="241" y2="210" gradientUnits="userSpaceOnUse">
<stop stop-color="#2D7586"/>
<stop offset="1" stop-color="#183F49"/>
</linearGradient>
<linearGradient id="paint2_linear_657_15485" x1="17" y1="62" x2="241" y2="210" gradientUnits="userSpaceOnUse">
<stop stop-color="#32C990"/>
<stop offset="1" stop-color="#0099A6"/>
</linearGradient>
<linearGradient id="paint3_linear_657_15485" x1="107.983" y1="61.7686" x2="107.983" y2="210" gradientUnits="userSpaceOnUse">
<stop stop-color="#F7E774"/>
<stop offset="0.458333" stop-color="#EDC919"/>
<stop offset="1" stop-color="#E9BA12"/>
</linearGradient>
<linearGradient id="paint4_linear_657_15485" x1="111.438" y1="61.7686" x2="111.438" y2="191.628" gradientUnits="userSpaceOnUse">
<stop stop-color="#F7E774"/>
<stop offset="0.458333" stop-color="#EDC919"/>
<stop offset="1" stop-color="#E9BA12"/>
</linearGradient>
</defs>
</svg>
