<svg width="256" height="256" viewBox="0 0 256 256" fill="none" xmlns="http://www.w3.org/2000/svg">
<path fill-rule="evenodd" clip-rule="evenodd" d="M104.425 42.3784C100.056 37.0733 93.5437 34 86.6712 34H29C22.3726 34 17 39.3726 17 46V58.1371V68.2V160C17 166.627 22.3726 172 29 172H229C235.627 172 241 166.627 241 160V70.1371C241 63.5097 235.627 58.1371 229 58.1371H117.404L104.425 42.3784Z" fill="#E6E6E6"/>
<mask id="mask0_843_29707" style="mask-type:alpha" maskUnits="userSpaceOnUse" x="17" y="34" width="224" height="138">
<path fill-rule="evenodd" clip-rule="evenodd" d="M104.425 42.3784C100.056 37.0733 93.5437 34 86.6712 34H29C22.3726 34 17 39.3726 17 46V58.1371V68.2V160C17 166.627 22.3726 172 29 172H229C235.627 172 241 166.627 241 160V70.1371C241 63.5097 235.627 58.1371 229 58.1371H117.404L104.425 42.3784Z" fill="url(#paint0_linear_843_29707)"/>
</mask>
<g mask="url(#mask0_843_29707)">
<g style="mix-blend-mode:multiply" filter="url(#filter0_f_843_29707)">
<path fill-rule="evenodd" clip-rule="evenodd" d="M92.789 74C97.7642 74 102.605 72.3868 106.586 69.4024L116.459 62H229C235.627 62 241 67.3726 241 74V108V160C241 166.627 235.627 172 229 172H29C22.3726 172 17 166.627 17 160L17 108V86C17 79.3726 22.3726 74 29 74H87H92.789Z" fill="black" fill-opacity="0.3"/>
</g>
</g>
<g filter="url(#filter1_ii_843_29707)">
<path fill-rule="evenodd" clip-rule="evenodd" d="M92.789 74C97.7642 74 102.605 72.3868 106.586 69.4024L116.459 62H229C235.627 62 241 67.3726 241 74V108V198C241 204.627 235.627 210 229 210H29C22.3726 210 17 204.627 17 198L17 108V86C17 79.3726 22.3726 74 29 74H87H92.789Z" fill="url(#paint1_linear_843_29707)"/>
</g>
<path d="M105.456 171.024L85.3359 118.114C84.0779 114.81 83.6294 111.253 84.0278 107.74C84.4262 104.228 85.66 100.862 87.6259 97.9234C89.5919 94.9852 92.2328 92.5605 95.3279 90.8522C98.4229 89.1438 101.882 88.2015 105.416 88.104C110.177 87.9818 114.85 89.3988 118.741 92.1444C122.633 94.89 125.535 98.8177 127.016 103.344L144.626 157.134C148.176 167.984 109.436 181.504 105.456 171.024Z" fill="url(#paint2_linear_843_29707)"/>
<path d="M165.826 154.234L116.516 180.904C113.632 182.464 110.456 183.412 107.189 183.69C103.921 183.968 100.632 183.568 97.5252 182.517C94.4189 181.466 91.5627 179.786 89.1351 177.581C86.7075 175.376 84.7606 172.695 83.4161 169.704C82.0908 166.769 81.3723 163.596 81.3038 160.376C81.2352 157.157 81.8181 153.956 83.0173 150.968C84.2166 147.979 86.0075 145.263 88.2825 142.984C90.5575 140.705 93.2696 138.909 96.2561 137.704L148.256 116.704C152.554 114.969 157.311 114.728 161.762 116.019C166.214 117.31 170.103 120.059 172.806 123.824C174.533 126.219 175.729 128.955 176.315 131.85C176.9 134.744 176.861 137.731 176.2 140.609C175.54 143.487 174.272 146.191 172.483 148.541C170.695 150.89 168.425 152.831 165.826 154.234Z" fill="url(#paint3_linear_843_29707)"/>
<path d="M147.196 154.694L96.2761 130.084C93.0942 128.542 90.3274 126.262 88.2067 123.433C86.086 120.604 84.673 117.308 84.0857 113.822C83.4984 110.335 83.7539 106.759 84.8308 103.391C85.9077 100.024 87.7748 96.9626 90.2761 94.4638C93.6452 91.096 98.0132 88.9082 102.728 88.227C107.443 87.5457 112.251 88.4075 116.436 90.6838L166.136 117.684C170.944 120.301 174.528 124.707 176.111 129.948C177.695 135.188 177.15 140.842 174.596 145.684C172.087 150.444 167.828 154.043 162.716 155.724C157.605 157.405 152.04 157.036 147.196 154.694Z" fill="url(#paint4_linear_843_29707)"/>
<path d="M95.0961 181.834C91.7324 180.3 88.7668 178.011 86.429 175.147C84.0912 172.282 82.4438 168.918 81.6143 165.315C80.7848 161.712 80.7955 157.967 81.6455 154.368C82.4955 150.77 84.162 147.415 86.5161 144.564L129.596 92.5043C131.272 90.4738 133.569 89.0508 136.133 88.4545C138.697 87.8582 141.386 88.1216 143.786 89.2043C146.54 90.4458 148.728 92.6766 149.915 95.4548C151.102 98.2329 151.203 101.356 150.196 104.204L127.736 167.934C126.634 171.086 124.886 173.973 122.604 176.411C120.323 178.848 117.557 180.783 114.485 182.091C111.413 183.4 108.102 184.053 104.764 184.008C101.425 183.964 98.1323 183.224 95.0961 181.834Z" fill="url(#paint5_linear_843_29707)"/>
<path d="M99.0161 106.004H159.016V166.004H99.0161V106.004Z" fill="black"/>
<path d="M106.496 154.664H128.996V158.414H106.496V154.664Z" fill="white"/>
<path d="M112.546 117.994H105.676V113.414H124.376V117.994H117.506V135.984H112.546V117.994Z" fill="white"/>
<path d="M126.246 124.764V124.704C126.217 123.155 126.503 121.616 127.085 120.18C127.668 118.745 128.535 117.442 129.636 116.352C130.736 115.261 132.046 114.404 133.486 113.834C134.927 113.264 136.468 112.992 138.016 113.034C139.661 112.95 141.305 113.216 142.839 113.814C144.373 114.412 145.763 115.329 146.916 116.504L143.756 120.144C142.239 118.569 140.163 117.653 137.976 117.594C134.176 117.594 131.436 120.754 131.436 124.594V124.664C131.436 128.534 134.116 131.754 137.976 131.754C140.556 131.754 142.136 130.754 143.916 129.114L147.076 132.304C145.936 133.627 144.51 134.675 142.906 135.368C141.302 136.061 139.562 136.381 137.816 136.304C136.293 136.328 134.78 136.046 133.367 135.475C131.955 134.904 130.671 134.056 129.592 132.98C128.513 131.904 127.661 130.622 127.086 129.211C126.512 127.8 126.226 126.287 126.246 124.764Z" fill="white"/>
<defs>
<filter id="filter0_f_843_29707" x="-20" y="25" width="298" height="184" filterUnits="userSpaceOnUse" color-interpolation-filters="sRGB">
<feFlood flood-opacity="0" result="BackgroundImageFix"/>
<feBlend mode="normal" in="SourceGraphic" in2="BackgroundImageFix" result="shape"/>
<feGaussianBlur stdDeviation="18.5" result="effect1_foregroundBlur_843_29707"/>
</filter>
<filter id="filter1_ii_843_29707" x="17" y="62" width="224" height="148" filterUnits="userSpaceOnUse" color-interpolation-filters="sRGB">
<feFlood flood-opacity="0" result="BackgroundImageFix"/>
<feBlend mode="normal" in="SourceGraphic" in2="BackgroundImageFix" result="shape"/>
<feColorMatrix in="SourceAlpha" type="matrix" values="0 0 0 0 0 0 0 0 0 0 0 0 0 0 0 0 0 0 127 0" result="hardAlpha"/>
<feOffset dy="-4"/>
<feComposite in2="hardAlpha" operator="arithmetic" k2="-1" k3="1"/>
<feColorMatrix type="matrix" values="0 0 0 0 0 0 0 0 0 0 0 0 0 0 0 0 0 0 0.25 0"/>
<feBlend mode="normal" in2="shape" result="effect1_innerShadow_843_29707"/>
<feColorMatrix in="SourceAlpha" type="matrix" values="0 0 0 0 0 0 0 0 0 0 0 0 0 0 0 0 0 0 127 0" result="hardAlpha"/>
<feOffset dy="4"/>
<feComposite in2="hardAlpha" operator="arithmetic" k2="-1" k3="1"/>
<feColorMatrix type="matrix" values="0 0 0 0 1 0 0 0 0 1 0 0 0 0 1 0 0 0 0.25 0"/>
<feBlend mode="normal" in2="effect1_innerShadow_843_29707" result="effect2_innerShadow_843_29707"/>
</filter>
<linearGradient id="paint0_linear_843_29707" x1="17" y1="34" x2="197.768" y2="215.142" gradientUnits="userSpaceOnUse">
<stop stop-color="#05815D"/>
<stop offset="1" stop-color="#0C575F"/>
</linearGradient>
<linearGradient id="paint1_linear_843_29707" x1="17" y1="62" x2="241" y2="210" gradientUnits="userSpaceOnUse">
<stop stop-color="#5F585E"/>
<stop offset="1" stop-color="#010101"/>
</linearGradient>
<linearGradient id="paint2_linear_843_29707" x1="118.246" y1="146.474" x2="110.036" y2="122.174" gradientUnits="userSpaceOnUse">
<stop stop-color="#07C3F2"/>
<stop offset="1" stop-color="#6B57FF"/>
</linearGradient>
<linearGradient id="paint3_linear_843_29707" x1="115.446" y1="154.714" x2="144.866" y2="139.944" gradientUnits="userSpaceOnUse">
<stop stop-color="#07C3F2"/>
<stop offset="1" stop-color="#009AE5"/>
</linearGradient>
<linearGradient id="paint4_linear_843_29707" x1="152.746" y1="140.264" x2="104.066" y2="103.514" gradientUnits="userSpaceOnUse">
<stop stop-color="#009AE5"/>
<stop offset="1" stop-color="#6B57FF"/>
</linearGradient>
<linearGradient id="paint5_linear_843_29707" x1="102.306" y1="165.534" x2="135.466" y2="98.0043" gradientUnits="userSpaceOnUse">
<stop offset="0.3" stop-color="#07C3F2"/>
<stop offset="0.6" stop-color="#3BEA62"/>
</linearGradient>
</defs>
</svg>
