<svg width="256" height="256" viewBox="0 0 256 256" fill="none" xmlns="http://www.w3.org/2000/svg">
<path fill-rule="evenodd" clip-rule="evenodd" d="M104.425 42.3784C100.056 37.0733 93.5437 34 86.6712 34H29C22.3726 34 17 39.3726 17 46V58.1371V68.2V160C17 166.627 22.3726 172 29 172H229C235.627 172 241 166.627 241 160V70.1371C241 63.5097 235.627 58.1371 229 58.1371H117.404L104.425 42.3784Z" fill="#E6E6E6"/>
<mask id="mask0_841_29126" style="mask-type:alpha" maskUnits="userSpaceOnUse" x="17" y="34" width="224" height="138">
<path fill-rule="evenodd" clip-rule="evenodd" d="M104.425 42.3784C100.056 37.0733 93.5437 34 86.6712 34H29C22.3726 34 17 39.3726 17 46V58.1371V68.2V160C17 166.627 22.3726 172 29 172H229C235.627 172 241 166.627 241 160V70.1371C241 63.5097 235.627 58.1371 229 58.1371H117.404L104.425 42.3784Z" fill="url(#paint0_linear_841_29126)"/>
</mask>
<g mask="url(#mask0_841_29126)">
<g style="mix-blend-mode:multiply" filter="url(#filter0_f_841_29126)">
<path fill-rule="evenodd" clip-rule="evenodd" d="M92.789 74C97.7642 74 102.605 72.3868 106.586 69.4024L116.459 62H229C235.627 62 241 67.3726 241 74V108V160C241 166.627 235.627 172 229 172H29C22.3726 172 17 166.627 17 160L17 108V86C17 79.3726 22.3726 74 29 74H87H92.789Z" fill="black" fill-opacity="0.3"/>
</g>
</g>
<g filter="url(#filter1_ii_841_29126)">
<path fill-rule="evenodd" clip-rule="evenodd" d="M92.789 74C97.7642 74 102.605 72.3868 106.586 69.4024L116.459 62H229C235.627 62 241 67.3726 241 74V108V198C241 204.627 235.627 210 229 210H29C22.3726 210 17 204.627 17 198L17 108V86C17 79.3726 22.3726 74 29 74H87H92.789Z" fill="url(#paint1_linear_841_29126)"/>
</g>
<path d="M106.91 109.51L104.09 159.76L96.84 184L81 119.63L106.91 109.51Z" fill="url(#paint2_linear_841_29126)"/>
<path d="M106.91 109.51L109.82 88L148.5 184H96.8398L104.09 159.76L106.91 109.51Z" fill="url(#paint3_linear_841_29126)"/>
<path d="M129.35 152.55H177L161.07 88H109.82L129.35 152.55Z" fill="url(#paint4_linear_841_29126)"/>
<path d="M99 106.12H159V166.12H99V106.12Z" fill="black"/>
<path d="M106.48 154.78H128.98V158.53H106.48V154.78Z" fill="white"/>
<path d="M106.5 113.56H116.78C117.973 113.482 119.169 113.644 120.298 114.037C121.426 114.431 122.464 115.047 123.35 115.85C124.006 116.534 124.516 117.344 124.849 118.231C125.183 119.118 125.333 120.064 125.29 121.01V121.08C125.358 122.675 124.886 124.247 123.95 125.54C123.06 126.69 121.864 127.567 120.5 128.07L126.01 136.13H120.21L115.5 129.2H111.4V136.13H106.5V113.56ZM116.5 124.56C117.51 124.596 118.499 124.262 119.28 123.62C119.605 123.33 119.863 122.971 120.036 122.571C120.209 122.17 120.292 121.736 120.28 121.3V121.24C120.315 120.787 120.242 120.331 120.069 119.911C119.895 119.491 119.625 119.117 119.28 118.82C118.44 118.239 117.429 117.957 116.41 118.02H111.42V124.52L116.5 124.56Z" fill="white"/>
<path d="M141.66 121.01H136.5V116.46H141.62V111.38H146.3V116.46H151.5V121.01H146.34V126.09H141.66V121.01Z" fill="white"/>
<path d="M131.87 133.319H126.76V128.769H131.87V123.689H136.55V128.769H141.66V133.319H136.55V138.399H131.87V133.319Z" fill="white"/>
<defs>
<filter id="filter0_f_841_29126" x="-20" y="25" width="298" height="184" filterUnits="userSpaceOnUse" color-interpolation-filters="sRGB">
<feFlood flood-opacity="0" result="BackgroundImageFix"/>
<feBlend mode="normal" in="SourceGraphic" in2="BackgroundImageFix" result="shape"/>
<feGaussianBlur stdDeviation="18.5" result="effect1_foregroundBlur_841_29126"/>
</filter>
<filter id="filter1_ii_841_29126" x="17" y="62" width="224" height="148" filterUnits="userSpaceOnUse" color-interpolation-filters="sRGB">
<feFlood flood-opacity="0" result="BackgroundImageFix"/>
<feBlend mode="normal" in="SourceGraphic" in2="BackgroundImageFix" result="shape"/>
<feColorMatrix in="SourceAlpha" type="matrix" values="0 0 0 0 0 0 0 0 0 0 0 0 0 0 0 0 0 0 127 0" result="hardAlpha"/>
<feOffset dy="-4"/>
<feComposite in2="hardAlpha" operator="arithmetic" k2="-1" k3="1"/>
<feColorMatrix type="matrix" values="0 0 0 0 0 0 0 0 0 0 0 0 0 0 0 0 0 0 0.25 0"/>
<feBlend mode="normal" in2="shape" result="effect1_innerShadow_841_29126"/>
<feColorMatrix in="SourceAlpha" type="matrix" values="0 0 0 0 0 0 0 0 0 0 0 0 0 0 0 0 0 0 127 0" result="hardAlpha"/>
<feOffset dy="4"/>
<feComposite in2="hardAlpha" operator="arithmetic" k2="-1" k3="1"/>
<feColorMatrix type="matrix" values="0 0 0 0 1 0 0 0 0 1 0 0 0 0 1 0 0 0 0.25 0"/>
<feBlend mode="normal" in2="effect1_innerShadow_841_29126" result="effect2_innerShadow_841_29126"/>
</filter>
<linearGradient id="paint0_linear_841_29126" x1="17" y1="34" x2="197.768" y2="215.142" gradientUnits="userSpaceOnUse">
<stop stop-color="#05815D"/>
<stop offset="1" stop-color="#0C575F"/>
</linearGradient>
<linearGradient id="paint1_linear_841_29126" x1="17" y1="62" x2="241" y2="210" gradientUnits="userSpaceOnUse">
<stop stop-color="#5F585E"/>
<stop offset="1" stop-color="#010101"/>
</linearGradient>
<linearGradient id="paint2_linear_841_29126" x1="88.03" y1="111.73" x2="117.1" y2="185.26" gradientUnits="userSpaceOnUse">
<stop offset="0.22" stop-color="#DD1265"/>
<stop offset="0.74" stop-color="#FF45ED"/>
<stop offset="1" stop-color="#FDB60D"/>
</linearGradient>
<linearGradient id="paint3_linear_841_29126" x1="152.7" y1="188.51" x2="81.6098" y2="112.89" gradientUnits="userSpaceOnUse">
<stop offset="0.11" stop-color="#FDB60D"/>
<stop offset="0.51" stop-color="#FF45ED"/>
<stop offset="0.76" stop-color="#FF45ED"/>
<stop offset="1" stop-color="#FDB60D"/>
</linearGradient>
<linearGradient id="paint4_linear_841_29126" x1="115.97" y1="85.35" x2="176.95" y2="158.17" gradientUnits="userSpaceOnUse">
<stop offset="0.18" stop-color="#FDB60D"/>
<stop offset="0.49" stop-color="#FF45ED"/>
<stop offset="0.82" stop-color="#DD1265"/>
</linearGradient>
</defs>
</svg>
