<svg width="256" height="256" viewBox="0 0 256 256" fill="none" xmlns="http://www.w3.org/2000/svg">
<g clip-path="url(#clip0_4402_13405)">
<path d="M104.425 42.3784C100.056 37.0733 93.5437 34 86.6712 34H29C22.3726 34 17 39.3726 17 46V160C17 166.627 22.3726 172 29 172H229C235.627 172 241 166.627 241 160V70.1371C241 63.5097 235.627 58.1371 229 58.1371H117.404L104.425 42.3784Z" fill="url(#paint0_linear_4402_13405)"/>
<mask id="mask0_4402_13405" style="mask-type:alpha" maskUnits="userSpaceOnUse" x="17" y="34" width="224" height="138">
<path d="M86.6709 34C93.5434 34 100.057 37.0729 104.426 42.3779L117.403 58.1367H229C235.627 58.1367 241 63.5095 241 70.1367V160C241 166.627 235.627 172 229 172H29C22.3726 172 17 166.627 17 160V46C17 39.3726 22.3726 34 29 34H86.6709Z" fill="url(#paint1_linear_4402_13405)"/>
</mask>
<g mask="url(#mask0_4402_13405)">
<g filter="url(#filter0_f_4402_13405)" style="mix-blend-mode:multiply">
<path d="M241 160C241 166.627 235.627 172 229 172H29C22.3726 172 17 166.627 17 160V86C17 79.3726 22.3726 74 29 74H92.79C97.7649 73.9999 102.605 72.3865 106.586 69.4023L116.46 62H229C235.627 62 241 67.3726 241 74V160Z" fill="black" fill-opacity="0.3"/>
</g>
</g>
<g filter="url(#filter1_ii_4402_13405)">
<path d="M241 198C241 204.627 235.627 210 229 210H29C22.3726 210 17 204.627 17 198V86C17 79.3726 22.3726 74 29 74H92.79C97.7649 73.9999 102.605 72.3865 106.586 69.4023L116.46 62H229C235.627 62 241 67.3726 241 74V198Z" fill="url(#paint2_linear_4402_13405)"/>
</g>
<path d="M92.5014 169.053V185.618C92.5014 187.1 92.6072 188.476 91.2841 189.482C90.0668 190.487 88.0028 190.805 85.7799 190.805C82.3927 190.805 78.7939 190.011 78.7939 190.011L78 192.128C78 192.128 83.0278 193.186 86.6796 193.239C89.7493 193.292 92.4484 192.604 93.9303 190.911C95.1476 189.535 95.5181 187.947 95.4651 185.248V169.053H92.5014Z" fill="white"/>
<path d="M117.217 178.21C114.995 176.993 112.295 176.357 109.226 176.357C106.209 176.357 103.51 176.993 101.234 178.21C98.3762 179.745 96.9473 182.02 96.9473 184.878C96.9473 187.736 98.3762 190.012 101.234 191.547C103.51 192.764 106.156 193.399 109.226 193.399C112.242 193.399 114.942 192.764 117.164 191.547C120.022 190.012 121.451 187.736 121.451 184.878C121.451 181.967 120.022 179.745 117.217 178.21ZM115.471 189.853C113.724 190.859 111.66 191.335 109.226 191.335C106.738 191.335 104.621 190.859 102.928 189.906C100.864 188.742 99.8581 187.101 99.8581 184.878C99.8581 182.708 100.917 181.015 102.928 179.85C104.621 178.898 106.738 178.421 109.226 178.421C111.66 178.421 113.777 178.898 115.524 179.85C117.535 181.015 118.593 182.708 118.593 184.878C118.541 186.995 117.535 188.689 115.471 189.853Z" fill="white"/>
<path d="M143.255 178.21C141.032 176.993 138.333 176.357 135.263 176.357C132.246 176.357 129.547 176.993 127.271 178.21C124.413 179.745 122.984 182.02 122.984 184.878C122.984 187.736 124.413 190.012 127.271 191.547C129.547 192.764 132.193 193.399 135.263 193.399C138.28 193.399 140.979 192.764 143.202 191.547C146.06 190.012 147.488 187.736 147.488 184.878C147.488 181.967 146.06 179.745 143.255 178.21ZM141.508 189.853C139.761 190.859 137.697 191.335 135.263 191.335C132.775 191.335 130.658 190.859 128.965 189.906C126.901 188.742 125.895 187.101 125.895 184.878C125.895 182.708 126.954 181.015 128.965 179.85C130.658 178.898 132.775 178.421 135.263 178.421C137.697 178.421 139.814 178.898 141.561 179.85C143.572 181.015 144.631 182.708 144.631 184.878C144.578 186.995 143.572 188.689 141.508 189.853Z" fill="white"/>
<path d="M179.192 177.786C177.604 176.834 175.54 176.357 173.106 176.357C169.983 176.357 167.496 177.31 165.59 179.215C163.791 177.31 161.251 176.357 158.128 176.357C155.588 176.357 153.524 176.887 151.936 177.892V176.569H149.131V193.029H151.936V181.809C152.148 181.015 152.677 180.274 153.524 179.639C154.688 178.845 156.17 178.421 158.022 178.421C159.663 178.421 161.039 178.739 162.203 179.427C163.579 180.221 164.214 181.279 164.214 182.761V193.135H166.966V182.708C166.966 181.226 167.602 180.168 168.978 179.374C170.142 178.739 171.571 178.369 173.212 178.369C174.852 178.369 176.281 178.686 177.446 179.374C178.822 180.168 179.457 181.226 179.457 182.708V193.082H182.262V183.079C182.209 180.75 181.15 178.951 179.192 177.786Z" fill="white"/>
<path d="M184.432 169.053V193.081H187.237V169.053H184.432Z" fill="white"/>
<path d="M218.516 169.053V187.629H221.321V169.053H218.516Z" fill="white"/>
<path d="M211.158 176.567V179.372C208.776 177.361 205.601 176.303 201.685 176.303C198.562 176.303 195.863 176.885 193.64 178.102C190.888 179.637 189.459 181.86 189.459 184.824C189.459 187.734 190.888 190.01 193.746 191.492C195.969 192.709 198.668 193.292 201.79 193.292C203.325 193.292 204.86 193.133 206.236 192.762C208.194 192.233 209.835 191.492 211.105 190.487V193.027H213.91V176.567H211.158ZM192.423 184.877C192.423 182.707 193.481 181.013 195.492 179.849C197.186 178.896 199.356 178.42 201.843 178.42C204.913 178.42 207.295 179.161 208.988 180.643C210.47 181.966 211.211 183.659 211.211 185.723V187.682C210.047 189.005 208.3 190.01 206.077 190.698C204.754 191.122 203.325 191.333 201.843 191.333C199.303 191.333 197.186 190.857 195.492 189.957C193.428 188.74 192.423 187.099 192.423 184.877Z" fill="white"/>
<path d="M219.945 189.957C217.987 189.957 217.723 190.963 217.723 191.598C217.723 192.233 218.04 193.238 219.945 193.238C221.904 193.238 222.168 192.18 222.168 191.598C222.168 191.016 221.851 189.957 219.945 189.957Z" fill="white"/>
<path d="M230 172.017C230 173.657 228.941 175.033 227.036 175.033C225.131 175.033 224.072 173.657 224.072 172.017C224.072 170.376 225.131 169 227.036 169C228.941 169 230 170.376 230 172.017ZM224.707 172.017C224.707 173.393 225.554 174.451 227.036 174.451C228.518 174.451 229.365 173.393 229.365 172.017C229.365 170.641 228.518 169.582 227.036 169.582C225.554 169.582 224.707 170.641 224.707 172.017ZM227.618 172.387C228.783 172.175 228.677 170.429 227.354 170.429H225.925V173.499H226.507V172.44H227.036L227.883 173.499H228.518V173.393L227.618 172.387ZM227.354 170.958C228.042 170.958 228.042 171.964 227.354 171.964H226.507V170.958H227.354Z" fill="white"/>
<path d="M129.046 117.254L127.626 115.833C123.059 111.267 121.74 104.875 123.364 99.0909C118.798 98.0762 115.449 94.0174 115.449 89.1469C115.449 83.5661 120.015 79 125.596 79C130.67 79 134.83 82.6529 135.642 87.5234C141.121 86.2043 147.108 87.7263 151.369 91.988L151.978 92.5969L144.469 100.106L143.861 99.4968C141.425 97.0615 137.468 97.0615 135.033 99.4968C132.598 101.932 132.598 105.889 135.033 108.325L151.877 125.168L144.368 132.677L136.453 124.763L129.046 117.254Z" fill="#7AC143"/>
<path d="M137.467 108.933L154.311 92.0896C158.775 87.625 165.269 86.2044 170.952 87.8279C171.662 82.8559 175.924 79.1016 180.997 79.1016C186.578 79.1016 191.144 83.6677 191.144 89.2485C191.144 94.4234 187.288 98.6851 182.316 99.2939C183.94 104.976 182.519 111.369 178.054 115.833L177.446 116.442L170.14 108.933L170.749 108.325C173.184 105.889 173.184 101.932 170.749 99.4969C168.313 97.0616 164.356 97.0616 161.921 99.4969L145.077 116.341L137.467 108.933Z" fill="#F9A541"/>
<path d="M171.257 146.781C165.474 148.506 158.98 147.187 154.414 142.621L153.805 142.012L161.313 134.503L161.922 135.112C164.357 137.547 168.315 137.547 170.75 135.112C173.185 132.677 173.185 128.719 170.75 126.284L153.906 109.44L161.415 101.932L178.36 118.877C182.622 123.139 184.144 129.227 182.825 134.808C187.797 135.518 191.551 139.78 191.551 144.853C191.551 150.434 186.985 155 181.404 155C176.331 154.899 172.171 151.347 171.257 146.781Z" fill="#F44321"/>
<path d="M168.315 125.675L151.471 142.519C147.108 146.882 141.019 148.302 135.54 146.983C134.525 151.549 130.467 154.898 125.596 154.898C120.015 154.898 115.449 150.332 115.449 144.751C115.449 139.982 118.798 135.923 123.262 134.908C121.842 129.226 123.262 123.138 127.626 118.775L128.234 118.166L135.743 125.675L135.134 126.284C132.699 128.719 132.699 132.676 135.134 135.111C137.569 137.547 141.527 137.547 143.962 135.111L160.806 118.267L168.315 125.675Z" fill="#5091CD"/>
</g>
<defs>
<filter id="filter0_f_4402_13405" x="-20" y="25" width="298" height="184" filterUnits="userSpaceOnUse" color-interpolation-filters="sRGB">
<feFlood flood-opacity="0" result="BackgroundImageFix"/>
<feBlend mode="normal" in="SourceGraphic" in2="BackgroundImageFix" result="shape"/>
<feGaussianBlur stdDeviation="18.5" result="effect1_foregroundBlur_4402_13405"/>
</filter>
<filter id="filter1_ii_4402_13405" x="17" y="62" width="224" height="148" filterUnits="userSpaceOnUse" color-interpolation-filters="sRGB">
<feFlood flood-opacity="0" result="BackgroundImageFix"/>
<feBlend mode="normal" in="SourceGraphic" in2="BackgroundImageFix" result="shape"/>
<feColorMatrix in="SourceAlpha" type="matrix" values="0 0 0 0 0 0 0 0 0 0 0 0 0 0 0 0 0 0 127 0" result="hardAlpha"/>
<feOffset dy="4"/>
<feComposite in2="hardAlpha" operator="arithmetic" k2="-1" k3="1"/>
<feColorMatrix type="matrix" values="0 0 0 0 1 0 0 0 0 1 0 0 0 0 1 0 0 0 0.25 0"/>
<feBlend mode="normal" in2="shape" result="effect1_innerShadow_4402_13405"/>
<feColorMatrix in="SourceAlpha" type="matrix" values="0 0 0 0 0 0 0 0 0 0 0 0 0 0 0 0 0 0 127 0" result="hardAlpha"/>
<feOffset dy="-4"/>
<feComposite in2="hardAlpha" operator="arithmetic" k2="-1" k3="1"/>
<feColorMatrix type="matrix" values="0 0 0 0 0 0 0 0 0 0 0 0 0 0 0 0 0 0 0.9 0"/>
<feBlend mode="soft-light" in2="effect1_innerShadow_4402_13405" result="effect2_innerShadow_4402_13405"/>
</filter>
<linearGradient id="paint0_linear_4402_13405" x1="17" y1="34" x2="197.768" y2="215.142" gradientUnits="userSpaceOnUse">
<stop stop-color="#2E2E32"/>
</linearGradient>
<linearGradient id="paint1_linear_4402_13405" x1="17" y1="34" x2="197.768" y2="215.142" gradientUnits="userSpaceOnUse">
<stop stop-color="#05815D"/>
<stop offset="1" stop-color="#0C575F"/>
</linearGradient>
<linearGradient id="paint2_linear_4402_13405" x1="17" y1="62" x2="241" y2="210" gradientUnits="userSpaceOnUse">
<stop stop-color="#6A6D78"/>
<stop offset="0.89433" stop-color="#3A3B40"/>
</linearGradient>
<clipPath id="clip0_4402_13405">
<rect width="256" height="256" fill="white"/>
</clipPath>
</defs>
</svg>
