<svg width="256" height="256" viewBox="0 0 256 256" fill="none" xmlns="http://www.w3.org/2000/svg">
<g clip-path="url(#clip0_4264_9722)">
<path d="M104.425 42.3784C100.056 37.0733 93.5437 34 86.6712 34H29C22.3726 34 17 39.3726 17 46V160C17 166.627 22.3726 172 29 172H229C235.627 172 241 166.627 241 160V70.1371C241 63.5097 235.627 58.1371 229 58.1371H117.404L104.425 42.3784Z" fill="url(#paint0_linear_4264_9722)"/>
<mask id="mask0_4264_9722" style="mask-type:alpha" maskUnits="userSpaceOnUse" x="17" y="34" width="224" height="138">
<path d="M86.6709 34C93.5434 34 100.057 37.0729 104.426 42.3779L117.403 58.1367H229C235.627 58.1367 241 63.5095 241 70.1367V160C241 166.627 235.627 172 229 172H29C22.3726 172 17 166.627 17 160V46C17 39.3726 22.3726 34 29 34H86.6709Z" fill="url(#paint1_linear_4264_9722)"/>
</mask>
<g mask="url(#mask0_4264_9722)">
<g filter="url(#filter0_f_4264_9722)" style="mix-blend-mode:multiply">
<path d="M241 160C241 166.627 235.627 172 229 172H29C22.3726 172 17 166.627 17 160V86C17 79.3726 22.3726 74 29 74H92.79C97.7649 73.9999 102.605 72.3865 106.586 69.4023L116.46 62H229C235.627 62 241 67.3726 241 74V160Z" fill="black" fill-opacity="0.3"/>
</g>
</g>
<g filter="url(#filter1_ii_4264_9722)">
<path d="M241 198C241 204.627 235.627 210 229 210H29C22.3726 210 17 204.627 17 198V86C17 79.3726 22.3726 74 29 74H92.79C97.7649 73.9999 102.605 72.3865 106.586 69.4023L116.46 62H229C235.627 62 241 67.3726 241 74V198Z" fill="url(#paint2_linear_4264_9722)"/>
</g>
<path d="M89.1796 114H72.9618C72.8085 114 72.6846 114.122 72.6846 114.273V119.338C72.6846 119.509 72.825 119.647 72.9984 119.647H75.2219C76.1213 119.647 76.8506 120.327 76.9287 121.192V124.665V126.6V145.031V145.161H76.9281C76.9337 145.354 76.9259 145.544 76.9068 145.731C76.9047 145.758 76.9009 145.785 76.8976 145.812C76.8847 145.922 76.8705 146.03 76.849 146.137C76.8372 146.197 76.8205 146.256 76.8057 146.316C76.7858 146.396 76.7697 146.476 76.7449 146.554C76.5982 147.016 76.3664 147.444 76.0458 147.821C76.034 147.834 76.0194 147.847 76.0078 147.86C75.91 147.972 75.8073 148.08 75.6937 148.182C75.579 148.284 75.4575 148.38 75.3299 148.468C74.4226 149.101 73.2014 149.379 71.837 149.25C70.0973 149.09 68.3713 148.313 66.9763 147.065C65.5814 145.816 64.7141 144.272 64.5346 142.715C64.3732 141.322 64.7975 140.096 65.7284 139.263C65.7309 139.261 65.7331 139.26 65.7349 139.258C65.771 139.226 65.8106 139.198 65.8477 139.167C66.5139 138.618 67.3824 138.286 68.3734 138.194C68.3846 138.193 68.3954 138.191 68.406 138.19C68.5103 138.181 68.6166 138.177 68.7238 138.173C68.7799 138.171 68.8352 138.167 68.8921 138.167C68.911 138.167 68.9289 138.165 68.9478 138.165C68.9816 138.165 69.0167 138.169 69.0505 138.17C69.2067 138.172 69.3641 138.178 69.5245 138.192C69.5448 138.193 69.5642 138.193 69.585 138.195C69.5998 138.196 69.6145 138.199 69.6293 138.201C70.5385 138.29 71.4386 138.558 72.2929 138.962C72.3107 138.963 72.3313 138.968 72.3571 138.982C72.6175 139.124 72.6674 138.972 72.6751 138.872V134.489V131.247C72.6751 131.028 72.5206 130.835 72.3041 130.788C67.7029 129.792 63.1884 130.829 60.0029 133.681C57.2201 136.171 55.874 139.764 56.3102 143.539C56.6994 146.901 58.4538 150.131 61.2508 152.635C63.9769 155.074 67.448 156.6 71.0285 156.932C71.5219 156.977 72.0176 157 72.5013 157C75.9208 157 79.0938 155.847 81.4358 153.751C83.6543 151.764 84.9832 149.036 85.1782 146.067L85.1963 126.6H85.1983V121.395H85.199V121.305C85.219 120.386 85.9805 119.647 86.9194 119.647H89.143C89.3162 119.647 89.4568 119.509 89.4568 119.338V114.273C89.4568 114.122 89.3329 114 89.1796 114Z" fill="white"/>
<path d="M110.185 147.77C108.73 147.77 107.383 147.488 106.145 146.923C104.929 146.337 103.93 145.522 103.148 144.48L105.559 141.581C106.819 143.318 108.328 144.187 110.087 144.187C112.454 144.187 113.638 142.786 113.638 139.984V128.192H105.526V124.641H117.873V139.756C117.873 142.428 117.221 144.437 115.918 145.783C114.615 147.108 112.704 147.77 110.185 147.77Z" fill="white"/>
<path d="M131.24 147.672C129.481 147.672 127.896 147.292 126.484 146.532C125.072 145.772 123.965 144.719 123.161 143.372C122.379 142.004 121.988 140.462 121.988 138.747C121.988 137.031 122.379 135.5 123.161 134.154C123.965 132.807 125.072 131.754 126.484 130.994C127.896 130.233 129.481 129.854 131.24 129.854C133.021 129.854 134.617 130.233 136.029 130.994C137.44 131.754 138.537 132.807 139.319 134.154C140.122 135.5 140.524 137.031 140.524 138.747C140.524 140.462 140.122 142.004 139.319 143.372C138.537 144.719 137.44 145.772 136.029 146.532C134.617 147.292 133.021 147.672 131.24 147.672ZM131.24 144.187C132.738 144.187 133.976 143.687 134.954 142.688C135.931 141.689 136.419 140.375 136.419 138.747C136.419 137.118 135.931 135.804 134.954 134.805C133.976 133.806 132.738 133.306 131.24 133.306C129.741 133.306 128.504 133.806 127.526 134.805C126.571 135.804 126.093 137.118 126.093 138.747C126.093 140.375 126.571 141.689 127.526 142.688C128.504 143.687 129.741 144.187 131.24 144.187Z" fill="white"/>
<path d="M154.06 129.854C155.754 129.854 157.264 130.223 158.588 130.961C159.935 131.699 160.988 132.742 161.748 134.088C162.508 135.435 162.888 136.988 162.888 138.747C162.888 140.506 162.508 142.069 161.748 143.438C160.988 144.784 159.935 145.826 158.588 146.565C157.264 147.303 155.754 147.672 154.06 147.672C151.715 147.672 149.858 146.891 148.49 145.327V153.764H144.418V130.049H148.294V132.329C148.968 131.504 149.793 130.885 150.77 130.472C151.769 130.06 152.866 129.854 154.06 129.854ZM153.604 144.187C155.103 144.187 156.33 143.687 157.285 142.688C158.263 141.689 158.751 140.375 158.751 138.747C158.751 137.118 158.263 135.804 157.285 134.805C156.33 133.806 155.103 133.306 153.604 133.306C152.627 133.306 151.748 133.535 150.966 133.991C150.184 134.425 149.565 135.055 149.109 135.88C148.653 136.705 148.425 137.661 148.425 138.747C148.425 139.832 148.653 140.788 149.109 141.613C149.565 142.438 150.184 143.079 150.966 143.535C151.748 143.97 152.627 144.187 153.604 144.187Z" fill="white"/>
<path d="M166.75 123.273H170.823V147.444H166.75V123.273Z" fill="white"/>
<path d="M176.166 130.049H180.238V147.444H176.166V130.049ZM178.219 127.182C177.48 127.182 176.861 126.954 176.362 126.498C175.862 126.02 175.612 125.434 175.612 124.739C175.612 124.044 175.862 123.469 176.362 123.013C176.861 122.535 177.48 122.296 178.219 122.296C178.957 122.296 179.576 122.524 180.075 122.98C180.575 123.414 180.824 123.968 180.824 124.641C180.824 125.358 180.575 125.966 180.075 126.466C179.597 126.943 178.978 127.182 178.219 127.182Z" fill="white"/>
<path d="M195.453 129.854C197.647 129.854 199.406 130.494 200.731 131.775C202.055 133.057 202.718 134.957 202.718 137.476V147.444H198.646V137.997C198.646 136.477 198.288 135.337 197.571 134.577C196.854 133.795 195.833 133.404 194.509 133.404C193.01 133.404 191.827 133.86 190.958 134.772C190.089 135.663 189.655 136.955 189.655 138.649V147.444H185.583V130.049H189.459V132.297C190.133 131.493 190.98 130.885 192 130.472C193.021 130.06 194.172 129.854 195.453 129.854Z" fill="white"/>
</g>
<defs>
<filter id="filter0_f_4264_9722" x="-20" y="25" width="298" height="184" filterUnits="userSpaceOnUse" color-interpolation-filters="sRGB">
<feFlood flood-opacity="0" result="BackgroundImageFix"/>
<feBlend mode="normal" in="SourceGraphic" in2="BackgroundImageFix" result="shape"/>
<feGaussianBlur stdDeviation="18.5" result="effect1_foregroundBlur_4264_9722"/>
</filter>
<filter id="filter1_ii_4264_9722" x="17" y="62" width="224" height="148" filterUnits="userSpaceOnUse" color-interpolation-filters="sRGB">
<feFlood flood-opacity="0" result="BackgroundImageFix"/>
<feBlend mode="normal" in="SourceGraphic" in2="BackgroundImageFix" result="shape"/>
<feColorMatrix in="SourceAlpha" type="matrix" values="0 0 0 0 0 0 0 0 0 0 0 0 0 0 0 0 0 0 127 0" result="hardAlpha"/>
<feOffset dy="4"/>
<feComposite in2="hardAlpha" operator="arithmetic" k2="-1" k3="1"/>
<feColorMatrix type="matrix" values="0 0 0 0 1 0 0 0 0 1 0 0 0 0 1 0 0 0 0.25 0"/>
<feBlend mode="normal" in2="shape" result="effect1_innerShadow_4264_9722"/>
<feColorMatrix in="SourceAlpha" type="matrix" values="0 0 0 0 0 0 0 0 0 0 0 0 0 0 0 0 0 0 127 0" result="hardAlpha"/>
<feOffset dy="-4"/>
<feComposite in2="hardAlpha" operator="arithmetic" k2="-1" k3="1"/>
<feColorMatrix type="matrix" values="0 0 0 0 0 0 0 0 0 0 0 0 0 0 0 0 0 0 0.9 0"/>
<feBlend mode="soft-light" in2="effect1_innerShadow_4264_9722" result="effect2_innerShadow_4264_9722"/>
</filter>
<linearGradient id="paint0_linear_4264_9722" x1="17" y1="34" x2="197.768" y2="215.142" gradientUnits="userSpaceOnUse">
<stop stop-color="#0353B6"/>
</linearGradient>
<linearGradient id="paint1_linear_4264_9722" x1="17" y1="34" x2="197.768" y2="215.142" gradientUnits="userSpaceOnUse">
<stop stop-color="#05815D"/>
<stop offset="1" stop-color="#0C575F"/>
</linearGradient>
<linearGradient id="paint2_linear_4264_9722" x1="233.5" y1="215.5" x2="11.474" y2="162.672" gradientUnits="userSpaceOnUse">
<stop stop-color="#004CAF"/>
<stop offset="1" stop-color="#1F95F8"/>
</linearGradient>
<clipPath id="clip0_4264_9722">
<rect width="256" height="256" fill="white"/>
</clipPath>
</defs>
</svg>
