<svg width="256" height="256" viewBox="0 0 256 256" fill="none" xmlns="http://www.w3.org/2000/svg">
<path fill-rule="evenodd" clip-rule="evenodd" d="M104.425 42.3784C100.056 37.0733 93.5437 34 86.6712 34H29C22.3726 34 17 39.3726 17 46V58.1371V68.2V160C17 166.627 22.3726 172 29 172H229C235.627 172 241 166.627 241 160V70.1371C241 63.5097 235.627 58.1371 229 58.1371H117.404L104.425 42.3784Z" fill="#3169C9"/>
<mask id="mask0_632_15114" style="mask-type:alpha" maskUnits="userSpaceOnUse" x="17" y="34" width="224" height="138">
<path fill-rule="evenodd" clip-rule="evenodd" d="M104.425 42.3784C100.056 37.0733 93.5437 34 86.6712 34H29C22.3726 34 17 39.3726 17 46V58.1371V68.2V160C17 166.627 22.3726 172 29 172H229C235.627 172 241 166.627 241 160V70.1371C241 63.5097 235.627 58.1371 229 58.1371H117.404L104.425 42.3784Z" fill="url(#paint0_linear_632_15114)"/>
</mask>
<g mask="url(#mask0_632_15114)">
<g style="mix-blend-mode:multiply" filter="url(#filter0_f_632_15114)">
<path fill-rule="evenodd" clip-rule="evenodd" d="M92.789 74C97.7642 74 102.605 72.3868 106.586 69.4024L116.459 62H229C235.627 62 241 67.3726 241 74V108V160C241 166.627 235.627 172 229 172H29C22.3726 172 17 166.627 17 160L17 108V86C17 79.3726 22.3726 74 29 74H87H92.789Z" fill="black" fill-opacity="0.3"/>
</g>
</g>
<g filter="url(#filter1_ii_632_15114)">
<path fill-rule="evenodd" clip-rule="evenodd" d="M92.789 74C97.7642 74 102.605 72.3868 106.586 69.4024L116.459 62H229C235.627 62 241 67.3726 241 74V108V198C241 204.627 235.627 210 229 210H29C22.3726 210 17 204.627 17 198L17 108V86C17 79.3726 22.3726 74 29 74H87H92.789Z" fill="url(#paint1_linear_632_15114)"/>
</g>
<path fill-rule="evenodd" clip-rule="evenodd" d="M197.477 99.1713C196.938 99.0266 196.4 99 195.843 99H60.7649C58.7374 99.0159 56.9578 100.3 56.2842 102.213C56.064 102.835 56 103.464 56 104.116V168.227C56.075 170.899 58.158 172.982 60.7961 172.988C66.326 172.996 77.7132 172.968 77.7132 172.968L77.6932 168.007H61.0834C60.9953 167.474 61.0177 104.732 61.1035 104.444C61.6123 104.373 195.506 104.398 195.8 104.468C195.881 104.951 195.857 167.701 195.769 168.031H83.7933V172.993C83.7933 172.993 84.2304 172.993 84.4304 173H196.251C198.256 172.98 200.033 171.718 200.717 169.821C200.937 169.216 201 168.594 201 167.957V103.725C200.958 101.603 199.519 99.7393 197.483 99.1755L197.477 99.1713ZM83.7972 154.284V141.453C83.7972 141.163 83.8781 140.96 84.1137 140.777C85.1014 139.993 86.0758 139.187 87.0504 138.387C87.1476 138.315 87.2421 138.25 87.3634 138.161C87.4685 138.298 87.557 138.409 87.6386 138.532C89.2954 140.93 90.9533 143.326 92.6089 145.72C94.6405 148.67 96.6755 151.606 98.7029 154.542C98.8155 154.712 98.9189 154.841 99.1685 154.841C101.303 154.834 103.436 154.834 105.568 154.834C105.638 154.834 105.711 154.81 105.823 154.785C101.103 147.886 96.4012 141.035 91.6853 134.143C92.634 133.038 93.5519 131.974 94.4687 130.884C95.3878 129.817 96.3037 128.747 97.2214 127.672C98.1377 126.6 99.0474 125.527 99.9662 124.454C100.883 123.379 101.801 122.306 102.708 121.234C103.62 120.169 104.527 119.105 105.494 117.956H104.956C103.024 117.956 101.093 117.968 99.1613 117.949C98.8061 117.949 98.5821 118.052 98.3477 118.329C93.6015 123.969 88.844 129.609 84.0871 135.242C84.0239 135.314 83.9419 135.378 83.8049 135.505V121.476C83.8049 120.315 83.8248 119.15 83.8049 117.989H77.8362V154.776C78.31 154.859 83.4946 154.842 83.8143 154.756V154.288L83.7972 154.284ZM115.666 154.817C115.714 154.677 115.769 154.558 115.81 154.428C116.775 151.678 117.741 148.934 118.708 146.182C118.869 145.739 119.029 145.294 119.174 144.85C119.232 144.665 119.326 144.568 119.521 144.591C119.584 144.599 119.657 144.591 119.721 144.591H133.337C134.568 148.013 135.79 151.41 137.008 154.807H143.382C138.784 142.446 134.205 130.134 129.636 117.824H123.118C123.076 117.904 123.045 117.963 123.029 118.018C118.49 130.228 113.958 142.444 109.421 154.65C109.401 154.67 109.401 154.708 109.401 154.732V154.771C109.401 154.787 109.421 154.794 109.425 154.813H115.654L115.666 154.817ZM121.176 138.969C122.431 135.322 123.704 131.691 124.928 128.034C125.418 126.564 125.788 125.048 126.206 123.549C126.242 123.436 126.264 123.322 126.311 123.151C126.374 123.248 126.424 123.307 126.441 123.37C127.438 127.106 128.801 130.73 130.039 134.394C130.553 135.919 131.085 137.434 131.609 138.96C131.649 139.096 131.688 139.233 131.736 139.402H121.041C121.089 139.243 121.13 139.106 121.176 138.969ZM153.449 120.828C153.449 119.875 153.484 118.931 153.421 117.988H147.526C147.427 118.448 147.451 154.515 147.546 154.819H169.017V149.695H158.66C157.789 149.695 156.912 149.702 156.045 149.695C155.191 149.687 154.34 149.726 153.453 149.675V120.835L153.449 120.828ZM179.08 118.214C179.08 118.157 179.08 118.11 179.06 118.051C179.06 118.035 179.041 118.031 179.041 118.019C179.041 118.012 179.017 117.999 179.017 117.999H173.102V154.809H179.048C179.068 154.747 179.083 154.714 179.083 154.672V118.214L179.08 118.214Z" fill="white"/>
<defs>
<filter id="filter0_f_632_15114" x="-20" y="25" width="298" height="184" filterUnits="userSpaceOnUse" color-interpolation-filters="sRGB">
<feFlood flood-opacity="0" result="BackgroundImageFix"/>
<feBlend mode="normal" in="SourceGraphic" in2="BackgroundImageFix" result="shape"/>
<feGaussianBlur stdDeviation="18.5" result="effect1_foregroundBlur_632_15114"/>
</filter>
<filter id="filter1_ii_632_15114" x="17" y="62" width="224" height="148" filterUnits="userSpaceOnUse" color-interpolation-filters="sRGB">
<feFlood flood-opacity="0" result="BackgroundImageFix"/>
<feBlend mode="normal" in="SourceGraphic" in2="BackgroundImageFix" result="shape"/>
<feColorMatrix in="SourceAlpha" type="matrix" values="0 0 0 0 0 0 0 0 0 0 0 0 0 0 0 0 0 0 127 0" result="hardAlpha"/>
<feOffset dy="4"/>
<feComposite in2="hardAlpha" operator="arithmetic" k2="-1" k3="1"/>
<feColorMatrix type="matrix" values="0 0 0 0 1 0 0 0 0 1 0 0 0 0 1 0 0 0 0.25 0"/>
<feBlend mode="normal" in2="shape" result="effect1_innerShadow_632_15114"/>
<feColorMatrix in="SourceAlpha" type="matrix" values="0 0 0 0 0 0 0 0 0 0 0 0 0 0 0 0 0 0 127 0" result="hardAlpha"/>
<feOffset dy="-4"/>
<feComposite in2="hardAlpha" operator="arithmetic" k2="-1" k3="1"/>
<feColorMatrix type="matrix" values="0 0 0 0 0 0 0 0 0 0 0 0 0 0 0 0 0 0 0.9 0"/>
<feBlend mode="soft-light" in2="effect1_innerShadow_632_15114" result="effect2_innerShadow_632_15114"/>
</filter>
<linearGradient id="paint0_linear_632_15114" x1="17" y1="34" x2="197.768" y2="215.142" gradientUnits="userSpaceOnUse">
<stop stop-color="#05815D"/>
<stop offset="1" stop-color="#0C575F"/>
</linearGradient>
<linearGradient id="paint1_linear_632_15114" x1="17" y1="62" x2="241" y2="210" gradientUnits="userSpaceOnUse">
<stop stop-color="#669FFF"/>
<stop offset="1" stop-color="#367BF0"/>
</linearGradient>
</defs>
</svg>
