<svg width="256" height="256" viewBox="0 0 256 256" fill="none" xmlns="http://www.w3.org/2000/svg">
<path fill-rule="evenodd" clip-rule="evenodd" d="M104.425 42.3784C100.056 37.0733 93.5437 34 86.6712 34H29C22.3726 34 17 39.3726 17 46V58.1371V68.2V160C17 166.627 22.3726 172 29 172H229C235.627 172 241 166.627 241 160V70.1371C241 63.5097 235.627 58.1371 229 58.1371H117.404L104.425 42.3784Z" fill="url(#paint0_linear_955_21338)"/>
<mask id="mask0_955_21338" style="mask-type:alpha" maskUnits="userSpaceOnUse" x="17" y="34" width="224" height="138">
<path fill-rule="evenodd" clip-rule="evenodd" d="M104.425 42.3784C100.056 37.0733 93.5437 34 86.6712 34H29C22.3726 34 17 39.3726 17 46V58.1371V68.2V160C17 166.627 22.3726 172 29 172H229C235.627 172 241 166.627 241 160V70.1371C241 63.5097 235.627 58.1371 229 58.1371H117.404L104.425 42.3784Z" fill="url(#paint1_linear_955_21338)"/>
</mask>
<g mask="url(#mask0_955_21338)">
<g style="mix-blend-mode:multiply" filter="url(#filter0_f_955_21338)">
<path fill-rule="evenodd" clip-rule="evenodd" d="M92.789 74C97.7642 74 102.605 72.3868 106.586 69.4024L116.459 62H229C235.627 62 241 67.3726 241 74V108V160C241 166.627 235.627 172 229 172H29C22.3726 172 17 166.627 17 160L17 108V86C17 79.3726 22.3726 74 29 74H87H92.789Z" fill="black" fill-opacity="0.3"/>
</g>
</g>
<g filter="url(#filter1_ii_955_21338)">
<path fill-rule="evenodd" clip-rule="evenodd" d="M92.789 74C97.7642 74 102.605 72.3868 106.586 69.4024L116.459 62H229C235.627 62 241 67.3726 241 74V108V198C241 204.627 235.627 210 229 210H29C22.3726 210 17 204.627 17 198L17 108V86C17 79.3726 22.3726 74 29 74H87H92.789Z" fill="url(#paint2_linear_955_21338)"/>
</g>
<path d="M119.792 135.606C119.792 142.572 115.542 145.865 110.222 145.865H106.971V141.685H109.969C113.178 141.685 115.316 139.954 115.316 135.606C115.316 131.299 113.294 129.146 109.874 129.146C106.581 129.146 104.227 131.173 104.227 135.521V153H99.794V125.515H104.227V127.88H104.86C106.338 125.895 108.523 125.008 110.803 125.008C115.7 125.008 119.792 128.555 119.792 135.606ZM90.6574 133.79L87.7019 133.494C85.3799 133.283 84.1555 132.65 84.1555 131.299C84.1555 129.695 85.7177 128.766 87.9552 128.766C90.2774 128.766 91.755 129.864 91.8816 131.426H96.1458C95.977 127.457 92.8951 125.008 87.9976 125.008C83.0579 125.008 79.7225 127.626 79.7225 131.468C79.7225 134.677 81.749 136.745 86.351 137.21L89.3485 137.505C91.164 137.674 92.3884 138.054 92.3884 139.785C92.3884 141.347 91.2483 142.487 88.2509 142.487C85.4906 142.487 84.1305 141.235 83.6532 139.556H79.04C79.4996 143.393 82.7237 146.371 88.2509 146.371C93.4439 146.371 96.8213 143.627 96.8213 139.574C96.8213 135.985 94.4571 134.17 90.6574 133.79ZM136.961 139.556C136.265 141.153 134.604 142.361 132.246 142.361C128.995 142.361 126.588 140.25 126.588 135.69C126.588 131.341 128.826 128.935 132.288 128.935C135.37 128.935 137.143 130.792 137.312 133.579H129.332V136.788H141.661V134.677C141.661 128.808 137.776 125.008 132.246 125.008C127.095 125.008 122.155 128.513 122.155 135.69C122.155 142.867 127.095 146.371 132.246 146.371C136.957 146.371 140.316 143.469 141.36 139.556H136.961ZM67.078 125.008C62.2229 125.008 58.592 127.542 58.1698 131.426H62.9405C63.2783 129.991 64.587 128.935 67.078 128.935C70.2868 128.935 71.3422 130.624 71.3422 132.693V139.658C69.5268 141.727 67.4158 142.698 65.3048 142.698C63.1095 142.698 61.5896 141.643 61.5896 139.743C61.5896 137.927 62.7717 136.788 65.0515 136.788H68.5979V133.579H64.9248C59.8585 133.579 57.0299 136.112 57.0299 139.996C57.0299 143.627 59.774 146.371 64.2915 146.371C66.8247 146.371 69.0624 145.358 70.7089 144.134H71.3422V145.865H75.7752V132.27C75.7752 127.246 72.3555 125.008 67.078 125.008ZM37 145.865H41.433V118H37V145.865ZM55.6187 125.515H50.2146L43.7551 134.001V136.661L50.3835 145.865H55.872L48.1037 135.31L55.6187 125.515ZM215.873 125.515L212.242 133.579C211.356 135.521 210.512 137.421 210.258 138.688H209.624C209.371 137.421 208.485 135.563 207.598 133.621L203.967 125.515H199.07L207.598 143.796L203.376 153H208.105L220.771 125.515H215.873ZM198.089 125.515H192.685L186.226 134.001V136.661L192.854 145.865H198.343L190.574 135.31L198.089 125.515ZM170.334 133.79L167.379 133.494C165.056 133.283 163.832 132.65 163.832 131.299C163.832 129.695 165.394 128.766 167.632 128.766C169.954 128.766 171.432 129.864 171.558 131.426H175.822C175.653 127.457 172.571 125.008 167.674 125.008C162.734 125.008 159.399 127.626 159.399 131.468C159.399 134.677 161.426 136.745 166.027 137.21L169.025 137.505C170.84 137.674 172.065 138.054 172.065 139.785C172.065 141.347 170.925 142.487 167.927 142.487C165.167 142.487 163.807 141.235 163.33 139.556H158.716C159.176 143.393 162.4 146.371 167.927 146.371C173.12 146.371 176.498 143.627 176.498 139.574C176.498 135.985 174.134 134.17 170.334 133.79ZM179.47 145.865H183.903V118H179.47V145.865ZM150.238 127.88H149.605V125.515H145.172V145.865H149.605V135.225C149.605 131.595 151.282 129.484 154.587 129.484H157.393V125.008H155.769C152.703 125.008 151.4 126.165 150.238 127.88Z" fill="#FCFCFC"/>
<defs>
<filter id="filter0_f_955_21338" x="-20" y="25" width="298" height="184" filterUnits="userSpaceOnUse" color-interpolation-filters="sRGB">
<feFlood flood-opacity="0" result="BackgroundImageFix"/>
<feBlend mode="normal" in="SourceGraphic" in2="BackgroundImageFix" result="shape"/>
<feGaussianBlur stdDeviation="18.5" result="effect1_foregroundBlur_955_21338"/>
</filter>
<filter id="filter1_ii_955_21338" x="17" y="62" width="224" height="148" filterUnits="userSpaceOnUse" color-interpolation-filters="sRGB">
<feFlood flood-opacity="0" result="BackgroundImageFix"/>
<feBlend mode="normal" in="SourceGraphic" in2="BackgroundImageFix" result="shape"/>
<feColorMatrix in="SourceAlpha" type="matrix" values="0 0 0 0 0 0 0 0 0 0 0 0 0 0 0 0 0 0 127 0" result="hardAlpha"/>
<feOffset dy="4"/>
<feComposite in2="hardAlpha" operator="arithmetic" k2="-1" k3="1"/>
<feColorMatrix type="matrix" values="0 0 0 0 1 0 0 0 0 1 0 0 0 0 1 0 0 0 0.25 0"/>
<feBlend mode="normal" in2="shape" result="effect1_innerShadow_955_21338"/>
<feColorMatrix in="SourceAlpha" type="matrix" values="0 0 0 0 0 0 0 0 0 0 0 0 0 0 0 0 0 0 127 0" result="hardAlpha"/>
<feOffset dy="-4"/>
<feComposite in2="hardAlpha" operator="arithmetic" k2="-1" k3="1"/>
<feColorMatrix type="matrix" values="0 0 0 0 0 0 0 0 0 0 0 0 0 0 0 0 0 0 0.9 0"/>
<feBlend mode="soft-light" in2="effect1_innerShadow_955_21338" result="effect2_innerShadow_955_21338"/>
</filter>
<linearGradient id="paint0_linear_955_21338" x1="129" y1="34" x2="129" y2="172" gradientUnits="userSpaceOnUse">
<stop stop-color="#00705F"/>
</linearGradient>
<linearGradient id="paint1_linear_955_21338" x1="17" y1="34" x2="197.768" y2="215.142" gradientUnits="userSpaceOnUse">
<stop stop-color="#05815D"/>
<stop offset="1" stop-color="#0C575F"/>
</linearGradient>
<linearGradient id="paint2_linear_955_21338" x1="17" y1="62" x2="241" y2="210" gradientUnits="userSpaceOnUse">
<stop stop-color="#00907A"/>
<stop offset="1" stop-color="#006D5C"/>
</linearGradient>
</defs>
</svg>
