<?xml version="1.0" encoding="UTF-8"?>
<svg id="Layer_1" data-name="Layer 1" xmlns="http://www.w3.org/2000/svg" version="1.1" xmlns:xlink="http://www.w3.org/1999/xlink" viewBox="0 0 256 256">
  <defs>
    <style>
      .cls-1 {
        fill: url(#radial-gradient-5);
        opacity: .3;
      }

      .cls-1, .cls-2, .cls-3, .cls-4, .cls-5, .cls-6, .cls-7, .cls-8, .cls-9, .cls-10, .cls-11, .cls-12, .cls-13, .cls-14, .cls-15 {
        stroke-width: 0px;
      }

      .cls-1, .cls-3 {
        mix-blend-mode: multiply;
      }

      .cls-1, .cls-3, .cls-16, .cls-4, .cls-6, .cls-8, .cls-13 {
        isolation: isolate;
      }

      .cls-2 {
        fill: #000;
      }

      .cls-3 {
        opacity: .2;
      }

      .cls-3, .cls-6 {
        fill: #0f0f0d;
      }

      .cls-4 {
        fill: url(#radial-gradient-2);
        opacity: .4;
      }

      .cls-5 {
        fill: none;
      }

      .cls-6 {
        opacity: .3;
      }

      .cls-7 {
        fill: url(#linear-gradient);
      }

      .cls-7, .cls-9, .cls-10, .cls-12 {
        fill-rule: evenodd;
      }

      .cls-8 {
        fill: url(#radial-gradient-4);
        opacity: .7;
      }

      .cls-8, .cls-13 {
        mix-blend-mode: lighten;
      }

      .cls-9 {
        fill: #2e6b26;
      }

      .cls-10 {
        fill: url(#linear-gradient-2);
      }

      .cls-11 {
        fill: url(#linear-gradient-3);
      }

      .cls-12 {
        fill: #a6a1a1;
      }

      .cls-13 {
        fill: url(#radial-gradient);
        opacity: .3;
      }

      .cls-14 {
        fill: url(#radial-gradient-6);
      }

      .cls-15 {
        fill: url(#radial-gradient-3);
      }
    </style>
    <linearGradient id="linear-gradient" x1="17" y1="646.1" x2="241" y2="794.1" gradientTransform="translate(0 -584.1)" gradientUnits="userSpaceOnUse">
      <stop offset="0" stop-color="#6ab536"/>
      <stop offset="1" stop-color="#2e6b26"/>
    </linearGradient>
    <linearGradient id="linear-gradient-2" x1="17" y1="660.1" x2="241" y2="660.1" gradientTransform="translate(0 -584.1)" gradientUnits="userSpaceOnUse">
      <stop offset="0" stop-color="#85cb52"/>
      <stop offset="1" stop-color="#3a8830"/>
    </linearGradient>
    <linearGradient id="linear-gradient-3" x1="128" y1="170.5" x2="128" y2="75.3" gradientTransform="translate(0 255.9) scale(1 -1)" gradientUnits="userSpaceOnUse">
      <stop offset="0" stop-color="#414141"/>
      <stop offset=".2" stop-color="#3e3e3e"/>
      <stop offset="1" stop-color="#3a3a3a"/>
    </linearGradient>
    <radialGradient id="radial-gradient" cx="794.6" cy="-119.6" fx="794.6" fy="-119.6" r="161.9" gradientTransform="translate(-156.2 86.8) scale(.4 -.4)" gradientUnits="userSpaceOnUse">
      <stop offset=".7" stop-color="#fcfcfc" stop-opacity="0"/>
      <stop offset="1" stop-color="#fcfcfc"/>
    </radialGradient>
    <radialGradient id="radial-gradient-2" cx="801.1" cy="-141" fx="801.1" fy="-141" r="134.7" gradientTransform="translate(-156.2 86.8) scale(.4 -.4)" gradientUnits="userSpaceOnUse">
      <stop offset=".1" stop-color="#0f0f0d" stop-opacity="0"/>
      <stop offset=".9" stop-color="#414141" stop-opacity="0"/>
      <stop offset=".9" stop-color="#1e1e1d" stop-opacity=".7"/>
      <stop offset="1" stop-color="#0f0f0d"/>
    </radialGradient>
    <radialGradient id="radial-gradient-3" cx="805.6" cy="-851.5" fx="805.6" fy="-851.5" r="261.6" gradientTransform="translate(-156.2 -63.9) scale(.4 -.2)" gradientUnits="userSpaceOnUse">
      <stop offset="0" stop-color="#2e6b26"/>
      <stop offset="1" stop-color="#6ab536"/>
    </radialGradient>
    <radialGradient id="radial-gradient-4" cx="803.6" cy="-58.8" fx="803.6" fy="-58.8" r="51.1" gradientTransform="translate(-156.2 86.8) scale(.4 -.4)" gradientUnits="userSpaceOnUse">
      <stop offset="0" stop-color="#6ab536"/>
      <stop offset="1" stop-color="#2e6b26"/>
    </radialGradient>
    <radialGradient id="radial-gradient-5" cx="847.7" cy="302.6" fx="847.7" fy="302.6" r="63.3" gradientTransform="translate(-156.5 269.4) scale(.3 -.6)" gradientUnits="userSpaceOnUse">
      <stop offset="0" stop-color="#000"/>
      <stop offset=".8" stop-color="#4f4f4f" stop-opacity="0"/>
    </radialGradient>
    <radialGradient id="radial-gradient-6" cx="802.5" cy="-43.5" fx="802.5" fy="-43.5" r="174.6" gradientTransform="translate(-156.2 86.8) scale(.4 -.4)" gradientUnits="userSpaceOnUse">
      <stop offset="0" stop-color="#f5f5f5"/>
      <stop offset=".5" stop-color="#f2f2f2"/>
    </radialGradient>
  </defs>
  <path class="cls-9" d="M104.4,42.4c-4.4-5.3-10.9-8.4-17.8-8.4H29c-6.6,0-12,5.4-12,12v114c0,6.6,5.4,12,12,12h200c6.6,0,12-5.4,12-12v-89.9c0-6.6-5.4-12-12-12h-111.6l-13-15.8h0Z"/>
  <path class="cls-12" d="M92.8,74c5,0,9.8-1.6,13.8-4.6l9.9-7.4h112.5c6.6,0,12,5.4,12,12v86c0,6.6-5.4,12-12,12H29c-6.6,0-12-5.4-12-12v-74c0-6.6,5.4-12,12-12h63.8Z"/>
  <path class="cls-7" d="M92.8,74c5,0,9.8-1.6,13.8-4.6l9.9-7.4h112.5c6.6,0,12,5.4,12,12v124c0,6.6-5.4,12-12,12H29c-6.6,0-12-5.4-12-12v-112c0-6.6,5.4-12,12-12h63.8Z"/>
  <path class="cls-9" d="M17,194v4c0,6.6,5.4,12,12,12h200c6.6,0,12-5.4,12-12v-4c0,6.6-5.4,12-12,12H29c-6.6,0-12-5.4-12-12Z"/>
  <path class="cls-10" d="M106.6,69.4c-4,3-8.8,4.6-13.8,4.6H29c-6.6,0-12,5.4-12,12v4c0-6.6,5.4-12,12-12h63.8c5,0,9.8-1.6,13.8-4.6l9.9-7.4h112.5c6.6,0,12,5.4,12,12v-4c0-6.6-5.4-12-12-12h-112.5l-9.9,7.4Z"/>
  <g class="cls-16">
    <g id="b">
      <g id="c">
        <rect class="cls-5" x="78" y="88" width="100" height="100"/>
        <g id="d">
          <path id="f" class="cls-11" d="M128,185.6c-26.2,0-47.6-21.3-47.6-47.6s21.3-47.6,47.6-47.6,47.6,21.3,47.6,47.6-21.3,47.6-47.6,47.6ZM128,94.4c-24,0-43.6,19.5-43.6,43.6s19.5,43.6,43.6,43.6,43.6-19.5,43.6-43.6-19.5-43.6-43.6-43.6Z"/>
          <path id="h" class="cls-13" d="M128,90.4c-26.2,0-47.6,21.3-47.6,47.6s21.3,47.6,47.6,47.6,47.6-21.3,47.6-47.6-21.3-47.6-47.6-47.6Z"/>
          <path id="j" class="cls-4" d="M128,185.6c-26.2,0-47.6-21.3-47.6-47.6s21.3-47.6,47.6-47.6,47.6,21.3,47.6,47.6-21.3,47.6-47.6,47.6ZM128,94.4c-24,0-43.6,19.5-43.6,43.6s19.5,43.6,43.6,43.6,43.6-19.5,43.6-43.6-19.5-43.6-43.6-43.6Z"/>
          <path id="k" class="cls-2" d="M128,94.7c-24.2,0-43.9,19.7-43.9,43.9s19.7,43.9,43.9,43.9,43.9-19.7,43.9-43.9-19.7-43.9-43.9-43.9Z"/>
          <path id="l" class="cls-6" d="M128,185.6c-26.2,0-47.6-21.3-47.6-47.6s21.3-47.6,47.6-47.6,47.6,21.3,47.6,47.6-21.3,47.6-47.6,47.6ZM128,91.4c-26.2,0-47.6,21.1-47.6,46.9s21.3,46.9,47.6,46.9,47.6-21.1,47.6-46.9-21.3-46.9-47.6-46.9h0Z"/>
        </g>
        <g id="m">
          <path id="o" class="cls-15" d="M128,94.4c-24,0-43.6,19.5-43.6,43.6s19.5,43.6,43.6,43.6,43.6-19.5,43.6-43.6-19.5-43.6-43.6-43.6Z"/>
          <path id="q" class="cls-8" d="M128,98c-7.2,0-13,5.8-13,13s5.8,13,13,13,13-5.8,13-13-5.8-13-13-13Z"/>
          <path id="s" class="cls-1" d="M105.1,100.8s0,0,0,0c0,0,0,0,0,0ZM150.9,100.8s0,0,0,.1c.1,0,.2,0,0-.1Z"/>
          <path id="t" class="cls-3" d="M104.7,166.5c-7.7-6.7-12.6-16.6-12.6-27.7s6.8-24.8,17.9-31.5c-.2,1.3-.4,2.5-.4,3.8,0,7.6,4.5,14.3,11,17.4v34.9l8.2,8.2,8.2-8.2-.5-7.2,3.9-3.9-3.9-3.9,5.9-5.9-5.9-5.9.5-8.1c6.5-3.1,11-9.7,11-17.4s0-2.5-.4-3.8c4,2.4,7.5,5.6,10.3,9.2-6.7-9.2-17.6-15.2-29.9-15.2-20.4,0-36.9,16.4-36.9,36.7s5.3,21.7,13.6,28.5h0ZM126.1,160.5h-2.8v-27.5h2.8v27.5ZM122.1,102.7c2.2-.4,4.5-.6,6.7-.6,2.3,0,4.5.2,6.7.6,0,.5.2,1,.2,1.5,0,3.8-3.1,6.9-6.8,6.9s-6.8-3.1-6.8-6.9,0-1,.2-1.5h0Z"/>
          <path id="v" class="cls-14" d="M128,94.4c-24,0-43.6,19.5-43.6,43.6s19.5,43.6,43.6,43.6,43.6-19.5,43.6-43.6-19.5-43.6-43.6-43.6ZM121.3,101.9c2.2-.4,4.5-.6,6.7-.6,2.3,0,4.5.2,6.7.6,0,.5.2,1,.2,1.5,0,3.8-3.1,6.9-6.8,6.9s-6.8-3.1-6.8-6.9,0-1,.2-1.5h0ZM125.3,132.2v27.5h-2.8v-27.5h2.8ZM128,174.7c-20.3,0-36.7-16.4-36.7-36.7s6.8-24.8,17.9-31.5c-.2,1.3-.4,2.5-.4,3.8,0,7.6,4.5,14.3,11,17.4v34.9l8.2,8.2,8.2-8.2-.5-7.2,3.9-3.9-3.9-3.9,5.9-5.9-5.9-5.9.5-8.1c6.5-3.1,11-9.7,11-17.4s0-2.5-.4-3.8c11,6.7,17.8,18.6,17.9,31.5,0,20.3-16.4,36.7-36.7,36.7Z"/>
        </g>
      </g>
    </g>
  </g>
</svg>