<?xml version="1.0" encoding="UTF-8"?><svg id="Layer_1" xmlns="http://www.w3.org/2000/svg" xmlns:xlink="http://www.w3.org/1999/xlink" viewBox="0 0 256 256"><defs><style>.cls-1,.cls-2,.cls-3,.cls-4,.cls-5,.cls-6,.cls-7,.cls-8,.cls-9,.cls-10{stroke-width:0px;}.cls-1,.cls-9{fill:#f70;}.cls-2{fill:url(#linear-gradient-3);}.cls-2,.cls-3,.cls-6,.cls-7,.cls-8,.cls-9{fill-rule:evenodd;}.cls-3{fill:url(#linear-gradient-4);opacity:.99;}.cls-4{fill:#1b2b63;}.cls-5,.cls-11{fill:#314cb0;}.cls-6{fill:url(#linear-gradient);}.cls-7{fill:url(#linear-gradient-2);}.cls-8{fill:#a6a1a1;}.cls-11{stroke:#1d2d68;stroke-width:4.85px;}.cls-10{fill:#fff;}.cls-12{mask:url(#mask);}</style><linearGradient id="linear-gradient" x1="32.58" y1="239.55" x2="213.35" y2="58.41" gradientTransform="translate(0 258) scale(1 -1)" gradientUnits="userSpaceOnUse"><stop offset="0" stop-color="#05815d"/><stop offset="1" stop-color="#0c575f"/></linearGradient><mask id="mask" x="17" y="34" width="224" height="138" maskUnits="userSpaceOnUse"><g id="mask0_501_11930"><path class="cls-6" d="M104.43,42.38c-4.37-5.31-10.88-8.38-17.75-8.38H29c-6.63,0-12,5.37-12,12v114c0,6.63,5.37,12,12,12h200c6.63,0,12-5.37,12-12v-89.86c0-6.63-5.37-12-12-12h-111.6l-12.98-15.76Z"/></g></mask><linearGradient id="linear-gradient-2" x1="17" y1="196" x2="241" y2="48" gradientTransform="translate(0 258) scale(1 -1)" gradientUnits="userSpaceOnUse"><stop offset="0" stop-color="#7086d7"/><stop offset=".95" stop-color="#263b88"/></linearGradient><linearGradient id="linear-gradient-3" x1="16.93" y1="57.32" x2="240.94" y2="54.82" gradientTransform="translate(0 258) scale(1 -1)" gradientUnits="userSpaceOnUse"><stop offset="0" stop-color="#98a8e2"/><stop offset="1" stop-color="#1b2a60"/></linearGradient><linearGradient id="linear-gradient-4" x1="17" y1="182" x2="241" y2="182" gradientTransform="translate(0 258) scale(1 -1)" gradientUnits="userSpaceOnUse"><stop offset="0" stop-color="#98a8e2"/><stop offset="1" stop-color="#1b2a60"/></linearGradient></defs><path class="cls-9" d="M104.43,42.38c-4.37-5.31-10.88-8.38-17.75-8.38H29c-6.63,0-12,5.37-12,12v114c0,6.63,5.37,12,12,12h200c6.63,0,12-5.37,12-12v-89.86c0-6.63-5.37-12-12-12h-111.6l-12.98-15.76Z"/><g class="cls-12"><path class="cls-8" d="M92.79,74c4.98,0,9.82-1.61,13.8-4.6l9.87-7.4h112.54c6.63,0,12,5.37,12,12v86c0,6.63-5.37,12-12,12H29c-6.63,0-12-5.37-12-12v-74c0-6.63,5.37-12,12-12h63.79Z"/></g><path class="cls-7" d="M92.79,74c4.98,0,9.82-1.61,13.8-4.6l9.87-7.4h112.54c6.63,0,12,5.37,12,12v124c0,6.63-5.37,12-12,12H29c-6.63,0-12-5.37-12-12v-112c0-6.63,5.37-12,12-12h63.79Z"/><path class="cls-2" d="M17,194v4c0,6.63,5.37,12,12,12h200c6.63,0,12-5.37,12-12v-4c0,6.63-5.37,12-12,12H29c-6.63,0-12-5.37-12-12Z"/><path class="cls-3" d="M106.59,69.4c-3.98,2.98-8.82,4.6-13.8,4.6H29c-6.63,0-12,5.37-12,12v4c0-6.63,5.37-12,12-12h63.79c4.98,0,9.82-1.61,13.8-4.6l9.87-7.4h112.54c6.63,0,12,5.37,12,12v-4c0-6.63-5.37-12-12-12h-112.54l-9.87,7.4Z"/><g id="layer1"><path id="rect3438-4-1-6-9-8-4" class="cls-11" d="M40.51,100.53h62.96c.28,0,.51.24.51.53v60.43c0,.3-.23.53-.51.53h-62.96c-.28,0-.51-.24-.51-.53v-60.43c0-.3.23-.53.51-.53Z"/><path id="path3008" class="cls-10" d="M56.25,126.01l9.32-11.78c1.9-2.4,2.86-4.2,2.86-5.39,0-.43-.05-.78-.16-1.04h16.26c-1.23.69-2.78,2.15-4.64,4.38-.5.58-1.37,1.66-2.63,3.21l-12.21,15.19,14.58,20.06c.89,1.21,2.01,2.58,3.38,4.09.37.39.9.85,1.59,1.4h-16.69c.13-.5.19-.94.19-1.33,0-1.19-.82-2.91-2.47-5.16l-9.38-12.79v12.95c0,3.01.61,5.12,1.82,6.33h-15.26c.84-.84,1.39-1.81,1.62-2.89.13-.61.19-1.74.19-3.41v-35.74c0-1.67-.06-2.8-.19-3.41-.24-1.08-.78-2.05-1.62-2.89h15.26c-1.21,1.21-1.82,3.31-1.82,6.3v11.91"/><path id="path3010" class="cls-10" d="M99.84,120.62v29.8c0,1.56.04,2.58.13,3.05.17.97.63,1.86,1.36,2.66h-14.28c.74-.8,1.19-1.69,1.36-2.66.09-.48.13-1.49.13-3.05v-24.15c0-1.56-.04-2.56-.13-3.02-.17-.95-.62-1.83-1.33-2.63h12.76M94.19,103.64c1.8,0,3.32.64,4.58,1.92,1.28,1.26,1.92,2.78,1.92,4.58,0,1.84-.63,3.39-1.88,4.64-1.23,1.23-2.77,1.85-4.61,1.85-1.8,0-3.33-.63-4.61-1.88-1.26-1.28-1.88-2.81-1.88-4.61,0-1.84.62-3.38,1.85-4.61,1.26-1.26,2.8-1.88,4.64-1.88"/><path id="path3012" class="cls-4" d="M142.01,153.99c-3.44,1.95-7.29,2.92-11.56,2.92-6.77,0-12.17-2.51-16.2-7.53-3.74-4.65-5.62-10.45-5.62-17.4,0-7.79,2.29-13.98,6.88-18.57,4.24-4.24,9.26-6.36,15.06-6.36,3.79,0,7.66,1.1,11.62,3.31,1.02.56,1.84.88,2.47.94l-5.81,8.44c-1.9-2.42-4.45-3.64-7.63-3.64-4.98,0-8.22,3.07-9.74,9.22-.5,2.01-.75,4.23-.75,6.65,0,6.88,1.74,11.58,5.23,14.09,1.62,1.17,3.35,1.75,5.19,1.75,3.29,0,6.21-1.41,8.76-4.22l5.39,8.83c-.26-.06-1.36.45-3.31,1.56"/><path id="path3014" class="cls-4" d="M165.61,146.17v-5.62c-.82-.15-1.69-.23-2.6-.23-1.82,0-3.38.32-4.67.97-1.64.82-2.47,2.06-2.47,3.7,0,1.23.47,2.22,1.4,2.95.84.67,1.9,1.01,3.18,1.01,2.36,0,4.08-.93,5.16-2.79M178.37,156.13h-12.11v-2.76c-2.23,2.27-5.1,3.43-8.6,3.47-2.49.02-4.75-.53-6.78-1.66-2.14-1.19-3.7-2.88-4.67-5.06-.69-1.56-1.04-3.32-1.04-5.29,0-4.5,2.2-7.82,6.59-9.97,2.53-1.23,6.08-1.85,10.65-1.85.65,0,1.77.04,3.38.13,0-3.7-1.61-5.55-4.84-5.55-2.75,0-5.64.8-8.67,2.4l-3.21-7.76c.71,0,2.11-.26,4.19-.78l4.41-1.1c1.49-.3,3.12-.45,4.87-.45,6.93,0,11.28,2.21,13.05,6.62.87,2.16,1.3,4.84,1.3,8.02v15.87c0,1.56.04,2.58.13,3.05.17.97.63,1.86,1.36,2.66"/><path id="path3016" class="cls-4" d="M203.21,146.17v-16.2c-1.43-1.21-3.02-1.82-4.77-1.82-3.81,0-5.71,3.7-5.71,11.1,0,5.97,1.74,8.96,5.23,8.96,1.82,0,3.57-.68,5.26-2.05M201.75,104.84h12.76v45.58c0,2.71.5,4.61,1.49,5.71h-12.14v-2.76c-2.36,2.32-5.37,3.47-9.02,3.47-3.09,0-5.78-.93-8.05-2.79-2.14-1.75-3.71-4.14-4.71-7.17-.69-2.12-1.04-4.48-1.04-7.08,0-8.61,2.2-14.5,6.59-17.66,2.08-1.49,4.47-2.24,7.17-2.24,3.57,0,6.37.96,8.41,2.89v-12.3c0-1.56-.04-2.56-.13-3.02-.17-.95-.62-1.83-1.33-2.63"/><path id="rect4352-5-1" class="cls-5" d="M86.53,103.11h15.58v14.88h-15.58v-14.88Z"/><path id="path3552-6-3-7" class="cls-1" d="M100.77,100.55c0,3.63-2.95,6.58-6.6,6.58s-6.6-2.95-6.6-6.58,2.95-6.58,6.6-6.58,6.6,2.95,6.6,6.58Z"/></g></svg>