<?xml version="1.0" encoding="UTF-8"?>
<svg width="256" height="256" viewBox="0 0 256 256" xmlns="http://www.w3.org/2000/svg">
  <defs>
    <style>
      .cls-1, .cls-2, .cls-3, .cls-4, .cls-5, .cls-6 {
        fill-rule: evenodd;
      }

      .cls-1, .cls-7 {
        fill: #1c82fe;
      }

      .cls-2 {
        fill: url(#linear-gradient);
      }

      .cls-3 {
        fill: #5aadff;
      }

      .cls-4 {
        fill: #1a64ad;
      }

      .cls-5 {
        fill: url(#_未命名的渐变_3);
      }

      .cls-8 {
        fill: none;
        mask: url(#mask);
      }

      .cls-6 {
        fill: #a6a1a1;
      }

      .cls-9 {
        fill: #fcfefc;
      }
    </style>
    <linearGradient id="_未命名的渐变_3" data-name="未命名的渐变 3" x1="112" y1="69" x2="112" y2="-122.62" gradientUnits="userSpaceOnUse">
      <stop offset="0" stop-color="#114272"/>
      <stop offset=".98" stop-color="#5caeff"/>
    </linearGradient>
    <linearGradient id="linear-gradient" x1="15.58" y1="205.55" x2="196.35" y2="24.41" gradientTransform="translate(0 190) scale(1 -1)" gradientUnits="userSpaceOnUse">
      <stop offset="0" stop-color="#05815d"/>
      <stop offset="1" stop-color="#0c575f"/>
    </linearGradient>
    <mask id="mask" x="0" y="0" width="224" height="138" maskUnits="userSpaceOnUse">
      <g id="mask0_501_11930" data-name="mask0 501 11930">
        <path class="cls-2" d="m87.43,8.38c-4.37-5.31-10.88-8.38-17.75-8.38H12C5.37,0,0,5.37,0,12v114c0,6.63,5.37,12,12,12h200c6.63,0,12-5.37,12-12V36.14c0-6.63-5.37-12-12-12h-111.6l-12.98-15.76Z"/>
      </g>
    </mask>
  </defs>
  <g transform="translate(17, 34)">
  <path class="cls-5" d="m87.43,8.38c-4.37-5.31-10.88-8.38-17.75-8.38H12C5.37,0,0,5.37,0,12v114c0,6.63,5.37,12,12,12h200c6.63,0,12-5.37,12-12V36.14c0-6.63-5.37-12-12-12h-111.6l-12.98-15.76Z"/>
  <g class="cls-8">
    <path class="cls-6" d="m75.79,40c4.98,0,9.82-1.61,13.8-4.6l9.87-7.4h112.54c6.63,0,12,5.37,12,12v86c0,6.63-5.37,12-12,12H12c-6.63,0-12-5.37-12-12V52c0-6.63,5.37-12,12-12h63.79Z"/>
  </g>
  <path class="cls-1" d="m75.79,40c4.98,0,9.82-1.61,13.8-4.6l9.87-7.4h112.54c6.63,0,12,5.37,12,12v124c0,6.63-5.37,12-12,12H12c-6.63,0-12-5.37-12-12V52c0-6.63,5.37-12,12-12h63.79Z"/>
  <path class="cls-4" d="m0,160v4c0,6.63,5.37,12,12,12h200c6.63,0,12-5.37,12-12v-4c0,6.63-5.37,12-12,12H12c-6.63,0-12-5.37-12-12Z"/>
  <path class="cls-3" d="m89.59,35.4c-3.98,2.98-8.82,4.6-13.8,4.6H12c-6.63,0-12,5.37-12,12v4c0-6.63,5.37-12,12-12h63.79c4.98,0,9.82-1.61,13.8-4.6l9.87-7.4h112.54c6.63,0,12,5.37,12,12v-4c0-6.63-5.37-12-12-12h-112.54l-9.87,7.4Z"/>
  <g>
    <g id="_1c82feff" data-name="#1c82feff">
      <path class="cls-7" d="m67.58,56.23h91.53v91.53h-91.53V56.23m41.97,7.79c-10.89,1.06-21.14,7.06-27.4,16.02-4.36,6.24-6.91,13.8-6.93,21.44-.17,8.7,2.82,17.43,8.26,24.22,6.67,8.52,17.17,13.94,27.99,14.37,6.84.38,13.75-1.17,19.78-4.4,9.13-4.76,16.09-13.44,18.82-23.36,2-7.05,1.91-14.69-.32-21.68-3-9.82-10.22-18.24-19.42-22.78-6.39-3.21-13.67-4.5-20.78-3.83Z"/>
      <path class="cls-7" d="m108.87,68.86c4.37-.39,8.85-.37,13.1.87,9.34,2.43,17.43,9.17,21.53,17.91,2.03,4.31,3.28,9.06,3.19,13.85.28,7.71-2.48,15.42-7.3,21.4-6.15,7.75-15.94,12.62-25.87,12.45-8.58.25-17.1-3.32-23.26-9.22-5.66-5.37-9.31-12.8-10.14-20.56-.2-3.61-.28-7.28.6-10.81,1.82-8.05,6.66-15.45,13.51-20.11,4.32-3.06,9.41-5.02,14.64-5.78m-8.31,15.07c-.56,5.7-1.07,11.41-1.65,17.1-.62,6.35-1.47,12.67-1.8,19.05,2.89.11,5.77.06,8.66.04.88-5.95,1.24-11.96,2-17.93.52,2.08,1.43,4.05,2.74,5.75,2.56,3.52,4.86,7.22,7.38,10.77.51.7,1.15,1.48,2.12,1.41,3.36.07,6.73.05,10.09-.05-1.45-2.33-3.24-4.42-4.87-6.63-2.05-2.75-4.17-5.44-6.22-8.19-.83-1.19-1.77-2.52-1.64-4.06.12-1.3,1.08-2.28,1.92-3.18,4.71-4.7,9.59-9.22,14.16-14.05-3.11-.11-6.23-.11-9.33-.08-1.14-.08-2.1.57-2.86,1.35-3.27,3.25-6.65,6.37-9.93,9.61-1.35,1.33-2.37,2.95-3.24,4.63.32-5.21,1.15-10.37,1.5-15.57-3.01-.03-6.02-.05-9.03.04Z"/>
    </g>
    <g id="_fcfefcff" data-name="#fcfefcff">
      <path class="cls-9" d="m109.55,64.02c7.11-.67,14.39.63,20.78,3.83,9.2,4.54,16.41,12.96,19.42,22.78,2.22,6.99,2.32,14.63.32,21.68-2.74,9.91-9.69,18.6-18.82,23.36-6.03,3.24-12.94,4.78-19.78,4.4-10.82-.43-21.32-5.85-27.99-14.37-5.44-6.79-8.43-15.52-8.26-24.22.02-7.63,2.56-15.19,6.93-21.44,6.26-8.97,16.52-14.97,27.4-16.02m-.68,4.84c-5.23.76-10.32,2.72-14.64,5.78-6.85,4.66-11.68,12.06-13.51,20.11-.88,3.53-.8,7.2-.6,10.81.83,7.76,4.47,15.19,10.14,20.56,6.17,5.9,14.69,9.47,23.26,9.22,9.93.17,19.72-4.7,25.87-12.45,4.82-5.99,7.58-13.69,7.3-21.4.1-4.79-1.16-9.53-3.19-13.85-4.1-8.73-12.19-15.47-21.53-17.91-4.24-1.24-8.73-1.26-13.1-.87Z"/>
      <path class="cls-9" d="m100.56,83.93c3.01-.09,6.02-.07,9.03-.04-.36,5.2-1.19,10.37-1.5,15.57.87-1.68,1.88-3.3,3.24-4.63,3.28-3.24,6.66-6.36,9.93-9.61.76-.77,1.72-1.43,2.86-1.35,3.11-.02,6.23-.03,9.33.08-4.57,4.83-9.45,9.36-14.16,14.05-.85.9-1.8,1.89-1.92,3.18-.13,1.53.81,2.86,1.64,4.06,2.05,2.75,4.16,5.44,6.22,8.19,1.62,2.2,3.42,4.29,4.87,6.63-3.36.1-6.73.12-10.09.05-.96.07-1.61-.71-2.12-1.41-2.52-3.55-4.82-7.25-7.38-10.77-1.31-1.7-2.22-3.67-2.74-5.75-.75,5.97-1.11,11.98-2,17.93-2.89.02-5.78.07-8.66-.04.33-6.37,1.19-12.7,1.8-19.05.58-5.7,1.09-11.4,1.65-17.1Z"/>
    </g>
  </g>
  </g>
</svg>
