<?xml version="1.0" encoding="UTF-8"?>
<!-- Created with Inkscape (http://www.inkscape.org/) -->
<svg width="341.33" height="341.33" version="1.1" viewBox="0 0 341.33 341.33" xmlns="http://www.w3.org/2000/svg" xmlns:xlink="http://www.w3.org/1999/xlink">
 <defs>
  <linearGradient id="b" x2="1" gradientTransform="matrix(180.77 -181.14 181.14 180.77 32.582 237.55)" gradientUnits="userSpaceOnUse">
   <stop stop-color="#05815d" offset="0"/>
   <stop stop-color="#0c575f" offset="1"/>
  </linearGradient>
  <linearGradient id="c" x1="26.438" x2="26.438" y1="8.378" y2="-67.123" gradientUnits="userSpaceOnUse">
   <stop stop-color="#ffc833" offset=".3"/>
   <stop stop-color="#d9980a" offset="1"/>
  </linearGradient>
  <clipPath id="k">
   <path transform="translate(-104.42 -213.62)" d="m0 256h256v-256h-256z"/>
  </clipPath>
  <linearGradient id="d" x2="1" gradientTransform="matrix(298.67 0 0 -298.67 22.667 101.33)" gradientUnits="userSpaceOnUse">
   <stop stop-color="#ffecb5" offset="0"/>
   <stop stop-color="#ffde82" offset="1"/>
  </linearGradient>
  <linearGradient id="e" x2="1" gradientTransform="matrix(298.69 3.3336 3.3336 -298.69 22.567 267.58)" gradientUnits="userSpaceOnUse">
   <stop stop-color="#ffcf4e" offset="0"/>
   <stop stop-color="#ffb504" offset="1"/>
  </linearGradient>
  <linearGradient id="f" x2="1" gradientTransform="matrix(298.67 197.33 197.33 -298.67 22.667 82.667)" gradientUnits="userSpaceOnUse">
   <stop stop-color="#ffe7a2" offset="0"/>
   <stop stop-color="#ffcb3d" offset=".95312"/>
   <stop stop-color="#ffcb3d" offset="1"/>
  </linearGradient>
  <clipPath id="g">
   <path transform="matrix(1.3333 0 0 -1.3333 0 341.33)" d="m0 256h256v-256h-256z"/>
  </clipPath>
  <mask id="a" x="0" y="0" width="1" height="1" maskUnits="userSpaceOnUse">
   <path transform="matrix(1.3333 0 0 -1.3333 0 341.33)" d="m17 194h224v-110h-224z" clip-path="url(#j)"/>
   <path transform="matrix(1.3333 0 0 -1.3333 0 341.33)" d="m104.42 213.62c-4.369 5.305-10.881 8.378-17.754 8.378h-57.671c-6.627 0-12-5.373-12-12v-114c0-6.627 5.373-12 12-12h200c6.627 0 12 5.373 12 12v89.863c0 6.627-5.373 12-12 12h-111.6z" clip-path="url(#i)" fill="url(#b)" fill-rule="evenodd"/>
  </mask>
  <clipPath id="j">
   <path d="m17 194h224v-110h-224z"/>
  </clipPath>
  <clipPath id="i">
   <path d="m17 194h224v-110h-224z"/>
  </clipPath>
  <clipPath id="h">
   <path transform="translate(-92.789 -182)" d="m17 194h224v-110h-224z"/>
  </clipPath>
 </defs>
 <path transform="matrix(1.3333 0 0 -1.3333 139.23 56.505)" d="m0 0c-4.369 5.305-10.881 8.378-17.754 8.378h-57.671c-6.627 0-12-5.372-12-12v-114c0-6.627 5.373-12 12-12h200c6.627 0 12 5.373 12 12v89.863c0 6.628-5.373 12-12 12h-111.6z" clip-path="url(#k)" fill="url(#c)" fill-rule="evenodd"/>
 <g clip-path="url(#g)" mask="url(#a)">
  <path transform="matrix(1.3333 0 0 -1.3333 123.72 98.667)" d="m0 0c4.975 0 9.816 1.613 13.797 4.598l9.873 7.402h112.54c6.627 0 12-5.373 12-12v-86c0-6.627-5.373-12-12-12h-200c-6.627 0-12 5.373-12 12v74c0 6.627 5.373 12 12 12h58z" clip-path="url(#h)" fill="#a6a1a1" fill-rule="evenodd"/>
 </g>
 <path d="m155.28 82.667-13.164 9.8693c-5.308 3.98-11.763 6.1307-18.396 6.1307h-85.052c-8.8373 0-16 7.1627-16 16v149.33c0 8.836 7.1627 16 16 16h266.67c8.836 0 16-7.164 16-16v-165.33c0-8.836-7.164-16-16-16z" fill="url(#f)"/>
 <path d="m305.33 274.67h-266.67c-8.8373 0-16-7.1627-16-16v5.3333c0 8.836 7.1627 16 16 16h266.67c8.836 0 16-7.164 16-16v-5.3333c0 8.8373-7.164 16-16 16" fill="url(#e)"/>
 <path d="m155.28 82.667-13.164 9.8693c-5.308 3.98-11.763 6.1307-18.396 6.1307h-85.052c-8.8373 0-16 7.1627-16 16v5.3333c0-8.836 7.1627-16 16-16h85.052c6.6333 0 13.088-2.1507 18.396-6.1293l13.164-9.8707h150.05c8.836 0 16 7.1627 16 16v-5.3333c0-8.836-7.164-16-16-16z" fill="url(#d)"/>
 <path d="m211.52 101.81c-0.16296 4e-3 -0.27148 0.14651-0.27148 0.14648l-11.549 18.035 2.5664 0.86572 9.5332-18.512s0.15635-0.32595-0.0996-0.48438c-0.064-0.0396-0.12537-0.0523-0.17969-0.0508zm-18.35 18.527-3.4902 5.2539 14.252 4.6523 3.1113-5.2305zm-5.0488 7.4902-80.273 15.91v78.682l9.7422-1.625v18.178h22.344v13.482h42.938v-42.658l5.25-12.455v-15.047l17.182 5.4062 0.0254 14.15-5.25 12.455v23.863h18.824v14.285h17.639v-108.72zm-8.123 32.176-5.9609 7.832-3.1172-3.1953-5.7676 0.97461 0.27343 2.9609-5.2617-4.7148zm-41.605 7.7266-5.9609 7.832-3.1172-3.1953-5.7676 0.97461 0.27344 2.9609-5.2617-4.7148zm52.611 18.578v11.834l-5.2637 12.486 0.0137 41.826h30.469v-11.504h-18.826l0.0137-27.477 5.2363-12.424-0.0352-11.227zm-42.967 13.18 3.3496 4.0508-6.8184 1.1113zm-33.312 25.479-10.736 2.0332v25.455h33.07v-10.605h-22.334z" fill="#b18412"/>
</svg>
