<svg width="256" height="256" viewBox="0 0 256 256" fill="none" xmlns="http://www.w3.org/2000/svg">
<path fill-rule="evenodd" clip-rule="evenodd" d="M104.425 42.3784C100.056 37.0733 93.5437 34 86.6712 34H29C22.3726 34 17 39.3726 17 46V58.1371V68.2V160C17 166.627 22.3726 172 29 172H229C235.627 172 241 166.627 241 160V70.1371C241 63.5097 235.627 58.1371 229 58.1371H117.404L104.425 42.3784Z" fill="#AA3035"/>
<mask id="mask0_2004_31547" style="mask-type:alpha" maskUnits="userSpaceOnUse" x="17" y="34" width="224" height="138">
<path fill-rule="evenodd" clip-rule="evenodd" d="M104.425 42.3784C100.056 37.0733 93.5437 34 86.6712 34H29C22.3726 34 17 39.3726 17 46V58.1371V68.2V160C17 166.627 22.3726 172 29 172H229C235.627 172 241 166.627 241 160V70.1371C241 63.5097 235.627 58.1371 229 58.1371H117.404L104.425 42.3784Z" fill="url(#paint0_linear_2004_31547)"/>
</mask>
<g mask="url(#mask0_2004_31547)">
<g style="mix-blend-mode:multiply" filter="url(#filter0_f_2004_31547)">
<path fill-rule="evenodd" clip-rule="evenodd" d="M92.789 74C97.7642 74 102.605 72.3868 106.586 69.4024L116.459 62H229C235.627 62 241 67.3726 241 74V108V160C241 166.627 235.627 172 229 172H29C22.3726 172 17 166.627 17 160L17 108V86C17 79.3726 22.3726 74 29 74H87H92.789Z" fill="black" fill-opacity="0.3"/>
</g>
</g>
<g filter="url(#filter1_ii_2004_31547)">
<path fill-rule="evenodd" clip-rule="evenodd" d="M92.789 74C97.7642 74 102.605 72.3868 106.586 69.4024L116.459 62H229C235.627 62 241 67.3726 241 74V108V198C241 204.627 235.627 210 229 210H29C22.3726 210 17 204.627 17 198L17 108V86C17 79.3726 22.3726 74 29 74H87H92.789Z" fill="url(#paint1_linear_2004_31547)"/>
</g>
<path d="M100.928 167.211H99.924C99.5224 171.351 98.9601 176.383 91.8917 176.383H88.6387C86.7511 176.383 86.6708 176.099 86.6708 174.76V153.211C86.6708 151.831 86.6708 151.263 90.446 151.263H91.7713V150.045C90.3255 150.167 86.711 150.167 85.0643 150.167C83.4981 150.167 80.3655 150.167 79 150.045V151.263H79.9237C83.0161 151.263 83.0965 151.709 83.0965 153.17V174.476C83.0965 175.937 83.0161 176.383 79.9237 176.383H79V177.641H99.8437L100.928 167.211Z" fill="#9F393D"/>
<path d="M100.246 150.006C100.086 149.52 100.005 149.357 99.4831 149.357C98.9611 149.357 98.8406 149.52 98.6799 150.006L92.214 166.564C91.9329 167.254 91.4509 168.512 88.9609 168.512V169.527H95.1859V168.512C93.9409 168.512 93.1778 167.944 93.1778 167.132C93.1778 166.929 93.218 166.848 93.2983 166.564L94.6638 163.074H102.616L104.222 167.214C104.303 167.376 104.383 167.579 104.383 167.7C104.383 168.512 102.857 168.512 102.094 168.512V169.527H110.005V168.512H109.443C107.556 168.512 107.355 168.228 107.074 167.417L100.246 150.006ZM98.6398 152.888L102.214 162.06H95.0655L98.6398 152.888Z" fill="#9F393D"/>
<path d="M132.415 150.291H107.957L107.234 159.382H108.198C108.76 152.847 109.363 151.508 115.427 151.508C116.15 151.508 117.194 151.508 117.596 151.59C118.439 151.752 118.439 152.198 118.439 153.132V174.437C118.439 175.817 118.439 176.385 114.222 176.385H112.616V177.644C114.263 177.522 118.319 177.522 120.166 177.522C122.014 177.522 126.15 177.522 127.797 177.644V176.385H126.19C121.973 176.385 121.973 175.817 121.973 174.437V153.132C121.973 152.32 121.973 151.752 122.696 151.59C123.138 151.508 124.223 151.508 124.986 151.508C131.01 151.508 131.612 152.847 132.175 159.382H133.179L132.415 150.291Z" fill="#9F393D"/>
<path d="M153.94 176.343H152.937C151.932 182.553 151.009 185.515 144.141 185.515H138.84C136.952 185.515 136.872 185.231 136.872 183.892V173.097H140.446C144.342 173.097 144.783 174.396 144.783 177.845H145.788V167.131H144.783C144.783 170.581 144.342 171.839 140.446 171.839H136.872V162.139C136.872 160.8 136.952 160.516 138.84 160.516H143.981C150.125 160.516 151.169 162.748 151.812 168.389H152.816L151.691 159.299H129.201V160.516H130.125C133.217 160.516 133.297 160.963 133.297 162.424V183.608C133.297 185.069 133.217 185.515 130.125 185.515H129.201V186.773H152.254L153.94 176.343Z" fill="#9F393D"/>
<path d="M166.028 162.017L171.531 153.9C172.374 152.602 173.74 151.303 177.314 151.263V150.045H167.755V151.263C169.362 151.303 170.246 152.196 170.246 153.129C170.246 153.535 170.165 153.616 169.884 154.063L165.305 160.881L160.165 153.089C160.085 152.967 159.884 152.642 159.884 152.48C159.884 151.993 160.767 151.303 162.454 151.263V150.045C161.089 150.167 158.157 150.167 156.631 150.167C155.386 150.167 152.896 150.126 151.41 150.045V151.263H152.173C154.382 151.263 155.145 151.546 155.908 152.683L163.257 163.924L156.711 173.705C156.149 174.516 154.944 176.383 150.928 176.383V177.641H160.486V176.383C158.639 176.343 157.956 175.247 157.956 174.516C157.956 174.151 158.076 173.989 158.358 173.542L164.021 165.06L170.366 174.719C170.446 174.881 170.567 175.044 170.567 175.166C170.567 175.653 169.683 176.343 167.956 176.383V177.641C169.362 177.519 172.294 177.519 173.78 177.519C175.466 177.519 177.314 177.56 179.001 177.641V176.383H178.237C176.149 176.383 175.306 176.18 174.462 174.922L166.028 162.017Z" fill="#9F393D"/>
<path d="M100.525 86.5039C101.226 87.7669 101.955 88.8543 102.716 89.7902L102.725 89.7994C102.727 89.8027 102.731 89.8053 102.734 89.8086C102.384 89.7575 102.023 89.7218 101.648 89.7257C100.907 89.7335 100.112 89.8608 99.2545 90.1308C100.727 91.3641 101.981 92.2658 103.084 92.966C103.057 92.9572 103.028 92.9471 103.001 92.9384L103.084 92.9845C101.376 92.4499 99.5335 92.3845 97.3767 93.4079C98.9254 94.3771 100.225 95.0842 101.372 95.6172C101.338 95.6122 101.304 95.6034 101.271 95.5988L101.354 95.6448C99.5663 95.337 97.7116 95.51 95.6921 96.8415C97.0088 97.4282 98.1527 97.8711 99.1717 98.2131H99.1809L99.2454 98.2499C97.5412 98.3161 95.8522 98.8468 94.2009 100.413C95.6435 100.771 96.8786 101.01 97.9659 101.168C97.9353 101.174 97.9043 101.18 97.8739 101.186C97.8314 101.186 97.7872 101.187 97.7449 101.186L97.791 101.205C96.5206 101.493 95.2819 102.13 94.0722 103.35C95.0524 103.561 95.9343 103.726 96.7418 103.847C95.7477 104.327 94.8035 105.072 93.9434 106.212C95.0728 106.3 96.0734 106.338 96.9719 106.341C95.8849 106.844 94.8606 107.634 93.9525 108.91C95.5657 108.99 96.9142 108.987 98.0764 108.919C98.0547 108.928 98.0336 108.937 98.012 108.946C97.9413 108.953 97.8704 108.957 97.8002 108.965L97.9015 109.002C96.6932 109.532 95.5748 110.392 94.6152 111.846C96.6201 111.875 98.2081 111.781 99.54 111.616C99.4994 111.627 99.4607 111.641 99.4203 111.653C99.3689 111.656 99.3145 111.658 99.2638 111.662L99.3282 111.68C97.7576 112.148 96.3072 113.05 95.1031 114.875C96.7226 114.898 98.0749 114.837 99.2362 114.727C99.211 114.741 99.1876 114.759 99.1626 114.773C97.775 115.547 96.5822 116.71 95.7934 118.677C97.2177 118.407 98.4116 118.122 99.4479 117.821C99.4307 117.834 99.4097 117.843 99.3927 117.857L99.4571 117.848C98.3904 118.644 97.4936 119.76 96.8889 121.411C97.8695 121.194 98.7456 120.966 99.5308 120.739C98.8259 121.591 98.2816 122.655 97.9751 124.053C99.04 123.66 99.9636 123.283 100.783 122.911C100.773 122.923 100.765 122.936 100.755 122.948C100.738 122.961 100.716 122.971 100.7 122.985L100.727 122.975C99.976 123.876 99.4027 125.008 99.1166 126.51C100.616 125.911 101.835 125.335 102.863 124.789C102.834 124.817 102.798 124.843 102.771 124.872L102.799 124.863C101.89 125.859 101.211 127.14 100.939 128.904C102.709 128.122 104.072 127.396 105.192 126.713C105.18 126.725 105.167 126.738 105.155 126.75L105.229 126.713C103.958 127.801 102.982 129.246 102.642 131.453C105.027 130.4 106.695 129.447 107.99 128.563C107.434 129.688 107.14 130.998 107.282 132.641C109.587 130.873 111.046 129.446 112.133 128.186C112.131 128.204 112.134 128.223 112.133 128.241C112.067 129.04 112.117 129.907 112.354 130.864C113.72 128.516 115.087 127.543 116.478 126.74C114.739 127.868 115.051 128.781 115.051 129.824C117.119 127.647 119.996 125.333 120.878 123.887C119.698 125.658 119.227 127.34 118.917 128.821C112.883 132.012 109.2 132.848 105.082 134.123C106.679 134.709 108.394 135.278 107.687 136.093L105.8 137.98C107.006 137.605 108.239 137.064 109.307 137.796C109.202 138.786 107.954 139.29 106.886 139.867C108.766 139.19 109.171 139.349 109.666 139.508C109.913 140.694 109.055 141.33 108.497 142.113C113.232 138.513 119.408 135.67 123.759 134.482C129.88 132.421 137.777 130.272 139.924 125.046L142.069 116.43C144.585 113.707 146.899 110.887 147.997 107.455C155.004 106.1 160.672 106.585 166.582 106.737C166.044 106.647 148.54 103.681 148.54 103.681C143.423 96.6802 135.79 101.442 133.277 108.357C132.643 110.103 129.024 110.099 127.975 108.348C123.829 99.4219 111.239 89.9821 100.525 86.5039Z" fill="#EDEAEA"/>
<path d="M100.401 86.0001C101.107 87.272 101.841 88.3571 102.608 89.2976C102.257 89.2465 101.896 89.2164 101.522 89.2203C100.781 89.2281 99.9894 89.3511 99.1318 89.6211C100.628 90.8743 101.893 91.7889 103.009 92.4937C101.285 91.9432 99.4292 91.8648 97.2491 92.8993C98.8416 93.8958 100.178 94.616 101.348 95.154C99.5243 94.8178 97.633 94.9709 95.5689 96.332C96.9317 96.9393 98.1103 97.3952 99.1561 97.7418C97.4394 97.8017 95.7403 98.332 94.0772 99.9095C95.5198 100.267 96.7557 100.505 97.843 100.663C96.5123 100.932 95.207 101.57 93.942 102.845C94.9221 103.057 95.8044 103.217 96.6118 103.337C95.6178 103.818 94.6766 104.562 93.8164 105.703C94.9458 105.791 95.9451 105.83 96.8436 105.833C95.7565 106.336 94.7389 107.131 93.8309 108.407C95.4441 108.487 96.7916 108.48 97.954 108.412C96.6766 108.934 95.4992 109.816 94.4923 111.342C96.4972 111.371 98.085 111.275 99.4167 111.11C97.7638 111.559 96.2338 112.462 94.975 114.369C96.5946 114.393 97.9463 114.334 99.1078 114.224C97.6879 114.998 96.4684 116.172 95.6654 118.174C97.1272 117.897 98.3523 117.601 99.4072 117.29C98.3084 118.09 97.3848 119.213 96.7662 120.902C97.7469 120.685 98.6172 120.458 99.4023 120.231C98.6975 121.083 98.1542 122.149 97.8477 123.547C98.9126 123.155 99.8337 122.775 100.653 122.403C99.8746 123.314 99.2802 124.467 98.9871 126.005C100.486 125.406 101.706 124.833 102.734 124.286C101.791 125.293 101.09 126.589 100.812 128.395C102.637 127.589 104.038 126.842 105.177 126.14C103.869 127.236 102.863 128.693 102.516 130.944C104.901 129.891 106.566 128.936 107.861 128.052C107.305 129.177 107.01 130.494 107.151 132.136C109.456 130.368 110.917 128.936 112.003 127.675C111.93 128.49 111.988 129.375 112.23 130.355C113.885 127.512 115.529 126.682 117.231 125.733C114.521 127.098 114.922 128.125 114.922 129.317C116.991 127.139 119.874 124.83 120.757 123.383C119.577 125.154 119.097 126.832 118.787 128.313C112.752 131.504 109.078 132.338 104.959 133.613C106.557 134.2 108.269 134.773 107.562 135.588L105.674 137.471C106.88 137.096 108.111 136.561 109.179 137.292C109.074 138.282 107.823 138.782 106.755 139.359C108.635 138.681 109.042 138.838 109.536 138.997C109.783 140.183 108.926 140.82 108.368 141.604C113.103 138.003 119.282 135.159 123.634 133.971C129.755 131.909 137.647 129.767 139.793 124.542L141.946 115.924C144.463 113.2 146.777 110.376 147.875 106.944C154.882 105.588 160.547 106.078 166.458 106.229C165.919 106.14 148.411 103.173 148.411 103.173C143.294 96.1725 135.667 100.931 133.155 107.847C132.52 109.592 128.902 109.593 127.854 107.842C123.708 98.9156 111.116 89.4782 100.401 86.0001Z" fill="#008080"/>
<path d="M141.741 104.268L141.695 104.341C141.514 104.68 141.207 104.91 140.775 105.05C140.343 105.19 139.79 105.235 139.146 105.207L138.741 105.188L139.035 105.474C139.184 105.617 139.226 105.732 139.228 105.833C139.231 105.933 139.187 106.041 139.09 106.164C138.896 106.409 138.511 106.676 138.151 106.946L138.032 107.029L138.114 107.149C138.414 107.609 138.552 107.963 138.584 108.235C138.616 108.507 138.553 108.702 138.427 108.87C138.176 109.207 137.625 109.435 137.129 109.717L137.038 109.763L137.056 109.874C137.098 110.132 137.029 110.344 136.844 110.555C136.659 110.766 136.349 110.967 135.933 111.144L135.822 111.19L135.841 111.31C135.924 111.864 136.09 112.346 136.439 112.654C136.758 112.935 137.241 113.009 137.857 112.884C137.964 113.475 138.118 114.012 138.474 114.366C138.834 114.725 139.405 114.831 140.167 114.633C140.339 115.047 140.59 115.341 140.876 115.535C141.19 115.747 141.601 115.833 141.939 115.938L142.139 115.723C141.804 115.619 141.309 115.458 141.042 115.277C140.775 115.097 140.558 114.849 140.407 114.421L140.36 114.274L140.213 114.32C139.429 114.561 138.994 114.452 138.694 114.154C138.395 113.856 138.227 113.317 138.124 112.691L138.096 112.525L137.93 112.571C137.284 112.74 136.902 112.653 136.641 112.424C136.398 112.209 136.254 111.829 136.172 111.356C136.547 111.183 136.868 110.993 137.074 110.757C137.276 110.527 137.363 110.243 137.35 109.947C137.807 109.696 138.359 109.48 138.676 109.054C138.842 108.832 138.928 108.54 138.888 108.198C138.851 107.888 138.699 107.529 138.437 107.103C138.759 106.866 139.108 106.628 139.33 106.348C139.453 106.192 139.545 106.02 139.541 105.823C139.539 105.715 139.435 105.616 139.376 105.51C139.936 105.518 140.446 105.481 140.867 105.345C141.31 105.201 141.659 104.94 141.888 104.581C142.551 104.584 143.238 104.73 143.932 104.82C144.645 104.913 145.371 104.938 146.058 104.636L145.93 104.351C145.322 104.617 144.672 104.606 143.978 104.516C143.284 104.426 142.561 104.262 141.833 104.268L141.741 104.268Z" fill="white"/>
<path d="M144.317 104.154C144.317 104.876 143.731 105.462 143.009 105.462C142.287 105.462 141.701 104.876 141.701 104.154C141.701 103.431 142.287 102.846 143.009 102.846C143.731 102.846 144.317 103.431 144.317 104.154Z" fill="white" stroke="white" stroke-width="0.309083"/>
<path d="M148.224 102.926C147.05 104.453 146.755 104.059 146.04 104.315L145.92 104.361L145.939 104.49C146.214 106.024 147.123 106.512 147.833 107.069L147.872 106.945L148.061 106.909C147.35 106.35 146.571 105.877 146.288 104.573C146.809 104.45 147.306 104.607 148.415 103.164L148.224 102.926Z" fill="white"/>
<path d="M103.01 92.4904C105.229 93.8663 108.881 95.2851 111.226 96.7673C112.516 97.5888 113.675 98.4074 114.577 99.1146C115.478 99.8218 116.145 100.552 116.391 100.79C116.636 101.028 116.802 100.915 116.639 100.606C116.476 100.296 115.673 99.5812 114.761 98.866C113.849 98.1509 112.69 97.3359 111.392 96.5095C108.796 94.8567 105.749 93.379 103.01 92.4904Z" fill="white"/>
<path d="M102.61 89.2958C103.54 89.5106 104.913 90.3039 106.439 91.1527C107.966 92.0015 109.63 93.046 111.152 94.0616C112.675 95.0772 113.849 95.966 114.787 96.6821C115.678 97.4447 116.118 97.9385 116.289 97.937C116.312 97.9417 116.335 97.9421 116.372 97.937C116.408 97.932 116.469 97.9039 116.5 97.8449C116.532 97.7861 116.52 97.7366 116.51 97.7069C116.5 97.6771 116.495 97.6614 116.482 97.6424C116.432 97.5668 116.355 97.496 116.243 97.3939C116.019 97.1897 115.648 96.8894 115.175 96.5286C114.229 95.8069 112.855 94.8228 111.327 93.8038C109.8 92.7848 108.124 91.7313 106.587 90.8765C106.04 90.674 103.36 89.2567 102.61 89.2958Z" fill="white"/>
<path d="M101.336 95.1545C104.184 96.3169 108.235 97.6824 110.94 99.3822C112.393 100.305 113.658 101.224 114.603 101.978C115.076 102.355 115.471 102.694 115.763 102.963C116.056 103.232 116.221 103.476 116.316 103.543C116.513 103.683 116.665 103.59 116.573 103.368C116.504 103.201 116.275 103.009 115.975 102.733C115.675 102.457 115.274 102.119 114.797 101.739C113.842 100.977 112.569 100.044 111.105 99.1152C108.179 97.2569 104.68 95.6233 101.336 95.1545Z" fill="white"/>
<path d="M99.1446 97.7385C101.364 97.7399 105.949 99.7715 107.882 100.79C111.015 102.461 113.865 104.609 115.439 106.11C115.614 106.277 115.869 106.13 115.67 105.899C114.207 104.204 111.186 102.206 108.029 100.523C104.872 98.8391 101.604 97.736 99.1446 97.7385Z" fill="white"/>
<path d="M97.8652 100.66C101.202 101.148 105.202 102.495 108.116 103.955C109.742 104.781 111.193 105.665 112.305 106.449C113.417 107.234 114.238 108.117 114.44 108.346C114.643 108.574 114.884 108.584 114.698 108.18C114.512 107.776 113.606 106.986 112.48 106.192C111.353 105.397 109.893 104.511 108.254 103.679C104.976 102.014 101.243 100.705 97.8652 100.66Z" fill="white"/>
<path d="M98.9661 103.144C98.1372 103.072 97.3911 103.242 96.6309 103.337C99.5958 103.059 103.742 104.421 106.505 105.694C109.761 107.221 112.464 109.316 113.759 110.647C113.962 110.855 114.105 110.59 113.999 110.453C112.793 108.914 109.921 106.95 106.634 105.409C104.169 104.253 101.453 103.361 98.9661 103.144Z" fill="white"/>
<path d="M96.8575 105.817C99.7752 106.033 103.682 106.732 106.418 107.988C109.17 109.275 111.258 110.944 112.309 111.891C112.471 112.037 112.757 111.934 112.53 111.67C111.571 110.556 109.341 109.015 106.556 107.712C103.77 106.409 100.387 105.575 96.8575 105.817Z" fill="white"/>
<path d="M99.4787 108.247C98.8631 108.226 98.5744 108.341 97.9805 108.405C99.9608 108.492 103.108 109.019 104.846 109.609C107.101 110.391 108.955 111.57 110.01 112.49C110.213 112.668 110.365 112.43 110.231 112.279C109.243 111.17 107.235 110.108 104.947 109.314C103.23 108.719 101.325 108.309 99.4787 108.247Z" fill="white"/>
<path d="M99.3927 111.119C103.626 111.404 106.186 112.15 108.148 113.908C108.295 114.04 108.527 113.858 108.369 113.687C106.355 111.505 102.391 110.898 99.3927 111.119Z" fill="white"/>
<path d="M102.654 113.658C101.37 113.555 100.296 113.835 99.127 114.225C102.55 113.679 103.973 113.941 106.566 115.159C106.861 115.298 106.844 114.971 106.713 114.892C105.335 114.064 103.937 113.761 102.654 113.658Z" fill="white"/>
<path d="M102.532 116.043C101.319 116.151 100.289 116.567 99.4395 117.258C102.829 115.952 103.765 116.212 106.358 116.946C106.699 117.043 106.593 116.715 106.459 116.661C104.907 116.039 103.746 115.935 102.532 116.043Z" fill="white"/>
<path d="M109.247 118.144C107.439 117.949 105.402 118.168 103.614 118.494C101.826 118.82 100.288 119.482 99.4199 120.188C102.393 118.933 102.934 118.936 103.669 118.798C105.431 118.476 107.177 118.351 109.229 118.448C109.415 118.457 109.405 118.161 109.247 118.144Z" fill="white"/>
<path d="M110.297 119.607C108.337 119.533 106.313 120.018 104.562 120.518C102.811 121.019 101.511 121.702 100.654 122.399C102.388 121.565 104.002 121 104.645 120.813C106.371 120.32 108.113 119.892 110.315 119.92C110.486 119.922 110.597 119.618 110.297 119.607Z" fill="white"/>
<path d="M111.897 120.811C110.051 121.084 108.116 121.629 106.429 122.201C104.742 122.774 103.541 123.454 102.758 124.267C104.764 123.115 105.868 122.711 106.521 122.487C108.187 121.921 109.743 121.528 111.952 121.115C112.217 121.065 112.004 120.795 111.897 120.811Z" fill="white"/>
<path d="M112.834 122.349C109.132 122.939 106.734 124.535 105.209 126.119C107.572 124.339 109.215 123.382 112.898 122.653C113.131 122.606 113.061 122.313 112.834 122.349Z" fill="white"/>
<path d="M114.639 123.703C110.916 124.276 108.769 126.539 107.875 128.033C110.23 125.68 112.064 124.4 114.703 124.007C114.97 123.967 114.902 123.662 114.639 123.703Z" fill="white"/>
<path d="M115.765 124.88C115.184 124.952 114.394 125.364 113.648 125.837C112.901 126.311 112.338 126.887 112.002 127.63C112.901 126.702 113.261 126.45 113.813 126.095C114.53 125.64 115.252 125.354 115.838 125.184C116.113 125.104 115.906 124.862 115.765 124.88Z" fill="white"/>
<path d="M144.317 104.154C144.317 104.876 143.731 105.462 143.009 105.462C142.287 105.462 141.701 104.876 141.701 104.154C141.701 103.431 142.287 102.846 143.009 102.846C143.731 102.846 144.317 103.431 144.317 104.154Z" fill="white" stroke="white" stroke-width="0.309083"/>
<path d="M144.317 104.154C144.317 104.876 143.731 105.462 143.009 105.462C142.287 105.462 141.701 104.876 141.701 104.154C141.701 103.431 142.287 102.846 143.009 102.846C143.731 102.846 144.317 103.431 144.317 104.154Z" fill="#37C871" stroke="white" stroke-width="0.309083"/>
<defs>
<filter id="filter0_f_2004_31547" x="-20" y="25" width="298" height="184" filterUnits="userSpaceOnUse" color-interpolation-filters="sRGB">
<feFlood flood-opacity="0" result="BackgroundImageFix"/>
<feBlend mode="normal" in="SourceGraphic" in2="BackgroundImageFix" result="shape"/>
<feGaussianBlur stdDeviation="18.5" result="effect1_foregroundBlur_2004_31547"/>
</filter>
<filter id="filter1_ii_2004_31547" x="17" y="62" width="224" height="148" filterUnits="userSpaceOnUse" color-interpolation-filters="sRGB">
<feFlood flood-opacity="0" result="BackgroundImageFix"/>
<feBlend mode="normal" in="SourceGraphic" in2="BackgroundImageFix" result="shape"/>
<feColorMatrix in="SourceAlpha" type="matrix" values="0 0 0 0 0 0 0 0 0 0 0 0 0 0 0 0 0 0 127 0" result="hardAlpha"/>
<feOffset dy="4"/>
<feComposite in2="hardAlpha" operator="arithmetic" k2="-1" k3="1"/>
<feColorMatrix type="matrix" values="0 0 0 0 1 0 0 0 0 1 0 0 0 0 1 0 0 0 0.25 0"/>
<feBlend mode="normal" in2="shape" result="effect1_innerShadow_2004_31547"/>
<feColorMatrix in="SourceAlpha" type="matrix" values="0 0 0 0 0 0 0 0 0 0 0 0 0 0 0 0 0 0 127 0" result="hardAlpha"/>
<feOffset dy="-4"/>
<feComposite in2="hardAlpha" operator="arithmetic" k2="-1" k3="1"/>
<feColorMatrix type="matrix" values="0 0 0 0 0 0 0 0 0 0 0 0 0 0 0 0 0 0 0.9 0"/>
<feBlend mode="soft-light" in2="effect1_innerShadow_2004_31547" result="effect2_innerShadow_2004_31547"/>
</filter>
<linearGradient id="paint0_linear_2004_31547" x1="17" y1="34" x2="197.768" y2="215.142" gradientUnits="userSpaceOnUse">
<stop stop-color="#05815D"/>
<stop offset="1" stop-color="#0C575F"/>
</linearGradient>
<linearGradient id="paint1_linear_2004_31547" x1="17" y1="62" x2="241" y2="210" gradientUnits="userSpaceOnUse">
<stop stop-color="white"/>
<stop offset="1" stop-color="#DFECEC"/>
</linearGradient>
</defs>
</svg>
