<svg width="256" height="256" viewBox="0 0 256 256" fill="none" xmlns="http://www.w3.org/2000/svg">
<path fill-rule="evenodd" clip-rule="evenodd" d="M104.425 42.3784C100.056 37.0733 93.5437 34 86.6712 34H29C22.3726 34 17 39.3726 17 46V58.1371V68.2V160C17 166.627 22.3726 172 29 172H229C235.627 172 241 166.627 241 160V70.1371C241 63.5097 235.627 58.1371 229 58.1371H117.404L104.425 42.3784Z" fill="#333333"/>
<mask id="mask0_1801_28773" style="mask-type:alpha" maskUnits="userSpaceOnUse" x="17" y="34" width="224" height="138">
<path fill-rule="evenodd" clip-rule="evenodd" d="M104.425 42.3784C100.056 37.0733 93.5437 34 86.6712 34H29C22.3726 34 17 39.3726 17 46V58.1371V68.2V160C17 166.627 22.3726 172 29 172H229C235.627 172 241 166.627 241 160V70.1371C241 63.5097 235.627 58.1371 229 58.1371H117.404L104.425 42.3784Z" fill="url(#paint0_linear_1801_28773)"/>
</mask>
<g mask="url(#mask0_1801_28773)">
<g style="mix-blend-mode:multiply" filter="url(#filter0_f_1801_28773)">
<path fill-rule="evenodd" clip-rule="evenodd" d="M92.789 74C97.7642 74 102.605 72.3868 106.586 69.4024L116.459 62H229C235.627 62 241 67.3726 241 74V108V160C241 166.627 235.627 172 229 172H29C22.3726 172 17 166.627 17 160L17 108V86C17 79.3726 22.3726 74 29 74H87H92.789Z" fill="black" fill-opacity="0.3"/>
</g>
</g>
<g filter="url(#filter1_ii_1801_28773)">
<path fill-rule="evenodd" clip-rule="evenodd" d="M92.789 74C97.7642 74 102.605 72.3868 106.586 69.4024L116.459 62H229C235.627 62 241 67.3726 241 74V108V198C241 204.627 235.627 210 229 210H29C22.3726 210 17 204.627 17 198L17 108V86C17 79.3726 22.3726 74 29 74H87H92.789Z" fill="url(#paint1_linear_1801_28773)"/>
</g>
<path d="M86.093 139.65H84.593C83.993 145.77 83.153 153.21 72.593 153.21H67.733C64.913 153.21 64.793 152.79 64.793 150.81V118.95C64.793 116.91 64.793 116.07 70.433 116.07H72.413V114.27C70.253 114.45 64.853 114.45 62.393 114.45C60.053 114.45 55.373 114.45 53.333 114.27V116.07H54.713C59.333 116.07 59.453 116.73 59.453 118.89V150.39C59.453 152.55 59.333 153.21 54.713 153.21H53.333V155.07H84.473L86.093 139.65Z" fill="white"/>
<path d="M85.0729 114.21C84.8329 113.49 84.7129 113.25 83.9329 113.25C83.1529 113.25 82.9729 113.49 82.7329 114.21L73.0729 138.69C72.6529 139.71 71.9329 141.57 68.2129 141.57V143.07H77.5129V141.57C75.6529 141.57 74.5129 140.73 74.5129 139.53C74.5129 139.23 74.5729 139.11 74.6929 138.69L76.7329 133.53H88.6129L91.0129 139.65C91.1329 139.89 91.2529 140.19 91.2529 140.37C91.2529 141.57 88.9729 141.57 87.8329 141.57V143.07H99.6529V141.57H98.8129C95.9929 141.57 95.6929 141.15 95.2729 139.95L85.0729 114.21ZM82.6729 118.47L88.0129 132.03H77.3329L82.6729 118.47Z" fill="white"/>
<path d="M133.133 114.629H96.5927L95.5127 128.069H96.9527C97.7927 118.409 98.6927 116.429 107.753 116.429C108.833 116.429 110.393 116.429 110.993 116.549C112.253 116.789 112.253 117.449 112.253 118.829V150.329C112.253 152.369 112.253 153.209 105.953 153.209H103.553V155.069C106.013 154.889 112.073 154.889 114.833 154.889C117.593 154.889 123.773 154.889 126.233 155.069V153.209H123.833C117.533 153.209 117.533 152.369 117.533 150.329V118.829C117.533 117.629 117.533 116.789 118.613 116.549C119.273 116.429 120.893 116.429 122.033 116.429C131.033 116.429 131.933 118.409 132.773 128.069H134.273L133.133 114.629Z" fill="white"/>
<path d="M165.293 153.149H163.793C162.293 162.329 160.913 166.709 150.653 166.709H142.733C139.913 166.709 139.793 166.289 139.793 164.309V148.349H145.133C150.953 148.349 151.613 150.269 151.613 155.369H153.113V139.529H151.613C151.613 144.629 150.953 146.489 145.133 146.489H139.793V132.149C139.793 130.169 139.913 129.749 142.733 129.749H150.413C159.593 129.749 161.153 133.049 162.113 141.389H163.613L161.933 127.949H128.333V129.749H129.713C134.333 129.749 134.453 130.409 134.453 132.569V163.889C134.453 166.049 134.333 166.709 129.713 166.709H128.333V168.569H162.773L165.293 153.149Z" fill="white"/>
<path d="M183.353 131.97L191.573 119.97C192.833 118.05 194.873 116.13 200.213 116.07V114.27H185.933V116.07C188.333 116.13 189.653 117.45 189.653 118.83C189.653 119.43 189.533 119.55 189.113 120.21L182.273 130.29L174.593 118.77C174.473 118.59 174.173 118.11 174.173 117.87C174.173 117.15 175.493 116.13 178.013 116.07V114.27C175.973 114.45 171.593 114.45 169.313 114.45C167.453 114.45 163.733 114.39 161.513 114.27V116.07H162.653C165.953 116.07 167.093 116.49 168.233 118.17L179.213 134.79L169.433 149.25C168.593 150.45 166.793 153.21 160.793 153.21V155.07H175.073V153.21C172.313 153.15 171.293 151.53 171.293 150.45C171.293 149.91 171.473 149.67 171.893 149.01L180.353 136.47L189.833 150.75C189.953 150.99 190.133 151.23 190.133 151.41C190.133 152.13 188.813 153.15 186.233 153.21V155.07C188.333 154.89 192.713 154.89 194.933 154.89C197.453 154.89 200.213 154.95 202.733 155.07V153.21H201.593C198.473 153.21 197.213 152.91 195.953 151.05L183.353 131.97Z" fill="white"/>
<defs>
<filter id="filter0_f_1801_28773" x="-20" y="25" width="298" height="184" filterUnits="userSpaceOnUse" color-interpolation-filters="sRGB">
<feFlood flood-opacity="0" result="BackgroundImageFix"/>
<feBlend mode="normal" in="SourceGraphic" in2="BackgroundImageFix" result="shape"/>
<feGaussianBlur stdDeviation="18.5" result="effect1_foregroundBlur_1801_28773"/>
</filter>
<filter id="filter1_ii_1801_28773" x="17" y="62" width="224" height="148" filterUnits="userSpaceOnUse" color-interpolation-filters="sRGB">
<feFlood flood-opacity="0" result="BackgroundImageFix"/>
<feBlend mode="normal" in="SourceGraphic" in2="BackgroundImageFix" result="shape"/>
<feColorMatrix in="SourceAlpha" type="matrix" values="0 0 0 0 0 0 0 0 0 0 0 0 0 0 0 0 0 0 127 0" result="hardAlpha"/>
<feOffset dy="4"/>
<feComposite in2="hardAlpha" operator="arithmetic" k2="-1" k3="1"/>
<feColorMatrix type="matrix" values="0 0 0 0 1 0 0 0 0 1 0 0 0 0 1 0 0 0 0.25 0"/>
<feBlend mode="normal" in2="shape" result="effect1_innerShadow_1801_28773"/>
<feColorMatrix in="SourceAlpha" type="matrix" values="0 0 0 0 0 0 0 0 0 0 0 0 0 0 0 0 0 0 127 0" result="hardAlpha"/>
<feOffset dy="-4"/>
<feComposite in2="hardAlpha" operator="arithmetic" k2="-1" k3="1"/>
<feColorMatrix type="matrix" values="0 0 0 0 0 0 0 0 0 0 0 0 0 0 0 0 0 0 0.9 0"/>
<feBlend mode="soft-light" in2="effect1_innerShadow_1801_28773" result="effect2_innerShadow_1801_28773"/>
</filter>
<linearGradient id="paint0_linear_1801_28773" x1="17" y1="34" x2="197.768" y2="215.142" gradientUnits="userSpaceOnUse">
<stop stop-color="#05815D"/>
<stop offset="1" stop-color="#0C575F"/>
</linearGradient>
<linearGradient id="paint1_linear_1801_28773" x1="17" y1="62" x2="241" y2="210" gradientUnits="userSpaceOnUse">
<stop stop-color="#383838"/>
<stop offset="1" stop-color="#1E1E1E"/>
</linearGradient>
</defs>
</svg>
