<svg width="256" height="256" viewBox="0 0 256 256" fill="none" xmlns="http://www.w3.org/2000/svg">
<g clip-path="url(#clip0_4402_13368)">
<path d="M104.425 42.3784C100.056 37.0733 93.5437 34 86.6712 34H29C22.3726 34 17 39.3726 17 46V160C17 166.627 22.3726 172 29 172H229C235.627 172 241 166.627 241 160V70.1371C241 63.5097 235.627 58.1371 229 58.1371H117.404L104.425 42.3784Z" fill="url(#paint0_linear_4402_13368)"/>
<mask id="mask0_4402_13368" style="mask-type:alpha" maskUnits="userSpaceOnUse" x="17" y="34" width="224" height="138">
<path d="M86.6709 34C93.5434 34 100.057 37.0729 104.426 42.3779L117.403 58.1367H229C235.627 58.1367 241 63.5095 241 70.1367V160C241 166.627 235.627 172 229 172H29C22.3726 172 17 166.627 17 160V46C17 39.3726 22.3726 34 29 34H86.6709Z" fill="url(#paint1_linear_4402_13368)"/>
</mask>
<g mask="url(#mask0_4402_13368)">
<g filter="url(#filter0_f_4402_13368)" style="mix-blend-mode:multiply">
<path d="M241 160C241 166.627 235.627 172 229 172H29C22.3726 172 17 166.627 17 160V86C17 79.3726 22.3726 74 29 74H92.79C97.7649 73.9999 102.605 72.3865 106.586 69.4023L116.46 62H229C235.627 62 241 67.3726 241 74V160Z" fill="black" fill-opacity="0.3"/>
</g>
</g>
<g filter="url(#filter1_ii_4402_13368)">
<path d="M241 198C241 204.627 235.627 210 229 210H29C22.3726 210 17 204.627 17 198V86C17 79.3726 22.3726 74 29 74H92.79C97.7649 73.9999 102.605 72.3865 106.586 69.4023L116.46 62H229C235.627 62 241 67.3726 241 74V198Z" fill="url(#paint2_linear_4402_13368)"/>
</g>
<path d="M73.4277 170.603H93.0173L88.5048 151.074L73.4277 170.603Z" fill="#3D90CE"/>
<path d="M50 159.453V170.605H70.5878L79.1956 159.453H50Z" fill="#3D90CE"/>
<path d="M77.9941 131.289L100.872 142.585V120.119L77.9941 131.289Z" fill="#3D90CE"/>
<path d="M95.3143 170.605H100.872V145.106L87.9434 138.723L95.3143 170.605Z" fill="#3D90CE"/>
<path d="M98.0088 119H69.5159L66.0781 134.587L98.0088 119Z" fill="#3D90CE"/>
<path d="M50 135.559V157.183H66.9558L50 135.559Z" fill="#3D90CE"/>
<path d="M67.2249 119H50.0039V131.915L61.2252 146.225L67.2249 119Z" fill="#3D90CE"/>
<path d="M119 156.998V133H123.175V153.058H135V157L119 156.998Z" fill="white"/>
<path d="M142 156.998V133H158.216V136.875H146.269V142.669H153.635V146.544H146.269V153.125H159V157L142 156.998Z" fill="white"/>
<path d="M184.998 157H180.992L170.331 141.845C169.934 141.277 169.578 140.682 169.264 140.062C169.341 140.653 169.378 141.249 169.375 141.845V157H165V133.002H169.264L179.669 147.915C180.058 148.5 180.414 149.106 180.736 149.731C180.663 149.129 180.626 148.522 180.625 147.915V133H185L184.998 157Z" fill="white"/>
<path d="M199.315 156.979C197.345 157.112 195.384 156.603 193.712 155.527C192.04 154.451 190.741 152.861 190 150.984L193.917 149.625C194.409 150.703 195.192 151.614 196.175 152.248C197.157 152.882 198.296 153.214 199.456 153.203C200.545 153.26 201.624 152.971 202.545 152.373C202.887 152.12 203.168 151.789 203.365 151.407C203.562 151.024 203.669 150.6 203.68 150.167C203.69 149.734 203.602 149.305 203.424 148.913C203.245 148.521 202.981 148.177 202.651 147.907C201.343 147.053 199.906 146.426 198.399 146.052C196.255 145.541 194.241 144.57 192.49 143.204C191.945 142.633 191.525 141.95 191.258 141.199C190.991 140.449 190.883 139.649 190.942 138.852C191.001 138.056 191.225 137.281 191.599 136.581C191.973 135.88 192.489 135.27 193.112 134.79C195.581 132.589 201.414 132.378 204.19 134.377C205.489 135.208 206.463 136.479 206.943 137.97L203.133 139.162C202.722 138.359 202.085 137.701 201.304 137.276C200.523 136.85 199.635 136.676 198.757 136.777C197.85 136.722 196.947 136.944 196.163 137.415C195.896 137.583 195.673 137.813 195.511 138.087C195.349 138.361 195.254 138.671 195.233 138.991C195.212 139.31 195.266 139.63 195.391 139.924C195.516 140.218 195.707 140.477 195.95 140.679C197.147 141.55 198.513 142.148 199.954 142.433C202.587 143.349 205.383 144.162 207.047 146.558C207.664 147.59 207.994 148.776 208 149.987C208.009 154.772 203.73 157.007 199.315 156.979Z" fill="white"/>
</g>
<defs>
<filter id="filter0_f_4402_13368" x="-20" y="25" width="298" height="184" filterUnits="userSpaceOnUse" color-interpolation-filters="sRGB">
<feFlood flood-opacity="0" result="BackgroundImageFix"/>
<feBlend mode="normal" in="SourceGraphic" in2="BackgroundImageFix" result="shape"/>
<feGaussianBlur stdDeviation="18.5" result="effect1_foregroundBlur_4402_13368"/>
</filter>
<filter id="filter1_ii_4402_13368" x="17" y="62" width="224" height="148" filterUnits="userSpaceOnUse" color-interpolation-filters="sRGB">
<feFlood flood-opacity="0" result="BackgroundImageFix"/>
<feBlend mode="normal" in="SourceGraphic" in2="BackgroundImageFix" result="shape"/>
<feColorMatrix in="SourceAlpha" type="matrix" values="0 0 0 0 0 0 0 0 0 0 0 0 0 0 0 0 0 0 127 0" result="hardAlpha"/>
<feOffset dy="4"/>
<feComposite in2="hardAlpha" operator="arithmetic" k2="-1" k3="1"/>
<feColorMatrix type="matrix" values="0 0 0 0 1 0 0 0 0 1 0 0 0 0 1 0 0 0 0.25 0"/>
<feBlend mode="normal" in2="shape" result="effect1_innerShadow_4402_13368"/>
<feColorMatrix in="SourceAlpha" type="matrix" values="0 0 0 0 0 0 0 0 0 0 0 0 0 0 0 0 0 0 127 0" result="hardAlpha"/>
<feOffset dy="-4"/>
<feComposite in2="hardAlpha" operator="arithmetic" k2="-1" k3="1"/>
<feColorMatrix type="matrix" values="0 0 0 0 0 0 0 0 0 0 0 0 0 0 0 0 0 0 0.9 0"/>
<feBlend mode="soft-light" in2="effect1_innerShadow_4402_13368" result="effect2_innerShadow_4402_13368"/>
</filter>
<linearGradient id="paint0_linear_4402_13368" x1="17" y1="34" x2="197.768" y2="215.142" gradientUnits="userSpaceOnUse">
<stop stop-color="#04182E"/>
</linearGradient>
<linearGradient id="paint1_linear_4402_13368" x1="17" y1="34" x2="197.768" y2="215.142" gradientUnits="userSpaceOnUse">
<stop stop-color="#05815D"/>
<stop offset="1" stop-color="#0C575F"/>
</linearGradient>
<linearGradient id="paint2_linear_4402_13368" x1="17" y1="62" x2="241" y2="210" gradientUnits="userSpaceOnUse">
<stop stop-color="#0255B2"/>
<stop offset="1" stop-color="#041120"/>
</linearGradient>
<clipPath id="clip0_4402_13368">
<rect width="256" height="256" fill="white"/>
</clipPath>
</defs>
</svg>
