<svg width="256" height="256" viewBox="0 0 256 256" fill="none" xmlns="http://www.w3.org/2000/svg">
<path fill-rule="evenodd" clip-rule="evenodd" d="M104.425 42.3784C100.056 37.0733 93.5437 34 86.6712 34H29C22.3726 34 17 39.3726 17 46V58.1371V68.2V160C17 166.627 22.3726 172 29 172H229C235.627 172 241 166.627 241 160V70.1371C241 63.5097 235.627 58.1371 229 58.1371H117.404L104.425 42.3784Z" fill="#28446F"/>
<mask id="mask0_2239_40031" style="mask-type:alpha" maskUnits="userSpaceOnUse" x="17" y="34" width="224" height="138">
<path fill-rule="evenodd" clip-rule="evenodd" d="M104.425 42.3784C100.056 37.0733 93.5437 34 86.6712 34H29C22.3726 34 17 39.3726 17 46V58.1371V68.2V160C17 166.627 22.3726 172 29 172H229C235.627 172 241 166.627 241 160V70.1371C241 63.5097 235.627 58.1371 229 58.1371H117.404L104.425 42.3784Z" fill="url(#paint0_linear_2239_40031)"/>
</mask>
<g mask="url(#mask0_2239_40031)">
<g style="mix-blend-mode:multiply" filter="url(#filter0_f_2239_40031)">
<path fill-rule="evenodd" clip-rule="evenodd" d="M92.789 74C97.7642 74 102.605 72.3868 106.586 69.4024L116.459 62H229C235.627 62 241 67.3726 241 74V108V160C241 166.627 235.627 172 229 172H29C22.3726 172 17 166.627 17 160L17 108V86C17 79.3726 22.3726 74 29 74H87H92.789Z" fill="black" fill-opacity="0.3"/>
</g>
</g>
<g filter="url(#filter1_ii_2239_40031)">
<path d="M92.789 74C97.7642 74 102.605 72.3868 106.586 69.4024L116.459 62H229C235.627 62 241 67.3726 241 74V198C241 204.627 235.627 210 229 210H29C22.3726 210 17 204.627 17 198L17 86C17 79.3726 22.3726 74 29 74H92.789Z" fill="url(#paint1_linear_2239_40031)"/>
</g>
<mask id="mask1_2239_40031" style="mask-type:luminance" maskUnits="userSpaceOnUse" x="56" y="105" width="146" height="62">
<path d="M201.455 105H56V166.818H201.455V105Z" fill="white"/>
</mask>
<g mask="url(#mask1_2239_40031)">
<path d="M192.484 154.87C192.484 161.369 186.98 166.686 180.254 166.686H77.4584C70.7319 166.686 65.2285 161.369 65.2285 154.87V117.242C65.2285 110.743 70.7319 105.426 77.4584 105.426H180.254C186.98 105.426 192.484 110.743 192.484 117.242V154.87Z" fill="url(#paint2_linear_2239_40031)"/>
<mask id="mask2_2239_40031" style="mask-type:luminance" maskUnits="userSpaceOnUse" x="56" y="105" width="146" height="62">
<path d="M56.0469 105.279H201.438V166.819H56.0469" fill="white"/>
</mask>
<g mask="url(#mask2_2239_40031)">
<path fill-rule="evenodd" clip-rule="evenodd" d="M195.23 127.721C195.23 123.115 195.946 120.398 195.946 115.438C195.946 107.76 193.08 105.279 186.753 105.279H182.096V110.713H183.529C186.753 110.713 187.469 111.776 187.469 115.674C187.469 119.335 187.111 122.997 187.111 127.249C187.111 132.683 188.902 134.809 192.483 135.635V135.99C188.902 136.817 187.111 138.943 187.111 144.377C187.111 148.628 187.469 152.054 187.469 155.953C187.469 159.968 186.634 161.031 183.529 161.031V161.149H182.096V166.819H186.753C193.08 166.819 195.946 164.338 195.946 156.661C195.946 151.582 195.23 148.983 195.23 144.377C195.23 141.896 196.782 139.297 201.439 139.061V132.919C196.782 132.801 195.23 130.202 195.23 127.721ZM142.338 134.927C138.636 133.51 135.293 132.683 135.293 130.32C135.293 128.549 136.725 127.486 139.352 127.486C141.979 127.486 144.367 128.549 146.994 130.439L151.77 124.178C148.784 121.934 144.725 119.571 139.233 119.571C131.114 119.571 125.621 124.178 125.621 130.675C125.621 136.462 130.756 139.415 135.054 141.069C138.755 142.486 142.338 143.668 142.338 146.03C142.338 147.802 140.904 148.983 137.681 148.983C134.696 148.983 131.712 147.802 128.488 145.321L123.831 152.172C127.413 155.125 132.905 157.133 137.442 157.133C146.994 157.133 152.128 152.172 152.128 145.675C152.128 139.179 146.994 136.462 142.338 134.927ZM171.231 134.927C167.649 133.51 164.306 132.683 164.306 130.32C164.306 128.549 165.739 127.486 168.365 127.486C170.992 127.486 173.381 128.549 176.007 130.439L180.783 124.178C177.798 121.934 173.738 119.571 168.246 119.571C160.127 119.571 154.635 124.178 154.635 130.675C154.635 136.462 159.769 139.415 164.067 141.069C167.768 142.486 171.35 143.668 171.35 146.03C171.35 147.802 169.917 148.983 166.694 148.983C163.709 148.983 160.724 147.802 157.501 145.321L152.725 152.172C156.306 155.125 161.799 157.133 166.336 157.133C175.888 157.133 181.021 152.172 181.021 145.675C181.021 139.179 175.888 136.462 171.231 134.927ZM100.31 134.336C101.026 129.611 103.891 127.368 107.234 127.368C111.533 127.368 113.205 130.32 113.205 134.336H100.31ZM122.279 136.462C122.398 126.895 117.144 119.454 107.115 119.454C98.3992 119.454 90.0418 126.659 90.2804 137.998C90.2804 149.691 98.0413 156.542 108.309 156.542C112.608 156.542 117.384 155.007 121.085 152.526L117.503 146.267C114.876 147.802 112.368 148.51 109.742 148.51C104.966 148.51 101.265 146.267 100.31 140.833H121.92C122.04 140.006 122.279 138.353 122.279 136.462Z" fill="#FAF9F8"/>
</g>
<mask id="mask3_2239_40031" style="mask-type:luminance" maskUnits="userSpaceOnUse" x="56" y="105" width="146" height="62">
<path d="M56.0469 105.279H201.438V166.819H56.0469" fill="white"/>
</mask>
<g mask="url(#mask3_2239_40031)">
<path fill-rule="evenodd" clip-rule="evenodd" d="M89.6835 148.275C88.8479 148.275 87.7731 147.566 87.7731 145.321V105.279H70.8185C64.3716 105.279 61.5057 107.76 61.5057 115.438C61.5057 120.516 62.222 123.352 62.222 127.721C62.222 130.202 60.6701 132.801 56.0137 133.037V139.179C60.6701 139.297 62.222 141.896 62.222 144.377C62.222 148.747 61.5057 151.345 61.5057 156.425C61.5057 164.102 64.3716 166.582 70.6993 166.582H75.3557V161.149H73.9231C70.9385 161.149 69.983 159.968 69.983 156.07C69.983 152.172 70.3414 148.865 70.3414 144.494C70.3414 139.061 68.5503 136.934 64.9681 136.108V135.754C68.5503 134.927 70.3414 132.801 70.3414 127.368C70.3414 123.115 69.983 119.69 69.983 115.792C69.983 111.894 70.8185 110.831 73.9231 110.831H77.1468V144.731C77.1468 151.936 79.6543 156.661 86.9375 156.661C89.2057 156.661 90.9969 156.306 92.3103 155.834L91.1161 148.156C90.3998 148.275 90.042 148.275 89.6835 148.275Z" fill="#FAF9F8"/>
</g>
</g>
<defs>
<filter id="filter0_f_2239_40031" x="-20" y="25" width="298" height="184" filterUnits="userSpaceOnUse" color-interpolation-filters="sRGB">
<feFlood flood-opacity="0" result="BackgroundImageFix"/>
<feBlend mode="normal" in="SourceGraphic" in2="BackgroundImageFix" result="shape"/>
<feGaussianBlur stdDeviation="18.5" result="effect1_foregroundBlur_2239_40031"/>
</filter>
<filter id="filter1_ii_2239_40031" x="17" y="62" width="224" height="148" filterUnits="userSpaceOnUse" color-interpolation-filters="sRGB">
<feFlood flood-opacity="0" result="BackgroundImageFix"/>
<feBlend mode="normal" in="SourceGraphic" in2="BackgroundImageFix" result="shape"/>
<feColorMatrix in="SourceAlpha" type="matrix" values="0 0 0 0 0 0 0 0 0 0 0 0 0 0 0 0 0 0 127 0" result="hardAlpha"/>
<feOffset dy="4"/>
<feComposite in2="hardAlpha" operator="arithmetic" k2="-1" k3="1"/>
<feColorMatrix type="matrix" values="0 0 0 0 1 0 0 0 0 1 0 0 0 0 1 0 0 0 0.25 0"/>
<feBlend mode="normal" in2="shape" result="effect1_innerShadow_2239_40031"/>
<feColorMatrix in="SourceAlpha" type="matrix" values="0 0 0 0 0 0 0 0 0 0 0 0 0 0 0 0 0 0 127 0" result="hardAlpha"/>
<feOffset dy="-4"/>
<feComposite in2="hardAlpha" operator="arithmetic" k2="-1" k3="1"/>
<feColorMatrix type="matrix" values="0 0 0 0 0 0 0 0 0 0 0 0 0 0 0 0 0 0 0.9 0"/>
<feBlend mode="soft-light" in2="effect1_innerShadow_2239_40031" result="effect2_innerShadow_2239_40031"/>
</filter>
<linearGradient id="paint0_linear_2239_40031" x1="17" y1="34" x2="197.768" y2="215.142" gradientUnits="userSpaceOnUse">
<stop stop-color="#05815D"/>
<stop offset="1" stop-color="#0C575F"/>
</linearGradient>
<linearGradient id="paint1_linear_2239_40031" x1="17" y1="62" x2="241" y2="210" gradientUnits="userSpaceOnUse">
<stop stop-color="#DFE6F1"/>
<stop offset="1" stop-color="#95ABCE"/>
</linearGradient>
<linearGradient id="paint2_linear_2239_40031" x1="6427.99" y1="105.426" x2="6427.99" y2="6231.44" gradientUnits="userSpaceOnUse">
<stop stop-color="#2E4F82"/>
<stop offset="1" stop-color="#182E4D"/>
</linearGradient>
</defs>
</svg>
