<svg width="256" height="256" viewBox="0 0 256 256" fill="none" xmlns="http://www.w3.org/2000/svg">
<path fill-rule="evenodd" clip-rule="evenodd" d="M104.425 42.3784C100.056 37.0733 93.5437 34 86.6712 34H29C22.3726 34 17 39.3726 17 46V58.1371V68.2V160C17 166.627 22.3726 172 29 172H229C235.627 172 241 166.627 241 160V70.1371C241 63.5097 235.627 58.1371 229 58.1371H117.404L104.425 42.3784Z" fill="url(#paint0_linear_823_20016)"/>
<mask id="mask0_823_20016" style="mask-type:alpha" maskUnits="userSpaceOnUse" x="17" y="34" width="224" height="138">
<path fill-rule="evenodd" clip-rule="evenodd" d="M104.425 42.3784C100.056 37.0733 93.5437 34 86.6712 34H29C22.3726 34 17 39.3726 17 46V58.1371V68.2V160C17 166.627 22.3726 172 29 172H229C235.627 172 241 166.627 241 160V70.1371C241 63.5097 235.627 58.1371 229 58.1371H117.404L104.425 42.3784Z" fill="url(#paint1_linear_823_20016)"/>
</mask>
<g mask="url(#mask0_823_20016)">
<g style="mix-blend-mode:multiply" filter="url(#filter0_f_823_20016)">
<path fill-rule="evenodd" clip-rule="evenodd" d="M92.789 74C97.7642 74 102.605 72.3868 106.586 69.4024L116.459 62H229C235.627 62 241 67.3726 241 74V108V160C241 166.627 235.627 172 229 172H29C22.3726 172 17 166.627 17 160L17 108V86C17 79.3726 22.3726 74 29 74H87H92.789Z" fill="black" fill-opacity="0.3"/>
</g>
</g>
<g filter="url(#filter1_ii_823_20016)">
<path fill-rule="evenodd" clip-rule="evenodd" d="M92.789 74C97.7642 74 102.605 72.3868 106.586 69.4024L116.459 62H229C235.627 62 241 67.3726 241 74V108V198C241 204.627 235.627 210 229 210H29C22.3726 210 17 204.627 17 198L17 108V86C17 79.3726 22.3726 74 29 74H87H92.789Z" fill="url(#paint2_linear_823_20016)"/>
</g>
<g filter="url(#filter2_d_823_20016)">
<path d="M86.1514 147.596V162.745C86.1514 170.066 105.21 176 128.722 176C152.232 176 171.293 170.066 171.293 162.745V147.596H86.1514Z" fill="url(#paint3_linear_823_20016)" stroke="#8E03A3" stroke-width="0.999974"/>
<path d="M86 129.865V145.015C86 152.335 105.059 158.27 128.571 158.27C152.081 158.27 171.141 152.335 171.141 145.015V129.865H86Z" fill="url(#paint4_linear_823_20016)" stroke="#8E03A3" stroke-width="0.999974"/>
<path d="M86.1631 112.367V127.516C86.1631 134.836 105.222 140.771 128.733 140.771C152.243 140.771 171.302 134.836 171.302 127.516V112.367H86.1631Z" fill="url(#paint5_linear_823_20016)" stroke="#8E03A3" stroke-width="0.999965"/>
<path d="M128.74 122.51C152.251 122.51 171.311 116.576 171.311 109.255C171.311 101.934 152.251 96 128.74 96C105.229 96 86.1689 101.934 86.1689 109.255C86.1689 116.576 105.229 122.51 128.74 122.51Z" fill="url(#paint6_linear_823_20016)" stroke="#8E03A3" stroke-width="0.99996"/>
</g>
<defs>
<filter id="filter0_f_823_20016" x="-20" y="25" width="298" height="184" filterUnits="userSpaceOnUse" color-interpolation-filters="sRGB">
<feFlood flood-opacity="0" result="BackgroundImageFix"/>
<feBlend mode="normal" in="SourceGraphic" in2="BackgroundImageFix" result="shape"/>
<feGaussianBlur stdDeviation="18.5" result="effect1_foregroundBlur_823_20016"/>
</filter>
<filter id="filter1_ii_823_20016" x="17" y="62" width="224" height="148" filterUnits="userSpaceOnUse" color-interpolation-filters="sRGB">
<feFlood flood-opacity="0" result="BackgroundImageFix"/>
<feBlend mode="normal" in="SourceGraphic" in2="BackgroundImageFix" result="shape"/>
<feColorMatrix in="SourceAlpha" type="matrix" values="0 0 0 0 0 0 0 0 0 0 0 0 0 0 0 0 0 0 127 0" result="hardAlpha"/>
<feOffset dy="4"/>
<feComposite in2="hardAlpha" operator="arithmetic" k2="-1" k3="1"/>
<feColorMatrix type="matrix" values="0 0 0 0 1 0 0 0 0 1 0 0 0 0 1 0 0 0 0.25 0"/>
<feBlend mode="normal" in2="shape" result="effect1_innerShadow_823_20016"/>
<feColorMatrix in="SourceAlpha" type="matrix" values="0 0 0 0 0 0 0 0 0 0 0 0 0 0 0 0 0 0 127 0" result="hardAlpha"/>
<feOffset dy="-4"/>
<feComposite in2="hardAlpha" operator="arithmetic" k2="-1" k3="1"/>
<feColorMatrix type="matrix" values="0 0 0 0 0 0 0 0 0 0 0 0 0 0 0 0 0 0 0.9 0"/>
<feBlend mode="soft-light" in2="effect1_innerShadow_823_20016" result="effect2_innerShadow_823_20016"/>
</filter>
<filter id="filter2_d_823_20016" x="81.5" y="95.5" width="94.3105" height="89" filterUnits="userSpaceOnUse" color-interpolation-filters="sRGB">
<feFlood flood-opacity="0" result="BackgroundImageFix"/>
<feColorMatrix in="SourceAlpha" type="matrix" values="0 0 0 0 0 0 0 0 0 0 0 0 0 0 0 0 0 0 127 0" result="hardAlpha"/>
<feOffset dy="4"/>
<feGaussianBlur stdDeviation="2"/>
<feComposite in2="hardAlpha" operator="out"/>
<feColorMatrix type="matrix" values="0 0 0 0 0 0 0 0 0 0 0 0 0 0 0 0 0 0 0.25 0"/>
<feBlend mode="normal" in2="BackgroundImageFix" result="effect1_dropShadow_823_20016"/>
<feBlend mode="normal" in="SourceGraphic" in2="effect1_dropShadow_823_20016" result="shape"/>
</filter>
<linearGradient id="paint0_linear_823_20016" x1="129" y1="34" x2="129" y2="172" gradientUnits="userSpaceOnUse">
<stop stop-color="#C355BA"/>
<stop offset="1" stop-color="#950BA8"/>
</linearGradient>
<linearGradient id="paint1_linear_823_20016" x1="17" y1="34" x2="197.768" y2="215.142" gradientUnits="userSpaceOnUse">
<stop stop-color="#05815D"/>
<stop offset="1" stop-color="#0C575F"/>
</linearGradient>
<linearGradient id="paint2_linear_823_20016" x1="17" y1="62" x2="241" y2="210" gradientUnits="userSpaceOnUse">
<stop stop-color="#FCFCFC"/>
<stop offset="1" stop-color="#D5D6D7"/>
</linearGradient>
<linearGradient id="paint3_linear_823_20016" x1="124.793" y1="172.84" x2="91.6501" y2="144.466" gradientUnits="userSpaceOnUse">
<stop stop-color="#DC85E9"/>
<stop offset="1" stop-color="#F2CBF8"/>
</linearGradient>
<linearGradient id="paint4_linear_823_20016" x1="124.831" y1="155.015" x2="91.6878" y2="126.641" gradientUnits="userSpaceOnUse">
<stop stop-color="#DC85E9"/>
<stop offset="1" stop-color="#F2CBF8"/>
</linearGradient>
<linearGradient id="paint5_linear_823_20016" x1="124.809" y1="137.552" x2="91.6658" y2="109.179" gradientUnits="userSpaceOnUse">
<stop stop-color="#DC85E9"/>
<stop offset="1" stop-color="#F2CBF8"/>
</linearGradient>
<linearGradient id="paint6_linear_823_20016" x1="130.447" y1="120.302" x2="118.288" y2="88.6669" gradientUnits="userSpaceOnUse">
<stop stop-color="#DC85E9"/>
<stop offset="1" stop-color="#F2CBF8"/>
</linearGradient>
</defs>
</svg>
