<svg width="256" height="256" viewBox="0 0 256 256" fill="none" xmlns="http://www.w3.org/2000/svg">
<path fill-rule="evenodd" clip-rule="evenodd" d="M104.425 42.3784C100.056 37.0733 93.5437 34 86.6712 34H29C22.3726 34 17 39.3726 17 46V58.1371V68.2V160C17 166.627 22.3726 172 29 172H229C235.627 172 241 166.627 241 160V70.1371C241 63.5097 235.627 58.1371 229 58.1371H117.404L104.425 42.3784Z" fill="#0F696C"/>
<mask id="mask0_636_15077" style="mask-type:alpha" maskUnits="userSpaceOnUse" x="17" y="34" width="224" height="138">
<path fill-rule="evenodd" clip-rule="evenodd" d="M104.425 42.3784C100.056 37.0733 93.5437 34 86.6712 34H29C22.3726 34 17 39.3726 17 46V58.1371V68.2V160C17 166.627 22.3726 172 29 172H229C235.627 172 241 166.627 241 160V70.1371C241 63.5097 235.627 58.1371 229 58.1371H117.404L104.425 42.3784Z" fill="url(#paint0_linear_636_15077)"/>
</mask>
<g mask="url(#mask0_636_15077)">
<g style="mix-blend-mode:multiply" filter="url(#filter0_f_636_15077)">
<path fill-rule="evenodd" clip-rule="evenodd" d="M92.789 74C97.7642 74 102.605 72.3868 106.586 69.4024L116.459 62H229C235.627 62 241 67.3726 241 74V108V160C241 166.627 235.627 172 229 172H29C22.3726 172 17 166.627 17 160L17 108V86C17 79.3726 22.3726 74 29 74H87H92.789Z" fill="black" fill-opacity="0.3"/>
</g>
</g>
<g filter="url(#filter1_ii_636_15077)">
<path fill-rule="evenodd" clip-rule="evenodd" d="M92.789 74C97.7642 74 102.605 72.3868 106.586 69.4024L116.459 62H229C235.627 62 241 67.3726 241 74V108V198C241 204.627 235.627 210 229 210H29C22.3726 210 17 204.627 17 198L17 108V86C17 79.3726 22.3726 74 29 74H87H92.789Z" fill="url(#paint1_linear_636_15077)"/>
</g>
<path fill-rule="evenodd" clip-rule="evenodd" d="M126.533 105.079C123.169 105.226 119.566 106.075 116.182 107.518C110.992 109.731 106.169 113.75 102.996 118.507C100.908 121.636 99.5078 124.85 98.6633 128.448C98.1548 130.615 98.0595 131.329 97.8664 134.428L97.8058 135.4L97.3369 135.549C96.8443 135.706 95.3701 136.16 92.9468 136.902C92.1498 137.147 91.0373 137.493 90.4747 137.672C89.9121 137.851 88.6845 138.233 87.7469 138.52C86.8092 138.808 85.6967 139.151 85.2747 139.285C84.8528 139.418 83.8554 139.725 83.0584 139.968C82.2613 140.211 81.1488 140.559 80.5862 140.742C80.0235 140.924 79.5056 141.072 79.4354 141.07C79.365 141.068 79.1541 140.871 78.9666 140.633C78.6044 140.172 77.4311 139.068 76.7929 138.588C74.174 136.616 71.4394 135.626 68.0126 135.41C65.6933 135.263 62.7002 135.892 60.5219 136.983C58.3936 138.049 56.1005 139.967 54.9814 141.617C54.2378 142.713 53.9629 143.179 53.5192 144.094C52.4462 146.308 51.9164 148.817 52.0107 151.237C52.1643 155.18 53.7728 158.861 56.5184 161.556C57.4648 162.484 57.8809 162.833 58.6783 163.367C59.653 164.02 60.6649 164.555 61.6618 164.945C63.5885 165.698 64.7689 165.929 66.9897 165.985C68.4251 166.021 68.8032 166.001 69.7601 165.843C71.1715 165.609 71.9156 165.408 73.0847 164.946C76.7573 163.495 79.714 160.661 81.3875 156.988C81.7913 156.101 81.9003 155.789 82.2062 154.647C82.8399 152.28 82.9099 149.877 82.41 147.644C82.3126 147.209 82.254 146.799 82.2797 146.732C82.3055 146.665 82.4336 146.587 82.5645 146.558C82.7881 146.51 83.4981 146.293 86.4469 145.376C87.1149 145.168 88.237 144.821 88.9403 144.605C89.6436 144.389 90.7656 144.042 91.4337 143.834C92.1018 143.626 93.2047 143.284 93.8845 143.073C94.5643 142.863 95.6672 142.52 96.3353 142.311C98.3015 141.698 98.4482 141.662 98.4902 141.779C98.5107 141.835 98.6406 142.36 98.779 142.946C99.5862 146.357 101.222 149.901 103.471 153.11C104.829 155.048 107.107 157.462 109.145 159.124C113.744 162.873 119.291 165.147 125.34 165.764C126.649 165.898 130.405 165.899 131.733 165.766C134.703 165.47 138.095 164.612 140.599 163.523C141.572 163.1 143.268 162.251 143.892 161.873C144.156 161.714 144.394 161.583 144.421 161.583C144.449 161.583 144.88 161.305 145.381 160.966C145.881 160.627 146.432 160.253 146.605 160.136C147.42 159.586 149.147 158.112 150.196 157.073C151.73 155.552 152.966 154.052 154.178 152.242C155.233 150.664 156.582 148.058 157.139 146.52C157.25 146.216 157.437 145.709 157.556 145.395C157.674 145.08 157.947 144.161 158.162 143.352C158.376 142.543 158.566 141.838 158.584 141.785C158.618 141.68 159.164 141.811 160.546 142.258C160.968 142.394 162.023 142.723 162.89 142.988C163.758 143.254 164.985 143.635 165.618 143.835C166.251 144.035 167.344 144.376 168.048 144.592C171.108 145.532 171.955 145.793 173.12 146.154C173.8 146.365 174.452 146.567 174.569 146.602C174.818 146.677 174.818 146.598 174.565 148.009C174.269 149.657 174.28 151.89 174.593 153.541C174.718 154.196 174.875 154.905 174.942 155.115C176.421 159.743 179.736 163.32 184.116 165.012C186.051 165.759 187.259 165.966 189.7 165.966C191.421 165.966 191.674 165.946 192.769 165.725C197.461 164.779 201.461 161.669 203.516 157.371C204.549 155.211 204.997 153.238 205 150.836C205.003 148.728 204.77 147.322 204.118 145.499C202.798 141.81 200.191 138.873 196.605 137.035C194.484 135.949 192.231 135.424 189.7 135.426C185.374 135.429 181.698 136.971 178.644 140.064C178.095 140.619 177.616 141.073 177.58 141.073C177.543 141.073 176.957 140.899 176.276 140.685C175.595 140.472 174.482 140.125 173.802 139.915C169.088 138.458 167.95 138.105 166.471 137.643C165.791 137.43 164.525 137.039 163.658 136.773C162.79 136.507 161.678 136.164 161.186 136.009C160.693 135.855 160.06 135.658 159.779 135.571L159.267 135.414L159.164 133.882C158.685 126.81 156.411 121.081 151.966 115.755C150.738 114.284 149.539 113.14 147.248 111.256C146.041 110.263 142.948 108.433 141.068 107.599C138.762 106.576 135.669 105.692 132.987 105.29C132.243 105.178 128.764 104.97 128.196 105.004C128.078 105.01 127.33 105.044 126.533 105.079ZM131.654 111.368C133.305 111.556 135.69 112.135 137.265 112.729C140.566 113.974 143.543 115.927 146.086 118.515C149.448 121.938 151.689 126.197 152.569 130.837C152.952 132.854 153.037 133.719 153.032 135.542C153.022 139.295 152.135 142.986 150.428 146.382C147.546 152.118 142.252 156.634 136.12 158.589C132.173 159.847 127.734 160.088 123.507 159.275C122.57 159.095 120.61 158.509 119.536 158.088C116.318 156.826 113.686 155.099 111.184 152.607C109.915 151.343 109.616 151.002 108.734 149.809C105.856 145.917 104.284 141.407 104.027 136.308C103.88 133.399 104.518 129.63 105.647 126.733C106.069 125.653 107.352 123.089 107.701 122.633C107.814 122.484 107.907 122.337 107.907 122.306C107.907 122.224 108.886 120.878 109.452 120.18C111.661 117.457 114.39 115.285 117.583 113.709C120.459 112.29 122.897 111.606 126.32 111.26C127.354 111.155 130.314 111.215 131.654 111.368ZM126.576 123.334C125.421 123.496 124.944 123.621 123.833 124.05C120.04 125.513 117.236 128.821 116.325 132.903C116.077 134.015 116.056 136.75 116.287 137.839C116.771 140.123 117.963 142.418 119.486 143.996C120.734 145.288 122.484 146.41 124.191 147.011C125.646 147.524 126.597 147.668 128.537 147.668C130.04 147.668 130.412 147.64 131.202 147.471C133.116 147.061 134.945 146.215 136.296 145.116C137.327 144.276 138.226 143.318 138.851 142.393C139.73 141.092 140.421 139.433 140.784 137.752C140.997 136.767 141.003 134.093 140.795 133.157C140.316 130.998 139.328 128.956 138.042 127.463C137.041 126.301 135.261 124.944 133.963 124.352C133.052 123.936 131.845 123.555 130.974 123.406C129.852 123.216 127.671 123.18 126.576 123.334ZM68.7473 141.459C70.9126 141.832 72.7961 142.825 74.2044 144.335C75.851 146.101 76.7066 148.281 76.7074 150.711C76.7085 154.796 74.097 158.385 70.229 159.614C69.0356 159.993 68.5133 160.075 67.3306 160.07C64.8117 160.059 62.4778 159.065 60.6732 157.235C58.7648 155.299 57.7673 152.526 58.0368 149.905C58.3822 146.545 60.216 143.866 63.1963 142.368C65.0019 141.461 66.9273 141.145 68.7473 141.459ZM191.046 141.455C193.17 141.825 194.909 142.721 196.366 144.194C199.87 147.737 199.956 153.412 196.562 157.022C194.671 159.033 192.324 160.068 189.657 160.066C185.204 160.062 181.427 156.943 180.456 152.469C180.303 151.766 180.258 150.499 180.357 149.696C180.746 146.54 182.685 143.775 185.523 142.331C186.308 141.931 187.615 141.544 188.72 141.383C189.256 141.305 190.382 141.34 191.046 141.455Z" fill="white"/>
<defs>
<filter id="filter0_f_636_15077" x="-20" y="25" width="298" height="184" filterUnits="userSpaceOnUse" color-interpolation-filters="sRGB">
<feFlood flood-opacity="0" result="BackgroundImageFix"/>
<feBlend mode="normal" in="SourceGraphic" in2="BackgroundImageFix" result="shape"/>
<feGaussianBlur stdDeviation="18.5" result="effect1_foregroundBlur_636_15077"/>
</filter>
<filter id="filter1_ii_636_15077" x="17" y="62" width="224" height="148" filterUnits="userSpaceOnUse" color-interpolation-filters="sRGB">
<feFlood flood-opacity="0" result="BackgroundImageFix"/>
<feBlend mode="normal" in="SourceGraphic" in2="BackgroundImageFix" result="shape"/>
<feColorMatrix in="SourceAlpha" type="matrix" values="0 0 0 0 0 0 0 0 0 0 0 0 0 0 0 0 0 0 127 0" result="hardAlpha"/>
<feOffset dy="4"/>
<feComposite in2="hardAlpha" operator="arithmetic" k2="-1" k3="1"/>
<feColorMatrix type="matrix" values="0 0 0 0 1 0 0 0 0 1 0 0 0 0 1 0 0 0 0.25 0"/>
<feBlend mode="normal" in2="shape" result="effect1_innerShadow_636_15077"/>
<feColorMatrix in="SourceAlpha" type="matrix" values="0 0 0 0 0 0 0 0 0 0 0 0 0 0 0 0 0 0 127 0" result="hardAlpha"/>
<feOffset dy="-4"/>
<feComposite in2="hardAlpha" operator="arithmetic" k2="-1" k3="1"/>
<feColorMatrix type="matrix" values="0 0 0 0 0 0 0 0 0 0 0 0 0 0 0 0 0 0 0.9 0"/>
<feBlend mode="soft-light" in2="effect1_innerShadow_636_15077" result="effect2_innerShadow_636_15077"/>
</filter>
<linearGradient id="paint0_linear_636_15077" x1="17" y1="34" x2="197.768" y2="215.142" gradientUnits="userSpaceOnUse">
<stop stop-color="#05815D"/>
<stop offset="1" stop-color="#0C575F"/>
</linearGradient>
<linearGradient id="paint1_linear_636_15077" x1="17" y1="62" x2="241" y2="210" gradientUnits="userSpaceOnUse">
<stop stop-color="#42A9AD"/>
<stop offset="1" stop-color="#167C80"/>
</linearGradient>
</defs>
</svg>
