<svg width="256" height="256" viewBox="0 0 256 256" fill="none" xmlns="http://www.w3.org/2000/svg">
<g clip-path="url(#clip0_2342_39554)">
<path fill-rule="evenodd" clip-rule="evenodd" d="M104.425 42.3784C100.056 37.0733 93.5437 34 86.6712 34H29C22.3726 34 17 39.3726 17 46V58.1371V68.2V160C17 166.627 22.3726 172 29 172H229C235.627 172 241 166.627 241 160V70.1371C241 63.5097 235.627 58.1371 229 58.1371H117.404L104.425 42.3784Z" fill="url(#paint0_linear_2342_39554)"/>
<mask id="mask0_2342_39554" style="mask-type:alpha" maskUnits="userSpaceOnUse" x="17" y="34" width="224" height="138">
<path fill-rule="evenodd" clip-rule="evenodd" d="M104.425 42.3784C100.056 37.0733 93.5437 34 86.6712 34H29C22.3726 34 17 39.3726 17 46V58.1371V68.2V160C17 166.627 22.3726 172 29 172H229C235.627 172 241 166.627 241 160V70.1371C241 63.5097 235.627 58.1371 229 58.1371H117.404L104.425 42.3784Z" fill="url(#paint1_linear_2342_39554)"/>
</mask>
<g mask="url(#mask0_2342_39554)">
<g style="mix-blend-mode:multiply" filter="url(#filter0_f_2342_39554)">
<path fill-rule="evenodd" clip-rule="evenodd" d="M92.789 74C97.7642 74 102.605 72.3868 106.586 69.4024L116.459 62H229C235.627 62 241 67.3726 241 74V108V160C241 166.627 235.627 172 229 172H29C22.3726 172 17 166.627 17 160L17 108V86C17 79.3726 22.3726 74 29 74H87H92.789Z" fill="black" fill-opacity="0.3"/>
</g>
</g>
<g filter="url(#filter1_d_2342_39554)">
<g filter="url(#filter2_ii_2342_39554)">
<path fill-rule="evenodd" clip-rule="evenodd" d="M92.789 74C97.7642 74 102.605 72.3868 106.586 69.4024L116.459 62H229C235.627 62 241 67.3726 241 74V108V198C241 204.627 235.627 210 229 210H29C22.3726 210 17 204.627 17 198L17 108V86C17 79.3726 22.3726 74 29 74H87H92.789Z" fill="url(#paint2_linear_2342_39554)"/>
</g>
</g>
<g clip-path="url(#clip1_2342_39554)">
<path fill-rule="evenodd" clip-rule="evenodd" d="M87.8496 91.0488C87.0928 91.0488 86.3435 91.1979 85.6444 91.4875C84.9452 91.7771 84.3099 92.2015 83.7748 92.7367C83.2397 93.2718 82.8153 93.907 82.5257 94.6062C82.2361 95.3053 82.087 96.0547 82.087 96.8114C82.087 97.5682 82.2361 98.3175 82.5257 99.0167C82.8153 99.7158 83.2397 100.351 83.7748 100.886C84.3099 101.421 84.9452 101.846 85.6444 102.135C86.3435 102.425 87.0928 102.574 87.8496 102.574H151.684C153.212 102.574 154.678 101.967 155.759 100.886C156.839 99.8055 157.446 98.3397 157.446 96.8114C157.446 95.2831 156.839 93.8173 155.759 92.7367C154.678 91.656 153.212 91.0488 151.684 91.0488H87.8496ZM110.904 106.117C109.376 106.117 107.909 106.724 106.828 107.806C105.747 108.887 105.14 110.353 105.14 111.882C105.14 113.411 105.747 114.877 106.828 115.958C107.909 117.039 109.376 117.647 110.904 117.647H174.73C176.23 117.605 177.655 116.979 178.701 115.903C179.748 114.827 180.333 113.385 180.333 111.884C180.333 110.383 179.748 108.941 178.701 107.865C177.655 106.789 176.23 106.164 174.73 106.122L110.904 106.117ZM91.3972 126.955C91.3972 123.769 93.9764 121.19 97.162 121.19H160.992C162.492 121.232 163.917 121.857 164.963 122.934C166.01 124.01 166.595 125.451 166.595 126.952C166.595 128.453 166.01 129.895 164.963 130.971C163.917 132.047 162.492 132.673 160.992 132.715H97.162C93.981 132.715 91.3972 130.136 91.3972 126.955ZM80.7589 137.15C79.2306 137.15 77.7649 137.757 76.6842 138.837C75.6035 139.918 74.9963 141.384 74.9963 142.912C74.9963 144.44 75.6035 145.906 76.6842 146.987C77.7649 148.068 79.2306 148.675 80.7589 148.675H144.593C146.093 148.633 147.518 148.007 148.565 146.931C149.611 145.855 150.196 144.413 150.196 142.912C150.196 141.411 149.611 139.969 148.565 138.893C147.518 137.817 146.093 137.192 144.593 137.15H80.7589ZM91.3972 157.983C91.3972 154.797 93.9764 152.218 97.162 152.218H160.992C162.52 152.218 163.986 152.825 165.066 153.906C166.147 154.986 166.754 156.452 166.754 157.98C166.754 159.509 166.147 160.974 165.066 162.055C163.986 163.136 162.52 163.743 160.992 163.743H97.162C93.981 163.743 91.3972 161.164 91.3972 157.983ZM133.955 167.291C132.426 167.291 130.961 167.898 129.88 168.978C128.799 170.059 128.192 171.525 128.192 173.053C128.192 174.581 128.799 176.047 129.88 177.128C130.961 178.209 132.426 178.816 133.955 178.816H177.838C179.367 178.816 180.832 178.209 181.913 177.128C182.994 176.047 183.601 174.581 183.601 173.053C183.601 171.525 182.994 170.059 181.913 168.978C180.832 167.898 179.367 167.291 177.838 167.291H133.955Z" fill="white" fill-opacity="0.3"/>
<path fill-rule="evenodd" clip-rule="evenodd" d="M87.8496 91.0488C87.0928 91.0488 86.3435 91.1979 85.6444 91.4875C84.9452 91.7771 84.3099 92.2015 83.7748 92.7367C83.2397 93.2718 82.8153 93.907 82.5257 94.6062C82.2361 95.3053 82.087 96.0547 82.087 96.8114C82.087 97.5682 82.2361 98.3175 82.5257 99.0167C82.8153 99.7158 83.2397 100.351 83.7748 100.886C84.3099 101.421 84.9452 101.846 85.6444 102.135C86.3435 102.425 87.0928 102.574 87.8496 102.574H134.398C135.899 102.532 137.323 101.906 138.37 100.83C139.416 99.7542 140.002 98.3124 140.002 96.8114C140.002 95.3104 139.416 93.8687 138.37 92.7926C137.323 91.7164 135.899 91.0909 134.398 91.0488H87.8496ZM110.904 106.117C109.376 106.117 107.909 106.724 106.828 107.806C105.747 108.887 105.14 110.353 105.14 111.882C105.14 113.411 105.747 114.877 106.828 115.958C107.909 117.039 109.376 117.647 110.904 117.647H157.444C158.944 117.605 160.369 116.979 161.416 115.903C162.462 114.827 163.047 113.385 163.047 111.884C163.047 110.383 162.462 108.941 161.416 107.865C160.369 106.789 158.944 106.164 157.444 106.122L110.904 106.117ZM91.3972 126.955C91.3972 123.769 93.9764 121.19 97.162 121.19H143.706C145.235 121.19 146.7 121.797 147.781 122.878C148.862 123.958 149.469 125.424 149.469 126.952C149.469 128.481 148.862 129.947 147.781 131.027C146.7 132.108 145.235 132.715 143.706 132.715H97.162C93.981 132.715 91.3972 130.136 91.3972 126.955ZM80.7589 137.15C79.2306 137.15 77.7649 137.757 76.6842 138.837C75.6035 139.918 74.9963 141.384 74.9963 142.912C74.9963 144.44 75.6035 145.906 76.6842 146.987C77.7649 148.068 79.2306 148.675 80.7589 148.675H127.308C128.808 148.633 130.233 148.007 131.279 146.931C132.326 145.855 132.911 144.413 132.911 142.912C132.911 141.411 132.326 139.969 131.279 138.893C130.233 137.817 128.808 137.192 127.308 137.15H80.7589ZM91.3972 157.983C91.3972 154.797 93.9764 152.218 97.162 152.218H143.706C145.235 152.218 146.7 152.825 147.781 153.906C148.862 154.986 149.469 156.452 149.469 157.98C149.469 159.509 148.862 160.974 147.781 162.055C146.7 163.136 145.235 163.743 143.706 163.743H97.162C93.981 163.743 91.3972 161.164 91.3972 157.983ZM133.955 167.291C132.426 167.291 130.961 167.898 129.88 168.978C128.799 170.059 128.192 171.525 128.192 173.053C128.192 174.581 128.799 176.047 129.88 177.128C130.961 178.209 132.426 178.816 133.955 178.816H160.109C161.638 178.816 163.103 178.209 164.184 177.128C165.265 176.047 165.872 174.581 165.872 173.053C165.872 171.525 165.265 170.059 164.184 168.978C163.103 167.898 161.638 167.291 160.109 167.291H133.955Z" fill="#ECEAFB"/>
</g>
</g>
<defs>
<filter id="filter0_f_2342_39554" x="-20" y="25" width="298" height="184" filterUnits="userSpaceOnUse" color-interpolation-filters="sRGB">
<feFlood flood-opacity="0" result="BackgroundImageFix"/>
<feBlend mode="normal" in="SourceGraphic" in2="BackgroundImageFix" result="shape"/>
<feGaussianBlur stdDeviation="18.5" result="effect1_foregroundBlur_2342_39554"/>
</filter>
<filter id="filter1_d_2342_39554" x="13" y="62" width="232" height="156" filterUnits="userSpaceOnUse" color-interpolation-filters="sRGB">
<feFlood flood-opacity="0" result="BackgroundImageFix"/>
<feColorMatrix in="SourceAlpha" type="matrix" values="0 0 0 0 0 0 0 0 0 0 0 0 0 0 0 0 0 0 127 0" result="hardAlpha"/>
<feOffset dy="4"/>
<feGaussianBlur stdDeviation="2"/>
<feComposite in2="hardAlpha" operator="out"/>
<feColorMatrix type="matrix" values="0 0 0 0 0 0 0 0 0 0 0 0 0 0 0 0 0 0 0.25 0"/>
<feBlend mode="normal" in2="BackgroundImageFix" result="effect1_dropShadow_2342_39554"/>
<feBlend mode="normal" in="SourceGraphic" in2="effect1_dropShadow_2342_39554" result="shape"/>
</filter>
<filter id="filter2_ii_2342_39554" x="17" y="62" width="224" height="148" filterUnits="userSpaceOnUse" color-interpolation-filters="sRGB">
<feFlood flood-opacity="0" result="BackgroundImageFix"/>
<feBlend mode="normal" in="SourceGraphic" in2="BackgroundImageFix" result="shape"/>
<feColorMatrix in="SourceAlpha" type="matrix" values="0 0 0 0 0 0 0 0 0 0 0 0 0 0 0 0 0 0 127 0" result="hardAlpha"/>
<feOffset dy="4"/>
<feComposite in2="hardAlpha" operator="arithmetic" k2="-1" k3="1"/>
<feColorMatrix type="matrix" values="0 0 0 0 1 0 0 0 0 1 0 0 0 0 1 0 0 0 0.25 0"/>
<feBlend mode="normal" in2="shape" result="effect1_innerShadow_2342_39554"/>
<feColorMatrix in="SourceAlpha" type="matrix" values="0 0 0 0 0 0 0 0 0 0 0 0 0 0 0 0 0 0 127 0" result="hardAlpha"/>
<feOffset dy="-4"/>
<feComposite in2="hardAlpha" operator="arithmetic" k2="-1" k3="1"/>
<feColorMatrix type="matrix" values="0 0 0 0 0 0 0 0 0 0 0 0 0 0 0 0 0 0 0.9 0"/>
<feBlend mode="soft-light" in2="effect1_innerShadow_2342_39554" result="effect2_innerShadow_2342_39554"/>
</filter>
<linearGradient id="paint0_linear_2342_39554" x1="17" y1="37.5" x2="201" y2="97" gradientUnits="userSpaceOnUse">
<stop stop-color="#ECEBEB"/>
<stop offset="1" stop-color="#DBDBDB"/>
</linearGradient>
<linearGradient id="paint1_linear_2342_39554" x1="17" y1="34" x2="197.768" y2="215.142" gradientUnits="userSpaceOnUse">
<stop stop-color="#05815D"/>
<stop offset="1" stop-color="#0C575F"/>
</linearGradient>
<linearGradient id="paint2_linear_2342_39554" x1="48" y1="75.5" x2="228.5" y2="210" gradientUnits="userSpaceOnUse">
<stop stop-color="#6B73ED"/>
<stop offset="1" stop-color="#5424C6"/>
</linearGradient>
<clipPath id="clip0_2342_39554">
<rect width="256" height="256" fill="white"/>
</clipPath>
<clipPath id="clip1_2342_39554">
<rect width="108.6" height="108.6" fill="white" transform="translate(75 82)"/>
</clipPath>
</defs>
</svg>
