<?xml version="1.0" encoding="UTF-8"?>
<!-- Created with Inkscape (http://www.inkscape.org/) -->
<svg width="341.33" height="341.33" version="1.1" viewBox="0 0 341.33 341.33" xml:space="preserve" xmlns="http://www.w3.org/2000/svg" xmlns:xlink="http://www.w3.org/1999/xlink"><defs><clipPath id="k"><path transform="translate(-104.42 -213.62)" d="m0 256h256v-256h-256z"/></clipPath><mask id="a" x="0" y="0" width="1" height="1" maskUnits="userSpaceOnUse"><path transform="matrix(1.3333 0 0 -1.3333 0 341.33)" d="m17 194h224v-110h-224z" clip-path="url(#j)"/><path transform="matrix(1.3333 0 0 -1.3333 0 341.33)" d="m104.42 213.62c-4.369 5.305-10.881 8.378-17.754 8.378h-57.671c-6.627 0-12-5.373-12-12v-114c0-6.627 5.373-12 12-12h200c6.627 0 12 5.373 12 12v89.863c0 6.627-5.373 12-12 12h-111.6z" clip-path="url(#i)" fill="url(#b)" fill-rule="evenodd"/></mask><clipPath id="j"><path d="m17 194h224v-110h-224z"/></clipPath><linearGradient id="b" x2="1" gradientTransform="matrix(180.77 -181.14 181.14 180.77 32.582 237.55)" gradientUnits="userSpaceOnUse"><stop stop-color="#05815d" offset="0"/><stop stop-color="#0c575f" offset="1"/></linearGradient><clipPath id="i"><path d="m17 194h224v-110h-224z"/></clipPath><clipPath id="h"><path transform="translate(-92.789 -182)" d="m17 194h224v-110h-224z"/></clipPath><clipPath id="g"><path transform="matrix(1.3333 0 0 -1.3333 0 341.33)" d="m0 256h256v-256h-256z"/></clipPath><linearGradient id="f" x2="1" gradientTransform="matrix(224 -148 148 224 17 194)" gradientUnits="userSpaceOnUse"><stop stop-color="#ffd599" offset="0"/><stop stop-color="#f29718" offset=".95312"/><stop stop-color="#f29718" offset="1"/></linearGradient><linearGradient id="d" x2="1" gradientTransform="matrix(224.02 -2.5002 2.5002 224.02 16.925 55.317)" gradientUnits="userSpaceOnUse"><stop stop-color="#ffa64e" offset="0"/><stop stop-color="#ff8104" offset="1"/></linearGradient><linearGradient id="c" x2="1" gradientTransform="matrix(224,0,0,224,17,180)" gradientUnits="userSpaceOnUse"><stop stop-color="#ffdab5" offset="0"/><stop stop-color="#ffc182" offset="1"/></linearGradient><linearGradient id="e" x1="25.736" x2="25.736" y1="-3.6216" y2="-47.622" gradientUnits="userSpaceOnUse"><stop stop-color="#fc8a19" offset=".3"/><stop stop-color="#cc6c0b" offset="1"/></linearGradient></defs><path transform="matrix(1.3333 0 0 -1.3333 139.23 56.505)" d="m0 0c-4.369 5.305-10.881 8.378-17.754 8.378h-57.671c-6.627 0-12-5.372-12-12v-114c0-6.627 5.373-12 12-12h200c6.627 0 12 5.373 12 12v89.863c0 6.628-5.373 12-12 12h-111.6z" clip-path="url(#k)" fill="url(#e)" fill-rule="evenodd"/><g clip-path="url(#g)" mask="url(#a)"><path transform="matrix(1.3333 0 0 -1.3333 123.72 98.667)" d="m0 0c4.975 0 9.816 1.613 13.797 4.598l9.873 7.402h112.54c6.627 0 12-5.373 12-12v-86c0-6.627-5.373-12-12-12h-200c-6.627 0-12 5.373-12 12v74c0 6.627 5.373 12 12 12h58z" clip-path="url(#h)" fill="#a6a1a1" fill-rule="evenodd"/></g><path transform="matrix(1.3333 0 0 -1.3333 0 341.33)" d="m116.46 194-9.873-7.402c-3.981-2.985-8.822-4.598-13.797-4.598h-63.789c-6.628 0-12-5.372-12-12v-112c0-6.627 5.372-12 12-12h200c6.627 0 12 5.373 12 12v124c0 6.627-5.373 12-12 12z" fill="url(#f)"/><path transform="matrix(1.3333 0 0 -1.3333 0 341.33)" d="m229 50h-200c-6.628 0-12 5.372-12 12v-4c0-6.627 5.372-12 12-12h200c6.627 0 12 5.373 12 12v4c0-6.628-5.373-12-12-12" fill="url(#d)"/><path transform="matrix(1.3333 0 0 -1.3333 0 341.33)" d="m116.46 194-9.873-7.402c-3.981-2.985-8.822-4.598-13.797-4.598h-63.789c-6.628 0-12-5.372-12-12v-4c0 6.627 5.372 12 12 12h63.789c4.975 0 9.816 1.613 13.797 4.597l9.873 7.403h112.54c6.627 0 12-5.372 12-12v4c0 6.627-5.373 12-12 12z" fill="url(#c)"/><path d="m171.7 112.07c-6.9314 0.0684-13.866 1.1298-20.475 2.9984 0.48866 1.4304 1.0552 2.8281 1.9052 4.0891 4.2903 6.3653 12.125 4.0832 18.567 4.0769 6.3911-7e-3 14.306 2.2281 18.563-4.1112 0.8476-1.2625 1.4096-2.6627 1.8954-4.094-6.5958-2.1019-13.524-3.0276-20.455-2.9592zm-34.706 8.8606c-6.1502 3.1777-11.704 7.423-16.557 12.373-4.8529 4.9496-9.0035 10.604-12.355 16.599 1.357 0.66595 2.7456 1.255 4.2383 1.5457 7.5346 1.4672 11.461-5.6874 16.012-10.247 4.5147-4.5236 11.689-8.5416 10.216-16.034-0.29339-1.4921-0.88444-2.8803-1.553-4.2359zm69.371 0.0147c-0.66596 1.357-1.255 2.7456-1.5456 4.2383-1.4672 7.5346 5.6898 11.463 10.25 16.014 4.5236 4.5147 8.5392 11.689 16.031 10.216 1.4921-0.2934 2.8802-0.88444 4.2359-1.553-3.1777-6.1502-7.423-11.704-12.373-16.557-4.9496-4.8529-10.604-9.006-16.599-12.358zm-34.665 25.447a38.174 38.174 0 0 0-38.174 38.174 38.174 38.174 0 0 0 38.174 38.174 38.174 38.174 0 0 0 38.174-38.174 38.174 38.174 0 0 0-38.174-38.174zm69.498 17.699c-1.4304 0.48865-2.8281 1.0552-4.0891 1.9052-6.3653 4.2903-4.0832 12.125-4.0769 18.567 7e-3 6.3911-2.2281 14.306 4.1111 18.563 1.2625 0.84761 2.6627 1.4096 4.094 1.8954 2.1019-6.5958 3.0276-13.524 2.9592-20.455-0.0683-6.9314-1.1298-13.866-2.9984-20.475zm-139.04 0.0196c-2.1019 6.5958-3.0276 13.524-2.9592 20.455 0.06833 6.9314 1.1298 13.866 2.9984 20.475 1.4304-0.48866 2.8281-1.0552 4.0891-1.9052 6.3653-4.2903 4.0832-12.125 4.0769-18.567-7e-3 -6.3911 2.2281-14.306-4.1112-18.563-1.2625-0.84759-2.6627-1.4095-4.094-1.8954zm127.55 53.398c-6.6564-0.40614-10.376 6.1484-14.642 10.423-4.5148 4.5236-11.689 8.5417-10.216 16.034 0.29339 1.4921 0.88445 2.8802 1.553 4.2359 6.1502-3.1777 11.704-7.4229 16.557-12.373s9.006-10.604 12.358-16.599c-1.357-0.66595-2.7456-1.255-4.2383-1.5456-0.47093-0.0915-0.92826-0.14903-1.372-0.1761zm-116.05 0.0319c-0.44206 0.0274-0.89642 0.0864-1.3647 0.17854-1.4921 0.29338-2.8778 0.8844-4.2334 1.553 3.1776 6.1502 7.4205 11.704 12.37 16.557 4.9496 4.8529 10.604 9.0035 16.599 12.355 0.66595-1.357 1.255-2.7456 1.5456-4.2383 1.2449-7.3826-5.5886-11.599-10.247-16.012-4.2409-4.2326-8.0379-10.803-14.669-10.394zm65.588 27.961c-2.5421 0.0292-5.1442 0.33108-7.5497 0.39619-6.3911 7e-3 -14.306-2.2281-18.563 4.1111-0.84759 1.2625-1.4095 2.6627-1.8954 4.094 6.5958 2.1019 13.524 3.0276 20.455 2.9592 6.9314-0.0684 13.866-1.1298 20.475-2.9984-0.48866-1.4305-1.0552-2.8281-1.9052-4.0892-2.7125-3.8129-6.7808-4.5216-11.018-4.4731z" fill="#028080"/></svg>
