<svg width="256" height="256" viewBox="0 0 256 256" fill="none" xmlns="http://www.w3.org/2000/svg">
<g clip-path="url(#clip0_2511_10681)">
<path d="M104.425 42.3784C100.056 37.0733 93.5437 34 86.6712 34H29C22.3726 34 17 39.3726 17 46V160C17 166.627 22.3726 172 29 172H229C235.627 172 241 166.627 241 160V70.1371C241 63.5097 235.627 58.1371 229 58.1371H117.404L104.425 42.3784Z" fill="url(#paint0_linear_2511_10681)"/>
<mask id="mask0_2511_10681" style="mask-type:alpha" maskUnits="userSpaceOnUse" x="17" y="34" width="224" height="138">
<path fill-rule="evenodd" clip-rule="evenodd" d="M104.425 42.3784C100.056 37.0733 93.5437 34 86.6712 34H29C22.3726 34 17 39.3726 17 46V58.1371V68.2V160C17 166.627 22.3726 172 29 172H229C235.627 172 241 166.627 241 160V70.1371C241 63.5097 235.627 58.1371 229 58.1371H117.404L104.425 42.3784Z" fill="url(#paint1_linear_2511_10681)"/>
</mask>
<g mask="url(#mask0_2511_10681)">
<g style="mix-blend-mode:multiply" filter="url(#filter0_f_2511_10681)">
<path fill-rule="evenodd" clip-rule="evenodd" d="M92.789 74C97.7642 74 102.605 72.3868 106.586 69.4024L116.459 62H229C235.627 62 241 67.3726 241 74V108V160C241 166.627 235.627 172 229 172H29C22.3726 172 17 166.627 17 160L17 108V86C17 79.3726 22.3726 74 29 74H87H92.789Z" fill="black" fill-opacity="0.3"/>
</g>
</g>
<g filter="url(#filter1_ii_2511_10681)">
<path fill-rule="evenodd" clip-rule="evenodd" d="M92.789 74C97.7642 74 102.605 72.3868 106.586 69.4024L116.459 62H229C235.627 62 241 67.3726 241 74V108V198C241 204.627 235.627 210 229 210H29C22.3726 210 17 204.627 17 198L17 108V86C17 79.3726 22.3726 74 29 74H87H92.789Z" fill="url(#paint2_linear_2511_10681)"/>
</g>
<path d="M153.545 96C136.249 96 122.182 110.068 122.182 127.364V156.636C122.182 173.932 136.249 188 153.545 188C170.841 188 184.909 173.932 184.909 156.636V127.364C184.909 110.068 170.841 96 153.545 96ZM176.545 156.636C176.545 169.32 166.225 179.636 153.545 179.636C140.866 179.636 130.545 169.32 130.545 156.636V127.364C130.545 114.68 140.866 104.364 153.545 104.364C166.225 104.364 176.545 114.68 176.545 127.364V156.636ZM153.545 137.818C151.233 137.818 149.364 135.945 149.364 133.636V125.273C149.364 122.964 151.233 121.091 153.545 121.091C155.858 121.091 157.727 122.964 157.727 125.273V133.636C157.727 135.945 155.858 137.818 153.545 137.818ZM121.136 179.636H88.7272C81.8272 179.636 76.1818 173.991 76.1818 167.091V116.909C76.1818 110.009 81.8272 104.364 88.7272 104.364H121.136C123.394 101.227 126.113 98.3836 129.165 96H88.7272C77.1854 96 67.8181 105.367 67.8181 116.909V167.091C67.8181 178.633 77.1854 188 88.7272 188H129.165C126.113 185.616 123.394 182.773 121.136 179.636ZM97.0908 121.091C97.0908 123.399 95.2174 125.273 92.909 125.273H88.7272C86.4188 125.273 84.5454 123.399 84.5454 121.091C84.5454 118.783 86.4188 116.909 88.7272 116.909H92.909C95.2174 116.909 97.0908 118.783 97.0908 121.091ZM101.273 135.029C101.273 137.337 99.3992 139.211 97.0908 139.211H88.7272C86.4188 139.211 84.5454 137.337 84.5454 135.029C84.5454 132.721 86.4188 130.847 88.7272 130.847H97.0908C99.3992 130.847 101.273 132.721 101.273 135.029ZM101.273 162.909C101.273 165.217 99.3992 167.091 97.0908 167.091H88.7272C86.4188 167.091 84.5454 165.217 84.5454 162.909C84.5454 160.601 86.4188 158.727 88.7272 158.727H97.0908C99.3992 158.727 101.273 160.601 101.273 162.909ZM109.636 148.971C109.636 151.279 107.763 153.153 105.454 153.153H88.7272C86.4188 153.153 84.5454 151.279 84.5454 148.971C84.5454 146.663 86.4188 144.789 88.7272 144.789H105.454C107.763 144.789 109.636 146.659 109.636 148.971ZM105.454 116.909C107.763 116.909 109.636 118.783 109.636 121.091C109.636 123.399 107.763 125.273 105.454 125.273C103.146 125.273 101.273 123.399 101.273 121.091C101.273 118.783 103.146 116.909 105.454 116.909ZM109.636 130.847C111.945 130.847 113.818 132.721 113.818 135.029C113.818 137.337 111.945 139.211 109.636 139.211C107.328 139.211 105.454 137.337 105.454 135.029C105.454 132.721 107.328 130.847 109.636 130.847ZM109.636 158.727C111.945 158.727 113.818 160.601 113.818 162.909C113.818 165.217 111.945 167.091 109.636 167.091C107.328 167.091 105.454 165.217 105.454 162.909C105.454 160.601 107.328 158.727 109.636 158.727Z" fill="white"/>
</g>
<defs>
<filter id="filter0_f_2511_10681" x="-20" y="25" width="298" height="184" filterUnits="userSpaceOnUse" color-interpolation-filters="sRGB">
<feFlood flood-opacity="0" result="BackgroundImageFix"/>
<feBlend mode="normal" in="SourceGraphic" in2="BackgroundImageFix" result="shape"/>
<feGaussianBlur stdDeviation="18.5" result="effect1_foregroundBlur_2511_10681"/>
</filter>
<filter id="filter1_ii_2511_10681" x="17" y="62" width="224" height="148" filterUnits="userSpaceOnUse" color-interpolation-filters="sRGB">
<feFlood flood-opacity="0" result="BackgroundImageFix"/>
<feBlend mode="normal" in="SourceGraphic" in2="BackgroundImageFix" result="shape"/>
<feColorMatrix in="SourceAlpha" type="matrix" values="0 0 0 0 0 0 0 0 0 0 0 0 0 0 0 0 0 0 127 0" result="hardAlpha"/>
<feOffset dy="4"/>
<feComposite in2="hardAlpha" operator="arithmetic" k2="-1" k3="1"/>
<feColorMatrix type="matrix" values="0 0 0 0 1 0 0 0 0 1 0 0 0 0 1 0 0 0 0.25 0"/>
<feBlend mode="normal" in2="shape" result="effect1_innerShadow_2511_10681"/>
<feColorMatrix in="SourceAlpha" type="matrix" values="0 0 0 0 0 0 0 0 0 0 0 0 0 0 0 0 0 0 127 0" result="hardAlpha"/>
<feOffset dy="-4"/>
<feComposite in2="hardAlpha" operator="arithmetic" k2="-1" k3="1"/>
<feColorMatrix type="matrix" values="0 0 0 0 0 0 0 0 0 0 0 0 0 0 0 0 0 0 0.9 0"/>
<feBlend mode="soft-light" in2="effect1_innerShadow_2511_10681" result="effect2_innerShadow_2511_10681"/>
</filter>
<linearGradient id="paint0_linear_2511_10681" x1="17" y1="34" x2="197.768" y2="215.142" gradientUnits="userSpaceOnUse">
<stop stop-color="#7159F8"/>
</linearGradient>
<linearGradient id="paint1_linear_2511_10681" x1="17" y1="34" x2="197.768" y2="215.142" gradientUnits="userSpaceOnUse">
<stop stop-color="#05815D"/>
<stop offset="1" stop-color="#0C575F"/>
</linearGradient>
<linearGradient id="paint2_linear_2511_10681" x1="17" y1="62" x2="241" y2="210" gradientUnits="userSpaceOnUse">
<stop stop-color="#8571F8"/>
<stop offset="0.958998" stop-color="#8559F8"/>
</linearGradient>
<clipPath id="clip0_2511_10681">
<rect width="256" height="256" fill="white"/>
</clipPath>
</defs>
</svg>
