<svg width="256" height="256" viewBox="0 0 256 256" fill="none" xmlns="http://www.w3.org/2000/svg">
<g clip-path="url(#clip0_4394_12787)">
<path d="M104.425 42.3784C100.056 37.0733 93.5437 34 86.6712 34H29C22.3726 34 17 39.3726 17 46V160C17 166.627 22.3726 172 29 172H229C235.627 172 241 166.627 241 160V70.1371C241 63.5097 235.627 58.1371 229 58.1371H117.404L104.425 42.3784Z" fill="url(#paint0_linear_4394_12787)"/>
<mask id="mask0_4394_12787" style="mask-type:alpha" maskUnits="userSpaceOnUse" x="17" y="34" width="224" height="138">
<path fill-rule="evenodd" clip-rule="evenodd" d="M104.425 42.3784C100.056 37.0733 93.5437 34 86.6712 34H29C22.3726 34 17 39.3726 17 46V58.1371V68.2V160C17 166.627 22.3726 172 29 172H229C235.627 172 241 166.627 241 160V70.1371C241 63.5097 235.627 58.1371 229 58.1371H117.404L104.425 42.3784Z" fill="url(#paint1_linear_4394_12787)"/>
</mask>
<g mask="url(#mask0_4394_12787)">
<g filter="url(#filter0_f_4394_12787)" style="mix-blend-mode:multiply">
<path fill-rule="evenodd" clip-rule="evenodd" d="M92.789 74C97.7642 74 102.605 72.3868 106.586 69.4024L116.459 62H229C235.627 62 241 67.3726 241 74V108V160C241 166.627 235.627 172 229 172H29C22.3726 172 17 166.627 17 160L17 108V86C17 79.3726 22.3726 74 29 74H87H92.789Z" fill="black" fill-opacity="0.3"/>
</g>
</g>
<g filter="url(#filter1_ii_4394_12787)">
<path fill-rule="evenodd" clip-rule="evenodd" d="M92.789 74C97.7642 74 102.605 72.3868 106.586 69.4024L116.459 62H229C235.627 62 241 67.3726 241 74V108V198C241 204.627 235.627 210 229 210H29C22.3726 210 17 204.627 17 198L17 108V86C17 79.3726 22.3726 74 29 74H87H92.789Z" fill="url(#paint2_linear_4394_12787)"/>
</g>
<path d="M171.928 176.058C172.062 172.554 169.793 170.438 166.791 170.438C165.19 170.438 163.856 170.966 162.921 172.024V165.48H159.786V183.462H162.921V176.586C162.921 174.735 164.056 173.545 165.991 173.545C167.792 173.545 168.792 174.669 168.792 176.586V183.462H171.928V176.058ZM152.981 170.504C149.112 170.504 146.177 173.412 146.177 177.181C146.177 180.95 149.179 183.859 152.981 183.859C155.182 183.859 157.184 182.8 158.452 181.346L156.25 179.164C155.383 180.09 154.249 180.817 152.981 180.817C150.914 180.817 149.445 179.23 149.445 177.181C149.311 175.131 150.98 173.545 152.981 173.545C154.315 173.545 155.383 174.206 156.25 175.198L158.452 173.016C157.184 171.429 155.316 170.504 152.981 170.504ZM138.638 170.438C134.768 170.438 131.9 173.347 131.9 177.181C131.9 181.016 134.502 183.726 138.638 183.726C140.839 183.726 142.908 182.866 144.443 181.346L142.241 179.164C141.173 180.222 140.039 180.817 138.705 180.817C136.903 180.817 135.636 179.76 135.236 178.239H145.175V177.512C145.175 173.347 142.44 170.438 138.638 170.438ZM135.169 175.859C135.636 174.206 136.836 173.28 138.504 173.28C140.172 173.28 141.439 174.206 141.773 175.859H135.169ZM124.961 173.611H126.629V183.462H129.765V173.611H131.566V170.834H129.765V166.934H126.629V170.834H124.961V173.611ZM121.892 169.38C123.16 169.38 124.095 168.454 124.095 167.331C123.961 166.074 123.027 165.148 121.892 165.148C120.758 165.148 119.824 166.074 119.824 167.331C119.824 168.454 120.758 169.38 121.892 169.38ZM123.36 183.529V170.834H120.224V183.529H123.36ZM115.821 184.321C115.755 186.437 114.154 187.958 112.152 187.958C110.083 187.958 108.483 186.37 108.483 184.321H105.28C105.28 188.156 108.283 190.999 112.085 190.999C115.888 190.999 118.957 188.09 118.957 184.321H115.821ZM112.152 170.438C108.283 170.438 105.28 173.347 105.28 177.181C105.28 181.016 108.283 183.859 112.085 183.859C115.888 183.859 118.89 180.95 118.89 177.181C118.89 175.859 118.49 174.669 117.823 173.744L118.824 173.347V170.834H114.354C113.62 170.504 112.886 170.438 112.152 170.438ZM112.152 180.817C110.083 180.817 108.483 179.23 108.483 177.115C108.483 175.066 110.083 173.479 112.152 173.479C114.22 173.479 115.821 175.066 115.821 177.115C115.821 179.164 114.154 180.817 112.152 180.817ZM97.2746 170.438C93.4054 170.438 90.4697 173.347 90.4697 177.115C90.4697 180.884 93.4723 183.859 97.2746 183.859C101.078 183.859 104.08 180.95 104.08 177.181C104.08 173.412 101.144 170.438 97.2746 170.438ZM97.2746 180.817C95.2061 180.817 93.6054 179.23 93.6054 177.115C93.6054 175.066 95.2061 173.479 97.2746 173.479C99.3431 173.479 100.944 175.066 100.944 177.115C100.944 179.164 99.4099 180.817 97.2746 180.817ZM86 165.545V183.529H89.1357V165.545H86Z" fill="white"/>
<path d="M147.662 142.059H162.559V110.132H130.129V124.714H147.662V142.059ZM129.928 81C110.073 81 93.9102 96.8627 93.9102 116.54C93.9102 136.216 110.073 152.078 129.928 152.078V137.283C118.23 137.283 108.993 127.827 108.993 116.54C108.993 104.946 118.23 95.7954 129.928 95.7954V81Z" fill="white"/>
</g>
<defs>
<filter id="filter0_f_4394_12787" x="-20" y="25" width="298" height="184" filterUnits="userSpaceOnUse" color-interpolation-filters="sRGB">
<feFlood flood-opacity="0" result="BackgroundImageFix"/>
<feBlend mode="normal" in="SourceGraphic" in2="BackgroundImageFix" result="shape"/>
<feGaussianBlur stdDeviation="18.5" result="effect1_foregroundBlur_4394_12787"/>
</filter>
<filter id="filter1_ii_4394_12787" x="17" y="62" width="224" height="148" filterUnits="userSpaceOnUse" color-interpolation-filters="sRGB">
<feFlood flood-opacity="0" result="BackgroundImageFix"/>
<feBlend mode="normal" in="SourceGraphic" in2="BackgroundImageFix" result="shape"/>
<feColorMatrix in="SourceAlpha" type="matrix" values="0 0 0 0 0 0 0 0 0 0 0 0 0 0 0 0 0 0 127 0" result="hardAlpha"/>
<feOffset dy="4"/>
<feComposite in2="hardAlpha" operator="arithmetic" k2="-1" k3="1"/>
<feColorMatrix type="matrix" values="0 0 0 0 1 0 0 0 0 1 0 0 0 0 1 0 0 0 0.25 0"/>
<feBlend mode="normal" in2="shape" result="effect1_innerShadow_4394_12787"/>
<feColorMatrix in="SourceAlpha" type="matrix" values="0 0 0 0 0 0 0 0 0 0 0 0 0 0 0 0 0 0 127 0" result="hardAlpha"/>
<feOffset dy="-4"/>
<feComposite in2="hardAlpha" operator="arithmetic" k2="-1" k3="1"/>
<feColorMatrix type="matrix" values="0 0 0 0 0 0 0 0 0 0 0 0 0 0 0 0 0 0 0.9 0"/>
<feBlend mode="soft-light" in2="effect1_innerShadow_4394_12787" result="effect2_innerShadow_4394_12787"/>
</filter>
<linearGradient id="paint0_linear_4394_12787" x1="17" y1="34" x2="197.768" y2="215.142" gradientUnits="userSpaceOnUse">
<stop stop-color="#263C52"/>
</linearGradient>
<linearGradient id="paint1_linear_4394_12787" x1="17" y1="34" x2="197.768" y2="215.142" gradientUnits="userSpaceOnUse">
<stop stop-color="#05815D"/>
<stop offset="1" stop-color="#0C575F"/>
</linearGradient>
<linearGradient id="paint2_linear_4394_12787" x1="17" y1="62" x2="241" y2="210" gradientUnits="userSpaceOnUse">
<stop stop-color="#1E87E1"/>
<stop offset="1" stop-color="#1B2B3F"/>
</linearGradient>
<clipPath id="clip0_4394_12787">
<rect width="256" height="256" fill="white"/>
</clipPath>
</defs>
</svg>
