<svg width="256" height="256" viewBox="0 0 256 256" fill="none" xmlns="http://www.w3.org/2000/svg">
<g clip-path="url(#clip0_2511_11091)">
<path d="M104.425 42.3784C100.056 37.0733 93.5437 34 86.6712 34H29C22.3726 34 17 39.3726 17 46V160C17 166.627 22.3726 172 29 172H229C235.627 172 241 166.627 241 160V70.1371C241 63.5097 235.627 58.1371 229 58.1371H117.404L104.425 42.3784Z" fill="url(#paint0_linear_2511_11091)"/>
<mask id="mask0_2511_11091" style="mask-type:alpha" maskUnits="userSpaceOnUse" x="17" y="34" width="224" height="138">
<path fill-rule="evenodd" clip-rule="evenodd" d="M104.425 42.3784C100.056 37.0733 93.5437 34 86.6712 34H29C22.3726 34 17 39.3726 17 46V58.1371V68.2V160C17 166.627 22.3726 172 29 172H229C235.627 172 241 166.627 241 160V70.1371C241 63.5097 235.627 58.1371 229 58.1371H117.404L104.425 42.3784Z" fill="url(#paint1_linear_2511_11091)"/>
</mask>
<g mask="url(#mask0_2511_11091)">
<g style="mix-blend-mode:multiply" filter="url(#filter0_f_2511_11091)">
<path fill-rule="evenodd" clip-rule="evenodd" d="M92.789 74C97.7642 74 102.605 72.3868 106.586 69.4024L116.459 62H229C235.627 62 241 67.3726 241 74V108V160C241 166.627 235.627 172 229 172H29C22.3726 172 17 166.627 17 160L17 108V86C17 79.3726 22.3726 74 29 74H87H92.789Z" fill="black" fill-opacity="0.3"/>
</g>
</g>
<g filter="url(#filter1_ii_2511_11091)">
<path fill-rule="evenodd" clip-rule="evenodd" d="M92.789 74C97.7642 74 102.605 72.3868 106.586 69.4024L116.459 62H229C235.627 62 241 67.3726 241 74V108V198C241 204.627 235.627 210 229 210H29C22.3726 210 17 204.627 17 198L17 108V86C17 79.3726 22.3726 74 29 74H87H92.789Z" fill="url(#paint2_linear_2511_11091)"/>
</g>
<path d="M176.623 117.402C176.623 118.111 176.484 118.813 176.212 119.468C175.941 120.123 175.543 120.718 175.042 121.22C174.541 121.721 173.946 122.119 173.291 122.39C172.636 122.661 171.934 122.801 171.225 122.801C170.515 122.802 169.812 122.663 169.157 122.392C168.501 122.121 167.905 121.724 167.403 121.222C166.9 120.721 166.502 120.126 166.23 119.47C165.958 118.815 165.819 118.112 165.819 117.402C165.818 116.693 165.957 115.99 166.229 115.334C166.5 114.679 166.898 114.083 167.4 113.581C167.901 113.079 168.497 112.681 169.153 112.41C169.809 112.139 170.511 111.999 171.221 112C171.93 111.999 172.633 112.139 173.288 112.41C173.943 112.681 174.539 113.078 175.041 113.58C175.542 114.081 175.94 114.676 176.212 115.332C176.483 115.987 176.623 116.693 176.623 117.402ZM146.828 170.234C145.604 170.252 144.389 170.024 143.254 169.564C142.12 169.103 141.089 168.42 140.223 167.554C139.357 166.689 138.674 165.658 138.214 164.523C137.753 163.389 137.525 162.173 137.543 160.949H129.438C129.438 170.742 137.035 178 146.656 178C156.277 178 164.043 170.574 164.043 160.949H156.109C155.938 166.352 151.891 170.234 146.828 170.234ZM167.254 158.926H175.188V126.516H167.254V158.926ZM80.6523 158.93H88.5859V113.012H80.6523V158.93ZM109.184 125.504C99.3907 125.504 91.9609 132.934 91.9609 142.555C91.9417 144.822 92.3741 147.07 93.2329 149.168C94.0917 151.266 95.3596 153.172 96.9628 154.774C98.566 156.377 100.472 157.645 102.57 158.503C104.669 159.361 106.917 159.793 109.184 159.774C118.805 159.774 126.402 152.344 126.402 142.723C126.402 133.102 118.973 125.504 109.184 125.504ZM109.184 152.008C103.945 152.008 99.8985 147.957 99.8985 142.555C99.8807 141.33 100.109 140.115 100.569 138.981C101.029 137.846 101.713 136.815 102.578 135.95C103.444 135.084 104.475 134.4 105.609 133.94C106.744 133.48 107.959 133.252 109.184 133.27C110.408 133.252 111.623 133.481 112.757 133.941C113.891 134.402 114.921 135.085 115.786 135.951C116.652 136.817 117.335 137.847 117.795 138.981C118.255 140.116 118.483 141.331 118.465 142.555C118.465 147.789 114.586 152.008 109.184 152.008ZM163.707 132.934V126.516H152.399C150.543 125.676 148.684 125.504 146.828 125.504C137.035 125.504 129.442 132.934 129.442 142.723C129.442 152.516 137.039 159.774 146.66 159.774C156.281 159.774 163.879 152.344 163.879 142.723C163.879 139.348 162.863 136.309 161.176 133.945L163.707 132.934ZM146.828 152.008C141.594 152.008 137.543 147.957 137.543 142.555C137.525 141.33 137.753 140.115 138.214 138.981C138.674 137.846 139.357 136.815 140.223 135.95C141.089 135.084 142.12 134.4 143.254 133.94C144.389 133.48 145.604 133.252 146.828 133.27C148.053 133.252 149.268 133.48 150.403 133.94C151.537 134.4 152.568 135.084 153.434 135.95C154.299 136.815 154.983 137.846 155.443 138.981C155.903 140.115 156.131 141.33 156.113 142.555C156.113 147.789 151.891 152.008 146.828 152.008Z" fill="#231F20"/>
</g>
<defs>
<filter id="filter0_f_2511_11091" x="-20" y="25" width="298" height="184" filterUnits="userSpaceOnUse" color-interpolation-filters="sRGB">
<feFlood flood-opacity="0" result="BackgroundImageFix"/>
<feBlend mode="normal" in="SourceGraphic" in2="BackgroundImageFix" result="shape"/>
<feGaussianBlur stdDeviation="18.5" result="effect1_foregroundBlur_2511_11091"/>
</filter>
<filter id="filter1_ii_2511_11091" x="17" y="62" width="224" height="148" filterUnits="userSpaceOnUse" color-interpolation-filters="sRGB">
<feFlood flood-opacity="0" result="BackgroundImageFix"/>
<feBlend mode="normal" in="SourceGraphic" in2="BackgroundImageFix" result="shape"/>
<feColorMatrix in="SourceAlpha" type="matrix" values="0 0 0 0 0 0 0 0 0 0 0 0 0 0 0 0 0 0 127 0" result="hardAlpha"/>
<feOffset dy="4"/>
<feComposite in2="hardAlpha" operator="arithmetic" k2="-1" k3="1"/>
<feColorMatrix type="matrix" values="0 0 0 0 1 0 0 0 0 1 0 0 0 0 1 0 0 0 0.25 0"/>
<feBlend mode="normal" in2="shape" result="effect1_innerShadow_2511_11091"/>
<feColorMatrix in="SourceAlpha" type="matrix" values="0 0 0 0 0 0 0 0 0 0 0 0 0 0 0 0 0 0 127 0" result="hardAlpha"/>
<feOffset dy="-4"/>
<feComposite in2="hardAlpha" operator="arithmetic" k2="-1" k3="1"/>
<feColorMatrix type="matrix" values="0 0 0 0 0 0 0 0 0 0 0 0 0 0 0 0 0 0 0.9 0"/>
<feBlend mode="soft-light" in2="effect1_innerShadow_2511_11091" result="effect2_innerShadow_2511_11091"/>
</filter>
<linearGradient id="paint0_linear_2511_11091" x1="17" y1="34" x2="197.768" y2="215.142" gradientUnits="userSpaceOnUse">
<stop stop-color="#231F20"/>
</linearGradient>
<linearGradient id="paint1_linear_2511_11091" x1="17" y1="34" x2="197.768" y2="215.142" gradientUnits="userSpaceOnUse">
<stop stop-color="#05815D"/>
<stop offset="1" stop-color="#0C575F"/>
</linearGradient>
<linearGradient id="paint2_linear_2511_11091" x1="17" y1="62" x2="241" y2="210" gradientUnits="userSpaceOnUse">
<stop stop-color="#20EDD7"/>
<stop offset="0.958998" stop-color="#02C0AB"/>
</linearGradient>
<clipPath id="clip0_2511_11091">
<rect width="256" height="256" fill="white"/>
</clipPath>
</defs>
</svg>
