<svg xmlns="http://www.w3.org/2000/svg" xmlns:xlink="http://www.w3.org/1999/xlink" fill="none" version="1.1" width="256" height="256" viewBox="0 0 256 256"><defs><clipPath id="master_svg0_6_012"><rect x="0" y="0" width="256" height="256" rx="0"/></clipPath><mask id="master_svg1_6_015" style="mask-type:alpha" maskUnits="objectBoundingBox"><g><g><path d="M104.425,42.3784C100.056,37.0733,93.5437,34,86.6712,34L29,34C22.3726,34,17,39.3726,17,46L17,58.137100000000004L17,68.2L17,160C17,166.627,22.3726,172,29,172L229,172C235.627,172,241,166.627,241,160L241,70.1371C241,63.509699999999995,235.627,58.137100000000004,229,58.137100000000004L117.404,58.137100000000004L104.425,42.3784Z" fill-rule="evenodd" fill="#DEE8FF" fill-opacity="1" style="mix-blend-mode:passthrough"/></g></g></mask><filter id="master_svg2_6_018" filterUnits="objectBoundingBox" color-interpolation-filters="sRGB" x="-0.33035714285714285" y="-0.5362318840579711" width="1.6607142857142858" height="2.072463768115942"><feFlood flood-opacity="0" result="BackgroundImageFix"/><feBlend mode="normal" in="SourceGraphic" in2="BackgroundImageFix" result="shape"/><feGaussianBlur stdDeviation="18.5" result="effect1_foregroundBlur"/></filter><linearGradient x1="-0.03118896484375" y1="0" x2="1.3344724584890657" y2="0.5954957723665153" id="master_svg3_6_734"><stop offset="0%" stop-color="#C2EDFF" stop-opacity="1"/><stop offset="100%" stop-color="#E6F3FF" stop-opacity="1"/></linearGradient><linearGradient x1="0" y1="0.5" x2="1" y2="0.5" id="master_svg4_6_0160"><stop offset="0%" stop-color="#87DBFF" stop-opacity="1"/><stop offset="100%" stop-color="#2CC0FF" stop-opacity="1"/></linearGradient><linearGradient x1="0" y1="0.5" x2="1" y2="0.5" id="master_svg5_6_0942"><stop offset="0%" stop-color="#2B689F" stop-opacity="1"/><stop offset="100%" stop-color="#023F76" stop-opacity="1"/><stop offset="100%" stop-color="#FFFFFF" stop-opacity="1"/></linearGradient></defs><g clip-path="url(#master_svg0_6_012)"><g><path d="M104.425,42.3784C100.056,37.0733,93.5437,34,86.6712,34L29,34C22.3726,34,17,39.3726,17,46L17,58.137100000000004L17,68.2L17,160C17,166.627,22.3726,172,29,172L229,172C235.627,172,241,166.627,241,160L241,70.1371C241,63.509699999999995,235.627,58.137100000000004,229,58.137100000000004L117.404,58.137100000000004L104.425,42.3784Z" fill-rule="evenodd" fill="#C9EEFF" fill-opacity="1" style="mix-blend-mode:passthrough"/></g><g mask="url(#master_svg1_6_015)"><g><g style="mix-blend-mode:multiply" filter="url(#master_svg2_6_018)"><g><path d="M92.789,49.054500000000004C97.7642,49.054500000000004,102.605,47.030699999999996,106.586,43.28664L116.459,34L229,34C235.627,34,241,40.74017,241,49.054500000000004L241,91.7091L241,156.945C241,165.259,235.627,172,229,172L29,172C22.3726,172,17,165.259,17,156.945L17,91.7091L17,64.1091C17,55.7947,22.3726,49.054500000000004,29,49.054500000000004L87,49.054500000000004L92.789,49.054500000000004Z" fill-rule="evenodd" fill="#009FE3" fill-opacity="0.6000000238418579" style="mix-blend-mode:passthrough"/></g></g></g></g><g><g><path d="M92.789,74C97.7642,74,102.605,72.3868,106.586,69.4024L116.459,62L229,62C235.627,62,241,67.3726,241,74L241,108L241,198C241,204.627,235.627,210,229,210L29,210C22.3726,210,17,204.627,17,198L17,108L17,86C17,79.3726,22.3726,74,29,74L87,74L92.789,74Z" fill-rule="evenodd" fill="url(#master_svg3_6_734)" fill-opacity="1" style="mix-blend-mode:passthrough"/></g><g><path d="M106.59,69.4C102.61,72.38,97.77,74,92.79,74L29,74C22.37,74,17,79.37,17,86L17,90C17,83.37,22.37,78,29,78L92.79,78C97.77,78,102.61,76.39,106.59,73.4L116.46,66L229,66C235.63,66,241,71.37,241,78L241,74C241,67.37,235.63,62,229,62L116.46,62L106.59,69.4Z" fill-rule="evenodd" fill="url(#master_svg4_6_0160)" fill-opacity="1" style="mix-blend-mode:passthrough"/></g></g><g><path d="M17,194L17,198C17,204.63,22.37,210,29,210L229,210C235.63,210,241,204.63,241,198L241,194C241,200.63,235.63,206,229,206L29,206C22.37,206,17,200.63,17,194Z" fill-rule="evenodd" fill="url(#master_svg5_6_0942)" fill-opacity="1" style="mix-blend-mode:passthrough"/></g><g><path d="M88,145Q92.30216,135.1754,98.9209,131.5731C105.53960000000001,127.9708,107.3597,127.64330000000001,111.4964,126.4971Q115.6331,125.3509,129.5324,124.5322L129.5324,142.8713L157,115.6901L129.5324,89L129.5324,106.193Q115.7986,106.193,105.53960000000001,113.0702C102.9748,114.7895,100.6376,116.9591,98.9209,118.8012C97.20414,120.6433,95.71261,121.9106,93.79137,125.3509C92.05396,128.462,90.49969,132.2702,89.82014,134.8479C88.800765,138.7148,88.566383,139.4313,88.467715,140.16559999999998C88.374191,140.86169999999998,88.402597,141.5738,88,145Z" fill="#003B71" fill-opacity="1"/></g><g transform="matrix(-1,-5.2146120310681e-8,5.2146120310681e-8,-1,335.99999040511386,368.0000087605482)"><path d="M168,240Q172.30216,230.1754,178.9209,226.5731C185.5396,222.9708,187.3597,222.6433,191.4964,221.4971Q195.6331,220.3509,209.5324,219.5322L209.5324,237.8713L237,210.6901L209.5324,184L209.5324,201.193Q195.7986,201.193,185.5396,208.0702C182.9748,209.7895,180.6376,211.9591,178.9209,213.8012C177.20414,215.6433,175.71261,216.9106,173.79137,220.3509C172.05396,223.462,170.49969,227.2702,169.82014,229.8479C168.800765,233.7148,168.566383,234.4313,168.467715,235.16559999999998C168.374191,235.86169999999998,168.402597,236.5738,168,240Z" fill="#009FE3" fill-opacity="1"/></g></g></svg>