<?xml version="1.0" encoding="UTF-8" standalone="no"?>
<svg
   width="256"
   height="256"
   viewBox="0 0 256 256"
   fill="none"
   version="1.1"
   id="svg18"
   sodipodi:docname="marimo-1.svg"
   xml:space="preserve"
   inkscape:version="1.3.2 (091e20e, 2023-11-25, custom)"
   xmlns:inkscape="http://www.inkscape.org/namespaces/inkscape"
   xmlns:sodipodi="http://sodipodi.sourceforge.net/DTD/sodipodi-0.dtd"
   xmlns="http://www.w3.org/2000/svg"
   xmlns:svg="http://www.w3.org/2000/svg"><sodipodi:namedview
     id="namedview18"
     pagecolor="#ffffff"
     bordercolor="#666666"
     borderopacity="1.0"
     inkscape:showpageshadow="2"
     inkscape:pageopacity="0.0"
     inkscape:pagecheckerboard="0"
     inkscape:deskcolor="#d1d1d1"
     inkscape:zoom="2.6820339"
     inkscape:cx="118.00746"
     inkscape:cy="67.486096"
     inkscape:window-width="2400"
     inkscape:window-height="1494"
     inkscape:window-x="673"
     inkscape:window-y="2149"
     inkscape:window-maximized="1"
     inkscape:current-layer="svg18" /><path
     fill-rule="evenodd"
     clip-rule="evenodd"
     d="M104.425 42.3784C100.056 37.0733 93.5437 34 86.6712 34H29C22.3726 34 17 39.3726 17 46V58.1371V68.2V160C17 166.627 22.3726 172 29 172H229C235.627 172 241 166.627 241 160V70.1371C241 63.5097 235.627 58.1371 229 58.1371H117.404L104.425 42.3784Z"
     fill="#073042"
     id="path1"
     style="fill:#1c7361;fill-opacity:1" /><mask
     id="mask0_2002_34005"
     style="mask-type:alpha"
     maskUnits="userSpaceOnUse"
     x="17"
     y="34"
     width="224"
     height="138"><path
       fill-rule="evenodd"
       clip-rule="evenodd"
       d="M104.425 42.3784C100.056 37.0733 93.5437 34 86.6712 34H29C22.3726 34 17 39.3726 17 46V58.1371V68.2V160C17 166.627 22.3726 172 29 172H229C235.627 172 241 166.627 241 160V70.1371C241 63.5097 235.627 58.1371 229 58.1371H117.404L104.425 42.3784Z"
       fill="url(#paint0_linear_2002_34005)"
       id="path2" /></mask><g
     mask="url(#mask0_2002_34005)"
     id="g4"><g
       style="mix-blend-mode:multiply"
       filter="url(#filter0_f_2002_34005)"
       id="g3"><path
         fill-rule="evenodd"
         clip-rule="evenodd"
         d="M92.789 74C97.7642 74 102.605 72.3868 106.586 69.4024L116.459 62H229C235.627 62 241 67.3726 241 74V108V160C241 166.627 235.627 172 229 172H29C22.3726 172 17 166.627 17 160L17 108V86C17 79.3726 22.3726 74 29 74H87H92.789Z"
         fill="black"
         fill-opacity="0.3"
         id="path3" /></g></g><g
     filter="url(#filter1_ii_2002_34005)"
     id="g5"><path
       fill-rule="evenodd"
       clip-rule="evenodd"
       d="M92.789 74C97.7642 74 102.605 72.3868 106.586 69.4024L116.459 62H229C235.627 62 241 67.3726 241 74V108V198C241 204.627 235.627 210 229 210H29C22.3726 210 17 204.627 17 198L17 108V86C17 79.3726 22.3726 74 29 74H87H92.789Z"
       fill="url(#paint1_linear_2002_34005)"
       id="path4" /></g><defs
     id="defs18"><filter
       id="filter0_f_2002_34005"
       x="-20"
       y="25"
       width="298"
       height="184"
       filterUnits="userSpaceOnUse"
       color-interpolation-filters="sRGB"><feFlood
         flood-opacity="0"
         result="BackgroundImageFix"
         id="feFlood11" /><feBlend
         mode="normal"
         in="SourceGraphic"
         in2="BackgroundImageFix"
         result="shape"
         id="feBlend11" /><feGaussianBlur
         stdDeviation="18.5"
         result="effect1_foregroundBlur_2002_34005"
         id="feGaussianBlur11" /></filter><filter
       id="filter1_ii_2002_34005"
       x="17"
       y="62"
       width="224"
       height="148"
       filterUnits="userSpaceOnUse"
       color-interpolation-filters="sRGB"><feFlood
         flood-opacity="0"
         result="BackgroundImageFix"
         id="feFlood12" /><feBlend
         mode="normal"
         in="SourceGraphic"
         in2="BackgroundImageFix"
         result="shape"
         id="feBlend12" /><feColorMatrix
         in="SourceAlpha"
         type="matrix"
         values="0 0 0 0 0 0 0 0 0 0 0 0 0 0 0 0 0 0 127 0"
         result="hardAlpha"
         id="feColorMatrix12" /><feOffset
         dy="4"
         id="feOffset12" /><feComposite
         in2="hardAlpha"
         operator="arithmetic"
         k2="-1"
         k3="1"
         id="feComposite12" /><feColorMatrix
         type="matrix"
         values="0 0 0 0 1 0 0 0 0 1 0 0 0 0 1 0 0 0 0.25 0"
         id="feColorMatrix13" /><feBlend
         mode="normal"
         in2="shape"
         result="effect1_innerShadow_2002_34005"
         id="feBlend13" /><feColorMatrix
         in="SourceAlpha"
         type="matrix"
         values="0 0 0 0 0 0 0 0 0 0 0 0 0 0 0 0 0 0 127 0"
         result="hardAlpha"
         id="feColorMatrix14" /><feOffset
         dy="-4"
         id="feOffset14" /><feComposite
         in2="hardAlpha"
         operator="arithmetic"
         k2="-1"
         k3="1"
         id="feComposite14" /><feColorMatrix
         type="matrix"
         values="0 0 0 0 0 0 0 0 0 0 0 0 0 0 0 0 0 0 0.9 0"
         id="feColorMatrix15" /><feBlend
         mode="soft-light"
         in2="effect1_innerShadow_2002_34005"
         result="effect2_innerShadow_2002_34005"
         id="feBlend15" /></filter><linearGradient
       id="paint0_linear_2002_34005"
       x1="17"
       y1="34"
       x2="197.768"
       y2="215.142"
       gradientUnits="userSpaceOnUse"><stop
         stop-color="#05815D"
         id="stop15" /><stop
         offset="1"
         stop-color="#0C575F"
         id="stop16" /></linearGradient><linearGradient
       id="paint1_linear_2002_34005"
       x1="17"
       y1="62"
       x2="303.5"
       y2="331.5"
       gradientUnits="userSpaceOnUse"><stop
         stop-color="#FAFAFA"
         id="stop17" /><stop
         offset="1"
         stop-color="#DFD8D8"
         id="stop18" /></linearGradient></defs><path
     style="fill:#1c7361;fill-opacity:1;fill-rule:nonzero;stroke:none;stroke-width:0.43511"
     d="m 106.23602,94.588779 c 0.0309,0.04698 0.063,0.11 0.0951,0.158127 -0.14323,0.205105 -0.4125,0.300207 -0.64969,0.237187 0.12719,-0.174167 0.3174,-0.30021 0.5225,-0.348334"
     id="path1535" /><path
     style="fill:#1c7361;fill-opacity:1;fill-rule:nonzero;stroke:none;stroke-width:0.43511"
     d="m 104.98477,95.601698 c 0.2223,-0.07906 0.45948,-0.127187 0.69667,-0.111147 -0.047,0.348333 -0.63365,0.443438 -0.77573,0.111147"
     id="path1537" /><path
     style="fill:#1c7361;fill-opacity:1;fill-rule:nonzero;stroke:none;stroke-width:0.43511"
     d="m 104.193,94.872946 c 0.14323,-0.221144 0.41136,-0.379269 0.69667,-0.348334 0.063,0.159271 0.016,0.348334 -0.11115,0.459481 -0.22114,0.03208 -0.49041,0.06302 -0.64854,-0.111147"
     id="path1539" /><path
     style="fill:#1c7361;fill-opacity:1;fill-rule:nonzero;stroke:none;stroke-width:0.43511"
     d="m 148.57575,95.917947 c 0.0951,-0.0149 0.1902,0.07906 0.17416,0.174166 -0.016,0.09511 -0.12604,0.159272 -0.22114,0.12719 -0.14323,-0.158125 -0.28532,-0.332291 -0.4274,-0.506458 0.15813,-0.12719 0.44229,-0.01605 0.47438,0.174167"
     id="path1541" /><path
     style="fill:#1c7361;fill-opacity:1;fill-rule:nonzero;stroke:none;stroke-width:0.43511"
     d="m 105.61842,93.574716 c 0.11115,-0.12604 0.33229,-0.12604 0.45948,-0.01604 -0.20625,0.206248 -0.47552,0.348333 -0.76083,0.443435 -0.0309,-0.174167 0.12718,-0.379269 0.30135,-0.364373"
     id="path1543" /><path
     style="fill:#1c7361;fill-opacity:1;fill-rule:nonzero;stroke:none;stroke-width:0.43511"
     d="m 103.02196,108.30098 c 0.14208,-0.20625 0.5225,-0.12719 0.56948,0.12604 -0.19021,-0.0309 -0.39531,0.0321 -0.5225,0.17417 -0.0791,0.0321 -0.20625,-0.0309 -0.20625,-0.12604 -0.0149,-0.0791 0.0802,-0.17417 0.17416,-0.15928"
     id="path1545" /><path
     style="fill:#1c7361;fill-opacity:1;fill-rule:nonzero;stroke:none;stroke-width:0.43511"
     d="m 109.51311,96.709718 c -0.0791,-0.237186 -0.016,-0.5225 0.17417,-0.696667 0.12718,-0.03094 0.25323,-0.126039 0.30135,-0.269271 0.20511,0.07906 0.39531,0.159271 0.60156,0.238333 -0.34833,0.23719 -0.7127,0.474376 -1.07708,0.727605"
     id="path1551" /><path
     style="fill:#1c7361;fill-opacity:1;fill-rule:nonzero;stroke:none;stroke-width:0.43511"
     d="m 101.78675,113.71619 c 0,-0.0951 0,-0.19021 0,-0.28531 0.15813,-0.0791 0.33229,-0.0791 0.47437,-0.0161 -0.28416,0.30136 -0.44343,0.71271 -0.41135,1.12407 -0.17417,-0.12604 -0.36437,-0.26927 -0.55458,-0.39531 0.15927,-0.12719 0.33343,-0.26928 0.5076,-0.4125"
     id="path1553" /><path
     style="fill:#1c7361;fill-opacity:1;fill-rule:nonzero;stroke:none;stroke-width:0.43511"
     d="m 100.74175,99.734721 c 0.063,-0.491563 0.34833,-0.935001 0.74365,-1.235207 0.11114,-0.07906 0.28531,-0.12719 0.34833,-0.01605 -0.34833,0.348334 -0.63365,0.743645 -0.83875,1.187083 -0.0481,0.08021 -0.17417,0.12719 -0.25323,0.06417"
     id="path1555" /><path
     style="fill:#1c7361;fill-opacity:1;fill-rule:nonzero;stroke:none;stroke-width:0.43511"
     d="m 102.37227,109.55108 c 0.31625,-0.23718 0.61761,-0.47437 0.93386,-0.7127 -0.0791,0.30135 -0.15813,0.57062 -0.23719,0.87083 -0.11115,0.0642 -0.19021,0.17531 -0.30021,0.23833 -0.11115,0.063 -0.26927,0.0791 -0.34833,-0.0321 -0.0642,-0.11115 0.11,-0.26927 0.17416,-0.15813 -0.0642,-0.063 -0.14323,-0.12718 -0.22229,-0.20625"
     id="path1557" /><path
     style="fill:#1c7361;fill-opacity:1;fill-rule:nonzero;stroke:none;stroke-width:0.43511"
     d="m 114.43791,97.280346 c -0.0321,0.07906 -0.063,0.158124 -0.0321,0.253229 -0.25323,0.04698 -0.49041,0.09511 -0.71271,0.142082 -0.0309,0.09511 -0.063,0.190209 -0.094,0.285314 -0.19021,-0.01605 -0.38042,-0.01605 -0.55459,-0.01605 -0.15812,-0.07906 0,-0.30021 0.15813,-0.379272 0.31625,-0.159271 0.64969,-0.254376 0.99802,-0.301353 -0.0481,-0.07906 -0.0951,-0.142085 -0.14323,-0.221147 0.25323,-0.206249 0.55458,-0.348334 0.88687,-0.443439 0.063,0.11 0.0791,0.23719 0.0481,0.363229 -0.11115,0.04813 -0.22229,0.06417 -0.33344,0.03209 0.0161,0.07906 0.0321,0.158125 0.0481,0.253229 -0.11115,0.03208 -0.19021,0.04812 -0.26927,0.03208"
     id="path1559" /><path
     style="fill:#1c7361;fill-opacity:1;fill-rule:nonzero;stroke:none;stroke-width:0.43511"
     d="m 102.05602,98.768782 c 0.12604,-0.07906 0.30021,-0.111144 0.44344,-0.07906 -0.0642,-0.07906 -0.11115,-0.159271 -0.15927,-0.238334 0.15927,-0.03094 0.31739,-0.06302 0.49156,-0.07906 0.063,-0.158124 0.063,-0.348333 0,-0.506458 0.17417,-0.01604 0.36438,0.01605 0.5225,0.07906 0.047,0.06302 0.063,0.158125 0.047,0.237187 -0.0791,0.03209 -0.17417,0.06417 -0.26927,0.09511 -0.0309,0.159271 -0.0791,0.317395 -0.11,0.475523 -0.0791,0.04698 -0.20625,0.06302 -0.30135,0.03208 -0.14209,0.854791 -1.07709,1.34521 -1.40938,2.13699 -0.11115,0.26927 -0.22115,0.6176 -0.50646,0.6176 -0.0791,-0.0951 -0.063,-0.26927 0.047,-0.34833 -0.11,-0.0321 -0.2051,-0.063 -0.30021,-0.0951 -0.016,-0.17417 0.26927,-0.12605 0.41135,-0.016 0.12719,-0.11 0.016,-0.36438 -0.14208,-0.36438 0.17417,-0.14208 0.28531,-0.36323 0.31625,-0.58552 0.17417,0.016 0.34834,-0.047 0.45948,-0.17416 -0.12719,0.03208 -0.26927,-0.06302 -0.30135,-0.205105 0.25323,0.04698 0.5076,-0.190209 0.49156,-0.443438 0.19021,-0.111144 0.37927,-0.222291 0.56948,-0.333438 -0.0791,-0.04698 -0.19021,-0.12604 -0.30021,-0.205105"
     id="path1561" /><path
     style="fill:#1c7361;fill-opacity:1;fill-rule:nonzero;stroke:none;stroke-width:0.43511"
     d="m 151.78981,99.607534 c -0.34833,-0.474376 -0.71271,-0.933853 -1.155,-1.330314 -0.6176,-0.553439 -1.40938,-1.045001 -1.53656,-1.867708 3.72167,3.151042 6.5874,7.315008 8.18584,11.922408 0.14323,0.12718 -0.0149,0.4125 -0.18906,0.36437 -1.39334,-3.21406 -3.18313,-6.28604 -5.30522,-9.088756"
     id="path1563" /><path
     style="fill:#1c7361;fill-opacity:1;fill-rule:nonzero;stroke:none;stroke-width:0.43511"
     d="m 109.98863,97.106179 c 0.64854,-0.5225 1.39334,-1.014066 1.66261,-1.805835 0.0791,-0.221147 0.30021,-0.395313 0.50645,-0.5225 3.19803,-2.010939 6.93574,-3.118963 10.70324,-3.181983 -1.88375,0.506458 -3.7526,0.996877 -5.63636,1.504482 -2.92875,0.775729 -5.08291,3.198022 -7.06177,5.510315 -1.71073,2.010942 -3.43636,4.021882 -5.14594,6.047712 -0.20625,0.55458 -0.39646,1.12406 -0.60157,1.67865 -0.0791,0.25323 -0.17416,0.50646 -0.39645,0.66458 -0.20511,0.15927 -0.55344,0.15927 -0.68063,-0.0791 0.75969,-1.32917 1.52052,-2.67552 2.29625,-4.02188 1.23521,-2.09 2.46927,-4.243022 4.35417,-5.794481"
     id="path1565" /><g
     id="g18"
     transform="matrix(1.3234654,0,0,1.3234654,-39.904796,-22.818028)"
     style="stroke-width:0.755592"><path
       style="fill:#1c7361;fill-opacity:1;fill-rule:nonzero;stroke:none;stroke-width:0.328766"
       d="m 103.38519,99.038054 c 0.44344,-0.522501 0.935,-1.219168 0.6176,-1.836773 1.77376,-1.045001 3.34126,-2.423437 4.62344,-4.037919 -0.69666,0.554583 -1.45635,0.998021 -2.26416,1.346355 6.0649,-5.985839 15.18574,-8.709485 23.56179,-7.030839 -6.74553,-0.253229 -13.6171,1.535419 -19.19158,5.336151 -5.58938,3.784689 -9.8324,9.595221 -11.462929,16.150531 2.469269,-7.17292 7.679379,-13.363862 14.329809,-17.005323 -0.5225,0.53854 -1.04615,1.091978 -1.58355,1.630521 2.53344,-1.045001 4.82855,-2.612502 7.34709,-3.705627 7.39407,-3.230107 16.29262,-2.010939 23.18023,2.201146 6.88761,4.212088 11.84449,11.115743 14.72626,18.653033 1.26615,3.29313 2.15302,6.95063 1.02896,10.29189 -0.25323,-4.35417 -1.67865,-8.55022 -3.53146,-12.49303 -3.07198,-6.57136 -7.47313,-12.730224 -13.66408,-16.498871 -6.19094,-3.752607 -14.37792,-4.750628 -20.71095,-1.219167 3.24615,-0.348334 6.52324,-0.538543 9.7373,-0.07906 6.04886,0.854791 11.63824,4.021876 15.88126,8.406984 4.22813,4.402294 7.15803,9.959594 8.88366,15.802204 1.67864,5.71656 2.23208,12.01865 0.0791,17.59199 6.28605,-10.16584 5.24105,-24.32033 -2.43834,-33.457214 -3.21406,-3.815627 -7.37917,-6.745525 -11.87542,-8.866465 -5.19407,-2.438335 -10.8946,-3.847712 -16.62606,-3.689588 -5.73146,0.158125 -11.46407,1.94792 -16.03939,5.399171 3.79959,-3.357293 8.75532,-5.257086 13.79127,-5.779586 5.05083,-0.506461 10.16469,0.317396 14.96344,1.931874 9.97449,3.388235 19.06325,10.862509 21.99315,20.980228 0.74364,2.59646 1.07594,5.28802 1.37729,7.98073 0.25323,2.32719 0.45948,4.65438 0.41135,6.99761 -0.22114,11.57522 -7.61636,22.88117 -18.39865,27.10815 -3.05595,1.18823 -6.28605,1.83677 -9.5322,2.29625 -5.19407,0.72761 -10.5772,0.9499 -15.58105,-0.60156 -2.58042,-0.80782 -4.98782,-2.05907 -7.21991,-3.59448 -9.24688,-6.33418 -15.089488,-17.36971 -15.089488,-28.58055 0,-1.99489 0.174167,-3.97375 0.443439,-5.93771 0.237186,-1.80469 0.553438,-3.59448 1.075938,-5.33615 0.791769,-2.56552 2.026979,-4.98782 3.658647,-7.1248 0.284164,-0.17417 0.569484,-0.36438 0.838754,-0.55458 -3.752609,7.93261 -5.98584,17.30668 -2.549484,25.39741 -1.23521,-5.27198 -1.314272,-10.79834 -0.221147,-16.08751 0.348334,-0.12604 0.696667,-0.26812 1.028961,-0.41135 0.01605,-0.34834 0.03094,-0.68063 0.04698,-1.02896 -0.253229,0.28531 -0.490416,0.56948 -0.743645,0.83875 0.58552,-4.19605 2.390205,-8.1698 5.097815,-11.383864 m 2.54948,-0.206249 c 0.98198,-0.664585 1.96396,-1.330315 2.94594,-1.994897 -0.6176,1.251249 -1.75771,2.232084 -3.08802,2.675522 -6.174903,6.381148 -8.075843,15.897298 -7.347091,24.732828 0.285314,3.34125 0.965939,6.80855 3.118961,9.37407 -1.50334,-6.17604 -1.583544,-12.69928 -0.20511,-18.90626 0.26927,-0.0161 0.36323,0.33229 0.36323,0.60156 0.11115,4.16511 -0.60156,8.32907 -0.3002,12.49303 0.3002,4.14907 1.85281,8.53532 5.33614,10.79949 2.72365,1.7726 5.43126,3.54636 8.13887,5.32011 -6.33418,-2.02698 -11.86054,-6.42928 -15.279703,-12.12866 0.917813,2.48532 2.200003,4.84459 3.783543,6.96667 -0.2051,-0.57062 -0.39531,-1.15614 -0.60156,-1.74166 1.59958,1.50448 3.21406,2.97687 4.81365,4.46531 1.17219,1.09198 3.00896,2.2 4.21208,1.155 0.19021,0.39646 -0.15812,0.88688 -0.58552,0.99803 -0.42854,0.12718 -0.88687,0 -1.31427,-0.12719 1.91584,1.37844 3.91073,2.64458 5.96865,3.80073 -0.30021,0.047 -0.39531,0.49042 -0.2051,0.74365 0.18906,0.25437 0.50646,0.31739 0.80667,0.39645 7.55334,1.63053 15.59709,1.02896 22.81699,-1.7577 -6.20698,1.45635 -12.82532,1.78979 -18.8421,-0.31626 -5.08292,-1.77375 -9.53219,-5.27312 -12.44605,-9.78542 -0.93385,-1.4575 -1.70958,-2.99292 -2.42229,-4.56042 -2.29625,-5.16199 -3.75261,-10.79834 -3.34126,-16.43585 0.41251,-5.63635 2.88178,-11.25782 7.31616,-14.74116 0.45833,-0.36437 1.02896,-0.7127 1.59844,-0.57062 -4.37022,3.16709 -6.96668,8.40813 -7.6473,13.76032 -0.68063,5.36709 0.4274,10.81439 2.37531,15.84918 1.39334,3.56355 3.245,7.0148 5.79449,9.86449 1.09312,1.21917 2.32833,2.32833 3.73656,3.16709 2.58157,1.55145 5.63751,2.13812 8.63042,2.51739 4.06886,0.5225 8.1698,0.74479 12.27074,0.64969 -5.17802,1.21917 -10.59323,0.34833 -15.83428,-0.5225 8.8997,3.34125 19.33366,1.29823 26.98211,-4.32323 1.51937,-1.12407 2.96083,-2.37417 4.11583,-3.87865 1.77376,-2.3123 2.8348,-5.1299 3.37334,-7.99678 1.39333,-7.47313 -0.60156,-15.2797 -4.22813,-21.9771 -2.5174,-4.65552 -5.85865,-8.961567 -10.2598,-11.891465 -4.11698,-2.723649 -9.00969,-4.163961 -13.93449,-4.433232 -7.56823,-0.443438 -15.57991,2.057917 -20.61585,7.758444 m 14.86835,51.428473 c 3.40427,0.8548 6.84063,1.4724 10.32396,1.8849 -4.27511,0.98084 -8.6774,-0.5225 -12.80928,-1.9949 -2.43948,-0.85593 -4.90875,-1.74281 -7.17292,-3.00896 -5.47938,-3.0399 -9.59636,-8.25001 -11.986571,-14.04449 -0.411356,-1.02896 -0.791772,-2.05906 -1.108023,-3.10406 -0.03208,-0.12604 -0.127187,0.17416 0,0.11114 0.126042,-0.047 0.11,-0.23718 0.04698,-0.36437 -1.425419,-3.43521 -2.296253,-7.1248 -2.565522,-10.83043 -0.269271,5.60542 1.124063,11.24178 3.657503,16.26168 2.755733,5.46219 6.888753,10.26095 12.081673,13.50595 5.17803,3.24615 11.41595,4.89271 17.49689,4.30719 8.55021,-0.83875 16.05543,-5.82657 22.94304,-10.94157 -3.0399,4.02188 -7.6473,6.50834 -12.12866,8.85157 7.7424,-2.16907 13.94939,-8.29699 17.6871,-15.42178 -1.85281,3.16594 -4.75063,5.6524 -7.90167,7.52011 -3.16709,1.86885 -6.63438,3.16708 -10.10168,4.41833 -1.52052,0.55459 -3.05594,1.09198 -4.62344,1.53542 -4.48136,1.28334 -9.1999,1.72677 -13.83938,1.31427 m 31.66742,-10.70323 c 0.79177,-0.7448 1.56864,-1.50448 2.20115,-2.35928 0.99802,-1.37729 1.6626,-2.97687 2.29625,-4.56042 0.85479,-2.15302 1.72562,-4.32323 1.94792,-6.63438 -0.41251,0.36438 -0.55459,0.90292 -0.71271,1.42542 -2.10605,7.29896 -7.31501,13.66407 -14.07658,17.14741 3.18313,-0.71271 5.92167,-2.78667 8.34397,-5.01875 m -38.69712,7.75844 c 0.33229,0.0791 0.74365,0.22115 0.75969,0.55458 0.12604,-0.22229 0.50646,-0.22229 0.64854,0 0.0642,-0.016 0.016,-0.12718 -0.063,-0.15927 -0.47437,-0.25323 -0.9499,-0.50646 -1.40937,-0.75969 -1.91584,-1.02896 -3.67355,-2.31114 -5.24105,-3.79958 -0.19021,0.41135 -0.047,0.93385 0.3174,1.18708 0.69666,0.50646 1.39333,1.01292 2.09,1.52052 0.83875,0.69667 1.83677,1.20313 2.89781,1.45636 m 45.72796,-23.94106 c -0.063,1.17219 -0.12719,2.35927 -0.20625,3.53146 -0.0149,0.15812 -0.0149,0.31625 -0.0149,0.47438 -0.0161,0.28531 -0.0321,0.57062 -0.0642,0.83989 -0.0161,0.34834 -0.0309,0.66458 -0.0309,1.01292 0.66459,-2.69157 0.90177,-5.51032 0.69667,-8.2649 -0.0791,-0.0321 -0.15927,-0.0791 -0.22229,-0.12719 -0.047,0.83875 -0.11115,1.67864 -0.15813,2.53344 M 97.955079,106.02077 c -0.111144,0.2051 -0.206249,0.41135 -0.301353,0.6176 0.111147,0.14209 0.316251,-0.0321 0.364376,-0.20625 0.04698,-0.15812 0.0951,-0.38041 0.269271,-0.39531 -0.07906,-0.0802 -0.158127,-0.15927 -0.237189,-0.23833 -0.03208,0.0642 -0.06417,0.15812 -0.03208,0.22229 M 109.46613,92.878049 c 0.15813,-0.12604 0.31625,-0.253229 0.47438,-0.395311 -0.26927,-0.111147 -0.61761,0.03094 -0.72761,0.316248 0.0791,0.03208 0.15813,0.06302 0.25323,0.07906 m 0.49042,-0.743645 c 0.34833,0.07906 0.74479,-0.01605 1.02896,-0.253229 -0.36323,-0.01605 -0.72761,0.06302 -1.02896,0.253229 M 97.353516,108.20587 c -0.01605,-0.0791 -0.03208,-0.15812 -0.03208,-0.22229 -0.301356,0.11115 -0.443438,0.5225 -0.269271,0.79178 0.06302,-0.20511 0.158124,-0.39532 0.301353,-0.56949 m -1.789792,8.0747 c -0.07906,0.11114 -0.01604,0.30135 0.127186,0.31739 0.07907,-0.25323 0.06302,-0.5225 -0.01605,-0.79177 -0.158127,0.0791 -0.206252,0.30021 -0.111147,0.44344"
       id="path1533" /><path
       style="fill:#1c7361;fill-opacity:1;fill-rule:nonzero;stroke:none;stroke-width:0.328766"
       d="m 112.07863,98.16722 c 0.0791,-0.03208 0.19021,-0.06417 0.26927,-0.03208 0.0951,0.03208 0.14209,0.174166 0.0791,0.237186 -0.30136,0.190209 -0.64969,0.301357 -0.99802,0.317396 0.15927,-0.222291 0.39645,-0.396458 0.64968,-0.5225"
       id="path1547" /><path
       style="fill:#1c7361;fill-opacity:1;fill-rule:nonzero;stroke:none;stroke-width:0.328766"
       d="m 116.74905,147.64778 c 0.15928,0.11115 0.33344,0.22229 0.49157,0.33229 -0.34834,0.14323 -0.75969,0.0642 -1.045,-0.18906 -0.063,-0.11115 0.063,-0.26927 0.17416,-0.26927 0.14209,-0.0161 0.26927,0.063 0.37927,0.12604"
       id="path1549" /><path
       style="fill:#1c7361;fill-opacity:1;stroke:none;stroke-width:0.755592px;stroke-linecap:butt;stroke-linejoin:miter;stroke-opacity:1"
       d="m 135.56166,111.07946 c -1.53373,-0.0322 -3.13213,0.51291 -4.18885,1.65088 -0.42578,0.43142 -0.6751,0.98743 -0.95417,1.50978 -0.28502,0.13571 -0.38574,-0.38332 -0.51412,-0.54828 -0.72209,-1.57079 -2.38148,-2.62413 -4.11044,-2.60191 -1.43279,-0.11239 -2.92596,0.29298 -3.98386,1.2966 -0.52835,0.41832 -0.76761,1.0615 -1.13617,1.59432 -0.24593,0.0597 -0.1335,-0.39294 -0.17585,-0.53394 -0.0179,-0.64607 -0.0218,-1.29243 -0.0328,-1.93864 -2.26197,0 -4.52395,0 -6.78592,0 0,5.80021 0,11.60041 0,17.40062 2.26296,0 4.52592,0 6.78888,0 0.0234,-3.45938 -0.0553,-6.9217 0.0657,-10.37912 0.14002,-0.82035 0.86118,-1.47639 1.70584,-1.47168 0.79545,-0.0986 1.5662,0.38996 1.84836,1.13699 0.0949,0.96982 0.0244,1.98286 0.0562,2.96916 0.016,2.57056 0.0319,5.14113 0.0479,7.71169 2.26296,0 4.52592,0 6.78888,0 0.0414,-3.46475 7.1e-4,-6.93159 0.10453,-10.39495 0.0611,-1.05483 1.28829,-1.62192 2.23018,-1.38054 0.78115,0.10357 1.38091,0.81763 1.33857,1.60763 0.10421,3.34716 0.0263,6.6979 0.0507,10.04647 0.058,0.34496 0.74315,0.0628 1.05458,0.15435 1.93568,0 3.87135,0 5.80703,0 -0.0385,-4.16747 0.0137,-8.33684 -0.0996,-12.50298 -0.15288,-1.91463 -1.12431,-3.92275 -2.9467,-4.74779 -0.92026,-0.44325 -1.94334,-0.60463 -2.9588,-0.57866 z"
       id="path18" /></g></svg>
