<svg width="256" height="256" viewBox="0 0 256 256" fill="none" xmlns="http://www.w3.org/2000/svg">
<path fill-rule="evenodd" clip-rule="evenodd" d="M104.425 42.3784C100.056 37.0733 93.5437 34 86.6712 34H29C22.3726 34 17 39.3726 17 46V58.1371V68.2V160C17 166.627 22.3726 172 29 172H229C235.627 172 241 166.627 241 160V70.1371C241 63.5097 235.627 58.1371 229 58.1371H117.404L104.425 42.3784Z" fill="#003E54"/>
<mask id="mask0_1019_27016" style="mask-type:alpha" maskUnits="userSpaceOnUse" x="17" y="34" width="224" height="138">
<path fill-rule="evenodd" clip-rule="evenodd" d="M104.425 42.3784C100.056 37.0733 93.5437 34 86.6712 34H29C22.3726 34 17 39.3726 17 46V58.1371V68.2V160C17 166.627 22.3726 172 29 172H229C235.627 172 241 166.627 241 160V70.1371C241 63.5097 235.627 58.1371 229 58.1371H117.404L104.425 42.3784Z" fill="url(#paint0_linear_1019_27016)"/>
</mask>
<g mask="url(#mask0_1019_27016)">
<g style="mix-blend-mode:multiply" filter="url(#filter0_f_1019_27016)">
<path fill-rule="evenodd" clip-rule="evenodd" d="M92.789 74C97.7642 74 102.605 72.3868 106.586 69.4024L116.459 62H229C235.627 62 241 67.3726 241 74V108V160C241 166.627 235.627 172 229 172H29C22.3726 172 17 166.627 17 160L17 108V86C17 79.3726 22.3726 74 29 74H87H92.789Z" fill="black" fill-opacity="0.3"/>
</g>
</g>
<g filter="url(#filter1_ii_1019_27016)">
<path fill-rule="evenodd" clip-rule="evenodd" d="M92.789 74C97.7642 74 102.605 72.3868 106.586 69.4024L116.459 62H229C235.627 62 241 67.3726 241 74V108V198C241 204.627 235.627 210 229 210H29C22.3726 210 17 204.627 17 198L17 108V86C17 79.3726 22.3726 74 29 74H87H92.789Z" fill="url(#paint1_linear_1019_27016)"/>
</g>
<path d="M92.0593 167.19L96.2817 183.521H93.0943L90.2819 171.757L84.9795 183.521H82.2871L77.0148 171.825L74.1199 183.521H71L75.1849 167.19H77.9448L83.6446 179.835L89.3219 167.19H92.0593Z" fill="white"/>
<path d="M108.323 173.501V171.6H111.401V183.521H108.323V181.601C107.509 182.981 105.836 183.772 103.8 183.772C99.5441 183.772 97.1704 180.772 97.1704 177.322C97.1704 173.996 99.4203 171.323 103.346 171.323C105.585 171.349 107.441 172.099 108.323 173.501ZM100.448 177.484C100.448 179.677 101.828 181.556 104.498 181.556C107.074 181.556 108.476 179.722 108.476 177.551C108.476 175.38 107.029 173.524 104.351 173.524C101.786 173.524 100.452 175.376 100.452 177.484H100.448Z" fill="white"/>
<path d="M118.342 183.521H115.267V171.6H118.342V174.27C118.694 173.416 119.288 172.684 120.052 172.164C120.816 171.645 121.716 171.361 122.639 171.349C123.294 171.34 123.945 171.446 124.563 171.664L123.907 173.914C123.376 173.773 122.829 173.697 122.279 173.689C120.06 173.689 118.342 175.361 118.342 177.814V183.521Z" fill="white"/>
<path d="M126.101 168.454C126.095 168.238 126.133 168.023 126.215 167.822C126.296 167.622 126.418 167.44 126.573 167.289C126.728 167.139 126.913 167.022 127.116 166.946C127.318 166.87 127.534 166.837 127.75 166.849C127.971 166.842 128.19 166.88 128.395 166.96C128.6 167.04 128.787 167.161 128.944 167.316C129.1 167.471 129.224 167.656 129.307 167.86C129.39 168.064 129.431 168.282 129.427 168.503C129.431 168.72 129.39 168.935 129.306 169.135C129.222 169.336 129.097 169.516 128.939 169.665C128.781 169.814 128.594 169.929 128.389 170.001C128.185 170.073 127.967 170.102 127.75 170.085C127.533 170.095 127.316 170.059 127.113 169.981C126.909 169.902 126.725 169.783 126.57 169.629C126.415 169.476 126.293 169.293 126.212 169.091C126.132 168.888 126.094 168.672 126.101 168.454ZM126.236 171.6H129.314V180.311C129.314 180.851 129.427 181.237 129.877 181.237C130.075 181.232 130.272 181.21 130.465 181.17L130.942 183.42C130.294 183.675 129.602 183.803 128.905 183.795C127.615 183.795 126.236 183.42 126.236 180.491V171.6Z" fill="white"/>
<path d="M143.065 173.501V171.6H146.155V183.521H143.076V181.601C142.263 182.981 140.59 183.772 138.554 183.772C134.302 183.772 131.924 180.772 131.924 177.322C131.924 173.996 134.174 171.323 138.1 171.323C140.328 171.349 142.184 172.099 143.065 173.501ZM135.19 177.484C135.19 179.677 136.57 181.556 139.24 181.556C141.82 181.556 143.223 179.722 143.223 177.551C143.223 175.38 141.771 173.524 139.098 173.524C136.529 173.524 135.194 175.376 135.194 177.484H135.19Z" fill="white"/>
<path d="M150.869 167.19H158.245C164.443 167.19 167.541 170.606 167.496 175.354C167.541 180.288 164.121 183.521 158.788 183.521H150.869V167.19ZM152.905 168.638V182.096H158.53C163.461 182.096 165.339 178.77 165.339 175.309C165.339 171.397 162.988 168.638 158.53 168.638H152.905Z" fill="white"/>
<path d="M180.073 183.521H170.698V167.19H179.154C182.386 167.19 185.465 167.798 185.42 171.42C185.42 173.974 183.834 174.679 182.161 174.949C184.535 175.151 185.964 176.666 185.964 179.111C185.979 182.775 182.765 183.521 180.073 183.521ZM179.371 174.315C182.608 174.315 183.331 173.07 183.331 171.487C183.331 169.11 181.884 168.57 179.371 168.57H172.652V174.315H179.371ZM179.461 175.695H172.652V182.141H179.754C181.745 182.141 183.849 181.485 183.849 178.976C183.849 176.081 181.43 175.695 179.461 175.695Z" fill="white"/>
<path d="M186.684 89.3577C186.385 89.1115 186.005 88.9846 185.619 89.0015C184.557 89.0015 183.185 89.7215 182.446 90.1077L182.154 90.2577C180.915 90.8576 179.566 91.1971 178.19 91.2552C176.78 91.3002 175.565 91.3827 173.983 91.5477C164.608 92.5114 160.427 99.6961 156.4 106.645C154.206 110.425 151.941 114.351 148.836 117.351C148.194 117.973 147.511 118.553 146.792 119.087C143.579 121.475 139.544 123.182 136.405 124.389C133.383 125.544 130.083 126.583 126.895 127.588C123.974 128.506 121.218 129.376 118.683 130.318C117.54 130.741 116.568 131.068 115.71 131.353C113.4 132.103 111.735 132.676 109.301 134.352C108.352 135.001 107.4 135.702 106.755 136.227C104.823 137.769 103.113 139.57 101.674 141.579C100.436 143.432 99.0056 145.149 97.4065 146.701C96.8927 147.203 95.9815 147.451 94.6166 147.451C93.0191 147.451 91.0804 147.121 89.0292 146.772C86.9143 146.397 84.7281 146.041 82.8532 146.041C81.3307 146.041 80.1645 146.288 79.2946 146.791C79.2946 146.791 77.8284 147.646 77.2096 148.752L77.8171 149.026C78.7592 149.536 79.6313 150.167 80.412 150.901C81.2266 151.653 82.1339 152.298 83.1119 152.821C83.4242 152.935 83.7081 153.115 83.9444 153.349C83.6894 153.724 83.3144 154.208 82.9207 154.726C80.757 157.557 79.4933 159.345 80.217 160.32C80.5639 160.501 80.9513 160.588 81.342 160.575C86.0593 160.575 88.5943 159.349 91.8004 157.797C92.7304 157.347 93.6753 156.886 94.8003 156.409C96.6752 155.596 98.6927 154.298 100.834 152.926C103.635 151.099 106.564 149.225 109.406 148.321C111.742 147.608 114.175 147.267 116.617 147.308C119.617 147.308 122.774 147.71 125.819 148.1C128.088 148.392 130.439 148.692 132.745 148.831C133.642 148.883 134.47 148.91 135.276 148.91C136.355 148.913 137.433 148.856 138.505 148.741L138.764 148.651C140.38 147.657 141.138 145.523 141.873 143.461C142.345 142.133 142.742 140.941 143.372 140.184C143.41 140.147 143.45 140.113 143.492 140.082C143.522 140.066 143.556 140.06 143.59 140.065C143.623 140.071 143.653 140.087 143.676 140.112C143.676 140.112 143.676 140.131 143.676 140.172C143.301 148.238 140.054 153.361 136.769 157.913L134.575 160.264C134.575 160.264 137.646 160.264 139.394 159.589C145.769 157.684 150.58 153.484 154.082 146.787C154.946 145.068 155.718 143.304 156.396 141.504C156.456 141.354 157.007 141.076 156.955 141.852C156.936 142.081 156.921 142.336 156.902 142.602C156.902 142.76 156.902 142.921 156.872 143.082C156.782 144.207 156.516 146.585 156.516 146.585L158.484 145.531C163.232 142.531 166.892 136.479 169.667 127.063C170.822 123.14 171.669 119.244 172.415 115.813C173.308 111.688 174.076 108.152 174.958 106.78C176.341 104.627 178.453 103.172 180.496 101.759C180.774 101.567 181.055 101.384 181.329 101.181C183.897 99.3774 186.451 97.2962 187.014 93.4151V93.3288C187.422 90.4339 187.077 89.6952 186.684 89.3577Z" fill="white"/>
<defs>
<filter id="filter0_f_1019_27016" x="-20" y="25" width="298" height="184" filterUnits="userSpaceOnUse" color-interpolation-filters="sRGB">
<feFlood flood-opacity="0" result="BackgroundImageFix"/>
<feBlend mode="normal" in="SourceGraphic" in2="BackgroundImageFix" result="shape"/>
<feGaussianBlur stdDeviation="18.5" result="effect1_foregroundBlur_1019_27016"/>
</filter>
<filter id="filter1_ii_1019_27016" x="17" y="62" width="224" height="148" filterUnits="userSpaceOnUse" color-interpolation-filters="sRGB">
<feFlood flood-opacity="0" result="BackgroundImageFix"/>
<feBlend mode="normal" in="SourceGraphic" in2="BackgroundImageFix" result="shape"/>
<feColorMatrix in="SourceAlpha" type="matrix" values="0 0 0 0 0 0 0 0 0 0 0 0 0 0 0 0 0 0 127 0" result="hardAlpha"/>
<feOffset dy="4"/>
<feComposite in2="hardAlpha" operator="arithmetic" k2="-1" k3="1"/>
<feColorMatrix type="matrix" values="0 0 0 0 1 0 0 0 0 1 0 0 0 0 1 0 0 0 0.25 0"/>
<feBlend mode="normal" in2="shape" result="effect1_innerShadow_1019_27016"/>
<feColorMatrix in="SourceAlpha" type="matrix" values="0 0 0 0 0 0 0 0 0 0 0 0 0 0 0 0 0 0 127 0" result="hardAlpha"/>
<feOffset dy="-4"/>
<feComposite in2="hardAlpha" operator="arithmetic" k2="-1" k3="1"/>
<feColorMatrix type="matrix" values="0 0 0 0 0 0 0 0 0 0 0 0 0 0 0 0 0 0 0.9 0"/>
<feBlend mode="soft-light" in2="effect1_innerShadow_1019_27016" result="effect2_innerShadow_1019_27016"/>
</filter>
<linearGradient id="paint0_linear_1019_27016" x1="17" y1="34" x2="197.768" y2="215.142" gradientUnits="userSpaceOnUse">
<stop stop-color="#05815D"/>
<stop offset="1" stop-color="#0C575F"/>
</linearGradient>
<linearGradient id="paint1_linear_1019_27016" x1="17" y1="62" x2="241" y2="210" gradientUnits="userSpaceOnUse">
<stop stop-color="#017272"/>
<stop offset="1" stop-color="#002445"/>
</linearGradient>
</defs>
</svg>
