<svg width="256" height="256" viewBox="0 0 256 256" fill="none" xmlns="http://www.w3.org/2000/svg">
<path fill-rule="evenodd" clip-rule="evenodd" d="M104.425 42.3784C100.056 37.0733 93.5437 34 86.6712 34H29C22.3726 34 17 39.3726 17 46V58.1371V68.2V160C17 166.627 22.3726 172 29 172H229C235.627 172 241 166.627 241 160V70.1371C241 63.5097 235.627 58.1371 229 58.1371H117.404L104.425 42.3784Z" fill="#512BD4"/>
<mask id="mask0_588_13895" style="mask-type:alpha" maskUnits="userSpaceOnUse" x="17" y="34" width="224" height="138">
<path fill-rule="evenodd" clip-rule="evenodd" d="M104.425 42.3784C100.056 37.0733 93.5437 34 86.6712 34H29C22.3726 34 17 39.3726 17 46V58.1371V68.2V160C17 166.627 22.3726 172 29 172H229C235.627 172 241 166.627 241 160V70.1371C241 63.5097 235.627 58.1371 229 58.1371H117.404L104.425 42.3784Z" fill="url(#paint0_linear_588_13895)"/>
</mask>
<g mask="url(#mask0_588_13895)">
<g style="mix-blend-mode:multiply" filter="url(#filter0_f_588_13895)">
<path fill-rule="evenodd" clip-rule="evenodd" d="M92.789 74C97.7642 74 102.605 72.3868 106.586 69.4024L116.459 62H229C235.627 62 241 67.3726 241 74V108V160C241 166.627 235.627 172 229 172H29C22.3726 172 17 166.627 17 160L17 108V86C17 79.3726 22.3726 74 29 74H87H92.789Z" fill="black" fill-opacity="0.3"/>
</g>
</g>
<g filter="url(#filter1_ii_588_13895)">
<path fill-rule="evenodd" clip-rule="evenodd" d="M92.789 74C97.7642 74 102.605 72.3868 106.586 69.4024L116.459 62H229C235.627 62 241 67.3726 241 74V108V198C241 204.627 235.627 210 229 210H29C22.3726 210 17 204.627 17 198L17 108V86C17 79.3726 22.3726 74 29 74H87H92.789Z" fill="url(#paint1_linear_588_13895)"/>
</g>
<path d="M144.794 133.318L144.704 127.918C151.506 127.803 156.551 125.785 159.694 121.917C165.391 114.908 163.391 104.016 163.368 103.906L168.672 102.891C168.775 103.437 171.149 116.384 163.884 125.321C159.687 130.485 153.263 133.176 144.794 133.318Z" fill="#8A6FE8"/>
<path d="M154.784 104.264L161.064 109.495C162.182 110.427 163.845 110.276 164.779 109.157C165.711 108.039 165.56 106.376 164.441 105.443L158.162 100.211C157.044 99.2799 155.381 99.4306 154.447 100.549C153.515 101.669 153.666 103.332 154.784 104.264Z" fill="#8A6FE8"/>
<path d="M170.598 106.093L172.857 101.082C173.448 99.7429 172.843 98.1769 171.504 97.5829C170.166 96.9912 168.6 97.5964 168.006 98.9352L165.69 104.074L170.598 106.093Z" fill="#8A6FE8"/>
<path d="M169.376 103.383L169.349 95.803C169.338 94.3382 168.143 93.1592 166.678 93.1705C165.213 93.1817 164.034 94.3765 164.045 95.8413L164.048 101.478L169.376 103.383Z" fill="#8A6FE8"/>
<path d="M166.241 104.203L164.493 96.8204C164.158 95.3939 162.732 94.5097 161.305 94.8449C159.878 95.1802 158.994 96.6067 159.329 98.0332L161.109 105.55L166.241 104.203Z" fill="#8A6FE8"/>
<path d="M165.258 111.18C168.324 111.18 170.809 108.695 170.809 105.629C170.809 102.563 168.324 100.078 165.258 100.078C162.193 100.078 159.708 102.563 159.708 105.629C159.708 108.695 162.193 111.18 165.258 111.18Z" fill="url(#paint2_radial_588_13895)"/>
<path d="M137.192 166.83C137.243 162.152 136.577 152.657 131.749 144.705L127.028 147.572C131.409 154.783 131.737 163.2 131.636 166.872C131.627 167.176 134.458 167.451 137.192 166.83Z" fill="url(#paint3_linear_588_13895)"/>
<path d="M131.636 166.82L136.008 166.8L140.089 190.182L131.315 190.223C130.646 190.225 130.14 189.688 130.185 189.019L131.636 166.82Z" fill="#522CD5"/>
<path d="M149.447 184.033C150.206 184.632 150.192 185.498 150.134 186.411L149.951 189.213C149.918 189.714 149.481 190.126 148.979 190.128L139.833 190.171C139.264 190.173 138.834 189.714 138.872 189.147L138.933 186.245C139.003 185.189 138.647 184.802 137.831 183.808C136.431 182.109 132.293 172.85 132.687 166.818L137.189 166.798C137.491 170.378 142.216 178.329 149.447 184.033Z" fill="url(#paint4_linear_588_13895)"/>
<path d="M150.131 186.411C150.174 185.773 150.185 185.16 149.936 184.643L138.53 184.695C138.845 185.158 138.978 185.563 138.935 186.241L138.875 189.143C138.836 189.712 139.268 190.171 139.835 190.167L148.979 190.126C149.481 190.124 149.918 189.712 149.951 189.211L150.131 186.411Z" fill="url(#paint5_radial_588_13895)"/>
<path d="M113.076 166.933C112.981 162.256 113.562 152.754 118.318 144.759L123.066 147.583C118.75 154.835 118.498 163.255 118.633 166.924C118.644 167.23 115.814 167.532 113.076 166.933Z" fill="url(#paint6_linear_588_13895)"/>
<path d="M108.292 185.786C108.285 185.163 108.378 184.614 108.641 183.7C112.725 172.538 113.069 166.911 113.069 166.911L118.635 166.886C118.635 166.886 119.018 172.407 123.201 183.531C123.532 184.324 123.57 185.048 123.613 185.719L123.637 189.289C123.64 189.827 123.201 190.27 122.663 190.273L122.393 190.275L109.55 190.333L109.28 190.336C108.74 190.338 108.299 189.901 108.297 189.361L108.292 185.786Z" fill="url(#paint7_linear_588_13895)"/>
<path d="M108.292 185.786C108.292 185.685 108.294 185.586 108.299 185.489C108.328 185.178 108.47 184.83 109.149 184.825L122.884 184.762C123.379 184.78 123.543 185.16 123.595 185.399C123.601 185.505 123.61 185.613 123.617 185.716L123.642 189.287C123.644 189.624 123.473 189.922 123.212 190.099C123.057 190.205 122.868 190.268 122.668 190.27L122.398 190.273L109.554 190.331L109.287 190.333C109.017 190.335 108.771 190.225 108.594 190.05C108.416 189.874 108.306 189.629 108.303 189.359L108.292 185.786Z" fill="url(#paint8_radial_588_13895)"/>
<path d="M151.216 133.061C153.146 125.506 151.853 119.487 151.853 119.487L153.628 119.478L153.671 119.444C151.065 105.607 138.886 95.1687 124.301 95.2362C107.871 95.3104 94.6121 108.691 94.6863 125.121C94.7606 141.551 108.141 154.81 124.571 154.736C137.536 154.677 148.525 146.332 152.546 134.742C152.665 134.249 152.649 133.367 151.216 133.061Z" fill="url(#paint9_radial_588_13895)"/>
<path d="M150.219 139.933L98.8488 140.167C100.01 142.118 101.387 143.923 102.946 145.552L146.169 145.356C147.717 143.711 149.076 141.895 150.219 139.933Z" fill="#D8CFF7"/>
<path d="M134.415 147.03L144.057 146.986L144.018 138.458L134.377 138.502L134.415 147.03Z" fill="#512BD4"/>
<path d="M136.084 143.841C136.019 143.841 135.965 143.821 135.92 143.779C135.875 143.736 135.853 143.682 135.853 143.623C135.853 143.562 135.875 143.508 135.92 143.466C135.965 143.421 136.019 143.4 136.084 143.4C136.15 143.4 136.204 143.423 136.249 143.466C136.294 143.508 136.318 143.562 136.318 143.623C136.318 143.684 136.296 143.736 136.251 143.779C136.204 143.819 136.15 143.841 136.084 143.841Z" fill="white"/>
<path d="M138.647 143.801H138.231L137.128 142.071C137.102 142.028 137.077 141.981 137.059 141.933H137.05C137.059 141.983 137.063 142.091 137.063 142.257L137.066 143.803H136.696L136.692 141.445H137.135L138.2 143.135C138.245 143.205 138.274 143.254 138.287 143.279H138.294C138.283 143.216 138.278 143.11 138.278 142.962L138.276 141.443H138.643L138.647 143.801Z" fill="white"/>
<path d="M140.443 143.796L139.151 143.798L139.147 141.44L140.386 141.438V141.771L139.529 141.773L139.532 142.442L140.321 142.439V142.77L139.532 142.772L139.534 143.47L140.443 143.468V143.796Z" fill="white"/>
<path d="M142.274 141.767L141.613 141.769L141.617 143.794H141.235L141.23 141.769L140.571 141.771V141.438L142.272 141.434L142.274 141.767Z" fill="white"/>
<path d="M151.279 133.059C153.187 125.596 151.947 119.635 151.916 119.491L121.05 119.631C121.05 119.631 119.104 119.442 119.113 121.219C119.122 122.995 119.216 128.014 119.241 133.565C119.245 134.706 120.184 135.253 120.919 135.248C120.922 135.248 150.509 134.294 151.279 133.059Z" fill="url(#paint10_radial_588_13895)"/>
<path d="M132.865 133.156C132.865 133.156 137.594 129.378 138.517 128.678C139.439 127.979 140.249 127.938 141.102 128.667C141.955 129.396 146.725 133.093 146.725 133.093L132.865 133.156Z" fill="#A08BE8"/>
<path d="M152.429 135.12C152.429 135.12 153.311 133.496 151.279 133.061C151.281 133.052 120.933 133.176 120.933 133.176C120.226 133.178 119.315 132.762 119.234 132.078C119.236 132.569 119.241 133.066 119.243 133.568C119.247 134.603 120.019 135.147 120.712 135.237C120.782 135.244 120.852 135.253 120.922 135.253L122.996 135.244L152.429 135.12Z" fill="#512BD4"/>
<path d="M128.39 130.3C129.675 130.275 130.682 128.503 130.64 126.343C130.598 124.182 129.522 122.451 128.237 122.476C126.953 122.501 125.946 124.273 125.988 126.434C126.03 128.594 127.105 130.325 128.39 130.3Z" fill="#512BD4"/>
<path d="M149.381 126.317C149.403 124.156 148.38 122.394 147.095 122.38C145.81 122.367 144.751 124.108 144.728 126.269C144.706 128.429 145.729 130.192 147.014 130.205C148.298 130.219 149.358 128.478 149.381 126.317Z" fill="#512BD4"/>
<path d="M128.286 124.43C128.758 123.953 129.398 123.742 130.021 123.793C130.39 124.473 130.621 125.364 130.642 126.343C130.653 126.955 130.579 127.531 130.441 128.05C129.708 128.262 128.885 128.082 128.302 127.506C127.447 126.662 127.44 125.283 128.286 124.43Z" fill="#8065E0"/>
<path d="M147.015 124.219C147.49 123.742 148.129 123.528 148.752 123.582C149.153 124.291 149.393 125.254 149.382 126.311C149.375 126.851 149.306 127.367 149.182 127.835C148.444 128.053 147.614 127.875 147.029 127.294C146.176 126.449 146.169 125.072 147.015 124.219Z" fill="#8065E0"/>
<path d="M87.4458 156.327C87.295 155.843 83.7962 144.37 89.482 135.701C92.7671 130.692 98.3089 127.74 105.952 126.923L106.537 132.416C100.629 133.046 96.4503 135.163 94.1148 138.707C89.8555 145.169 92.6883 154.585 92.7176 154.68L87.4458 156.327Z" fill="url(#paint11_linear_588_13895)"/>
<path d="M105.003 134.418C108.02 134.418 110.466 131.972 110.466 128.955C110.466 125.938 108.02 123.492 105.003 123.492C101.985 123.492 99.5396 125.938 99.5396 128.955C99.5396 131.972 101.985 134.418 105.003 134.418Z" fill="url(#paint12_radial_588_13895)"/>
<path d="M100.138 151.579L92.0358 150.501C90.5913 150.31 89.266 151.323 89.0725 152.767C88.8812 154.211 89.8937 155.537 91.3383 155.73L99.4406 156.808C100.885 156.999 102.21 155.987 102.404 154.542C102.595 153.098 101.58 151.77 100.138 151.579Z" fill="#8A6FE8"/>
<path d="M85.7852 158.464L86.5457 163.907C86.7595 165.356 88.105 166.357 89.554 166.146C91.003 165.932 92.0043 164.587 91.7928 163.137L91.012 157.555L85.7852 158.464Z" fill="#8A6FE8"/>
<path d="M88.2625 160.104L92.326 166.503C93.1158 167.736 94.7561 168.096 95.9891 167.306C97.2221 166.516 97.5821 164.876 96.7923 163.643L93.7863 158.875L88.2625 160.104Z" fill="#8A6FE8"/>
<path d="M90.4766 157.739L95.8901 163.054C96.9341 164.082 98.6127 164.068 99.6409 163.024C100.669 161.981 100.656 160.302 99.6139 159.274L94.1014 153.862L90.4766 157.739Z" fill="#8A6FE8"/>
<path d="M90.5508 161.56C93.6164 161.56 96.1016 159.075 96.1016 156.009C96.1016 152.944 93.6164 150.458 90.5508 150.458C87.4852 150.458 85 152.944 85 156.009C85 159.075 87.4852 161.56 90.5508 161.56Z" fill="url(#paint13_radial_588_13895)"/>
<path d="M123.835 94.6495L118.177 95.2714L118.333 89.3751L122.396 88.9287L123.835 94.6495Z" fill="#8A6FE8"/>
<path d="M120.742 90.0283C122.936 89.5814 124.352 87.4403 123.905 85.2461C123.458 83.0519 121.318 81.6354 119.123 82.0824C116.929 82.5293 115.513 84.6704 115.96 86.8646C116.407 89.0588 118.547 90.4752 120.742 90.0283Z" fill="#D8CFF7"/>
<path d="M126.39 97.9613C126.646 97.9322 126.824 97.6893 126.768 97.4389C126.172 94.7863 123.665 92.948 120.9 93.2539C118.136 93.5576 116.089 95.8987 116.085 98.6161C116.084 98.8733 116.313 99.0702 116.569 99.0433L126.39 97.9613Z" fill="url(#paint14_radial_588_13895)"/>
<defs>
<filter id="filter0_f_588_13895" x="-20" y="25" width="298" height="184" filterUnits="userSpaceOnUse" color-interpolation-filters="sRGB">
<feFlood flood-opacity="0" result="BackgroundImageFix"/>
<feBlend mode="normal" in="SourceGraphic" in2="BackgroundImageFix" result="shape"/>
<feGaussianBlur stdDeviation="18.5" result="effect1_foregroundBlur_588_13895"/>
</filter>
<filter id="filter1_ii_588_13895" x="17" y="62" width="224" height="148" filterUnits="userSpaceOnUse" color-interpolation-filters="sRGB">
<feFlood flood-opacity="0" result="BackgroundImageFix"/>
<feBlend mode="normal" in="SourceGraphic" in2="BackgroundImageFix" result="shape"/>
<feColorMatrix in="SourceAlpha" type="matrix" values="0 0 0 0 0 0 0 0 0 0 0 0 0 0 0 0 0 0 127 0" result="hardAlpha"/>
<feOffset dy="4"/>
<feComposite in2="hardAlpha" operator="arithmetic" k2="-1" k3="1"/>
<feColorMatrix type="matrix" values="0 0 0 0 1 0 0 0 0 1 0 0 0 0 1 0 0 0 0.25 0"/>
<feBlend mode="normal" in2="shape" result="effect1_innerShadow_588_13895"/>
<feColorMatrix in="SourceAlpha" type="matrix" values="0 0 0 0 0 0 0 0 0 0 0 0 0 0 0 0 0 0 127 0" result="hardAlpha"/>
<feOffset dy="-4"/>
<feComposite in2="hardAlpha" operator="arithmetic" k2="-1" k3="1"/>
<feColorMatrix type="matrix" values="0 0 0 0 0 0 0 0 0 0 0 0 0 0 0 0 0 0 0.9 0"/>
<feBlend mode="soft-light" in2="effect1_innerShadow_588_13895" result="effect2_innerShadow_588_13895"/>
</filter>
<linearGradient id="paint0_linear_588_13895" x1="17" y1="34" x2="197.768" y2="215.142" gradientUnits="userSpaceOnUse">
<stop stop-color="#05815D"/>
<stop offset="1" stop-color="#0C575F"/>
</linearGradient>
<linearGradient id="paint1_linear_588_13895" x1="8.5" y1="70" x2="247" y2="210" gradientUnits="userSpaceOnUse">
<stop stop-color="white"/>
<stop offset="1" stop-color="#DED7F7"/>
</linearGradient>
<radialGradient id="paint2_radial_588_13895" cx="0" cy="0" r="1" gradientUnits="userSpaceOnUse" gradientTransform="translate(165.306 103.022) scale(5.55112)">
<stop stop-color="#8065E0"/>
<stop offset="1" stop-color="#512BD4"/>
</radialGradient>
<linearGradient id="paint3_linear_588_13895" x1="130.08" y1="145.072" x2="134.76" y2="167.361" gradientUnits="userSpaceOnUse">
<stop stop-color="#522CD5"/>
<stop offset="0.4397" stop-color="#8A6FE8"/>
</linearGradient>
<linearGradient id="paint4_linear_588_13895" x1="133.703" y1="166.233" x2="147.606" y2="191.02" gradientUnits="userSpaceOnUse">
<stop stop-color="#522CD5"/>
<stop offset="0.4397" stop-color="#8A6FE8"/>
</linearGradient>
<radialGradient id="paint5_radial_588_13895" cx="0" cy="0" r="1" gradientUnits="userSpaceOnUse" gradientTransform="translate(144.064 179.985) rotate(-0.260742) scale(9.63509)">
<stop offset="0.034" stop-color="#522CD5"/>
<stop offset="0.9955" stop-color="#8A6FE8"/>
</radialGradient>
<linearGradient id="paint6_linear_588_13895" x1="119.91" y1="145.074" x2="115.432" y2="167.404" gradientUnits="userSpaceOnUse">
<stop stop-color="#522CD5"/>
<stop offset="0.4397" stop-color="#8A6FE8"/>
</linearGradient>
<linearGradient id="paint7_linear_588_13895" x1="115.848" y1="166.898" x2="115.955" y2="190.301" gradientUnits="userSpaceOnUse">
<stop stop-color="#522CD5"/>
<stop offset="0.4397" stop-color="#8A6FE8"/>
</linearGradient>
<radialGradient id="paint8_radial_588_13895" cx="0" cy="0" r="1" gradientUnits="userSpaceOnUse" gradientTransform="translate(116.245 180.083) rotate(179.739) scale(10.5632)">
<stop offset="0.034" stop-color="#522CD5"/>
<stop offset="0.9955" stop-color="#8A6FE8"/>
</radialGradient>
<radialGradient id="paint9_radial_588_13895" cx="0" cy="0" r="1" gradientUnits="userSpaceOnUse" gradientTransform="translate(131.085 113.633) rotate(179.739) scale(29.6278)">
<stop offset="0.4744" stop-color="#A08BE8"/>
<stop offset="0.8618" stop-color="#8065E0"/>
</radialGradient>
<radialGradient id="paint10_radial_588_13895" cx="0" cy="0" r="1" gradientUnits="userSpaceOnUse" gradientTransform="translate(151.191 114.643) rotate(179.739) scale(30.7038)">
<stop offset="0.0933" stop-color="#E1DFDD"/>
<stop offset="0.6573" stop-color="white"/>
</radialGradient>
<linearGradient id="paint11_linear_588_13895" x1="96.3908" y1="126.925" x2="96.3908" y2="156.328" gradientUnits="userSpaceOnUse">
<stop offset="0.3344" stop-color="#9780E6"/>
<stop offset="0.8488" stop-color="#8A6FE8"/>
</linearGradient>
<radialGradient id="paint12_radial_588_13895" cx="0" cy="0" r="1" gradientUnits="userSpaceOnUse" gradientTransform="translate(103.993 127.117) rotate(-0.260742) scale(5.46421)">
<stop stop-color="#8065E0"/>
<stop offset="1" stop-color="#512BD4"/>
</radialGradient>
<radialGradient id="paint13_radial_588_13895" cx="0" cy="0" r="1" gradientUnits="userSpaceOnUse" gradientTransform="translate(90.4248 153.809) scale(5.55213)">
<stop stop-color="#8065E0"/>
<stop offset="1" stop-color="#512BD4"/>
</radialGradient>
<radialGradient id="paint14_radial_588_13895" cx="0" cy="0" r="1" gradientUnits="userSpaceOnUse" gradientTransform="translate(120.551 95.4347) rotate(-32.2025) scale(4.43094)">
<stop stop-color="#8065E0"/>
<stop offset="1" stop-color="#512BD4"/>
</radialGradient>
</defs>
</svg>
