<svg width="256" height="256" viewBox="0 0 256 256" fill="none" xmlns="http://www.w3.org/2000/svg">
<g clip-path="url(#clip0_2043_38877)">
<path fill-rule="evenodd" clip-rule="evenodd" d="M104.425 42.3784C100.056 37.0733 93.5437 34 86.6712 34H29C22.3726 34 17 39.3726 17 46V58.1371V68.2V160C17 166.627 22.3726 172 29 172H229C235.627 172 241 166.627 241 160V70.1371C241 63.5097 235.627 58.1371 229 58.1371H117.404L104.425 42.3784Z" fill="#E6E6E6"/>
<mask id="mask0_2043_38877" style="mask-type:alpha" maskUnits="userSpaceOnUse" x="17" y="34" width="224" height="138">
<path fill-rule="evenodd" clip-rule="evenodd" d="M104.425 42.3784C100.056 37.0733 93.5437 34 86.6712 34H29C22.3726 34 17 39.3726 17 46V58.1371V68.2V160C17 166.627 22.3726 172 29 172H229C235.627 172 241 166.627 241 160V70.1371C241 63.5097 235.627 58.1371 229 58.1371H117.404L104.425 42.3784Z" fill="url(#paint0_linear_2043_38877)"/>
</mask>
<g mask="url(#mask0_2043_38877)">
<g style="mix-blend-mode:multiply" filter="url(#filter0_f_2043_38877)">
<path fill-rule="evenodd" clip-rule="evenodd" d="M92.789 74C97.7642 74 102.605 72.3868 106.586 69.4024L116.459 62H229C235.627 62 241 67.3726 241 74V108V160C241 166.627 235.627 172 229 172H29C22.3726 172 17 166.627 17 160L17 108V86C17 79.3726 22.3726 74 29 74H87H92.789Z" fill="black" fill-opacity="0.3"/>
</g>
</g>
<g filter="url(#filter1_ii_2043_38877)">
<path fill-rule="evenodd" clip-rule="evenodd" d="M92.789 74C97.7642 74 102.605 72.3868 106.586 69.4024L116.459 62H229C235.627 62 241 67.3726 241 74V108V198C241 204.627 235.627 210 229 210H29C22.3726 210 17 204.627 17 198L17 108V86C17 79.3726 22.3726 74 29 74H87H92.789Z" fill="url(#paint1_linear_2043_38877)"/>
</g>
<path d="M89.6799 94.0176C89.505 94.4304 89.3393 94.9645 89.1854 95.6084L89.0721 96.1118C89.0351 96.2863 88.9989 96.4675 88.9634 96.6553L88.8596 97.2378L88.7608 97.8584L88.6672 98.516L88.5791 99.2093L88.4967 99.9376L88.4202 100.7C88.4079 100.829 88.3959 100.961 88.3842 101.093L88.317 101.904L88.2562 102.745L88.2022 103.617C88.1937 103.765 88.1856 103.914 88.1777 104.064L93.578 106.678C93.4963 103.525 93.5978 100.544 93.8818 97.8047L93.9375 97.3165L93.899 97.7637L93.851 98.5032L93.8334 98.856L93.8038 99.661L93.7927 100.114L93.7807 101.121L93.7824 101.967L93.7951 102.891L93.8106 103.551L93.8454 104.608L93.8772 105.357L93.9164 106.143C93.9236 106.277 93.9311 106.412 93.939 106.549C94.9448 105.729 96.1496 104.652 97.4024 103.475L98.243 102.678C98.3838 102.543 98.5247 102.407 98.6656 102.271L99.509 101.448L100.342 100.621L101.154 99.7999L101.936 98.9957C101.072 97.2304 100.14 95.9335 99.2737 94.9862L98.9873 94.6832C98.7983 94.4896 98.6132 94.3126 98.4335 94.151L98.1682 93.9198L97.9121 93.7107C97.8284 93.6445 97.7464 93.5818 97.6663 93.5225L97.4318 93.3544L97.2099 93.2053L96.9027 93.0154L96.6297 92.8627L96.3254 92.7118L96.0971 92.6136L95.6806 92.4631L95.3773 92.3658L95.0811 92.2821L94.8556 92.2254L94.6105 92.1705C94.5682 92.1616 94.5252 92.1529 94.4814 92.1444L94.2117 92.0965L93.9286 92.0558C92.4357 91.8687 90.5069 92.0649 89.6799 94.0176Z" fill="url(#paint2_linear_2043_38877)"/>
<path d="M94.9885 122.616C94.7392 120.819 94.5116 119.051 94.3058 117.313C94.1387 115.87 94.0019 114.449 93.8899 113.041L93.7939 111.779C93.7922 111.745 93.7913 111.713 93.7916 111.683C93.6735 109.971 93.5881 108.304 93.5499 106.671L88.1605 104.072L88.1458 104.403L88.1096 105.088C88.0559 106.379 88.016 107.751 88.0047 109.193C87.9916 110.819 88.0071 112.514 88.0364 114.291C88.0745 115.924 88.1413 117.628 88.2297 119.361C88.2953 120.473 88.3669 121.594 88.4492 122.729L88.5482 124.043L95.7579 127.695L95.5036 125.994L94.9885 122.616Z" fill="url(#paint3_linear_2043_38877)"/>
<path d="M105.418 164.486L105.53 164.871L106.246 167.304C106.349 167.649 106.453 167.997 106.559 168.346L106.9 169.451L107.017 169.85C107.038 169.915 107.06 169.979 107.085 170.044L108.247 173.766C109.275 173.554 110.529 173.937 111.853 174.515L112.387 174.756C111.412 173.583 110.062 172.798 108.449 172.616C112.865 169.671 115.77 165.878 115.362 161.352C115.318 160.952 115.264 160.536 115.184 160.118C115.118 161.786 114.452 163.01 112.522 164.319L112.284 164.476C114.28 160.963 114.829 158.58 114.593 155.499C114.535 154.768 114.444 153.993 114.309 153.158C113.671 157.746 111.207 160.715 107.604 162.472L105.418 164.486Z" fill="url(#paint4_linear_2043_38877)"/>
<path d="M102.835 159.1L102.376 157.381L101.454 153.9C101.016 152.219 100.593 150.527 100.175 148.808C99.7556 147.09 99.3515 145.361 98.9474 143.633C98.5364 141.863 98.151 140.098 97.7805 138.322L97.4146 136.566L96.7121 133.052C96.5866 132.416 96.472 131.795 96.3612 131.147C96.1596 130.066 95.9727 128.975 95.7858 127.883L95.7473 127.706L88.5781 124.047L88.6016 124.274C88.6043 124.313 88.6055 124.353 88.6039 124.392C88.7485 126.016 88.8892 127.665 89.0813 129.322C89.2693 131.004 89.4831 132.691 89.7333 134.396C89.9459 135.833 90.1733 137.259 90.4116 138.7L90.5678 139.564C90.898 141.347 91.2508 143.069 91.6341 144.676C92.0629 146.501 92.5222 148.212 92.9865 149.806C93.2986 150.851 93.6037 151.856 93.9168 152.809L94.1946 153.613L94.769 155.211C95.4542 157.075 96.2135 158.885 97.0319 160.651L104.278 164.322C103.892 162.99 103.535 161.636 103.142 160.262L102.941 159.493L102.835 159.1Z" fill="url(#paint5_linear_2043_38877)"/>
<path d="M97.1375 160.891C98.0108 162.76 98.9634 164.569 100.015 166.307L100.598 167.25C99.9116 166.973 99.0432 166.836 98.1994 166.774L97.7806 166.75C97.7114 166.747 97.6427 166.744 97.5745 166.742L97.1725 166.733L96.606 166.735L96.1002 166.75L95.6747 166.772L95.0789 166.821C95.0739 166.821 95.0724 166.822 95.0724 166.822C98.7363 168.093 101.949 169.649 103.976 172.007C103.171 172.894 101.663 173.569 99.7674 174.118C101.179 174.271 102.254 174.209 103.029 174.082L103.343 174.024C103.392 174.014 103.44 174.004 103.486 173.994L103.747 173.929L103.971 173.863L104.244 173.768L104.384 173.711C103.22 174.681 102.492 176.335 101.886 178.189L101.677 178.85C101.643 178.962 101.609 179.073 101.575 179.186C103.117 176.666 104.646 174.998 106.135 174.36C107.798 179.875 109.722 185.743 111.833 191.868L112.82 194.712C113.153 195.666 113.491 196.626 113.832 197.591C114.323 196.958 114.378 196.257 114.172 195.543L113.497 193.637L112.729 191.408L111.538 187.874L110.561 184.911L109.483 181.568L108.453 178.306L107.508 175.249L106.812 172.959L106.247 171.07C106.171 170.821 106.102 170.569 106.027 170.313L105.814 169.612L105.203 167.5L104.581 165.328L104.302 164.326L104.291 164.312L97.0447 160.641C97.0611 160.704 97.0794 160.757 97.1014 160.81L97.1375 160.891Z" fill="url(#paint6_linear_2043_38877)"/>
<path d="M96.6003 127.853L96.7288 128.555C96.8217 129.033 96.908 129.516 96.9997 130.002L97.7836 134.024L98.0716 135.424L98.491 137.403C98.5625 137.738 98.6347 138.075 98.7073 138.414C98.9238 139.416 99.1519 140.433 99.3909 141.473L99.8831 143.582L100.373 145.639C100.457 145.987 100.542 146.336 100.628 146.688L101.154 148.817L101.68 150.886C101.947 151.932 102.222 152.994 102.512 154.078C102.724 154.878 102.944 155.69 103.169 156.512L103.923 159.256L104.492 161.273L105.08 163.332C105.18 163.679 105.28 164.027 105.381 164.376C105.388 164.416 105.395 164.456 105.417 164.486L107.603 162.472L107.55 162.494L107.433 162.551C110.027 160.101 112.251 155.192 112.759 150.768C112.993 148.73 112.971 146.561 112.691 144.195C112.489 142.432 112.13 140.578 111.637 138.573C111.208 136.841 110.676 135 110.028 133.063C109.627 133.881 109.058 134.686 108.36 135.471L107.981 135.886L107.851 136.021L107.577 136.296C109.49 133.322 109.718 130.128 109.15 126.812C108.802 127.796 108.119 129.253 106.987 130.562C106.842 130.737 106.671 130.907 106.5 131.078C106.471 131.1 106.446 131.128 106.415 131.157L106.363 131.201C106.998 130.144 107.467 129.14 107.768 128.123C107.816 127.981 107.852 127.838 107.885 127.694L107.932 127.478C108.009 127.149 108.06 126.816 108.111 126.482L108.184 125.837C108.213 125.458 108.221 125.068 108.202 124.672L108.152 123.943C108.148 123.889 108.141 123.835 108.132 123.782L108.056 123.315C108.043 123.24 108.029 123.166 108.014 123.094C107.866 122.228 107.703 121.455 107.535 120.77L107.378 120.156L107.236 119.636L107.051 119.022L106.811 118.302C106.785 118.23 106.76 118.16 106.734 118.094L106.589 117.731C106.542 117.619 106.498 117.517 106.455 117.425L106.336 117.18C106.313 117.272 106.284 117.37 106.244 117.468L106.178 117.615C105.726 118.674 104.676 120.128 103.719 121.149C103.704 121.16 103.689 121.17 103.685 121.196L103.488 121.393C103.454 121.429 103.421 121.466 103.389 121.505L103.426 121.432L96.5391 127.738C96.5973 127.787 96.6042 127.827 96.6003 127.853Z" fill="url(#paint7_linear_2043_38877)"/>
<path d="M93.9434 106.551C93.9712 107.054 94.0045 107.579 94.0428 108.124L94.1263 109.241C94.1413 109.432 94.1568 109.625 94.1729 109.82L94.2753 111.019C94.2934 111.223 94.312 111.429 94.331 111.638L94.3472 111.837C94.351 111.868 94.3564 111.9 94.3647 111.932C94.423 112.546 94.4878 113.178 94.5596 113.83L94.7123 115.16C94.7664 115.613 94.8236 116.075 94.8841 116.547L95.1707 118.711C95.3047 119.693 95.4497 120.711 95.612 121.772L95.737 122.577C95.8606 123.396 95.9978 124.234 96.143 125.095L96.5972 127.749L103.484 121.442C104.92 118.841 105.234 117.222 105.215 115.211C105.208 114.806 105.189 114.385 105.162 113.953L105.133 113.518C105.023 111.756 104.811 109.886 104.511 108.081C104.228 106.331 103.882 104.651 103.486 103.212C103.235 102.281 102.968 101.452 102.697 100.741C102.45 100.126 102.195 99.5619 101.937 99.0234L101.156 99.8206C101.023 99.9553 100.889 100.091 100.753 100.227L99.9301 101.047L99.0913 101.87L98.2468 102.684C98.1061 102.818 97.9656 102.952 97.8254 103.085L96.9909 103.868C95.8887 104.891 94.8375 105.822 93.9434 106.551Z" fill="url(#paint8_linear_2043_38877)"/>
<path d="M160.242 95.3686C160.022 95.4596 159.781 95.5738 159.522 95.7106L159.12 95.9324C158.843 96.0915 158.548 96.2726 158.236 96.4751L157.756 96.7947L157.252 97.1459L156.723 97.5279L156.172 97.9402C156.079 98.0114 155.984 98.0839 155.889 98.1575L155.306 98.6143L154.702 99.1L154.078 99.614L153.436 100.156L152.775 100.725L152.098 101.32L151.403 101.942C151.287 102.048 151.169 102.155 151.051 102.263L153.322 108.657C155.778 106.036 158.245 103.703 160.667 101.714L161.518 101.023L161.58 100.976L160.994 101.453L160.42 101.949L159.797 102.513L159.206 103.066L158.71 103.544L158.353 103.893L157.582 104.667L156.95 105.315L156.041 106.274L155.557 106.794L155.054 107.343L154.264 108.22L153.714 108.841C154.279 108.894 154.898 108.941 155.557 108.98L156.575 109.035L157.642 109.079L158.748 109.113L159.882 109.138L161.034 109.153C161.227 109.155 161.42 109.156 161.613 109.157L162.772 109.159C162.965 109.159 163.158 109.158 163.349 109.157L164.491 109.146C164.679 109.143 164.867 109.14 165.053 109.137L166.153 109.114C167.057 106.421 167.264 104.256 167.194 102.639L167.17 102.229L167.134 101.845C167.128 101.783 167.121 101.722 167.113 101.662L167.065 101.315L167.01 100.994C167 100.942 166.99 100.892 166.98 100.842L166.918 100.559L166.853 100.3L166.787 100.068L166.722 99.8603L166.6 99.5226L166.502 99.2881L166.267 98.8044L166.131 98.5462L166.016 98.3433L165.884 98.1205L165.733 97.8817L165.565 97.6308L165.38 97.3719C164.343 95.9766 162.574 94.4064 160.242 95.3686Z" fill="url(#paint9_linear_2043_38877)"/>
<path d="M141.795 122.614C143.022 120.97 144.243 119.366 145.458 117.804C146.723 116.185 148 114.632 149.291 113.123C149.368 113.029 149.445 112.935 149.518 112.862C150.783 111.391 152.038 109.981 153.305 108.636L151.031 102.262L150.757 102.516L150.183 103.039C149.114 104.036 147.992 105.109 146.837 106.261C146.186 106.91 145.527 107.578 144.857 108.267L143.502 109.669C143.274 109.907 143.044 110.147 142.812 110.389C141.546 111.734 140.246 113.159 138.94 114.624C138.109 115.572 137.276 116.531 136.441 117.51L135.477 118.646L138.378 127.315L139.526 125.743L141.795 122.614Z" fill="url(#paint10_linear_2043_38877)"/>
<path d="M116.922 164.604L116.491 165.4L115.35 167.53C115.159 167.889 114.966 168.252 114.774 168.617L114.171 169.779C114.055 169.993 113.943 170.186 113.848 170.403L113.214 171.628L111.826 174.322C112.956 175.054 113.71 176.633 114.373 178.408C114.52 176.689 114.057 174.985 112.903 173.557C118.798 174.695 124.151 173.949 127.417 169.982C127.7 169.625 127.986 169.248 128.255 168.846C126.872 170.14 125.359 170.596 122.752 170.109L122.457 170.051C126.855 168.809 129.191 167.327 131.449 164.659C131.983 164.024 132.525 163.328 133.08 162.549C128.921 165.735 124.579 166.168 120.282 164.719L116.922 164.604Z" fill="url(#paint11_linear_2043_38877)"/>
<path d="M118.896 158.616L120.119 156.467L122.142 152.933C123.126 151.231 124.13 149.533 125.158 147.817C126.185 146.101 127.234 144.388 128.282 142.675C129.357 140.925 130.449 139.197 131.562 137.473C132.652 135.766 133.782 134.065 134.889 132.382C135.294 131.77 135.695 131.179 136.12 130.57C136.816 129.539 137.533 128.512 138.25 127.485L138.359 127.312L135.496 118.67L135.334 118.872C135.305 118.905 135.274 118.938 135.242 118.968C134.069 120.39 132.872 121.83 131.71 123.316C130.525 124.82 129.357 126.347 128.203 127.919C127.232 129.245 126.282 130.574 125.329 131.923L124.769 132.743C123.618 134.44 122.534 136.106 121.566 137.705C120.461 139.514 119.472 141.256 118.579 142.909C117.999 143.998 117.447 145.049 116.941 146.066C116.521 146.927 116.119 147.812 115.719 148.676C114.79 150.721 113.963 152.781 113.219 154.853L116.135 163.566L116.703 162.532L117.863 160.451C118.058 160.102 118.252 159.75 118.446 159.396L118.896 158.616Z" fill="url(#paint12_linear_2043_38877)"/>
<path d="M113.118 155.131C112.337 157.329 111.665 159.543 111.132 161.777L110.852 162.999C110.589 162.394 110.167 161.768 109.691 161.178L109.4 160.828C109.351 160.771 109.301 160.714 109.252 160.658L108.951 160.326L108.65 160.009L108.353 159.71L107.929 159.302L107.545 158.947L107.123 158.577L106.743 158.265C108.683 162.199 110.033 166.004 109.791 169.513C108.438 169.587 106.688 168.932 104.726 167.869C105.571 168.904 106.346 169.635 107 170.147L107.294 170.369C107.341 170.403 107.388 170.436 107.433 170.468L107.698 170.647L107.943 170.799L108.167 170.926L108.368 171.032L108.546 171.116L108.699 171.182C108.723 171.192 108.745 171.201 108.766 171.209C107.122 171.071 105.3 171.763 103.417 172.716L102.788 173.043L102.155 173.385C105.398 172.581 107.955 172.453 109.66 173.123C108.822 174.708 107.979 176.332 107.131 177.989L105.855 180.502C103.936 184.307 101.992 188.28 100.028 192.387L98.7159 195.144C98.2777 196.07 97.8385 197.002 97.3984 197.94C98.2969 197.82 98.8976 197.299 99.2995 196.561L100.785 193.411L102.152 190.579L103.9 187.022L105.443 183.93L106.972 180.909L108.425 178.075L110.441 174.199L111.872 171.487L112.364 170.562L112.788 169.779L113.174 169.045L113.762 167.959L114.967 165.745C115.172 165.371 115.377 164.995 115.585 164.617L116.155 163.589L116.158 163.568L113.242 154.855C113.205 154.92 113.178 154.977 113.153 155.037L113.118 155.131Z" fill="url(#paint13_linear_2043_38877)"/>
<path d="M138.936 128.111L138.482 128.778C138.177 129.237 137.862 129.694 137.551 130.158L136.054 132.414L134.986 134.018L134.715 134.433C134.31 135.056 133.902 135.688 133.491 136.33L132.242 138.286C131.412 139.591 130.578 140.935 129.725 142.327L129.082 143.381C128.061 145.056 127.006 146.81 125.946 148.605L124.725 150.688C124.109 151.742 123.486 152.816 122.859 153.92C122.486 154.57 122.112 155.229 121.736 155.898L119.88 159.208L119.311 160.24L118.157 162.341C117.769 163.05 117.378 163.766 116.987 164.489C116.961 164.527 116.934 164.565 116.928 164.606L120.288 164.722C120.229 164.692 120.168 164.683 120.088 164.65C124.123 164.739 129.814 162.554 133.738 159.396C135.545 157.941 137.251 156.178 138.905 154.051C140.144 152.471 141.327 150.694 142.523 148.688C143.555 146.952 144.589 145.048 145.606 142.974C144.634 143.314 143.535 143.509 142.349 143.587L141.715 143.619C141.575 143.627 141.435 143.625 141.289 143.625L141.064 143.629C144.967 142.755 147.688 140.364 149.866 137.244C148.804 137.759 147.097 138.39 145.145 138.544C144.889 138.569 144.616 138.571 144.343 138.573C144.302 138.567 144.26 138.57 144.212 138.569L144.135 138.563C145.486 138.216 146.662 137.781 147.712 137.201C147.863 137.125 148.006 137.039 148.147 136.949L148.356 136.813C148.68 136.608 148.986 136.381 149.292 136.153L149.863 135.691C150.296 135.314 150.714 134.894 151.097 134.425L151.343 134.141C151.381 134.094 151.419 134.046 151.454 133.995L151.763 133.559C151.813 133.489 151.86 133.419 151.906 133.348C152.486 132.516 152.977 131.751 153.392 131.054L153.565 130.76C153.789 130.374 153.987 130.025 154.162 129.694L154.366 129.305L154.675 128.678C154.738 128.548 154.797 128.424 154.848 128.306L154.938 128.096L155.092 127.715C155.137 127.598 155.176 127.49 155.209 127.392L155.254 127.254C155.162 127.31 155.06 127.365 154.951 127.413L154.78 127.478C153.575 127.972 151.575 128.308 149.994 128.37C149.973 128.367 149.952 128.364 149.928 128.381L149.613 128.383C149.558 128.385 149.501 128.388 149.445 128.394L149.532 128.365L138.978 127.97C138.986 128.055 138.96 128.093 138.936 128.111Z" fill="url(#paint14_linear_2043_38877)"/>
<path d="M153.715 108.84C153.338 109.267 152.948 109.715 152.546 110.185L151.725 111.15L150.872 112.17L149.841 113.415C149.819 113.444 149.798 113.474 149.779 113.506C149.191 114.227 148.588 114.983 147.965 115.777L147.017 117C146.856 117.208 146.694 117.42 146.531 117.634L145.168 119.436L144.277 120.629C143.826 121.238 143.367 121.864 142.898 122.511L142.427 123.166C141.954 123.815 141.478 124.484 140.995 125.171L140.017 126.568L139.01 128.013L149.564 128.408C152.788 127.454 154.326 126.401 155.908 124.766C156.225 124.435 156.544 124.081 156.865 123.712L157.188 123.339C158.5 121.833 159.815 120.159 161.007 118.467C162.169 116.834 163.226 115.206 164.051 113.733C164.588 112.784 165.032 111.906 165.378 111.117C165.668 110.426 165.911 109.769 166.131 109.13L165.036 109.15L163.91 109.161L162.764 109.165L161.608 109.161C161.415 109.16 161.222 109.158 161.03 109.156L159.88 109.139L158.747 109.113C158.56 109.108 158.374 109.103 158.19 109.097L157.103 109.057C156.925 109.05 156.749 109.042 156.575 109.034L155.558 108.98C154.899 108.94 154.28 108.894 153.715 108.84Z" fill="url(#paint15_linear_2043_38877)"/>
</g>
<defs>
<filter id="filter0_f_2043_38877" x="-20" y="25" width="298" height="184" filterUnits="userSpaceOnUse" color-interpolation-filters="sRGB">
<feFlood flood-opacity="0" result="BackgroundImageFix"/>
<feBlend mode="normal" in="SourceGraphic" in2="BackgroundImageFix" result="shape"/>
<feGaussianBlur stdDeviation="18.5" result="effect1_foregroundBlur_2043_38877"/>
</filter>
<filter id="filter1_ii_2043_38877" x="17" y="62" width="224" height="148" filterUnits="userSpaceOnUse" color-interpolation-filters="sRGB">
<feFlood flood-opacity="0" result="BackgroundImageFix"/>
<feBlend mode="normal" in="SourceGraphic" in2="BackgroundImageFix" result="shape"/>
<feColorMatrix in="SourceAlpha" type="matrix" values="0 0 0 0 0 0 0 0 0 0 0 0 0 0 0 0 0 0 127 0" result="hardAlpha"/>
<feOffset dy="-4"/>
<feComposite in2="hardAlpha" operator="arithmetic" k2="-1" k3="1"/>
<feColorMatrix type="matrix" values="0 0 0 0 0 0 0 0 0 0 0 0 0 0 0 0 0 0 0.25 0"/>
<feBlend mode="normal" in2="shape" result="effect1_innerShadow_2043_38877"/>
<feColorMatrix in="SourceAlpha" type="matrix" values="0 0 0 0 0 0 0 0 0 0 0 0 0 0 0 0 0 0 127 0" result="hardAlpha"/>
<feOffset dy="4"/>
<feComposite in2="hardAlpha" operator="arithmetic" k2="-1" k3="1"/>
<feColorMatrix type="matrix" values="0 0 0 0 1 0 0 0 0 1 0 0 0 0 1 0 0 0 0.25 0"/>
<feBlend mode="normal" in2="effect1_innerShadow_2043_38877" result="effect2_innerShadow_2043_38877"/>
</filter>
<linearGradient id="paint0_linear_2043_38877" x1="17" y1="34" x2="197.768" y2="215.142" gradientUnits="userSpaceOnUse">
<stop stop-color="#05815D"/>
<stop offset="1" stop-color="#0C575F"/>
</linearGradient>
<linearGradient id="paint1_linear_2043_38877" x1="17" y1="62" x2="241" y2="210" gradientUnits="userSpaceOnUse">
<stop stop-color="#5F585E"/>
<stop offset="1" stop-color="#010101"/>
</linearGradient>
<linearGradient id="paint2_linear_2043_38877" x1="91.0233" y1="101.329" x2="108.527" y2="95.621" gradientUnits="userSpaceOnUse">
<stop stop-color="#F69923"/>
<stop offset="0.3123" stop-color="#F79A23"/>
<stop offset="0.8383" stop-color="#E97826"/>
</linearGradient>
<linearGradient id="paint3_linear_2043_38877" x1="89.6415" y1="197.376" x2="111.118" y2="112.113" gradientUnits="userSpaceOnUse">
<stop offset="0.3233" stop-color="#9E2064"/>
<stop offset="0.6302" stop-color="#C92037"/>
<stop offset="0.7514" stop-color="#CD2335"/>
<stop offset="1" stop-color="#E97826"/>
</linearGradient>
<linearGradient id="paint4_linear_2043_38877" x1="108.903" y1="194.693" x2="123.011" y2="125.982" gradientUnits="userSpaceOnUse">
<stop stop-color="#282662"/>
<stop offset="0.0954839" stop-color="#662E8D"/>
<stop offset="0.7882" stop-color="#9F2064"/>
<stop offset="0.9487" stop-color="#CD2032"/>
</linearGradient>
<linearGradient id="paint5_linear_2043_38877" x1="93.3254" y1="192.715" x2="124.552" y2="116.781" gradientUnits="userSpaceOnUse">
<stop offset="0.3233" stop-color="#9E2064"/>
<stop offset="0.6302" stop-color="#C92037"/>
<stop offset="0.7514" stop-color="#CD2335"/>
<stop offset="1" stop-color="#E97826"/>
</linearGradient>
<linearGradient id="paint6_linear_2043_38877" x1="101.13" y1="189.205" x2="126.275" y2="157.876" gradientUnits="userSpaceOnUse">
<stop stop-color="#282662"/>
<stop offset="0.0954839" stop-color="#662E8D"/>
<stop offset="0.7882" stop-color="#9F2064"/>
<stop offset="0.9487" stop-color="#CD2032"/>
</linearGradient>
<linearGradient id="paint7_linear_2043_38877" x1="103.065" y1="205.964" x2="126.024" y2="97.286" gradientUnits="userSpaceOnUse">
<stop offset="0.3233" stop-color="#9E2064"/>
<stop offset="0.6302" stop-color="#C92037"/>
<stop offset="0.7514" stop-color="#CD2335"/>
<stop offset="1" stop-color="#E97826"/>
</linearGradient>
<linearGradient id="paint8_linear_2043_38877" x1="96.4574" y1="232.827" x2="118.064" y2="107.054" gradientUnits="userSpaceOnUse">
<stop offset="0.3233" stop-color="#9E2064"/>
<stop offset="0.6302" stop-color="#C92037"/>
<stop offset="0.7514" stop-color="#CD2335"/>
<stop offset="1" stop-color="#E97826"/>
</linearGradient>
<linearGradient id="paint9_linear_2043_38877" x1="153.738" y1="103.568" x2="176.456" y2="97.5128" gradientUnits="userSpaceOnUse">
<stop stop-color="#F69923"/>
<stop offset="0.3123" stop-color="#F79A23"/>
<stop offset="0.8383" stop-color="#E97826"/>
</linearGradient>
<linearGradient id="paint10_linear_2043_38877" x1="120.247" y1="201.214" x2="166.471" y2="116.526" gradientUnits="userSpaceOnUse">
<stop offset="0.3233" stop-color="#9E2064"/>
<stop offset="0.6302" stop-color="#C92037"/>
<stop offset="0.7514" stop-color="#CD2335"/>
<stop offset="1" stop-color="#E97826"/>
</linearGradient>
<linearGradient id="paint11_linear_2043_38877" x1="107.444" y1="183.044" x2="128.317" y2="147.985" gradientUnits="userSpaceOnUse">
<stop stop-color="#282662"/>
<stop offset="0.0954839" stop-color="#662E8D"/>
<stop offset="0.7882" stop-color="#9F2064"/>
<stop offset="0.9487" stop-color="#CD2032"/>
</linearGradient>
<linearGradient id="paint12_linear_2043_38877" x1="115.536" y1="195.216" x2="162.411" y2="115.868" gradientUnits="userSpaceOnUse">
<stop offset="0.3233" stop-color="#9E2064"/>
<stop offset="0.6302" stop-color="#C92037"/>
<stop offset="0.7514" stop-color="#CD2335"/>
<stop offset="1" stop-color="#E97826"/>
</linearGradient>
<linearGradient id="paint13_linear_2043_38877" x1="104.348" y1="188.161" x2="130.059" y2="149.909" gradientUnits="userSpaceOnUse">
<stop stop-color="#282662"/>
<stop offset="0.0954839" stop-color="#662E8D"/>
<stop offset="0.7882" stop-color="#9F2064"/>
<stop offset="0.9487" stop-color="#CD2032"/>
</linearGradient>
<linearGradient id="paint14_linear_2043_38877" x1="103.612" y1="195.289" x2="157.649" y2="108.701" gradientUnits="userSpaceOnUse">
<stop offset="0.3233" stop-color="#9E2064"/>
<stop offset="0.6302" stop-color="#C92037"/>
<stop offset="0.7514" stop-color="#CD2335"/>
<stop offset="1" stop-color="#E97826"/>
</linearGradient>
<linearGradient id="paint15_linear_2043_38877" x1="103.789" y1="160.978" x2="138.396" y2="103.942" gradientUnits="userSpaceOnUse">
<stop offset="0.3233" stop-color="#9E2064"/>
<stop offset="0.6302" stop-color="#C92037"/>
<stop offset="0.7514" stop-color="#CD2335"/>
<stop offset="1" stop-color="#E97826"/>
</linearGradient>
<clipPath id="clip0_2043_38877">
<rect width="256" height="256" fill="white"/>
</clipPath>
</defs>
</svg>
