<svg width="256" height="256" viewBox="0 0 256 256" fill="none" xmlns="http://www.w3.org/2000/svg">
<path fill-rule="evenodd" clip-rule="evenodd" d="M104.425 42.3784C100.056 37.0733 93.5437 34 86.6712 34H29C22.3726 34 17 39.3726 17 46V58.1371V68.2V160C17 166.627 22.3726 172 29 172H229C235.627 172 241 166.627 241 160V70.1371C241 63.5097 235.627 58.1371 229 58.1371H117.404L104.425 42.3784Z" fill="url(#paint0_linear_955_21399)"/>
<mask id="mask0_955_21399" style="mask-type:alpha" maskUnits="userSpaceOnUse" x="17" y="34" width="224" height="138">
<path fill-rule="evenodd" clip-rule="evenodd" d="M104.425 42.3784C100.056 37.0733 93.5437 34 86.6712 34H29C22.3726 34 17 39.3726 17 46V58.1371V68.2V160C17 166.627 22.3726 172 29 172H229C235.627 172 241 166.627 241 160V70.1371C241 63.5097 235.627 58.1371 229 58.1371H117.404L104.425 42.3784Z" fill="url(#paint1_linear_955_21399)"/>
</mask>
<g mask="url(#mask0_955_21399)">
<g style="mix-blend-mode:multiply" filter="url(#filter0_f_955_21399)">
<path fill-rule="evenodd" clip-rule="evenodd" d="M92.789 74C97.7642 74 102.605 72.3868 106.586 69.4024L116.459 62H229C235.627 62 241 67.3726 241 74V108V160C241 166.627 235.627 172 229 172H29C22.3726 172 17 166.627 17 160L17 108V86C17 79.3726 22.3726 74 29 74H87H92.789Z" fill="black" fill-opacity="0.3"/>
</g>
</g>
<g filter="url(#filter1_ii_955_21399)">
<path fill-rule="evenodd" clip-rule="evenodd" d="M92.789 74C97.7642 74 102.605 72.3868 106.586 69.4024L116.459 62H229C235.627 62 241 67.3726 241 74V108V198C241 204.627 235.627 210 229 210H29C22.3726 210 17 204.627 17 198L17 108V86C17 79.3726 22.3726 74 29 74H87H92.789Z" fill="url(#paint2_linear_955_21399)"/>
</g>
<path d="M131.596 141.35L126.38 138.279L126.015 138.888C124.845 140.765 123.211 141.691 121.213 141.691C117.751 141.691 115.192 139.083 115.192 135.671C115.192 132.209 117.8 129.65 121.213 129.65C123.26 129.65 124.747 130.528 126.015 132.453L126.38 133.063L131.596 129.991L131.133 129.333C128.623 125.701 125.405 123.971 121.14 123.971C113.169 123.971 108.879 130.04 108.879 135.719C108.879 141.399 113.169 147.468 121.14 147.468C123.126 147.48 125.083 146.99 126.83 146.044C128.577 145.098 130.057 143.727 131.133 142.057L131.596 141.35Z" fill="white"/>
<path d="M131.304 147.371H138.494L140.639 142.057H151.413L153.558 147.371H160.797L147.927 116.244H141.492L143.223 120.388L131.304 147.371ZM146.099 128.505L149 135.817H143.126L146.099 128.505Z" fill="white"/>
<path d="M163.771 147.395H170.06V133.404H174.155V127.53H170.06V124.775C170.06 123.557 170.864 122.314 172.351 122.314C172.959 122.304 173.563 122.412 174.13 122.63L174.837 122.899L177.445 117.17L176.738 116.927C175.568 116.464 173.935 116.269 172.765 116.269C169.913 116.269 167.549 117.195 165.965 118.974C164.575 120.51 163.771 122.655 163.771 125.044V127.554H160.968V133.429H163.771V147.395Z" fill="white"/>
<path d="M86.0154 147.371V129.455L92.6941 134.379L99.2998 129.455V147.371H106.174V116.049L92.6941 126.238L79.166 116.049V147.322L86.0154 147.371Z" fill="white"/>
<path d="M188.414 123.946C180.492 123.946 176.202 129.967 176.202 135.646C176.202 141.326 180.492 147.346 188.414 147.346C192.046 147.298 195.458 145.664 198.115 142.642L192.972 139.839C192.371 140.485 191.643 141.001 190.834 141.353C190.024 141.706 189.151 141.887 188.268 141.886C185.66 141.886 183.368 140.156 182.759 137.864H199.919V136.329C199.992 127.822 193.216 123.995 188.414 123.946V123.946ZM182.905 132.794C183.734 130.649 185.513 129.431 187.805 129.431C190.145 129.431 191.948 130.649 192.899 132.843L182.905 132.794Z" fill="white"/>
<path d="M214.203 123.994C206.281 123.994 201.991 130.015 201.991 135.694C201.991 141.374 206.281 147.394 214.203 147.394C217.835 147.345 221.247 145.712 223.904 142.69L218.761 139.887C218.16 140.533 217.432 141.049 216.623 141.401C215.813 141.753 214.94 141.935 214.057 141.934C211.449 141.934 209.157 140.204 208.548 137.912H225.732V136.377C225.781 127.87 219.005 123.994 214.203 123.994V123.994ZM208.694 132.794C209.523 130.649 211.302 129.381 213.594 129.43C215.934 129.43 217.737 130.649 218.688 132.842L208.694 132.794Z" fill="white"/>
<path d="M32 116V147.176L48.9162 155V147.371L38.9469 142.739V126.871L48.9162 131.503V123.849L32 116Z" fill="white"/>
<path d="M65.9054 116V147.176L48.916 155V147.371L58.9585 142.739V126.871L48.916 131.503V123.849L65.9054 116Z" fill="#B2B7BC"/>
<defs>
<filter id="filter0_f_955_21399" x="-20" y="25" width="298" height="184" filterUnits="userSpaceOnUse" color-interpolation-filters="sRGB">
<feFlood flood-opacity="0" result="BackgroundImageFix"/>
<feBlend mode="normal" in="SourceGraphic" in2="BackgroundImageFix" result="shape"/>
<feGaussianBlur stdDeviation="18.5" result="effect1_foregroundBlur_955_21399"/>
</filter>
<filter id="filter1_ii_955_21399" x="17" y="62" width="224" height="148" filterUnits="userSpaceOnUse" color-interpolation-filters="sRGB">
<feFlood flood-opacity="0" result="BackgroundImageFix"/>
<feBlend mode="normal" in="SourceGraphic" in2="BackgroundImageFix" result="shape"/>
<feColorMatrix in="SourceAlpha" type="matrix" values="0 0 0 0 0 0 0 0 0 0 0 0 0 0 0 0 0 0 127 0" result="hardAlpha"/>
<feOffset dy="4"/>
<feComposite in2="hardAlpha" operator="arithmetic" k2="-1" k3="1"/>
<feColorMatrix type="matrix" values="0 0 0 0 1 0 0 0 0 1 0 0 0 0 1 0 0 0 0.25 0"/>
<feBlend mode="normal" in2="shape" result="effect1_innerShadow_955_21399"/>
<feColorMatrix in="SourceAlpha" type="matrix" values="0 0 0 0 0 0 0 0 0 0 0 0 0 0 0 0 0 0 127 0" result="hardAlpha"/>
<feOffset dy="-4"/>
<feComposite in2="hardAlpha" operator="arithmetic" k2="-1" k3="1"/>
<feColorMatrix type="matrix" values="0 0 0 0 0 0 0 0 0 0 0 0 0 0 0 0 0 0 0.9 0"/>
<feBlend mode="soft-light" in2="effect1_innerShadow_955_21399" result="effect2_innerShadow_955_21399"/>
</filter>
<linearGradient id="paint0_linear_955_21399" x1="129" y1="34" x2="129" y2="172" gradientUnits="userSpaceOnUse">
<stop stop-color="#8D171A"/>
</linearGradient>
<linearGradient id="paint1_linear_955_21399" x1="17" y1="34" x2="197.768" y2="215.142" gradientUnits="userSpaceOnUse">
<stop stop-color="#05815D"/>
<stop offset="1" stop-color="#0C575F"/>
</linearGradient>
<linearGradient id="paint2_linear_955_21399" x1="17" y1="62" x2="241" y2="210" gradientUnits="userSpaceOnUse">
<stop stop-color="#B52026"/>
<stop offset="1" stop-color="#8B171A"/>
</linearGradient>
</defs>
</svg>
