<svg width="256" height="256" viewBox="0 0 256 256" fill="none" xmlns="http://www.w3.org/2000/svg" xmlns:xlink="http://www.w3.org/1999/xlink">
<path fill-rule="evenodd" clip-rule="evenodd" d="M104.425 42.3784C100.056 37.0733 93.5437 34 86.6712 34H29C22.3726 34 17 39.3726 17 46V58.1371V68.2V160C17 166.627 22.3726 172 29 172H229C235.627 172 241 166.627 241 160V70.1371C241 63.5097 235.627 58.1371 229 58.1371H117.404L104.425 42.3784Z" fill="#770906"/>
<mask id="mask0_682_16969" style="mask-type:alpha" maskUnits="userSpaceOnUse" x="17" y="34" width="224" height="138">
<path fill-rule="evenodd" clip-rule="evenodd" d="M104.425 42.3784C100.056 37.0733 93.5437 34 86.6712 34H29C22.3726 34 17 39.3726 17 46V58.1371V68.2V160C17 166.627 22.3726 172 29 172H229C235.627 172 241 166.627 241 160V70.1371C241 63.5097 235.627 58.1371 229 58.1371H117.404L104.425 42.3784Z" fill="url(#paint0_linear_682_16969)"/>
</mask>
<g mask="url(#mask0_682_16969)">
<g style="mix-blend-mode:multiply" filter="url(#filter0_f_682_16969)">
<path fill-rule="evenodd" clip-rule="evenodd" d="M92.789 74C97.7642 74 102.605 72.3868 106.586 69.4024L116.459 62H229C235.627 62 241 67.3726 241 74V108V160C241 166.627 235.627 172 229 172H29C22.3726 172 17 166.627 17 160L17 108V86C17 79.3726 22.3726 74 29 74H87H92.789Z" fill="black" fill-opacity="0.3"/>
</g>
</g>
<g filter="url(#filter1_ii_682_16969)">
<path fill-rule="evenodd" clip-rule="evenodd" d="M92.789 74C97.7642 74 102.605 72.3868 106.586 69.4024L116.459 62H229C235.627 62 241 67.3726 241 74V108V198C241 204.627 235.627 210 229 210H29C22.3726 210 17 204.627 17 198L17 108V86C17 79.3726 22.3726 74 29 74H87H92.789Z" fill="url(#paint1_linear_682_16969)"/>
</g>
<g style="mix-blend-mode:multiply" opacity="0.2">
<rect x="101.142" y="164.077" width="70.3575" height="27.9231" fill="url(#pattern0)"/>
<g style="mix-blend-mode:multiply" opacity="0.2">
<path d="M109.009 164.442C107.843 164.455 106.712 164.851 105.792 165.57C104.871 166.289 104.21 167.291 103.911 168.423C103.612 169.555 103.692 170.754 104.137 171.836C104.582 172.918 105.369 173.824 106.376 174.415L125.191 185.119C126.741 186.003 128.493 186.467 130.276 186.465C131.235 186.464 132.189 186.325 133.108 186.05L161.413 177.955C163.524 177.346 165.382 176.066 166.705 174.306C168.028 172.547 168.746 170.403 168.75 168.199V164.442H109.009Z" fill="white"/>
</g>
</g>
<g style="mix-blend-mode:multiply" opacity="0.12">
<rect x="102.682" y="163.628" width="67.1775" height="24.333" fill="url(#pattern1)"/>
<g style="mix-blend-mode:multiply" opacity="0.12">
<path d="M109.008 164.442C107.842 164.455 106.711 164.851 105.791 165.57C104.87 166.289 104.209 167.291 103.91 168.423C103.611 169.555 103.691 170.754 104.136 171.836C104.581 172.918 105.368 173.824 106.375 174.415L125.19 185.119C126.74 186.003 128.492 186.467 130.275 186.465C131.234 186.464 132.188 186.325 133.107 186.05L161.412 177.955C163.523 177.346 165.381 176.066 166.704 174.306C168.027 172.547 168.745 170.403 168.749 168.199V164.442H109.008Z" fill="white"/>
</g>
</g>
<path d="M132.992 86.3242L140.594 103.776V164.443L133.108 186.05L161.413 177.955C163.524 177.347 165.381 176.066 166.705 174.306C168.028 172.547 168.746 170.403 168.75 168.199V104.175C168.751 101.965 168.034 99.8148 166.706 98.051C165.379 96.2872 163.515 95.0061 161.396 94.402L132.992 86.3242Z" fill="url(#paint2_linear_682_16969)"/>
<path d="M97.1006 163.794L105.382 159.306C106.518 158.68 107.464 157.758 108.123 156.638C108.782 155.518 109.128 154.241 109.125 152.94V120.28C109.127 118.793 109.583 117.341 110.433 116.123C111.284 114.904 112.486 113.976 113.878 113.466L140.594 103.776V96.4127C140.591 94.1306 139.847 91.9115 138.475 90.0913C137.104 88.271 135.179 86.9485 132.992 86.3238C132.06 86.0554 131.095 85.9211 130.126 85.9249C128.303 85.9291 126.512 86.4042 124.926 87.3044L94.3513 104.806C92.8019 105.692 91.5139 106.974 90.6179 108.521C89.722 110.068 89.25 111.826 89.25 113.615V159.09C89.2477 160.016 89.4853 160.926 89.9396 161.732C90.3939 162.537 91.0492 163.21 91.8411 163.685C92.6331 164.159 93.5343 164.419 94.4565 164.438C95.3786 164.457 96.2898 164.235 97.1006 163.794Z" fill="url(#paint3_linear_682_16969)"/>
<path d="M140.594 164.442H109.009C107.843 164.455 106.712 164.851 105.792 165.57C104.871 166.289 104.21 167.291 103.911 168.423C103.612 169.555 103.692 170.754 104.137 171.836C104.582 172.918 105.369 173.824 106.376 174.415L125.191 185.119C126.741 186.003 128.493 186.467 130.276 186.465C131.235 186.464 132.189 186.325 133.108 186.05C135.268 185.434 137.169 184.126 138.521 182.326C139.872 180.525 140.6 178.331 140.594 176.077V164.442Z" fill="url(#paint4_linear_682_16969)"/>
<path d="M97.1006 163.794L105.382 159.306C106.518 158.68 107.464 157.758 108.123 156.638C108.782 155.518 109.128 154.241 109.125 152.94V120.28C109.127 118.793 109.583 117.341 110.433 116.123C111.284 114.904 112.486 113.976 113.878 113.466L140.594 103.776V96.4127C140.591 94.1306 139.847 91.9115 138.475 90.0913C137.104 88.271 135.179 86.9485 132.992 86.3238C132.06 86.0554 131.095 85.9211 130.126 85.9249C128.303 85.9291 126.512 86.4042 124.926 87.3044L94.3513 104.806C92.8019 105.692 91.5139 106.974 90.6179 108.521C89.722 110.068 89.25 111.826 89.25 113.615V159.09C89.2477 160.016 89.4853 160.926 89.9396 161.732C90.3939 162.537 91.0492 163.21 91.8411 163.685C92.6331 164.159 93.5343 164.419 94.4565 164.438C95.3786 164.457 96.2898 164.235 97.1006 163.794Z" fill="url(#paint5_linear_682_16969)"/>
<path d="M140.594 164.442H109.009C107.843 164.455 106.712 164.851 105.792 165.57C104.871 166.289 104.21 167.291 103.911 168.423C103.612 169.555 103.692 170.754 104.137 171.836C104.582 172.918 105.369 173.824 106.376 174.415L125.191 185.119C126.741 186.003 128.493 186.467 130.276 186.465C131.235 186.464 132.189 186.325 133.108 186.05C135.268 185.434 137.169 184.126 138.521 182.326C139.872 180.525 140.6 178.331 140.594 176.077V164.442Z" fill="url(#paint6_linear_682_16969)"/>
<defs>
<filter id="filter0_f_682_16969" x="-20" y="25" width="298" height="184" filterUnits="userSpaceOnUse" color-interpolation-filters="sRGB">
<feFlood flood-opacity="0" result="BackgroundImageFix"/>
<feBlend mode="normal" in="SourceGraphic" in2="BackgroundImageFix" result="shape"/>
<feGaussianBlur stdDeviation="18.5" result="effect1_foregroundBlur_682_16969"/>
</filter>
<filter id="filter1_ii_682_16969" x="17" y="62" width="224" height="148" filterUnits="userSpaceOnUse" color-interpolation-filters="sRGB">
<feFlood flood-opacity="0" result="BackgroundImageFix"/>
<feBlend mode="normal" in="SourceGraphic" in2="BackgroundImageFix" result="shape"/>
<feColorMatrix in="SourceAlpha" type="matrix" values="0 0 0 0 0 0 0 0 0 0 0 0 0 0 0 0 0 0 127 0" result="hardAlpha"/>
<feOffset dy="4"/>
<feComposite in2="hardAlpha" operator="arithmetic" k2="-1" k3="1"/>
<feColorMatrix type="matrix" values="0 0 0 0 1 0 0 0 0 1 0 0 0 0 1 0 0 0 0.25 0"/>
<feBlend mode="normal" in2="shape" result="effect1_innerShadow_682_16969"/>
<feColorMatrix in="SourceAlpha" type="matrix" values="0 0 0 0 0 0 0 0 0 0 0 0 0 0 0 0 0 0 127 0" result="hardAlpha"/>
<feOffset dy="-4"/>
<feComposite in2="hardAlpha" operator="arithmetic" k2="-1" k3="1"/>
<feColorMatrix type="matrix" values="0 0 0 0 0 0 0 0 0 0 0 0 0 0 0 0 0 0 0.9 0"/>
<feBlend mode="soft-light" in2="effect1_innerShadow_682_16969" result="effect2_innerShadow_682_16969"/>
</filter>
<pattern id="pattern0" patternContentUnits="objectBoundingBox" width="1" height="1">
<use xlink:href="#image0_682_16969" transform="scale(0.00561798 0.0140845)"/>
</pattern>
<pattern id="pattern1" patternContentUnits="objectBoundingBox" width="1" height="1">
<use xlink:href="#image1_682_16969" transform="scale(0.00588235 0.016129)"/>
</pattern>
<linearGradient id="paint0_linear_682_16969" x1="17" y1="34" x2="197.768" y2="215.142" gradientUnits="userSpaceOnUse">
<stop stop-color="#05815D"/>
<stop offset="1" stop-color="#0C575F"/>
</linearGradient>
<linearGradient id="paint1_linear_682_16969" x1="17" y1="62" x2="241" y2="210" gradientUnits="userSpaceOnUse">
<stop stop-color="#BD4879"/>
<stop offset="1" stop-color="#D73B05"/>
</linearGradient>
<linearGradient id="paint2_linear_682_16969" x1="150.863" y1="80.6399" x2="150.863" y2="179.069" gradientUnits="userSpaceOnUse">
<stop stop-color="#EDDFDE"/>
<stop offset="0.192708" stop-color="#DDCFCD"/>
<stop offset="0.380208" stop-color="#F0E5E3"/>
<stop offset="0.619792" stop-color="white"/>
<stop offset="1" stop-color="white"/>
</linearGradient>
<linearGradient id="paint3_linear_682_16969" x1="133.174" y1="84.1132" x2="80.9881" y2="158.369" gradientUnits="userSpaceOnUse">
<stop stop-color="white"/>
<stop offset="0.666667" stop-color="white"/>
<stop offset="0.875" stop-color="#F0DCDC"/>
<stop offset="1" stop-color="#F0E3E3"/>
</linearGradient>
<linearGradient id="paint4_linear_682_16969" x1="106.641" y1="175.462" x2="174.448" y2="175.462" gradientUnits="userSpaceOnUse">
<stop stop-color="white"/>
<stop offset="0.708333" stop-color="#EEE0DF"/>
</linearGradient>
<linearGradient id="paint5_linear_682_16969" x1="134.234" y1="82.6007" x2="123.184" y2="98.3208" gradientUnits="userSpaceOnUse">
<stop stop-opacity="0.4"/>
<stop offset="1" stop-opacity="0"/>
</linearGradient>
<linearGradient id="paint6_linear_682_16969" x1="152.718" y1="176.991" x2="122.357" y2="174.35" gradientUnits="userSpaceOnUse">
<stop stop-opacity="0.4"/>
<stop offset="1" stop-opacity="0"/>
</linearGradient>
</defs>
</svg>
