<svg width="256" height="256" viewBox="0 0 256 256" fill="none" xmlns="http://www.w3.org/2000/svg">
<path fill-rule="evenodd" clip-rule="evenodd" d="M104.425 42.3784C100.056 37.0733 93.5437 34 86.6712 34H29C22.3726 34 17 39.3726 17 46V58.1371V68.2V160C17 166.627 22.3726 172 29 172H229C235.627 172 241 166.627 241 160V70.1371C241 63.5097 235.627 58.1371 229 58.1371H117.404L104.425 42.3784Z" fill="#175835"/>
<mask id="mask0_719_17035" style="mask-type:alpha" maskUnits="userSpaceOnUse" x="17" y="34" width="224" height="138">
<path fill-rule="evenodd" clip-rule="evenodd" d="M104.425 42.3784C100.056 37.0733 93.5437 34 86.6712 34H29C22.3726 34 17 39.3726 17 46V58.1371V68.2V160C17 166.627 22.3726 172 29 172H229C235.627 172 241 166.627 241 160V70.1371C241 63.5097 235.627 58.1371 229 58.1371H117.404L104.425 42.3784Z" fill="url(#paint0_linear_719_17035)"/>
</mask>
<g mask="url(#mask0_719_17035)">
<g style="mix-blend-mode:multiply" filter="url(#filter0_f_719_17035)">
<path fill-rule="evenodd" clip-rule="evenodd" d="M92.789 74C97.7642 74 102.605 72.3868 106.586 69.4024L116.459 62H229C235.627 62 241 67.3726 241 74V108V160C241 166.627 235.627 172 229 172H29C22.3726 172 17 166.627 17 160L17 108V86C17 79.3726 22.3726 74 29 74H87H92.789Z" fill="black" fill-opacity="0.3"/>
</g>
</g>
<g filter="url(#filter1_ii_719_17035)">
<path fill-rule="evenodd" clip-rule="evenodd" d="M92.789 74C97.7642 74 102.605 72.3868 106.586 69.4024L116.459 62H229C235.627 62 241 67.3726 241 74V108V198C241 204.627 235.627 210 229 210H29C22.3726 210 17 204.627 17 198L17 108V86C17 79.3726 22.3726 74 29 74H87H92.789Z" fill="url(#paint1_linear_719_17035)"/>
</g>
<path d="M141.75 91.3594H107.749C106.622 91.3594 105.541 91.8059 104.744 92.6008C103.948 93.3956 103.5 94.4736 103.5 95.5977V113.616L141.75 135.873L160.875 143.924L180 135.873V113.616L141.75 91.3594Z" fill="#21A366"/>
<path d="M103.5 113.616H141.75V135.873H103.5V113.616Z" fill="#10793F"/>
<path d="M175.751 91.3594H141.75V113.616H180V95.5977C180 94.4736 179.552 93.3956 178.756 92.6008C177.959 91.8059 176.878 91.3594 175.751 91.3594Z" fill="#33C481"/>
<path d="M141.75 135.873H103.5V176.149C103.5 177.273 103.948 178.351 104.744 179.145C105.541 179.94 106.622 180.387 107.749 180.387H175.751C176.878 180.387 177.959 179.94 178.756 179.145C179.552 178.351 180 177.273 180 176.149V158.13L141.75 135.873Z" fill="#175835"/>
<path d="M141.75 135.873H180V158.13H141.75V135.873Z" fill="#107C41"/>
<g filter="url(#filter2_d_719_17035)">
<path d="M82.2489 110.437H124.751C125.878 110.437 126.959 110.884 127.756 111.681C128.552 112.478 129 113.559 129 114.685V157.188C129 158.314 128.552 159.395 127.756 160.192C126.959 160.989 125.878 161.437 124.751 161.437H82.2489C81.122 161.437 80.0413 160.989 79.2445 160.192C78.4477 159.395 78 158.314 78 157.188V114.685C78 113.559 78.4477 112.478 79.2445 111.681C80.0413 110.884 81.122 110.437 82.2489 110.437Z" fill="#117F44"/>
</g>
<path d="M91 150.003L100.083 135.964L91.7635 122.003H98.4582L103 130.927C103.417 131.772 103.704 132.403 103.862 132.819H103.921C104.22 132.144 104.533 131.487 104.861 130.848L109.714 122.003H115.859L107.325 135.885L116.075 150.003H109.535L104.288 140.203C104.041 139.785 103.832 139.347 103.662 138.893H103.584C103.431 139.337 103.227 139.763 102.977 140.161L97.5796 150.003H91Z" fill="white"/>
<defs>
<filter id="filter0_f_719_17035" x="-20" y="25" width="298" height="184" filterUnits="userSpaceOnUse" color-interpolation-filters="sRGB">
<feFlood flood-opacity="0" result="BackgroundImageFix"/>
<feBlend mode="normal" in="SourceGraphic" in2="BackgroundImageFix" result="shape"/>
<feGaussianBlur stdDeviation="18.5" result="effect1_foregroundBlur_719_17035"/>
</filter>
<filter id="filter1_ii_719_17035" x="17" y="62" width="224" height="148" filterUnits="userSpaceOnUse" color-interpolation-filters="sRGB">
<feFlood flood-opacity="0" result="BackgroundImageFix"/>
<feBlend mode="normal" in="SourceGraphic" in2="BackgroundImageFix" result="shape"/>
<feColorMatrix in="SourceAlpha" type="matrix" values="0 0 0 0 0 0 0 0 0 0 0 0 0 0 0 0 0 0 127 0" result="hardAlpha"/>
<feOffset dy="4"/>
<feComposite in2="hardAlpha" operator="arithmetic" k2="-1" k3="1"/>
<feColorMatrix type="matrix" values="0 0 0 0 1 0 0 0 0 1 0 0 0 0 1 0 0 0 0.25 0"/>
<feBlend mode="normal" in2="shape" result="effect1_innerShadow_719_17035"/>
<feColorMatrix in="SourceAlpha" type="matrix" values="0 0 0 0 0 0 0 0 0 0 0 0 0 0 0 0 0 0 127 0" result="hardAlpha"/>
<feOffset dy="-4"/>
<feComposite in2="hardAlpha" operator="arithmetic" k2="-1" k3="1"/>
<feColorMatrix type="matrix" values="0 0 0 0 0 0 0 0 0 0 0 0 0 0 0 0 0 0 0.9 0"/>
<feBlend mode="soft-light" in2="effect1_innerShadow_719_17035" result="effect2_innerShadow_719_17035"/>
</filter>
<filter id="filter2_d_719_17035" x="78" y="110.437" width="59" height="59" filterUnits="userSpaceOnUse" color-interpolation-filters="sRGB">
<feFlood flood-opacity="0" result="BackgroundImageFix"/>
<feColorMatrix in="SourceAlpha" type="matrix" values="0 0 0 0 0 0 0 0 0 0 0 0 0 0 0 0 0 0 127 0" result="hardAlpha"/>
<feOffset dx="4" dy="4"/>
<feGaussianBlur stdDeviation="2"/>
<feComposite in2="hardAlpha" operator="out"/>
<feColorMatrix type="matrix" values="0 0 0 0 0 0 0 0 0 0 0 0 0 0 0 0 0 0 0.15 0"/>
<feBlend mode="normal" in2="BackgroundImageFix" result="effect1_dropShadow_719_17035"/>
<feBlend mode="normal" in="SourceGraphic" in2="effect1_dropShadow_719_17035" result="shape"/>
</filter>
<linearGradient id="paint0_linear_719_17035" x1="17" y1="34" x2="197.768" y2="215.142" gradientUnits="userSpaceOnUse">
<stop stop-color="#05815D"/>
<stop offset="1" stop-color="#0C575F"/>
</linearGradient>
<linearGradient id="paint1_linear_719_17035" x1="17" y1="62" x2="241" y2="210" gradientUnits="userSpaceOnUse">
<stop stop-color="#EBFFF6"/>
<stop offset="1" stop-color="#66B08A"/>
</linearGradient>
</defs>
</svg>
