<svg width="256" height="256" viewBox="0 0 256 256" fill="none" xmlns="http://www.w3.org/2000/svg">
<path fill-rule="evenodd" clip-rule="evenodd" d="M104.425 42.3784C100.056 37.0733 93.5437 34 86.6712 34H29C22.3726 34 17 39.3726 17 46V58.1371V68.2V160C17 166.627 22.3726 172 29 172H229C235.627 172 241 166.627 241 160V70.1371C241 63.5097 235.627 58.1371 229 58.1371H117.404L104.425 42.3784Z" fill="#CF8500"/>
<mask id="mask0_811_18359" style="mask-type:alpha" maskUnits="userSpaceOnUse" x="17" y="34" width="224" height="138">
<path fill-rule="evenodd" clip-rule="evenodd" d="M104.425 42.3784C100.056 37.0733 93.5437 34 86.6712 34H29C22.3726 34 17 39.3726 17 46V58.1371V68.2V160C17 166.627 22.3726 172 29 172H229C235.627 172 241 166.627 241 160V70.1371C241 63.5097 235.627 58.1371 229 58.1371H117.404L104.425 42.3784Z" fill="url(#paint0_linear_811_18359)"/>
</mask>
<g mask="url(#mask0_811_18359)">
<g style="mix-blend-mode:multiply" filter="url(#filter0_f_811_18359)">
<path fill-rule="evenodd" clip-rule="evenodd" d="M92.789 74C97.7642 74 102.605 72.3868 106.586 69.4024L116.459 62H229C235.627 62 241 67.3726 241 74V108V160C241 166.627 235.627 172 229 172H29C22.3726 172 17 166.627 17 160L17 108V86C17 79.3726 22.3726 74 29 74H87H92.789Z" fill="black" fill-opacity="0.3"/>
</g>
</g>
<g filter="url(#filter1_ii_811_18359)">
<path fill-rule="evenodd" clip-rule="evenodd" d="M92.789 74C97.7642 74 102.605 72.3868 106.586 69.4024L116.459 62H229C235.627 62 241 67.3726 241 74V108V198C241 204.627 235.627 210 229 210H29C22.3726 210 17 204.627 17 198L17 108V86C17 79.3726 22.3726 74 29 74H87H92.789Z" fill="url(#paint1_linear_811_18359)"/>
</g>
<path d="M133.167 92.6719C133.167 90.644 134.811 89 136.839 89H159.958C161.986 89 163.63 90.644 163.63 92.6719V179.328C163.63 181.356 161.986 183 159.958 183H133.167V92.6719Z" fill="url(#paint2_linear_811_18359)"/>
<path d="M113.148 116.172C113.148 114.144 114.792 112.5 116.82 112.5H140.81C142.838 112.5 144.482 114.144 144.482 116.172V183H113.148V116.172Z" fill="url(#paint3_linear_811_18359)"/>
<path d="M94 138.801C94 136.773 95.644 135.129 97.6719 135.129H121.661C123.689 135.129 125.333 136.773 125.333 138.801V182.999H97.6719C95.644 182.999 94 181.355 94 179.327V138.801Z" fill="url(#paint4_linear_811_18359)"/>
<defs>
<filter id="filter0_f_811_18359" x="-20" y="25" width="298" height="184" filterUnits="userSpaceOnUse" color-interpolation-filters="sRGB">
<feFlood flood-opacity="0" result="BackgroundImageFix"/>
<feBlend mode="normal" in="SourceGraphic" in2="BackgroundImageFix" result="shape"/>
<feGaussianBlur stdDeviation="18.5" result="effect1_foregroundBlur_811_18359"/>
</filter>
<filter id="filter1_ii_811_18359" x="17" y="62" width="224" height="148" filterUnits="userSpaceOnUse" color-interpolation-filters="sRGB">
<feFlood flood-opacity="0" result="BackgroundImageFix"/>
<feBlend mode="normal" in="SourceGraphic" in2="BackgroundImageFix" result="shape"/>
<feColorMatrix in="SourceAlpha" type="matrix" values="0 0 0 0 0 0 0 0 0 0 0 0 0 0 0 0 0 0 127 0" result="hardAlpha"/>
<feOffset dy="4"/>
<feComposite in2="hardAlpha" operator="arithmetic" k2="-1" k3="1"/>
<feColorMatrix type="matrix" values="0 0 0 0 1 0 0 0 0 1 0 0 0 0 1 0 0 0 0.25 0"/>
<feBlend mode="normal" in2="shape" result="effect1_innerShadow_811_18359"/>
<feColorMatrix in="SourceAlpha" type="matrix" values="0 0 0 0 0 0 0 0 0 0 0 0 0 0 0 0 0 0 127 0" result="hardAlpha"/>
<feOffset dy="-4"/>
<feComposite in2="hardAlpha" operator="arithmetic" k2="-1" k3="1"/>
<feColorMatrix type="matrix" values="0 0 0 0 0 0 0 0 0 0 0 0 0 0 0 0 0 0 0.9 0"/>
<feBlend mode="soft-light" in2="effect1_innerShadow_811_18359" result="effect2_innerShadow_811_18359"/>
</filter>
<linearGradient id="paint0_linear_811_18359" x1="17" y1="34" x2="197.768" y2="215.142" gradientUnits="userSpaceOnUse">
<stop stop-color="#05815D"/>
<stop offset="1" stop-color="#0C575F"/>
</linearGradient>
<linearGradient id="paint1_linear_811_18359" x1="17" y1="62" x2="241" y2="210" gradientUnits="userSpaceOnUse">
<stop stop-color="#F9FBF1"/>
<stop offset="1" stop-color="#EEDD88"/>
</linearGradient>
<linearGradient id="paint2_linear_811_18359" x1="148.398" y1="89" x2="148.398" y2="183" gradientUnits="userSpaceOnUse">
<stop stop-color="#E3A700"/>
<stop offset="1" stop-color="#C97B00"/>
</linearGradient>
<linearGradient id="paint3_linear_811_18359" x1="128.815" y1="112.5" x2="128.815" y2="183" gradientUnits="userSpaceOnUse">
<stop stop-color="#F4D142"/>
<stop offset="0.0001" stop-color="#F4D143"/>
<stop offset="1" stop-color="#E9B000"/>
</linearGradient>
<linearGradient id="paint4_linear_811_18359" x1="109.667" y1="135.129" x2="109.667" y2="182.999" gradientUnits="userSpaceOnUse">
<stop stop-color="#F6DB6D"/>
<stop offset="1" stop-color="#F8D94A"/>
</linearGradient>
</defs>
</svg>
