<svg width="256" height="256" viewBox="0 0 256 256" fill="none" xmlns="http://www.w3.org/2000/svg">
<g clip-path="url(#clip0_4290_1809)">
<path d="M104.425 42.3784C100.056 37.0733 93.5437 34 86.6712 34H29C22.3726 34 17 39.3726 17 46V160C17 166.627 22.3726 172 29 172H229C235.627 172 241 166.627 241 160V70.1371C241 63.5097 235.627 58.1371 229 58.1371H117.404L104.425 42.3784Z" fill="url(#paint0_linear_4290_1809)"/>
<mask id="mask0_4290_1809" style="mask-type:alpha" maskUnits="userSpaceOnUse" x="17" y="34" width="224" height="138">
<path d="M86.6709 34C93.5434 34 100.057 37.0729 104.426 42.3779L117.403 58.1367H229C235.627 58.1367 241 63.5095 241 70.1367V160C241 166.627 235.627 172 229 172H29C22.3726 172 17 166.627 17 160V46C17 39.3726 22.3726 34 29 34H86.6709Z" fill="url(#paint1_linear_4290_1809)"/>
</mask>
<g mask="url(#mask0_4290_1809)">
<g filter="url(#filter0_f_4290_1809)" style="mix-blend-mode:multiply">
<path d="M241 160C241 166.627 235.627 172 229 172H29C22.3726 172 17 166.627 17 160V86C17 79.3726 22.3726 74 29 74H92.79C97.7649 73.9999 102.605 72.3865 106.586 69.4023L116.46 62H229C235.627 62 241 67.3726 241 74V160Z" fill="black" fill-opacity="0.3"/>
</g>
</g>
<g filter="url(#filter1_ii_4290_1809)">
<path d="M241 198C241 204.627 235.627 210 229 210H29C22.3726 210 17 204.627 17 198V86C17 79.3726 22.3726 74 29 74H92.79C97.7649 73.9999 102.605 72.3865 106.586 69.4023L116.46 62H229C235.627 62 241 67.3726 241 74V198Z" fill="url(#paint2_linear_4290_1809)"/>
</g>
<g clip-path="url(#clip1_4290_1809)">
<mask id="mask1_4290_1809" style="mask-type:luminance" maskUnits="userSpaceOnUse" x="87" y="94" width="83" height="83">
<path d="M170 94H87V177H170V94Z" fill="white"/>
</mask>
<g mask="url(#mask1_4290_1809)">
<path d="M115.559 148.438C111.986 152.011 106.193 152.011 102.62 148.438L89.6799 135.498C86.1067 131.925 86.1067 126.132 89.6799 122.559L102.62 109.619C106.193 106.046 111.986 106.046 115.559 109.619L128.499 122.559C132.072 126.132 132.072 131.925 128.499 135.498L115.559 148.438Z" fill="url(#paint3_linear_4290_1809)"/>
<path d="M115.559 148.438C111.986 152.011 106.193 152.011 102.62 148.438L89.6799 135.498C86.1067 131.925 86.1067 126.132 89.6799 122.559L102.62 109.619C106.193 106.046 111.986 106.046 115.559 109.619L128.499 122.559C132.072 126.132 132.072 131.925 128.499 135.498L115.559 148.438Z" fill="url(#paint4_linear_4290_1809)"/>
<path d="M89.6797 135.5C93.253 139.073 99.0464 139.073 102.62 135.5L141.44 96.68C145.013 93.1067 150.807 93.1067 154.38 96.6799L167.32 109.62C170.893 113.193 170.893 118.986 167.32 122.56L128.5 161.379C124.926 164.953 119.133 164.953 115.56 161.379L89.6797 135.5Z" fill="url(#paint5_linear_4290_1809)"/>
<path d="M89.6797 135.5C93.253 139.073 99.0464 139.073 102.62 135.5L141.44 96.68C145.013 93.1067 150.807 93.1067 154.38 96.6799L167.32 109.62C170.893 113.193 170.893 118.986 167.32 122.56L128.5 161.379C124.926 164.953 119.133 164.953 115.56 161.379L89.6797 135.5Z" fill="url(#paint6_linear_4290_1809)"/>
<path d="M102.619 148.438C106.192 152.012 111.986 152.012 115.559 148.438L141.439 122.559C145.013 118.986 150.806 118.986 154.379 122.559L167.319 135.499C170.893 139.072 170.893 144.865 167.319 148.438L141.439 174.318C137.866 177.892 132.072 177.892 128.499 174.318L102.619 148.438Z" fill="url(#paint7_linear_4290_1809)"/>
<path d="M102.619 148.438C106.192 152.012 111.986 152.012 115.559 148.438L141.439 122.559C145.013 118.986 150.806 118.986 154.379 122.559L167.319 135.499C170.893 139.072 170.893 144.865 167.319 148.438L141.439 174.318C137.866 177.892 132.072 177.892 128.499 174.318L102.619 148.438Z" fill="url(#paint8_linear_4290_1809)"/>
</g>
</g>
</g>
<defs>
<filter id="filter0_f_4290_1809" x="-20" y="25" width="298" height="184" filterUnits="userSpaceOnUse" color-interpolation-filters="sRGB">
<feFlood flood-opacity="0" result="BackgroundImageFix"/>
<feBlend mode="normal" in="SourceGraphic" in2="BackgroundImageFix" result="shape"/>
<feGaussianBlur stdDeviation="18.5" result="effect1_foregroundBlur_4290_1809"/>
</filter>
<filter id="filter1_ii_4290_1809" x="17" y="62" width="224" height="148" filterUnits="userSpaceOnUse" color-interpolation-filters="sRGB">
<feFlood flood-opacity="0" result="BackgroundImageFix"/>
<feBlend mode="normal" in="SourceGraphic" in2="BackgroundImageFix" result="shape"/>
<feColorMatrix in="SourceAlpha" type="matrix" values="0 0 0 0 0 0 0 0 0 0 0 0 0 0 0 0 0 0 127 0" result="hardAlpha"/>
<feOffset dy="4"/>
<feComposite in2="hardAlpha" operator="arithmetic" k2="-1" k3="1"/>
<feColorMatrix type="matrix" values="0 0 0 0 1 0 0 0 0 1 0 0 0 0 1 0 0 0 0.25 0"/>
<feBlend mode="normal" in2="shape" result="effect1_innerShadow_4290_1809"/>
<feColorMatrix in="SourceAlpha" type="matrix" values="0 0 0 0 0 0 0 0 0 0 0 0 0 0 0 0 0 0 127 0" result="hardAlpha"/>
<feOffset dy="-4"/>
<feComposite in2="hardAlpha" operator="arithmetic" k2="-1" k3="1"/>
<feColorMatrix type="matrix" values="0 0 0 0 0 0 0 0 0 0 0 0 0 0 0 0 0 0 0.9 0"/>
<feBlend mode="soft-light" in2="effect1_innerShadow_4290_1809" result="effect2_innerShadow_4290_1809"/>
</filter>
<linearGradient id="paint0_linear_4290_1809" x1="17" y1="34" x2="197.768" y2="215.142" gradientUnits="userSpaceOnUse">
<stop stop-color="#591B84"/>
</linearGradient>
<linearGradient id="paint1_linear_4290_1809" x1="17" y1="34" x2="197.768" y2="215.142" gradientUnits="userSpaceOnUse">
<stop stop-color="#05815D"/>
<stop offset="1" stop-color="#0C575F"/>
</linearGradient>
<linearGradient id="paint2_linear_4290_1809" x1="176.439" y1="200.973" x2="119.815" y2="52.5335" gradientUnits="userSpaceOnUse">
<stop stop-color="#C7CCFF"/>
<stop offset="1" stop-color="#F8FCFE"/>
</linearGradient>
<linearGradient id="paint3_linear_4290_1809" x1="109.089" y1="106.94" x2="94.4624" y2="138.187" gradientUnits="userSpaceOnUse">
<stop stop-color="#8752E0"/>
<stop offset="1" stop-color="#541278"/>
</linearGradient>
<linearGradient id="paint4_linear_4290_1809" x1="115.982" y1="132.282" x2="104.086" y2="120.603" gradientUnits="userSpaceOnUse">
<stop offset="0.12172" stop-color="#3D0D59"/>
<stop offset="1" stop-color="#7034B0" stop-opacity="0"/>
</linearGradient>
<linearGradient id="paint5_linear_4290_1809" x1="150.53" y1="93.9999" x2="121.089" y2="164.616" gradientUnits="userSpaceOnUse">
<stop stop-color="#DB45E0"/>
<stop offset="1" stop-color="#6C0F71"/>
</linearGradient>
<linearGradient id="paint6_linear_4290_1809" x1="150.53" y1="93.9999" x2="121.089" y2="164.616" gradientUnits="userSpaceOnUse">
<stop stop-color="#DB45E0"/>
<stop offset="0.677403" stop-color="#A829AE"/>
<stop offset="1" stop-color="#8F28B3"/>
</linearGradient>
<linearGradient id="paint7_linear_4290_1809" x1="149.251" y1="119.936" x2="135.418" y2="176.996" gradientUnits="userSpaceOnUse">
<stop stop-color="#3DCBFF"/>
<stop offset="1" stop-color="#00479E"/>
</linearGradient>
<linearGradient id="paint8_linear_4290_1809" x1="149.998" y1="121.411" x2="123.394" y2="173.321" gradientUnits="userSpaceOnUse">
<stop stop-color="#3DCBFF"/>
<stop offset="1" stop-color="#4A40D4"/>
</linearGradient>
<clipPath id="clip0_4290_1809">
<rect width="256" height="256" fill="white"/>
</clipPath>
<clipPath id="clip1_4290_1809">
<rect width="83" height="83" fill="white" transform="translate(87 94)"/>
</clipPath>
</defs>
</svg>
