<svg width="256" height="256" viewBox="0 0 256 256" fill="none" xmlns="http://www.w3.org/2000/svg">
<g clip-path="url(#clip0_4305_12268)">
<path d="M104.425 42.3784C100.056 37.0733 93.5437 34 86.6712 34H29C22.3726 34 17 39.3726 17 46V160C17 166.627 22.3726 172 29 172H229C235.627 172 241 166.627 241 160V70.1371C241 63.5097 235.627 58.1371 229 58.1371H117.404L104.425 42.3784Z" fill="url(#paint0_linear_4305_12268)"/>
<mask id="mask0_4305_12268" style="mask-type:alpha" maskUnits="userSpaceOnUse" x="17" y="34" width="224" height="138">
<path d="M86.6709 34C93.5434 34 100.057 37.0729 104.426 42.3779L117.403 58.1367H229C235.627 58.1367 241 63.5095 241 70.1367V160C241 166.627 235.627 172 229 172H29C22.3726 172 17 166.627 17 160V46C17 39.3726 22.3726 34 29 34H86.6709Z" fill="url(#paint1_linear_4305_12268)"/>
</mask>
<g mask="url(#mask0_4305_12268)">
<g filter="url(#filter0_f_4305_12268)" style="mix-blend-mode:multiply">
<path d="M241 160C241 166.627 235.627 172 229 172H29C22.3726 172 17 166.627 17 160V86C17 79.3726 22.3726 74 29 74H92.79C97.7649 73.9999 102.605 72.3865 106.586 69.4023L116.46 62H229C235.627 62 241 67.3726 241 74V160Z" fill="black" fill-opacity="0.3"/>
</g>
</g>
<g filter="url(#filter1_ii_4305_12268)">
<path d="M241 198C241 204.627 235.627 210 229 210H29C22.3726 210 17 204.627 17 198V86C17 79.3726 22.3726 74 29 74H92.79C97.7649 73.9999 102.605 72.3865 106.586 69.4023L116.46 62H229C235.627 62 241 67.3726 241 74V198Z" fill="url(#paint2_linear_4305_12268)"/>
</g>
<path d="M99.5996 145.721C99.5996 135.534 107.908 127.277 118.159 127.277H169.197V171.083C169.197 174.902 166.081 178 162.237 178H113.6C105.868 178 99.5996 171.77 99.5996 164.086V145.723V145.721Z" fill="url(#paint3_radial_4305_12268)"/>
<path d="M99.5996 145.721C99.5996 135.534 107.908 127.277 118.159 127.277H169.197V171.083C169.197 174.902 166.081 178 162.237 178H113.6C105.868 178 99.5996 171.77 99.5996 164.086V145.723V145.721Z" fill="url(#paint4_radial_4305_12268)" fill-opacity="0.8"/>
<path d="M99.5996 108.914C99.5996 101.23 105.868 95 113.6 95H161.602C165.796 95 169.194 98.3781 169.194 102.545V128.954C169.194 133.12 165.794 136.498 161.602 136.498H113.6C105.868 136.498 99.5996 142.773 99.5996 150.457V108.914Z" fill="url(#paint5_linear_4305_12268)"/>
<path d="M99.5996 108.914C99.5996 101.23 105.868 95 113.6 95H161.602C165.796 95 169.194 98.3781 169.194 102.545V128.954C169.194 133.12 165.794 136.498 161.602 136.498H113.6C105.868 136.498 99.5996 142.773 99.5996 150.457V108.914Z" fill="url(#paint6_linear_4305_12268)"/>
<path d="M147.157 127.277C154.204 127.277 159.916 121.6 159.916 114.597C159.916 107.593 154.204 101.916 147.157 101.916C140.11 101.916 134.397 107.593 134.397 114.597C134.397 121.6 140.11 127.277 147.157 127.277Z" fill="url(#paint7_linear_4305_12268)"/>
<path d="M147.157 121.513C151.002 121.513 154.117 118.417 154.117 114.596C154.117 110.775 151.002 107.679 147.157 107.679C143.313 107.679 140.197 110.775 140.197 114.596C140.197 118.417 143.313 121.513 147.157 121.513Z" fill="url(#paint8_linear_4305_12268)"/>
<path d="M155.698 145.721H138.615C137.567 145.721 136.717 146.566 136.717 147.607V164.584C136.717 165.626 137.567 166.47 138.615 166.47H155.698C156.745 166.47 157.595 165.625 157.595 164.584V147.607C157.595 146.564 156.745 145.721 155.698 145.721Z" fill="url(#paint9_linear_4305_12268)"/>
<path d="M117.578 134.194H95.5398C91.3757 134.194 88 137.548 88 141.686V163.591C88 167.729 91.3757 171.083 95.5398 171.083H117.578C121.742 171.083 125.118 167.729 125.118 163.591V141.686C125.118 137.548 121.742 134.194 117.578 134.194Z" fill="url(#paint10_radial_4305_12268)"/>
<path d="M117.578 134.194H95.5398C91.3757 134.194 88 137.548 88 141.686V163.591C88 167.729 91.3757 171.083 95.5398 171.083H117.578C121.742 171.083 125.118 167.729 125.118 163.591V141.686C125.118 137.548 121.742 134.194 117.578 134.194Z" fill="url(#paint11_radial_4305_12268)" fill-opacity="0.6"/>
<path d="M112.69 146.033H105.204V151.106H112.084V155.017H105.204V163.177H100.426V142.094H112.69V146.035V146.033Z" fill="white"/>
</g>
<defs>
<filter id="filter0_f_4305_12268" x="-20" y="25" width="298" height="184" filterUnits="userSpaceOnUse" color-interpolation-filters="sRGB">
<feFlood flood-opacity="0" result="BackgroundImageFix"/>
<feBlend mode="normal" in="SourceGraphic" in2="BackgroundImageFix" result="shape"/>
<feGaussianBlur stdDeviation="18.5" result="effect1_foregroundBlur_4305_12268"/>
</filter>
<filter id="filter1_ii_4305_12268" x="17" y="62" width="224" height="148" filterUnits="userSpaceOnUse" color-interpolation-filters="sRGB">
<feFlood flood-opacity="0" result="BackgroundImageFix"/>
<feBlend mode="normal" in="SourceGraphic" in2="BackgroundImageFix" result="shape"/>
<feColorMatrix in="SourceAlpha" type="matrix" values="0 0 0 0 0 0 0 0 0 0 0 0 0 0 0 0 0 0 127 0" result="hardAlpha"/>
<feOffset dy="4"/>
<feComposite in2="hardAlpha" operator="arithmetic" k2="-1" k3="1"/>
<feColorMatrix type="matrix" values="0 0 0 0 1 0 0 0 0 1 0 0 0 0 1 0 0 0 0.25 0"/>
<feBlend mode="normal" in2="shape" result="effect1_innerShadow_4305_12268"/>
<feColorMatrix in="SourceAlpha" type="matrix" values="0 0 0 0 0 0 0 0 0 0 0 0 0 0 0 0 0 0 127 0" result="hardAlpha"/>
<feOffset dy="-4"/>
<feComposite in2="hardAlpha" operator="arithmetic" k2="-1" k3="1"/>
<feColorMatrix type="matrix" values="0 0 0 0 0 0 0 0 0 0 0 0 0 0 0 0 0 0 0.9 0"/>
<feBlend mode="soft-light" in2="effect1_innerShadow_4305_12268" result="effect2_innerShadow_4305_12268"/>
</filter>
<linearGradient id="paint0_linear_4305_12268" x1="17" y1="34" x2="197.768" y2="215.142" gradientUnits="userSpaceOnUse">
<stop stop-color="#0E647B"/>
</linearGradient>
<linearGradient id="paint1_linear_4305_12268" x1="17" y1="34" x2="197.768" y2="215.142" gradientUnits="userSpaceOnUse">
<stop stop-color="#05815D"/>
<stop offset="1" stop-color="#0C575F"/>
</linearGradient>
<linearGradient id="paint2_linear_4305_12268" x1="176.439" y1="200.973" x2="119.815" y2="52.5335" gradientUnits="userSpaceOnUse">
<stop stop-color="#BEE4DF"/>
<stop offset="1" stop-color="#F8FCFE"/>
</linearGradient>
<radialGradient id="paint3_radial_4305_12268" cx="0" cy="0" r="1" gradientTransform="matrix(-42.5346 -68.831 -62.6099 38.1966 153.673 185.868)" gradientUnits="userSpaceOnUse">
<stop stop-color="#1A7F7C"/>
<stop offset="0.45" stop-color="#14717C"/>
<stop offset="0.8" stop-color="#08567B"/>
</radialGradient>
<radialGradient id="paint4_radial_4305_12268" cx="0" cy="0" r="1" gradientTransform="matrix(-27.7895 -26.0381 -20.2514 21.3378 120.643 135.669)" gradientUnits="userSpaceOnUse">
<stop stop-color="#06517B"/>
<stop offset="0.99" stop-color="#06517B" stop-opacity="0"/>
</radialGradient>
<linearGradient id="paint5_linear_4305_12268" x1="104.443" y1="134.279" x2="170.106" y2="96.1222" gradientUnits="userSpaceOnUse">
<stop offset="0.23" stop-color="#15B4D5"/>
<stop offset="1" stop-color="#43E5CA"/>
</linearGradient>
<linearGradient id="paint6_linear_4305_12268" x1="118.772" y1="122.729" x2="99.5996" y2="122.729" gradientUnits="userSpaceOnUse">
<stop offset="0.18" stop-color="#29CBDC" stop-opacity="0"/>
<stop offset="1" stop-color="#36DFF1"/>
</linearGradient>
<linearGradient id="paint7_linear_4305_12268" x1="139.084" y1="103.012" x2="155.35" y2="126.658" gradientUnits="userSpaceOnUse">
<stop stop-color="#119FC5"/>
<stop offset="1" stop-color="#22918B"/>
</linearGradient>
<linearGradient id="paint8_linear_4305_12268" x1="142.753" y1="108.278" x2="151.626" y2="121.175" gradientUnits="userSpaceOnUse">
<stop stop-color="#06517B"/>
<stop offset="1" stop-color="#1A7F7C"/>
</linearGradient>
<linearGradient id="paint9_linear_4305_12268" x1="140.551" y1="146.618" x2="153.859" y2="165.964" gradientUnits="userSpaceOnUse">
<stop stop-color="#119FC5"/>
<stop offset="1" stop-color="#20AC9D"/>
</linearGradient>
<radialGradient id="paint10_radial_4305_12268" cx="0" cy="0" r="1" gradientTransform="matrix(37.1108 36.8862 37.1238 -36.8733 88.6538 135.525)" gradientUnits="userSpaceOnUse">
<stop offset="0.06" stop-color="#009BBC"/>
<stop offset="0.59" stop-color="#01657D"/>
<stop offset="0.94" stop-color="#014354"/>
</radialGradient>
<radialGradient id="paint11_radial_4305_12268" cx="0" cy="0" r="1" gradientUnits="userSpaceOnUse" gradientTransform="translate(106.97 156.33) rotate(90) scale(25.8243 29.5875)">
<stop offset="0.57" stop-color="#1E8581" stop-opacity="0"/>
<stop offset="0.97" stop-color="#1ECBE6"/>
</radialGradient>
<clipPath id="clip0_4305_12268">
<rect width="256" height="256" fill="white"/>
</clipPath>
</defs>
</svg>
