<svg width="256" height="256" viewBox="0 0 256 256" fill="none" xmlns="http://www.w3.org/2000/svg">
<path fill-rule="evenodd" clip-rule="evenodd" d="M104.425 42.3784C100.056 37.0733 93.5437 34 86.6712 34H29C22.3726 34 17 39.3726 17 46V58.1371V68.2V160C17 166.627 22.3726 172 29 172H229C235.627 172 241 166.627 241 160V70.1371C241 63.5097 235.627 58.1371 229 58.1371H117.404L104.425 42.3784Z" fill="#1252CB"/>
<mask id="mask0_812_20182" style="mask-type:alpha" maskUnits="userSpaceOnUse" x="17" y="34" width="224" height="138">
<path fill-rule="evenodd" clip-rule="evenodd" d="M104.425 42.3784C100.056 37.0733 93.5437 34 86.6712 34H29C22.3726 34 17 39.3726 17 46V58.1371V68.2V160C17 166.627 22.3726 172 29 172H229C235.627 172 241 166.627 241 160V70.1371C241 63.5097 235.627 58.1371 229 58.1371H117.404L104.425 42.3784Z" fill="url(#paint0_linear_812_20182)"/>
</mask>
<g mask="url(#mask0_812_20182)">
<g style="mix-blend-mode:multiply" filter="url(#filter0_f_812_20182)">
<path fill-rule="evenodd" clip-rule="evenodd" d="M92.789 74C97.7642 74 102.605 72.3868 106.586 69.4024L116.459 62H229C235.627 62 241 67.3726 241 74V108V160C241 166.627 235.627 172 229 172H29C22.3726 172 17 166.627 17 160L17 108V86C17 79.3726 22.3726 74 29 74H87H92.789Z" fill="black" fill-opacity="0.3"/>
</g>
</g>
<g filter="url(#filter1_ii_812_20182)">
<path fill-rule="evenodd" clip-rule="evenodd" d="M92.789 74C97.7642 74 102.605 72.3868 106.586 69.4024L116.459 62H229C235.627 62 241 67.3726 241 74V108V198C241 204.627 235.627 210 229 210H29C22.3726 210 17 204.627 17 198L17 108V86C17 79.3726 22.3726 74 29 74H87H92.789Z" fill="url(#paint1_linear_812_20182)"/>
</g>
<path d="M164.018 105.383C167.767 106.722 170.356 110.118 170.703 114.029C170.363 119.722 169.131 123.104 163.144 126.638L147.102 132.571V124.099C147.102 118.596 143.548 113.723 138.309 112.041L129.887 109.338C128.797 108.987 127.683 109.8 127.683 110.946V133.698C127.683 136.617 124.791 138.655 122.041 137.673L89.1205 125.916C88.4485 125.676 88 125.039 88 124.326V84.2246C88 81.3058 90.892 79.2676 93.6414 80.2496L164.018 105.383Z" fill="url(#paint2_linear_812_20182)"/>
<path d="M147.102 132.571L127.683 139.754V167.889C127.683 169.051 128.829 169.866 129.926 169.484L140.299 165.876C144.372 164.46 147.102 160.619 147.102 156.307V132.571Z" fill="url(#paint3_linear_812_20182)"/>
<path fill-rule="evenodd" clip-rule="evenodd" d="M163.314 173.855L115.001 191.725C112.144 192.781 109.108 190.668 109.108 187.621V148.451C109.108 147.352 109.792 146.37 110.823 145.989L163.144 126.637C169.392 122.95 170.462 119.427 170.743 113.272V163.187C170.743 167.947 167.779 172.204 163.314 173.855ZM127.683 139.753L147.102 132.57V156.306C147.102 160.618 144.372 164.459 140.299 165.875L129.926 169.483C128.829 169.865 127.683 169.05 127.683 167.888V139.753Z" fill="url(#paint4_linear_812_20182)"/>
<defs>
<filter id="filter0_f_812_20182" x="-20" y="25" width="298" height="184" filterUnits="userSpaceOnUse" color-interpolation-filters="sRGB">
<feFlood flood-opacity="0" result="BackgroundImageFix"/>
<feBlend mode="normal" in="SourceGraphic" in2="BackgroundImageFix" result="shape"/>
<feGaussianBlur stdDeviation="18.5" result="effect1_foregroundBlur_812_20182"/>
</filter>
<filter id="filter1_ii_812_20182" x="17" y="62" width="224" height="148" filterUnits="userSpaceOnUse" color-interpolation-filters="sRGB">
<feFlood flood-opacity="0" result="BackgroundImageFix"/>
<feBlend mode="normal" in="SourceGraphic" in2="BackgroundImageFix" result="shape"/>
<feColorMatrix in="SourceAlpha" type="matrix" values="0 0 0 0 0 0 0 0 0 0 0 0 0 0 0 0 0 0 127 0" result="hardAlpha"/>
<feOffset dy="4"/>
<feComposite in2="hardAlpha" operator="arithmetic" k2="-1" k3="1"/>
<feColorMatrix type="matrix" values="0 0 0 0 1 0 0 0 0 1 0 0 0 0 1 0 0 0 0.25 0"/>
<feBlend mode="normal" in2="shape" result="effect1_innerShadow_812_20182"/>
<feColorMatrix in="SourceAlpha" type="matrix" values="0 0 0 0 0 0 0 0 0 0 0 0 0 0 0 0 0 0 127 0" result="hardAlpha"/>
<feOffset dy="-4"/>
<feComposite in2="hardAlpha" operator="arithmetic" k2="-1" k3="1"/>
<feColorMatrix type="matrix" values="0 0 0 0 0 0 0 0 0 0 0 0 0 0 0 0 0 0 0.9 0"/>
<feBlend mode="soft-light" in2="effect1_innerShadow_812_20182" result="effect2_innerShadow_812_20182"/>
</filter>
<linearGradient id="paint0_linear_812_20182" x1="17" y1="34" x2="197.768" y2="215.142" gradientUnits="userSpaceOnUse">
<stop stop-color="#05815D"/>
<stop offset="1" stop-color="#0C575F"/>
</linearGradient>
<linearGradient id="paint1_linear_812_20182" x1="17" y1="62" x2="241" y2="210" gradientUnits="userSpaceOnUse">
<stop stop-color="#F7FDFF"/>
<stop offset="1" stop-color="#8684E3"/>
</linearGradient>
<linearGradient id="paint2_linear_812_20182" x1="88" y1="80.7676" x2="148.79" y2="159.711" gradientUnits="userSpaceOnUse">
<stop offset="0.00972736" stop-color="#0B53CE"/>
<stop offset="0.798569" stop-color="#6A4EA4"/>
</linearGradient>
<linearGradient id="paint3_linear_812_20182" x1="137.392" y1="132.571" x2="137.392" y2="169.579" gradientUnits="userSpaceOnUse">
<stop stop-color="#9A91F0"/>
<stop offset="1" stop-color="#808DF1"/>
</linearGradient>
<linearGradient id="paint4_linear_812_20182" x1="134.86" y1="136.05" x2="134.438" y2="184.556" gradientUnits="userSpaceOnUse">
<stop stop-color="#8177E2"/>
<stop offset="0.980514" stop-color="#2266E3"/>
</linearGradient>
</defs>
</svg>
