<svg width="256" height="256" viewBox="0 0 256 256" fill="none" xmlns="http://www.w3.org/2000/svg">
<path fill-rule="evenodd" clip-rule="evenodd" d="M104.425 42.3784C100.056 37.0733 93.5437 34 86.6712 34H29C22.3726 34 17 39.3726 17 46V58.1371V68.2V160C17 166.627 22.3726 172 29 172H229C235.627 172 241 166.627 241 160V70.1371C241 63.5097 235.627 58.1371 229 58.1371H117.404L104.425 42.3784Z" fill="#233C63"/>
<mask id="mask0_641_15865" style="mask-type:alpha" maskUnits="userSpaceOnUse" x="17" y="34" width="224" height="138">
<path fill-rule="evenodd" clip-rule="evenodd" d="M104.425 42.3784C100.056 37.0733 93.5437 34 86.6712 34H29C22.3726 34 17 39.3726 17 46V58.1371V68.2V160C17 166.627 22.3726 172 29 172H229C235.627 172 241 166.627 241 160V70.1371C241 63.5097 235.627 58.1371 229 58.1371H117.404L104.425 42.3784Z" fill="url(#paint0_linear_641_15865)"/>
</mask>
<g mask="url(#mask0_641_15865)">
<g style="mix-blend-mode:multiply" filter="url(#filter0_f_641_15865)">
<path fill-rule="evenodd" clip-rule="evenodd" d="M92.789 74C97.7642 74 102.605 72.3868 106.586 69.4024L116.459 62H229C235.627 62 241 67.3726 241 74V108V160C241 166.627 235.627 172 229 172H29C22.3726 172 17 166.627 17 160L17 108V86C17 79.3726 22.3726 74 29 74H87H92.789Z" fill="black" fill-opacity="0.3"/>
</g>
</g>
<g filter="url(#filter1_ii_641_15865)">
<path fill-rule="evenodd" clip-rule="evenodd" d="M92.789 74C97.7642 74 102.605 72.3868 106.586 69.4024L116.459 62H229C235.627 62 241 67.3726 241 74V108V198C241 204.627 235.627 210 229 210H29C22.3726 210 17 204.627 17 198L17 108V86C17 79.3726 22.3726 74 29 74H87H92.789Z" fill="url(#paint1_linear_641_15865)"/>
</g>
<path d="M82 52.2343C82 48.9895 83.3005 45.8777 85.6154 43.5833C87.9303 41.289 91.0699 40 94.3437 40H96.4615V75.8333C96.4615 79.7914 93.2242 83 89.2308 83C85.2373 83 82 79.7914 82 75.8333V52.2343Z" fill="url(#paint2_linear_641_15865)"/>
<path d="M176 52.2343C176 48.9895 174.7 45.8777 172.385 43.5833C170.07 41.289 166.93 40 163.656 40H161.538V75.8333C161.538 79.7914 164.776 83 168.769 83C172.763 83 176 79.7914 176 75.8333V52.2343Z" fill="url(#paint3_linear_641_15865)"/>
<g filter="url(#filter2_i_641_15865)">
<rect x="96" y="40" width="66" height="14" fill="url(#paint4_linear_641_15865)"/>
</g>
<rect x="91" y="96" width="35" height="36" fill="#DA4E1F"/>
<rect x="91" y="136" width="35" height="36" fill="#089ED8"/>
<rect x="131" y="96" width="36" height="36" fill="#77B92A"/>
<rect x="131" y="136" width="36" height="36" fill="#E1AB10"/>
<defs>
<filter id="filter0_f_641_15865" x="-20" y="25" width="298" height="184" filterUnits="userSpaceOnUse" color-interpolation-filters="sRGB">
<feFlood flood-opacity="0" result="BackgroundImageFix"/>
<feBlend mode="normal" in="SourceGraphic" in2="BackgroundImageFix" result="shape"/>
<feGaussianBlur stdDeviation="18.5" result="effect1_foregroundBlur_641_15865"/>
</filter>
<filter id="filter1_ii_641_15865" x="17" y="62" width="224" height="148" filterUnits="userSpaceOnUse" color-interpolation-filters="sRGB">
<feFlood flood-opacity="0" result="BackgroundImageFix"/>
<feBlend mode="normal" in="SourceGraphic" in2="BackgroundImageFix" result="shape"/>
<feColorMatrix in="SourceAlpha" type="matrix" values="0 0 0 0 0 0 0 0 0 0 0 0 0 0 0 0 0 0 127 0" result="hardAlpha"/>
<feOffset dy="-4"/>
<feComposite in2="hardAlpha" operator="arithmetic" k2="-1" k3="1"/>
<feColorMatrix type="matrix" values="0 0 0 0 0 0 0 0 0 0 0 0 0 0 0 0 0 0 0.25 0"/>
<feBlend mode="normal" in2="shape" result="effect1_innerShadow_641_15865"/>
<feColorMatrix in="SourceAlpha" type="matrix" values="0 0 0 0 0 0 0 0 0 0 0 0 0 0 0 0 0 0 127 0" result="hardAlpha"/>
<feOffset dy="4"/>
<feComposite in2="hardAlpha" operator="arithmetic" k2="-1" k3="1"/>
<feColorMatrix type="matrix" values="0 0 0 0 1 0 0 0 0 1 0 0 0 0 1 0 0 0 0.25 0"/>
<feBlend mode="normal" in2="effect1_innerShadow_641_15865" result="effect2_innerShadow_641_15865"/>
</filter>
<filter id="filter2_i_641_15865" x="96" y="39.75" width="66" height="14.25" filterUnits="userSpaceOnUse" color-interpolation-filters="sRGB">
<feFlood flood-opacity="0" result="BackgroundImageFix"/>
<feBlend mode="normal" in="SourceGraphic" in2="BackgroundImageFix" result="shape"/>
<feColorMatrix in="SourceAlpha" type="matrix" values="0 0 0 0 0 0 0 0 0 0 0 0 0 0 0 0 0 0 127 0" result="hardAlpha"/>
<feMorphology radius="0.25" operator="dilate" in="SourceAlpha" result="effect1_innerShadow_641_15865"/>
<feOffset dy="-0.25"/>
<feGaussianBlur stdDeviation="0.25"/>
<feComposite in2="hardAlpha" operator="arithmetic" k2="-1" k3="1"/>
<feColorMatrix type="matrix" values="0 0 0 0 0 0 0 0 0 0 0 0 0 0 0 0 0 0 0.25 0"/>
<feBlend mode="normal" in2="shape" result="effect1_innerShadow_641_15865"/>
</filter>
<linearGradient id="paint0_linear_641_15865" x1="17" y1="34" x2="197.768" y2="215.142" gradientUnits="userSpaceOnUse">
<stop stop-color="#05815D"/>
<stop offset="1" stop-color="#0C575F"/>
</linearGradient>
<linearGradient id="paint1_linear_641_15865" x1="129" y1="62" x2="129" y2="210" gradientUnits="userSpaceOnUse">
<stop stop-color="#0766B7"/>
<stop offset="1" stop-color="#243A5F"/>
</linearGradient>
<linearGradient id="paint2_linear_641_15865" x1="129" y1="40" x2="129" y2="83" gradientUnits="userSpaceOnUse">
<stop stop-color="#C4C4C4"/>
<stop offset="0.0001" stop-color="#3BDBFE"/>
<stop offset="1" stop-color="#0290D0"/>
</linearGradient>
<linearGradient id="paint3_linear_641_15865" x1="129" y1="40" x2="129" y2="83" gradientUnits="userSpaceOnUse">
<stop stop-color="#C4C4C4"/>
<stop offset="0.0001" stop-color="#3BDBFE"/>
<stop offset="1" stop-color="#0290D0"/>
</linearGradient>
<linearGradient id="paint4_linear_641_15865" x1="129" y1="40" x2="129" y2="54" gradientUnits="userSpaceOnUse">
<stop stop-color="#1EB5FD"/>
<stop offset="1" stop-color="#048FF2"/>
</linearGradient>
</defs>
</svg>
