<svg width="256" height="256" viewBox="0 0 256 256" fill="none" xmlns="http://www.w3.org/2000/svg">
<g clip-path="url(#clip0_4312_14081)">
<path d="M104.425 42.3784C100.056 37.0733 93.5437 34 86.6712 34H29C22.3726 34 17 39.3726 17 46V160C17 166.627 22.3726 172 29 172H229C235.627 172 241 166.627 241 160V70.1371C241 63.5097 235.627 58.1371 229 58.1371H117.404L104.425 42.3784Z" fill="url(#paint0_linear_4312_14081)"/>
<mask id="mask0_4312_14081" style="mask-type:alpha" maskUnits="userSpaceOnUse" x="17" y="34" width="224" height="138">
<path d="M86.6709 34C93.5434 34 100.057 37.0729 104.426 42.3779L117.403 58.1367H229C235.627 58.1367 241 63.5095 241 70.1367V160C241 166.627 235.627 172 229 172H29C22.3726 172 17 166.627 17 160V46C17 39.3726 22.3726 34 29 34H86.6709Z" fill="url(#paint1_linear_4312_14081)"/>
</mask>
<g mask="url(#mask0_4312_14081)">
<g filter="url(#filter0_f_4312_14081)" style="mix-blend-mode:multiply">
<path d="M241 160C241 166.627 235.627 172 229 172H29C22.3726 172 17 166.627 17 160V86C17 79.3726 22.3726 74 29 74H92.79C97.7649 73.9999 102.605 72.3865 106.586 69.4023L116.46 62H229C235.627 62 241 67.3726 241 74V160Z" fill="black" fill-opacity="0.3"/>
</g>
</g>
<g filter="url(#filter1_ii_4312_14081)">
<path d="M241 198C241 204.627 235.627 210 229 210H29C22.3726 210 17 204.627 17 198V86C17 79.3726 22.3726 74 29 74H92.79C97.7649 73.9999 102.605 72.3865 106.586 69.4023L116.46 62H229C235.627 62 241 67.3726 241 74V198Z" fill="url(#paint2_linear_4312_14081)"/>
</g>
<g clip-path="url(#clip1_4312_14081)">
<path d="M99.5996 156.458L132.078 117.056L169.196 142.67V168.931C169.196 173.38 165.554 177 161.076 177H113.519C105.84 177 99.5996 170.798 99.5996 163.167V156.458Z" fill="url(#paint3_radial_4312_14081)"/>
<path d="M99.5996 128.675C99.5996 122.935 104.263 118.3 110.039 118.3H157.341L169.196 112.444V141.264C169.196 145.714 165.554 149.333 161.076 149.333H113.519C105.84 149.333 99.5996 155.535 99.5996 163.167V128.675Z" fill="url(#paint4_linear_4312_14081)"/>
<path d="M99.5996 128.675C99.5996 122.935 104.263 118.3 110.039 118.3H157.341L169.196 112.444V141.264C169.196 145.714 165.554 149.333 161.076 149.333H113.519C105.84 149.333 99.5996 155.535 99.5996 163.167V128.675Z" fill="url(#paint5_radial_4312_14081)" fill-opacity="0.6"/>
<path d="M99.5996 128.675C99.5996 122.935 104.263 118.3 110.039 118.3H157.341L169.196 112.444V141.264C169.196 145.714 165.554 149.333 161.076 149.333H113.519C105.84 149.333 99.5996 155.535 99.5996 163.167V128.675Z" fill="url(#paint6_radial_4312_14081)" fill-opacity="0.1"/>
<path d="M99.5996 107.833C99.5996 100.202 105.84 94 113.519 94H161.076C165.554 94 169.196 97.6197 169.196 102.069V113.597C169.196 118.047 165.554 121.667 161.076 121.667H113.519C105.84 121.667 99.5996 127.869 99.5996 135.5V107.833Z" fill="url(#paint7_linear_4312_14081)"/>
<path d="M99.5996 107.833C99.5996 100.202 105.84 94 113.519 94H161.076C165.554 94 169.196 97.6197 169.196 102.069V113.597C169.196 118.047 165.554 121.667 161.076 121.667H113.519C105.84 121.667 99.5996 127.869 99.5996 135.5V107.833Z" fill="url(#paint8_radial_4312_14081)" fill-opacity="0.8"/>
<path d="M117.578 133.194H95.5396C91.3756 133.194 88 136.549 88 140.687V162.59C88 166.728 91.3756 170.083 95.5396 170.083H117.578C121.742 170.083 125.118 166.728 125.118 162.59V140.687C125.118 136.549 121.742 133.194 117.578 133.194Z" fill="url(#paint9_radial_4312_14081)"/>
<g filter="url(#filter2_dd_4312_14081)">
<path d="M117.578 133.194H95.5396C91.3756 133.194 88 136.549 88 140.687V162.59C88 166.728 91.3756 170.083 95.5396 170.083H117.578C121.742 170.083 125.118 166.728 125.118 162.59V140.687C125.118 136.549 121.742 133.194 117.578 133.194Z" fill="url(#paint10_radial_4312_14081)" fill-opacity="0.65" shape-rendering="crispEdges"/>
</g>
<path d="M119.296 141.103L114.726 162.175H109.274L106.583 149.541L103.753 162.198H98.2312L93.8467 141.126H98.3472L101.061 155.028L103.753 141.126H109.274L112.081 155.028L114.726 141.126H119.296V141.103Z" fill="#042398"/>
</g>
</g>
<defs>
<filter id="filter0_f_4312_14081" x="-20" y="25" width="298" height="184" filterUnits="userSpaceOnUse" color-interpolation-filters="sRGB">
<feFlood flood-opacity="0" result="BackgroundImageFix"/>
<feBlend mode="normal" in="SourceGraphic" in2="BackgroundImageFix" result="shape"/>
<feGaussianBlur stdDeviation="18.5" result="effect1_foregroundBlur_4312_14081"/>
</filter>
<filter id="filter1_ii_4312_14081" x="17" y="62" width="224" height="148" filterUnits="userSpaceOnUse" color-interpolation-filters="sRGB">
<feFlood flood-opacity="0" result="BackgroundImageFix"/>
<feBlend mode="normal" in="SourceGraphic" in2="BackgroundImageFix" result="shape"/>
<feColorMatrix in="SourceAlpha" type="matrix" values="0 0 0 0 0 0 0 0 0 0 0 0 0 0 0 0 0 0 127 0" result="hardAlpha"/>
<feOffset dy="4"/>
<feComposite in2="hardAlpha" operator="arithmetic" k2="-1" k3="1"/>
<feColorMatrix type="matrix" values="0 0 0 0 1 0 0 0 0 1 0 0 0 0 1 0 0 0 0.25 0"/>
<feBlend mode="normal" in2="shape" result="effect1_innerShadow_4312_14081"/>
<feColorMatrix in="SourceAlpha" type="matrix" values="0 0 0 0 0 0 0 0 0 0 0 0 0 0 0 0 0 0 127 0" result="hardAlpha"/>
<feOffset dy="-4"/>
<feComposite in2="hardAlpha" operator="arithmetic" k2="-1" k3="1"/>
<feColorMatrix type="matrix" values="0 0 0 0 0 0 0 0 0 0 0 0 0 0 0 0 0 0 0.9 0"/>
<feBlend mode="soft-light" in2="effect1_innerShadow_4312_14081" result="effect2_innerShadow_4312_14081"/>
</filter>
<filter id="filter2_dd_4312_14081" x="83" y="128.194" width="51.1182" height="50.8887" filterUnits="userSpaceOnUse" color-interpolation-filters="sRGB">
<feFlood flood-opacity="0" result="BackgroundImageFix"/>
<feColorMatrix in="SourceAlpha" type="matrix" values="0 0 0 0 0 0 0 0 0 0 0 0 0 0 0 0 0 0 127 0" result="hardAlpha"/>
<feOffset dx="2" dy="2"/>
<feGaussianBlur stdDeviation="3.5"/>
<feComposite in2="hardAlpha" operator="out"/>
<feColorMatrix type="matrix" values="0 0 0 0 0 0 0 0 0 0 0 0 0 0 0 0 0 0 0.25 0"/>
<feBlend mode="normal" in2="BackgroundImageFix" result="effect1_dropShadow_4312_14081"/>
<feColorMatrix in="SourceAlpha" type="matrix" values="0 0 0 0 0 0 0 0 0 0 0 0 0 0 0 0 0 0 127 0" result="hardAlpha"/>
<feOffset dx="2" dy="2"/>
<feGaussianBlur stdDeviation="3.5"/>
<feComposite in2="hardAlpha" operator="out"/>
<feColorMatrix type="matrix" values="0 0 0 0 0 0 0 0 0 0 0 0 0 0 0 0 0 0 0.25 0"/>
<feBlend mode="normal" in2="effect1_dropShadow_4312_14081" result="effect2_dropShadow_4312_14081"/>
<feBlend mode="normal" in="SourceGraphic" in2="effect2_dropShadow_4312_14081" result="shape"/>
</filter>
<linearGradient id="paint0_linear_4312_14081" x1="17" y1="34" x2="197.768" y2="215.142" gradientUnits="userSpaceOnUse">
<stop stop-color="#01198F"/>
</linearGradient>
<linearGradient id="paint1_linear_4312_14081" x1="17" y1="34" x2="197.768" y2="215.142" gradientUnits="userSpaceOnUse">
<stop stop-color="#05815D"/>
<stop offset="1" stop-color="#0C575F"/>
</linearGradient>
<linearGradient id="paint2_linear_4312_14081" x1="176.439" y1="200.973" x2="119.815" y2="52.5335" gradientUnits="userSpaceOnUse">
<stop stop-color="#01198F"/>
<stop offset="1" stop-color="#1150EA"/>
</linearGradient>
<radialGradient id="paint3_radial_4312_14081" cx="0" cy="0" r="1" gradientUnits="userSpaceOnUse" gradientTransform="translate(171.782 176.456) scale(110.356 46.4569)">
<stop offset="0.18" stop-color="#6290FF"/>
<stop offset="0.57" stop-color="#537AE1"/>
</radialGradient>
<linearGradient id="paint4_linear_4312_14081" x1="99.5996" y1="137.805" x2="152.887" y2="137.805" gradientUnits="userSpaceOnUse">
<stop stop-color="#C7E8FF"/>
<stop offset="0.26" stop-color="#5CC0FF"/>
</linearGradient>
<radialGradient id="paint5_radial_4312_14081" cx="0" cy="0" r="1" gradientTransform="matrix(-46.928 49.0607 121.598 114.88 163.407 126.453)" gradientUnits="userSpaceOnUse">
<stop offset="0.14" stop-color="#F5DEFF"/>
<stop offset="0.83" stop-color="#98C8FF" stop-opacity="0"/>
</radialGradient>
<radialGradient id="paint6_radial_4312_14081" cx="0" cy="0" r="1" gradientUnits="userSpaceOnUse" gradientTransform="translate(161.835 141.261) rotate(90) scale(42.9294 235.815)">
<stop offset="0.28" stop-color="#A87FB9" stop-opacity="0"/>
<stop offset="1" stop-color="#EAC5F9"/>
</radialGradient>
<linearGradient id="paint7_linear_4312_14081" x1="99.5996" y1="114.243" x2="169.196" y2="115.41" gradientUnits="userSpaceOnUse">
<stop stop-color="#F7FDFF"/>
<stop offset="0.2" stop-color="#D0F5FF"/>
</linearGradient>
<radialGradient id="paint8_radial_4312_14081" cx="0" cy="0" r="1" gradientTransform="matrix(-66.6192 15.468 37.282 158.594 166.897 86.9615)" gradientUnits="userSpaceOnUse">
<stop offset="0.06" stop-color="#E4A7FE"/>
<stop offset="0.54" stop-color="#E4A7FE" stop-opacity="0"/>
</radialGradient>
<radialGradient id="paint9_radial_4312_14081" cx="0" cy="0" r="1" gradientTransform="matrix(37.1222 36.8931 37.1222 -36.8931 87.5925 128.286)" gradientUnits="userSpaceOnUse">
<stop offset="0.08" stop-color="#F2F7FF"/>
<stop offset="0.87" stop-color="#DDE3FF"/>
</radialGradient>
<radialGradient id="paint10_radial_4312_14081" cx="0" cy="0" r="1" gradientUnits="userSpaceOnUse" gradientTransform="translate(113.135 155.217) rotate(90) scale(25.8222 29.6248)">
<stop offset="0.59" stop-color="#DCE7FF" stop-opacity="0"/>
<stop offset="0.97" stop-color="#BBDBFC"/>
</radialGradient>
<clipPath id="clip0_4312_14081">
<rect width="256" height="256" fill="white"/>
</clipPath>
<clipPath id="clip1_4312_14081">
<rect width="81.1956" height="83" fill="white" transform="translate(88 94)"/>
</clipPath>
</defs>
</svg>
