<svg width="256" height="256" viewBox="0 0 256 256" fill="none" xmlns="http://www.w3.org/2000/svg">
<path fill-rule="evenodd" clip-rule="evenodd" d="M104.425 42.3784C100.056 37.0733 93.5437 34 86.6712 34H29C22.3726 34 17 39.3726 17 46V58.1371V68.2V160C17 166.627 22.3726 172 29 172H229C235.627 172 241 166.627 241 160V70.1371C241 63.5097 235.627 58.1371 229 58.1371H117.404L104.425 42.3784Z" fill="url(#paint0_linear_955_21296)"/>
<mask id="mask0_955_21296" style="mask-type:alpha" maskUnits="userSpaceOnUse" x="17" y="34" width="224" height="138">
<path fill-rule="evenodd" clip-rule="evenodd" d="M104.425 42.3784C100.056 37.0733 93.5437 34 86.6712 34H29C22.3726 34 17 39.3726 17 46V58.1371V68.2V160C17 166.627 22.3726 172 29 172H229C235.627 172 241 166.627 241 160V70.1371C241 63.5097 235.627 58.1371 229 58.1371H117.404L104.425 42.3784Z" fill="url(#paint1_linear_955_21296)"/>
</mask>
<g mask="url(#mask0_955_21296)">
<g style="mix-blend-mode:multiply" filter="url(#filter0_f_955_21296)">
<path fill-rule="evenodd" clip-rule="evenodd" d="M92.789 74C97.7642 74 102.605 72.3868 106.586 69.4024L116.459 62H229C235.627 62 241 67.3726 241 74V108V160C241 166.627 235.627 172 229 172H29C22.3726 172 17 166.627 17 160L17 108V86C17 79.3726 22.3726 74 29 74H87H92.789Z" fill="black" fill-opacity="0.3"/>
</g>
</g>
<g filter="url(#filter1_ii_955_21296)">
<path fill-rule="evenodd" clip-rule="evenodd" d="M92.789 74C97.7642 74 102.605 72.3868 106.586 69.4024L116.459 62H229C235.627 62 241 67.3726 241 74V108V198C241 204.627 235.627 210 229 210H29C22.3726 210 17 204.627 17 198L17 108V86C17 79.3726 22.3726 74 29 74H87H92.789Z" fill="url(#paint2_linear_955_21296)"/>
</g>
<path d="M77.3369 136.412C78.9392 142.663 82.2894 150.626 88.9413 159.427C99.1862 172.961 112.478 182.987 127.068 191.399C127.59 191.703 128.124 191.8 128.756 191.8V136.412H77.3369Z" fill="#0370C8"/>
<path d="M76.0253 126.689C76.0132 129.068 76.3167 132.382 77.3363 136.412H128.755V81C123.56 81 119.105 82.3838 114.941 84.9207C111.239 87.1785 107.828 89.8732 104.029 91.9732C96.4665 96.161 88.2852 97.6419 79.7761 97.6661C77.045 97.6783 76.0011 98.71 76.0011 101.417C75.9889 109.841 76.086 118.265 76.0253 126.689Z" fill="#33BFF0"/>
<path d="M180.173 136.412C178.571 142.663 175.221 150.626 168.569 159.427C158.324 172.961 145.033 182.987 130.442 191.399C129.92 191.703 129.362 191.8 128.755 191.8V136.412H180.173Z" fill="#0F5094"/>
<path d="M181.484 126.689C181.497 129.068 181.193 132.382 180.173 136.412H128.755V81C133.926 81 138.405 82.3838 142.568 84.9207C146.271 87.1785 149.682 89.8732 153.481 91.9732C161.043 96.161 169.225 97.6419 177.734 97.6661C180.465 97.6783 181.509 98.71 181.509 101.417C181.521 109.841 181.424 118.265 181.484 126.689Z" fill="#0883D9"/>
<defs>
<filter id="filter0_f_955_21296" x="-20" y="25" width="298" height="184" filterUnits="userSpaceOnUse" color-interpolation-filters="sRGB">
<feFlood flood-opacity="0" result="BackgroundImageFix"/>
<feBlend mode="normal" in="SourceGraphic" in2="BackgroundImageFix" result="shape"/>
<feGaussianBlur stdDeviation="18.5" result="effect1_foregroundBlur_955_21296"/>
</filter>
<filter id="filter1_ii_955_21296" x="17" y="62" width="224" height="148" filterUnits="userSpaceOnUse" color-interpolation-filters="sRGB">
<feFlood flood-opacity="0" result="BackgroundImageFix"/>
<feBlend mode="normal" in="SourceGraphic" in2="BackgroundImageFix" result="shape"/>
<feColorMatrix in="SourceAlpha" type="matrix" values="0 0 0 0 0 0 0 0 0 0 0 0 0 0 0 0 0 0 127 0" result="hardAlpha"/>
<feOffset dy="4"/>
<feComposite in2="hardAlpha" operator="arithmetic" k2="-1" k3="1"/>
<feColorMatrix type="matrix" values="0 0 0 0 1 0 0 0 0 1 0 0 0 0 1 0 0 0 0.25 0"/>
<feBlend mode="normal" in2="shape" result="effect1_innerShadow_955_21296"/>
<feColorMatrix in="SourceAlpha" type="matrix" values="0 0 0 0 0 0 0 0 0 0 0 0 0 0 0 0 0 0 127 0" result="hardAlpha"/>
<feOffset dy="-4"/>
<feComposite in2="hardAlpha" operator="arithmetic" k2="-1" k3="1"/>
<feColorMatrix type="matrix" values="0 0 0 0 0 0 0 0 0 0 0 0 0 0 0 0 0 0 0.9 0"/>
<feBlend mode="soft-light" in2="effect1_innerShadow_955_21296" result="effect2_innerShadow_955_21296"/>
</filter>
<linearGradient id="paint0_linear_955_21296" x1="129" y1="34" x2="129" y2="172" gradientUnits="userSpaceOnUse">
<stop stop-color="#0F5094"/>
</linearGradient>
<linearGradient id="paint1_linear_955_21296" x1="17" y1="34" x2="197.768" y2="215.142" gradientUnits="userSpaceOnUse">
<stop stop-color="#05815D"/>
<stop offset="1" stop-color="#0C575F"/>
</linearGradient>
<linearGradient id="paint2_linear_955_21296" x1="17" y1="62" x2="241" y2="210" gradientUnits="userSpaceOnUse">
<stop stop-color="#E5E9ED"/>
<stop offset="1" stop-color="#A8ADB2"/>
</linearGradient>
</defs>
</svg>
