<svg width="256" height="256" viewBox="0 0 256 256" fill="none" xmlns="http://www.w3.org/2000/svg">
<path fill-rule="evenodd" clip-rule="evenodd" d="M104.425 42.3784C100.056 37.0733 93.5437 34 86.6712 34H29C22.3726 34 17 39.3726 17 46V58.1371V68.2V160C17 166.627 22.3726 172 29 172H229C235.627 172 241 166.627 241 160V70.1371C241 63.5097 235.627 58.1371 229 58.1371H117.404L104.425 42.3784Z" fill="#0076CE"/>
<mask id="mask0_719_16999" style="mask-type:alpha" maskUnits="userSpaceOnUse" x="17" y="34" width="224" height="138">
<path fill-rule="evenodd" clip-rule="evenodd" d="M104.425 42.3784C100.056 37.0733 93.5437 34 86.6712 34H29C22.3726 34 17 39.3726 17 46V58.1371V68.2V160C17 166.627 22.3726 172 29 172H229C235.627 172 241 166.627 241 160V70.1371C241 63.5097 235.627 58.1371 229 58.1371H117.404L104.425 42.3784Z" fill="url(#paint0_linear_719_16999)"/>
</mask>
<g mask="url(#mask0_719_16999)">
<g style="mix-blend-mode:multiply" filter="url(#filter0_f_719_16999)">
<path fill-rule="evenodd" clip-rule="evenodd" d="M92.789 74C97.7642 74 102.605 72.3868 106.586 69.4024L116.459 62H229C235.627 62 241 67.3726 241 74V108V160C241 166.627 235.627 172 229 172H29C22.3726 172 17 166.627 17 160L17 108V86C17 79.3726 22.3726 74 29 74H87H92.789Z" fill="black" fill-opacity="0.3"/>
</g>
</g>
<g filter="url(#filter1_ii_719_16999)">
<path fill-rule="evenodd" clip-rule="evenodd" d="M92.789 74C97.7642 74 102.605 72.3868 106.586 69.4024L116.459 62H229C235.627 62 241 67.3726 241 74V108V198C241 204.627 235.627 210 229 210H29C22.3726 210 17 204.627 17 198L17 108V86C17 79.3726 22.3726 74 29 74H87H92.789Z" fill="url(#paint1_linear_719_16999)"/>
</g>
<path d="M137.432 121.1C137.432 128.818 134.354 136.22 128.875 141.677C123.396 147.134 115.965 150.2 108.216 150.2C100.467 150.2 93.0362 147.134 87.5572 141.677C82.0781 136.22 79 128.818 79 121.1C79 113.382 82.0781 105.981 87.5572 100.523C93.0362 95.0659 100.467 92 108.216 92C115.965 92 123.396 95.0659 128.875 100.523C134.354 105.981 137.432 113.382 137.432 121.1Z" fill="url(#paint2_linear_719_16999)"/>
<path d="M178.149 162.89C178.149 166.713 177.393 170.498 175.925 174.03C174.456 177.562 172.303 180.771 169.589 183.474C166.875 186.177 163.653 188.321 160.108 189.784C156.562 191.247 152.761 192 148.923 192C141.172 192 133.738 188.933 128.257 183.474C122.776 178.015 119.697 170.611 119.697 162.89C119.697 155.17 122.776 147.766 128.257 142.306C133.738 136.847 141.172 133.78 148.923 133.78C152.761 133.78 156.562 134.533 160.108 135.996C163.653 137.459 166.875 139.603 169.589 142.306C172.303 145.01 174.456 148.219 175.925 151.75C177.393 155.282 178.149 159.067 178.149 162.89Z" fill="url(#paint3_linear_719_16999)"/>
<path opacity="0.05" fill-rule="evenodd" clip-rule="evenodd" d="M79.1064 123.59C79.5602 129.089 81.5638 134.346 84.8848 138.753C88.2059 143.16 92.7085 146.536 97.871 148.491C103.034 150.445 108.645 150.898 114.054 149.796C119.463 148.694 124.45 146.083 128.435 142.266C132.42 138.448 135.242 133.58 136.572 128.226C137.902 122.871 137.687 117.25 135.952 112.013C134.216 106.776 131.031 102.137 126.766 98.6346C122.5 95.1323 117.329 92.9094 111.851 92.2236C104.414 94.71 97.6197 98.8124 91.9578 104.236C86.296 109.659 81.907 116.269 79.1064 123.59Z" fill="black"/>
<path opacity="0.05" fill-rule="evenodd" clip-rule="evenodd" d="M178.072 160.8C177.691 155.234 175.722 149.895 172.399 145.413C169.077 140.93 164.539 137.493 159.323 135.507C154.106 133.52 148.43 133.069 142.965 134.205C137.5 135.341 132.475 138.018 128.485 141.919C124.494 145.819 121.705 150.78 120.447 156.215C119.189 161.65 119.515 167.331 121.386 172.586C123.258 177.842 126.596 182.452 131.007 185.871C135.417 189.29 140.715 191.375 146.275 191.88C153.509 189.305 160.099 185.193 165.588 179.827C171.078 174.46 175.337 167.968 178.072 160.796V160.8Z" fill="black"/>
<path opacity="0.1" fill-rule="evenodd" clip-rule="evenodd" d="M80.4746 130.244C82.0092 134.935 84.7093 139.161 88.3224 142.525C91.9355 145.89 96.3435 148.285 101.134 149.484C105.925 150.684 110.942 150.649 115.716 149.385C120.49 148.12 124.865 145.666 128.431 142.252C131.998 138.838 134.64 134.575 136.111 129.864C137.581 125.152 137.831 120.144 136.838 115.309C135.846 110.475 133.642 105.97 130.434 102.218C127.225 98.4657 123.117 95.5878 118.493 93.8535C109.381 95.7506 100.986 100.168 94.2636 106.602C87.5417 113.036 82.7639 121.228 80.4746 130.244Z" fill="black"/>
<path opacity="0.1" fill-rule="evenodd" clip-rule="evenodd" d="M176.744 153.96C175.232 149.214 172.53 144.932 168.895 141.524C165.259 138.116 160.811 135.694 155.975 134.489C151.138 133.284 146.073 133.336 141.262 134.64C136.451 135.944 132.054 138.456 128.489 141.938C124.924 145.42 122.31 149.756 120.896 154.532C119.482 159.309 119.314 164.368 120.409 169.228C121.504 174.088 123.825 178.587 127.151 182.297C130.478 186.007 134.699 188.805 139.413 190.424C148.408 188.406 156.665 183.927 163.258 177.487C169.851 171.048 174.52 162.901 176.744 153.96Z" fill="black"/>
<path opacity="0.1" fill-rule="evenodd" clip-rule="evenodd" d="M81.5479 133.004C83.4488 137.284 86.3528 141.045 90.0146 143.967C93.6764 146.889 97.9883 148.888 102.586 149.794C107.184 150.7 111.932 150.486 116.43 149.172C120.927 147.857 125.042 145.48 128.427 142.241C131.811 139.002 134.366 134.996 135.875 130.563C137.384 126.129 137.803 121.398 137.096 116.768C136.389 112.139 134.578 107.747 131.815 103.965C129.051 100.182 125.418 97.1202 121.221 95.0371C111.514 96.5469 102.506 100.997 95.4108 107.787C88.3161 114.576 83.4773 123.378 81.5479 133.004Z" fill="black"/>
<path opacity="0.1" fill-rule="evenodd" clip-rule="evenodd" d="M175.668 151.143C173.777 146.813 170.862 143.006 167.174 140.05C163.486 137.094 159.135 135.077 154.495 134.172C149.854 133.267 145.064 133.502 140.534 134.855C136.005 136.208 131.871 138.64 128.49 141.942C125.108 145.244 122.579 149.317 121.12 153.811C119.661 158.304 119.315 163.085 120.113 167.742C120.91 172.399 122.827 176.793 125.699 180.546C128.57 184.299 132.311 187.3 136.599 189.29C146.22 187.656 155.114 183.129 162.094 176.314C169.075 169.498 173.81 160.717 175.668 151.143Z" fill="black"/>
<path d="M174.854 142.217C174.854 148.27 173.657 154.263 171.331 159.855C169.006 165.447 165.597 170.528 161.3 174.808C157.003 179.087 151.902 182.482 146.288 184.799C140.674 187.115 134.656 188.307 128.58 188.307C122.503 188.307 116.486 187.115 110.871 184.799C105.257 182.482 100.156 179.087 95.859 174.808C91.5621 170.528 88.1535 165.447 85.8281 159.855C83.5026 154.263 82.3057 148.27 82.3057 142.217C82.3057 136.164 83.5026 130.171 85.8281 124.579C88.1535 118.987 91.5621 113.906 95.859 109.626C100.156 105.347 105.257 101.952 110.871 99.6353C116.486 97.3191 122.503 96.127 128.58 96.127C134.656 96.127 140.674 97.3191 146.288 99.6353C151.902 101.952 157.003 105.347 161.3 109.626C165.597 113.906 169.006 118.987 171.331 124.579C173.657 130.171 174.854 136.164 174.854 142.217Z" fill="url(#paint4_linear_719_16999)"/>
<path fill-rule="evenodd" clip-rule="evenodd" d="M115.568 140.617C113.698 139.387 112.137 137.742 111.008 135.81C109.918 133.769 109.38 131.479 109.447 129.167C109.364 126.232 110.367 123.37 112.262 121.127C114.232 118.874 116.764 117.184 119.6 116.227C122.685 115.138 125.935 114.591 129.207 114.61C131.347 114.59 133.485 114.754 135.598 115.1C137.11 115.333 138.595 115.716 140.031 116.243C141.349 116.689 142.54 117.449 143.5 118.457C144.207 119.286 144.587 120.344 144.57 121.433C144.595 121.999 144.509 122.565 144.315 123.097C144.122 123.63 143.825 124.119 143.443 124.537C143.081 124.922 142.641 125.226 142.153 125.429C141.665 125.633 141.14 125.731 140.611 125.717C139.884 125.711 139.166 125.549 138.506 125.243C136.88 124.516 135.205 123.903 133.493 123.41C131.917 122.995 130.293 122.793 128.663 122.81C126.539 122.732 124.438 123.269 122.612 124.357C121.842 124.825 121.212 125.49 120.787 126.285C120.362 127.079 120.158 127.973 120.197 128.873C120.186 130.055 120.636 131.194 121.452 132.05C122.421 133.055 123.566 133.874 124.831 134.467C126.247 135.169 128.36 136.1 131.168 137.26C131.479 137.358 131.782 137.48 132.075 137.623C134.816 138.707 137.444 140.057 139.921 141.653C141.877 142.928 143.526 144.62 144.75 146.607C145.956 148.695 146.56 151.076 146.495 153.487C146.596 156.438 145.75 159.344 144.08 161.78C142.38 164.087 140.027 165.831 137.325 166.79C134.07 167.953 130.629 168.513 127.172 168.443C122.422 168.61 117.694 167.716 113.333 165.827C112.218 165.331 111.24 164.571 110.484 163.613C109.857 162.736 109.531 161.678 109.557 160.6C109.526 160.031 109.619 159.463 109.829 158.933C110.039 158.404 110.362 157.926 110.775 157.533C111.64 156.776 112.764 156.38 113.913 156.427C115.194 156.444 116.452 156.768 117.582 157.37C118.988 158.072 120.096 158.599 120.908 158.95C121.835 159.338 122.795 159.641 123.777 159.857C124.987 160.122 126.223 160.25 127.462 160.237C129.653 160.393 131.834 159.812 133.656 158.587C134.339 158.053 134.884 157.365 135.247 156.579C135.61 155.793 135.781 154.932 135.744 154.067C135.746 152.84 135.279 151.659 134.437 150.767C133.325 149.619 132.022 148.672 130.588 147.967C128.891 147.073 126.505 145.985 123.43 144.7C120.679 143.605 118.045 142.237 115.568 140.617Z" fill="white"/>
<defs>
<filter id="filter0_f_719_16999" x="-20" y="25" width="298" height="184" filterUnits="userSpaceOnUse" color-interpolation-filters="sRGB">
<feFlood flood-opacity="0" result="BackgroundImageFix"/>
<feBlend mode="normal" in="SourceGraphic" in2="BackgroundImageFix" result="shape"/>
<feGaussianBlur stdDeviation="18.5" result="effect1_foregroundBlur_719_16999"/>
</filter>
<filter id="filter1_ii_719_16999" x="17" y="62" width="224" height="148" filterUnits="userSpaceOnUse" color-interpolation-filters="sRGB">
<feFlood flood-opacity="0" result="BackgroundImageFix"/>
<feBlend mode="normal" in="SourceGraphic" in2="BackgroundImageFix" result="shape"/>
<feColorMatrix in="SourceAlpha" type="matrix" values="0 0 0 0 0 0 0 0 0 0 0 0 0 0 0 0 0 0 127 0" result="hardAlpha"/>
<feOffset dy="4"/>
<feComposite in2="hardAlpha" operator="arithmetic" k2="-1" k3="1"/>
<feColorMatrix type="matrix" values="0 0 0 0 1 0 0 0 0 1 0 0 0 0 1 0 0 0 0.25 0"/>
<feBlend mode="normal" in2="shape" result="effect1_innerShadow_719_16999"/>
<feColorMatrix in="SourceAlpha" type="matrix" values="0 0 0 0 0 0 0 0 0 0 0 0 0 0 0 0 0 0 127 0" result="hardAlpha"/>
<feOffset dy="-4"/>
<feComposite in2="hardAlpha" operator="arithmetic" k2="-1" k3="1"/>
<feColorMatrix type="matrix" values="0 0 0 0 0 0 0 0 0 0 0 0 0 0 0 0 0 0 0.9 0"/>
<feBlend mode="soft-light" in2="effect1_innerShadow_719_16999" result="effect2_innerShadow_719_16999"/>
</filter>
<linearGradient id="paint0_linear_719_16999" x1="17" y1="34" x2="197.768" y2="215.142" gradientUnits="userSpaceOnUse">
<stop stop-color="#05815D"/>
<stop offset="1" stop-color="#0C575F"/>
</linearGradient>
<linearGradient id="paint1_linear_719_16999" x1="17" y1="62" x2="241" y2="210" gradientUnits="userSpaceOnUse">
<stop stop-color="white"/>
<stop offset="1" stop-color="#9DBAD7"/>
</linearGradient>
<linearGradient id="paint2_linear_719_16999" x1="103.66" y1="92.3533" x2="112.761" y2="149.849" gradientUnits="userSpaceOnUse">
<stop offset="0.012" stop-color="#00B7F0"/>
<stop offset="0.339" stop-color="#009DE5"/>
<stop offset="0.755" stop-color="#0082D9"/>
<stop offset="1" stop-color="#0078D4"/>
</linearGradient>
<linearGradient id="paint3_linear_719_16999" x1="123.627" y1="177.484" x2="174.2" y2="148.268" gradientUnits="userSpaceOnUse">
<stop stop-color="#0078D4"/>
<stop offset="0.37" stop-color="#007AD5"/>
<stop offset="0.573" stop-color="#0082D9"/>
<stop offset="0.735" stop-color="#0090DF"/>
<stop offset="0.875" stop-color="#00A3E7"/>
<stop offset="1" stop-color="#00BCF2"/>
</linearGradient>
<linearGradient id="paint4_linear_719_16999" x1="110.521" y1="110.964" x2="156.642" y2="190.9" gradientUnits="userSpaceOnUse">
<stop stop-color="#00B7F0"/>
<stop offset="1" stop-color="#007CC1"/>
</linearGradient>
</defs>
</svg>
