<svg width="256" height="256" viewBox="0 0 256 256" fill="none" xmlns="http://www.w3.org/2000/svg">
<path fill-rule="evenodd" clip-rule="evenodd" d="M104.425 42.3784C100.056 37.0733 93.5437 34 86.6712 34H29C22.3726 34 17 39.3726 17 46V58.1371V68.2V160C17 166.627 22.3726 172 29 172H229C235.627 172 241 166.627 241 160V70.1371C241 63.5097 235.627 58.1371 229 58.1371H117.404L104.425 42.3784Z" fill="#103F91"/>
<mask id="mask0_719_17081" style="mask-type:alpha" maskUnits="userSpaceOnUse" x="17" y="34" width="224" height="138">
<path fill-rule="evenodd" clip-rule="evenodd" d="M104.425 42.3784C100.056 37.0733 93.5437 34 86.6712 34H29C22.3726 34 17 39.3726 17 46V58.1371V68.2V160C17 166.627 22.3726 172 29 172H229C235.627 172 241 166.627 241 160V70.1371C241 63.5097 235.627 58.1371 229 58.1371H117.404L104.425 42.3784Z" fill="url(#paint0_linear_719_17081)"/>
</mask>
<g mask="url(#mask0_719_17081)">
<g style="mix-blend-mode:multiply" filter="url(#filter0_f_719_17081)">
<path fill-rule="evenodd" clip-rule="evenodd" d="M92.789 74C97.7642 74 102.605 72.3868 106.586 69.4024L116.459 62H229C235.627 62 241 67.3726 241 74V108V160C241 166.627 235.627 172 229 172H29C22.3726 172 17 166.627 17 160L17 108V86C17 79.3726 22.3726 74 29 74H87H92.789Z" fill="black" fill-opacity="0.3"/>
</g>
</g>
<g filter="url(#filter1_ii_719_17081)">
<path fill-rule="evenodd" clip-rule="evenodd" d="M92.789 74C97.7642 74 102.605 72.3868 106.586 69.4024L116.459 62H229C235.627 62 241 67.3726 241 74V108V198C241 204.627 235.627 210 229 210H29C22.3726 210 17 204.627 17 198L17 108V86C17 79.3726 22.3726 74 29 74H87H92.789Z" fill="url(#paint1_linear_719_17081)"/>
</g>
<path d="M132.27 104.44H172.73C175.088 104.44 177 106.361 177 108.73V147.031C177 149.4 175.088 151.321 172.73 151.321H132.27C129.912 151.321 128 149.4 128 147.031V108.73C128 106.361 129.912 104.44 132.27 104.44Z" fill="#2B7CD3"/>
<path d="M153.667 104.44C153.672 105.578 153.217 106.669 152.407 107.464L135 124.95L133.344 126.614C133.129 126.822 132.903 127.018 132.667 127.2C131.969 127.644 131.16 127.879 130.334 127.88C129.201 127.885 128.115 127.428 127.324 126.614L108.26 107.464C106.821 106.039 106.587 103.79 107.7 102.096C107.867 101.854 108.054 101.626 108.26 101.416L127.324 82.2656C128.962 80.5956 131.637 80.5758 133.299 82.2212C133.314 82.2359 133.329 82.2507 133.344 82.2656L152.407 101.416C153.217 102.211 153.672 103.302 153.667 104.44Z" fill="#41A5EE"/>
<path d="M153.667 151.32C153.666 164.266 143.219 174.76 130.332 174.759C121.997 174.759 114.295 170.292 110.127 163.04C109.678 162.291 109.288 161.507 108.96 160.696C108.616 159.934 108.32 159.151 108.073 158.352C104.207 146.003 111.039 132.843 123.332 128.96C125.597 128.244 127.958 127.88 130.333 127.88C131.127 127.88 131.897 127.927 132.667 127.997C133.451 128.065 134.23 128.182 135 128.349C145.857 130.591 153.653 140.185 153.667 151.32Z" fill="#103F91"/>
<g filter="url(#filter2_d_719_17081)">
<path d="M83.2492 104.44H125.751C128.098 104.44 130 106.343 130 108.69V151.191C130 153.538 128.098 155.44 125.751 155.44H83.2492C80.9024 155.44 79 153.538 79 151.191V108.69C79 106.343 80.9024 104.44 83.2492 104.44Z" fill="#1F63C1"/>
</g>
<path d="M103.162 134.531C103.95 136.862 104.417 138.333 104.565 138.944H104.661C104.803 138.333 105.309 136.758 106.179 134.219L112.417 116H118.152L107.569 144H101.427L91 116H96.8987L103.162 134.531Z" fill="white"/>
<defs>
<filter id="filter0_f_719_17081" x="-20" y="25" width="298" height="184" filterUnits="userSpaceOnUse" color-interpolation-filters="sRGB">
<feFlood flood-opacity="0" result="BackgroundImageFix"/>
<feBlend mode="normal" in="SourceGraphic" in2="BackgroundImageFix" result="shape"/>
<feGaussianBlur stdDeviation="18.5" result="effect1_foregroundBlur_719_17081"/>
</filter>
<filter id="filter1_ii_719_17081" x="17" y="62" width="224" height="148" filterUnits="userSpaceOnUse" color-interpolation-filters="sRGB">
<feFlood flood-opacity="0" result="BackgroundImageFix"/>
<feBlend mode="normal" in="SourceGraphic" in2="BackgroundImageFix" result="shape"/>
<feColorMatrix in="SourceAlpha" type="matrix" values="0 0 0 0 0 0 0 0 0 0 0 0 0 0 0 0 0 0 127 0" result="hardAlpha"/>
<feOffset dy="4"/>
<feComposite in2="hardAlpha" operator="arithmetic" k2="-1" k3="1"/>
<feColorMatrix type="matrix" values="0 0 0 0 1 0 0 0 0 1 0 0 0 0 1 0 0 0 0.25 0"/>
<feBlend mode="normal" in2="shape" result="effect1_innerShadow_719_17081"/>
<feColorMatrix in="SourceAlpha" type="matrix" values="0 0 0 0 0 0 0 0 0 0 0 0 0 0 0 0 0 0 127 0" result="hardAlpha"/>
<feOffset dy="-4"/>
<feComposite in2="hardAlpha" operator="arithmetic" k2="-1" k3="1"/>
<feColorMatrix type="matrix" values="0 0 0 0 0 0 0 0 0 0 0 0 0 0 0 0 0 0 0.9 0"/>
<feBlend mode="soft-light" in2="effect1_innerShadow_719_17081" result="effect2_innerShadow_719_17081"/>
</filter>
<filter id="filter2_d_719_17081" x="79" y="104.44" width="59" height="59" filterUnits="userSpaceOnUse" color-interpolation-filters="sRGB">
<feFlood flood-opacity="0" result="BackgroundImageFix"/>
<feColorMatrix in="SourceAlpha" type="matrix" values="0 0 0 0 0 0 0 0 0 0 0 0 0 0 0 0 0 0 127 0" result="hardAlpha"/>
<feOffset dx="4" dy="4"/>
<feGaussianBlur stdDeviation="2"/>
<feComposite in2="hardAlpha" operator="out"/>
<feColorMatrix type="matrix" values="0 0 0 0 0 0 0 0 0 0 0 0 0 0 0 0 0 0 0.15 0"/>
<feBlend mode="normal" in2="BackgroundImageFix" result="effect1_dropShadow_719_17081"/>
<feBlend mode="normal" in="SourceGraphic" in2="effect1_dropShadow_719_17081" result="shape"/>
</filter>
<linearGradient id="paint0_linear_719_17081" x1="17" y1="34" x2="197.768" y2="215.142" gradientUnits="userSpaceOnUse">
<stop stop-color="#05815D"/>
<stop offset="1" stop-color="#0C575F"/>
</linearGradient>
<linearGradient id="paint1_linear_719_17081" x1="17" y1="62" x2="241" y2="210" gradientUnits="userSpaceOnUse">
<stop stop-color="#ECF7FF"/>
<stop offset="1" stop-color="#7FA6E8"/>
</linearGradient>
</defs>
</svg>
