<svg width="256" height="256" viewBox="0 0 256 256" fill="none" xmlns="http://www.w3.org/2000/svg">
<g clip-path="url(#clip0_1710_30008)">
<path fill-rule="evenodd" clip-rule="evenodd" d="M104.425 42.3784C100.056 37.0733 93.5437 34 86.6712 34H29C22.3726 34 17 39.3726 17 46V58.1371V68.2V160C17 166.627 22.3726 172 29 172H229C235.627 172 241 166.627 241 160V70.1371C241 63.5097 235.627 58.1371 229 58.1371H117.404L104.425 42.3784Z" fill="#BDC9D0"/>
<mask id="mask0_1710_30008" style="mask-type:alpha" maskUnits="userSpaceOnUse" x="17" y="34" width="224" height="138">
<path fill-rule="evenodd" clip-rule="evenodd" d="M104.425 42.3784C100.056 37.0733 93.5437 34 86.6712 34H29C22.3726 34 17 39.3726 17 46V58.1371V68.2V160C17 166.627 22.3726 172 29 172H229C235.627 172 241 166.627 241 160V70.1371C241 63.5097 235.627 58.1371 229 58.1371H117.404L104.425 42.3784Z" fill="url(#paint0_linear_1710_30008)"/>
</mask>
<g mask="url(#mask0_1710_30008)">
<g style="mix-blend-mode:multiply" filter="url(#filter0_f_1710_30008)">
<path fill-rule="evenodd" clip-rule="evenodd" d="M92.789 74C97.7642 74 102.605 72.3868 106.586 69.4024L116.459 62H229C235.627 62 241 67.3726 241 74V108V160C241 166.627 235.627 172 229 172H29C22.3726 172 17 166.627 17 160L17 108V86C17 79.3726 22.3726 74 29 74H87H92.789Z" fill="black" fill-opacity="0.3"/>
</g>
</g>
<path fill-rule="evenodd" clip-rule="evenodd" d="M92.789 74C97.7642 74 102.605 72.3868 106.586 69.4024L116.459 62H229C235.627 62 241 67.3726 241 74V108V198C241 204.627 235.627 210 229 210H29C22.3726 210 17 204.627 17 198L17 108V86C17 79.3726 22.3726 74 29 74H87H92.789Z" fill="url(#paint1_linear_1710_30008)"/>
<path fill-rule="evenodd" clip-rule="evenodd" d="M106.64 69.4023C102.659 72.3867 97.8179 74 92.8427 74H29.0537C22.4263 74 17.0537 79.373 17.0537 86V198C17.0537 204.627 22.4263 210 29.0537 210H229.054C235.681 210 241.054 204.627 241.054 198V74C241.054 67.373 235.681 62 229.054 62H116.513L106.64 69.4023ZM107.04 72.2595C103.13 75.1632 98.3757 77.7329 93.4893 77.7329H31.8394C25.3303 77.7329 20.0537 79.8465 20.0537 87.3514V195.267C20.0537 201.715 25.3303 205.943 31.8394 205.943H129.054H226.268C232.777 205.943 238.054 201.715 238.054 195.267V76.7329C238.054 70.2851 232.777 66.0572 226.268 66.0572H116.737L107.04 72.2595Z" fill="url(#paint2_linear_1710_30008)"/>
<circle cx="198.102" cy="171.898" r="45.5309" fill="url(#paint3_linear_1710_30008)"/>
<path fill-rule="evenodd" clip-rule="evenodd" d="M198 225C227.271 225 251 201.271 251 172C251 142.729 227.271 119 198 119C168.729 119 145 142.729 145 172C145 201.271 168.729 225 198 225ZM198.102 217.429C223.248 217.429 243.633 197.044 243.633 171.898C243.633 146.752 223.248 126.367 198.102 126.367C172.956 126.367 152.571 146.752 152.571 171.898C152.571 197.044 172.956 217.429 198.102 217.429Z" fill="url(#paint4_linear_1710_30008)"/>
<path fill-rule="evenodd" clip-rule="evenodd" d="M214.523 142.93C215.584 143.225 219.297 147.035 219.601 148.142C220.051 149.778 219.898 149.987 214.013 155.747C209.388 160.275 208.586 161.148 208.471 161.783C208.382 162.278 208.44 162.722 208.645 163.113C208.814 163.436 211.203 166.008 213.954 168.828C216.706 171.647 219.062 174.151 219.19 174.39C219.511 174.991 219.483 176.194 219.131 176.859C218.784 177.514 215.219 181.052 214.577 181.379C213.956 181.695 212.757 181.663 212.098 181.313C211.794 181.152 207.713 177.116 203.029 172.344C196.491 165.684 194.453 163.488 194.256 162.891C193.724 161.278 193.696 161.313 203.255 151.895C211.397 143.873 212.622 142.788 213.591 142.739C213.704 142.733 214.123 142.819 214.523 142.93ZM183.634 162.935C183.927 163.131 188.05 167.109 192.795 171.776C202.324 181.146 202.203 180.994 201.527 182.711C201.278 183.341 199.043 185.735 192.558 192.316C183.306 201.705 183.446 201.589 181.788 201.227C180.795 201.01 176.709 196.936 176.53 195.986C176.233 194.399 176.351 194.237 181.97 188.49C187.582 182.752 187.808 182.441 187.31 181.132C187.191 180.818 184.699 178.206 181.773 175.327C176.088 169.736 175.82 169.379 176.234 167.936C176.437 167.228 179.634 163.637 180.645 162.981C181.426 162.474 182.911 162.451 183.634 162.935Z" fill="url(#paint5_linear_1710_30008)"/>
</g>
<defs>
<filter id="filter0_f_1710_30008" x="-20" y="25" width="298" height="184" filterUnits="userSpaceOnUse" color-interpolation-filters="sRGB">
<feFlood flood-opacity="0" result="BackgroundImageFix"/>
<feBlend mode="normal" in="SourceGraphic" in2="BackgroundImageFix" result="shape"/>
<feGaussianBlur stdDeviation="18.5" result="effect1_foregroundBlur_1710_30008"/>
</filter>
<linearGradient id="paint0_linear_1710_30008" x1="17" y1="34" x2="197.768" y2="215.142" gradientUnits="userSpaceOnUse">
<stop stop-color="#05815D"/>
<stop offset="1" stop-color="#0C575F"/>
</linearGradient>
<linearGradient id="paint1_linear_1710_30008" x1="17" y1="62" x2="241" y2="210" gradientUnits="userSpaceOnUse">
<stop stop-color="#4EE1E7"/>
<stop offset="1" stop-color="#096FBE"/>
</linearGradient>
<linearGradient id="paint2_linear_1710_30008" x1="129.054" y1="62" x2="129.054" y2="210" gradientUnits="userSpaceOnUse">
<stop stop-color="#61666D"/>
<stop offset="1" stop-color="#3B4E59"/>
</linearGradient>
<linearGradient id="paint3_linear_1710_30008" x1="198.102" y1="126.367" x2="198.102" y2="217.429" gradientUnits="userSpaceOnUse">
<stop stop-color="#E95D20"/>
<stop offset="1" stop-color="#C6412E"/>
</linearGradient>
<linearGradient id="paint4_linear_1710_30008" x1="198" y1="119" x2="198" y2="225" gradientUnits="userSpaceOnUse">
<stop stop-color="#F0F0F1"/>
<stop offset="1" stop-color="#C9CDD1"/>
</linearGradient>
<linearGradient id="paint5_linear_1710_30008" x1="197.931" y1="142.738" x2="197.931" y2="201.345" gradientUnits="userSpaceOnUse">
<stop stop-color="#F0F0F1"/>
<stop offset="1" stop-color="#C9CDD1"/>
</linearGradient>
<clipPath id="clip0_1710_30008">
<rect width="256" height="256" fill="white"/>
</clipPath>
</defs>
</svg>
