<svg width="256" height="256" viewBox="0 0 256 256" fill="none" xmlns="http://www.w3.org/2000/svg">
<g clip-path="url(#clip0_804_19371)">
<path fill-rule="evenodd" clip-rule="evenodd" d="M104.425 42.3784C100.056 37.0733 93.5437 34 86.6712 34H29C22.3726 34 17 39.3726 17 46V58.1371V68.2V160C17 166.627 22.3726 172 29 172H229C235.627 172 241 166.627 241 160V70.1371C241 63.5097 235.627 58.1371 229 58.1371H117.404L104.425 42.3784Z" fill="#333333"/>
<mask id="mask0_804_19371" style="mask-type:alpha" maskUnits="userSpaceOnUse" x="17" y="34" width="224" height="138">
<path fill-rule="evenodd" clip-rule="evenodd" d="M104.425 42.3784C100.056 37.0733 93.5437 34 86.6712 34H29C22.3726 34 17 39.3726 17 46V58.1371V68.2V160C17 166.627 22.3726 172 29 172H229C235.627 172 241 166.627 241 160V70.1371C241 63.5097 235.627 58.1371 229 58.1371H117.404L104.425 42.3784Z" fill="url(#paint0_linear_804_19371)"/>
</mask>
<g mask="url(#mask0_804_19371)">
<g style="mix-blend-mode:multiply" filter="url(#filter0_f_804_19371)">
<path fill-rule="evenodd" clip-rule="evenodd" d="M92.789 74C97.7642 74 102.605 72.3868 106.586 69.4024L116.459 62H229C235.627 62 241 67.3726 241 74V108V160C241 166.627 235.627 172 229 172H29C22.3726 172 17 166.627 17 160L17 108V86C17 79.3726 22.3726 74 29 74H87H92.789Z" fill="black" fill-opacity="0.3"/>
</g>
</g>
<g filter="url(#filter1_ii_804_19371)">
<path fill-rule="evenodd" clip-rule="evenodd" d="M92.789 74C97.7642 74 102.605 72.3868 106.586 69.4024L116.459 62H229C235.627 62 241 67.3726 241 74V108V198C241 204.627 235.627 210 229 210H29C22.3726 210 17 204.627 17 198L17 108V86C17 79.3726 22.3726 74 29 74H87H92.789Z" fill="url(#paint1_linear_804_19371)"/>
</g>
<path d="M65.4649 115.536C52.8934 115.536 43.2028 125.358 40.9111 130.268C40.9111 134.197 46.804 133.87 48.7683 132.233C65.4649 119.465 75.763 136.638 84.1257 145.001C90.0186 150.894 95.9115 160.715 112.608 160.715C125.18 160.715 134.87 145.328 136.18 140.09C116.537 151.876 110.644 145.983 105.733 141.072C93.9472 131.251 85.4109 115.536 65.4649 115.536Z" fill="white"/>
<g filter="url(#filter2_d_804_19371)">
<path d="M159.143 134.358L142.971 117.209L132.724 134.973L140.136 142.833L159.143 134.358Z" fill="#CCCCCC"/>
<path d="M132.723 134.973L136.429 138.903L140.135 142.833L132.142 142.946L132.723 134.973Z" fill="black"/>
<path d="M244.441 50.1614L232.017 36.9873C230.982 35.8897 229.253 35.8391 228.155 36.8741L142.97 117.209L159.142 134.358L244.328 54.0228C245.425 52.9878 245.476 51.2589 244.441 50.1614Z" fill="#333333"/>
</g>
</g>
<defs>
<filter id="filter0_f_804_19371" x="-20" y="25" width="298" height="184" filterUnits="userSpaceOnUse" color-interpolation-filters="sRGB">
<feFlood flood-opacity="0" result="BackgroundImageFix"/>
<feBlend mode="normal" in="SourceGraphic" in2="BackgroundImageFix" result="shape"/>
<feGaussianBlur stdDeviation="18.5" result="effect1_foregroundBlur_804_19371"/>
</filter>
<filter id="filter1_ii_804_19371" x="17" y="62" width="224" height="148" filterUnits="userSpaceOnUse" color-interpolation-filters="sRGB">
<feFlood flood-opacity="0" result="BackgroundImageFix"/>
<feBlend mode="normal" in="SourceGraphic" in2="BackgroundImageFix" result="shape"/>
<feColorMatrix in="SourceAlpha" type="matrix" values="0 0 0 0 0 0 0 0 0 0 0 0 0 0 0 0 0 0 127 0" result="hardAlpha"/>
<feOffset dy="4"/>
<feComposite in2="hardAlpha" operator="arithmetic" k2="-1" k3="1"/>
<feColorMatrix type="matrix" values="0 0 0 0 1 0 0 0 0 1 0 0 0 0 1 0 0 0 0.25 0"/>
<feBlend mode="normal" in2="shape" result="effect1_innerShadow_804_19371"/>
<feColorMatrix in="SourceAlpha" type="matrix" values="0 0 0 0 0 0 0 0 0 0 0 0 0 0 0 0 0 0 127 0" result="hardAlpha"/>
<feOffset dy="-4"/>
<feComposite in2="hardAlpha" operator="arithmetic" k2="-1" k3="1"/>
<feColorMatrix type="matrix" values="0 0 0 0 0 0 0 0 0 0 0 0 0 0 0 0 0 0 0.9 0"/>
<feBlend mode="soft-light" in2="effect1_innerShadow_804_19371" result="effect2_innerShadow_804_19371"/>
</filter>
<filter id="filter2_d_804_19371" x="132.142" y="32.0325" width="125.336" height="117.743" filterUnits="userSpaceOnUse" color-interpolation-filters="sRGB">
<feFlood flood-opacity="0" result="BackgroundImageFix"/>
<feColorMatrix in="SourceAlpha" type="matrix" values="0 0 0 0 0 0 0 0 0 0 0 0 0 0 0 0 0 0 127 0" result="hardAlpha"/>
<feOffset dx="6.82901" dy="1.3658"/>
<feGaussianBlur stdDeviation="2.7316"/>
<feComposite in2="hardAlpha" operator="out"/>
<feColorMatrix type="matrix" values="0 0 0 0 0 0 0 0 0 0 0 0 0 0 0 0 0 0 0.25 0"/>
<feBlend mode="normal" in2="BackgroundImageFix" result="effect1_dropShadow_804_19371"/>
<feBlend mode="normal" in="SourceGraphic" in2="effect1_dropShadow_804_19371" result="shape"/>
</filter>
<linearGradient id="paint0_linear_804_19371" x1="17" y1="34" x2="197.768" y2="215.142" gradientUnits="userSpaceOnUse">
<stop stop-color="#05815D"/>
<stop offset="1" stop-color="#0C575F"/>
</linearGradient>
<linearGradient id="paint1_linear_804_19371" x1="21.5714" y1="64.96" x2="212.928" y2="237.354" gradientUnits="userSpaceOnUse">
<stop stop-color="#0C34FB"/>
<stop offset="1" stop-color="#17D2D4"/>
</linearGradient>
<clipPath id="clip0_804_19371">
<rect width="256" height="256" fill="white"/>
</clipPath>
</defs>
</svg>
