<svg width="256" height="256" viewBox="0 0 256 256" fill="none" xmlns="http://www.w3.org/2000/svg">
<path fill-rule="evenodd" clip-rule="evenodd" d="M104.425 42.3784C100.056 37.0733 93.5437 34 86.6712 34H29C22.3726 34 17 39.3726 17 46V58.1371V68.2V160C17 166.627 22.3726 172 29 172H229C235.627 172 241 166.627 241 160V70.1371C241 63.5097 235.627 58.1371 229 58.1371H117.404L104.425 42.3784Z" fill="#0F5899"/>
<mask id="mask0_719_17281" style="mask-type:alpha" maskUnits="userSpaceOnUse" x="17" y="34" width="224" height="138">
<path fill-rule="evenodd" clip-rule="evenodd" d="M104.425 42.3784C100.056 37.0733 93.5437 34 86.6712 34H29C22.3726 34 17 39.3726 17 46V58.1371V68.2V160C17 166.627 22.3726 172 29 172H229C235.627 172 241 166.627 241 160V70.1371C241 63.5097 235.627 58.1371 229 58.1371H117.404L104.425 42.3784Z" fill="url(#paint0_linear_719_17281)"/>
</mask>
<g mask="url(#mask0_719_17281)">
<g style="mix-blend-mode:multiply" filter="url(#filter0_f_719_17281)">
<path fill-rule="evenodd" clip-rule="evenodd" d="M92.789 74C97.7642 74 102.605 72.3868 106.586 69.4024L116.459 62H229C235.627 62 241 67.3726 241 74V108V160C241 166.627 235.627 172 229 172H29C22.3726 172 17 166.627 17 160L17 108V86C17 79.3726 22.3726 74 29 74H87H92.789Z" fill="black" fill-opacity="0.3"/>
</g>
</g>
<g filter="url(#filter1_ii_719_17281)">
<path fill-rule="evenodd" clip-rule="evenodd" d="M92.789 74C97.7642 74 102.605 72.3868 106.586 69.4024L116.459 62H229C235.627 62 241 67.3726 241 74V108V198C241 204.627 235.627 210 229 210H29C22.3726 210 17 204.627 17 198L17 108V86C17 79.3726 22.3726 74 29 74H87H92.789Z" fill="url(#paint1_linear_719_17281)"/>
</g>
<path d="M169.216 91.375H114.377C113.189 91.375 112.05 91.8465 111.21 92.6858C110.37 93.525 109.898 94.6633 109.898 95.8503V100.938L140.807 110.5L173.694 100.938V95.8503C173.694 94.6633 173.222 93.525 172.382 92.6858C171.542 91.8465 170.403 91.375 169.216 91.375Z" fill="#84BAE3"/>
<path d="M178.957 140.479C179.424 139.011 179.797 137.515 180.073 136C180.073 135.628 179.974 135.262 179.788 134.94C179.602 134.618 179.334 134.35 179.011 134.164L178.97 134.139L178.957 134.132L144.386 114.453C144.237 114.356 144.082 114.268 143.923 114.188C143.262 113.86 142.534 113.689 141.796 113.689C141.058 113.689 140.33 113.86 139.668 114.188C139.509 114.267 139.355 114.354 139.206 114.45L104.635 134.136L104.622 134.142L104.584 134.164C104.261 134.35 103.992 134.617 103.805 134.94C103.618 135.262 103.519 135.628 103.519 136C103.795 137.515 104.168 139.011 104.635 140.479L141.292 167.27L178.957 140.479Z" fill="#C3DDFF"/>
<path d="M154.555 100.938H132.227L125.78 110.5L132.227 120.062L154.555 139.188H173.694V120.062L154.555 100.938Z" fill="#CEECFC"/>
<path d="M109.898 100.938H132.227V120.062H109.898V100.938Z" fill="#9CD2F4"/>
<path d="M154.556 100.938H173.694V120.062H154.556V100.938Z" fill="#F7FDFF"/>
<path d="M154.555 139.188L132.227 120.062H109.898V139.188L132.227 158.313L166.779 163.948L154.555 139.188Z" fill="#8FC2DF"/>
<path d="M132.227 120.062H154.555V139.188H132.227V120.062Z" fill="#B7DEF4"/>
<path d="M109.898 139.188H132.227V158.312H109.898V139.188Z" fill="#6495BE"/>
<path d="M154.556 139.188H173.694V158.312H154.556V139.188Z" fill="#B1DCF4"/>
<g filter="url(#filter2_d_719_17281)">
<path d="M179.012 137.839L178.967 137.865L178.957 137.871L144.387 157.551C143.7 157.993 142.911 158.252 142.096 158.303C141.281 158.354 140.466 158.195 139.729 157.841L151.768 173.973L178.096 179.701V179.713C178.709 179.271 179.207 178.689 179.551 178.016C179.895 177.344 180.074 176.599 180.074 175.844V136C180.074 136.373 179.976 136.739 179.789 137.062C179.603 137.385 179.335 137.653 179.012 137.839Z" fill="url(#paint2_linear_719_17281)"/>
</g>
<g filter="url(#filter3_d_719_17281)">
<path d="M104.635 137.881V137.849H104.603L104.507 137.785C104.203 137.598 103.951 137.335 103.778 137.023C103.605 136.71 103.515 136.357 103.519 136V175.844C103.518 176.472 103.641 177.094 103.881 177.674C104.121 178.255 104.474 178.782 104.918 179.226C105.363 179.671 105.89 180.023 106.471 180.263C107.052 180.503 107.675 180.626 108.303 180.625H175.289C175.687 180.621 176.084 180.568 176.469 180.466C176.669 180.431 176.862 180.366 177.043 180.274C177.111 180.268 177.176 180.246 177.234 180.211C177.496 180.104 177.742 179.965 177.968 179.796C178.032 179.764 178.064 179.764 178.096 179.701L104.635 137.881Z" fill="url(#paint3_linear_719_17281)"/>
</g>
<g filter="url(#filter4_d_719_17281)">
<path d="M82.2499 110.5H124.752C125.879 110.5 126.96 110.948 127.756 111.744C128.553 112.541 129.001 113.622 129.001 114.749V157.251C129.001 158.378 128.553 159.459 127.756 160.256C126.96 161.052 125.879 161.5 124.752 161.5H82.2499C81.123 161.5 80.0423 161.052 79.2455 160.256C78.4486 159.459 78.001 158.378 78.001 157.251V114.749C78.001 113.622 78.4486 112.541 79.2455 111.744C80.0423 110.948 81.123 110.5 82.2499 110.5Z" fill="url(#paint4_linear_719_17281)"/>
</g>
<path d="M91.563 128.914C92.5552 126.801 94.1569 125.033 96.1624 123.836C98.3842 122.565 100.914 121.932 103.473 122.006C105.843 121.954 108.181 122.555 110.232 123.741C112.163 124.891 113.718 126.576 114.708 128.592C115.787 130.814 116.324 133.26 116.277 135.73C116.329 138.309 115.775 140.865 114.66 143.192C113.649 145.28 112.047 147.026 110.053 148.213C107.921 149.438 105.494 150.054 103.036 149.996C100.615 150.054 98.2235 149.447 96.1231 148.241C94.1768 147.09 92.6034 145.403 91.591 143.382C90.505 141.193 89.9604 138.775 90.0029 136.331C89.9559 133.773 90.4893 131.237 91.563 128.914ZM96.4649 140.832C96.9934 142.168 97.8898 143.327 99.0502 144.174C100.233 145.001 101.649 145.428 103.092 145.392C104.629 145.452 106.144 145.01 107.409 144.135C108.556 143.288 109.43 142.123 109.921 140.785C110.472 139.293 110.744 137.714 110.722 136.124C110.739 134.52 110.484 132.924 109.966 131.405C109.509 130.039 108.667 128.833 107.54 127.934C106.309 127.015 104.799 126.547 103.263 126.61C101.789 126.573 100.34 127.003 99.1259 127.839C97.9427 128.688 97.0256 129.856 96.4817 131.206C95.2785 134.302 95.2715 137.734 96.4621 140.835L96.4649 140.832Z" fill="#1177D3"/>
<defs>
<filter id="filter0_f_719_17281" x="-20" y="25" width="298" height="184" filterUnits="userSpaceOnUse" color-interpolation-filters="sRGB">
<feFlood flood-opacity="0" result="BackgroundImageFix"/>
<feBlend mode="normal" in="SourceGraphic" in2="BackgroundImageFix" result="shape"/>
<feGaussianBlur stdDeviation="18.5" result="effect1_foregroundBlur_719_17281"/>
</filter>
<filter id="filter1_ii_719_17281" x="17" y="62" width="224" height="148" filterUnits="userSpaceOnUse" color-interpolation-filters="sRGB">
<feFlood flood-opacity="0" result="BackgroundImageFix"/>
<feBlend mode="normal" in="SourceGraphic" in2="BackgroundImageFix" result="shape"/>
<feColorMatrix in="SourceAlpha" type="matrix" values="0 0 0 0 0 0 0 0 0 0 0 0 0 0 0 0 0 0 127 0" result="hardAlpha"/>
<feOffset dy="4"/>
<feComposite in2="hardAlpha" operator="arithmetic" k2="-1" k3="1"/>
<feColorMatrix type="matrix" values="0 0 0 0 1 0 0 0 0 1 0 0 0 0 1 0 0 0 0.25 0"/>
<feBlend mode="normal" in2="shape" result="effect1_innerShadow_719_17281"/>
<feColorMatrix in="SourceAlpha" type="matrix" values="0 0 0 0 0 0 0 0 0 0 0 0 0 0 0 0 0 0 127 0" result="hardAlpha"/>
<feOffset dy="-4"/>
<feComposite in2="hardAlpha" operator="arithmetic" k2="-1" k3="1"/>
<feColorMatrix type="matrix" values="0 0 0 0 0 0 0 0 0 0 0 0 0 0 0 0 0 0 0.9 0"/>
<feBlend mode="soft-light" in2="effect1_innerShadow_719_17281" result="effect2_innerShadow_719_17281"/>
</filter>
<filter id="filter2_d_719_17281" x="135.729" y="128" width="48.3447" height="51.7129" filterUnits="userSpaceOnUse" color-interpolation-filters="sRGB">
<feFlood flood-opacity="0" result="BackgroundImageFix"/>
<feColorMatrix in="SourceAlpha" type="matrix" values="0 0 0 0 0 0 0 0 0 0 0 0 0 0 0 0 0 0 127 0" result="hardAlpha"/>
<feOffset dy="-4"/>
<feGaussianBlur stdDeviation="2"/>
<feComposite in2="hardAlpha" operator="out"/>
<feColorMatrix type="matrix" values="0 0 0 0 0 0 0 0 0 0 0 0 0 0 0 0 0 0 0.25 0"/>
<feBlend mode="normal" in2="BackgroundImageFix" result="effect1_dropShadow_719_17281"/>
<feBlend mode="normal" in="SourceGraphic" in2="effect1_dropShadow_719_17281" result="shape"/>
</filter>
<filter id="filter3_d_719_17281" x="99.5186" y="128" width="82.5771" height="52.625" filterUnits="userSpaceOnUse" color-interpolation-filters="sRGB">
<feFlood flood-opacity="0" result="BackgroundImageFix"/>
<feColorMatrix in="SourceAlpha" type="matrix" values="0 0 0 0 0 0 0 0 0 0 0 0 0 0 0 0 0 0 127 0" result="hardAlpha"/>
<feOffset dy="-4"/>
<feGaussianBlur stdDeviation="2"/>
<feComposite in2="hardAlpha" operator="out"/>
<feColorMatrix type="matrix" values="0 0 0 0 0 0 0 0 0 0 0 0 0 0 0 0 0 0 0.15 0"/>
<feBlend mode="normal" in2="BackgroundImageFix" result="effect1_dropShadow_719_17281"/>
<feBlend mode="normal" in="SourceGraphic" in2="effect1_dropShadow_719_17281" result="shape"/>
</filter>
<filter id="filter4_d_719_17281" x="78.001" y="110.5" width="59" height="59" filterUnits="userSpaceOnUse" color-interpolation-filters="sRGB">
<feFlood flood-opacity="0" result="BackgroundImageFix"/>
<feColorMatrix in="SourceAlpha" type="matrix" values="0 0 0 0 0 0 0 0 0 0 0 0 0 0 0 0 0 0 127 0" result="hardAlpha"/>
<feOffset dx="4" dy="4"/>
<feGaussianBlur stdDeviation="2"/>
<feComposite in2="hardAlpha" operator="out"/>
<feColorMatrix type="matrix" values="0 0 0 0 0 0 0 0 0 0 0 0 0 0 0 0 0 0 0.15 0"/>
<feBlend mode="normal" in2="BackgroundImageFix" result="effect1_dropShadow_719_17281"/>
<feBlend mode="normal" in="SourceGraphic" in2="effect1_dropShadow_719_17281" result="shape"/>
</filter>
<linearGradient id="paint0_linear_719_17281" x1="17" y1="34" x2="197.768" y2="215.142" gradientUnits="userSpaceOnUse">
<stop stop-color="#05815D"/>
<stop offset="1" stop-color="#0C575F"/>
</linearGradient>
<linearGradient id="paint1_linear_719_17281" x1="17" y1="62" x2="241" y2="210" gradientUnits="userSpaceOnUse">
<stop stop-color="#167FD6"/>
<stop offset="1" stop-color="#0F5493"/>
</linearGradient>
<linearGradient id="paint2_linear_719_17281" x1="180" y1="136" x2="160" y2="171.5" gradientUnits="userSpaceOnUse">
<stop stop-color="#F5FAFF"/>
<stop offset="1" stop-color="#BAE2FF"/>
</linearGradient>
<linearGradient id="paint3_linear_719_17281" x1="140.931" y1="154.393" x2="140.807" y2="180.625" gradientUnits="userSpaceOnUse">
<stop stop-color="#ECF8FE"/>
<stop offset="1" stop-color="#CFEAFD"/>
</linearGradient>
<linearGradient id="paint4_linear_719_17281" x1="84.5002" y1="105.5" x2="121" y2="167" gradientUnits="userSpaceOnUse">
<stop stop-color="#FCFDFF"/>
<stop offset="0.5" stop-color="#EDF6FF"/>
<stop offset="1" stop-color="#DBECFF"/>
</linearGradient>
</defs>
</svg>
