<svg width="256" height="256" viewBox="0 0 256 256" fill="none" xmlns="http://www.w3.org/2000/svg">
<path fill-rule="evenodd" clip-rule="evenodd" d="M104.425 42.3784C100.056 37.0733 93.5437 34 86.6712 34H29C22.3726 34 17 39.3726 17 46V58.1371V68.2V160C17 166.627 22.3726 172 29 172H229C235.627 172 241 166.627 241 160V70.1371C241 63.5097 235.627 58.1371 229 58.1371H117.404L104.425 42.3784Z" fill="#9897AC"/>
<mask id="mask0_719_16765" style="mask-type:alpha" maskUnits="userSpaceOnUse" x="17" y="34" width="224" height="138">
<path fill-rule="evenodd" clip-rule="evenodd" d="M104.425 42.3784C100.056 37.0733 93.5437 34 86.6712 34H29C22.3726 34 17 39.3726 17 46V58.1371V68.2V160C17 166.627 22.3726 172 29 172H229C235.627 172 241 166.627 241 160V70.1371C241 63.5097 235.627 58.1371 229 58.1371H117.404L104.425 42.3784Z" fill="url(#paint0_linear_719_16765)"/>
</mask>
<g mask="url(#mask0_719_16765)">
<g style="mix-blend-mode:multiply" filter="url(#filter0_f_719_16765)">
<path fill-rule="evenodd" clip-rule="evenodd" d="M92.789 74C97.7642 74 102.605 72.3868 106.586 69.4024L116.459 62H229C235.627 62 241 67.3726 241 74V108V160C241 166.627 235.627 172 229 172H29C22.3726 172 17 166.627 17 160L17 108V86C17 79.3726 22.3726 74 29 74H87H92.789Z" fill="black" fill-opacity="0.3"/>
</g>
</g>
<g filter="url(#filter1_ii_719_16765)">
<path fill-rule="evenodd" clip-rule="evenodd" d="M92.789 74C97.7642 74 102.605 72.3868 106.586 69.4024L116.459 62H229C235.627 62 241 67.3726 241 74V108V198C241 204.627 235.627 210 229 210H29C22.3726 210 17 204.627 17 198L17 108V86C17 79.3726 22.3726 74 29 74H87H92.789Z" fill="url(#paint1_linear_719_16765)"/>
</g>
<g filter="url(#filter2_i_719_16765)">
<path d="M241 98H217V133H241V98Z" fill="#FFE5B9"/>
</g>
<g filter="url(#filter3_i_719_16765)">
<path d="M241 133H217V171H241V133Z" fill="#F7B547"/>
</g>
<g filter="url(#filter4_i_719_16765)">
<path d="M241 171H217V206H229C235.627 206 241 200.627 241 194V171Z" fill="#B3B1AE"/>
</g>
<g filter="url(#filter5_i_719_16765)">
<path d="M241 74C241 67.3726 235.627 62 229 62H217V98H241V74Z" fill="#A7A7D3"/>
</g>
<path d="M23.2237 102.666H10.8332C8.7162 102.666 7 100.95 7 98.8332C7 96.7162 8.7162 95 10.8332 95H23.2236C25.3406 95 27.0568 96.7162 27.0568 98.8332C27.0569 100.95 25.3407 102.666 23.2237 102.666Z" fill="#C8C6C4"/>
<path d="M23.2237 137.118H10.8332C8.7162 137.118 7 135.402 7 133.285C7 131.168 8.7162 129.452 10.8332 129.452H23.2236C25.3406 129.452 27.0568 131.168 27.0568 133.285C27.0569 135.402 25.3407 137.118 23.2237 137.118Z" fill="#C8C6C4"/>
<path d="M23.2237 171.57H10.8332C8.7162 171.57 7 169.854 7 167.737C7 165.62 8.7162 163.903 10.8332 163.903H23.2236C25.3406 163.903 27.0568 165.62 27.0568 167.737C27.0569 169.854 25.3407 171.57 23.2237 171.57Z" fill="#C8C6C4"/>
<path d="M127.5 168C148.211 168 165 151.211 165 130.5C165 109.789 148.211 93 127.5 93C106.789 93 90 109.789 90 130.5C90 151.211 106.789 168 127.5 168Z" fill="#FDFDFC"/>
<path d="M151 158.917C149.617 146.576 139.244 137 126.5 137C113.855 137 103.383 146.576 102 158.917C108.619 164.545 117.115 168 126.5 168C135.885 168 144.48 164.545 151 158.917Z" fill="#C8C6C4"/>
<path d="M126.5 134C134.508 134 141 127.956 141 120.5C141 113.044 134.508 107 126.5 107C118.492 107 112 113.044 112 120.5C112 127.956 118.492 134 126.5 134Z" fill="#C8C6C4"/>
<defs>
<filter id="filter0_f_719_16765" x="-20" y="25" width="298" height="184" filterUnits="userSpaceOnUse" color-interpolation-filters="sRGB">
<feFlood flood-opacity="0" result="BackgroundImageFix"/>
<feBlend mode="normal" in="SourceGraphic" in2="BackgroundImageFix" result="shape"/>
<feGaussianBlur stdDeviation="18.5" result="effect1_foregroundBlur_719_16765"/>
</filter>
<filter id="filter1_ii_719_16765" x="17" y="62" width="224" height="148" filterUnits="userSpaceOnUse" color-interpolation-filters="sRGB">
<feFlood flood-opacity="0" result="BackgroundImageFix"/>
<feBlend mode="normal" in="SourceGraphic" in2="BackgroundImageFix" result="shape"/>
<feColorMatrix in="SourceAlpha" type="matrix" values="0 0 0 0 0 0 0 0 0 0 0 0 0 0 0 0 0 0 127 0" result="hardAlpha"/>
<feOffset dy="-4"/>
<feComposite in2="hardAlpha" operator="arithmetic" k2="-1" k3="1"/>
<feColorMatrix type="matrix" values="0 0 0 0 0 0 0 0 0 0 0 0 0 0 0 0 0 0 0.25 0"/>
<feBlend mode="normal" in2="shape" result="effect1_innerShadow_719_16765"/>
<feColorMatrix in="SourceAlpha" type="matrix" values="0 0 0 0 0 0 0 0 0 0 0 0 0 0 0 0 0 0 127 0" result="hardAlpha"/>
<feOffset dy="4"/>
<feComposite in2="hardAlpha" operator="arithmetic" k2="-1" k3="1"/>
<feColorMatrix type="matrix" values="0 0 0 0 1 0 0 0 0 1 0 0 0 0 1 0 0 0 0.25 0"/>
<feBlend mode="normal" in2="effect1_innerShadow_719_16765" result="effect2_innerShadow_719_16765"/>
</filter>
<filter id="filter2_i_719_16765" x="217" y="98" width="28" height="35" filterUnits="userSpaceOnUse" color-interpolation-filters="sRGB">
<feFlood flood-opacity="0" result="BackgroundImageFix"/>
<feBlend mode="normal" in="SourceGraphic" in2="BackgroundImageFix" result="shape"/>
<feColorMatrix in="SourceAlpha" type="matrix" values="0 0 0 0 0 0 0 0 0 0 0 0 0 0 0 0 0 0 127 0" result="hardAlpha"/>
<feOffset dx="4"/>
<feGaussianBlur stdDeviation="2"/>
<feComposite in2="hardAlpha" operator="arithmetic" k2="-1" k3="1"/>
<feColorMatrix type="matrix" values="0 0 0 0 0.54902 0 0 0 0 0.490196 0 0 0 0 0.678431 0 0 0 0.7 0"/>
<feBlend mode="normal" in2="shape" result="effect1_innerShadow_719_16765"/>
</filter>
<filter id="filter3_i_719_16765" x="217" y="133" width="28" height="38" filterUnits="userSpaceOnUse" color-interpolation-filters="sRGB">
<feFlood flood-opacity="0" result="BackgroundImageFix"/>
<feBlend mode="normal" in="SourceGraphic" in2="BackgroundImageFix" result="shape"/>
<feColorMatrix in="SourceAlpha" type="matrix" values="0 0 0 0 0 0 0 0 0 0 0 0 0 0 0 0 0 0 127 0" result="hardAlpha"/>
<feOffset dx="4"/>
<feGaussianBlur stdDeviation="2"/>
<feComposite in2="hardAlpha" operator="arithmetic" k2="-1" k3="1"/>
<feColorMatrix type="matrix" values="0 0 0 0 0.54902 0 0 0 0 0.490196 0 0 0 0 0.678431 0 0 0 0.7 0"/>
<feBlend mode="normal" in2="shape" result="effect1_innerShadow_719_16765"/>
</filter>
<filter id="filter4_i_719_16765" x="217" y="171" width="28" height="35" filterUnits="userSpaceOnUse" color-interpolation-filters="sRGB">
<feFlood flood-opacity="0" result="BackgroundImageFix"/>
<feBlend mode="normal" in="SourceGraphic" in2="BackgroundImageFix" result="shape"/>
<feColorMatrix in="SourceAlpha" type="matrix" values="0 0 0 0 0 0 0 0 0 0 0 0 0 0 0 0 0 0 127 0" result="hardAlpha"/>
<feOffset dx="4"/>
<feGaussianBlur stdDeviation="2"/>
<feComposite in2="hardAlpha" operator="arithmetic" k2="-1" k3="1"/>
<feColorMatrix type="matrix" values="0 0 0 0 0.54902 0 0 0 0 0.490196 0 0 0 0 0.678431 0 0 0 0.7 0"/>
<feBlend mode="normal" in2="shape" result="effect1_innerShadow_719_16765"/>
</filter>
<filter id="filter5_i_719_16765" x="217" y="62" width="28" height="36" filterUnits="userSpaceOnUse" color-interpolation-filters="sRGB">
<feFlood flood-opacity="0" result="BackgroundImageFix"/>
<feBlend mode="normal" in="SourceGraphic" in2="BackgroundImageFix" result="shape"/>
<feColorMatrix in="SourceAlpha" type="matrix" values="0 0 0 0 0 0 0 0 0 0 0 0 0 0 0 0 0 0 127 0" result="hardAlpha"/>
<feOffset dx="4"/>
<feGaussianBlur stdDeviation="2"/>
<feComposite in2="hardAlpha" operator="arithmetic" k2="-1" k3="1"/>
<feColorMatrix type="matrix" values="0 0 0 0 0.54902 0 0 0 0 0.490196 0 0 0 0 0.678431 0 0 0 0.7 0"/>
<feBlend mode="normal" in2="shape" result="effect1_innerShadow_719_16765"/>
</filter>
<linearGradient id="paint0_linear_719_16765" x1="17" y1="34" x2="197.768" y2="215.142" gradientUnits="userSpaceOnUse">
<stop stop-color="#05815D"/>
<stop offset="1" stop-color="#0C575F"/>
</linearGradient>
<linearGradient id="paint1_linear_719_16765" x1="17" y1="62" x2="241" y2="210" gradientUnits="userSpaceOnUse">
<stop stop-color="#E3E2F1"/>
<stop offset="1" stop-color="#C7C5E3"/>
</linearGradient>
</defs>
</svg>
