<svg width="256" height="256" viewBox="0 0 256 256" fill="none" xmlns="http://www.w3.org/2000/svg">
<path fill-rule="evenodd" clip-rule="evenodd" d="M104.425 42.3784C100.056 37.0733 93.5437 34 86.6712 34H29C22.3726 34 17 39.3726 17 46V58.1371V68.2V160C17 166.627 22.3726 172 29 172H229C235.627 172 241 166.627 241 160V70.1371C241 63.5097 235.627 58.1371 229 58.1371H117.404L104.425 42.3784Z" fill="#0358A7"/>
<mask id="mask0_719_17027" style="mask-type:alpha" maskUnits="userSpaceOnUse" x="17" y="34" width="224" height="138">
<path fill-rule="evenodd" clip-rule="evenodd" d="M104.425 42.3784C100.056 37.0733 93.5437 34 86.6712 34H29C22.3726 34 17 39.3726 17 46V58.1371V68.2V160C17 166.627 22.3726 172 29 172H229C235.627 172 241 166.627 241 160V70.1371C241 63.5097 235.627 58.1371 229 58.1371H117.404L104.425 42.3784Z" fill="url(#paint0_linear_719_17027)"/>
</mask>
<g mask="url(#mask0_719_17027)">
<g style="mix-blend-mode:multiply" filter="url(#filter0_f_719_17027)">
<path fill-rule="evenodd" clip-rule="evenodd" d="M92.789 74C97.7642 74 102.605 72.3868 106.586 69.4024L116.459 62H229C235.627 62 241 67.3726 241 74V108V160C241 166.627 235.627 172 229 172H29C22.3726 172 17 166.627 17 160L17 108V86C17 79.3726 22.3726 74 29 74H87H92.789Z" fill="black" fill-opacity="0.3"/>
</g>
</g>
<g filter="url(#filter1_ii_719_17027)">
<path fill-rule="evenodd" clip-rule="evenodd" d="M92.789 74C97.7642 74 102.605 72.3868 106.586 69.4024L116.459 62H229C235.627 62 241 67.3726 241 74V108V198C241 204.627 235.627 210 229 210H29C22.3726 210 17 204.627 17 198L17 108V86C17 79.3726 22.3726 74 29 74H87H92.789Z" fill="url(#paint1_linear_719_17027)"/>
</g>
<path d="M115.616 115.492C115.417 115.279 115.291 115.008 115.258 114.719C115.225 114.429 115.285 114.137 115.431 113.885C115.488 113.786 115.557 113.695 115.637 113.614L143.412 85.7963C143.671 85.5375 143.979 85.3337 144.318 85.1969C144.658 85.0602 145.021 84.9934 145.387 85.0005C145.752 85.0077 146.113 85.0886 146.447 85.2385C146.78 85.3884 147.08 85.6042 147.329 85.8728C155.478 94.6864 161.351 105.358 164.435 116.959L147.624 135.954L122.621 128.125C121.344 123.409 118.94 119.073 115.616 115.492Z" fill="#28A8EA"/>
<path d="M177.746 116.29C177.663 115.937 177.509 115.604 177.294 115.311C177.08 115.019 176.809 114.772 176.497 114.587C176.186 114.401 175.84 114.279 175.481 114.23C175.122 114.18 174.756 114.203 174.406 114.297L122.617 128.13C123.996 133.287 124 138.716 122.627 143.875L139.899 165.391L164.484 155.126L174.392 157.789C174.742 157.884 175.108 157.907 175.468 157.858C175.827 157.809 176.173 157.688 176.485 157.502C176.797 157.316 177.069 157.07 177.284 156.777C177.499 156.485 177.653 156.152 177.736 155.799C180.752 142.802 180.755 129.288 177.746 116.289V116.29Z" fill="#0078D4"/>
<path d="M122.627 143.874C121.368 148.578 118.988 152.908 115.692 156.492C115.446 156.749 115.31 157.091 115.314 157.447C115.317 157.802 115.46 158.142 115.711 158.393L143.475 186.115C143.733 186.372 144.041 186.575 144.379 186.712C144.718 186.848 145.08 186.915 145.445 186.908C145.81 186.901 146.169 186.821 146.502 186.672C146.835 186.523 147.135 186.308 147.383 186.041C155.514 177.281 161.384 166.668 164.484 155.125L122.627 143.874Z" fill="#0358A7"/>
<g filter="url(#filter2_d_719_17027)">
<path d="M82.3422 109.9H125.766C126.918 109.9 128.022 110.358 128.836 111.172C129.651 111.987 130.108 113.091 130.108 114.243V157.666C130.108 158.818 129.651 159.922 128.836 160.737C128.022 161.551 126.918 162.009 125.766 162.009H82.3422C81.1906 162.009 80.0861 161.551 79.2718 160.737C78.4575 159.922 78 158.818 78 157.666V114.243C78 113.091 78.4575 111.987 79.2718 111.172C80.0861 110.358 81.1906 109.9 82.3422 109.9Z" fill="#0078D4"/>
</g>
<path d="M103.487 133.57C103.791 134.197 104.034 134.851 104.214 135.523H104.282C104.446 134.863 104.682 134.224 104.986 133.615L111.573 121.209C111.82 120.744 112.188 120.356 112.639 120.085C113.089 119.814 113.605 119.671 114.131 119.671C114.639 119.671 115.138 119.804 115.578 120.058C116.018 120.312 116.383 120.677 116.638 121.116C116.892 121.556 117.026 122.054 117.027 122.562C117.028 123.07 116.895 123.569 116.642 124.01L107.528 139.873C107.276 140.312 107.143 140.809 107.143 141.315V149.343C107.143 150.111 106.838 150.847 106.295 151.39C105.752 151.933 105.015 152.239 104.247 152.239H103.658C102.89 152.239 102.153 151.933 101.61 151.39C101.067 150.847 100.762 150.111 100.762 149.343V141.41C100.762 140.915 100.635 140.429 100.394 139.998L91.4487 123.979C91.2025 123.538 91.0758 123.041 91.0812 122.536C91.0866 122.031 91.2239 121.536 91.4794 121.101C91.7349 120.666 92.0998 120.305 92.5379 120.054C92.976 119.803 93.4721 119.671 93.9769 119.671H94.5462C95.0777 119.671 95.599 119.817 96.0529 120.094C96.5068 120.37 96.8759 120.766 97.1197 121.238L103.487 133.57Z" fill="white"/>
<defs>
<filter id="filter0_f_719_17027" x="-20" y="25" width="298" height="184" filterUnits="userSpaceOnUse" color-interpolation-filters="sRGB">
<feFlood flood-opacity="0" result="BackgroundImageFix"/>
<feBlend mode="normal" in="SourceGraphic" in2="BackgroundImageFix" result="shape"/>
<feGaussianBlur stdDeviation="18.5" result="effect1_foregroundBlur_719_17027"/>
</filter>
<filter id="filter1_ii_719_17027" x="17" y="62" width="224" height="148" filterUnits="userSpaceOnUse" color-interpolation-filters="sRGB">
<feFlood flood-opacity="0" result="BackgroundImageFix"/>
<feBlend mode="normal" in="SourceGraphic" in2="BackgroundImageFix" result="shape"/>
<feColorMatrix in="SourceAlpha" type="matrix" values="0 0 0 0 0 0 0 0 0 0 0 0 0 0 0 0 0 0 127 0" result="hardAlpha"/>
<feOffset dy="4"/>
<feComposite in2="hardAlpha" operator="arithmetic" k2="-1" k3="1"/>
<feColorMatrix type="matrix" values="0 0 0 0 1 0 0 0 0 1 0 0 0 0 1 0 0 0 0.25 0"/>
<feBlend mode="normal" in2="shape" result="effect1_innerShadow_719_17027"/>
<feColorMatrix in="SourceAlpha" type="matrix" values="0 0 0 0 0 0 0 0 0 0 0 0 0 0 0 0 0 0 127 0" result="hardAlpha"/>
<feOffset dy="-4"/>
<feComposite in2="hardAlpha" operator="arithmetic" k2="-1" k3="1"/>
<feColorMatrix type="matrix" values="0 0 0 0 0 0 0 0 0 0 0 0 0 0 0 0 0 0 0.9 0"/>
<feBlend mode="soft-light" in2="effect1_innerShadow_719_17027" result="effect2_innerShadow_719_17027"/>
</filter>
<filter id="filter2_d_719_17027" x="78" y="109.9" width="59.9715" height="59.9715" filterUnits="userSpaceOnUse" color-interpolation-filters="sRGB">
<feFlood flood-opacity="0" result="BackgroundImageFix"/>
<feColorMatrix in="SourceAlpha" type="matrix" values="0 0 0 0 0 0 0 0 0 0 0 0 0 0 0 0 0 0 127 0" result="hardAlpha"/>
<feOffset dx="3.93156" dy="3.93156"/>
<feGaussianBlur stdDeviation="1.96578"/>
<feComposite in2="hardAlpha" operator="out"/>
<feColorMatrix type="matrix" values="0 0 0 0 0 0 0 0 0 0 0 0 0 0 0 0 0 0 0.15 0"/>
<feBlend mode="normal" in2="BackgroundImageFix" result="effect1_dropShadow_719_17027"/>
<feBlend mode="normal" in="SourceGraphic" in2="effect1_dropShadow_719_17027" result="shape"/>
</filter>
<linearGradient id="paint0_linear_719_17027" x1="17" y1="34" x2="197.768" y2="215.142" gradientUnits="userSpaceOnUse">
<stop stop-color="#05815D"/>
<stop offset="1" stop-color="#0C575F"/>
</linearGradient>
<linearGradient id="paint1_linear_719_17027" x1="17" y1="62" x2="241" y2="210" gradientUnits="userSpaceOnUse">
<stop stop-color="#FEFFFF"/>
<stop offset="1" stop-color="#B5D3EF"/>
</linearGradient>
</defs>
</svg>
