<svg xmlns="http://www.w3.org/2000/svg" xmlns:xlink="http://www.w3.org/1999/xlink" fill="none" version="1.1" width="256" height="256" viewBox="0 0 256 256"><defs><clipPath id="master_svg0_7_4449"><rect x="0" y="0" width="256" height="256" rx="0"/></clipPath><mask id="master_svg1_7_4464" style="mask-type:alpha" maskUnits="objectBoundingBox"><g><g><path d="M104.425,42.3784C100.056,37.0733,93.5437,34,86.6712,34L29,34C22.3726,34,17,39.3726,17,46L17,58.137100000000004L17,68.2L17,160C17,166.627,22.3726,172,29,172L229,172C235.627,172,241,166.627,241,160L241,70.1371C241,63.509699999999995,235.627,58.137100000000004,229,58.137100000000004L117.404,58.137100000000004L104.425,42.3784Z" fill-rule="evenodd" fill="#74D4FE" fill-opacity="1" style="mix-blend-mode:passthrough"/></g></g></mask><filter id="master_svg2_7_4462" filterUnits="objectBoundingBox" color-interpolation-filters="sRGB" x="-0.33035714285714285" y="-0.5362318840579711" width="1.6607142857142858" height="2.072463768115942"><feFlood flood-opacity="0" result="BackgroundImageFix"/><feBlend mode="normal" in="SourceGraphic" in2="BackgroundImageFix" result="shape"/><feGaussianBlur stdDeviation="18.5" result="effect1_foregroundBlur"/></filter><linearGradient x1="-0.03118896484375" y1="0" x2="1.2022814427015993" y2="0.5221771601427463" id="master_svg3_7_2361"><stop offset="0%" stop-color="#FDFDFD" stop-opacity="1"/><stop offset="100%" stop-color="#DFDFDF" stop-opacity="1"/></linearGradient><linearGradient x1="0" y1="0.5" x2="1" y2="0.5" id="master_svg4_7_4673"><stop offset="8.571428805589676%" stop-color="#94D1E5" stop-opacity="1"/><stop offset="100%" stop-color="#FFE180" stop-opacity="1"/></linearGradient><linearGradient x1="0" y1="0.5" x2="1" y2="0.5" id="master_svg5_7_4505"><stop offset="0%" stop-color="#F8682C" stop-opacity="1"/><stop offset="100%" stop-color="#91C300" stop-opacity="1"/><stop offset="100%" stop-color="#FFFFFF" stop-opacity="1"/></linearGradient></defs><g clip-path="url(#master_svg0_7_4449)"><g><path d="M104.425,42.3784C100.056,37.0733,93.5437,34,86.6712,34L29,34C22.3726,34,17,39.3726,17,46L17,58.137100000000004L17,68.2L17,160C17,166.627,22.3726,172,29,172L229,172C235.627,172,241,166.627,241,160L241,70.1371C241,63.509699999999995,235.627,58.137100000000004,229,58.137100000000004L117.404,58.137100000000004L104.425,42.3784Z" fill-rule="evenodd" fill="#F4F4F4" fill-opacity="1" style="mix-blend-mode:passthrough"/></g><g mask="url(#master_svg1_7_4464)"><g><g style="mix-blend-mode:multiply" filter="url(#master_svg2_7_4462)"><g><path d="M92.789,49.054500000000004C97.7642,49.054500000000004,102.605,47.030699999999996,106.586,43.28664L116.459,34L229,34C235.627,34,241,40.74017,241,49.054500000000004L241,91.7091L241,156.945C241,165.259,235.627,172,229,172L29,172C22.3726,172,17,165.259,17,156.945L17,91.7091L17,64.1091C17,55.7947,22.3726,49.054500000000004,29,49.054500000000004L87,49.054500000000004L92.789,49.054500000000004Z" fill-rule="evenodd" fill="#000000" fill-opacity="0.15000000596046448" style="mix-blend-mode:passthrough"/></g></g></g></g><g><g><path d="M92.789,74C97.7642,74,102.605,72.3868,106.586,69.4024L116.459,62L229,62C235.627,62,241,67.3726,241,74L241,108L241,198C241,204.627,235.627,210,229,210L29,210C22.3726,210,17,204.627,17,198L17,108L17,86C17,79.3726,22.3726,74,29,74L87,74L92.789,74Z" fill-rule="evenodd" fill="url(#master_svg3_7_2361)" fill-opacity="1" style="mix-blend-mode:passthrough"/></g><g><path d="M106.59,69.4C102.61,72.38,97.77,74,92.79,74L29,74C22.37,74,17,79.37,17,86L17,90C17,83.37,22.37,78,29,78L92.79,78C97.77,78,102.61,76.39,106.59,73.4L116.46,66L229,66C235.63,66,241,71.37,241,78L241,74C241,67.37,235.63,62,229,62L116.46,62L106.59,69.4Z" fill-rule="evenodd" fill="url(#master_svg4_7_4673)" fill-opacity="1" style="mix-blend-mode:passthrough"/></g></g><g><path d="M17,194L17,198C17,204.63,22.37,210,29,210L229,210C235.63,210,241,204.63,241,198L241,194C241,200.63,235.63,206,229,206L29,206C22.37,206,17,200.63,17,194Z" fill-rule="evenodd" fill="url(#master_svg5_7_4505)" fill-opacity="1" style="mix-blend-mode:passthrough"/></g><g><path d="M175,105.05092C156.7235,112.71716,147.9367,108.40796,140.01671,103L131,134.7301C138.91229,140.1684,148.4647,144.6405,165.9998,136.6757L175,105.05092Z" fill="#91C300" fill-opacity="1" style="mix-blend-mode:passthrough"/></g><g><path d="M117.28059999999999,170C109.7084,164.5985,101.4764,160.1558,84,167.8144L92.55739,136.13537C110.0378,128.47562,118.4345,132.809816,126,138.24492L117.28059999999999,169.9989L117.28059999999999,170Z" fill="#00B4F1" fill-opacity="1" style="mix-blend-mode:passthrough"/></g><g><path d="M127.4132,132C122.8573,128.7197,117.95660000000001,125.6574,110.9967,125.6015C106.4055,125.5635,100.93884,126.95830000000001,94,130.0251L102.59895,98.16662C120.0588,90.44849,128.4444,94.816695,136,100.29238L127.4132,132Z" fill="#F8682C" fill-opacity="1" style="mix-blend-mode:passthrough"/></g><g><path d="M129.9892,140C137.9136,145.44402,146.7147,149.77933,165,142.06764L155.9866,173.8342C137.698,181.55259999999998,128.9156,177.1816,121,171.704L129.9892,140Z" fill="#FFC300" fill-opacity="1" style="mix-blend-mode:passthrough"/></g></g></svg>