<svg xmlns="http://www.w3.org/2000/svg" xmlns:xlink="http://www.w3.org/1999/xlink" fill="none" version="1.1" width="256" height="256" viewBox="0 0 256 256"><defs><clipPath id="master_svg0_7_4308"><rect x="0" y="0" width="256" height="256" rx="0"/></clipPath><linearGradient x1="-4.464285652261424e-8" y1="-3.3306690738754696e-16" x2="1.2066010339670339" y2="0.5267337057816883" id="master_svg1_7_4016"><stop offset="0%" stop-color="#FFE7A2" stop-opacity="1"/><stop offset="95.3125%" stop-color="#FFCB3D" stop-opacity="1"/><stop offset="100%" stop-color="#FFCB3D" stop-opacity="1"/></linearGradient><linearGradient x1="-0.00033294642344117165" y1="0.41766124963760376" x2="0.9998690075402725" y2="0.4184586076996766" id="master_svg2_7_4013"><stop offset="0%" stop-color="#FFCF4E" stop-opacity="1"/><stop offset="100%" stop-color="#FFB504" stop-opacity="1"/></linearGradient><linearGradient x1="-5.134781488891349e-16" y1="0.5000002980232239" x2="1" y2="0.5000002980232239" id="master_svg3_7_4010"><stop offset="0%" stop-color="#FFECB5" stop-opacity="1"/><stop offset="100%" stop-color="#FFDE82" stop-opacity="1"/></linearGradient></defs><g clip-path="url(#master_svg0_7_4308)"><g><path d="M28.999996185302734,34C22.373036185302734,34,16.999996185302734,39.37203,16.999996185302734,46L16.999996185302734,58.136700000000005L16.999996185302734,68.2012L16.999996185302734,160C16.999996185302734,166.627,22.373036185302734,172,28.999996185302734,172L228.99999618530273,172C235.62699618530274,172,240.99999618530273,166.627,240.99999618530273,160L240.99999618530273,70.13669999999999C240.99999618530273,63.5088,235.62699618530274,58.136700000000005,228.99999618530273,58.136700000000005L117.40399618530273,58.136700000000005L104.42579618530273,42.37891C100.05679618530273,37.07393,93.54479618530273,34,86.67189618530273,34L28.999996185302734,34Z" fill="#FCBC19" fill-opacity="1" style="mix-blend-mode:passthrough"/></g><g><path d="M92.78906103515625,74C97.76426103515625,74,102.60506103515625,72.3868,106.58606103515625,69.4024L116.45906103515625,62L229.00006103515625,62C235.62706103515626,62,241.00006103515625,67.3726,241.00006103515625,74L241.00006103515625,108L241.00006103515625,198C241.00006103515625,204.627,235.62706103515626,210,229.00006103515625,210L29.00006103515625,210C22.37266103515625,210,17.00006103515625,204.627,17.00006103515625,198L17.00006103515625,108L17.00006103515625,86C17.00006103515625,79.3726,22.37266103515625,74,29.00006103515625,74L87.00006103515625,74L92.78906103515625,74Z" fill-rule="evenodd" fill="url(#master_svg1_7_4016)" fill-opacity="1" style="mix-blend-mode:passthrough"/></g><g><path d="M229,205.99998474121094L29,205.99998474121094C22.372,205.99998474121094,17,200.62797474121095,17,193.99998474121094L17,197.99998474121094C17,204.62698474121095,22.372,209.99998474121094,29,209.99998474121094L229,209.99998474121094C235.627,209.99998474121094,241,204.62698474121095,241,197.99998474121094L241,193.99998474121094C241,200.62797474121095,235.627,205.99998474121094,229,205.99998474121094Z" fill="url(#master_svg2_7_4013)" fill-opacity="1" style="mix-blend-mode:passthrough"/></g><g><path d="M116.459,61.99998855591094L106.586,69.40198474121094C102.605,72.38698474121094,97.764,73.99998474121094,92.789,73.99998474121094L87,73.99998474121094L29,73.99998474121094C22.372,73.99998474121094,17,79.37198474121094,17,85.99998474121094L17,89.99998474121094C17,83.37298474121094,22.372,77.99998474121094,29,77.99998474121094L87,77.99998474121094L92.789,77.99998474121094C97.764,77.99998474121094,102.605,76.38698474121094,106.586,73.40298474121094L116.459,65.99998474121094L229,65.99998474121094C235.627,65.99998474121094,241,71.37198474121094,241,77.99998474121094L241,73.99998474121094C241,67.37298474121094,235.627,61.99998474121094,229,61.99998474121094L116.459,61.99998855591094Z" fill="url(#master_svg3_7_4010)" fill-opacity="1" style="mix-blend-mode:passthrough"/></g><g><path d="M92,110.3352L121.8324,106.28504L121.8456,134.9723L92.0272635,135.142L92,110.3352ZM121.8183,138.2784L121.842,166.9903L92.02313,162.9031L92.0214592,138.0858L121.8183,138.2784ZM125.4349,105.75557L164.9912,100L164.9912,134.6082L125.4349,134.9213L125.4349,105.75557ZM165,138.54840000000002L164.9903,173L125.4349,167.43439999999998L125.37950000000001,138.48329999999999L165,138.54840000000002Z" fill="#B18412" fill-opacity="1" style="mix-blend-mode:passthrough"/></g></g></svg>