<svg width="256" height="256" viewBox="0 0 256 256" fill="none" xmlns="http://www.w3.org/2000/svg">
<g clip-path="url(#clip0_4305_12218)">
<path d="M104.425 42.3784C100.056 37.0733 93.5437 34 86.6712 34H29C22.3726 34 17 39.3726 17 46V160C17 166.627 22.3726 172 29 172H229C235.627 172 241 166.627 241 160V70.1371C241 63.5097 235.627 58.1371 229 58.1371H117.404L104.425 42.3784Z" fill="url(#paint0_linear_4305_12218)"/>
<mask id="mask0_4305_12218" style="mask-type:alpha" maskUnits="userSpaceOnUse" x="17" y="34" width="224" height="138">
<path d="M86.6709 34C93.5434 34 100.057 37.0729 104.426 42.3779L117.403 58.1367H229C235.627 58.1367 241 63.5095 241 70.1367V160C241 166.627 235.627 172 229 172H29C22.3726 172 17 166.627 17 160V46C17 39.3726 22.3726 34 29 34H86.6709Z" fill="url(#paint1_linear_4305_12218)"/>
</mask>
<g mask="url(#mask0_4305_12218)">
<g filter="url(#filter0_f_4305_12218)" style="mix-blend-mode:multiply">
<path d="M241 160C241 166.627 235.627 172 229 172H29C22.3726 172 17 166.627 17 160V86C17 79.3726 22.3726 74 29 74H92.79C97.7649 73.9999 102.605 72.3865 106.586 69.4023L116.46 62H229C235.627 62 241 67.3726 241 74V160Z" fill="black" fill-opacity="0.3"/>
</g>
</g>
<g filter="url(#filter1_ii_4305_12218)">
<path d="M241 198C241 204.627 235.627 210 229 210H29C22.3726 210 17 204.627 17 198V86C17 79.3726 22.3726 74 29 74H92.79C97.7649 73.9999 102.605 72.3865 106.586 69.4023L116.46 62H229C235.627 62 241 67.3726 241 74V198Z" fill="url(#paint2_linear_4305_12218)"/>
</g>
<path d="M99.5996 121.513C99.5996 115.783 104.274 111.138 110.04 111.138H169.198V171.082C169.198 174.902 166.081 178 162.238 178H113.518C105.831 178 99.5996 171.807 99.5996 164.167V121.513Z" fill="url(#paint3_radial_4305_12218)"/>
<path d="M99.5996 121.513C99.5996 115.783 104.274 111.138 110.04 111.138H169.198V171.082C169.198 174.902 166.081 178 162.238 178H113.518C105.831 178 99.5996 171.807 99.5996 164.167V121.513Z" fill="url(#paint4_radial_4305_12218)"/>
<path d="M99.5996 133.042C99.5996 127.312 104.274 122.667 110.04 122.667H141.358C137.515 122.667 134.398 125.764 134.398 129.584V143.417C134.398 147.237 131.283 150.334 127.438 150.334H113.52C105.833 150.334 99.6016 156.528 99.6016 164.167V133.042H99.5996Z" fill="url(#paint5_linear_4305_12218)"/>
<path d="M99.5996 133.042C99.5996 127.312 104.274 122.667 110.04 122.667H141.358C137.515 122.667 134.398 125.764 134.398 129.584V143.417C134.398 147.237 131.283 150.334 127.438 150.334H113.52C105.833 150.334 99.6016 156.528 99.6016 164.167V133.042H99.5996Z" fill="url(#paint6_linear_4305_12218)"/>
<path d="M99.5996 108.832C99.5996 101.193 105.831 95 113.518 95H141.357V122.668H113.518C105.831 122.668 99.5996 128.861 99.5996 136.5V108.832Z" fill="url(#paint7_linear_4305_12218)"/>
<path d="M99.5996 108.832C99.5996 101.193 105.831 95 113.518 95H141.357V122.668H113.518C105.831 122.668 99.5996 128.861 99.5996 136.5V108.832Z" fill="url(#paint8_radial_4305_12218)"/>
<path d="M99.5996 108.832C99.5996 101.193 105.831 95 113.518 95H141.357V122.668H113.518C105.831 122.668 99.5996 128.861 99.5996 136.5V108.832Z" fill="url(#paint9_linear_4305_12218)"/>
<path d="M141.358 95H162.236C166.08 95 169.196 98.0963 169.196 101.916V115.752C169.196 119.571 166.08 122.668 162.236 122.668H141.358C137.514 122.668 134.397 119.571 134.397 115.752V101.916C134.397 98.0963 137.514 95 141.358 95Z" fill="url(#paint10_radial_4305_12218)"/>
<path d="M95.5397 134.194H117.578C121.742 134.194 125.118 137.549 125.118 141.686V163.591C125.118 167.729 121.742 171.083 117.578 171.083H95.5397C91.376 171.083 88 167.729 88 163.591V141.686C88 137.549 91.376 134.194 95.5397 134.194Z" fill="url(#paint11_radial_4305_12218)"/>
<path d="M95.5397 134.194H117.578C121.742 134.194 125.118 137.549 125.118 141.686V163.591C125.118 167.729 121.742 171.083 117.578 171.083H95.5397C91.376 171.083 88 167.729 88 163.591V141.686C88 137.549 91.376 134.194 95.5397 134.194Z" fill="url(#paint12_radial_4305_12218)"/>
<path d="M116.316 163.178H110.593L107.001 156.459C106.873 156.224 106.774 156.038 106.706 155.9C106.647 155.754 106.582 155.587 106.513 155.401H106.455C106.366 155.637 106.283 155.827 106.205 155.973C106.126 156.121 106.032 156.302 105.924 156.518L102.198 163.176H96.8018L103.278 152.622L97.2462 142.097H102.893L106.086 148.095C106.214 148.34 106.323 148.556 106.412 148.742C106.51 148.918 106.609 149.129 106.707 149.375H106.766C106.903 149.091 107.011 148.865 107.092 148.699C107.18 148.533 107.299 148.312 107.446 148.039L110.757 142.1H116.139L110.019 152.464L116.317 163.179L116.316 163.178Z" fill="white"/>
</g>
<defs>
<filter id="filter0_f_4305_12218" x="-20" y="25" width="298" height="184" filterUnits="userSpaceOnUse" color-interpolation-filters="sRGB">
<feFlood flood-opacity="0" result="BackgroundImageFix"/>
<feBlend mode="normal" in="SourceGraphic" in2="BackgroundImageFix" result="shape"/>
<feGaussianBlur stdDeviation="18.5" result="effect1_foregroundBlur_4305_12218"/>
</filter>
<filter id="filter1_ii_4305_12218" x="17" y="62" width="224" height="148" filterUnits="userSpaceOnUse" color-interpolation-filters="sRGB">
<feFlood flood-opacity="0" result="BackgroundImageFix"/>
<feBlend mode="normal" in="SourceGraphic" in2="BackgroundImageFix" result="shape"/>
<feColorMatrix in="SourceAlpha" type="matrix" values="0 0 0 0 0 0 0 0 0 0 0 0 0 0 0 0 0 0 127 0" result="hardAlpha"/>
<feOffset dy="4"/>
<feComposite in2="hardAlpha" operator="arithmetic" k2="-1" k3="1"/>
<feColorMatrix type="matrix" values="0 0 0 0 1 0 0 0 0 1 0 0 0 0 1 0 0 0 0.25 0"/>
<feBlend mode="normal" in2="shape" result="effect1_innerShadow_4305_12218"/>
<feColorMatrix in="SourceAlpha" type="matrix" values="0 0 0 0 0 0 0 0 0 0 0 0 0 0 0 0 0 0 127 0" result="hardAlpha"/>
<feOffset dy="-4"/>
<feComposite in2="hardAlpha" operator="arithmetic" k2="-1" k3="1"/>
<feColorMatrix type="matrix" values="0 0 0 0 0 0 0 0 0 0 0 0 0 0 0 0 0 0 0.9 0"/>
<feBlend mode="soft-light" in2="effect1_innerShadow_4305_12218" result="effect2_innerShadow_4305_12218"/>
</filter>
<linearGradient id="paint0_linear_4305_12218" x1="17" y1="34" x2="197.768" y2="215.142" gradientUnits="userSpaceOnUse">
<stop stop-color="#175B1E"/>
</linearGradient>
<linearGradient id="paint1_linear_4305_12218" x1="17" y1="34" x2="197.768" y2="215.142" gradientUnits="userSpaceOnUse">
<stop stop-color="#05815D"/>
<stop offset="1" stop-color="#0C575F"/>
</linearGradient>
<linearGradient id="paint2_linear_4305_12218" x1="176.439" y1="200.973" x2="119.815" y2="52.5335" gradientUnits="userSpaceOnUse">
<stop stop-color="#DDF2BB"/>
<stop offset="1" stop-color="#F8FCFE"/>
</linearGradient>
<radialGradient id="paint3_radial_4305_12218" cx="0" cy="0" r="1" gradientTransform="matrix(-65.733 -68.7286 -53.6501 50.6798 169.4 183.278)" gradientUnits="userSpaceOnUse">
<stop offset="0.06" stop-color="#379539"/>
<stop offset="0.42" stop-color="#297C2D"/>
<stop offset="0.7" stop-color="#15561C"/>
</radialGradient>
<radialGradient id="paint4_radial_4305_12218" cx="0" cy="0" r="1" gradientTransform="matrix(-27.7917 -26.7036 -20.7891 21.3697 120.651 135.456)" gradientUnits="userSpaceOnUse">
<stop stop-color="#073B10" stop-opacity="0.698039"/>
<stop offset="0.99" stop-color="#084A13" stop-opacity="0"/>
</radialGradient>
<linearGradient id="paint5_linear_4305_12218" x1="99.5997" y1="143.417" x2="131.578" y2="143.417" gradientUnits="userSpaceOnUse">
<stop stop-color="#52D17C"/>
<stop offset="0.33" stop-color="#4AA647"/>
</linearGradient>
<linearGradient id="paint6_linear_4305_12218" x1="120.478" y1="122.667" x2="120.478" y2="151.493" gradientUnits="userSpaceOnUse">
<stop stop-color="#29852F" stop-opacity="0.301961"/>
<stop offset="0.5" stop-color="#4AA647" stop-opacity="0"/>
</linearGradient>
<linearGradient id="paint7_linear_4305_12218" x1="101.447" y1="128.993" x2="139.821" y2="95.4964" gradientUnits="userSpaceOnUse">
<stop stop-color="#66D052"/>
<stop offset="1" stop-color="#85E972"/>
</linearGradient>
<radialGradient id="paint8_radial_4305_12218" cx="0" cy="0" r="1" gradientUnits="userSpaceOnUse" gradientTransform="translate(140.305 112.116) rotate(-180) scale(20.9317 44.0166)">
<stop offset="0.29" stop-color="#4EB43B"/>
<stop offset="1" stop-color="#72CC61" stop-opacity="0"/>
</radialGradient>
<linearGradient id="paint9_linear_4305_12218" x1="118.425" y1="115.75" x2="99.5997" y2="115.75" gradientUnits="userSpaceOnUse">
<stop offset="0.18" stop-color="#C0E075" stop-opacity="0"/>
<stop offset="1" stop-color="#D1EB95"/>
</linearGradient>
<radialGradient id="paint10_radial_4305_12218" cx="0" cy="0" r="1" gradientTransform="matrix(-39.2359 -31.5467 31.6555 -38.8827 174.096 126.888)" gradientUnits="userSpaceOnUse">
<stop offset="0.44" stop-color="#79E96D"/>
<stop offset="1" stop-color="#D0EB76"/>
</radialGradient>
<radialGradient id="paint11_radial_4305_12218" cx="0" cy="0" r="1" gradientTransform="matrix(37.1108 36.8862 105.683 -105.022 89.0905 134.392)" gradientUnits="userSpaceOnUse">
<stop stop-color="#20A85E"/>
<stop offset="0.94" stop-color="#09442A"/>
</radialGradient>
<radialGradient id="paint12_radial_4305_12218" cx="0" cy="0" r="1" gradientUnits="userSpaceOnUse" gradientTransform="translate(106.983 156.33) rotate(90) scale(25.8243 29.9356)">
<stop offset="0.58" stop-color="#33A662" stop-opacity="0"/>
<stop offset="0.97" stop-color="#98F0B0" stop-opacity="0.301961"/>
</radialGradient>
<clipPath id="clip0_4305_12218">
<rect width="256" height="256" fill="white"/>
</clipPath>
</defs>
</svg>
