<svg width="256" height="256" viewBox="0 0 256 256" fill="none" xmlns="http://www.w3.org/2000/svg">
<path fill-rule="evenodd" clip-rule="evenodd" d="M104.425 42.3784C100.056 37.0733 93.5437 34 86.6712 34H29C22.3726 34 17 39.3726 17 46V58.1371V68.2V160C17 166.627 22.3726 172 29 172H229C235.627 172 241 166.627 241 160V70.1371C241 63.5097 235.627 58.1371 229 58.1371H117.404L104.425 42.3784Z" fill="#0F5798"/>
<mask id="mask0_719_17299" style="mask-type:alpha" maskUnits="userSpaceOnUse" x="17" y="34" width="224" height="138">
<path fill-rule="evenodd" clip-rule="evenodd" d="M104.425 42.3784C100.056 37.0733 93.5437 34 86.6712 34H29C22.3726 34 17 39.3726 17 46V58.1371V68.2V160C17 166.627 22.3726 172 29 172H229C235.627 172 241 166.627 241 160V70.1371C241 63.5097 235.627 58.1371 229 58.1371H117.404L104.425 42.3784Z" fill="url(#paint0_linear_719_17299)"/>
</mask>
<g mask="url(#mask0_719_17299)">
<g style="mix-blend-mode:multiply" filter="url(#filter0_f_719_17299)">
<path fill-rule="evenodd" clip-rule="evenodd" d="M92.789 74C97.7642 74 102.605 72.3868 106.586 69.4024L116.459 62H229C235.627 62 241 67.3726 241 74V108V160C241 166.627 235.627 172 229 172H29C22.3726 172 17 166.627 17 160L17 108V86C17 79.3726 22.3726 74 29 74H87H92.789Z" fill="black" fill-opacity="0.3"/>
</g>
</g>
<g filter="url(#filter1_ii_719_17299)">
<path fill-rule="evenodd" clip-rule="evenodd" d="M92.789 74C97.7642 74 102.605 72.3868 106.586 69.4024L116.459 62H229C235.627 62 241 67.3726 241 74V108V198C241 204.627 235.627 210 229 210H29C22.3726 210 17 204.627 17 198L17 108V86C17 79.3726 22.3726 74 29 74H87H92.789Z" fill="url(#paint1_linear_719_17299)"/>
</g>
<path fill-rule="evenodd" clip-rule="evenodd" d="M173.562 91H152.625C151.779 90.9999 150.942 91.1665 150.161 91.4901C149.38 91.8137 148.67 92.2881 148.073 92.8861L98.9945 141.963H98.9949L91.7607 149.198C90.5533 150.405 89.875 152.043 89.875 153.75V174.688C89.875 178.242 92.7569 181.125 96.3121 181.125H117.25C118.958 181.125 120.595 180.447 121.803 179.239L129.037 172.005V172.005L178.115 122.927C179.322 121.72 180 120.082 180 118.375V97.4375C180 93.8825 177.118 91.0004 173.563 91H173.562Z" fill="#CEECFC"/>
<path fill-rule="evenodd" clip-rule="evenodd" d="M96.3125 91H117.25C118.958 91 120.595 91.6782 121.802 92.8854L134.938 106.021V124.571C134.938 130.918 129.793 136.062 123.446 136.062H104.896L91.7604 122.927C90.5532 121.72 89.875 120.083 89.875 118.375V97.4375C89.875 93.8821 92.7571 91 96.3125 91Z" fill="#F7FDFF"/>
<path fill-rule="evenodd" clip-rule="evenodd" d="M173.562 181.125H152.625C151.779 181.125 150.942 180.959 150.161 180.635C149.38 180.312 148.671 179.837 148.073 179.24L134.938 166.104V147.554C134.938 141.207 140.082 136.062 146.428 136.062H164.979L178.115 149.198C178.712 149.796 179.187 150.505 179.51 151.286C179.834 152.067 180 152.904 180 153.75V174.688C180 178.243 177.118 181.125 173.562 181.125Z" fill="#84BAE3"/>
<g filter="url(#filter2_d_719_17299)">
<path fill-rule="evenodd" clip-rule="evenodd" d="M81.2916 110.312H124.208C126.579 110.312 128.5 112.215 128.5 114.562V157.063C128.5 159.41 126.579 161.312 124.208 161.312H81.2916C78.9213 161.312 77 159.41 77 157.063V114.562C77 112.215 78.9213 110.312 81.2916 110.312Z" fill="url(#paint2_linear_719_17299)"/>
</g>
<path fill-rule="evenodd" clip-rule="evenodd" d="M111.573 126.55H99.4865V133.618H110.832V138.148H99.4865V145.489H112.217V150H94V122H111.573V126.55V126.55Z" fill="#1177D3"/>
<defs>
<filter id="filter0_f_719_17299" x="-20" y="25" width="298" height="184" filterUnits="userSpaceOnUse" color-interpolation-filters="sRGB">
<feFlood flood-opacity="0" result="BackgroundImageFix"/>
<feBlend mode="normal" in="SourceGraphic" in2="BackgroundImageFix" result="shape"/>
<feGaussianBlur stdDeviation="18.5" result="effect1_foregroundBlur_719_17299"/>
</filter>
<filter id="filter1_ii_719_17299" x="17" y="62" width="224" height="148" filterUnits="userSpaceOnUse" color-interpolation-filters="sRGB">
<feFlood flood-opacity="0" result="BackgroundImageFix"/>
<feBlend mode="normal" in="SourceGraphic" in2="BackgroundImageFix" result="shape"/>
<feColorMatrix in="SourceAlpha" type="matrix" values="0 0 0 0 0 0 0 0 0 0 0 0 0 0 0 0 0 0 127 0" result="hardAlpha"/>
<feOffset dy="4"/>
<feComposite in2="hardAlpha" operator="arithmetic" k2="-1" k3="1"/>
<feColorMatrix type="matrix" values="0 0 0 0 1 0 0 0 0 1 0 0 0 0 1 0 0 0 0.25 0"/>
<feBlend mode="normal" in2="shape" result="effect1_innerShadow_719_17299"/>
<feColorMatrix in="SourceAlpha" type="matrix" values="0 0 0 0 0 0 0 0 0 0 0 0 0 0 0 0 0 0 127 0" result="hardAlpha"/>
<feOffset dy="-4"/>
<feComposite in2="hardAlpha" operator="arithmetic" k2="-1" k3="1"/>
<feColorMatrix type="matrix" values="0 0 0 0 0 0 0 0 0 0 0 0 0 0 0 0 0 0 0.9 0"/>
<feBlend mode="soft-light" in2="effect1_innerShadow_719_17299" result="effect2_innerShadow_719_17299"/>
</filter>
<filter id="filter2_d_719_17299" x="77" y="110.312" width="59.5" height="59" filterUnits="userSpaceOnUse" color-interpolation-filters="sRGB">
<feFlood flood-opacity="0" result="BackgroundImageFix"/>
<feColorMatrix in="SourceAlpha" type="matrix" values="0 0 0 0 0 0 0 0 0 0 0 0 0 0 0 0 0 0 127 0" result="hardAlpha"/>
<feOffset dx="4" dy="4"/>
<feGaussianBlur stdDeviation="2"/>
<feComposite in2="hardAlpha" operator="out"/>
<feColorMatrix type="matrix" values="0 0 0 0 0 0 0 0 0 0 0 0 0 0 0 0 0 0 0.15 0"/>
<feBlend mode="normal" in2="BackgroundImageFix" result="effect1_dropShadow_719_17299"/>
<feBlend mode="normal" in="SourceGraphic" in2="effect1_dropShadow_719_17299" result="shape"/>
</filter>
<linearGradient id="paint0_linear_719_17299" x1="17" y1="34" x2="197.768" y2="215.142" gradientUnits="userSpaceOnUse">
<stop stop-color="#05815D"/>
<stop offset="1" stop-color="#0C575F"/>
</linearGradient>
<linearGradient id="paint1_linear_719_17299" x1="17" y1="62" x2="241" y2="210" gradientUnits="userSpaceOnUse">
<stop stop-color="#167FD6"/>
<stop offset="1" stop-color="#0F5493"/>
</linearGradient>
<linearGradient id="paint2_linear_719_17299" x1="86.9201" y1="106.655" x2="116.321" y2="166.349" gradientUnits="userSpaceOnUse">
<stop stop-color="#F7FBFF"/>
<stop offset="0.442708" stop-color="#E8F3FF"/>
<stop offset="0.947917" stop-color="#DFEEFF"/>
</linearGradient>
</defs>
</svg>
