<svg width="256" height="256" viewBox="0 0 256 256" fill="none" xmlns="http://www.w3.org/2000/svg">
<g clip-path="url(#clip0_4312_14241)">
<path d="M104.425 42.3784C100.056 37.0733 93.5437 34 86.6712 34H29C22.3726 34 17 39.3726 17 46V160C17 166.627 22.3726 172 29 172H229C235.627 172 241 166.627 241 160V70.1371C241 63.5097 235.627 58.1371 229 58.1371H117.404L104.425 42.3784Z" fill="url(#paint0_linear_4312_14241)"/>
<mask id="mask0_4312_14241" style="mask-type:alpha" maskUnits="userSpaceOnUse" x="17" y="34" width="224" height="138">
<path d="M86.6709 34C93.5434 34 100.057 37.0729 104.426 42.3779L117.403 58.1367H229C235.627 58.1367 241 63.5095 241 70.1367V160C241 166.627 235.627 172 229 172H29C22.3726 172 17 166.627 17 160V46C17 39.3726 22.3726 34 29 34H86.6709Z" fill="url(#paint1_linear_4312_14241)"/>
</mask>
<g mask="url(#mask0_4312_14241)">
<g filter="url(#filter0_f_4312_14241)" style="mix-blend-mode:multiply">
<path d="M241 160C241 166.627 235.627 172 229 172H29C22.3726 172 17 166.627 17 160V86C17 79.3726 22.3726 74 29 74H92.79C97.7649 73.9999 102.605 72.3865 106.586 69.4023L116.46 62H229C235.627 62 241 67.3726 241 74V160Z" fill="black" fill-opacity="0.3"/>
</g>
</g>
<g filter="url(#filter1_ii_4312_14241)">
<path d="M241 198C241 204.627 235.627 210 229 210H29C22.3726 210 17 204.627 17 198V86C17 79.3726 22.3726 74 29 74H92.79C97.7649 73.9999 102.605 72.3865 106.586 69.4023L116.46 62H229C235.627 62 241 67.3726 241 74V198Z" fill="url(#paint2_linear_4312_14241)"/>
</g>
<path d="M165.093 145.875V166.625C165.093 172.355 151.257 177 134.196 177C117.135 177 103.3 172.355 103.3 166.625V145.875H165.093Z" fill="url(#paint3_linear_4312_14241)"/>
<path d="M165.093 145.875V166.625C165.093 172.355 151.257 177 134.196 177C117.135 177 103.3 172.355 103.3 166.625V145.875H165.093Z" fill="url(#paint4_radial_4312_14241)"/>
<path d="M165.093 125.125V145.875C165.093 151.605 151.257 156.25 134.196 156.25C117.135 156.25 103.3 151.605 103.3 145.875V125.125H165.093Z" fill="url(#paint5_linear_4312_14241)"/>
<path d="M165.093 125.125V145.875C165.093 151.605 151.257 156.25 134.196 156.25C117.135 156.25 103.3 151.605 103.3 145.875V125.125H165.093Z" fill="url(#paint6_radial_4312_14241)"/>
<path d="M165.093 104.375V125.125C165.093 130.855 151.257 135.5 134.196 135.5C117.135 135.5 103.3 130.855 103.3 125.125V104.375H165.093Z" fill="url(#paint7_linear_4312_14241)"/>
<path d="M165.093 104.375V125.125C165.093 130.855 151.257 135.5 134.196 135.5C117.135 135.5 103.3 130.855 103.3 125.125V104.375H165.093Z" fill="url(#paint8_radial_4312_14241)"/>
<path d="M134.196 114.75C117.133 114.75 103.3 110.105 103.3 104.375C103.3 98.6448 117.133 94 134.196 94C151.259 94 165.093 98.6448 165.093 104.375C165.093 110.105 151.259 114.75 134.196 114.75Z" fill="url(#paint9_linear_4312_14241)"/>
<path d="M99.6936 133.425H119.263C122.959 133.425 125.956 136.444 125.956 140.168V159.882C125.956 163.606 122.959 166.625 119.263 166.625H99.6936C95.9969 166.625 93 163.606 93 159.882V140.168C93 136.444 95.9969 133.425 99.6936 133.425Z" fill="url(#paint10_radial_4312_14241)"/>
<g filter="url(#filter2_d_4312_14241)">
<path d="M99.6936 133.425H119.263C122.959 133.425 125.956 136.444 125.956 140.168V159.882C125.956 163.606 122.959 166.625 119.263 166.625H99.6936C95.9969 166.625 93 163.606 93 159.882V140.168C93 136.444 95.9969 133.425 99.6936 133.425Z" fill="url(#paint11_radial_4312_14241)" shape-rendering="crispEdges"/>
</g>
<path d="M100.282 159.508L107.034 140.533H112.064L118.658 159.508H114.193L112.893 155.711H105.984L104.71 159.508H100.282ZM106.956 152.218H111.881L109.871 145.59C109.8 145.352 109.736 145.135 109.673 144.941C109.612 144.738 109.551 144.504 109.489 144.24H109.383C109.33 144.461 109.273 144.677 109.212 144.889C109.151 145.099 109.08 145.33 109.001 145.578L106.953 152.219L106.956 152.218Z" fill="#B11E32"/>
</g>
<defs>
<filter id="filter0_f_4312_14241" x="-20" y="25" width="298" height="184" filterUnits="userSpaceOnUse" color-interpolation-filters="sRGB">
<feFlood flood-opacity="0" result="BackgroundImageFix"/>
<feBlend mode="normal" in="SourceGraphic" in2="BackgroundImageFix" result="shape"/>
<feGaussianBlur stdDeviation="18.5" result="effect1_foregroundBlur_4312_14241"/>
</filter>
<filter id="filter1_ii_4312_14241" x="17" y="62" width="224" height="148" filterUnits="userSpaceOnUse" color-interpolation-filters="sRGB">
<feFlood flood-opacity="0" result="BackgroundImageFix"/>
<feBlend mode="normal" in="SourceGraphic" in2="BackgroundImageFix" result="shape"/>
<feColorMatrix in="SourceAlpha" type="matrix" values="0 0 0 0 0 0 0 0 0 0 0 0 0 0 0 0 0 0 127 0" result="hardAlpha"/>
<feOffset dy="4"/>
<feComposite in2="hardAlpha" operator="arithmetic" k2="-1" k3="1"/>
<feColorMatrix type="matrix" values="0 0 0 0 1 0 0 0 0 1 0 0 0 0 1 0 0 0 0.25 0"/>
<feBlend mode="normal" in2="shape" result="effect1_innerShadow_4312_14241"/>
<feColorMatrix in="SourceAlpha" type="matrix" values="0 0 0 0 0 0 0 0 0 0 0 0 0 0 0 0 0 0 127 0" result="hardAlpha"/>
<feOffset dy="-4"/>
<feComposite in2="hardAlpha" operator="arithmetic" k2="-1" k3="1"/>
<feColorMatrix type="matrix" values="0 0 0 0 0 0 0 0 0 0 0 0 0 0 0 0 0 0 0.9 0"/>
<feBlend mode="soft-light" in2="effect1_innerShadow_4312_14241" result="effect2_innerShadow_4312_14241"/>
</filter>
<filter id="filter2_d_4312_14241" x="88" y="128.425" width="46.9561" height="47.2002" filterUnits="userSpaceOnUse" color-interpolation-filters="sRGB">
<feFlood flood-opacity="0" result="BackgroundImageFix"/>
<feColorMatrix in="SourceAlpha" type="matrix" values="0 0 0 0 0 0 0 0 0 0 0 0 0 0 0 0 0 0 127 0" result="hardAlpha"/>
<feOffset dx="2" dy="2"/>
<feGaussianBlur stdDeviation="3.5"/>
<feComposite in2="hardAlpha" operator="out"/>
<feColorMatrix type="matrix" values="0 0 0 0 0 0 0 0 0 0 0 0 0 0 0 0 0 0 0.25 0"/>
<feBlend mode="normal" in2="BackgroundImageFix" result="effect1_dropShadow_4312_14241"/>
<feBlend mode="normal" in="SourceGraphic" in2="effect1_dropShadow_4312_14241" result="shape"/>
</filter>
<linearGradient id="paint0_linear_4312_14241" x1="17" y1="34" x2="197.768" y2="215.142" gradientUnits="userSpaceOnUse">
<stop stop-color="#B72036"/>
</linearGradient>
<linearGradient id="paint1_linear_4312_14241" x1="17" y1="34" x2="197.768" y2="215.142" gradientUnits="userSpaceOnUse">
<stop stop-color="#05815D"/>
<stop offset="1" stop-color="#0C575F"/>
</linearGradient>
<linearGradient id="paint2_linear_4312_14241" x1="176.439" y1="200.973" x2="119.815" y2="52.5335" gradientUnits="userSpaceOnUse">
<stop stop-color="#B72036"/>
<stop offset="1" stop-color="#E1355A"/>
</linearGradient>
<linearGradient id="paint3_linear_4312_14241" x1="165.093" y1="161.438" x2="103.3" y2="161.438" gradientUnits="userSpaceOnUse">
<stop stop-color="#DC64A1"/>
<stop offset="0.51" stop-color="#CB5462"/>
<stop offset="1" stop-color="#AE4854"/>
</linearGradient>
<radialGradient id="paint4_radial_4312_14241" cx="0" cy="0" r="1" gradientUnits="userSpaceOnUse" gradientTransform="translate(134.562 145.883) rotate(90) scale(31.125 79.7744)">
<stop offset="0.21" stop-color="#CE6E79" stop-opacity="0.698039"/>
<stop offset="0.6" stop-color="#D25B6A" stop-opacity="0"/>
</radialGradient>
<linearGradient id="paint5_linear_4312_14241" x1="165.093" y1="140.688" x2="103.3" y2="140.688" gradientUnits="userSpaceOnUse">
<stop stop-color="#F275B3"/>
<stop offset="0.51" stop-color="#EB6473"/>
<stop offset="1" stop-color="#CE4E5C"/>
</linearGradient>
<radialGradient id="paint6_radial_4312_14241" cx="0" cy="0" r="1" gradientUnits="userSpaceOnUse" gradientTransform="translate(134.562 125.125) rotate(90) scale(31.125 79.7744)">
<stop offset="0.21" stop-color="#BD5A66" stop-opacity="0.301961"/>
<stop offset="0.75" stop-color="#CA626F" stop-opacity="0"/>
</radialGradient>
<linearGradient id="paint7_linear_4312_14241" x1="165.093" y1="119.938" x2="103.3" y2="119.938" gradientUnits="userSpaceOnUse">
<stop stop-color="#FFC7E4"/>
<stop offset="0.51" stop-color="#FFB4BC"/>
<stop offset="1" stop-color="#FF8896"/>
</linearGradient>
<radialGradient id="paint8_radial_4312_14241" cx="0" cy="0" r="1" gradientUnits="userSpaceOnUse" gradientTransform="translate(134.562 104.367) rotate(90) scale(31.125 79.7744)">
<stop offset="0.21" stop-color="#FFD3DB" stop-opacity="0.4"/>
<stop offset="0.63" stop-color="#FFD3DB" stop-opacity="0"/>
</radialGradient>
<linearGradient id="paint9_linear_4312_14241" x1="137.704" y1="91.1232" x2="129.786" y2="120.602" gradientUnits="userSpaceOnUse">
<stop stop-color="#FFEDF6"/>
<stop offset="0.9" stop-color="#FFD1DA"/>
</linearGradient>
<radialGradient id="paint10_radial_4312_14241" cx="0" cy="0" r="1" gradientTransform="matrix(32.9599 33.2038 32.9599 -33.2038 93.0314 132.945)" gradientUnits="userSpaceOnUse">
<stop stop-color="#FFFAFB"/>
<stop offset="0.94" stop-color="#FFDDE1"/>
</radialGradient>
<radialGradient id="paint11_radial_4312_14241" cx="0" cy="0" r="1" gradientUnits="userSpaceOnUse" gradientTransform="translate(109.468 153.341) rotate(90) scale(23.24 26.2619)">
<stop offset="0.58" stop-color="#FFB1C0" stop-opacity="0"/>
<stop offset="0.97" stop-color="#FFF3F6" stop-opacity="0.501961"/>
</radialGradient>
<clipPath id="clip0_4312_14241">
<rect width="256" height="256" fill="white"/>
</clipPath>
</defs>
</svg>
