<svg width="256" height="256" viewBox="0 0 256 256" fill="none" xmlns="http://www.w3.org/2000/svg">
<path fill-rule="evenodd" clip-rule="evenodd" d="M104.425 42.3784C100.056 37.0733 93.5437 34 86.6712 34H29C22.3726 34 17 39.3726 17 46V58.1371V68.2V160C17 166.627 22.3726 172 29 172H229C235.627 172 241 166.627 241 160V70.1371C241 63.5097 235.627 58.1371 229 58.1371H117.404L104.425 42.3784Z" fill="#A23015"/>
<mask id="mask0_719_17208" style="mask-type:alpha" maskUnits="userSpaceOnUse" x="17" y="34" width="224" height="138">
<path fill-rule="evenodd" clip-rule="evenodd" d="M104.425 42.3784C100.056 37.0733 93.5437 34 86.6712 34H29C22.3726 34 17 39.3726 17 46V58.1371V68.2V160C17 166.627 22.3726 172 29 172H229C235.627 172 241 166.627 241 160V70.1371C241 63.5097 235.627 58.1371 229 58.1371H117.404L104.425 42.3784Z" fill="url(#paint0_linear_719_17208)"/>
</mask>
<g mask="url(#mask0_719_17208)">
<g style="mix-blend-mode:multiply" filter="url(#filter0_f_719_17208)">
<path fill-rule="evenodd" clip-rule="evenodd" d="M92.789 74C97.7642 74 102.605 72.3868 106.586 69.4024L116.459 62H229C235.627 62 241 67.3726 241 74V108V160C241 166.627 235.627 172 229 172H29C22.3726 172 17 166.627 17 160L17 108V86C17 79.3726 22.3726 74 29 74H87H92.789Z" fill="black" fill-opacity="0.3"/>
</g>
</g>
<g filter="url(#filter1_ii_719_17208)">
<path fill-rule="evenodd" clip-rule="evenodd" d="M92.789 74C97.7642 74 102.605 72.3868 106.586 69.4024L116.459 62H229C235.627 62 241 67.3726 241 74V108V198C241 204.627 235.627 210 229 210H29C22.3726 210 17 204.627 17 198L17 108V86C17 79.3726 22.3726 74 29 74H87H92.789Z" fill="url(#paint1_linear_719_17208)"/>
</g>
<path d="M142.584 139.85L136.055 92H135.567C111.827 92.0693 92.5986 111.286 92.5293 135.013V135.5L142.584 139.85Z" fill="#FFD8CD"/>
<path d="M136.542 92H136.055V135.5L157.818 144.2L179.58 135.5V135.013C179.511 111.286 160.283 92.0693 136.542 92Z" fill="#FFF9F7"/>
<path d="M179.581 135.5V135.978C179.512 159.71 160.28 178.932 136.534 179H135.576C111.83 178.932 92.5974 159.71 92.5293 135.978V135.5H179.581Z" fill="#F7AD99"/>
<g filter="url(#filter2_d_719_17208)">
<path d="M83.2492 110H125.751C128.098 110 130 111.902 130 114.249V156.751C130 159.098 128.098 161 125.751 161H83.2492C80.9025 161 79 159.098 79 156.751V114.249C79 111.902 80.9025 110 83.2492 110Z" fill="url(#paint2_linear_719_17208)"/>
</g>
<path d="M105 122.026C107.712 121.841 110.401 122.637 112.585 124.271C113.484 125.081 114.189 126.088 114.646 127.214C115.104 128.34 115.302 129.557 115.225 130.772C115.255 132.483 114.804 134.167 113.923 135.63C113.032 137.067 111.748 138.213 110.226 138.93C108.487 139.747 106.584 140.151 104.666 140.109H99.3967V150H94V122.026H105ZM99.3921 135.836H104.037C105.509 135.946 106.97 135.506 108.143 134.6C108.622 134.135 108.994 133.571 109.234 132.946C109.474 132.32 109.575 131.65 109.531 130.981C109.531 127.898 107.757 126.357 104.209 126.357H99.3922V135.836H99.3921Z" fill="#C4401E"/>
<defs>
<filter id="filter0_f_719_17208" x="-20" y="25" width="298" height="184" filterUnits="userSpaceOnUse" color-interpolation-filters="sRGB">
<feFlood flood-opacity="0" result="BackgroundImageFix"/>
<feBlend mode="normal" in="SourceGraphic" in2="BackgroundImageFix" result="shape"/>
<feGaussianBlur stdDeviation="18.5" result="effect1_foregroundBlur_719_17208"/>
</filter>
<filter id="filter1_ii_719_17208" x="17" y="62" width="224" height="148" filterUnits="userSpaceOnUse" color-interpolation-filters="sRGB">
<feFlood flood-opacity="0" result="BackgroundImageFix"/>
<feBlend mode="normal" in="SourceGraphic" in2="BackgroundImageFix" result="shape"/>
<feColorMatrix in="SourceAlpha" type="matrix" values="0 0 0 0 0 0 0 0 0 0 0 0 0 0 0 0 0 0 127 0" result="hardAlpha"/>
<feOffset dy="4"/>
<feComposite in2="hardAlpha" operator="arithmetic" k2="-1" k3="1"/>
<feColorMatrix type="matrix" values="0 0 0 0 1 0 0 0 0 1 0 0 0 0 1 0 0 0 0.25 0"/>
<feBlend mode="normal" in2="shape" result="effect1_innerShadow_719_17208"/>
<feColorMatrix in="SourceAlpha" type="matrix" values="0 0 0 0 0 0 0 0 0 0 0 0 0 0 0 0 0 0 127 0" result="hardAlpha"/>
<feOffset dy="-4"/>
<feComposite in2="hardAlpha" operator="arithmetic" k2="-1" k3="1"/>
<feColorMatrix type="matrix" values="0 0 0 0 0 0 0 0 0 0 0 0 0 0 0 0 0 0 0.9 0"/>
<feBlend mode="soft-light" in2="effect1_innerShadow_719_17208" result="effect2_innerShadow_719_17208"/>
</filter>
<filter id="filter2_d_719_17208" x="79" y="110" width="59" height="59" filterUnits="userSpaceOnUse" color-interpolation-filters="sRGB">
<feFlood flood-opacity="0" result="BackgroundImageFix"/>
<feColorMatrix in="SourceAlpha" type="matrix" values="0 0 0 0 0 0 0 0 0 0 0 0 0 0 0 0 0 0 127 0" result="hardAlpha"/>
<feOffset dx="4" dy="4"/>
<feGaussianBlur stdDeviation="2"/>
<feComposite in2="hardAlpha" operator="out"/>
<feColorMatrix type="matrix" values="0 0 0 0 0 0 0 0 0 0 0 0 0 0 0 0 0 0 0.15 0"/>
<feBlend mode="normal" in2="BackgroundImageFix" result="effect1_dropShadow_719_17208"/>
<feBlend mode="normal" in="SourceGraphic" in2="effect1_dropShadow_719_17208" result="shape"/>
</filter>
<linearGradient id="paint0_linear_719_17208" x1="17" y1="34" x2="197.768" y2="215.142" gradientUnits="userSpaceOnUse">
<stop stop-color="#05815D"/>
<stop offset="1" stop-color="#0C575F"/>
</linearGradient>
<linearGradient id="paint1_linear_719_17208" x1="17" y1="62" x2="241" y2="210" gradientUnits="userSpaceOnUse">
<stop stop-color="#E54F25"/>
<stop offset="1" stop-color="#9A2D13"/>
</linearGradient>
<linearGradient id="paint2_linear_719_17208" x1="87.8597" y1="106.68" x2="112.5" y2="167" gradientUnits="userSpaceOnUse">
<stop stop-color="white"/>
<stop offset="0.5" stop-color="#FFF9F7"/>
<stop offset="1" stop-color="#FDD6CB"/>
</linearGradient>
</defs>
</svg>
