<svg width="256" height="256" viewBox="0 0 256 256" fill="none" xmlns="http://www.w3.org/2000/svg">
<path fill-rule="evenodd" clip-rule="evenodd" d="M104.425 42.3784C100.056 37.0733 93.5437 34 86.6712 34H29C22.3726 34 17 39.3726 17 46V58.1371V68.2V160C17 166.627 22.3726 172 29 172H229C235.627 172 241 166.627 241 160V70.1371C241 63.5097 235.627 58.1371 229 58.1371H117.404L104.425 42.3784Z" fill="#233C63"/>
<mask id="mask0_2306_39683" style="mask-type:alpha" maskUnits="userSpaceOnUse" x="17" y="34" width="224" height="138">
<path fill-rule="evenodd" clip-rule="evenodd" d="M104.425 42.3784C100.056 37.0733 93.5437 34 86.6712 34H29C22.3726 34 17 39.3726 17 46V58.1371V68.2V160C17 166.627 22.3726 172 29 172H229C235.627 172 241 166.627 241 160V70.1371C241 63.5097 235.627 58.1371 229 58.1371H117.404L104.425 42.3784Z" fill="url(#paint0_linear_2306_39683)"/>
</mask>
<g mask="url(#mask0_2306_39683)">
<g style="mix-blend-mode:multiply" filter="url(#filter0_f_2306_39683)">
<path fill-rule="evenodd" clip-rule="evenodd" d="M92.789 74C97.7642 74 102.605 72.3868 106.586 69.4024L116.459 62H229C235.627 62 241 67.3726 241 74V108V160C241 166.627 235.627 172 229 172H29C22.3726 172 17 166.627 17 160L17 108V86C17 79.3726 22.3726 74 29 74H87H92.789Z" fill="black" fill-opacity="0.3"/>
</g>
</g>
<g filter="url(#filter1_ii_2306_39683)">
<path fill-rule="evenodd" clip-rule="evenodd" d="M92.789 74C97.7642 74 102.605 72.3868 106.586 69.4024L116.459 62H229C235.627 62 241 67.3726 241 74V108V198C241 204.627 235.627 210 229 210H29C22.3726 210 17 204.627 17 198L17 108V86C17 79.3726 22.3726 74 29 74H87H92.789Z" fill="url(#paint1_linear_2306_39683)"/>
</g>
<path d="M82 52.2343C82 48.9895 83.3005 45.8777 85.6154 43.5833C87.9303 41.289 91.0699 40 94.3437 40H96.4615V75.8333C96.4615 79.7914 93.2242 83 89.2308 83C85.2373 83 82 79.7914 82 75.8333V52.2343Z" fill="url(#paint2_linear_2306_39683)"/>
<path d="M176 52.2343C176 48.9895 174.7 45.8777 172.385 43.5833C170.07 41.289 166.93 40 163.656 40H161.538V75.8333C161.538 79.7914 164.776 83 168.769 83C172.763 83 176 79.7914 176 75.8333V52.2343Z" fill="url(#paint3_linear_2306_39683)"/>
<g filter="url(#filter2_i_2306_39683)">
<rect x="96" y="40" width="66" height="14" fill="url(#paint4_linear_2306_39683)"/>
</g>
<g filter="url(#filter3_d_2306_39683)">
<path d="M139.097 106.653C139.097 100.77 134.328 96 128.444 96C122.561 96 117.791 100.77 117.791 106.653V146.628L109.789 138.625C105.628 134.465 98.8834 134.465 94.7229 138.625C90.5624 142.786 90.5624 149.53 94.7229 153.691L120.912 179.879C122.932 181.899 125.679 183.024 128.536 183C131.393 182.974 134.121 181.803 136.106 179.749L161.407 153.56C165.495 149.328 165.379 142.584 161.147 138.497C156.916 134.408 150.172 134.524 146.084 138.756L139.097 145.987V106.653Z" fill="#F8F8F8"/>
</g>
<defs>
<filter id="filter0_f_2306_39683" x="-20" y="25" width="298" height="184" filterUnits="userSpaceOnUse" color-interpolation-filters="sRGB">
<feFlood flood-opacity="0" result="BackgroundImageFix"/>
<feBlend mode="normal" in="SourceGraphic" in2="BackgroundImageFix" result="shape"/>
<feGaussianBlur stdDeviation="18.5" result="effect1_foregroundBlur_2306_39683"/>
</filter>
<filter id="filter1_ii_2306_39683" x="17" y="62" width="224" height="148" filterUnits="userSpaceOnUse" color-interpolation-filters="sRGB">
<feFlood flood-opacity="0" result="BackgroundImageFix"/>
<feBlend mode="normal" in="SourceGraphic" in2="BackgroundImageFix" result="shape"/>
<feColorMatrix in="SourceAlpha" type="matrix" values="0 0 0 0 0 0 0 0 0 0 0 0 0 0 0 0 0 0 127 0" result="hardAlpha"/>
<feOffset dy="-4"/>
<feComposite in2="hardAlpha" operator="arithmetic" k2="-1" k3="1"/>
<feColorMatrix type="matrix" values="0 0 0 0 0 0 0 0 0 0 0 0 0 0 0 0 0 0 0.25 0"/>
<feBlend mode="normal" in2="shape" result="effect1_innerShadow_2306_39683"/>
<feColorMatrix in="SourceAlpha" type="matrix" values="0 0 0 0 0 0 0 0 0 0 0 0 0 0 0 0 0 0 127 0" result="hardAlpha"/>
<feOffset dy="4"/>
<feComposite in2="hardAlpha" operator="arithmetic" k2="-1" k3="1"/>
<feColorMatrix type="matrix" values="0 0 0 0 1 0 0 0 0 1 0 0 0 0 1 0 0 0 0.25 0"/>
<feBlend mode="normal" in2="effect1_innerShadow_2306_39683" result="effect2_innerShadow_2306_39683"/>
</filter>
<filter id="filter2_i_2306_39683" x="96" y="39.75" width="66" height="14.25" filterUnits="userSpaceOnUse" color-interpolation-filters="sRGB">
<feFlood flood-opacity="0" result="BackgroundImageFix"/>
<feBlend mode="normal" in="SourceGraphic" in2="BackgroundImageFix" result="shape"/>
<feColorMatrix in="SourceAlpha" type="matrix" values="0 0 0 0 0 0 0 0 0 0 0 0 0 0 0 0 0 0 127 0" result="hardAlpha"/>
<feMorphology radius="0.25" operator="dilate" in="SourceAlpha" result="effect1_innerShadow_2306_39683"/>
<feOffset dy="-0.25"/>
<feGaussianBlur stdDeviation="0.25"/>
<feComposite in2="hardAlpha" operator="arithmetic" k2="-1" k3="1"/>
<feColorMatrix type="matrix" values="0 0 0 0 0 0 0 0 0 0 0 0 0 0 0 0 0 0 0.25 0"/>
<feBlend mode="normal" in2="shape" result="effect1_innerShadow_2306_39683"/>
</filter>
<filter id="filter3_d_2306_39683" x="88.0515" y="96" width="79.8979" height="94.9898" filterUnits="userSpaceOnUse" color-interpolation-filters="sRGB">
<feFlood flood-opacity="0" result="BackgroundImageFix"/>
<feColorMatrix in="SourceAlpha" type="matrix" values="0 0 0 0 0 0 0 0 0 0 0 0 0 0 0 0 0 0 127 0" result="hardAlpha"/>
<feOffset dy="4.43876"/>
<feGaussianBlur stdDeviation="1.7755"/>
<feComposite in2="hardAlpha" operator="out"/>
<feColorMatrix type="matrix" values="0 0 0 0 0 0 0 0 0 0 0 0 0 0 0 0 0 0 0.25 0"/>
<feBlend mode="normal" in2="BackgroundImageFix" result="effect1_dropShadow_2306_39683"/>
<feBlend mode="normal" in="SourceGraphic" in2="effect1_dropShadow_2306_39683" result="shape"/>
</filter>
<linearGradient id="paint0_linear_2306_39683" x1="17" y1="34" x2="197.768" y2="215.142" gradientUnits="userSpaceOnUse">
<stop stop-color="#05815D"/>
<stop offset="1" stop-color="#0C575F"/>
</linearGradient>
<linearGradient id="paint1_linear_2306_39683" x1="129" y1="62" x2="129" y2="210" gradientUnits="userSpaceOnUse">
<stop stop-color="#0766B7"/>
<stop offset="1" stop-color="#243A5F"/>
</linearGradient>
<linearGradient id="paint2_linear_2306_39683" x1="129" y1="40" x2="129" y2="83" gradientUnits="userSpaceOnUse">
<stop stop-color="#C4C4C4"/>
<stop offset="0.0001" stop-color="#3BDBFE"/>
<stop offset="1" stop-color="#0290D0"/>
</linearGradient>
<linearGradient id="paint3_linear_2306_39683" x1="129" y1="40" x2="129" y2="83" gradientUnits="userSpaceOnUse">
<stop stop-color="#C4C4C4"/>
<stop offset="0.0001" stop-color="#3BDBFE"/>
<stop offset="1" stop-color="#0290D0"/>
</linearGradient>
<linearGradient id="paint4_linear_2306_39683" x1="129" y1="40" x2="129" y2="54" gradientUnits="userSpaceOnUse">
<stop stop-color="#1EB5FD"/>
<stop offset="1" stop-color="#048FF2"/>
</linearGradient>
</defs>
</svg>
