<svg width="256" height="256" viewBox="0 0 256 256" fill="none" xmlns="http://www.w3.org/2000/svg">
<path fill-rule="evenodd" clip-rule="evenodd" d="M104.425 42.3784C100.056 37.0733 93.5437 34 86.6712 34H29C22.3726 34 17 39.3726 17 46V58.1371V68.2V160C17 166.627 22.3726 172 29 172H229C235.627 172 241 166.627 241 160V70.1371C241 63.5097 235.627 58.1371 229 58.1371H117.404L104.425 42.3784Z" fill="#0F5095"/>
<mask id="mask0_812_19705" style="mask-type:alpha" maskUnits="userSpaceOnUse" x="17" y="34" width="224" height="138">
<path fill-rule="evenodd" clip-rule="evenodd" d="M104.425 42.3784C100.056 37.0733 93.5437 34 86.6712 34H29C22.3726 34 17 39.3726 17 46V58.1371V68.2V160C17 166.627 22.3726 172 29 172H229C235.627 172 241 166.627 241 160V70.1371C241 63.5097 235.627 58.1371 229 58.1371H117.404L104.425 42.3784Z" fill="url(#paint0_linear_812_19705)"/>
</mask>
<g mask="url(#mask0_812_19705)">
<g style="mix-blend-mode:multiply" filter="url(#filter0_f_812_19705)">
<path fill-rule="evenodd" clip-rule="evenodd" d="M92.789 74C97.7642 74 102.605 72.3868 106.586 69.4024L116.459 62H229C235.627 62 241 67.3726 241 74V108V160C241 166.627 235.627 172 229 172H29C22.3726 172 17 166.627 17 160L17 108V86C17 79.3726 22.3726 74 29 74H87H92.789Z" fill="black" fill-opacity="0.3"/>
</g>
</g>
<g filter="url(#filter1_ii_812_19705)">
<path fill-rule="evenodd" clip-rule="evenodd" d="M92.789 74C97.7642 74 102.605 72.3868 106.586 69.4024L116.459 62H229C235.627 62 241 67.3726 241 74V108V198C241 204.627 235.627 210 229 210H29C22.3726 210 17 204.627 17 198L17 108V86C17 79.3726 22.3726 74 29 74H87H92.789Z" fill="url(#paint1_linear_812_19705)"/>
</g>
<path d="M85.2207 129.136C85.2207 126.599 87.2774 124.542 89.8145 124.542H167C169.537 124.542 171.594 126.599 171.594 129.136V181.406C171.594 183.943 169.537 186 167 186H89.8145C87.2774 186 85.2207 183.943 85.2207 181.406V129.136Z" fill="#0F5095"/>
<path d="M159.136 124.127C159.136 122.051 159.136 120.863 159.136 118.729C159.136 101.758 145.378 88 128.407 88C111.436 88 97.6783 101.758 97.6783 118.729C97.6783 120.863 97.6783 122.051 97.6783 124.127H88.5427C86.708 124.127 85.2207 125.614 85.2207 127.449V149.042C98.981 149.042 110.136 137.887 110.136 124.127V116.653C110.975 107.34 118.876 100.042 128.407 100.042C137.938 100.042 145.839 107.34 146.678 116.653V124.127C146.678 137.887 157.833 149.042 171.594 149.042V127.449C171.594 125.614 170.106 124.127 168.272 124.127H159.136Z" fill="#0E8BDC"/>
<path d="M110.136 116.652C110.975 107.34 118.876 100.042 128.407 100.042C137.938 100.042 145.839 107.34 146.678 116.652V124.542H110.136V116.652Z" fill="#49DDFB"/>
<g filter="url(#filter2_dd_812_19705)">
<rect x="124.255" y="142.813" width="8.30509" height="30.7288" rx="1.53125" fill="#0A85D9"/>
</g>
<defs>
<filter id="filter0_f_812_19705" x="-20" y="25" width="298" height="184" filterUnits="userSpaceOnUse" color-interpolation-filters="sRGB">
<feFlood flood-opacity="0" result="BackgroundImageFix"/>
<feBlend mode="normal" in="SourceGraphic" in2="BackgroundImageFix" result="shape"/>
<feGaussianBlur stdDeviation="18.5" result="effect1_foregroundBlur_812_19705"/>
</filter>
<filter id="filter1_ii_812_19705" x="17" y="62" width="224" height="148" filterUnits="userSpaceOnUse" color-interpolation-filters="sRGB">
<feFlood flood-opacity="0" result="BackgroundImageFix"/>
<feBlend mode="normal" in="SourceGraphic" in2="BackgroundImageFix" result="shape"/>
<feColorMatrix in="SourceAlpha" type="matrix" values="0 0 0 0 0 0 0 0 0 0 0 0 0 0 0 0 0 0 127 0" result="hardAlpha"/>
<feOffset dy="4"/>
<feComposite in2="hardAlpha" operator="arithmetic" k2="-1" k3="1"/>
<feColorMatrix type="matrix" values="0 0 0 0 1 0 0 0 0 1 0 0 0 0 1 0 0 0 0.25 0"/>
<feBlend mode="normal" in2="shape" result="effect1_innerShadow_812_19705"/>
<feColorMatrix in="SourceAlpha" type="matrix" values="0 0 0 0 0 0 0 0 0 0 0 0 0 0 0 0 0 0 127 0" result="hardAlpha"/>
<feOffset dy="-4"/>
<feComposite in2="hardAlpha" operator="arithmetic" k2="-1" k3="1"/>
<feColorMatrix type="matrix" values="0 0 0 0 0 0 0 0 0 0 0 0 0 0 0 0 0 0 0.9 0"/>
<feBlend mode="soft-light" in2="effect1_innerShadow_812_19705" result="effect2_innerShadow_812_19705"/>
</filter>
<filter id="filter2_dd_812_19705" x="119.661" y="139.751" width="17.4922" height="36.8535" filterUnits="userSpaceOnUse" color-interpolation-filters="sRGB">
<feFlood flood-opacity="0" result="BackgroundImageFix"/>
<feColorMatrix in="SourceAlpha" type="matrix" values="0 0 0 0 0 0 0 0 0 0 0 0 0 0 0 0 0 0 127 0" result="hardAlpha"/>
<feOffset dx="1.53125"/>
<feGaussianBlur stdDeviation="1.53125"/>
<feComposite in2="hardAlpha" operator="out"/>
<feColorMatrix type="matrix" values="0 0 0 0 0 0 0 0 0 0 0 0 0 0 0 0 0 0 0.25 0"/>
<feBlend mode="normal" in2="BackgroundImageFix" result="effect1_dropShadow_812_19705"/>
<feColorMatrix in="SourceAlpha" type="matrix" values="0 0 0 0 0 0 0 0 0 0 0 0 0 0 0 0 0 0 127 0" result="hardAlpha"/>
<feOffset dx="-1.53125"/>
<feGaussianBlur stdDeviation="1.53125"/>
<feComposite in2="hardAlpha" operator="out"/>
<feColorMatrix type="matrix" values="0 0 0 0 0 0 0 0 0 0 0 0 0 0 0 0 0 0 0.25 0"/>
<feBlend mode="normal" in2="effect1_dropShadow_812_19705" result="effect2_dropShadow_812_19705"/>
<feBlend mode="normal" in="SourceGraphic" in2="effect2_dropShadow_812_19705" result="shape"/>
</filter>
<linearGradient id="paint0_linear_812_19705" x1="17" y1="34" x2="197.768" y2="215.142" gradientUnits="userSpaceOnUse">
<stop stop-color="#05815D"/>
<stop offset="1" stop-color="#0C575F"/>
</linearGradient>
<linearGradient id="paint1_linear_812_19705" x1="17" y1="62" x2="241" y2="210" gradientUnits="userSpaceOnUse">
<stop stop-color="#F7FDFF"/>
<stop offset="1" stop-color="#84BAE3"/>
</linearGradient>
</defs>
</svg>
