<svg width="256" height="256" viewBox="0 0 256 256" fill="none" xmlns="http://www.w3.org/2000/svg">
<path fill-rule="evenodd" clip-rule="evenodd" d="M104.425 42.3784C100.056 37.0733 93.5437 34 86.6712 34H29C22.3726 34 17 39.3726 17 46V58.1371V68.2V160C17 166.627 22.3726 172 29 172H229C235.627 172 241 166.627 241 160V70.1371C241 63.5097 235.627 58.1371 229 58.1371H117.404L104.425 42.3784Z" fill="#5059C9"/>
<mask id="mask0_719_17162" style="mask-type:alpha" maskUnits="userSpaceOnUse" x="17" y="34" width="224" height="138">
<path fill-rule="evenodd" clip-rule="evenodd" d="M104.425 42.3784C100.056 37.0733 93.5437 34 86.6712 34H29C22.3726 34 17 39.3726 17 46V58.1371V68.2V160C17 166.627 22.3726 172 29 172H229C235.627 172 241 166.627 241 160V70.1371C241 63.5097 235.627 58.1371 229 58.1371H117.404L104.425 42.3784Z" fill="url(#paint0_linear_719_17162)"/>
</mask>
<g mask="url(#mask0_719_17162)">
<g style="mix-blend-mode:multiply" filter="url(#filter0_f_719_17162)">
<path fill-rule="evenodd" clip-rule="evenodd" d="M92.789 74C97.7642 74 102.605 72.3868 106.586 69.4024L116.459 62H229C235.627 62 241 67.3726 241 74V108V160C241 166.627 235.627 172 229 172H29C22.3726 172 17 166.627 17 160L17 108V86C17 79.3726 22.3726 74 29 74H87H92.789Z" fill="black" fill-opacity="0.3"/>
</g>
</g>
<g filter="url(#filter1_ii_719_17162)">
<path fill-rule="evenodd" clip-rule="evenodd" d="M92.789 74C97.7642 74 102.605 72.3868 106.586 69.4024L116.459 62H229C235.627 62 241 67.3726 241 74V108V198C241 204.627 235.627 210 229 210H29C22.3726 210 17 204.627 17 198L17 108V86C17 79.3726 22.3726 74 29 74H87H92.789Z" fill="url(#paint1_linear_719_17162)"/>
</g>
<path d="M145.234 121.125H170.502C172.889 121.125 174.825 123.06 174.825 125.447V148.464C174.825 157.237 167.712 164.35 158.938 164.35H158.863C150.089 164.351 142.976 157.24 142.975 148.466V123.384C142.975 122.136 143.986 121.125 145.234 121.125Z" fill="#5059C9"/>
<path d="M162.313 116.575C167.967 116.575 172.55 111.991 172.55 106.337C172.55 100.683 167.967 96.0996 162.313 96.0996C156.659 96.0996 152.075 100.683 152.075 106.337C152.075 111.991 156.659 116.575 162.313 116.575Z" fill="#5059C9"/>
<path d="M130.462 116.575C138.629 116.575 145.25 109.954 145.25 101.788C145.25 93.6206 138.629 87 130.462 87C122.295 87 115.675 93.6206 115.675 101.788C115.675 109.954 122.295 116.575 130.462 116.575Z" fill="#7B83EB"/>
<path d="M150.18 121.125H108.47C106.111 121.183 104.245 123.141 104.3 125.5V151.751C103.971 165.907 115.17 177.654 129.325 178C143.48 177.654 154.679 165.907 154.35 151.751V125.5C154.405 123.141 152.539 121.183 150.18 121.125Z" fill="#7B83EB"/>
<g filter="url(#filter2_d_719_17162)">
<path d="M81.2492 107.475H123.751C126.098 107.475 128 109.377 128 111.724V154.225C128 156.572 126.098 158.475 123.751 158.475H81.2492C78.9024 158.475 77 156.572 77 154.225V111.724C77 109.377 78.9025 107.475 81.2492 107.475Z" fill="#5058BE"/>
</g>
<path d="M113.756 125.702H105.144V149.152H99.657V125.702H91.085V121.152H113.756V125.702Z" fill="white"/>
<defs>
<filter id="filter0_f_719_17162" x="-20" y="25" width="298" height="184" filterUnits="userSpaceOnUse" color-interpolation-filters="sRGB">
<feFlood flood-opacity="0" result="BackgroundImageFix"/>
<feBlend mode="normal" in="SourceGraphic" in2="BackgroundImageFix" result="shape"/>
<feGaussianBlur stdDeviation="18.5" result="effect1_foregroundBlur_719_17162"/>
</filter>
<filter id="filter1_ii_719_17162" x="17" y="62" width="224" height="148" filterUnits="userSpaceOnUse" color-interpolation-filters="sRGB">
<feFlood flood-opacity="0" result="BackgroundImageFix"/>
<feBlend mode="normal" in="SourceGraphic" in2="BackgroundImageFix" result="shape"/>
<feColorMatrix in="SourceAlpha" type="matrix" values="0 0 0 0 0 0 0 0 0 0 0 0 0 0 0 0 0 0 127 0" result="hardAlpha"/>
<feOffset dy="4"/>
<feComposite in2="hardAlpha" operator="arithmetic" k2="-1" k3="1"/>
<feColorMatrix type="matrix" values="0 0 0 0 1 0 0 0 0 1 0 0 0 0 1 0 0 0 0.25 0"/>
<feBlend mode="normal" in2="shape" result="effect1_innerShadow_719_17162"/>
<feColorMatrix in="SourceAlpha" type="matrix" values="0 0 0 0 0 0 0 0 0 0 0 0 0 0 0 0 0 0 127 0" result="hardAlpha"/>
<feOffset dy="-4"/>
<feComposite in2="hardAlpha" operator="arithmetic" k2="-1" k3="1"/>
<feColorMatrix type="matrix" values="0 0 0 0 0 0 0 0 0 0 0 0 0 0 0 0 0 0 0.9 0"/>
<feBlend mode="soft-light" in2="effect1_innerShadow_719_17162" result="effect2_innerShadow_719_17162"/>
</filter>
<filter id="filter2_d_719_17162" x="77" y="107.475" width="59" height="59" filterUnits="userSpaceOnUse" color-interpolation-filters="sRGB">
<feFlood flood-opacity="0" result="BackgroundImageFix"/>
<feColorMatrix in="SourceAlpha" type="matrix" values="0 0 0 0 0 0 0 0 0 0 0 0 0 0 0 0 0 0 127 0" result="hardAlpha"/>
<feOffset dx="4" dy="4"/>
<feGaussianBlur stdDeviation="2"/>
<feComposite in2="hardAlpha" operator="out"/>
<feColorMatrix type="matrix" values="0 0 0 0 0 0 0 0 0 0 0 0 0 0 0 0 0 0 0.15 0"/>
<feBlend mode="normal" in2="BackgroundImageFix" result="effect1_dropShadow_719_17162"/>
<feBlend mode="normal" in="SourceGraphic" in2="effect1_dropShadow_719_17162" result="shape"/>
</filter>
<linearGradient id="paint0_linear_719_17162" x1="17" y1="34" x2="197.768" y2="215.142" gradientUnits="userSpaceOnUse">
<stop stop-color="#05815D"/>
<stop offset="1" stop-color="#0C575F"/>
</linearGradient>
<linearGradient id="paint1_linear_719_17162" x1="17" y1="62" x2="241" y2="210" gradientUnits="userSpaceOnUse">
<stop stop-color="#EEEFFE"/>
<stop offset="1" stop-color="#CCD0FF"/>
</linearGradient>
</defs>
</svg>
