<svg width="256" height="256" viewBox="0 0 256 256" fill="none" xmlns="http://www.w3.org/2000/svg">
<path fill-rule="evenodd" clip-rule="evenodd" d="M104.425 42.3784C100.056 37.0733 93.5437 34 86.6712 34H29C22.3726 34 17 39.3726 17 46V58.1371V68.2V160C17 166.627 22.3726 172 29 172H229C235.627 172 241 166.627 241 160V70.1371C241 63.5097 235.627 58.1371 229 58.1371H117.404L104.425 42.3784Z" fill="#F83E6B"/>
<mask id="mask0_931_20813" style="mask-type:alpha" maskUnits="userSpaceOnUse" x="17" y="34" width="224" height="138">
<path fill-rule="evenodd" clip-rule="evenodd" d="M104.425 42.3784C100.056 37.0733 93.5437 34 86.6712 34H29C22.3726 34 17 39.3726 17 46V58.1371V68.2V160C17 166.627 22.3726 172 29 172H229C235.627 172 241 166.627 241 160V70.1371C241 63.5097 235.627 58.1371 229 58.1371H117.404L104.425 42.3784Z" fill="url(#paint0_linear_931_20813)"/>
</mask>
<g mask="url(#mask0_931_20813)">
<g style="mix-blend-mode:multiply" filter="url(#filter0_f_931_20813)">
<path fill-rule="evenodd" clip-rule="evenodd" d="M92.789 74C97.7642 74 102.605 72.3868 106.586 69.4024L116.459 62H229C235.627 62 241 67.3726 241 74V108V160C241 166.627 235.627 172 229 172H29C22.3726 172 17 166.627 17 160L17 108V86C17 79.3726 22.3726 74 29 74H87H92.789Z" fill="black" fill-opacity="0.3"/>
</g>
</g>
<g filter="url(#filter1_ii_931_20813)">
<path fill-rule="evenodd" clip-rule="evenodd" d="M92.789 74C97.7642 74 102.605 72.3868 106.586 69.4024L116.459 62H229C235.627 62 241 67.3726 241 74V108V198C241 204.627 235.627 210 229 210H29C22.3726 210 17 204.627 17 198L17 108V86C17 79.3726 22.3726 74 29 74H87H92.789Z" fill="url(#paint1_linear_931_20813)"/>
</g>
<path d="M156.997 197.464C163.618 195.173 168.736 190.342 170.776 184.401C171.885 181.215 171.957 175.131 170.919 172.161C168.235 164.216 161.399 158.74 152.058 156.951C148.479 156.306 146.404 155.34 145.33 153.873C144.22 152.37 143.648 149.399 144.077 147.252C144.399 145.606 144.507 145.462 146.69 144.246C151.45 141.561 156.21 136.623 157.534 132.972C158.178 131.111 160.647 130.109 164.477 130.216C168.271 130.288 169.702 130.896 171.849 133.33C176.18 138.161 184.197 138.877 188.384 134.833C191.068 132.256 191.39 129.465 189.35 126.315C188.026 124.204 185.592 122.629 182.479 121.878C178.112 120.804 174.784 121.591 171.42 124.49L169.845 125.814L166.517 125.743C161.399 125.635 159.144 124.347 158.214 120.983C157.498 118.442 155.208 114.899 152.774 112.572C150.806 110.676 150.555 110.282 150.627 109.208C150.734 107.419 151.808 105.629 153.991 103.554C156.067 101.585 156.353 101.478 159.896 101.12C165.407 100.583 168.557 98.1495 168.557 94.4275C168.557 91.4928 165.873 89.095 161.435 88.0571C156.639 86.9476 150.877 89.3097 149.66 92.9602C149.267 94.1412 149.66 96.4317 150.34 97.1475C151.092 97.9706 150.662 99.8316 149.231 101.585C147.585 103.697 146.046 104.949 143.898 105.88C142.395 106.56 142.324 106.56 139.282 105.88C134.772 104.842 127.078 105.128 122.747 106.453C121.065 106.954 119.419 107.383 119.061 107.383C117.737 107.383 114.372 105.45 112.154 103.375C109.362 100.762 108.718 99.1874 109.684 97.3622C110.042 96.6822 110.4 95.1791 110.471 93.9622C110.615 92.137 110.543 91.636 109.791 90.5623C107 86.4466 100.63 84.9077 94.3307 86.8045C89.3203 88.3434 85.1688 92.5307 85.1688 96.1096C85.2045 97.7559 86.3498 99.9748 87.8887 101.263C90.1792 103.124 93.1497 103.84 98.2317 103.733C102.312 103.625 102.598 103.661 104.137 104.556C106.499 105.952 109.72 109.495 110.257 111.248L110.686 112.716L108.754 114.791C104.924 118.943 103.206 123.631 103.528 128.964L103.743 132.113L102.061 133.187C100.129 134.404 97.4085 135.298 95.6191 135.298C94.9033 135.298 93.5791 134.833 92.5413 134.261C87.2803 131.254 80.8025 131.362 75.1479 134.511C63.3733 141.06 64.6259 154.982 77.1878 156.772C83.1646 157.595 89.034 155.448 93.3286 150.902C95.4044 148.683 96.1559 147.252 96.9791 144.031C97.158 143.208 97.6591 142.134 98.0527 141.633C99.019 140.416 102.777 138.627 104.924 138.305L106.642 138.09L108.682 140.166C113.728 145.283 120.242 147.968 128.795 148.433C132.768 148.648 132.947 148.683 134.2 149.829C136.848 152.227 137.922 156.271 136.454 158.525C136.096 159.062 134.844 160.351 133.627 161.353C128.044 165.969 125.61 170.908 125.61 177.529C125.646 186.87 132.625 195.173 142.825 197.929C146.654 198.967 153.311 198.752 156.997 197.464Z" fill="white"/>
<defs>
<filter id="filter0_f_931_20813" x="-20" y="25" width="298" height="184" filterUnits="userSpaceOnUse" color-interpolation-filters="sRGB">
<feFlood flood-opacity="0" result="BackgroundImageFix"/>
<feBlend mode="normal" in="SourceGraphic" in2="BackgroundImageFix" result="shape"/>
<feGaussianBlur stdDeviation="18.5" result="effect1_foregroundBlur_931_20813"/>
</filter>
<filter id="filter1_ii_931_20813" x="17" y="62" width="224" height="148" filterUnits="userSpaceOnUse" color-interpolation-filters="sRGB">
<feFlood flood-opacity="0" result="BackgroundImageFix"/>
<feBlend mode="normal" in="SourceGraphic" in2="BackgroundImageFix" result="shape"/>
<feColorMatrix in="SourceAlpha" type="matrix" values="0 0 0 0 0 0 0 0 0 0 0 0 0 0 0 0 0 0 127 0" result="hardAlpha"/>
<feOffset dy="4"/>
<feComposite in2="hardAlpha" operator="arithmetic" k2="-1" k3="1"/>
<feColorMatrix type="matrix" values="0 0 0 0 1 0 0 0 0 1 0 0 0 0 1 0 0 0 0.25 0"/>
<feBlend mode="normal" in2="shape" result="effect1_innerShadow_931_20813"/>
<feColorMatrix in="SourceAlpha" type="matrix" values="0 0 0 0 0 0 0 0 0 0 0 0 0 0 0 0 0 0 127 0" result="hardAlpha"/>
<feOffset dy="-4"/>
<feComposite in2="hardAlpha" operator="arithmetic" k2="-1" k3="1"/>
<feColorMatrix type="matrix" values="0 0 0 0 0 0 0 0 0 0 0 0 0 0 0 0 0 0 0.9 0"/>
<feBlend mode="soft-light" in2="effect1_innerShadow_931_20813" result="effect2_innerShadow_931_20813"/>
</filter>
<linearGradient id="paint0_linear_931_20813" x1="17" y1="34" x2="197.768" y2="215.142" gradientUnits="userSpaceOnUse">
<stop stop-color="#05815D"/>
<stop offset="1" stop-color="#0C575F"/>
</linearGradient>
<linearGradient id="paint1_linear_931_20813" x1="17" y1="62" x2="241" y2="210" gradientUnits="userSpaceOnUse">
<stop stop-color="#FF552D"/>
<stop offset="1" stop-color="#F83D6E"/>
</linearGradient>
</defs>
</svg>
