<svg width="256" height="256" viewBox="0 0 256 256" fill="none" xmlns="http://www.w3.org/2000/svg">
<path fill-rule="evenodd" clip-rule="evenodd" d="M104.425 42.3784C100.056 37.0733 93.5437 34 86.6712 34H29C22.3726 34 17 39.3726 17 46V58.1371V68.2V160C17 166.627 22.3726 172 29 172H229C235.627 172 241 166.627 241 160V70.1371C241 63.5097 235.627 58.1371 229 58.1371H117.404L104.425 42.3784Z" fill="#458E2F"/>
<mask id="mask0_740_16413" style="mask-type:alpha" maskUnits="userSpaceOnUse" x="17" y="34" width="224" height="138">
<path fill-rule="evenodd" clip-rule="evenodd" d="M104.425 42.3784C100.056 37.0733 93.5437 34 86.6712 34H29C22.3726 34 17 39.3726 17 46V58.1371V68.2V160C17 166.627 22.3726 172 29 172H229C235.627 172 241 166.627 241 160V70.1371C241 63.5097 235.627 58.1371 229 58.1371H117.404L104.425 42.3784Z" fill="url(#paint0_linear_740_16413)"/>
</mask>
<g mask="url(#mask0_740_16413)">
<g style="mix-blend-mode:multiply" filter="url(#filter0_f_740_16413)">
<path fill-rule="evenodd" clip-rule="evenodd" d="M92.789 74C97.7642 74 102.605 72.3868 106.586 69.4024L116.459 62H229C235.627 62 241 67.3726 241 74V108V160C241 166.627 235.627 172 229 172H29C22.3726 172 17 166.627 17 160L17 108V86C17 79.3726 22.3726 74 29 74H87H92.789Z" fill="black" fill-opacity="0.3"/>
</g>
</g>
<g filter="url(#filter1_ii_740_16413)">
<path fill-rule="evenodd" clip-rule="evenodd" d="M92.789 74C97.7642 74 102.605 72.3868 106.586 69.4024L116.459 62H229C235.627 62 241 67.3726 241 74V108V198C241 204.627 235.627 210 229 210H29C22.3726 210 17 204.627 17 198L17 108V86C17 79.3726 22.3726 74 29 74H87H92.789Z" fill="url(#paint1_linear_740_16413)"/>
</g>
<g filter="url(#filter2_i_740_16413)">
<path d="M227 69.4V62H229C235.627 62 241 67.3726 241 74V76.8H234H227V69.4Z" fill="#71B046"/>
</g>
<path d="M227 84.1999V76.7999H234H241V84.1999V91.5999H234H227V84.1999Z" fill="#71B046"/>
<path d="M199 84.1999V76.7999H206H213V84.1999V91.5999H206H199V84.1999Z" fill="#71B046"/>
<path d="M17 99V91.6H24H31V99V106.4H24H17V99Z" fill="#8EBD5E"/>
<g filter="url(#filter3_i_740_16413)">
<path d="M17 92V86C17 79.3726 22.3726 74 29 74H31V83V92H24H17Z" fill="#8EBD5E"/>
</g>
<path d="M171 99V91.6H178H185V99V106.4H178H171V99Z" fill="#99C868"/>
<path d="M45 85V78H52H59V85V92H52H45V85Z" fill="#8EBD5E"/>
<g filter="url(#filter4_i_740_16413)">
<path d="M129 69.4V62H136H143V69.4V76.8H136H129V69.4Z" fill="#8EBD5E"/>
</g>
<path d="M143 84.1999V76.7999H157H171V84.1999V91.5999H157H143V84.1999Z" fill="#8EBD5E"/>
<path d="M157 99V91.6H164H171V99V106.4H164H157V99Z" fill="#8EBD5E"/>
<path d="M59 85V78H73H87V85V92H73H59V85Z" fill="#80B652"/>
<path d="M59 99V91.6H73H87V99V106.4H73H59V99Z" fill="#64A339"/>
<g filter="url(#filter5_i_740_16413)">
<path d="M59 76V74H73H87V76V78H73H59V76Z" fill="#64A339"/>
</g>
<path d="M101 84.1999V76.7999H122H143V84.1999V91.5999H122H101V84.1999Z" fill="#64A339"/>
<g filter="url(#filter6_i_740_16413)">
<path d="M157 69.4V62H185H213V69.4V76.8H185H157V69.4Z" fill="#64A339"/>
</g>
<path d="M59 99V91.6H73H87V99V106.4H73H59V99Z" fill="#64A339"/>
<g filter="url(#filter7_i_740_16413)">
<path d="M31 76V74H45H59V76V78H45H31V76Z" fill="#71B046"/>
</g>
<path d="M31 85V78H38H45V85V92H38H31V85Z" fill="#71B046"/>
<path d="M101 99V91.6H108H115V99V106.4H108H101V99Z" fill="#71B046"/>
<g filter="url(#filter8_i_740_16413)">
<path d="M213 69.4V62H220H227V69.4V76.8H220H213V69.4Z" fill="#539228"/>
</g>
<path d="M185 84.1999V76.7999H192H199V84.1999V91.5999H192H185V84.1999Z" fill="#64A339"/>
<path d="M199 99V91.6H206H213V99V106.4H206H199V99Z" fill="#539228"/>
<path d="M73 113.8V106.4H80H87V113.8V121.2H80H73V113.8Z" fill="#71B046"/>
<g filter="url(#filter9_i_740_16413)">
<path d="M143 69.4V62H150H157V69.4V76.8H150H143V69.4Z" fill="#71B046"/>
</g>
<path d="M171 84.1999V76.7999H178H185V84.1999V91.5999H178H171V84.1999Z" fill="#71B046"/>
<path d="M213 91.5999V76.7999H220H227V91.5999V106.4H220H213V91.5999Z" fill="#64A339"/>
<path d="M227 99V91.6H234H241V99V106.4H234H227V99Z" fill="#593D29"/>
<path d="M213 113.8V106.4H220H227V113.8V121.2H220H213V113.8Z" fill="#593D29"/>
<path d="M129 143.4V136H136H143V143.4V150.8H136H129V143.4Z" fill="#593D29"/>
<path d="M115 143.4V136H122H129V143.4V150.8H122H115V143.4Z" fill="#593D29"/>
<path d="M101 143.4V136H108H115V143.4V150.8H108H101V143.4Z" fill="#593D29"/>
<path d="M129 128.6V121.2H136H143V128.6V136H136H129V128.6Z" fill="#593D29"/>
<path d="M171 143.4V136H178H185V143.4V150.8H178H171V143.4Z" fill="#593D29"/>
<path d="M101 113.8V106.4H108H115V113.8V121.2H108H101V113.8Z" fill="#593D29"/>
<path d="M87 84.5V77H94H101V84.5V92H94H87V84.5Z" fill="#593D29"/>
<path d="M87 77.5V77H94H101H99.5C99.5 77 97 78 92.5 78C88 78 91 78 91 78H87V77.5Z" fill="#80634F"/>
<path d="M115 99V91.6H122H129V99V106.4H122H115V99Z" fill="#593D29"/>
<path d="M87 99V91.6H94H101V99V106.4H94H87V99Z" fill="#593D29"/>
<path d="M87 113.8V106.4H94H101V113.8V121.2H94H87V113.8Z" fill="#593D29"/>
<path d="M17 113.8V106.4H24H31V113.8V121.2H24H17V113.8Z" fill="#593D29"/>
<path d="M31 99V91.6H38H45V99V106.4H38H31V99Z" fill="#593D29"/>
<path d="M31 113.8V106.4H38H45V113.8V121.2H38H31V113.8Z" fill="#6B6B6B"/>
<path d="M73 158.2V150.8H80H87V158.2V165.6H80H73V158.2Z" fill="#6B6B6B"/>
<path d="M171 128.6V121.2H178H185V128.6V136H178H171V128.6Z" fill="#6B6B6B"/>
<path d="M45 113.8V106.4H52H59V113.8V121.2H52H45V113.8Z" fill="#593D29"/>
<path d="M31 143.4V136H38H45V143.4V150.8H38H31V143.4Z" fill="#593D29"/>
<path d="M31 158.2V150.8H38H45V158.2V165.6H38H31V158.2Z" fill="#593D29"/>
<g filter="url(#filter10_i_740_16413)">
<path d="M45 202.6V195.2H52H59V202.6V210H52H45V202.6Z" fill="#593D29"/>
</g>
<g filter="url(#filter11_i_740_16413)">
<path d="M87 202.6V195.2H94H101V202.6V210H94H87V202.6Z" fill="#593D29"/>
</g>
<g filter="url(#filter12_i_740_16413)">
<path d="M101 202.6V195.2H108H115V202.6V210H108H101V202.6Z" fill="#593D29"/>
</g>
<path d="M115 188.857V181.457H122H129V188.857V196.257H122H115V188.857Z" fill="#593D29"/>
<path d="M143 173V165.6H150H157V173V180.4H150H143V173Z" fill="#593D29"/>
<path d="M213 187.8V180.4H220H227V187.8V195.2H220H213V187.8Z" fill="#593D29"/>
<path d="M59 113.8V106.4H66H73V113.8V121.2H66H59V113.8Z" fill="#593D29"/>
<path d="M73 128.6V121.2H80H87V128.6V136H80H73V128.6Z" fill="#593D29"/>
<path d="M115 113.8V106.4H122H129V113.8V121.2H122H115V113.8Z" fill="#593D29"/>
<path d="M143 128.6V121.2H150H157V128.6V136H150H143V128.6Z" fill="#593D29"/>
<path d="M143 113.8V106.4H150H157V113.8V121.2H150H143V113.8Z" fill="#593D29"/>
<path d="M157 128.6V121.2H164H171V128.6V136H164H157V128.6Z" fill="#593D29"/>
<path d="M171 113.8V106.4H178H185V113.8V121.2H178H171V113.8Z" fill="#593D29"/>
<path d="M185 99V91.6H192H199V99V106.4H192H185V99Z" fill="#593D29"/>
<path d="M157 143.4V136H164H171V143.4V150.8H164H157V143.4Z" fill="#775439"/>
<path d="M143 143.4V136H150H157V143.4V150.8H150H143V143.4Z" fill="#775439"/>
<path d="M115 128.6V121.2H122H129V128.6V136H122H115V128.6Z" fill="#775439"/>
<path d="M101 128.6V121.2H108H115V128.6V136H108H101V128.6Z" fill="#775439"/>
<path d="M17 143.4V136H24H31V143.4V150.8H24H17V143.4Z" fill="#775439"/>
<path d="M59 187.8V180.4H66H73V187.8V195.2H66H59V187.8Z" fill="#936A48"/>
<path d="M143 187.8V180.4H150H157V187.8V195.2H150H143V187.8Z" fill="#936A48"/>
<g filter="url(#filter13_i_740_16413)">
<path d="M185 202.6V195.2H192H199V202.6V210H192H185V202.6Z" fill="#B8845B"/>
</g>
<g filter="url(#filter14_i_740_16413)">
<path d="M199 202.6V195.2H206H213V202.6V210H206H199V202.6Z" fill="#B8845B"/>
</g>
<path d="M59 128.6V121.2H66H73V128.6V136H66H59V128.6Z" fill="#B8845B"/>
<path d="M17 173V165.6H24H31V173V180.4H24H17V173Z" fill="#B8845B"/>
<path d="M17 158.2V150.8H24H31V158.2V165.6H24H17V158.2Z" fill="#B8845B"/>
<path d="M45 173V165.6H52H59V173V180.4H52H45V173Z" fill="#B8845B"/>
<path d="M59 173V165.6H66H73V173V180.4H66H59V173Z" fill="#B8845B"/>
<path d="M129 158.2V150.8H136H143V158.2V165.6H136H129V158.2Z" fill="#B8845B"/>
<path d="M115 158.2V150.8H122H129V158.2V165.6H122H115V158.2Z" fill="#B8845B"/>
<path d="M171 158.2V150.8H178H185V158.2V165.6H178H171V158.2Z" fill="#B8845B"/>
<path d="M157 158.2V150.8H164H171V158.2V165.6H164H157V158.2Z" fill="#B8845B"/>
<path d="M227 143.4V136H234H241V143.4V150.8H234H227V143.4Z" fill="#B8845B"/>
<path d="M199 128.6V121.2H206H213V128.6V136H206H199V128.6Z" fill="#936A48"/>
<path d="M227 158.2V150.8H234H241V158.2V165.6H234H227V158.2Z" fill="#936A48"/>
<path d="M227 173V165.6H234H241V173V180.4H234H227V173Z" fill="#936A48"/>
<path d="M213 173V165.6H220H227V173V180.4H220H213V173Z" fill="#936A48"/>
<path d="M199 158.2V150.8H206H213V158.2V165.6H206H199V158.2Z" fill="#936A48"/>
<path d="M171 173V165.6H178H185V173V180.4H178H171V173Z" fill="#936A48"/>
<path d="M157 173V165.6H164H171V173V180.4H164H157V173Z" fill="#936A48"/>
<path d="M157 187.8V180.4H164H171V187.8V195.2H164H157V187.8Z" fill="#936A48"/>
<path d="M129 173V165.6H136H143V173V180.4H136H129V173Z" fill="#936A48"/>
<path d="M87 187.8V180.4H94H101V187.8V195.2H94H87V187.8Z" fill="#936A48"/>
<path d="M87 173V165.6H94H101V173V180.4H94H87V173Z" fill="#936A48"/>
<path d="M73 173V165.6H80H87V173V180.4H80H73V173Z" fill="#936A48"/>
<g filter="url(#filter15_i_740_16413)">
<path d="M31 202.6V195.2H38H45V202.6V210H38H31V202.6Z" fill="#936A48"/>
</g>
<g filter="url(#filter16_i_740_16413)">
<path d="M17 195.2H24H31V202.6V210H29C22.3726 210 17 204.627 17 198V195.2Z" fill="#936A48"/>
</g>
<path d="M17 187.8V180.4H24H31V187.8V195.2H24H17V187.8Z" fill="#936A48"/>
<path d="M17 128.6V121.2H24H31V128.6V136H24H17V128.6Z" fill="#936A48"/>
<path d="M87 143.4V136H94H101V143.4V150.8H94H87V143.4Z" fill="#936A48"/>
<path d="M87 128.6V121.2H94H101V128.6V136H94H87V128.6Z" fill="#936A48"/>
<path d="M59 143.4V136H66H73V143.4V150.8H66H59V143.4Z" fill="#936A48"/>
<path d="M45 143.4V136H52H59V143.4V150.8H52H45V143.4Z" fill="#936A48"/>
<path d="M45 128.6V121.2H52H59V128.6V136H52H45V128.6Z" fill="#936A48"/>
<path d="M31 128.6V121.2H38H45V128.6V136H38H31V128.6Z" fill="#775439"/>
<path d="M143 158.2V150.8H150H157V158.2V165.6H150H143V158.2Z" fill="#775439"/>
<path d="M199 113.8V106.4H206H213V113.8V121.2H206H199V113.8Z" fill="#593D29"/>
<path d="M213 128.6V121.2H220H227V128.6V136H220H213V128.6Z" fill="#593D29"/>
<path d="M45 99V91.6H52H59V99V106.4H52H45V99Z" fill="#99C868"/>
<g filter="url(#filter17_i_740_16413)">
<path fill-rule="evenodd" clip-rule="evenodd" d="M87 74V74.5V77H94H101V74.5V72.4844C98.3948 73.48 95.6135 74 92.789 74H87Z" fill="#71B046"/>
</g>
<g filter="url(#filter18_i_740_16413)">
<path fill-rule="evenodd" clip-rule="evenodd" d="M101 72.4844C102.984 71.7263 104.865 70.6925 106.586 69.4024L115 63.094V70V77H108H101V72.4844Z" fill="#64A339"/>
</g>
<g filter="url(#filter19_i_740_16413)">
<path fill-rule="evenodd" clip-rule="evenodd" d="M115 63.094V69.5V77H122H129V69.5V62H122H116.459L115 63.094Z" fill="#71B046"/>
</g>
<path d="M212.606 150.524L212.094 148.762L211.613 147.152C211.613 147.152 210.094 142.198 209.895 141.546C209.651 140.748 209.41 139.949 209.173 139.149L209.135 139.014L212.504 134.967L210.92 130L193.952 130.016L193.433 130.841L193.231 130.017L176.148 130.035L175.729 130.973L175.564 130.034L158.347 130.053L158.044 131.178L157.929 130.053L140.536 130.07L140.369 131.91L140.315 130.07L122.834 130.088L122.776 131.77L122.595 130.086L105.262 130.105L105.146 131.189L104.836 130.106L96.4782 130.113L95.8113 134.776L95.4306 133.814L95.2467 133.797L93.7856 130.116L85.5339 130.124L85.3667 131.018L84.9321 130.124L76.7615 130.132L76.5759 130.967L76.0946 130.132L67.9941 130.141L67.0516 133.771L64.8569 133.773L64.4362 135.36L60.6205 130.148L52.7373 130.156L46 151.083L53.1624 157.705H60.9662L62.2055 153.041L62.8107 153.714H64.8986L68.3748 157.703L76.3936 157.701L76.552 156.946L77.1194 157.702L85.2005 157.701L85.345 156.885L85.8613 157.701L94.019 157.7L94.6492 153.326L96.7538 157.7L105.021 157.698L105.124 156.697L105.485 157.698L122.68 157.697L122.742 156.106L122.931 157.697L140.265 157.694L140.432 155.956L140.49 157.694L148.994 157.693L149.26 156.471L149.341 157.693L157.741 157.691L158.097 156.642L158.201 157.691H166.51L166.938 156.757L167.062 157.691H175.292L175.786 156.839L175.925 157.69L184.083 157.687L188.799 150.964L188.574 149.887L191.187 149.885L194.878 144.774L198.054 157.686L206.062 157.685L212.745 151.028L212.606 150.524ZM131.602 145.414L131.688 142.557L139.875 142.552L139.946 141.603L140.075 145.411L131.602 145.414V145.414Z" fill="#020303"/>
<path d="M60.9806 134.894L59.8914 138.694H64.7252L65.7406 134.942L67.9502 134.94L68.8911 131.302L75.2616 131.295L70.7712 150.599L63.9033 150.601L65.9612 142.404L63.482 142.401L62.4094 146.394L57.9607 146.396L59.07 142.399L56.5575 142.406L54.135 150.604L47.3932 150.608L53.5826 131.317L59.8352 131.31L58.7982 134.814L60.9806 134.894ZM84.0462 131.334L80.2505 150.644L73.3809 150.646L77.6763 131.339L84.0462 131.334ZM93.3366 144.382L93.9057 140.39L91.4176 140.343L89.7726 150.594L82.8942 150.595L86.4976 131.284L92.8742 131.278L92.3157 134.853L94.4986 134.909L93.9812 138.644L96.436 138.678L97.4835 131.273L103.865 131.267L101.629 150.589L94.7432 150.592L95.6051 144.438L93.3366 144.382ZM120.84 146.605L120.666 150.583L104.26 150.588L106.302 131.265L121.511 131.249L121.361 134.671L112.414 134.679L112.132 138.621L121.188 138.645L121.024 142.38L111.798 142.386L111.488 146.57L120.84 146.605ZM210.064 131.163L211.156 134.593L206.715 134.596L206.743 134.702C206.927 135.452 207.126 136.215 207.339 136.995C207.554 137.777 207.781 138.571 208.015 139.377C208.253 140.185 208.495 141.004 208.746 141.824C208.997 142.649 209.253 143.48 209.506 144.309C209.66 144.813 209.815 145.321 209.971 145.837C210.131 146.352 210.29 146.871 210.446 147.394C210.606 147.918 210.762 148.445 210.919 148.971C211.074 149.498 211.229 150.026 211.377 150.553L204.445 150.555L200.087 134.603L195.642 134.607L194.766 131.178L210.064 131.163V131.163ZM194.105 138.498L195.051 142.335L185.776 142.34L187.494 150.561L180.574 150.563L177.032 131.195L192.312 131.18L193.154 134.609L184.16 134.617L184.972 138.495L194.105 138.498ZM167.517 144.318L168.371 150.568L161.458 150.569L159.318 131.213L174.581 131.198L177.929 150.566L171.014 150.568L170.113 144.327L167.517 144.318V144.318ZM171.998 136.716L171.61 134.258L168.588 134.261L168.865 136.514L166.494 136.495L166.188 134.263L163.264 134.266L163.572 136.723L166.256 136.722L166.38 137.625L165.03 137.627L165.523 141.413L167.143 141.412L167.021 140.124L169.422 140.115L169.622 141.409L171.264 141.408L170.688 137.639L169.35 137.632L169.234 136.717L171.998 136.716V136.716ZM155.528 140.547L157.809 140.545L158.818 150.569L151.914 150.573L151.297 142.413L148.741 142.35L149.272 150.573L142.367 150.577L141.626 131.23L156.871 131.216L157.593 138.395L155.318 138.392L155.528 140.547V140.547ZM151.024 138.626L150.725 134.646L148.244 134.647L148.5 138.627L151.024 138.626V138.626ZM130.435 134.663L139.279 134.656L139.181 131.232L123.953 131.248L123.302 150.581L139.731 150.577L139.617 146.602L130.224 146.605L130.435 134.663Z" fill="#A9A09D"/>
<path d="M48.2941 150.607C47.7989 150.607 47.6856 150.888 48.0435 151.231L52.9296 155.914C53.2864 156.256 53.9849 156.537 54.4807 156.537H58.7821C59.2778 156.537 59.4057 156.241 59.0683 155.877L54.7502 151.262C54.4129 150.901 53.7298 150.604 53.2341 150.604L48.2941 150.607V150.607ZM64.8047 150.602C64.309 150.602 64.1628 150.914 64.4813 151.293L68.2964 155.845C68.6143 156.226 69.2801 156.536 69.7758 156.536H74.2862C74.782 156.536 74.9454 156.211 74.6497 155.813L71.3091 151.323C71.0129 150.924 70.3655 150.599 69.8698 150.599L64.8047 150.602V150.602Z" fill="#282729"/>
<path d="M58.861 146.396C58.3658 146.396 58.2286 146.698 58.5576 147.071L62.8029 151.863C63.1319 152.234 63.7315 152.522 64.1372 152.502C64.5413 152.483 64.6396 152.135 64.3545 151.729L64.0589 151.31C63.7732 150.905 63.6476 150.182 63.7805 149.704L63.8627 149.405C63.9961 148.928 63.8516 148.218 63.5443 147.83L62.9674 147.101C62.6601 146.712 62.0032 146.395 61.508 146.395H58.861V146.396ZM74.2818 150.646C73.7855 150.647 73.6216 150.975 73.915 151.374L77.1783 155.81C77.4701 156.211 78.1164 156.537 78.6127 156.537H83.0553C83.5505 156.537 83.7405 156.194 83.476 155.774L80.729 151.408C80.465 150.988 79.8442 150.644 79.3485 150.645L74.2818 150.646V150.646ZM83.795 150.595C83.2998 150.595 83.1053 150.941 83.3643 151.364L86.0119 155.698C86.2708 156.121 86.8861 156.467 87.3823 156.467H91.7538C92.2501 156.467 92.4774 156.103 92.2579 155.658L90.1711 151.402C89.9521 150.957 89.3686 150.594 88.8728 150.594L83.795 150.595V150.595ZM95.6446 150.591C95.1494 150.591 94.9143 150.959 95.1227 151.409L97.1156 155.719C97.3246 156.169 97.8998 156.537 98.3955 156.537H102.908C103.404 156.537 103.67 156.156 103.498 155.691L101.938 151.435C101.767 150.969 101.223 150.589 100.727 150.589L95.6446 150.591ZM105.161 150.589C104.665 150.589 104.396 150.971 104.563 151.436L106.034 155.546C106.2 156.014 106.742 156.396 107.238 156.396H120.587C121.083 156.396 121.432 155.993 121.362 155.504L120.792 151.474C120.723 150.983 120.26 150.583 119.766 150.583L105.161 150.589V150.589ZM124.203 150.581C123.707 150.581 123.345 150.984 123.398 151.477L123.847 155.64C123.901 156.134 124.349 156.536 124.845 156.536H138.125C138.621 156.536 139.074 156.133 139.132 155.641L139.625 151.472C139.683 150.979 139.324 150.576 138.829 150.577L124.203 150.581V150.581ZM143.269 150.576C142.773 150.576 142.317 150.979 142.254 151.471L141.735 155.573C141.672 156.065 142.026 156.467 142.522 156.467H146.966C147.462 156.467 147.962 156.072 148.076 155.59L149.063 151.45C149.175 150.967 148.866 150.573 148.37 150.574L143.269 150.576V150.576ZM152.814 150.573C152.319 150.573 151.82 150.968 151.705 151.45L150.74 155.52C150.625 156.003 150.937 156.397 151.433 156.397H155.877C156.373 156.397 156.912 156.015 157.076 155.547L158.523 151.42C158.685 150.953 158.415 150.57 157.919 150.57L152.814 150.573V150.573ZM162.358 150.569C161.861 150.569 161.321 150.951 161.156 151.418L159.673 155.618C159.508 156.085 159.778 156.467 160.273 156.467H164.712C165.209 156.467 165.786 156.099 165.997 155.649L167.99 151.383C168.199 150.933 167.966 150.566 167.471 150.566L162.358 150.569V150.569ZM171.915 150.566C171.419 150.566 170.836 150.93 170.619 151.376L168.535 155.656C168.318 156.103 168.546 156.467 169.042 156.467H173.623C174.119 156.467 174.727 156.116 174.975 155.687L177.478 151.346C177.726 150.917 177.523 150.566 177.027 150.566H171.915V150.566ZM181.476 150.562C180.981 150.562 180.364 150.909 180.106 151.332L177.449 155.697C177.191 156.121 177.386 156.467 177.88 156.467H182.391C182.887 156.467 183.528 156.137 183.815 155.733L186.973 151.296C187.259 150.892 187.09 150.561 186.593 150.561L181.476 150.562V150.562ZM205.347 150.555C204.851 150.555 204.177 150.858 203.85 151.231L199.884 155.721C199.556 156.093 199.693 156.397 200.189 156.397H204.489C204.986 156.397 205.681 156.113 206.036 155.768L210.734 151.181C211.088 150.835 210.973 150.553 210.477 150.553L205.347 150.555V150.555Z" fill="#282729"/>
<path d="M52.445 134.527C52.3988 134.652 52.7662 134.756 53.2614 134.757L57.9857 134.777C58.4815 134.779 58.8916 134.672 58.8994 134.54C58.906 134.407 58.5059 134.298 58.0102 134.298H53.4297C52.9335 134.298 52.4905 134.401 52.445 134.527V134.527ZM52.1171 144.344C52.271 143.874 51.9926 143.488 51.4974 143.488H50.3431C49.8474 143.488 49.4428 143.583 49.4428 143.698C49.4428 143.814 49.848 143.909 50.3431 143.909H50.9144C51.4096 143.909 51.6892 144.294 51.5341 144.765L50.4837 147.962C50.3298 148.435 50.6088 148.819 51.1045 148.819H54.644C55.1403 148.819 55.5455 148.724 55.5455 148.609C55.5455 148.493 55.1403 148.398 54.644 148.398H51.6864C51.1901 148.398 50.9111 148.013 51.0667 147.542L51.1506 147.29C51.3051 146.819 51.8375 146.433 52.3327 146.433H55.0647C55.561 146.433 55.9667 146.339 55.9667 146.224C55.9667 146.107 55.561 146.013 55.0647 146.013H52.4705C51.9754 146.013 51.6964 145.629 51.8509 145.157L52.1171 144.344ZM70.9568 135.354C71.024 134.864 70.6723 134.462 70.1776 134.462L68.8083 134.463C68.3126 134.464 67.8719 134.559 67.8274 134.674C67.7829 134.787 68.1536 134.882 68.6493 134.882H69.6969C70.1926 134.882 70.5439 135.284 70.4766 135.775L70.2843 137.193C70.2177 137.684 69.7575 138.086 69.2629 138.086H64.9342C64.4385 138.086 64.0333 138.181 64.0333 138.296C64.0333 138.411 64.4385 138.506 64.9342 138.506H73.4432C73.9389 138.506 74.344 138.411 74.344 138.296C74.344 138.181 73.9389 138.086 73.4432 138.086H71.4875C70.9924 138.086 70.64 137.684 70.7078 137.193L70.9568 135.354ZM76.9021 148.24C76.9911 147.752 76.9338 147.562 76.7749 147.815C76.6154 148.067 76.4109 148.673 76.3192 149.162L76.1852 149.876C76.0935 150.362 76.2464 151.097 76.5248 151.508L76.7515 151.842C77.0305 152.252 77.4751 152.748 77.7402 152.944C78.0047 153.141 77.9964 152.965 77.7207 152.553L76.9605 151.416C76.6848 151.004 76.532 150.269 76.6215 149.781L76.9021 148.24V148.24ZM83.675 135.21C83.675 135.095 83.2704 135.007 82.7752 135.017L80.9991 135.052C80.5034 135.062 80.3033 135.148 80.5539 135.245C80.8046 135.341 81.4153 135.421 81.9105 135.421H82.7747C83.2704 135.421 83.675 135.326 83.675 135.21V135.21ZM86.2859 149.262C86.3942 148.778 86.3398 148.596 86.1669 148.856C85.9952 149.119 85.7885 149.615 85.7073 149.96C85.6262 150.305 85.6912 150.933 85.8524 151.353C86.013 151.775 86.2909 152.309 86.4693 152.539C86.6488 152.768 86.6682 152.573 86.5121 152.101L86.2831 151.415C86.1269 150.943 86.0864 150.162 86.1931 149.679L86.2859 149.262V149.262ZM84.5875 144.376C84.0918 144.351 83.6822 144.424 83.675 144.541C83.67 144.656 84.0707 144.771 84.5658 144.796L89.6025 145.051C90.0966 145.076 90.6312 145.297 90.7891 145.543C90.9469 145.786 91.1553 145.936 91.252 145.874C91.3498 145.812 91.2748 145.518 91.0842 145.223C90.8947 144.928 90.3322 144.666 89.8399 144.641L84.5875 144.376V144.376ZM89.9193 134.54C90.1116 134.674 90.6746 134.783 91.1703 134.783H91.5532C92.0484 134.783 92.4546 134.689 92.4546 134.572C92.4546 134.458 92.0489 134.353 91.5532 134.342L90.469 134.318C89.9738 134.306 89.7265 134.407 89.9193 134.54ZM95.9325 144.503C95.4379 144.524 95.0355 144.636 95.0405 144.751C95.0449 144.867 95.4545 144.944 95.9486 144.923L98.8746 144.799C99.3697 144.778 99.7143 145.161 99.6398 145.652L99.028 149.697C98.9524 150.186 99.0085 150.976 99.1524 151.451L99.2797 151.875C99.4237 152.349 99.7087 152.976 99.9166 153.268C100.124 153.56 100.177 153.411 100.035 152.936L99.5826 151.421C99.4414 150.945 99.3859 150.156 99.4592 149.667L100.132 145.209C100.206 144.719 99.8616 144.335 99.3659 144.357L95.9325 144.503V144.503ZM96.935 134.438C96.915 134.552 97.2985 134.713 97.7881 134.796L102.775 135.382C103.266 135.443 103.668 135.397 103.668 135.282C103.668 135.165 103.266 135.02 102.775 134.958L97.8592 134.382C97.3696 134.298 96.9534 134.324 96.935 134.438V134.438ZM107.786 147.125C107.791 147.008 107.771 146.891 107.73 146.782C107.688 146.673 107.625 146.573 107.543 146.489C107.462 146.405 107.365 146.338 107.257 146.293C107.149 146.247 107.033 146.224 106.916 146.225H105.133C104.638 146.225 104.231 146.321 104.231 146.435C104.231 146.551 104.638 146.646 105.133 146.646H106.48C106.597 146.646 106.713 146.669 106.82 146.714C106.928 146.76 107.025 146.827 107.107 146.911C107.188 146.995 107.251 147.094 107.293 147.203C107.335 147.313 107.354 147.429 107.35 147.546L107.277 149.627C107.26 150.122 107.347 150.919 107.47 151.399L107.803 152.7C107.927 153.18 108.157 153.808 108.317 154.094C108.476 154.382 108.518 154.22 108.408 153.736L107.869 151.36C107.76 150.877 107.684 150.076 107.7 149.581L107.786 147.125V147.125ZM105.284 136.895C105.284 137.01 105.69 137.106 106.185 137.106H107.889C108.384 137.106 108.995 136.995 109.246 136.861C109.497 136.725 109.296 136.621 108.801 136.628L106.185 136.671C105.69 136.678 105.284 136.779 105.284 136.895V136.895ZM116.88 139.057C116.868 138.561 116.763 138.156 116.646 138.156C116.532 138.156 116.437 138.561 116.437 139.057V141.113C116.437 141.609 116.546 141.776 116.682 141.488C116.816 141.198 116.916 140.557 116.905 140.061L116.88 139.057ZM118.931 146.726C118.921 146.967 118.818 147.195 118.644 147.362C118.471 147.53 118.239 147.624 117.998 147.626H116.635C116.14 147.626 115.734 148.032 115.734 148.528V149.883C115.734 150.379 115.828 150.784 115.945 150.784C116.061 150.784 116.155 150.379 116.155 149.883V148.949C116.155 148.454 116.561 148.049 117.057 148.049H118.407C118.902 148.049 119.321 147.644 119.338 147.148L119.352 146.711C119.369 146.216 119.288 145.808 119.173 145.803C119.057 145.799 118.947 146.201 118.931 146.695L118.931 146.726V146.726ZM136.186 147.664C136.089 147.849 136.053 148.403 136.106 148.896L136.195 149.745C136.247 150.238 136.233 151.043 136.166 151.533L135.573 155.827C135.505 156.317 135.565 156.713 135.706 156.707C135.849 156.7 136.015 156.292 136.077 155.8L136.604 151.542C136.665 151.049 136.671 150.244 136.618 149.751L136.456 148.225C136.403 147.733 136.282 147.48 136.186 147.664V147.664ZM123.522 154.292C123.522 154.407 123.927 154.502 124.423 154.502H124.656C125.151 154.502 125.556 154.408 125.556 154.292C125.556 154.177 125.151 154.082 124.656 154.082H124.423C123.927 154.082 123.522 154.177 123.522 154.292ZM125.136 137.455C125.368 137.57 125.952 137.755 126.436 137.864L129.907 138.483C130.363 138.68 130.773 138.754 130.818 138.647C130.865 138.542 130.518 138.327 130.047 138.171L125.6 137.413C125.113 137.32 124.904 137.339 125.136 137.455ZM125.065 141.348C125.257 141.213 125.01 141.117 124.515 141.135L124.353 141.141C123.856 141.159 123.452 141.268 123.452 141.384C123.452 141.499 123.736 141.594 124.082 141.594C124.43 141.594 124.871 141.483 125.065 141.348V141.348ZM144.677 137.665C144.706 137.935 145.136 138.156 145.633 138.156H146.026C146.521 138.156 146.989 138.178 147.061 138.203C147.138 138.229 147.417 138.427 147.515 138.368C147.614 138.309 147.541 138.143 147.354 138.001C147.168 137.859 146.588 137.739 146.093 137.738H146.009C145.513 137.737 145.063 137.333 145.007 136.841L144.455 131.874C144.399 131.38 144.259 130.988 144.145 131.002C144.032 131.015 143.98 131.428 144.036 131.921L144.474 135.859C144.53 136.351 144.167 136.753 143.673 136.753H142.243C141.747 136.753 141.342 136.848 141.342 136.962C141.342 137.078 141.747 137.172 142.243 137.172H143.719C144.215 137.172 144.645 137.394 144.677 137.665V137.665ZM144.074 147.549C144.107 148.043 143.933 148.799 143.686 149.229L143.309 149.653C143.194 150.135 143.192 150.549 143.305 150.573C143.419 150.597 143.635 150.231 143.785 149.759C143.785 149.759 143.843 149.553 144.026 149.294C144.207 149.033 144.408 148.819 144.469 148.819C144.531 148.819 144.556 148.414 144.522 147.921L144.366 145.649C144.356 145.534 144.371 145.418 144.409 145.309C144.447 145.199 144.507 145.099 144.586 145.014C144.665 144.93 144.761 144.863 144.868 144.817C144.974 144.772 145.089 144.75 145.205 144.751H148.58C149.076 144.751 149.48 144.656 149.48 144.541C149.48 144.425 149.075 144.329 148.58 144.329H144.754C144.259 144.329 143.879 144.734 143.914 145.229L144.074 147.549V147.549ZM151.162 145.804C151.162 145.919 151.567 146.014 152.063 146.014H154.329C154.826 146.014 155.404 145.919 155.617 145.804C155.832 145.688 155.599 145.592 155.104 145.592L152.062 145.593C151.568 145.593 151.162 145.688 151.162 145.804V145.804ZM153.108 139.863C153.235 139.967 153.743 140.052 154.237 140.052H154.892C155.388 140.052 155.793 139.957 155.793 139.842C155.793 139.726 155.388 139.637 154.892 139.644L153.783 139.66C153.285 139.667 152.983 139.758 153.108 139.863ZM141.552 154.642C141.542 154.757 141.94 154.881 142.434 154.916L147.444 155.277C147.937 155.313 148.348 155.247 148.358 155.132C148.366 155.017 147.968 154.894 147.473 154.858L142.467 154.498C141.973 154.463 141.561 154.527 141.552 154.642ZM170.793 145.653C170.297 145.659 169.893 145.758 169.894 145.873C169.894 145.989 170.3 146.079 170.796 146.075L176.92 146.755C177.413 146.803 177.851 146.753 177.89 146.645C177.931 146.538 177.56 146.407 177.068 146.357L170.793 145.653ZM189.888 137.875C189.78 137.913 189.713 138.35 189.736 138.845L190.296 141.667C190.083 142.115 189.994 142.524 190.098 142.576C190.203 142.628 190.464 142.305 190.679 141.859L190.133 138.705C190.107 138.209 189.998 137.837 189.888 137.875ZM186.638 132.614C186.194 132.614 185.717 132.236 185.575 131.777C185.434 131.315 185.229 130.966 185.117 131.001C185.008 131.035 185.036 131.451 185.181 131.924L185.258 132.175C185.403 132.649 185.886 133.036 186.332 133.036C186.777 133.036 187.274 133.418 187.433 133.889L187.643 134.495C187.804 134.965 188.025 135.317 188.133 135.28C188.242 135.243 188.2 134.828 188.039 134.36L187.733 133.467C187.573 132.998 187.079 132.614 186.638 132.614ZM203.276 144.821C202.781 144.821 202.376 144.916 202.376 145.032C202.376 145.149 202.781 145.244 203.276 145.244H209.051C209.548 145.244 209.952 145.149 209.952 145.032C209.952 144.916 209.547 144.821 209.051 144.821H203.276ZM207.636 134.929C207.747 134.899 207.734 134.483 207.602 134.005L207.023 131.885C206.895 131.407 206.696 131.04 206.583 131.072C206.473 131.102 206.487 131.518 206.618 131.996L207.196 134.115C207.328 134.593 207.526 134.96 207.636 134.929" fill="#020303"/>
<path d="M67.6457 134.806H69.533C70.0281 134.806 70.0354 134.727 69.5491 134.633L68.8983 134.505C68.4115 134.41 68.0391 134.498 68.068 134.702L67.6457 134.806V134.806ZM57.0871 153.483C56.8954 153.271 56.3346 153.147 55.8439 153.206L54.7552 153.341C54.2634 153.4 54.2634 153.497 54.7557 153.556L56.5425 153.766C57.0354 153.823 57.2805 153.696 57.0871 153.483V153.483ZM74.9409 155.8C74.807 155.588 74.2924 155.447 73.7977 155.49L71.4553 155.688C70.9612 155.729 70.9612 155.801 71.4542 155.846L74.2901 156.103C74.7836 156.148 75.0776 156.012 74.9409 155.8V155.8ZM96.5499 154.923C96.4921 154.731 96.8489 154.584 97.3452 154.598L97.9287 154.616C98.4239 154.629 98.4405 154.755 97.9637 154.893L97.5186 155.021C97.0434 155.16 96.6071 155.115 96.5499 154.923V154.923ZM121.277 153.555C121.239 153.266 120.807 153.086 120.316 153.156L118.66 153.392C118.172 153.462 118.172 153.582 118.66 153.659L120.455 153.941C120.945 154.019 121.314 153.845 121.277 153.555ZM123.345 154.557C123.32 154.268 123.704 154.079 124.195 154.135L124.247 154.141C124.741 154.198 124.778 154.419 124.331 154.634L124.204 154.694C123.756 154.908 123.37 154.846 123.345 154.557V154.557ZM107.704 149.732C107.645 149.307 107.535 149.275 107.457 149.662C107.38 150.047 107.433 150.751 107.575 151.225L107.689 151.603C107.831 152.078 107.92 152.061 107.885 151.568L107.874 151.402C107.831 150.844 107.775 150.287 107.704 149.732V149.732ZM115.91 150.047C115.814 149.873 115.749 150.136 115.766 150.631L115.774 150.866C115.791 151.361 115.868 151.451 115.947 151.065C116.023 150.679 116.008 150.221 115.91 150.047ZM99.2853 149.871C99.2653 149.446 99.1875 149.446 99.1113 149.871C99.0341 150.296 99.0991 151.028 99.2541 151.498L99.3853 151.892C99.5415 152.363 99.6037 152.346 99.522 151.858L99.4687 151.533C99.3798 150.982 99.3186 150.428 99.2853 149.871V149.871ZM85.9196 150.187C85.8424 150.013 85.7146 150.045 85.6395 150.257C85.5623 150.47 85.6423 150.863 85.8157 151.133C85.9891 151.403 86.1169 151.373 86.0964 151.063C86.0764 150.755 85.9974 150.361 85.9196 150.187V150.187ZM76.5892 149.89C76.4937 149.464 76.3203 149.512 76.2047 149.994V149.996C76.0885 150.477 76.2786 151.156 76.6248 151.503C76.9716 151.851 77.1444 151.804 77.0105 151.399C76.8495 150.902 76.7089 150.399 76.5892 149.89V149.89ZM59.7891 149.276C59.6541 149.103 59.9481 148.996 60.4421 149.039L61.8709 149.163C62.365 149.205 62.3661 149.292 61.8754 149.355L60.9284 149.478C60.4377 149.54 59.9247 149.45 59.7891 149.276ZM136.304 149.57C136.374 149.08 136.515 149.075 136.621 149.559L136.663 149.762C136.767 150.246 136.749 151.035 136.622 151.514L136.45 152.157C136.323 152.635 136.208 152.622 136.194 152.126L136.176 151.544C136.162 151.048 136.207 150.242 136.278 149.751L136.304 149.57V149.57ZM130.678 138.753C130.678 138.965 130.342 138.909 129.932 138.632L129.667 138.453C129.257 138.174 129.315 138.04 129.798 138.156L129.8 138.157C130.284 138.273 130.678 138.54 130.678 138.753V138.753ZM158.073 153.028C158.13 152.835 157.772 152.689 157.276 152.703L156.623 152.722C156.128 152.736 156.114 152.857 156.59 152.992L157.1 153.134C157.578 153.268 158.015 153.22 158.073 153.028V153.028ZM154.564 150.047C154.428 149.758 154.333 149.927 154.352 150.422L154.355 150.515C154.374 151.009 154.483 151.225 154.598 150.994C154.716 150.762 154.7 150.337 154.564 150.047V150.047ZM167.018 153.905C167.095 153.693 166.753 153.552 166.261 153.592L164.549 153.729C164.054 153.768 164.051 153.861 164.541 153.936L165.987 154.156C166.476 154.23 166.94 154.118 167.018 153.905V153.905ZM165.264 150.152C165.186 149.92 165.076 149.904 165.019 150.117C164.961 150.33 164.978 150.803 165.054 151.17C165.131 151.537 165.241 151.553 165.298 151.205C165.357 150.858 165.342 150.384 165.264 150.152ZM190.133 142.681C189.959 142.623 189.975 142.212 190.168 141.769C190.361 141.325 190.503 141.366 190.483 141.862L190.482 141.886C190.464 142.381 190.306 142.74 190.133 142.681ZM178.346 153.414C178.52 153.202 179.063 153.088 179.553 153.162L181.98 153.526C182.471 153.599 182.467 153.671 181.972 153.685L178.932 153.774C178.437 153.789 178.174 153.626 178.346 153.414V153.414ZM201.356 153.414C201.569 153.124 202.141 152.964 202.628 153.059L204.858 153.489C205.344 153.583 205.337 153.682 204.843 153.712L201.871 153.886C201.374 153.918 201.144 153.704 201.356 153.414V153.414ZM202.27 144.996C202.173 144.668 202.494 144.459 202.984 144.532L204.99 144.828C205.48 144.901 205.482 145.034 204.994 145.123L203.333 145.429C202.845 145.518 202.368 145.324 202.27 144.996V144.996ZM199.918 135.245C199.764 135.109 199.622 134.594 199.605 134.099L199.601 134.005C199.585 133.51 199.673 133.498 199.799 133.976L199.969 134.619C200.095 135.098 200.072 135.381 199.918 135.245ZM177.611 146.996L176.344 146.488C175.883 146.304 175.91 146.192 176.403 146.238L177.75 146.364L177.611 146.996ZM129.45 151.063C129.546 150.794 129.546 150.368 129.45 150.116C129.355 149.866 128.87 149.662 128.375 149.662H127.86C127.364 149.662 126.817 149.898 126.644 150.188C126.47 150.478 126.718 150.826 127.195 150.962L128.411 151.308C128.888 151.443 129.355 151.333 129.45 151.063" fill="#020303"/>
<path d="M128.609 150.362C128.279 150.016 128.296 149.731 128.644 149.731C128.991 149.731 129.417 149.905 129.591 150.117C129.763 150.33 129.691 150.847 129.428 151.267L129.33 151.423C129.066 151.842 128.932 151.919 129.028 151.59C129.126 151.261 128.936 150.71 128.609 150.362V150.362ZM96.8639 134.578C96.9028 134.309 97.3268 134.185 97.807 134.306L98.0232 134.36C98.5044 134.482 98.5022 134.672 98.0198 134.784L97.6714 134.866C97.189 134.978 96.825 134.849 96.8639 134.578V134.578ZM74.1695 138.401C74.0723 138.575 73.601 138.621 73.1181 138.506L72.8352 138.437C72.3545 138.322 72.3634 138.203 72.8596 138.173L73.4437 138.138C73.9389 138.109 74.2662 138.227 74.1695 138.401V138.401ZM55.8945 146.153C55.9728 145.921 55.6366 145.809 55.1509 145.905L54.3967 146.052C53.9105 146.147 53.9127 146.287 54.4017 146.363L54.8641 146.436C55.3526 146.512 55.8172 146.386 55.8945 146.153Z" fill="#020303"/>
<path d="M57.2977 153.555C57.1438 153.382 57.131 152.849 57.2716 152.375L57.465 151.718C57.6045 151.242 57.6989 151.258 57.6762 151.753L57.6195 152.969C57.5967 153.466 57.4522 153.727 57.2977 153.555V153.555ZM74.8364 155.869C74.6819 155.773 74.6819 155.347 74.8364 154.922C74.9909 154.498 75.1171 154.557 75.1171 155.052V155.143C75.1171 155.639 74.9909 155.966 74.8364 155.869ZM90.6562 145.312C90.6373 145.003 90.769 145.127 90.9508 145.59L91.0619 145.876C91.2442 146.338 91.2347 146.526 91.0413 146.294C90.8485 146.063 90.6751 145.621 90.6562 145.312V145.312ZM178.559 153.695C178.732 153.56 178.762 153.059 178.626 152.583L178.419 151.86C178.283 151.383 178.181 151.399 178.194 151.894L178.223 153.04C178.233 153.535 178.385 153.83 178.559 153.695ZM201.709 153.554C201.959 153.418 201.996 152.94 201.787 152.491L200.858 150.479C200.651 150.028 200.555 150.058 200.646 150.546L201.088 152.914C201.179 153.402 201.458 153.69 201.709 153.554V153.554ZM202.69 144.961C202.594 144.768 202.336 144.974 202.117 145.419L201.159 147.379C200.939 147.824 201 147.86 201.293 147.461L202.334 146.038C202.627 145.639 202.787 145.155 202.69 144.961Z" fill="#282729"/>
<path d="M187.641 135.35L187.68 134.218C187.696 133.721 187.812 133.709 187.937 134.188L188.272 135.49" fill="#020303"/>
<path d="M53.9666 154.045C53.5231 153.91 53.5548 153.831 54.0366 153.871C54.5641 153.914 55.0902 153.973 55.6144 154.046C55.9995 154.104 55.9684 154.183 55.5443 154.22C55.1198 154.259 54.4101 154.18 53.9666 154.045V154.045ZM76.1747 151.561C75.8251 151.211 75.774 151.254 76.0613 151.657L76.417 152.155C76.7048 152.558 77.1622 153.029 77.4329 153.204C77.7024 153.377 77.6874 153.236 77.3984 152.888C77.0261 152.451 76.6377 152.028 76.2341 151.62L76.1747 151.561V151.561ZM85.2188 150.574C85.1021 150.574 85.166 150.904 85.3589 151.311C85.5517 151.716 85.6462 151.716 85.5695 151.311C85.4923 150.904 85.3344 150.574 85.2188 150.574ZM98.1293 155.064C97.7431 155.025 97.827 154.921 98.3144 154.831L98.8529 154.734C99.3403 154.645 99.5348 154.699 99.2836 154.854C99.0352 155.008 98.5145 155.102 98.1293 155.064V155.064ZM107.142 151.31C106.968 151.059 106.905 151.217 107.001 151.66C107.097 152.104 107.35 152.783 107.563 153.168C107.773 153.555 107.856 153.476 107.744 152.994L107.663 152.645C107.549 152.161 107.316 151.56 107.142 151.31V151.31ZM136.958 152.081C136.9 151.791 136.756 151.839 136.642 152.185C136.526 152.533 136.431 153.195 136.431 153.659C136.431 154.122 136.56 154.116 136.717 153.647L136.779 153.462C136.934 152.992 137.016 152.37 136.958 152.081V152.081ZM127.023 150.149C126.925 149.853 126.701 149.904 126.525 150.261C126.349 150.618 126.571 151.087 127.016 151.304L127.038 151.313C127.481 151.53 127.702 151.477 127.524 151.196C127.348 150.917 127.121 150.445 127.023 150.149V150.149ZM143.691 155.203C143.248 155.088 143.29 154.993 143.785 154.993H143.948C144.443 154.993 145.211 155.119 145.657 155.274C146.099 155.428 146.059 155.526 145.563 155.49L145.398 155.479C144.904 155.443 144.136 155.319 143.691 155.203ZM154.951 151.31C154.915 151.136 154.771 151.294 154.636 151.66C154.499 152.026 154.531 152.169 154.706 151.976C154.879 151.783 154.991 151.482 154.951 151.31V151.31ZM165.783 150.927C165.744 150.755 165.602 150.912 165.467 151.279C165.332 151.645 165.364 151.789 165.538 151.594C165.711 151.401 165.822 151.101 165.783 150.927ZM164.044 154.181C163.557 154.088 163.564 153.971 164.056 153.923L164.438 153.886C164.931 153.839 165.539 153.926 165.792 154.082C166.042 154.235 165.963 154.362 165.616 154.362C165.269 154.362 164.587 154.285 164.099 154.192L164.044 154.181ZM179.963 154.152C179.518 154.189 179.518 154.111 179.963 153.976C180.406 153.84 181.174 153.764 181.666 153.806L182.326 153.864C182.819 153.906 182.819 153.965 182.324 153.993L181.667 154.029C181.174 154.059 180.405 154.113 179.963 154.152Z" fill="#595558"/>
<path d="M190.237 142.822C190.005 142.919 189.66 143.371 189.47 143.829L189.461 143.848C189.271 144.306 189.359 144.358 189.658 143.962L190.111 143.364C190.413 142.968 190.469 142.724 190.237 142.822" fill="#282729"/>
<path d="M207.672 135.14C207.459 135.14 207.246 134.736 207.198 134.243L207.162 133.862C207.114 133.368 207.243 133.334 207.446 133.786L207.689 134.319C207.891 134.771 207.885 135.14 207.672 135.14ZM141.377 137.139C141.358 136.888 141.748 136.697 142.243 136.713L142.544 136.723C143.04 136.74 143.07 136.908 142.613 137.097L142.244 137.249C141.786 137.439 141.396 137.389 141.377 137.139V137.139ZM116.718 138.051C116.523 137.954 116.417 138.277 116.482 138.768L116.531 139.158C116.596 139.649 116.738 139.656 116.851 139.173L116.865 139.105C116.978 138.622 116.911 138.148 116.718 138.051V138.051ZM94.6526 144.891C94.5948 144.698 94.9532 144.541 95.4489 144.541H97.3663C97.8614 144.541 97.8692 144.621 97.3835 144.717L95.6423 145.064C95.1566 145.161 94.7098 145.084 94.6526 144.891V144.891ZM55.4915 148.749C55.521 148.604 55.1392 148.485 54.6429 148.485H54.1828C53.6859 148.485 53.6748 148.581 54.1561 148.699L54.5634 148.799C55.0442 148.917 55.4615 148.893 55.4915 148.749" fill="#020303"/>
<path d="M48.5164 150.353C48.0207 150.359 47.6945 150.442 47.7923 150.538C47.8896 150.635 48.3742 150.714 48.8693 150.714H52.5406C53.0346 150.714 53.5198 150.619 53.6165 150.503C53.7132 150.387 53.3853 150.297 52.8901 150.303L48.5164 150.353V150.353ZM65.1448 150.353C64.648 150.359 64.3212 150.442 64.419 150.538C64.5152 150.635 64.9987 150.714 65.4938 150.714H69.1651C69.6603 150.714 70.1449 150.619 70.2421 150.503C70.3388 150.387 70.0109 150.297 69.5163 150.303L65.1448 150.353V150.353ZM74.493 150.28C73.9973 150.295 73.6188 150.389 73.6499 150.485C73.6833 150.583 74.1151 150.661 74.6108 150.661H74.6742C75.1699 150.661 75.6023 150.566 75.6362 150.45C75.6684 150.334 75.2905 150.253 74.7948 150.269L74.493 150.28V150.28ZM57.8129 142.125C57.3177 142.141 56.9393 142.234 56.9721 142.33C57.0065 142.427 57.4383 142.506 57.9335 142.506H57.9958C58.4909 142.506 58.9227 142.411 58.9572 142.296C58.99 142.179 58.6115 142.098 58.1163 142.114L57.8129 142.125V142.125ZM64.7052 142.125C64.2106 142.141 63.8327 142.234 63.865 142.33C63.8994 142.427 64.3307 142.506 64.8253 142.506H64.8881C65.3838 142.506 65.8156 142.411 65.849 142.296C65.8829 142.179 65.5033 142.098 65.0076 142.114L64.7052 142.125V142.125ZM50.9189 143.226C50.4243 143.244 50.0442 143.337 50.0736 143.435C50.102 143.531 50.5054 143.61 50.9667 143.61C51.428 143.61 51.8298 143.515 51.8587 143.4C51.8887 143.284 51.508 143.204 51.0134 143.223L50.9189 143.226ZM59.1812 146.032C58.6849 146.041 58.3303 146.127 58.3909 146.224C58.4531 146.321 58.9088 146.398 59.4035 146.398H61.0507C61.547 146.398 62.0021 146.304 62.0627 146.189C62.1244 146.074 61.7687 145.987 61.2735 145.995L59.1812 146.032V146.032ZM55.3926 134.036C54.8964 134.045 54.5418 134.131 54.6035 134.228C54.6641 134.324 55.1198 134.403 55.6144 134.403H57.2638C57.7601 134.403 58.2153 134.308 58.2758 134.193C58.3359 134.076 57.9802 133.989 57.485 133.997L55.3926 134.036V134.036ZM84.0674 150.28C83.5727 150.295 83.1937 150.389 83.2271 150.485C83.261 150.583 83.6922 150.661 84.1874 150.661H84.2491C84.7442 150.661 85.1777 150.566 85.2111 150.45C85.2444 150.334 84.866 150.253 84.3691 150.269L84.0674 150.28V150.28ZM100.43 150.277C99.9338 150.295 99.5532 150.389 99.5837 150.486C99.6132 150.583 100.016 150.662 100.477 150.662C100.94 150.662 101.34 150.567 101.369 150.45C101.399 150.335 101.016 150.255 100.524 150.273L100.43 150.277V150.277ZM87.1195 150.292C86.6243 150.304 86.2614 150.39 86.3153 150.486C86.3681 150.584 86.8172 150.661 87.3123 150.661H88.5439C89.0396 150.661 89.4881 150.566 89.5414 150.451C89.5942 150.335 89.2324 150.247 88.7367 150.259L87.1195 150.292ZM95.8008 150.294C95.3045 150.304 94.9488 150.389 95.0083 150.486C95.0683 150.584 95.5223 150.661 96.0175 150.661H97.5697C98.066 150.661 98.5195 150.566 98.58 150.451C98.639 150.335 98.2822 150.247 97.787 150.257L95.8008 150.294ZM105.378 150.288C104.883 150.3 104.513 150.39 104.555 150.486C104.599 150.583 105.039 150.66 105.535 150.66H106.205C106.701 150.66 107.142 150.565 107.186 150.45C107.23 150.334 106.861 150.249 106.364 150.262L105.378 150.288ZM124.37 150.288C123.875 150.3 123.505 150.39 123.549 150.486C123.594 150.583 124.035 150.66 124.53 150.66H125.198C125.693 150.66 126.135 150.565 126.18 150.45C126.224 150.334 125.855 150.249 125.36 150.262L124.37 150.288V150.288ZM137.892 150.285C137.397 150.298 137.022 150.389 137.061 150.485C137.101 150.583 137.537 150.661 138.034 150.661H138.423C138.919 150.661 139.356 150.566 139.395 150.45C139.435 150.334 139.062 150.251 138.566 150.265L137.892 150.285ZM144.628 150.299C144.133 150.306 143.795 150.389 143.878 150.486C143.961 150.583 144.434 150.66 144.93 150.66H147.872C148.367 150.66 148.841 150.565 148.925 150.45C149.01 150.334 148.673 150.244 148.176 150.251L144.628 150.299V150.299ZM152.941 150.282C152.445 150.297 152.069 150.389 152.103 150.486C152.138 150.583 152.572 150.661 153.065 150.661H153.206C153.702 150.661 154.135 150.566 154.169 150.451C154.204 150.335 153.828 150.253 153.33 150.268L152.941 150.282ZM155.941 150.292C155.443 150.304 155.084 150.39 155.137 150.486C155.19 150.584 155.64 150.661 156.136 150.661H157.398C157.893 150.661 158.343 150.566 158.398 150.451C158.45 150.335 158.089 150.247 157.593 150.259L155.941 150.292V150.292ZM162.569 150.289C162.073 150.301 161.706 150.389 161.751 150.486C161.798 150.583 162.241 150.661 162.737 150.661H163.529C164.024 150.661 164.468 150.566 164.513 150.451C164.559 150.335 164.192 150.249 163.696 150.261L162.569 150.289V150.289ZM166.516 150.285C166.02 150.299 165.646 150.39 165.682 150.486C165.72 150.583 166.157 150.661 166.654 150.661H166.982C167.477 150.661 167.913 150.566 167.949 150.451C167.986 150.335 167.612 150.252 167.117 150.266L166.516 150.285ZM172.094 150.301C171.599 150.306 171.276 150.389 171.38 150.486C171.483 150.583 171.972 150.661 172.467 150.661H176.528C177.024 150.661 177.513 150.566 177.617 150.45C177.72 150.335 177.398 150.244 176.904 150.25L172.094 150.301ZM181.563 150.301C181.067 150.306 180.746 150.389 180.849 150.486C180.951 150.583 181.441 150.661 181.938 150.661H185.997C186.494 150.661 186.983 150.566 187.087 150.45C187.192 150.335 186.87 150.244 186.375 150.25L181.563 150.301V150.301ZM205.503 150.301C205.008 150.306 204.687 150.389 204.793 150.486C204.895 150.583 205.384 150.661 205.881 150.661H209.937C210.433 150.661 210.923 150.566 211.026 150.45C211.13 150.335 210.809 150.244 210.315 150.25L205.503 150.301V150.301ZM196.716 134.35C196.221 134.36 195.863 134.445 195.921 134.543C195.979 134.639 196.433 134.717 196.928 134.717H198.421C198.917 134.717 199.37 134.623 199.429 134.507C199.486 134.391 199.128 134.304 198.633 134.313L196.716 134.35ZM189.244 134.353C188.749 134.361 188.399 134.445 188.465 134.543C188.533 134.639 188.992 134.717 189.489 134.717H191.446C191.943 134.717 192.402 134.623 192.469 134.507C192.535 134.391 192.184 134.304 191.688 134.311L189.244 134.353V134.353ZM185.454 134.345C184.959 134.357 184.591 134.446 184.639 134.542C184.685 134.639 185.127 134.717 185.625 134.717H186.466C186.962 134.717 187.405 134.623 187.452 134.507C187.499 134.39 187.133 134.306 186.636 134.318L185.454 134.345ZM186.72 142.086C186.224 142.095 185.868 142.181 185.928 142.278C185.987 142.375 186.442 142.452 186.937 142.452H188.523C189.018 142.452 189.472 142.358 189.532 142.243C189.593 142.127 189.236 142.04 188.74 142.049L186.72 142.086V142.086ZM163.622 133.821C163.126 133.833 162.758 133.921 162.806 134.018C162.852 134.114 163.295 134.193 163.791 134.193H164.631C165.128 134.193 165.57 134.098 165.617 133.982C165.662 133.867 165.295 133.781 164.799 133.794L163.622 133.821ZM168.987 133.821C168.491 133.833 168.124 133.921 168.171 134.018C168.216 134.114 168.662 134.193 169.156 134.193H170C170.495 134.193 170.938 134.098 170.985 133.982C171.03 133.867 170.664 133.781 170.166 133.794L168.987 133.821ZM165.552 137.227C165.151 137.245 164.843 137.34 164.867 137.437C164.89 137.534 165.2 137.614 165.554 137.614C165.907 137.614 166.217 137.518 166.239 137.402C166.261 137.288 165.951 137.209 165.552 137.227V137.227ZM167.463 136.122C166.967 136.141 166.586 136.236 166.614 136.333C166.642 136.429 167.029 136.509 167.474 136.509C167.92 136.509 168.306 136.414 168.334 136.298C168.362 136.181 167.979 136.101 167.484 136.122L167.463 136.122V136.122ZM143.575 136.333C143.079 136.351 142.697 136.446 142.725 136.543C142.752 136.639 143.14 136.719 143.585 136.719C144.031 136.719 144.418 136.624 144.449 136.508C144.478 136.392 144.095 136.312 143.601 136.331L143.575 136.333ZM149.573 141.915C149.075 141.931 148.698 142.022 148.735 142.12C148.769 142.216 149.204 142.295 149.699 142.295H149.854C150.35 142.295 150.784 142.201 150.817 142.086C150.852 141.969 150.475 141.887 149.98 141.902L149.573 141.915ZM145.364 143.926C144.868 143.937 144.506 144.023 144.56 144.119C144.614 144.216 145.062 144.294 145.559 144.294H146.788C147.283 144.294 147.733 144.199 147.786 144.084C147.839 143.967 147.477 143.881 146.983 143.892L145.364 143.926ZM204.923 144.347C204.428 144.358 204.067 144.444 204.121 144.541C204.174 144.637 204.625 144.716 205.119 144.716H206.347C206.843 144.716 207.292 144.62 207.347 144.504C207.4 144.389 207.038 144.303 206.545 144.313L204.923 144.347V144.347ZM105.853 145.919C105.357 145.933 104.984 146.024 105.023 146.119C105.064 146.215 105.502 146.293 105.997 146.293H106.479C106.975 146.293 107.414 146.199 107.455 146.083C107.495 145.968 107.124 145.885 106.628 145.898L105.853 145.919V145.919ZM97.4319 144.235C96.9367 144.248 96.5644 144.339 96.6044 144.435C96.6444 144.53 97.0818 144.609 97.5769 144.609H98.0604C98.5567 144.609 98.9957 144.515 99.0363 144.4C99.0769 144.284 98.7045 144.2 98.2088 144.214L97.4319 144.235ZM85.4339 144.076C84.9382 144.09 84.5664 144.181 84.607 144.277C84.6487 144.374 85.0877 144.453 85.5829 144.453H86.0653C86.5604 144.453 86.9995 144.358 87.04 144.241C87.0812 144.125 86.7083 144.041 86.2125 144.055L85.4339 144.076ZM67.285 137.659C66.7898 137.668 66.4286 137.753 66.4831 137.849C66.5386 137.947 66.9882 138.027 67.4845 138.029L68.8061 138.034C69.3012 138.036 69.7531 137.942 69.8075 137.827C69.8637 137.71 69.5041 137.623 69.0084 137.63L67.285 137.659V137.659ZM101.352 134.609C100.859 134.554 100.477 134.593 100.504 134.694C100.531 134.797 100.955 134.934 101.445 135L101.925 135.064C102.416 135.132 102.864 135.097 102.919 134.988C102.974 134.879 102.617 134.746 102.123 134.692L101.352 134.609ZM152.993 145.234C152.497 145.247 152.124 145.337 152.165 145.434C152.205 145.53 152.645 145.608 153.139 145.608H153.622C154.117 145.608 154.556 145.514 154.597 145.398C154.636 145.282 154.264 145.199 153.768 145.212L152.993 145.234V145.234ZM168.146 143.762C167.651 143.775 167.278 143.865 167.319 143.962C167.36 144.058 167.798 144.136 168.294 144.136H168.777C169.273 144.136 169.71 144.041 169.751 143.925C169.79 143.809 169.419 143.727 168.924 143.74L168.146 143.762V143.762ZM131.734 134.201C131.239 134.206 130.936 134.289 131.063 134.386C131.191 134.482 131.698 134.561 132.194 134.561H137.529C138.025 134.561 138.532 134.467 138.659 134.35C138.784 134.234 138.482 134.143 137.986 134.148L131.734 134.201V134.201ZM113.69 134.255C113.195 134.259 112.895 134.341 113.026 134.438C113.157 134.535 113.67 134.613 114.164 134.613H119.728C120.223 134.613 120.735 134.519 120.866 134.402C120.997 134.286 120.696 134.195 120.201 134.2L113.69 134.255V134.255ZM112.744 141.93C112.248 141.937 111.9 142.022 111.971 142.119C112.041 142.216 112.504 142.296 113 142.296H115.21C115.704 142.296 116.168 142.201 116.238 142.086C116.308 141.97 115.96 141.882 115.465 141.889L112.744 141.93V141.93ZM117.582 141.929C117.087 141.936 116.736 142.022 116.803 142.119C116.87 142.216 117.33 142.296 117.825 142.296H119.801C120.295 142.296 120.755 142.202 120.823 142.086C120.89 141.97 120.539 141.881 120.043 141.89L117.582 141.929V141.929ZM127.949 149.279C127.454 149.296 127.075 149.39 127.107 149.485C127.139 149.582 127.57 149.661 128.066 149.661H128.081C128.576 149.661 129.008 149.567 129.041 149.45C129.075 149.334 128.696 149.254 128.2 149.27L127.949 149.279V149.279ZM126.525 136.946C126.033 136.888 125.657 136.927 125.691 137.028C125.726 137.132 126.155 137.271 126.646 137.339L127.551 137.465C128.042 137.531 128.495 137.499 128.559 137.39C128.622 137.281 128.272 137.147 127.779 137.09L126.525 136.946V136.946ZM171.771 145.26C171.279 145.203 170.904 145.24 170.94 145.341C170.972 145.444 171.405 145.583 171.895 145.651L172.797 145.776C173.289 145.844 173.742 145.811 173.805 145.703C173.868 145.595 173.518 145.46 173.026 145.404L171.771 145.26V145.26ZM170.133 137.227C169.761 137.245 169.474 137.34 169.496 137.437C169.516 137.534 169.802 137.614 170.131 137.614C170.461 137.614 170.747 137.518 170.768 137.402C170.789 137.288 170.504 137.209 170.133 137.227V137.227ZM191.508 142.087C191.012 142.096 190.661 142.181 190.726 142.277C190.793 142.374 191.253 142.453 191.749 142.453H193.709C194.204 142.453 194.665 142.358 194.73 142.242C194.795 142.127 194.445 142.04 193.948 142.047L191.508 142.087V142.087ZM208.868 134.346C208.373 134.358 208.007 134.446 208.055 134.543C208.103 134.639 208.548 134.717 209.043 134.717H209.944C210.441 134.717 210.886 134.623 210.933 134.507C210.981 134.391 210.616 134.306 210.119 134.317L208.868 134.346ZM131 150.3C130.505 150.306 130.175 150.39 130.265 150.486C130.357 150.583 130.837 150.661 131.332 150.661H134.707C135.202 150.661 135.682 150.566 135.774 150.451C135.865 150.335 135.534 150.245 135.04 150.252L131 150.3V150.3ZM108.902 150.302C108.407 150.307 108.1 150.389 108.219 150.485C108.339 150.583 108.842 150.661 109.338 150.661H114.344C114.84 150.661 115.344 150.566 115.464 150.449C115.584 150.334 115.276 150.242 114.781 150.247L108.902 150.302ZM117.111 150.295C116.616 150.305 116.264 150.39 116.33 150.486C116.396 150.583 116.855 150.661 117.35 150.661H119.278C119.773 150.661 120.232 150.566 120.299 150.45C120.364 150.335 120.012 150.247 119.517 150.254L117.111 150.295ZM78.0548 150.342C77.5596 150.354 77.19 150.442 77.2367 150.539C77.2823 150.636 77.7241 150.714 78.2209 150.714H79.0312C79.5264 150.714 79.9693 150.619 80.0149 150.503C80.0616 150.387 79.6942 150.303 79.199 150.314L78.0548 150.342V150.342Z" fill="#E1DCD7"/>
<defs>
<filter id="filter0_f_740_16413" x="-20" y="25" width="298" height="184" filterUnits="userSpaceOnUse" color-interpolation-filters="sRGB">
<feFlood flood-opacity="0" result="BackgroundImageFix"/>
<feBlend mode="normal" in="SourceGraphic" in2="BackgroundImageFix" result="shape"/>
<feGaussianBlur stdDeviation="18.5" result="effect1_foregroundBlur_740_16413"/>
</filter>
<filter id="filter1_ii_740_16413" x="17" y="62" width="224" height="148" filterUnits="userSpaceOnUse" color-interpolation-filters="sRGB">
<feFlood flood-opacity="0" result="BackgroundImageFix"/>
<feBlend mode="normal" in="SourceGraphic" in2="BackgroundImageFix" result="shape"/>
<feColorMatrix in="SourceAlpha" type="matrix" values="0 0 0 0 0 0 0 0 0 0 0 0 0 0 0 0 0 0 127 0" result="hardAlpha"/>
<feOffset dy="4"/>
<feComposite in2="hardAlpha" operator="arithmetic" k2="-1" k3="1"/>
<feColorMatrix type="matrix" values="0 0 0 0 1 0 0 0 0 1 0 0 0 0 1 0 0 0 0.25 0"/>
<feBlend mode="normal" in2="shape" result="effect1_innerShadow_740_16413"/>
<feColorMatrix in="SourceAlpha" type="matrix" values="0 0 0 0 0 0 0 0 0 0 0 0 0 0 0 0 0 0 127 0" result="hardAlpha"/>
<feOffset dy="-4"/>
<feComposite in2="hardAlpha" operator="arithmetic" k2="-1" k3="1"/>
<feColorMatrix type="matrix" values="0 0 0 0 0 0 0 0 0 0 0 0 0 0 0 0 0 0 0.9 0"/>
<feBlend mode="soft-light" in2="effect1_innerShadow_740_16413" result="effect2_innerShadow_740_16413"/>
</filter>
<filter id="filter2_i_740_16413" x="227" y="62" width="14" height="14.8" filterUnits="userSpaceOnUse" color-interpolation-filters="sRGB">
<feFlood flood-opacity="0" result="BackgroundImageFix"/>
<feBlend mode="normal" in="SourceGraphic" in2="BackgroundImageFix" result="shape"/>
<feColorMatrix in="SourceAlpha" type="matrix" values="0 0 0 0 0 0 0 0 0 0 0 0 0 0 0 0 0 0 127 0" result="hardAlpha"/>
<feOffset dy="4"/>
<feComposite in2="hardAlpha" operator="arithmetic" k2="-1" k3="1"/>
<feColorMatrix type="matrix" values="0 0 0 0 1 0 0 0 0 1 0 0 0 0 1 0 0 0 0.25 0"/>
<feBlend mode="normal" in2="shape" result="effect1_innerShadow_740_16413"/>
</filter>
<filter id="filter3_i_740_16413" x="17" y="74" width="14" height="18" filterUnits="userSpaceOnUse" color-interpolation-filters="sRGB">
<feFlood flood-opacity="0" result="BackgroundImageFix"/>
<feBlend mode="normal" in="SourceGraphic" in2="BackgroundImageFix" result="shape"/>
<feColorMatrix in="SourceAlpha" type="matrix" values="0 0 0 0 0 0 0 0 0 0 0 0 0 0 0 0 0 0 127 0" result="hardAlpha"/>
<feOffset dy="4"/>
<feComposite in2="hardAlpha" operator="arithmetic" k2="-1" k3="1"/>
<feColorMatrix type="matrix" values="0 0 0 0 1 0 0 0 0 1 0 0 0 0 1 0 0 0 0.25 0"/>
<feBlend mode="normal" in2="shape" result="effect1_innerShadow_740_16413"/>
</filter>
<filter id="filter4_i_740_16413" x="129" y="62" width="14" height="14.8" filterUnits="userSpaceOnUse" color-interpolation-filters="sRGB">
<feFlood flood-opacity="0" result="BackgroundImageFix"/>
<feBlend mode="normal" in="SourceGraphic" in2="BackgroundImageFix" result="shape"/>
<feColorMatrix in="SourceAlpha" type="matrix" values="0 0 0 0 0 0 0 0 0 0 0 0 0 0 0 0 0 0 127 0" result="hardAlpha"/>
<feOffset dy="4"/>
<feComposite in2="hardAlpha" operator="arithmetic" k2="-1" k3="1"/>
<feColorMatrix type="matrix" values="0 0 0 0 1 0 0 0 0 1 0 0 0 0 1 0 0 0 0.25 0"/>
<feBlend mode="normal" in2="shape" result="effect1_innerShadow_740_16413"/>
</filter>
<filter id="filter5_i_740_16413" x="59" y="74" width="28" height="4" filterUnits="userSpaceOnUse" color-interpolation-filters="sRGB">
<feFlood flood-opacity="0" result="BackgroundImageFix"/>
<feBlend mode="normal" in="SourceGraphic" in2="BackgroundImageFix" result="shape"/>
<feColorMatrix in="SourceAlpha" type="matrix" values="0 0 0 0 0 0 0 0 0 0 0 0 0 0 0 0 0 0 127 0" result="hardAlpha"/>
<feOffset dy="4"/>
<feComposite in2="hardAlpha" operator="arithmetic" k2="-1" k3="1"/>
<feColorMatrix type="matrix" values="0 0 0 0 1 0 0 0 0 1 0 0 0 0 1 0 0 0 0.25 0"/>
<feBlend mode="normal" in2="shape" result="effect1_innerShadow_740_16413"/>
</filter>
<filter id="filter6_i_740_16413" x="157" y="62" width="56" height="14.8" filterUnits="userSpaceOnUse" color-interpolation-filters="sRGB">
<feFlood flood-opacity="0" result="BackgroundImageFix"/>
<feBlend mode="normal" in="SourceGraphic" in2="BackgroundImageFix" result="shape"/>
<feColorMatrix in="SourceAlpha" type="matrix" values="0 0 0 0 0 0 0 0 0 0 0 0 0 0 0 0 0 0 127 0" result="hardAlpha"/>
<feOffset dy="4"/>
<feComposite in2="hardAlpha" operator="arithmetic" k2="-1" k3="1"/>
<feColorMatrix type="matrix" values="0 0 0 0 1 0 0 0 0 1 0 0 0 0 1 0 0 0 0.25 0"/>
<feBlend mode="normal" in2="shape" result="effect1_innerShadow_740_16413"/>
</filter>
<filter id="filter7_i_740_16413" x="31" y="74" width="28" height="4" filterUnits="userSpaceOnUse" color-interpolation-filters="sRGB">
<feFlood flood-opacity="0" result="BackgroundImageFix"/>
<feBlend mode="normal" in="SourceGraphic" in2="BackgroundImageFix" result="shape"/>
<feColorMatrix in="SourceAlpha" type="matrix" values="0 0 0 0 0 0 0 0 0 0 0 0 0 0 0 0 0 0 127 0" result="hardAlpha"/>
<feOffset dy="4"/>
<feComposite in2="hardAlpha" operator="arithmetic" k2="-1" k3="1"/>
<feColorMatrix type="matrix" values="0 0 0 0 1 0 0 0 0 1 0 0 0 0 1 0 0 0 0.25 0"/>
<feBlend mode="normal" in2="shape" result="effect1_innerShadow_740_16413"/>
</filter>
<filter id="filter8_i_740_16413" x="213" y="62" width="14" height="14.8" filterUnits="userSpaceOnUse" color-interpolation-filters="sRGB">
<feFlood flood-opacity="0" result="BackgroundImageFix"/>
<feBlend mode="normal" in="SourceGraphic" in2="BackgroundImageFix" result="shape"/>
<feColorMatrix in="SourceAlpha" type="matrix" values="0 0 0 0 0 0 0 0 0 0 0 0 0 0 0 0 0 0 127 0" result="hardAlpha"/>
<feOffset dy="4"/>
<feComposite in2="hardAlpha" operator="arithmetic" k2="-1" k3="1"/>
<feColorMatrix type="matrix" values="0 0 0 0 1 0 0 0 0 1 0 0 0 0 1 0 0 0 0.25 0"/>
<feBlend mode="normal" in2="shape" result="effect1_innerShadow_740_16413"/>
</filter>
<filter id="filter9_i_740_16413" x="143" y="62" width="14" height="14.8" filterUnits="userSpaceOnUse" color-interpolation-filters="sRGB">
<feFlood flood-opacity="0" result="BackgroundImageFix"/>
<feBlend mode="normal" in="SourceGraphic" in2="BackgroundImageFix" result="shape"/>
<feColorMatrix in="SourceAlpha" type="matrix" values="0 0 0 0 0 0 0 0 0 0 0 0 0 0 0 0 0 0 127 0" result="hardAlpha"/>
<feOffset dy="4"/>
<feComposite in2="hardAlpha" operator="arithmetic" k2="-1" k3="1"/>
<feColorMatrix type="matrix" values="0 0 0 0 1 0 0 0 0 1 0 0 0 0 1 0 0 0 0.25 0"/>
<feBlend mode="normal" in2="shape" result="effect1_innerShadow_740_16413"/>
</filter>
<filter id="filter10_i_740_16413" x="45" y="195.2" width="14" height="14.8" filterUnits="userSpaceOnUse" color-interpolation-filters="sRGB">
<feFlood flood-opacity="0" result="BackgroundImageFix"/>
<feBlend mode="normal" in="SourceGraphic" in2="BackgroundImageFix" result="shape"/>
<feColorMatrix in="SourceAlpha" type="matrix" values="0 0 0 0 0 0 0 0 0 0 0 0 0 0 0 0 0 0 127 0" result="hardAlpha"/>
<feOffset dy="-4"/>
<feComposite in2="hardAlpha" operator="arithmetic" k2="-1" k3="1"/>
<feColorMatrix type="matrix" values="0 0 0 0 0 0 0 0 0 0 0 0 0 0 0 0 0 0 0.9 0"/>
<feBlend mode="soft-light" in2="shape" result="effect1_innerShadow_740_16413"/>
</filter>
<filter id="filter11_i_740_16413" x="87" y="195.2" width="14" height="14.8" filterUnits="userSpaceOnUse" color-interpolation-filters="sRGB">
<feFlood flood-opacity="0" result="BackgroundImageFix"/>
<feBlend mode="normal" in="SourceGraphic" in2="BackgroundImageFix" result="shape"/>
<feColorMatrix in="SourceAlpha" type="matrix" values="0 0 0 0 0 0 0 0 0 0 0 0 0 0 0 0 0 0 127 0" result="hardAlpha"/>
<feOffset dy="-4"/>
<feComposite in2="hardAlpha" operator="arithmetic" k2="-1" k3="1"/>
<feColorMatrix type="matrix" values="0 0 0 0 0 0 0 0 0 0 0 0 0 0 0 0 0 0 0.9 0"/>
<feBlend mode="soft-light" in2="shape" result="effect1_innerShadow_740_16413"/>
</filter>
<filter id="filter12_i_740_16413" x="101" y="195.2" width="14" height="14.8" filterUnits="userSpaceOnUse" color-interpolation-filters="sRGB">
<feFlood flood-opacity="0" result="BackgroundImageFix"/>
<feBlend mode="normal" in="SourceGraphic" in2="BackgroundImageFix" result="shape"/>
<feColorMatrix in="SourceAlpha" type="matrix" values="0 0 0 0 0 0 0 0 0 0 0 0 0 0 0 0 0 0 127 0" result="hardAlpha"/>
<feOffset dy="-4"/>
<feComposite in2="hardAlpha" operator="arithmetic" k2="-1" k3="1"/>
<feColorMatrix type="matrix" values="0 0 0 0 0 0 0 0 0 0 0 0 0 0 0 0 0 0 0.9 0"/>
<feBlend mode="soft-light" in2="shape" result="effect1_innerShadow_740_16413"/>
</filter>
<filter id="filter13_i_740_16413" x="185" y="195.2" width="14" height="14.8" filterUnits="userSpaceOnUse" color-interpolation-filters="sRGB">
<feFlood flood-opacity="0" result="BackgroundImageFix"/>
<feBlend mode="normal" in="SourceGraphic" in2="BackgroundImageFix" result="shape"/>
<feColorMatrix in="SourceAlpha" type="matrix" values="0 0 0 0 0 0 0 0 0 0 0 0 0 0 0 0 0 0 127 0" result="hardAlpha"/>
<feOffset dy="-4"/>
<feComposite in2="hardAlpha" operator="arithmetic" k2="-1" k3="1"/>
<feColorMatrix type="matrix" values="0 0 0 0 0 0 0 0 0 0 0 0 0 0 0 0 0 0 0.9 0"/>
<feBlend mode="soft-light" in2="shape" result="effect1_innerShadow_740_16413"/>
</filter>
<filter id="filter14_i_740_16413" x="199" y="195.2" width="14" height="14.8" filterUnits="userSpaceOnUse" color-interpolation-filters="sRGB">
<feFlood flood-opacity="0" result="BackgroundImageFix"/>
<feBlend mode="normal" in="SourceGraphic" in2="BackgroundImageFix" result="shape"/>
<feColorMatrix in="SourceAlpha" type="matrix" values="0 0 0 0 0 0 0 0 0 0 0 0 0 0 0 0 0 0 127 0" result="hardAlpha"/>
<feOffset dy="-4"/>
<feComposite in2="hardAlpha" operator="arithmetic" k2="-1" k3="1"/>
<feColorMatrix type="matrix" values="0 0 0 0 0 0 0 0 0 0 0 0 0 0 0 0 0 0 0.9 0"/>
<feBlend mode="soft-light" in2="shape" result="effect1_innerShadow_740_16413"/>
</filter>
<filter id="filter15_i_740_16413" x="31" y="195.2" width="14" height="14.8" filterUnits="userSpaceOnUse" color-interpolation-filters="sRGB">
<feFlood flood-opacity="0" result="BackgroundImageFix"/>
<feBlend mode="normal" in="SourceGraphic" in2="BackgroundImageFix" result="shape"/>
<feColorMatrix in="SourceAlpha" type="matrix" values="0 0 0 0 0 0 0 0 0 0 0 0 0 0 0 0 0 0 127 0" result="hardAlpha"/>
<feOffset dy="-4"/>
<feComposite in2="hardAlpha" operator="arithmetic" k2="-1" k3="1"/>
<feColorMatrix type="matrix" values="0 0 0 0 0 0 0 0 0 0 0 0 0 0 0 0 0 0 0.9 0"/>
<feBlend mode="soft-light" in2="shape" result="effect1_innerShadow_740_16413"/>
</filter>
<filter id="filter16_i_740_16413" x="17" y="195.2" width="14" height="14.8" filterUnits="userSpaceOnUse" color-interpolation-filters="sRGB">
<feFlood flood-opacity="0" result="BackgroundImageFix"/>
<feBlend mode="normal" in="SourceGraphic" in2="BackgroundImageFix" result="shape"/>
<feColorMatrix in="SourceAlpha" type="matrix" values="0 0 0 0 0 0 0 0 0 0 0 0 0 0 0 0 0 0 127 0" result="hardAlpha"/>
<feOffset dy="-4"/>
<feComposite in2="hardAlpha" operator="arithmetic" k2="-1" k3="1"/>
<feColorMatrix type="matrix" values="0 0 0 0 0 0 0 0 0 0 0 0 0 0 0 0 0 0 0.9 0"/>
<feBlend mode="soft-light" in2="shape" result="effect1_innerShadow_740_16413"/>
</filter>
<filter id="filter17_i_740_16413" x="87" y="72.4844" width="14" height="4.51562" filterUnits="userSpaceOnUse" color-interpolation-filters="sRGB">
<feFlood flood-opacity="0" result="BackgroundImageFix"/>
<feBlend mode="normal" in="SourceGraphic" in2="BackgroundImageFix" result="shape"/>
<feColorMatrix in="SourceAlpha" type="matrix" values="0 0 0 0 0 0 0 0 0 0 0 0 0 0 0 0 0 0 127 0" result="hardAlpha"/>
<feOffset dy="4"/>
<feComposite in2="hardAlpha" operator="arithmetic" k2="-1" k3="1"/>
<feColorMatrix type="matrix" values="0 0 0 0 1 0 0 0 0 1 0 0 0 0 1 0 0 0 0.25 0"/>
<feBlend mode="normal" in2="shape" result="effect1_innerShadow_740_16413"/>
</filter>
<filter id="filter18_i_740_16413" x="101" y="63.094" width="14" height="13.906" filterUnits="userSpaceOnUse" color-interpolation-filters="sRGB">
<feFlood flood-opacity="0" result="BackgroundImageFix"/>
<feBlend mode="normal" in="SourceGraphic" in2="BackgroundImageFix" result="shape"/>
<feColorMatrix in="SourceAlpha" type="matrix" values="0 0 0 0 0 0 0 0 0 0 0 0 0 0 0 0 0 0 127 0" result="hardAlpha"/>
<feOffset dy="4"/>
<feComposite in2="hardAlpha" operator="arithmetic" k2="-1" k3="1"/>
<feColorMatrix type="matrix" values="0 0 0 0 1 0 0 0 0 1 0 0 0 0 1 0 0 0 0.25 0"/>
<feBlend mode="normal" in2="shape" result="effect1_innerShadow_740_16413"/>
</filter>
<filter id="filter19_i_740_16413" x="115" y="62" width="14" height="15" filterUnits="userSpaceOnUse" color-interpolation-filters="sRGB">
<feFlood flood-opacity="0" result="BackgroundImageFix"/>
<feBlend mode="normal" in="SourceGraphic" in2="BackgroundImageFix" result="shape"/>
<feColorMatrix in="SourceAlpha" type="matrix" values="0 0 0 0 0 0 0 0 0 0 0 0 0 0 0 0 0 0 127 0" result="hardAlpha"/>
<feOffset dy="4"/>
<feComposite in2="hardAlpha" operator="arithmetic" k2="-1" k3="1"/>
<feColorMatrix type="matrix" values="0 0 0 0 1 0 0 0 0 1 0 0 0 0 1 0 0 0 0.25 0"/>
<feBlend mode="normal" in2="shape" result="effect1_innerShadow_740_16413"/>
</filter>
<linearGradient id="paint0_linear_740_16413" x1="17" y1="34" x2="197.768" y2="215.142" gradientUnits="userSpaceOnUse">
<stop stop-color="#05815D"/>
<stop offset="1" stop-color="#0C575F"/>
</linearGradient>
<linearGradient id="paint1_linear_740_16413" x1="17" y1="62" x2="241" y2="210" gradientUnits="userSpaceOnUse">
<stop stop-color="#775439"/>
<stop offset="1" stop-color="#775439"/>
</linearGradient>
</defs>
</svg>
