<svg width="256" height="256" viewBox="0 0 256 256" fill="none" xmlns="http://www.w3.org/2000/svg">
<path fill-rule="evenodd" clip-rule="evenodd" d="M104.425 42.3784C100.056 37.0733 93.5437 34 86.6712 34H29C22.3726 34 17 39.3726 17 46V58.1371V68.2V160C17 166.627 22.3726 172 29 172H229C235.627 172 241 166.627 241 160V70.1371C241 63.5097 235.627 58.1371 229 58.1371H117.404L104.425 42.3784Z" fill="#066231"/>
<mask id="mask0_740_16384" style="mask-type:alpha" maskUnits="userSpaceOnUse" x="17" y="34" width="224" height="138">
<path fill-rule="evenodd" clip-rule="evenodd" d="M104.425 42.3784C100.056 37.0733 93.5437 34 86.6712 34H29C22.3726 34 17 39.3726 17 46V58.1371V68.2V160C17 166.627 22.3726 172 29 172H229C235.627 172 241 166.627 241 160V70.1371C241 63.5097 235.627 58.1371 229 58.1371H117.404L104.425 42.3784Z" fill="url(#paint0_linear_740_16384)"/>
</mask>
<g mask="url(#mask0_740_16384)">
<g style="mix-blend-mode:multiply" filter="url(#filter0_f_740_16384)">
<path fill-rule="evenodd" clip-rule="evenodd" d="M92.789 74C97.7642 74 102.605 72.3868 106.586 69.4024L116.459 62H229C235.627 62 241 67.3726 241 74V108V160C241 166.627 235.627 172 229 172H29C22.3726 172 17 166.627 17 160L17 108V86C17 79.3726 22.3726 74 29 74H87H92.789Z" fill="black" fill-opacity="0.3"/>
</g>
</g>
<g filter="url(#filter1_ii_740_16384)">
<path fill-rule="evenodd" clip-rule="evenodd" d="M92.789 74C97.7642 74 102.605 72.3868 106.586 69.4024L116.459 62H229C235.627 62 241 67.3726 241 74V108V198C241 204.627 235.627 210 229 210H29C22.3726 210 17 204.627 17 198L17 108V86C17 79.3726 22.3726 74 29 74H87H92.789Z" fill="url(#paint1_linear_740_16384)"/>
</g>
<rect x="113" y="98" width="16" height="16" fill="#81C77F"/>
<g filter="url(#filter2_i_740_16384)">
<rect x="65" y="74" width="16" height="8" fill="#81C77F"/>
</g>
<rect x="225" y="82" width="16" height="16" fill="#81C77F"/>
<rect x="193" y="66" width="16" height="16" fill="#81C77F"/>
<g filter="url(#filter3_i_740_16384)">
<rect x="177" y="62" width="16" height="4" fill="#81C77F"/>
</g>
<rect x="17" y="146" width="16" height="16" fill="#81C77F"/>
<rect x="129" y="66" width="48" height="16" fill="#81C77F"/>
<rect x="145" y="82" width="16" height="16" fill="#81C77F"/>
<rect x="65" y="130" width="16" height="48" fill="#81C77F"/>
<rect x="33" y="114" width="16" height="32" fill="#81C77F"/>
<g filter="url(#filter4_i_740_16384)">
<rect x="193" y="178" width="16" height="32" fill="#81C77F"/>
</g>
<rect x="81" y="178" width="16" height="16" fill="#81C77F"/>
<rect x="145" y="130" width="16" height="16" fill="#81C77F"/>
<rect x="177" y="146" width="16" height="16" fill="#81C77F"/>
<rect x="209" y="130" width="16" height="16" fill="#81C77F"/>
<g filter="url(#filter5_i_740_16384)">
<path d="M225 194H241V198C241 204.627 235.627 210 229 210H225V194Z" fill="#81C77F"/>
</g>
<rect x="49" y="98" width="32" height="16" fill="#81C77F"/>
<g filter="url(#filter6_i_740_16384)">
<rect x="49" y="194" width="32" height="16" fill="#81C77F"/>
</g>
<rect x="177" y="82" width="16" height="48" fill="#81C77F"/>
<path fill-rule="evenodd" clip-rule="evenodd" d="M81 98H113V130H81V98ZM145 130H113V146H97V194H113V178H145V194H161V146H145V130ZM145 130V98H177V130H145Z" fill="url(#paint2_linear_740_16384)"/>
<defs>
<filter id="filter0_f_740_16384" x="-20" y="25" width="298" height="184" filterUnits="userSpaceOnUse" color-interpolation-filters="sRGB">
<feFlood flood-opacity="0" result="BackgroundImageFix"/>
<feBlend mode="normal" in="SourceGraphic" in2="BackgroundImageFix" result="shape"/>
<feGaussianBlur stdDeviation="18.5" result="effect1_foregroundBlur_740_16384"/>
</filter>
<filter id="filter1_ii_740_16384" x="17" y="62" width="224" height="148" filterUnits="userSpaceOnUse" color-interpolation-filters="sRGB">
<feFlood flood-opacity="0" result="BackgroundImageFix"/>
<feBlend mode="normal" in="SourceGraphic" in2="BackgroundImageFix" result="shape"/>
<feColorMatrix in="SourceAlpha" type="matrix" values="0 0 0 0 0 0 0 0 0 0 0 0 0 0 0 0 0 0 127 0" result="hardAlpha"/>
<feOffset dy="4"/>
<feComposite in2="hardAlpha" operator="arithmetic" k2="-1" k3="1"/>
<feColorMatrix type="matrix" values="0 0 0 0 1 0 0 0 0 1 0 0 0 0 1 0 0 0 0.25 0"/>
<feBlend mode="normal" in2="shape" result="effect1_innerShadow_740_16384"/>
<feColorMatrix in="SourceAlpha" type="matrix" values="0 0 0 0 0 0 0 0 0 0 0 0 0 0 0 0 0 0 127 0" result="hardAlpha"/>
<feOffset dy="-4"/>
<feComposite in2="hardAlpha" operator="arithmetic" k2="-1" k3="1"/>
<feColorMatrix type="matrix" values="0 0 0 0 0 0 0 0 0 0 0 0 0 0 0 0 0 0 0.9 0"/>
<feBlend mode="soft-light" in2="effect1_innerShadow_740_16384" result="effect2_innerShadow_740_16384"/>
</filter>
<filter id="filter2_i_740_16384" x="65" y="74" width="16" height="8" filterUnits="userSpaceOnUse" color-interpolation-filters="sRGB">
<feFlood flood-opacity="0" result="BackgroundImageFix"/>
<feBlend mode="normal" in="SourceGraphic" in2="BackgroundImageFix" result="shape"/>
<feColorMatrix in="SourceAlpha" type="matrix" values="0 0 0 0 0 0 0 0 0 0 0 0 0 0 0 0 0 0 127 0" result="hardAlpha"/>
<feOffset dy="4"/>
<feComposite in2="hardAlpha" operator="arithmetic" k2="-1" k3="1"/>
<feColorMatrix type="matrix" values="0 0 0 0 1 0 0 0 0 1 0 0 0 0 1 0 0 0 0.25 0"/>
<feBlend mode="normal" in2="shape" result="effect1_innerShadow_740_16384"/>
</filter>
<filter id="filter3_i_740_16384" x="177" y="62" width="16" height="4" filterUnits="userSpaceOnUse" color-interpolation-filters="sRGB">
<feFlood flood-opacity="0" result="BackgroundImageFix"/>
<feBlend mode="normal" in="SourceGraphic" in2="BackgroundImageFix" result="shape"/>
<feColorMatrix in="SourceAlpha" type="matrix" values="0 0 0 0 0 0 0 0 0 0 0 0 0 0 0 0 0 0 127 0" result="hardAlpha"/>
<feOffset dy="4"/>
<feComposite in2="hardAlpha" operator="arithmetic" k2="-1" k3="1"/>
<feColorMatrix type="matrix" values="0 0 0 0 1 0 0 0 0 1 0 0 0 0 1 0 0 0 0.25 0"/>
<feBlend mode="normal" in2="shape" result="effect1_innerShadow_740_16384"/>
</filter>
<filter id="filter4_i_740_16384" x="193" y="178" width="16" height="32" filterUnits="userSpaceOnUse" color-interpolation-filters="sRGB">
<feFlood flood-opacity="0" result="BackgroundImageFix"/>
<feBlend mode="normal" in="SourceGraphic" in2="BackgroundImageFix" result="shape"/>
<feColorMatrix in="SourceAlpha" type="matrix" values="0 0 0 0 0 0 0 0 0 0 0 0 0 0 0 0 0 0 127 0" result="hardAlpha"/>
<feOffset dy="-4"/>
<feComposite in2="hardAlpha" operator="arithmetic" k2="-1" k3="1"/>
<feColorMatrix type="matrix" values="0 0 0 0 0 0 0 0 0 0 0 0 0 0 0 0 0 0 0.25 0"/>
<feBlend mode="normal" in2="shape" result="effect1_innerShadow_740_16384"/>
</filter>
<filter id="filter5_i_740_16384" x="225" y="194" width="16" height="16" filterUnits="userSpaceOnUse" color-interpolation-filters="sRGB">
<feFlood flood-opacity="0" result="BackgroundImageFix"/>
<feBlend mode="normal" in="SourceGraphic" in2="BackgroundImageFix" result="shape"/>
<feColorMatrix in="SourceAlpha" type="matrix" values="0 0 0 0 0 0 0 0 0 0 0 0 0 0 0 0 0 0 127 0" result="hardAlpha"/>
<feOffset dy="-4"/>
<feComposite in2="hardAlpha" operator="arithmetic" k2="-1" k3="1"/>
<feColorMatrix type="matrix" values="0 0 0 0 0 0 0 0 0 0 0 0 0 0 0 0 0 0 0.25 0"/>
<feBlend mode="normal" in2="shape" result="effect1_innerShadow_740_16384"/>
</filter>
<filter id="filter6_i_740_16384" x="49" y="194" width="32" height="16" filterUnits="userSpaceOnUse" color-interpolation-filters="sRGB">
<feFlood flood-opacity="0" result="BackgroundImageFix"/>
<feBlend mode="normal" in="SourceGraphic" in2="BackgroundImageFix" result="shape"/>
<feColorMatrix in="SourceAlpha" type="matrix" values="0 0 0 0 0 0 0 0 0 0 0 0 0 0 0 0 0 0 127 0" result="hardAlpha"/>
<feOffset dy="-4"/>
<feComposite in2="hardAlpha" operator="arithmetic" k2="-1" k3="1"/>
<feColorMatrix type="matrix" values="0 0 0 0 0 0 0 0 0 0 0 0 0 0 0 0 0 0 0.25 0"/>
<feBlend mode="normal" in2="shape" result="effect1_innerShadow_740_16384"/>
</filter>
<linearGradient id="paint0_linear_740_16384" x1="17" y1="34" x2="197.768" y2="215.142" gradientUnits="userSpaceOnUse">
<stop stop-color="#05815D"/>
<stop offset="1" stop-color="#0C575F"/>
</linearGradient>
<linearGradient id="paint1_linear_740_16384" x1="115.5" y1="62" x2="204.5" y2="210" gradientUnits="userSpaceOnUse">
<stop stop-color="#4CAF50"/>
<stop offset="1" stop-color="#088242"/>
</linearGradient>
<linearGradient id="paint2_linear_740_16384" x1="129" y1="98" x2="129" y2="194" gradientUnits="userSpaceOnUse">
<stop stop-color="#404649"/>
<stop offset="1" stop-color="#323538"/>
</linearGradient>
</defs>
</svg>
