<svg width="256" height="256" viewBox="0 0 256 256" fill="none" xmlns="http://www.w3.org/2000/svg">
<path fill-rule="evenodd" clip-rule="evenodd" d="M104.425 42.3784C100.056 37.0733 93.5437 34 86.6712 34H29C22.3726 34 17 39.3726 17 46V58.1371V68.2V160C17 166.627 22.3726 172 29 172H229C235.627 172 241 166.627 241 160V70.1371C241 63.5097 235.627 58.1371 229 58.1371H117.404L104.425 42.3784Z" fill="#700000"/>
<mask id="mask0_751_16569" style="mask-type:alpha" maskUnits="userSpaceOnUse" x="17" y="34" width="224" height="138">
<path fill-rule="evenodd" clip-rule="evenodd" d="M104.425 42.3784C100.056 37.0733 93.5437 34 86.6712 34H29C22.3726 34 17 39.3726 17 46V58.1371V68.2V160C17 166.627 22.3726 172 29 172H229C235.627 172 241 166.627 241 160V70.1371C241 63.5097 235.627 58.1371 229 58.1371H117.404L104.425 42.3784Z" fill="url(#paint0_linear_751_16569)"/>
</mask>
<g mask="url(#mask0_751_16569)">
<g style="mix-blend-mode:multiply" filter="url(#filter0_f_751_16569)">
<path fill-rule="evenodd" clip-rule="evenodd" d="M92.789 74C97.7642 74 102.605 72.3868 106.586 69.4024L116.459 62H229C235.627 62 241 67.3726 241 74V108V160C241 166.627 235.627 172 229 172H29C22.3726 172 17 166.627 17 160L17 108V86C17 79.3726 22.3726 74 29 74H87H92.789Z" fill="black" fill-opacity="0.3"/>
</g>
</g>
<g filter="url(#filter1_ii_751_16569)">
<path fill-rule="evenodd" clip-rule="evenodd" d="M92.789 74C97.7642 74 102.605 72.3868 106.586 69.4024L116.459 62H229C235.627 62 241 67.3726 241 74V108V198C241 204.627 235.627 210 229 210H29C22.3726 210 17 204.627 17 198L17 108V86C17 79.3726 22.3726 74 29 74H87H92.789Z" fill="url(#paint1_linear_751_16569)"/>
</g>
<g filter="url(#filter2_iiii_751_16569)">
<path d="M96.2837 192.607L241 178.693V197.999C241 204.627 235.627 209.999 229 209.999H107.472L96.2837 192.607Z" fill="#F4F4F4"/>
</g>
<path d="M96.2837 192.607L241 178.693V193.999C241 200.627 235.627 205.999 229 205.999H105L96.2837 192.607Z" fill="#F4F4F4"/>
<path fill-rule="evenodd" clip-rule="evenodd" d="M165.116 179.779C165.116 181.464 165.319 182.78 165.603 183.068C165.968 183.438 167.104 183.561 168.971 183.479L171.811 183.356L171.69 180.601L171.609 177.805H178.061H184.554L184.675 180.601L184.797 183.356L187.8 183.479C189.951 183.561 190.925 183.438 191.128 183.068C191.33 182.78 191.493 181.3 191.493 179.779V176.983H188.855H186.217V174.721V172.501L188.977 172.378L191.696 172.254V168.554V164.853L188.977 164.73L186.217 164.606V162.386V160.207L183.498 160.042C181.429 159.878 180.496 160.001 179.725 160.536C179.035 160.988 178.304 161.111 177.493 160.906C176.843 160.741 174.774 160.618 172.948 160.577L169.58 160.536V162.592V164.648H166.942H164.304V168.759V172.871H167.145H169.985V174.927V176.983H167.551H165.116V179.779ZM174.611 167.649C174.855 168.348 174.855 169.17 174.611 169.911C174.287 170.815 173.962 171.062 172.704 171.144L171.203 171.267V168.759V166.251L172.704 166.374C173.962 166.457 174.287 166.703 174.611 167.649ZM184.31 166.432C184.594 166.657 184.594 167.241 184.594 168.759C184.594 170.278 184.594 170.862 184.31 171.086C184.133 171.226 183.845 171.226 183.377 171.226C182.119 171.226 181.348 170.322 181.348 168.759C181.348 167.197 182.119 166.292 183.377 166.292C183.845 166.292 184.133 166.292 184.31 166.432ZM153.997 172.46C150.832 172.46 150.507 172.707 150.507 174.968V176.983H153.957H157.406V173.693C157.406 170.322 156.96 169.54 156.107 171.432C155.742 172.295 155.377 172.46 153.997 172.46Z" fill="#BCBCBC"/>
<path fill-rule="evenodd" clip-rule="evenodd" d="M93.2887 188.167C93.938 188.825 94.8713 190.058 95.3583 190.963L96.2916 192.607H168.646H241V185.042V177.435L239.336 177.312C237.672 177.189 237.632 177.147 236.942 174.845C235.603 170.404 232.884 166.827 228.745 163.99C224.484 161.112 222.252 160.454 215.84 160.248C210.768 160.043 210.2 159.96 208.333 158.891C204.965 156.959 199.243 155.602 194.536 155.602C189.463 155.602 186.055 156.507 182.159 158.891C178.872 160.906 178.953 161.358 182.686 161.358H185.04L184.918 163.127L184.797 164.853L182.97 164.977C180.657 165.141 180.13 165.84 180.13 168.76C180.13 171.679 180.657 172.378 182.97 172.542C184.715 172.666 184.797 172.748 184.918 174.023C185.162 176.407 184.756 176.572 178.141 176.572C171.608 176.572 171.202 176.448 171.202 174.269C171.202 172.83 171.73 172.46 173.84 172.46C175.585 172.46 176.072 171.638 176.072 168.677C176.072 165.758 175.544 165.141 173.028 164.977L170.999 164.853V163.209V161.564L173.353 161.441C174.652 161.358 175.666 161.112 175.666 160.865C175.666 160.166 168.078 160.701 166.17 161.564C163.411 162.756 160.124 165.306 158.582 167.362C156.431 170.281 156.188 170.939 156.188 173.447V175.749H153.956H151.724V174.31C151.724 172.666 155.5 172 155.5 172C155.5 172 150.5 170.5 148 170.5C145.5 170.5 142.756 174.31 142.756 174.31L140.767 176.49C139.631 177.641 138.617 178.628 138.495 178.628C138.353 178.628 137.342 178.156 136.087 177.57C135.906 177.486 135.721 177.4 135.533 177.312C133.138 176.078 132.489 175.955 129.405 175.955C124.17 175.996 121.695 177.353 117.596 182.616C117.028 183.315 116.541 183.438 114.309 183.356C112.889 183.315 111.144 182.945 110.454 182.575C108.993 181.835 106.842 181.711 105.3 182.328C104.448 182.657 104.245 182.575 104.245 182.081C104.245 179.82 101.689 177.929 99.1728 178.34C98.1177 178.504 97.3061 178.34 96.0076 177.6C94.0597 176.448 92.7206 176.325 91.2597 177.189C89.7988 178.052 89.6365 177.97 89.6365 176.366C89.6365 173.694 86.7959 172.912 85.335 175.174C84.4017 176.531 82.4944 176.531 81.8452 175.133C81.6017 174.598 81.0742 174.023 80.6278 173.858C80.222 173.735 79.6133 172.995 79.3292 172.255C78.6799 170.733 77.3814 169.829 76.2857 170.199C75.6105 170.398 74.0966 169.886 73.2314 169.307C72.9801 169.072 72.7591 168.787 72.6342 168.513C72.6177 168.477 72.6007 168.441 72.5832 168.406C72.5384 168.073 72.3415 167.816 72.0352 167.645C71.944 167.569 71.8572 167.526 71.782 167.526C71.7775 167.526 71.773 167.526 71.7685 167.526C71.2273 167.34 70.4666 167.354 69.6306 167.608C68.535 167.937 67.8857 167.937 67.1146 167.608C66.2219 167.197 66.1813 166.992 66.5059 166.087C66.7494 165.47 66.9117 164.113 66.9117 163.044V161.03L69.2654 160.166C72.1871 159.056 75.3118 158.48 78.193 158.48C80.4249 158.48 80.4249 158.48 79.6944 157.658C79.2886 157.206 77.6654 156.178 76.0828 155.355C73.2422 153.916 73.1205 153.916 69.7523 154.163C67.8451 154.327 65.1262 154.574 63.7059 154.78L61.1088 155.15L57.2131 151.573C52.8305 147.543 50.2334 145.282 45.0797 141.17L39.425 136.229C39.425 136.229 32.1912 131.28 19.5955 129.39C6.99988 127.5 4.36345 130.297 3.36358 132.297C2.36372 134.297 3.36355 140.06 3.36355 140.06C4.09399 144.706 8.03025 151.161 13.9549 157.535L17.6071 161.482L19.839 160.331C23.2883 158.563 26.7376 156.095 29.2941 153.464C30.5927 152.148 31.7695 151.079 31.8913 151.079C31.9724 151.079 31.526 151.86 30.8362 152.847C29.3347 154.862 25.0332 158.439 21.9897 160.207C20.8129 160.865 19.7173 161.605 19.5955 161.811C19.1492 162.551 22.9637 163.784 29.1724 164.853C32.6217 165.429 36.7608 166.21 38.3029 166.539C40.8594 167.074 51.4508 169.171 51.6943 169.171C51.7348 169.171 52.1812 170.281 52.6682 171.638C53.6421 174.351 55.103 176.325 56.7262 177.147C57.6189 177.6 63.0161 179.039 63.9088 179.039C64.0306 179.039 63.0161 177.929 61.6363 176.572C59.445 174.434 59.161 173.981 59.2827 172.789C59.3639 171.761 59.6073 171.432 60.216 171.432C60.6624 171.432 61.4334 171.268 61.9204 171.103C62.9755 170.692 64.8827 171.802 64.8827 172.83C64.9233 174.845 67.561 175.914 68.9407 174.516C69.6306 173.817 69.9147 173.735 70.4016 174.146C70.7263 174.393 70.9697 174.927 70.9697 175.297C70.9697 176.819 75.1495 179.779 76.5698 179.244C76.8944 179.121 77.5031 179.491 77.9495 180.067C78.4365 180.725 79.1263 181.095 79.8973 181.095C80.506 181.095 81.2365 181.383 81.5205 181.711C81.8046 182.04 82.6162 182.328 83.3466 182.328C84.5234 182.328 84.6858 182.493 85.1321 183.973C85.822 186.275 87.5669 187.386 90.1641 187.139C91.909 186.974 92.2742 187.098 93.2887 188.167ZM73.8752 171.22C74.5231 171.186 75.0277 171.033 75.0277 170.815C75.0277 170.628 74.4873 170.44 73.8071 170.409C73.2769 170.69 73.2787 171.158 73.8752 171.22ZM170.472 180.108C170.553 181.136 170.512 182.04 170.431 182.164C170.066 182.534 167.266 182.287 166.82 181.835C166.536 181.547 166.333 180.642 166.333 179.779V178.216H168.321H170.31L170.472 180.108ZM190.275 179.614C190.275 180.396 190.153 181.3 190.031 181.67C189.869 182.123 189.26 182.328 188.002 182.328C185.973 182.328 185.689 181.958 185.892 179.779C186.014 178.463 186.055 178.422 188.165 178.299L190.275 178.175V179.614ZM169.782 166.087V168.76V171.432L167.672 171.556L165.521 171.679V168.76V165.84L167.672 165.964L169.782 166.087ZM190.478 166.087V168.554V171.021L188.449 171.144C187.313 171.227 186.257 171.144 186.095 170.98C185.689 170.569 185.73 167.033 186.176 166.375C186.379 166.005 187.191 165.881 188.489 165.964L190.478 166.087Z" fill="#F4F4F4"/>
<path d="M172.168 162.232C168.759 161.934 159.459 161.223 143.704 160.015C139.649 159.7 133.361 159.22 129.72 158.939C124.126 158.509 108.421 157.334 104.565 157.036C101.752 156.837 82.7696 155.397 74.8591 154.802C70.0763 154.438 64.0855 153.991 61.5369 153.809C59.0049 153.61 56.4894 153.428 55.9599 153.362L55 153.263V152.336C55 151.823 55.1489 147.321 55.331 142.307C55.513 137.309 55.662 132.675 55.662 132.03V130.838L57.0356 130.474C57.7803 130.276 59.4021 129.829 60.6267 129.481C63.2912 128.72 67.0313 127.661 71.2182 126.503C72.9063 126.039 75.4548 125.328 76.8781 124.914C84.1597 122.862 87.0889 122.034 92.484 120.545C98.8389 118.758 98.7727 118.791 98.7396 118.46C98.723 118.278 98.6072 117.516 98.5079 116.739C98.2431 114.852 98.4086 111.426 98.8554 109.639C99.5505 106.776 100.858 104.476 102.844 102.572C104.201 101.298 105.161 100.636 106.915 99.8418C108.653 99.0309 109.033 99.0805 108.884 100.073C108.603 101.977 108.272 105.286 108.173 107.024C108.123 108.083 108.007 108.96 107.924 108.96C107.742 108.96 107.759 110.549 107.941 110.913C108.04 111.062 108.14 111.393 108.189 111.641C108.288 112.055 108.338 112.072 108.917 111.989C109.248 111.939 109.563 111.84 109.612 111.774C109.695 111.641 111.151 111.31 111.929 111.244C112.525 111.178 112.624 110.417 112.657 105.651C112.691 101.53 112.757 100.851 113.171 100.851C113.353 100.851 113.419 100.454 113.452 98.9978L113.501 97.1277L114.197 97.0781C115.173 97.0119 116.414 97.2435 119.294 98.071C121.76 98.7826 121.793 98.7992 122.62 99.6597C123.083 100.14 123.563 100.735 123.696 100.984C123.828 101.232 123.977 101.464 124.043 101.513C124.308 101.712 125.036 103.615 125.351 104.889C125.533 105.651 125.715 107.173 125.781 108.414C125.831 109.622 125.913 110.615 125.947 110.615C126.277 110.615 127.486 110.218 127.486 110.102C127.486 110.02 127.75 109.953 128.065 109.953C128.379 109.953 128.644 109.887 128.644 109.788C128.644 109.705 128.876 109.622 129.157 109.622C129.769 109.622 132.02 108.977 132.086 108.762C132.119 108.696 132.401 108.629 132.715 108.629C133.03 108.629 133.278 108.563 133.278 108.464C133.278 108.381 133.509 108.298 133.791 108.298C134.354 108.298 136.571 107.67 136.819 107.454C136.919 107.372 137.2 107.305 137.448 107.305C137.696 107.305 137.912 107.239 137.912 107.14C137.912 106.958 138.574 106.908 138.574 107.107C138.574 107.173 138.64 107.322 138.722 107.438C138.838 107.62 139.186 107.57 140.576 107.173C142.512 106.61 147.113 105.286 150.489 104.327C151.714 103.979 153.948 103.35 155.454 102.92C156.96 102.49 159.31 101.811 160.667 101.414C163.695 100.553 168.329 99.2295 171.341 98.3689C172.566 98.0214 174.237 97.5414 175.048 97.3097C175.975 97.045 176.604 96.9457 176.769 97.0284C176.984 97.1443 177.017 97.6076 176.984 100.156L176.951 103.135L177.365 103.052C177.613 103.003 177.845 102.903 177.894 102.821C177.944 102.738 178.176 102.672 178.424 102.672C178.672 102.672 179.417 102.523 180.079 102.341C180.724 102.159 181.486 102.01 181.75 102.01H182.214L182.313 107.769C182.379 113.147 182.512 137.971 182.512 150.002V155.381L180.112 155.331C178.788 155.315 177.53 155.249 177.315 155.199L176.918 155.116L177.034 158.84L177.15 162.58L176.438 162.563C176.041 162.547 174.121 162.398 172.168 162.232ZM170.381 152.121L170.431 148.43H171.093C171.457 148.43 172.698 148.496 173.873 148.579L175.975 148.712V144.26C175.975 141.827 175.925 136.862 175.859 133.222L175.76 126.635L175.164 126.734C174.833 126.784 173.625 126.867 172.466 126.933L170.348 127.049V123.921V120.777L173.062 120.479L175.776 120.164L175.842 113.528C175.892 109.871 175.909 106.875 175.892 106.842C175.875 106.826 174.899 106.991 173.724 107.223C172.549 107.454 171.341 107.636 171.06 107.636H170.514V104.724C170.514 102.043 170.497 101.828 170.232 101.91C170.067 101.96 169.339 102.159 168.61 102.341C167.882 102.539 166.128 103.019 164.721 103.416C163.315 103.814 160.75 104.525 159.012 104.989C157.291 105.469 154.841 106.147 153.6 106.495C152.359 106.842 151.068 107.173 150.737 107.239C150.406 107.289 150.108 107.438 150.075 107.537C150.042 107.636 149.893 116.772 149.761 127.826C149.612 138.881 149.479 149.225 149.446 150.813L149.413 153.709L155.702 154.322C163.579 155.1 170.067 155.745 170.216 155.778C170.282 155.778 170.365 154.14 170.381 152.121ZM114.991 153.461C115.934 153.196 116.977 152.055 117.291 150.962C117.44 150.416 117.573 148.877 117.622 146.941C117.771 142.009 118.367 124.235 118.433 122.862L118.483 121.621L119.393 120.71C121.164 118.923 122.306 115.911 122.703 112.039C123.117 107.951 122.057 103.963 119.989 101.828C118.897 100.686 117.076 99.6928 115.736 99.5108L115.322 99.4446L115.19 106.395C115.123 110.218 115.024 113.362 114.991 113.396C114.809 113.578 110.953 114.273 109.199 114.455C106.749 114.686 106.021 114.587 105.856 113.958C105.641 113.197 105.79 108.514 106.121 105.651C106.286 104.145 106.402 102.887 106.369 102.854C106.336 102.821 105.889 103.119 105.392 103.499C102.083 106.048 100.378 110.02 100.841 114.14C101.272 117.963 102.778 121.157 104.764 122.448L105.508 122.944L105.425 126.089C105.376 127.826 105.177 133.884 104.962 139.576C104.615 149.374 104.615 149.969 104.879 150.88C105.21 152.005 106.087 153.081 106.832 153.23C107.296 153.329 111.003 153.544 113.419 153.61C113.915 153.627 114.627 153.561 114.991 153.461ZM140.444 151.211C140.51 150.251 140.559 148.943 140.559 148.314V147.189H142.794H145.028V145.253C145.028 144.177 145.177 136.713 145.342 128.654C145.524 120.594 145.64 113.991 145.607 113.958C145.59 113.925 144.796 114.107 143.869 114.339C142.926 114.571 141.966 114.753 141.734 114.72L141.304 114.67L141.37 112.403C141.403 111.145 141.37 110.119 141.321 110.119C141.255 110.119 140.179 110.45 138.938 110.847C137.696 111.244 134.469 112.254 131.788 113.098C129.107 113.925 126.493 114.736 125.996 114.902L125.086 115.199L124.97 118.41C124.904 120.181 124.738 125.112 124.606 129.399C124.457 133.685 124.225 140.437 124.076 144.442C123.944 148.43 123.845 151.724 123.878 151.757C123.927 151.79 126.592 152.005 129.819 152.237C133.046 152.468 136.306 152.733 137.084 152.799C137.862 152.882 138.905 152.948 139.418 152.965L140.344 152.981L140.444 151.211ZM95.2642 150.797C95.3304 150.036 95.3801 149.109 95.3801 148.728V148.017H96.9523H98.5244V147.487C98.5244 147.189 98.7065 143.366 98.9382 138.997C99.5174 127.628 99.6001 125.344 99.4016 125.344C99.3188 125.344 98.8554 125.46 98.3755 125.609C97.8956 125.741 97.3164 125.841 97.0681 125.807L96.6213 125.758L96.6544 124.219C96.6875 122.696 96.6875 122.68 96.3234 122.796C96.1248 122.862 95.1815 123.16 94.2216 123.441C92.4343 123.987 87.8006 125.427 86.0298 125.99C85.4837 126.155 85.0203 126.403 85.0037 126.519C84.9706 126.751 84.5735 134.761 84.0439 146.097C83.8949 149.092 83.8122 151.558 83.8287 151.591C83.8618 151.624 86.278 151.74 89.1741 151.873C92.0868 152.005 94.6188 152.121 94.8174 152.137C95.1319 152.154 95.1815 152.038 95.2642 150.797ZM78.1689 150.846C78.1689 150.499 78.2186 149.754 78.2682 149.192L78.384 148.182H79.5094H80.6182L80.7175 147.156C80.7671 146.577 80.9657 142.87 81.1478 138.914C81.3298 134.959 81.5118 131.318 81.5284 130.838C81.5946 130.011 81.5615 129.961 81.2471 130.061C81.0485 130.11 80.5023 130.193 80.039 130.259L79.1619 130.359V129.101V127.86L78.1358 128.174C77.5566 128.356 76.0506 128.803 74.7763 129.167C73.502 129.531 72.3601 129.961 72.2608 130.11C72.145 130.259 72.0457 130.822 72.0457 131.385V132.411L71.1851 132.609C70.7052 132.709 70.2087 132.857 70.0929 132.94C69.9274 133.039 69.795 134.81 69.5633 140.007C69.3813 143.813 69.2323 147.222 69.2323 147.57V148.182H70.2418H71.2679L71.1851 149.671L71.1024 151.161L71.6982 151.177C72.0291 151.194 73.3034 151.26 74.5281 151.31C75.7527 151.376 77.0767 151.442 77.4738 151.459L78.1689 151.492V150.846ZM65.9225 150.218C65.9225 149.771 66.1045 145.402 66.3362 140.487C66.5514 135.572 66.7003 131.534 66.6672 131.484C66.6176 131.451 66.1045 131.567 65.5253 131.732L64.4496 132.047L64.4 133.106C64.3503 134.165 64.3503 134.165 63.7711 134.363C63.2912 134.529 63.1422 134.678 62.9105 135.373C62.7616 135.82 62.6292 136.316 62.6292 136.482C62.6126 136.713 62.4471 136.763 61.719 136.763H60.8253L60.6267 135.936C60.4447 135.141 60.4116 135.108 59.8655 135.108C59.3028 135.108 59.3028 135.108 59.3028 134.347C59.3028 133.602 59.2862 133.586 58.8725 133.685C58.6243 133.751 58.2105 133.85 57.9458 133.9C57.681 133.95 57.4327 134.082 57.3831 134.181C57.3169 134.38 56.8204 148.099 56.8204 149.804V150.83H57.7141H58.6077L58.707 149.887C58.7567 149.357 58.8725 146.693 58.9718 143.962C59.0711 141.231 59.187 138.683 59.2366 138.302L59.3193 137.591H60.0475H60.7757L60.9743 138.484C61.1563 139.328 61.1894 139.361 61.6031 139.262C61.9672 139.163 62.0831 138.981 62.3148 138.104C62.4637 137.524 62.6292 137.011 62.6788 136.978C62.7285 136.929 63.0926 136.846 63.5228 136.813C64.1517 136.73 64.2676 136.763 64.2676 137.011C64.2676 137.574 63.7876 148.43 63.7049 149.721L63.6221 150.995H64.764H65.9225V150.218Z" fill="black"/>
<path d="M161.527 147.586C157.804 147.388 154.726 147.189 154.692 147.14C154.643 147.09 154.659 142.986 154.726 138.021L154.841 128.985L155.354 128.902C155.636 128.869 157.142 128.704 158.681 128.571C160.236 128.422 162.967 128.158 164.754 127.976C166.558 127.81 168.478 127.661 169.024 127.661H170.017V137.839V148.017L169.156 148C168.677 147.984 165.234 147.802 161.527 147.586ZM166.84 139.51C166.806 136.747 166.74 134.413 166.674 134.347C166.575 134.264 161.56 134.711 161.478 134.827C161.461 134.843 161.411 136.912 161.362 139.428L161.246 144.012L161.958 144.128C162.338 144.194 163.133 144.227 163.728 144.227C164.324 144.227 165.069 144.277 165.383 144.359C165.698 144.442 166.178 144.508 166.426 144.525L166.889 144.541L166.84 139.51Z" fill="black"/>
<path d="M154.991 117.202L155.04 111.708L157.192 111.178C163.861 109.556 168.727 108.464 169.405 108.464H170.018L169.984 114.537L169.935 120.611L165.797 121.223C159.724 122.117 155.553 122.696 155.239 122.696C154.974 122.696 154.958 122.299 154.991 117.202ZM163.894 118.046C164.672 117.947 165.433 117.798 165.582 117.715C165.748 117.632 166.095 117.566 166.377 117.566C166.873 117.566 166.873 117.549 166.873 116.656V115.746H166.344C166.046 115.746 165.533 115.828 165.218 115.911C164.904 115.994 163.96 116.242 163.116 116.457C162.272 116.656 161.544 116.887 161.495 116.937C161.428 116.987 161.445 117.301 161.495 117.632C161.627 118.327 161.677 118.327 163.894 118.046Z" fill="black"/>
<path d="M133.526 146.659C130.614 146.577 128.214 146.494 128.197 146.477C128.164 146.428 129.008 118.476 129.058 118.426C129.091 118.393 130.068 118.129 131.243 117.814C132.401 117.516 134.701 116.92 136.34 116.474C137.978 116.043 139.683 115.663 140.129 115.613L140.94 115.547L140.825 119.072C140.775 121.025 140.642 126.486 140.543 131.219C140.444 135.952 140.312 141.397 140.245 143.3L140.146 146.775L139.484 146.792C139.12 146.808 136.439 146.742 133.526 146.659ZM137.051 143.085C137.184 142.985 137.25 142.539 137.25 141.711C137.25 141.033 137.283 138.666 137.349 136.432C137.482 130.971 137.548 124.599 137.448 123.673L137.382 122.928L136.522 123.093C136.058 123.176 135.645 123.275 135.595 123.308C135.529 123.375 135.231 130.971 134.999 139.014C134.883 142.87 134.9 143.019 135.198 143.101C135.727 143.234 136.82 143.217 137.051 143.085Z" fill="black"/>
<path d="M87.0231 145.584C87.0893 144.409 87.3044 140.122 87.503 136.018L87.8505 128.588L91.0776 127.694C92.8484 127.214 94.7019 126.767 95.1984 126.717L96.092 126.618L95.9762 130.242C95.91 132.228 95.6949 136.961 95.4963 140.735L95.1322 147.603L91.028 147.652L86.9072 147.685L87.0231 145.584Z" fill="black"/>
<path d="M71.7158 146.097C71.7324 143.995 72.295 132.659 72.3943 132.56C72.5433 132.394 77.657 131.137 78.1369 131.137H78.6665V132.51C78.6665 134.314 78.0211 147.57 77.9218 147.653C77.8887 147.702 76.4654 147.769 74.7774 147.818L71.7158 147.901V146.097Z" fill="black"/>
<path d="M176.505 159.816C176.24 158.922 176.422 157.78 176.819 157.78C177.101 157.78 177.134 157.929 177.134 159.104C177.134 160.097 177.084 160.428 176.919 160.428C176.786 160.428 176.604 160.147 176.505 159.816Z" fill="#323232"/>
<path d="M176.405 155.596C176.206 154.851 176.289 154.686 176.885 154.587C177.497 154.487 178.292 154.769 178.292 155.1C178.292 155.216 178.043 155.298 177.63 155.298C177.084 155.298 176.968 155.348 176.968 155.629C176.968 156.076 176.537 156.043 176.405 155.596Z" fill="#323232"/>
<path d="M178.788 155.15C178.788 154.753 179.748 154.571 180.343 154.852C181.105 155.199 180.856 155.464 179.781 155.464C178.92 155.464 178.788 155.415 178.788 155.15Z" fill="#323232"/>
<path d="M181.436 155.215C181.436 155.083 181.552 154.967 181.701 154.967C181.85 154.967 181.999 154.818 182.048 154.636C182.197 154.057 182.594 154.239 182.594 154.884C182.594 155.431 182.561 155.464 182.015 155.464C181.618 155.464 181.436 155.381 181.436 155.215Z" fill="#323232"/>
<path d="M165.335 144.938C165.285 144.872 164.541 144.806 163.697 144.789C162.853 144.756 161.843 144.673 161.446 144.624L160.718 144.508L160.834 139.427C160.9 136.647 160.966 134.347 160.983 134.33C161.016 134.28 167.089 133.618 167.122 133.652C167.139 133.685 167.222 134.065 167.288 134.512L167.404 135.323L164.789 135.207L162.191 135.108L162.273 139.411C162.323 141.777 162.406 143.763 162.455 143.829C162.538 143.912 165.186 144.111 167.172 144.193C167.271 144.21 167.371 144.392 167.371 144.624C167.371 145.021 167.321 145.037 166.411 145.037C165.881 145.037 165.401 144.988 165.335 144.938Z" fill="#323232"/>
<path d="M134.635 143.548C134.287 143.399 134.27 143.333 134.353 142.026C134.386 141.264 134.469 139.245 134.535 137.508C135.015 122.1 134.982 122.398 135.81 122.597C135.958 122.63 136.091 122.597 136.091 122.531C136.091 122.464 136.339 122.398 136.637 122.398C136.918 122.398 137.382 122.315 137.63 122.216C138.259 121.968 138.242 121.951 138.242 122.696C138.242 123.06 138.193 123.358 138.126 123.358C138.044 123.358 138.011 123.954 138.027 124.682C138.06 125.989 138.044 126.006 137.646 126.006C137.282 126.006 137.249 125.94 137.249 125.178C137.249 124.434 137.216 124.351 136.836 124.252C136.604 124.185 136.356 124.202 136.289 124.268C136.19 124.367 135.81 137.309 135.776 142.026C135.76 143.664 135.743 143.714 135.396 143.697C135.181 143.697 134.85 143.631 134.635 143.548Z" fill="#323232"/>
<path d="M135.926 143.299C135.926 142.902 135.976 142.886 136.836 142.886C137.614 142.886 137.746 142.935 137.746 143.2C137.746 143.581 137.432 143.713 136.571 143.713C135.992 143.713 135.926 143.664 135.926 143.299Z" fill="#323232"/>
<path d="M136.919 140.073V138.418H137.432H137.961L137.829 139.709C137.763 140.404 137.713 141.149 137.73 141.364C137.746 141.645 137.647 141.728 137.332 141.728C136.919 141.728 136.919 141.728 136.919 140.073Z" fill="#323232"/>
<path d="M137.083 132.13V130.475H137.597H138.126L137.994 131.765C137.928 132.461 137.878 133.205 137.894 133.42C137.911 133.702 137.812 133.784 137.497 133.784C137.083 133.784 137.083 133.784 137.083 132.13Z" fill="#323232"/>
<path d="M160.997 117.583V116.358L162.569 115.961C165.466 115.233 165.962 115.134 166.674 115.1L167.385 115.067L167.336 116.606C167.286 118.146 167.286 118.146 166.872 118.096C166.641 118.079 166.31 118.129 166.128 118.212C165.714 118.41 162.917 118.791 161.825 118.808H160.997V117.583ZM163.231 117.732C163.463 117.649 163.529 117.599 163.38 117.583C163.231 117.566 162.867 117.517 162.586 117.467C162.189 117.384 162.073 117.417 162.073 117.633C162.073 117.914 162.52 117.963 163.231 117.732Z" fill="#323232"/>
<path d="M107.708 112.171C107.659 111.906 107.543 111.559 107.444 111.41C107.245 111.013 107.245 108.464 107.46 108.464C107.559 108.464 107.626 108.348 107.626 108.216C107.626 108.084 107.741 107.968 107.874 107.968C108.072 107.968 108.122 108.266 108.122 109.672C108.122 110.599 108.188 111.443 108.254 111.542C108.337 111.675 108.95 111.592 110.323 111.294L112.259 110.88V109.424V107.968H112.772H113.302L113.17 109.176C113.103 109.821 113.037 110.649 113.021 110.98C113.004 111.493 112.921 111.625 112.557 111.758C112.309 111.84 111.962 111.873 111.779 111.824C111.581 111.774 111.432 111.807 111.432 111.906C111.432 112.006 111.283 112.039 111.101 111.989C110.919 111.94 110.77 111.989 110.77 112.089C110.77 112.171 110.654 112.221 110.505 112.155C110.356 112.105 110.191 112.138 110.125 112.237C110.058 112.337 109.512 112.469 108.916 112.535L107.808 112.651L107.708 112.171Z" fill="#323232"/>
<path d="M125.368 110.929C125.418 110.45 125.484 110.367 125.914 110.317C126.195 110.284 126.493 110.185 126.593 110.102C126.708 110.019 127.172 109.903 127.635 109.837C128.099 109.788 128.479 109.672 128.479 109.606C128.479 109.523 128.727 109.457 129.025 109.457C129.307 109.457 129.77 109.341 130.035 109.208C130.283 109.076 130.631 108.96 130.78 108.96C130.929 108.96 131.127 108.894 131.21 108.811C131.309 108.745 131.938 108.546 132.617 108.381C135.215 107.785 135.926 107.587 135.926 107.471C135.926 107.404 136.125 107.305 136.39 107.256C136.638 107.206 137.168 107.074 137.565 106.958C138.21 106.776 138.309 106.792 138.508 107.057C138.69 107.289 138.69 107.388 138.492 107.587C138.359 107.719 138.078 107.835 137.879 107.835C137.664 107.851 137.432 107.918 137.333 107.967C137.035 108.182 134.702 108.828 134.271 108.828C134.04 108.828 133.808 108.91 133.742 109.01C133.692 109.093 133.411 109.175 133.13 109.159C132.848 109.159 132.617 109.208 132.617 109.275C132.617 109.423 130.002 110.185 129.555 110.152C129.389 110.152 129.191 110.218 129.125 110.317C129.058 110.416 128.777 110.499 128.496 110.483C128.214 110.483 127.983 110.532 127.983 110.598C127.983 110.681 127.486 110.863 126.874 111.029C126.245 111.194 125.649 111.36 125.533 111.409C125.368 111.459 125.318 111.343 125.368 110.929Z" fill="#323232"/>
<path d="M125.219 108.033C125.119 107.802 125.07 107.355 125.119 107.057C125.186 106.66 125.152 106.478 125.004 106.478C124.888 106.478 124.838 106.362 124.904 106.229C125.02 105.915 124.673 104.326 124.49 104.326C124.408 104.326 124.391 104.21 124.441 104.078C124.507 103.946 124.474 103.83 124.391 103.83C124.308 103.83 124.226 103.664 124.226 103.466C124.209 103.251 124.11 103.069 124.011 103.035C123.928 103.002 123.878 102.903 123.944 102.82C123.994 102.738 123.944 102.671 123.845 102.671C123.746 102.671 123.713 102.605 123.762 102.506C123.812 102.423 123.779 102.34 123.68 102.34C123.58 102.34 123.547 102.274 123.597 102.175C123.646 102.092 123.646 102.009 123.564 102.009C123.498 102.009 123.332 101.794 123.233 101.546C122.935 100.901 121.379 99.3119 120.436 98.683C119.989 98.4017 119.757 98.2031 119.906 98.2527C120.055 98.3024 120.982 98.5837 121.975 98.8651C125.186 99.8084 130.183 101.48 131.458 102.043C133.262 102.837 135.363 104.045 136.505 104.955C137.449 105.7 137.482 105.733 137.051 105.783C136.82 105.816 135.148 105.419 133.328 104.922C131.524 104.426 129.339 103.83 128.479 103.598C127.618 103.366 126.427 103.035 125.831 102.87L124.755 102.556L124.904 103.681C125.004 104.376 125.136 104.823 125.268 104.823C125.467 104.823 125.831 106.809 125.831 107.884C125.831 108.579 125.5 108.646 125.219 108.033Z" fill="#323232"/>
<path d="M107.576 106.693C107.526 106.246 107.559 105.882 107.642 105.849C107.725 105.816 107.791 105.683 107.791 105.551C107.791 105.419 107.907 105.319 108.039 105.319C108.238 105.319 108.287 105.551 108.287 106.395C108.287 107.338 108.254 107.471 107.973 107.471C107.725 107.471 107.642 107.305 107.576 106.693Z" fill="#323232"/>
<path d="M107.759 104.575C107.726 104.26 107.759 103.995 107.825 103.995C107.891 103.995 107.957 103.88 107.957 103.747C107.957 103.615 108.073 103.499 108.206 103.499C108.388 103.499 108.454 103.698 108.454 104.326C108.454 105.022 108.404 105.154 108.139 105.154C107.908 105.154 107.808 105.005 107.759 104.575Z" fill="#323232"/>
<path d="M112.426 103.168C112.426 102.059 112.36 101.348 112.261 101.348C112.178 101.348 112.095 101.166 112.095 100.951C112.095 100.587 112.128 100.57 112.757 100.736L113.419 100.918L113.303 102.01C113.221 102.606 113.171 103.516 113.187 104.045C113.187 104.922 113.171 104.989 112.807 104.989C112.426 104.989 112.426 104.956 112.426 103.168Z" fill="#323232"/>
<path d="M176.553 103.632C176.388 103.201 176.553 97.1609 176.719 97.0947C177 97.0119 177.596 97.5415 177.348 97.6408C177.182 97.707 177.132 98.3855 177.132 100.206C177.132 101.563 177.149 102.672 177.182 102.672C177.199 102.672 177.778 102.523 178.456 102.341C179.135 102.159 179.946 102.01 180.244 102.01C180.525 102.01 180.773 101.944 180.773 101.844C180.773 101.662 181.584 101.613 181.998 101.778C182.345 101.91 182.362 102.937 182.014 103.069C181.849 103.135 181.766 103.052 181.766 102.821C181.766 102.539 181.7 102.506 181.402 102.606C180.393 102.92 178.787 103.284 178.721 103.201C178.671 103.168 178.539 103.201 178.423 103.284C178.307 103.383 177.993 103.499 177.712 103.565C177.447 103.632 177.083 103.714 176.917 103.764C176.768 103.814 176.603 103.747 176.553 103.632Z" fill="#323232"/>
<path d="M107.909 102.887C107.859 102.622 107.892 102.374 107.991 102.324C108.091 102.258 108.14 101.944 108.091 101.613C108.057 101.282 108.091 101.017 108.173 101.017C108.256 101.017 108.289 100.719 108.256 100.355C108.223 99.991 108.256 99.6931 108.322 99.6931C108.372 99.6931 108.455 99.5773 108.488 99.4449C108.521 99.296 108.62 99.2463 108.753 99.3456C108.935 99.4614 108.935 99.809 108.769 101.414C108.587 103.02 108.504 103.334 108.273 103.334C108.107 103.334 107.958 103.168 107.909 102.887Z" fill="#323232"/>
<path d="M176.637 161.388C176.637 160.71 176.587 158.906 176.521 157.367L176.421 154.586L176.819 154.686C177.034 154.735 178.308 154.835 179.665 154.901C181.866 155 182.098 154.984 182.098 154.735C182.098 154.537 182.263 154.47 182.842 154.47C183.289 154.47 183.587 154.388 183.587 154.288C183.587 154.156 184.017 154.123 185.077 154.206C186.185 154.305 186.566 154.272 186.566 154.123C186.566 153.974 186.947 153.957 188.072 154.057C189.148 154.139 189.628 154.106 189.81 153.957C189.959 153.825 190.372 153.792 191.001 153.858C192.11 153.957 199.143 153.61 199.425 153.428C199.706 153.246 203.612 153.494 203.612 153.676C203.612 153.759 203.016 154.106 202.288 154.437L200.964 155.033V156.787V158.525L189.131 160.478C182.627 161.57 177.15 162.48 176.968 162.53C176.653 162.613 176.637 162.53 176.637 161.388Z" fill="#3A3A3B"/>
<path d="M166.178 144.84C166.078 144.575 163.728 144.426 163.728 144.691C163.728 144.79 163.613 144.873 163.48 144.873C163.348 144.873 163.232 144.806 163.232 144.724C163.232 144.624 162.918 144.509 162.537 144.459L161.825 144.343L161.759 139.461L161.709 134.562L163.828 134.662C165.003 134.728 166.277 134.778 166.674 134.778H167.369V139.908C167.369 144.227 167.336 145.038 167.138 145.038C167.005 145.038 166.856 144.939 166.823 144.84C166.757 144.674 166.724 144.674 166.724 144.84C166.707 145.104 166.261 145.104 166.178 144.84Z" fill="#3A3A3B"/>
<path d="M135.264 142.109C135.264 141.215 135.347 137.888 135.43 134.694C135.512 131.517 135.595 127.81 135.612 126.453C135.628 123.54 135.661 123.375 136.141 123.474C137.829 123.855 137.747 123.789 137.747 124.682C137.747 125.146 137.829 125.51 137.912 125.51C138.011 125.51 138.078 126.536 138.078 128.24C138.078 130.557 138.044 130.971 137.829 130.971C137.631 130.971 137.581 131.203 137.581 132.129C137.581 132.791 137.647 133.288 137.747 133.288C137.846 133.288 137.912 134.33 137.912 136.101C137.912 138.484 137.879 138.915 137.664 138.915C137.465 138.915 137.416 139.146 137.416 140.073C137.416 140.735 137.482 141.231 137.581 141.231C137.68 141.231 137.747 141.695 137.747 142.307V143.383H137.085C136.72 143.383 136.423 143.466 136.423 143.548C136.423 143.648 136.158 143.714 135.843 143.714H135.264V142.109Z" fill="#3A3A3B"/>
<path d="M161.692 118.774C161.626 118.724 161.576 118.228 161.576 117.698C161.576 116.953 161.626 116.738 161.825 116.738C162.073 116.738 165.532 117.45 166.376 117.682C166.756 117.781 166.74 117.797 166.127 117.93C165.763 118.013 165.25 118.095 165.002 118.112C164.754 118.128 164.489 118.244 164.406 118.377C164.29 118.542 164.191 118.559 163.926 118.41C163.463 118.162 163.397 118.178 163.397 118.492C163.397 118.757 163.215 118.757 162.536 118.476C162.321 118.393 162.238 118.443 162.238 118.625C162.238 118.89 161.891 118.989 161.692 118.774Z" fill="#3A3A3B"/>
<path d="M107.693 111.823C107.461 110.284 107.974 101.91 108.421 99.7425L108.537 99.2129L109.447 99.5439C109.943 99.7094 110.953 100.09 111.681 100.371L113.005 100.884L112.955 102.688C112.922 103.88 112.955 104.492 113.071 104.492C113.187 104.492 113.253 105.187 113.253 106.478C113.253 108.133 113.22 108.464 113.005 108.464C112.806 108.464 112.757 108.745 112.757 109.937C112.757 111.128 112.707 111.426 112.492 111.509C112.343 111.559 112.161 111.575 112.078 111.509C111.995 111.459 111.929 111.492 111.929 111.575C111.929 111.674 111.78 111.708 111.598 111.658C111.4 111.608 111.267 111.658 111.267 111.757C111.267 111.873 111.201 111.923 111.118 111.856C111.019 111.807 110.638 111.856 110.241 111.956C109.844 112.055 109.397 112.121 109.232 112.121C109.066 112.121 108.884 112.237 108.834 112.37C108.785 112.502 108.537 112.601 108.288 112.601C107.842 112.601 107.808 112.535 107.693 111.823Z" fill="#3A3A3B"/>
<path d="M193.682 109.209C190.538 107.62 186.582 105.634 184.878 104.79C182.031 103.383 181.783 103.218 181.766 102.821C181.766 102.572 181.651 102.341 181.518 102.274C181.369 102.225 181.27 102.274 181.27 102.39C181.27 102.539 181.055 102.589 180.608 102.572C180.244 102.556 179.946 102.622 179.946 102.705C179.946 102.804 179.847 102.837 179.714 102.787C179.499 102.705 178.572 102.87 177.96 103.118C177.728 103.218 177.596 103.251 177.215 103.334C176.653 103.466 176.636 103.35 176.636 100.255C176.636 97.3262 176.653 97.1938 176.951 97.2434C177.133 97.2765 182.379 99.8251 188.618 102.92L199.971 108.53V110.152C199.971 111.128 200.037 111.774 200.136 111.774C200.235 111.774 200.302 111.856 200.302 111.939C200.302 112.436 198.911 111.856 193.682 109.209Z" fill="#3A3A3B"/>
<path d="M125.45 110.996C125.383 110.947 125.334 110.136 125.334 109.226C125.317 106.809 124.655 103.764 123.844 102.407C123.315 101.497 123.05 101.48 126.823 102.507C137.183 105.336 136.935 105.27 137.564 105.883C138.159 106.462 138.954 107.62 138.606 107.405C138.507 107.355 138.11 107.405 137.713 107.554C137.315 107.686 136.869 107.802 136.72 107.802C136.554 107.802 136.422 107.868 136.422 107.951C136.422 108.084 135.876 108.233 133.112 108.895C132.433 109.043 131.722 109.275 131.523 109.408C131.341 109.523 131.142 109.59 131.093 109.54C131.043 109.49 130.795 109.557 130.53 109.705C130.265 109.838 129.802 109.954 129.521 109.954C129.223 109.954 128.975 110.02 128.975 110.103C128.975 110.169 128.594 110.285 128.114 110.334C127.651 110.401 127.187 110.516 127.088 110.616C127.005 110.698 126.707 110.781 126.459 110.781C126.211 110.781 125.996 110.864 125.996 110.947C125.996 111.129 125.615 111.178 125.45 110.996Z" fill="#3A3A3B"/>
<path d="M182.065 150.813C182.032 148.529 182.049 146.643 182.098 146.61C182.148 146.593 186.169 146.676 191.035 146.792C195.9 146.907 200.733 147.007 201.759 147.007L203.612 147.023L203.579 150.465L203.529 153.891L201.709 153.924C200.716 153.957 198.101 154.09 195.917 154.222C193.732 154.371 191.597 154.454 191.167 154.404C190.704 154.355 190.34 154.388 190.273 154.504C190.207 154.619 189.628 154.652 188.619 154.603C187.642 154.553 187.063 154.57 187.063 154.686C187.063 154.785 186.517 154.818 185.574 154.768C184.763 154.719 184.084 154.735 184.084 154.818C184.084 154.901 183.637 154.967 183.091 154.967H182.115L182.065 150.813Z" fill="#6A6A6A"/>
<path d="M200.715 121.273C198.762 120.363 197.819 119.933 194.013 118.228C192.97 117.765 191.481 117.086 190.703 116.739C189.925 116.391 188.436 115.713 187.393 115.249C186.351 114.786 184.828 114.091 184.017 113.727C183.041 113.28 182.511 113.114 182.462 113.23C182.428 113.346 182.263 113.429 182.097 113.429C181.816 113.429 181.8 113.148 181.783 108.05C181.75 103.499 181.783 102.672 181.998 102.672C182.213 102.672 186.218 104.674 198.812 111.079L203.363 113.396L203.413 117.798L203.446 122.2L203.082 122.183C202.867 122.183 201.808 121.77 200.715 121.273Z" fill="#6A6A6A"/>
<path d="M200.799 147.189C196.264 146.941 182.594 146.808 182.594 147.007C182.594 147.272 182.148 147.239 182.048 146.957C181.999 146.842 181.932 139.593 181.916 130.872C181.899 122.134 181.866 114.355 181.85 113.545C181.817 111.84 181.535 111.873 184.498 113.214C186.583 114.157 188.056 114.819 191.2 116.242C192.243 116.705 193.732 117.384 194.51 117.731C195.288 118.079 196.744 118.741 197.737 119.188C198.746 119.635 200.418 120.396 201.477 120.876L203.397 121.736L203.496 128.803C203.562 132.675 203.612 138.435 203.612 141.612C203.612 146.974 203.595 147.355 203.331 147.321C203.165 147.321 202.023 147.255 200.799 147.189Z" fill="#979797"/>
<path d="M106.881 148.695C106.832 148.595 106.881 145.948 106.981 142.77C107.08 139.609 107.196 135.786 107.229 134.28C107.262 132.774 107.345 131.186 107.411 130.722L107.543 129.895L110.638 129.746C112.343 129.663 113.849 129.647 113.997 129.713C114.213 129.795 114.246 130.044 114.213 131.086L114.163 132.377L112.21 132.427C110.853 132.46 110.241 132.526 110.191 132.675C110.158 132.791 110.009 136.415 109.844 140.734C109.662 146.03 109.513 148.628 109.38 148.711C109.115 148.893 106.997 148.877 106.881 148.695Z" fill="#BDBCBC"/>
<path d="M193.186 147.338C190.77 147.289 187.295 147.206 185.458 147.189L182.098 147.156V146.693V146.246L184.299 146.296C185.491 146.345 190.274 146.445 194.891 146.527C199.525 146.627 203.381 146.743 203.463 146.792C203.546 146.842 203.612 147.024 203.612 147.206C203.612 147.504 203.48 147.52 200.6 147.487C198.929 147.471 195.603 147.405 193.186 147.338Z" fill="#BDBCBC"/>
<path d="M108.455 125.742C108.223 125.708 107.594 125.593 107.048 125.493C106.502 125.411 105.807 125.245 105.509 125.162C105.013 124.997 104.979 124.947 104.979 124.169C104.979 123.723 104.913 123.358 104.814 123.358C104.731 123.358 104.648 123.276 104.648 123.176C104.648 122.961 106.105 123.044 107.958 123.358C109.1 123.54 111.351 123.623 111.765 123.491C112.178 123.342 114.843 122.862 115.207 122.862C115.389 122.862 116.034 122.597 116.63 122.283C117.242 121.968 117.871 121.704 118.037 121.704C118.219 121.704 118.467 121.588 118.616 121.455C118.748 121.323 119.112 121.207 119.41 121.207L119.956 121.224L119.493 121.637C119.129 121.952 118.997 122.233 118.93 122.912C118.831 123.822 118.434 124.351 117.871 124.351C117.54 124.351 116.696 124.699 116.564 124.881C116.514 124.947 115.836 125.162 115.074 125.344C113.717 125.692 109.547 125.94 108.455 125.742Z" fill="#BDBCBC"/>
<path d="M192.441 117.483C184.447 113.875 181.998 112.7 181.899 112.435C181.733 111.989 181.866 112.022 184.497 113.213C186.582 114.157 188.055 114.818 191.199 116.242C192.242 116.705 193.732 117.384 194.509 117.731C195.287 118.079 196.743 118.741 197.736 119.187C202.751 121.438 203.446 121.786 203.446 121.984C203.446 122.1 203.314 122.199 203.165 122.183C202.999 122.183 198.183 120.065 192.441 117.483Z" fill="#BDBCBC"/>
<path d="M165.549 155.844C163.315 155.613 158.664 155.166 155.206 154.818L148.917 154.206L148.95 150.813C149.066 139.345 149.529 107.19 149.579 107.041C149.612 106.941 149.91 106.792 150.241 106.743C150.572 106.677 151.863 106.346 153.104 105.998C154.345 105.651 156.794 104.972 158.516 104.492C160.253 104.012 162.967 103.267 164.556 102.821C166.145 102.39 168.23 101.811 169.19 101.546L170.927 101.066L170.977 104.128L171.01 107.173L171.391 107.09C172.284 106.875 176.339 106.13 176.389 106.18C176.422 106.213 176.389 109.473 176.339 113.445L176.256 120.661L173.559 120.975L170.845 121.273V123.904V126.552L172.053 126.453C172.698 126.387 173.923 126.287 174.75 126.238L176.256 126.122L176.356 132.725C176.422 136.366 176.471 141.562 176.471 144.31V149.291L175.611 149.225C172.764 149.009 170.977 148.927 170.911 148.993C170.878 149.026 170.845 150.698 170.845 152.683V156.291L170.232 156.275C169.885 156.258 167.783 156.059 165.549 155.844ZM169.521 137.839V128.157H169.024C168.743 128.157 167.055 128.306 165.251 128.472C163.464 128.654 160.733 128.919 159.178 129.068C157.638 129.2 156.132 129.366 155.851 129.399L155.338 129.481L155.222 138.021C155.156 142.721 155.139 146.61 155.189 146.643C155.222 146.693 158.3 146.891 162.024 147.09C165.731 147.305 168.942 147.487 169.157 147.504L169.521 147.52V137.839ZM165.301 120.727L169.438 120.115L169.488 114.521L169.521 108.927L168.991 109.043C168.693 109.109 167.187 109.457 165.632 109.804C164.093 110.168 161.71 110.731 160.336 111.046C158.979 111.36 157.341 111.757 156.695 111.906L155.537 112.204L155.487 117.169L155.454 122.134L158.3 121.736C159.873 121.521 163.033 121.058 165.301 120.727Z" fill="#FEFEFE"/>
<path d="M109.43 153.974C106.17 153.809 105.955 153.759 105.243 152.981C104.465 152.121 104.151 150.979 104.151 149.026C104.151 147.354 104.714 131.186 104.929 126.916C104.995 125.559 105.028 124.368 105.011 124.301C104.995 124.235 105.193 124.285 105.475 124.434C105.74 124.583 105.971 124.649 105.971 124.583C105.971 124.517 106.071 124.55 106.186 124.632C106.286 124.732 106.501 124.814 106.633 124.814C106.766 124.831 107.113 124.881 107.378 124.947C109.033 125.294 112.26 125.443 112.26 125.179C112.26 125.046 112.442 125.013 112.839 125.079C113.236 125.162 113.418 125.129 113.418 124.996C113.418 124.881 113.567 124.848 113.832 124.914C114.097 124.98 114.246 124.947 114.246 124.831C114.246 124.732 114.395 124.682 114.577 124.732C114.759 124.781 114.908 124.748 114.908 124.682C114.908 124.599 115.14 124.55 115.421 124.55C115.702 124.566 115.984 124.5 116.033 124.401C116.166 124.235 116.894 123.937 117.605 123.788C117.854 123.722 118.019 123.606 117.969 123.524C117.837 123.308 118.549 123.126 118.764 123.342C118.88 123.457 118.83 126.651 118.565 134.148C118.367 140.007 118.168 146.097 118.118 147.685C118.003 151.21 117.804 152.054 116.844 153.047C115.752 154.189 115.322 154.239 109.43 153.974ZM108.917 148.198C109.066 148.116 109.132 147.702 109.116 146.924C109.099 146.295 109.132 144.674 109.198 143.3C109.364 139.907 109.48 136.217 109.513 134.032C109.513 133.039 109.612 132.129 109.695 132.03C109.811 131.914 110.589 131.848 111.764 131.864L113.667 131.881L113.7 131.087C113.716 130.557 113.65 130.259 113.501 130.21C113.385 130.16 112.111 130.176 110.671 130.259L108.04 130.392L107.924 131.219C107.858 131.682 107.775 133.47 107.726 135.191C107.676 136.928 107.56 140.536 107.477 143.217C107.395 145.898 107.361 148.149 107.395 148.215C107.51 148.397 108.636 148.381 108.917 148.198Z" fill="#FEFEFE"/>
<path d="M137.581 153.378C136.174 153.262 132.417 152.964 129.24 152.733C126.046 152.501 123.415 152.286 123.382 152.236C123.332 152.203 123.431 148.612 123.58 144.26C123.729 139.907 123.961 132.956 124.11 128.819C124.242 124.682 124.408 119.8 124.474 117.996L124.59 114.703L125.5 114.405C125.996 114.239 128.611 113.428 131.292 112.601C133.973 111.773 137.068 110.797 138.16 110.45C139.252 110.102 140.543 109.688 141.023 109.556L141.9 109.308L141.884 111.658C141.867 112.948 141.867 114.057 141.884 114.123C141.884 114.19 142.827 113.974 143.985 113.677C145.144 113.362 146.12 113.147 146.137 113.164C146.186 113.197 145.574 143.763 145.491 146.527L145.442 147.768L143.257 147.702L141.056 147.652V148.777C141.056 149.406 141.006 150.763 140.94 151.789C140.841 153.544 140.824 153.643 140.493 153.626C140.295 153.61 138.987 153.494 137.581 153.378ZM139.749 142.869C139.815 141.016 139.947 135.472 140.047 130.557C140.146 125.642 140.278 120.362 140.328 118.823L140.427 116.027L140.047 116.142C139.484 116.291 134.271 117.665 131.739 118.31C130.564 118.625 129.588 118.89 129.554 118.923C129.521 118.972 128.677 145.914 128.71 145.981C128.744 146.014 139.269 146.312 139.484 146.279C139.583 146.262 139.699 144.922 139.749 142.869Z" fill="#FEFEFE"/>
<path d="M88.6784 152.369C85.7823 152.237 83.3661 152.104 83.3164 152.071C83.2833 152.022 83.3826 149.258 83.5316 145.915C83.9122 137.491 84.4583 126.486 84.508 126.106C84.5245 125.89 84.8224 125.708 85.534 125.493C86.7752 125.096 90.3168 123.987 93.8914 122.895C95.3974 122.432 96.7709 122.001 96.9364 121.935C97.2343 121.819 97.2509 121.902 97.1516 123.474C97.1019 124.384 97.0854 125.179 97.135 125.212C97.1681 125.262 97.8466 125.113 98.6245 124.897C99.4023 124.666 100.064 124.517 100.097 124.55C100.164 124.6 99.5347 138.12 99.1871 144.293C99.1044 145.932 99.0216 147.553 99.0216 147.901V148.513H97.4495H95.8773V149.225C95.8773 149.605 95.8276 150.532 95.7614 151.293L95.6622 152.65L94.8181 152.634C94.3548 152.617 91.591 152.502 88.6784 152.369ZM94.9836 140.239C95.1822 136.465 95.3974 131.964 95.4636 130.259L95.596 127.148L95.116 127.264C94.8512 127.33 93.2294 127.76 91.4917 128.224L88.3474 129.084L87.9999 136.598C87.8013 140.735 87.6027 144.823 87.5365 145.667L87.4537 147.189L91.0449 147.156L94.6361 147.107L94.9836 140.239Z" fill="#FEFEFE"/>
<path d="M74.0316 151.807C72.8069 151.757 71.5161 151.691 71.152 151.674L70.5066 151.658L70.6225 150.168L70.7548 148.679H69.7453H68.7358V147.57C68.7358 146.941 68.8848 143.317 69.0668 139.511C69.2985 134.314 69.4309 132.544 69.5964 132.444C69.7122 132.361 70.2087 132.213 70.6886 132.113L71.5492 131.915V130.889C71.5492 130.326 71.6485 129.763 71.7643 129.614C71.8636 129.465 72.4098 129.217 72.9559 129.068C73.502 128.903 75.1569 128.423 76.6464 127.976C78.1358 127.529 79.4266 127.165 79.5425 127.165C79.6914 127.165 79.7245 127.529 79.6914 128.489C79.6583 129.217 79.6418 129.813 79.6749 129.813C79.708 129.813 80.2706 129.664 80.8995 129.482C81.5284 129.3 82.0911 129.151 82.1076 129.151C82.1407 129.151 82.1242 129.912 82.0745 130.856C82.0083 131.782 81.8263 135.704 81.6442 139.577C81.4622 143.449 81.2636 147.074 81.2139 147.653L81.1147 148.679H80.0059H78.8805L78.7647 149.689C78.715 150.251 78.6654 150.996 78.6654 151.343V151.989L77.4738 151.956C76.8119 151.939 75.2562 151.873 74.0316 151.807ZM77.4407 147.156C77.54 147.041 78.2351 131.815 78.1523 131.716C78.0696 131.65 73.0221 132.924 72.8897 133.057C72.8069 133.139 72.2277 144.327 72.2112 146.097V147.405L74.7929 147.305C76.2161 147.256 77.4076 147.19 77.4407 147.156Z" fill="#FEFEFE"/>
<path d="M64.5311 151.542L63.0748 151.475L63.1741 149.705C63.2238 148.728 63.3562 146.113 63.4389 143.879C63.5216 141.645 63.6375 139.245 63.7037 138.55C63.7864 137.342 63.7699 137.293 63.4554 137.375C63.2238 137.442 63.0583 137.69 62.9424 138.153C62.5452 139.659 62.5618 139.643 61.6516 139.841C61.1717 139.957 60.7579 139.99 60.7248 139.924C60.6917 139.874 60.5759 139.427 60.46 138.964C60.2118 137.888 59.8477 137.806 59.7319 138.799C59.6822 139.179 59.5664 141.728 59.4671 144.458C59.3678 147.189 59.2519 149.853 59.2023 150.383L59.103 151.343L57.6798 151.293L56.24 151.244L56.2896 150.002C56.7199 136.929 56.8523 133.685 56.9516 133.602C57.0178 133.553 57.597 133.37 58.2259 133.205C58.8713 133.039 59.4836 132.874 59.5995 132.824C59.7484 132.775 59.7981 133.006 59.7981 133.701V134.628L60.3276 134.579C60.8407 134.529 60.8738 134.562 61.1055 135.406C61.3041 136.134 61.4033 136.267 61.7178 136.267C61.9826 136.267 62.115 136.167 62.1315 135.985C62.1315 135.82 62.2639 135.323 62.4128 134.876C62.6445 134.181 62.7935 134.032 63.2734 133.867C63.8526 133.668 63.8526 133.668 63.9023 132.609L63.9519 131.55L65.5407 131.087C66.4012 130.822 67.1459 130.656 67.1956 130.706C67.2783 130.789 66.4343 151.128 66.335 151.459C66.2854 151.558 66.2026 151.641 66.1364 151.624C66.0702 151.608 65.3421 151.558 64.5311 151.542Z" fill="#FEFEFE"/>
<path d="M108.553 124.07C108.504 124.02 108.156 123.954 107.759 123.938C107.362 123.904 106.832 123.838 106.551 123.789C106.286 123.722 105.839 123.673 105.558 123.64C105.293 123.623 105.028 123.573 104.979 123.524C104.929 123.474 104.581 123.209 104.201 122.928C102.132 121.439 100.742 118.377 100.328 114.389C99.9973 111.294 100.659 108.183 102.116 105.982C102.976 104.674 104.912 102.837 106.137 102.192L107.18 101.629L107.064 102.44C106.418 107.074 106.054 112.436 106.336 113.462C106.518 114.058 107.064 114.157 109.066 113.925C110.589 113.76 114.346 113.048 114.494 112.899C114.528 112.866 114.627 109.722 114.693 105.899L114.825 98.9482L115.57 98.9648C117.771 98.9813 120.303 100.62 121.677 102.904C123.911 106.611 123.828 114.438 121.511 118.923C120.75 120.396 119.128 122.2 118.549 122.2C118.384 122.2 117.722 122.465 117.076 122.812C116.431 123.143 115.703 123.408 115.421 123.391C115.14 123.391 114.908 123.441 114.908 123.524C114.908 123.59 114.759 123.623 114.577 123.573C114.395 123.524 114.246 123.573 114.246 123.673C114.246 123.789 114.097 123.822 113.832 123.756C113.568 123.689 113.419 123.722 113.419 123.855C113.419 123.987 113.253 124.004 112.922 123.938C112.641 123.871 112.327 123.904 112.211 123.987C112.012 124.153 108.719 124.219 108.553 124.07Z" fill="#FEFEFE"/>
<defs>
<filter id="filter0_f_751_16569" x="-20" y="25" width="298" height="184" filterUnits="userSpaceOnUse" color-interpolation-filters="sRGB">
<feFlood flood-opacity="0" result="BackgroundImageFix"/>
<feBlend mode="normal" in="SourceGraphic" in2="BackgroundImageFix" result="shape"/>
<feGaussianBlur stdDeviation="18.5" result="effect1_foregroundBlur_751_16569"/>
</filter>
<filter id="filter1_ii_751_16569" x="17" y="62" width="224" height="148" filterUnits="userSpaceOnUse" color-interpolation-filters="sRGB">
<feFlood flood-opacity="0" result="BackgroundImageFix"/>
<feBlend mode="normal" in="SourceGraphic" in2="BackgroundImageFix" result="shape"/>
<feColorMatrix in="SourceAlpha" type="matrix" values="0 0 0 0 0 0 0 0 0 0 0 0 0 0 0 0 0 0 127 0" result="hardAlpha"/>
<feOffset dy="4"/>
<feComposite in2="hardAlpha" operator="arithmetic" k2="-1" k3="1"/>
<feColorMatrix type="matrix" values="0 0 0 0 1 0 0 0 0 1 0 0 0 0 1 0 0 0 0.25 0"/>
<feBlend mode="normal" in2="shape" result="effect1_innerShadow_751_16569"/>
<feColorMatrix in="SourceAlpha" type="matrix" values="0 0 0 0 0 0 0 0 0 0 0 0 0 0 0 0 0 0 127 0" result="hardAlpha"/>
<feOffset dy="-4"/>
<feComposite in2="hardAlpha" operator="arithmetic" k2="-1" k3="1"/>
<feColorMatrix type="matrix" values="0 0 0 0 0 0 0 0 0 0 0 0 0 0 0 0 0 0 0.9 0"/>
<feBlend mode="soft-light" in2="effect1_innerShadow_751_16569" result="effect2_innerShadow_751_16569"/>
</filter>
<filter id="filter2_iiii_751_16569" x="96.2837" y="178.693" width="144.716" height="31.3057" filterUnits="userSpaceOnUse" color-interpolation-filters="sRGB">
<feFlood flood-opacity="0" result="BackgroundImageFix"/>
<feBlend mode="normal" in="SourceGraphic" in2="BackgroundImageFix" result="shape"/>
<feColorMatrix in="SourceAlpha" type="matrix" values="0 0 0 0 0 0 0 0 0 0 0 0 0 0 0 0 0 0 127 0" result="hardAlpha"/>
<feOffset dy="-4"/>
<feComposite in2="hardAlpha" operator="arithmetic" k2="-1" k3="1"/>
<feColorMatrix type="matrix" values="0 0 0 0 0 0 0 0 0 0 0 0 0 0 0 0 0 0 0.9 0"/>
<feBlend mode="soft-light" in2="shape" result="effect1_innerShadow_751_16569"/>
<feColorMatrix in="SourceAlpha" type="matrix" values="0 0 0 0 0 0 0 0 0 0 0 0 0 0 0 0 0 0 127 0" result="hardAlpha"/>
<feOffset dy="-4"/>
<feComposite in2="hardAlpha" operator="arithmetic" k2="-1" k3="1"/>
<feColorMatrix type="matrix" values="0 0 0 0 0 0 0 0 0 0 0 0 0 0 0 0 0 0 0.9 0"/>
<feBlend mode="soft-light" in2="effect1_innerShadow_751_16569" result="effect2_innerShadow_751_16569"/>
<feColorMatrix in="SourceAlpha" type="matrix" values="0 0 0 0 0 0 0 0 0 0 0 0 0 0 0 0 0 0 127 0" result="hardAlpha"/>
<feOffset dy="-4"/>
<feComposite in2="hardAlpha" operator="arithmetic" k2="-1" k3="1"/>
<feColorMatrix type="matrix" values="0 0 0 0 0 0 0 0 0 0 0 0 0 0 0 0 0 0 0.9 0"/>
<feBlend mode="soft-light" in2="effect2_innerShadow_751_16569" result="effect3_innerShadow_751_16569"/>
<feColorMatrix in="SourceAlpha" type="matrix" values="0 0 0 0 0 0 0 0 0 0 0 0 0 0 0 0 0 0 127 0" result="hardAlpha"/>
<feOffset dy="-4"/>
<feComposite in2="hardAlpha" operator="arithmetic" k2="-1" k3="1"/>
<feColorMatrix type="matrix" values="0 0 0 0 0 0 0 0 0 0 0 0 0 0 0 0 0 0 0.9 0"/>
<feBlend mode="soft-light" in2="effect3_innerShadow_751_16569" result="effect4_innerShadow_751_16569"/>
</filter>
<linearGradient id="paint0_linear_751_16569" x1="17" y1="34" x2="197.768" y2="215.142" gradientUnits="userSpaceOnUse">
<stop stop-color="#05815D"/>
<stop offset="1" stop-color="#0C575F"/>
</linearGradient>
<linearGradient id="paint1_linear_751_16569" x1="17" y1="62" x2="241" y2="210" gradientUnits="userSpaceOnUse">
<stop stop-color="#AE050A"/>
<stop offset="1" stop-color="#8F0207"/>
</linearGradient>
</defs>
</svg>
