<svg width="256" height="256" viewBox="0 0 256 256" fill="none" xmlns="http://www.w3.org/2000/svg">
<g clip-path="url(#clip0_4261_9505)">
<path d="M104.425 42.3784C100.056 37.0733 93.5437 34 86.6712 34H29C22.3726 34 17 39.3726 17 46V160C17 166.627 22.3726 172 29 172H229C235.627 172 241 166.627 241 160V70.1371C241 63.5097 235.627 58.1371 229 58.1371H117.404L104.425 42.3784Z" fill="url(#paint0_linear_4261_9505)"/>
<mask id="mask0_4261_9505" style="mask-type:alpha" maskUnits="userSpaceOnUse" x="17" y="34" width="224" height="138">
<path d="M86.6709 34C93.5434 34 100.057 37.0729 104.426 42.3779L117.403 58.1367H229C235.627 58.1367 241 63.5095 241 70.1367V160C241 166.627 235.627 172 229 172H29C22.3726 172 17 166.627 17 160V46C17 39.3726 22.3726 34 29 34H86.6709Z" fill="url(#paint1_linear_4261_9505)"/>
</mask>
<g mask="url(#mask0_4261_9505)">
<g filter="url(#filter0_f_4261_9505)" style="mix-blend-mode:multiply">
<path d="M241 160C241 166.627 235.627 172 229 172H29C22.3726 172 17 166.627 17 160V86C17 79.3726 22.3726 74 29 74H92.79C97.7649 73.9999 102.605 72.3865 106.586 69.4023L116.46 62H229C235.627 62 241 67.3726 241 74V160Z" fill="black" fill-opacity="0.3"/>
</g>
</g>
<g filter="url(#filter1_ii_4261_9505)">
<path fill-rule="evenodd" clip-rule="evenodd" d="M92.789 74C97.7642 74 102.605 72.3868 106.586 69.4024L116.459 62H229C235.627 62 241 67.3726 241 74V108V198C241 204.627 235.627 210 229 210H29C22.3726 210 17 204.627 17 198L17 108V86C17 79.3726 22.3726 74 29 74H87H92.789Z" fill="url(#paint2_linear_4261_9505)"/>
</g>
<path d="M128.5 191C158.6 191 183 166.6 183 136.5C183 106.4 158.6 82 128.5 82C98.4005 82 74 106.4 74 136.5C74 166.6 98.4005 191 128.5 191Z" fill="url(#paint3_linear_4261_9505)" stroke="url(#paint4_linear_4261_9505)" stroke-width="0.00371766" stroke-miterlimit="1" stroke-linecap="round" stroke-linejoin="bevel"/>
<g filter="url(#filter2_f_4261_9505)">
<path fill-rule="evenodd" clip-rule="evenodd" d="M156.451 143.817C156.451 148.415 155.545 152.967 153.786 157.215C152.026 161.464 149.447 165.324 146.196 168.575C142.944 171.826 139.085 174.405 134.837 176.165C130.589 177.924 126.036 178.83 121.438 178.83C116.84 178.83 112.287 177.924 108.039 176.165C103.791 174.405 99.9307 171.826 96.6795 168.575C93.4282 165.324 90.8491 161.464 89.0895 157.215C87.33 152.967 86.4243 148.415 86.4243 143.817C86.4243 139.219 87.33 134.666 89.0895 130.418C90.8491 126.17 93.4282 122.31 96.6795 119.059C99.9307 115.807 103.791 113.228 108.039 111.469C112.287 109.709 116.84 108.803 121.438 108.803C126.036 108.803 130.589 109.709 134.837 111.469C139.085 113.228 142.944 115.807 146.196 119.059C149.447 122.31 152.026 126.17 153.786 130.418C155.545 134.666 156.451 139.219 156.451 143.817Z" fill="black"/>
</g>
<g filter="url(#filter3_i_4261_9505)">
<path fill-rule="evenodd" clip-rule="evenodd" d="M156.451 143.817C156.451 148.415 155.545 152.967 153.786 157.215C152.026 161.464 149.447 165.324 146.196 168.575C142.944 171.826 139.085 174.405 134.837 176.165C130.589 177.924 126.036 178.83 121.438 178.83C116.84 178.83 112.287 177.924 108.039 176.165C103.791 174.405 99.9307 171.826 96.6795 168.575C93.4282 165.324 90.8491 161.464 89.0895 157.215C87.33 152.967 86.4243 148.415 86.4243 143.817C86.4243 139.219 87.33 134.666 89.0895 130.418C90.8491 126.17 93.4282 122.31 96.6795 119.059C99.9307 115.807 103.791 113.228 108.039 111.469C112.287 109.709 116.84 108.803 121.438 108.803C126.036 108.803 130.589 109.709 134.837 111.469C139.085 113.228 142.944 115.807 146.196 119.059C149.447 122.31 152.026 126.17 153.786 130.418C155.545 134.666 156.451 139.219 156.451 143.817Z" fill="url(#paint5_linear_4261_9505)"/>
</g>
<path fill-rule="evenodd" clip-rule="evenodd" d="M115.595 129.929C114.262 129.121 112.559 130.081 112.559 131.639V155.647C112.559 157.225 114.301 158.182 115.632 157.334L134.956 145.038C136.207 144.242 136.187 142.409 134.919 141.64L115.595 129.929Z" fill="url(#paint6_linear_4261_9505)"/>
</g>
<defs>
<filter id="filter0_f_4261_9505" x="-20" y="25" width="298" height="184" filterUnits="userSpaceOnUse" color-interpolation-filters="sRGB">
<feFlood flood-opacity="0" result="BackgroundImageFix"/>
<feBlend mode="normal" in="SourceGraphic" in2="BackgroundImageFix" result="shape"/>
<feGaussianBlur stdDeviation="18.5" result="effect1_foregroundBlur_4261_9505"/>
</filter>
<filter id="filter1_ii_4261_9505" x="17" y="62" width="224" height="148" filterUnits="userSpaceOnUse" color-interpolation-filters="sRGB">
<feFlood flood-opacity="0" result="BackgroundImageFix"/>
<feBlend mode="normal" in="SourceGraphic" in2="BackgroundImageFix" result="shape"/>
<feColorMatrix in="SourceAlpha" type="matrix" values="0 0 0 0 0 0 0 0 0 0 0 0 0 0 0 0 0 0 127 0" result="hardAlpha"/>
<feOffset dy="4"/>
<feComposite in2="hardAlpha" operator="arithmetic" k2="-1" k3="1"/>
<feColorMatrix type="matrix" values="0 0 0 0 1 0 0 0 0 1 0 0 0 0 1 0 0 0 0.25 0"/>
<feBlend mode="normal" in2="shape" result="effect1_innerShadow_4261_9505"/>
<feColorMatrix in="SourceAlpha" type="matrix" values="0 0 0 0 0 0 0 0 0 0 0 0 0 0 0 0 0 0 127 0" result="hardAlpha"/>
<feOffset dy="-4"/>
<feComposite in2="hardAlpha" operator="arithmetic" k2="-1" k3="1"/>
<feColorMatrix type="matrix" values="0 0 0 0 0 0 0 0 0 0 0 0 0 0 0 0 0 0 0.9 0"/>
<feBlend mode="soft-light" in2="effect1_innerShadow_4261_9505" result="effect2_innerShadow_4261_9505"/>
</filter>
<filter id="filter2_f_4261_9505" x="85.711" y="108.09" width="71.453" height="71.4532" filterUnits="userSpaceOnUse" color-interpolation-filters="sRGB">
<feFlood flood-opacity="0" result="BackgroundImageFix"/>
<feBlend mode="normal" in="SourceGraphic" in2="BackgroundImageFix" result="shape"/>
<feGaussianBlur stdDeviation="0.356666" result="effect1_foregroundBlur_4261_9505"/>
</filter>
<filter id="filter3_i_4261_9505" x="86.4243" y="103.575" width="70.0264" height="75.2544" filterUnits="userSpaceOnUse" color-interpolation-filters="sRGB">
<feFlood flood-opacity="0" result="BackgroundImageFix"/>
<feBlend mode="normal" in="SourceGraphic" in2="BackgroundImageFix" result="shape"/>
<feColorMatrix in="SourceAlpha" type="matrix" values="0 0 0 0 0 0 0 0 0 0 0 0 0 0 0 0 0 0 127 0" result="hardAlpha"/>
<feOffset dy="-5.22796"/>
<feGaussianBlur stdDeviation="3.48531"/>
<feComposite in2="hardAlpha" operator="arithmetic" k2="-1" k3="1"/>
<feColorMatrix type="matrix" values="0 0 0 0 0.581048 0 0 0 0 0.175 0 0 0 0 0.65 0 0 0 0.48 0"/>
<feBlend mode="normal" in2="shape" result="effect1_innerShadow_4261_9505"/>
</filter>
<linearGradient id="paint0_linear_4261_9505" x1="17" y1="34" x2="197.768" y2="215.142" gradientUnits="userSpaceOnUse">
<stop stop-color="#E1E1E1"/>
</linearGradient>
<linearGradient id="paint1_linear_4261_9505" x1="17" y1="34" x2="197.768" y2="215.142" gradientUnits="userSpaceOnUse">
<stop stop-color="#05815D"/>
<stop offset="1" stop-color="#0C575F"/>
</linearGradient>
<linearGradient id="paint2_linear_4261_9505" x1="176.439" y1="200.973" x2="119.815" y2="52.5335" gradientUnits="userSpaceOnUse">
<stop stop-color="#451B4C"/>
<stop offset="1" stop-color="#6C3C76"/>
</linearGradient>
<linearGradient id="paint3_linear_4261_9505" x1="103.963" y1="100.155" x2="169.894" y2="168.641" gradientUnits="userSpaceOnUse">
<stop stop-color="#2F0E35"/>
<stop offset="1" stop-color="#732E7D"/>
</linearGradient>
<linearGradient id="paint4_linear_4261_9505" x1="103.963" y1="100.155" x2="170.781" y2="168.077" gradientUnits="userSpaceOnUse">
<stop stop-color="#6B3E75"/>
<stop offset="1" stop-color="white"/>
</linearGradient>
<linearGradient id="paint5_linear_4261_9505" x1="101.91" y1="120.456" x2="148.784" y2="167.33" gradientUnits="userSpaceOnUse">
<stop offset="0.375" stop-color="white"/>
<stop offset="1" stop-color="#ADA7AF"/>
</linearGradient>
<linearGradient id="paint6_linear_4261_9505" x1="114.683" y1="137.335" x2="125.404" y2="151.477" gradientUnits="userSpaceOnUse">
<stop stop-color="#66386F"/>
<stop offset="1" stop-color="#461D4D"/>
</linearGradient>
<clipPath id="clip0_4261_9505">
<rect width="256" height="256" fill="white"/>
</clipPath>
</defs>
</svg>
