<svg width="256" height="256" viewBox="0 0 256 256" fill="none" xmlns="http://www.w3.org/2000/svg">
<path fill-rule="evenodd" clip-rule="evenodd" d="M104.425 42.3784C100.056 37.0733 93.5437 34 86.6712 34H29C22.3726 34 17 39.3726 17 46V58.1371V68.2V160C17 166.627 22.3726 172 29 172H229C235.627 172 241 166.627 241 160V70.1371C241 63.5097 235.627 58.1371 229 58.1371H117.404L104.425 42.3784Z" fill="#990B11"/>
<mask id="mask0_758_21435" style="mask-type:alpha" maskUnits="userSpaceOnUse" x="17" y="34" width="224" height="138">
<path fill-rule="evenodd" clip-rule="evenodd" d="M104.425 42.3784C100.056 37.0733 93.5437 34 86.6712 34H29C22.3726 34 17 39.3726 17 46V58.1371V68.2V160C17 166.627 22.3726 172 29 172H229C235.627 172 241 166.627 241 160V70.1371C241 63.5097 235.627 58.1371 229 58.1371H117.404L104.425 42.3784Z" fill="url(#paint0_linear_758_21435)"/>
</mask>
<g mask="url(#mask0_758_21435)">
<g style="mix-blend-mode:multiply" filter="url(#filter0_f_758_21435)">
<path fill-rule="evenodd" clip-rule="evenodd" d="M92.789 74C97.7642 74 102.605 72.3868 106.586 69.4024L116.459 62H229C235.627 62 241 67.3726 241 74V108V160C241 166.627 235.627 172 229 172H29C22.3726 172 17 166.627 17 160L17 108V86C17 79.3726 22.3726 74 29 74H87H92.789Z" fill="black" fill-opacity="0.3"/>
</g>
</g>
<g filter="url(#filter1_ii_758_21435)">
<path fill-rule="evenodd" clip-rule="evenodd" d="M92.789 74C97.7642 74 102.605 72.3868 106.586 69.4024L116.459 62H229C235.627 62 241 67.3726 241 74V108V198C241 204.627 235.627 210 229 210H29C22.3726 210 17 204.627 17 198L17 108V86C17 79.3726 22.3726 74 29 74H87H92.789Z" fill="url(#paint1_linear_758_21435)"/>
</g>
<path fill-rule="evenodd" clip-rule="evenodd" d="M125.808 81.7565C112.585 84.902 98.5265 90.9133 86.7285 98.4663C85.2628 99.4046 83.9399 100.297 83.7887 100.45C83.5462 100.694 83.5138 101.013 83.5145 103.137C83.5156 105.931 83.7469 111.937 83.9728 115.032C85.4318 135.028 90.2121 152.604 97.8572 166.079C104.437 177.677 112.882 186.108 123.258 191.438C125.752 192.719 128.299 193.855 128.987 193.993C129.829 194.162 135.638 191.347 139.36 188.967C150.519 181.83 159.071 171.039 165.279 156.264C171.293 141.948 174.839 122.881 174.834 104.879L174.833 100.498L173.243 99.457C163.484 93.0705 150.552 86.9467 139.869 83.6532C136.04 82.4729 130.053 80.976 129.257 81.0003C129.087 81.0055 127.534 81.3459 125.808 81.7565ZM135.624 88.1793L134.267 89.5539L129.863 89.5945L125.458 89.635V93.2304V96.8258L129.061 96.8668L132.664 96.9078V95.7576V94.6073H131.333H130.002L128.719 93.3069L127.437 92.0064H131.946H136.456V94.4895V96.9726L135.132 98.3144L133.808 99.6562H129.105H124.402L122.996 98.244L121.59 96.8319V93.3127V89.7935L123.066 88.2991L124.542 86.8046H130.761H136.981L135.624 88.1793ZM119.111 91.1237L118.613 92.2298L116.988 92.7388L115.363 93.248L115.404 95.7253C115.452 98.576 115.283 98.3745 117.131 97.7756L118.176 97.4368V96.6723C118.176 96.238 118.11 95.9193 118.022 95.9343C117.937 95.9488 117.698 96.0027 117.491 96.0541C117.167 96.1344 117.053 96.049 116.679 95.4468C116.44 95.0616 116.283 94.7063 116.332 94.6577C116.493 94.4947 119.361 93.6852 119.452 93.7769C119.501 93.8265 119.564 94.5673 119.591 95.423C119.638 96.9266 119.621 97.0182 119.105 98.1556L118.571 99.3326L117.464 99.6556C116.855 99.8333 116.158 100.044 115.916 100.123C115.217 100.354 115.14 100.314 114.557 99.429L114.005 98.5899V96.178C114.005 93.8015 114.012 93.7486 114.498 92.5825L114.991 91.3987L116.508 90.9293C117.342 90.6712 118.298 90.3659 118.632 90.2508C119.624 89.9086 119.642 89.9416 119.111 91.1237ZM142.875 91.5927C144.111 91.9498 145.127 92.3048 145.133 92.3819C145.139 92.4588 144.878 92.7127 144.554 92.9458L143.965 93.3699L142.394 92.9206L140.823 92.4714L140.541 92.8126C140.386 93.0003 140.256 93.209 140.253 93.2763C140.242 93.5598 140.721 94.2857 140.967 94.3578C143.162 94.9995 143.993 95.2801 144.134 95.426C144.226 95.5227 144.482 96.1968 144.702 96.9238L145.102 98.2459L144.633 99.257C144.375 99.8131 144.121 100.268 144.068 100.268C143.929 100.268 138.818 99.0024 138.753 98.9521C138.705 98.9144 139.649 97.5142 139.723 97.5142C139.739 97.5142 140.513 97.7154 141.443 97.9614C143.105 98.4012 143.135 98.4036 143.293 98.1069C143.493 97.7283 143.22 96.8042 142.853 96.6197C142.714 96.5498 141.938 96.299 141.129 96.0625L139.658 95.6326L139.119 94.3667C138.822 93.6704 138.58 93.048 138.58 92.9836C138.58 92.919 138.863 92.3941 139.208 91.817C139.937 90.6003 139.526 90.6255 142.875 91.5927ZM112.858 96.3793C112.919 98.7844 112.946 100.775 112.918 100.804C112.889 100.832 112.686 100.901 112.466 100.957C112.092 101.051 111.971 100.924 110.603 98.9801C109.799 97.8372 109.098 96.9023 109.046 96.9023C108.994 96.9023 108.998 98.0349 109.054 99.4192L109.156 101.936L108.584 102.823L108.013 103.711L107.901 98.672C107.84 95.9008 107.806 93.6172 107.826 93.5973C107.846 93.5775 108.042 93.5156 108.263 93.4596C108.639 93.3646 108.759 93.4912 110.136 95.4361C110.945 96.5791 111.643 97.5142 111.688 97.5142C111.732 97.5142 111.742 96.3304 111.711 94.8833L111.653 92.2526L112.033 92.1447C112.241 92.0854 112.487 92.0301 112.58 92.0217C112.697 92.011 112.781 93.3372 112.858 96.3793ZM149.261 93.6256C150.506 94.0755 151.589 94.509 151.668 94.5885C151.758 94.6796 151.578 94.8893 151.182 95.1537L150.552 95.574L149.169 95.089C148.408 94.8221 147.764 94.6259 147.738 94.6526C147.711 94.6794 147.671 95.0997 147.648 95.5867L147.606 96.4719L148.288 96.7409C148.664 96.8886 149.466 97.198 150.071 97.4283C150.676 97.6585 151.168 97.8926 151.165 97.9483C151.161 98.0041 150.86 98.2713 150.495 98.5422L149.831 99.0347L148.729 98.657C148.124 98.4492 147.572 98.2792 147.503 98.2792C147.434 98.2792 147.378 98.6178 147.378 99.0316V99.7839L148.857 100.28C149.671 100.553 150.53 100.857 150.766 100.957L151.195 101.138L150.482 101.671L149.769 102.204L147.815 101.588L145.861 100.971L145.865 100.428C145.868 100.13 145.968 98.3366 146.089 96.4433C146.209 94.55 146.31 92.9102 146.312 92.7994C146.317 92.558 146.283 92.5482 149.261 93.6256ZM106.706 99.5052L106.723 102.95L106.154 103.789L105.586 104.628L105.484 99.6568C105.428 96.9222 105.416 94.6502 105.457 94.608C105.498 94.5656 105.748 94.4554 106.014 94.3632L106.496 94.1955L106.592 95.1281C106.645 95.6411 106.696 97.6108 106.706 99.5052ZM155.327 96.034L157.322 97.0017L157.586 98.1377C157.92 99.578 157.922 99.5459 157.439 100.281L157.033 100.9L157.439 101.735C157.774 102.424 157.845 102.779 157.845 103.765C157.845 104.422 157.804 105.001 157.754 105.052C157.704 105.103 157.424 105.029 157.131 104.889C156.602 104.634 156.6 104.63 156.676 103.789C156.738 103.094 156.684 102.807 156.364 102.157C156.02 101.457 155.873 101.323 155.065 100.971C154.563 100.753 154.121 100.607 154.082 100.647C154.043 100.686 153.978 101.361 153.937 102.146C153.864 103.549 153.853 103.585 153.265 104.254L152.666 104.934L152.749 103.634C152.795 102.919 152.878 100.699 152.934 98.7C152.995 96.5071 153.094 95.0663 153.183 95.0663C153.265 95.0663 154.23 95.5017 155.327 96.034ZM104.177 99.4649C104.215 101.8 104.237 103.726 104.226 103.744C104.214 103.762 103.952 103.884 103.644 104.014L103.083 104.25V101.545C103.083 100.057 103.048 98.8753 103.005 98.9183C102.963 98.9611 102.63 100.082 102.267 101.408C101.365 104.699 101.14 104.82 100.194 102.525C99.8379 101.662 99.4816 100.888 99.4019 100.804C99.3099 100.706 99.2958 101.602 99.3633 103.262L99.4694 105.873L98.9481 106.822L98.4267 107.771L98.3281 106.047C98.2739 105.098 98.2299 102.946 98.2302 101.263L98.2307 98.2027L98.835 97.8719L99.4394 97.541L99.7169 98.1779C99.8693 98.5281 100.256 99.4527 100.575 100.232C100.894 101.012 101.182 101.624 101.213 101.592C101.268 101.538 102.779 96.0464 102.779 95.9044C102.779 95.8318 103.86 95.2369 104.012 95.2261C104.064 95.2224 104.139 97.1299 104.177 99.4649ZM154.123 97.5666C153.918 98.6713 154.038 98.8785 155.168 99.3633C155.739 99.6086 156.257 99.8092 156.319 99.8092C156.597 99.8092 156.761 99.065 156.6 98.5358C156.46 98.0744 156.293 97.9318 155.422 97.5268C154.864 97.2675 154.365 97.0553 154.313 97.0553C154.261 97.0553 154.175 97.2854 154.123 97.5666ZM160.414 99.774C160.408 100.425 160.354 102.137 160.293 103.58C160.177 106.371 160.161 106.426 159.315 107.034L158.862 107.359L158.963 104.617C159.018 103.109 159.106 101 159.158 99.9316L159.253 97.9885L159.838 98.2901L160.424 98.5915L160.414 99.774ZM96.5195 99.8361C96.9384 100.474 96.9388 100.479 96.9919 103.649L97.045 106.823L96.5822 107.065C96.3278 107.197 96.082 107.306 96.0362 107.306C95.9903 107.306 95.9528 106.824 95.9528 106.235C95.9528 105.646 95.9105 105.164 95.8587 105.164C95.807 105.164 95.2609 105.453 94.6452 105.806L93.5256 106.449V107.611C93.5256 108.637 93.4659 108.886 93.0181 109.732L92.5105 110.69L92.4113 109.28C92.3567 108.505 92.3121 106.842 92.3121 105.585C92.3121 103.495 92.347 103.201 92.7189 102.144L93.1258 100.988L94.5014 100.094C95.2579 99.6029 95.9272 99.1999 95.9886 99.199C96.05 99.1979 96.289 99.4847 96.5195 99.8361ZM164.207 100.416C165.367 101.002 166.35 101.537 166.392 101.605C166.433 101.673 166.157 101.858 165.778 102.016L165.088 102.304L164.119 101.821C163.585 101.556 163.082 101.339 163 101.339C162.918 101.339 162.851 101.705 162.851 102.153V102.967L164.297 103.628C165.092 103.992 165.772 104.338 165.809 104.399C165.846 104.459 165.544 104.691 165.137 104.914L164.399 105.319L163.688 105.012C163.298 104.843 162.915 104.705 162.839 104.705C162.762 104.705 162.7 104.982 162.7 105.32V105.935L164.33 106.709L165.961 107.483L165.257 107.848L164.553 108.213L163.008 107.569L161.463 106.926L161.548 105.548C161.595 104.79 161.675 103.085 161.727 101.76C161.779 100.435 161.883 99.3502 161.959 99.3502C162.035 99.3502 163.046 99.8298 164.207 100.416ZM94.4738 101.889L93.3739 102.588V103.646C93.3739 104.229 93.4184 104.705 93.4726 104.705C93.5269 104.705 94.0721 104.412 94.6843 104.055L95.7973 103.405L95.7993 102.295C95.8002 101.685 95.7498 101.187 95.6873 101.188C95.6248 101.189 95.0787 101.505 94.4738 101.889ZM90.9061 103.379C90.5719 104.378 90.5378 104.418 89.3902 105.16L88.2162 105.918V108.151V110.383L88.861 109.983C89.2156 109.762 89.6592 109.506 89.847 109.414C90.1314 109.274 90.1883 109.121 90.1883 108.5C90.1883 107.78 90.1766 107.76 89.8567 107.933C89.5668 108.09 89.4808 108.056 89.1748 107.671C88.9822 107.428 88.8462 107.163 88.8726 107.082C88.9224 106.929 90.9363 105.635 91.1364 105.627C91.1989 105.625 91.2502 106.298 91.2502 107.123C91.2502 108.287 91.1715 108.859 90.8992 109.673L90.5481 110.722L89.2757 111.456L88.0033 112.19L87.5794 111.546C87.1648 110.915 87.1559 110.855 87.1645 108.759C87.1726 106.834 87.2146 106.502 87.5811 105.474L87.9887 104.33L89.5815 103.31C90.4576 102.749 91.1909 102.305 91.2112 102.323C91.2315 102.342 91.0942 102.817 90.9061 103.379ZM169.686 103.213C170.599 103.739 171.346 104.214 171.346 104.269C171.346 104.324 171.125 104.51 170.855 104.683L170.364 104.996L169.413 104.46C168.402 103.89 168.161 103.892 168.161 104.472C168.161 105.131 168.326 105.289 169.691 105.943C170.935 106.54 171.057 106.639 171.196 107.156C171.571 108.562 171.546 109.018 171.045 109.942L170.569 110.818L169.099 110.086C168.291 109.683 167.461 109.283 167.255 109.196L166.88 109.038L167.496 108.627L168.113 108.215L169.137 108.678C169.7 108.933 170.216 109.142 170.282 109.142C170.508 109.142 170.576 108.694 170.419 108.241C170.29 107.866 170.03 107.687 168.873 107.173L167.482 106.556L167.215 105.516L166.948 104.476L167.342 103.366C167.559 102.756 167.801 102.257 167.881 102.257C167.961 102.257 168.773 102.687 169.686 103.213ZM133.552 103.185C143.75 105.39 149.113 107.029 158.11 110.691C162.869 112.628 171.75 116.754 172.603 117.424C172.862 117.628 172.86 117.757 172.557 120.542C170.796 136.709 167.169 150.088 161.483 161.39C154.927 174.422 146.575 183.417 135.488 189.389C133.647 190.38 129.535 192.217 129.154 192.218C128.748 192.218 126.074 191.045 123.562 189.764C112.235 183.988 103.391 174.465 96.5464 160.674C91.5584 150.625 88.0025 137.777 86.1736 123.197C85.9558 121.462 85.7631 119.431 85.7454 118.685L85.7132 117.33L87.837 116.227C96.4868 111.734 106.688 107.729 115.624 105.318C118.719 104.483 125.024 102.987 126.875 102.65C128.867 102.286 129.699 102.353 133.552 103.185Z" fill="white"/>
<path d="M127.636 107.279C128.048 107.638 128.362 108.088 128.702 108.511C131.049 111.359 133.947 113.8 137.306 115.368C138.354 115.865 139.465 116.275 140.631 116.36C141.559 116.438 142.391 115.838 143.323 115.935C144.102 116.006 144.881 116.311 145.475 116.83C145.791 117.677 145.844 118.669 146.527 119.336C147.038 119.943 147.889 119.93 148.603 119.795C148.774 120.279 149.009 120.868 149.595 120.944C150.144 120.957 150.641 120.64 151.168 120.503C151.512 120.984 151.741 121.616 152.332 121.855C153.488 122.411 154.395 123.418 154.921 124.578C154.244 123.828 153.55 123.065 152.61 122.641C152.583 124.099 152.782 125.808 151.689 126.961C151.649 126.036 151.555 125.102 151.15 124.258C150.317 124.939 149.53 125.785 148.427 125.994C148.762 125.537 149.251 125.152 149.403 124.583C149.488 124.144 148.971 124.068 148.664 124.001C147.363 123.799 146.254 124.63 145.227 125.293C145.065 124.834 144.902 124.377 144.745 123.918C144.082 124.126 143.314 124.267 142.864 124.852C142.589 125.362 143.122 125.781 143.522 125.989C144.208 126.379 145.018 126.092 145.755 126.251C146.232 126.363 146.523 126.793 146.834 127.138C146.852 126.787 146.877 126.437 146.909 126.088C147.762 127.033 148.474 128.097 149.119 129.194C149.95 128.8 150.384 127.978 150.317 127.064C150.653 127.667 150.668 128.359 150.646 129.03C150.85 128.781 151.065 128.541 151.289 128.309C151.396 129.317 151.416 130.399 150.946 131.326C150.57 132.045 149.867 132.522 149.117 132.788C149.278 132.197 149.625 131.239 148.81 130.981C147.39 130.706 146.004 131.315 144.597 131.427C145.392 130.981 146.31 130.58 146.785 129.754C146.752 129.653 146.68 129.449 146.646 129.348C145.896 128.887 145.01 128.692 144.197 128.363C143.722 128.13 143.278 128.473 142.846 128.632C142.034 128.18 141.008 128.106 140.195 128.598C138.166 129.998 134.738 127.985 135.264 125.483C135.624 124.124 137.091 123.649 138.224 123.11C137.187 122.883 135.971 123.072 135.239 123.896C134.639 124.523 134.415 125.387 134.265 126.216C130.391 125.067 126.226 124.865 122.258 125.613C118.388 126.332 114.706 128.251 112.086 131.214C109.406 134.208 107.773 138.026 106.961 141.932C105.982 146.603 106.716 151.586 108.924 155.812C109.487 156.983 110.232 158.046 110.913 159.15C107.637 156.474 105.4 152.73 103.895 148.82C103.411 149.38 103.449 150.148 103.339 150.835C102.276 149.208 102.442 147.152 102.737 145.322C103.375 141.99 104.502 138.77 105.877 135.675C104.73 136.342 103.89 137.386 102.948 138.291C102.91 134.95 104.851 132.079 106.844 129.568C108.067 128.023 109.516 126.682 110.922 125.307C109.78 125.616 108.716 126.14 107.61 126.55C109.914 124.169 112.928 122.568 116.032 121.48C119.058 120.461 122.242 119.89 125.435 119.807C123.722 119.415 121.976 119.104 120.215 119.048L119.902 119.267C119.895 119.142 119.879 118.992 120.038 118.961C123.285 118.157 126.698 117.964 129.822 116.694C130.584 116.392 131.289 115.96 131.925 115.445C133.262 116.35 134.657 117.456 136.355 117.442C133.712 115.322 131.056 113.111 129.177 110.254C128.543 109.333 127.937 108.368 127.636 107.279ZM142.429 118.082C143.119 119.007 143.968 120.08 145.276 119.914C145.103 119.446 145.041 118.875 144.62 118.552C143.894 118.373 143.144 118.301 142.429 118.082Z" fill="white"/>
<path d="M124.866 111.406C127.034 112.557 129.011 114.055 131.26 115.072C130.716 115.511 130.026 116.311 129.271 115.807C127.518 114.671 126.156 113.025 124.866 111.406ZM99.1788 121.324C100.907 120.7 103.035 122.09 103.086 123.94C102.91 123.958 102.556 123.992 102.379 124.009C102.294 125.384 102.916 126.697 103.642 127.825C103.725 126.582 103.505 125.261 104.13 124.119C104.549 124.139 104.945 124.258 105.306 124.477C105.792 124.18 105.684 123.526 105.395 123.123C105.066 122.679 104.652 122.312 104.314 121.88C105.18 122.406 106.065 123.002 106.622 123.87C106.952 124.455 107.032 125.333 106.504 125.83C106.154 126.213 105.404 125.812 105.185 126.365C104.788 127.158 104.932 128.105 105.272 128.894C106.125 128.723 106.725 128.063 107.503 127.731C105.989 129.292 104.549 130.969 103.7 132.998C103.687 132.394 103.978 131.67 103.555 131.151C102.744 130.405 101.526 130.461 100.641 129.843C100.124 129.467 99.8327 128.88 99.405 128.423C99.0534 128.071 98.3636 128.217 98.1286 127.744C98.0212 126.958 98.0996 126.009 97.4412 125.433C96.7426 124.869 95.7751 124.979 94.9353 124.903C96.3191 124.164 98.1443 124.551 99.1722 125.714C99.6581 126.258 99.5978 127.131 100.211 127.583C100.847 128.027 101.517 128.475 102.287 128.649C102.468 127.559 101.45 126.902 101.12 125.969C100.733 125.006 100.547 123.834 101.091 122.894C101.206 122.587 101.557 122.195 101.176 121.936C100.625 121.465 99.8437 121.495 99.1788 121.324ZM119.514 127.68C119.738 127.594 119.966 127.521 120.197 127.46C118.542 128.976 117.353 130.891 116.039 132.689C115.593 133.348 115.011 134.049 115.159 134.906C115.174 135.17 115.282 135.659 115.654 135.464C116.471 135.036 116.928 134.19 117.506 133.507C117.9 134.781 119.102 135.535 120.296 135.954C122.333 136.711 124.539 136.442 126.642 136.181C130.669 135.616 134.798 134.599 138.137 132.172C139.057 131.556 139.684 130.618 140.551 129.946C140.331 130.967 139.588 131.753 138.901 132.492C136.531 134.803 133.392 136.138 130.234 136.984C127.202 137.777 124.067 138.115 120.941 138.216C120.213 138.29 119.396 138.326 118.807 138.814C118.408 139.127 118.778 139.627 119.084 139.844C120.184 140.635 121.429 141.219 122.714 141.644C125.912 142.748 129.396 142.262 132.574 141.342C134.76 140.722 136.787 139.683 138.813 138.684C136.352 140.964 133.118 142.256 129.856 142.863C125.431 143.613 120.84 142.977 116.65 141.436C116.196 141.295 115.495 141.172 115.239 141.696C114.903 142.509 115.616 143.214 115.934 143.904C117.19 146.372 118.842 148.777 121.27 150.215C122.204 150.799 123.263 151.124 124.316 151.417C122.553 151.475 120.903 150.699 119.405 149.854C116.379 148.083 114.391 145.006 113.143 141.804C113.372 146.043 116.043 149.702 119.125 152.423C119.14 152.904 118.563 152.911 118.222 153.029C116.814 153.395 115.136 153.374 114.044 154.454C113.087 156.077 113.083 158.108 112.037 159.696C110.15 156.411 108.956 152.745 108.398 149.003C107.702 144.146 108.687 139.047 111.303 134.879C113.26 131.744 116.173 129.243 119.514 127.68Z" fill="white"/>
<path d="M138.974 135.706C140.06 135.106 140.985 134.275 141.993 133.561C141.738 134.228 141.14 134.66 140.636 135.132C136.162 139.159 129.972 140.794 124.053 140.673C122.956 140.594 121.704 140.579 120.831 139.815C120.639 139.242 121.422 139.172 121.801 139.197C127.67 139.463 133.833 138.749 138.974 135.706ZM136.8 141.837C138.871 141.66 141.037 141.978 142.906 142.919C144.707 143.821 146.077 145.478 146.695 147.391C145.58 146.421 143.898 146.061 142.483 146.435C142.416 146.887 142.555 147.317 142.776 147.711C140.86 147.939 138.869 147.21 137.713 145.631C138.553 146.011 139.431 146.529 140.394 146.34C141.155 146.186 141.975 145.859 142.393 145.165C142.671 144.634 142.138 144.168 141.76 143.879C140.264 142.865 138.5 142.381 136.8 141.837ZM116.787 142.415C117.181 142.462 117.653 142.435 117.92 142.796C119.673 145.037 122.477 146.146 125.202 146.634C127.281 147.059 129.408 147.106 131.522 147.046C128.044 147.935 124.235 147.765 120.916 146.34C119.429 145.702 118.039 144.746 117.085 143.423C116.858 143.136 116.861 142.753 116.787 142.415Z" fill="white"/>
<path d="M136.695 147.104C136.058 146.076 135.841 144.766 136.148 143.597C136.356 144.936 136.838 146.322 137.935 147.193C139.29 148.3 141.144 148.532 142.837 148.398C145.229 148.163 147.629 147.724 150.041 147.923C151.163 148.037 152.104 148.801 152.63 149.771C153.102 150.66 153.584 151.571 153.826 152.554C154.023 153.743 153.008 154.61 152.76 155.701C152.294 157.552 152.298 159.523 151.546 161.301C151.107 162.349 150.126 163.021 149.537 163.971C148.42 165.735 147.889 167.784 147.461 169.806C147.257 170.754 146.87 171.752 146.001 172.279C144.44 173.242 142.523 173.307 140.9 174.128C139.33 174.854 138.094 176.086 136.724 177.105C135.648 177.904 134.2 177.922 132.968 177.512C131.965 177.172 130.886 176.968 129.842 177.254C128.901 177.351 128.021 178.005 127.063 177.756C125.842 177.384 125.733 175.814 124.655 175.264C123.56 174.713 122.309 174.706 121.126 174.491C120.578 174.401 120.016 174.115 119.769 173.593C119.447 172.839 119.48 171.967 119.075 171.246C118.099 169.719 115.994 169.408 115.109 167.795C114.67 167.034 114.791 166.123 115.085 165.334C115.396 164.479 115.485 163.407 114.849 162.672C114.139 161.893 113.018 161.754 112.023 161.671C113.087 160.211 113.692 158.482 114.065 156.729C114.269 155.69 114.867 154.632 115.953 154.335C117.436 153.92 119.203 153.316 120.625 154.205C122.277 155.508 122 158.267 120.595 159.656C119.608 160.433 118.112 160.688 116.977 160.092C116.285 159.718 116.209 158.858 116.318 158.164C116.804 158.495 117.162 159.051 117.778 159.161C118.267 159.04 118.983 158.766 118.963 158.166C118.654 157.3 117.588 156.693 116.708 157.105C115.731 157.571 114.728 158.381 114.585 159.521C114.61 160.8 115.956 161.494 117.093 161.527C118.963 161.536 120.591 160.403 121.901 159.174C121.648 162.779 121.865 166.584 123.567 169.847C124.411 171.508 126.033 172.671 127.835 173.085C131.458 173.94 135.254 173.322 138.734 172.144C140.826 171.454 142.857 170.48 144.543 169.043C145.378 168.283 146.005 167.332 146.619 166.391C148.251 163.791 149.53 160.978 150.549 158.085C151.232 155.996 151.733 153.624 150.84 151.522C150.231 150.075 148.612 149.466 147.161 149.287C145.331 148.989 143.515 149.717 141.688 149.432C141.325 150.055 141.345 150.969 142.037 151.354C143.251 152.021 144.698 151.851 146.03 151.932C143.553 152.921 140.638 153.315 138.141 152.176C135.926 151.231 134.244 149.249 133.496 146.98C134.54 148.494 135.628 150.171 137.429 150.852C138.282 151.13 139.363 151.338 140.138 150.76C140.637 150.252 140.08 149.603 139.827 149.124C138.598 148.828 137.382 148.201 136.695 147.104ZM153.396 150.1C153.77 149.824 154.222 149.688 154.65 149.516C154.473 149.93 154.307 150.443 153.817 150.568C153.487 150.599 153.346 150.443 153.396 150.1ZM153.19 155.931C153.913 155.651 154.701 155.878 155.456 155.777C154.905 156.352 154.056 156.948 153.239 156.563C153.221 156.352 153.205 156.142 153.19 155.931Z" fill="white"/>
<path d="M125.169 158.169C126.192 157.376 127.549 157.2 128.808 157.144C127.872 157.459 126.741 157.688 126.32 158.711C126.689 159.213 127.632 158.893 127.8 159.533C127.825 160.883 126.736 161.853 126.331 163.062C127.44 162.299 128.696 161.593 129.403 160.404C129.596 160.037 129.025 159.92 128.861 159.703C129.444 158.76 130.619 158.424 131.67 158.449C132.471 158.424 133.343 158.689 133.822 159.374C133.045 159.197 132.194 158.574 131.408 159.038C131.213 159.58 131.334 160.194 131.105 160.735C130.633 162.052 129.417 162.937 128.152 163.423C127.697 163.606 127.077 164.011 127.243 164.58C128.035 164.627 128.841 164.719 129.632 164.596C130.478 164.464 130.877 163.53 131.706 163.362C133.206 162.955 135.013 163.579 135.79 164.966C134.991 164.578 134.194 163.908 133.246 164.092C132.31 164.296 131.923 165.259 131.363 165.922C130.857 166.054 130.362 165.745 129.856 165.814C129.177 165.969 128.579 166.381 127.881 166.45C126.662 166.582 125.518 165.783 124.298 166.065C123.644 166.269 123.684 167.064 123.628 167.617C122.898 165.438 122.587 163.102 122.795 160.812C123.324 161.347 123.312 162.111 123.474 162.796C123.57 163.232 124.112 163.244 124.407 163.002C125.189 162.422 125.691 161.45 125.623 160.467C124.636 160.178 124.394 158.812 125.169 158.169ZM112.563 163.049C113.199 162.527 114.438 162.91 114.474 163.795C114.557 164.397 114.53 165.181 113.887 165.47C112.501 166.224 110.667 166.554 109.934 168.126C110.087 166.182 110.888 164.162 112.563 163.049ZM149.135 165.4C149.415 164.831 150.153 164.952 150.608 165.219C151.186 165.543 151.802 165.792 152.48 165.792C151.638 166.314 150.59 166.732 149.6 166.423C149.177 166.305 148.826 165.803 149.135 165.4ZM117.658 171.037C118.415 170.772 119.248 171.464 119.058 172.266C119.082 172.88 118.563 173.243 118.045 173.422C116.885 173.908 115.497 174.246 114.852 175.442C114.955 173.628 116.01 171.847 117.658 171.037ZM140.271 175.842C139.964 175.168 140.558 174.389 141.283 174.606C142.047 174.778 141.995 175.679 142.094 176.288C142.152 176.993 142.454 177.638 142.819 178.231C141.693 177.838 140.766 176.913 140.271 175.842ZM122.594 175.959C122.986 175.471 123.653 175.253 124.264 175.397C125.019 175.807 125.18 177.11 124.403 177.584C123.328 178.42 121.765 178.919 121.396 180.386C121.288 178.841 121.599 177.186 122.594 175.959ZM130.628 177.793C131.486 177.22 132.686 178.323 132.098 179.213C131.318 180.229 129.983 180.829 129.663 182.175C129.408 180.693 129.529 178.928 130.628 177.793Z" fill="white"/>
<defs>
<filter id="filter0_f_758_21435" x="-20" y="25" width="298" height="184" filterUnits="userSpaceOnUse" color-interpolation-filters="sRGB">
<feFlood flood-opacity="0" result="BackgroundImageFix"/>
<feBlend mode="normal" in="SourceGraphic" in2="BackgroundImageFix" result="shape"/>
<feGaussianBlur stdDeviation="18.5" result="effect1_foregroundBlur_758_21435"/>
</filter>
<filter id="filter1_ii_758_21435" x="17" y="62" width="224" height="148" filterUnits="userSpaceOnUse" color-interpolation-filters="sRGB">
<feFlood flood-opacity="0" result="BackgroundImageFix"/>
<feBlend mode="normal" in="SourceGraphic" in2="BackgroundImageFix" result="shape"/>
<feColorMatrix in="SourceAlpha" type="matrix" values="0 0 0 0 0 0 0 0 0 0 0 0 0 0 0 0 0 0 127 0" result="hardAlpha"/>
<feOffset dy="4"/>
<feComposite in2="hardAlpha" operator="arithmetic" k2="-1" k3="1"/>
<feColorMatrix type="matrix" values="0 0 0 0 1 0 0 0 0 1 0 0 0 0 1 0 0 0 0.25 0"/>
<feBlend mode="normal" in2="shape" result="effect1_innerShadow_758_21435"/>
<feColorMatrix in="SourceAlpha" type="matrix" values="0 0 0 0 0 0 0 0 0 0 0 0 0 0 0 0 0 0 127 0" result="hardAlpha"/>
<feOffset dy="-4"/>
<feComposite in2="hardAlpha" operator="arithmetic" k2="-1" k3="1"/>
<feColorMatrix type="matrix" values="0 0 0 0 0 0 0 0 0 0 0 0 0 0 0 0 0 0 0.9 0"/>
<feBlend mode="soft-light" in2="effect1_innerShadow_758_21435" result="effect2_innerShadow_758_21435"/>
</filter>
<linearGradient id="paint0_linear_758_21435" x1="17" y1="34" x2="197.768" y2="215.142" gradientUnits="userSpaceOnUse">
<stop stop-color="#05815D"/>
<stop offset="1" stop-color="#0C575F"/>
</linearGradient>
<linearGradient id="paint1_linear_758_21435" x1="17" y1="62" x2="241" y2="210" gradientUnits="userSpaceOnUse">
<stop stop-color="#ED1C24"/>
<stop offset="1" stop-color="#920A0F"/>
</linearGradient>
</defs>
</svg>
