<svg width="256" height="256" viewBox="0 0 256 256" fill="none" xmlns="http://www.w3.org/2000/svg">
<g clip-path="url(#clip0_2043_38027)">
<path fill-rule="evenodd" clip-rule="evenodd" d="M104.425 42.3784C100.056 37.0733 93.5437 34 86.6712 34H29C22.3726 34 17 39.3726 17 46V58.1371V68.2V160C17 166.627 22.3726 172 29 172H229C235.627 172 241 166.627 241 160V70.1371C241 63.5097 235.627 58.1371 229 58.1371H117.404L104.425 42.3784Z" fill="#E6E6E6"/>
<mask id="mask0_2043_38027" style="mask-type:alpha" maskUnits="userSpaceOnUse" x="17" y="34" width="224" height="138">
<path fill-rule="evenodd" clip-rule="evenodd" d="M104.425 42.3784C100.056 37.0733 93.5437 34 86.6712 34H29C22.3726 34 17 39.3726 17 46V58.1371V68.2V160C17 166.627 22.3726 172 29 172H229C235.627 172 241 166.627 241 160V70.1371C241 63.5097 235.627 58.1371 229 58.1371H117.404L104.425 42.3784Z" fill="url(#paint0_linear_2043_38027)"/>
</mask>
<g mask="url(#mask0_2043_38027)">
<g style="mix-blend-mode:multiply" filter="url(#filter0_f_2043_38027)">
<path fill-rule="evenodd" clip-rule="evenodd" d="M92.789 74C97.7642 74 102.605 72.3868 106.586 69.4024L116.459 62H229C235.627 62 241 67.3726 241 74V108V160C241 166.627 235.627 172 229 172H29C22.3726 172 17 166.627 17 160L17 108V86C17 79.3726 22.3726 74 29 74H87H92.789Z" fill="black" fill-opacity="0.3"/>
</g>
</g>
<g filter="url(#filter1_ii_2043_38027)">
<path fill-rule="evenodd" clip-rule="evenodd" d="M92.789 74C97.7642 74 102.605 72.3868 106.586 69.4024L116.459 62H229C235.627 62 241 67.3726 241 74V108V198C241 204.627 235.627 210 229 210H29C22.3726 210 17 204.627 17 198L17 108V86C17 79.3726 22.3726 74 29 74H87H92.789Z" fill="url(#paint1_linear_2043_38027)"/>
</g>
<path d="M138.684 79C137.853 79 137.081 79.1828 136.369 79.4265C137.883 80.4623 138.714 81.8331 139.13 83.3868C139.16 83.6001 139.219 83.7524 139.248 83.9656C139.278 84.1484 139.308 84.3312 139.308 84.514C139.427 87.1948 138.625 87.5299 138.061 89.114C137.2 91.1552 137.438 93.3486 138.477 95.1154C138.566 95.3287 138.684 95.5724 138.833 95.7857C137.705 88.0783 143.969 86.9206 145.126 84.514C145.215 82.412 143.523 81.0106 142.187 80.0358C140.911 79.2437 139.753 79 138.684 79ZM148.125 80.7364C148.006 81.4371 148.095 81.2543 148.066 81.6199C148.036 81.8636 148.036 82.1683 148.006 82.412C147.946 82.6557 147.887 82.8994 147.798 83.1431C147.739 83.3868 147.65 83.6305 147.561 83.8742C147.442 84.118 147.353 84.3312 147.234 84.5749C147.145 84.6968 147.086 84.8186 146.997 84.9405C146.938 85.0319 146.878 85.1232 146.818 85.2147C146.67 85.4279 146.522 85.6412 146.373 85.8239C146.195 86.0067 146.047 86.2199 145.839 86.3723C145.839 86.4028 145.839 86.4028 145.839 86.4028C145.661 86.5551 145.483 86.7379 145.275 86.8902C144.652 87.3776 143.939 87.7432 143.286 88.2002C143.078 88.3525 142.87 88.4743 142.692 88.6571C142.484 88.8094 142.306 88.9618 142.128 89.1446C141.92 89.3273 141.772 89.5101 141.594 89.7234C141.446 89.9062 141.267 90.1194 141.149 90.3327C141 90.5459 140.852 90.7591 140.733 90.9724C140.614 91.2161 140.525 91.4294 140.406 91.6731C140.318 91.9168 140.228 92.13 140.169 92.3737C140.08 92.6479 140.021 92.8917 139.961 93.1354C139.931 93.2572 139.931 93.4095 139.901 93.5314C139.872 93.6533 139.872 93.7751 139.842 93.897C139.842 94.1407 139.813 94.4148 139.813 94.6585C139.813 94.8414 139.813 95.0241 139.842 95.2069C139.842 95.4506 139.872 95.6943 139.931 95.9685C139.961 96.2122 140.021 96.4559 140.08 96.6996C140.169 96.9433 140.228 97.1871 140.318 97.4308C140.377 97.5831 140.466 97.7354 140.525 97.8573L133.697 95.1459C132.54 94.8109 131.412 94.5062 130.254 94.2321C129.63 94.0797 129.007 93.9274 128.383 93.7751C126.602 93.4095 124.791 93.1354 122.98 92.9526C122.921 92.9526 122.892 92.922 122.832 92.922C121.051 92.7393 119.299 92.6479 117.518 92.6479C116.212 92.6479 114.906 92.7088 113.629 92.8002C111.819 92.9221 110.008 93.1657 108.197 93.4704C107.752 93.5313 107.306 93.6227 106.861 93.7142C105.941 93.8969 105.05 94.1102 104.189 94.3234C103.744 94.4453 103.299 94.5671 102.853 94.689C102.408 94.8717 101.992 95.085 101.577 95.2678C101.25 95.4201 100.924 95.5724 100.597 95.7247C100.538 95.7552 100.478 95.7552 100.449 95.7856C100.152 95.9379 99.8846 96.0598 99.6175 96.2121C99.5285 96.2426 99.4691 96.273 99.4097 96.3035C99.0831 96.4559 98.7566 96.6386 98.4894 96.7909C98.2816 96.8823 98.0738 97.0042 97.8957 97.0956C97.8067 97.1565 97.6879 97.2175 97.6285 97.2479C97.3613 97.4002 97.0942 97.5526 96.8567 97.7049C96.5895 97.8572 96.352 98.0095 96.1442 98.1618C95.9364 98.3142 95.7286 98.436 95.5505 98.5883C95.5208 98.6188 95.4912 98.6188 95.4614 98.6492C95.2833 98.7711 95.0755 98.9234 94.8974 99.0757C94.8974 99.0757 94.8677 99.1062 94.8381 99.1366C94.6897 99.2585 94.5412 99.3803 94.3927 99.5021C94.3334 99.5326 94.274 99.5935 94.2146 99.624C94.0662 99.746 93.9178 99.8982 93.7694 100.02C93.7396 100.081 93.6803 100.111 93.6506 100.142C93.4725 100.325 93.2943 100.477 93.1162 100.66C93.0865 100.66 93.0865 100.69 93.0569 100.721C92.8788 100.873 92.7006 101.056 92.5225 101.239C92.4928 101.269 92.4928 101.3 92.4632 101.3C92.3148 101.452 92.1663 101.604 92.0179 101.787C91.9586 101.848 91.8695 101.909 91.8101 101.97C91.6617 102.153 91.4836 102.335 91.3054 102.518C91.2757 102.579 91.2164 102.609 91.1867 102.67C90.9491 102.914 90.7413 103.158 90.5039 103.402C90.4741 103.432 90.4445 103.462 90.4148 103.493C89.9398 104.011 89.4352 104.529 88.9008 104.986C88.3664 105.473 87.8024 105.93 87.2384 106.326C86.6446 106.753 86.0806 107.118 85.4572 107.484C84.8635 107.819 84.2401 108.123 83.587 108.398C82.9635 108.672 82.3104 108.916 81.6574 109.129C80.4105 109.403 79.134 109.921 78.0356 110.012C77.7981 110.012 77.531 110.073 77.2935 110.104C77.0263 110.164 76.7888 110.226 76.5513 110.286C76.3138 110.378 76.0763 110.469 75.8389 110.561C75.6014 110.652 75.3639 110.774 75.1264 110.896C74.9186 111.048 74.6811 111.17 74.4733 111.322C74.2655 111.474 74.0577 111.657 73.8796 111.84C73.6718 111.992 73.464 112.206 73.2859 112.388C73.1077 112.602 72.9296 112.784 72.7812 112.998C72.6328 113.241 72.4546 113.455 72.3359 113.698C72.1874 113.912 72.039 114.155 71.9203 114.399C71.8015 114.673 71.6828 114.917 71.5937 115.191C71.5047 115.435 71.4156 115.709 71.3265 115.983C71.2672 116.227 71.2078 116.471 71.1781 116.714C71.1781 116.745 71.1484 116.775 71.1484 116.806C71.089 117.08 71.089 117.445 71.0593 117.628C71.0296 117.841 71 118.024 71 118.238C71 118.359 71 118.512 71.0297 118.634C71.0594 118.847 71.089 119.03 71.1485 119.212C71.2079 119.395 71.2673 119.578 71.3563 119.761C71.3563 119.791 71.3563 119.791 71.3563 119.791C71.4454 119.974 71.5641 120.157 71.6829 120.34C71.8017 120.522 71.9203 120.705 72.0688 120.888C72.2172 121.04 72.3954 121.223 72.5735 121.375C72.7516 121.558 72.9297 121.71 73.1375 121.863C73.85 122.503 74.0281 122.716 74.9484 123.203C75.0968 123.295 75.2452 123.356 75.4233 123.447C75.4531 123.447 75.4827 123.477 75.5124 123.477C75.5124 123.538 75.5124 123.569 75.5421 123.63C75.5719 123.873 75.6312 124.117 75.6905 124.361C75.7499 124.635 75.839 124.879 75.9281 125.092C76.0171 125.275 76.0765 125.457 76.1656 125.641C76.1953 125.701 76.2249 125.762 76.2546 125.793C76.3734 126.036 76.4921 126.249 76.6108 126.463C76.7593 126.676 76.9077 126.889 77.0562 127.103C77.2046 127.286 77.3827 127.499 77.5608 127.681C77.7389 127.865 77.9171 128.017 78.1248 128.199C78.1248 128.199 78.1546 128.23 78.1842 128.23C78.3623 128.382 78.5404 128.535 78.7185 128.657C78.9263 128.809 79.1341 128.931 79.3716 129.052C79.5794 129.174 79.8169 129.296 80.0544 129.388C80.2325 129.479 80.4403 129.54 80.6481 129.601C80.6779 129.631 80.7075 129.631 80.7669 129.662C80.8857 129.692 81.0341 129.723 81.1529 129.753C81.0638 131.398 81.0341 132.952 81.2716 133.5C81.5388 134.11 82.845 132.251 84.1512 130.118C83.9731 132.221 83.8543 134.688 84.1512 135.419C84.4777 136.181 86.2589 133.805 87.8026 131.185C108.85 126.189 128.057 141.116 130.076 162.197C129.69 158.907 125.742 157.079 123.931 157.536C123.04 159.79 121.526 162.685 119.092 164.482C119.3 162.471 119.211 160.4 118.795 158.389C118.142 161.192 116.866 163.812 115.114 166.066C112.294 166.28 109.474 164.878 107.989 162.776C107.87 162.685 107.841 162.502 107.752 162.38C107.663 162.167 107.574 161.953 107.514 161.74C107.425 161.527 107.366 161.314 107.336 161.1C107.306 160.887 107.306 160.674 107.306 160.43C107.306 160.278 107.306 160.126 107.306 159.974C107.336 159.76 107.395 159.547 107.455 159.334C107.514 159.121 107.574 158.907 107.663 158.694C107.781 158.481 107.87 158.268 108.019 158.054C108.524 156.592 108.524 155.404 107.603 154.703C107.425 154.581 107.247 154.49 107.039 154.399C106.92 154.368 106.772 154.307 106.653 154.276C106.564 154.246 106.505 154.215 106.416 154.185C106.208 154.124 106 154.063 105.792 154.033C105.585 153.972 105.377 153.941 105.169 153.941C104.961 153.911 104.724 153.881 104.516 153.881C104.367 153.881 104.219 153.911 104.071 153.911C103.833 153.911 103.625 153.941 103.417 154.002C103.21 154.033 103.002 154.063 102.794 154.124C102.586 154.185 102.378 154.246 102.171 154.338C101.963 154.429 101.785 154.52 101.577 154.612C101.399 154.703 101.221 154.825 101.013 154.916C94.096 159.547 98.2224 170.392 102.943 173.53C101.161 173.865 99.3505 174.261 98.8458 174.657C98.8161 174.688 98.7865 174.718 98.7865 174.718C100.063 175.51 101.399 176.181 102.794 176.759C104.694 177.399 106.713 177.978 107.603 178.221V178.252C110.067 178.77 112.561 178.952 115.084 178.8C128.235 177.856 139.011 167.59 140.971 154.063C141.03 154.338 141.089 154.581 141.149 154.855C141.238 155.404 141.356 155.983 141.416 156.561C141.416 156.561 141.416 156.561 141.416 156.592C141.475 156.866 141.505 157.14 141.535 157.384C141.535 157.445 141.535 157.476 141.535 157.506C141.565 157.78 141.594 158.055 141.594 158.298C141.624 158.633 141.653 158.968 141.653 159.303C141.653 159.455 141.653 159.608 141.653 159.791C141.653 159.943 141.683 160.126 141.683 160.278C141.683 160.461 141.653 160.644 141.653 160.826C141.653 160.979 141.653 161.131 141.653 161.253C141.653 161.466 141.624 161.649 141.624 161.863C141.624 161.984 141.624 162.106 141.594 162.258C141.594 162.471 141.564 162.685 141.564 162.929C141.534 163.02 141.534 163.111 141.534 163.203C141.505 163.447 141.475 163.66 141.446 163.903C141.446 163.995 141.446 164.086 141.416 164.178C141.386 164.482 141.326 164.756 141.297 165.061V165.092V165.122C141.238 165.396 141.178 165.701 141.119 165.975C141.119 166.006 141.119 166.036 141.119 166.066C141.059 166.34 141 166.615 140.941 166.889C140.941 166.919 140.911 166.98 140.911 167.011C140.852 167.285 140.792 167.559 140.703 167.834C140.703 167.864 140.703 167.894 140.703 167.925C140.614 168.23 140.525 168.503 140.465 168.778C140.436 168.808 140.436 168.839 140.436 168.839C140.347 169.143 140.258 169.448 140.169 169.753C140.05 170.057 139.961 170.332 139.842 170.636C139.724 170.941 139.634 171.246 139.516 171.52C139.397 171.824 139.278 172.098 139.16 172.403H139.13C139.011 172.677 138.892 172.982 138.744 173.256C138.714 173.347 138.684 173.409 138.654 173.469C138.625 173.5 138.625 173.53 138.595 173.561C136.665 177.552 133.816 181.055 130.254 183.797C130.016 183.949 129.778 184.132 129.541 184.315C129.482 184.375 129.393 184.406 129.333 184.467C129.125 184.619 128.917 184.771 128.68 184.924L128.769 185.107H128.799C129.214 185.046 129.63 184.984 130.046 184.924H130.075C130.847 184.802 131.619 184.65 132.391 184.497C132.599 184.467 132.836 184.406 133.044 184.345C133.192 184.314 133.311 184.284 133.46 184.253C133.668 184.223 133.875 184.162 134.083 184.132C134.261 184.071 134.439 184.04 134.617 183.979C137.586 183.248 140.465 182.243 143.226 181.055C138.506 187.666 132.183 192.997 124.791 196.5C128.205 196.256 131.619 195.678 134.914 194.703C146.878 191.077 156.942 182.821 162.968 171.702C161.751 178.739 159.019 185.442 154.982 191.29C157.862 189.341 160.504 187.087 162.908 184.528C169.558 177.399 173.922 168.351 175.406 158.633C176.416 163.447 176.713 168.412 176.267 173.317C197.701 142.64 178.048 110.835 169.825 102.458C169.796 102.397 169.766 102.366 169.766 102.305C169.736 102.336 169.736 102.336 169.736 102.366C169.736 102.336 169.736 102.336 169.706 102.305C169.706 102.671 169.676 103.036 169.647 103.402C169.558 104.103 169.469 104.773 169.35 105.443C169.202 106.113 169.024 106.783 168.845 107.454C168.638 108.093 168.401 108.764 168.133 109.403C167.866 110.013 167.569 110.652 167.243 111.262C166.916 111.841 166.56 112.45 166.174 112.998C165.788 113.577 165.372 114.125 164.957 114.643C164.511 115.192 164.036 115.679 163.562 116.166C163.265 116.441 162.997 116.684 162.701 116.928C162.463 117.141 162.255 117.324 162.018 117.537C161.484 117.964 160.949 118.36 160.356 118.725C159.792 119.091 159.198 119.456 158.604 119.761C157.98 120.066 157.357 120.34 156.734 120.614C156.11 120.858 155.457 121.071 154.804 121.254C154.151 121.437 153.468 121.589 152.815 121.711C152.132 121.833 151.45 121.894 150.796 121.955C150.322 121.985 149.846 122.015 149.371 122.015C148.689 122.015 148.006 121.955 147.353 121.894C146.67 121.833 145.987 121.741 145.334 121.589C144.651 121.467 143.998 121.284 143.345 121.071H143.315C143.969 121.01 144.622 120.949 145.275 120.827C145.958 120.705 146.611 120.553 147.264 120.37C147.917 120.188 148.57 119.974 149.193 119.731C149.846 119.487 150.47 119.182 151.063 118.878C151.687 118.573 152.251 118.238 152.845 117.872C153.409 117.476 153.973 117.08 154.507 116.654C155.041 116.227 155.546 115.77 156.021 115.283C156.526 114.826 156.971 114.308 157.416 113.79C157.862 113.242 158.277 112.693 158.663 112.145C158.722 112.054 158.782 111.932 158.841 111.84C159.138 111.353 159.435 110.866 159.702 110.378C160.029 109.769 160.326 109.16 160.593 108.52C160.86 107.88 161.097 107.24 161.305 106.57C161.513 105.93 161.661 105.26 161.81 104.59C161.929 103.889 162.048 103.219 162.107 102.549C162.166 101.848 162.225 101.148 162.225 100.477C162.225 99.9899 162.196 99.5025 162.166 99.0151C162.107 98.3144 162.018 97.6442 161.929 96.974C161.81 96.2733 161.661 95.6031 161.484 94.9329C161.276 94.2932 161.068 93.6229 160.83 92.9832C160.593 92.3435 160.296 91.7037 159.999 91.0944C159.672 90.4851 159.346 89.8759 158.99 89.2971C158.604 88.7182 158.218 88.1699 157.803 87.6215C157.357 87.1036 156.912 86.5857 156.437 86.0678C156.199 85.8241 155.932 85.55 155.665 85.3063C154.329 84.24 152.934 83.2347 151.539 82.3208C151.331 82.1989 151.153 82.1076 150.945 82.0161C149.965 81.3764 149.045 81.0411 148.125 80.7364Z" fill="#E0234E"/>
</g>
<defs>
<filter id="filter0_f_2043_38027" x="-20" y="25" width="298" height="184" filterUnits="userSpaceOnUse" color-interpolation-filters="sRGB">
<feFlood flood-opacity="0" result="BackgroundImageFix"/>
<feBlend mode="normal" in="SourceGraphic" in2="BackgroundImageFix" result="shape"/>
<feGaussianBlur stdDeviation="18.5" result="effect1_foregroundBlur_2043_38027"/>
</filter>
<filter id="filter1_ii_2043_38027" x="17" y="62" width="224" height="148" filterUnits="userSpaceOnUse" color-interpolation-filters="sRGB">
<feFlood flood-opacity="0" result="BackgroundImageFix"/>
<feBlend mode="normal" in="SourceGraphic" in2="BackgroundImageFix" result="shape"/>
<feColorMatrix in="SourceAlpha" type="matrix" values="0 0 0 0 0 0 0 0 0 0 0 0 0 0 0 0 0 0 127 0" result="hardAlpha"/>
<feOffset dy="-4"/>
<feComposite in2="hardAlpha" operator="arithmetic" k2="-1" k3="1"/>
<feColorMatrix type="matrix" values="0 0 0 0 0 0 0 0 0 0 0 0 0 0 0 0 0 0 0.25 0"/>
<feBlend mode="normal" in2="shape" result="effect1_innerShadow_2043_38027"/>
<feColorMatrix in="SourceAlpha" type="matrix" values="0 0 0 0 0 0 0 0 0 0 0 0 0 0 0 0 0 0 127 0" result="hardAlpha"/>
<feOffset dy="4"/>
<feComposite in2="hardAlpha" operator="arithmetic" k2="-1" k3="1"/>
<feColorMatrix type="matrix" values="0 0 0 0 1 0 0 0 0 1 0 0 0 0 1 0 0 0 0.25 0"/>
<feBlend mode="normal" in2="effect1_innerShadow_2043_38027" result="effect2_innerShadow_2043_38027"/>
</filter>
<linearGradient id="paint0_linear_2043_38027" x1="17" y1="34" x2="197.768" y2="215.142" gradientUnits="userSpaceOnUse">
<stop stop-color="#05815D"/>
<stop offset="1" stop-color="#0C575F"/>
</linearGradient>
<linearGradient id="paint1_linear_2043_38027" x1="17" y1="62" x2="241" y2="210" gradientUnits="userSpaceOnUse">
<stop stop-color="#5F585E"/>
<stop offset="1" stop-color="#010101"/>
</linearGradient>
<clipPath id="clip0_2043_38027">
<rect width="256" height="256" fill="white"/>
</clipPath>
</defs>
</svg>
