<svg xmlns="http://www.w3.org/2000/svg" xmlns:xlink="http://www.w3.org/1999/xlink" fill="none" version="1.1" width="256" height="256" viewBox="0 0 256 256"><defs><clipPath id="master_svg0_3_0"><rect x="0" y="0" width="256" height="256" rx="0"/></clipPath><mask id="master_svg1_3_00" style="mask-type:alpha" maskUnits="objectBoundingBox"><g><g><path d="M104.425,42.3784C100.056,37.0733,93.5437,34,86.6712,34L29,34C22.3726,34,17,39.3726,17,46L17,58.137100000000004L17,68.2L17,160C17,166.627,22.3726,172,29,172L229,172C235.627,172,241,166.627,241,160L241,70.1371C241,63.509699999999995,235.627,58.137100000000004,229,58.137100000000004L117.404,58.137100000000004L104.425,42.3784Z" fill-rule="evenodd" fill="#FFFFFF" fill-opacity="1" style="mix-blend-mode:passthrough"/></g></g></mask><filter id="master_svg2_3_03" filterUnits="objectBoundingBox" color-interpolation-filters="sRGB" x="-0.33035714285714285" y="-0.5362318840579711" width="1.6607142857142858" height="2.072463768115942"><feFlood flood-opacity="0" result="BackgroundImageFix"/><feBlend mode="normal" in="SourceGraphic" in2="BackgroundImageFix" result="shape"/><feGaussianBlur stdDeviation="18.5" result="effect1_foregroundBlur"/></filter><linearGradient x1="0" y1="0.5" x2="1" y2="0.5" id="master_svg3_4_490"><stop offset="0%" stop-color="#F16565" stop-opacity="1"/><stop offset="100%" stop-color="#B83434" stop-opacity="1"/></linearGradient><linearGradient x1="0" y1="0.5" x2="1" y2="0.5" id="master_svg4_4_084"><stop offset="0%" stop-color="#C40000" stop-opacity="1"/><stop offset="100%" stop-color="#9B0808" stop-opacity="1"/><stop offset="100%" stop-color="#FFFFFF" stop-opacity="1"/></linearGradient></defs><g clip-path="url(#master_svg0_3_0)"><g><path d="M104.425,42.3784C100.056,37.0733,93.5437,34,86.6712,34L29,34C22.3726,34,17,39.3726,17,46L17,58.137100000000004L17,68.2L17,160C17,166.627,22.3726,172,29,172L229,172C235.627,172,241,166.627,241,160L241,70.1371C241,63.509699999999995,235.627,58.137100000000004,229,58.137100000000004L117.404,58.137100000000004L104.425,42.3784Z" fill-rule="evenodd" fill="#E60026" fill-opacity="1" style="mix-blend-mode:passthrough"/></g><g mask="url(#master_svg1_3_00)"><g><g style="mix-blend-mode:multiply" filter="url(#master_svg2_3_03)"><g><path d="M92.789,49.054500000000004C97.7642,49.054500000000004,102.605,47.030699999999996,106.586,43.28664L116.459,34L229,34C235.627,34,241,40.74017,241,49.054500000000004L241,91.7091L241,156.945C241,165.259,235.627,172,229,172L29,172C22.3726,172,17,165.259,17,156.945L17,91.7091L17,64.1091C17,55.7947,22.3726,49.054500000000004,29,49.054500000000004L87,49.054500000000004L92.789,49.054500000000004Z" fill-rule="evenodd" fill="#000000" fill-opacity="0.30000001192092896" style="mix-blend-mode:passthrough"/></g></g></g></g><g><g><path d="M92.789,74C97.7642,74,102.605,72.3868,106.586,69.4024C112.9948,64.59736,120.789,62,128.799,62L229,62C235.627,62,241,67.3726,241,74L241,108L241,198C241,204.627,235.627,210,229,210L29,210C22.3726,210,17,204.627,17,198L17,108L17,86C17,79.3726,22.3726,74,29,74L87,74L92.789,74Z" fill-rule="evenodd" fill="#E60026" fill-opacity="1"/></g><g><path d="M106.59,69.4C102.61,72.38,97.77,74,92.79,74L29,74C22.37,74,17,79.37,17,86L17,90C17,83.37,22.37,78,29,78L92.79,78C97.77,78,102.61,76.39,106.59,73.4L116.46,66L229,66C235.63,66,241,71.37,241,78L241,74C241,67.37,235.63,62,229,62L116.46,62L106.59,69.4Z" fill-rule="evenodd" fill="url(#master_svg3_4_490)" fill-opacity="1" style="mix-blend-mode:passthrough"/></g></g><g><path d="M17,194L17,198C17,204.63,22.37,210,29,210L229,210C235.63,210,241,204.63,241,198L241,194C241,200.63,235.63,206,229,206L29,206C22.37,206,17,200.63,17,194Z" fill-rule="evenodd" fill="url(#master_svg4_4_084)" fill-opacity="1" style="mix-blend-mode:passthrough"/></g><g><path d="M129.2226,182C142.1449,182,154.696,175.207,161.1984,164.6943C169.1107,151.90879999999999,167.072,135.3401,156.3538,125.2981C151.9649,121.1849,146.2529,118.7713,140.2293,118.24080000000001C139.91,117.0253,139.4254,115.16550000000001,139.0523,113.77250000000001C138.7696,112.7423,138.6388,111.5731,138.9407,110.5313C139.0254,110.2419,139.1561,109.9776,139.2985,109.7114C139.9216,108.54801,141.089,107.74736,142.3833,107.53128C142.9699,107.43096,143.5738,107.46182,144.1489,107.61422999999999C144.7508,107.77437,145.3182,108.0599,145.8144,108.43419C146.3356,108.82969,146.7414,109.339,147.2165,109.7808C147.9857,110.5024,149.01659999999998,110.9423,150.1513,110.9423C152.5285,110.9423,154.4555,109.0091,154.4555,106.62451C154.4555,105.91646,154.2844,105.24892,153.9843,104.65856C153.9574,104.6084,153.9305,104.55631,153.9016,104.50615C153.8824,104.47142,153.8632,104.43862,153.8439,104.40389C153.3631,103.59166,152.6669,102.88361,151.9495,102.26624C150.5687,101.0778,148.93970000000002,100.18261,147.2088,99.62697C146.3952,99.364587,145.5567,99.183233,144.7066,99.0848397C142.8372,98.868758,140.9274,99.0674749,139.1408,99.65784C132.1036,101.99035,128.7283,108.56923,130.7439,116.0375C130.94389999999999,116.788,131.2901,118.1057,131.4709,118.7906C129.965,119.1147,128.4687,119.5604,127.0012,120.1276C120.12559999999999,122.78229999999999,114.6675,128.6821,112.7615,135.5214C112.08070000000001,137.9523,111.8499,140.47390000000001,112.0711,143.01670000000001C112.5481,148.51330000000002,115.4695,153.6278,119.88329999999999,156.707C124.0433,159.6048,129.0168,160.4537,133.898,159.1051C137.3521,158.1482,140.4216,156.0915,142.543,153.3095C145.899,148.9107,146.8991,143.1286,145.3605,137.0321C144.8009,134.8153,144.0969,132.34969999999998,143.4142,129.9651C143.168,129.1027,142.9218,128.2384,142.67759999999998,127.3798C145.5971,128.1322,148.2896,129.558,150.4783,131.6088C158.077,138.7299,159.54250000000002,150.99439999999998,153.8843,160.13920000000002C148.9147,168.1747,139.235,173.3664,129.2226,173.3664C112.3423,173.3664,98.6084,159.5893,98.6084,142.656C98.6084,141.1492,98.7238,139.6289,98.95459,138.1337C99.13729000000001,136.9279,99.39693,135.7259,99.72196,134.5587C100.0451,133.4069,100.4393,132.2648,100.8951,131.1593C101.349,130.0635,101.8702,128.9831,102.4472,127.9509C103.0184,126.9264,103.6588,125.9213,104.3493,124.9644C105.034,124.0151,105.7821,123.0949,106.5745,122.2248C107.3668,121.36240000000001,108.215,120.5347,109.0997,119.7668C109.9844,118.999,110.9248,118.2736,111.8942,117.6099C112.8654,116.9462,113.8866,116.3327,114.929,115.7886C115.5002,115.4877,116.0791,115.2079,116.6677,114.9475C116.98310000000001,114.8086,117.3023,114.6716,117.6235,114.5423C119.83330000000001,113.6587,120.9084,111.1487,120.0295,108.93387C119.1486,106.71712,116.6446,105.63478,114.4348,106.52226C114.0174,106.68818,113.6039,106.86567,113.1808,107.05088C112.4231,107.38658,111.6768,107.74929,110.94409999999999,108.13129C109.6074,108.83162,108.29769999999999,109.6188,107.0476,110.4734C105.80330000000001,111.3223,104.5993,112.2523,103.4665,113.2362C102.3318,114.2201,101.2413,115.2832,100.2316,116.3906C99.2123,117.5019,98.2526,118.68260000000001,97.3756,119.9C96.48899,121.1289,95.66776,122.4177,94.93693,123.7315C94.19456,125.0589,93.52335,126.4461,92.94253,127.8544C92.35402,129.2763,91.84628,130.7484,91.43471,132.22809999999998C91.01544,133.7272,90.682716,135.2745,90.444234,136.8237C90.149978,138.7511,89.9999640599,140.7132,89.9999640599,142.656C89.9999640599,164.3509,107.5957,182,129.2226,182ZM133.6807,127.1502C134.1365,128.8422,134.6384,130.5998,135.1385,132.3478C135.8135,134.7053,136.4828,137.0398,137.0156,139.1504C137.6368,141.618,137.91559999999998,145.166,135.7058,148.0618C134.7192,149.3545,133.2595,150.321,131.6055,150.7821C128.5687,151.6175,126.2262,150.6104,124.7953,149.6149C122.45660000000001,147.9827,120.9065,145.2373,120.6468,142.2682C120.5161,140.7652,120.6526,139.2778,121.0507,137.8501C122.2393,133.5825,125.705,129.8821,130.0938,128.1863C131.2728,127.731,132.4729,127.3856,133.6807,127.1502Z" fill-rule="evenodd" fill="#FFFFFF" fill-opacity="0.8999999761581421"/></g></g></svg>