<svg xmlns="http://www.w3.org/2000/svg" xmlns:xlink="http://www.w3.org/1999/xlink" fill="none" version="1.1" width="256" height="256" viewBox="0 0 256 256"><defs><clipPath id="master_svg0_12_028"><rect x="0" y="0" width="256" height="256" rx="0"/></clipPath><mask id="master_svg1_12_039" style="mask-type:luminance" maskUnits="userSpaceOnUse" x="17" y="34" width="224" height="138"><path d="M104.425003,42.3783989C100.056,37.073299399999996,93.543701,34,86.671204,34L29,34C22.3726006,34,17,39.3726006,17,46L17,58.137100000000004L17,68.199997L17,160C17,166.627,22.3726006,172,29,172L229,172C235.627,172,241,166.627,241,160L241,70.1371C241,63.509701,235.627,58.137100000000004,229,58.137100000000004L117.404,58.137100000000004L104.425003,42.3783989Z" fill-rule="evenodd" fill="#1D1E21" fill-opacity="1" style="mix-blend-mode:passthrough"/></mask><filter id="master_svg2_12_037" filterUnits="objectBoundingBox" color-interpolation-filters="sRGB" x="-0.33035714285714285" y="-0.5362318840579711" width="1.6607142857142858" height="2.072463768115942"><feFlood flood-opacity="0" result="BackgroundImageFix"/><feBlend mode="normal" in="SourceGraphic" in2="BackgroundImageFix" result="shape"/><feGaussianBlur stdDeviation="18.5" result="effect1_foregroundBlur"/></filter><linearGradient x1="-0.03118896484375" y1="0" x2="1.4024671995998657" y2="0.6105594654458093" id="master_svg3_10_2362"><stop offset="0%" stop-color="#303237" stop-opacity="1"/><stop offset="100%" stop-color="#0A0B0D" stop-opacity="1"/></linearGradient><linearGradient x1="0" y1="0.5" x2="1" y2="0.5" id="master_svg4_4_490"><stop offset="0%" stop-color="#F16565" stop-opacity="1"/><stop offset="100%" stop-color="#B83434" stop-opacity="1"/></linearGradient><linearGradient x1="0" y1="0.5" x2="1" y2="0.5" id="master_svg5_10_4776"><stop offset="0%" stop-color="#404040" stop-opacity="1"/><stop offset="100%" stop-color="#111111" stop-opacity="1"/><stop offset="100%" stop-color="#FFFFFF" stop-opacity="1"/></linearGradient><linearGradient x1="0.5000010132789612" y1="-2.516729757928715e-8" x2="0.5000010132789612" y2="0.9999994039535522" id="master_svg6_12_045"><stop offset="0%" stop-color="#DB0923" stop-opacity="1"/><stop offset="100%" stop-color="#FD3232" stop-opacity="1"/></linearGradient></defs><g clip-path="url(#master_svg0_12_028)"><path d="M104.425003,42.3783989C100.056,37.073299399999996,93.543701,34,86.671204,34L29,34C22.3726006,34,17,39.3726006,17,46L17,58.137100000000004L17,68.199997L17,160C17,166.627,22.3726006,172,29,172L229,172C235.627,172,241,166.627,241,160L241,70.1371C241,63.509701,235.627,58.137100000000004,229,58.137100000000004L117.404,58.137100000000004L104.425003,42.3783989Z" fill-rule="evenodd" fill="#26282C" fill-opacity="1" style="mix-blend-mode:passthrough"/><g mask="url(#master_svg1_12_039)"><g style="mix-blend-mode:multiply" filter="url(#master_svg2_12_037)"><path d="M92.789001,49.054545C97.764198,49.054545,102.605003,47.030716,106.585999,43.286644L116.459,34L229,34C235.627,34,241,40.7401667,241,49.054545L241,91.709091L241,156.94546C241,165.25932,235.627,172,229,172L29,172C22.3726006,172,17,165.25932,17,156.94546L17,91.709091L17,64.109091C17,55.794712000000004,22.3726006,49.054545,29,49.054545L87,49.054545L92.789001,49.054545Z" fill-rule="evenodd" fill="#000000" fill-opacity="1" style="mix-blend-mode:passthrough"/></g></g><path d="M92.789001,74C97.764198,74,102.605003,72.386803,106.585999,69.4023972L116.459,62L229,62C235.627,62,241,67.3725967,241,74L241,108L241,198C241,204.627,235.627,210,229,210L29,210C22.3726006,210,17,204.627,17,198L17,108L17,86C17,79.372597,22.3726006,74,29,74L87,74L92.789001,74Z" fill-rule="evenodd" fill="url(#master_svg3_10_2362)" fill-opacity="1" style="mix-blend-mode:passthrough"/><path d="M106.589996,69.4000015C102.609993,72.380005,97.769997,74,92.789993,74L29,74C22.3699989,74,17,79.370003,17,86L17,90C17,83.370003,22.3699989,78,29,78L92.790001,78C97.770004,78,102.610001,76.389999,106.590004,73.400002L116.460007,66L229,66C235.63,66,241,71.3700027,241,78L241,74C241,67.3700027,235.63,62,229,62L116.459999,62L106.589996,69.4000015Z" fill-rule="evenodd" fill="url(#master_svg4_4_490)" fill-opacity="1" style="mix-blend-mode:passthrough"/><path d="M17,194L17,198C17,204.630005,22.3699989,210,29,210L229,210C235.63,210,241,204.630005,241,198L241,194C241,200.6300049,235.63,206,229,206L29,206C22.3699989,206,17,200.6300049,17,194Z" fill-rule="evenodd" fill="url(#master_svg5_10_4776)" fill-opacity="1" style="mix-blend-mode:passthrough"/><path d="M163.95137,93.093234C163.911552,93.129434,163.869804,93.164195,163.827812,93.198718C163.740463,93.27087900000001,163.65311400000002,93.343279,163.584343,93.429826C159.738136,98.329578,154.805801,101.917007,149.142063,104.475489C145.45295,106.14286,141.68589,107.645775,137.919556,109.148451C136.639423,109.659332,135.359283,110.169971,134.082283,110.687084C132.965752,111.139948,131.836914,110.602217,131.489426,109.571827C131.135914,108.526331,131.674511,107.512239,132.841232,107.115959C137.802521,105.427244,142.645329,103.468828,147.363865,101.19635600000001C154.572216,97.723282,160.349609,92.685201,164.722107,86.1013145C165.50369999999998,84.9244914,166.20952599999998,83.6990018,166.91535199999998,82.4735601C167.32798,81.7572486,167.740387,81.0412482,168.16772500000002,80.33498162C168.4841,79.81496742,169.061302,79.909448229,168.994698,80.55539721C168.928093,81.2017531,168.862709,81.84842,168.79730999999998,82.4951839C168.075073,89.6376581,167.351631,96.792143,165.09250600000001,103.66086200000001C162.145897,112.62176500000001,156.210693,119.204239,147.717381,123.536289C146.412148,124.202042,145.062511,124.783405,143.712635,125.36525C142.61348,125.83897,141.513836,126.312691,140.437847,126.831963C138.835808,127.604877,137.282028,128.49262199999998,135.786156,129.450134C135.042686,129.925297,134.378124,130.60135300000002,133.853279,131.310257C131.880833,133.980453,133.5695,137.366982,137.062195,137.70933200000002C139.685448,137.965611,142.243317,137.448738,144.751225,136.741512C150.983967,134.98423400000001,155.905678,131.311699,160.082474,126.56393800000001C160.34671,126.26474400000001,160.613594,125.966755,160.885307,125.67331300000001C160.91523,125.64119,160.958908,125.62152499999999,161.017303,125.595158C161.050369,125.580532,161.08824900000002,125.563511,161.130966,125.540977C161.14978000000002,125.586285,161.172218,125.629917,161.194183,125.67235600000001C161.239792,125.760098,161.282265,125.84209100000001,161.281296,125.923595C161.22652399999998,131.703426,160.669823,137.405579,158.321167,142.790806C155.65399200000002,148.905548,150.783684,152.695557,144.622364,155.076866C141.463406,156.298096,138.171246,157.029289,134.8395,157.61759899999998C129.879665,158.493355,126.443203,162.407074,126.248951,167.358627C126.12612200000001,170.472801,126.83460199999999,173.351334,128.67651,175.92778800000002C128.79330099999999,176.09008799999998,128.902607,176.364113,128.83746,176.51154300000002C128.78412600000001,176.633804,128.461018,176.71412700000002,128.269905,176.69471C120.454908,175.899498,113.471214,173.251602,107.827147,167.71463C103.547116,163.51657899999998,101.067992,158.378532,99.9771357,152.592941C98.7921939,146.300797,99.6342373,140.251511,102.664101,134.564213C105.09921,129.990746,108.895248,126.697948,113.337532,124.066593C118.118322,121.23553100000001,123.308617,119.31140099999999,128.547646,117.500423C129.825611,117.058346,131.108646,116.629219,132.391922,116.199848C134.903694,115.35980599999999,137.41547,114.519527,139.888626,113.582153C143.60574,112.173458,146.964985,110.100449,150.087261,107.66855C151.152397,106.839058,152.303921,106.88509,153.029053,107.78027C153.725464,108.63949,153.538933,109.768412,152.546677,110.59047100000001C148.237885,114.154167,143.24304999999998,116.49065,137.993637,118.355328C136.145702,119.01124999999999,134.29439200000002,119.65782200000001,132.442833,120.304394L132.442833,120.304394C128.950871,121.52393699999999,125.459633,122.743237,121.991795,124.024876C119.037704,125.11784,116.262665,126.610203,113.647129,128.361488C106.625505,133.064419,103.26186799999999,139.617161,103.31954,147.922623C103.398423,159.187164,110.981403,168.922417,121.836876,171.66405500000002C122.792698,171.905479,122.874741,171.81150100000002,122.716927,170.824265C122.222242,167.736923,122.31032400000001,164.70640600000002,123.616764,161.785919C125.66932700000001,157.196136,129.435181,154.85942799999998,134.282566,153.92421000000002C137.552048,153.29273999999998,140.783882,152.537811,143.890965,151.313713C150.89444,148.55265,154.957584,143.446007,156.453445,136.267784C156.50870500000002,136.001198,156.55287199999998,135.73173500000001,156.607643,135.396347C156.635399,135.226131,156.666039,135.038895,156.70224000000002,134.826252C156.549736,134.917107,156.419907,134.991425,156.30552699999998,135.05687C156.10114299999998,135.173866,155.946465,135.262333,155.802643,135.365417C152.082405,138.050476,148.066315,140.128044,143.499561,141.030415C140.815739,141.560707,138.101261,141.909046,135.388721,141.261276C129.254681,139.792889,127.112347,132.857525,131.362019,128.288609C132.863922,126.674217,134.687725,125.460426,136.66452,124.507225C138.353188,123.693081,140.070816,122.936947,141.788933,122.18082L141.788933,122.18082C142.55653,121.843029,143.323647,121.50523799999999,144.088348,121.16241099999999C153.46750600000001,116.95982000000001,159.45001200000002,109.896433,162.32953600000002,100.246042C162.78537,98.720108,163.177246,97.176922,163.56937399999998,95.633492L163.56937399999998,95.633492C163.732254,94.991955,163.894905,94.351855,164.062126,93.712715C164.093979,93.58973,164.10508,93.461711,164.116173,93.333691C164.12101,93.278789,164.125595,93.22364999999999,164.132118,93.169229C164.09011800000002,93.150291,164.047653,93.13279,164.004692,93.11528799999999L163.95137,93.093234ZM127.411327,184.83019000000002C126.564098,184.74340999999998,125.71783099999999,184.65350999999998,124.876148,184.53269C109.31259,182.30025,97.9912205,174.51741800000002,93.0375566,159.587761C87.9245911,144.175774,92.291095,128.203499,107.760498,117.83102C111.893351,115.059658,116.425306,113.077267,121.046593,111.264851C121.630077,111.036383,122.211145,110.801199,122.791973,110.566015L122.791973,110.566015C123.400311,110.319571,124.007683,110.073599,124.618191,109.8353C125.803009,109.37212600000001,126.907478,109.79070899999999,127.314083,110.839079C127.726959,111.902315,127.182087,112.868938,125.994129,113.355843C124.802792,113.844425,123.603249,114.317429,122.403465,114.790672C119.412214,115.970177,116.420481,117.150166,113.55326099999999,118.571091C107.121754,121.75816,101.986025,126.4165,98.6072078,132.76067C95.61832,138.373646,94.5668933,144.373795,94.9947565,150.664268C95.6608143,160.457535,100.1714363,168.231255,107.942564,174.233078C111.985893,177.355904,116.740698,179.013451,121.71574,180.0918C125.476765,180.90617,129.287979,181.27274,133.14335599999998,181.18619999999999C134.132477,181.1639,134.93506200000002,181.70306,135.173233,182.54143C135.429745,183.44691,135.045826,184.28983,134.15081,184.79757999999998C133.779446,185.00664999999998,133.466461,185.00329,133.05624,184.99873C132.997364,184.99801,132.936558,184.99729000000002,132.873329,184.99729000000002L132.31421699999999,184.99706C130.672119,184.99729000000002,129.04788200000002,184.99752999999998,127.411327,184.83019000000002ZM127.056126,127.42507599999999C127.108486,127.332054,127.16977700000001,127.223694,127.248928,127.095673C127.086529,127.11869,126.950428,127.132114,126.832672,127.14362700000001C126.63142400000001,127.16328,126.483742,127.177666,126.35078,127.22657000000001C123.041725,128.46409599999998,119.825335,129.895325,116.90913,131.88658900000001C109.791994,136.744389,106.613462,144.56294300000002,108.57672099999999,152.580971C109.81171,157.626472,112.689859,161.564156,117.287018,164.22380099999998C117.939272,164.60066999999998,118.10311899999999,164.508377,118.233667,163.797798C118.367111,163.068283,118.502241,162.337074,118.675261,161.614746C120.40471600000001,154.403687,125.485935,150.18334199999998,132.99905,149.544456C135.934807,149.295609,138.85703999999998,148.845848,141.766968,148.37693000000002C143.657375,148.071503,145.50531,147.539764,147.146931,146.49451399999998C147.720524,146.12963100000002,148.152943,145.66501599999998,148.231846,144.964989C148.406315,143.42203899999998,146.917927,142.46764000000002,145.370419,143.06770699999998C144.951511,143.230007,144.53356200000002,143.400455,144.115379,143.571148C142.75802199999998,144.12493899999998,141.396324,144.68017600000002,139.981293,144.969536C138.191757,145.334892,136.375912,145.570557,134.559593,145.806465C133.27462,145.97331200000002,131.989422,146.140175,130.712658,146.35306500000002C123.92009,147.48486300000002,118.98027400000001,151.009727,116.279556,157.342148C116.223091,157.47375499999998,116.157698,157.60154699999998,116.08288999999999,157.74826000000002C116.04524599999999,157.822105,116.00519,157.900734,115.962477,157.986794C115.88791499999999,157.92086799999998,115.818176,157.8619,115.752783,157.806755C115.629232,157.702477,115.521126,157.61113,115.42388,157.50876599999998C113.314848,155.291435,112.104206,152.64785,111.885727,149.644173C111.391119,142.85769299999998,114.44972,137.76591100000002,119.920891,133.885036C120.05795499999999,133.787464,120.212633,133.71291,120.395063,133.625168C120.491346,133.578651,120.59510399999999,133.528553,120.708279,133.46957C120.737478,133.858429,120.756783,134.23601200000002,120.775848,134.60496899999998C120.817835,135.42535,120.857891,136.202099,120.998093,136.960388C121.142393,137.741936,121.385389,138.506454,121.633692,139.287766C121.743248,139.631542,121.853527,139.978683,121.956808,140.332062C121.915058,140.352432,121.867283,140.37569,121.815399,140.40109999999999C121.6682,140.472546,121.486979,140.560772,121.307447,140.652107C119.262362,141.688728,117.432526,142.984272,116.155043,144.909843C115.323734,146.16391,116.026186,147.72148099999998,117.497921,147.898888C118.333811,147.998627,118.942148,147.592026,119.42765800000001,146.95313299999998C120.681011,145.304451,122.274128,144.078911,124.243439,143.361134C124.768044,143.169346,125.302784,143.004173,125.83752100000001,142.838753C126.21661399999999,142.721764,126.595707,142.604534,126.97118,142.477943C127.599312,142.266499,127.710064,141.917915,127.265579,141.43556999999998C125.792397,139.838917,124.94274899999999,137.950741,124.675861,135.843452C124.30400499999999,132.906673,124.577168,130.095032,126.805885,127.800022C126.89710199999999,127.706524,126.96297799999999,127.590012,127.056126,127.42507599999999Z" fill-rule="evenodd" fill="url(#master_svg6_12_045)" fill-opacity="1" style="mix-blend-mode:passthrough"/></g></svg>