<svg xmlns="http://www.w3.org/2000/svg" xmlns:xlink="http://www.w3.org/1999/xlink" fill="none" version="1.1" width="256" height="256" viewBox="0 0 256 256"><defs><clipPath id="master_svg0_12_046"><rect x="0" y="0" width="256" height="256" rx="0"/></clipPath><mask id="master_svg1_12_058" style="mask-type:luminance" maskUnits="userSpaceOnUse" x="17" y="34" width="224" height="138"><path d="M104.425003,42.3783989C100.056,37.073299399999996,93.543701,34,86.671204,34L29,34C22.3726006,34,17,39.3726006,17,46L17,58.137100000000004L17,68.199997L17,160C17,166.627,22.3726006,172,29,172L229,172C235.627,172,241,166.627,241,160L241,70.1371C241,63.509701,235.627,58.137100000000004,229,58.137100000000004L117.404,58.137100000000004L104.425003,42.3783989Z" fill-rule="evenodd" fill="#FFFFFF" fill-opacity="1" style="mix-blend-mode:passthrough"/></mask><filter id="master_svg2_12_056" filterUnits="objectBoundingBox" color-interpolation-filters="sRGB" x="-0.33035714285714285" y="-0.5362318840579711" width="1.6607142857142858" height="2.072463768115942"><feFlood flood-opacity="0" result="BackgroundImageFix"/><feBlend mode="normal" in="SourceGraphic" in2="BackgroundImageFix" result="shape"/><feGaussianBlur stdDeviation="18.5" result="effect1_foregroundBlur"/></filter><linearGradient x1="0" y1="0.5" x2="1" y2="0.5" id="master_svg3_4_490"><stop offset="0%" stop-color="#F16565" stop-opacity="1"/><stop offset="100%" stop-color="#B83434" stop-opacity="1"/></linearGradient><linearGradient x1="0" y1="0.5" x2="1" y2="0.5" id="master_svg4_4_084"><stop offset="0%" stop-color="#C40000" stop-opacity="1"/><stop offset="100%" stop-color="#9B0808" stop-opacity="1"/><stop offset="100%" stop-color="#FFFFFF" stop-opacity="1"/></linearGradient></defs><g clip-path="url(#master_svg0_12_046)"><path d="M104.425003,42.3783989C100.056,37.073299399999996,93.543701,34,86.671204,34L29,34C22.3726006,34,17,39.3726006,17,46L17,58.137100000000004L17,68.199997L17,160C17,166.627,22.3726006,172,29,172L229,172C235.627,172,241,166.627,241,160L241,70.1371C241,63.509701,235.627,58.137100000000004,229,58.137100000000004L117.404,58.137100000000004L104.425003,42.3783989Z" fill-rule="evenodd" fill="#E60026" fill-opacity="1" style="mix-blend-mode:passthrough"/><g mask="url(#master_svg1_12_058)"><g style="mix-blend-mode:multiply" filter="url(#master_svg2_12_056)"><path d="M92.789001,49.054545C97.764198,49.054545,102.605003,47.030716,106.585999,43.286644L116.459,34L229,34C235.627,34,241,40.7401667,241,49.054545L241,91.709091L241,156.94546C241,165.25932,235.627,172,229,172L29,172C22.3726006,172,17,165.25932,17,156.94546L17,91.709091L17,64.109091C17,55.794712000000004,22.3726006,49.054545,29,49.054545L87,49.054545L92.789001,49.054545Z" fill-rule="evenodd" fill="#000000" fill-opacity="0.30000001192092896" style="mix-blend-mode:passthrough"/></g></g><path d="M92.789001,74C97.764198,74,102.605003,72.386803,106.585999,69.4023972C112.994751,64.5973601,120.78881,62,128.79883999999998,62L229,62C235.627,62,241,67.3725967,241,74L241,108L241,198C241,204.627,235.627,210,229,210L29,210C22.3726006,210,17,204.627,17,198L17,108L17,86C17,79.372597,22.3726006,74,29,74L87,74L92.789001,74Z" fill-rule="evenodd" fill="#E60026" fill-opacity="1"/><path d="M106.589996,69.4000015C102.609993,72.380005,97.769997,74,92.789993,74L29,74C22.3699989,74,17,79.370003,17,86L17,90C17,83.370003,22.3699989,78,29,78L92.790001,78C97.770004,78,102.610001,76.389999,106.590004,73.400002L116.460007,66L229,66C235.63,66,241,71.3700027,241,78L241,74C241,67.3700027,235.63,62,229,62L116.459999,62L106.589996,69.4000015Z" fill-rule="evenodd" fill="url(#master_svg3_4_490)" fill-opacity="1" style="mix-blend-mode:passthrough"/><path d="M17,194L17,198C17,204.630005,22.3699989,210,29,210L229,210C235.63,210,241,204.630005,241,198L241,194C241,200.6300049,235.63,206,229,206L29,206C22.3699989,206,17,200.6300049,17,194Z" fill-rule="evenodd" fill="url(#master_svg4_4_084)" fill-opacity="1" style="mix-blend-mode:passthrough"/><path d="M162.95137,92.093234C162.911552,92.129434,162.869804,92.164195,162.827812,92.198718C162.740463,92.27087900000001,162.65311400000002,92.343279,162.584343,92.429826C158.738136,97.329578,153.805801,100.917007,148.142063,103.475489C144.45295,105.14286,140.68589,106.645775,136.919556,108.148451C135.639423,108.659332,134.359283,109.169971,133.082283,109.687084C131.965752,110.139948,130.836914,109.602217,130.489426,108.571827C130.135914,107.526331,130.674511,106.512239,131.841232,106.115959C136.802521,104.427244,141.645329,102.468828,146.363865,100.19635600000001C153.572216,96.723282,159.349609,91.685201,163.722107,85.1013145C164.50369999999998,83.9244914,165.20952599999998,82.6990018,165.91535199999998,81.4735601C166.32798,80.7572486,166.740387,80.0412482,167.16772500000002,79.33498162C167.4841,78.81496742,168.061302,78.909448229,167.994698,79.55539721C167.928093,80.2017531,167.862709,80.84842,167.79730999999998,81.4951839C167.075073,88.6376581,166.351631,95.792143,164.09250600000001,102.66086200000001C161.145897,111.62176500000001,155.210693,118.204239,146.717381,122.536289C145.412148,123.202042,144.062511,123.783405,142.712635,124.36525C141.61348,124.83897,140.513836,125.312691,139.437847,125.831963C137.835808,126.604877,136.282028,127.492622,134.786156,128.450134C134.042686,128.925297,133.378124,129.60135300000002,132.853279,130.310257C130.880833,132.980453,132.5695,136.366982,136.062195,136.70933200000002C138.685448,136.965611,141.243317,136.448738,143.751225,135.741512C149.983967,133.98423400000001,154.905678,130.311699,159.082474,125.56393800000001C159.34671,125.26474400000001,159.613594,124.966755,159.885307,124.67331300000001C159.91523,124.64119,159.958908,124.62152499999999,160.017303,124.595158C160.050369,124.580532,160.08824900000002,124.563511,160.130966,124.540977C160.14978000000002,124.586285,160.172218,124.629917,160.194183,124.67235600000001C160.239792,124.760098,160.282265,124.84209100000001,160.281296,124.923595C160.22652399999998,130.703426,159.669823,136.405579,157.321167,141.790806C154.65399200000002,147.905548,149.783684,151.695557,143.622364,154.076866C140.463406,155.298096,137.171246,156.029289,133.8395,156.61759899999998C128.879665,157.493355,125.443203,161.407074,125.248951,166.358627C125.12612200000001,169.472801,125.83460199999999,172.351334,127.67651000000001,174.92778800000002C127.793301,175.09008799999998,127.902607,175.364113,127.83746,175.51154300000002C127.784126,175.633804,127.461018,175.71412700000002,127.269905,175.69471C119.454908,174.899498,112.471214,172.251602,106.827147,166.71463C102.547116,162.51657899999998,100.067992,157.378532,98.9771357,151.592941C97.7921939,145.300797,98.6342373,139.251511,101.664101,133.564213C104.09921,128.990746,107.895248,125.697948,112.337532,123.066593C117.118322,120.23553100000001,122.308617,118.31140099999999,127.547646,116.500423C128.825611,116.058346,130.108646,115.629219,131.391922,115.199848C133.903694,114.35980599999999,136.41547,113.519527,138.888626,112.582153C142.60574,111.173458,145.964985,109.100449,149.087261,106.66855C150.152397,105.839058,151.303921,105.88509,152.029053,106.78027C152.725464,107.63949,152.538933,108.768412,151.546677,109.59047100000001C147.237885,113.154167,142.24304999999998,115.49065,136.993637,117.355328C135.145702,118.01124999999999,133.29439200000002,118.65782200000001,131.442833,119.304394L131.442833,119.304394C127.950871,120.52393699999999,124.459633,121.743237,120.991795,123.024876C118.037704,124.11784,115.262665,125.610203,112.647129,127.36148800000001C105.625505,132.064419,102.26186799999999,138.617161,102.31954,146.922623C102.398423,158.187164,109.981403,167.922417,120.836876,170.66405500000002C121.792698,170.905479,121.874741,170.81150100000002,121.716927,169.824265C121.222242,166.736923,121.31032400000001,163.70640600000002,122.616764,160.785919C124.66932700000001,156.196136,128.435181,153.85942799999998,133.282566,152.92421000000002C136.552048,152.29273999999998,139.783882,151.537811,142.890965,150.313713C149.89444,147.55265,153.957584,142.446007,155.453445,135.267784C155.50870500000002,135.001198,155.55287199999998,134.73173500000001,155.607643,134.396347C155.635399,134.226131,155.666039,134.038895,155.70224000000002,133.826252C155.549736,133.917107,155.419907,133.991425,155.30552699999998,134.05687C155.10114299999998,134.173866,154.946465,134.262333,154.802643,134.365417C151.082405,137.050476,147.066315,139.128044,142.499561,140.030415C139.815739,140.560707,137.101261,140.909046,134.388721,140.261276C128.254681,138.792889,126.112347,131.857525,130.362019,127.28860900000001C131.863922,125.674217,133.687725,124.460426,135.66452,123.507225C137.353188,122.693081,139.070816,121.936947,140.788933,121.18082L140.788933,121.18082C141.55653,120.843029,142.323647,120.50523799999999,143.088348,120.16241099999999C152.46750600000001,115.95982000000001,158.45001200000002,108.896433,161.32953600000002,99.246042C161.78537,97.720108,162.177246,96.176922,162.56937399999998,94.633492L162.56937399999998,94.633492C162.732254,93.991955,162.894905,93.351855,163.062126,92.712715C163.093979,92.58973,163.10508,92.461711,163.116173,92.333691C163.12101,92.278789,163.125595,92.22364999999999,163.132118,92.169229C163.09011800000002,92.150291,163.047653,92.13279,163.004692,92.11528799999999L162.95137,92.093234ZM126.411327,183.83019000000002C125.564098,183.74340999999998,124.71783099999999,183.65350999999998,123.876148,183.53269C108.31259,181.30025,96.9912205,173.51741800000002,92.0375566,158.587761C86.9245911,143.175774,91.291095,127.203499,106.760498,116.83102C110.893351,114.059658,115.425306,112.077267,120.046593,110.264851C120.630077,110.036383,121.211145,109.801199,121.791973,109.566015L121.791973,109.566015C122.400311,109.319571,123.007683,109.073599,123.618191,108.8353C124.803009,108.37212600000001,125.907478,108.79070899999999,126.314083,109.839079C126.726959,110.902315,126.182087,111.868938,124.994129,112.355843C123.802792,112.844425,122.603249,113.317429,121.403465,113.790672C118.412214,114.970177,115.420481,116.150166,112.55326099999999,117.571091C106.121754,120.75816,100.986025,125.4165,97.6072078,131.76067C94.61832,137.373646,93.5668933,143.373795,93.9947565,149.664268C94.6608143,159.457535,99.1714363,167.231255,106.942564,173.233078C110.985893,176.355904,115.740698,178.013451,120.71574,179.0918C124.476765,179.90617,128.287979,180.27274,132.14335599999998,180.18619999999999C133.132477,180.1639,133.93506200000002,180.70306,134.173233,181.54143C134.429745,182.44691,134.045826,183.28983,133.15081,183.79757999999998C132.779446,184.00664999999998,132.466461,184.00329,132.05624,183.99873C131.997364,183.99801,131.936558,183.99729000000002,131.873329,183.99729000000002L131.31421699999999,183.99706C129.672119,183.99729000000002,128.04788200000002,183.99752999999998,126.411327,183.83019000000002ZM126.056126,126.42507599999999C126.108486,126.332054,126.16977700000001,126.223694,126.248928,126.095673C126.086529,126.11869,125.950428,126.132114,125.832672,126.14362700000001C125.63142400000001,126.16328,125.483742,126.177666,125.35078,126.22657000000001C122.041725,127.464096,118.825335,128.895325,115.90913,130.88658900000001C108.791994,135.744389,105.613462,143.56294300000002,107.57672099999999,151.580971C108.81171,156.626472,111.689859,160.564156,116.287018,163.22380099999998C116.939272,163.60066999999998,117.10311899999999,163.508377,117.233667,162.797798C117.367111,162.068283,117.502241,161.337074,117.675261,160.614746C119.40471600000001,153.403687,124.485935,149.18334199999998,131.99905,148.544456C134.934807,148.295609,137.85703999999998,147.845848,140.766968,147.37693000000002C142.657375,147.071503,144.50531,146.539764,146.146931,145.49451399999998C146.720524,145.12963100000002,147.152943,144.66501599999998,147.231846,143.964989C147.406315,142.42203899999998,145.917927,141.46764000000002,144.370419,142.06770699999998C143.951511,142.230007,143.53356200000002,142.400455,143.115379,142.571148C141.75802199999998,143.12493899999998,140.396324,143.68017600000002,138.981293,143.969536C137.191757,144.334892,135.375912,144.570557,133.559593,144.806465C132.27462,144.97331200000002,130.989422,145.140175,129.712658,145.35306500000002C122.92009,146.48486300000002,117.98027400000001,150.009727,115.279556,156.342148C115.223091,156.47375499999998,115.157698,156.60154699999998,115.08288999999999,156.74826000000002C115.04524599999999,156.822105,115.00519,156.900734,114.962477,156.986794C114.88791499999999,156.92086799999998,114.818176,156.8619,114.752783,156.806755C114.629232,156.702477,114.521126,156.61113,114.42388,156.50876599999998C112.314848,154.291435,111.104206,151.64785,110.885727,148.644173C110.391119,141.85769299999998,113.44972,136.76591100000002,118.920891,132.885036C119.05795499999999,132.787464,119.212633,132.71291,119.395063,132.625168C119.491346,132.578651,119.59510399999999,132.528553,119.708279,132.46957C119.737478,132.858429,119.756783,133.23601200000002,119.775848,133.60496899999998C119.817835,134.42535,119.857891,135.202099,119.998093,135.960388C120.142393,136.741936,120.385389,137.506454,120.633692,138.287766C120.743248,138.631542,120.853527,138.978683,120.956808,139.332062C120.915058,139.352432,120.867283,139.37569,120.815399,139.40109999999999C120.6682,139.472546,120.486979,139.560772,120.307447,139.652107C118.262362,140.688728,116.432526,141.984272,115.155043,143.909843C114.323734,145.16391,115.026186,146.72148099999998,116.497921,146.898888C117.333811,146.998627,117.942148,146.592026,118.42765800000001,145.95313299999998C119.681011,144.304451,121.274128,143.078911,123.243439,142.361134C123.768044,142.169346,124.302784,142.004173,124.83752100000001,141.838753C125.21661399999999,141.721764,125.595707,141.604534,125.97118,141.477943C126.599312,141.266499,126.710064,140.917915,126.265579,140.43556999999998C124.792397,138.838917,123.94274899999999,136.950741,123.675861,134.843452C123.30400499999999,131.906673,123.577168,129.095032,125.805885,126.800022C125.89710199999999,126.706524,125.96297799999999,126.590012,126.056126,126.42507599999999Z" fill-rule="evenodd" fill="#FFFFFF" fill-opacity="1" style="mix-blend-mode:passthrough"/></g></svg>