<?xml version="1.0" encoding="UTF-8" standalone="no"?>
<svg
   width="256"
   height="256"
   viewBox="0 0 256 256"
   fill="none"
   version="1.1"
   id="svg17"
   sodipodi:docname="netease.svg"
   xml:space="preserve"
   inkscape:version="1.4 (86a8ad7, 2024-10-11)"
   xmlns:inkscape="http://www.inkscape.org/namespaces/inkscape"
   xmlns:sodipodi="http://sodipodi.sourceforge.net/DTD/sodipodi-0.dtd"
   xmlns:xlink="http://www.w3.org/1999/xlink"
   xmlns="http://www.w3.org/2000/svg"
   xmlns:svg="http://www.w3.org/2000/svg"><sodipodi:namedview
     id="namedview17"
     pagecolor="#ffffff"
     bordercolor="#000000"
     borderopacity="0.25"
     inkscape:showpageshadow="2"
     inkscape:pageopacity="0.0"
     inkscape:pagecheckerboard="0"
     inkscape:deskcolor="#d1d1d1"
     inkscape:zoom="0.76373057"
     inkscape:cx="64.813433"
     inkscape:cy="49.101086"
     inkscape:window-width="1366"
     inkscape:window-height="745"
     inkscape:window-x="-8"
     inkscape:window-y="-8"
     inkscape:window-maximized="1"
     inkscape:current-layer="svg17" /><path
     fill-rule="evenodd"
     clip-rule="evenodd"
     d="M104.425 42.3784C100.056 37.0733 93.5437 34 86.6712 34H29C22.3726 34 17 39.3726 17 46V58.1371V68.2V160C17 166.627 22.3726 172 29 172H229C235.627 172 241 166.627 241 160V70.1371C241 63.5097 235.627 58.1371 229 58.1371H117.404L104.425 42.3784Z"
     fill="#252323"
     id="path1"
     style="fill:#c12a2f;fill-opacity:1.0" /><mask
     id="mask0_843_30811"
     style="mask-type:alpha"
     maskUnits="userSpaceOnUse"
     x="17"
     y="34"
     width="224"
     height="138"><path
       fill-rule="evenodd"
       clip-rule="evenodd"
       d="M104.425 42.3784C100.056 37.0733 93.5437 34 86.6712 34H29C22.3726 34 17 39.3726 17 46V58.1371V68.2V160C17 166.627 22.3726 172 29 172H229C235.627 172 241 166.627 241 160V70.1371C241 63.5097 235.627 58.1371 229 58.1371H117.404L104.425 42.3784Z"
       fill="url(#paint0_linear_843_30811)"
       id="path2" /></mask><g
     mask="url(#mask0_843_30811)"
     id="g4"><g
       style="mix-blend-mode:multiply"
       filter="url(#filter0_f_843_30811)"
       id="g3"><path
         fill-rule="evenodd"
         clip-rule="evenodd"
         d="M92.789 74C97.7642 74 102.605 72.3868 106.586 69.4024L116.459 62H229C235.627 62 241 67.3726 241 74V108V160C241 166.627 235.627 172 229 172H29C22.3726 172 17 166.627 17 160L17 108V86C17 79.3726 22.3726 74 29 74H87H92.789Z"
         fill="black"
         fill-opacity="0.3"
         id="path3" /></g></g><g
     filter="url(#filter1_ii_843_30811)"
     id="g5"><path
       fill-rule="evenodd"
       clip-rule="evenodd"
       d="M92.789 74C97.7642 74 102.605 72.3868 106.586 69.4024L116.459 62H229C235.627 62 241 67.3726 241 74V108V198C241 204.627 235.627 210 229 210H29C22.3726 210 17 204.627 17 198L17 108V86C17 79.3726 22.3726 74 29 74H87H92.789Z"
       fill="url(#paint1_linear_843_30811)"
       id="path4"
       style="fill:url(#linearGradient19);fill-opacity:1" /></g><defs
     id="defs17"><linearGradient
       id="linearGradient17"
       inkscape:collect="always"><stop
         style="stop-color:#ffffff;stop-opacity:1;"
         offset="0"
         id="stop18" /><stop
         style="stop-color:#dedede;stop-opacity:1;"
         offset="1"
         id="stop19" /></linearGradient><filter
       id="filter0_f_843_30811"
       x="-20"
       y="25"
       width="298"
       height="184"
       filterUnits="userSpaceOnUse"
       color-interpolation-filters="sRGB"><feFlood
         flood-opacity="0"
         result="BackgroundImageFix"
         id="feFlood7" /><feBlend
         mode="normal"
         in="SourceGraphic"
         in2="BackgroundImageFix"
         result="shape"
         id="feBlend7" /><feGaussianBlur
         stdDeviation="18.5"
         result="effect1_foregroundBlur_843_30811"
         id="feGaussianBlur7" /></filter><filter
       id="filter1_ii_843_30811"
       x="17"
       y="62"
       width="224"
       height="148"
       filterUnits="userSpaceOnUse"
       color-interpolation-filters="sRGB"><feFlood
         flood-opacity="0"
         result="BackgroundImageFix"
         id="feFlood8" /><feBlend
         mode="normal"
         in="SourceGraphic"
         in2="BackgroundImageFix"
         result="shape"
         id="feBlend8" /><feColorMatrix
         in="SourceAlpha"
         type="matrix"
         values="0 0 0 0 0 0 0 0 0 0 0 0 0 0 0 0 0 0 127 0"
         result="hardAlpha"
         id="feColorMatrix8" /><feOffset
         dy="-4"
         id="feOffset8" /><feComposite
         in2="hardAlpha"
         operator="arithmetic"
         k2="-1"
         k3="1"
         id="feComposite8" /><feColorMatrix
         type="matrix"
         values="0 0 0 0 0 0 0 0 0 0 0 0 0 0 0 0 0 0 0.25 0"
         id="feColorMatrix9" /><feBlend
         mode="normal"
         in2="shape"
         result="effect1_innerShadow_843_30811"
         id="feBlend9" /><feColorMatrix
         in="SourceAlpha"
         type="matrix"
         values="0 0 0 0 0 0 0 0 0 0 0 0 0 0 0 0 0 0 127 0"
         result="hardAlpha"
         id="feColorMatrix10" /><feOffset
         dy="4"
         id="feOffset10" /><feComposite
         in2="hardAlpha"
         operator="arithmetic"
         k2="-1"
         k3="1"
         id="feComposite10" /><feColorMatrix
         type="matrix"
         values="0 0 0 0 1 0 0 0 0 1 0 0 0 0 1 0 0 0 0.25 0"
         id="feColorMatrix11" /><feBlend
         mode="normal"
         in2="effect1_innerShadow_843_30811"
         result="effect2_innerShadow_843_30811"
         id="feBlend11" /></filter><linearGradient
       id="paint0_linear_843_30811"
       x1="17"
       y1="34"
       x2="197.768"
       y2="215.142"
       gradientUnits="userSpaceOnUse"><stop
         stop-color="#05815D"
         id="stop11" /><stop
         offset="1"
         stop-color="#0C575F"
         id="stop12" /></linearGradient><linearGradient
       id="paint1_linear_843_30811"
       x1="17"
       y1="62"
       x2="241"
       y2="210"
       gradientUnits="userSpaceOnUse"
       xlink:href="#paint0_linear_843_30811"><stop
         stop-color="#FCEE39"
         id="stop13" /><stop
         offset="1"
         stop-color="#7C59A4"
         id="stop17" /></linearGradient><linearGradient
       inkscape:collect="always"
       xlink:href="#linearGradient17"
       id="linearGradient19"
       x1="17"
       y1="136"
       x2="241"
       y2="136"
       gradientUnits="userSpaceOnUse" /></defs><path
     style="display:inline;fill:#c12a2f;fill-opacity:1;stroke-width:0.120729"
     d="m 88.46384,198.93207 c -1.933097,-0.42981 -3.576415,-1.78422 -4.518844,-3.72441 -0.461839,-0.95079 -0.544909,-1.29464 -0.543371,-2.24917 0.0026,-1.46053 0.512079,-2.47396 2.034164,-4.0443 1.756489,-1.81219 2.923492,-2.28505 7.132827,-2.89012 3.040957,-0.43714 5.207803,-1.07178 7.646154,-2.23954 1.32615,-0.6351 2.64365,-1.14149 3.38042,-1.29929 2.10335,-0.4505 6.96003,-2.47227 9.36555,-3.89876 0.50299,-0.29829 1.44468,-1.00948 2.09263,-1.58043 0.76011,-0.66979 1.76186,-1.33221 2.82347,-1.86705 0.91797,-0.46247 2.30567,-1.35324 3.13894,-2.0149 0.82147,-0.65227 4.02888,-2.77002 7.12758,-4.70612 3.0987,-1.93609 6.2135,-3.93837 6.92178,-4.4495 0.70828,-0.51114 1.91538,-1.33629 2.68243,-1.83365 0.87267,-0.56584 1.64728,-1.22389 2.06962,-1.75819 0.44185,-0.55899 1.18326,-1.17819 2.14673,-1.7929 2.21455,-1.41294 4.5404,-3.07461 5.97345,-4.26767 2.26435,-1.88516 3.98762,-2.50692 5.70691,-2.0591 1.83049,0.47678 2.75257,1.52737 2.74607,3.12879 -0.008,1.67342 -1.034,3.09291 -3.33857,4.6135 -0.85611,0.56488 -1.5951,1.21501 -2.07412,1.82472 -0.91704,1.16725 -5.58295,5.0703 -7.13956,5.97226 -0.39839,0.23085 -1.14589,0.87997 -1.66109,1.44248 -2.33409,2.54853 -4.20403,4.12361 -5.86553,4.94061 -0.74443,0.36606 -0.88243,0.51377 -1.14648,1.22712 -0.16507,0.44605 -0.38467,1.31804 -0.48799,1.93779 -0.10328,0.61973 -0.29948,1.47087 -0.43594,1.89141 l -0.24811,0.76463 -0.99314,6e-4 c -0.54623,2.3e-4 -1.82088,0.078 -2.83258,0.17285 -2.17088,0.20333 -2.41706,0.33684 -4.43844,2.40689 -1.54195,1.57906 -2.4432,2.18849 -4.73398,3.20115 -1.99995,0.88409 -2.77623,1.38729 -4.30615,2.7913 -1.13172,1.03857 -2.70435,1.99551 -4.56198,2.77595 -0.57549,0.24177 -2.05482,0.91059 -3.28744,1.48625 -2.82234,1.31814 -4.13418,1.76539 -6.0057,2.04761 -1.57498,0.2375 -2.12972,0.48351 -4.849499,2.15062 -0.739967,0.45357 -1.904941,1.04045 -2.588822,1.30419 -1.975055,0.76166 -5.009026,1.02185 -6.931389,0.59443 z m 56.74251,-0.0442 c -0.35414,-0.13499 -1.63215,-0.44444 -2.84005,-0.68766 -2.85015,-0.57392 -3.4788,-0.92432 -4.13326,-2.30386 -0.26252,-0.55336 -0.91154,-1.49656 -1.44226,-2.09598 -0.53073,-0.59944 -1.03771,-1.28758 -1.12666,-1.52924 -0.089,-0.24165 -0.2791,-0.77008 -0.42257,-1.17429 -0.14346,-0.40422 -0.58317,-1.22568 -0.97712,-1.82547 -0.99911,-1.5212 -1.404,-2.66511 -1.48671,-4.20042 -0.0601,-1.11451 -0.019,-1.38521 0.30418,-2.01214 1.08252,-2.09924 4.00963,-1.84982 7.26473,0.61903 1.43316,1.08699 1.77366,1.25221 3.18942,1.54756 2.20554,0.46013 3.57341,0.32303 8.75307,-0.87734 3.94663,-0.91461 6.01768,-1.76236 7.2333,-2.96077 0.46895,-0.46229 0.94578,-0.75796 1.41164,-0.87526 1.50414,-0.37876 4.78967,-3.22428 6.69033,-5.79436 0.49388,-0.66781 1.41064,-1.77115 2.03722,-2.45184 1.3189,-1.43275 2.39109,-3.26962 3.22941,-5.53257 0.81701,-2.20541 1.10446,-3.91826 1.10972,-6.61291 0.003,-2.14716 -0.0196,-2.31573 -0.50243,-3.56889 -0.27877,-0.72342 -0.72154,-1.73754 -0.98392,-2.25361 -1.0729,-2.11022 -3.56728,-5.11343 -4.74687,-5.71521 -0.82676,-0.42179 -1.85839,-0.35744 -6.0163,0.37527 -3.53847,0.62356 -3.3534,0.70056 -4.09556,-1.70386 -0.69469,-2.25066 -1.80179,-5.08488 -2.28563,-5.85133 -0.39932,-0.63257 -0.42262,-0.64346 -1.58213,-0.73982 -3.57767,-0.29735 -4.54496,-0.29892 -5.60356,-0.01 -0.60444,0.16547 -1.64264,0.29161 -2.45834,0.29871 l -1.41201,0.0124 -0.47188,0.82622 c -0.49558,0.86775 -1.56429,1.84899 -3.08409,2.83166 -0.49883,0.32254 -1.2232,0.96236 -1.60971,1.42181 -0.79422,0.9441 -3.29769,2.95584 -5.69289,4.57468 -0.88533,0.59839 -2.22543,1.69554 -2.97797,2.43814 -1.58826,1.56726 -3.24657,2.84206 -5.31593,4.08654 -0.8158,0.49062 -2.01939,1.41397 -2.70487,2.0751 -1.40814,1.35807 -3.23543,2.73526 -4.72024,3.55751 -0.55956,0.30987 -1.59792,1.1243 -2.30748,1.80984 -1.27577,1.23259 -2.69028,2.12302 -4.02661,2.53471 -0.94771,0.29197 -1.94626,0.89141 -3.26013,1.95708 -1.4673,1.19012 -2.40716,1.69533 -6.31769,3.39605 -3.786404,1.64673 -5.359886,2.18107 -6.946835,2.35904 -1.379147,0.15466 -2.273025,0.51127 -3.685029,1.47016 -1.297439,0.88106 -3.085272,1.70148 -4.365609,2.00332 -1.265671,0.29836 -3.776951,0.31078 -4.99263,0.0247 -2.476058,-0.58274 -4.645436,-3.11463 -4.663463,-5.44274 -0.0081,-1.0619 0.506649,-2.0466 1.770879,-3.38676 1.72442,-1.82796 2.685027,-2.23603 6.378211,-2.70946 3.974216,-0.50945 5.28739,-0.83065 7.248592,-1.773 0.708281,-0.34034 2.120804,-0.83548 3.138946,-1.10038 1.745935,-0.45421 4.137084,-1.28929 6.345158,-2.21593 1.4483,-0.60779 3.02584,-1.56893 4.05887,-2.47292 0.50283,-0.44 1.67026,-1.18028 2.5943,-1.64505 0.92407,-0.46478 2.08987,-1.18796 2.59069,-1.60709 1.23205,-1.03104 1.61241,-1.27838 4.7739,-3.1043 3.9052,-2.25543 7.22603,-4.25958 8.53151,-5.14877 2.94834,-2.00825 3.77959,-2.62674 4.76475,-3.54522 0.58432,-0.54478 1.48978,-1.23234 2.01215,-1.52788 1.02179,-0.57816 2.89773,-1.80042 4.12243,-2.68595 l 0.7581,-0.54817 -0.7027,-0.67518 c -1.71263,-1.64561 -1.58554,-4.91546 0.25113,-6.4609 1.66593,-1.4018 4.89558,-1.99931 8.66763,-1.60361 2.7148,0.2848 2.95883,0.32638 4.82029,0.82126 1.58141,0.42041 1.46902,0.41794 5.19251,0.11517 1.02584,-0.0834 1.38568,-0.0432 2.13891,0.23856 0.69138,0.25867 1.27541,0.33903 2.46902,0.33971 0.85989,5e-4 1.83238,0.0756 2.16111,0.1669 0.32872,0.0912 1.30661,0.64333 2.17311,1.22677 0.8665,0.58342 2.15495,1.3344 2.86323,1.66883 0.70827,0.33442 2.05473,0.96714 2.99216,1.40603 1.28333,0.60085 1.88862,0.99239 2.45019,1.58492 2.37859,2.50979 3.91767,3.99043 5.34444,5.14158 1.75635,1.41705 2.27862,2.05517 2.4123,2.94733 0.0858,0.57277 2.04872,4.57671 2.75113,5.61179 0.35391,0.52148 0.70894,2.07552 0.71192,3.11612 0.002,0.59306 0.56168,1.92667 1.13415,2.70098 0.43519,0.58863 0.4546,1.70466 0.043,2.47366 -0.35005,0.65401 -0.38781,2.49582 -0.0707,3.4513 0.32875,0.99077 0.15308,2.88135 -0.44358,4.77373 -0.34433,1.0921 -0.5286,2.06342 -0.59546,3.13896 -0.1293,2.08003 -0.39611,2.97229 -1.56952,5.24877 -0.89775,1.74172 -1.15507,2.08758 -2.76292,3.71388 -0.97512,0.98631 -2.02649,1.91011 -2.33636,2.05289 -0.7035,0.32415 -1.47515,1.12746 -1.90133,1.97935 -0.43447,0.86846 -1.58654,2.13021 -2.98924,3.27385 -2.11085,1.72099 -9.12742,6.20676 -11.58087,7.40377 -1.86382,0.90935 -2.74014,1.1954 -4.45487,1.45419 -1.38729,0.20935 -2.50976,0.54421 -4.66818,1.39263 -2.67881,1.05296 -4.23823,1.26832 -5.55352,0.76698 z M 82.427402,153.49158 c -0.177065,-0.0395 -0.867747,-0.24928 -1.53484,-0.46592 -1.405605,-0.45651 -2.32472,-1.13638 -2.461621,-1.82089 -0.05241,-0.26188 -0.275194,-0.64481 -0.495139,-0.85094 -0.549101,-0.51456 -0.739977,-1.10481 -0.739977,-2.28821 0,-2.6212 1.613427,-4.3581 4.808656,-5.17669 1.257674,-0.3222 3.821723,-0.35916 5.091103,-0.0734 0.544564,0.1226 1.913674,0.2192 3.138947,0.22145 1.933594,0.003 2.315059,-0.0433 3.460893,-0.42639 0.708273,-0.23673 1.867262,-0.76327 2.575547,-1.17009 1.757383,-1.00943 2.181183,-1.17211 3.772949,-1.44829 2.29877,-0.39882 3.21725,-0.78958 5.2006,-2.21257 1.09258,-0.78388 2.25996,-1.3533 3.81918,-1.86293 1.69872,-0.5552 5.01753,-3.14843 5.66688,-4.42797 0.18571,-0.36593 0.54505,-0.96812 0.79853,-1.3382 0.25349,-0.3701 0.4609,-0.70817 0.4609,-0.75129 0,-0.18026 -1.72183,-0.42699 -2.97978,-0.42699 -1.00529,0 -1.67721,0.10405 -2.60786,0.40382 -2.4048,0.77466 -3.71511,0.68622 -7.61205,-0.51378 -3.172584,-0.97696 -4.772784,-2.0229 -5.130397,-3.35342 -0.336434,-1.25166 -1.277289,-2.44666 -2.888665,-3.66896 -1.425779,-1.08152 -1.517512,-1.38555 -1.660653,-5.50395 -0.0677,-1.94775 -0.203886,-4.66415 -0.302639,-6.03643 -0.16451,-2.286 -0.247347,-3.0183 -0.637266,-5.63402 -0.08423,-0.56501 -0.05182,-1.62308 0.08963,-2.92439 0.121877,-1.12147 0.220455,-3.004834 0.219053,-4.185252 -0.0033,-2.528336 0.310389,-4.004253 1.276042,-6.00954 0.813049,-1.688381 1.706463,-2.675873 2.994753,-3.3101 1.221452,-0.601316 1.756926,-0.623411 3.386252,-0.139718 0.95501,0.283514 1.31333,0.476166 1.60173,0.861203 0.60522,0.808012 1.01869,1.745945 1.39951,3.174811 0.46341,1.738723 0.48171,4.884742 0.0471,8.106276 -0.21033,1.55924 -0.30552,3.24554 -0.30901,5.47303 -0.004,2.87038 0.0361,3.37651 0.37313,4.66818 0.78951,3.02482 1.8556,4.99079 3.56419,6.57264 1.60147,1.48268 4.17411,2.30705 7.72812,2.47638 2.20986,0.10525 4.03002,-0.1126 6.58517,-0.78823 5.65305,-1.49483 10.04921,-1.69622 14.98503,-0.68647 1.71058,0.34995 2.63565,0.44681 4.34624,0.45503 1.9814,0.01 2.34351,-0.0365 4.10477,-0.52228 2.88266,-0.79502 3.36074,-0.85571 7.64615,-0.97096 3.89977,-0.10492 3.95427,-0.11114 4.87991,-0.56099 1.50714,-0.73244 3.16061,-2.5474 4.18254,-4.59107 l 0.83732,-1.67441 -0.005,-2.67183 c -0.004,-2.58292 -0.0224,-2.72003 -0.51611,-4.12057 -0.6628,-1.87966 -1.00208,-3.343639 -1.00728,-4.346228 -0.002,-0.442678 -0.16809,-1.529234 -0.36842,-2.414578 -0.30519,-1.347255 -0.47578,-1.756817 -1.04673,-2.512153 -0.37519,-0.496342 -0.87033,-1.365535 -1.10031,-1.931518 -0.60613,-1.491698 -0.88051,-1.799871 -2.27149,-2.551286 -0.68771,-0.371515 -1.58828,-0.91393 -2.00125,-1.205375 -1.80098,-1.271015 -7.25669,-2.021337 -14.69741,-2.021337 -4.02522,0 -9.26736,-0.251557 -10.30721,-0.494616 -0.35414,-0.08278 -1.58885,-0.196944 -2.74382,-0.25371 -3.491,-0.17157 -5.94127,0.350402 -9.60542,2.04621 -2.71528,1.256666 -4.44159,1.753366 -6.51162,1.873545 -2.69673,0.156563 -4.7522,-0.441548 -5.90585,-1.718504 -0.7131,-0.789317 -0.96419,-1.697775 -0.87169,-3.153939 0.2068,-3.255865 3.39276,-5.534457 8.41443,-6.017999 2.63821,-0.254036 4.27532,-0.548749 5.76903,-1.038536 3.75542,-1.231414 11.08424,-1.376958 16.52555,-0.328188 2.56671,0.494713 5.9272,0.58803 8.77295,0.243612 2.88728,-0.349445 6.56787,-0.02346 9.09235,0.805279 0.54985,0.180507 1.59997,0.617446 2.33363,0.970984 1.24281,0.598904 1.46984,0.652162 3.32448,0.77988 2.82199,0.19433 3.49265,0.472827 6.66393,2.767251 2.24387,1.623445 2.86249,2.323839 3.12222,3.534929 0.2227,1.038399 0.47869,1.515541 1.27281,2.372362 1.1931,1.287324 1.57107,2.496958 1.79372,5.74051 0.16538,2.409212 0.39205,3.337902 1.33579,5.473033 0.87468,1.978862 0.95751,2.898272 0.88473,9.819282 -0.0596,5.66481 -0.0901,6.21014 -0.41323,7.37822 -0.58053,2.09854 -1.42707,3.49515 -3.408,5.62244 -1.11836,1.20098 -2.48159,2.10266 -4.91513,3.25094 -3.28967,1.55225 -3.50768,1.58887 -9.57782,1.60911 -4.88286,0.0162 -5.31645,0.0413 -6.50486,0.37447 -1.68997,0.47387 -2.98342,0.46012 -4.55582,-0.0484 -2.27784,-0.73676 -3.51714,-0.68952 -6.00231,0.22879 -1.24242,0.45909 -2.76908,0.44354 -4.06086,-0.0414 -1.29897,-0.48761 -2.29296,-0.63061 -3.463,-0.49823 l -0.93823,0.10611 -0.44717,1.29664 c -0.24595,0.71317 -0.70788,1.84647 -1.02651,2.51844 -0.59932,1.26398 -1.01134,1.72031 -4.5915,5.08511 -0.75361,0.70828 -1.52099,1.58727 -1.70528,1.95331 -0.52205,1.03682 -1.19339,1.59223 -2.97001,2.45715 -1.30074,0.63325 -1.96205,1.08997 -3.17252,2.191 -1.09296,0.99417 -1.89997,1.57121 -2.82875,2.02271 -0.71475,0.34745 -1.39061,0.63172 -1.50192,0.63172 -0.3084,0 -3.52678,1.68058 -4.78032,2.49621 -1.47564,0.96012 -2.73721,1.33209 -5.45183,1.60743 -2.425994,0.24606 -3.835788,0.62387 -5.227499,1.40091 -1.814511,1.01311 -2.845284,1.30807 -4.67736,1.3384 -1.305157,0.0216 -2.015177,0.12546 -3.116714,0.45583 -1.130348,0.33902 -1.731903,0.42398 -2.897486,0.40917 -0.809041,-0.01 -1.615859,-0.051 -1.79293,-0.0907 z m 31.872398,-45.1854 c -1.22455,-0.32847 -1.56487,-0.50352 -2.11883,-1.08973 -0.77752,-0.8228 -1.2094,-1.79785 -1.30083,-2.93692 -0.20715,-2.58058 1.83208,-5.485168 4.08856,-5.823557 0.48191,-0.07233 1.18117,0.0033 2.19245,0.23586 2.31704,0.533585 3.60571,0.467875 7.27988,-0.3712 3.37208,-0.770075 7.59445,-0.807491 10.94606,-0.09699 2.57834,0.546607 4.08215,0.590236 6.02286,0.174712 2.02599,-0.433782 3.96004,-0.471731 5.22971,-0.102638 1.88551,0.548139 3.52157,2.771093 3.54527,4.817053 0.0216,1.86044 -1.2729,3.81109 -2.84082,4.28085 -1.15935,0.34735 -2.3016,0.39252 -3.13455,0.12399 -3.28544,-1.05921 -5.93069,-1.11148 -8.79528,-0.17383 -1.12644,0.36872 -1.59189,0.43076 -3.24663,0.4328 -1.6005,0.002 -2.09722,-0.0588 -2.89749,-0.35434 -2.0578,-0.76004 -5.39996,-0.59084 -9.6583,0.48891 -2.23345,0.56633 -4.1438,0.70838 -5.31206,0.395 z"
     id="path17" /></svg>
