<svg xmlns="http://www.w3.org/2000/svg" xmlns:xlink="http://www.w3.org/1999/xlink" fill="none" version="1.1" width="256" height="256" viewBox="0 0 256 256"><defs><clipPath id="master_svg0_4_9367"><rect x="0" y="0" width="256" height="256" rx="0"/></clipPath><linearGradient x1="-5.134781488891349e-16" y1="-1.942890293094024e-16" x2="1.1710403214802918" y2="0.7229371082788956" id="master_svg1_1_109"><stop offset="0%" stop-color="#05815D" stop-opacity="1"/><stop offset="100%" stop-color="#0C575F" stop-opacity="1"/></linearGradient><mask id="master_svg2_4_9378" style="mask-type:alpha" maskUnits="objectBoundingBox"><g><g><path d="M104.425,42.3784C100.056,37.0733,93.5437,34,86.6712,34L29,34C22.3726,34,17,39.3726,17,46L17,58.137100000000004L17,68.2L17,160C17,166.627,22.3726,172,29,172L229,172C235.627,172,241,166.627,241,160L241,70.1371C241,63.509699999999995,235.627,58.137100000000004,229,58.137100000000004L117.404,58.137100000000004L104.425,42.3784Z" fill-rule="evenodd" fill="url(#master_svg1_1_109)" fill-opacity="1" style="mix-blend-mode:passthrough"/></g></g></mask><filter id="master_svg3_4_9376" filterUnits="objectBoundingBox" color-interpolation-filters="sRGB" x="-0.33035714285714285" y="-0.5362318840579711" width="1.6607142857142858" height="2.072463768115942"><feFlood flood-opacity="0" result="BackgroundImageFix"/><feBlend mode="normal" in="SourceGraphic" in2="BackgroundImageFix" result="shape"/><feGaussianBlur stdDeviation="18.5" result="effect1_foregroundBlur"/></filter><linearGradient x1="-5.134781488891349e-16" y1="-3.3306690738754696e-16" x2="1.2066012353081996" y2="0.526733766306418" id="master_svg4_4_9645"><stop offset="0%" stop-color="#343434" stop-opacity="1"/><stop offset="100%" stop-color="#212121" stop-opacity="1"/></linearGradient><linearGradient x1="0" y1="0.2975093424320221" x2="1.000103202729266" y2="0.298789373440286" id="master_svg5_4_01281"><stop offset="0%" stop-color="#DBDAD5" stop-opacity="1"/><stop offset="100%" stop-color="#FFFBE7" stop-opacity="1"/></linearGradient><linearGradient x1="-0.0003124999930150807" y1="0.41749998927116394" x2="0.9998560571887892" y2="0.41829728208495" id="master_svg6_4_01463"><stop offset="0%" stop-color="#8D8D8D" stop-opacity="1"/><stop offset="100%" stop-color="#CECDCA" stop-opacity="1"/></linearGradient><clipPath id="master_svg7_4_00201"><rect x="152" y="124" width="35" height="35" rx="2"/></clipPath><linearGradient x1="0.5" y1="0" x2="0.5" y2="1" id="master_svg8_4_00515"><stop offset="0%" stop-color="#DE0000" stop-opacity="1"/><stop offset="100%" stop-color="#B60A0A" stop-opacity="1"/></linearGradient><clipPath id="master_svg9_4_00213"><rect x="195" y="124" width="35" height="35" rx="2"/></clipPath><linearGradient x1="0.5" y1="0" x2="0.5" y2="1" id="master_svga_4_00515"><stop offset="0%" stop-color="#DE0000" stop-opacity="1"/><stop offset="100%" stop-color="#B60A0A" stop-opacity="1"/></linearGradient></defs><g clip-path="url(#master_svg0_4_9367)"><g><path d="M104.425,42.3784C100.056,37.0733,93.5437,34,86.6712,34L29,34C22.3726,34,17,39.3726,17,46L17,58.137100000000004L17,68.2L17,160C17,166.627,22.3726,172,29,172L229,172C235.627,172,241,166.627,241,160L241,70.1371C241,63.509699999999995,235.627,58.137100000000004,229,58.137100000000004L117.404,58.137100000000004L104.425,42.3784Z" fill-rule="evenodd" fill="#CECDCA" fill-opacity="1" style="mix-blend-mode:passthrough"/></g><g mask="url(#master_svg2_4_9378)"><g><g style="mix-blend-mode:multiply" filter="url(#master_svg3_4_9376)"><g><path d="M92.789,49.054500000000004C97.7642,49.054500000000004,102.605,47.030699999999996,106.586,43.28664L116.459,34L229,34C235.627,34,241,40.74017,241,49.054500000000004L241,91.7091L241,156.945C241,165.259,235.627,172,229,172L29,172C22.3726,172,17,165.259,17,156.945L17,91.7091L17,64.1091C17,55.7947,22.3726,49.054500000000004,29,49.054500000000004L87,49.054500000000004L92.789,49.054500000000004Z" fill-rule="evenodd" fill="#000000" fill-opacity="0.18000000715255737" style="mix-blend-mode:passthrough"/></g></g></g></g><g><g><path d="M92.789,74C97.7642,74,102.605,72.3868,106.586,69.4024L116.459,62L229,62C235.627,62,241,67.3726,241,74L241,108L241,198C241,204.627,235.627,210,229,210L29,210C22.3726,210,17,204.627,17,198L17,108L17,86C17,79.3726,22.3726,74,29,74L87,74L92.789,74Z" fill-rule="evenodd" fill="url(#master_svg4_4_9645)" fill-opacity="1" style="mix-blend-mode:passthrough"/></g><g><path d="M106.59,69.4C102.61,72.38,97.77,74,92.79,74L29,74C22.37,74,17,79.37,17,86L17,90C17,83.37,22.37,78,29,78L92.79,78C97.77,78,102.61,76.39,106.59,73.4L116.46,66L229,66C235.63,66,241,71.37,241,78L241,74C241,67.37,235.63,62,229,62L116.46,62L106.59,69.4Z" fill-rule="evenodd" fill="url(#master_svg5_4_01281)" fill-opacity="1" style="mix-blend-mode:passthrough"/></g><g><path d="M17,194L17,198C17,204.63,22.37,210,29,210L229,210C235.63,210,241,204.63,241,198L241,194C241,200.63,235.63,206,229,206L29,206C22.37,206,17,200.63,17,194Z" fill-rule="evenodd" fill="url(#master_svg6_4_01463)" fill-opacity="1" style="mix-blend-mode:passthrough"/></g></g><g><path d="M65,118L65,133L67,133L80,133C81.1046,133,82,133.8954,82,135L82,148C82,149.1046,81.1046,150,80,150L67,150L65,150L65,165C65,166.1046,64.1045,167,63,167L50,167C48.895399999999995,167,48,166.1046,48,165L48,150L46,150L33,150C31.895431,150,31,149.1046,31,148L31,135C31,133.8954,31.89543,133,33,133L46,133L48,133L48,118C48,116.895431,48.895399999999995,116,50,116L63,116C64.1045,116,65,116.895431,65,118ZM63,118L50,118L50,135L33,135L33,148L50,148L50,165L63,165L63,148L80,148L80,135L63,135L63,118Z" fill-rule="evenodd" fill="#D6D6D6" fill-opacity="1"/></g><g><rect x="90" y="101" width="53" height="11" rx="3" fill="#87888A" fill-opacity="1"/></g><g><rect x="90" y="117" width="53" height="11" rx="3" fill="#87888A" fill-opacity="1"/></g><g><rect x="90" y="133" width="53" height="11" rx="3" fill="#87888A" fill-opacity="1"/></g><g><rect x="90" y="165" width="53" height="11" rx="3" fill="#87888A" fill-opacity="1"/></g><g><rect x="90" y="149" width="53" height="11" rx="3" fill="#C1C1C1" fill-opacity="1"/></g><g><rect x="95" y="152" width="12" height="5" rx="2.5" fill="#262626" fill-opacity="1"/></g><g><rect x="125" y="152" width="12" height="5" rx="2.5" fill="#262626" fill-opacity="1"/></g><g><path d="M93.179307,138.09264Q93.179307,137.769596,93.373558,137.522565Q93.567806,137.275534,93.938378,137.137767Q94.30895,137,94.80503,137Q95.42663,137,95.83904,137.204275Q96.25145,137.408551,96.40685,137.788599L95.77329,138.02613Q95.65973,137.783848,95.43261,137.660333Q95.20549,137.536817,94.82296,137.536817Q94.3986,137.536817,94.18343,137.674584Q93.968262,137.812352,93.968262,138.06888Q93.968262,138.23515,94.0609,138.34204Q94.15355,138.44893,94.36274,138.52257Q94.57193,138.5962,94.9425,138.65321Q95.76732,138.77672,96.13191,139.06176Q96.4965,139.34679,96.4965,139.84561Q96.4965,140.17815,96.27834,140.44181Q96.06019,140.70546,95.66571,140.85273Q95.27123,141,94.76917,141Q94.08182,141,93.621599,140.77197Q93.161375,140.54394,93,140.12114L93.639531,139.88361Q93.753092,140.16865,94.03998,140.31591Q94.32688,140.46318,94.76319,140.46318Q95.21744,140.46318,95.46249,140.30641Q95.70755,140.14964,95.70755,139.85986Q95.70755,139.59382,95.46548,139.43943Q95.22342,139.28504,94.62572,139.19002Q93.878607,139.07601,93.528957,138.8076Q93.179307,138.53919,93.179307,138.09264ZM100.36955,137.593824L99.07854,137.593824L99.07854,140.93824L98.28958,140.93824L98.28958,137.593824L96.99259,137.593824L96.99259,137.0617575L100.36955,137.0617575L100.36955,137.593824ZM103.2325,139.88361L101.41551,139.88361L101.00310999999999,140.93824L100.2022,140.93824L101.86976,137.0617575L102.82607,137.0617575L104.4936,140.93824L103.6449,140.93824L103.2325,139.88361ZM103.0233,139.35154L102.32401,137.579572L101.63068,139.35154L103.0233,139.35154ZM106.4899,139.3943L105.8683,139.3943L105.8683,140.93824L105.08539999999999,140.93824L105.08539999999999,137.0617575L106.98,137.0617575Q107.4164,137.0617575,107.7421,137.206651Q108.0678,137.351544,108.2471,137.615202Q108.4265,137.87886,108.4265,138.22565Q108.4265,138.68171,108.1306,138.98575Q107.8347,139.28979,107.3207,139.37055L108.7313,140.93824L107.7809,140.93824L106.4899,139.3943ZM105.8683,138.89549L106.8127,138.89549Q107.2131,138.89549,107.4253,138.72209Q107.6375,138.54869,107.6375,138.22565Q107.6375,137.907363,107.4253,137.733967Q107.2131,137.56057,106.8127,137.56057L105.8683,137.56057L105.8683,138.89549ZM112.4131,137.593824L111.122,137.593824L111.122,140.93824L110.3331,140.93824L110.3331,137.593824L109.0361,137.593824L109.0361,137.0617575L112.4131,137.0617575L112.4131,137.593824ZM118.39529999999999,138.09265Q118.39529999999999,137.769611,118.5895,137.522583Q118.7837,137.275552,119.1543,137.137756Q119.5249,136.9999891371,120.021,137Q120.6426,137,121.055,137.204285Q121.4674,137.40856,121.6228,137.788574L120.9893,138.02612Q120.8757,137.783843,120.6486,137.660339Q120.4214,137.536824,120.0389,137.536804Q119.6146,137.536804,119.3994,137.674561Q119.1842,137.812328,119.1842,138.06891Q119.1842,138.23518,119.2769,138.34204Q119.3695,138.44893,119.5787,138.52258Q119.78790000000001,138.59622,120.1584,138.6532Q120.9833,138.77671,121.3478,139.06177Q121.7124,139.3468,121.7125,139.84558Q121.7125,140.17812,121.4943,140.44183Q121.2761,140.70549,120.8817,140.85272Q120.4872,140.99999,119.9851,141Q119.2978,141,118.8375,140.77197Q118.3773,140.54394,118.2159,140.12115L118.8555,139.88361Q118.969,140.16864,119.2559,140.31592Q119.5428,140.46319,119.9791,140.4632Q120.4334,140.4632,120.6785,140.3064Q120.9235,140.14963,120.9235,139.85986Q120.9235,139.59383,120.6815,139.43945Q120.4394,139.28506,119.8417,139.19Q119.0946,139.07599,118.7449,138.80762Q118.3952,138.53921,118.39529999999999,138.09265ZM123.2126,137.593811L123.2126,138.63898L125.209,138.63898L125.209,139.17102L123.2126,139.17102L123.2126,140.41095L125.3464,140.41095L125.3464,140.93823L122.4297,140.93823L122.4297,137.0617676L125.3464,137.0617676L125.3464,137.593811L123.2126,137.593811ZM129.0461,140.41095L129.0461,140.93823L126.2011,140.93823L126.2011,137.0617676L126.9841,137.0617676L126.9841,140.41095L129.0461,140.41095ZM130.5404,137.593811L130.5404,138.63898L132.5367,138.63898L132.5367,139.17102L130.5404,139.17102L130.5404,140.41095L132.6741,140.41095L132.6741,140.93823L129.7574,140.93823L129.7574,137.0617676L132.6741,137.0617676L132.6741,137.593811L130.5404,137.593811ZM135.549,140.48218Q136.3977,140.48218,136.6368,139.85034L137.2883,140.09265Q137.1329,140.51545,136.6846,140.75769Q136.2364,140.99997,135.567,141Q134.9274,141,134.4313,140.75061Q133.93529999999998,140.5012,133.6603,140.04749Q133.3854,139.5938,133.3854,139Q133.3854,138.41093,133.6603,137.957214Q133.93529999999998,137.503533,134.4313,137.25177Q134.9274,136.9999886751,135.567,137Q136.2364,137,136.6846,137.244629Q137.1329,137.489284,137.2883,137.907349L136.6368,138.15442Q136.3918,137.517839,135.549,137.517822Q135.14260000000002,137.517822,134.8318,137.703064Q134.52100000000002,137.888337,134.3477,138.22565Q134.17430000000002,138.56294,134.17430000000002,139Q134.17430000000002,139.43705,134.3477,139.77435Q134.52100000000002,140.11164,134.8318,140.29694Q135.14260000000002,140.48221,135.549,140.48218ZM141,137.593811L139.709,137.593811L139.709,140.93823L138.92000000000002,140.93823L138.92000000000002,137.593811L137.623,137.593811L137.623,137.0617676L141,137.0617676L141,137.593811Z" fill="#DE0000" fill-opacity="1"/></g><g clip-path="url(#master_svg7_4_00201)"><rect x="152" y="124" width="35" height="35" rx="2" fill="#C1C1C1" fill-opacity="1"/><g><ellipse cx="169.50002479553223" cy="141.50002479553223" rx="15.086206436157227" ry="15.086206436157227" fill="url(#master_svg8_4_00515)" fill-opacity="1"/></g></g><g clip-path="url(#master_svg9_4_00213)"><rect x="195" y="124" width="35" height="35" rx="2" fill="#C1C1C1" fill-opacity="1"/><g><ellipse cx="212.50002479553223" cy="141.50002479553223" rx="15.086206436157227" ry="15.086206436157227" fill="url(#master_svga_4_00515)" fill-opacity="1"/></g></g></g></svg>