<?xml version="1.0" encoding="utf-8"?>
<!-- Generator: Adobe Illustrator 25.4.1, SVG Export Plug-In . SVG Version: 6.00 Build 0)  -->
<svg version="1.1" id="Layer_1" xmlns="http://www.w3.org/2000/svg" xmlns:xlink="http://www.w3.org/1999/xlink" x="0px" y="0px"
	 viewBox="0 0 256 256" style="enable-background:new 0 0 256 256;" xml:space="preserve">
<style type="text/css">
	.st0{fill-rule:evenodd;clip-rule:evenodd;fill:url(#Back_00000132793650851380876800000006588448375493953422_);}
	.st1{display:none;}
	.st2{display:inline;}
	.st3{fill-rule:evenodd;clip-rule:evenodd;fill:#A6A1A1;}
	.st4{fill-rule:evenodd;clip-rule:evenodd;fill:url(#Front_00000124137522348697115450000010796108947888238499_);}
	.st5{fill-rule:evenodd;clip-rule:evenodd;fill:url(#Bottom_Highlight_00000099653220283029426600000018397404476865186698_);}
	.st6{fill-rule:evenodd;clip-rule:evenodd;fill:url(#Top_Highlight_00000065043565637014772900000016362556901896747669_);}
	.st7{display:inline;fill:url(#SVGID_1_);}
	.st8{display:inline;fill:url(#SVGID_00000151517217299780468630000002810208094040084132_);}
	.st9{display:inline;fill:url(#SVGID_00000154395364893551785780000001692305160542725005_);}
	.st10{display:inline;fill:#B2B2B2;}
	.st11{display:none;fill:url(#SVGID_00000104690067723075706330000009857065726628622253_);}
	.st12{fill:#10380F;}
</style>
<linearGradient id="Back_00000121989290986840015690000017119300634347724699_" gradientUnits="userSpaceOnUse" x1="129" y1="34" x2="129" y2="172">
	<stop  offset="4.601060e-07" style="stop-color:#96AD0C"/>
	<stop  offset="1" style="stop-color:#000000"/>
</linearGradient>
<path id="Back" style="fill-rule:evenodd;clip-rule:evenodd;fill:url(#Back_00000121989290986840015690000017119300634347724699_);" d="
	M104.4,42.4C100,37.1,93.5,34,86.6,34H29c-6.6,0-12,5.4-12,12v12.1v10.1V160c0,6.6,5.4,12,12,12h200c6.6,0,12-5.4,12-12V70.1
	c0-6.6-5.4-12-12-12H117.4L104.4,42.4z"/>
<g class="st1">
	<g class="st2">
		<path class="st3" d="M92.8,74c5,0,9.8-1.6,13.8-4.6l9.9-7.4H229c6.6,0,12,5.4,12,12v34v52c0,6.6-5.4,12-12,12H29
			c-6.6,0-12-5.4-12-12v-52V86c0-6.6,5.4-12,12-12h58H92.8z"/>
	</g>
</g>
<linearGradient id="Front_00000074411205369119478570000017602725551171026575_" gradientUnits="userSpaceOnUse" x1="16.8933" y1="185.625" x2="247.8374" y2="54.3935" gradientTransform="matrix(1 0 0 -1 0 258)">
	<stop  offset="0" style="stop-color:#9BBB0E"/>
	<stop  offset="0.3518" style="stop-color:#9BBB0E"/>
	<stop  offset="1" style="stop-color:#9BBB0E"/>
</linearGradient>
<path id="Front" style="fill-rule:evenodd;clip-rule:evenodd;fill:url(#Front_00000074411205369119478570000017602725551171026575_);" d="
	M92.8,74c5,0,9.8-1.6,13.8-4.6l9.9-7.4L229,62.1c6.6,0,12,5.4,12,12v34l-0.1,90c0,6.6-5.4,12-12,12l-200-0.1c-6.6,0-12-5.4-12-12
	l0.1-90V86c0-6.6,5.4-12,12-12h58H92.8z"/>
<linearGradient id="Bottom_Highlight_00000173132955597447408180000012312625836219336362_" gradientUnits="userSpaceOnUse" x1="16.9254" y1="1022.6826" x2="240.9429" y2="1025.1827" gradientTransform="matrix(1 0 0 1 0 -822)">
	<stop  offset="9.285777e-07" style="stop-color:#77890B"/>
	<stop  offset="1" style="stop-color:#748707"/>
</linearGradient>
<path id="Bottom_Highlight" style="fill-rule:evenodd;clip-rule:evenodd;fill:url(#Bottom_Highlight_00000173132955597447408180000012312625836219336362_);" d="
	M17,194v4c0,6.6,5.4,12,12,12h200c6.6,0,12-5.4,12-12v-4c0,6.6-5.4,12-12,12H29C22.4,206,17,200.6,17,194z"/>
<linearGradient id="Top_Highlight_00000167387032641857296020000018159049965836553873_" gradientUnits="userSpaceOnUse" x1="17" y1="898" x2="241" y2="898" gradientTransform="matrix(1 0 0 1 0 -822)">
	<stop  offset="2.955256e-02" style="stop-color:#AFC628"/>
	<stop  offset="1" style="stop-color:#B8D31A"/>
</linearGradient>
<path id="Top_Highlight" style="fill-rule:evenodd;clip-rule:evenodd;fill:url(#Top_Highlight_00000167387032641857296020000018159049965836553873_);" d="
	M106.6,69.4c-4,3-8.8,4.6-13.8,4.6H87H29c-6.6,0-12,5.4-12,12v4c0-6.6,5.4-12,12-12h58h5.8c5,0,9.8-1.6,13.8-4.6l9.9-7.4H229
	c6.6,0,12,5.4,12,12v-4c0-6.6-5.4-12-12-12H116.5L106.6,69.4z"/>
<g class="st1">
	
		<linearGradient id="SVGID_1_" gradientUnits="userSpaceOnUse" x1="71.7" y1="133.5329" x2="71.7" y2="104.4716" gradientTransform="matrix(1 0 0 -1 0 258)">
		<stop  offset="2.506269e-03" style="stop-color:#32A2C2"/>
		<stop  offset="1" style="stop-color:#298AB3"/>
	</linearGradient>
	<path class="st7" d="M45.5,124.5H98V140H47.5v13.5h-2.1V138h50.4v-11.4H45.5V124.5"/>
	
		<linearGradient id="SVGID_00000154393473228310476250000001354611357614147748_" gradientUnits="userSpaceOnUse" x1="187.7" y1="133.5332" x2="187.7" y2="104.4716" gradientTransform="matrix(1 0 0 -1 0 258)">
		<stop  offset="2.506269e-03" style="stop-color:#32A2C2"/>
		<stop  offset="1" style="stop-color:#298AB3"/>
	</linearGradient>
	<path style="display:inline;fill:url(#SVGID_00000154393473228310476250000001354611357614147748_);" d="M163.5,140v13.5h-2.1V138
		h50.4v-11.4h-50.4v-2.1H214V140H163.5"/>
	
		<linearGradient id="SVGID_00000048488993084870702870000001506050355189819553_" gradientUnits="userSpaceOnUse" x1="125.9" y1="133.5332" x2="125.9" y2="104.4716" gradientTransform="matrix(1 0 0 -1 0 258)">
		<stop  offset="2.506269e-03" style="stop-color:#32A2C2"/>
		<stop  offset="1" style="stop-color:#298AB3"/>
	</linearGradient>
	<path style="display:inline;fill:url(#SVGID_00000048488993084870702870000001506050355189819553_);" d="M124.7,124.5v27H98v2.1h29
		v-27h26.8v-2.1L124.7,124.5"/>
</g>
<g class="st1">
	<path class="st10" d="M44.5,169.8l16.2-27.5h19.7l2.6-3l1.6,3h20.2l4.2,2.1l3.8-2h30.5l7.5,3.2l0.1-3.2h57.4v27.4h-53l-7.7-6v6
		h-42.9l0,0l-2.9-4.7c-2.4,2.6-6.6,4.7-13.5,4.7c0,0-22.2,0-34.4,0H44.5L44.5,169.8z M121.2,146.9h-5.6l-0.2,0.3l-6.4,11.6
		l-6.8-11.6l-0.2-0.3h-6l0.5,0.8l1.2,1.9c-1.8-1.8-4.7-2.7-8.4-2.7h-12V162l-8.9-14.8l-0.2-0.3h-4.6l-0.2,0.3l-10.2,17.1L53,165h4
		l0,0h8.9v-4h-5.2l5.2-9.4l7.4,13.2l0.2,0.3h5.9l0,0h9.1c7.9,0,11.9-3.1,11.9-9.1c0-1.1-0.1-2-0.4-2.9l7.1,11.8l0.2,0.3h3.5l0.2-0.3
		l9.9-17.1L121.2,146.9z M138.1,146.9V162l-8.9-14.8l-0.2-0.3h-4.6l-0.2,0.3L114,164.3l-0.5,0.8h5.4l0,0h7.4v-4h-5.2l5.2-9.4
		l7.4,13.2l0.2,0.3h5.9l0,0h3v-11l13.6,10.8l0.1,0.1h3.6v-18.2h-4.8v10.8L141.8,147l-0.1-0.1H138.1z M184.2,146.9V165h19.6v-4.2
		h-14.4v-3.2h8.2v-4h-8.2V151h14.2v-4.1H184.2z M177.5,146.9h-10.7c-3.7,0-5,1.2-5,4.6v9c0,3.4,1.3,4.6,5,4.6h10.7
		c3.7,0,5-1.2,5-4.6v-2.6H182h-4.2h-0.5v2.8h-10.1v-9.6h10.1v2.5h0.5h4.2h0.5v-2.2C182.5,148,181.3,146.9,177.5,146.9z M87.5,160.8
		h-4.8V151h6.8c3.7,0,5.4,1.5,5.4,4.7C94.9,159.5,93.1,160.8,87.5,160.8z"/>
	<path class="st10" d="M198.4,146.4h-14.7l0.3-2.1c-0.1,0.1-0.3,0.2-0.4,0.3c-3.4,2.1-7.3,2.8-11,2c-2.8-0.7-5.3-2.2-7.2-4.2
		c-2.5,2.4-5.8,4-9,4l-72.3,0.1l-1.2-6.6l-3,6.6h-12c-3.8,0.6-7.6,0.1-11-1.7c-4.7-2.4-7.8-6.8-8.3-11.7c-0.8-8.2,2.3-14.7,9-18.8
		c6.5-4,13.3-4.8,20.4-2.3l1.3,0.5l0.5-1.1h13.5l1,6.1l2-6.1h61.9c3.9,0,6.4,1.7,8.7,4.5c0.8-0.8,1.8-1.5,2.7-2.1
		c2.4-1.5,5.1-2.3,7.8-2.3h36l-13.2,22.4L198.4,146.4z M179.5,116c-5.9-1.4-12,3.3-13.7,10.5s1.8,14.1,7.7,15.4
		c5.9,1.4,12-3.3,13.7-10.5C188.9,124.3,185.4,117.4,179.5,116L179.5,116z M113.6,115.8l-6,14.2l-2.6-14.2h-5.3l-6.8,21l-3.5-21
		h-6.6l-9.9,22.6l1.5-9.4h-9.9l-0.8,4.9h4.1l-0.5,2.6c-2.4,0.9-6.4,0.6-8.1-2.5c-1.1-1.9-2.1-6.3,2.5-10.3
		c3.7-3.3,10.2-3.8,13.9-2.1c0,0,0.5-2.7,0.8-5.3c-7.2-2.5-12.7-0.4-16.5,1.9c-5.1,3.1-7.5,7.9-6.9,14.4c0.8,7.6,10.5,12.3,18.8,7.5
		c0.1,0,0.1-0.1,0.2-0.1l-0.8,1.8h5.6l3.5-7.8h6.2l1.4,7.8H97l4.6-14.5l3,14.5h3.6l6.9-16l0.7,16h5.3l-1.1-25.9L113.6,115.8
		L113.6,115.8z M194.1,124.2l-3.3-8.5h-6.1l6.3,13.7l-1.9,12.3h5.3l1.6-10.8l9.6-15.1h-6.2L194.1,124.2z M121.5,141.7h14.9l0.9-5.6
		H128l0.7-4.6h8.1l0.9-5.6h-8.2l0.7-4.6h9.3l0.9-5.6h-14.7L121.5,141.7z M158.4,115.9c-2.9,0-10,0-10,0h0.1l-4.1,25.7h12
		c4.9,0,12.1-7.3,5.6-13.2C168.7,121.5,162,116,158.4,115.9z M181.6,131.2c-1.4,4.3-4.9,6.8-7.7,5.5s-3.9-5.8-2.5-10.1
		c1.4-4.3,4.9-6.8,7.7-5.5C181.9,122.4,183.1,126.9,181.6,131.2z M155.3,136.7h-4.7l0.8-5.2h4.5C160.1,131.5,160,136.7,155.3,136.7z
		 M82.6,128.9l2.2-5l1,5H82.6z M156,126.2h-3.7l0.8-4.8h3.5C160.3,121.4,159.5,126.2,156,126.2z"/>
</g>
<linearGradient id="SVGID_00000041297754604061918850000013883065388607203726_" gradientUnits="userSpaceOnUse" x1="52.9097" y1="117.8155" x2="205.6" y2="117.8155" gradientTransform="matrix(1 0 0 -1 0 258)">
	<stop  offset="0" style="stop-color:#F4451C"/>
	<stop  offset="0.2816" style="stop-color:#EF9D1B"/>
	<stop  offset="0.5429" style="stop-color:#FFE31A"/>
	<stop  offset="0.7561" style="stop-color:#4BDD40"/>
	<stop  offset="1" style="stop-color:#1B8E03"/>
</linearGradient>
<path style="display:none;fill:url(#SVGID_00000041297754604061918850000013883065388607203726_);" d="M138.1,146.9V162l-8.9-14.8
	l-0.2-0.3h-4.6l-0.2,0.3L114,164.3l-0.5,0.8h5.4l0,0h7.4v-4h-5.2l5.2-9.4l7.4,13.2l0.2,0.3h5.9l0,0h3v-11l13.6,10.8l0.1,0.1h3.6
	v-18.2h-4.8v10.8L141.8,147l-0.1-0.1H138.1z M184.2,146.9V165h19.6v-4.2h-14.4v-3.2h8.2v-4h-8.2V151h14.2v-4.1H184.2z M177.5,146.9
	h-10.7c-3.7,0-5,1.2-5,4.6v9c0,3.4,1.3,4.6,5,4.6h10.7c3.7,0,5-1.2,5-4.6v-2.6H182h-4.2h-0.5v2.8h-10.1v-9.6h10.1v2.5h0.5h4.2h0.5
	v-2.2C182.5,148,181.3,146.9,177.5,146.9z M194.1,124.2l-3.3-8.5h-6.1l6.3,13.7l-1.9,12.3h5.3l1.6-10.8l9.6-15.1h-6.2L194.1,124.2z
	 M121.5,141.7h14.9l0.9-5.6H128l0.7-4.6h8.1l0.9-5.6h-8.2l0.7-4.6h9.3l0.9-5.6h-14.7L121.5,141.7z M121.2,146.9h-5.6l-0.2,0.3
	l-6.4,11.6l-6.8-11.6l-0.2-0.3h-6l0.5,0.8l1.2,1.9c-1.8-1.8-4.7-2.7-8.4-2.7h-12V162l-8.9-14.8l-0.2-0.3h-4.6l-0.2,0.3l-10.2,17.1
	L53,165h4l0,0h8.9v-4h-5.2l5.2-9.4l7.4,13.2l0.2,0.3h5.9l0,0h9.1c7.9,0,11.9-3.1,11.9-9.1c0-1.1-0.1-2-0.4-2.9l7.1,11.8l0.2,0.3h3.5
	l0.2-0.3l9.9-17.1L121.2,146.9z M87.5,160.8h-4.8V151h6.8c3.7,0,5.4,1.5,5.4,4.7C94.9,159.5,93.1,160.8,87.5,160.8z M179.5,116
	c-5.9-1.4-12,3.3-13.7,10.5s1.8,14.1,7.7,15.4c5.9,1.4,12-3.3,13.7-10.5C188.9,124.3,185.4,117.4,179.5,116L179.5,116z M113.6,115.8
	l-6,14.2l-2.6-14.2h-5.3l-6.8,21l-3.5-21h-6.6l-9.9,22.6l1.5-9.4h-9.9l-0.8,4.9h4.1l-0.5,2.6c-2.4,0.9-6.4,0.6-8.1-2.5
	c-1.1-1.9-2.1-6.3,2.5-10.3c3.7-3.3,10.2-3.8,13.9-2.1c0,0,0.5-2.7,0.8-5.3c-7.2-2.5-12.7-0.4-16.5,1.9c-5.1,3.1-7.5,7.9-6.9,14.4
	c0.8,7.6,10.5,12.3,18.8,7.5c0.1,0,0.1-0.1,0.2-0.1l-0.8,1.8h5.6l3.5-7.8h6.2l1.4,7.8H97l4.6-14.5l3,14.5h3.6l6.9-16l0.7,16h5.3
	l-1.1-25.9L113.6,115.8L113.6,115.8z M158.4,115.9c-2.9,0-10,0-10,0h0.1l-4.1,25.7h12c4.9,0,12.1-7.3,5.6-13.2
	C168.7,121.5,162,116,158.4,115.9z M181.6,131.2c-1.4,4.3-4.9,6.8-7.7,5.5s-3.9-5.8-2.5-10.1c1.4-4.3,4.9-6.8,7.7-5.5
	C181.9,122.4,183.1,126.9,181.6,131.2z M155.3,136.7h-4.7l0.8-5.2h4.5C160.1,131.5,160,136.7,155.3,136.7z M82.6,128.9l2.2-5l1,5
	H82.6z M156,126.2h-3.7l0.8-4.8h3.5C160.3,121.4,159.5,126.2,156,126.2z"/>
<path class="st12" d="M191.1,122h7.3l3.6,8.3l5.4-8.3h7.5l-10.5,16.4l-1.7,12.8H196l2-14.6L191.1,122z M137.6,151.1l0.9-6.5h-10.2
	l0.6-5h8.9l0.9-6.5h-8.8l0.6-4.7h10.2l1-6.5h-17l-4,29.1L137.6,151.1L137.6,151.1z M77.1,136.8l2.2-6l0.7,6H77.1z M74.7,142.5h6.1
	l1.1,8.6h11l5.1-15.8l2.5,15.8h5.8l6.5-16.7l1.1,16.7h6.5l-1.8-29.1h-7.7l-6,15.4l-2.3-15.4h-6.9l-7.9,23.9l-3-23.9h-8.6l-9.6,24.2
	l1.3-9.4H56.1l-0.8,5.7h5.1l-0.4,2c-0.9,0.5-3,0.6-3.8,0.6s-6.8-0.5-6.6-7c0.3-6.5,8.9-12.5,19.1-9.2l1-6.2c-6.8-2.3-24.8-1-26.6,15
	c-1.1,9.4,7.5,13.9,13.3,13.8c3.3,0.2,7.1-1.1,8.4-1.8l-0.4,1.3h6.8L74.7,142.5z M183.8,121.8c-4.7-0.2-11.4,2.5-13.7,13.4
	c-2.2,10.9,3.8,15.3,9.3,16c5.6,0.7,13.4-2.8,14.8-13.2C195.8,127.5,190.7,122,183.8,121.8L183.8,121.8z M183.1,128
	c1.9,0,5.9,1.3,4.9,8.8s-5.7,8.4-7.4,8.3c-1.7-0.2-5.2-1.3-4.2-8.3C177.5,129.8,181.1,127.9,183.1,128L183.1,128z M155.5,133.2h3.8
	c2.8,0,3.3-1.8,3.4-2.5c0.1-0.7-0.7-2.2-2.2-2.2h-4.4L155.5,133.2z M153.8,144.7h5.1c2.8,0,3.4-2.2,3.5-2.9s-0.7-2.2-2.2-2.2h-5.7
	L153.8,144.7z M146.3,151.1l4-29.1h12.4c3,0,7.3,3.4,6.7,8c-0.5,4.6-2,4.9-3,5.6c1.5,1.3,3.1,3.5,2.4,7.5c-0.6,4-4,8-9.8,8H146.3z"
	/>
</svg>
