<?xml version="1.0" encoding="utf-8"?>
<!-- Generator: Adobe Illustrator 25.4.1, SVG Export Plug-In . SVG Version: 6.00 Build 0)  -->
<svg version="1.1" id="Layer_1" xmlns="http://www.w3.org/2000/svg" xmlns:xlink="http://www.w3.org/1999/xlink" x="0px" y="0px"
	 viewBox="0 0 256 256" style="enable-background:new 0 0 256 256;" xml:space="preserve">
<style type="text/css">
	.st0{fill-rule:evenodd;clip-rule:evenodd;fill:url(#Back_00000059271732289361660460000009294520446849822090_);}
	.st1{display:none;}
	.st2{display:inline;}
	.st3{fill-rule:evenodd;clip-rule:evenodd;fill:#A6A1A1;}
	.st4{fill-rule:evenodd;clip-rule:evenodd;fill:url(#Front_00000059287989428923022630000004016888697593304999_);}
	
		.st5{display:none;fill-rule:evenodd;clip-rule:evenodd;fill:url(#Bottom_Highlight_00000031190720713227285900000004531779056820816565_);}
	.st6{fill-rule:evenodd;clip-rule:evenodd;fill:url(#Top_Highlight_00000060016427608646437670000000532923680279896252_);}
	.st7{display:inline;fill:url(#SVGID_1_);}
	.st8{display:inline;fill:url(#SVGID_00000052813017702680909930000017944298129170591165_);}
	.st9{display:inline;fill:url(#SVGID_00000003075331910854166370000009566939817204615103_);}
	.st10{display:none;fill:#9B9B9B;}
	.st11{fill:#A0A0A0;}
	.st12{fill:#31B4FF;}
</style>
<linearGradient id="Back_00000170259228817547751590000004596107824880376750_" gradientUnits="userSpaceOnUse" x1="129" y1="34" x2="129" y2="172">
	<stop  offset="3.137087e-07" style="stop-color:#31B4FF"/>
	<stop  offset="0.1438" style="stop-color:#2FA4E7"/>
	<stop  offset="1" style="stop-color:#000000"/>
</linearGradient>
<path id="Back" style="fill-rule:evenodd;clip-rule:evenodd;fill:url(#Back_00000170259228817547751590000004596107824880376750_);" d="
	M104.4,42.4C100,37.1,93.5,34,86.6,34H29c-6.6,0-12,5.4-12,12v12.1v10.1V160c0,6.6,5.4,12,12,12h200c6.6,0,12-5.4,12-12V70.1
	c0-6.6-5.4-12-12-12H117.4L104.4,42.4z"/>
<g class="st1">
	<g class="st2">
		<path class="st3" d="M92.8,74c5,0,9.8-1.6,13.8-4.6l9.9-7.4H229c6.6,0,12,5.4,12,12v34v52c0,6.6-5.4,12-12,12H29
			c-6.6,0-12-5.4-12-12v-52V86c0-6.6,5.4-12,12-12h58H92.8z"/>
	</g>
</g>
<linearGradient id="Front_00000065055569909048944200000014888642669405739927_" gradientUnits="userSpaceOnUse" x1="17" y1="884" x2="241" y2="1032" gradientTransform="matrix(1 0 0 1 0 -822)">
	<stop  offset="2.099138e-02" style="stop-color:#F4F4F4"/>
	<stop  offset="0.3288" style="stop-color:#E5E5E5"/>
	<stop  offset="1" style="stop-color:#D6D6D6"/>
</linearGradient>
<path id="Front" style="fill-rule:evenodd;clip-rule:evenodd;fill:url(#Front_00000065055569909048944200000014888642669405739927_);" d="
	M92.8,74c5,0,9.8-1.6,13.8-4.6l9.9-7.4H229c6.6,0,12,5.4,12,12v34v90c0,6.6-5.4,12-12,12H29c-6.6,0-12-5.4-12-12v-90V86
	c0-6.6,5.4-12,12-12h58H92.8z"/>
<linearGradient id="Bottom_Highlight_00000153673515253215861630000014550382782916505733_" gradientUnits="userSpaceOnUse" x1="16.9254" y1="1022.6826" x2="240.9429" y2="1025.1827" gradientTransform="matrix(1 0 0 1 0 -822)">
	<stop  offset="6.190517e-07" style="stop-color:#999999"/>
	<stop  offset="1" style="stop-color:#878787"/>
</linearGradient>
<path id="Bottom_Highlight" style="display:none;fill-rule:evenodd;clip-rule:evenodd;fill:url(#Bottom_Highlight_00000153673515253215861630000014550382782916505733_);" d="
	M17,194v4c0,6.6,5.4,12,12,12h200c6.6,0,12-5.4,12-12v-4c0,6.6-5.4,12-12,12H29C22.4,206,17,200.6,17,194z"/>
<linearGradient id="Top_Highlight_00000017494715177456121360000012877060407942884780_" gradientUnits="userSpaceOnUse" x1="17" y1="898" x2="241" y2="898" gradientTransform="matrix(1 0 0 1 0 -822)">
	<stop  offset="3.178914e-07" style="stop-color:#F9F9F9"/>
	<stop  offset="1" style="stop-color:#EFEFEF"/>
</linearGradient>
<path id="Top_Highlight" style="fill-rule:evenodd;clip-rule:evenodd;fill:url(#Top_Highlight_00000017494715177456121360000012877060407942884780_);" d="
	M106.6,69.4c-4,3-8.8,4.6-13.8,4.6H87H29c-6.6,0-12,5.4-12,12v4c0-6.6,5.4-12,12-12h58h5.8c5,0,9.8-1.6,13.8-4.6l9.9-7.4H229
	c6.6,0,12,5.4,12,12v-4c0-6.6-5.4-12-12-12H116.5L106.6,69.4z"/>
<g class="st1">
	
		<linearGradient id="SVGID_1_" gradientUnits="userSpaceOnUse" x1="71.7" y1="133.5329" x2="71.7" y2="104.4716" gradientTransform="matrix(1 0 0 -1 0 258)">
		<stop  offset="2.506269e-03" style="stop-color:#32A2C2"/>
		<stop  offset="1" style="stop-color:#298AB3"/>
	</linearGradient>
	<path class="st7" d="M45.5,124.5H98V140H47.5v13.5h-2.1V138h50.4v-11.4H45.5V124.5"/>
	
		<linearGradient id="SVGID_00000057854342136694090190000015645171425913934215_" gradientUnits="userSpaceOnUse" x1="187.7" y1="133.5332" x2="187.7" y2="104.4716" gradientTransform="matrix(1 0 0 -1 0 258)">
		<stop  offset="2.506269e-03" style="stop-color:#32A2C2"/>
		<stop  offset="1" style="stop-color:#298AB3"/>
	</linearGradient>
	<path style="display:inline;fill:url(#SVGID_00000057854342136694090190000015645171425913934215_);" d="M163.5,140v13.5h-2.1V138
		h50.4v-11.4h-50.4v-2.1H214V140H163.5"/>
	
		<linearGradient id="SVGID_00000181081407937141682250000011900241389530527647_" gradientUnits="userSpaceOnUse" x1="125.9" y1="133.5332" x2="125.9" y2="104.4716" gradientTransform="matrix(1 0 0 -1 0 258)">
		<stop  offset="2.506269e-03" style="stop-color:#32A2C2"/>
		<stop  offset="1" style="stop-color:#298AB3"/>
	</linearGradient>
	<path style="display:inline;fill:url(#SVGID_00000181081407937141682250000011900241389530527647_);" d="M124.7,124.5v27H98v2.1h29
		v-27h26.8v-2.1L124.7,124.5"/>
</g>
<path class="st10" d="M156.9,108.3c-4.1,0-7.5,3.4-7.5,7.5s3.4,7.5,7.5,7.5s7.5-3.4,7.5-7.5C164.4,111.6,161.1,108.3,156.9,108.3z
	 M179.4,108.3c-4.1,0-7.5,3.4-7.5,7.5s3.4,7.5,7.5,7.5s7.5-3.4,7.5-7.5C186.9,111.6,183.5,108.3,179.4,108.3z M106.8,110.8
	c-0.2,0-0.7,0-0.9,0c-0.4,0.1-0.9,0.2-1.3,0.4c-1.7,0.7-4,2.5-5.1,6.7c-1,4.6-1,2-7.5,29.7L82.4,113c-0.3-1.1-1.3-1.9-2.4-1.9h-8.4
	c-0.8,0-1.6,0.4-2,1c-0.5,0.6-0.6,1.4-0.4,2.2l11.7,40.8c0.7,3.7,3.8,10.4,10.7,10.4c7,0,10-6.9,10.6-10.3l4.8-17.9l4.8,17.6
	c0.6,3.6,3.7,10.5,10.7,10.5c6.9,0,10-6.8,10.7-10.4l11.7-40.8c0.2-0.8,0.1-1.6-0.4-2.2s-1.2-1-2-1h-8.6c-1.1,0-2.1,0.8-2.4,1.9
	l-9.5,34.8c-0.2-0.7-0.4-1.5-0.6-2.3c-1.6-6.1-5.6-21.4-7-27.4c-1.1-4.9-4-6.6-5.9-7.2c-0.3-0.1-0.6-0.1-0.9-0.2L106.8,110.8z
	 M151.9,128.2c-1.4,0-2.5,1.1-2.5,2.5v32.4c0,1.4,1.1,2.5,2.5,2.5h10c1.4,0,2.5-1.1,2.5-2.5v-32.4c0-1.4-1.1-2.5-2.5-2.5
	L151.9,128.2L151.9,128.2z M174.4,128.2c-1.4,0-2.5,1.1-2.5,2.5v32.4c0,1.4,1.1,2.5,2.5,2.5h10c1.4,0,2.5-1.1,2.5-2.5v-32.4
	c0-1.4-1.1-2.5-2.5-2.5L174.4,128.2L174.4,128.2z"/>
<g>
	<path class="st11" d="M100.6,113.8l-9.7,37.9c0,0-7.4-28.4-8.6-32.5c-1.2-4-3.7-5.8-7.2-5.8s-6,1.8-7.2,5.8s-8.6,32.5-8.6,32.5
		l-9.7-37.9H38c0,0,11.2,40.4,12.7,45.1c1.2,3.7,4,6.6,8.1,6.6c4.8,0,7-3.5,8-6.6c1-3.2,8.3-29.9,8.3-29.9s7.2,26.7,8.3,29.9
		c1,3.2,3.2,6.6,8,6.6c4.2,0,7-3,8.1-6.6c1.5-4.7,12.7-45.1,12.7-45.1S100.6,113.8,100.6,113.8z M140.5,165.1h11v-35.7h-11V165.1z
		 M139.4,117c0,3.4,2.9,6.2,6.5,6.2c3.7,0,6.6-2.7,6.6-6.2s-2.9-6.2-6.6-6.2C142.3,110.8,139.4,113.6,139.4,117 M118.1,165.1h11
		v-35.7h-11C118.1,129.4,118.1,165.1,118.1,165.1z M123.5,110.8c3.7,0,6.6,2.7,6.6,6.2s-2.9,6.2-6.6,6.2c-3.6,0-6.5-2.8-6.5-6.2
		C117,113.6,119.9,110.8,123.5,110.8"/>
	<path class="st11" d="M212.8,110.8h-6.2V130c0,9.3-5.3,14.2-13.9,14.2c-8.6,0-13.9-5-13.9-14.2v-19.2h-6.2c-4.5,0-7.3,2.7-7.3,7.3
		v23.5c0,6.8,3.6,10.4,10.4,10.4h34c6.8,0,10.4-3.6,10.4-10.4v-23.5C220.1,113.5,217.4,110.8,212.8,110.8 M192.7,138
		c4.1,0,7.2-3.2,7.2-8.3v-19h-14.5v19C185.5,134.8,188.6,138,192.7,138"/>
	<path class="st11" d="M100.6,113.8l-9.7,37.9c0,0-7.4-28.4-8.6-32.5c-1.2-4-3.7-5.8-7.2-5.8s-6,1.8-7.2,5.8s-8.6,32.5-8.6,32.5
		l-9.7-37.9H38c0,0,11.2,40.4,12.7,45.1c1.2,3.7,4,6.6,8.1,6.6c4.8,0,7-3.5,8-6.6c1-3.2,8.3-29.9,8.3-29.9s7.2,26.7,8.3,29.9
		c1,3.2,3.2,6.6,8,6.6c4.2,0,7-3,8.1-6.6c1.5-4.7,12.7-45.1,12.7-45.1S100.6,113.8,100.6,113.8z M140.5,165.1h11v-35.7h-11V165.1z
		 M139.4,117c0,3.4,2.9,6.2,6.5,6.2c3.7,0,6.6-2.7,6.6-6.2s-2.9-6.2-6.6-6.2C142.3,110.8,139.4,113.6,139.4,117 M118.1,165.1h11
		v-35.7h-11C118.1,129.4,118.1,165.1,118.1,165.1z M123.5,110.8c3.7,0,6.6,2.7,6.6,6.2s-2.9,6.2-6.6,6.2c-3.6,0-6.5-2.8-6.5-6.2
		C117,113.6,119.9,110.8,123.5,110.8"/>
	<path class="st12" d="M212.8,110.8h-6.2V130c0,9.3-5.3,14.2-13.9,14.2c-8.6,0-13.9-5-13.9-14.2v-19.2h-6.2c-4.5,0-7.3,2.7-7.3,7.3
		v23.5c0,6.8,3.6,10.4,10.4,10.4h34c6.8,0,10.4-3.6,10.4-10.4v-23.5C220.1,113.5,217.4,110.8,212.8,110.8 M192.7,138
		c4.1,0,7.2-3.2,7.2-8.3v-19h-14.5v19C185.5,134.8,188.6,138,192.7,138"/>
</g>
</svg>
