<svg xmlns="http://www.w3.org/2000/svg" xmlns:xlink="http://www.w3.org/1999/xlink" fill="none" version="1.1" width="256" height="256" viewBox="0 0 256 256"><defs><clipPath id="master_svg0_4_02677"><rect x="0" y="0" width="256" height="256" rx="0"/></clipPath><linearGradient x1="-5.134781488891349e-16" y1="-1.942890293094024e-16" x2="1.1710403214802918" y2="0.7229371082788956" id="master_svg1_1_109"><stop offset="0%" stop-color="#05815D" stop-opacity="1"/><stop offset="100%" stop-color="#0C575F" stop-opacity="1"/></linearGradient><mask id="master_svg2_4_02698" style="mask-type:alpha" maskUnits="objectBoundingBox"><g><g><path d="M104.425,42.3784C100.056,37.0733,93.5437,34,86.6712,34L29,34C22.3726,34,17,39.3726,17,46L17,58.137100000000004L17,68.2L17,160C17,166.627,22.3726,172,29,172L229,172C235.627,172,241,166.627,241,160L241,70.1371C241,63.509699999999995,235.627,58.137100000000004,229,58.137100000000004L117.404,58.137100000000004L104.425,42.3784Z" fill-rule="evenodd" fill="url(#master_svg1_1_109)" fill-opacity="1" style="mix-blend-mode:passthrough"/></g></g></mask><filter id="master_svg3_4_02701" filterUnits="objectBoundingBox" color-interpolation-filters="sRGB" x="-0.33035714285714285" y="-0.5362318840579711" width="1.6607142857142858" height="2.072463768115942"><feFlood flood-opacity="0" result="BackgroundImageFix"/><feBlend mode="normal" in="SourceGraphic" in2="BackgroundImageFix" result="shape"/><feGaussianBlur stdDeviation="18.5" result="effect1_foregroundBlur"/></filter><linearGradient x1="-5.134781488891349e-16" y1="-3.3306690738754696e-16" x2="1.2066012353081996" y2="0.526733766306418" id="master_svg4_4_01609"><stop offset="0%" stop-color="#D0D0D0" stop-opacity="1"/><stop offset="100%" stop-color="#9F9F9F" stop-opacity="1"/></linearGradient><linearGradient x1="0" y1="0.2975093424320221" x2="1.000103202729266" y2="0.298789373440286" id="master_svg5_4_02674"><stop offset="0%" stop-color="#8F8F8F" stop-opacity="1"/><stop offset="100%" stop-color="#BFBFBF" stop-opacity="1"/></linearGradient><linearGradient x1="-0.0003124999930150807" y1="0.41749998927116394" x2="0.9998560571887892" y2="0.41829728208495" id="master_svg6_4_01463"><stop offset="0%" stop-color="#8D8D8D" stop-opacity="1"/><stop offset="100%" stop-color="#CECDCA" stop-opacity="1"/></linearGradient><linearGradient x1="0" y1="-0.25729531049728394" x2="1.3002415895462036" y2="1.3101806640625002" id="master_svg7_4_03338"><stop offset="0%" stop-color="#37C200" stop-opacity="1"/><stop offset="100%" stop-color="#2B9900" stop-opacity="1"/></linearGradient><linearGradient x1="0" y1="-0.25729531049728394" x2="1.3002415895462036" y2="1.3101806640625002" id="master_svg8_4_03509"><stop offset="0%" stop-color="#0013C2" stop-opacity="1"/><stop offset="100%" stop-color="#008FBF" stop-opacity="1"/></linearGradient><linearGradient x1="0.04861145094037056" y1="-0.09166564792394638" x2="1.138888597488403" y2="1.2347228527069092" id="master_svg9_4_04024"><stop offset="0%" stop-color="#414141" stop-opacity="1"/><stop offset="100%" stop-color="#1E1E1E" stop-opacity="1"/></linearGradient><linearGradient x1="0.04861145094037056" y1="-0.09166564792394638" x2="1.138888597488403" y2="1.2347228527069092" id="master_svga_4_04103"><stop offset="0%" stop-color="#ABABAB" stop-opacity="1"/><stop offset="100%" stop-color="#989898" stop-opacity="1"/></linearGradient></defs><g clip-path="url(#master_svg0_4_02677)"><g><path d="M104.425,42.3784C100.056,37.0733,93.5437,34,86.6712,34L29,34C22.3726,34,17,39.3726,17,46L17,58.137100000000004L17,68.2L17,160C17,166.627,22.3726,172,29,172L229,172C235.627,172,241,166.627,241,160L241,70.1371C241,63.509699999999995,235.627,58.137100000000004,229,58.137100000000004L117.404,58.137100000000004L104.425,42.3784Z" fill-rule="evenodd" fill="#CECDCA" fill-opacity="1" style="mix-blend-mode:passthrough"/></g><g mask="url(#master_svg2_4_02698)"><g><g style="mix-blend-mode:multiply" filter="url(#master_svg3_4_02701)"><g><path d="M92.789,49.054500000000004C97.7642,49.054500000000004,102.605,47.030699999999996,106.586,43.28664L116.459,34L229,34C235.627,34,241,40.74017,241,49.054500000000004L241,91.7091L241,156.945C241,165.259,235.627,172,229,172L29,172C22.3726,172,17,165.259,17,156.945L17,91.7091L17,64.1091C17,55.7947,22.3726,49.054500000000004,29,49.054500000000004L87,49.054500000000004L92.789,49.054500000000004Z" fill-rule="evenodd" fill="#000000" fill-opacity="0.15000000596046448" style="mix-blend-mode:passthrough"/></g></g></g></g><g><g><path d="M92.789,74C97.7642,74,102.605,72.3868,106.586,69.4024L116.459,62L229,62C235.627,62,241,67.3726,241,74L241,108L241,198C241,204.627,235.627,210,229,210L29,210C22.3726,210,17,204.627,17,198L17,108L17,86C17,79.3726,22.3726,74,29,74L87,74L92.789,74Z" fill-rule="evenodd" fill="url(#master_svg4_4_01609)" fill-opacity="1" style="mix-blend-mode:passthrough"/></g><g><path d="M106.59,69.4C102.61,72.38,97.77,74,92.79,74L29,74C22.37,74,17,79.37,17,86L17,90C17,83.37,22.37,78,29,78L92.79,78C97.77,78,102.61,76.39,106.59,73.4L116.46,66L229,66C235.63,66,241,71.37,241,78L241,74C241,67.37,235.63,62,229,62L116.46,62L106.59,69.4Z" fill-rule="evenodd" fill="url(#master_svg5_4_02674)" fill-opacity="1" style="mix-blend-mode:passthrough"/></g><g><path d="M17,194L17,198C17,204.63,22.37,210,29,210L229,210C235.63,210,241,204.63,241,198L241,194C241,200.63,235.63,206,229,206L29,206C22.37,206,17,200.63,17,194Z" fill-rule="evenodd" fill="url(#master_svg6_4_01463)" fill-opacity="1" style="mix-blend-mode:passthrough"/></g><g><g><rect x="55.696428298950195" y="101" width="20.625" height="54" rx="3" fill="#414141" fill-opacity="1"/></g><g transform="matrix(0,1,-1,0,212.3571434020996,24.35714340209961)"><rect x="94" y="118.35714340209961" width="20.25" height="55" rx="3" fill="#414141" fill-opacity="1"/></g><g><path d="M66.1814636541748,136.13130347595214Q66.37434365417481,136.13130347595214,66.56699365417481,136.12200347595214Q66.75964365417481,136.11270347595215,66.9516036541748,136.09410347595215Q67.14355365417481,136.07560347595214,67.3343536541748,136.04780347595215Q67.5251436541748,136.02000347595214,67.7143136541748,135.98300347595216Q67.90349365417481,135.94610347595216,68.09059365417481,135.90010347595214Q68.27769365417481,135.85410347595214,68.46232365417481,135.79910347595214Q68.64682365417481,135.74410347595216,68.8284236541748,135.68030347595214Q69.0100236541748,135.61650347595216,69.1882236541748,135.54410347595214Q69.36642365417481,135.47160347595215,69.5408236541748,135.39060347595216Q69.7152236541748,135.30960347595214,69.88532365417481,135.22040347595214Q70.0554236541748,135.13110347595216,70.22082365417481,135.03370347595214Q70.3863236541748,134.93640347595215,70.54662365417481,134.83120347595215Q70.7070236541748,134.72600347595215,70.8619236541748,134.61320347595216Q71.0169236541748,134.50030347595214,71.16602365417481,134.38020347595216Q71.31512365417481,134.26010347595215,71.45802365417481,134.13290347595216Q71.6009236541748,134.00570347595215,71.7373236541748,133.87180347595216Q71.87372365417481,133.73790347595215,72.0032236541748,133.59760347595216Q72.13272365417481,133.45730347595216,72.25512365417481,133.31090347595216Q72.37752365417481,133.16450347595216,72.4924236541748,133.01240347595214Q72.6073236541748,132.86030347595215,72.71442365417481,132.70280347595215Q72.8216236541748,132.54540347595216,72.92072365417481,132.38290347595216Q73.0199236541748,132.22050347595214,73.11082365417481,132.05350347595214Q73.2017236541748,131.88650347595214,73.28422365417481,131.71530347595214Q73.3667236541748,131.54410347595214,73.4405236541748,131.36910347595216Q73.5143236541748,131.19420347595215,73.5793236541748,131.01580347595214Q73.6443236541748,130.83750347595216,73.70032365417481,130.65632347595215Q73.7562236541748,130.47510347595215,73.80312365417481,130.29140347595214Q73.8500236541748,130.10770347595215,73.8876236541748,129.92197347595214Q73.9252236541748,129.73623347595216,73.9535236541748,129.54891347595213Q73.9818236541748,129.36158347595216,74.00082365417481,129.17312347595214Q74.01972365417481,128.98466347595215,74.02912365417481,128.79551347595213Q74.0386236541748,128.60636347595215,74.0386236541748,128.41699347595215Q74.0386236541748,128.22761347595215,74.02912365417481,128.03846347595214Q74.01972365417481,127.84932347595215,74.00082365417481,127.66085347595215Q73.9818236541748,127.47239347595215,73.9535236541748,127.28506347595214Q73.9252236541748,127.09774347595214,73.8876236541748,126.91200347595215Q73.8500236541748,126.72627347595215,73.80312365417481,126.54257347595215Q73.7562236541748,126.35887347595215,73.70032365417481,126.17765347595216Q73.6443236541748,125.99643347595214,73.5793236541748,125.81812347595215Q73.5143236541748,125.63982347595214,73.4405236541748,125.46486347595214Q73.3667236541748,125.28990347595214,73.28422365417481,125.11870347595215Q73.2017236541748,124.94751347595215,73.11082365417481,124.78050347595214Q73.0199236541748,124.61348347595215,72.92072365417481,124.45105347595215Q72.8216236541748,124.28862347595215,72.71442365417481,124.13116347595215Q72.6073236541748,123.97370347595215,72.4924236541748,123.82159347595214Q72.37752365417481,123.66948347595215,72.25512365417481,123.52309347595215Q72.13272365417481,123.37671347595214,72.0032236541748,123.23639347595216Q71.87372365417481,123.09607347595215,71.7373236541748,122.96216347595215Q71.6009236541748,122.82825347595215,71.45802365417481,122.70108347595215Q71.31512365417481,122.57390347595215,71.16602365417481,122.45376347595214Q71.0169236541748,122.33362347595215,70.8619236541748,122.22081347595216Q70.7070236541748,122.10800347595215,70.54662365417481,122.00279347595215Q70.3863236541748,121.89758347595215,70.22082365417481,121.80022347595215Q70.0554236541748,121.70286347595214,69.88532365417481,121.61359647595215Q69.7152236541748,121.52432547595215,69.5408236541748,121.44335747595215Q69.36642365417481,121.36238947595214,69.1882236541748,121.28991847595215Q69.0100236541748,121.21744747595214,68.8284236541748,121.15364947595215Q68.64682365417481,121.08985047595215,68.46232365417481,121.03487847595215Q68.27769365417481,120.97990547595215,68.09059365417481,120.93389047595215Q67.90349365417481,120.88787647595215,67.7143136541748,120.85093147595215Q67.5251436541748,120.81398647595215,67.3343536541748,120.78619897595215Q67.14355365417481,120.75841187595215,66.9516036541748,120.73984987595215Q66.75964365417481,120.72128787595214,66.56699365417481,120.71199566595214Q66.37434365417481,120.70270347595215,66.1814636541748,120.70270347595215Q65.9885836541748,120.70270347595215,65.7959336541748,120.71199566595214Q65.6032836541748,120.72128787595214,65.41133365417481,120.73984987595215Q65.2193736541748,120.75841187595215,65.02858365417481,120.78619897595215Q64.8377936541748,120.81398647595215,64.64861365417481,120.85093147595215Q64.4594336541748,120.88787647595215,64.2723336541748,120.93389047595215Q64.0852336541748,120.97990547595215,63.9006536541748,121.03487847595215Q63.7160836541748,121.08985047595215,63.5344736541748,121.15364947595215Q63.352863654174804,121.21744747595214,63.17466365417481,121.28991847595215Q62.9964636541748,121.36238947595214,62.8221036541748,121.44335747595215Q62.6477436541748,121.52432547595215,62.4776336541748,121.61359647595215Q62.3075236541748,121.70286347595214,62.142083654174805,121.80022347595215Q61.97664365417481,121.89758347595215,61.81627365417481,122.00279347595215Q61.655893654174804,122.10800347595215,61.50097365417481,122.22081347595216Q61.34604365417481,122.33362347595215,61.1969436541748,122.45376347595214Q61.047843654174805,122.57390347595215,60.904933654174805,122.70108347595215Q60.76201365417481,122.82825347595215,60.6256236541748,122.96216347595215Q60.48924365417481,123.09607347595215,60.35970365417481,123.23639347595216Q60.230173654174806,123.37671347595214,60.107813654174805,123.52309347595215Q59.985453654174805,123.66948347595215,59.870553654174806,123.82159347595214Q59.75565365417481,123.97370347595215,59.64849365417481,124.13116347595215Q59.54133365417481,124.28862347595215,59.4421736541748,124.45105347595215Q59.343013654174804,124.61348347595215,59.2520846541748,124.78050347595214Q59.16116065417481,124.94751347595215,59.078693654174806,125.11870347595215Q58.99622565417481,125.28990347595214,58.922412654174806,125.46486347595214Q58.848599654174805,125.63982347595214,58.783620654174804,125.81812347595215Q58.718640654174806,125.99643347595214,58.66264965417481,126.17765347595216Q58.60665865417481,126.35887347595215,58.55979265417481,126.54257347595215Q58.51292565417481,126.72627347595215,58.475296654174805,126.91200347595215Q58.437666654174805,127.09774347595214,58.4093653541748,127.28506347595214Q58.3810636541748,127.47239347595215,58.362157954174805,127.66085347595215Q58.343252154174806,127.84932347595215,58.33378792417481,128.03846347595214Q58.324323654174805,128.22761347595215,58.324323654174805,128.41699347595215Q58.324323654174805,128.60636347595215,58.33378792417481,128.79551347595213Q58.343252154174806,128.98465347595214,58.362157954174805,129.17312347595214Q58.3810636541748,129.36158347595216,58.4093653541748,129.54890347595216Q58.437666654174805,129.73623347595216,58.475296654174805,129.92197347595214Q58.51292565417481,130.10770347595215,58.55979265417481,130.29140347595214Q58.60665865417481,130.47510347595215,58.66264965417481,130.65632347595215Q58.718640654174806,130.83750347595216,58.783620654174804,131.01580347595214Q58.848599654174805,131.19420347595215,58.922412654174806,131.36910347595216Q58.99622565417481,131.54410347595214,59.078693654174806,131.71530347595214Q59.16116065417481,131.88650347595214,59.2520846541748,132.05350347595214Q59.343013654174804,132.22050347595214,59.4421736541748,132.38290347595216Q59.54133365417481,132.54540347595216,59.64849365417481,132.70280347595215Q59.75565365417481,132.86030347595215,59.870553654174806,133.01240347595214Q59.985453654174805,133.16450347595216,60.107813654174805,133.31090347595216Q60.230173654174806,133.45730347595216,60.35970365417481,133.59760347595216Q60.48924365417481,133.73790347595215,60.6256236541748,133.87180347595216Q60.76201365417481,134.00570347595215,60.904933654174805,134.13290347595216Q61.047843654174805,134.26010347595215,61.1969436541748,134.38020347595216Q61.34604365417481,134.50030347595214,61.50097365417481,134.61320347595216Q61.655893654174804,134.72600347595215,61.81627365417481,134.83120347595215Q61.97664365417481,134.93640347595215,62.142083654174805,135.03370347595214Q62.3075236541748,135.13110347595216,62.4776336541748,135.22040347595214Q62.6477436541748,135.30960347595214,62.8221036541748,135.39060347595216Q62.9964636541748,135.47160347595215,63.17466365417481,135.54410347595214Q63.352863654174804,135.61650347595216,63.5344736541748,135.68030347595214Q63.7160836541748,135.74410347595216,63.9006536541748,135.79910347595214Q64.0852336541748,135.85410347595214,64.2723336541748,135.90010347595214Q64.4594336541748,135.94610347595216,64.64861365417481,135.98300347595216Q64.8377936541748,136.02000347595214,65.02858365417481,136.04780347595215Q65.2193736541748,136.07560347595214,65.41133365417481,136.09410347595215Q65.6032836541748,136.11270347595215,65.7959336541748,136.12200347595214Q65.9885836541748,136.13130347595214,66.1814636541748,136.13130347595214ZM71.24692365417481,123.46166347595215Q73.33862365417481,125.51534347595215,73.33862365417481,128.41699347595215Q73.33862365417481,131.31860347595216,71.24692365417481,133.37230347595215Q69.14982365417481,135.43130347595215,66.1814636541748,135.43130347595215Q63.21312365417481,135.43130347595215,61.1160436541748,133.37230347595215Q59.02432365417481,131.31860347595216,59.02432365417481,128.41699347595215Q59.02432365417481,125.51534347595215,61.1160436541748,123.46166347595215Q63.21312365417481,121.40270347595215,66.1814636541748,121.40270347595215Q69.14982365417481,121.40270347595215,71.24692365417481,123.46166347595215Z" fill-rule="evenodd" fill="#5D5D5D" fill-opacity="1"/></g></g></g><g><ellipse cx="128" cy="128" rx="8" ry="8" fill="#DB0000" fill-opacity="1"/></g><g><ellipse cx="194" cy="101" rx="8" ry="8" fill="#FFE500" fill-opacity="1"/></g><g><ellipse cx="210" cy="117" rx="8" ry="8" fill="#FFE500" fill-opacity="1"/></g><g><ellipse cx="178" cy="117" rx="8" ry="8" fill="#FFE500" fill-opacity="1"/></g><g><ellipse cx="194" cy="133" rx="8" ry="8" fill="#FFE500" fill-opacity="1"/></g><g><ellipse cx="165.5" cy="140.5" rx="9.5" ry="9.5" fill="url(#master_svg7_4_03338)" fill-opacity="1"/></g><g><ellipse cx="184.5" cy="159.5" rx="9.5" ry="9.5" fill="url(#master_svg8_4_03509)" fill-opacity="1"/></g><g><ellipse cx="129" cy="176" rx="20" ry="20" fill="url(#master_svg9_4_04024)" fill-opacity="1"/></g><g><ellipse cx="129" cy="176" rx="10" ry="10" fill="url(#master_svga_4_04103)" fill-opacity="1"/></g></g></svg>