<svg id="Layer_1" data-name="Layer 1" xmlns="http://www.w3.org/2000/svg" xmlns:xlink="http://www.w3.org/1999/xlink" width="256" height="256" viewBox="0 0 256 256">
  <defs>
    <style>
      .cls-1, .cls-12, .cls-13, .cls-15, .cls-3, .cls-42, .cls-5, .cls-6 {
        fill-rule: evenodd;
      }

      .cls-1 {
        fill: url(#linear-gradient);
      }

      .cls-2, .cls-6 {
        fill: url(#linear-gradient-2);
      }

      .cls-2 {
        clip-rule: evenodd;
      }

      .cls-3 {
        fill: url(#linear-gradient-3);
      }

      .cls-4 {
        mask: url(#mask);
      }

      .cls-5 {
        fill: #a6a1a1;
      }

      .cls-7 {
        clip-path: url(#clip-path);
      }

      .cls-8 {
        fill: url(#linear-gradient-5);
      }

      .cls-9 {
        fill: url(#linear-gradient-6);
      }

      .cls-10 {
        fill: url(#linear-gradient-7);
      }

      .cls-11 {
        opacity: 0.24;
      }

      .cls-13 {
        fill: #e0e0e0;
        opacity: 0.47;
      }

      .cls-14, .cls-15 {
        fill: #141414;
      }

      .cls-16 {
        fill: url(#linear-gradient-8);
      }

      .cls-17 {
        fill: url(#linear-gradient-9);
      }

      .cls-18 {
        fill: #212121;
      }

      .cls-19 {
        fill: url(#linear-gradient-10);
      }

      .cls-20 {
        fill: url(#linear-gradient-11);
      }

      .cls-21, .cls-29, .cls-32, .cls-51 {
        fill: none;
      }

      .cls-21 {
        stroke: #bc0000;
      }

      .cls-21, .cls-22, .cls-23, .cls-24, .cls-25, .cls-26, .cls-27, .cls-29, .cls-30, .cls-32, .cls-33, .cls-34, .cls-35, .cls-36, .cls-38, .cls-39, .cls-40, .cls-41, .cls-43, .cls-44, .cls-45, .cls-46, .cls-50, .cls-51, .cls-52, .cls-53, .cls-54, .cls-57 {
        stroke-miterlimit: 10;
      }

      .cls-22, .cls-30, .cls-32 {
        stroke: #0c0c0c;
      }

      .cls-22, .cls-30 {
        stroke-width: 0.5px;
      }

      .cls-22 {
        fill: url(#linear-gradient-12);
      }

      .cls-23, .cls-52, .cls-53 {
        stroke: #141414;
      }

      .cls-23, .cls-32, .cls-38, .cls-39, .cls-40, .cls-41, .cls-43, .cls-44, .cls-45, .cls-46, .cls-50 {
        stroke-width: 0.75px;
      }

      .cls-23 {
        fill: url(#linear-gradient-13);
      }

      .cls-24, .cls-25, .cls-26, .cls-27, .cls-33, .cls-34, .cls-35, .cls-36, .cls-50 {
        stroke: #262626;
      }

      .cls-24, .cls-25, .cls-26, .cls-27, .cls-33, .cls-34, .cls-35, .cls-36, .cls-53, .cls-54 {
        stroke-width: 0.25px;
      }

      .cls-24 {
        fill: url(#linear-gradient-14);
      }

      .cls-25 {
        fill: url(#linear-gradient-15);
      }

      .cls-26 {
        fill: url(#linear-gradient-16);
      }

      .cls-27 {
        fill: url(#linear-gradient-17);
      }

      .cls-28 {
        fill: url(#linear-gradient-18);
      }

      .cls-29 {
        stroke: #00417c;
      }

      .cls-30 {
        fill: url(#linear-gradient-19);
      }

      .cls-31 {
        fill: url(#linear-gradient-20);
      }

      .cls-33 {
        fill: url(#linear-gradient-21);
      }

      .cls-34 {
        fill: url(#linear-gradient-22);
      }

      .cls-35 {
        fill: url(#linear-gradient-23);
      }

      .cls-36 {
        fill: url(#linear-gradient-24);
      }

      .cls-37 {
        fill: #6b6b6b;
      }

      .cls-38, .cls-39, .cls-40, .cls-41, .cls-43, .cls-44, .cls-45, .cls-46, .cls-51 {
        stroke: #191919;
      }

      .cls-38 {
        fill: url(#linear-gradient-25);
      }

      .cls-39 {
        fill: url(#linear-gradient-26);
      }

      .cls-40 {
        fill: url(#linear-gradient-27);
      }

      .cls-41 {
        fill: url(#linear-gradient-28);
      }

      .cls-42 {
        fill: #0e0e0e;
      }

      .cls-43 {
        fill: url(#linear-gradient-30);
      }

      .cls-44 {
        fill: url(#linear-gradient-31);
      }

      .cls-45 {
        fill: url(#linear-gradient-32);
      }

      .cls-46 {
        fill: url(#linear-gradient-33);
      }

      .cls-47 {
        fill: #fff;
      }

      .cls-48 {
        fill: #1c1c1c;
      }

      .cls-49 {
        fill: #3b3939;
      }

      .cls-50 {
        fill: #2a2a2a;
      }

      .cls-51, .cls-52 {
        stroke-width: 2px;
      }

      .cls-52, .cls-54 {
        fill: #242424;
      }

      .cls-53 {
        fill: #494949;
      }

      .cls-54 {
        stroke: #1e1e1e;
      }

      .cls-55 {
        fill: #0a0a0a;
      }

      .cls-56 {
        fill: #111;
      }

      .cls-57 {
        fill: #3d3d3d;
        stroke: #999;
      }

      .cls-58 {
        fill: #999;
      }
    </style>
    <linearGradient id="linear-gradient" x1="32.58" y1="239.55" x2="213.35" y2="58.41" gradientTransform="matrix(1, 0, 0, -1, 0, 258)" gradientUnits="userSpaceOnUse">
      <stop offset="0" stop-color="#05815d"/>
      <stop offset="1" stop-color="#0c575f"/>
    </linearGradient>
    <linearGradient id="linear-gradient-2" x1="17" y1="196" x2="241" y2="48" gradientTransform="matrix(1, 0, 0, -1, 0, 258)" gradientUnits="userSpaceOnUse">
      <stop offset="0" stop-color="#ffe7a2"/>
      <stop offset="0.95" stop-color="#ffcb3d"/>
    </linearGradient>
    <linearGradient id="linear-gradient-3" x1="129" y1="46.86" x2="129" y2="96.79" gradientUnits="userSpaceOnUse">
      <stop offset="0" stop-color="#5d5d5d"/>
      <stop offset="0.36" stop-color="#444"/>
      <stop offset="0.74" stop-color="#313131"/>
      <stop offset="1" stop-color="#2a2a2a"/>
    </linearGradient>
    <mask id="mask" x="17" y="34" width="224" height="138" maskUnits="userSpaceOnUse">
      <g id="mask0_501_11930" data-name="mask0 501 11930">
        <path class="cls-1" d="M104.43,42.38A23,23,0,0,0,86.67,34H29A12,12,0,0,0,17,46V160a12,12,0,0,0,12,12H229a12,12,0,0,0,12-12V70.14a12,12,0,0,0-12-12H117.4Z"/>
      </g>
    </mask>
    <clipPath id="clip-path">
      <path class="cls-2" d="M92.79,74a23,23,0,0,0,13.8-4.6l9.87-7.4H229a12,12,0,0,1,12,12V198a12,12,0,0,1-12,12H29a12,12,0,0,1-12-12V86A12,12,0,0,1,29,74H92.79Z"/>
    </clipPath>
    <linearGradient id="linear-gradient-5" x1="127.21" y1="67" x2="127.21" y2="203.07" gradientUnits="userSpaceOnUse">
      <stop offset="0" stop-color="#5d5d5d"/>
      <stop offset="1" stop-color="#2a2a2a"/>
    </linearGradient>
    <linearGradient id="linear-gradient-6" x1="48.57" y1="80.5" x2="48.57" y2="203.94" gradientUnits="userSpaceOnUse">
      <stop offset="0" stop-color="#00d1e8"/>
      <stop offset="1" stop-color="#00addc"/>
    </linearGradient>
    <linearGradient id="linear-gradient-7" x1="206.07" y1="70.36" x2="206.07" y2="201.86" gradientUnits="userSpaceOnUse">
      <stop offset="0" stop-color="#fc8276"/>
      <stop offset="1" stop-color="#fc4e42"/>
    </linearGradient>
    <linearGradient id="linear-gradient-8" x1="181.08" y1="85.12" x2="181.08" y2="90.91" xlink:href="#linear-gradient-5"/>
    <linearGradient id="linear-gradient-9" x1="318.25" y1="329.37" x2="318.25" y2="335.17" gradientTransform="translate(-137.17 -244.25)" xlink:href="#linear-gradient-5"/>
    <linearGradient id="linear-gradient-10" x1="316.51" y1="439.45" x2="319.54" y2="439.45" gradientTransform="translate(-244.07 -351.63)" gradientUnits="userSpaceOnUse">
      <stop offset="0" stop-color="#5d5d5d"/>
      <stop offset="0.67" stop-color="#2a2a2a"/>
    </linearGradient>
    <linearGradient id="linear-gradient-11" x1="206.49" y1="146.81" x2="206.49" y2="173.08" gradientUnits="userSpaceOnUse">
      <stop offset="0.29" stop-color="#fc6254"/>
      <stop offset="0.56" stop-color="#fc1a11"/>
      <stop offset="0.66" stop-color="#fc382e"/>
      <stop offset="0.79" stop-color="#fc574c"/>
    </linearGradient>
    <linearGradient id="linear-gradient-12" x1="206.38" y1="143.78" x2="206.38" y2="161.83" xlink:href="#linear-gradient-5"/>
    <linearGradient id="linear-gradient-13" x1="206.38" y1="147.08" x2="206.38" y2="158.61" gradientUnits="userSpaceOnUse">
      <stop offset="0" stop-color="#727272"/>
      <stop offset="1" stop-color="#2a2a2a"/>
    </linearGradient>
    <linearGradient id="linear-gradient-14" x1="203.05" y1="145.34" x2="197.17" y2="152.51" gradientUnits="userSpaceOnUse">
      <stop offset="0" stop-color="#7a7a7a"/>
      <stop offset="1" stop-color="#2a2a2a"/>
    </linearGradient>
    <linearGradient id="linear-gradient-15" x1="202.43" y1="159.26" x2="199.27" y2="155.15" xlink:href="#linear-gradient-5"/>
    <linearGradient id="linear-gradient-16" x1="206.07" y1="162.53" x2="213.8" y2="155.89" xlink:href="#linear-gradient-14"/>
    <linearGradient id="linear-gradient-17" x1="209.37" y1="144.33" x2="213.66" y2="152.53" xlink:href="#linear-gradient-14"/>
    <linearGradient id="linear-gradient-18" x1="51.42" y1="101.66" x2="51.42" y2="127.92" gradientUnits="userSpaceOnUse">
      <stop offset="0.29" stop-color="#00bcd8"/>
      <stop offset="0.56" stop-color="#0093aa"/>
      <stop offset="0.61" stop-color="#009db5"/>
      <stop offset="0.79" stop-color="#00b9d4"/>
    </linearGradient>
    <linearGradient id="linear-gradient-19" x1="51.32" y1="98.06" x2="51.32" y2="116.11" xlink:href="#linear-gradient-5"/>
    <linearGradient id="linear-gradient-20" x1="51.32" y1="101.37" x2="51.32" y2="112.9" xlink:href="#linear-gradient-5"/>
    <linearGradient id="linear-gradient-21" x1="47.99" y1="99.65" x2="42.09" y2="106.85" xlink:href="#linear-gradient-14"/>
    <linearGradient id="linear-gradient-22" x1="47.37" y1="113.53" x2="44.2" y2="109.4" xlink:href="#linear-gradient-5"/>
    <linearGradient id="linear-gradient-23" x1="50.97" y1="116.77" x2="58.75" y2="110.09" xlink:href="#linear-gradient-14"/>
    <linearGradient id="linear-gradient-24" x1="54.3" y1="98.64" x2="58.62" y2="106.88" xlink:href="#linear-gradient-14"/>
    <linearGradient id="linear-gradient-25" x1="49.94" y1="129.83" x2="49.94" y2="138.86" gradientUnits="userSpaceOnUse">
      <stop offset="0" stop-color="#686868"/>
      <stop offset="1" stop-color="#2a2a2a"/>
    </linearGradient>
    <linearGradient id="linear-gradient-26" x1="49.94" y1="153.82" x2="49.94" y2="162.84" xlink:href="#linear-gradient-25"/>
    <linearGradient id="linear-gradient-27" x1="37.49" y1="141.67" x2="37.49" y2="150.69" xlink:href="#linear-gradient-25"/>
    <linearGradient id="linear-gradient-28" x1="62.61" y1="141.67" x2="62.61" y2="150.69" xlink:href="#linear-gradient-25"/>
    <linearGradient id="linear-gradient-30" x1="208.01" y1="91.9" x2="208.01" y2="100.95" xlink:href="#linear-gradient-25"/>
    <linearGradient id="linear-gradient-31" x1="195.52" y1="103.77" x2="195.52" y2="112.82" xlink:href="#linear-gradient-25"/>
    <linearGradient id="linear-gradient-32" x1="208.01" y1="115.95" x2="208.01" y2="125" xlink:href="#linear-gradient-25"/>
    <linearGradient id="linear-gradient-33" x1="220.71" y1="103.77" x2="220.71" y2="112.82" xlink:href="#linear-gradient-25"/>
  </defs>
  <path class="cls-3" d="M104.43,42.38A23,23,0,0,0,86.67,34H29A12,12,0,0,0,17,46V160a12,12,0,0,0,12,12H229a12,12,0,0,0,12-12V70.14a12,12,0,0,0-12-12H117.4Z"/>
  <g class="cls-4">
    <path class="cls-5" d="M92.79,74a23,23,0,0,0,13.8-4.6l9.87-7.4H229a12,12,0,0,1,12,12v86a12,12,0,0,1-12,12H29a12,12,0,0,1-12-12V86A12,12,0,0,1,29,74H92.79Z"/>
  </g>
  <g id="Background">
    <path class="cls-6" d="M92.79,74a23,23,0,0,0,13.8-4.6l9.87-7.4H229a12,12,0,0,1,12,12V198a12,12,0,0,1-12,12H29a12,12,0,0,1-12-12V86A12,12,0,0,1,29,74H92.79Z"/>
    <g class="cls-7">
      <rect id="Middle" class="cls-8" x="83.29" y="61.5" width="87.86" height="149"/>
      <rect id="Left" class="cls-9" x="11.71" y="66.57" width="73.71" height="147.86"/>
      <rect id="Right" class="cls-10" x="171.14" y="61" width="69.86" height="149"/>
    </g>
  </g>
  <g class="cls-11">
    <path class="cls-12" d="M17,194v4a12,12,0,0,0,12,12H229a12,12,0,0,0,12-12v-4a12,12,0,0,1-12,12H29A12,12,0,0,1,17,194Z"/>
  </g>
  <path class="cls-13" d="M106.59,69.4A23,23,0,0,1,92.79,74H29A12,12,0,0,0,17,86v4A12,12,0,0,1,29,78H92.79a23,23,0,0,0,13.8-4.6l9.87-7.4H229a12,12,0,0,1,12,12V74a12,12,0,0,0-12-12H116.46Z"/>
  <g id="Plus">
    <g id="Plus-2" data-name="Plus">
      <rect class="cls-14" x="180.22" y="84.77" width="1.71" height="6.57"/>
      <polygon class="cls-15" points="177.79 88.93 177.8 87.2 184.37 87.2 184.37 88.93 177.79 88.93"/>
    </g>
    <g id="Plus-3" data-name="Plus">
      <rect class="cls-16" x="180.33" y="84.88" width="1.51" height="6.35"/>
      <rect class="cls-17" x="180.33" y="84.88" width="1.51" height="6.35" transform="translate(269.14 -93.03) rotate(90)"/>
    </g>
  </g>
  <g id="Minus">
    <rect id="mines" class="cls-18" x="72.92" y="84.37" width="2.06" height="6.9" transform="translate(161.77 13.87) rotate(90)"/>
    <rect id="mines-2" data-name="mines" class="cls-19" x="72.99" y="84.45" width="1.9" height="6.74" transform="translate(161.76 13.88) rotate(90)"/>
  </g>
  <g id="Right_Stick" data-name="Right Stick">
    <ellipse class="cls-20" cx="206.49" cy="154.69" rx="10.5" ry="12.54"/>
    <circle class="cls-21" cx="206.47" cy="152.93" r="10.06"/>
    <g id="Right_Joy_Stick" data-name="Right Joy Stick">
      <circle id="Right_Joy_Stick-2" data-name="Right Joy Stick" class="cls-22" cx="206.38" cy="152.93" r="9.88"/>
      <circle class="cls-23" cx="206.38" cy="152.93" r="6.31"/>
      <g>
        <path class="cls-24" d="M206.18,145.12v-1.48a.41.41,0,0,0-.41-.41,9.24,9.24,0,0,0-8.91,8.9.4.4,0,0,0,.4.41h1.49a.4.4,0,0,0,.39-.38,6.94,6.94,0,0,1,6.66-6.65A.4.4,0,0,0,206.18,145.12Z"/>
        <path class="cls-25" d="M198.84,152.93h-1.67a.32.32,0,0,0-.31.32,9.16,9.16,0,0,0,9,8.89.31.31,0,0,0,.31-.32v-1.66a.31.31,0,0,0-.29-.3,6.86,6.86,0,0,1-6.76-6.64A.31.31,0,0,0,198.84,152.93Z"/>
        <path class="cls-26" d="M206.47,160.26v1.45a.42.42,0,0,0,.43.42,9.1,9.1,0,0,0,8.86-8.77.41.41,0,0,0-.42-.43h-1.45a.4.4,0,0,0-.4.39,6.83,6.83,0,0,1-6.62,6.54A.41.41,0,0,0,206.47,160.26Z"/>
        <path class="cls-27" d="M206.46,143.6v1.55a.36.36,0,0,0,.35.36,6.84,6.84,0,0,1,6.68,6.59.36.36,0,0,0,.35.35h1.55a.37.37,0,0,0,.37-.38,9.13,9.13,0,0,0-8.92-8.84A.38.38,0,0,0,206.46,143.6Z"/>
      </g>
    </g>
  </g>
  <g id="Left_Stick" data-name="Left Stick">
    <ellipse class="cls-28" cx="51.42" cy="109.54" rx="10.5" ry="12.54"/>
    <circle class="cls-29" cx="51.32" cy="107.22" r="10.06"/>
    <g id="Left_Joy_Stick" data-name="Left Joy Stick">
      <circle id="Right_Joy_Stick-3" data-name="Right Joy Stick" class="cls-30" cx="51.32" cy="107.22" r="9.88"/>
      <g>
        <circle class="cls-31" cx="51.32" cy="107.22" r="6.31"/>
        <circle class="cls-32" cx="51.32" cy="107.22" r="6.31" transform="translate(-65.48 129.3) rotate(-75.13)"/>
      </g>
      <g>
        <path class="cls-33" d="M51.12,99.41V97.92a.4.4,0,0,0-.41-.4,9.29,9.29,0,0,0-8.9,9,.4.4,0,0,0,.4.41h1.48a.39.39,0,0,0,.39-.38,7,7,0,0,1,6.67-6.72A.39.39,0,0,0,51.12,99.41Z"/>
        <path class="cls-34" d="M43.78,107.16H42.11a.31.31,0,0,0-.31.31,9.2,9.2,0,0,0,9,9,.31.31,0,0,0,.32-.31v-1.66a.29.29,0,0,0-.3-.3,6.91,6.91,0,0,1-6.76-6.7A.31.31,0,0,0,43.78,107.16Z"/>
        <path class="cls-35" d="M51.42,114.55V116a.42.42,0,0,0,.43.42,9.2,9.2,0,0,0,8.85-8.89.42.42,0,0,0-.41-.43H58.83a.41.41,0,0,0-.4.4,6.92,6.92,0,0,1-6.62,6.64A.41.41,0,0,0,51.42,114.55Z"/>
        <path class="cls-36" d="M51.4,97.89v1.55a.36.36,0,0,0,.35.35,6.91,6.91,0,0,1,6.68,6.67.36.36,0,0,0,.36.35h1.55a.38.38,0,0,0,.37-.38,9.2,9.2,0,0,0-8.93-8.91A.37.37,0,0,0,51.4,97.89Z"/>
      </g>
    </g>
  </g>
  <g id="Left_Marks" data-name="Left Marks">
    <circle class="cls-37" cx="93" cy="149.58" r="1.11"/>
    <circle class="cls-37" cx="93" cy="143.72" r="1.11"/>
    <circle class="cls-37" cx="93" cy="137.86" r="1.11"/>
    <circle class="cls-37" cx="93" cy="132" r="1.11"/>
  </g>
  <g id="Right_Marks" data-name="Right Marks">
    <circle class="cls-37" cx="163.46" cy="149.58" r="1.11"/>
    <circle class="cls-37" cx="163.46" cy="143.72" r="1.11"/>
    <circle class="cls-37" cx="163.46" cy="137.86" r="1.11"/>
    <circle class="cls-37" cx="163.46" cy="132" r="1.11"/>
  </g>
  <g id="Left_Buttons" data-name="Left Buttons">
    <circle id="Up" class="cls-38" cx="49.94" cy="134.41" r="4.94"/>
    <circle id="Down" class="cls-39" cx="49.94" cy="158.39" r="4.94"/>
    <circle id="Left-2" data-name="Left" class="cls-40" cx="37.49" cy="146.25" r="4.94"/>
    <circle id="Right-2" data-name="Right" class="cls-41" cx="62.61" cy="146.25" r="4.94"/>
    <circle id="Right-3" data-name="Right" class="cls-41" cx="62.61" cy="146.25" r="4.94"/>
    <polygon class="cls-42" points="51.42 135.07 48.47 135.07 49.96 132.46 51.42 135.07"/>
    <polygon class="cls-42" points="62.01 147.72 62.01 144.77 64.63 146.27 62.01 147.72"/>
    <polygon class="cls-42" points="38.12 144.77 38.12 147.72 35.51 146.22 38.12 144.77"/>
    <polygon class="cls-42" points="48.47 157.57 51.42 157.57 49.92 160.19 48.47 157.57"/>
  </g>
  <g id="Right_Buttons" data-name="Right Buttons">
    <circle id="X" class="cls-43" cx="208.01" cy="96.49" r="4.96"/>
    <circle id="Y" class="cls-44" cx="195.52" cy="108.36" r="4.96"/>
    <circle id="B" class="cls-45" cx="208.01" cy="120.54" r="4.96"/>
    <circle id="A" class="cls-46" cx="220.71" cy="108.36" r="4.96"/>
    <path class="cls-47" d="M207,94.42l.57.86c.15.22.28.43.41.65h0l.4-.66.56-.85h.79l-1.37,1.93,1.41,2.08H209l-.58-.91c-.16-.23-.29-.45-.44-.69h0c-.13.24-.28.45-.42.69l-.58.91h-.81l1.43-2.05-1.36-2Z"/>
    <path class="cls-47" d="M195.17,111.3v-2.37l-1.77-3.21h.82l.79,1.54c.22.42.38.76.56,1.15h0c.16-.36.35-.73.57-1.15l.8-1.54h.82l-1.87,3.2v2.38Z"/>
    <path class="cls-47" d="M206.41,117.88a6.61,6.61,0,0,1,1.32-.12,2.31,2.31,0,0,1,1.53.41,1.18,1.18,0,0,1,.46,1,1.31,1.31,0,0,1-.94,1.22v0a1.43,1.43,0,0,1,1.15,1.4,1.53,1.53,0,0,1-.47,1.12,2.84,2.84,0,0,1-1.93.52,7.27,7.27,0,0,1-1.12-.07Zm.72,2.29h.65c.77,0,1.21-.4,1.21-.94s-.49-.91-1.22-.91a2.81,2.81,0,0,0-.64.05Zm0,2.67a3.18,3.18,0,0,0,.6,0c.75,0,1.44-.28,1.44-1.09s-.66-1.08-1.44-1.08h-.6Z"/>
    <path class="cls-47" d="M219.81,108.93l-.58,1.76h-.74l1.89-5.58h.87l1.91,5.58h-.77l-.6-1.76Zm1.83-.56-.54-1.61a9.4,9.4,0,0,1-.29-1h0c-.08.33-.17.67-.28,1l-.55,1.62Z"/>
  </g>
  <rect id="divider" class="cls-48" x="85.27" y="74.07" width="0.59" height="135.93"/>
  <rect id="divider-2" data-name="divider" class="cls-48" x="170.93" y="62" width="0.5" height="148"/>
  <g id="Left_button" data-name="Left button">
    <rect id="Rectangle" class="cls-49" x="59.31" y="174.39" width="8.03" height="8.03" rx="0.84"/>
    <circle class="cls-50" cx="63.32" cy="178.41" r="2.46"/>
  </g>
  <g id="Nintendo">
    <g id="Nintendo_Logo" data-name="Nintendo Logo">
      <path class="cls-51" d="M121.35,116.8c-3.39,0-6.15,3-6.15,6.81v11.2c0,3.76,2.76,6.8,6.15,6.8h5.43V116.8Z"/>
      <path class="cls-52" d="M134.57,116.8h-4.23v24.81h4.23a6.62,6.62,0,0,0,6.43-6.8v-11.2A6.63,6.63,0,0,0,134.57,116.8Z"/>
      <ellipse class="cls-53" cx="135.61" cy="130.75" rx="2.22" ry="2.13"/>
      <ellipse class="cls-54" cx="120.99" cy="123.6" rx="2.22" ry="2.13"/>
    </g>
    <g>
      <g>
        <path class="cls-55" d="M113,148.54h.6l1.67,2.05.49.67h0c0-.33-.07-.69-.07-1v-1.68h.55v3.26h-.6L114,149.75l-.49-.68h0c0,.33.07.68.07,1v1.71H113Z"/>
        <path class="cls-55" d="M117.48,148.54h.58v3.26h-.58Z"/>
        <path class="cls-55" d="M119.32,148.54h.6l1.67,2.05.49.67h0c0-.33-.07-.69-.07-1v-1.68h.55v3.26H122l-1.67-2.05-.49-.68h0c0,.33.07.68.07,1v1.71h-.55Z"/>
        <path class="cls-55" d="M124.8,148.89h-1.39v-.35h3.37v.35h-1.39v2.91h-.59Z"/>
        <path class="cls-55" d="M127.6,148.54h2.65v.35h-2.07v1h1.75v.35h-1.75v1.19h2.14v.35H127.6Z"/>
        <path class="cls-55" d="M131.29,148.54h.6l1.67,2.05.49.67h0c0-.33-.07-.69-.07-1v-1.68h.55v3.26H134l-1.67-2.05-.49-.68h0c0,.33.07.68.07,1v1.71h-.55Z"/>
        <path class="cls-55" d="M135.82,148.54H137c1.41,0,2.17.58,2.17,1.62s-.76,1.64-2.15,1.64h-1.17Zm1.1,2.92c1.08,0,1.61-.48,1.61-1.3s-.53-1.28-1.61-1.28h-.52v2.58Z"/>
        <path class="cls-55" d="M139.86,150.16c0-1,.81-1.68,2-1.68s2,.63,2,1.68a2,2,0,0,1-3.93,0Zm3.32,0a1.36,1.36,0,0,0-2.72,0,1.36,1.36,0,0,0,2.72,0Z"/>
      </g>
      <g>
        <path class="cls-56" d="M112,162.28a3.55,3.55,0,0,1-1.23-.22,3.19,3.19,0,0,1-1.1-.69l.82-1a3.26,3.26,0,0,0,.75.47,1.8,1.8,0,0,0,.8.19,1.07,1.07,0,0,0,.66-.16.54.54,0,0,0,.21-.45.49.49,0,0,0-.06-.25.77.77,0,0,0-.18-.18,2.52,2.52,0,0,0-.29-.16l-.37-.16-.82-.35a3,3,0,0,1-.47-.24,1.74,1.74,0,0,1-.4-.37,1.89,1.89,0,0,1-.28-.48,1.75,1.75,0,0,1,0-1.34,1.79,1.79,0,0,1,.46-.6,2.15,2.15,0,0,1,.71-.4,2.59,2.59,0,0,1,.91-.15,2.87,2.87,0,0,1,1.07.21,3,3,0,0,1,1,.62l-.73.9a2.54,2.54,0,0,0-.62-.37,1.63,1.63,0,0,0-.67-.13,1,1,0,0,0-.59.15.49.49,0,0,0-.22.41.48.48,0,0,0,.28.43c.18.1.41.2.67.32l.82.32a2.18,2.18,0,0,1,.91.63,1.65,1.65,0,0,1,.33,1.07,1.87,1.87,0,0,1-.16.75,1.89,1.89,0,0,1-.47.62,2.09,2.09,0,0,1-.75.42A2.82,2.82,0,0,1,112,162.28Z"/>
        <path class="cls-56" d="M115.55,155.89H117l.44,2.94c0,.32.07.65.12,1s.09.65.12,1h0c.07-.34.13-.67.19-1s.13-.66.19-1l.67-2.94H120l.68,2.94.18,1c.06.33.12.66.19,1h0c0-.34.09-.67.13-1s.09-.66.14-1l.42-2.94h1.36L122,162.16h-1.78l-.62-2.84c-.06-.25-.1-.5-.14-.74s-.07-.49-.11-.71h0c0,.22-.07.46-.11.71s-.09.49-.14.74l-.59,2.84H116.7Z"/>
        <path class="cls-56" d="M124.71,155.89h1.43v6.27h-1.43Z"/>
        <path class="cls-56" d="M129.59,157.08h-1.73v-1.19h4.87v1.19H131v5.08h-1.42Z"/>
        <path class="cls-56" d="M137.07,162.28a3.18,3.18,0,0,1-1.12-.2,2.73,2.73,0,0,1-.93-.61,3.21,3.21,0,0,1-.63-1,4,4,0,0,1-.23-1.4,3.79,3.79,0,0,1,.24-1.39,3.15,3.15,0,0,1,.64-1,2.93,2.93,0,0,1,1-.65,3.12,3.12,0,0,1,1.14-.22,2.26,2.26,0,0,1,1.08.25,2.84,2.84,0,0,1,.8.58l-.75.9a2.65,2.65,0,0,0-.51-.36,1.27,1.27,0,0,0-.6-.14,1.4,1.4,0,0,0-.61.14,1.33,1.33,0,0,0-.49.4,2,2,0,0,0-.32.64,2.75,2.75,0,0,0-.12.84,2.4,2.4,0,0,0,.42,1.51,1.32,1.32,0,0,0,1.1.53,1.47,1.47,0,0,0,.69-.17,2.18,2.18,0,0,0,.54-.42l.74.88A2.53,2.53,0,0,1,137.07,162.28Z"/>
        <path class="cls-56" d="M140.55,155.89H142v2.42h2.15v-2.42h1.43v6.27h-1.43v-2.62H142v2.62h-1.43Z"/>
      </g>
    </g>
  </g>
  <g id="Home">
    <circle id="Home-2" data-name="Home" class="cls-14" cx="195.26" cy="178.16" r="5.92"/>
    <circle id="Home-3" data-name="Home" class="cls-57" cx="195.26" cy="178.16" r="5.05"/>
    <polygon class="cls-12" points="195.1 175.34 197.84 178.07 192.69 178.07 195.1 175.34"/>
    <rect x="193.41" y="177.91" width="3.7" height="2.8"/>
    <rect class="cls-58" x="194.74" y="178.16" width="1.11" height="1.5"/>
  </g>
</svg>
