<svg width="256" height="256" viewBox="0 0 256 256" fill="none" xmlns="http://www.w3.org/2000/svg">
<path fill-rule="evenodd" clip-rule="evenodd" d="M104.425 42.3784C100.056 37.0733 93.5437 34 86.6712 34H29C22.3726 34 17 39.3726 17 46V58.1371V68.2V160C17 166.627 22.3726 172 29 172H229C235.627 172 241 166.627 241 160V70.1371C241 63.5097 235.627 58.1371 229 58.1371H117.404L104.425 42.3784Z" fill="#6DBBDA"/>
<mask id="mask0_1155_28037" style="mask-type:alpha" maskUnits="userSpaceOnUse" x="17" y="34" width="224" height="138">
<path fill-rule="evenodd" clip-rule="evenodd" d="M104.425 42.3784C100.056 37.0733 93.5437 34 86.6712 34H29C22.3726 34 17 39.3726 17 46V58.1371V68.2V160C17 166.627 22.3726 172 29 172H229C235.627 172 241 166.627 241 160V70.1371C241 63.5097 235.627 58.1371 229 58.1371H117.404L104.425 42.3784Z" fill="url(#paint0_linear_1155_28037)"/>
</mask>
<g mask="url(#mask0_1155_28037)">
<g style="mix-blend-mode:multiply" filter="url(#filter0_f_1155_28037)">
<path fill-rule="evenodd" clip-rule="evenodd" d="M92.789 74C97.7642 74 102.605 72.3868 106.586 69.4024L116.459 62H229C235.627 62 241 67.3726 241 74V108V160C241 166.627 235.627 172 229 172H29C22.3726 172 17 166.627 17 160L17 108V86C17 79.3726 22.3726 74 29 74H87H92.789Z" fill="black" fill-opacity="0.3"/>
</g>
</g>
<g filter="url(#filter1_ii_1155_28037)">
<path fill-rule="evenodd" clip-rule="evenodd" d="M92.789 74C97.7642 74 102.605 72.3868 106.586 69.4024L116.459 62H229C235.627 62 241 67.3726 241 74V108V198C241 204.627 235.627 210 229 210H29C22.3726 210 17 204.627 17 198L17 108V86C17 79.3726 22.3726 74 29 74H87H92.789Z" fill="url(#paint1_linear_1155_28037)"/>
</g>
<path d="M134.536 111.904L125.18 148.582C125.18 148.582 118.027 121.051 116.864 117.145C115.699 113.234 113.305 111.52 109.908 111.52C106.511 111.52 104.111 113.234 102.948 117.145C101.789 121.05 94.6341 148.582 94.6341 148.582L85.2725 111.904H74C74 111.904 84.8266 151.037 86.2982 155.571C87.4429 159.108 90.1548 162 94.1746 162C98.771 162 100.92 158.649 101.916 155.571C102.9 152.51 109.908 126.663 109.908 126.663C109.908 126.663 116.916 152.511 117.899 155.571C118.893 158.649 121.043 162 125.638 162C129.661 162 132.368 159.108 133.52 155.571C134.988 151.039 145.807 111.904 145.807 111.904H134.536ZM173.186 161.622H183.858V127.104H173.186V161.622ZM172.152 115.034C172.152 118.361 174.958 121.062 178.404 121.062C181.99 121.062 184.799 118.417 184.799 115.034C184.799 111.651 181.99 109 178.404 109C174.958 109 172.152 111.704 172.152 115.034ZM151.501 161.622H162.17V127.104H151.501V161.622ZM150.464 115.034C150.464 118.361 153.265 121.062 156.713 121.062C160.297 121.062 163.111 118.417 163.111 115.034C163.111 111.651 160.297 109 156.713 109C153.265 109 150.464 111.704 150.464 115.034Z" fill="#7E7F83"/>
<defs>
<filter id="filter0_f_1155_28037" x="-20" y="25" width="298" height="184" filterUnits="userSpaceOnUse" color-interpolation-filters="sRGB">
<feFlood flood-opacity="0" result="BackgroundImageFix"/>
<feBlend mode="normal" in="SourceGraphic" in2="BackgroundImageFix" result="shape"/>
<feGaussianBlur stdDeviation="18.5" result="effect1_foregroundBlur_1155_28037"/>
</filter>
<filter id="filter1_ii_1155_28037" x="17" y="62" width="224" height="148" filterUnits="userSpaceOnUse" color-interpolation-filters="sRGB">
<feFlood flood-opacity="0" result="BackgroundImageFix"/>
<feBlend mode="normal" in="SourceGraphic" in2="BackgroundImageFix" result="shape"/>
<feColorMatrix in="SourceAlpha" type="matrix" values="0 0 0 0 0 0 0 0 0 0 0 0 0 0 0 0 0 0 127 0" result="hardAlpha"/>
<feOffset dy="4"/>
<feComposite in2="hardAlpha" operator="arithmetic" k2="-1" k3="1"/>
<feColorMatrix type="matrix" values="0 0 0 0 1 0 0 0 0 1 0 0 0 0 1 0 0 0 0.5 0"/>
<feBlend mode="normal" in2="shape" result="effect1_innerShadow_1155_28037"/>
<feColorMatrix in="SourceAlpha" type="matrix" values="0 0 0 0 0 0 0 0 0 0 0 0 0 0 0 0 0 0 127 0" result="hardAlpha"/>
<feOffset dy="-4"/>
<feComposite in2="hardAlpha" operator="arithmetic" k2="-1" k3="1"/>
<feColorMatrix type="matrix" values="0 0 0 0 0 0 0 0 0 0 0 0 0 0 0 0 0 0 0.25 0"/>
<feBlend mode="normal" in2="effect1_innerShadow_1155_28037" result="effect2_innerShadow_1155_28037"/>
</filter>
<linearGradient id="paint0_linear_1155_28037" x1="17" y1="34" x2="197.768" y2="215.142" gradientUnits="userSpaceOnUse">
<stop stop-color="#05815D"/>
<stop offset="1" stop-color="#0C575F"/>
</linearGradient>
<linearGradient id="paint1_linear_1155_28037" x1="17" y1="62" x2="247" y2="224.5" gradientUnits="userSpaceOnUse">
<stop stop-color="#F8F8FA"/>
<stop offset="1" stop-color="#EDEEF2"/>
</linearGradient>
</defs>
</svg>
