<svg width="256" height="256" viewBox="0 0 256 256" fill="none" xmlns="http://www.w3.org/2000/svg">
<path fill-rule="evenodd" clip-rule="evenodd" d="M104.425 42.3784C100.056 37.0733 93.5437 34 86.6712 34H29C22.3726 34 17 39.3726 17 46V58.1371V68.2V160C17 166.627 22.3726 172 29 172H229C235.627 172 241 166.627 241 160V70.1371C241 63.5097 235.627 58.1371 229 58.1371H117.404L104.425 42.3784Z" fill="#3E863D"/>
<mask id="mask0_571_13388" style="mask-type:alpha" maskUnits="userSpaceOnUse" x="17" y="34" width="224" height="138">
<path fill-rule="evenodd" clip-rule="evenodd" d="M104.425 42.3784C100.056 37.0733 93.5437 34 86.6712 34H29C22.3726 34 17 39.3726 17 46V58.1371V68.2V160C17 166.627 22.3726 172 29 172H229C235.627 172 241 166.627 241 160V70.1371C241 63.5097 235.627 58.1371 229 58.1371H117.404L104.425 42.3784Z" fill="url(#paint0_linear_571_13388)"/>
</mask>
<g mask="url(#mask0_571_13388)">
<g style="mix-blend-mode:multiply" filter="url(#filter0_f_571_13388)">
<path fill-rule="evenodd" clip-rule="evenodd" d="M92.789 74C97.7642 74 102.605 72.3868 106.586 69.4024L116.459 62H229C235.627 62 241 67.3726 241 74V108V160C241 166.627 235.627 172 229 172H29C22.3726 172 17 166.627 17 160L17 108V86C17 79.3726 22.3726 74 29 74H87H92.789Z" fill="black" fill-opacity="0.3"/>
</g>
</g>
<g filter="url(#filter1_ii_571_13388)">
<path fill-rule="evenodd" clip-rule="evenodd" d="M92.789 74C97.7642 74 102.605 72.3868 106.586 69.4024L116.459 62H229C235.627 62 241 67.3726 241 74V108V198C241 204.627 235.627 210 229 210H29C22.3726 210 17 204.627 17 198L17 108V86C17 79.3726 22.3726 74 29 74H87H92.789Z" fill="url(#paint1_linear_571_13388)"/>
</g>
<path d="M128.632 181C128.147 181 127.666 180.873 127.24 180.628L122.81 178.005C122.148 177.635 122.471 177.504 122.689 177.429C123.572 177.12 123.751 177.05 124.693 176.515C124.792 176.459 124.921 176.479 125.022 176.538L128.426 178.558C128.549 178.625 128.723 178.625 128.837 178.558L142.108 170.898C142.231 170.828 142.311 170.685 142.311 170.539V155.225C142.311 155.072 142.231 154.936 142.106 154.86L128.84 147.206C128.717 147.133 128.554 147.133 128.431 147.206L115.168 154.86C115.04 154.933 114.958 155.076 114.958 155.222V170.536C114.958 170.682 115.038 170.821 115.164 170.891L118.798 172.991C120.771 173.977 121.977 172.815 121.977 171.645V156.531C121.977 156.315 122.147 156.149 122.363 156.149H124.043C124.253 156.149 124.425 156.315 124.425 156.531V171.652C124.425 174.283 122.99 175.794 120.496 175.794C119.728 175.794 119.124 175.794 117.436 174.964L113.955 172.957C113.532 172.711 113.18 172.357 112.936 171.932C112.692 171.507 112.563 171.026 112.563 170.536V155.222C112.563 154.225 113.094 153.295 113.955 152.804L127.239 145.14C128.08 144.665 129.196 144.665 130.029 145.14L143.297 152.807C143.72 153.053 144.072 153.406 144.316 153.83C144.56 154.255 144.689 154.736 144.689 155.225V170.539C144.689 171.532 144.154 172.459 143.297 172.957L130.029 180.621C129.604 180.866 129.122 180.994 128.631 180.993" fill="#689F63"/>
<path d="M132.732 170.448C126.925 170.448 125.708 167.782 125.708 165.547C125.708 165.334 125.879 165.165 126.092 165.165H127.806C127.995 165.165 128.155 165.303 128.185 165.49C128.444 167.236 129.214 168.117 132.726 168.117C135.523 168.117 136.712 167.485 136.712 166.002C136.712 165.148 136.373 164.514 132.028 164.089C128.394 163.73 126.148 162.929 126.148 160.023C126.148 157.345 128.407 155.751 132.191 155.751C136.44 155.751 138.546 157.226 138.811 160.395C138.816 160.448 138.809 160.502 138.792 160.552C138.774 160.603 138.747 160.649 138.711 160.689C138.674 160.728 138.63 160.759 138.581 160.781C138.532 160.802 138.48 160.813 138.426 160.813H136.702C136.523 160.813 136.366 160.687 136.33 160.514C135.915 158.677 134.911 158.089 132.184 158.089C129.131 158.089 128.776 159.152 128.776 159.95C128.776 160.916 129.195 161.199 133.314 161.743C137.393 162.285 139.33 163.049 139.33 165.916C139.33 168.806 136.918 170.463 132.712 170.463L132.732 170.448ZM148.877 154.223H149.322C149.687 154.223 149.757 153.967 149.757 153.817C149.757 153.425 149.488 153.425 149.338 153.425H148.88L148.877 154.223ZM148.335 152.967H149.322C149.661 152.967 150.325 152.967 150.325 153.724C150.325 154.253 149.986 154.362 149.784 154.429C150.179 154.455 150.205 154.714 150.259 155.08C150.285 155.309 150.328 155.704 150.408 155.837H149.8C149.784 155.704 149.691 154.973 149.691 154.934C149.651 154.771 149.594 154.691 149.392 154.691H148.89V155.84H148.335V152.967ZM147.149 154.395C147.149 155.585 148.109 156.548 149.289 156.548C150.478 156.548 151.438 155.565 151.438 154.395C151.438 153.203 150.465 152.256 149.285 152.256C148.123 152.256 147.146 153.19 147.146 154.392L147.149 154.395ZM151.85 154.402C151.85 155.811 150.697 156.96 149.292 156.96C147.897 156.96 146.734 155.824 146.734 154.402C146.734 152.954 147.923 151.844 149.292 151.844C150.671 151.844 151.846 152.957 151.846 154.402" fill="#689F63"/>
<path fill-rule="evenodd" clip-rule="evenodd" d="M87.5367 121.08C87.5367 120.468 87.2145 119.907 86.687 119.603L72.6168 111.508C72.3814 111.37 72.1157 111.294 71.8434 111.285H71.6979C71.4282 111.295 71.1621 111.368 70.9206 111.508L56.8511 119.603C56.5924 119.754 56.3777 119.969 56.2283 120.229C56.079 120.488 56.0003 120.782 56 121.081L56.0309 142.886C56.0309 143.189 56.187 143.471 56.4528 143.62C56.7119 143.78 57.0374 143.78 57.2965 143.62L65.6611 138.83C66.1892 138.516 66.5115 137.961 66.5115 137.355V127.169C66.5109 126.87 66.589 126.577 66.738 126.319C66.8871 126.06 67.1017 125.846 67.3602 125.697L70.9213 123.646C71.1796 123.496 71.473 123.417 71.7717 123.418C72.0627 123.418 72.3596 123.493 72.6168 123.646L76.1762 125.696C76.703 125.998 77.0266 126.56 77.0266 127.168V137.354C77.0266 137.958 77.3531 138.516 77.8786 138.829L86.2378 143.615C86.3664 143.692 86.5133 143.732 86.663 143.732C86.8127 143.732 86.9597 143.692 87.0882 143.615C87.2163 143.54 87.3225 143.433 87.3963 143.304C87.4702 143.175 87.5092 143.03 87.5095 142.881L87.5367 121.08ZM153.931 132.433C153.931 132.584 153.85 132.725 153.718 132.8L148.885 135.586C148.821 135.623 148.748 135.642 148.673 135.642C148.599 135.642 148.526 135.623 148.461 135.586L143.628 132.8C143.495 132.725 143.415 132.584 143.415 132.433V126.853C143.415 126.701 143.495 126.561 143.625 126.484L148.455 123.694C148.587 123.618 148.75 123.618 148.883 123.694L153.716 126.484C153.849 126.561 153.929 126.701 153.929 126.853L153.931 132.433ZM155.236 91.1076C155.107 91.0355 154.961 90.9985 154.812 91C154.664 91.0016 154.519 91.0418 154.391 91.1165C154.132 91.2693 153.972 91.5484 153.972 91.8507V113.443C153.972 113.547 153.945 113.65 153.893 113.74C153.84 113.831 153.765 113.906 153.675 113.958C153.585 114.01 153.482 114.038 153.378 114.038C153.273 114.038 153.171 114.01 153.08 113.958L149.556 111.928C149.298 111.779 149.005 111.7 148.707 111.7C148.409 111.7 148.116 111.779 147.858 111.928L133.783 120.051C133.525 120.199 133.31 120.413 133.161 120.671C133.011 120.929 132.933 121.221 132.932 121.519V137.77C132.932 138.378 133.257 138.936 133.783 139.241L147.858 147.37C148.383 147.672 149.03 147.672 149.557 147.37L163.632 139.238C164.157 138.933 164.483 138.374 164.483 137.767V97.266C164.482 96.9632 164.401 96.666 164.247 96.405C164.094 96.144 163.873 95.9287 163.609 95.7811L155.236 91.1076ZM202.106 126.706C202.363 126.557 202.576 126.342 202.724 126.085C202.872 125.827 202.95 125.535 202.95 125.237V121.299C202.95 120.693 202.628 120.134 202.104 119.829L188.119 111.71C187.86 111.56 187.566 111.481 187.267 111.481C186.968 111.481 186.674 111.56 186.415 111.71L172.344 119.832C171.815 120.138 171.493 120.696 171.493 121.304V137.548C171.493 138.159 171.822 138.724 172.35 139.026L186.332 146.995C186.847 147.291 187.478 147.294 188 147.005L196.457 142.305C196.723 142.155 196.892 141.873 196.892 141.567C196.892 141.262 196.73 140.976 196.464 140.827L182.306 132.701C182.04 132.552 181.877 132.269 181.877 131.967V126.871C181.877 126.567 182.037 126.287 182.303 126.135L186.707 123.594C186.97 123.441 187.292 123.441 187.555 123.594L191.963 126.135C192.225 126.285 192.388 126.567 192.388 126.869V130.876C192.388 131.178 192.551 131.46 192.813 131.613C193.075 131.763 193.401 131.763 193.663 131.61L202.106 126.706Z" fill="white"/>
<path fill-rule="evenodd" clip-rule="evenodd" d="M187.061 125.946C187.111 125.918 187.167 125.902 187.224 125.902C187.281 125.902 187.338 125.918 187.387 125.946L190.088 127.504C190.189 127.563 190.25 127.671 190.25 127.787V130.906C190.25 131.022 190.189 131.13 190.088 131.188L187.387 132.746C187.338 132.775 187.281 132.791 187.224 132.791C187.167 132.791 187.111 132.775 187.061 132.746L184.362 131.188C184.312 131.16 184.27 131.119 184.241 131.07C184.212 131.02 184.197 130.964 184.196 130.906V127.787C184.196 127.671 184.256 127.563 184.359 127.504L187.061 125.946Z" fill="#689F63"/>
<path d="M126.015 137.062V121.117C126.015 120.657 125.821 120.313 125.601 120.081L120.621 128.84L125.924 137.81C126.008 137.548 126.028 137.297 126.015 137.062Z" fill="url(#paint2_linear_571_13388)"/>
<path d="M94.6227 121.117V137.062C94.6227 137.551 94.7762 137.972 94.9964 138.32L100.478 128.87L95.4947 119.93C94.719 120.533 94.5849 120.966 94.6227 121.117Z" fill="url(#paint3_linear_571_13388)"/>
<path d="M125.143 119.747C120.824 117.297 111.988 112.298 111.191 111.899C110.942 111.775 110.687 111.712 110.443 111.689L94.9966 138.321C95.3603 138.896 95.906 139.274 96.2423 139.429C100.229 141.713 108.4 146.405 109.198 146.903C109.533 147.113 109.88 147.183 110.194 147.178L125.602 120.081C125.441 119.91 125.266 119.8 125.143 119.747Z" fill="url(#paint4_linear_571_13388)"/>
<path d="M109.197 111.899C105.128 114.224 96.7403 119.049 95.7438 119.747C95.6542 119.81 95.5713 119.871 95.4946 119.93L110.487 147.152C110.792 147.104 111.043 146.995 111.191 146.903L124.395 139.429C125.327 138.897 125.755 138.334 125.924 137.81L110.568 111.704C109.981 111.616 109.444 111.776 109.197 111.899Z" fill="url(#paint5_linear_571_13388)"/>
<defs>
<filter id="filter0_f_571_13388" x="-20" y="25" width="298" height="184" filterUnits="userSpaceOnUse" color-interpolation-filters="sRGB">
<feFlood flood-opacity="0" result="BackgroundImageFix"/>
<feBlend mode="normal" in="SourceGraphic" in2="BackgroundImageFix" result="shape"/>
<feGaussianBlur stdDeviation="18.5" result="effect1_foregroundBlur_571_13388"/>
</filter>
<filter id="filter1_ii_571_13388" x="17" y="62" width="224" height="148" filterUnits="userSpaceOnUse" color-interpolation-filters="sRGB">
<feFlood flood-opacity="0" result="BackgroundImageFix"/>
<feBlend mode="normal" in="SourceGraphic" in2="BackgroundImageFix" result="shape"/>
<feColorMatrix in="SourceAlpha" type="matrix" values="0 0 0 0 0 0 0 0 0 0 0 0 0 0 0 0 0 0 127 0" result="hardAlpha"/>
<feOffset dy="4"/>
<feComposite in2="hardAlpha" operator="arithmetic" k2="-1" k3="1"/>
<feColorMatrix type="matrix" values="0 0 0 0 1 0 0 0 0 1 0 0 0 0 1 0 0 0 0.25 0"/>
<feBlend mode="normal" in2="shape" result="effect1_innerShadow_571_13388"/>
<feColorMatrix in="SourceAlpha" type="matrix" values="0 0 0 0 0 0 0 0 0 0 0 0 0 0 0 0 0 0 127 0" result="hardAlpha"/>
<feOffset dy="-4"/>
<feComposite in2="hardAlpha" operator="arithmetic" k2="-1" k3="1"/>
<feColorMatrix type="matrix" values="0 0 0 0 0 0 0 0 0 0 0 0 0 0 0 0 0 0 0.9 0"/>
<feBlend mode="soft-light" in2="effect1_innerShadow_571_13388" result="effect2_innerShadow_571_13388"/>
</filter>
<linearGradient id="paint0_linear_571_13388" x1="17" y1="34" x2="197.768" y2="215.142" gradientUnits="userSpaceOnUse">
<stop stop-color="#05815D"/>
<stop offset="1" stop-color="#0C575F"/>
</linearGradient>
<linearGradient id="paint1_linear_571_13388" x1="17" y1="62" x2="241" y2="210" gradientUnits="userSpaceOnUse">
<stop stop-color="#233056"/>
<stop offset="0.984908" stop-color="#090C15"/>
</linearGradient>
<linearGradient id="paint2_linear_571_13388" x1="115.633" y1="122.855" x2="111.568" y2="137.235" gradientUnits="userSpaceOnUse">
<stop offset="0.3" stop-color="#3E863D"/>
<stop offset="0.5" stop-color="#55934F"/>
<stop offset="0.8" stop-color="#5AAD45"/>
</linearGradient>
<linearGradient id="paint3_linear_571_13388" x1="115.633" y1="122.855" x2="111.568" y2="137.235" gradientUnits="userSpaceOnUse">
<stop offset="0.3" stop-color="#3E863D"/>
<stop offset="0.5" stop-color="#55934F"/>
<stop offset="0.8" stop-color="#5AAD45"/>
</linearGradient>
<linearGradient id="paint4_linear_571_13388" x1="101.664" y1="136.991" x2="120.789" y2="124.763" gradientUnits="userSpaceOnUse">
<stop offset="0.57" stop-color="#3E863D"/>
<stop offset="0.72" stop-color="#619857"/>
<stop offset="1" stop-color="#76AC64"/>
</linearGradient>
<linearGradient id="paint5_linear_571_13388" x1="94.5818" y1="123.257" x2="122.619" y2="147.45" gradientUnits="userSpaceOnUse">
<stop offset="0.16" stop-color="#6BBF47"/>
<stop offset="0.38" stop-color="#79B461"/>
<stop offset="0.47" stop-color="#75AC64"/>
<stop offset="0.7" stop-color="#659E5A"/>
<stop offset="0.9" stop-color="#3E863D"/>
</linearGradient>
</defs>
</svg>
