<svg width="256" height="256" viewBox="0 0 256 256" fill="none" xmlns="http://www.w3.org/2000/svg">
<g clip-path="url(#clip0_2043_36227)">
<path fill-rule="evenodd" clip-rule="evenodd" d="M104.425 42.3784C100.056 37.0733 93.5437 34 86.6712 34H29C22.3726 34 17 39.3726 17 46V58.1371V68.2V160C17 166.627 22.3726 172 29 172H229C235.627 172 241 166.627 241 160V70.1371C241 63.5097 235.627 58.1371 229 58.1371H117.404L104.425 42.3784Z" fill="#E6E6E6"/>
<mask id="mask0_2043_36227" style="mask-type:alpha" maskUnits="userSpaceOnUse" x="17" y="34" width="224" height="138">
<path fill-rule="evenodd" clip-rule="evenodd" d="M104.425 42.3784C100.056 37.0733 93.5437 34 86.6712 34H29C22.3726 34 17 39.3726 17 46V58.1371V68.2V160C17 166.627 22.3726 172 29 172H229C235.627 172 241 166.627 241 160V70.1371C241 63.5097 235.627 58.1371 229 58.1371H117.404L104.425 42.3784Z" fill="url(#paint0_linear_2043_36227)"/>
</mask>
<g mask="url(#mask0_2043_36227)">
<g style="mix-blend-mode:multiply" filter="url(#filter0_f_2043_36227)">
<path fill-rule="evenodd" clip-rule="evenodd" d="M92.789 74C97.7642 74 102.605 72.3868 106.586 69.4024L116.459 62H229C235.627 62 241 67.3726 241 74V108V160C241 166.627 235.627 172 229 172H29C22.3726 172 17 166.627 17 160L17 108V86C17 79.3726 22.3726 74 29 74H87H92.789Z" fill="black" fill-opacity="0.3"/>
</g>
</g>
<g filter="url(#filter1_ii_2043_36227)">
<path fill-rule="evenodd" clip-rule="evenodd" d="M92.789 74C97.7642 74 102.605 72.3868 106.586 69.4024L116.459 62H229C235.627 62 241 67.3726 241 74V108V198C241 204.627 235.627 210 229 210H29C22.3726 210 17 204.627 17 198L17 108V86C17 79.3726 22.3726 74 29 74H87H92.789Z" fill="url(#paint1_linear_2043_36227)"/>
</g>
<path d="M124.376 81.1987C127.162 79.604 130.791 79.5969 133.574 81.1987C147.577 89.1109 161.584 97.011 175.584 104.928C178.218 106.411 179.979 109.342 179.953 112.376V159.98C179.972 163.14 178.037 166.141 175.259 167.59C161.302 175.459 147.352 183.337 133.397 191.206C130.555 192.832 126.853 192.707 124.098 190.948C119.914 188.522 115.723 186.108 111.538 183.685C110.683 183.175 109.719 182.77 109.115 181.941C109.649 181.221 110.603 181.132 111.379 180.817C113.125 180.262 114.73 179.37 116.334 178.505C116.74 178.228 117.235 178.334 117.624 178.582C121.202 180.634 124.749 182.746 128.339 184.777C129.105 185.22 129.88 184.632 130.535 184.267C144.23 176.526 157.943 168.815 171.637 161.072C172.145 160.828 172.425 160.289 172.384 159.734C172.393 144.03 172.386 128.324 172.389 112.62C172.447 111.99 172.082 111.41 171.511 111.152C157.603 103.319 143.701 95.4745 129.796 87.6398C129.302 87.3006 128.651 87.2997 128.158 87.6372C114.251 95.4745 100.353 103.326 86.4465 111.159C85.8783 111.417 85.497 111.988 85.5646 112.62C85.567 128.324 85.5646 144.03 85.5646 159.736C85.5152 160.291 85.817 160.819 86.3209 161.058C90.0317 163.162 93.7475 165.251 97.4607 167.349C99.5527 168.474 102.121 169.144 104.426 168.281C106.46 167.552 107.885 165.476 107.847 163.317C107.866 147.705 107.837 132.091 107.861 116.481C107.81 115.788 108.468 115.215 109.142 115.281C110.925 115.268 112.71 115.257 114.493 115.285C115.237 115.268 115.749 116.015 115.658 116.713C115.65 132.424 115.677 148.135 115.646 163.845C115.65 168.033 113.93 172.589 110.057 174.637C105.286 177.109 99.3886 176.585 94.6749 174.215C90.5943 172.178 86.7002 169.774 82.692 167.592C79.9066 166.151 77.9807 163.138 78.0003 159.981V112.376C77.9711 109.279 79.8026 106.295 82.5179 104.834C96.4724 96.9586 110.425 89.0773 124.376 81.1987Z" fill="#81CD39"/>
<path d="M136.549 114.173C142.635 113.781 149.151 113.941 154.627 116.939C158.868 119.237 161.219 124.059 161.293 128.77C161.175 129.405 160.511 129.755 159.904 129.712C158.139 129.709 156.372 129.736 154.606 129.7C153.857 129.729 153.422 129.038 153.328 128.376C152.821 126.122 151.591 123.889 149.47 122.802C146.213 121.172 142.437 121.254 138.886 121.288C136.293 121.425 133.506 121.65 131.309 123.174C129.623 124.329 129.111 126.66 129.712 128.538C130.28 129.886 131.836 130.321 133.11 130.722C140.444 132.64 148.216 132.449 155.411 134.973C158.39 136.003 161.303 138.004 162.323 141.122C163.657 145.302 163.072 150.298 160.098 153.654C157.686 156.415 154.174 157.918 150.671 158.734C146.01 159.774 141.174 159.8 136.441 159.339C131.99 158.831 127.359 157.662 123.924 154.63C120.986 152.079 119.551 148.104 119.693 144.268C119.727 143.62 120.372 143.168 120.993 143.221C122.771 143.207 124.55 143.202 126.328 143.224C127.038 143.173 127.565 143.787 127.601 144.457C127.929 146.604 128.736 148.858 130.609 150.131C134.223 152.463 138.758 152.303 142.896 152.368C146.324 152.217 150.173 152.171 152.971 149.904C154.447 148.612 154.884 146.449 154.485 144.589C154.053 143.019 152.41 142.287 150.999 141.808C143.759 139.518 135.899 140.349 128.729 137.759C125.818 136.73 123.003 134.785 121.885 131.795C120.324 127.562 121.039 122.326 124.325 119.084C127.528 115.859 132.152 114.617 136.549 114.173Z" fill="#81CD39"/>
</g>
<defs>
<filter id="filter0_f_2043_36227" x="-20" y="25" width="298" height="184" filterUnits="userSpaceOnUse" color-interpolation-filters="sRGB">
<feFlood flood-opacity="0" result="BackgroundImageFix"/>
<feBlend mode="normal" in="SourceGraphic" in2="BackgroundImageFix" result="shape"/>
<feGaussianBlur stdDeviation="18.5" result="effect1_foregroundBlur_2043_36227"/>
</filter>
<filter id="filter1_ii_2043_36227" x="17" y="62" width="224" height="148" filterUnits="userSpaceOnUse" color-interpolation-filters="sRGB">
<feFlood flood-opacity="0" result="BackgroundImageFix"/>
<feBlend mode="normal" in="SourceGraphic" in2="BackgroundImageFix" result="shape"/>
<feColorMatrix in="SourceAlpha" type="matrix" values="0 0 0 0 0 0 0 0 0 0 0 0 0 0 0 0 0 0 127 0" result="hardAlpha"/>
<feOffset dy="-4"/>
<feComposite in2="hardAlpha" operator="arithmetic" k2="-1" k3="1"/>
<feColorMatrix type="matrix" values="0 0 0 0 0 0 0 0 0 0 0 0 0 0 0 0 0 0 0.25 0"/>
<feBlend mode="normal" in2="shape" result="effect1_innerShadow_2043_36227"/>
<feColorMatrix in="SourceAlpha" type="matrix" values="0 0 0 0 0 0 0 0 0 0 0 0 0 0 0 0 0 0 127 0" result="hardAlpha"/>
<feOffset dy="4"/>
<feComposite in2="hardAlpha" operator="arithmetic" k2="-1" k3="1"/>
<feColorMatrix type="matrix" values="0 0 0 0 1 0 0 0 0 1 0 0 0 0 1 0 0 0 0.25 0"/>
<feBlend mode="normal" in2="effect1_innerShadow_2043_36227" result="effect2_innerShadow_2043_36227"/>
</filter>
<linearGradient id="paint0_linear_2043_36227" x1="17" y1="34" x2="197.768" y2="215.142" gradientUnits="userSpaceOnUse">
<stop stop-color="#05815D"/>
<stop offset="1" stop-color="#0C575F"/>
</linearGradient>
<linearGradient id="paint1_linear_2043_36227" x1="17" y1="62" x2="241" y2="210" gradientUnits="userSpaceOnUse">
<stop stop-color="#5F585E"/>
<stop offset="1" stop-color="#010101"/>
</linearGradient>
<clipPath id="clip0_2043_36227">
<rect width="256" height="256" fill="white"/>
</clipPath>
</defs>
</svg>
