<?xml version="1.0" encoding="UTF-8" standalone="no"?>
<!DOCTYPE svg PUBLIC "-//W3C//DTD SVG 1.1//EN" "http://www.w3.org/Graphics/SVG/1.1/DTD/svg11.dtd">
<svg width="100%" height="100%" viewBox="0 0 256 256" version="1.1" xmlns="http://www.w3.org/2000/svg" xmlns:xlink="http://www.w3.org/1999/xlink" xml:space="preserve" xmlns:serif="http://www.serif.com/" style="fill-rule:evenodd;clip-rule:evenodd;stroke-linejoin:round;stroke-miterlimit:2;">
    <g id="Roblox-Studio" serif:id="Roblox Studio" transform="matrix(1,0,0,1,0,-0.198547)">
        <path d="M104.425,42.378C100.056,37.073 93.544,34 86.671,34L29,34C22.373,34 17,39.373 17,46L17,102.704L241,103.257L241,70.137C241,63.51 235.627,58.137 229,58.137L117.404,58.137L104.425,42.378Z" style="fill:rgb(17,28,50);"/>
        <path d="M104.425,42.378C100.056,37.073 93.544,34 86.671,34L29,34C22.373,34 17,39.373 17,46L17,102.704L241,103.257L241,70.137C241,63.51 235.627,58.137 229,58.137L117.404,58.137L104.425,42.378Z" style="fill:url(#_Linear1);"/>
        <path d="M92.789,74C97.764,74 102.605,72.387 106.586,69.402L116.459,62L229,62C235.627,62 241,67.373 241,74L241,108L17,108L17,86C17,79.373 22.373,74 29,74L92.789,74Z" style="fill:url(#_Linear2);"/>
        <g transform="matrix(1,0,0,1,0,4)">
            <path d="M17,194L17,186.199L241,186.199L241,194C241,200.627 235.627,206 229,206L29,206C22.373,206 17,200.627 17,194Z" style="fill:url(#_Linear3);"/>
        </g>
        <path d="M92.789,78C97.764,78 102.605,76.387 106.586,73.402L116.459,66L229,66C235.627,66 241,71.373 241,78L241,194C241,200.627 235.627,206 229,206L29,206C22.373,206 17,200.627 17,194L17,90C17,83.373 22.373,78 29,78L92.789,78Z" style="fill:url(#_Linear4);"/>
        <g>
            <g transform="matrix(-5.27351,-1.41303,0.380413,-1.41972,918.64,440.871)">
                <path d="M162.893,93.017L145.777,93.017L147.718,85.806L160.942,85.806L162.893,93.017Z" style="fill:url(#_Linear5);"/>
            </g>
            <g transform="matrix(1.4179,-5.29168,1.41972,0.380413,-177.758,929.405)">
                <path d="M162.893,93.017L145.777,93.017L147.718,85.806L160.952,85.806L162.893,93.017Z" style="fill:url(#_Linear6);"/>
            </g>
            <g transform="matrix(5.27594,1.41369,-0.380413,1.41972,-662.977,-168.957)">
                <path d="M162.893,93.017L145.777,93.017L147.706,85.806L160.952,85.806L162.893,93.017Z" style="fill:url(#_Linear7);"/>
            </g>
            <g transform="matrix(-1.4179,5.29168,-1.41972,-0.380413,433.777,-657.42)">
                <path d="M162.893,93.017L145.777,93.017L147.718,85.806L160.952,85.806L162.893,93.017Z" style="fill:url(#_Linear8);"/>
            </g>
            <g transform="matrix(1.36906,0.36684,-0.212082,0.7915,-18.4427,-18.4457)">
                <rect x="102.506" y="91.421" width="51.006" height="88.761" style="fill-opacity:0.25;"/>
            </g>
        </g>
        <g transform="matrix(1.3068,0,0,1.3068,-40.9469,-47.5053)">
            <g transform="matrix(1.2159,0.3258,-0.189771,0.708236,-4.08307,-4.91021)">
                <path d="M154.183,106.532L110.259,106.532L110.259,145.885L127.975,145.885L127.978,137.527L154.183,137.505L154.183,106.532Z" style="fill:url(#_Linear9);"/>
            </g>
            <g transform="matrix(-1.2159,-0.3258,0.189771,-0.708236,262.648,285.756)">
                <path d="M154.183,106.532L110.259,106.532L110.259,145.885L127.975,145.885L127.978,137.527L154.183,137.505L154.183,106.532Z" style="fill:url(#_Linear10);"/>
            </g>
        </g>
    </g>
    <g id="NL2-" serif:id="NL2 " transform="matrix(1,0,0,1,0,-0.198547)">
        <path d="M104.425,42.378C100.056,37.073 93.544,34 86.671,34L29,34C22.373,34 17,39.373 17,46L17,102.704L241,103.257L241,70.137C241,63.51 235.627,58.137 229,58.137L117.404,58.137L104.425,42.378Z" style="fill:rgb(31,58,93);"/>
        <path d="M104.425,42.378C100.056,37.073 93.544,34 86.671,34L29,34C22.373,34 17,39.373 17,46L17,102.704L241,103.257L241,70.137C241,63.51 235.627,58.137 229,58.137L117.404,58.137L104.425,42.378Z" style="fill:url(#_Linear11);"/>
        <path d="M92.789,74C97.764,74 102.605,72.387 106.586,69.402L116.459,62L229,62C235.627,62 241,67.373 241,74L241,108L17,108L17,86C17,79.373 22.373,74 29,74L92.789,74Z" style="fill:url(#_Linear12);"/>
        <g transform="matrix(1,0,0,1,0,4)">
            <path d="M17,194L17,186.199L241,186.199L241,194C241,200.627 235.627,206 229,206L29,206C22.373,206 17,200.627 17,194Z" style="fill:url(#_Linear13);"/>
        </g>
        <path d="M92.789,78C97.764,78 102.605,76.387 106.586,73.402L116.459,66L229,66C235.627,66 241,71.373 241,78L241,194C241,200.627 235.627,206 229,206L29,206C22.373,206 17,200.627 17,194L17,90C17,83.373 22.373,78 29,78L92.789,78Z" style="fill:url(#_Linear14);"/>
        <g id="Logo" transform="matrix(1,0,0,1,1.70591,0)">
            <g transform="matrix(1,0,0,1,0,0.198547)">
                <circle cx="128" cy="135.801" r="43.8" style="fill:rgb(227,227,227);"/>
            </g>
            <g transform="matrix(0.943324,0,0,0.943324,7.25452,7.89522)">
                <circle cx="128" cy="135.801" r="43.8" style="fill:url(#_Linear15);"/>
            </g>
            <g id="Track" transform="matrix(-1,0,0,1,254.294,0)">
                <g transform="matrix(-1,0,0,1,254.294,0.198547)">
                    <path d="M125.769,151.156C125.769,151.156 125.199,160.271 125.199,161.8C125.199,164.846 122.726,167.319 119.68,167.319C116.634,167.319 114.161,164.846 114.161,161.8C114.161,160.939 116.282,148.584 116.282,148.584L110.078,144.772L102.101,144.846L102.095,143.053L101.503,142.349L101.587,129.066L104.555,126.102L105.979,126.099L107.502,123.186L107.484,119.746L109.928,117.447L111.61,117.44L111.581,114.015L113.01,112.415L113.957,112.407L113.935,109.773L115.535,108.201L115.778,106.979L117.037,105.842L117.836,105.806L118.408,104.633C118.887,103.916 120.311,104.38 120.064,105.341L117.193,111.723L118.276,112.841L128,112.843L137.724,112.841L138.807,111.723L135.936,105.341C135.689,104.38 137.113,103.916 137.592,104.633L138.164,105.806L138.963,105.842L140.222,106.979L140.465,108.201L142.065,109.773L142.043,112.407L142.99,112.415L144.419,114.015L144.39,117.44L146.072,117.447L148.516,119.746L148.498,123.186L150.021,126.099L151.445,126.102L154.413,129.066L154.497,142.349L153.905,143.053L153.899,144.846L145.922,144.772L139.718,148.584C139.718,148.584 141.839,160.939 141.839,161.8C141.839,164.846 139.366,167.319 136.32,167.319C133.274,167.319 130.801,164.846 130.801,161.8C130.801,160.271 130.231,151.156 130.231,151.156L128,151.182L125.769,151.156Z" style="fill:rgb(227,227,227);"/>
                </g>
                <g>
                    <g transform="matrix(1,0,0,1,-1.70591,0.198547)">
                        <path d="M113.939,132.479L108.4,132.488L105.96,137.188L104.749,137.974L107.551,141.949L117.706,141.724L118.852,135.034L113.939,132.479Z" style="fill:rgb(28,51,87);"/>
                    </g>
                    <g transform="matrix(1,0,0,1,0.259297,-11.4107)">
                        <path d="M114.684,135.922L109.835,135.961L108.315,139.111L110.279,141.561L117.706,141.56L118.733,138.418L114.684,135.922Z" style="fill:rgb(28,51,87);"/>
                    </g>
                    <g transform="matrix(1,0,0,1,1.77978,-19.0077)">
                        <path d="M114.827,137.926L110.694,137.953L109.805,139.54L111.472,141.561L117.706,141.56L118.124,140.064L114.827,137.926Z" style="fill:rgb(28,51,87);"/>
                    </g>
                    <g transform="matrix(1,0,0,1,3.75954,-24.2715)">
                        <path d="M113.88,139.246L110.615,139.288L110.359,140.147L111.472,141.561L116.865,141.56L117.254,140.945L113.88,139.246Z" style="fill:rgb(28,51,87);"/>
                    </g>
                </g>
                <g transform="matrix(-1,0,0,1,252.588,0)">
                    <g transform="matrix(1,0,0,1,-1.70591,0.198547)">
                        <path d="M113.939,132.479L108.4,132.488L105.96,137.188L104.749,137.974L107.551,141.949L117.706,141.724L118.852,135.034L113.939,132.479Z" style="fill:rgb(28,51,87);"/>
                    </g>
                    <g transform="matrix(1,0,0,1,0.259297,-11.4107)">
                        <path d="M114.684,135.922L109.835,135.961L108.315,139.111L110.279,141.561L117.706,141.56L118.733,138.418L114.684,135.922Z" style="fill:rgb(28,51,87);"/>
                    </g>
                    <g transform="matrix(1,0,0,1,1.77978,-19.0077)">
                        <path d="M114.827,137.926L110.694,137.953L109.805,139.54L111.472,141.561L117.706,141.56L118.124,140.064L114.827,137.926Z" style="fill:rgb(28,51,87);"/>
                    </g>
                    <g transform="matrix(1,0,0,1,3.75954,-24.2715)">
                        <path d="M113.88,139.246L110.615,139.288L110.359,140.147L111.472,141.561L116.865,141.56L117.254,140.945L113.88,139.246Z" style="fill:rgb(28,51,87);"/>
                    </g>
                </g>
            </g>
        </g>
        <g transform="matrix(0.933688,0,0,0.933688,9.26014,9.2038)">
            <path d="M132.572,82.37C130.193,82.211 127.807,82.211 125.428,82.37L123.861,86.803C122.999,86.894 122.139,87.007 121.282,87.143L118.621,83.266C116.282,83.728 113.977,84.346 111.72,85.115L111.355,89.803C110.545,90.113 109.743,90.445 108.951,90.798L105.378,87.742C103.238,88.794 101.171,89.987 99.19,91.314L100.051,95.937C99.349,96.447 98.661,96.975 97.987,97.521L93.744,95.493C91.949,97.063 90.262,98.751 88.692,100.546L90.719,104.788C90.173,105.462 89.645,106.15 89.136,106.852L84.513,105.992C83.186,107.972 81.992,110.04 80.941,112.179L83.997,115.752C83.644,116.545 83.312,117.346 83.001,118.156L78.313,118.522C77.544,120.778 76.926,123.084 76.464,125.423L80.341,128.083C80.205,128.94 80.092,129.8 80.002,130.663L75.568,132.229C75.409,134.608 75.409,136.995 75.568,139.374L80.002,140.94C80.092,141.803 80.205,142.663 80.341,143.52L76.464,146.18C76.926,148.519 77.544,150.825 78.313,153.081L83.001,153.447C83.312,154.257 83.644,155.058 83.997,155.85L80.941,159.424C81.992,161.563 83.186,163.63 84.513,165.611L89.136,164.751C89.645,165.453 90.173,166.141 90.719,166.815L88.692,171.057C90.262,172.852 91.949,174.54 93.744,176.109L97.987,174.082C98.661,174.628 99.349,175.156 100.051,175.666L99.19,180.289C101.171,181.616 103.238,182.809 105.378,183.861L108.951,180.805C109.743,181.158 110.545,181.49 111.355,181.8L111.72,186.488C113.977,187.257 116.282,187.875 118.621,188.337L121.282,184.46C122.139,184.596 122.999,184.709 123.861,184.8L125.428,189.233C127.807,189.392 130.193,189.392 132.572,189.233L134.139,184.8C135.001,184.709 135.861,184.596 136.718,184.46L139.379,188.337C141.718,187.875 144.023,187.257 146.28,186.488L146.645,181.8C147.455,181.49 148.257,181.158 149.049,180.805L152.622,183.861C154.762,182.809 156.829,181.616 158.81,180.289L157.949,175.666C158.651,175.156 159.339,174.628 160.013,174.082L164.256,176.109C166.051,174.54 167.738,172.852 169.308,171.057L167.281,166.815C167.827,166.141 168.355,165.453 168.864,164.751L173.487,165.611C174.814,163.63 176.008,161.563 177.059,159.424L174.003,155.85C174.356,155.058 174.688,154.257 174.999,153.447L179.687,153.081C180.456,150.825 181.074,148.519 181.536,146.18L177.659,143.52C177.795,142.663 177.908,141.803 177.998,140.94L182.432,139.374C182.591,136.995 182.591,134.608 182.432,132.229L177.998,130.663C177.908,129.8 177.795,128.94 177.659,128.083L181.536,125.423C181.074,123.084 180.456,120.778 179.687,118.522L174.999,118.156C174.688,117.346 174.356,116.545 174.003,115.752L177.059,112.179C176.008,110.04 174.814,107.972 173.487,105.992L168.864,106.852C168.355,106.15 167.827,105.462 167.281,104.788L169.308,100.546C167.738,98.751 166.051,97.063 164.256,95.493L160.013,97.521C159.339,96.975 158.651,96.447 157.949,95.937L158.81,91.314C156.829,89.987 154.762,88.794 152.622,87.742L149.049,90.798C148.257,90.445 147.455,90.113 146.645,89.803L146.28,85.115C144.023,84.346 141.718,83.728 139.379,83.266L136.718,87.143C135.861,87.007 135.001,86.894 134.139,86.803L132.572,82.37ZM129,89.564C154.519,89.564 175.237,110.282 175.237,135.801C175.237,161.32 154.519,182.039 129,182.039C103.481,182.039 82.763,161.32 82.763,135.801C82.763,110.282 103.481,89.564 129,89.564Z" style="fill:rgb(227,227,227);"/>
        </g>
        <g transform="matrix(1.04762,-0.264071,0.264071,1.04762,-70.4647,39.6815)">
            <path d="M206.717,154.334C205.82,154.272 204.919,154.272 204.022,154.334L202.769,157.426C201.046,157.699 199.377,158.241 197.823,159.033L194.992,157.268C194.23,157.745 193.501,158.275 192.812,158.852L193.615,162.09C192.382,163.323 191.35,164.743 190.558,166.297L187.231,166.533C186.895,167.368 186.617,168.224 186.398,169.097L188.951,171.243C188.678,172.966 188.678,174.721 188.951,176.444L186.398,178.591C186.617,179.464 186.895,180.32 187.231,181.154L190.558,181.39C191.35,182.945 192.382,184.364 193.615,185.598L192.812,188.835C193.501,189.413 194.23,189.942 194.992,190.42L197.823,188.655C199.377,189.447 201.046,189.989 202.769,190.262L204.022,193.354C204.919,193.415 205.82,193.415 206.717,193.354L207.97,190.262C209.693,189.989 211.362,189.447 212.916,188.655L215.747,190.42C216.509,189.942 217.238,189.413 217.927,188.835L217.123,185.598C218.357,184.364 219.389,182.945 220.18,181.39L223.508,181.154C223.844,180.32 224.122,179.464 224.341,178.591L221.788,176.444C222.06,174.721 222.06,172.966 221.788,171.243L224.341,169.097C224.122,168.224 223.844,167.368 223.508,166.533L220.18,166.297C219.389,164.743 218.357,163.323 217.123,162.09L217.927,158.852C217.238,158.275 216.509,157.745 215.747,157.268L212.916,159.033C211.362,158.241 209.693,157.699 207.97,157.426L206.717,154.334ZM205.369,161.29C212.298,161.29 217.924,166.915 217.924,173.844C217.924,180.773 212.298,186.398 205.369,186.398C198.441,186.398 192.815,180.773 192.815,173.844C192.815,166.915 198.441,161.29 205.369,161.29Z" style="fill:rgb(227,227,227);"/>
        </g>
    </g>
    <defs>
        <linearGradient id="_Linear1" x1="0" y1="0" x2="1" y2="0" gradientUnits="userSpaceOnUse" gradientTransform="matrix(0.0476427,-60.364,60.364,0.0476427,88.1041,103.257)"><stop offset="0" style="stop-color:black;stop-opacity:1"/><stop offset="0.47" style="stop-color:black;stop-opacity:0.231373"/><stop offset="1" style="stop-color:black;stop-opacity:0"/></linearGradient>
        <linearGradient id="_Linear2" x1="0" y1="0" x2="1" y2="0" gradientUnits="userSpaceOnUse" gradientTransform="matrix(224,0,0,144,17,134)"><stop offset="0" style="stop-color:rgb(35,69,114);stop-opacity:1"/><stop offset="1" style="stop-color:rgb(24,43,70);stop-opacity:1"/></linearGradient>
        <linearGradient id="_Linear3" x1="0" y1="0" x2="1" y2="0" gradientUnits="userSpaceOnUse" gradientTransform="matrix(224,0,0,19.8015,17,196.099)"><stop offset="0" style="stop-color:rgb(12,34,64);stop-opacity:1"/><stop offset="1" style="stop-color:rgb(5,7,10);stop-opacity:1"/></linearGradient>
        <linearGradient id="_Linear4" x1="0" y1="0" x2="1" y2="0" gradientUnits="userSpaceOnUse" gradientTransform="matrix(224,148,-148,224,17,62)"><stop offset="0" style="stop-color:rgb(18,53,99);stop-opacity:1"/><stop offset="1" style="stop-color:rgb(13,18,28);stop-opacity:1"/></linearGradient>
        <linearGradient id="_Linear5" x1="0" y1="0" x2="1" y2="0" gradientUnits="userSpaceOnUse" gradientTransform="matrix(0.0217139,9.13027,-2.45803,0.0806558,154.396,83.6766)"><stop offset="0" style="stop-color:black;stop-opacity:0.25"/><stop offset="1" style="stop-color:black;stop-opacity:0"/></linearGradient>
        <linearGradient id="_Linear6" x1="0" y1="0" x2="1" y2="0" gradientUnits="userSpaceOnUse" gradientTransform="matrix(-0.0403783,7.95233,-2.13355,-0.150501,154.204,84.6406)"><stop offset="0" style="stop-color:black;stop-opacity:0.25"/><stop offset="1" style="stop-color:black;stop-opacity:0"/></linearGradient>
        <linearGradient id="_Linear7" x1="0" y1="0" x2="1" y2="0" gradientUnits="userSpaceOnUse" gradientTransform="matrix(0.0186918,7.01173,-1.88681,0.0694624,154.436,85.2511)"><stop offset="0" style="stop-color:black;stop-opacity:0.25"/><stop offset="1" style="stop-color:black;stop-opacity:0"/></linearGradient>
        <linearGradient id="_Linear8" x1="0" y1="0" x2="1" y2="0" gradientUnits="userSpaceOnUse" gradientTransform="matrix(-0.00741584,7.19527,-1.93044,-0.0276409,155.119,85.2969)"><stop offset="0" style="stop-color:black;stop-opacity:0.25"/><stop offset="1" style="stop-color:black;stop-opacity:0"/></linearGradient>
        <linearGradient id="_Linear9" x1="0" y1="0" x2="1" y2="0" gradientUnits="userSpaceOnUse" gradientTransform="matrix(-0.19625,-39.6392,23.0889,-0.336923,114.546,145.665)"><stop offset="0" style="stop-color:rgb(0,116,192);stop-opacity:1"/><stop offset="1" style="stop-color:rgb(0,235,255);stop-opacity:1"/></linearGradient>
        <linearGradient id="_Linear10" x1="0" y1="0" x2="1" y2="0" gradientUnits="userSpaceOnUse" gradientTransform="matrix(0.112801,-39.584,12.0327,0.101064,121.587,146.045)"><stop offset="0" style="stop-color:rgb(19,111,187);stop-opacity:1"/><stop offset="1" style="stop-color:rgb(22,164,255);stop-opacity:1"/></linearGradient>
        <linearGradient id="_Linear11" x1="0" y1="0" x2="1" y2="0" gradientUnits="userSpaceOnUse" gradientTransform="matrix(0.0476427,-60.364,60.364,0.0476427,88.1041,103.257)"><stop offset="0" style="stop-color:black;stop-opacity:1"/><stop offset="0.47" style="stop-color:black;stop-opacity:0.231373"/><stop offset="1" style="stop-color:black;stop-opacity:0"/></linearGradient>
        <linearGradient id="_Linear12" x1="0" y1="0" x2="1" y2="0" gradientUnits="userSpaceOnUse" gradientTransform="matrix(224,0,0,144,17,134)"><stop offset="0" style="stop-color:rgb(44,70,105);stop-opacity:1"/><stop offset="1" style="stop-color:rgb(30,67,119);stop-opacity:1"/></linearGradient>
        <linearGradient id="_Linear13" x1="0" y1="0" x2="1" y2="0" gradientUnits="userSpaceOnUse" gradientTransform="matrix(224,0,0,19.8015,17,196.099)"><stop offset="0" style="stop-color:rgb(19,40,69);stop-opacity:1"/><stop offset="1" style="stop-color:rgb(24,36,58);stop-opacity:1"/></linearGradient>
        <linearGradient id="_Linear14" x1="0" y1="0" x2="1" y2="0" gradientUnits="userSpaceOnUse" gradientTransform="matrix(224,148,-148,224,17,62)"><stop offset="0" style="stop-color:rgb(44,61,94);stop-opacity:1"/><stop offset="1" style="stop-color:rgb(11,41,80);stop-opacity:1"/></linearGradient>
        <linearGradient id="_Linear15" x1="0" y1="0" x2="1" y2="0" gradientUnits="userSpaceOnUse" gradientTransform="matrix(237.458,0,0,237.458,8.5226,135.801)"><stop offset="0" style="stop-color:rgb(39,58,92);stop-opacity:1"/><stop offset="1" style="stop-color:rgb(18,45,83);stop-opacity:1"/></linearGradient>
    </defs>
</svg>
