<svg width="256" height="256" viewBox="0 0 256 256" fill="none" xmlns="http://www.w3.org/2000/svg">
<path fill-rule="evenodd" clip-rule="evenodd" d="M104.425 42.3784C100.056 37.0733 93.5437 34 86.6712 34H29C22.3726 34 17 39.3726 17 46V58.1371V68.2V160C17 166.627 22.3726 172 29 172H229C235.627 172 241 166.627 241 160V70.1371C241 63.5097 235.627 58.1371 229 58.1371H117.404L104.425 42.3784Z" fill="#1A2E02"/>
<mask id="mask0_759_22787" style="mask-type:alpha" maskUnits="userSpaceOnUse" x="17" y="34" width="224" height="138">
<path fill-rule="evenodd" clip-rule="evenodd" d="M104.425 42.3784C100.056 37.0733 93.5437 34 86.6712 34H29C22.3726 34 17 39.3726 17 46V58.1371V68.2V160C17 166.627 22.3726 172 29 172H229C235.627 172 241 166.627 241 160V70.1371C241 63.5097 235.627 58.1371 229 58.1371H117.404L104.425 42.3784Z" fill="url(#paint0_linear_759_22787)"/>
</mask>
<g mask="url(#mask0_759_22787)">
<g style="mix-blend-mode:multiply" filter="url(#filter0_f_759_22787)">
<path fill-rule="evenodd" clip-rule="evenodd" d="M92.789 74C97.7642 74 102.605 72.3868 106.586 69.4024L116.459 62H229C235.627 62 241 67.3726 241 74V108V160C241 166.627 235.627 172 229 172H29C22.3726 172 17 166.627 17 160L17 108V86C17 79.3726 22.3726 74 29 74H87H92.789Z" fill="black" fill-opacity="0.3"/>
</g>
</g>
<g filter="url(#filter1_ii_759_22787)">
<path fill-rule="evenodd" clip-rule="evenodd" d="M92.789 74C97.7642 74 102.605 72.3868 106.586 69.4024L116.459 62H229C235.627 62 241 67.3726 241 74V108V198C241 204.627 235.627 210 229 210H29C22.3726 210 17 204.627 17 198L17 108V86C17 79.3726 22.3726 74 29 74H87H92.789Z" fill="url(#paint1_linear_759_22787)"/>
</g>
<path fill-rule="evenodd" clip-rule="evenodd" d="M114.037 119.834V112.619C114.746 112.569 115.456 112.533 116.166 112.51C135.899 111.89 148.846 129.466 148.846 129.466C148.846 129.466 134.863 148.886 119.871 148.886C117.711 148.886 115.779 148.539 114.037 147.954V126.076C121.719 127.003 123.264 130.397 127.883 138.095L138.155 129.435C138.155 129.435 130.658 119.6 118.018 119.6C116.642 119.6 115.328 119.697 114.037 119.834ZM114.037 96.0008V106.778C114.745 106.722 115.454 106.677 116.166 106.651C143.608 105.727 161.487 129.157 161.487 129.157C161.487 129.157 140.95 154.128 119.557 154.128C117.597 154.128 115.762 153.947 114.037 153.641V160.303C115.512 160.491 117.04 160.601 118.635 160.601C138.543 160.601 152.941 150.435 166.883 138.401C169.193 140.252 178.656 144.754 180.602 146.727C167.346 157.825 136.454 166.769 118.94 166.769C117.303 166.762 115.667 166.677 114.037 166.513V175.876H189.706V96H114.038L114.037 96.0008ZM114.037 147.954V153.642C95.6233 150.359 90.5127 131.218 90.5127 131.218C90.5127 131.218 99.3539 121.422 114.037 119.834V126.076C114.026 126.076 114.018 126.072 114.009 126.072C106.303 125.146 100.283 132.346 100.283 132.346C100.283 132.346 103.656 144.466 114.037 147.954ZM81.3328 130.388C81.3328 130.388 92.2456 114.283 114.037 112.619V106.778C89.9013 108.715 69 129.156 69 129.156C69 129.156 80.837 163.381 114.038 166.513V160.304C89.6743 157.237 81.3328 130.388 81.3328 130.388Z" fill="url(#paint2_linear_759_22787)"/>
<defs>
<filter id="filter0_f_759_22787" x="-20" y="25" width="298" height="184" filterUnits="userSpaceOnUse" color-interpolation-filters="sRGB">
<feFlood flood-opacity="0" result="BackgroundImageFix"/>
<feBlend mode="normal" in="SourceGraphic" in2="BackgroundImageFix" result="shape"/>
<feGaussianBlur stdDeviation="18.5" result="effect1_foregroundBlur_759_22787"/>
</filter>
<filter id="filter1_ii_759_22787" x="17" y="62" width="224" height="148" filterUnits="userSpaceOnUse" color-interpolation-filters="sRGB">
<feFlood flood-opacity="0" result="BackgroundImageFix"/>
<feBlend mode="normal" in="SourceGraphic" in2="BackgroundImageFix" result="shape"/>
<feColorMatrix in="SourceAlpha" type="matrix" values="0 0 0 0 0 0 0 0 0 0 0 0 0 0 0 0 0 0 127 0" result="hardAlpha"/>
<feOffset dy="4"/>
<feComposite in2="hardAlpha" operator="arithmetic" k2="-1" k3="1"/>
<feColorMatrix type="matrix" values="0 0 0 0 1 0 0 0 0 1 0 0 0 0 1 0 0 0 0.25 0"/>
<feBlend mode="normal" in2="shape" result="effect1_innerShadow_759_22787"/>
<feColorMatrix in="SourceAlpha" type="matrix" values="0 0 0 0 0 0 0 0 0 0 0 0 0 0 0 0 0 0 127 0" result="hardAlpha"/>
<feOffset dy="-4"/>
<feComposite in2="hardAlpha" operator="arithmetic" k2="-1" k3="1"/>
<feColorMatrix type="matrix" values="0 0 0 0 0 0 0 0 0 0 0 0 0 0 0 0 0 0 0.25 0"/>
<feBlend mode="normal" in2="effect1_innerShadow_759_22787" result="effect2_innerShadow_759_22787"/>
</filter>
<linearGradient id="paint0_linear_759_22787" x1="17" y1="34" x2="197.768" y2="215.142" gradientUnits="userSpaceOnUse">
<stop stop-color="#05815D"/>
<stop offset="1" stop-color="#0C575F"/>
</linearGradient>
<linearGradient id="paint1_linear_759_22787" x1="17" y1="62" x2="241" y2="210" gradientUnits="userSpaceOnUse">
<stop stop-color="#1B4B01"/>
<stop offset="1" stop-color="#1A2B02"/>
</linearGradient>
<linearGradient id="paint2_linear_759_22787" x1="129.353" y1="96" x2="129.353" y2="175.876" gradientUnits="userSpaceOnUse">
<stop stop-color="#C1F100"/>
<stop offset="0.307812" stop-color="#96E800"/>
<stop offset="0.651568" stop-color="#80C600"/>
<stop offset="0.969282" stop-color="#5EB800"/>
</linearGradient>
</defs>
</svg>
