<svg width="256" height="256" viewBox="0 0 256 256" fill="none" xmlns="http://www.w3.org/2000/svg">
<path fill-rule="evenodd" clip-rule="evenodd" d="M104.425 42.3784C100.056 37.0733 93.5437 34 86.6712 34H29C22.3726 34 17 39.3726 17 46V58.1371V68.2V160C17 166.627 22.3726 172 29 172H229C235.627 172 241 166.627 241 160V70.1371C241 63.5097 235.627 58.1371 229 58.1371H117.404L104.425 42.3784Z" fill="#121212"/>
<mask id="mask0_759_22782" style="mask-type:alpha" maskUnits="userSpaceOnUse" x="17" y="34" width="224" height="138">
<path fill-rule="evenodd" clip-rule="evenodd" d="M104.425 42.3784C100.056 37.0733 93.5437 34 86.6712 34H29C22.3726 34 17 39.3726 17 46V58.1371V68.2V160C17 166.627 22.3726 172 29 172H229C235.627 172 241 166.627 241 160V70.1371C241 63.5097 235.627 58.1371 229 58.1371H117.404L104.425 42.3784Z" fill="url(#paint0_linear_759_22782)"/>
</mask>
<g mask="url(#mask0_759_22782)">
<g style="mix-blend-mode:multiply" filter="url(#filter0_f_759_22782)">
<path fill-rule="evenodd" clip-rule="evenodd" d="M92.789 74C97.7642 74 102.605 72.3868 106.586 69.4024L116.459 62H229C235.627 62 241 67.3726 241 74V108V160C241 166.627 235.627 172 229 172H29C22.3726 172 17 166.627 17 160L17 108V86C17 79.3726 22.3726 74 29 74H87H92.789Z" fill="black" fill-opacity="0.3"/>
</g>
</g>
<g filter="url(#filter1_ii_759_22782)">
<path fill-rule="evenodd" clip-rule="evenodd" d="M92.789 74C97.7642 74 102.605 72.3868 106.586 69.4024L116.459 62H229C235.627 62 241 67.3726 241 74V108V198C241 204.627 235.627 210 229 210H29C22.3726 210 17 204.627 17 198L17 108V86C17 79.3726 22.3726 74 29 74H87H92.789Z" fill="url(#paint1_linear_759_22782)"/>
</g>
<path fill-rule="evenodd" clip-rule="evenodd" d="M117.864 170.855L117.867 196H124.967V170.855H117.864V170.855ZM62 170.821V196H69.1645V176.881L74.7149 176.883C76.5534 176.883 77.8626 177.34 78.7486 178.285C79.8724 179.482 80.3305 181.412 80.3305 184.943V196H87.272V182.088C87.272 172.16 80.9431 170.82 74.7512 170.82H62V170.821ZM129.298 170.855V196H140.817C146.953 196 148.956 194.979 151.122 192.691C152.654 191.084 153.643 187.557 153.643 183.704C153.643 180.17 152.805 177.016 151.344 175.053C148.713 171.542 144.923 170.855 139.265 170.855H129.298ZM136.342 176.33H139.396C143.825 176.33 146.691 178.319 146.691 183.481C146.691 188.644 143.825 190.633 139.396 190.633H136.342V176.33V176.33ZM107.625 170.855L101.699 190.784L96.0191 170.857L88.3535 170.855L96.4638 196H106.699L114.874 170.855H107.626H107.625ZM156.947 196H164.05V170.857L156.946 170.855L156.947 196ZM176.855 170.864L166.938 195.991H173.941L175.51 191.55H187.245L188.73 195.991H196.333L186.341 170.862L176.855 170.865V170.864ZM181.465 175.448L185.767 187.22H177.028L181.465 175.448Z" fill="white"/>
<path fill-rule="evenodd" clip-rule="evenodd" d="M108.475 111.955V105.915C109.069 105.873 109.663 105.842 110.257 105.823C126.779 105.304 137.618 120.019 137.618 120.019C137.618 120.019 125.912 136.279 113.359 136.279C111.551 136.279 109.934 135.988 108.475 135.498V117.181C114.907 117.957 116.2 120.799 120.068 127.244L128.668 119.993C128.668 119.993 122.391 111.759 111.808 111.759C110.656 111.759 109.555 111.84 108.475 111.955ZM108.475 92.0007V101.024C109.068 100.977 109.662 100.939 110.257 100.918C133.234 100.144 148.202 119.761 148.202 119.761C148.202 119.761 131.008 140.667 113.097 140.667C111.456 140.667 109.92 140.516 108.475 140.26V145.837C109.71 145.995 110.989 146.087 112.324 146.087C128.993 146.087 141.047 137.575 152.72 127.5C154.654 129.05 162.578 132.82 164.206 134.471C153.108 143.763 127.243 151.251 112.58 151.251C111.209 151.246 109.839 151.174 108.475 151.037V158.876H171.829V92H108.476L108.475 92.0007ZM108.475 135.498V140.261C93.0581 137.512 88.7793 121.486 88.7793 121.486C88.7793 121.486 96.1816 113.285 108.475 111.955V117.181C108.466 117.181 108.459 117.178 108.451 117.178C102 116.403 96.9594 122.431 96.9594 122.431C96.9594 122.431 99.7833 132.578 108.475 135.498ZM81.0935 120.791C81.0935 120.791 90.2302 107.308 108.475 105.914V101.024C88.2674 102.645 70.7678 119.76 70.7678 119.76C70.7678 119.76 80.6783 148.414 108.476 151.037V145.838C88.0773 143.271 81.0935 120.791 81.0935 120.791Z" fill="#76B900"/>
<defs>
<filter id="filter0_f_759_22782" x="-20" y="25" width="298" height="184" filterUnits="userSpaceOnUse" color-interpolation-filters="sRGB">
<feFlood flood-opacity="0" result="BackgroundImageFix"/>
<feBlend mode="normal" in="SourceGraphic" in2="BackgroundImageFix" result="shape"/>
<feGaussianBlur stdDeviation="18.5" result="effect1_foregroundBlur_759_22782"/>
</filter>
<filter id="filter1_ii_759_22782" x="17" y="62" width="224" height="148" filterUnits="userSpaceOnUse" color-interpolation-filters="sRGB">
<feFlood flood-opacity="0" result="BackgroundImageFix"/>
<feBlend mode="normal" in="SourceGraphic" in2="BackgroundImageFix" result="shape"/>
<feColorMatrix in="SourceAlpha" type="matrix" values="0 0 0 0 0 0 0 0 0 0 0 0 0 0 0 0 0 0 127 0" result="hardAlpha"/>
<feOffset dy="4"/>
<feComposite in2="hardAlpha" operator="arithmetic" k2="-1" k3="1"/>
<feColorMatrix type="matrix" values="0 0 0 0 0.396078 0 0 0 0 0.552941 0 0 0 0 0.113725 0 0 0 1 0"/>
<feBlend mode="normal" in2="shape" result="effect1_innerShadow_759_22782"/>
<feColorMatrix in="SourceAlpha" type="matrix" values="0 0 0 0 0 0 0 0 0 0 0 0 0 0 0 0 0 0 127 0" result="hardAlpha"/>
<feOffset dy="-4"/>
<feComposite in2="hardAlpha" operator="arithmetic" k2="-1" k3="1"/>
<feColorMatrix type="matrix" values="0 0 0 0 0.192857 0 0 0 0 0.3 0 0 0 0 0 0 0 0 1 0"/>
<feBlend mode="normal" in2="effect1_innerShadow_759_22782" result="effect2_innerShadow_759_22782"/>
</filter>
<linearGradient id="paint0_linear_759_22782" x1="17" y1="34" x2="197.768" y2="215.142" gradientUnits="userSpaceOnUse">
<stop stop-color="#05815D"/>
<stop offset="1" stop-color="#0C575F"/>
</linearGradient>
<linearGradient id="paint1_linear_759_22782" x1="17" y1="62" x2="241" y2="210" gradientUnits="userSpaceOnUse">
<stop stop-color="#202020"/>
<stop offset="1" stop-color="#121212"/>
</linearGradient>
</defs>
</svg>
