<svg width="256" height="256" viewBox="0 0 256 256" fill="none" xmlns="http://www.w3.org/2000/svg">
<path fill-rule="evenodd" clip-rule="evenodd" d="M104.425 42.3784C100.056 37.0733 93.5437 34 86.6712 34H29C22.3726 34 17 39.3726 17 46V58.1371V68.2V160C17 166.627 22.3726 172 29 172H229C235.627 172 241 166.627 241 160V70.1371C241 63.5097 235.627 58.1371 229 58.1371H117.404L104.425 42.3784Z" fill="#002F19"/>
<mask id="mask0_804_18502" style="mask-type:alpha" maskUnits="userSpaceOnUse" x="17" y="34" width="224" height="138">
<path fill-rule="evenodd" clip-rule="evenodd" d="M104.425 42.3784C100.056 37.0733 93.5437 34 86.6712 34H29C22.3726 34 17 39.3726 17 46V58.1371V68.2V160C17 166.627 22.3726 172 29 172H229C235.627 172 241 166.627 241 160V70.1371C241 63.5097 235.627 58.1371 229 58.1371H117.404L104.425 42.3784Z" fill="url(#paint0_linear_804_18502)"/>
</mask>
<g mask="url(#mask0_804_18502)">
<g style="mix-blend-mode:multiply" filter="url(#filter0_f_804_18502)">
<path fill-rule="evenodd" clip-rule="evenodd" d="M92.789 74C97.7642 74 102.605 72.3868 106.586 69.4024L116.459 62H229C235.627 62 241 67.3726 241 74V108V160C241 166.627 235.627 172 229 172H29C22.3726 172 17 166.627 17 160L17 108V86C17 79.3726 22.3726 74 29 74H87H92.789Z" fill="black" fill-opacity="0.3"/>
</g>
</g>
<g filter="url(#filter1_ii_804_18502)">
<path fill-rule="evenodd" clip-rule="evenodd" d="M92.789 74C97.7642 74 102.605 72.3868 106.586 69.4024L116.459 62H229C235.627 62 241 67.3726 241 74V108V198C241 204.627 235.627 210 229 210H29C22.3726 210 17 204.627 17 198L17 108V86C17 79.3726 22.3726 74 29 74H87H92.789Z" fill="url(#paint1_linear_804_18502)"/>
</g>
<path fill-rule="evenodd" clip-rule="evenodd" d="M127.577 80.2796C126.984 80.5656 126.468 81.4959 126.468 82.2765C126.468 82.7345 126.658 82.7716 129.009 82.7716H131.55V82.1183C131.55 81.0807 130.272 79.9795 129.092 80.0003C128.557 80.0097 127.875 80.1354 127.577 80.2796ZM126.468 84.1977C126.468 84.6492 126.664 84.7714 127.621 84.9146C128.256 85.0095 129.399 85.0092 130.163 84.9141C131.359 84.7651 131.55 84.666 131.55 84.1972C131.55 83.6773 131.439 83.6532 129.009 83.6532C126.579 83.6532 126.468 83.6771 126.468 84.1977ZM126.468 86.4473V87.0811H129.009H131.55V86.4473V85.8136H129.009H126.468V86.4473ZM126.468 88.4705C126.468 88.9742 126.624 89.0596 127.738 89.1664C128.437 89.2333 129.581 89.2333 130.28 89.1664C131.394 89.0596 131.55 88.9742 131.55 88.4705C131.55 87.9125 131.48 87.8966 129.009 87.8966C126.538 87.8966 126.468 87.9125 126.468 88.4705ZM126.521 90.6301C126.594 91.2565 126.623 91.2638 129.009 91.2638C131.395 91.2638 131.424 91.2565 131.498 90.6301L131.572 89.9963H129.009H126.446L126.521 90.6301ZM126.468 92.7848V93.4186H129.009H131.55V92.7848V92.1511H129.009H126.468V92.7848ZM126.468 94.8377C126.468 95.1561 125.869 95.9389 124.976 96.7889C123.462 98.2297 121.581 99.2889 119.725 99.7467C119.162 99.8856 118.488 100.155 118.227 100.345C117.811 100.649 118.122 100.726 120.776 100.977C126.222 101.493 129.586 101.578 133.431 101.296C138.279 100.941 139.937 100.744 139.937 100.522C139.937 100.283 138.749 99.7561 138.21 99.7558C136.557 99.7551 131.55 96.057 131.55 94.8377C131.55 94.3329 131.421 94.3058 129.009 94.3058C126.598 94.3058 126.468 94.3329 126.468 94.8377ZM117.255 103.729C117.775 104.091 117.827 104.332 117.827 106.364C117.827 108.387 117.774 108.637 117.262 108.994C116.724 109.371 116.768 109.389 118.208 109.389C119.648 109.389 119.693 109.371 119.155 108.994C118.652 108.644 118.591 108.383 118.599 106.65L118.608 104.699L120.822 107.052C122.04 108.345 123.18 109.4 123.355 109.396C123.587 109.391 123.672 108.719 123.672 106.902C123.672 104.024 123.944 103.381 125.042 103.656C126.121 103.926 127.733 106.636 127.736 108.185C127.738 109.353 127.761 109.389 128.501 109.389C129.225 109.389 129.263 109.336 129.263 108.344C129.263 107.514 129.494 106.976 130.384 105.732C131.811 103.738 132.151 103.463 132.945 103.662C133.486 103.797 133.584 103.968 133.584 104.78C133.584 105.307 133.446 105.876 133.279 106.043C133.042 106.279 133.042 106.415 133.279 106.651C133.446 106.819 133.584 107.393 133.584 107.927C133.584 108.698 133.465 108.946 133.012 109.128C132.588 109.298 132.9 109.359 134.219 109.365C135.546 109.372 135.885 109.308 135.553 109.115C135.235 108.931 135.108 108.536 135.108 107.729C135.108 107.108 135.212 106.601 135.339 106.601C135.466 106.601 136.238 107.397 137.055 108.37C138 109.497 138.729 110.142 139.062 110.145C139.35 110.148 139.808 110.317 140.079 110.522C141.197 111.365 140.876 110.776 138.914 108.382L136.842 105.855L137.564 105.213C137.96 104.86 138.657 104.334 139.111 104.044C139.565 103.755 139.937 103.47 139.937 103.411C139.937 103.353 139.336 103.307 138.603 103.309C137.817 103.311 137.402 103.398 137.595 103.519C137.774 103.633 137.856 103.896 137.776 104.104C137.632 104.476 135.527 106.347 135.251 106.347C135.172 106.347 135.108 105.773 135.108 105.071C135.108 103.985 135.194 103.762 135.68 103.566C136.066 103.412 135.218 103.339 133.075 103.341C131.328 103.343 130.042 103.403 130.216 103.473C130.717 103.675 130.595 104.159 129.747 105.326L128.961 106.409L128.224 105.301C127.371 104.019 127.31 103.641 127.929 103.48C128.174 103.416 126.887 103.358 125.07 103.352C122.596 103.342 121.904 103.406 122.316 103.605C122.618 103.75 122.931 104.113 123.012 104.411C123.225 105.206 123.196 107.361 122.971 107.361C122.864 107.361 121.993 106.448 121.035 105.333L119.293 103.305L117.988 103.318C116.728 103.331 116.703 103.345 117.255 103.729ZM118.59 111.532C118.59 111.806 118.993 111.919 120.178 111.975L121.766 112.051L121.682 114.459L121.598 116.867L123.678 119.276C124.823 120.6 125.947 121.881 126.177 122.121C126.565 122.527 126.595 122.187 126.595 117.304V112.051L128.946 111.978L131.296 111.905V115.395V118.885L133.711 116.487C136.008 114.205 136.125 114.037 136.125 113.007V111.924H137.65C138.836 111.924 139.175 111.84 139.175 111.544C139.175 111.212 137.861 111.164 128.882 111.164C120.053 111.164 118.59 111.216 118.59 111.532ZM74.7522 112.7C74.8584 113.04 75.4249 114.06 76.0111 114.966C79.3543 120.135 84.2845 124.219 91.0446 127.421C94.6535 129.13 97.5715 130.041 103.507 131.312C111.353 132.992 115.64 134.837 118.358 137.703C119.867 139.293 119.957 138.908 118.679 136.328C117.359 133.662 114.866 131.097 111.373 128.811C107.577 126.326 105.372 125.393 98.9761 123.567C87.7512 120.362 82.0807 117.782 75.7987 113.02C74.6355 112.139 74.571 112.119 74.7522 112.7ZM181.742 113.238C179.615 114.983 176.814 116.717 173.61 118.274C169.336 120.35 166.633 121.334 159.633 123.363C151.199 125.807 149.152 126.732 144.559 130.176C141.998 132.097 140.254 134.144 139.031 136.667C137.934 138.931 137.87 139.774 138.904 138.35C139.694 137.263 142.093 135.441 144.003 134.477C145.886 133.528 149.858 132.274 153.193 131.576C161.414 129.857 165.635 128.375 170.6 125.467C172.789 124.185 175.49 122.163 177.577 120.245C179.825 118.18 184.033 112.145 183.196 112.187C183.095 112.192 182.441 112.665 181.742 113.238ZM190.002 116.534C187.427 118.729 180.93 123.041 176.331 125.607C167.21 130.697 160.133 133.108 151.87 133.942L147.434 134.389L149.721 134.927C150.979 135.223 152.923 135.605 154.042 135.777C156.663 136.179 163.941 136.199 166.26 135.81C175.077 134.332 182.332 129.567 187.643 121.766C189.385 119.205 191.175 116.048 190.986 115.867C190.934 115.817 190.491 116.117 190.002 116.534ZM67 116.292C67 116.479 67.6615 117.716 68.4702 119.039C74.2866 128.554 81.3668 133.818 90.8354 135.665C93.8068 136.245 100.901 136.237 104.677 135.65C107.588 135.197 110.813 134.302 109.695 134.257C105.445 134.087 100.365 133.285 96.5486 132.183C88.9334 129.983 77.568 123.943 69.6684 117.896C67.1044 115.933 67 115.871 67 116.292ZM133.804 118.941L131.355 121.43L131.489 126.057C131.576 129.049 131.534 130.683 131.37 130.683C131.231 130.683 128.968 128.171 126.341 125.1C123.715 122.03 121.541 119.549 121.509 119.587C121.478 119.625 121.38 121.424 121.292 123.585C121.204 125.746 121.013 129.91 120.868 132.838C120.377 142.743 120.183 147.54 120.268 147.638C120.314 147.692 121.699 146.763 123.346 145.574L126.341 143.413L126.41 138.677C126.448 136.072 126.58 133.977 126.703 134.023C126.827 134.068 129.241 136.729 132.067 139.936C134.894 143.143 137.321 145.88 137.459 146.02C137.626 146.187 137.657 144.986 137.551 142.471C137.234 134.935 136.605 121.881 136.43 119.194L136.252 116.451L133.804 118.941ZM110.558 136.286C109.705 136.696 107.875 137.335 106.492 137.706C104.102 138.348 103.667 138.382 97.7504 138.398C91.0748 138.416 89.5218 138.259 83.9038 137C82.0888 136.593 80.5668 136.26 80.5215 136.26C79.9096 136.26 84.0878 139.07 86.5118 140.289C87.3893 140.73 89.1619 141.454 90.4509 141.897C92.607 142.638 93.0596 142.703 96.0986 142.711C98.7982 142.719 99.7693 142.614 101.409 142.143C103.923 141.419 106.643 140.174 108.589 138.855C110.243 137.735 112.765 135.514 112.363 135.53C112.223 135.536 111.411 135.876 110.558 136.286ZM146.452 136.557C147.754 137.898 151.097 140.096 153.152 140.963C158.854 143.368 163.963 143.413 169.544 141.107C171.995 140.094 176.095 137.674 176.919 136.754C177.42 136.194 177.42 136.193 176.914 136.338C175.88 136.633 170.5 137.772 168.654 138.087C167.456 138.291 164.435 138.41 160.522 138.409C153.571 138.405 151.937 138.152 147.596 136.402L145.47 135.546L146.452 136.557ZM112.535 139.062C108.082 143.018 101.376 145.289 92.4469 145.864L89.491 146.054L90.6346 146.585C92.3058 147.362 97.4099 148.429 99.4328 148.424C104.173 148.414 108.723 146.017 111.548 142.039C112.672 140.458 113.872 138.31 113.715 138.162C113.671 138.12 113.139 138.525 112.535 139.062ZM144.536 139.1C147.487 144.888 152.714 148.428 158.312 148.428C161.085 148.428 167.537 146.925 168.005 146.17C168.072 146.061 167.359 145.951 166.421 145.925C162.488 145.815 156.661 144.799 153.533 143.678C150.675 142.654 148.029 141.22 145.934 139.559L143.981 138.011L144.536 139.1ZM131.55 147.118V152.231H134.685C136.409 152.231 137.872 152.178 137.935 152.115C137.999 152.051 137.988 151.336 137.91 150.526C137.771 149.069 137.738 149.019 134.749 145.636C133.087 143.756 131.688 142.17 131.639 142.112C131.59 142.054 131.55 144.307 131.55 147.118ZM123.29 147.809C120.421 149.85 120.233 150.037 120.097 150.981C120.017 151.533 120.008 152.04 120.076 152.107C120.144 152.175 121.609 152.231 123.334 152.231H126.468V148.935C126.468 147.123 126.439 145.64 126.403 145.64C126.368 145.64 124.967 146.616 123.29 147.809ZM92.6677 158.901V164.906H94.1839H95.7001L95.7722 162.245L95.8444 159.584L99.5906 162.879C101.651 164.691 103.397 166.173 103.471 166.173C103.545 166.173 103.574 163.521 103.537 160.279L103.468 154.385L102.007 154.309L100.546 154.233V156.908C100.546 158.379 100.479 159.582 100.398 159.582C100.272 159.582 95.5377 155.509 93.3666 153.532L92.6677 152.896V158.901ZM116.048 159.289V164.906H117.446H118.844V162.624C118.844 161.369 118.937 160.343 119.052 160.343C119.167 160.343 119.738 160.75 120.321 161.248L121.382 162.154L122.105 161.64C122.503 161.358 122.975 160.95 123.154 160.735C123.776 159.987 123.926 160.354 123.926 162.624V164.906H125.324H126.722V159.31V153.715L124.057 156.042L121.392 158.369L119.292 156.502C118.137 155.475 116.935 154.419 116.62 154.154L116.048 153.673V159.289ZM104.358 159.582V164.906H109.695H115.032V163.511V162.117H111.22C107.577 162.117 107.408 162.095 107.408 161.61C107.408 161.126 107.577 161.103 111.22 161.103H115.032V159.716V158.328L111.286 158.258C107.954 158.196 107.532 158.139 107.456 157.744C107.377 157.338 107.69 157.301 111.201 157.301H115.032V155.78V154.259H109.695H104.358V159.582ZM127.738 159.582V164.906H137.531C148.369 164.906 148.651 164.869 149.588 163.336C150.198 162.337 150.246 161.102 149.717 159.99C149.093 158.678 148.194 158.315 145.573 158.315C143.067 158.315 142.478 158.189 142.478 157.654C142.478 157.368 143.201 157.301 146.29 157.301H150.102V155.78V154.259H146.282C142.159 154.259 141.292 154.45 140.234 155.595C139.423 156.473 139.251 157.99 139.825 159.199C140.494 160.603 141.749 161.09 144.721 161.098C146.839 161.103 147.081 161.15 147.004 161.547C146.925 161.956 146.302 161.995 138.854 162.057C130.916 162.123 130.788 162.116 130.788 161.614C130.788 161.125 130.949 161.103 134.6 161.103H138.412L138.412 159.646L138.413 158.188H134.668C131.303 158.188 130.914 158.143 130.837 157.744C130.758 157.338 131.07 157.301 134.582 157.301H138.412V155.78V154.259H133.075H127.738V159.582ZM151.119 159.582V164.906H156.972C163.347 164.906 164.047 164.785 165.054 163.508C166.07 162.219 165.626 159.54 164.268 158.766C163.949 158.584 162.47 158.386 160.906 158.315C158.508 158.206 158.101 158.125 158.028 157.744C157.95 157.338 158.263 157.301 161.774 157.301H165.605V155.78V154.259L161.729 154.259C157.454 154.259 156.599 154.482 155.584 155.862C154.442 157.415 155.11 159.707 156.982 160.659C157.624 160.986 158.468 161.102 160.189 161.103C162.465 161.103 163.314 161.389 162.524 161.888C162.131 162.137 154.941 162.203 154.316 161.963C153.975 161.832 153.914 161.243 153.914 158.034V154.259H152.517H151.119V159.582ZM120.688 169.025C120.754 169.199 122.624 174.673 124.845 181.189C128.437 191.73 129.254 193.861 129.267 192.727C129.27 192.458 136.748 170.427 137.269 169.152C137.439 168.735 136.948 168.708 129.009 168.708C122.362 168.708 120.594 168.776 120.688 169.025Z" fill="#C8C8C8"/>
<defs>
<filter id="filter0_f_804_18502" x="-20" y="25" width="298" height="184" filterUnits="userSpaceOnUse" color-interpolation-filters="sRGB">
<feFlood flood-opacity="0" result="BackgroundImageFix"/>
<feBlend mode="normal" in="SourceGraphic" in2="BackgroundImageFix" result="shape"/>
<feGaussianBlur stdDeviation="18.5" result="effect1_foregroundBlur_804_18502"/>
</filter>
<filter id="filter1_ii_804_18502" x="17" y="62" width="224" height="148" filterUnits="userSpaceOnUse" color-interpolation-filters="sRGB">
<feFlood flood-opacity="0" result="BackgroundImageFix"/>
<feBlend mode="normal" in="SourceGraphic" in2="BackgroundImageFix" result="shape"/>
<feColorMatrix in="SourceAlpha" type="matrix" values="0 0 0 0 0 0 0 0 0 0 0 0 0 0 0 0 0 0 127 0" result="hardAlpha"/>
<feOffset dy="-4"/>
<feComposite in2="hardAlpha" operator="arithmetic" k2="-1" k3="1"/>
<feColorMatrix type="matrix" values="0 0 0 0 0 0 0 0 0 0 0 0 0 0 0 0 0 0 0.25 0"/>
<feBlend mode="normal" in2="shape" result="effect1_innerShadow_804_18502"/>
<feColorMatrix in="SourceAlpha" type="matrix" values="0 0 0 0 0 0 0 0 0 0 0 0 0 0 0 0 0 0 127 0" result="hardAlpha"/>
<feOffset dy="4"/>
<feComposite in2="hardAlpha" operator="arithmetic" k2="-1" k3="1"/>
<feColorMatrix type="matrix" values="0 0 0 0 1 0 0 0 0 1 0 0 0 0 1 0 0 0 0.25 0"/>
<feBlend mode="normal" in2="effect1_innerShadow_804_18502" result="effect2_innerShadow_804_18502"/>
</filter>
<linearGradient id="paint0_linear_804_18502" x1="17" y1="34" x2="197.768" y2="215.142" gradientUnits="userSpaceOnUse">
<stop stop-color="#05815D"/>
<stop offset="1" stop-color="#0C575F"/>
</linearGradient>
<linearGradient id="paint1_linear_804_18502" x1="17" y1="62" x2="241" y2="210" gradientUnits="userSpaceOnUse">
<stop stop-color="#6CC147"/>
<stop offset="0.432814" stop-color="#00914E"/>
<stop offset="1" stop-color="#002011"/>
</linearGradient>
</defs>
</svg>
