<svg width="256" height="256" viewBox="0 0 256 256" fill="none" xmlns="http://www.w3.org/2000/svg">
<g clip-path="url(#clip0_2005_32260)">
<path fill-rule="evenodd" clip-rule="evenodd" d="M104.425 42.3784C100.056 37.0733 93.5437 34 86.6712 34H29C22.3726 34 17 39.3726 17 46V58.1371V68.2V160C17 166.627 22.3726 172 29 172H229C235.627 172 241 166.627 241 160V70.1371C241 63.5097 235.627 58.1371 229 58.1371H117.404L104.425 42.3784Z" fill="#EC6E0C"/>
<mask id="mask0_2005_32260" style="mask-type:alpha" maskUnits="userSpaceOnUse" x="17" y="34" width="224" height="138">
<path fill-rule="evenodd" clip-rule="evenodd" d="M104.425 42.3784C100.056 37.0733 93.5437 34 86.6712 34H29C22.3726 34 17 39.3726 17 46V58.1371V68.2V160C17 166.627 22.3726 172 29 172H229C235.627 172 241 166.627 241 160V70.1371C241 63.5097 235.627 58.1371 229 58.1371H117.404L104.425 42.3784Z" fill="url(#paint0_linear_2005_32260)"/>
</mask>
<g mask="url(#mask0_2005_32260)">
<g style="mix-blend-mode:multiply" filter="url(#filter0_f_2005_32260)">
<path fill-rule="evenodd" clip-rule="evenodd" d="M92.789 74C97.7642 74 102.605 72.3868 106.586 69.4024L116.459 62H229C235.627 62 241 67.3726 241 74V108V160C241 166.627 235.627 172 229 172H29C22.3726 172 17 166.627 17 160L17 108V86C17 79.3726 22.3726 74 29 74H87H92.789Z" fill="black" fill-opacity="0.3"/>
</g>
</g>
<g filter="url(#filter1_ii_2005_32260)">
<path fill-rule="evenodd" clip-rule="evenodd" d="M92.789 74C97.7642 74 102.605 72.3868 106.586 69.4024L116.459 62H229C235.627 62 241 67.3726 241 74V108V198C241 204.627 235.627 210 229 210H29C22.3726 210 17 204.627 17 198L17 108V86C17 79.3726 22.3726 74 29 74H87H92.789Z" fill="url(#paint1_linear_2005_32260)"/>
</g>
<path d="M106.488 188.481C106.147 187.112 106.83 185.4 106.147 184.032C105.805 182.662 104.78 182.662 104.439 181.635C103.073 178.897 101.365 175.816 101.365 172.392C101.365 169.654 100.34 166.915 99.9986 164.177C99.9986 162.807 99.9986 161.438 99.9986 160.069C99.9986 159.384 99.9986 158.699 99.6573 158.015C99.6573 157.672 99.6573 156.988 99.3153 156.988L99.6573 155.961C99.6573 155.618 102.731 155.618 103.756 155.618C105.464 155.618 106.83 155.618 108.538 155.961C111.953 155.961 114.685 155.961 118.101 155.618C125.274 154.591 128.348 151.51 130.056 150.483C136.545 146.033 139.619 138.16 139.619 138.16C140.644 135.764 140.644 131.313 143.035 129.602C145.767 127.206 150.208 127.548 153.282 126.179C154.989 125.494 156.356 124.809 158.405 125.152C159.771 125.494 162.162 127.206 162.845 124.809C162.503 124.467 162.162 124.125 161.82 123.782C164.553 123.44 161.82 117.62 160.796 116.251C159.088 114.539 156.697 113.512 153.965 112.828C150.549 111.801 147.475 110.774 144.401 111.458C138.936 112.485 139.278 109.404 136.203 109.404C132.447 109.404 125.615 109.747 124.249 113.512C123.566 115.224 123.224 115.224 122.2 116.593C121.517 117.62 122.2 118.647 121.858 120.017C121.517 121.386 120.834 126.179 120.15 127.89C119.126 130.629 117.759 134.052 115.368 134.052C111.953 134.394 109.221 134.737 106.488 133.71C104.78 133.025 102.048 131.998 100.682 131.656C94.1922 128.917 93.1671 126.179 93.1671 126.179C92.4845 125.152 90.7762 123.098 90.0936 120.701C89.4104 117.963 88.044 115.909 87.7027 114.539C87.0195 113.17 85.9944 110.774 84.9699 108.377C83.6035 105.297 81.8958 102.9 80.53 101.873C78.4804 100.162 76.7726 97.423 72.6739 98.1076C71.9908 98.1076 69.2584 98.45 67.209 100.162C65.8428 101.189 65.5012 103.585 64.1349 105.639C63.4519 106.666 62.0856 110.089 61.061 112.828C60.3778 114.882 60.0363 116.251 59.0116 116.936C58.3285 117.62 57.6454 118.305 56.6207 117.963C55.9376 117.62 55.2545 117.278 54.5714 116.936C53.5467 116.251 51.4973 112.485 50.1311 110.089C49.1064 107.693 46.7155 104.27 45.3493 102.558C43.2999 99.8193 42.2753 99.1346 39.2012 99.1346C33.0532 99.1346 32.3701 102.558 29.6376 107.693C28.2714 110.089 27.9299 113.512 25.5389 116.251C24.5143 117.62 20.074 124.125 17 125.152V172.392V172.05C17.3416 171.365 17.3416 170.681 17.6831 170.339C19.0493 167.942 21.7818 165.546 23.148 162.807C23.8312 161.438 24.8558 160.069 25.5389 158.357C25.8805 157.33 26.2221 155.276 26.9052 154.249C27.5883 152.88 28.9545 152.537 30.3208 152.195C32.7117 151.853 34.4194 155.276 37.1519 156.645C38.1766 157.33 43.6415 159.042 45.3493 159.384C48.0817 160.069 50.8142 160.411 53.5467 161.096C54.9129 161.438 56.2791 161.438 57.9869 161.78C59.3532 161.78 64.4765 162.123 64.4765 162.465C62.0856 163.834 60.3778 167.258 59.3532 169.996C58.3285 172.735 57.6454 175.816 56.6207 178.212C55.2545 180.951 52.522 182.32 52.8635 185.743C52.8635 187.112 53.2052 188.481 52.8635 189.851C52.522 191.562 51.8389 192.589 51.4973 194.301C50.8142 196.355 50.1311 202.859 49.448 204.571L54.9129 203.886C55.596 202.517 55.9376 196.355 56.2791 195.67C57.3038 192.589 58.67 190.193 60.7194 187.797C62.7687 185.4 62.7687 182.662 63.7934 179.924C65.1596 176.843 66.8675 174.789 68.5752 172.05C71.6493 167.258 73.6986 160.753 79.8468 159.384C80.53 159.384 84.2867 162.123 85.9944 163.834C88.044 165.888 90.0936 167.942 91.4594 170.681C93.8503 175.816 96.2412 183.347 96.9244 187.112C97.2664 189.508 97.6076 189.508 99.3153 191.562C99.9986 192.247 101.365 194.986 102.048 196.013C102.389 197.04 103.414 199.436 103.756 200.805C104.097 201.49 105.122 203.886 105.805 205.94H110.929C108.879 200.121 107.171 194.301 106.488 188.481Z" fill="white"/>
</g>
<defs>
<filter id="filter0_f_2005_32260" x="-20" y="25" width="298" height="184" filterUnits="userSpaceOnUse" color-interpolation-filters="sRGB">
<feFlood flood-opacity="0" result="BackgroundImageFix"/>
<feBlend mode="normal" in="SourceGraphic" in2="BackgroundImageFix" result="shape"/>
<feGaussianBlur stdDeviation="18.5" result="effect1_foregroundBlur_2005_32260"/>
</filter>
<filter id="filter1_ii_2005_32260" x="17" y="62" width="224" height="148" filterUnits="userSpaceOnUse" color-interpolation-filters="sRGB">
<feFlood flood-opacity="0" result="BackgroundImageFix"/>
<feBlend mode="normal" in="SourceGraphic" in2="BackgroundImageFix" result="shape"/>
<feColorMatrix in="SourceAlpha" type="matrix" values="0 0 0 0 0 0 0 0 0 0 0 0 0 0 0 0 0 0 127 0" result="hardAlpha"/>
<feOffset dy="-4"/>
<feComposite in2="hardAlpha" operator="arithmetic" k2="-1" k3="1"/>
<feColorMatrix type="matrix" values="0 0 0 0 0 0 0 0 0 0 0 0 0 0 0 0 0 0 0.25 0"/>
<feBlend mode="normal" in2="shape" result="effect1_innerShadow_2005_32260"/>
<feColorMatrix in="SourceAlpha" type="matrix" values="0 0 0 0 0 0 0 0 0 0 0 0 0 0 0 0 0 0 127 0" result="hardAlpha"/>
<feOffset dy="4"/>
<feComposite in2="hardAlpha" operator="arithmetic" k2="-1" k3="1"/>
<feColorMatrix type="matrix" values="0 0 0 0 1 0 0 0 0 1 0 0 0 0 1 0 0 0 0.25 0"/>
<feBlend mode="normal" in2="effect1_innerShadow_2005_32260" result="effect2_innerShadow_2005_32260"/>
</filter>
<linearGradient id="paint0_linear_2005_32260" x1="17" y1="34" x2="197.768" y2="215.142" gradientUnits="userSpaceOnUse">
<stop stop-color="#05815D"/>
<stop offset="1" stop-color="#0C575F"/>
</linearGradient>
<linearGradient id="paint1_linear_2005_32260" x1="17" y1="62" x2="241" y2="210" gradientUnits="userSpaceOnUse">
<stop stop-color="#F29000"/>
<stop offset="1" stop-color="#EC6A0E"/>
</linearGradient>
<clipPath id="clip0_2005_32260">
<rect width="256" height="256" fill="white"/>
</clipPath>
</defs>
</svg>
