<svg width="256" height="256" viewBox="0 0 256 256" fill="none" xmlns="http://www.w3.org/2000/svg">
<g clip-path="url(#clip0_4288_1453)">
<path d="M104.425 42.3784C100.056 37.0733 93.5437 34 86.6712 34H29C22.3726 34 17 39.3726 17 46V160C17 166.627 22.3726 172 29 172H229C235.627 172 241 166.627 241 160V70.1371C241 63.5097 235.627 58.1371 229 58.1371H117.404L104.425 42.3784Z" fill="url(#paint0_linear_4288_1453)"/>
<mask id="mask0_4288_1453" style="mask-type:alpha" maskUnits="userSpaceOnUse" x="17" y="34" width="224" height="138">
<path d="M86.6709 34C93.5434 34 100.057 37.0729 104.426 42.3779L117.403 58.1367H229C235.627 58.1367 241 63.5095 241 70.1367V160C241 166.627 235.627 172 229 172H29C22.3726 172 17 166.627 17 160V46C17 39.3726 22.3726 34 29 34H86.6709Z" fill="url(#paint1_linear_4288_1453)"/>
</mask>
<g mask="url(#mask0_4288_1453)">
<g filter="url(#filter0_f_4288_1453)" style="mix-blend-mode:multiply">
<path d="M241 160C241 166.627 235.627 172 229 172H29C22.3726 172 17 166.627 17 160V86C17 79.3726 22.3726 74 29 74H92.79C97.7649 73.9999 102.605 72.3865 106.586 69.4023L116.46 62H229C235.627 62 241 67.3726 241 74V160Z" fill="black" fill-opacity="0.3"/>
</g>
</g>
<g filter="url(#filter1_ii_4288_1453)">
<path d="M241 198C241 204.627 235.627 210 229 210H29C22.3726 210 17 204.627 17 198V86C17 79.3726 22.3726 74 29 74H92.79C97.7649 73.9999 102.605 72.3865 106.586 69.4023L116.46 62H229C235.627 62 241 67.3726 241 74V198Z" fill="url(#paint2_linear_4288_1453)"/>
</g>
<g clip-path="url(#clip1_4288_1453)">
<path d="M101.408 106.693C82.3755 106.694 68.1481 122.316 67.0771 139.719C67.7406 143.469 69.9192 150.873 73.3323 150.493C77.598 150.018 88.3418 150.493 97.5058 133.858C104.2 121.707 117.97 106.692 101.408 106.693Z" fill="url(#paint3_radial_4288_1453)"/>
<path d="M97.007 113.189C90.6092 123.346 81.9968 137.9 79.0902 142.48C75.635 147.925 66.4853 145.611 67.2433 137.809C67.169 138.441 67.1112 139.08 67.0714 139.723C65.8204 160.025 81.873 176.885 101.849 176.885C123.865 176.885 176.372 149.379 171.057 121.819C165.457 105.62 149.716 94.0005 131.875 94.0005C114.036 94.0005 102.602 104.306 97.007 113.189Z" fill="url(#paint4_radial_4288_1453)"/>
<path d="M97.007 113.189C90.6092 123.346 81.9968 137.9 79.0902 142.48C75.635 147.925 66.4853 145.611 67.2433 137.809C67.169 138.441 67.1112 139.08 67.0714 139.723C65.8204 160.025 81.873 176.885 101.849 176.885C123.865 176.885 176.372 149.379 171.057 121.819C165.457 105.62 149.716 94.0005 131.875 94.0005C114.036 94.0005 102.602 104.306 97.007 113.189Z" fill="url(#paint5_radial_4288_1453)"/>
<path d="M97.007 113.189C90.6092 123.346 81.9968 137.9 79.0902 142.48C75.635 147.925 66.4853 145.611 67.2433 137.809C67.169 138.441 67.1112 139.08 67.0714 139.723C65.8204 160.025 81.873 176.885 101.849 176.885C123.865 176.885 176.372 149.379 171.057 121.819C165.457 105.62 149.716 94.0005 131.875 94.0005C114.036 94.0005 102.602 104.306 97.007 113.189Z" fill="url(#paint6_radial_4288_1453)"/>
<path d="M97.007 113.189C90.6092 123.346 81.9968 137.9 79.0902 142.48C75.635 147.925 66.4853 145.611 67.2433 137.809C67.169 138.441 67.1112 139.08 67.0714 139.723C65.8204 160.025 81.873 176.885 101.849 176.885C123.865 176.885 176.372 149.379 171.057 121.819C165.457 105.62 149.716 94.0005 131.875 94.0005C114.036 94.0005 102.602 104.306 97.007 113.189Z" fill="url(#paint7_radial_4288_1453)"/>
<path d="M97.007 113.189C90.6092 123.346 81.9968 137.9 79.0902 142.48C75.635 147.925 66.4853 145.611 67.2433 137.809C67.169 138.441 67.1112 139.08 67.0714 139.723C65.8204 160.025 81.873 176.885 101.849 176.885C123.865 176.885 176.372 149.379 171.057 121.819C165.457 105.62 149.716 94.0005 131.875 94.0005C114.036 94.0005 102.602 104.306 97.007 113.189Z" fill="url(#paint8_radial_4288_1453)"/>
<path d="M101.527 176.893C101.527 176.893 154.096 176.997 163.013 176.997C179.194 176.997 191.498 163.75 191.498 148.292C191.498 132.834 178.947 119.668 163.013 119.668C147.078 119.668 137.901 131.621 131.009 144.67C122.933 159.959 112.63 176.71 101.527 176.893Z" fill="url(#paint9_linear_4288_1453)"/>
<path d="M101.527 176.893C101.527 176.893 154.096 176.997 163.013 176.997C179.194 176.997 191.498 163.75 191.498 148.292C191.498 132.834 178.947 119.668 163.013 119.668C147.078 119.668 137.901 131.621 131.009 144.67C122.933 159.959 112.63 176.71 101.527 176.893Z" fill="url(#paint10_radial_4288_1453)"/>
<path d="M101.527 176.893C101.527 176.893 154.096 176.997 163.013 176.997C179.194 176.997 191.498 163.75 191.498 148.292C191.498 132.834 178.947 119.668 163.013 119.668C147.078 119.668 137.901 131.621 131.009 144.67C122.933 159.959 112.63 176.71 101.527 176.893Z" fill="url(#paint11_radial_4288_1453)"/>
</g>
</g>
<defs>
<filter id="filter0_f_4288_1453" x="-20" y="25" width="298" height="184" filterUnits="userSpaceOnUse" color-interpolation-filters="sRGB">
<feFlood flood-opacity="0" result="BackgroundImageFix"/>
<feBlend mode="normal" in="SourceGraphic" in2="BackgroundImageFix" result="shape"/>
<feGaussianBlur stdDeviation="18.5" result="effect1_foregroundBlur_4288_1453"/>
</filter>
<filter id="filter1_ii_4288_1453" x="17" y="62" width="224" height="148" filterUnits="userSpaceOnUse" color-interpolation-filters="sRGB">
<feFlood flood-opacity="0" result="BackgroundImageFix"/>
<feBlend mode="normal" in="SourceGraphic" in2="BackgroundImageFix" result="shape"/>
<feColorMatrix in="SourceAlpha" type="matrix" values="0 0 0 0 0 0 0 0 0 0 0 0 0 0 0 0 0 0 127 0" result="hardAlpha"/>
<feOffset dy="4"/>
<feComposite in2="hardAlpha" operator="arithmetic" k2="-1" k3="1"/>
<feColorMatrix type="matrix" values="0 0 0 0 1 0 0 0 0 1 0 0 0 0 1 0 0 0 0.25 0"/>
<feBlend mode="normal" in2="shape" result="effect1_innerShadow_4288_1453"/>
<feColorMatrix in="SourceAlpha" type="matrix" values="0 0 0 0 0 0 0 0 0 0 0 0 0 0 0 0 0 0 127 0" result="hardAlpha"/>
<feOffset dy="-4"/>
<feComposite in2="hardAlpha" operator="arithmetic" k2="-1" k3="1"/>
<feColorMatrix type="matrix" values="0 0 0 0 0 0 0 0 0 0 0 0 0 0 0 0 0 0 0.9 0"/>
<feBlend mode="soft-light" in2="effect1_innerShadow_4288_1453" result="effect2_innerShadow_4288_1453"/>
</filter>
<linearGradient id="paint0_linear_4288_1453" x1="17" y1="34" x2="197.768" y2="215.142" gradientUnits="userSpaceOnUse">
<stop stop-color="#255FDF"/>
</linearGradient>
<linearGradient id="paint1_linear_4288_1453" x1="17" y1="34" x2="197.768" y2="215.142" gradientUnits="userSpaceOnUse">
<stop stop-color="#05815D"/>
<stop offset="1" stop-color="#0C575F"/>
</linearGradient>
<linearGradient id="paint2_linear_4288_1453" x1="176.439" y1="200.973" x2="119.815" y2="52.5335" gradientUnits="userSpaceOnUse">
<stop stop-color="#B0DFFC"/>
<stop offset="1" stop-color="#F8FCFE"/>
</linearGradient>
<radialGradient id="paint3_radial_4288_1453" cx="0" cy="0" r="1" gradientTransform="matrix(25.1418 30.2073 -49.9687 41.8157 69.4377 111.254)" gradientUnits="userSpaceOnUse">
<stop stop-color="#4894FE"/>
<stop offset="0.695072" stop-color="#0934B3"/>
</radialGradient>
<radialGradient id="paint4_radial_4288_1453" cx="0" cy="0" r="1" gradientTransform="matrix(-110.525 127.836 -94.4712 -82.1224 174.774 65.955)" gradientUnits="userSpaceOnUse">
<stop offset="0.165327" stop-color="#23C0FE"/>
<stop offset="0.534" stop-color="#1C91FF"/>
</radialGradient>
<radialGradient id="paint5_radial_4288_1453" cx="0" cy="0" r="1" gradientTransform="matrix(-26.2732 -22.1166 50.4926 -60.3082 94.8985 113.495)" gradientUnits="userSpaceOnUse">
<stop stop-color="white" stop-opacity="0.4"/>
<stop offset="0.660528" stop-color="#ADC0FF" stop-opacity="0"/>
</radialGradient>
<radialGradient id="paint6_radial_4288_1453" cx="0" cy="0" r="1" gradientTransform="matrix(-29.5171 -25.0435 37.931 -44.9498 132.2 154.15)" gradientUnits="userSpaceOnUse">
<stop stop-color="#033ACC"/>
<stop offset="1" stop-color="#368EFF" stop-opacity="0"/>
</radialGradient>
<radialGradient id="paint7_radial_4288_1453" cx="0" cy="0" r="1" gradientTransform="matrix(33.7337 78.0583 -84.0402 36.5163 92.6279 91.3779)" gradientUnits="userSpaceOnUse">
<stop offset="0.592618" stop-color="#3464E3" stop-opacity="0"/>
<stop offset="1" stop-color="#033ACC" stop-opacity="0.6"/>
</radialGradient>
<radialGradient id="paint8_radial_4288_1453" cx="0" cy="0" r="1" gradientTransform="matrix(-88.2467 88.4864 -138.253 -138.628 173.414 74.7905)" gradientUnits="userSpaceOnUse">
<stop stop-color="#4BFDE8" stop-opacity="0.898039"/>
<stop offset="0.543937" stop-color="#4BFDE8" stop-opacity="0"/>
</radialGradient>
<linearGradient id="paint9_linear_4288_1453" x1="146.541" y1="176.939" x2="146.541" y2="120.348" gradientUnits="userSpaceOnUse">
<stop stop-color="#0086FF"/>
<stop offset="0.49" stop-color="#00BBFF"/>
</linearGradient>
<radialGradient id="paint10_radial_4288_1453" cx="0" cy="0" r="1" gradientTransform="matrix(52.5685 20.9043 -39.4786 99.8173 117.049 126.41)" gradientUnits="userSpaceOnUse">
<stop stop-color="white" stop-opacity="0.4"/>
<stop offset="0.785262" stop-color="white" stop-opacity="0"/>
</radialGradient>
<radialGradient id="paint11_radial_4288_1453" cx="0" cy="0" r="1" gradientTransform="matrix(-58.7282 50.7534 -50.7876 -59.0873 189.739 115.225)" gradientUnits="userSpaceOnUse">
<stop stop-color="#4BFDE8" stop-opacity="0.898039"/>
<stop offset="0.584724" stop-color="#4BFDE8" stop-opacity="0"/>
</radialGradient>
<clipPath id="clip0_4288_1453">
<rect width="256" height="256" fill="white"/>
</clipPath>
<clipPath id="clip1_4288_1453">
<rect width="124.5" height="83" fill="white" transform="translate(67 94)"/>
</clipPath>
</defs>
</svg>
