<svg width="256" height="256" viewBox="0 0 256 256" fill="none" xmlns="http://www.w3.org/2000/svg">
<g clip-path="url(#clip0_2043_38797)">
<path fill-rule="evenodd" clip-rule="evenodd" d="M104.425 42.3784C100.056 37.0733 93.5437 34 86.6712 34H29C22.3726 34 17 39.3726 17 46V58.1371V68.2V160C17 166.627 22.3726 172 29 172H229C235.627 172 241 166.627 241 160V70.1371C241 63.5097 235.627 58.1371 229 58.1371H117.404L104.425 42.3784Z" fill="#E6E6E6"/>
<mask id="mask0_2043_38797" style="mask-type:alpha" maskUnits="userSpaceOnUse" x="17" y="34" width="224" height="138">
<path fill-rule="evenodd" clip-rule="evenodd" d="M104.425 42.3784C100.056 37.0733 93.5437 34 86.6712 34H29C22.3726 34 17 39.3726 17 46V58.1371V68.2V160C17 166.627 22.3726 172 29 172H229C235.627 172 241 166.627 241 160V70.1371C241 63.5097 235.627 58.1371 229 58.1371H117.404L104.425 42.3784Z" fill="url(#paint0_linear_2043_38797)"/>
</mask>
<g mask="url(#mask0_2043_38797)">
<g style="mix-blend-mode:multiply" filter="url(#filter0_f_2043_38797)">
<path fill-rule="evenodd" clip-rule="evenodd" d="M92.789 74C97.7642 74 102.605 72.3868 106.586 69.4024L116.459 62H229C235.627 62 241 67.3726 241 74V108V160C241 166.627 235.627 172 229 172H29C22.3726 172 17 166.627 17 160L17 108V86C17 79.3726 22.3726 74 29 74H87H92.789Z" fill="black" fill-opacity="0.3"/>
</g>
</g>
<g filter="url(#filter1_ii_2043_38797)">
<path fill-rule="evenodd" clip-rule="evenodd" d="M92.789 74C97.7642 74 102.605 72.3868 106.586 69.4024L116.459 62H229C235.627 62 241 67.3726 241 74V108V198C241 204.627 235.627 210 229 210H29C22.3726 210 17 204.627 17 198L17 108V86C17 79.3726 22.3726 74 29 74H87H92.789Z" fill="url(#paint1_linear_2043_38797)"/>
</g>
<path d="M87.6856 150.842C87.0282 150.843 86.3906 150.617 85.8794 150.204C85.3682 149.79 85.0146 149.214 84.8775 148.571C84.7404 147.928 84.8283 147.257 85.1264 146.671C85.4246 146.085 85.9149 145.619 86.5153 145.351L99.1 139.748C99.4441 139.595 99.8152 139.511 100.192 139.501C100.569 139.491 100.944 139.555 101.295 139.69C101.647 139.825 101.969 140.028 102.243 140.287C102.516 140.547 102.736 140.857 102.889 141.201C103.042 141.546 103.127 141.917 103.137 142.293C103.147 142.67 103.082 143.045 102.947 143.397C102.812 143.749 102.61 144.071 102.35 144.344C102.091 144.617 101.78 144.837 101.436 144.991L88.8515 150.593C88.4849 150.758 88.0875 150.843 87.6856 150.842Z" fill="white"/>
<path d="M81.8712 165.998C81.2138 165.999 80.5761 165.774 80.065 165.36C79.5538 164.947 79.2001 164.37 79.0631 163.727C78.926 163.084 79.0139 162.413 79.312 161.827C79.6101 161.241 80.1004 160.776 80.7009 160.508L93.2833 154.905C93.9784 154.595 94.7681 154.574 95.4787 154.846C96.1893 155.119 96.7625 155.663 97.0723 156.358C97.3821 157.053 97.4031 157.843 97.1306 158.553C96.8582 159.264 96.3146 159.837 95.6195 160.147L83.0372 165.75C82.6706 165.914 82.2732 165.999 81.8712 165.998Z" fill="white"/>
<path d="M162.664 117.46C162.006 117.461 161.369 117.236 160.857 116.822C160.346 116.408 159.992 115.831 159.856 115.188C159.719 114.544 159.808 113.873 160.107 113.287C160.406 112.702 160.897 112.236 161.498 111.97L174.085 106.367C174.429 106.214 174.8 106.13 175.177 106.12C175.554 106.11 175.928 106.175 176.28 106.31C176.632 106.445 176.953 106.648 177.226 106.908C177.499 107.167 177.719 107.478 177.872 107.822C178.025 108.166 178.109 108.537 178.118 108.914C178.129 109.29 178.064 109.665 177.929 110.017C177.794 110.368 177.591 110.69 177.331 110.963C177.072 111.236 176.761 111.456 176.417 111.609L163.83 117.212C163.464 117.376 163.066 117.461 162.664 117.46Z" fill="white"/>
<path d="M156.85 132.615C156.192 132.616 155.554 132.39 155.043 131.976C154.531 131.563 154.178 130.985 154.041 130.342C153.904 129.699 153.993 129.028 154.292 128.442C154.591 127.856 155.083 127.391 155.684 127.124L168.267 121.521C168.61 121.368 168.981 121.284 169.358 121.274C169.735 121.265 170.11 121.329 170.461 121.465C170.813 121.599 171.134 121.803 171.407 122.062C171.681 122.322 171.9 122.632 172.053 122.976C172.207 123.32 172.29 123.691 172.3 124.068C172.31 124.445 172.245 124.82 172.11 125.171C171.975 125.522 171.772 125.844 171.512 126.118C171.253 126.391 170.942 126.61 170.598 126.763L158.016 132.366C157.649 132.531 157.252 132.616 156.85 132.615Z" fill="white"/>
<path d="M128.338 180.429C118.066 180.417 108.122 176.816 100.225 170.247C99.6407 169.762 99.2729 169.065 99.202 168.309C99.1311 167.553 99.3628 166.799 99.8464 166.214C100.33 165.628 101.026 165.258 101.782 165.184C102.538 165.111 103.292 165.34 103.879 165.822C109.399 170.388 116.084 173.322 123.181 174.294C130.278 175.266 137.506 174.238 144.051 171.324C150.595 168.411 156.196 163.729 160.224 157.804C164.251 151.88 166.544 144.949 166.845 137.792C166.852 137.412 166.935 137.038 167.091 136.692C167.246 136.346 167.47 136.035 167.75 135.778C168.029 135.522 168.357 135.324 168.715 135.198C169.073 135.072 169.453 135.02 169.832 135.045C170.592 135.078 171.308 135.411 171.823 135.971C172.337 136.532 172.608 137.274 172.576 138.034C172.076 149.436 167.2 160.206 158.959 168.103C150.719 176 139.751 180.415 128.338 180.429Z" fill="#EE0000"/>
<path d="M87.1188 137.234L86.9865 137.232C86.2261 137.197 85.5106 136.862 84.9972 136.3C84.4839 135.737 84.2148 134.994 84.249 134.234C84.6172 126.021 87.2678 118.074 91.9033 111.284C96.5388 104.494 102.975 99.1317 110.49 95.7981C118.005 92.4645 126.301 91.2921 134.445 92.4126C142.589 93.5332 150.26 96.9021 156.595 102.141C157.18 102.627 157.549 103.325 157.62 104.082C157.691 104.839 157.459 105.594 156.974 106.18C156.49 106.766 155.793 107.136 155.035 107.209C154.279 107.281 153.524 107.05 152.936 106.567C147.424 102.007 140.749 99.0745 133.662 98.099C126.575 97.1234 119.355 98.1435 112.816 101.044C106.276 103.946 100.675 108.613 96.642 114.522C92.6088 120.43 90.303 127.347 89.9839 134.494C89.9502 135.232 89.6337 135.928 89.1001 136.438C88.5666 136.948 87.857 137.233 87.1188 137.234Z" fill="#EE0000"/>
</g>
<defs>
<filter id="filter0_f_2043_38797" x="-20" y="25" width="298" height="184" filterUnits="userSpaceOnUse" color-interpolation-filters="sRGB">
<feFlood flood-opacity="0" result="BackgroundImageFix"/>
<feBlend mode="normal" in="SourceGraphic" in2="BackgroundImageFix" result="shape"/>
<feGaussianBlur stdDeviation="18.5" result="effect1_foregroundBlur_2043_38797"/>
</filter>
<filter id="filter1_ii_2043_38797" x="17" y="62" width="224" height="148" filterUnits="userSpaceOnUse" color-interpolation-filters="sRGB">
<feFlood flood-opacity="0" result="BackgroundImageFix"/>
<feBlend mode="normal" in="SourceGraphic" in2="BackgroundImageFix" result="shape"/>
<feColorMatrix in="SourceAlpha" type="matrix" values="0 0 0 0 0 0 0 0 0 0 0 0 0 0 0 0 0 0 127 0" result="hardAlpha"/>
<feOffset dy="-4"/>
<feComposite in2="hardAlpha" operator="arithmetic" k2="-1" k3="1"/>
<feColorMatrix type="matrix" values="0 0 0 0 0 0 0 0 0 0 0 0 0 0 0 0 0 0 0.25 0"/>
<feBlend mode="normal" in2="shape" result="effect1_innerShadow_2043_38797"/>
<feColorMatrix in="SourceAlpha" type="matrix" values="0 0 0 0 0 0 0 0 0 0 0 0 0 0 0 0 0 0 127 0" result="hardAlpha"/>
<feOffset dy="4"/>
<feComposite in2="hardAlpha" operator="arithmetic" k2="-1" k3="1"/>
<feColorMatrix type="matrix" values="0 0 0 0 1 0 0 0 0 1 0 0 0 0 1 0 0 0 0.25 0"/>
<feBlend mode="normal" in2="effect1_innerShadow_2043_38797" result="effect2_innerShadow_2043_38797"/>
</filter>
<linearGradient id="paint0_linear_2043_38797" x1="17" y1="34" x2="197.768" y2="215.142" gradientUnits="userSpaceOnUse">
<stop stop-color="#05815D"/>
<stop offset="1" stop-color="#0C575F"/>
</linearGradient>
<linearGradient id="paint1_linear_2043_38797" x1="17" y1="62" x2="241" y2="210" gradientUnits="userSpaceOnUse">
<stop stop-color="#5F585E"/>
<stop offset="1" stop-color="#010101"/>
</linearGradient>
<clipPath id="clip0_2043_38797">
<rect width="256" height="256" fill="white"/>
</clipPath>
</defs>
</svg>
