<svg width="256" height="256" viewBox="0 0 256 256" fill="none" xmlns="http://www.w3.org/2000/svg">
<g clip-path="url(#clip0_2043_37707)">
<path fill-rule="evenodd" clip-rule="evenodd" d="M104.425 42.3784C100.056 37.0733 93.5437 34 86.6712 34H29C22.3726 34 17 39.3726 17 46V58.1371V68.2V160C17 166.627 22.3726 172 29 172H229C235.627 172 241 166.627 241 160V70.1371C241 63.5097 235.627 58.1371 229 58.1371H117.404L104.425 42.3784Z" fill="#E6E6E6"/>
<mask id="mask0_2043_37707" style="mask-type:alpha" maskUnits="userSpaceOnUse" x="17" y="34" width="224" height="138">
<path fill-rule="evenodd" clip-rule="evenodd" d="M104.425 42.3784C100.056 37.0733 93.5437 34 86.6712 34H29C22.3726 34 17 39.3726 17 46V58.1371V68.2V160C17 166.627 22.3726 172 29 172H229C235.627 172 241 166.627 241 160V70.1371C241 63.5097 235.627 58.1371 229 58.1371H117.404L104.425 42.3784Z" fill="url(#paint0_linear_2043_37707)"/>
</mask>
<g mask="url(#mask0_2043_37707)">
<g style="mix-blend-mode:multiply" filter="url(#filter0_f_2043_37707)">
<path fill-rule="evenodd" clip-rule="evenodd" d="M92.789 74C97.7642 74 102.605 72.3868 106.586 69.4024L116.459 62H229C235.627 62 241 67.3726 241 74V108V160C241 166.627 235.627 172 229 172H29C22.3726 172 17 166.627 17 160L17 108V86C17 79.3726 22.3726 74 29 74H87H92.789Z" fill="black" fill-opacity="0.3"/>
</g>
</g>
<g filter="url(#filter1_ii_2043_37707)">
<path fill-rule="evenodd" clip-rule="evenodd" d="M92.789 74C97.7642 74 102.605 72.3868 106.586 69.4024L116.459 62H229C235.627 62 241 67.3726 241 74V108V198C241 204.627 235.627 210 229 210H29C22.3726 210 17 204.627 17 198L17 108V86C17 79.3726 22.3726 74 29 74H87H92.789Z" fill="url(#paint1_linear_2043_37707)"/>
</g>
<path fill-rule="evenodd" clip-rule="evenodd" d="M170.144 92H87.4417C82.2488 92 78 96.2488 78 101.442V123.647H100.905V120.01C100.905 117.187 103.195 114.905 106.01 114.905H151.558C154.382 114.905 156.664 117.195 156.664 120.01V123.647H179.569V101.442C179.569 96.2488 175.32 92 170.127 92H170.144Z" fill="#ED1844"/>
<path fill-rule="evenodd" clip-rule="evenodd" d="M157.031 163.424C157.031 166.248 154.74 168.53 151.925 168.53H106.378C103.554 168.53 101.272 166.239 101.272 163.424V159.787H78.3672V181.992C78.3672 187.186 82.616 191.434 87.8089 191.434H170.512C175.705 191.434 179.953 187.186 179.953 181.992V159.787H157.048L157.031 163.424Z" fill="#ED1844"/>
<path fill-rule="evenodd" clip-rule="evenodd" d="M78.3496 130.291V153.196H101.08V130.291H78.3496Z" fill="#ED1844"/>
<path fill-rule="evenodd" clip-rule="evenodd" d="M157.031 130.291V153.196H179.762V130.291H157.031Z" fill="#ED1844"/>
</g>
<defs>
<filter id="filter0_f_2043_37707" x="-20" y="25" width="298" height="184" filterUnits="userSpaceOnUse" color-interpolation-filters="sRGB">
<feFlood flood-opacity="0" result="BackgroundImageFix"/>
<feBlend mode="normal" in="SourceGraphic" in2="BackgroundImageFix" result="shape"/>
<feGaussianBlur stdDeviation="18.5" result="effect1_foregroundBlur_2043_37707"/>
</filter>
<filter id="filter1_ii_2043_37707" x="17" y="62" width="224" height="148" filterUnits="userSpaceOnUse" color-interpolation-filters="sRGB">
<feFlood flood-opacity="0" result="BackgroundImageFix"/>
<feBlend mode="normal" in="SourceGraphic" in2="BackgroundImageFix" result="shape"/>
<feColorMatrix in="SourceAlpha" type="matrix" values="0 0 0 0 0 0 0 0 0 0 0 0 0 0 0 0 0 0 127 0" result="hardAlpha"/>
<feOffset dy="-4"/>
<feComposite in2="hardAlpha" operator="arithmetic" k2="-1" k3="1"/>
<feColorMatrix type="matrix" values="0 0 0 0 0 0 0 0 0 0 0 0 0 0 0 0 0 0 0.25 0"/>
<feBlend mode="normal" in2="shape" result="effect1_innerShadow_2043_37707"/>
<feColorMatrix in="SourceAlpha" type="matrix" values="0 0 0 0 0 0 0 0 0 0 0 0 0 0 0 0 0 0 127 0" result="hardAlpha"/>
<feOffset dy="4"/>
<feComposite in2="hardAlpha" operator="arithmetic" k2="-1" k3="1"/>
<feColorMatrix type="matrix" values="0 0 0 0 1 0 0 0 0 1 0 0 0 0 1 0 0 0 0.25 0"/>
<feBlend mode="normal" in2="effect1_innerShadow_2043_37707" result="effect2_innerShadow_2043_37707"/>
</filter>
<linearGradient id="paint0_linear_2043_37707" x1="17" y1="34" x2="197.768" y2="215.142" gradientUnits="userSpaceOnUse">
<stop stop-color="#05815D"/>
<stop offset="1" stop-color="#0C575F"/>
</linearGradient>
<linearGradient id="paint1_linear_2043_37707" x1="17" y1="62" x2="241" y2="210" gradientUnits="userSpaceOnUse">
<stop stop-color="#5F585E"/>
<stop offset="1" stop-color="#010101"/>
</linearGradient>
<clipPath id="clip0_2043_37707">
<rect width="256" height="256" fill="white"/>
</clipPath>
</defs>
</svg>
