<?xml version="1.0" encoding="UTF-8" standalone="no"?>
<!-- Created with Inkscape (http://www.inkscape.org/) -->

<svg version="1.1" id="svg1" width="256" height="256" viewBox="0 0 255.99999 256"
   xmlns:xlink="http://www.w3.org/1999/xlink" xmlns="http://www.w3.org/2000/svg" xmlns:svg="http://www.w3.org/2000/svg">
   <defs id="defs1">
      <linearGradient x1="0" y1="0" x2="1" y2="0" gradientUnits="userSpaceOnUse"
         gradientTransform="matrix(180.76801,-181.142,181.142,180.76801,32.581543,237.54932)" spreadMethod="pad"
         id="linearGradient3">
         <stop style="stop-opacity:1;stop-color:#0c575f" offset="0" id="stop3" />
         <stop style="stop-opacity:1;stop-color:#05815d" offset="1" id="stop2" />
      </linearGradient>
      <linearGradient x1="0" y1="0" x2="1" y2="0" gradientUnits="userSpaceOnUse"
         gradientTransform="matrix(223.99997,147.99998,147.99998,-223.99997,-216.23801,-114.67197)" spreadMethod="pad"
         id="linearGradient11">
         <stop style="stop-opacity:1;stop-color:#ffe7a2" offset="0" id="stop9" />
         <stop style="stop-opacity:1;stop-color:#ffcb3d" offset="0.953125" id="stop10" />
         <stop style="stop-opacity:1;stop-color:#ffcb3d" offset="1" id="stop11" />
      </linearGradient>
      <linearGradient x1="0" y1="0" x2="1" y2="0" gradientUnits="userSpaceOnUse"
         gradientTransform="matrix(224.01748,2.5002055,2.5002055,-224.01748,-216.31258,24.010601)" spreadMethod="pad"
         id="linearGradient13">
         <stop style="stop-opacity:1;stop-color:#ffcf4e" offset="0" id="stop12" />
         <stop style="stop-opacity:1;stop-color:#ffb504" offset="1" id="stop13" />
      </linearGradient>
      <linearGradient x1="0" y1="0" x2="1" y2="0" gradientUnits="userSpaceOnUse"
         gradientTransform="matrix(224,0,0,-224,-216.238,-100.67197)" spreadMethod="pad" id="linearGradient15">
         <stop style="stop-opacity:1;stop-color:#ffecb5" offset="0" id="stop14" />
         <stop style="stop-opacity:1;stop-color:#ffde82" offset="1" id="stop15" />
      </linearGradient>
      <linearGradient xlink:href="#linearGradient11" id="linearGradient59" gradientUnits="userSpaceOnUse"
         gradientTransform="matrix(223.99997,147.99998,147.99998,-223.99997,16.99999,62)" x1="0" y1="0" x2="1" y2="0"
         spreadMethod="pad" />
      <linearGradient xlink:href="#linearGradient13" id="linearGradient60" gradientUnits="userSpaceOnUse"
         gradientTransform="matrix(224.01748,2.5002055,2.5002055,-224.01748,16.92542,200.68257)" x1="0" y1="0" x2="1"
         y2="0" spreadMethod="pad" />
      <linearGradient xlink:href="#linearGradient15" id="linearGradient61" gradientUnits="userSpaceOnUse"
         gradientTransform="matrix(224,0,0,-224,17,76)" x1="0" y1="0" x2="1" y2="0" spreadMethod="pad" />
      <linearGradient xlink:href="#linearGradient3" id="linearGradient8" gradientUnits="userSpaceOnUse"
         gradientTransform="matrix(180.76801,181.142,181.142,-180.76801,32.581544,18.450681)" x1="0.38738185"
         y1="-0.062943645" x2="0.79517394" y2="-0.052608453" spreadMethod="pad" />
      <mask maskUnits="userSpaceOnUse" id="mask3">
         <path
            d="m 104.425,42.378001 c -4.369,-5.305 -10.880996,-8.378 -17.753996,-8.378 H 29.000001 c -6.627,0 -12,5.373 -12,12 v 12.137 10.063 V 160 c 0,6.627 5.373,12 12,12 H 228.99999 c 6.627,0 12,-5.373 12,-12 V 70.137001 c 0,-6.627 -5.373,-12 -12,-12 H 117.404 Z"
            fill="url(#linearGradient8)" id="path8" />
      </mask>
   </defs>
   <path id="path1" fill="#fcbc19"
      d="m 104.425,42.37839 c -4.369,-5.305 -10.880999,-8.378 -17.753999,-8.378 H 29.000004 c -6.627,0 -12,5.372 -12,12 v 12.136999 10.063 91.799991 c 0,6.627 5.373,12 12,12 H 228.99999 c 6.627,0 12,-5.373 12,-12 V 70.137389 c 0,-6.628 -5.373,-12 -12,-12 H 117.404 Z" />
   <path id="path11" fill="url(#linearGradient59)"
      d="M 116.45898 62 L 106.58594 69.402344 C 102.60494 72.387341 97.764058 74 92.789062 74 L 87 74 L 29 74 C 22.372007 74 17 79.372008 17 86 L 17 108 L 17 198 C 17 204.62699 22.372007 210 29 210 L 229 210 C 235.62699 210 241 204.62699 241 198 L 241 108 L 241 74 C 241 67.373007 235.62699 62 229 62 L 116.45898 62 z M 117.98242 100 C 120.35164 103.56582 124.39738 105.91602 128.99805 105.91602 C 133.59948 105.91602 137.64995 103.56582 140.02148 100 C 145.2901 101.60435 150.04505 104.34825 154.06055 107.91406 C 152.08377 111.77655 152.03549 116.5261 154.36523 120.5625 C 156.78631 124.75604 161.15792 127.10721 165.67188 127.16211 C 166.37699 130.04759 166.79492 133.04937 166.79492 136.15234 C 166.79492 138.57883 166.54005 140.94226 166.10352 143.24414 C 161.4363 143.14739 156.86294 145.52607 154.36523 149.85352 C 151.78008 154.33187 152.12061 159.68672 154.7793 163.73242 C 150.84505 167.41125 146.13854 170.26314 140.91016 172 C 138.7747 167.56498 134.24964 164.49609 128.99805 164.49609 C 123.74722 164.49609 119.22531 167.56457 117.08984 171.99805 C 111.86146 170.26119 107.15486 167.41007 103.2207 163.73047 C 105.87946 159.68477 106.21984 154.32992 103.63477 149.85156 C 101.13668 145.52412 96.560131 143.14629 91.894531 143.24219 C 91.457996 140.94263 91.205078 138.57883 91.205078 136.15234 C 91.205078 133.04937 91.621392 130.04759 92.328125 127.16211 C 96.842572 127.10715 101.21415 124.75604 103.63477 120.5625 C 105.96474 116.5261 105.91796 111.77655 103.94141 107.91406 C 107.95707 104.34825 112.7138 101.60435 117.98242 100 z M 128.99805 116.31055 C 118.04052 116.31055 109.16016 125.19403 109.16016 136.15234 C 109.16016 147.11064 118.04052 155.99219 128.99805 155.99219 C 139.95635 155.99219 148.83984 147.11064 148.83984 136.15234 C 148.83984 125.19403 139.95635 116.31055 128.99805 116.31055 z M 129.00391 122.92383 C 136.30969 122.92383 142.23047 128.84732 142.23047 136.15234 C 142.23047 143.45813 136.30969 149.37891 129.00391 149.37891 C 121.69889 149.37891 115.77539 143.45813 115.77539 136.15234 C 115.77539 128.84732 121.69889 122.92383 129.00391 122.92383 z " />
   <path id="path13" fill="url(#linearGradient60)"
      d="M 229,205.99999 H 29 c -6.628,0 -12,-5.37201 -12,-12 v 0 4 c 0,6.627 5.372,12 12,12 v 0 h 200 c 6.627,0 12,-5.373 12,-12 v 0 -4 c 0,6.62799 -5.373,12 -12,12" />
   <path id="path15" fill="url(#linearGradient61)"
      d="m 116.45899,61.99999 -9.873,7.402 c -3.981,2.985 -8.82199,4.598 -13.79699,4.598 v 0 H 87 29 c -6.628,0 -12,5.371999 -12,11.999998 v 0 4.000004 c 0,-6.627 5.372,-12 12,-12 v 0 h 58 5.789 c 4.975,0 9.81599,-1.613002 13.79699,-4.597002 v 0 l 9.873,-7.403 H 229 c 6.627,0 12,5.372 12,12.000002 v 0 -4.000002 c 0,-6.627 -5.373,-12 -12,-12 v 0 z" />
   <path id="path7-3" mask="url(#mask3)"
      d="m 117.98145,100 c -5.26863,1.60435 -10.02535,4.34825 -14.04102,7.91407 1.97656,3.86249 2.02529,8.61203 -0.30469,12.64843 -2.42062,4.19354 -6.792191,6.54465 -11.306643,6.59961 -0.706734,2.88548 -1.123045,5.88726 -1.123045,8.99024 0,2.42649 0.252917,4.79028 0.689453,7.08984 4.665604,-0.0959 9.242145,2.28193 11.740235,6.60938 2.58508,4.47836 2.24275,9.8332 -0.41601,13.8789 3.93416,3.6796 8.64075,6.53072 13.86914,8.26758 2.13547,-4.43348 6.65932,-7.50195 11.91015,-7.50195 5.2516,0 9.77665,3.06888 11.91211,7.5039 5.22839,-1.73686 9.93489,-4.58874 13.86914,-8.26757 -2.65869,-4.04571 -2.99922,-9.40055 -0.41406,-13.87891 2.49771,-4.32745 7.07106,-6.70613 11.73828,-6.60938 0.43653,-2.30188 0.68946,-4.6653 0.68946,-7.09179 0,-3.10298 -0.41598,-6.10476 -1.1211,-8.99024 -4.51396,-0.0549 -8.88556,-2.40607 -11.30664,-6.59961 -2.32975,-4.0364 -2.28147,-8.78594 -0.30469,-12.64843 -4.0155,-3.56582 -8.77239,-6.30972 -14.04101,-7.91407 -2.37154,3.56582 -6.42005,5.91602 -11.02149,5.91602 -4.60067,0 -8.64835,-2.3502 -11.01757,-5.91602 z m 11.01757,16.31055 c 10.95831,0 19.8418,8.88348 19.8418,19.8418 0,10.95831 -8.88349,19.83984 -19.8418,19.83984 -10.95754,0 -19.83984,-8.88153 -19.83984,-19.83984 0,-10.95832 8.8823,-19.8418 19.83984,-19.8418 z m 0.004,6.61328 c -7.30502,0 -13.22852,5.92349 -13.22852,13.22852 0,7.30579 5.9235,13.22656 13.22852,13.22656 7.30579,0 13.22656,-5.92077 13.22656,-13.22656 0,-7.30503 -5.92077,-13.22852 -13.22656,-13.22852 z" />
</svg>