<svg width="256" height="256" viewBox="0 0 256 256" fill="none" xmlns="http://www.w3.org/2000/svg" xmlns:xlink="http://www.w3.org/1999/xlink">
<path fill-rule="evenodd" clip-rule="evenodd" d="M104.815 42.4255C100.427 37.0904 93.8856 34 86.9821 34H29.0536C22.3971 34 17 39.4025 17 46.0682V160.716C17 167.381 22.3971 172.784 29.0536 172.784H229.946C236.603 172.784 242 167.381 242 160.716V70.3425C242 63.6767 236.603 58.2743 229.946 58.2743H117.852L104.815 42.4255Z" fill="#FF0000"/>
<rect x="17" y="62.1172" width="225" height="110.707" fill="url(#pattern0_2271_38861)"/>
<path d="M116.903 62.1582L106.986 69.6024C102.987 72.6042 98.1246 74.2264 93.1275 74.2264H29.0536C22.3959 74.2264 17 79.6289 17 86.2946V198.931C17 205.596 22.3959 211 29.0536 211H229.946C236.603 211 242 205.596 242 198.931V74.2264C242 67.5616 236.603 62.1582 229.946 62.1582H116.903Z" fill="url(#paint0_linear_2271_38861)"/>
<path d="M229.946 206.976H29.0536C22.3959 206.976 17 201.574 17 194.908V198.931C17 205.596 22.3959 210.999 29.0536 210.999H229.946C236.603 210.999 242 205.596 242 198.931V194.908C242 201.574 236.603 206.976 229.946 206.976Z" fill="#999999"/>
<path d="M116.903 62.1582L106.986 69.6024C102.987 72.6042 98.1246 74.2264 93.1275 74.2264H29.0536C22.3959 74.2264 17 79.6289 17 86.2946V90.3175C17 83.6527 22.3959 78.2492 29.0536 78.2492H93.1275C98.1246 78.2492 102.987 76.627 106.986 73.6259L116.903 66.181H229.946C236.603 66.181 242 71.5835 242 78.2492V74.2264C242 67.5616 236.603 62.1582 229.946 62.1582H116.903H116.903Z" fill="#FD9E9E"/>
<path fill-rule="evenodd" clip-rule="evenodd" d="M104.744 181.968C82.1787 181.968 63.8672 163.68 63.8672 141.081C63.8672 118.482 82.1787 100.129 104.744 100.129H152.254C174.825 100.129 193.124 118.482 193.124 141.081C193.124 163.68 174.825 181.968 152.254 181.968H104.744ZM151.197 167.533C165.817 167.533 177.657 155.711 177.657 141.081C177.657 126.45 165.817 114.563 151.197 114.563H105.794C91.1813 114.563 79.3343 126.45 79.3343 141.081C79.3343 155.711 91.1813 167.533 105.794 167.533H151.197Z" fill="#FF0000"/>
<defs>
<pattern id="pattern0_2271_38861" patternContentUnits="objectBoundingBox" width="1" height="1">
<use xlink:href="#image0_2271_38861" transform="scale(0.00107066 0.00217865)"/>
</pattern>
<linearGradient id="paint0_linear_2271_38861" x1="40.1479" y1="90.3174" x2="227.527" y2="202.234" gradientUnits="userSpaceOnUse">
<stop stop-color="white"/>
<stop offset="1" stop-color="#C3C3C3"/>
</linearGradient>
</defs>
</svg>
