<svg width="256" height="256" viewBox="0 0 256 256" fill="none" xmlns="http://www.w3.org/2000/svg" xmlns:xlink="http://www.w3.org/1999/xlink">
<path fill-rule="evenodd" clip-rule="evenodd" d="M104.815 42.4255C100.427 37.0904 93.8856 34 86.9821 34H29.0536C22.3971 34 17 39.4025 17 46.0682V160.716C17 167.381 22.3971 172.784 29.0536 172.784H229.946C236.603 172.784 242 167.381 242 160.716V70.3424C242 63.6767 236.603 58.2742 229.946 58.2742H117.852L104.815 42.4255Z" fill="#EA1B22"/>
<rect x="17" y="62.1172" width="225" height="110.707" fill="url(#pattern0_2271_38878)"/>
<path d="M116.903 62.1582L106.986 69.6024C102.987 72.6042 98.1246 74.2264 93.1275 74.2264H29.0536C22.3959 74.2264 17 79.6289 17 86.2946V198.931C17 205.596 22.3959 210.999 29.0536 210.999H229.946C236.603 210.999 242 205.596 242 198.931V74.2264C242 67.5616 236.603 62.1582 229.946 62.1582H116.903Z" fill="url(#paint0_linear_2271_38878)"/>
<path d="M229.946 206.976H29.0536C22.3959 206.976 17 201.574 17 194.908V198.931C17 205.596 22.3959 210.999 29.0536 210.999H229.946C236.603 210.999 242 205.596 242 198.931V194.908C242 201.574 236.603 206.976 229.946 206.976Z" fill="#999999"/>
<path d="M116.903 62.1582L106.986 69.6024C102.987 72.6042 98.1246 74.2264 93.1275 74.2264H29.0536C22.3959 74.2264 17 79.6289 17 86.2946V90.3174C17 83.6526 22.3959 78.2492 29.0536 78.2492H93.1275C98.1246 78.2492 102.987 76.627 106.986 73.6259L116.903 66.181H229.946C236.603 66.181 242 71.5835 242 78.2492V74.2264C242 67.5616 236.603 62.1582 229.946 62.1582H116.903H116.903Z" fill="#FD9E9E"/>
<path d="M115.857 136.374H128.087L121.62 125.957L109.751 144.791H104.35L118.786 122.167C119.414 121.253 120.46 120.701 121.62 120.701C122.742 120.701 123.788 121.234 124.397 122.129L138.89 144.791H133.489L130.94 140.582H118.558L115.857 136.374ZM171.967 140.582V120.93H167.383V142.506C167.383 143.096 167.611 143.667 168.049 144.105C168.486 144.543 169.075 144.791 169.722 144.791H190.626L193.326 140.582H171.967ZM96.133 137.059C100.584 137.059 104.198 133.46 104.198 129.004C104.198 124.548 100.584 120.93 96.133 120.93H76.08V144.791H80.662V125.138H95.8288C97.9591 125.138 99.671 126.871 99.671 129.004C99.671 131.137 97.9591 132.87 95.8288 132.87L82.9064 132.851L96.5896 144.791H103.247L94.041 137.059H96.133ZM47.8732 144.791C41.2941 144.791 35.9551 139.459 35.9551 132.87C35.9551 126.281 41.2941 120.93 47.8732 120.93H61.7254C68.3064 120.93 73.6418 126.281 73.6418 132.87C73.6418 139.459 68.3064 144.791 61.7254 144.791H47.8732ZM61.4173 140.582C65.6799 140.582 69.1321 137.135 69.1321 132.87C69.1321 128.604 65.6799 125.138 61.4173 125.138H48.1793C43.9189 125.138 40.4646 128.604 40.4646 132.87C40.4646 137.135 43.9189 140.582 48.1793 140.582H61.4173ZM148.458 144.791C141.877 144.791 136.532 139.459 136.532 132.87C136.532 126.281 141.877 120.93 148.458 120.93H164.91L162.228 125.138H148.762C144.501 125.138 141.04 128.604 141.04 132.87C141.04 137.135 144.501 140.582 148.762 140.582H165.29L162.59 144.791H148.458ZM204.51 140.582C200.991 140.582 198.005 138.221 197.092 134.965H216.683L219.384 130.756H197.092C198.005 127.519 200.991 125.138 204.51 125.138H217.958L220.677 120.93H204.206C197.625 120.93 192.28 126.281 192.28 132.87C192.28 139.459 197.625 144.791 204.206 144.791H218.338L221.039 140.582H204.51Z" fill="#EA1B22"/>
<defs>
<pattern id="pattern0_2271_38878" patternContentUnits="objectBoundingBox" width="1" height="1">
<use xlink:href="#image0_2271_38878" transform="scale(0.00107066 0.00217865)"/>
</pattern>
<linearGradient id="paint0_linear_2271_38878" x1="40.1479" y1="90.3174" x2="227.526" y2="202.234" gradientUnits="userSpaceOnUse">
<stop stop-color="white"/>
<stop offset="1" stop-color="#C3C3C3"/>
</linearGradient>
</defs>
</svg>
