<svg width="256" height="256" viewBox="0 0 256 256" fill="none" xmlns="http://www.w3.org/2000/svg">
<path fill-rule="evenodd" clip-rule="evenodd" d="M104.425 42.3784C100.056 37.0733 93.5437 34 86.6712 34H29C22.3726 34 17 39.3726 17 46V58.1371V68.2V160C17 166.627 22.3726 172 29 172H229C235.627 172 241 166.627 241 160V70.1371C241 63.5097 235.627 58.1371 229 58.1371H117.404L104.425 42.3784Z" fill="url(#paint0_linear_881_21954)"/>
<mask id="mask0_881_21954" style="mask-type:alpha" maskUnits="userSpaceOnUse" x="17" y="34" width="224" height="138">
<path fill-rule="evenodd" clip-rule="evenodd" d="M104.425 42.3784C100.056 37.0733 93.5437 34 86.6712 34H29C22.3726 34 17 39.3726 17 46V58.1371V68.2V160C17 166.627 22.3726 172 29 172H229C235.627 172 241 166.627 241 160V70.1371C241 63.5097 235.627 58.1371 229 58.1371H117.404L104.425 42.3784Z" fill="url(#paint1_linear_881_21954)"/>
</mask>
<g mask="url(#mask0_881_21954)">
<g style="mix-blend-mode:multiply" filter="url(#filter0_f_881_21954)">
<path fill-rule="evenodd" clip-rule="evenodd" d="M92.789 74C97.7642 74 102.605 72.3868 106.586 69.4024L116.459 62H229C235.627 62 241 67.3726 241 74V108V160C241 166.627 235.627 172 229 172H29C22.3726 172 17 166.627 17 160L17 108V86C17 79.3726 22.3726 74 29 74H87H92.789Z" fill="black" fill-opacity="0.3"/>
</g>
</g>
<g filter="url(#filter1_d_881_21954)">
<g filter="url(#filter2_ii_881_21954)">
<path fill-rule="evenodd" clip-rule="evenodd" d="M92.789 74C97.7642 74 102.605 72.3868 106.586 69.4024L116.459 62H229C235.627 62 241 67.3726 241 74V108V198C241 204.627 235.627 210 229 210H29C22.3726 210 17 204.627 17 198L17 108V86C17 79.3726 22.3726 74 29 74H87H92.789Z" fill="url(#paint2_linear_881_21954)"/>
</g>
</g>
<path d="M134.741 81.0001C133.511 80.9904 132.482 81.9668 132.482 81.9668C127.155 86.608 122.675 91.0185 118.567 95.3014V95.305C113.606 100.476 109.703 105.259 106.257 109.843C98.0608 120.745 94.1735 129.449 91.891 136.347H91.8875C91.8878 136.348 91.8872 136.349 91.8875 136.35C91.8879 136.352 91.8871 136.353 91.8875 136.354C88.8644 145.494 89.0014 151.114 89.0014 151.114C89.0014 173.141 106.857 191 128.883 190.999C132.382 190.999 135.724 190.424 138.945 189.57C149.838 186.683 158.894 179.36 164.046 169.569V169.561C166.96 164.021 168.769 157.809 168.769 151.114H168.851C168.851 151.114 169.774 141.26 162.334 128.301C161.215 126.852 159.252 124.088 157.804 122.211C156.697 121.976 155.61 121.738 154.539 121.498C155.608 121.738 156.696 121.973 157.801 122.207C148.553 113.856 138.483 108.852 136.234 85.9527C135.856 83.1878 136.683 81.0006 134.741 81.0006L134.741 81.0001ZM125.356 109.685C125.538 109.83 125.724 109.973 125.915 110.118C126.105 110.263 126.3 110.411 126.498 110.555C126.3 110.411 126.105 110.267 125.915 110.122C125.724 109.977 125.538 109.83 125.356 109.685ZM132.421 114.107C132.881 114.339 133.352 114.569 133.839 114.798C133.351 114.569 132.882 114.339 132.421 114.107ZM135.658 115.618C136.195 115.851 136.749 116.08 137.316 116.309C136.75 116.08 136.194 115.85 135.658 115.618ZM106.443 117.183C106.53 117.587 106.633 117.994 106.748 118.397C106.633 117.992 106.53 117.588 106.443 117.183ZM152.133 120.939C152.53 121.034 152.931 121.129 153.336 121.222C152.93 121.128 152.531 121.034 152.133 120.939ZM117.196 131.674C117.713 132.027 118.255 132.377 118.814 132.723C118.254 132.377 117.713 132.027 117.196 131.674ZM120.558 133.751C121.162 134.089 121.786 134.421 122.435 134.75C121.786 134.421 121.162 134.089 120.558 133.751ZM128.901 137.586C129.691 137.886 130.507 138.181 131.347 138.47C130.507 138.181 129.691 137.886 128.901 137.586ZM132.625 138.9C133.49 139.183 134.379 139.462 135.296 139.734C134.379 139.462 133.49 139.183 132.625 138.9ZM138.128 140.533C138.613 140.663 139.102 140.789 139.6 140.916C140.098 141.043 140.588 141.176 141.068 141.31C140.588 141.176 140.098 141.046 139.6 140.919C139.102 140.792 138.613 140.663 138.128 140.533ZM149.927 144.611C150.656 144.97 151.354 145.338 152.022 145.721C151.354 145.338 150.656 144.97 149.927 144.611ZM157.934 150.143C158.396 150.601 158.829 151.067 159.237 151.543C158.829 151.067 158.396 150.601 157.934 150.143ZM160.891 153.749C161.22 154.252 161.523 154.765 161.801 155.285C161.523 154.765 161.22 154.252 160.891 153.749ZM143.364 186.205C142.921 186.616 142.46 187.019 141.985 187.411C142.46 187.019 142.921 186.616 143.364 186.205ZM141.265 187.991C141.022 188.182 140.776 188.372 140.528 188.557C140.398 188.654 140.269 188.741 140.138 188.826C140.269 188.741 140.398 188.65 140.528 188.554C140.776 188.368 141.022 188.182 141.265 187.991V187.991Z" fill="url(#paint3_linear_881_21954)"/>
<path d="M91.891 136.348C88.8653 145.491 89.0009 151.116 89.0009 151.116C89.0009 173.143 106.858 191 128.885 191C132.383 191 135.725 190.425 138.946 189.571C139.478 189.207 140.01 188.943 140.528 188.555C142.514 187.07 144.362 185.413 145.757 183.638C146.455 182.751 147.037 181.835 147.47 180.894C147.902 179.954 148.183 178.991 148.272 178.011C148.36 177.03 148.255 176.03 147.922 175.022C147.588 174.014 147.024 172.995 146.19 171.973C145.356 170.95 144.254 169.923 142.842 168.898C141.429 167.873 139.707 166.853 137.638 165.839C135.568 164.826 133.15 163.818 130.345 162.828C127.541 161.839 124.348 160.866 120.73 159.913C117.112 158.96 113.895 157.845 111.039 156.59C108.182 155.335 105.687 153.939 103.52 152.43C101.354 150.921 99.5165 149.297 97.9694 147.582C96.4224 145.868 95.1654 144.063 94.1659 142.191C93.1663 140.319 92.4231 138.379 91.8998 136.398C91.8953 136.381 91.8946 136.364 91.8873 136.347L91.891 136.348Z" fill="url(#paint4_linear_881_21954)"/>
<path d="M91.8867 136.348C91.8911 136.364 91.8918 136.382 91.8992 136.399C92.4228 138.38 93.1658 140.32 94.1653 142.192C95.1649 144.064 96.4218 145.869 97.9688 147.584C99.5159 149.298 101.354 150.922 103.52 152.431C105.686 153.94 108.181 155.336 111.038 156.591C113.894 157.846 117.111 158.961 120.73 159.914C124.348 160.867 127.541 161.84 130.345 162.829C133.15 163.819 135.567 164.827 137.637 165.84C139.707 166.854 141.429 167.875 142.841 168.899C144.254 169.924 145.356 170.951 146.189 171.974C147.023 172.997 147.587 174.015 147.921 175.023C148.254 176.031 148.36 177.031 148.271 178.012C148.183 178.992 147.901 179.955 147.469 180.895C147.037 181.836 146.454 182.752 145.757 183.639C144.362 185.414 142.513 187.071 140.527 188.556C140.009 188.944 139.477 189.208 138.945 189.572C149.838 186.684 158.893 179.359 164.045 169.568C164.065 169.403 164.133 169.229 164.15 169.065C164.407 166.596 164.377 164.191 164.004 161.884C163.63 159.577 162.914 157.367 161.801 155.286C160.688 153.205 159.179 151.255 157.218 149.465C155.257 147.675 152.844 146.046 149.926 144.611C147.007 143.176 143.585 141.934 139.601 140.919C135.617 139.903 132.061 138.786 128.9 137.586C125.739 136.386 122.972 135.103 120.558 133.751C118.144 132.4 116.083 130.981 114.339 129.512C112.595 128.042 111.167 126.522 110.017 124.966C108.866 123.411 107.993 121.819 107.359 120.211C106.726 118.604 106.333 116.981 106.14 115.354C105.947 113.728 105.956 112.097 106.128 110.485C106.153 110.268 106.226 110.06 106.255 109.845C98.0592 120.747 94.1733 129.451 91.8908 136.348L91.8867 136.348Z" fill="url(#paint5_linear_881_21954)"/>
<path d="M106.255 109.844C106.225 110.06 106.15 110.268 106.128 110.484C105.957 112.097 105.947 113.727 106.14 115.354C106.333 116.98 106.726 118.603 107.359 120.211C107.993 121.818 108.866 123.411 110.017 124.966C111.167 126.521 112.595 128.041 114.339 129.511C116.083 130.981 118.144 132.399 120.558 133.75C122.972 135.102 125.739 136.386 128.9 137.586C132.061 138.786 135.617 139.903 139.601 140.918C143.585 141.934 147.008 143.175 149.926 144.61C152.845 146.045 155.257 147.674 157.219 149.464C159.18 151.254 160.689 153.205 161.802 155.286C162.915 157.366 163.631 159.577 164.004 161.883C164.378 164.191 164.408 166.595 164.151 169.064C164.134 169.228 164.065 169.403 164.046 169.567C166.962 164.026 168.769 157.812 168.769 151.116H168.852C168.852 151.116 169.774 141.26 162.334 128.302C161.214 126.852 159.252 124.087 157.804 122.21C154.3 121.466 150.927 120.702 147.988 119.883C144.495 118.909 141.384 117.887 138.622 116.827C135.859 115.768 133.444 114.67 131.34 113.549C129.234 112.428 127.438 111.28 125.916 110.121C124.394 108.962 123.145 107.793 122.132 106.62C121.119 105.447 120.342 104.272 119.764 103.109C119.185 101.947 118.807 100.794 118.589 99.6654C118.372 98.5365 118.316 97.4298 118.385 96.3585C118.41 95.993 118.519 95.6586 118.57 95.3018C113.607 100.475 109.702 105.259 106.255 109.844H106.255Z" fill="url(#paint6_linear_881_21954)"/>
<path d="M118.569 95.3006C118.519 95.6575 118.407 95.9918 118.384 96.3573C118.315 97.4286 118.371 98.5353 118.588 99.6643C118.805 100.793 119.184 101.945 119.762 103.108C120.341 104.271 121.117 105.446 122.13 106.619C123.143 107.792 124.392 108.961 125.915 110.12C127.437 111.279 129.233 112.427 131.338 113.548C133.443 114.669 135.858 115.766 138.62 116.826C141.382 117.886 144.493 118.907 147.987 119.882C150.925 120.701 154.299 121.465 157.803 122.208C148.555 113.857 138.481 108.852 136.233 85.9526C135.855 83.1877 136.683 81.0001 134.74 81.0001C133.51 80.9904 132.484 81.9677 132.484 81.9677C127.157 86.6088 122.677 91.0179 118.568 95.3009L118.569 95.3006Z" fill="url(#paint7_linear_881_21954)"/>
<defs>
<filter id="filter0_f_881_21954" x="-20" y="25" width="298" height="184" filterUnits="userSpaceOnUse" color-interpolation-filters="sRGB">
<feFlood flood-opacity="0" result="BackgroundImageFix"/>
<feBlend mode="normal" in="SourceGraphic" in2="BackgroundImageFix" result="shape"/>
<feGaussianBlur stdDeviation="18.5" result="effect1_foregroundBlur_881_21954"/>
</filter>
<filter id="filter1_d_881_21954" x="13" y="62" width="232" height="156" filterUnits="userSpaceOnUse" color-interpolation-filters="sRGB">
<feFlood flood-opacity="0" result="BackgroundImageFix"/>
<feColorMatrix in="SourceAlpha" type="matrix" values="0 0 0 0 0 0 0 0 0 0 0 0 0 0 0 0 0 0 127 0" result="hardAlpha"/>
<feOffset dy="4"/>
<feGaussianBlur stdDeviation="2"/>
<feComposite in2="hardAlpha" operator="out"/>
<feColorMatrix type="matrix" values="0 0 0 0 0 0 0 0 0 0 0 0 0 0 0 0 0 0 0.25 0"/>
<feBlend mode="normal" in2="BackgroundImageFix" result="effect1_dropShadow_881_21954"/>
<feBlend mode="normal" in="SourceGraphic" in2="effect1_dropShadow_881_21954" result="shape"/>
</filter>
<filter id="filter2_ii_881_21954" x="17" y="62" width="224" height="148" filterUnits="userSpaceOnUse" color-interpolation-filters="sRGB">
<feFlood flood-opacity="0" result="BackgroundImageFix"/>
<feBlend mode="normal" in="SourceGraphic" in2="BackgroundImageFix" result="shape"/>
<feColorMatrix in="SourceAlpha" type="matrix" values="0 0 0 0 0 0 0 0 0 0 0 0 0 0 0 0 0 0 127 0" result="hardAlpha"/>
<feOffset dy="4"/>
<feComposite in2="hardAlpha" operator="arithmetic" k2="-1" k3="1"/>
<feColorMatrix type="matrix" values="0 0 0 0 1 0 0 0 0 1 0 0 0 0 1 0 0 0 0.25 0"/>
<feBlend mode="normal" in2="shape" result="effect1_innerShadow_881_21954"/>
<feColorMatrix in="SourceAlpha" type="matrix" values="0 0 0 0 0 0 0 0 0 0 0 0 0 0 0 0 0 0 127 0" result="hardAlpha"/>
<feOffset dy="-4"/>
<feComposite in2="hardAlpha" operator="arithmetic" k2="-1" k3="1"/>
<feColorMatrix type="matrix" values="0 0 0 0 0 0 0 0 0 0 0 0 0 0 0 0 0 0 0.9 0"/>
<feBlend mode="soft-light" in2="effect1_innerShadow_881_21954" result="effect2_innerShadow_881_21954"/>
</filter>
<linearGradient id="paint0_linear_881_21954" x1="17" y1="24.1429" x2="229.62" y2="195.941" gradientUnits="userSpaceOnUse">
<stop offset="0.25" stop-color="#24A9E7"/>
<stop offset="0.934" stop-color="#666666"/>
</linearGradient>
<linearGradient id="paint1_linear_881_21954" x1="17" y1="34" x2="197.768" y2="215.142" gradientUnits="userSpaceOnUse">
<stop stop-color="#05815D"/>
<stop offset="1" stop-color="#0C575F"/>
</linearGradient>
<linearGradient id="paint2_linear_881_21954" x1="17" y1="6.93024" x2="241.096" y2="227.112" gradientUnits="userSpaceOnUse">
<stop stop-color="#FDFEFC"/>
<stop offset="0.934" stop-color="#CFE9F4"/>
</linearGradient>
<linearGradient id="paint3_linear_881_21954" x1="134.719" y1="81.0002" x2="134.719" y2="190.845" gradientUnits="userSpaceOnUse">
<stop stop-color="#FFDC23"/>
<stop offset="0.31552" stop-color="#E6628A"/>
<stop offset="0.55428" stop-color="#7B5FC1"/>
<stop offset="0.79721" stop-color="#1E9BE1"/>
<stop offset="1" stop-color="#0082DC"/>
</linearGradient>
<linearGradient id="paint4_linear_881_21954" x1="91.419" y1="141.355" x2="139.646" y2="186.429" gradientUnits="userSpaceOnUse">
<stop stop-color="#64D2EB"/>
<stop offset="1" stop-color="#0082DC"/>
</linearGradient>
<linearGradient id="paint5_linear_881_21954" x1="104.046" y1="115.677" x2="149.501" y2="183.072" gradientUnits="userSpaceOnUse">
<stop stop-color="#A578E1"/>
<stop offset="1" stop-color="#5046A0"/>
</linearGradient>
<linearGradient id="paint6_linear_881_21954" x1="116.611" y1="99.2893" x2="165.78" y2="157.845" gradientUnits="userSpaceOnUse">
<stop stop-color="#EB82AA"/>
<stop offset="1" stop-color="#DC2850"/>
</linearGradient>
<linearGradient id="paint7_linear_881_21954" x1="134.404" y1="81.9378" x2="156.171" y2="121.27" gradientUnits="userSpaceOnUse">
<stop stop-color="#FFDC23"/>
<stop offset="1" stop-color="#F0A019"/>
</linearGradient>
</defs>
</svg>
