<svg width="256" height="256" viewBox="0 0 256 256" fill="none" xmlns="http://www.w3.org/2000/svg">
<path fill-rule="evenodd" clip-rule="evenodd" d="M104.425 42.3784C100.056 37.0733 93.5437 34 86.6712 34H29C22.3726 34 17 39.3726 17 46V58.1371V68.2V160C17 166.627 22.3726 172 29 172H229C235.627 172 241 166.627 241 160V70.1371C241 63.5097 235.627 58.1371 229 58.1371H117.404L104.425 42.3784Z" fill="#C4C4C4"/>
<mask id="mask0_2395_40412" style="mask-type:alpha" maskUnits="userSpaceOnUse" x="17" y="34" width="224" height="138">
<path fill-rule="evenodd" clip-rule="evenodd" d="M104.425 42.3784C100.056 37.0733 93.5437 34 86.6712 34H29C22.3726 34 17 39.3726 17 46V58.1371V68.2V160C17 166.627 22.3726 172 29 172H229C235.627 172 241 166.627 241 160V70.1371C241 63.5097 235.627 58.1371 229 58.1371H117.404L104.425 42.3784Z" fill="url(#paint0_linear_2395_40412)"/>
</mask>
<g mask="url(#mask0_2395_40412)">
<g style="mix-blend-mode:multiply" filter="url(#filter0_f_2395_40412)">
<path fill-rule="evenodd" clip-rule="evenodd" d="M92.789 74C97.7642 74 102.605 72.3868 106.586 69.4024L116.459 62H229C235.627 62 241 67.3726 241 74V108V160C241 166.627 235.627 172 229 172H29C22.3726 172 17 166.627 17 160L17 108V86C17 79.3726 22.3726 74 29 74H87H92.789Z" fill="black" fill-opacity="0.3"/>
</g>
</g>
<g filter="url(#filter1_ii_2395_40412)">
<path fill-rule="evenodd" clip-rule="evenodd" d="M92.789 74C97.7642 74 102.605 72.3868 106.586 69.4024L116.459 62H229C235.627 62 241 67.3726 241 74V108V198C241 204.627 235.627 210 229 210H29C22.3726 210 17 204.627 17 198L17 108V86C17 79.3726 22.3726 74 29 74H87H92.789Z" fill="url(#paint1_linear_2395_40412)"/>
</g>
<g clip-path="url(#clip0_2395_40412)">
<path d="M103.543 109.789C103.499 109.789 103.454 109.779 103.412 109.759C99.1199 107.676 96.904 105.247 97.0032 102.736C97.0839 100.668 98.7711 98.7164 101.882 97.0904C104.834 95.548 108.998 94.3239 113.923 93.5501C114.002 93.539 114.081 93.5591 114.145 93.6061C114.208 93.6531 114.251 93.7232 114.263 93.8013C114.275 93.8794 114.256 93.9592 114.21 94.0235C114.164 94.0877 114.095 94.1312 114.017 94.1446C104.039 95.7115 97.7508 99.0126 97.6046 102.76C97.5168 104.981 99.6724 107.275 103.674 109.217C103.736 109.247 103.785 109.297 103.814 109.358C103.844 109.42 103.851 109.489 103.836 109.556C103.821 109.622 103.784 109.681 103.73 109.724C103.677 109.766 103.611 109.789 103.543 109.789ZM140.955 94.3647C140.939 94.3647 140.923 94.3635 140.906 94.3608C137.736 93.8403 134.389 93.4928 130.959 93.3287C130.92 93.3269 130.881 93.3173 130.845 93.3004C130.81 93.2836 130.778 93.2599 130.751 93.2306C130.724 93.2014 130.704 93.1672 130.69 93.13C130.677 93.0928 130.671 93.0533 130.673 93.0138C130.681 92.8479 130.825 92.7212 130.988 92.7278C134.441 92.8931 137.811 93.2427 141.004 93.7669C141.079 93.7787 141.147 93.8183 141.194 93.878C141.241 93.9376 141.264 94.0128 141.257 94.0885C141.251 94.1642 141.217 94.2347 141.161 94.286C141.105 94.3372 141.031 94.3653 140.955 94.3647ZM131.484 114.916C131.399 114.916 131.316 114.916 131.231 114.916C131.192 114.915 131.153 114.908 131.116 114.892C131.08 114.877 131.047 114.855 131.019 114.827C130.991 114.799 130.969 114.766 130.954 114.729C130.939 114.692 130.932 114.653 130.932 114.614C130.932 114.534 130.964 114.458 131.02 114.402C131.076 114.346 131.153 114.314 131.232 114.314H131.234C131.316 114.314 131.401 114.314 131.484 114.314C147.587 114.315 160.294 110.129 160.462 104.749C160.521 102.867 159.008 100.957 156.088 99.2264C153.18 97.503 149.011 96.0341 144.035 94.9788C143.957 94.9621 143.889 94.9152 143.845 94.8483C143.802 94.7815 143.786 94.7001 143.803 94.622C143.819 94.544 143.866 94.4757 143.933 94.4323C144 94.3888 144.082 94.3736 144.16 94.3902C149.199 95.459 153.43 96.9524 156.394 98.7087C159.515 100.558 161.129 102.653 161.063 104.768C160.974 107.629 157.814 110.237 152.164 112.11C146.702 113.921 139.366 114.916 131.484 114.916Z" fill="#FC0404"/>
<path d="M136.933 99.2496L144.877 93.1943L135.546 96.9186L132.924 94.1894L133.76 97.9713L125.816 104.026L135.147 100.301L137.769 103.03L136.933 99.2496Z" fill="#FC0404"/>
<path d="M126.984 106.809C127.098 106.249 127.306 106.33 127.874 106.24L128.404 106.156L128.239 107.039L127.71 107.123C127.141 107.213 126.891 107.366 126.984 106.809ZM125.837 106.001L125.425 108.217C125.312 108.822 125.495 109.017 126.077 108.925L129.448 108.39L130.171 104.504L126.8 105.038C126.217 105.13 125.949 105.397 125.837 106.001ZM147.236 102.504L147.197 102.718L150.674 102.166C150.948 102.122 151.216 101.845 151.272 101.545C151.326 101.245 151.15 101.037 150.875 101.081L149.982 101.222L148.558 101.449L148.197 101.505C147.779 101.572 147.321 102.048 147.236 102.504ZM122.84 112.524L122.869 112.369C122.988 112.378 123.148 112.424 123.288 112.404L126.902 111.837C126.768 112.558 125.816 112.738 124.362 112.969L122.708 113.231L121.821 118L123.994 117.656C129.344 117.128 131.38 114.363 132.033 111.067L138.552 110.032L139.602 104.379L140.133 104.295C140.714 104.203 140.628 104.097 140.516 104.701L139.555 109.873L144.235 109.131L144.299 108.788C144.652 108.944 145.065 108.999 145.502 108.93L153.596 107.646L154.351 103.584L153.826 103.21C154.281 102.672 154.635 102.013 154.738 101.46L154.865 100.819C155.269 98.423 153.059 97.7867 152.051 97.9469L147.407 98.6838C146.584 98.8145 145.678 99.3877 145.019 100.147C144.41 99.5434 143.469 99.3088 142.921 99.3957L137.751 100.216L138.329 101.495L142.993 100.756C143.665 100.649 144.115 100.918 144.238 101.45C144.189 101.591 142.993 107.957 142.993 107.957L141.321 108.222L142.217 103.403C142.328 102.8 142.146 102.605 141.565 102.697L138.361 103.206L137.31 108.858L135.472 109.151L136.675 102.679L135.161 100.894L129.714 102.863L132.296 102.454L132.338 102.448L130.696 111.279C130.279 113.523 127.885 115.668 125.761 116.006L123.589 116.35L123.918 114.582L125.571 114.321C127.024 114.09 128.66 112.635 128.942 111.115L129.12 110.158L124.816 110.84C123.893 110.987 123.392 110.426 123.574 109.451L124.346 105.3C124.482 104.562 124.943 103.949 125.559 103.631L125.569 103.52L127.728 101.858L126.467 102.07C125.796 102.176 124.551 102.68 123.76 103.688C123.162 102.975 122.116 102.695 121.527 102.789L116.888 103.526L117.644 99.4618L121.029 98.9249C122.831 98.6394 124.824 96.6131 125.178 94.7098L125.687 91.9715C126.042 90.067 124.702 88.5697 122.901 88.8554L115.504 90.0288L113.928 98.5086L107.116 99.5894C106.54 99.681 105.979 100.249 105.866 100.859L103.321 114.549C103.208 115.159 103.584 115.579 104.16 115.488L117.156 113.426L118.208 107.773L118.737 107.689C119.319 107.597 119.233 107.493 119.121 108.096L118.159 113.266L122.84 112.524ZM113.196 109.425L108.85 110.114L109.014 109.232L112.524 108.674L113.378 104.081L109.868 104.638L110.032 103.755L114.378 103.066L113.196 109.425ZM112.933 110.838L112.572 112.781L104.884 114.001L107.28 101.105L113.632 100.097L113.303 101.864L108.791 102.581L108.101 106.29L111.778 105.707L111.45 107.473L107.773 108.056L107.083 111.767L112.933 110.838ZM121.765 111.324L119.926 111.614L120.822 106.797C120.935 106.193 120.752 105.997 120.17 106.089L116.966 106.598L115.915 112.25L114.076 112.543L115.455 105.124L115.498 105.117L121.598 104.149C122.521 104.002 123.022 104.562 122.84 105.538L121.765 111.324ZM133.716 102.226L135.514 101.942L134.134 109.361L132.296 109.652L133.674 102.234L133.716 102.226ZM144.868 105.723L145.506 102.291C145.709 101.206 146.875 100.139 147.869 99.9813L152.168 99.3C152.893 99.1846 153.396 99.9939 153.248 100.786L153.038 101.89C152.889 102.682 152.081 103.524 151.357 103.639L146.893 104.348L146.829 104.748C146.744 105.204 147.047 105.56 147.464 105.493L152.453 104.699L152.117 106.509L146.489 107.401C145.495 107.558 144.667 106.809 144.868 105.723ZM118.268 96.1047L118.892 92.7482L121.232 92.377C121.539 92.3284 121.695 92.5034 121.634 92.8271L121.208 95.1243C121.147 95.4491 120.915 95.6849 120.608 95.7335L118.268 96.1047Z" fill="#FC0404"/>
<path d="M133.225 97.6748L132.728 95.7072L132.448 95.741L132.358 96.2261C132.295 96.5625 132.025 96.8363 131.708 96.8874L129.785 97.1919C129.468 97.2426 129.286 97.0396 129.348 96.7034L130.317 91.4921C130.38 91.157 130.65 90.8828 130.967 90.8321L132.89 90.5275C133.207 90.4769 133.389 90.68 133.326 91.0149L133.202 91.6782L137.089 91.061L137.237 90.2667C137.609 88.2619 136.246 86.7378 134.348 87.0378L130.63 87.628C128.733 87.9293 126.703 89.9917 126.33 91.9964L125.296 97.561C124.924 99.5657 126.286 101.09 128.184 100.789L129.427 100.592L133.225 97.6748ZM135.98 96.4878C136.081 96.2148 136.151 96.111 136.203 95.831L136.335 95.1236L134.789 95.3695L135.98 96.4878Z" fill="#FC0404"/>
</g>
<path opacity="0.4" fill-rule="evenodd" clip-rule="evenodd" d="M192 162H241V163H192V162ZM192 169H241V170H192V169ZM241 176H192V177H241V176ZM192 183H241V184H192V183ZM241 190H192V191H241V190Z" fill="url(#paint2_linear_2395_40412)"/>
<path opacity="0.7" fill-rule="evenodd" clip-rule="evenodd" d="M192 163H241V164H192V163ZM192 170H241V171H192V170ZM241 177H192V178H241V177ZM192 184H241V185H192V184ZM241 191H192V192H241V191Z" fill="url(#paint3_linear_2395_40412)"/>
<path d="M84 130C84 128.895 84.8954 128 86 128H172C173.105 128 174 128.895 174 130V206H84V130Z" fill="#F7F7F7"/>
<path fill-rule="evenodd" clip-rule="evenodd" d="M129 169C115.143 169 105 180.234 105 194.091V206H107V194C107 181.297 116.297 171 129 171C141.703 171 151 181.297 151 194V206H153V194.091C153 180.234 142.857 169 129 169Z" fill="#BBBCB4"/>
<path d="M129 171C116.297 171 107 181.297 107 194V206H112V192.351C112 182.768 119.611 175 129 175C138.389 175 146 182.768 146 192.351V206H151V194C151 181.297 141.703 171 129 171Z" fill="url(#paint4_radial_2395_40412)"/>
<path d="M87 127C87 126.448 87.4477 126 88 126C88.5523 126 89 126.448 89 127V185C89 185.552 88.5523 186 88 186C87.4477 186 87 185.552 87 185V127Z" fill="#D9D9D9"/>
<path d="M95 127C95 126.448 95.4477 126 96 126C96.5523 126 97 126.448 97 127V185C97 185.552 96.5523 186 96 186C95.4477 186 95 185.552 95 185V127Z" fill="#D9D9D9"/>
<path d="M104 126C103.448 126 103 126.448 103 127V162C103 162.552 103.448 163 104 163C104.552 163 105 162.552 105 162V127C105 126.448 104.552 126 104 126Z" fill="#D9D9D9"/>
<path d="M111 127C111 126.448 111.448 126 112 126C112.552 126 113 126.448 113 127V162C113 162.552 112.552 163 112 163C111.448 163 111 162.552 111 162V127Z" fill="#D9D9D9"/>
<path d="M120 126C119.448 126 119 126.448 119 127V162C119 162.552 119.448 163 120 163C120.552 163 121 162.552 121 162V127C121 126.448 120.552 126 120 126Z" fill="#D9D9D9"/>
<path d="M137 127C137 126.448 137.448 126 138 126C138.552 126 139 126.448 139 127V162C139 162.552 138.552 163 138 163C137.448 163 137 162.552 137 162V127Z" fill="#D9D9D9"/>
<path d="M146 126C145.448 126 145 126.448 145 127V162C145 162.552 145.448 163 146 163C146.552 163 147 162.552 147 162V127C147 126.448 146.552 126 146 126Z" fill="#D9D9D9"/>
<path d="M153 127C153 126.448 153.448 126 154 126C154.552 126 155 126.448 155 127V162C155 162.552 154.552 163 154 163C153.448 163 153 162.552 153 162V127Z" fill="#D9D9D9"/>
<path d="M162 126C161.448 126 161 126.448 161 127V185C161 185.552 161.448 186 162 186C162.552 186 163 185.552 163 185V127C163 126.448 162.552 126 162 126Z" fill="#D9D9D9"/>
<path d="M169 127C169 126.448 169.448 126 170 126C170.552 126 171 126.448 171 127V185C171 185.552 170.552 186 170 186C169.448 186 169 185.552 169 185V127Z" fill="#D9D9D9"/>
<path d="M129.707 132.293C129.317 131.902 128.683 131.902 128.293 132.293L123.293 137.293C122.902 137.683 122.902 138.317 123.293 138.707C123.683 139.098 124.317 139.098 124.707 138.707L128 135.414V162C128 162.552 128.448 163 129 163C129.552 163 130 162.552 130 162V135.414L133.293 138.707C133.683 139.098 134.317 139.098 134.707 138.707C135.098 138.317 135.098 137.683 134.707 137.293L129.707 132.293Z" fill="#D9D9D9"/>
<g opacity="0.7" filter="url(#filter2_i_2395_40412)">
<path d="M40 74H50V108C50 110.761 47.7614 113 45 113C42.2386 113 40 110.761 40 108V74Z" fill="#F0F0F2"/>
</g>
<g opacity="0.7" filter="url(#filter3_i_2395_40412)">
<path d="M214 210H204V203C204 200.239 206.239 198 209 198C211.761 198 214 200.239 214 203V210Z" fill="#F0F0F2"/>
</g>
<g opacity="0.7" filter="url(#filter4_i_2395_40412)">
<path d="M208 62H218H229C232.355 62 234.966 63.3023 236.605 64.6586C237.97 65.787 237.394 67.6323 235.856 68.5106C235.295 68.8313 234.66 69 234.014 69H218V108C218 110.761 215.761 113 213 113C210.239 113 208 110.761 208 108V62Z" fill="#F2F2F2"/>
</g>
<g opacity="0.7" filter="url(#filter5_i_2395_40412)">
<path d="M36 210V205C36 204.448 36.4477 204 37 204H40V203C40 200.239 42.2386 198 45 198C47.7614 198 50 200.239 50 203V204H53C53.5523 204 54 204.448 54 205V210H36Z" fill="#F0F0F2"/>
</g>
<path d="M82 128C82 126.895 82.8954 126 84 126H174C175.105 126 176 126.895 176 128V205C176 205.552 175.552 206 175 206C174.448 206 174 205.552 174 205V130C174 128.895 173.105 128 172 128H86C84.8954 128 84 128.895 84 130V205C84 205.552 83.5523 206 83 206C82.4477 206 82 205.552 82 205V128Z" fill="#BBBCB4"/>
<path opacity="0.4" fill-rule="evenodd" clip-rule="evenodd" d="M17 162H66V163H17V162ZM17 169H66V170H17V169ZM66 176H17V177H66V176ZM17 183H66V184H17V183ZM66 190H17V191H66V190Z" fill="url(#paint5_linear_2395_40412)"/>
<path opacity="0.7" fill-rule="evenodd" clip-rule="evenodd" d="M17 163H66V164H17V163ZM17 170H66V171H17V170ZM66 177H17V178H66V177ZM17 184H66V185H17V184ZM66 191H17V192H66V191Z" fill="url(#paint6_linear_2395_40412)"/>
<defs>
<filter id="filter0_f_2395_40412" x="-20" y="25" width="298" height="184" filterUnits="userSpaceOnUse" color-interpolation-filters="sRGB">
<feFlood flood-opacity="0" result="BackgroundImageFix"/>
<feBlend mode="normal" in="SourceGraphic" in2="BackgroundImageFix" result="shape"/>
<feGaussianBlur stdDeviation="18.5" result="effect1_foregroundBlur_2395_40412"/>
</filter>
<filter id="filter1_ii_2395_40412" x="17" y="62" width="224" height="148" filterUnits="userSpaceOnUse" color-interpolation-filters="sRGB">
<feFlood flood-opacity="0" result="BackgroundImageFix"/>
<feBlend mode="normal" in="SourceGraphic" in2="BackgroundImageFix" result="shape"/>
<feColorMatrix in="SourceAlpha" type="matrix" values="0 0 0 0 0 0 0 0 0 0 0 0 0 0 0 0 0 0 127 0" result="hardAlpha"/>
<feOffset dy="4"/>
<feComposite in2="hardAlpha" operator="arithmetic" k2="-1" k3="1"/>
<feColorMatrix type="matrix" values="0 0 0 0 1 0 0 0 0 1 0 0 0 0 1 0 0 0 0.25 0"/>
<feBlend mode="normal" in2="shape" result="effect1_innerShadow_2395_40412"/>
<feColorMatrix in="SourceAlpha" type="matrix" values="0 0 0 0 0 0 0 0 0 0 0 0 0 0 0 0 0 0 127 0" result="hardAlpha"/>
<feOffset dy="-4"/>
<feComposite in2="hardAlpha" operator="arithmetic" k2="-1" k3="1"/>
<feColorMatrix type="matrix" values="0 0 0 0 0 0 0 0 0 0 0 0 0 0 0 0 0 0 0.9 0"/>
<feBlend mode="soft-light" in2="effect1_innerShadow_2395_40412" result="effect2_innerShadow_2395_40412"/>
</filter>
<filter id="filter2_i_2395_40412" x="40" y="73" width="10" height="40" filterUnits="userSpaceOnUse" color-interpolation-filters="sRGB">
<feFlood flood-opacity="0" result="BackgroundImageFix"/>
<feBlend mode="normal" in="SourceGraphic" in2="BackgroundImageFix" result="shape"/>
<feColorMatrix in="SourceAlpha" type="matrix" values="0 0 0 0 0 0 0 0 0 0 0 0 0 0 0 0 0 0 127 0" result="hardAlpha"/>
<feOffset dy="-1"/>
<feGaussianBlur stdDeviation="0.65"/>
<feComposite in2="hardAlpha" operator="arithmetic" k2="-1" k3="1"/>
<feColorMatrix type="matrix" values="0 0 0 0 0 0 0 0 0 0 0 0 0 0 0 0 0 0 0.25 0"/>
<feBlend mode="normal" in2="shape" result="effect1_innerShadow_2395_40412"/>
</filter>
<filter id="filter3_i_2395_40412" x="204" y="198" width="10" height="12" filterUnits="userSpaceOnUse" color-interpolation-filters="sRGB">
<feFlood flood-opacity="0" result="BackgroundImageFix"/>
<feBlend mode="normal" in="SourceGraphic" in2="BackgroundImageFix" result="shape"/>
<feColorMatrix in="SourceAlpha" type="matrix" values="0 0 0 0 0 0 0 0 0 0 0 0 0 0 0 0 0 0 127 0" result="hardAlpha"/>
<feOffset/>
<feGaussianBlur stdDeviation="0.65"/>
<feComposite in2="hardAlpha" operator="arithmetic" k2="-1" k3="1"/>
<feColorMatrix type="matrix" values="0 0 0 0 0 0 0 0 0 0 0 0 0 0 0 0 0 0 0.25 0"/>
<feBlend mode="normal" in2="shape" result="effect1_innerShadow_2395_40412"/>
</filter>
<filter id="filter4_i_2395_40412" x="208" y="61" width="29.375" height="52" filterUnits="userSpaceOnUse" color-interpolation-filters="sRGB">
<feFlood flood-opacity="0" result="BackgroundImageFix"/>
<feBlend mode="normal" in="SourceGraphic" in2="BackgroundImageFix" result="shape"/>
<feColorMatrix in="SourceAlpha" type="matrix" values="0 0 0 0 0 0 0 0 0 0 0 0 0 0 0 0 0 0 127 0" result="hardAlpha"/>
<feOffset dy="-1"/>
<feGaussianBlur stdDeviation="0.65"/>
<feComposite in2="hardAlpha" operator="arithmetic" k2="-1" k3="1"/>
<feColorMatrix type="matrix" values="0 0 0 0 0 0 0 0 0 0 0 0 0 0 0 0 0 0 0.25 0"/>
<feBlend mode="normal" in2="shape" result="effect1_innerShadow_2395_40412"/>
</filter>
<filter id="filter5_i_2395_40412" x="36" y="198" width="18" height="12" filterUnits="userSpaceOnUse" color-interpolation-filters="sRGB">
<feFlood flood-opacity="0" result="BackgroundImageFix"/>
<feBlend mode="normal" in="SourceGraphic" in2="BackgroundImageFix" result="shape"/>
<feColorMatrix in="SourceAlpha" type="matrix" values="0 0 0 0 0 0 0 0 0 0 0 0 0 0 0 0 0 0 127 0" result="hardAlpha"/>
<feOffset/>
<feGaussianBlur stdDeviation="0.65"/>
<feComposite in2="hardAlpha" operator="arithmetic" k2="-1" k3="1"/>
<feColorMatrix type="matrix" values="0 0 0 0 0 0 0 0 0 0 0 0 0 0 0 0 0 0 0.25 0"/>
<feBlend mode="normal" in2="shape" result="effect1_innerShadow_2395_40412"/>
</filter>
<linearGradient id="paint0_linear_2395_40412" x1="17" y1="34" x2="197.768" y2="215.142" gradientUnits="userSpaceOnUse">
<stop stop-color="#05815D"/>
<stop offset="1" stop-color="#0C575F"/>
</linearGradient>
<linearGradient id="paint1_linear_2395_40412" x1="8.5" y1="136" x2="250" y2="136" gradientUnits="userSpaceOnUse">
<stop stop-color="#F2F2F2"/>
<stop offset="0.0338309" stop-color="#F2F2F2"/>
<stop offset="0.0358521" stop-color="#DDDDDD"/>
<stop offset="0.0491703" stop-color="#DEDEDE"/>
<stop offset="0.0606606" stop-color="#F2F2F2"/>
<stop offset="0.238114" stop-color="#F2F2F2"/>
<stop offset="0.238114" stop-color="#E6E6E6"/>
<stop offset="0.3724" stop-color="#FFF8F8"/>
<stop offset="0.630579" stop-color="#FFF8F8"/>
<stop offset="0.759877" stop-color="#E6E6E6"/>
<stop offset="0.760784" stop-color="#F2F2F2"/>
<stop offset="0.937447" stop-color="#F2F2F2"/>
<stop offset="0.950809" stop-color="#DEDEDE"/>
<stop offset="0.964246" stop-color="#DDDDDD"/>
<stop offset="0.964534" stop-color="#F2F2F2"/>
<stop offset="1" stop-color="#F2F2F2"/>
</linearGradient>
<linearGradient id="paint2_linear_2395_40412" x1="192" y1="191" x2="241" y2="191" gradientUnits="userSpaceOnUse">
<stop stop-color="#575757" stop-opacity="0.5"/>
<stop offset="0.829666" stop-color="#444343" stop-opacity="0.5"/>
<stop offset="1" stop-color="#424242" stop-opacity="0.5"/>
</linearGradient>
<linearGradient id="paint3_linear_2395_40412" x1="192" y1="192" x2="241" y2="192" gradientUnits="userSpaceOnUse">
<stop stop-color="#575757" stop-opacity="0.5"/>
<stop offset="0.829666" stop-color="#444343" stop-opacity="0.5"/>
<stop offset="1" stop-color="#424242" stop-opacity="0.5"/>
</linearGradient>
<radialGradient id="paint4_radial_2395_40412" cx="0" cy="0" r="1" gradientUnits="userSpaceOnUse" gradientTransform="translate(129 187.341) rotate(90) scale(18.3408 24)">
<stop stop-color="#E1E1E0"/>
<stop offset="1" stop-color="#E0E0E0"/>
</radialGradient>
<linearGradient id="paint5_linear_2395_40412" x1="17" y1="191" x2="66" y2="191" gradientUnits="userSpaceOnUse">
<stop stop-color="#575757" stop-opacity="0.5"/>
<stop offset="0.829666" stop-color="#444343" stop-opacity="0.5"/>
<stop offset="1" stop-color="#424242" stop-opacity="0.5"/>
</linearGradient>
<linearGradient id="paint6_linear_2395_40412" x1="17" y1="192" x2="66" y2="192" gradientUnits="userSpaceOnUse">
<stop stop-color="#575757" stop-opacity="0.5"/>
<stop offset="0.829666" stop-color="#444343" stop-opacity="0.5"/>
<stop offset="1" stop-color="#424242" stop-opacity="0.5"/>
</linearGradient>
<clipPath id="clip0_2395_40412">
<rect width="64.0648" height="31" fill="white" transform="translate(97 87)"/>
</clipPath>
</defs>
</svg>
