<svg width="256" height="256" viewBox="0 0 256 256" fill="none" xmlns="http://www.w3.org/2000/svg">
<path fill-rule="evenodd" clip-rule="evenodd" d="M104.425 42.3784C100.056 37.0733 93.5437 34 86.6712 34H29C22.3726 34 17 39.3726 17 46V58.1371V68.2V160C17 166.627 22.3726 172 29 172H229C235.627 172 241 166.627 241 160V70.1371C241 63.5097 235.627 58.1371 229 58.1371H117.404L104.425 42.3784Z" fill="#747172"/>
<mask id="mask0_2395_40238" style="mask-type:alpha" maskUnits="userSpaceOnUse" x="17" y="34" width="224" height="138">
<path fill-rule="evenodd" clip-rule="evenodd" d="M104.425 42.3784C100.056 37.0733 93.5437 34 86.6712 34H29C22.3726 34 17 39.3726 17 46V58.1371V68.2V160C17 166.627 22.3726 172 29 172H229C235.627 172 241 166.627 241 160V70.1371C241 63.5097 235.627 58.1371 229 58.1371H117.404L104.425 42.3784Z" fill="url(#paint0_linear_2395_40238)"/>
</mask>
<g mask="url(#mask0_2395_40238)">
<g style="mix-blend-mode:multiply" filter="url(#filter0_f_2395_40238)">
<path fill-rule="evenodd" clip-rule="evenodd" d="M92.789 74C97.7642 74 102.605 72.3868 106.586 69.4024L116.459 62H229C235.627 62 241 67.3726 241 74V108V160C241 166.627 235.627 172 229 172H29C22.3726 172 17 166.627 17 160L17 108V86C17 79.3726 22.3726 74 29 74H87H92.789Z" fill="black" fill-opacity="0.3"/>
</g>
</g>
<g filter="url(#filter1_ii_2395_40238)">
<path fill-rule="evenodd" clip-rule="evenodd" d="M92.789 74C97.7642 74 102.605 72.3868 106.586 69.4024L116.459 62H229C235.627 62 241 67.3726 241 74V108V198C241 204.627 235.627 210 229 210H29C22.3726 210 17 204.627 17 198L17 108V86C17 79.3726 22.3726 74 29 74H87H92.789Z" fill="url(#paint1_linear_2395_40238)"/>
</g>
<path d="M163.747 112.004H163.727C163.07 132.359 146.362 148.242 125.847 148.242C105.333 148.242 88.6254 132.359 87.9679 112.004H87.9478V88.4513C87.9478 84.2077 84.5077 80.7676 80.2641 80.7676H31.2541C27.0104 80.7676 23.5703 84.2077 23.5703 88.4513V134.858C23.5703 137.152 25.4298 139.011 27.7237 139.011L27.7284 139.038C33.5839 134.027 41.1884 131 49.5 131C68.0015 131 83 145.998 83 164.5C83 180.1 72.3373 193.209 57.9024 196.938C58.2634 198.982 60.0488 200.535 62.1968 200.535H214.003C224.555 200.535 233.109 191.981 233.109 181.429V78.4513C233.109 74.2077 229.669 70.7676 225.425 70.7676H171.431C167.187 70.7676 163.747 74.2077 163.747 78.4513V112.004Z" fill="#615D5E"/>
<g filter="url(#filter2_i_2395_40238)">
<path d="M126.462 60C135.145 60 143.004 60.0697 148.689 60.1822C151.533 60.2386 153.826 60.3055 155.405 60.3794C156.036 60.4089 156.544 60.4392 156.924 60.4696V109.861C156.924 126.685 143.286 140.323 126.462 140.323C109.638 140.323 96 126.685 96 109.861V60.4696C96.3796 60.4392 96.8878 60.4089 97.5192 60.3794C99.0978 60.3055 101.391 60.2386 104.235 60.1822C109.92 60.0697 117.778 60 126.462 60ZM157.586 60.5443C157.586 60.5443 157.585 60.544 157.582 60.5432C157.585 60.5439 157.586 60.5443 157.586 60.5443ZM95.3375 60.5443C95.3374 60.5443 95.3389 60.5439 95.3421 60.5432C95.3392 60.544 95.3376 60.5443 95.3375 60.5443Z" fill="#F2F2F2" stroke="#D9D9D9" stroke-width="2"/>
</g>
<circle cx="125.891" cy="127.891" r="8.39144" fill="#EFEBE0" stroke="#B5B1AB"/>
<rect x="122.363" y="123.945" width="2.28436" height="2.28436" fill="#B5B1AB"/>
<rect x="120.078" y="126.23" width="2.28436" height="2.28436" fill="#B5B1AB"/>
<rect x="122.363" y="128.514" width="2.28436" height="2.28436" fill="#B5B1AB"/>
<rect x="124.648" y="130.799" width="2.28436" height="2.28436" fill="#B5B1AB"/>
<rect x="126.93" y="128.514" width="2.28436" height="2.28436" fill="#B5B1AB"/>
<rect x="124.648" y="126.23" width="2.28436" height="2.28436" fill="#B5B1AB"/>
<rect x="126.93" y="123.945" width="2.28436" height="2.28436" fill="#B5B1AB"/>
<rect x="129.215" y="126.23" width="2.28436" height="2.28436" fill="#B5B1AB"/>
<rect x="167.691" y="156" width="61.2625" height="30.5274" rx="15.2637" fill="#B6403E"/>
<circle cx="182.749" cy="171.264" r="12.3563" fill="#E9E0E0"/>
<circle cx="182.748" cy="171.471" r="10.2796" fill="#CA3032"/>
<circle cx="213.483" cy="171.264" r="12.3563" fill="#E9E0E0"/>
<circle cx="213.483" cy="171.471" r="10.2796" fill="#CA3032"/>
<path fill-rule="evenodd" clip-rule="evenodd" d="M182.749 142.713C189.573 142.713 195.105 137.181 195.105 130.356C195.105 123.532 189.573 118 182.749 118C175.925 118 170.393 123.532 170.393 130.356C170.393 137.181 175.925 142.713 182.749 142.713ZM182.748 140.844C188.426 140.844 193.028 136.242 193.028 130.565C193.028 124.888 188.426 120.285 182.748 120.285C177.071 120.285 172.469 124.888 172.469 130.565C172.469 136.242 177.071 140.844 182.748 140.844Z" fill="#E9E0E0"/>
<path fill-rule="evenodd" clip-rule="evenodd" d="M213.483 142.713C220.307 142.713 225.84 137.181 225.84 130.356C225.84 123.532 220.307 118 213.483 118C206.659 118 201.127 123.532 201.127 130.356C201.127 137.181 206.659 142.713 213.483 142.713ZM213.483 140.844C219.16 140.844 223.762 136.242 223.762 130.565C223.762 124.888 219.16 120.285 213.483 120.285C207.805 120.285 203.203 124.888 203.203 130.565C203.203 136.242 207.805 140.844 213.483 140.844Z" fill="#E9E0E0"/>
<path fill-rule="evenodd" clip-rule="evenodd" d="M104.976 175.614C101.88 175.614 99.3691 178.125 99.3691 181.221C99.3691 184.318 101.88 186.828 104.976 186.828H116.398C119.495 186.828 122.005 184.318 122.005 181.221C122.005 178.125 119.495 175.614 116.398 175.614H104.976ZM104.976 177.691C103.026 177.691 101.445 179.272 101.445 181.222C101.445 183.172 103.026 184.752 104.976 184.752H116.832C118.542 184.752 119.928 183.366 119.928 181.656C119.928 179.467 118.153 177.691 115.963 177.691H104.976Z" fill="#E9E0E0"/>
<path fill-rule="evenodd" clip-rule="evenodd" d="M135.088 175.614C131.991 175.614 129.48 178.125 129.48 181.221C129.48 184.318 131.991 186.828 135.088 186.828H146.509C149.606 186.828 152.116 184.318 152.116 181.221C152.116 178.125 149.606 175.614 146.509 175.614H135.088ZM135.089 177.691C133.139 177.691 131.559 179.272 131.559 181.222C131.559 183.172 133.139 184.752 135.089 184.752H146.945C148.655 184.752 150.041 183.366 150.041 181.656C150.041 179.467 148.266 177.691 146.076 177.691H135.089Z" fill="#E9E0E0"/>
<path d="M27.3093 127.729L29.1582 130.238C39.8153 124.821 65.0666 120.356 80.8145 145.827C87.839 157.189 89.6661 179.516 72.2271 194.049L74.2088 196.692C91.6478 182.16 92.1965 157.851 83.4568 143.715C67.7094 118.244 39.0679 120.331 27.3093 127.729Z" fill="#B6403E"/>
<path d="M181.815 88.4044H183.892V95.8805H181.815V88.4044Z" fill="#B6403E"/>
<path fill-rule="evenodd" clip-rule="evenodd" d="M177.509 86.228C177.216 86.4198 177.039 86.7465 177.039 87.0968V98.1649C177.039 98.7383 177.504 99.2032 178.077 99.2032H187.423C187.996 99.2032 188.461 98.7383 188.461 98.1649V87.0968C188.461 86.7465 188.284 86.4198 187.991 86.228L183.319 83.1696C182.973 82.9435 182.527 82.9435 182.181 83.1696L177.509 86.228ZM178.908 87.3661H186.592V88.4044H185.554V95.8805H186.592V96.9189H178.908V95.8805H180.154V88.4044H178.908V87.3661Z" fill="#B6403E"/>
<path fill-rule="evenodd" clip-rule="evenodd" d="M186.592 87.3661H178.908V88.4044H180.154V95.8805H178.908V96.9189H186.592V95.8805H185.554V88.4044H186.592V87.3661ZM181.815 88.4044H183.892V95.8805H181.815V88.4044Z" fill="#E9E0E0"/>
<path fill-rule="evenodd" clip-rule="evenodd" d="M208.243 86.2319C207.95 86.4237 207.773 86.7504 207.773 87.1007V98.1688C207.773 98.7423 208.238 99.2071 208.812 99.2071H218.157C218.73 99.2071 219.195 98.7423 219.195 98.1688V87.1007C219.195 86.7504 219.019 86.4237 218.726 86.2319L214.053 83.1735C213.708 82.9474 213.261 82.9474 212.916 83.1735L208.243 86.2319ZM211.511 87.37H215.457V88.4083H214.419V95.8844H215.457V96.9228H211.511V95.8844H212.758V88.4083H211.511V87.37Z" fill="#B6403E"/>
<path d="M215.457 87.37H211.511V88.4083H212.758V95.8844H211.511V96.9228H215.457V95.8844H214.419V88.4083H215.457V87.37Z" fill="#E9E0E0"/>
<circle cx="49.9501" cy="164.95" r="28.9872" fill="#615D5E"/>
<circle cx="49.5982" cy="164.597" r="25.5325" fill="#615D5E" stroke="#414141" stroke-width="1.24074"/>
<path d="M56.6886 171.084H56.0853V171.688V187.475C56.0853 188.843 54.9762 189.952 53.6081 189.952H45.3936C44.0255 189.952 42.9165 188.843 42.9165 187.475V171.688V171.084H42.3131H26.5258C25.1577 171.084 24.0487 169.975 24.0487 168.607V160.393C24.0487 159.025 25.1577 157.915 26.5258 157.915H42.3131H42.9165V157.312V141.525C42.9165 140.157 44.0255 139.048 45.3936 139.048H53.6081C54.9762 139.048 56.0853 140.157 56.0853 141.525V157.312V157.915H56.6886H58.8706H72.476C73.844 157.915 74.9531 159.025 74.9531 160.393V168.607C74.9531 169.975 73.844 171.084 72.476 171.084H56.6886Z" fill="#636363" stroke="#3C3A3A" stroke-width="1.20669"/>
<circle cx="50.0769" cy="165.077" r="5.53977" fill="#363636"/>
<defs>
<filter id="filter0_f_2395_40238" x="-20" y="25" width="298" height="184" filterUnits="userSpaceOnUse" color-interpolation-filters="sRGB">
<feFlood flood-opacity="0" result="BackgroundImageFix"/>
<feBlend mode="normal" in="SourceGraphic" in2="BackgroundImageFix" result="shape"/>
<feGaussianBlur stdDeviation="18.5" result="effect1_foregroundBlur_2395_40238"/>
</filter>
<filter id="filter1_ii_2395_40238" x="17" y="62" width="224" height="148" filterUnits="userSpaceOnUse" color-interpolation-filters="sRGB">
<feFlood flood-opacity="0" result="BackgroundImageFix"/>
<feBlend mode="normal" in="SourceGraphic" in2="BackgroundImageFix" result="shape"/>
<feColorMatrix in="SourceAlpha" type="matrix" values="0 0 0 0 0 0 0 0 0 0 0 0 0 0 0 0 0 0 127 0" result="hardAlpha"/>
<feOffset dy="4"/>
<feComposite in2="hardAlpha" operator="arithmetic" k2="-1" k3="1"/>
<feColorMatrix type="matrix" values="0 0 0 0 1 0 0 0 0 1 0 0 0 0 1 0 0 0 0.25 0"/>
<feBlend mode="normal" in2="shape" result="effect1_innerShadow_2395_40238"/>
<feColorMatrix in="SourceAlpha" type="matrix" values="0 0 0 0 0 0 0 0 0 0 0 0 0 0 0 0 0 0 127 0" result="hardAlpha"/>
<feOffset dy="-4"/>
<feComposite in2="hardAlpha" operator="arithmetic" k2="-1" k3="1"/>
<feColorMatrix type="matrix" values="0 0 0 0 0 0 0 0 0 0 0 0 0 0 0 0 0 0 0.9 0"/>
<feBlend mode="soft-light" in2="effect1_innerShadow_2395_40238" result="effect2_innerShadow_2395_40238"/>
</filter>
<filter id="filter2_i_2395_40238" x="95" y="59" width="62.9238" height="82.3232" filterUnits="userSpaceOnUse" color-interpolation-filters="sRGB">
<feFlood flood-opacity="0" result="BackgroundImageFix"/>
<feBlend mode="normal" in="SourceGraphic" in2="BackgroundImageFix" result="shape"/>
<feColorMatrix in="SourceAlpha" type="matrix" values="0 0 0 0 0 0 0 0 0 0 0 0 0 0 0 0 0 0 127 0" result="hardAlpha"/>
<feOffset dy="4"/>
<feComposite in2="hardAlpha" operator="arithmetic" k2="-1" k3="1"/>
<feColorMatrix type="matrix" values="0 0 0 0 1 0 0 0 0 1 0 0 0 0 1 0 0 0 0.25 0"/>
<feBlend mode="normal" in2="shape" result="effect1_innerShadow_2395_40238"/>
</filter>
<linearGradient id="paint0_linear_2395_40238" x1="17" y1="34" x2="197.768" y2="215.142" gradientUnits="userSpaceOnUse">
<stop stop-color="#05815D"/>
<stop offset="1" stop-color="#0C575F"/>
</linearGradient>
<linearGradient id="paint1_linear_2395_40238" x1="17" y1="62" x2="241" y2="210" gradientUnits="userSpaceOnUse">
<stop stop-color="#F2F2F2"/>
<stop offset="1" stop-color="#D3D3D3"/>
</linearGradient>
</defs>
</svg>
