<svg width="256" height="256" viewBox="0 0 256 256" fill="none" xmlns="http://www.w3.org/2000/svg">
<path fill-rule="evenodd" clip-rule="evenodd" d="M104.425 42.3784C100.056 37.0733 93.5437 34 86.6712 34H29C22.3726 34 17 39.3726 17 46V58.1371V68.2V160C17 166.627 22.3726 172 29 172H229C235.627 172 241 166.627 241 160V70.1371C241 63.5097 235.627 58.1371 229 58.1371H117.404L104.425 42.3784Z" fill="#034165"/>
<mask id="mask0_2031_33856" style="mask-type:alpha" maskUnits="userSpaceOnUse" x="17" y="34" width="224" height="138">
<path fill-rule="evenodd" clip-rule="evenodd" d="M104.425 42.3784C100.056 37.0733 93.5437 34 86.6712 34H29C22.3726 34 17 39.3726 17 46V58.1371V68.2V160C17 166.627 22.3726 172 29 172H229C235.627 172 241 166.627 241 160V70.1371C241 63.5097 235.627 58.1371 229 58.1371H117.404L104.425 42.3784Z" fill="url(#paint0_linear_2031_33856)"/>
</mask>
<g mask="url(#mask0_2031_33856)">
<g style="mix-blend-mode:multiply" filter="url(#filter0_f_2031_33856)">
<path fill-rule="evenodd" clip-rule="evenodd" d="M92.789 74C97.7642 74 102.605 72.3868 106.586 69.4024L116.459 62H229C235.627 62 241 67.3726 241 74V108V160C241 166.627 235.627 172 229 172H29C22.3726 172 17 166.627 17 160L17 108V86C17 79.3726 22.3726 74 29 74H87H92.789Z" fill="black" fill-opacity="0.3"/>
</g>
</g>
<g filter="url(#filter1_ii_2031_33856)">
<path fill-rule="evenodd" clip-rule="evenodd" d="M92.789 74C97.7642 74 102.605 72.3868 106.586 69.4024L116.459 62H229C235.627 62 241 67.3726 241 74V108V198C241 204.627 235.627 210 229 210H29C22.3726 210 17 204.627 17 198L17 108V86C17 79.3726 22.3726 74 29 74H87H92.789Z" fill="url(#paint1_linear_2031_33856)"/>
</g>
<path d="M108.294 189.314C106.389 189.198 104.763 188.726 103.46 187.912C103.017 187.634 102.92 187.476 102.92 187.031C102.92 186.797 102.944 186.711 103.073 186.49C103.247 186.193 103.671 185.828 104.168 185.549C104.653 185.277 106.029 184.722 106.494 184.609C107.28 184.42 107.899 184.124 108.49 183.654C109.057 183.202 109.551 182.497 109.754 181.851C109.805 181.687 110.005 181.267 110.199 180.917C112.706 176.393 113.743 171.196 113.122 166.265C113.083 165.959 113.02 165.298 112.982 164.796C112.797 162.363 112.45 160.391 111.811 158.125C111.713 157.777 111.642 157.406 111.623 157.133C111.48 155.144 111.075 152.713 110.514 150.481C110.234 149.366 110.215 149.074 110.207 145.835C110.198 142.468 110.158 141.718 109.924 140.594C109.817 140.078 109.617 139.363 109.581 139.363C109.563 139.363 109.4 139.454 109.22 139.566C107.878 140.394 106.071 141.06 104.218 141.407C103.944 141.458 103.571 141.549 103.39 141.608C102.956 141.75 102.307 141.785 101.862 141.69C101.131 141.535 100.504 141.12 100.146 140.556C99.8517 140.093 99.5503 139.978 99.106 140.159C98.9964 140.204 98.6458 140.445 98.327 140.696C97.7154 141.176 97.471 141.309 97.198 141.309C96.9883 141.309 96.8195 141.199 96.6166 140.932C96.2674 140.471 94.0821 138.84 92.5983 137.933C92.3009 137.752 91.9333 137.506 91.7816 137.389C90.9937 136.778 89.9118 136.282 88.8365 136.04L88.3427 135.929L88.2252 135.73C88.1089 135.534 88.1078 135.521 88.1202 134.64C88.1363 133.499 88.1126 133.417 87.6664 133.05C87.4934 132.908 87.3055 132.728 87.2489 132.649C87.0659 132.397 86.763 132.353 86.1797 132.494C85.2245 132.725 85.0434 132.554 84.4838 130.897C84.3458 130.488 84.172 130.03 84.0976 129.881C83.8162 129.315 83.4496 128.971 82.8649 128.721C82.2592 128.463 81.4657 127.564 81.0603 126.676C80.616 125.703 80.4339 124.659 80.326 122.467C80.2676 121.28 80.2036 120.491 80.1135 119.847C79.7827 117.481 79.8125 114.124 80.1886 111.369L80.2835 110.674L80.6987 109.88C81.2703 108.786 81.7465 107.812 82.2459 106.715C82.7432 105.623 83.4288 104.005 83.4288 103.925C83.4288 103.85 82.9284 103.553 82.4923 103.369C81.7017 103.034 80.8435 102.858 78.75 102.599C78.0517 102.512 77.2281 102.394 76.9199 102.335C75.1406 101.998 74.0475 101.397 73.3044 100.347C73.1742 100.163 73.1151 100.016 73.0562 99.7313C72.8315 98.6437 73.2769 97.5344 74.4538 96.2509C74.978 95.6792 77.0889 93.8938 77.5274 93.6512C78.325 93.21 79.0959 93.049 81.0071 92.9246C82.2651 92.8427 83.0177 92.7418 83.6529 92.5696C84.2027 92.4205 84.699 92.3365 85.4273 92.269C86.8851 92.1339 87.5489 91.9564 88.0368 91.571C88.2894 91.3715 88.52 91.0339 88.6041 90.7408C88.7422 90.2588 89.2146 89.728 89.8004 89.3965C89.9298 89.3234 90.4164 89.0982 90.882 88.896C91.8534 88.4742 92.1883 88.2947 92.5513 88.0009C92.6936 87.8858 92.8522 87.7737 92.9039 87.7518C93.3263 87.5732 93.9553 87.5289 94.4695 87.6415C94.8809 87.7315 95.2824 87.8922 96.2812 88.3669C97.1194 88.7652 97.9143 89.0519 98.1831 89.0528C98.3951 89.0535 99.7502 89.8065 100.747 90.4772C101.844 91.2156 103.822 92.9775 104.143 93.5018C104.245 93.6678 104.374 94.1907 104.493 94.9166C104.613 95.655 104.726 96.0378 104.918 96.3582C105.054 96.5867 105.194 96.7197 105.798 97.1933C106.37 97.6422 106.992 98.6973 107.262 99.6751C107.548 100.714 107.625 101.825 107.561 103.983C107.528 105.081 107.529 105.878 107.565 106.637C107.605 107.478 107.603 107.823 107.558 108.173C107.452 108.989 107.218 109.714 106.823 110.456C106.699 110.688 106.602 110.945 106.569 111.126C106.486 111.582 106.319 111.95 105.741 112.957C104.952 114.332 104.87 114.598 104.946 115.531C104.97 115.823 104.974 116.225 104.956 116.425C104.874 117.337 104.858 118.072 104.915 118.263C105.039 118.681 105.34 118.859 105.859 118.822C106.027 118.81 106.199 118.789 106.242 118.775C106.441 118.71 106.717 117.956 106.963 116.809C107.145 115.96 107.313 115.358 107.438 115.109C107.479 115.028 107.711 114.459 107.954 113.843C108.724 111.896 109.437 110.416 110.303 108.967C111.605 106.791 112.895 105.256 114.611 103.844C115.624 103.01 116.529 102.428 117.662 101.882C118.034 101.702 118.472 101.442 118.859 101.173C119.579 100.671 121.056 99.4596 121.703 98.8412C123.833 96.8047 125.507 94.4507 126.619 91.9293C126.961 91.1532 127.072 90.9871 127.598 90.458C128.082 89.9704 128.613 89.5189 129.803 88.5827C131.323 87.3859 131.897 86.842 132.475 86.0489L132.782 85.6279L133.744 85.4393C135.558 85.0841 137.676 84.5582 138.281 84.3127C138.462 84.2393 139.127 83.9362 139.759 83.639C141.02 83.0456 141.808 82.7441 142.49 82.5931C142.862 82.5108 143.11 82.4884 143.971 82.4593C145.618 82.4038 146.745 82.3037 148.265 82.0782C149.113 81.9523 148.961 81.9328 150.554 82.3722C151.612 82.6642 153.138 83.1577 153.899 83.4544C154.509 83.6929 155.41 84.2387 156.369 84.9522C158.858 86.8048 160.714 89.4855 161.419 92.2497C161.596 92.9469 162.211 94.2884 162.833 95.3377C163.759 96.8994 164.761 98.2044 167.371 101.244C168.858 102.976 169.531 103.793 170.137 104.599C171.353 106.215 172.216 107.664 172.776 109.026C172.888 109.299 173.167 109.833 173.396 110.212C175.489 113.686 178.175 116.903 181.357 119.746C181.834 120.172 182.155 120.552 182.499 121.103C183.136 122.12 183.519 123.259 183.94 125.391C184.186 126.637 184.324 127.242 184.51 127.895C184.676 128.477 184.677 128.479 184.977 128.801C185.76 129.639 185.929 130.518 185.396 130.968C185.212 131.124 184.862 131.263 184.654 131.263C184.567 131.263 184.563 131.284 184.588 131.61C184.603 131.801 184.701 132.295 184.807 132.707C184.912 133.12 185.022 133.62 185.051 133.819C185.146 134.475 185.024 135.063 184.701 135.513C184.614 135.633 184.464 135.955 184.365 136.227C183.551 138.492 182.406 140.877 180.924 143.393C180.577 143.983 180.225 144.581 180.143 144.722C179.819 145.277 179.113 145.716 178.546 145.716C178.31 145.716 178.256 145.701 178.103 145.587C177.856 145.404 177.77 145.206 177.686 144.622C177.645 144.339 177.549 143.768 177.474 143.354C177.27 142.228 177.194 141.667 177.162 141.051C177.1 139.854 177.371 138.86 177.964 138.098C178.224 137.764 178.277 137.633 178.436 136.921C178.656 135.936 178.746 134.755 178.689 133.595C178.636 132.495 178.404 131.292 178.056 130.31C177.884 129.825 177.88 129.8 177.893 129.258C177.927 127.818 177.528 126.501 176.692 125.297C176.574 125.127 176.459 124.979 176.437 124.967C176.362 124.928 175.974 125.272 175.858 125.48C175.708 125.751 175.613 126.15 175.523 126.895C175.483 127.233 175.408 127.644 175.359 127.808C175.25 128.165 175.12 128.856 174.961 129.933C174.136 135.502 174.38 140.905 175.712 146.491C175.853 147.08 175.989 147.724 176.016 147.92C176.084 148.431 176.075 149.499 175.994 150.426C175.845 152.138 175.822 152.696 175.876 153.317C175.955 154.246 176 154.392 176.311 154.737C177.003 155.502 177.261 156.239 177.256 157.43C177.253 158.233 177.186 158.655 176.796 160.349C176.656 160.96 176.498 161.737 176.445 162.076C176.392 162.415 176.287 163.049 176.21 163.486C175.459 167.783 175.849 172.199 177.347 176.331C177.502 176.759 177.576 177.055 177.635 177.483C177.791 178.603 178.087 179.873 178.46 181.021L178.646 181.593L178.502 181.811C177.845 182.801 176.758 183.512 175.419 183.826C174.999 183.925 174.889 183.934 174.16 183.932C173.291 183.93 173.035 183.889 172.396 183.652C172.095 183.541 172.081 183.54 171.361 183.556C169.729 183.593 169.288 183.581 169.052 183.49C168.768 183.381 168.511 183.16 168.371 182.907C168.167 182.537 168.24 181.807 168.55 181.116C168.629 180.941 168.923 180.396 169.202 179.903C169.912 178.657 170.139 178.035 170.139 177.344C170.139 177.227 170.201 176.928 170.277 176.68C170.767 175.073 171.221 172.972 171.453 171.229C171.951 167.491 171.857 163.97 171.154 160.065C170.927 158.805 170.871 158.349 170.679 156.239C170.429 153.476 170.249 152.291 169.894 151.063C169.755 150.579 169.731 150.533 169.443 150.189C167.381 147.731 166.009 145.283 165.02 142.302C164.893 141.919 164.616 141.222 164.404 140.753C163.476 138.699 162.503 136.069 161.859 133.874C161.803 133.683 161.744 133.526 161.728 133.526C161.712 133.526 161.664 133.576 161.621 133.635C161.579 133.695 161.365 133.996 161.145 134.304C158.741 137.669 157.281 141.442 156.806 145.518C156.704 146.393 156.664 148.563 156.735 149.409C156.765 149.77 156.809 150.431 156.833 150.879C156.864 151.455 156.93 152.005 157.062 152.764C157.388 154.647 157.415 155.257 157.206 156.001C157.084 156.434 156.756 156.996 156.458 157.277C156.329 157.4 155.708 158.15 155.078 158.944C154.448 159.738 153.52 160.907 153.016 161.54C150.571 164.615 149.345 166.62 148.575 168.804C148.252 169.723 148.634 170.304 150.04 171.032C151.317 171.694 151.604 171.93 152.015 172.658C152.78 174.012 153.285 175.473 153.517 177.01C153.601 177.561 153.665 179.115 153.616 179.392C153.584 179.57 153.582 179.573 153.244 179.697C153.058 179.765 152.63 179.928 152.294 180.058C150.795 180.638 149.943 180.737 149.183 180.421C148.771 180.249 148.518 179.99 147.87 179.074C147.065 177.936 145.377 175.799 145.217 175.715C145.094 175.652 144.873 176.359 144.699 177.364C144.487 178.595 144.297 179.052 143.835 179.442C143.522 179.705 143.271 179.816 142.49 180.037C140.696 180.545 138.96 180.78 136.994 180.78C135.696 180.78 134.966 180.725 133.727 180.532C133.177 180.447 133.169 180.444 133.011 180.281C132.374 179.625 132.6 178.748 133.615 177.933C134.231 177.439 134.569 177.266 135.773 176.83C137.053 176.365 138.212 175.477 138.964 174.385C139.177 174.077 139.573 173.301 139.574 173.191C139.574 173.157 139.672 173.023 139.791 172.893C140.069 172.591 140.216 172.344 140.303 172.034C140.494 171.349 140.271 170.677 139.678 170.149C139.53 170.018 139.173 169.68 138.884 169.398C138.229 168.758 136.641 167.435 135.648 166.701C135.234 166.395 134.155 165.619 133.25 164.976C130.719 163.179 129.765 162.455 128.641 161.476C128.011 160.928 127.778 160.654 127.445 160.071C126.425 158.285 126.337 155.967 127.164 152.745C127.285 152.272 127.343 152.14 127.646 151.633C128.029 150.992 128.278 150.39 128.459 149.671C128.642 148.943 128.667 147.862 128.524 146.981C128.36 145.978 128.411 145.571 128.882 144.117C129.171 143.227 129.3 142.732 129.348 142.334L129.38 142.069L129.152 142.038C128.799 141.99 126.91 142.003 126.384 142.058C125.512 142.149 124.664 142.292 123.909 142.478L123.648 142.542L123.617 143.722C123.562 145.804 123.345 148.206 123.046 150.016C122.985 150.382 122.97 150.414 122.785 150.591C122.321 151.036 121.696 151.951 121.41 152.606C121.129 153.248 120.984 153.801 120.906 154.528C120.855 154.995 120.843 155.035 120.668 155.28C120.446 155.591 120.33 155.843 120.217 156.263C120.145 156.53 120.13 156.816 120.114 158.204C120.09 160.47 120.09 160.425 120.129 161.619C120.158 162.477 120.15 162.823 120.09 163.347C119.909 164.93 119.463 166.412 118.736 167.847C118.332 168.644 117.979 169.801 117.69 171.268C117.418 172.647 117.307 173.542 117.027 176.609C116.845 178.593 116.767 179.315 116.625 180.302C116.403 181.848 115.993 183.603 115.787 183.888C115.506 184.278 115.44 184.771 115.519 185.901C115.611 187.236 115.521 187.649 115.046 188.083C114.74 188.362 114.425 188.506 113.664 188.713C111.895 189.194 109.932 189.414 108.294 189.314ZM144.499 166.218C144.669 166.15 144.915 165.873 144.967 165.689C144.983 165.635 145.127 165.421 145.286 165.213C146.643 163.456 147.577 161.525 148.061 159.475C148.273 158.582 148.36 157.981 148.423 156.974C148.471 156.228 148.465 156.003 148.373 154.849C147.966 149.772 147.273 144.67 146.367 140.08C146.236 139.417 146.134 139.009 146.091 138.972C145.997 138.893 145.778 138.971 145.507 139.181C145.115 139.486 144.947 139.912 144.795 140.991C144.695 141.696 144.62 142.01 144.485 142.282C144.364 142.526 144.243 143.06 144.112 143.929C143.858 145.615 143.548 146.261 142.797 146.671C142.549 146.807 142.469 146.878 142.377 147.042C142.115 147.51 141.968 148.032 141.857 148.893C141.649 150.505 141.535 150.986 141.244 151.473L141.07 151.765L141.145 152.265C141.269 153.091 141.213 153.676 140.972 154.077C140.736 154.466 140.472 154.594 139.79 154.648C139 154.712 138.585 154.962 137.728 155.895C137.47 156.176 137.132 156.507 136.977 156.63C136.438 157.06 135.65 158.204 135.43 158.879C135.277 159.348 135.287 159.886 135.457 160.309C135.606 160.682 135.738 160.872 136.258 161.46C136.469 161.701 136.972 162.317 137.375 162.831C138.182 163.86 138.706 164.417 139.187 164.756C139.89 165.253 140.5 165.467 141.455 165.552C142.143 165.613 142.052 165.59 142.89 165.92C143.251 166.063 143.632 166.202 143.736 166.23C144.002 166.301 144.305 166.296 144.499 166.218Z" fill="white"/>
<defs>
<filter id="filter0_f_2031_33856" x="-20" y="25" width="298" height="184" filterUnits="userSpaceOnUse" color-interpolation-filters="sRGB">
<feFlood flood-opacity="0" result="BackgroundImageFix"/>
<feBlend mode="normal" in="SourceGraphic" in2="BackgroundImageFix" result="shape"/>
<feGaussianBlur stdDeviation="18.5" result="effect1_foregroundBlur_2031_33856"/>
</filter>
<filter id="filter1_ii_2031_33856" x="17" y="62" width="224" height="148" filterUnits="userSpaceOnUse" color-interpolation-filters="sRGB">
<feFlood flood-opacity="0" result="BackgroundImageFix"/>
<feBlend mode="normal" in="SourceGraphic" in2="BackgroundImageFix" result="shape"/>
<feColorMatrix in="SourceAlpha" type="matrix" values="0 0 0 0 0 0 0 0 0 0 0 0 0 0 0 0 0 0 127 0" result="hardAlpha"/>
<feOffset dy="4"/>
<feComposite in2="hardAlpha" operator="arithmetic" k2="-1" k3="1"/>
<feColorMatrix type="matrix" values="0 0 0 0 1 0 0 0 0 1 0 0 0 0 1 0 0 0 0.25 0"/>
<feBlend mode="normal" in2="shape" result="effect1_innerShadow_2031_33856"/>
<feColorMatrix in="SourceAlpha" type="matrix" values="0 0 0 0 0 0 0 0 0 0 0 0 0 0 0 0 0 0 127 0" result="hardAlpha"/>
<feOffset dy="-4"/>
<feComposite in2="hardAlpha" operator="arithmetic" k2="-1" k3="1"/>
<feColorMatrix type="matrix" values="0 0 0 0 0 0 0 0 0 0 0 0 0 0 0 0 0 0 0.9 0"/>
<feBlend mode="soft-light" in2="effect1_innerShadow_2031_33856" result="effect2_innerShadow_2031_33856"/>
</filter>
<linearGradient id="paint0_linear_2031_33856" x1="17" y1="34" x2="197.768" y2="215.142" gradientUnits="userSpaceOnUse">
<stop stop-color="#05815D"/>
<stop offset="1" stop-color="#0C575F"/>
</linearGradient>
<linearGradient id="paint1_linear_2031_33856" x1="17" y1="62" x2="241" y2="210" gradientUnits="userSpaceOnUse">
<stop stop-color="#05507B"/>
<stop offset="1" stop-color="#033D60"/>
</linearGradient>
</defs>
</svg>
