<svg width="256" height="256" viewBox="0 0 256 256" fill="none" xmlns="http://www.w3.org/2000/svg">
<path fill-rule="evenodd" clip-rule="evenodd" d="M104.425 42.3784C100.056 37.0733 93.5437 34 86.6712 34H29C22.3726 34 17 39.3726 17 46V58.1371V68.2V160C17 166.627 22.3726 172 29 172H229C235.627 172 241 166.627 241 160V70.1371C241 63.5097 235.627 58.1371 229 58.1371H117.404L104.425 42.3784Z" fill="url(#paint0_linear_958_21573)"/>
<mask id="mask0_958_21573" style="mask-type:alpha" maskUnits="userSpaceOnUse" x="17" y="34" width="224" height="138">
<path fill-rule="evenodd" clip-rule="evenodd" d="M104.425 42.3784C100.056 37.0733 93.5437 34 86.6712 34H29C22.3726 34 17 39.3726 17 46V58.1371V68.2V160C17 166.627 22.3726 172 29 172H229C235.627 172 241 166.627 241 160V70.1371C241 63.5097 235.627 58.1371 229 58.1371H117.404L104.425 42.3784Z" fill="url(#paint1_linear_958_21573)"/>
</mask>
<g mask="url(#mask0_958_21573)">
<g style="mix-blend-mode:multiply" filter="url(#filter0_f_958_21573)">
<path fill-rule="evenodd" clip-rule="evenodd" d="M92.789 74C97.7642 74 102.605 72.3868 106.586 69.4024L116.459 62H229C235.627 62 241 67.3726 241 74V108V160C241 166.627 235.627 172 229 172H29C22.3726 172 17 166.627 17 160L17 108V86C17 79.3726 22.3726 74 29 74H87H92.789Z" fill="black" fill-opacity="0.3"/>
</g>
</g>
<g filter="url(#filter1_ii_958_21573)">
<path fill-rule="evenodd" clip-rule="evenodd" d="M92.789 74C97.7642 74 102.605 72.3868 106.586 69.4024L116.459 62H229C235.627 62 241 67.3726 241 74V108V198C241 204.627 235.627 210 229 210H29C22.3726 210 17 204.627 17 198L17 108V86C17 79.3726 22.3726 74 29 74H87H92.789Z" fill="url(#paint2_linear_958_21573)"/>
</g>
<path d="M72.9744 173.657C72.8953 173.301 72.164 168.656 71.3339 163.359C70.148 155.888 69.8713 153.655 70.0492 153.556C70.1876 153.457 71.0177 153.339 71.9071 153.26C73.8638 153.121 76.9273 152.39 78.9631 151.58C86.4144 148.674 91.7706 141.935 93.8854 132.843C94.0633 132.111 94.2807 130.214 94.3796 128.633C95.012 118.81 96.7513 111.813 100.131 105.33C102.404 101.002 104.44 98.1953 107.82 94.8155C112.069 90.5463 116.951 87.3445 122.94 84.8936C126.774 83.3125 132.071 81.8894 135.885 81.3953C136.814 81.2767 137.901 81.1384 138.297 81.0988L139.048 81V90.9812V100.962L138.613 101.041C136.399 101.456 132.446 102.524 130.845 103.156C122.999 106.2 117.524 112.129 115.231 120.035C114.164 123.751 113.729 128.178 114.144 130.906C114.46 132.863 114.441 133.1 113.848 136.045C112.306 143.496 109.203 150.809 105.309 156.165C104.657 157.035 104.578 157.094 104.282 156.798C103.965 156.521 103.847 156.6 102.859 157.825C96.4548 165.751 86.4144 171.74 75.9193 173.894C73.2313 174.447 73.093 174.428 72.9744 173.657Z" fill="#666666"/>
<path d="M135.983 174.684C126.813 173.281 118.413 169.684 111.475 164.189C109.617 162.726 106.099 159.228 104.894 157.667L104.063 156.56L105.645 154.188C109.716 148.061 112.483 140.629 113.906 131.894L114.064 130.905L114.42 132.486C115.29 136.341 117.029 140.432 119.104 143.495C120.626 145.749 123.986 149.148 126.002 150.472C129.086 152.508 133.236 154.168 136.576 154.702C137.347 154.821 138.197 154.979 138.513 155.038L139.047 155.157V165.118C139.047 174.486 139.027 175.079 138.711 175.06C138.513 175.06 137.288 174.882 135.983 174.684Z" fill="#CCCCCC"/>
<path d="M143.396 165.118V155.157L145.332 154.821C153.811 153.338 160.373 148.832 164.563 141.578C166.243 138.653 168.022 133.692 168.339 131.004L168.398 130.51L178.26 130.451L188.123 130.411L187.985 131.538C187.55 135.333 186.226 141.045 185.02 144.345C184.051 146.954 181.64 151.856 180.355 153.832C177.588 158.042 173.655 162.272 169.88 165.078C162.745 170.395 153.772 173.874 144.443 174.981L143.396 175.099V165.118Z" fill="#CCCCCC"/>
<path d="M168.22 125.431C168.161 125.293 167.943 124.285 167.706 123.198C165.473 113.098 159.227 105.726 150.392 102.781C148.277 102.069 145.728 101.555 144.364 101.555H143.396V91.3172V81.0791L145.53 81.3163C152.369 82.1069 157.745 83.6287 163.219 86.3365C174.979 92.1869 183.241 103.077 186.779 117.426C187.471 120.233 188.064 123.692 188.064 124.957V125.668H178.181C170.434 125.668 168.279 125.609 168.22 125.431Z" fill="#E83920"/>
<defs>
<filter id="filter0_f_958_21573" x="-20" y="25" width="298" height="184" filterUnits="userSpaceOnUse" color-interpolation-filters="sRGB">
<feFlood flood-opacity="0" result="BackgroundImageFix"/>
<feBlend mode="normal" in="SourceGraphic" in2="BackgroundImageFix" result="shape"/>
<feGaussianBlur stdDeviation="18.5" result="effect1_foregroundBlur_958_21573"/>
</filter>
<filter id="filter1_ii_958_21573" x="17" y="62" width="224" height="148" filterUnits="userSpaceOnUse" color-interpolation-filters="sRGB">
<feFlood flood-opacity="0" result="BackgroundImageFix"/>
<feBlend mode="normal" in="SourceGraphic" in2="BackgroundImageFix" result="shape"/>
<feColorMatrix in="SourceAlpha" type="matrix" values="0 0 0 0 0 0 0 0 0 0 0 0 0 0 0 0 0 0 127 0" result="hardAlpha"/>
<feOffset dy="4"/>
<feComposite in2="hardAlpha" operator="arithmetic" k2="-1" k3="1"/>
<feColorMatrix type="matrix" values="0 0 0 0 1 0 0 0 0 1 0 0 0 0 1 0 0 0 0.25 0"/>
<feBlend mode="normal" in2="shape" result="effect1_innerShadow_958_21573"/>
<feColorMatrix in="SourceAlpha" type="matrix" values="0 0 0 0 0 0 0 0 0 0 0 0 0 0 0 0 0 0 127 0" result="hardAlpha"/>
<feOffset dy="-4"/>
<feComposite in2="hardAlpha" operator="arithmetic" k2="-1" k3="1"/>
<feColorMatrix type="matrix" values="0 0 0 0 0 0 0 0 0 0 0 0 0 0 0 0 0 0 0.9 0"/>
<feBlend mode="soft-light" in2="effect1_innerShadow_958_21573" result="effect2_innerShadow_958_21573"/>
</filter>
<linearGradient id="paint0_linear_958_21573" x1="129" y1="34" x2="129" y2="172" gradientUnits="userSpaceOnUse">
<stop stop-color="#E83920"/>
</linearGradient>
<linearGradient id="paint1_linear_958_21573" x1="17" y1="34" x2="197.768" y2="215.142" gradientUnits="userSpaceOnUse">
<stop stop-color="#05815D"/>
<stop offset="1" stop-color="#0C575F"/>
</linearGradient>
<linearGradient id="paint2_linear_958_21573" x1="17" y1="62" x2="241" y2="210" gradientUnits="userSpaceOnUse">
<stop stop-color="#102332"/>
<stop offset="1" stop-color="#6E5345"/>
</linearGradient>
</defs>
</svg>
