<svg width="256" height="256" viewBox="0 0 256 256" fill="none" xmlns="http://www.w3.org/2000/svg">
<path fill-rule="evenodd" clip-rule="evenodd" d="M104.425 42.3784C100.056 37.0733 93.5437 34 86.6712 34H29C22.3726 34 17 39.3726 17 46V58.1371V68.2V160C17 166.627 22.3726 172 29 172H229C235.627 172 241 166.627 241 160V70.1371C241 63.5097 235.627 58.1371 229 58.1371H117.404L104.425 42.3784Z" fill="url(#paint0_linear_1010_26865)"/>
<mask id="mask0_1010_26865" style="mask-type:alpha" maskUnits="userSpaceOnUse" x="17" y="34" width="224" height="138">
<path fill-rule="evenodd" clip-rule="evenodd" d="M104.425 42.3784C100.056 37.0733 93.5437 34 86.6712 34H29C22.3726 34 17 39.3726 17 46V58.1371V68.2V160C17 166.627 22.3726 172 29 172H229C235.627 172 241 166.627 241 160V70.1371C241 63.5097 235.627 58.1371 229 58.1371H117.404L104.425 42.3784Z" fill="url(#paint1_linear_1010_26865)"/>
</mask>
<g mask="url(#mask0_1010_26865)">
<g style="mix-blend-mode:multiply" filter="url(#filter0_f_1010_26865)">
<path fill-rule="evenodd" clip-rule="evenodd" d="M92.789 74C97.7642 74 102.605 72.3868 106.586 69.4024L116.459 62H229C235.627 62 241 67.3726 241 74V108V160C241 166.627 235.627 172 229 172H29C22.3726 172 17 166.627 17 160L17 108V86C17 79.3726 22.3726 74 29 74H87H92.789Z" fill="black" fill-opacity="0.3"/>
</g>
</g>
<g filter="url(#filter1_d_1010_26865)">
<g filter="url(#filter2_ii_1010_26865)">
<path fill-rule="evenodd" clip-rule="evenodd" d="M92.789 74C97.7642 74 102.605 72.3868 106.586 69.4024L116.459 62H229C235.627 62 241 67.3726 241 74V108V198C241 204.627 235.627 210 229 210H29C22.3726 210 17 204.627 17 198L17 108V86C17 79.3726 22.3726 74 29 74H87H92.789Z" fill="url(#paint2_linear_1010_26865)"/>
</g>
</g>
<path d="M127.865 121C131.847 121 135.662 122.553 138.512 125.325L220.96 206.176H86.9852C82.6155 206.22 79.0443 202.716 79 198.346V162.812L117.218 125.325C120.069 122.553 123.884 121 127.865 121Z" fill="url(#paint3_linear_1010_26865)"/>
<path d="M67.9514 106.914C69.9256 104.917 72.6207 103.786 75.4268 103.786C78.2439 103.786 80.939 104.917 82.9242 106.914L182 206H28.9721C22.3411 206 16.967 200.622 16.9721 193.991L16.9996 158.021L67.9514 106.914Z" fill="url(#paint4_linear_1010_26865)"/>
<path d="M184.393 92.1964C184.393 100.038 178.038 106.393 170.196 106.393C162.355 106.393 156 100.038 156 92.1964C156 84.3551 162.355 78 170.196 78C178.038 78.0111 184.382 84.3551 184.393 92.1964Z" fill="white"/>
<defs>
<filter id="filter0_f_1010_26865" x="-20" y="25" width="298" height="184" filterUnits="userSpaceOnUse" color-interpolation-filters="sRGB">
<feFlood flood-opacity="0" result="BackgroundImageFix"/>
<feBlend mode="normal" in="SourceGraphic" in2="BackgroundImageFix" result="shape"/>
<feGaussianBlur stdDeviation="18.5" result="effect1_foregroundBlur_1010_26865"/>
</filter>
<filter id="filter1_d_1010_26865" x="13" y="62" width="232" height="156" filterUnits="userSpaceOnUse" color-interpolation-filters="sRGB">
<feFlood flood-opacity="0" result="BackgroundImageFix"/>
<feColorMatrix in="SourceAlpha" type="matrix" values="0 0 0 0 0 0 0 0 0 0 0 0 0 0 0 0 0 0 127 0" result="hardAlpha"/>
<feOffset dy="4"/>
<feGaussianBlur stdDeviation="2"/>
<feComposite in2="hardAlpha" operator="out"/>
<feColorMatrix type="matrix" values="0 0 0 0 0 0 0 0 0 0 0 0 0 0 0 0 0 0 0.25 0"/>
<feBlend mode="normal" in2="BackgroundImageFix" result="effect1_dropShadow_1010_26865"/>
<feBlend mode="normal" in="SourceGraphic" in2="effect1_dropShadow_1010_26865" result="shape"/>
</filter>
<filter id="filter2_ii_1010_26865" x="17" y="62" width="224" height="148" filterUnits="userSpaceOnUse" color-interpolation-filters="sRGB">
<feFlood flood-opacity="0" result="BackgroundImageFix"/>
<feBlend mode="normal" in="SourceGraphic" in2="BackgroundImageFix" result="shape"/>
<feColorMatrix in="SourceAlpha" type="matrix" values="0 0 0 0 0 0 0 0 0 0 0 0 0 0 0 0 0 0 127 0" result="hardAlpha"/>
<feOffset dy="4"/>
<feComposite in2="hardAlpha" operator="arithmetic" k2="-1" k3="1"/>
<feColorMatrix type="matrix" values="0 0 0 0 1 0 0 0 0 1 0 0 0 0 1 0 0 0 0.25 0"/>
<feBlend mode="normal" in2="shape" result="effect1_innerShadow_1010_26865"/>
<feColorMatrix in="SourceAlpha" type="matrix" values="0 0 0 0 0 0 0 0 0 0 0 0 0 0 0 0 0 0 127 0" result="hardAlpha"/>
<feOffset dy="-4"/>
<feComposite in2="hardAlpha" operator="arithmetic" k2="-1" k3="1"/>
<feColorMatrix type="matrix" values="0 0 0 0 0 0 0 0 0 0 0 0 0 0 0 0 0 0 0.9 0"/>
<feBlend mode="soft-light" in2="effect1_innerShadow_1010_26865" result="effect2_innerShadow_1010_26865"/>
</filter>
<linearGradient id="paint0_linear_1010_26865" x1="19.4472" y1="32.5934" x2="140.011" y2="228.298" gradientUnits="userSpaceOnUse">
<stop stop-color="#494949"/>
<stop offset="1" stop-color="#272727"/>
</linearGradient>
<linearGradient id="paint1_linear_1010_26865" x1="17" y1="34" x2="197.768" y2="215.142" gradientUnits="userSpaceOnUse">
<stop stop-color="#05815D"/>
<stop offset="1" stop-color="#0C575F"/>
</linearGradient>
<linearGradient id="paint2_linear_1010_26865" x1="19.4472" y1="60.4915" x2="152.615" y2="262.05" gradientUnits="userSpaceOnUse">
<stop stop-color="#494949"/>
<stop offset="1" stop-color="#272727"/>
</linearGradient>
<linearGradient id="paint3_linear_1010_26865" x1="119" y1="121" x2="208.5" y2="223.5" gradientUnits="userSpaceOnUse">
<stop stop-color="#0A72CC"/>
<stop offset="1" stop-color="#3E4E9B"/>
</linearGradient>
<linearGradient id="paint4_linear_1010_26865" x1="75.5" y1="104" x2="160.5" y2="219.5" gradientUnits="userSpaceOnUse">
<stop stop-color="#29AEEA"/>
<stop offset="1" stop-color="#9A86E3"/>
</linearGradient>
</defs>
</svg>
