<svg width="256" height="256" viewBox="0 0 256 256" fill="none" xmlns="http://www.w3.org/2000/svg">
<g clip-path="url(#clip0_4265_9797)">
<path d="M104.425 42.3784C100.056 37.0733 93.5437 34 86.6712 34H29C22.3726 34 17 39.3726 17 46V160C17 166.627 22.3726 172 29 172H229C235.627 172 241 166.627 241 160V70.1371C241 63.5097 235.627 58.1371 229 58.1371H117.404L104.425 42.3784Z" fill="#0096FA"/>
<mask id="mask0_4265_9797" style="mask-type:alpha" maskUnits="userSpaceOnUse" x="17" y="34" width="224" height="138">
<path d="M86.6709 34C93.5434 34 100.057 37.0729 104.426 42.3779L117.403 58.1367H229C235.627 58.1367 241 63.5095 241 70.1367V160C241 166.627 235.627 172 229 172H29C22.3726 172 17 166.627 17 160V46C17 39.3726 22.3726 34 29 34H86.6709Z" fill="url(#paint0_linear_4265_9797)"/>
</mask>
<g mask="url(#mask0_4265_9797)">
<g filter="url(#filter0_f_4265_9797)" style="mix-blend-mode:multiply">
<path d="M241 160C241 166.627 235.627 172 229 172H29C22.3726 172 17 166.627 17 160V86C17 79.3726 22.3726 74 29 74H92.79C97.7649 73.9999 102.605 72.3865 106.586 69.4023L116.46 62H229C235.627 62 241 67.3726 241 74V160Z" fill="black" fill-opacity="0.3"/>
</g>
</g>
<g filter="url(#filter1_ii_4265_9797)">
<path d="M241 198C241 204.627 235.627 210 229 210H29C22.3726 210 17 204.627 17 198V86C17 79.3726 22.3726 74 29 74H92.79C97.7649 73.9999 102.605 72.3865 106.586 69.4023L116.46 62H229C235.627 62 241 67.3726 241 74V198Z" fill="url(#paint1_linear_4265_9797)"/>
</g>
<path d="M97.7748 118.645H103.61C104.146 118.645 104.581 119.081 104.581 119.614V150.155C104.581 150.412 104.478 150.658 104.296 150.84C104.114 151.022 103.867 151.124 103.61 151.124H97.7765C97.6488 151.124 97.5224 151.099 97.4044 151.051C97.2863 151.002 97.1791 150.931 97.0887 150.841C96.9984 150.751 96.9267 150.644 96.8778 150.526C96.8289 150.408 96.8037 150.282 96.8037 150.155V119.614C96.8037 119.078 97.2396 118.645 97.7748 118.645ZM133.875 135.16C133.818 135.079 133.788 134.982 133.788 134.883C133.788 134.784 133.818 134.687 133.875 134.605L144.535 119.407C144.586 119.335 144.615 119.25 144.621 119.161C144.627 119.073 144.608 118.985 144.567 118.906C144.526 118.828 144.465 118.762 144.389 118.716C144.313 118.67 144.227 118.645 144.138 118.645H137.093C136.142 118.645 135.252 119.108 134.705 119.885L127.041 130.814C126.996 130.877 126.937 130.929 126.868 130.965C126.799 131.001 126.722 131.02 126.644 131.02C126.566 131.02 126.489 131.001 126.42 130.965C126.351 130.929 126.291 130.877 126.247 130.814L118.581 119.885C118.312 119.501 117.955 119.189 117.539 118.973C117.123 118.757 116.661 118.644 116.193 118.645H109.151C109.063 118.645 108.976 118.67 108.9 118.716C108.825 118.762 108.763 118.828 108.722 118.906C108.681 118.985 108.662 119.073 108.668 119.161C108.674 119.25 108.704 119.335 108.754 119.407L119.412 134.604C119.53 134.772 119.53 134.994 119.412 135.16L108.751 150.361C108.7 150.434 108.671 150.519 108.665 150.607C108.659 150.696 108.678 150.784 108.719 150.862C108.76 150.941 108.821 151.007 108.897 151.053C108.973 151.099 109.059 151.124 109.148 151.124H116.193C117.144 151.124 118.034 150.66 118.579 149.884L126.248 138.952C126.293 138.888 126.352 138.836 126.422 138.8C126.491 138.764 126.568 138.745 126.646 138.745C126.723 138.745 126.8 138.764 126.869 138.8C126.939 138.836 126.998 138.888 127.043 138.952L134.71 149.884C135.255 150.662 136.147 151.124 137.098 151.124H144.143C144.535 151.124 144.766 150.684 144.54 150.361L133.875 135.16ZM59 154.031C59 154.567 59.4359 155 59.9727 155H65.8058C66.0633 155 66.3103 154.898 66.4924 154.716C66.6745 154.534 66.7768 154.288 66.7768 154.031V148.733C69.2421 150.239 72.0647 151.061 74.9541 151.116C77.8436 151.171 80.6955 150.457 83.2164 149.046C85.7373 147.635 87.8362 145.579 89.297 143.09C90.7578 140.601 91.5278 137.768 91.5277 134.883C91.5271 131.83 90.6645 128.84 89.0391 126.255C87.4136 123.669 85.091 121.594 82.3377 120.266C79.5845 118.938 76.5121 118.412 73.4731 118.749C70.4341 119.085 67.5516 120.269 65.1562 122.166L63.1754 119.092C63.0873 118.955 62.9663 118.842 62.8234 118.765C62.6805 118.687 62.5202 118.646 62.3575 118.646H59.9711C59.7135 118.646 59.4665 118.748 59.2844 118.93C59.1023 119.112 59 119.359 59 119.616V154.031ZM75.2656 143.354C74.151 143.354 73.0474 143.135 72.0177 142.709C70.988 142.283 70.0524 141.659 69.2643 140.872C68.4762 140.085 67.8511 139.151 67.4246 138.123C66.998 137.095 66.7785 135.994 66.7785 134.881C66.7785 133.768 66.998 132.667 67.4246 131.639C67.8511 130.611 68.4762 129.677 69.2643 128.89C70.0524 128.103 70.988 127.479 72.0177 127.053C73.0474 126.627 74.151 126.408 75.2656 126.408C77.5165 126.408 79.6752 127.301 81.2668 128.89C82.8584 130.479 83.7526 132.634 83.7526 134.881C83.7526 137.128 82.8584 139.283 81.2668 140.872C79.6752 142.461 77.5165 143.354 75.2656 143.354ZM100.693 114.762C101.724 114.762 102.713 114.353 103.442 113.625C104.171 112.897 104.581 111.91 104.581 110.881C104.581 109.852 104.171 108.865 103.442 108.137C102.713 107.409 101.724 107 100.693 107C99.6619 107 98.6731 107.409 97.9441 108.137C97.215 108.865 96.8054 109.852 96.8054 110.881C96.8054 111.91 97.215 112.897 97.9441 113.625C98.6731 114.353 99.6619 114.762 100.693 114.762ZM149.663 118.645H155.498C156.035 118.645 156.469 119.081 156.469 119.614V150.155C156.469 150.412 156.366 150.658 156.184 150.84C156.002 151.022 155.755 151.124 155.498 151.124H149.663C149.405 151.124 149.158 151.022 148.976 150.84C148.794 150.658 148.692 150.412 148.692 150.155V119.614C148.692 119.078 149.128 118.645 149.663 118.645ZM152.581 114.762C153.612 114.762 154.601 114.353 155.33 113.625C156.059 112.897 156.469 111.91 156.469 110.881C156.469 109.852 156.059 108.865 155.33 108.137C154.601 107.409 153.612 107 152.581 107C151.55 107 150.561 107.409 149.832 108.137C149.103 108.865 148.694 109.852 148.694 110.881C148.694 111.91 149.103 112.897 149.832 113.625C150.561 114.353 151.55 114.762 152.581 114.762ZM188.175 120.511L179.023 144.311C178.989 144.403 178.927 144.483 178.846 144.539C178.765 144.595 178.668 144.625 178.57 144.625C178.471 144.625 178.375 144.595 178.294 144.539C178.213 144.483 178.151 144.403 178.116 144.311L168.965 120.511C168.753 119.962 168.38 119.491 167.895 119.158C167.409 118.825 166.834 118.646 166.245 118.646H160.624C160.545 118.646 160.468 118.665 160.398 118.701C160.329 118.738 160.269 118.79 160.224 118.855C160.18 118.919 160.151 118.994 160.142 119.071C160.132 119.149 160.142 119.228 160.17 119.302L172.167 150.501C172.312 150.875 172.672 151.122 173.073 151.122H184.066C184.262 151.122 184.453 151.063 184.615 150.952C184.777 150.841 184.901 150.684 184.971 150.501L196.969 119.302C196.996 119.228 197.006 119.149 196.996 119.071C196.987 118.994 196.959 118.919 196.914 118.855C196.869 118.79 196.809 118.738 196.74 118.701C196.67 118.665 196.593 118.646 196.514 118.646H190.893C189.688 118.646 188.606 119.387 188.175 120.511Z" fill="#0096FA"/>
</g>
<defs>
<filter id="filter0_f_4265_9797" x="-20" y="25" width="298" height="184" filterUnits="userSpaceOnUse" color-interpolation-filters="sRGB">
<feFlood flood-opacity="0" result="BackgroundImageFix"/>
<feBlend mode="normal" in="SourceGraphic" in2="BackgroundImageFix" result="shape"/>
<feGaussianBlur stdDeviation="18.5" result="effect1_foregroundBlur_4265_9797"/>
</filter>
<filter id="filter1_ii_4265_9797" x="17" y="62" width="224" height="148" filterUnits="userSpaceOnUse" color-interpolation-filters="sRGB">
<feFlood flood-opacity="0" result="BackgroundImageFix"/>
<feBlend mode="normal" in="SourceGraphic" in2="BackgroundImageFix" result="shape"/>
<feColorMatrix in="SourceAlpha" type="matrix" values="0 0 0 0 0 0 0 0 0 0 0 0 0 0 0 0 0 0 127 0" result="hardAlpha"/>
<feOffset dy="4"/>
<feComposite in2="hardAlpha" operator="arithmetic" k2="-1" k3="1"/>
<feColorMatrix type="matrix" values="0 0 0 0 1 0 0 0 0 1 0 0 0 0 1 0 0 0 0.25 0"/>
<feBlend mode="normal" in2="shape" result="effect1_innerShadow_4265_9797"/>
<feColorMatrix in="SourceAlpha" type="matrix" values="0 0 0 0 0 0 0 0 0 0 0 0 0 0 0 0 0 0 127 0" result="hardAlpha"/>
<feOffset dy="-4"/>
<feComposite in2="hardAlpha" operator="arithmetic" k2="-1" k3="1"/>
<feColorMatrix type="matrix" values="0 0 0 0 0 0 0 0 0 0 0 0 0 0 0 0 0 0 0.9 0"/>
<feBlend mode="soft-light" in2="effect1_innerShadow_4265_9797" result="effect2_innerShadow_4265_9797"/>
</filter>
<linearGradient id="paint0_linear_4265_9797" x1="17" y1="34" x2="197.768" y2="215.142" gradientUnits="userSpaceOnUse">
<stop stop-color="#05815D"/>
<stop offset="1" stop-color="#0C575F"/>
</linearGradient>
<linearGradient id="paint1_linear_4265_9797" x1="233.5" y1="215.5" x2="11.474" y2="162.672" gradientUnits="userSpaceOnUse">
<stop stop-color="#DADADA"/>
<stop offset="1" stop-color="#F2F5F6"/>
</linearGradient>
<clipPath id="clip0_4265_9797">
<rect width="256" height="256" fill="white"/>
</clipPath>
</defs>
</svg>
