<?xml version="1.0" encoding="UTF-8" standalone="no"?><!DOCTYPE svg PUBLIC "-//W3C//DTD SVG 1.1//EN" "http://www.w3.org/Graphics/SVG/1.1/DTD/svg11.dtd"><svg width="100%" height="100%" viewBox="0 0 1067 1067" version="1.1" xmlns="http://www.w3.org/2000/svg" xmlns:xlink="http://www.w3.org/1999/xlink" xml:space="preserve" xmlns:serif="http://www.serif.com/" style="fill-rule:evenodd;clip-rule:evenodd;stroke-linejoin:round;stroke-miterlimit:2;"><g id="Layer-1" serif:id="Layer 1"><path d="M435.104,176.577c-18.204,-22.105 -45.339,-34.91 -73.974,-34.91l-240.297,-0c-27.614,-0 -50,22.386 -50,50l0,475c0,27.612 22.386,50 50,50l833.334,-0c27.612,-0 50,-22.388 50,-50l-0,-374.429c-0,-27.614 -22.388,-50 -50,-50l-464.984,-0l-54.079,-65.661Z" style="fill:#be7400;"/><g><path d="M386.621,308.333c20.73,0 40.9,-6.721 57.487,-19.156l41.138,-30.844l468.921,0c27.612,0 50,22.386 50,50l-0,516.667c-0,27.613 -22.388,50 -50,50l-833.334,0c-27.614,0 -50,-22.387 -50,-50l0,-466.667c0,-27.614 22.386,-50 50,-50l265.788,0Z" style="fill:url(#_Linear1);"/></g><path d="M435.104,176.577c-18.204,-22.105 -45.339,-34.91 -73.974,-34.91l-240.297,-0c-27.614,-0 -50,22.386 -50,50l0,475c0,27.612 22.386,50 50,50l833.334,-0c27.612,-0 50,-22.388 50,-50l-0,-374.429c-0,-27.614 -22.388,-50 -50,-50l-464.984,-0l-54.079,-65.661Z" style="fill:url(#_Linear2);"/><path d="M954.167,858.333l-833.334,0c-27.616,0 -50,-22.383 -50,-50l0,16.667c0,27.613 22.384,50 50,50l833.334,0c27.612,0 50,-22.387 50,-50l-0,-16.667c-0,27.617 -22.388,50 -50,50Z" style="fill:#ffaf00;fill-rule:nonzero;"/><path d="M485.246,258.333l-41.138,30.842c-16.587,12.438 -36.758,19.158 -57.487,19.158l-265.788,0c-27.616,0 -50,22.384 -50,50l0,16.667c0,-27.613 22.384,-50 50,-50l265.788,0c20.729,0 40.9,-6.721 57.487,-19.154l41.138,-30.846l468.921,0c27.612,0 50,22.383 50,50l-0,-16.667c-0,-27.612 -22.388,-50 -50,-50l-468.921,0Z" style="fill:url(#_Linear3);fill-rule:nonzero;"/><path d="M1004.17,325l-0,483.333c-0,27.617 -22.388,50 -50,50l-833.334,0c-27.616,0 -50,-22.383 -50,-50l0,-433.333c0,-27.613 22.384,-50 50,-50l265.788,0c20.729,0 40.9,-6.721 57.487,-19.154l41.138,-30.846l468.921,0c27.612,0 50,22.383 50,50Z" style="fill:url(#_Linear4);"/><path d="M429.548,383.11l121.501,0l134.07,190.402l-134.07,190.401l-121.501,0l134.069,-190.401l-134.069,-190.402" style="fill:url(#_Radial5);fill-rule:nonzero;"/><path d="M429.548,383.11l121.501,0l134.07,190.402l-60.751,86.276l-194.82,-276.678" style="fill:url(#_Radial6);fill-rule:nonzero;"/></g><defs><linearGradient id="_Linear1" x1="0" y1="0" x2="1" y2="0" gradientUnits="userSpaceOnUse" gradientTransform="matrix(933.333,616.667,-616.667,933.333,70.8333,258.333)"><stop offset="0" style="stop-color:#2e2e2e;stop-opacity:1"/><stop offset="1" style="stop-color:#101010;stop-opacity:1"/></linearGradient><linearGradient id="_Linear2" x1="0" y1="0" x2="1" y2="0" gradientUnits="userSpaceOnUse" gradientTransform="matrix(933.333,0,0,575,70.8333,429.167)"><stop offset="0" style="stop-color:#ffb100;stop-opacity:1"/><stop offset="0.5" style="stop-color:#cf8300;stop-opacity:1"/><stop offset="1" style="stop-color:#be7400;stop-opacity:1"/></linearGradient><linearGradient id="_Linear3" x1="0" y1="0" x2="1" y2="0" gradientUnits="userSpaceOnUse" gradientTransform="matrix(933.333,0,0,116.667,70.8333,316.667)"><stop offset="0" style="stop-color:#ff9400;stop-opacity:1"/><stop offset="1" style="stop-color:#ffa700;stop-opacity:1"/></linearGradient><linearGradient id="_Linear4" x1="0" y1="0" x2="1" y2="0" gradientUnits="userSpaceOnUse" gradientTransform="matrix(914.508,530.761,-335.279,577.689,70.8333,316.667)"><stop offset="0" style="stop-color:#373737;stop-opacity:1"/><stop offset="0.38" style="stop-color:#1d1d1d;stop-opacity:1"/><stop offset="0.78" style="stop-color:#151515;stop-opacity:1"/><stop offset="0.88" style="stop-color:#0f0f0f;stop-opacity:1"/><stop offset="1" style="stop-color:#000;stop-opacity:1"/></linearGradient><radialGradient id="_Radial5" cx="0" cy="0" r="1" gradientUnits="userSpaceOnUse" gradientTransform="matrix(121.501,380.803,-567.401,181.038,429.548,383.11)"><stop offset="0" style="stop-color:#f9be03;stop-opacity:1"/><stop offset="1" style="stop-color:#cc7c19;stop-opacity:1"/></radialGradient><radialGradient id="_Radial6" cx="0" cy="0" r="1" gradientUnits="userSpaceOnUse" gradientTransform="matrix(121.501,380.803,-567.401,181.038,429.548,383.11)"><stop offset="0" style="stop-color:#cc7c19;stop-opacity:1"/><stop offset="1" style="stop-color:#f9be03;stop-opacity:1"/></radialGradient></defs></svg>