<svg width="256" height="256" viewBox="0 0 256 256" fill="none" xmlns="http://www.w3.org/2000/svg">
<path fill-rule="evenodd" clip-rule="evenodd" d="M104.425 42.3784C100.056 37.0733 93.5437 34 86.6712 34H29C22.3726 34 17 39.3726 17 46V58.1371V68.2V160C17 166.627 22.3726 172 29 172H229C235.627 172 241 166.627 241 160V70.1371C241 63.5097 235.627 58.1371 229 58.1371H117.404L104.425 42.3784Z" fill="#C24233"/>
<mask id="mask0_1945_31168" style="mask-type:alpha" maskUnits="userSpaceOnUse" x="17" y="34" width="224" height="138">
<path fill-rule="evenodd" clip-rule="evenodd" d="M104.425 42.3784C100.056 37.0733 93.5437 34 86.6712 34H29C22.3726 34 17 39.3726 17 46V58.1371V68.2V160C17 166.627 22.3726 172 29 172H229C235.627 172 241 166.627 241 160V70.1371C241 63.5097 235.627 58.1371 229 58.1371H117.404L104.425 42.3784Z" fill="url(#paint0_linear_1945_31168)"/>
</mask>
<g mask="url(#mask0_1945_31168)">
<g style="mix-blend-mode:multiply" filter="url(#filter0_f_1945_31168)">
<path fill-rule="evenodd" clip-rule="evenodd" d="M92.789 74C97.7642 74 102.605 72.3868 106.586 69.4024L116.459 62H229C235.627 62 241 67.3726 241 74V108V160C241 166.627 235.627 172 229 172H29C22.3726 172 17 166.627 17 160L17 108V86C17 79.3726 22.3726 74 29 74H87H92.789Z" fill="black" fill-opacity="0.3"/>
</g>
</g>
<g filter="url(#filter1_ii_1945_31168)">
<path fill-rule="evenodd" clip-rule="evenodd" d="M92.789 74C97.7642 74 102.605 72.3868 106.586 69.4024L116.459 62H229C235.627 62 241 67.3726 241 74V108V198C241 204.627 235.627 210 229 210H29C22.3726 210 17 204.627 17 198L17 108V86C17 79.3726 22.3726 74 29 74H87H92.789Z" fill="url(#paint1_linear_1945_31168)"/>
</g>
<g filter="url(#filter2_ii_1945_31168)">
<path fill-rule="evenodd" clip-rule="evenodd" d="M92.789 74C97.7642 74 102.605 72.3868 106.586 69.4024L116.459 62H229C235.627 62 241 67.3726 241 74V108V198C241 204.627 235.627 210 229 210H29C22.3726 210 17 204.627 17 198L17 108V86C17 79.3726 22.3726 74 29 74H87H92.789Z" fill="url(#paint2_linear_1945_31168)"/>
</g>
<path d="M127.016 72.081C127.016 73.2047 127.064 74.9383 127.128 75.9496L127.224 77.7796L130.21 77.6833C133.212 77.603 134.223 77.4425 135.363 76.8486C136.647 76.2065 137.129 75.452 137.129 74.0394C137.129 72.8033 136.856 72.1452 136.069 71.5031C134.865 70.5078 132.65 70.0263 129.231 70.0263H127.016V72.081Z" fill="url(#paint3_linear_1945_31168)"/>
<path fill-rule="evenodd" clip-rule="evenodd" d="M114.896 99.6431C115.682 101.28 117.352 102.565 119.182 102.918C119.567 102.998 124.672 103.046 130.547 103.046L141.222 103.014L142.025 102.629C143.598 101.858 145.347 99.7234 146.343 97.3316C146.385 97.2315 146.421 97.1581 146.454 97.0832C146.752 96.4136 146.798 95.6317 148.285 74.6815C148.412 72.9157 148.535 71.1946 148.646 69.6442C148.887 66.2758 149.071 63.7138 149.104 63.2521L149.216 62H111.766V62.4495C111.766 62.6646 111.83 63.5847 111.901 64.6027C111.909 64.724 111.918 64.8467 111.926 64.9697C112.022 66.1255 112.344 70.9573 112.649 75.7249C112.804 78.0375 112.968 80.505 113.109 82.6436C113.259 84.9139 113.385 86.8137 113.451 87.7643C113.58 89.6264 113.756 92.4356 113.852 94.0248C114.045 97.139 114.286 98.391 114.896 99.6431ZM126.823 91.5366C126.566 92.0503 126.245 92.3714 125.731 92.6603C125.137 92.9813 124.736 93.0616 123.452 93.1098L121.879 93.174V66.8318L122.81 66.7034C124.543 66.4626 130.643 66.5589 132.393 66.8639C137.562 67.7789 140.564 69.9139 141.158 73.1725C141.655 75.8533 139.729 78.9354 136.599 80.4604C134.432 81.5038 131.029 82.2262 128.268 82.2262H127.176V86.5282C127.176 90.6698 127.16 90.8464 126.823 91.5366Z" fill="url(#paint4_linear_1945_31168)"/>
<g opacity="0.8">
<g filter="url(#filter3_ii_1945_31168)">
<path fill-rule="evenodd" clip-rule="evenodd" d="M92.789 74C97.7642 74 102.605 72.3868 106.586 69.4024L116.459 62H229C235.627 62 241 67.3726 241 74V108V198C241 204.627 235.627 210 229 210H29C22.3726 210 17 204.627 17 198L17 108V86C17 79.3726 22.3726 74 29 74H87H92.789Z" fill="url(#paint5_linear_1945_31168)" fill-opacity="0.5"/>
</g>
</g>
<path fill-rule="evenodd" clip-rule="evenodd" d="M153.275 171C150.588 181.908 140.738 190 129 190C117.262 190 107.412 181.908 104.725 171H17V159H104.725C107.412 148.092 117.262 140 129 140C140.738 140 150.588 148.092 153.275 159H241V171H153.275ZM129 183C138.941 183 147 174.941 147 165C147 155.059 138.941 147 129 147C119.059 147 111 155.059 111 165C111 174.941 119.059 183 129 183Z" fill="#303030"/>
<path fill-rule="evenodd" clip-rule="evenodd" d="M129 178C136.18 178 142 172.18 142 165C142 157.82 136.18 152 129 152C121.82 152 116 157.82 116 165C116 172.18 121.82 178 129 178ZM141 165C141 171.627 135.627 177 129 177C122.373 177 117 171.627 117 165C117 158.373 122.373 153 129 153C135.627 153 141 158.373 141 165Z" fill="#303030"/>
<path fill-rule="evenodd" clip-rule="evenodd" d="M146 165C146 174.389 138.389 182 129 182C119.611 182 112 174.389 112 165C112 155.611 119.611 148 129 148C138.389 148 146 155.611 146 165ZM142 165C142 172.18 136.18 178 129 178C121.82 178 116 172.18 116 165C116 157.82 121.82 152 129 152C136.18 152 142 157.82 142 165Z" fill="white"/>
<path d="M129 177C135.627 177 141 171.627 141 165C141 158.373 135.627 153 129 153C122.373 153 117 158.373 117 165C117 171.627 122.373 177 129 177Z" fill="white"/>
<path fill-rule="evenodd" clip-rule="evenodd" d="M147 165C147 174.941 138.941 183 129 183C119.059 183 111 174.941 111 165C111 155.059 119.059 147 129 147C138.941 147 147 155.059 147 165ZM129 182C138.389 182 146 174.389 146 165C146 155.611 138.389 148 129 148C119.611 148 112 155.611 112 165C112 174.389 119.611 182 129 182Z" fill="#313131"/>
<path d="M126.815 209.934C117.944 209.462 112.192 205.317 110.47 198.175C110.17 196.963 110 195.468 110 194.154V193L119.562 193.044C124.806 193.073 133.364 193.094 138.555 193.094H148L147.922 195.185C147.843 197.282 147.687 198.248 147.178 199.823C145.821 203.96 142.782 207.03 138.464 208.613C135.359 209.738 131.472 210.181 126.815 209.934Z" fill="url(#paint6_linear_1945_31168)"/>
<path d="M75.6703 149.45C73.8885 149.016 72.8129 147.154 72.2511 143.558L71.9782 141.809L71.2237 141.472C70.2927 141.038 69.2974 140.059 68.8159 139.064C68.4788 138.422 68.4306 138.085 68.4467 136.704C68.4467 135.612 68.543 134.826 68.7356 134.248C69.0085 133.429 69.0085 133.397 68.6874 132.723C67.7082 130.684 67.9009 127.49 69.1048 125.58C69.2653 125.339 69.458 125.098 69.5382 125.034C69.6345 124.97 70.8545 124.922 72.2832 124.922C79.0253 124.938 86.3773 123.445 90.9523 121.149C92.5254 120.363 94.1307 119.367 94.9975 118.645C97.1004 116.911 100.696 115.451 103.826 115.033C105.592 114.808 108.578 115.756 109.926 116.976C111.259 118.196 112.511 120.363 112.88 122.112C113.41 124.681 112.447 126.8 109.926 128.646C108.722 129.529 105.929 131.872 102.558 134.81C101.017 136.158 99.7009 137.218 99.6206 137.17C99.5404 137.121 99.5083 137.154 99.5243 137.25C99.5564 137.33 98.6735 138.213 97.5659 139.208C96.4583 140.187 94.3233 142.21 92.8144 143.687C88.9618 147.475 87.501 148.326 83.4397 149.161C81.6739 149.53 76.6816 149.723 75.6703 149.45Z" fill="url(#paint7_linear_1945_31168)"/>
<path d="M72.2508 143.558C72.8126 147.154 73.8881 149.016 75.6699 149.449C75.7579 149.473 75.8758 149.493 76.0192 149.51C72.2586 149.521 67.1611 149.493 66.8316 149.43C65.2414 149.144 63.7636 148.224 63.2335 147.192C62.8159 146.367 62.8962 145.383 63.4744 144.113L63.876 143.256H63.4423C63.2014 143.256 62.5267 143.145 61.9163 143.018C58.511 142.304 56.8083 140.415 57.0171 137.559C57.1456 135.924 57.9809 134.654 59.2017 134.289C59.5711 134.178 59.6836 133.829 59.3945 133.654C59.2981 133.591 58.9768 133.067 58.6877 132.48C57.3545 129.877 57.6597 127.56 59.6033 125.528C61.5951 123.449 64.3579 123.116 68.2291 124.513C68.8659 124.745 69.5027 124.942 69.7693 124.992C69.6407 125.005 69.5599 125.019 69.5379 125.033C69.4576 125.098 69.265 125.338 69.1045 125.579C67.9005 127.49 67.7079 130.684 68.6871 132.723C69.0082 133.397 69.0082 133.429 68.7353 134.248C68.5426 134.826 68.4463 135.612 68.4463 136.704C68.4303 138.084 68.4784 138.421 68.8155 139.063C69.2971 140.059 70.2924 141.038 71.2234 141.471L71.9779 141.808L72.2508 143.558Z" fill="#B95C84"/>
<path d="M180.37 149.45C182.152 149.017 183.228 147.155 183.789 143.559L184.062 141.809L184.817 141.472C185.748 141.039 186.743 140.059 187.225 139.064C187.562 138.422 187.61 138.085 187.594 136.704C187.594 135.613 187.498 134.826 187.305 134.248C187.032 133.43 187.032 133.397 187.353 132.723C188.332 130.685 188.14 127.49 186.936 125.58C186.775 125.339 186.583 125.098 186.502 125.034C186.406 124.97 185.186 124.922 183.757 124.922C177.015 124.938 169.663 123.445 165.088 121.149C163.515 120.363 161.91 119.367 161.043 118.645C158.94 116.911 155.345 115.451 152.214 115.033C150.449 114.808 147.463 115.756 146.114 116.976C144.782 118.196 143.53 120.363 143.161 122.112C142.631 124.681 143.594 126.8 146.114 128.646C147.318 129.529 150.111 131.872 153.482 134.81C155.023 136.159 156.34 137.218 156.42 137.17C156.5 137.122 156.532 137.154 156.516 137.25C156.484 137.33 157.367 138.213 158.475 139.209C159.582 140.188 161.717 142.21 163.226 143.687C167.079 147.476 168.54 148.327 172.601 149.161C174.367 149.531 179.359 149.723 180.37 149.45Z" fill="url(#paint8_linear_1945_31168)"/>
<path d="M183.79 143.558C183.228 147.154 182.152 149.016 180.371 149.45C180.283 149.473 180.165 149.494 180.021 149.511C183.782 149.522 188.88 149.493 189.209 149.43C190.799 149.145 192.277 148.224 192.807 147.192C193.225 146.367 193.144 145.383 192.566 144.113L192.165 143.256H192.598C192.839 143.256 193.514 143.145 194.124 143.018C197.53 142.304 199.232 140.416 199.023 137.559C198.895 135.924 198.06 134.654 196.839 134.289C196.469 134.178 196.357 133.829 196.646 133.654C196.742 133.591 197.064 133.067 197.353 132.48C198.686 129.877 198.381 127.56 196.437 125.528C194.445 123.449 191.683 123.116 187.812 124.513C187.175 124.745 186.538 124.942 186.271 124.992C186.4 125.005 186.481 125.019 186.503 125.034C186.583 125.098 186.776 125.339 186.936 125.579C188.14 127.49 188.333 130.684 187.353 132.723C187.032 133.397 187.032 133.429 187.305 134.248C187.498 134.826 187.594 135.612 187.594 136.704C187.61 138.084 187.562 138.421 187.225 139.064C186.743 140.059 185.748 141.038 184.817 141.472L184.063 141.809L183.79 143.558Z" fill="#B95C84"/>
<g filter="url(#filter4_i_1945_31168)">
<path d="M127.016 72.081C127.016 73.2047 127.064 74.9383 127.128 75.9496L127.224 77.7796L130.21 77.6833C133.212 77.603 134.223 77.4425 135.363 76.8486C136.647 76.2065 137.129 75.452 137.129 74.0394C137.129 72.8033 136.856 72.1452 136.069 71.5031C134.865 70.5078 132.65 70.0263 129.231 70.0263H127.016V72.081Z" fill="url(#paint9_linear_1945_31168)"/>
<path fill-rule="evenodd" clip-rule="evenodd" d="M114.896 99.6431C115.682 101.28 117.352 102.565 119.182 102.918C119.567 102.998 124.672 103.046 130.547 103.046L141.222 103.014L142.025 102.629C143.598 101.858 145.347 99.7234 146.343 97.3316C146.385 97.2315 146.421 97.1581 146.454 97.0832C146.752 96.4136 146.798 95.6317 148.285 74.6815C148.412 72.9157 148.535 71.1946 148.646 69.6442C148.887 66.2758 149.071 63.7138 149.104 63.2521L149.216 62H111.766V62.4495C111.766 62.6646 111.83 63.5847 111.901 64.6027C111.909 64.724 111.918 64.8467 111.926 64.9697C112.022 66.1255 112.344 70.9573 112.649 75.7249C112.804 78.0375 112.968 80.505 113.109 82.6436C113.259 84.9139 113.385 86.8137 113.451 87.7643C113.58 89.6264 113.756 92.4356 113.852 94.0248C114.045 97.139 114.286 98.391 114.896 99.6431ZM126.823 91.5366C126.566 92.0503 126.245 92.3714 125.731 92.6603C125.137 92.9813 124.736 93.0616 123.452 93.1098L121.879 93.174V66.8318L122.81 66.7034C124.543 66.4626 130.643 66.5589 132.393 66.8639C137.562 67.7789 140.564 69.9139 141.158 73.1725C141.655 75.8533 139.729 78.9354 136.599 80.4604C134.432 81.5038 131.029 82.2262 128.268 82.2262H127.176V86.5282C127.176 90.6698 127.16 90.8464 126.823 91.5366Z" fill="url(#paint10_linear_1945_31168)"/>
</g>
<path fill-rule="evenodd" clip-rule="evenodd" d="M125.732 96.6608C126.245 96.3719 126.566 96.0508 126.823 95.5371C127.16 94.8469 127.176 94.6703 127.176 90.5288V86.2267H128.268C131.029 86.2267 134.432 85.5043 136.599 84.4609C139.729 82.9359 141.656 79.8538 141.158 77.1731C140.564 73.9144 137.562 71.7794 132.393 70.8644C130.644 70.5594 124.544 70.4631 122.81 70.7039L121.879 70.8323V97.1745L123.452 97.1103C124.736 97.0621 125.138 96.9819 125.732 96.6608ZM127.016 76.0815C127.016 77.2052 127.064 78.9388 127.128 79.9501L127.224 81.7801L130.21 81.6838C133.212 81.6036 134.223 81.443 135.363 80.8491C136.647 80.207 137.129 79.4525 137.129 78.0399C137.129 76.8039 136.856 76.1457 136.069 75.5036C134.865 74.5083 132.65 74.0268 129.231 74.0268H127.016V76.0815Z" fill="url(#paint11_linear_1945_31168)"/>
<path fill-rule="evenodd" clip-rule="evenodd" d="M125.732 92.6608C126.245 92.3719 126.566 92.0508 126.823 91.5371C127.16 90.8469 127.176 90.6703 127.176 86.5288V82.2267H128.268C131.029 82.2267 134.432 81.5043 136.599 80.4609C139.729 78.9359 141.656 75.8538 141.158 73.1731C140.564 69.9144 137.562 67.7794 132.393 66.8644C130.644 66.5594 124.544 66.4631 122.81 66.7039L121.879 66.8323V93.1745L123.452 93.1103C124.736 93.0621 125.138 92.9819 125.732 92.6608ZM127.016 72.0815C127.016 73.2052 127.064 74.9388 127.128 75.9501L127.224 77.7801L130.21 77.6838C133.212 77.6036 134.223 77.443 135.363 76.8491C136.647 76.207 137.129 75.4525 137.129 74.0399C137.129 72.8039 136.856 72.1457 136.069 71.5036C134.865 70.5083 132.65 70.0268 129.231 70.0268H127.016V72.0815Z" fill="url(#paint12_linear_1945_31168)"/>
<defs>
<filter id="filter0_f_1945_31168" x="-20" y="25" width="298" height="184" filterUnits="userSpaceOnUse" color-interpolation-filters="sRGB">
<feFlood flood-opacity="0" result="BackgroundImageFix"/>
<feBlend mode="normal" in="SourceGraphic" in2="BackgroundImageFix" result="shape"/>
<feGaussianBlur stdDeviation="18.5" result="effect1_foregroundBlur_1945_31168"/>
</filter>
<filter id="filter1_ii_1945_31168" x="17" y="62" width="224" height="148" filterUnits="userSpaceOnUse" color-interpolation-filters="sRGB">
<feFlood flood-opacity="0" result="BackgroundImageFix"/>
<feBlend mode="normal" in="SourceGraphic" in2="BackgroundImageFix" result="shape"/>
<feColorMatrix in="SourceAlpha" type="matrix" values="0 0 0 0 0 0 0 0 0 0 0 0 0 0 0 0 0 0 127 0" result="hardAlpha"/>
<feOffset dy="4"/>
<feComposite in2="hardAlpha" operator="arithmetic" k2="-1" k3="1"/>
<feColorMatrix type="matrix" values="0 0 0 0 1 0 0 0 0 1 0 0 0 0 1 0 0 0 0.25 0"/>
<feBlend mode="normal" in2="shape" result="effect1_innerShadow_1945_31168"/>
<feColorMatrix in="SourceAlpha" type="matrix" values="0 0 0 0 0 0 0 0 0 0 0 0 0 0 0 0 0 0 127 0" result="hardAlpha"/>
<feOffset dy="-4"/>
<feComposite in2="hardAlpha" operator="arithmetic" k2="-1" k3="1"/>
<feColorMatrix type="matrix" values="0 0 0 0 0 0 0 0 0 0 0 0 0 0 0 0 0 0 0.9 0"/>
<feBlend mode="soft-light" in2="effect1_innerShadow_1945_31168" result="effect2_innerShadow_1945_31168"/>
</filter>
<filter id="filter2_ii_1945_31168" x="17" y="62" width="224" height="148" filterUnits="userSpaceOnUse" color-interpolation-filters="sRGB">
<feFlood flood-opacity="0" result="BackgroundImageFix"/>
<feBlend mode="normal" in="SourceGraphic" in2="BackgroundImageFix" result="shape"/>
<feColorMatrix in="SourceAlpha" type="matrix" values="0 0 0 0 0 0 0 0 0 0 0 0 0 0 0 0 0 0 127 0" result="hardAlpha"/>
<feOffset dy="4"/>
<feComposite in2="hardAlpha" operator="arithmetic" k2="-1" k3="1"/>
<feColorMatrix type="matrix" values="0 0 0 0 1 0 0 0 0 1 0 0 0 0 1 0 0 0 0.25 0"/>
<feBlend mode="normal" in2="shape" result="effect1_innerShadow_1945_31168"/>
<feColorMatrix in="SourceAlpha" type="matrix" values="0 0 0 0 0 0 0 0 0 0 0 0 0 0 0 0 0 0 127 0" result="hardAlpha"/>
<feOffset dy="-4"/>
<feComposite in2="hardAlpha" operator="arithmetic" k2="-1" k3="1"/>
<feColorMatrix type="matrix" values="0 0 0 0 0 0 0 0 0 0 0 0 0 0 0 0 0 0 0.9 0"/>
<feBlend mode="soft-light" in2="effect1_innerShadow_1945_31168" result="effect2_innerShadow_1945_31168"/>
</filter>
<filter id="filter3_ii_1945_31168" x="17" y="62" width="224" height="148" filterUnits="userSpaceOnUse" color-interpolation-filters="sRGB">
<feFlood flood-opacity="0" result="BackgroundImageFix"/>
<feBlend mode="normal" in="SourceGraphic" in2="BackgroundImageFix" result="shape"/>
<feColorMatrix in="SourceAlpha" type="matrix" values="0 0 0 0 0 0 0 0 0 0 0 0 0 0 0 0 0 0 127 0" result="hardAlpha"/>
<feOffset dy="4"/>
<feComposite in2="hardAlpha" operator="arithmetic" k2="-1" k3="1"/>
<feColorMatrix type="matrix" values="0 0 0 0 1 0 0 0 0 1 0 0 0 0 1 0 0 0 0.15 0"/>
<feBlend mode="normal" in2="shape" result="effect1_innerShadow_1945_31168"/>
<feColorMatrix in="SourceAlpha" type="matrix" values="0 0 0 0 0 0 0 0 0 0 0 0 0 0 0 0 0 0 127 0" result="hardAlpha"/>
<feOffset dy="-4"/>
<feComposite in2="hardAlpha" operator="arithmetic" k2="-1" k3="1"/>
<feColorMatrix type="matrix" values="0 0 0 0 0 0 0 0 0 0 0 0 0 0 0 0 0 0 0.25 0"/>
<feBlend mode="soft-light" in2="effect1_innerShadow_1945_31168" result="effect2_innerShadow_1945_31168"/>
</filter>
<filter id="filter4_i_1945_31168" x="111.766" y="62" width="37.4507" height="41.0469" filterUnits="userSpaceOnUse" color-interpolation-filters="sRGB">
<feFlood flood-opacity="0" result="BackgroundImageFix"/>
<feBlend mode="normal" in="SourceGraphic" in2="BackgroundImageFix" result="shape"/>
<feColorMatrix in="SourceAlpha" type="matrix" values="0 0 0 0 0 0 0 0 0 0 0 0 0 0 0 0 0 0 127 0" result="hardAlpha"/>
<feOffset dy="4"/>
<feComposite in2="hardAlpha" operator="arithmetic" k2="-1" k3="1"/>
<feColorMatrix type="matrix" values="0 0 0 0 1 0 0 0 0 1 0 0 0 0 1 0 0 0 0.25 0"/>
<feBlend mode="normal" in2="shape" result="effect1_innerShadow_1945_31168"/>
</filter>
<linearGradient id="paint0_linear_1945_31168" x1="17" y1="34" x2="197.768" y2="215.142" gradientUnits="userSpaceOnUse">
<stop stop-color="#05815D"/>
<stop offset="1" stop-color="#0C575F"/>
</linearGradient>
<linearGradient id="paint1_linear_1945_31168" x1="147.5" y1="62" x2="148" y2="210" gradientUnits="userSpaceOnUse">
<stop stop-color="#E06153"/>
<stop offset="0.692608" stop-color="#B93121"/>
<stop offset="0.692708" stop-color="#EFCEDE"/>
<stop offset="0.980468" stop-color="#E9C0D3"/>
</linearGradient>
<linearGradient id="paint2_linear_1945_31168" x1="147.5" y1="62" x2="148" y2="210" gradientUnits="userSpaceOnUse">
<stop stop-color="#E06153"/>
<stop offset="0.692608" stop-color="#B93121"/>
<stop offset="0.692708" stop-color="#EFCEDE"/>
<stop offset="0.980468" stop-color="#E9C0D3"/>
</linearGradient>
<linearGradient id="paint3_linear_1945_31168" x1="130.491" y1="62" x2="130.491" y2="103.046" gradientUnits="userSpaceOnUse">
<stop stop-color="#529AED"/>
<stop offset="1" stop-color="#307CD3"/>
</linearGradient>
<linearGradient id="paint4_linear_1945_31168" x1="130.491" y1="62" x2="130.491" y2="103.046" gradientUnits="userSpaceOnUse">
<stop stop-color="#529AED"/>
<stop offset="1" stop-color="#307CD3"/>
</linearGradient>
<linearGradient id="paint5_linear_1945_31168" x1="17" y1="62" x2="241" y2="210" gradientUnits="userSpaceOnUse">
<stop stop-color="white" stop-opacity="0"/>
<stop offset="1" stop-opacity="0.51"/>
</linearGradient>
<linearGradient id="paint6_linear_1945_31168" x1="129" y1="193" x2="129" y2="210" gradientUnits="userSpaceOnUse">
<stop stop-color="#A65569"/>
<stop offset="1" stop-color="#804151"/>
</linearGradient>
<linearGradient id="paint7_linear_1945_31168" x1="90.5411" y1="115" x2="90.5411" y2="149.578" gradientUnits="userSpaceOnUse">
<stop stop-color="#F7E5F4"/>
<stop offset="1" stop-color="#F1D4E4"/>
</linearGradient>
<linearGradient id="paint8_linear_1945_31168" x1="165.5" y1="115" x2="165.5" y2="149.579" gradientUnits="userSpaceOnUse">
<stop stop-color="#F7E5F4"/>
<stop offset="1" stop-color="#F1D4E4"/>
</linearGradient>
<linearGradient id="paint9_linear_1945_31168" x1="130.491" y1="62" x2="130.491" y2="103.046" gradientUnits="userSpaceOnUse">
<stop stop-color="#529AED"/>
<stop offset="1" stop-color="#307CD3"/>
</linearGradient>
<linearGradient id="paint10_linear_1945_31168" x1="130.491" y1="62" x2="130.491" y2="103.046" gradientUnits="userSpaceOnUse">
<stop stop-color="#529AED"/>
<stop offset="1" stop-color="#307CD3"/>
</linearGradient>
<linearGradient id="paint11_linear_1945_31168" x1="130.491" y1="66" x2="130.491" y2="107.046" gradientUnits="userSpaceOnUse">
<stop stop-color="#4992E6"/>
<stop offset="1" stop-color="#327DD4"/>
</linearGradient>
<linearGradient id="paint12_linear_1945_31168" x1="130.491" y1="62" x2="130.491" y2="103.046" gradientUnits="userSpaceOnUse">
<stop stop-color="#FBD544"/>
<stop offset="1" stop-color="#F8C202"/>
</linearGradient>
</defs>
</svg>
