<svg width="256" height="256" viewBox="0 0 256 256" fill="none" xmlns="http://www.w3.org/2000/svg">
<path fill-rule="evenodd" clip-rule="evenodd" d="M104.425 42.3784C100.056 37.0733 93.5437 34 86.6712 34H29C22.3726 34 17 39.3726 17 46V58.1371V68.2V160C17 166.627 22.3726 172 29 172H229C235.627 172 241 166.627 241 160V70.1371C241 63.5097 235.627 58.1371 229 58.1371H117.404L104.425 42.3784Z" fill="#20846D"/>
<mask id="mask0_1054_28727" style="mask-type:alpha" maskUnits="userSpaceOnUse" x="17" y="34" width="224" height="138">
<path fill-rule="evenodd" clip-rule="evenodd" d="M104.425 42.3784C100.056 37.0733 93.5437 34 86.6712 34H29C22.3726 34 17 39.3726 17 46V58.1371V68.2V160C17 166.627 22.3726 172 29 172H229C235.627 172 241 166.627 241 160V70.1371C241 63.5097 235.627 58.1371 229 58.1371H117.404L104.425 42.3784Z" fill="url(#paint0_linear_1054_28727)"/>
</mask>
<g mask="url(#mask0_1054_28727)">
<g style="mix-blend-mode:multiply" filter="url(#filter0_f_1054_28727)">
<path fill-rule="evenodd" clip-rule="evenodd" d="M92.789 74C97.7642 74 102.605 72.3868 106.586 69.4024L116.459 62H229C235.627 62 241 67.3726 241 74V108V160C241 166.627 235.627 172 229 172H29C22.3726 172 17 166.627 17 160L17 108V86C17 79.3726 22.3726 74 29 74H87H92.789Z" fill="black" fill-opacity="0.3"/>
</g>
</g>
<path fill-rule="evenodd" clip-rule="evenodd" d="M92.789 74C97.7642 74 102.605 72.3868 106.586 69.4024L116.459 62H229C235.627 62 241 67.3726 241 74V108V198C241 204.627 235.627 210 229 210H29C22.3726 210 17 204.627 17 198L17 108V86C17 79.3726 22.3726 74 29 74H87H92.789Z" fill="url(#paint1_linear_1054_28727)"/>
<circle cx="129.613" cy="164.613" r="14.9589" fill="#FEFEFE"/>
<path fill-rule="evenodd" clip-rule="evenodd" d="M129.613 175.229C135.476 175.229 140.229 170.476 140.229 164.613C140.229 158.75 135.476 153.997 129.613 153.997C123.75 153.997 118.997 158.75 118.997 164.613C118.997 170.476 123.75 175.229 129.613 175.229ZM129.686 173.765C134.7 173.765 138.765 169.7 138.765 164.686C138.765 159.672 134.7 155.608 129.686 155.608C124.672 155.608 120.608 159.672 120.608 164.686C120.608 169.7 124.672 173.765 129.686 173.765Z" fill="#000101"/>
<path fill-rule="evenodd" clip-rule="evenodd" d="M129.492 181.984C138.376 181.984 145.713 175.362 146.836 166.784H241.017V162.2H146.836C145.713 153.623 138.376 147 129.492 147C120.608 147 113.271 153.623 112.149 162.2H17V166.784H112.149C113.271 175.362 120.608 181.984 129.492 181.984ZM129.613 179.572C137.874 179.572 144.572 172.874 144.572 164.613C144.572 156.351 137.874 149.654 129.613 149.654C121.351 149.654 114.654 156.351 114.654 164.613C114.654 172.874 121.351 179.572 129.613 179.572Z" fill="#000101"/>
<g opacity="0.8">
<g filter="url(#filter1_ii_1054_28727)">
<path fill-rule="evenodd" clip-rule="evenodd" d="M92.789 74C97.7642 74 102.605 72.3868 106.586 69.4024L116.459 62H229C235.627 62 241 67.3726 241 74V108V198C241 204.627 235.627 210 229 210H29C22.3726 210 17 204.627 17 198L17 108V86C17 79.3726 22.3726 74 29 74H87H92.789Z" fill="url(#paint2_linear_1054_28727)" fill-opacity="0.3"/>
</g>
</g>
<path d="M134.757 130.283C134.757 129.782 134.632 129.286 134.381 128.796C134.131 128.306 133.646 127.856 132.929 127.446C132.222 127.036 131.18 126.689 129.801 126.404C128.776 126.176 127.859 125.92 127.05 125.635C126.252 125.35 125.58 125.008 125.033 124.609C124.486 124.211 124.07 123.732 123.786 123.174C123.501 122.616 123.358 121.955 123.358 121.191C123.358 120.508 123.507 119.864 123.803 119.26C124.11 118.645 124.543 118.11 125.102 117.654C125.671 117.187 126.355 116.822 127.152 116.56C127.961 116.298 128.867 116.167 129.87 116.167C131.294 116.167 132.513 116.412 133.527 116.902C134.552 117.38 135.333 118.035 135.868 118.867C136.415 119.699 136.688 120.639 136.688 121.687H134.655C134.655 121.049 134.467 120.445 134.091 119.875C133.726 119.306 133.185 118.839 132.467 118.474C131.761 118.11 130.895 117.927 129.87 117.927C128.81 117.927 127.95 118.087 127.289 118.406C126.628 118.725 126.144 119.129 125.836 119.619C125.54 120.109 125.392 120.616 125.392 121.14C125.392 121.55 125.455 121.926 125.58 122.268C125.717 122.598 125.956 122.906 126.298 123.191C126.651 123.476 127.152 123.743 127.802 123.994C128.451 124.245 129.294 124.49 130.331 124.729C131.824 125.059 133.043 125.464 133.988 125.942C134.945 126.41 135.652 126.991 136.107 127.686C136.563 128.369 136.791 129.201 136.791 130.181C136.791 130.944 136.632 131.645 136.312 132.283C135.993 132.909 135.532 133.451 134.928 133.906C134.336 134.362 133.618 134.715 132.775 134.966C131.943 135.216 131.009 135.342 129.972 135.342C128.411 135.342 127.09 135.085 126.007 134.573C124.936 134.049 124.122 133.365 123.563 132.522C123.017 131.667 122.743 130.762 122.743 129.805H124.777C124.845 130.762 125.147 131.519 125.683 132.078C126.218 132.625 126.873 133.012 127.648 133.24C128.434 133.468 129.209 133.582 129.972 133.582C131.02 133.582 131.898 133.428 132.604 133.12C133.31 132.812 133.846 132.408 134.21 131.907C134.575 131.405 134.757 130.864 134.757 130.283Z" fill="black"/>
<defs>
<filter id="filter0_f_1054_28727" x="-20" y="25" width="298" height="184" filterUnits="userSpaceOnUse" color-interpolation-filters="sRGB">
<feFlood flood-opacity="0" result="BackgroundImageFix"/>
<feBlend mode="normal" in="SourceGraphic" in2="BackgroundImageFix" result="shape"/>
<feGaussianBlur stdDeviation="18.5" result="effect1_foregroundBlur_1054_28727"/>
</filter>
<filter id="filter1_ii_1054_28727" x="17" y="62" width="224" height="148" filterUnits="userSpaceOnUse" color-interpolation-filters="sRGB">
<feFlood flood-opacity="0" result="BackgroundImageFix"/>
<feBlend mode="normal" in="SourceGraphic" in2="BackgroundImageFix" result="shape"/>
<feColorMatrix in="SourceAlpha" type="matrix" values="0 0 0 0 0 0 0 0 0 0 0 0 0 0 0 0 0 0 127 0" result="hardAlpha"/>
<feOffset dy="4"/>
<feComposite in2="hardAlpha" operator="arithmetic" k2="-1" k3="1"/>
<feColorMatrix type="matrix" values="0 0 0 0 1 0 0 0 0 1 0 0 0 0 1 0 0 0 0.15 0"/>
<feBlend mode="normal" in2="shape" result="effect1_innerShadow_1054_28727"/>
<feColorMatrix in="SourceAlpha" type="matrix" values="0 0 0 0 0 0 0 0 0 0 0 0 0 0 0 0 0 0 127 0" result="hardAlpha"/>
<feOffset dy="-4"/>
<feComposite in2="hardAlpha" operator="arithmetic" k2="-1" k3="1"/>
<feColorMatrix type="matrix" values="0 0 0 0 0 0 0 0 0 0 0 0 0 0 0 0 0 0 0.25 0"/>
<feBlend mode="soft-light" in2="effect1_innerShadow_1054_28727" result="effect2_innerShadow_1054_28727"/>
</filter>
<linearGradient id="paint0_linear_1054_28727" x1="17" y1="34" x2="197.768" y2="215.142" gradientUnits="userSpaceOnUse">
<stop stop-color="#05815D"/>
<stop offset="1" stop-color="#0C575F"/>
</linearGradient>
<linearGradient id="paint1_linear_1054_28727" x1="147.5" y1="62" x2="148" y2="210" gradientUnits="userSpaceOnUse">
<stop offset="0.692608" stop-color="#1E8D73"/>
<stop offset="0.692708" stop-color="white"/>
</linearGradient>
<linearGradient id="paint2_linear_1054_28727" x1="17" y1="62" x2="241" y2="210" gradientUnits="userSpaceOnUse">
<stop stop-color="white" stop-opacity="0"/>
<stop offset="1" stop-opacity="0.51"/>
</linearGradient>
</defs>
</svg>
