<svg width="256" height="256" viewBox="0 0 256 256" fill="none" xmlns="http://www.w3.org/2000/svg">
<path fill-rule="evenodd" clip-rule="evenodd" d="M104.425 42.3784C100.056 37.0733 93.5437 34 86.6712 34H29C22.3726 34 17 39.3726 17 46V58.1371V68.2V160C17 166.627 22.3726 172 29 172H229C235.627 172 241 166.627 241 160V70.1371C241 63.5097 235.627 58.1371 229 58.1371H117.404L104.425 42.3784Z" fill="#306939"/>
<mask id="mask0_682_18354" style="mask-type:alpha" maskUnits="userSpaceOnUse" x="17" y="34" width="224" height="138">
<path fill-rule="evenodd" clip-rule="evenodd" d="M104.425 42.3784C100.056 37.0733 93.5437 34 86.6712 34H29C22.3726 34 17 39.3726 17 46V58.1371V68.2V160C17 166.627 22.3726 172 29 172H229C235.627 172 241 166.627 241 160V70.1371C241 63.5097 235.627 58.1371 229 58.1371H117.404L104.425 42.3784Z" fill="url(#paint0_linear_682_18354)"/>
</mask>
<g mask="url(#mask0_682_18354)">
<g style="mix-blend-mode:multiply" filter="url(#filter0_f_682_18354)">
<path fill-rule="evenodd" clip-rule="evenodd" d="M92.789 74C97.7642 74 102.605 72.3868 106.586 69.4024L116.459 62H229C235.627 62 241 67.3726 241 74V108V160C241 166.627 235.627 172 229 172H29C22.3726 172 17 166.627 17 160L17 108V86C17 79.3726 22.3726 74 29 74H87H92.789Z" fill="black" fill-opacity="0.3"/>
</g>
</g>
<g filter="url(#filter1_ii_682_18354)">
<path fill-rule="evenodd" clip-rule="evenodd" d="M92.789 74C97.7642 74 102.605 72.3868 106.586 69.4024L116.459 62H229C235.627 62 241 67.3726 241 74V108V198C241 204.627 235.627 210 229 210H29C22.3726 210 17 204.627 17 198L17 108V86C17 79.3726 22.3726 74 29 74H87H92.789Z" fill="url(#paint1_linear_682_18354)"/>
</g>
<circle cx="129.613" cy="164.613" r="14.9589" fill="#FEFEFE"/>
<path fill-rule="evenodd" clip-rule="evenodd" d="M129.613 175.229C135.476 175.229 140.229 170.476 140.229 164.613C140.229 158.75 135.476 153.997 129.613 153.997C123.75 153.997 118.997 158.75 118.997 164.613C118.997 170.476 123.75 175.229 129.613 175.229ZM129.686 173.765C134.7 173.765 138.765 169.7 138.765 164.686C138.765 159.672 134.7 155.608 129.686 155.608C124.672 155.608 120.608 159.672 120.608 164.686C120.608 169.7 124.672 173.765 129.686 173.765Z" fill="#000101"/>
<path fill-rule="evenodd" clip-rule="evenodd" d="M129.492 181.984C138.445 181.984 145.827 175.259 146.861 166.584H241.017V162H146.808C145.599 153.52 138.307 147 129.492 147C120.678 147 113.386 153.52 112.176 162H17V166.58H112.123C113.155 175.256 120.538 181.984 129.492 181.984ZM129.613 179.572C137.874 179.572 144.572 172.874 144.572 164.613C144.572 156.351 137.874 149.654 129.613 149.654C121.351 149.654 114.654 156.351 114.654 164.613C114.654 172.874 121.351 179.572 129.613 179.572Z" fill="#000101"/>
<circle cx="128.713" cy="113.079" r="7.07939" fill="#FCD204"/>
<path fill-rule="evenodd" clip-rule="evenodd" d="M155.572 135.159C156.438 135.96 163.88 134.118 166.856 130.901C168.878 128.713 168.745 125.301 166.558 123.278C164.371 121.256 160.958 121.389 158.936 123.577C155.96 126.794 154.582 134.243 155.572 135.159ZM101.353 135.229C102.219 134.428 100.964 126.864 97.9886 123.647C95.966 121.46 92.5534 121.327 90.3664 123.349C88.1794 125.372 88.0461 128.784 90.0687 130.972C93.0443 134.189 100.363 136.145 101.353 135.229ZM181.192 157.66C177.701 159.512 170.819 158.862 170.321 157.922C169.751 156.848 173.143 150.92 176.634 149.068C179.006 147.81 181.95 148.713 183.209 151.085C184.467 153.458 183.564 156.402 181.192 157.66ZM86.8824 157.921C87.3808 156.982 84.0592 150.919 80.5686 149.068C78.1959 147.81 75.2522 148.713 73.9938 151.086C72.7354 153.458 73.6387 156.402 76.0115 157.66C79.5021 159.512 86.3127 158.995 86.8824 157.921Z" fill="#D53935"/>
<g opacity="0.8">
<g filter="url(#filter2_ii_682_18354)">
<path fill-rule="evenodd" clip-rule="evenodd" d="M92.789 74C97.7642 74 102.605 72.3868 106.586 69.4024L116.459 62H229C235.627 62 241 67.3726 241 74V108V198C241 204.627 235.627 210 229 210H29C22.3726 210 17 204.627 17 198L17 108V86C17 79.3726 22.3726 74 29 74H87H92.789Z" fill="url(#paint2_linear_682_18354)"/>
</g>
</g>
<defs>
<filter id="filter0_f_682_18354" x="-20" y="25" width="298" height="184" filterUnits="userSpaceOnUse" color-interpolation-filters="sRGB">
<feFlood flood-opacity="0" result="BackgroundImageFix"/>
<feBlend mode="normal" in="SourceGraphic" in2="BackgroundImageFix" result="shape"/>
<feGaussianBlur stdDeviation="18.5" result="effect1_foregroundBlur_682_18354"/>
</filter>
<filter id="filter1_ii_682_18354" x="17" y="62" width="224" height="148" filterUnits="userSpaceOnUse" color-interpolation-filters="sRGB">
<feFlood flood-opacity="0" result="BackgroundImageFix"/>
<feBlend mode="normal" in="SourceGraphic" in2="BackgroundImageFix" result="shape"/>
<feColorMatrix in="SourceAlpha" type="matrix" values="0 0 0 0 0 0 0 0 0 0 0 0 0 0 0 0 0 0 127 0" result="hardAlpha"/>
<feOffset dy="4"/>
<feComposite in2="hardAlpha" operator="arithmetic" k2="-1" k3="1"/>
<feColorMatrix type="matrix" values="0 0 0 0 1 0 0 0 0 1 0 0 0 0 1 0 0 0 0.25 0"/>
<feBlend mode="normal" in2="shape" result="effect1_innerShadow_682_18354"/>
<feColorMatrix in="SourceAlpha" type="matrix" values="0 0 0 0 0 0 0 0 0 0 0 0 0 0 0 0 0 0 127 0" result="hardAlpha"/>
<feOffset dy="-4"/>
<feComposite in2="hardAlpha" operator="arithmetic" k2="-1" k3="1"/>
<feColorMatrix type="matrix" values="0 0 0 0 0 0 0 0 0 0 0 0 0 0 0 0 0 0 0.9 0"/>
<feBlend mode="soft-light" in2="effect1_innerShadow_682_18354" result="effect2_innerShadow_682_18354"/>
</filter>
<filter id="filter2_ii_682_18354" x="17" y="62" width="224" height="148" filterUnits="userSpaceOnUse" color-interpolation-filters="sRGB">
<feFlood flood-opacity="0" result="BackgroundImageFix"/>
<feBlend mode="normal" in="SourceGraphic" in2="BackgroundImageFix" result="shape"/>
<feColorMatrix in="SourceAlpha" type="matrix" values="0 0 0 0 0 0 0 0 0 0 0 0 0 0 0 0 0 0 127 0" result="hardAlpha"/>
<feOffset dy="4"/>
<feComposite in2="hardAlpha" operator="arithmetic" k2="-1" k3="1"/>
<feColorMatrix type="matrix" values="0 0 0 0 1 0 0 0 0 1 0 0 0 0 1 0 0 0 0.15 0"/>
<feBlend mode="normal" in2="shape" result="effect1_innerShadow_682_18354"/>
<feColorMatrix in="SourceAlpha" type="matrix" values="0 0 0 0 0 0 0 0 0 0 0 0 0 0 0 0 0 0 127 0" result="hardAlpha"/>
<feOffset dy="-4"/>
<feComposite in2="hardAlpha" operator="arithmetic" k2="-1" k3="1"/>
<feColorMatrix type="matrix" values="0 0 0 0 0 0 0 0 0 0 0 0 0 0 0 0 0 0 0.25 0"/>
<feBlend mode="soft-light" in2="effect1_innerShadow_682_18354" result="effect2_innerShadow_682_18354"/>
</filter>
<linearGradient id="paint0_linear_682_18354" x1="17" y1="34" x2="197.768" y2="215.142" gradientUnits="userSpaceOnUse">
<stop stop-color="#05815D"/>
<stop offset="1" stop-color="#0C575F"/>
</linearGradient>
<linearGradient id="paint1_linear_682_18354" x1="147.5" y1="62" x2="148" y2="210" gradientUnits="userSpaceOnUse">
<stop offset="0.692608" stop-color="#40A850"/>
<stop offset="0.692708" stop-color="white"/>
</linearGradient>
<linearGradient id="paint2_linear_682_18354" x1="17" y1="62" x2="241" y2="210" gradientUnits="userSpaceOnUse">
<stop stop-color="white" stop-opacity="0"/>
<stop offset="1" stop-opacity="0.51"/>
</linearGradient>
</defs>
</svg>
