<svg width="256" height="256" viewBox="0 0 256 256" fill="none" xmlns="http://www.w3.org/2000/svg">
<path fill-rule="evenodd" clip-rule="evenodd" d="M104.425 42.3784C100.056 37.0733 93.5437 34 86.6712 34H29C22.3726 34 17 39.3726 17 46V58.1371V68.2V160C17 166.627 22.3726 172 29 172H229C235.627 172 241 166.627 241 160V70.1371C241 63.5097 235.627 58.1371 229 58.1371H117.404L104.425 42.3784Z" fill="#D19E1C"/>
<mask id="mask0_1057_26802" style="mask-type:alpha" maskUnits="userSpaceOnUse" x="17" y="34" width="224" height="138">
<path fill-rule="evenodd" clip-rule="evenodd" d="M104.425 42.3784C100.056 37.0733 93.5437 34 86.6712 34H29C22.3726 34 17 39.3726 17 46V58.1371V68.2V160C17 166.627 22.3726 172 29 172H229C235.627 172 241 166.627 241 160V70.1371C241 63.5097 235.627 58.1371 229 58.1371H117.404L104.425 42.3784Z" fill="url(#paint0_linear_1057_26802)"/>
</mask>
<g mask="url(#mask0_1057_26802)">
<g style="mix-blend-mode:multiply" filter="url(#filter0_f_1057_26802)">
<path fill-rule="evenodd" clip-rule="evenodd" d="M92.789 74C97.7642 74 102.605 72.3868 106.586 69.4024L116.459 62H229C235.627 62 241 67.3726 241 74V108V160C241 166.627 235.627 172 229 172H29C22.3726 172 17 166.627 17 160L17 108V86C17 79.3726 22.3726 74 29 74H87H92.789Z" fill="black" fill-opacity="0.3"/>
</g>
</g>
<g filter="url(#filter1_i_1057_26802)">
<g filter="url(#filter2_ii_1057_26802)">
<path fill-rule="evenodd" clip-rule="evenodd" d="M92.789 74C97.7642 74 102.605 72.3868 106.586 69.4024L116.459 62H229C235.627 62 241 67.3726 241 74V108V198C241 204.627 235.627 210 229 210H29C22.3726 210 17 204.627 17 198V108V86C17 79.3726 22.3726 74 29 74H87H92.789Z" fill="url(#paint1_linear_1057_26802)"/>
</g>
<circle cx="129.613" cy="164.613" r="14.9589" fill="#FEFEFE"/>
<path fill-rule="evenodd" clip-rule="evenodd" d="M129.613 175.229C135.476 175.229 140.229 170.476 140.229 164.613C140.229 158.75 135.476 153.997 129.613 153.997C123.75 153.997 118.997 158.75 118.997 164.613C118.997 170.476 123.75 175.229 129.613 175.229ZM129.686 173.765C134.7 173.765 138.764 169.7 138.764 164.686C138.764 159.672 134.7 155.608 129.686 155.608C124.672 155.608 120.608 159.672 120.608 164.686C120.608 169.7 124.672 173.765 129.686 173.765Z" fill="#373337"/>
<path fill-rule="evenodd" clip-rule="evenodd" d="M129.492 181.984C138.445 181.984 145.827 175.259 146.861 166.584H241.017V162H146.808C145.599 153.52 138.307 147 129.492 147C120.678 147 113.386 153.52 112.176 162H17V166.58H112.123C113.155 175.256 120.538 181.984 129.492 181.984ZM129.613 179.572C137.874 179.572 144.572 172.874 144.572 164.613C144.572 156.351 137.874 149.654 129.613 149.654C121.351 149.654 114.654 156.351 114.654 164.613C114.654 172.874 121.351 179.572 129.613 179.572Z" fill="#373337"/>
</g>
<g opacity="0.8">
<path fill-rule="evenodd" clip-rule="evenodd" d="M92.789 74C97.7642 74 102.605 72.3868 106.586 69.4024L116.459 62H229C235.627 62 241 67.3726 241 74V108V198C241 204.627 235.627 210 229 210H29C22.3726 210 17 204.627 17 198L17 108V86C17 79.3726 22.3726 74 29 74H87H92.789Z" fill="url(#paint2_linear_1057_26802)"/>
</g>
<path d="M122.174 124.54C119.035 124.73 113.099 126.195 114.469 130.533C116.467 133.958 118.179 135.955 116.181 137.382C114.583 138.524 112.186 138.524 110.473 136.811C108.381 135.289 105.051 130.362 108.476 122.827C111.9 115.293 120.177 116.644 123.887 118.261C125.196 118.832 127.882 124.54 122.174 124.54Z" fill="#FE8A26"/>
<path d="M118.75 131.104L122.174 133.958C121.604 136.431 121.204 140.636 124.172 137.668C127.14 134.7 127.121 132.436 126.741 131.675C125.218 129.582 121.489 126.538 118.75 131.104Z" fill="#FE8A26"/>
<path d="M145.861 130.533C146.147 132.055 145.993 134.169 142.151 133.101C137.014 131.675 136.158 136.811 141.01 139.095C145.005 140.236 150.713 139.951 151.855 133.101C151.284 129.962 144.434 126.538 145.861 130.533Z" fill="#FE8A26"/>
<path d="M137.585 121.115C136.634 122.447 135.302 125.51 137.585 127.108C140.439 129.106 142.722 130.818 142.151 125.967C142.151 124.14 145.196 123.874 146.718 123.969C148.906 124.35 152.996 124.312 151.855 121.115C150.428 117.12 140.154 116.264 137.585 121.115Z" fill="#FE8A26"/>
<path d="M122.174 124.54V124.254H122.166L122.157 124.255L122.174 124.54ZM114.469 130.533L114.197 130.619L114.206 130.649L114.222 130.677L114.469 130.533ZM116.181 137.382L116.015 137.15L116.181 137.382ZM110.473 136.811L110.675 136.61L110.659 136.594L110.641 136.581L110.473 136.811ZM123.887 118.261L123.773 118.523L123.887 118.261ZM118.75 131.104L118.505 130.957L118.379 131.167L118.567 131.323L118.75 131.104ZM122.174 133.958L122.452 134.022L122.492 133.851L122.357 133.738L122.174 133.958ZM126.741 131.675L126.996 131.547L126.985 131.526L126.971 131.507L126.741 131.675ZM137.585 121.115L137.817 121.281L137.829 121.266L137.837 121.249L137.585 121.115ZM137.585 127.108L137.749 126.875L137.585 127.108ZM142.151 125.967H141.866V125.984L141.868 126L142.151 125.967ZM146.718 123.969L146.766 123.688L146.751 123.685L146.735 123.684L146.718 123.969ZM151.855 121.115L151.586 121.211L151.855 121.115ZM145.861 130.533L146.142 130.48L146.138 130.458L146.13 130.437L145.861 130.533ZM142.151 133.101L142.228 132.827L142.151 133.101ZM141.01 139.095L140.888 139.353L140.909 139.363L140.931 139.369L141.01 139.095ZM151.855 133.101L152.136 133.148L152.144 133.099L152.135 133.05L151.855 133.101ZM122.157 124.255C120.566 124.351 118.25 124.77 116.494 125.731C115.614 126.212 114.852 126.841 114.403 127.656C113.95 128.48 113.833 129.467 114.197 130.619L114.741 130.447C114.42 129.43 114.531 128.607 114.903 127.931C115.281 127.245 115.942 126.683 116.768 126.231C118.421 125.327 120.643 124.918 122.192 124.825L122.157 124.255ZM114.222 130.677C114.72 131.529 115.212 132.315 115.615 132.993C116.024 133.683 116.352 134.281 116.557 134.81C116.762 135.34 116.831 135.77 116.758 136.135C116.686 136.49 116.471 136.825 116.015 137.15L116.347 137.614C116.89 137.226 117.21 136.777 117.317 136.248C117.422 135.73 117.312 135.18 117.089 134.604C116.866 134.027 116.516 133.394 116.106 132.702C115.688 131.998 115.217 131.249 114.715 130.389L114.222 130.677ZM116.015 137.15C114.526 138.214 112.285 138.219 110.675 136.61L110.272 137.013C112.087 138.828 114.64 138.833 116.347 137.614L116.015 137.15ZM110.641 136.581C108.651 135.133 105.37 130.349 108.736 122.946L108.216 122.709C104.732 130.374 108.11 135.445 110.306 137.042L110.641 136.581ZM108.736 122.946C110.401 119.281 113.233 117.786 116.113 117.395C119.009 117.002 121.952 117.729 123.773 118.523L124.001 118C122.111 117.176 119.061 116.419 116.036 116.83C112.994 117.243 109.975 118.839 108.216 122.709L108.736 122.946ZM123.773 118.523C123.882 118.57 124.034 118.687 124.21 118.885C124.382 119.078 124.56 119.33 124.726 119.623C125.057 120.212 125.321 120.939 125.377 121.638C125.434 122.335 125.284 122.974 124.83 123.44C124.373 123.908 123.559 124.254 122.174 124.254V124.825C123.644 124.825 124.634 124.458 125.238 123.838C125.845 123.216 126.011 122.393 125.946 121.592C125.881 120.792 125.585 119.985 125.223 119.343C125.041 119.021 124.84 118.734 124.636 118.505C124.437 118.281 124.219 118.095 124.001 118L123.773 118.523ZM118.567 131.323L121.992 134.177L122.357 133.738L118.932 130.885L118.567 131.323ZM121.896 133.893C121.751 134.521 121.617 135.259 121.544 135.969C121.472 136.673 121.458 137.372 121.566 137.91C121.621 138.178 121.71 138.431 121.859 138.624C122.016 138.828 122.236 138.961 122.516 138.973C122.78 138.984 123.062 138.885 123.358 138.706C123.657 138.526 123.994 138.25 124.374 137.869L123.97 137.466C123.608 137.828 123.308 138.07 123.063 138.218C122.815 138.367 122.646 138.407 122.539 138.403C122.448 138.399 122.378 138.362 122.311 138.276C122.237 138.18 122.172 138.023 122.126 137.797C122.035 137.345 122.042 136.714 122.112 136.027C122.182 135.346 122.312 134.631 122.452 134.022L121.896 133.893ZM124.374 137.869C127.378 134.865 127.457 132.47 126.996 131.547L126.485 131.802C126.785 132.401 126.902 134.534 123.97 137.466L124.374 137.869ZM126.971 131.507C126.194 130.438 124.836 129.097 123.286 128.619C122.502 128.377 121.66 128.354 120.828 128.71C119.999 129.064 119.211 129.78 118.505 130.957L118.994 131.251C119.658 130.145 120.364 129.529 121.052 129.235C121.737 128.942 122.437 128.955 123.118 129.165C124.498 129.59 125.765 130.818 126.51 131.842L126.971 131.507ZM137.353 120.949C136.86 121.64 136.265 122.78 136.09 123.97C135.913 125.172 136.164 126.462 137.422 127.342L137.749 126.875C136.723 126.156 136.498 125.116 136.655 124.053C136.813 122.979 137.359 121.923 137.817 121.281L137.353 120.949ZM137.422 127.342C138.131 127.839 138.819 128.327 139.436 128.699C140.043 129.066 140.628 129.349 141.129 129.39C141.388 129.412 141.643 129.371 141.865 129.226C142.087 129.082 142.244 128.857 142.348 128.57C142.551 128.013 142.578 127.152 142.435 125.933L141.868 126C142.01 127.207 141.966 127.952 141.812 128.375C141.738 128.58 141.645 128.689 141.554 128.748C141.465 128.806 141.345 128.836 141.176 128.822C140.821 128.792 140.336 128.576 139.73 128.211C139.134 127.851 138.467 127.377 137.749 126.875L137.422 127.342ZM142.437 125.967C142.437 125.259 143.016 124.797 143.945 124.521C144.853 124.251 145.958 124.208 146.7 124.254L146.735 123.684C145.955 123.636 144.777 123.678 143.782 123.974C142.809 124.263 141.866 124.848 141.866 125.967H142.437ZM146.669 124.25C147.779 124.443 149.402 124.538 150.62 124.156C151.232 123.964 151.781 123.64 152.089 123.105C152.4 122.563 152.427 121.869 152.123 121.019L151.586 121.211C151.853 121.96 151.796 122.469 151.594 122.821C151.387 123.181 150.991 123.441 150.449 123.611C149.36 123.952 147.844 123.875 146.766 123.688L146.669 124.25ZM152.123 121.019C151.731 119.921 150.746 119.072 149.506 118.489C148.261 117.904 146.723 117.567 145.158 117.512C142.052 117.404 138.695 118.409 137.333 120.982L137.837 121.249C139.044 118.97 142.108 117.977 145.138 118.083C146.64 118.135 148.1 118.459 149.263 119.006C150.431 119.555 151.265 120.312 151.586 121.211L152.123 121.019ZM145.581 130.586C145.65 130.952 145.689 131.342 145.658 131.702C145.627 132.062 145.526 132.373 145.334 132.607C144.966 133.052 144.127 133.354 142.228 132.827L142.075 133.376C144.018 133.916 145.176 133.695 145.774 132.97C146.065 132.618 146.189 132.182 146.227 131.751C146.264 131.32 146.216 130.875 146.142 130.48L145.581 130.586ZM142.228 132.827C140.903 132.458 139.815 132.503 139.01 132.853C138.196 133.207 137.696 133.866 137.554 134.656C137.273 136.224 138.398 138.181 140.888 139.353L141.131 138.836C138.77 137.725 137.898 135.972 138.116 134.757C138.224 134.157 138.597 133.655 139.238 133.376C139.886 133.094 140.832 133.031 142.075 133.376L142.228 132.827ZM140.931 139.369C142.96 139.949 145.455 140.177 147.604 139.361C149.777 138.537 151.55 136.662 152.136 133.148L151.573 133.055C151.017 136.39 149.365 138.083 147.401 138.828C145.412 139.582 143.055 139.382 141.088 138.82L140.931 139.369ZM152.135 133.05C151.978 132.184 151.397 131.331 150.678 130.612C149.955 129.889 149.063 129.272 148.23 128.883C147.813 128.689 147.403 128.547 147.03 128.481C146.662 128.416 146.301 128.418 146.004 128.545C145.687 128.68 145.474 128.943 145.405 129.316C145.34 129.669 145.407 130.108 145.593 130.629L146.13 130.437C145.959 129.959 145.928 129.631 145.967 129.419C146.002 129.227 146.094 129.127 146.227 129.07C146.38 129.005 146.614 128.987 146.93 129.043C147.241 129.098 147.602 129.22 147.988 129.4C148.76 129.761 149.598 130.339 150.275 131.016C150.956 131.697 151.446 132.45 151.574 133.153L152.135 133.05Z" fill="#EF8117"/>
<defs>
<filter id="filter0_f_1057_26802" x="-20" y="25" width="298" height="184" filterUnits="userSpaceOnUse" color-interpolation-filters="sRGB">
<feFlood flood-opacity="0" result="BackgroundImageFix"/>
<feBlend mode="normal" in="SourceGraphic" in2="BackgroundImageFix" result="shape"/>
<feGaussianBlur stdDeviation="18.5" result="effect1_foregroundBlur_1057_26802"/>
</filter>
<filter id="filter1_i_1057_26802" x="17" y="62" width="224.017" height="148" filterUnits="userSpaceOnUse" color-interpolation-filters="sRGB">
<feFlood flood-opacity="0" result="BackgroundImageFix"/>
<feBlend mode="normal" in="SourceGraphic" in2="BackgroundImageFix" result="shape"/>
<feColorMatrix in="SourceAlpha" type="matrix" values="0 0 0 0 0 0 0 0 0 0 0 0 0 0 0 0 0 0 127 0" result="hardAlpha"/>
<feOffset dy="-4"/>
<feComposite in2="hardAlpha" operator="arithmetic" k2="-1" k3="1"/>
<feColorMatrix type="matrix" values="0 0 0 0 0 0 0 0 0 0 0 0 0 0 0 0 0 0 0.15 0"/>
<feBlend mode="normal" in2="shape" result="effect1_innerShadow_1057_26802"/>
</filter>
<filter id="filter2_ii_1057_26802" x="17" y="62" width="224" height="148" filterUnits="userSpaceOnUse" color-interpolation-filters="sRGB">
<feFlood flood-opacity="0" result="BackgroundImageFix"/>
<feBlend mode="normal" in="SourceGraphic" in2="BackgroundImageFix" result="shape"/>
<feColorMatrix in="SourceAlpha" type="matrix" values="0 0 0 0 0 0 0 0 0 0 0 0 0 0 0 0 0 0 127 0" result="hardAlpha"/>
<feOffset dy="4"/>
<feComposite in2="hardAlpha" operator="arithmetic" k2="-1" k3="1"/>
<feColorMatrix type="matrix" values="0 0 0 0 1 0 0 0 0 1 0 0 0 0 1 0 0 0 0.25 0"/>
<feBlend mode="normal" in2="shape" result="effect1_innerShadow_1057_26802"/>
<feColorMatrix in="SourceAlpha" type="matrix" values="0 0 0 0 0 0 0 0 0 0 0 0 0 0 0 0 0 0 127 0" result="hardAlpha"/>
<feOffset dy="-4"/>
<feComposite in2="hardAlpha" operator="arithmetic" k2="-1" k3="1"/>
<feColorMatrix type="matrix" values="0 0 0 0 0 0 0 0 0 0 0 0 0 0 0 0 0 0 0.9 0"/>
<feBlend mode="soft-light" in2="effect1_innerShadow_1057_26802" result="effect2_innerShadow_1057_26802"/>
</filter>
<linearGradient id="paint0_linear_1057_26802" x1="17" y1="34" x2="197.768" y2="215.142" gradientUnits="userSpaceOnUse">
<stop stop-color="#05815D"/>
<stop offset="1" stop-color="#0C575F"/>
</linearGradient>
<linearGradient id="paint1_linear_1057_26802" x1="129" y1="62" x2="129" y2="210" gradientUnits="userSpaceOnUse">
<stop offset="0.693898" stop-color="#FFBF1A"/>
<stop offset="0.693998" stop-color="white"/>
</linearGradient>
<linearGradient id="paint2_linear_1057_26802" x1="17" y1="62" x2="241" y2="210" gradientUnits="userSpaceOnUse">
<stop stop-color="white" stop-opacity="0"/>
<stop offset="1" stop-opacity="0.3"/>
</linearGradient>
</defs>
</svg>
