<svg width="256" height="256" viewBox="0 0 256 256" fill="none" xmlns="http://www.w3.org/2000/svg">
<path fill-rule="evenodd" clip-rule="evenodd" d="M104.425 42.3784C100.056 37.0733 93.5437 34 86.6712 34H29C22.3726 34 17 39.3726 17 46V58.1371V68.2V160C17 166.627 22.3726 172 29 172H229C235.627 172 241 166.627 241 160V70.1371C241 63.5097 235.627 58.1371 229 58.1371H117.404L104.425 42.3784Z" fill="#2E2F2E"/>
<mask id="mask0_1054_26813" style="mask-type:alpha" maskUnits="userSpaceOnUse" x="17" y="34" width="224" height="138">
<path fill-rule="evenodd" clip-rule="evenodd" d="M104.425 42.3784C100.056 37.0733 93.5437 34 86.6712 34H29C22.3726 34 17 39.3726 17 46V58.1371V68.2V160C17 166.627 22.3726 172 29 172H229C235.627 172 241 166.627 241 160V70.1371C241 63.5097 235.627 58.1371 229 58.1371H117.404L104.425 42.3784Z" fill="url(#paint0_linear_1054_26813)"/>
</mask>
<g mask="url(#mask0_1054_26813)">
<g style="mix-blend-mode:multiply" filter="url(#filter0_f_1054_26813)">
<path fill-rule="evenodd" clip-rule="evenodd" d="M92.789 74C97.7642 74 102.605 72.3868 106.586 69.4024L116.459 62H229C235.627 62 241 67.3726 241 74V108V160C241 166.627 235.627 172 229 172H29C22.3726 172 17 166.627 17 160L17 108V86C17 79.3726 22.3726 74 29 74H87H92.789Z" fill="black" fill-opacity="0.3"/>
</g>
</g>
<g filter="url(#filter1_ii_1054_26813)">
<path fill-rule="evenodd" clip-rule="evenodd" d="M92.789 74C97.7642 74 102.605 72.3868 106.586 69.4024L116.459 62H229C235.627 62 241 67.3726 241 74V108V198C241 204.627 235.627 210 229 210H29C22.3726 210 17 204.627 17 198L17 108V86C17 79.3726 22.3726 74 29 74H87H92.789Z" fill="#343734"/>
</g>
<path d="M128.5 116C108.342 116 92 137.49 92 164C92 185.71 102.96 204.053 118 209.984H139C154.04 204.053 165 185.71 165 164C165 137.49 148.658 116 128.5 116Z" fill="#69BD51"/>
<path d="M241 116C220.565 116 203 137.49 203 164C203 185.778 214.18 204.169 229.5 210.04C235.851 210.04 241 204.891 241 198.54V116Z" fill="#69BD51"/>
<path d="M55 164C55 137.49 37.4345 116 17 116V198.148C17 204.655 22.2752 209.93 28.7824 209.93C43.9575 203.942 55 185.644 55 164Z" fill="#69BD51"/>
<path fill-rule="evenodd" clip-rule="evenodd" d="M129.491 181.984C138.374 181.984 145.71 175.362 146.833 166.784H241V162.2H146.833C145.711 153.623 138.374 147 129.491 147C120.608 147 113.271 153.623 112.149 162.2H17V166.784H112.149C113.271 175.362 120.608 181.984 129.491 181.984Z" fill="#FE6532"/>
<path fill-rule="evenodd" clip-rule="evenodd" d="M129.617 179.57C137.879 179.57 144.577 172.873 144.577 164.61C144.577 156.348 137.879 149.65 129.617 149.65C121.355 149.65 114.657 156.348 114.657 164.61C114.657 172.873 121.355 179.57 129.617 179.57ZM129.506 178.462C137.095 178.462 143.247 172.261 143.247 164.61C143.247 156.96 137.095 150.759 129.506 150.759C121.917 150.759 115.765 156.96 115.765 164.61C115.765 172.261 121.917 178.462 129.506 178.462Z" fill="#010204"/>
<mask id="path-10-outside-1_1054_26813" maskUnits="userSpaceOnUse" x="119.207" y="154.2" width="21" height="21" fill="black">
<rect fill="white" x="119.207" y="154.2" width="21" height="21"/>
<path fill-rule="evenodd" clip-rule="evenodd" d="M129.647 174.08C134.861 174.08 139.087 169.854 139.087 164.64C139.087 159.427 134.861 155.2 129.647 155.2C124.434 155.2 120.207 159.427 120.207 164.64C120.207 169.854 124.434 174.08 129.647 174.08ZM129.507 173C134.202 173 138.007 169.195 138.007 164.5C138.007 159.806 134.202 156 129.507 156C124.813 156 121.007 159.806 121.007 164.5C121.007 169.195 124.813 173 129.507 173Z"/>
</mask>
<path fill-rule="evenodd" clip-rule="evenodd" d="M129.647 174.08C134.861 174.08 139.087 169.854 139.087 164.64C139.087 159.427 134.861 155.2 129.647 155.2C124.434 155.2 120.207 159.427 120.207 164.64C120.207 169.854 124.434 174.08 129.647 174.08ZM129.507 173C134.202 173 138.007 169.195 138.007 164.5C138.007 159.806 134.202 156 129.507 156C124.813 156 121.007 159.806 121.007 164.5C121.007 169.195 124.813 173 129.507 173Z" fill="#010204"/>
<path d="M138.787 164.64C138.787 169.688 134.695 173.78 129.647 173.78V174.38C135.026 174.38 139.387 170.019 139.387 164.64H138.787ZM129.647 155.5C134.695 155.5 138.787 159.592 138.787 164.64H139.387C139.387 159.261 135.026 154.9 129.647 154.9V155.5ZM120.507 164.64C120.507 159.592 124.599 155.5 129.647 155.5V154.9C124.268 154.9 119.907 159.261 119.907 164.64H120.507ZM129.647 173.78C124.599 173.78 120.507 169.688 120.507 164.64H119.907C119.907 170.019 124.268 174.38 129.647 174.38V173.78ZM137.707 164.5C137.707 169.029 134.036 172.7 129.507 172.7V173.3C134.367 173.3 138.307 169.36 138.307 164.5H137.707ZM129.507 156.3C134.036 156.3 137.707 159.972 137.707 164.5H138.307C138.307 159.64 134.367 155.7 129.507 155.7V156.3ZM121.307 164.5C121.307 159.972 124.978 156.3 129.507 156.3V155.7C124.647 155.7 120.707 159.64 120.707 164.5H121.307ZM129.507 172.7C124.978 172.7 121.307 169.029 121.307 164.5H120.707C120.707 169.36 124.647 173.3 129.507 173.3V172.7Z" fill="black" mask="url(#path-10-outside-1_1054_26813)"/>
<path fill-rule="evenodd" clip-rule="evenodd" d="M116.459 62L106.586 69.4024C102.605 72.3868 97.7642 74 92.789 74H84.4253C91.5576 87.4757 109.051 97 129.5 97C155.618 97 176.914 81.4629 177.96 62H116.459Z" fill="#69BD51"/>
<g opacity="0.8">
<g filter="url(#filter2_ii_1054_26813)">
<path fill-rule="evenodd" clip-rule="evenodd" d="M92.789 74C97.7642 74 102.605 72.3868 106.586 69.4024L116.459 62H229C235.627 62 241 67.3726 241 74V108V198C241 204.627 235.627 210 229 210H29C22.3726 210 17 204.627 17 198L17 108V86C17 79.3726 22.3726 74 29 74H87H92.789Z" fill="url(#paint1_linear_1054_26813)" fill-opacity="0.3"/>
</g>
</g>
<defs>
<filter id="filter0_f_1054_26813" x="-20" y="25" width="298" height="184" filterUnits="userSpaceOnUse" color-interpolation-filters="sRGB">
<feFlood flood-opacity="0" result="BackgroundImageFix"/>
<feBlend mode="normal" in="SourceGraphic" in2="BackgroundImageFix" result="shape"/>
<feGaussianBlur stdDeviation="18.5" result="effect1_foregroundBlur_1054_26813"/>
</filter>
<filter id="filter1_ii_1054_26813" x="17" y="62" width="224" height="148" filterUnits="userSpaceOnUse" color-interpolation-filters="sRGB">
<feFlood flood-opacity="0" result="BackgroundImageFix"/>
<feBlend mode="normal" in="SourceGraphic" in2="BackgroundImageFix" result="shape"/>
<feColorMatrix in="SourceAlpha" type="matrix" values="0 0 0 0 0 0 0 0 0 0 0 0 0 0 0 0 0 0 127 0" result="hardAlpha"/>
<feOffset dy="4"/>
<feComposite in2="hardAlpha" operator="arithmetic" k2="-1" k3="1"/>
<feColorMatrix type="matrix" values="0 0 0 0 1 0 0 0 0 1 0 0 0 0 1 0 0 0 0.25 0"/>
<feBlend mode="normal" in2="shape" result="effect1_innerShadow_1054_26813"/>
<feColorMatrix in="SourceAlpha" type="matrix" values="0 0 0 0 0 0 0 0 0 0 0 0 0 0 0 0 0 0 127 0" result="hardAlpha"/>
<feOffset dy="-4"/>
<feComposite in2="hardAlpha" operator="arithmetic" k2="-1" k3="1"/>
<feColorMatrix type="matrix" values="0 0 0 0 0 0 0 0 0 0 0 0 0 0 0 0 0 0 0.9 0"/>
<feBlend mode="soft-light" in2="effect1_innerShadow_1054_26813" result="effect2_innerShadow_1054_26813"/>
</filter>
<filter id="filter2_ii_1054_26813" x="17" y="62" width="224" height="148" filterUnits="userSpaceOnUse" color-interpolation-filters="sRGB">
<feFlood flood-opacity="0" result="BackgroundImageFix"/>
<feBlend mode="normal" in="SourceGraphic" in2="BackgroundImageFix" result="shape"/>
<feColorMatrix in="SourceAlpha" type="matrix" values="0 0 0 0 0 0 0 0 0 0 0 0 0 0 0 0 0 0 127 0" result="hardAlpha"/>
<feOffset dy="4"/>
<feComposite in2="hardAlpha" operator="arithmetic" k2="-1" k3="1"/>
<feColorMatrix type="matrix" values="0 0 0 0 1 0 0 0 0 1 0 0 0 0 1 0 0 0 0.25 0"/>
<feBlend mode="normal" in2="shape" result="effect1_innerShadow_1054_26813"/>
<feColorMatrix in="SourceAlpha" type="matrix" values="0 0 0 0 0 0 0 0 0 0 0 0 0 0 0 0 0 0 127 0" result="hardAlpha"/>
<feOffset dy="-4"/>
<feComposite in2="hardAlpha" operator="arithmetic" k2="-1" k3="1"/>
<feColorMatrix type="matrix" values="0 0 0 0 0 0 0 0 0 0 0 0 0 0 0 0 0 0 0.25 0"/>
<feBlend mode="soft-light" in2="effect1_innerShadow_1054_26813" result="effect2_innerShadow_1054_26813"/>
</filter>
<linearGradient id="paint0_linear_1054_26813" x1="17" y1="34" x2="197.768" y2="215.142" gradientUnits="userSpaceOnUse">
<stop stop-color="#05815D"/>
<stop offset="1" stop-color="#0C575F"/>
</linearGradient>
<linearGradient id="paint1_linear_1054_26813" x1="17" y1="62" x2="241" y2="210" gradientUnits="userSpaceOnUse">
<stop stop-color="white" stop-opacity="0"/>
<stop offset="1" stop-opacity="0.51"/>
</linearGradient>
</defs>
</svg>
