<svg width="256" height="256" viewBox="0 0 256 256" fill="none" xmlns="http://www.w3.org/2000/svg">
<path fill-rule="evenodd" clip-rule="evenodd" d="M86.6712 34C93.5437 34 100.056 37.0733 104.425 42.3784L117.404 58.1371H229C235.627 58.1371 241 63.5097 241 70.1371V74C241 67.3726 235.627 62 229 62H179H116.459L106.586 69.4024C102.605 72.3868 97.7642 74 92.789 74H79H29C22.3726 74 17 79.3726 17 86V108L17 153V46C17 39.3726 22.3726 34 29 34H86.6712Z" fill="url(#paint0_linear_1945_30615)"/>
<path d="M106.586 69.4024C102.605 72.3868 97.7642 74 92.789 74H79V165H179V62H116.459L106.586 69.4024Z" fill="url(#paint1_linear_1945_30615)"/>
<path d="M17 86V108L17 153V160C17 165.478 20.6704 165.316 25.6861 165.095C26.7386 165.049 27.8504 165 29 165H79V74H29C22.3726 74 17 79.3726 17 86Z" fill="url(#paint2_linear_1945_30615)"/>
<path d="M241 108V74C241 67.3726 235.627 62 229 62H179V165H229C230.15 165 231.261 165.049 232.314 165.095C237.33 165.316 241 165.478 241 160V108Z" fill="url(#paint3_linear_1945_30615)"/>
<path d="M241 198V160C241 165.478 237.33 165.316 232.314 165.095C231.261 165.049 230.15 165 229 165H179H79H29C27.8504 165 26.7386 165.049 25.6861 165.095C20.6704 165.316 17 165.478 17 160L17 198C17 204.627 22.3726 210 29 210H229C235.627 210 241 204.627 241 198Z" fill="url(#paint4_linear_1945_30615)"/>
<path fill-rule="evenodd" clip-rule="evenodd" d="M153.275 171C150.588 181.908 140.738 190 129 190C117.262 190 107.412 181.908 104.725 171H17V159H104.725C107.412 148.092 117.262 140 129 140C140.738 140 150.588 148.092 153.275 159H241V171H153.275ZM129 183C138.941 183 147 174.941 147 165C147 155.059 138.941 147 129 147C119.059 147 111 155.059 111 165C111 174.941 119.059 183 129 183Z" fill="#303030"/>
<path fill-rule="evenodd" clip-rule="evenodd" d="M129 178C136.18 178 142 172.18 142 165C142 157.82 136.18 152 129 152C121.82 152 116 157.82 116 165C116 172.18 121.82 178 129 178ZM141 165C141 171.627 135.627 177 129 177C122.373 177 117 171.627 117 165C117 158.373 122.373 153 129 153C135.627 153 141 158.373 141 165Z" fill="#303030"/>
<path fill-rule="evenodd" clip-rule="evenodd" d="M146 165C146 174.389 138.389 182 129 182C119.611 182 112 174.389 112 165C112 155.611 119.611 148 129 148C138.389 148 146 155.611 146 165ZM142 165C142 172.18 136.18 178 129 178C121.82 178 116 172.18 116 165C116 157.82 121.82 152 129 152C136.18 152 142 157.82 142 165Z" fill="white"/>
<path d="M129 177C135.627 177 141 171.627 141 165C141 158.373 135.627 153 129 153C122.373 153 117 158.373 117 165C117 171.627 122.373 177 129 177Z" fill="white"/>
<path fill-rule="evenodd" clip-rule="evenodd" d="M147 165C147 174.941 138.941 183 129 183C119.059 183 111 174.941 111 165C111 155.059 119.059 147 129 147C138.941 147 147 155.059 147 165ZM129 182C138.389 182 146 174.389 146 165C146 155.611 138.389 148 129 148C119.611 148 112 155.611 112 165C112 174.389 119.611 182 129 182Z" fill="#313131"/>
<g opacity="0.8">
<g filter="url(#filter0_ii_1945_30615)">
<path fill-rule="evenodd" clip-rule="evenodd" d="M92.789 74C97.7642 74 102.605 72.3868 106.586 69.4024L116.459 62H229C235.627 62 241 67.3726 241 74V108V198C241 204.627 235.627 210 229 210H29C22.3726 210 17 204.627 17 198L17 108V86C17 79.3726 22.3726 74 29 74H87H92.789Z" fill="url(#paint5_linear_1945_30615)" fill-opacity="0.3"/>
</g>
</g>
<defs>
<filter id="filter0_ii_1945_30615" x="17" y="62" width="224" height="148" filterUnits="userSpaceOnUse" color-interpolation-filters="sRGB">
<feFlood flood-opacity="0" result="BackgroundImageFix"/>
<feBlend mode="normal" in="SourceGraphic" in2="BackgroundImageFix" result="shape"/>
<feColorMatrix in="SourceAlpha" type="matrix" values="0 0 0 0 0 0 0 0 0 0 0 0 0 0 0 0 0 0 127 0" result="hardAlpha"/>
<feOffset dy="4"/>
<feComposite in2="hardAlpha" operator="arithmetic" k2="-1" k3="1"/>
<feColorMatrix type="matrix" values="0 0 0 0 1 0 0 0 0 1 0 0 0 0 1 0 0 0 0.15 0"/>
<feBlend mode="normal" in2="shape" result="effect1_innerShadow_1945_30615"/>
<feColorMatrix in="SourceAlpha" type="matrix" values="0 0 0 0 0 0 0 0 0 0 0 0 0 0 0 0 0 0 127 0" result="hardAlpha"/>
<feOffset dy="-4"/>
<feComposite in2="hardAlpha" operator="arithmetic" k2="-1" k3="1"/>
<feColorMatrix type="matrix" values="0 0 0 0 0 0 0 0 0 0 0 0 0 0 0 0 0 0 0.25 0"/>
<feBlend mode="soft-light" in2="effect1_innerShadow_1945_30615" result="effect2_innerShadow_1945_30615"/>
</filter>
<linearGradient id="paint0_linear_1945_30615" x1="147.5" y1="62" x2="148" y2="210" gradientUnits="userSpaceOnUse">
<stop stop-color="#353536"/>
<stop offset="1" stop-color="#EFC818"/>
</linearGradient>
<linearGradient id="paint1_linear_1945_30615" x1="147.5" y1="62" x2="148" y2="210" gradientUnits="userSpaceOnUse">
<stop stop-color="#F9DA15"/>
<stop offset="0.692608" stop-color="#F5C30E"/>
<stop offset="0.725249" stop-color="white"/>
</linearGradient>
<linearGradient id="paint2_linear_1945_30615" x1="147.5" y1="62" x2="148" y2="210" gradientUnits="userSpaceOnUse">
<stop stop-color="#424146"/>
<stop offset="0.692608" stop-color="#2A2A2A"/>
<stop offset="0.725249" stop-color="white"/>
</linearGradient>
<linearGradient id="paint3_linear_1945_30615" x1="147.5" y1="62" x2="148" y2="210" gradientUnits="userSpaceOnUse">
<stop stop-color="#424146"/>
<stop offset="0.692608" stop-color="#2A2A2A"/>
<stop offset="0.725249" stop-color="white"/>
</linearGradient>
<linearGradient id="paint4_linear_1945_30615" x1="147.5" y1="62" x2="148" y2="210" gradientUnits="userSpaceOnUse">
<stop offset="0.725249" stop-color="white"/>
</linearGradient>
<linearGradient id="paint5_linear_1945_30615" x1="17" y1="62" x2="241" y2="210" gradientUnits="userSpaceOnUse">
<stop stop-color="white" stop-opacity="0"/>
<stop offset="1" stop-opacity="0.51"/>
</linearGradient>
</defs>
</svg>
