<svg width="256" height="256" viewBox="0 0 256 256" fill="none" xmlns="http://www.w3.org/2000/svg">
<path fill-rule="evenodd" clip-rule="evenodd" d="M104.425 42.3784C100.056 37.0733 93.5437 34 86.6712 34H29C22.3726 34 17 39.3726 17 46V58.1371V68.2V160C17 166.627 22.3726 172 29 172H229C235.627 172 241 166.627 241 160V70.1371C241 63.5097 235.627 58.1371 229 58.1371H117.404L104.425 42.3784Z" fill="#0B4965"/>
<mask id="mask0_1980_30904" style="mask-type:alpha" maskUnits="userSpaceOnUse" x="17" y="34" width="224" height="138">
<path fill-rule="evenodd" clip-rule="evenodd" d="M104.425 42.3784C100.056 37.0733 93.5437 34 86.6712 34H29C22.3726 34 17 39.3726 17 46V58.1371V68.2V160C17 166.627 22.3726 172 29 172H229C235.627 172 241 166.627 241 160V70.1371C241 63.5097 235.627 58.1371 229 58.1371H117.404L104.425 42.3784Z" fill="url(#paint0_linear_1980_30904)"/>
</mask>
<g mask="url(#mask0_1980_30904)">
<g style="mix-blend-mode:multiply" filter="url(#filter0_f_1980_30904)">
<path fill-rule="evenodd" clip-rule="evenodd" d="M92.789 74C97.7642 74 102.605 72.3868 106.586 69.4024L116.459 62H229C235.627 62 241 67.3726 241 74V108V160C241 166.627 235.627 172 229 172H29C22.3726 172 17 166.627 17 160L17 108V86C17 79.3726 22.3726 74 29 74H87H92.789Z" fill="black" fill-opacity="0.3"/>
</g>
</g>
<g filter="url(#filter1_ii_1980_30904)">
<path fill-rule="evenodd" clip-rule="evenodd" d="M92.789 74C97.7642 74 102.605 72.3868 106.586 69.4024L116.459 62H229C235.627 62 241 67.3726 241 74V108V198C241 204.627 235.627 210 229 210H29C22.3726 210 17 204.627 17 198V108V86C17 79.3726 22.3726 74 29 74H87H92.789Z" fill="url(#paint1_linear_1980_30904)"/>
</g>
<g filter="url(#filter2_i_1980_30904)">
<path d="M169.488 93.5C176.288 87.1 193.321 67.1667 200.988 58H231.988C238.615 58 243.988 63.3726 243.988 70V86.5C242.488 90.5 219.988 103 206.488 110.5C193.39 117.777 172.488 125.5 168.488 123.5C165.288 121.9 160.821 115.833 158.988 113C155.388 107.4 157.488 104.5 158.988 103C160.988 101 162.688 99.9 169.488 93.5Z" fill="url(#paint2_linear_1980_30904)"/>
<path d="M97.0239 104C95.0235 102 93.3229 100.9 86.521 94.5C82.0104 90.2559 72.9983 80.0605 65.2022 71H24C17.3726 71 12 76.3726 12 83V87.5C13.5004 91.5 36.0067 104 49.5105 111.5C62.612 118.777 83.5201 126.5 87.5212 124.5C90.7221 122.9 95.1901 116.833 97.0239 114C100.625 108.4 98.5243 105.5 97.0239 104Z" fill="url(#paint3_linear_1980_30904)"/>
</g>
<g filter="url(#filter3_ii_1980_30904)">
<path fill-rule="evenodd" clip-rule="evenodd" d="M241 89.6594V108V198C241 204.627 235.627 210 229 210H29C22.3726 210 17 204.627 17 198V108V92.1765C14.2436 90.1932 12.3948 88.5524 12 87.5V83C12 76.3726 17.3726 71 24 71H65.2022C66.0536 71.9895 66.9196 72.9926 67.7926 74H87H92.789C97.7642 74 102.605 72.3868 106.586 69.4024L116.459 62H197.623C198.871 60.5241 200.006 59.1738 200.988 58H231.988C238.615 58 243.988 63.3726 243.988 70V86.5C243.699 87.2702 242.632 88.3554 241 89.6594Z" fill="url(#paint4_linear_1980_30904)"/>
</g>
<path fill-rule="evenodd" clip-rule="evenodd" d="M153.275 171C150.588 181.908 140.738 190 129 190C117.262 190 107.412 181.908 104.725 171H17V159H104.725C107.412 148.092 117.262 140 129 140C140.738 140 150.588 148.092 153.275 159H241V171H153.275ZM129 183C138.941 183 147 174.941 147 165C147 155.059 138.941 147 129 147C119.059 147 111 155.059 111 165C111 174.941 119.059 183 129 183Z" fill="#303030"/>
<path fill-rule="evenodd" clip-rule="evenodd" d="M129 178C136.18 178 142 172.18 142 165C142 157.82 136.18 152 129 152C121.82 152 116 157.82 116 165C116 172.18 121.82 178 129 178ZM141 165C141 171.627 135.627 177 129 177C122.373 177 117 171.627 117 165C117 158.373 122.373 153 129 153C135.627 153 141 158.373 141 165Z" fill="#303030"/>
<path fill-rule="evenodd" clip-rule="evenodd" d="M146 165C146 174.389 138.389 182 129 182C119.611 182 112 174.389 112 165C112 155.611 119.611 148 129 148C138.389 148 146 155.611 146 165ZM142 165C142 172.18 136.18 178 129 178C121.82 178 116 172.18 116 165C116 157.82 121.82 152 129 152C136.18 152 142 157.82 142 165Z" fill="white"/>
<path d="M129 177C135.627 177 141 171.627 141 165C141 158.373 135.627 153 129 153C122.373 153 117 158.373 117 165C117 171.627 122.373 177 129 177Z" fill="white"/>
<path fill-rule="evenodd" clip-rule="evenodd" d="M147 165C147 174.941 138.941 183 129 183C119.059 183 111 174.941 111 165C111 155.059 119.059 147 129 147C138.941 147 147 155.059 147 165ZM129 182C138.389 182 146 174.389 146 165C146 155.611 138.389 148 129 148C119.611 148 112 155.611 112 165C112 174.389 119.611 182 129 182Z" fill="#313131"/>
<path d="M132.356 122.021C132.356 121.468 132.27 120.981 132.096 120.558C131.934 120.125 131.641 119.735 131.219 119.388C130.807 119.041 130.233 118.711 129.496 118.397C128.771 118.083 127.85 117.763 126.734 117.438C125.564 117.091 124.508 116.707 123.565 116.284C122.623 115.851 121.816 115.358 121.144 114.806C120.472 114.253 119.958 113.619 119.6 112.904C119.243 112.189 119.064 111.371 119.064 110.451C119.064 109.53 119.253 108.679 119.633 107.899C120.012 107.119 120.553 106.442 121.258 105.868C121.973 105.283 122.823 104.828 123.809 104.503C124.795 104.178 125.894 104.016 127.108 104.016C128.884 104.016 130.39 104.357 131.625 105.039C132.871 105.711 133.819 106.594 134.469 107.688C134.84 108.307 135.106 108.951 135.265 109.62C135.464 110.458 134.745 111.166 133.884 111.166V111.166C133.022 111.166 132.359 110.45 132.104 109.627C132.015 109.34 131.898 109.067 131.755 108.809C131.376 108.116 130.802 107.574 130.033 107.184C129.263 106.784 128.288 106.583 127.108 106.583C125.992 106.583 125.071 106.751 124.345 107.087C123.619 107.423 123.078 107.878 122.72 108.452C122.373 109.026 122.2 109.681 122.2 110.418C122.2 110.916 122.303 111.371 122.509 111.783C122.726 112.184 123.056 112.558 123.5 112.904C123.955 113.251 124.529 113.571 125.223 113.863C125.927 114.156 126.766 114.437 127.741 114.708C129.085 115.087 130.244 115.51 131.219 115.976C132.194 116.441 132.996 116.967 133.624 117.552C134.263 118.126 134.734 118.781 135.038 119.518C135.352 120.244 135.509 121.067 135.509 121.988C135.509 122.952 135.314 123.824 134.924 124.604C134.534 125.384 133.976 126.051 133.25 126.603C132.524 127.156 131.652 127.584 130.634 127.887C129.626 128.179 128.5 128.326 127.254 128.326C126.16 128.326 125.082 128.174 124.02 127.871C122.969 127.567 122.011 127.112 121.144 126.506C120.288 125.899 119.6 125.151 119.08 124.263C118.807 123.78 118.606 123.256 118.48 122.691C118.291 121.851 119.015 121.143 119.876 121.143V121.143C120.738 121.143 121.392 121.862 121.666 122.679C121.732 122.876 121.813 123.063 121.908 123.239C122.222 123.814 122.65 124.29 123.191 124.669C123.744 125.049 124.367 125.33 125.06 125.514C125.764 125.688 126.496 125.774 127.254 125.774C128.348 125.774 129.274 125.623 130.033 125.319C130.791 125.016 131.365 124.583 131.755 124.019C132.156 123.456 132.356 122.79 132.356 122.021Z" fill="white"/>
<defs>
<filter id="filter0_f_1980_30904" x="-20" y="25" width="298" height="184" filterUnits="userSpaceOnUse" color-interpolation-filters="sRGB">
<feFlood flood-opacity="0" result="BackgroundImageFix"/>
<feBlend mode="normal" in="SourceGraphic" in2="BackgroundImageFix" result="shape"/>
<feGaussianBlur stdDeviation="18.5" result="effect1_foregroundBlur_1980_30904"/>
</filter>
<filter id="filter1_ii_1980_30904" x="17" y="62" width="224" height="148" filterUnits="userSpaceOnUse" color-interpolation-filters="sRGB">
<feFlood flood-opacity="0" result="BackgroundImageFix"/>
<feBlend mode="normal" in="SourceGraphic" in2="BackgroundImageFix" result="shape"/>
<feColorMatrix in="SourceAlpha" type="matrix" values="0 0 0 0 0 0 0 0 0 0 0 0 0 0 0 0 0 0 127 0" result="hardAlpha"/>
<feOffset dy="4"/>
<feComposite in2="hardAlpha" operator="arithmetic" k2="-1" k3="1"/>
<feColorMatrix type="matrix" values="0 0 0 0 1 0 0 0 0 1 0 0 0 0 1 0 0 0 0.25 0"/>
<feBlend mode="normal" in2="shape" result="effect1_innerShadow_1980_30904"/>
<feColorMatrix in="SourceAlpha" type="matrix" values="0 0 0 0 0 0 0 0 0 0 0 0 0 0 0 0 0 0 127 0" result="hardAlpha"/>
<feOffset dy="-4"/>
<feComposite in2="hardAlpha" operator="arithmetic" k2="-1" k3="1"/>
<feColorMatrix type="matrix" values="0 0 0 0 0 0 0 0 0 0 0 0 0 0 0 0 0 0 0.9 0"/>
<feBlend mode="soft-light" in2="effect1_innerShadow_1980_30904" result="effect2_innerShadow_1980_30904"/>
</filter>
<filter id="filter2_i_1980_30904" x="12" y="58" width="231.988" height="66.8203" filterUnits="userSpaceOnUse" color-interpolation-filters="sRGB">
<feFlood flood-opacity="0" result="BackgroundImageFix"/>
<feBlend mode="normal" in="SourceGraphic" in2="BackgroundImageFix" result="shape"/>
<feColorMatrix in="SourceAlpha" type="matrix" values="0 0 0 0 0 0 0 0 0 0 0 0 0 0 0 0 0 0 127 0" result="hardAlpha"/>
<feOffset dy="4"/>
<feComposite in2="hardAlpha" operator="arithmetic" k2="-1" k3="1"/>
<feColorMatrix type="matrix" values="0 0 0 0 1 0 0 0 0 1 0 0 0 0 1 0 0 0 0.25 0"/>
<feBlend mode="normal" in2="shape" result="effect1_innerShadow_1980_30904"/>
</filter>
<filter id="filter3_ii_1980_30904" x="12" y="58" width="231.988" height="152" filterUnits="userSpaceOnUse" color-interpolation-filters="sRGB">
<feFlood flood-opacity="0" result="BackgroundImageFix"/>
<feBlend mode="normal" in="SourceGraphic" in2="BackgroundImageFix" result="shape"/>
<feColorMatrix in="SourceAlpha" type="matrix" values="0 0 0 0 0 0 0 0 0 0 0 0 0 0 0 0 0 0 127 0" result="hardAlpha"/>
<feOffset dy="4"/>
<feComposite in2="hardAlpha" operator="arithmetic" k2="-1" k3="1"/>
<feColorMatrix type="matrix" values="0 0 0 0 1 0 0 0 0 1 0 0 0 0 1 0 0 0 0.15 0"/>
<feBlend mode="normal" in2="shape" result="effect1_innerShadow_1980_30904"/>
<feColorMatrix in="SourceAlpha" type="matrix" values="0 0 0 0 0 0 0 0 0 0 0 0 0 0 0 0 0 0 127 0" result="hardAlpha"/>
<feOffset dy="-4"/>
<feComposite in2="hardAlpha" operator="arithmetic" k2="-1" k3="1"/>
<feColorMatrix type="matrix" values="0 0 0 0 0 0 0 0 0 0 0 0 0 0 0 0 0 0 0.25 0"/>
<feBlend mode="soft-light" in2="effect1_innerShadow_1980_30904" result="effect2_innerShadow_1980_30904"/>
</filter>
<linearGradient id="paint0_linear_1980_30904" x1="17" y1="34" x2="197.768" y2="215.142" gradientUnits="userSpaceOnUse">
<stop stop-color="#05815D"/>
<stop offset="1" stop-color="#0C575F"/>
</linearGradient>
<linearGradient id="paint1_linear_1980_30904" x1="147.5" y1="62" x2="148" y2="210" gradientUnits="userSpaceOnUse">
<stop stop-color="#3DC9EB"/>
<stop offset="0.692608" stop-color="#057CAF"/>
<stop offset="0.692708" stop-color="white"/>
</linearGradient>
<linearGradient id="paint2_linear_1980_30904" x1="127.994" y1="58" x2="127.994" y2="124.821" gradientUnits="userSpaceOnUse">
<stop stop-color="#53525D"/>
<stop offset="1" stop-color="#2C2C2C"/>
</linearGradient>
<linearGradient id="paint3_linear_1980_30904" x1="127.994" y1="58" x2="127.994" y2="124.821" gradientUnits="userSpaceOnUse">
<stop stop-color="#53525D"/>
<stop offset="1" stop-color="#2C2C2C"/>
</linearGradient>
<linearGradient id="paint4_linear_1980_30904" x1="12" y1="58" x2="243.732" y2="211.386" gradientUnits="userSpaceOnUse">
<stop stop-color="white" stop-opacity="0"/>
<stop offset="1" stop-opacity="0.51"/>
</linearGradient>
</defs>
</svg>
