<svg width="256" height="256" viewBox="0 0 256 256" fill="none" xmlns="http://www.w3.org/2000/svg">
<path fill-rule="evenodd" clip-rule="evenodd" d="M104.425 42.3784C100.056 37.0733 93.5437 34 86.6712 34H29C22.3726 34 17 39.3726 17 46V58.1371V68.2V160C17 166.627 22.3726 172 29 172H229C235.627 172 241 166.627 241 160V70.1371C241 63.5097 235.627 58.1371 229 58.1371H117.404L104.425 42.3784Z" fill="#1E3358"/>
<mask id="mask0_682_18481" style="mask-type:alpha" maskUnits="userSpaceOnUse" x="17" y="34" width="224" height="138">
<path fill-rule="evenodd" clip-rule="evenodd" d="M104.425 42.3784C100.056 37.0733 93.5437 34 86.6712 34H29C22.3726 34 17 39.3726 17 46V58.1371V68.2V160C17 166.627 22.3726 172 29 172H229C235.627 172 241 166.627 241 160V70.1371C241 63.5097 235.627 58.1371 229 58.1371H117.404L104.425 42.3784Z" fill="url(#paint0_linear_682_18481)"/>
</mask>
<g mask="url(#mask0_682_18481)">
<g style="mix-blend-mode:multiply" filter="url(#filter0_f_682_18481)">
<path fill-rule="evenodd" clip-rule="evenodd" d="M92.789 74C97.7642 74 102.605 72.3868 106.586 69.4024L116.459 62H229C235.627 62 241 67.3726 241 74V108V160C241 166.627 235.627 172 229 172H29C22.3726 172 17 166.627 17 160L17 108V86C17 79.3726 22.3726 74 29 74H87H92.789Z" fill="black" fill-opacity="0.3"/>
</g>
</g>
<g filter="url(#filter1_ii_682_18481)">
<rect x="17" y="97" width="224" height="100" fill="#02B2CA"/>
<path d="M142.247 168H115.753C88.0538 198.947 63.9677 176.842 44.6989 177.947C29.2839 178.832 19.81 190.105 17 195.632V198C17 204.627 22.3726 210 29 210H229C235.627 210 241 204.627 241 198V196.737C222.936 172.421 209.688 176.842 184.398 184.579C165.891 190.241 148.67 176.105 142.247 168Z" fill="#3058A0"/>
<path fill-rule="evenodd" clip-rule="evenodd" d="M92.789 74C97.7642 74 102.605 72.3868 106.586 69.4024L116.377 62.0613L116.5 62H229C235.627 62 241 67.3726 241 74V115.523C239.927 116.855 238.18 120.239 236.398 123.693C234.558 127.256 232.68 130.895 231.462 132.434C231.268 132.68 231.069 132.934 230.866 133.194C227.926 136.949 223.971 142 218.109 142C212.297 142 206.485 136.723 202.629 133.222C202.327 132.947 202.036 132.684 201.759 132.434C200.778 131.552 199.67 130.37 198.477 129.098C195.035 125.426 190.889 121.003 187.044 120.869C183.553 120.747 179.173 124.771 176.576 127.156C176.092 127.602 175.669 127.99 175.326 128.283C166.061 134.6 161.156 131.171 158.703 128.644C156.911 126.798 156.728 126.499 153.195 120.724C151.965 118.713 150.328 116.037 148.075 112.401C139.628 99.0453 131.907 96.8046 128.182 97.0453C119.244 96.9009 112.314 106.986 109.38 112.401C106.327 118.032 103.384 122.869 98.4793 128.644C93.0292 134.42 85.6715 131.171 82.4015 128.283C81.7665 127.723 81.1234 127.095 80.4608 126.448C77.7111 123.763 74.6274 120.753 70.4112 120.869C65.5481 121.003 59.3667 128.177 56.3307 131.7C56.1003 131.967 55.8881 132.214 55.6959 132.434C47.2482 140.556 44.7956 142 38.8005 142C33.5684 141.856 28.0819 135.563 25.9927 132.434L17 115.523V86C17 79.3726 22.3726 74 29 74H92.5H92.789Z" fill="#FEFEFE"/>
<path d="M129 86C136.18 86 142 75.2548 142 62H116C116 75.2548 121.82 86 129 86Z" fill="#01B1C9"/>
</g>
<circle cx="129.613" cy="164.613" r="14.9589" fill="#FEFEFE"/>
<path fill-rule="evenodd" clip-rule="evenodd" d="M129.613 175.229C135.476 175.229 140.229 170.476 140.229 164.613C140.229 158.75 135.476 153.997 129.613 153.997C123.75 153.997 118.997 158.75 118.997 164.613C118.997 170.476 123.75 175.229 129.613 175.229ZM129.686 173.765C134.7 173.765 138.764 169.7 138.764 164.686C138.764 159.672 134.7 155.608 129.686 155.608C124.672 155.608 120.608 159.672 120.608 164.686C120.608 169.7 124.672 173.765 129.686 173.765Z" fill="#000101"/>
<path fill-rule="evenodd" clip-rule="evenodd" d="M129.492 181.984C138.376 181.984 145.713 175.362 146.836 166.784H241.017V162.2H146.836C145.713 153.623 138.376 147 129.492 147C120.608 147 113.271 153.623 112.149 162.2H17V166.784H112.149C113.271 175.362 120.608 181.984 129.492 181.984ZM129.613 179.572C137.874 179.572 144.572 172.874 144.572 164.613C144.572 156.351 137.874 149.654 129.613 149.654C121.351 149.654 114.654 156.351 114.654 164.613C114.654 172.874 121.351 179.572 129.613 179.572Z" fill="black"/>
<g opacity="0.8">
<g filter="url(#filter2_ii_682_18481)">
<path fill-rule="evenodd" clip-rule="evenodd" d="M92.789 74C97.7642 74 102.605 72.3868 106.586 69.4024L116.459 62H229C235.627 62 241 67.3726 241 74V108V198C241 204.627 235.627 210 229 210H29C22.3726 210 17 204.627 17 198L17 108V86C17 79.3726 22.3726 74 29 74H87H92.789Z" fill="url(#paint1_linear_682_18481)"/>
</g>
</g>
<defs>
<filter id="filter0_f_682_18481" x="-20" y="25" width="298" height="184" filterUnits="userSpaceOnUse" color-interpolation-filters="sRGB">
<feFlood flood-opacity="0" result="BackgroundImageFix"/>
<feBlend mode="normal" in="SourceGraphic" in2="BackgroundImageFix" result="shape"/>
<feGaussianBlur stdDeviation="18.5" result="effect1_foregroundBlur_682_18481"/>
</filter>
<filter id="filter1_ii_682_18481" x="17" y="62" width="224" height="148" filterUnits="userSpaceOnUse" color-interpolation-filters="sRGB">
<feFlood flood-opacity="0" result="BackgroundImageFix"/>
<feBlend mode="normal" in="SourceGraphic" in2="BackgroundImageFix" result="shape"/>
<feColorMatrix in="SourceAlpha" type="matrix" values="0 0 0 0 0 0 0 0 0 0 0 0 0 0 0 0 0 0 127 0" result="hardAlpha"/>
<feOffset dy="4"/>
<feComposite in2="hardAlpha" operator="arithmetic" k2="-1" k3="1"/>
<feColorMatrix type="matrix" values="0 0 0 0 1 0 0 0 0 1 0 0 0 0 1 0 0 0 0.25 0"/>
<feBlend mode="normal" in2="shape" result="effect1_innerShadow_682_18481"/>
<feColorMatrix in="SourceAlpha" type="matrix" values="0 0 0 0 0 0 0 0 0 0 0 0 0 0 0 0 0 0 127 0" result="hardAlpha"/>
<feOffset dy="-4"/>
<feComposite in2="hardAlpha" operator="arithmetic" k2="-1" k3="1"/>
<feColorMatrix type="matrix" values="0 0 0 0 0 0 0 0 0 0 0 0 0 0 0 0 0 0 0.9 0"/>
<feBlend mode="soft-light" in2="effect1_innerShadow_682_18481" result="effect2_innerShadow_682_18481"/>
</filter>
<filter id="filter2_ii_682_18481" x="17" y="62" width="224" height="148" filterUnits="userSpaceOnUse" color-interpolation-filters="sRGB">
<feFlood flood-opacity="0" result="BackgroundImageFix"/>
<feBlend mode="normal" in="SourceGraphic" in2="BackgroundImageFix" result="shape"/>
<feColorMatrix in="SourceAlpha" type="matrix" values="0 0 0 0 0 0 0 0 0 0 0 0 0 0 0 0 0 0 127 0" result="hardAlpha"/>
<feOffset dy="4"/>
<feComposite in2="hardAlpha" operator="arithmetic" k2="-1" k3="1"/>
<feColorMatrix type="matrix" values="0 0 0 0 1 0 0 0 0 1 0 0 0 0 1 0 0 0 0.25 0"/>
<feBlend mode="normal" in2="shape" result="effect1_innerShadow_682_18481"/>
<feColorMatrix in="SourceAlpha" type="matrix" values="0 0 0 0 0 0 0 0 0 0 0 0 0 0 0 0 0 0 127 0" result="hardAlpha"/>
<feOffset dy="-4"/>
<feComposite in2="hardAlpha" operator="arithmetic" k2="-1" k3="1"/>
<feColorMatrix type="matrix" values="0 0 0 0 0 0 0 0 0 0 0 0 0 0 0 0 0 0 0.25 0"/>
<feBlend mode="soft-light" in2="effect1_innerShadow_682_18481" result="effect2_innerShadow_682_18481"/>
</filter>
<linearGradient id="paint0_linear_682_18481" x1="17" y1="34" x2="197.768" y2="215.142" gradientUnits="userSpaceOnUse">
<stop stop-color="#05815D"/>
<stop offset="1" stop-color="#0C575F"/>
</linearGradient>
<linearGradient id="paint1_linear_682_18481" x1="17" y1="62" x2="241" y2="210" gradientUnits="userSpaceOnUse">
<stop stop-color="white" stop-opacity="0"/>
<stop offset="1" stop-opacity="0.51"/>
</linearGradient>
</defs>
</svg>
