<svg width="256" height="256" viewBox="0 0 256 256" fill="none" xmlns="http://www.w3.org/2000/svg">
<path fill-rule="evenodd" clip-rule="evenodd" d="M104.425 42.3784C100.056 37.0733 93.5437 34 86.6712 34H29C22.3726 34 17 39.3726 17 46V58.1371V68.2V160C17 166.627 22.3726 172 29 172H229C235.627 172 241 166.627 241 160V70.1371C241 63.5097 235.627 58.1371 229 58.1371H117.404L104.425 42.3784Z" fill="#0B4965"/>
<mask id="mask0_1942_33024" style="mask-type:alpha" maskUnits="userSpaceOnUse" x="17" y="34" width="224" height="138">
<path fill-rule="evenodd" clip-rule="evenodd" d="M104.425 42.3784C100.056 37.0733 93.5437 34 86.6712 34H29C22.3726 34 17 39.3726 17 46V58.1371V68.2V160C17 166.627 22.3726 172 29 172H229C235.627 172 241 166.627 241 160V70.1371C241 63.5097 235.627 58.1371 229 58.1371H117.404L104.425 42.3784Z" fill="url(#paint0_linear_1942_33024)"/>
</mask>
<g mask="url(#mask0_1942_33024)">
<g style="mix-blend-mode:multiply" filter="url(#filter0_f_1942_33024)">
<path fill-rule="evenodd" clip-rule="evenodd" d="M92.789 74C97.7642 74 102.605 72.3868 106.586 69.4024L116.459 62H229C235.627 62 241 67.3726 241 74V108V160C241 166.627 235.627 172 229 172H29C22.3726 172 17 166.627 17 160L17 108V86C17 79.3726 22.3726 74 29 74H87H92.789Z" fill="black" fill-opacity="0.3"/>
</g>
</g>
<g filter="url(#filter1_ii_1942_33024)">
<path fill-rule="evenodd" clip-rule="evenodd" d="M92.789 74C97.7642 74 102.605 72.3868 106.586 69.4024L116.459 62H229C235.627 62 241 67.3726 241 74V108V198C241 204.627 235.627 210 229 210H29C22.3726 210 17 204.627 17 198V108V86C17 79.3726 22.3726 74 29 74H87H92.789Z" fill="url(#paint1_linear_1942_33024)"/>
</g>
<g filter="url(#filter2_i_1942_33024)">
<path d="M169.488 93.5C176.288 87.1 193.321 67.1667 200.988 58H231.988C238.615 58 243.988 63.3726 243.988 70V86.5C242.488 90.5 219.988 103 206.488 110.5C193.39 117.777 172.488 125.5 168.488 123.5C165.288 121.9 160.821 115.833 158.988 113C155.388 107.4 157.488 104.5 158.988 103C160.988 101 162.688 99.9 169.488 93.5Z" fill="#FE4A4C"/>
<path d="M97.0239 104C95.0235 102 93.3229 100.9 86.521 94.5C82.0104 90.2559 72.9983 80.0605 65.2022 71H24C17.3726 71 12 76.3726 12 83V87.5C13.5004 91.5 36.0067 104 49.5105 111.5C62.612 118.777 83.5201 126.5 87.5212 124.5C90.7221 122.9 95.19 116.833 97.0239 114C100.625 108.4 98.5243 105.5 97.0239 104Z" fill="#FE4A4C"/>
</g>
<g filter="url(#filter3_ii_1942_33024)">
<path fill-rule="evenodd" clip-rule="evenodd" d="M241 89.6594V108V199C241 205.627 235.627 211 229 211H29C22.3726 211 17 205.627 17 199V108V92.1765C14.2436 90.1932 12.3948 88.5524 12 87.5V83C12 76.3726 17.3726 71 24 71H65.2022C66.0536 71.9895 66.9196 72.9926 67.7926 74H87H92.789C97.7642 74 102.605 72.3868 106.586 69.4024L116.459 62H197.623C198.871 60.5241 200.006 59.1738 200.988 58H231.988C238.615 58 243.988 63.3726 243.988 70V86.5C243.699 87.2702 242.632 88.3554 241 89.6594Z" fill="url(#paint2_linear_1942_33024)"/>
</g>
<path fill-rule="evenodd" clip-rule="evenodd" d="M153.275 171C150.588 181.908 140.738 190 129 190C117.262 190 107.412 181.908 104.725 171H17V159H104.725C107.412 148.092 117.262 140 129 140C140.738 140 150.588 148.092 153.275 159H241V171H153.275ZM129 183C138.941 183 147 174.941 147 165C147 155.059 138.941 147 129 147C119.059 147 111 155.059 111 165C111 174.941 119.059 183 129 183Z" fill="#303030"/>
<path fill-rule="evenodd" clip-rule="evenodd" d="M129 178C136.18 178 142 172.18 142 165C142 157.82 136.18 152 129 152C121.82 152 116 157.82 116 165C116 172.18 121.82 178 129 178ZM141 165C141 171.627 135.627 177 129 177C122.373 177 117 171.627 117 165C117 158.373 122.373 153 129 153C135.627 153 141 158.373 141 165Z" fill="#303030"/>
<path fill-rule="evenodd" clip-rule="evenodd" d="M146 165C146 174.389 138.389 182 129 182C119.611 182 112 174.389 112 165C112 155.611 119.611 148 129 148C138.389 148 146 155.611 146 165ZM142 165C142 172.18 136.18 178 129 178C121.82 178 116 172.18 116 165C116 157.82 121.82 152 129 152C136.18 152 142 157.82 142 165Z" fill="white"/>
<path d="M129 177C135.627 177 141 171.627 141 165C141 158.373 135.627 153 129 153C122.373 153 117 158.373 117 165C117 171.627 122.373 177 129 177Z" fill="white"/>
<path fill-rule="evenodd" clip-rule="evenodd" d="M147 165C147 174.941 138.941 183 129 183C119.059 183 111 174.941 111 165C111 155.059 119.059 147 129 147C138.941 147 147 155.059 147 165ZM129 182C138.389 182 146 174.389 146 165C146 155.611 138.389 148 129 148C119.611 148 112 155.611 112 165C112 174.389 119.611 182 129 182Z" fill="#313131"/>
<defs>
<filter id="filter0_f_1942_33024" x="-20" y="25" width="298" height="184" filterUnits="userSpaceOnUse" color-interpolation-filters="sRGB">
<feFlood flood-opacity="0" result="BackgroundImageFix"/>
<feBlend mode="normal" in="SourceGraphic" in2="BackgroundImageFix" result="shape"/>
<feGaussianBlur stdDeviation="18.5" result="effect1_foregroundBlur_1942_33024"/>
</filter>
<filter id="filter1_ii_1942_33024" x="17" y="62" width="224" height="148" filterUnits="userSpaceOnUse" color-interpolation-filters="sRGB">
<feFlood flood-opacity="0" result="BackgroundImageFix"/>
<feBlend mode="normal" in="SourceGraphic" in2="BackgroundImageFix" result="shape"/>
<feColorMatrix in="SourceAlpha" type="matrix" values="0 0 0 0 0 0 0 0 0 0 0 0 0 0 0 0 0 0 127 0" result="hardAlpha"/>
<feOffset dy="4"/>
<feComposite in2="hardAlpha" operator="arithmetic" k2="-1" k3="1"/>
<feColorMatrix type="matrix" values="0 0 0 0 1 0 0 0 0 1 0 0 0 0 1 0 0 0 0.25 0"/>
<feBlend mode="normal" in2="shape" result="effect1_innerShadow_1942_33024"/>
<feColorMatrix in="SourceAlpha" type="matrix" values="0 0 0 0 0 0 0 0 0 0 0 0 0 0 0 0 0 0 127 0" result="hardAlpha"/>
<feOffset dy="-4"/>
<feComposite in2="hardAlpha" operator="arithmetic" k2="-1" k3="1"/>
<feColorMatrix type="matrix" values="0 0 0 0 0 0 0 0 0 0 0 0 0 0 0 0 0 0 0.9 0"/>
<feBlend mode="soft-light" in2="effect1_innerShadow_1942_33024" result="effect2_innerShadow_1942_33024"/>
</filter>
<filter id="filter2_i_1942_33024" x="12" y="58" width="231.988" height="66.8203" filterUnits="userSpaceOnUse" color-interpolation-filters="sRGB">
<feFlood flood-opacity="0" result="BackgroundImageFix"/>
<feBlend mode="normal" in="SourceGraphic" in2="BackgroundImageFix" result="shape"/>
<feColorMatrix in="SourceAlpha" type="matrix" values="0 0 0 0 0 0 0 0 0 0 0 0 0 0 0 0 0 0 127 0" result="hardAlpha"/>
<feOffset dy="4"/>
<feComposite in2="hardAlpha" operator="arithmetic" k2="-1" k3="1"/>
<feColorMatrix type="matrix" values="0 0 0 0 1 0 0 0 0 1 0 0 0 0 1 0 0 0 0.25 0"/>
<feBlend mode="normal" in2="shape" result="effect1_innerShadow_1942_33024"/>
</filter>
<filter id="filter3_ii_1942_33024" x="12" y="58" width="231.988" height="153" filterUnits="userSpaceOnUse" color-interpolation-filters="sRGB">
<feFlood flood-opacity="0" result="BackgroundImageFix"/>
<feBlend mode="normal" in="SourceGraphic" in2="BackgroundImageFix" result="shape"/>
<feColorMatrix in="SourceAlpha" type="matrix" values="0 0 0 0 0 0 0 0 0 0 0 0 0 0 0 0 0 0 127 0" result="hardAlpha"/>
<feOffset dy="4"/>
<feComposite in2="hardAlpha" operator="arithmetic" k2="-1" k3="1"/>
<feColorMatrix type="matrix" values="0 0 0 0 1 0 0 0 0 1 0 0 0 0 1 0 0 0 0.15 0"/>
<feBlend mode="normal" in2="shape" result="effect1_innerShadow_1942_33024"/>
<feColorMatrix in="SourceAlpha" type="matrix" values="0 0 0 0 0 0 0 0 0 0 0 0 0 0 0 0 0 0 127 0" result="hardAlpha"/>
<feOffset dy="-4"/>
<feComposite in2="hardAlpha" operator="arithmetic" k2="-1" k3="1"/>
<feColorMatrix type="matrix" values="0 0 0 0 0 0 0 0 0 0 0 0 0 0 0 0 0 0 0.25 0"/>
<feBlend mode="soft-light" in2="effect1_innerShadow_1942_33024" result="effect2_innerShadow_1942_33024"/>
</filter>
<linearGradient id="paint0_linear_1942_33024" x1="17" y1="34" x2="197.768" y2="215.142" gradientUnits="userSpaceOnUse">
<stop stop-color="#05815D"/>
<stop offset="1" stop-color="#0C575F"/>
</linearGradient>
<linearGradient id="paint1_linear_1942_33024" x1="147.5" y1="62" x2="148" y2="210" gradientUnits="userSpaceOnUse">
<stop offset="0.692608" stop-color="#2097F3"/>
<stop offset="0.692708" stop-color="white"/>
</linearGradient>
<linearGradient id="paint2_linear_1942_33024" x1="12" y1="58" x2="243.732" y2="211.386" gradientUnits="userSpaceOnUse">
<stop stop-color="white" stop-opacity="0"/>
<stop offset="1" stop-opacity="0.51"/>
</linearGradient>
</defs>
</svg>
