<?xml version="1.0" encoding="utf-8"?>
<!-- Generator: Adobe Illustrator 26.0.3, SVG Export Plug-In . SVG Version: 6.00 Build 0)  -->
<svg version="1.1" id="Layer_1" xmlns="http://www.w3.org/2000/svg" xmlns:xlink="http://www.w3.org/1999/xlink" x="0px" y="0px"
	 viewBox="0 0 256 256" style="enable-background:new 0 0 256 256;" xml:space="preserve">
<style type="text/css">
	.st0{fill-rule:evenodd;clip-rule:evenodd;fill:url(#SVGID_1_);}
	
		.st1{fill-rule:evenodd;clip-rule:evenodd;fill:url(#SVGID_00000047044193395556354470000002067835320454224562_);filter:url(#Adobe_OpacityMaskFilter);}
	.st2{mask:url(#mask0_973_23002_00000119835509703214744150000006183675657751004314_);}
	.st3{fill-rule:evenodd;clip-rule:evenodd;fill-opacity:0.3;}
	.st4{fill-rule:evenodd;clip-rule:evenodd;fill:url(#SVGID_00000109718469926891999420000011778445689239659156_);}
	.st5{opacity:0.8;fill:#FFFFFF;}
	.st6{fill:#FFFFFF;}
</style>
<linearGradient id="SVGID_1_" gradientUnits="userSpaceOnUse" x1="129" y1="222" x2="129" y2="84" gradientTransform="matrix(1 0 0 -1 0 256)">
	<stop  offset="0" style="stop-color:#647177"/>
	<stop  offset="1" style="stop-color:#000000"/>
</linearGradient>
<path class="st0" d="M104.4,42.4c-4.4-5.3-10.9-8.4-17.8-8.4H29c-6.6,0-12,5.4-12,12v12.1v10.1V160c0,6.6,5.4,12,12,12h200
	c6.6,0,12-5.4,12-12V70.1c0-6.6-5.4-12-12-12H117.4L104.4,42.4z"/>
<defs>
	<filter id="Adobe_OpacityMaskFilter" filterUnits="userSpaceOnUse" x="17" y="62" width="224" height="110">
		<feColorMatrix  type="matrix" values="1 0 0 0 0  0 1 0 0 0  0 0 1 0 0  0 0 0 1 0"/>
	</filter>
</defs>
<mask maskUnits="userSpaceOnUse" x="17" y="62" width="224" height="110" id="mask0_973_23002_00000119835509703214744150000006183675657751004314_">
	
		<linearGradient id="SVGID_00000066503007472450809100000016947207919296031916_" gradientUnits="userSpaceOnUse" x1="32.5816" y1="237.5494" x2="213.3495" y2="56.4074" gradientTransform="matrix(1 0 0 -1 0 256)">
		<stop  offset="0" style="stop-color:#05815D"/>
		<stop  offset="1" style="stop-color:#0C575F"/>
	</linearGradient>
	
		<path style="fill-rule:evenodd;clip-rule:evenodd;fill:url(#SVGID_00000066503007472450809100000016947207919296031916_);filter:url(#Adobe_OpacityMaskFilter);" d="
		M104.4,42.4c-4.4-5.3-10.9-8.4-17.8-8.4H29c-6.6,0-12,5.4-12,12v12.1v10.1V160c0,6.6,5.4,12,12,12h200c6.6,0,12-5.4,12-12V70.1
		c0-6.6-5.4-12-12-12H117.4L104.4,42.4z"/>
</mask>
<g class="st2">
	<g>
		<path class="st3" d="M92.8,74c5,0,9.8-1.6,13.8-4.6l9.9-7.4H229c6.6,0,12,5.4,12,12v34v52c0,6.6-5.4,12-12,12H29
			c-6.6,0-12-5.4-12-12v-52V86c0-6.6,5.4-12,12-12h58H92.8z"/>
	</g>
</g>
<g>
	
		<linearGradient id="SVGID_00000011709918759776798440000000305683065849915032_" gradientUnits="userSpaceOnUse" x1="17" y1="194" x2="241" y2="46" gradientTransform="matrix(1 0 0 -1 0 256)">
		<stop  offset="0" style="stop-color:#818F95"/>
		<stop  offset="0.9999" style="stop-color:#626F75"/>
		<stop  offset="1" style="stop-color:#E3E3E3"/>
	</linearGradient>
	<path style="fill-rule:evenodd;clip-rule:evenodd;fill:url(#SVGID_00000011709918759776798440000000305683065849915032_);" d="
		M92.8,74c5,0,9.8-1.6,13.8-4.6l9.9-7.4H229c6.6,0,12,5.4,12,12v34v90c0,6.6-5.4,12-12,12H29c-6.6,0-12-5.4-12-12v-90V86
		c0-6.6,5.4-12,12-12h58H92.8z"/>
</g>
<g>
	<path class="st5" d="M147.6,173.5c-1.4-0.9-2.5-1.8-2.5-1.9c0-0.1,0.9-1.5,2-3.1c1.6-2.4,2-2.8,2.4-2.8c0.2,0,1.5,0.8,2.7,1.7
		l2.3,1.6l-2.1,3.1c-1.1,1.7-2.1,3.1-2.2,3.1C150.1,175.1,148.9,174.4,147.6,173.5z M152.1,170.6c0-0.2-0.2-0.4-0.5-0.6
		c-0.5-0.3-1,0-1.4,1c-0.2,0.4-0.1,0.6,0.3,0.9l0.6,0.4l0.5-0.7C151.9,171.2,152.1,170.8,152.1,170.6z M149.4,168.7
		c-0.5-0.7-1-0.6-1.6,0.3l-0.6,0.8l0.6,0.4l0.6,0.4l0.6-0.8C149.6,169.2,149.6,168.9,149.4,168.7z"/>
	<path class="st5" d="M152.3,166.2l-3.6-2.4l3.1-4.6c1.7-2.5,4-5.9,5.1-7.6c3.1-4.6,4.2-5.1,7.4-3.1c2.1,1.4,2.5,1.8,2.5,3.4l0,1.1
		l-5.2,7.7c-2.9,4.2-5.3,7.7-5.5,7.8C155.9,168.6,154.2,167.6,152.3,166.2z"/>
	<path class="st6" d="M90.5,166.6c-3.3-1.6-5.6-5.3-5.6-9c0-4.4,4.2-6,8.1-3.3c1.5,1,2.5,2.3,3.1,3.6c0.3,0.8,0.4,0.9,0.4,0.5
		c0-1.1-1.9-4-3.7-5.4c-0.5-0.4-1-0.9-1-1.1c0-0.5,2-1.5,3.2-1.7c4.6-0.6,10,3.3,12.2,8.8c0.3,0.8,0.6,1.7,0.6,2
		c0,0.5-0.2,0.6-0.9,0.6c-1.1,0-2.6,0.9-2.6,1.6c0,0.3,0.2,0.3,0.6-0.1c1-1,3.4-0.7,5.2,0.7c1.1,0.9,1.5,1.5,2.3,3.1
		c0.8,1.6,0.9,3.6,0.2,4.8c-0.5,0.9-1.7,1.7-2.6,1.7C109.3,173.6,92.8,167.7,90.5,166.6z"/>
	<path class="st6" d="M111.9,147.8c4.7,5.8,7.8,13.1,7.8,20.1c0,12.2-9.3,18.6-20.7,14.4c-11.4-4.2-20.7-17.5-20.7-29.6
		c0-4.6,1.3-8.3,3.5-11l-9.3-4.1v40.1l55.5,23.8v-60.9L111.9,147.8z"/>
	<path class="st6" d="M48.4,125.4l55.5,23.8l24.1-10.8l-55.5-23.8l-1.9,0.8L48.4,125.4z"/>
	<path class="st5" d="M183.5,114.9L183.5,114.9l-1.5,0.6l-54,22.8l23.8,10.8l55.8-24.1l-22.6-9.5L183.5,114.9z"/>
	<path class="st5" d="M173.5,142.1c2.1,2.7,3.3,6.2,3.4,10.5c0.3,12.2-8.7,25.5-20.2,29.7s-21-2.2-21.3-14.4
		c-0.2-7.1,2.8-14.6,7.6-20.4l-15.1-6.9v60.9l55.5-23.8v-39.8L173.5,142.1z"/>
	<path class="st6" d="M119.8,128.4c-11.4-3.8-19.1-13.3-20.5-25.3l-0.6-5.2l2.4,5.9c3,7.2,7.8,11.6,14.4,13.2c8.1,2,14.2,0,23-7.4
		l5-4.2l3,3.1l3.1,3.1v-13V85.7h-12.2c-6.7,0-12.2,0.3-12.2,0.7c0,0.4,1.4,2.1,3.1,3.9c3,3.1,3,3.2,1.3,5.2
		c-2.9,3.2-9.5,5.9-14.9,5.9c-4.3,0-5.5-0.5-7.9-2.8c-5.4-5.5-5-12.9,1.1-19c5.7-5.7,11.4-8,20.2-8c6.1,0,8.3,0.5,12.9,2.7
		c21.5,10.6,21.7,41.5,0.3,52.1C135,129.4,125.7,130.3,119.8,128.4z"/>
</g>
</svg>
