<svg width="256" height="256" viewBox="0 0 256 256" fill="none" xmlns="http://www.w3.org/2000/svg">
<path fill-rule="evenodd" clip-rule="evenodd" d="M104.425 42.3784C100.056 37.0733 93.5437 34 86.6712 34H29C22.3726 34 17 39.3726 17 46V58.1371V68.2V160C17 166.627 22.3726 172 29 172H229C235.627 172 241 166.627 241 160V70.1371C241 63.5097 235.627 58.1371 229 58.1371H117.404L104.425 42.3784Z" fill="#140323"/>
<mask id="mask0_610_14271" style="mask-type:alpha" maskUnits="userSpaceOnUse" x="17" y="34" width="224" height="138">
<path fill-rule="evenodd" clip-rule="evenodd" d="M104.425 42.3784C100.056 37.0733 93.5437 34 86.6712 34H29C22.3726 34 17 39.3726 17 46V58.1371V68.2V160C17 166.627 22.3726 172 29 172H229C235.627 172 241 166.627 241 160V70.1371C241 63.5097 235.627 58.1371 229 58.1371H117.404L104.425 42.3784Z" fill="url(#paint0_linear_610_14271)"/>
</mask>
<g mask="url(#mask0_610_14271)">
<g style="mix-blend-mode:multiply" filter="url(#filter0_f_610_14271)">
<path fill-rule="evenodd" clip-rule="evenodd" d="M92.789 74C97.7642 74 102.605 72.3868 106.586 69.4024L116.459 62H229C235.627 62 241 67.3726 241 74V108V160C241 166.627 235.627 172 229 172H29C22.3726 172 17 166.627 17 160L17 108V86C17 79.3726 22.3726 74 29 74H87H92.789Z" fill="black" fill-opacity="0.3"/>
</g>
</g>
<g filter="url(#filter1_ii_610_14271)">
<path fill-rule="evenodd" clip-rule="evenodd" d="M92.789 74C97.7642 74 102.605 72.3868 106.586 69.4024L116.459 62H229C235.627 62 241 67.3726 241 74V108V198C241 204.627 235.627 210 229 210H29C22.3726 210 17 204.627 17 198L17 108V86C17 79.3726 22.3726 74 29 74H87H92.789Z" fill="url(#paint1_linear_610_14271)"/>
</g>
<path d="M128.197 172.155V172.067C128.285 171.957 128.439 171.891 128.571 171.913C129.209 171.891 129.825 171.891 130.462 171.913C130.594 171.913 130.748 171.957 130.836 172.067V172.155H128.197Z" fill="#D1EFFA"/>
<path d="M130.836 172.067C129.957 172.045 129.077 172.045 128.197 172.067C126.988 172.001 125.778 171.957 124.569 171.869C121.358 171.627 118.169 171.143 115.046 170.417C104.248 167.91 94.7699 162.874 86.501 155.551C85.7313 154.869 85.0056 154.165 84.2579 153.462C84.0819 153.308 83.928 153.088 83.84 152.868C83.7081 152.56 83.774 152.23 83.994 151.988C84.2139 151.746 84.5657 151.658 84.8736 151.79C85.0716 151.878 85.2695 151.966 85.4454 152.076C93.3405 156.958 101.961 160.521 111 162.632C114.035 163.336 117.092 163.886 120.17 164.282C124.591 164.831 129.055 165.029 133.497 164.875C135.894 164.809 138.27 164.59 140.645 164.282C146.187 163.578 151.663 162.324 156.963 160.565C159.756 159.641 162.483 158.586 165.144 157.354C165.539 157.134 166.023 157.068 166.463 157.178C167.189 157.354 167.629 158.102 167.453 158.828C167.431 158.916 167.387 159.026 167.343 159.114C167.167 159.443 166.925 159.729 166.617 159.949C164.088 161.929 161.361 163.666 158.48 165.117C153.048 167.866 147.242 169.824 141.26 170.945C137.808 171.561 134.333 171.935 130.836 172.067V172.067ZM98.2666 127.489C98.8164 127.16 99.3882 126.808 99.982 126.5C101.521 125.708 103.237 125.312 104.974 125.4C106.228 125.466 107.371 125.818 108.251 126.742C109.087 127.599 109.394 128.655 109.482 129.799C109.504 130.041 109.504 130.282 109.504 130.546V141.938C109.504 142.928 109.372 143.06 108.383 143.06H105.7C105.524 143.06 105.348 143.06 105.172 143.038C104.908 143.016 104.688 142.796 104.644 142.532C104.6 142.29 104.6 142.048 104.6 141.806V131.624C104.622 131.206 104.578 130.81 104.468 130.414C104.292 129.733 103.677 129.249 102.973 129.205C101.675 129.117 100.378 129.381 99.1903 129.931C99.0143 129.975 98.9044 130.15 98.9264 130.326V141.894C98.9264 142.114 98.9264 142.312 98.8824 142.532C98.8824 142.84 98.6405 143.06 98.3326 143.06C98.0027 143.082 97.6728 143.082 97.321 143.082H94.9898C94.1761 143.082 94.0002 142.884 94.0002 142.07V131.668C94.0002 131.294 93.9782 130.898 93.8902 130.524C93.7363 129.777 93.0985 129.249 92.3508 129.205C91.0313 129.117 89.6898 129.381 88.5023 129.953C88.3263 129.997 88.2164 130.194 88.2604 130.37V142.092C88.2604 142.906 88.0844 143.082 87.2707 143.082H84.3238C83.5541 143.082 83.3562 142.862 83.3562 142.114V126.852C83.3562 126.676 83.3782 126.5 83.4222 126.324C83.5101 126.06 83.774 125.906 84.0379 125.906H86.7869C87.1828 125.906 87.4247 126.148 87.5566 126.522C87.6666 126.83 87.7326 127.116 87.8425 127.445C88.0624 127.445 88.1944 127.292 88.3483 127.204C89.5579 126.456 90.8334 125.818 92.2629 125.554C93.3624 125.334 94.462 125.334 95.5616 125.554C96.5952 125.774 97.5189 126.39 98.1127 127.27C98.1566 127.336 98.2006 127.38 98.2446 127.423C98.2226 127.445 98.2446 127.445 98.2666 127.489V127.489Z" fill="#00A8E1"/>
<path d="M143.855 138.442C143.987 138.002 144.119 137.584 144.251 137.144C145.263 133.735 146.274 130.349 147.286 126.94L147.418 126.544C147.528 126.148 147.902 125.906 148.298 125.906H151.64C152.476 125.906 152.652 126.148 152.366 126.94L151.047 130.437C149.573 134.263 148.1 138.112 146.626 141.938C146.582 142.07 146.516 142.202 146.472 142.334C146.318 142.796 145.857 143.104 145.373 143.06C144.405 143.038 143.438 143.038 142.47 143.06C141.788 143.082 141.392 142.774 141.15 142.158C140.601 140.707 140.029 139.233 139.479 137.782C138.16 134.329 136.818 130.876 135.499 127.402C135.367 127.138 135.279 126.83 135.213 126.544C135.147 126.104 135.301 125.884 135.74 125.884C136.994 125.862 138.247 125.884 139.479 125.884C140.007 125.884 140.249 126.236 140.381 126.698C140.623 127.534 140.865 128.391 141.128 129.227C142.03 132.284 142.91 135.363 143.811 138.42C143.789 138.442 143.811 138.442 143.855 138.442V138.442Z" fill="white"/>
<path d="M65.7628 128.325C65.9168 128.282 66.0487 128.194 66.1367 128.062C66.5325 127.666 66.9504 127.292 67.3902 126.94C68.5338 126.06 69.9632 125.621 71.3927 125.73C71.9645 125.752 72.1624 125.928 72.2064 126.478C72.2504 127.226 72.2284 127.996 72.2284 128.743C72.2504 129.051 72.2284 129.337 72.1844 129.645C72.0964 130.041 71.9425 130.195 71.5466 130.239C71.2388 130.261 70.9529 130.239 70.645 130.217C69.1715 130.085 67.7421 130.371 66.3566 130.833C66.0487 130.943 66.0487 131.162 66.0487 131.404V141.96C66.0487 142.158 66.0487 142.334 66.0267 142.532C66.0047 142.818 65.7848 143.038 65.4989 143.038C65.345 143.06 65.169 143.06 65.0151 143.06H62.1562C62.0022 143.06 61.8263 143.06 61.6724 143.038C61.3865 143.016 61.1665 142.774 61.1446 142.488C61.1226 142.312 61.1226 142.136 61.1226 141.96V127.006C61.1226 125.994 61.2325 125.884 62.2441 125.884H64.3553C64.9271 125.884 65.191 126.082 65.345 126.632C65.4989 127.182 65.6309 127.732 65.7628 128.325V128.325ZM168.64 150.625C170.092 150.669 171.521 150.757 172.929 151.131C173.324 151.241 173.698 151.373 174.072 151.549C174.578 151.747 174.908 152.231 174.974 152.758C175.062 153.374 175.084 154.012 175.04 154.65C174.754 158.41 173.588 162.039 171.653 165.272C170.949 166.437 170.092 167.493 169.102 168.416C168.904 168.614 168.662 168.768 168.398 168.856C167.98 168.966 167.717 168.746 167.695 168.328C167.717 168.109 167.761 167.889 167.849 167.669C168.618 165.602 169.366 163.556 169.96 161.423C170.312 160.258 170.553 159.07 170.707 157.86C170.751 157.421 170.773 156.981 170.729 156.541C170.707 155.793 170.224 155.155 169.498 154.936C168.816 154.716 168.112 154.584 167.387 154.54C165.363 154.452 163.34 154.54 161.339 154.804L158.678 155.133C158.392 155.155 158.128 155.133 157.974 154.87C157.82 154.606 157.886 154.342 158.04 154.078C158.216 153.836 158.436 153.616 158.7 153.462C160.327 152.297 162.153 151.593 164.088 151.131C165.583 150.823 167.101 150.669 168.64 150.625V150.625Z" fill="#00A8E1"/>
<path d="M159.426 134.483V142.4C159.382 142.84 159.184 143.038 158.744 143.06C157.556 143.082 156.391 143.082 155.203 143.06C154.763 143.06 154.565 142.84 154.522 142.422C154.5 142.29 154.5 142.136 154.5 142.004V126.786C154.522 126.104 154.697 125.906 155.379 125.906H158.546C159.228 125.906 159.426 126.104 159.426 126.786V134.483Z" fill="white"/>
<path d="M74.3394 134.439V126.632C74.3614 126.104 74.5593 125.906 75.0871 125.884C76.2307 125.862 77.3742 125.862 78.5178 125.884C79.0236 125.884 79.1776 126.038 79.2215 126.544C79.2435 126.742 79.2435 126.918 79.2435 127.116V141.762C79.2435 142.004 79.2215 142.246 79.1995 142.488C79.1776 142.774 78.9576 142.972 78.6717 142.994C78.5398 143.016 78.4298 143.016 78.2979 143.016H75.241C75.1311 143.016 75.0431 143.016 74.9332 142.994C74.6253 142.972 74.3614 142.73 74.3394 142.422C74.3174 142.246 74.3174 142.07 74.3174 141.894C74.3394 139.453 74.3394 136.946 74.3394 134.439ZM76.8904 118.011C77.2423 117.989 77.5941 118.055 77.924 118.165C79.1116 118.561 79.7274 119.594 79.6174 120.936C79.5294 122.08 78.6717 123.003 77.5282 123.179C77.0444 123.267 76.5385 123.267 76.0547 123.179C74.8012 122.937 73.8775 122.014 73.9655 120.43C74.0975 118.869 75.1311 118.011 76.8904 118.011Z" fill="#00A8E1"/>
<path d="M156.984 118.011C157.424 117.967 157.864 118.055 158.282 118.231C159.14 118.561 159.733 119.353 159.777 120.276C159.953 122.278 158.612 123.289 156.831 123.245C156.589 123.245 156.347 123.201 156.105 123.157C154.741 122.827 154.038 121.772 154.17 120.254C154.279 119.045 155.225 118.143 156.523 118.033C156.677 118.011 156.831 117.989 156.984 118.011V118.011Z" fill="white"/>
<path d="M57.8677 132.635C57.7797 131.492 57.4718 130.37 57.01 129.337C56.1083 127.445 54.7229 126.06 52.6116 125.576C50.1926 125.048 48.0154 125.576 46.0361 127.05C45.9042 127.182 45.7502 127.291 45.5743 127.379C45.5303 127.357 45.4863 127.335 45.4863 127.313C45.4203 127.094 45.3764 126.874 45.3104 126.654C45.1344 126.104 44.9145 125.906 44.3208 125.906C43.661 125.906 42.9793 125.928 42.3195 125.906C41.8137 125.884 41.3519 125.95 41 126.346C41 134.043 41 141.762 41.022 149.437C41.3079 149.899 41.7477 149.987 42.2535 149.965C43.0452 149.943 43.8369 149.965 44.6286 149.965C46.0141 149.965 46.0141 149.965 46.0141 148.602V142.334C46.0141 142.18 45.9481 142.004 46.1021 141.872C47.2017 142.73 48.5432 143.258 49.9286 143.389C51.8639 143.587 53.6233 143.104 55.0967 141.784C56.1743 140.794 56.966 139.519 57.3839 138.111C57.9776 136.308 58.0216 134.483 57.8677 132.635V132.635ZM52.6116 137.188C52.4577 137.87 52.1058 138.485 51.6 138.947C51.0282 139.431 50.3245 139.717 49.5768 139.717C48.4552 139.783 47.3556 139.541 46.366 139.013C46.1241 138.903 45.9701 138.661 45.9921 138.397V134.417C45.9921 133.097 46.0141 131.778 45.9921 130.458C45.9701 130.15 46.1461 129.887 46.432 129.777C47.6415 129.205 48.895 128.941 50.2145 129.205C51.1382 129.337 51.9299 129.931 52.3038 130.788C52.6336 131.492 52.8316 132.262 52.8755 133.031C53.0075 134.439 53.0075 135.846 52.6116 137.188V137.188Z" fill="#00A8E1"/>
<path d="M216.956 136.066C216.956 136.066 216.956 136.044 216.956 136.066C216.956 136.044 216.956 136.044 216.956 136.066ZM216.978 133.119V133.207C216.89 133.119 216.846 132.987 216.89 132.878V132.702C216.89 132.702 216.89 132.68 216.912 132.68H216.89V132.46H216.934C216.934 132.438 216.912 132.438 216.912 132.416C216.868 131.998 216.78 131.58 216.67 131.184C215.856 128.281 214.031 126.368 211.062 125.62C209.677 125.29 208.269 125.246 206.862 125.466C203.893 125.906 201.76 127.49 200.726 130.304C199.714 132.987 199.736 135.934 200.748 138.617C201.628 141.058 203.387 142.598 205.916 143.236C207.258 143.566 208.665 143.653 210.051 143.456C214.669 142.906 216.582 139.409 216.89 136.374H216.868V136.066C216.846 135.934 216.824 135.824 216.956 135.736V135.78C216.956 135.758 216.978 135.714 217 135.692V133.163C217 133.141 216.978 133.141 216.978 133.119V133.119ZM211.7 137.298C211.568 137.76 211.37 138.178 211.084 138.573C210.6 139.255 209.831 139.695 208.995 139.761C208.577 139.805 208.159 139.805 207.741 139.717C206.818 139.541 206.048 138.925 205.674 138.068C205.344 137.386 205.146 136.638 205.08 135.89C204.971 134.593 204.949 133.295 205.256 132.02C205.366 131.514 205.586 131.008 205.85 130.568C206.334 129.777 207.17 129.271 208.093 129.205C208.511 129.161 208.929 129.161 209.347 129.249C210.227 129.425 210.952 129.997 211.348 130.81C211.722 131.58 211.942 132.438 211.986 133.295C212.008 133.691 212.03 134.087 212.008 134.483C212.074 135.451 211.964 136.396 211.7 137.298V137.298ZM178.426 118.165H175.37C174.534 118.165 174.38 118.319 174.38 119.155V126.28C174.38 126.434 174.446 126.588 174.336 126.742C174.138 126.72 174.028 126.588 173.874 126.5C171.587 125.158 169.19 124.917 166.771 126.038C165.077 126.83 164.022 128.259 163.34 129.953C162.68 131.58 162.526 133.295 162.57 135.033C162.57 136.66 162.944 138.265 163.67 139.717C164.506 141.322 165.715 142.554 167.475 143.082C169.872 143.829 172.115 143.456 174.16 141.938C174.314 141.85 174.402 141.696 174.6 141.652C174.71 141.894 174.798 142.158 174.842 142.422C174.93 142.774 175.238 143.016 175.612 143.016H176.139C176.931 143.016 177.701 143.038 178.47 143.016C179.086 143.016 179.262 142.818 179.284 142.18V119.001C179.262 118.319 179.086 118.165 178.426 118.165V118.165ZM174.402 134.351V138.353C174.446 138.617 174.292 138.859 174.05 138.969C172.995 139.563 171.785 139.805 170.597 139.629C169.586 139.519 168.706 138.903 168.244 138.002C167.892 137.298 167.695 136.55 167.629 135.78C167.453 134.395 167.563 132.987 167.892 131.646C168.002 131.272 168.134 130.92 168.332 130.568C168.794 129.711 169.674 129.161 170.641 129.095C171.807 128.985 172.973 129.205 174.028 129.689C174.292 129.777 174.446 130.041 174.424 130.326C174.38 131.69 174.402 133.009 174.402 134.351V134.351Z" fill="white"/>
<path d="M117.531 135.868C119.181 136.176 120.874 136.198 122.523 135.934C123.491 135.802 124.415 135.516 125.272 135.055C126.262 134.483 126.988 133.691 127.296 132.592C128.065 129.821 126.878 127.028 123.997 125.994C122.589 125.532 121.094 125.378 119.62 125.576C116.146 125.972 113.881 127.885 112.847 131.206C112.121 133.471 112.209 135.78 112.803 138.068C113.573 140.992 115.508 142.73 118.433 143.346C120.104 143.719 121.798 143.653 123.469 143.39C124.349 143.236 125.228 143.016 126.064 142.686C126.57 142.488 126.834 142.18 126.812 141.608C126.79 141.08 126.812 140.531 126.812 139.981C126.812 139.321 126.548 139.123 125.91 139.277C125.272 139.431 124.657 139.563 124.019 139.695C122.655 139.981 121.248 139.981 119.884 139.739C118.015 139.365 116.806 137.76 116.915 135.78C117.113 135.802 117.333 135.824 117.531 135.868V135.868ZM116.981 132.504C117.047 131.976 117.201 131.47 117.399 130.986C118.059 129.381 119.445 128.831 120.852 128.919C121.248 128.941 121.644 129.029 122.018 129.183C122.589 129.425 122.963 129.953 123.029 130.568C123.095 130.942 123.073 131.338 122.963 131.712C122.699 132.504 122.062 132.833 121.292 132.987C120.83 133.097 120.346 133.141 119.862 133.097C119.005 133.097 118.125 133.031 117.267 132.899C116.937 132.855 116.937 132.855 116.981 132.504V132.504Z" fill="#00A8E1"/>
<path d="M191.71 136.088C192.985 136 194.261 135.758 195.404 135.143C196.57 134.571 197.383 133.493 197.625 132.218C197.779 131.426 197.779 130.59 197.603 129.799C197.141 127.819 195.888 126.588 193.997 125.95C192.941 125.62 191.819 125.488 190.72 125.532C187.025 125.62 184.21 127.489 183.067 131.184C182.297 133.625 182.407 136.11 183.155 138.551C183.924 141.058 185.684 142.576 188.191 143.257C189.268 143.521 190.39 143.631 191.49 143.587C193.095 143.565 194.7 143.257 196.218 142.686C196.856 142.444 197.01 142.224 197.01 141.542V139.959C196.988 139.321 196.724 139.101 196.086 139.255C195.602 139.387 195.14 139.497 194.656 139.607C193.183 139.959 191.644 140.025 190.148 139.761C188.653 139.475 187.641 138.617 187.245 137.122C187.135 136.682 187.047 136.242 187.003 135.78C187.113 135.78 187.223 135.78 187.311 135.824C188.763 136.088 190.236 136.198 191.71 136.088V136.088ZM187.113 132.569C187.267 131.712 187.465 130.876 187.993 130.172C188.807 129.095 189.928 128.787 191.204 128.919C191.314 128.919 191.402 128.963 191.512 128.963C193.051 129.205 193.425 130.436 193.139 131.624C192.919 132.504 192.193 132.833 191.38 132.987C190.94 133.075 190.478 133.119 190.016 133.097C189.114 133.075 188.235 133.009 187.355 132.877C187.157 132.855 187.069 132.767 187.113 132.569V132.569Z" fill="white"/>
<defs>
<filter id="filter0_f_610_14271" x="-20" y="25" width="298" height="184" filterUnits="userSpaceOnUse" color-interpolation-filters="sRGB">
<feFlood flood-opacity="0" result="BackgroundImageFix"/>
<feBlend mode="normal" in="SourceGraphic" in2="BackgroundImageFix" result="shape"/>
<feGaussianBlur stdDeviation="18.5" result="effect1_foregroundBlur_610_14271"/>
</filter>
<filter id="filter1_ii_610_14271" x="17" y="62" width="224" height="148" filterUnits="userSpaceOnUse" color-interpolation-filters="sRGB">
<feFlood flood-opacity="0" result="BackgroundImageFix"/>
<feBlend mode="normal" in="SourceGraphic" in2="BackgroundImageFix" result="shape"/>
<feColorMatrix in="SourceAlpha" type="matrix" values="0 0 0 0 0 0 0 0 0 0 0 0 0 0 0 0 0 0 127 0" result="hardAlpha"/>
<feOffset dy="-4"/>
<feComposite in2="hardAlpha" operator="arithmetic" k2="-1" k3="1"/>
<feColorMatrix type="matrix" values="0 0 0 0 0 0 0 0 0 0 0 0 0 0 0 0 0 0 0.25 0"/>
<feBlend mode="normal" in2="shape" result="effect1_innerShadow_610_14271"/>
<feColorMatrix in="SourceAlpha" type="matrix" values="0 0 0 0 0 0 0 0 0 0 0 0 0 0 0 0 0 0 127 0" result="hardAlpha"/>
<feOffset dy="4"/>
<feComposite in2="hardAlpha" operator="arithmetic" k2="-1" k3="1"/>
<feColorMatrix type="matrix" values="0 0 0 0 1 0 0 0 0 1 0 0 0 0 1 0 0 0 0.25 0"/>
<feBlend mode="normal" in2="effect1_innerShadow_610_14271" result="effect2_innerShadow_610_14271"/>
</filter>
<linearGradient id="paint0_linear_610_14271" x1="17" y1="34" x2="197.768" y2="215.142" gradientUnits="userSpaceOnUse">
<stop stop-color="#05815D"/>
<stop offset="1" stop-color="#0C575F"/>
</linearGradient>
<linearGradient id="paint1_linear_610_14271" x1="17" y1="62" x2="241" y2="210" gradientUnits="userSpaceOnUse">
<stop stop-color="#17052D"/>
<stop offset="1" stop-color="#140322"/>
</linearGradient>
</defs>
</svg>
