<?xml version="1.0" encoding="UTF-8"?>
<svg width="256" height="256" viewBox="0 0 256 256" xmlns="http://www.w3.org/2000/svg">
  <defs>
    <style>
      .cls-1 {
        fill: #fff;
      }

      .cls-2 {
        fill: #ff7d35;
      }

      .cls-2, .cls-3, .cls-4, .cls-5, .cls-6, .cls-7 {
        fill-rule: evenodd;
      }

      .cls-3 {
        fill: #ffce78;
      }

      .cls-4 {
        fill: url(#_未命名的渐变_5);
      }

      .cls-5 {
        fill: url(#linear-gradient);
      }

      .cls-8 {
        fill: #eb1923;
      }

      .cls-9 {
        fill: #faab07;
      }

      .cls-6 {
        fill: url(#_未命名的渐变_3);
      }

      .cls-10 {
        fill: none;
        mask: url(#mask);
      }

      .cls-7 {
        fill: #a6a1a1;
      }
    </style>
    <linearGradient id="linear-gradient" x1="15.58" y1="205.55" x2="196.35" y2="24.41" gradientTransform="translate(0 190) scale(1 -1)" gradientUnits="userSpaceOnUse">
      <stop offset="0" stop-color="#05815d"/>
      <stop offset="1" stop-color="#0c575f"/>
    </linearGradient>
    <mask id="mask" x="0" y="0" width="224" height="138" maskUnits="userSpaceOnUse">
      <g id="mask0_501_11930" data-name="mask0 501 11930">
        <path class="cls-5" d="m87.43,8.38c-4.37-5.31-10.88-8.38-17.75-8.38H12C5.37,0,0,5.37,0,12v114c0,6.63,5.37,12,12,12h200c6.63,0,12-5.37,12-12V36.14c0-6.63-5.37-12-12-12h-111.6l-12.98-15.76Z"/>
      </g>
    </mask>
    <linearGradient id="_未命名的渐变_5" data-name="未命名的渐变 5" x1="0" y1="162" x2="224" y2="14" gradientTransform="translate(0 190) scale(1 -1)" gradientUnits="userSpaceOnUse">
      <stop offset=".03" stop-color="#ffd31e"/>
      <stop offset="1" stop-color="#fe0156" stop-opacity=".9"/>
    </linearGradient>
    <linearGradient id="_未命名的渐变_3" data-name="未命名的渐变 3" x1="-.07" y1="23.32" x2="223.94" y2="20.82" gradientTransform="translate(0 190) scale(1 -1)" gradientUnits="userSpaceOnUse">
      <stop offset="0" stop-color="#ffd7d7"/>
      <stop offset=".8" stop-color="#ff7d35"/>
    </linearGradient>
  </defs>
  <g transform="translate(17, 34)">
  <path class="cls-2" d="m87.43,8.38c-4.37-5.31-10.88-8.38-17.75-8.38H12C5.37,0,0,5.37,0,12v114c0,6.63,5.37,12,12,12h200c6.63,0,12-5.37,12-12V36.14c0-6.63-5.37-12-12-12h-111.6l-12.98-15.76Z"/>
  <g class="cls-10">
    <path class="cls-7" d="m75.79,40c4.98,0,9.82-1.61,13.8-4.6l9.87-7.4h112.54c6.63,0,12,5.37,12,12v86c0,6.63-5.37,12-12,12H12c-6.63,0-12-5.37-12-12V52c0-6.63,5.37-12,12-12h63.79Z"/>
  </g>
  <path class="cls-4" d="m75.79,40c4.98,0,9.82-1.61,13.8-4.6l9.87-7.4h112.54c6.63,0,12,5.37,12,12v124c0,6.63-5.37,12-12,12H12c-6.63,0-12-5.37-12-12V52c0-6.63,5.37-12,12-12h63.79Z"/>
  <path class="cls-6" d="m0,160v4c0,6.63,5.37,12,12,12h200c6.63,0,12-5.37,12-12v-4c0,6.63-5.37,12-12,12H12c-6.63,0-12-5.37-12-12Z"/>
  <path class="cls-3" d="m89.59,35.4c-3.98,2.98-8.82,4.6-13.8,4.6H12c-6.63,0-12,5.37-12,12v4c0-6.63,5.37-12,12-12h63.79c4.98,0,9.82-1.61,13.8-4.6l9.87-7.4h112.54c6.63,0,12,5.37,12,12v-4c0-6.63-5.37-12-12-12h-112.54l-9.87,7.4Z"/>
  <g>
    <g id="_000000ff" data-name="#000000ff">
      <path d="m107.89,64.7c2.75-.78,5.64-1.02,8.48-.85,3.74.21,7.47,1.29,10.61,3.35,3.18,2.06,5.68,5.04,7.43,8.38,1.8,3.42,2.88,7.19,3.42,11.01.43,2.91.49,5.86.39,8.8-3.86,1.13-7.83,1.88-11.81,2.44-4.97.66-10,.99-15.02.76-4.69-.21-9.37-.77-13.98-1.68-2.12-.42-4.22-.9-6.29-1.52-.2-4.8.19-9.65,1.57-14.26,1.23-4.13,3.27-8.09,6.31-11.17,2.44-2.48,5.53-4.31,8.88-5.25m-.16,8.58c-1.14.27-2.01,1.18-2.54,2.19-.89,1.7-1.03,3.72-.6,5.57.33,1.34,1,2.66,2.14,3.48.79.59,1.88.8,2.81.46,1.12-.4,1.92-1.38,2.39-2.43.78-1.74.86-3.75.34-5.58-.35-1.19-.99-2.35-1.99-3.11-.72-.54-1.67-.8-2.56-.58m12.54,0c-1.14.28-2.01,1.18-2.57,2.17-.91,1.63-1.14,3.59-.81,5.41.26,1.33.84,2.66,1.91,3.53.73.61,1.74.9,2.66.66,1.11-.27,1.97-1.13,2.53-2.09.96-1.67,1.21-3.71.84-5.59-.27-1.31-.87-2.62-1.93-3.47-.72-.59-1.72-.86-2.63-.62m-9.25,13.79c-2.57.17-5.15.49-7.64,1.16-.93.27-1.88.56-2.67,1.13-.25.19-.57.54-.35.87.28.34.68.54,1.04.77,1.72.99,3.56,1.75,5.44,2.36,2.36.75,4.81,1.25,7.29,1.31,2.73.07,5.45-.41,8.05-1.2,1.95-.61,3.86-1.38,5.64-2.38.41-.26.87-.48,1.19-.86.22-.33-.1-.68-.35-.87-.7-.51-1.53-.78-2.34-1.03-2.06-.6-4.19-.91-6.32-1.13-2.98-.28-5.98-.32-8.97-.13Z"/>
      <path d="m109.31,77.32c.62-.2,1.29.12,1.66.62.66.88.72,2.16.19,3.12-.27.49-.75.9-1.33.93-.56.04-1.08-.29-1.4-.74-.54-.76-.64-1.79-.33-2.67.2-.56.62-1.09,1.2-1.27Z"/>
      <path d="m120.03,78.23c1.03-.22,2.16-.1,3.08.41.47.23.34.89.03,1.2-.21.23-.57.2-.82.04-.82-.46-1.87-.6-2.74-.18-.46.2-.82.55-1.18.89-.44.25-.91-.41-.63-.79.51-.79,1.34-1.35,2.25-1.57Z"/>
      <path d="m83.5,117.84c.86-4.82,2.5-9.45,4.24-14,2.99.89,6.02,1.63,9.08,2.23-.4,2.61-.58,5.24-.56,7.88.02,2.42.16,4.85.69,7.22.78,3.6,2.43,7.1,5.08,9.7,2.48,2.48,5.8,4.03,9.25,4.57,3.22.5,6.57.32,9.68-.69,2.41-.79,4.64-2.13,6.43-3.93,1.91-1.91,3.31-4.28,4.21-6.82.92-2.57,1.34-5.3,1.44-8.02.15-3.31.01-6.64-.51-9.91,3.06-.6,6.09-1.35,9.08-2.23,1.69,4.4,3.27,8.86,4.15,13.5.33,1.78.58,3.59.55,5.4-.03.8-.08,1.62-.38,2.37-.1.27-.34.59-.67.45-.7-.24-1.2-.81-1.71-1.32-1.51-1.68-2.79-3.55-4.03-5.44-.22-.29-.36-.64-.62-.9-.06,4.17-1.75,8.21-4.26,11.5-.95,1.24-2.04,2.38-3.23,3.39-3.17,2.7-7.1,4.42-11.19,5.16-3.66.66-7.43.66-11.09,0-4.08-.73-8.01-2.46-11.18-5.16-2.96-2.51-5.27-5.81-6.53-9.48-.59-1.74-.96-3.56-.97-5.4-.03.02-.08.08-.11.1-1.17,1.83-2.38,3.64-3.75,5.32-.64.75-1.27,1.54-2.11,2.07-.26.15-.67.32-.88.01-.37-.54-.43-1.22-.51-1.86-.16-1.91.09-3.83.41-5.71Z"/>
    </g>
    <g id="_ffffffff" data-name="#ffffffff">
      <path class="cls-1" d="m107.73,73.27c.89-.22,1.84.04,2.56.58,1.01.76,1.65,1.92,1.99,3.11.52,1.82.44,3.84-.34,5.58-.48,1.05-1.28,2.04-2.39,2.43-.94.35-2.02.13-2.81-.46-1.14-.83-1.81-2.14-2.14-3.48-.43-1.85-.29-3.88.6-5.57.53-1.01,1.4-1.92,2.54-2.19m1.58,4.05c-.59.18-1,.71-1.2,1.27-.31.87-.21,1.9.33,2.67.31.44.84.78,1.4.74.58-.03,1.06-.45,1.33-.93.53-.96.47-2.24-.19-3.12-.37-.5-1.04-.82-1.66-.62Z"/>
      <path class="cls-1" d="m120.27,73.28c.91-.23,1.9.03,2.63.62,1.07.85,1.66,2.16,1.93,3.47.37,1.88.12,3.92-.84,5.59-.56.96-1.42,1.82-2.53,2.09-.93.24-1.94-.05-2.66-.66-1.07-.88-1.65-2.2-1.91-3.53-.33-1.82-.09-3.78.81-5.41.56-.99,1.43-1.89,2.57-2.17m-.24,4.95c-.91.22-1.74.78-2.25,1.57-.28.38.18,1.04.63.79.36-.33.72-.69,1.18-.89.87-.42,1.91-.28,2.74.18.25.16.6.19.82-.04.31-.31.44-.97-.03-1.2-.93-.51-2.06-.64-3.08-.41Z"/>
      <path class="cls-1" d="m96.82,106.07c1,.2,2,.38,3,.56,0,3.66,0,7.33,0,10.99,3.43.6,6.94.77,10.4.32,0-3.37,0-6.74,0-10.11,3.59.18,7.19.16,10.77-.13,3.87-.32,7.72-.87,11.53-1.63.52,3.27.65,6.6.51,9.91-.1,2.72-.52,5.45-1.44,8.02-.9,2.53-2.3,4.91-4.21,6.82-1.79,1.8-4.02,3.14-6.43,3.93-3.11,1.01-6.46,1.19-9.68.69-3.45-.53-6.77-2.09-9.25-4.57-2.65-2.61-4.29-6.1-5.08-9.7-.53-2.37-.66-4.8-.69-7.22-.02-2.64.15-5.28.56-7.88Z"/>
    </g>
    <g id="_faab07ff" data-name="#faab07ff">
      <path class="cls-9" d="m111.02,87.07c2.99-.2,5.99-.15,8.97.13,2.13.21,4.26.53,6.32,1.13.81.26,1.65.52,2.34,1.03.26.19.57.54.35.87-.32.38-.78.6-1.19.86-1.78,1.01-3.69,1.78-5.64,2.38-2.6.8-5.32,1.28-8.05,1.2-2.48-.07-4.93-.56-7.29-1.31-1.88-.61-3.73-1.37-5.44-2.36-.36-.23-.76-.43-1.04-.77-.21-.33.1-.67.35-.87.79-.57,1.75-.86,2.67-1.13,2.49-.67,5.07-.99,7.64-1.16Z"/>
      <path class="cls-9" d="m97.95,132.79c3.17,2.69,7.1,4.42,11.18,5.16,3.66.66,7.43.66,11.09,0,4.08-.74,8.01-2.47,11.19-5.16,1.9.61,3.8,1.3,5.47,2.4.6.4,1.22.93,1.38,1.67.11.47,0,1.08-.5,1.29-.87.4-1.83.48-2.77.6-2.93.3-5.87.29-8.81.27-3.01-.04-6.02-.16-9.03-.36-.94-.06-1.87-.19-2.81-.17-5.18.43-10.39.61-15.59.52-2.11-.07-4.25-.11-6.32-.57-.51-.14-1.22-.28-1.34-.9-.22-.89.43-1.69,1.12-2.17,1.73-1.21,3.74-1.94,5.73-2.58Z"/>
    </g>
    <g id="_eb1923ff" data-name="#eb1923ff">
      <path class="cls-8" d="m91.13,95.38c2.07.62,4.18,1.09,6.29,1.52,4.61.91,9.29,1.47,13.98,1.68,5.02.23,10.05-.1,15.02-.76,3.98-.55,7.95-1.31,11.81-2.44,1.13,2.82,2.26,5.63,3.38,8.45-2.99.89-6.02,1.63-9.08,2.23-3.81.76-7.66,1.31-11.53,1.63-3.58.29-7.18.31-10.77.13,0,3.37,0,6.74,0,10.11-3.45.45-6.97.27-10.4-.32,0-3.66,0-7.33,0-10.99-1-.17-2.01-.35-3-.56-3.06-.6-6.09-1.35-9.08-2.23,1.13-2.82,2.26-5.63,3.38-8.45Z"/>
    </g>
  </g>
  </g>
</svg>
