<svg width="256" height="256" viewBox="0 0 256 256" fill="none" xmlns="http://www.w3.org/2000/svg">
<g clip-path="url(#clip0_1_38)">
<path d="M86.6709 34C93.5434 34 100.057 37.0729 104.426 42.3779L117.403 58.1367H229C235.627 58.1367 241 63.5095 241 70.1367V160C241 166.627 235.627 172 229 172H29C22.3726 172 17 166.627 17 160V46C17 39.3726 22.3726 34 29 34H86.6709Z" fill="#FFF200"/>
<mask id="mask0_1_38" style="mask-type:alpha" maskUnits="userSpaceOnUse" x="17" y="34" width="224" height="138">
<path d="M86.6709 34C93.5434 34 100.057 37.0729 104.426 42.3779L117.403 58.1367H229C235.627 58.1367 241 63.5095 241 70.1367V160C241 166.627 235.627 172 229 172H29C22.3726 172 17 166.627 17 160V46C17 39.3726 22.3726 34 29 34H86.6709Z" fill="url(#paint0_linear_1_38)"/>
</mask>
<g mask="url(#mask0_1_38)">
<g filter="url(#filter0_f_1_38)">
<path d="M241 160C241 166.627 235.627 172 229 172H29C22.3726 172 17 166.627 17 160V86C17 79.3726 22.3726 74 29 74H92.79C97.7649 73.9999 102.605 72.3865 106.586 69.4023L116.46 62H229C235.627 62 241 67.3726 241 74V160Z" fill="#FF0000" fill-opacity="0.3"/>
</g>
</g>
<g filter="url(#filter1_ii_1_38)">
<path d="M241 198C241 204.627 235.627 210 229 210H29C22.3726 210 17 204.627 17 198V86C17 79.3726 22.3726 74 29 74H92.79C97.7649 73.9999 102.605 72.3865 106.586 69.4023L116.46 62H229C235.627 62 241 67.3726 241 74V198Z" fill="url(#paint1_linear_1_38)"/>
</g>
<path d="M129 146.75C135.075 146.75 140 141.825 140 135.75C140 129.675 135.075 124.75 129 124.75C122.925 124.75 118 129.675 118 135.75C118 141.825 122.925 146.75 129 146.75Z" fill="black"/>
<mask id="mask1_1_38" style="mask-type:luminance" maskUnits="userSpaceOnUse" x="74" y="80" width="110" height="111">
<path d="M129 171.5C148.744 171.5 164.75 155.494 164.75 135.75C164.75 116.006 148.744 100 129 100C109.256 100 93.25 116.006 93.25 135.75C93.25 155.494 109.256 171.5 129 171.5Z" stroke="white" stroke-width="38.5"/>
</mask>
<g mask="url(#mask1_1_38)">
<path d="M129 135.75L97.32 190.621L154.478 223.621" fill="black"/>
<path d="M129 135.75L160.68 190.621L103.522 223.621" fill="black"/>
<path d="M129 135.75L97.32 80.8786L40.1623 113.879" fill="black"/>
<path d="M129 135.75H65.64V69.75" fill="black"/>
<path d="M129 135.75H192.36V69.75" fill="black"/>
<path d="M129 135.75L160.68 80.8786L217.838 113.879" fill="black"/>
</g>
</g>
<defs>
<filter id="filter0_f_1_38" x="-20" y="25" width="298" height="184" filterUnits="userSpaceOnUse" color-interpolation-filters="sRGB">
<feFlood flood-opacity="0" result="BackgroundImageFix"/>
<feBlend mode="normal" in="SourceGraphic" in2="BackgroundImageFix" result="shape"/>
<feGaussianBlur stdDeviation="18.5" result="effect1_foregroundBlur_1_38"/>
</filter>
<filter id="filter1_ii_1_38" x="17" y="62" width="224" height="148" filterUnits="userSpaceOnUse" color-interpolation-filters="sRGB">
<feFlood flood-opacity="0" result="BackgroundImageFix"/>
<feBlend mode="normal" in="SourceGraphic" in2="BackgroundImageFix" result="shape"/>
<feColorMatrix in="SourceAlpha" type="matrix" values="0 0 0 0 0 0 0 0 0 0 0 0 0 0 0 0 0 0 127 0" result="hardAlpha"/>
<feOffset dy="4"/>
<feComposite in2="hardAlpha" operator="arithmetic" k2="-1" k3="1"/>
<feColorMatrix type="matrix" values="0 0 0 0 1 0 0 0 0 1 0 0 0 0 1 0 0 0 0.25 0"/>
<feBlend mode="normal" in2="shape" result="effect1_innerShadow_1_38"/>
<feColorMatrix in="SourceAlpha" type="matrix" values="0 0 0 0 0 0 0 0 0 0 0 0 0 0 0 0 0 0 127 0" result="hardAlpha"/>
<feOffset dy="-4"/>
<feComposite in2="hardAlpha" operator="arithmetic" k2="-1" k3="1"/>
<feColorMatrix type="matrix" values="0 0 0 0 0 0 0 0 0 0 0 0 0 0 0 0 0 0 0.9 0"/>
<feBlend mode="soft-light" in2="effect1_innerShadow_1_38" result="effect2_innerShadow_1_38"/>
</filter>
<linearGradient id="paint0_linear_1_38" x1="17" y1="34" x2="197.768" y2="215.142" gradientUnits="userSpaceOnUse">
<stop stop-color="#05815D"/>
<stop offset="1" stop-color="#0C575F"/>
</linearGradient>
<linearGradient id="paint1_linear_1_38" x1="17" y1="62" x2="241" y2="210" gradientUnits="userSpaceOnUse">
<stop stop-color="#FBF603"/>
<stop offset="0.953125" stop-color="#FCCE11"/>
</linearGradient>
<clipPath id="clip0_1_38">
<rect width="256" height="256" fill="white"/>
</clipPath>
</defs>
</svg>
