<svg width="256" height="256" viewBox="0 0 256 256" fill="none" xmlns="http://www.w3.org/2000/svg">
<g clip-path="url(#clip0_2043_38277)">
<path fill-rule="evenodd" clip-rule="evenodd" d="M104.425 42.3784C100.056 37.0733 93.5437 34 86.6712 34H29C22.3726 34 17 39.3726 17 46V58.1371V68.2V160C17 166.627 22.3726 172 29 172H229C235.627 172 241 166.627 241 160V70.1371C241 63.5097 235.627 58.1371 229 58.1371H117.404L104.425 42.3784Z" fill="#E6E6E6"/>
<mask id="mask0_2043_38277" style="mask-type:alpha" maskUnits="userSpaceOnUse" x="17" y="34" width="224" height="138">
<path fill-rule="evenodd" clip-rule="evenodd" d="M104.425 42.3784C100.056 37.0733 93.5437 34 86.6712 34H29C22.3726 34 17 39.3726 17 46V58.1371V68.2V160C17 166.627 22.3726 172 29 172H229C235.627 172 241 166.627 241 160V70.1371C241 63.5097 235.627 58.1371 229 58.1371H117.404L104.425 42.3784Z" fill="url(#paint0_linear_2043_38277)"/>
</mask>
<g mask="url(#mask0_2043_38277)">
<g style="mix-blend-mode:multiply" filter="url(#filter0_f_2043_38277)">
<path fill-rule="evenodd" clip-rule="evenodd" d="M92.789 74C97.7642 74 102.605 72.3868 106.586 69.4024L116.459 62H229C235.627 62 241 67.3726 241 74V108V160C241 166.627 235.627 172 229 172H29C22.3726 172 17 166.627 17 160L17 108V86C17 79.3726 22.3726 74 29 74H87H92.789Z" fill="black" fill-opacity="0.3"/>
</g>
</g>
<g filter="url(#filter1_ii_2043_38277)">
<path fill-rule="evenodd" clip-rule="evenodd" d="M92.789 74C97.7642 74 102.605 72.3868 106.586 69.4024L116.459 62H229C235.627 62 241 67.3726 241 74V108V198C241 204.627 235.627 210 229 210H29C22.3726 210 17 204.627 17 198L17 108V86C17 79.3726 22.3726 74 29 74H87H92.789Z" fill="url(#paint1_linear_2043_38277)"/>
</g>
<path d="M106.685 85.0018C106.097 85.0194 105.463 85.2278 104.743 85.7715C102.981 85.1207 101.273 84.8947 99.745 86.2196C97.3853 85.9267 96.6184 86.5317 96.0378 87.2391C95.5201 87.2283 92.1625 86.7282 90.623 88.9293C86.7539 88.4909 85.5299 91.1105 86.9153 93.5517C86.1263 94.7253 85.3061 95.8819 87.1549 98.1175C86.5013 99.3619 86.9062 100.712 88.4469 102.347C88.0402 104.095 88.8388 105.33 90.2718 106.292C90.0033 108.686 92.5629 110.079 93.3276 110.574C93.621 111.969 94.2327 113.286 97.1576 114.013C97.6374 116.094 99.3955 116.453 101.097 116.888C95.4731 120.022 90.6513 124.141 90.6847 134.252L89.86 135.66C83.4109 139.418 77.6104 151.493 86.6819 161.309C87.2755 164.382 88.2679 166.588 89.1526 169.031C90.4769 178.873 99.114 183.482 101.392 184.027C104.73 186.463 108.286 188.774 113.097 190.393C117.632 194.876 122.546 196.584 127.487 196.582H127.704C132.646 196.584 137.561 194.876 142.095 190.393C146.906 188.775 150.461 186.463 153.8 184.027C156.078 183.482 164.716 178.873 166.038 169.03C166.923 166.588 167.916 164.382 168.51 161.309C177.581 151.493 171.78 139.416 165.331 135.658L164.507 134.251C164.54 124.141 159.718 120.019 154.094 116.888C155.795 116.452 157.554 116.091 158.035 114.013C160.958 113.285 161.569 111.968 161.863 110.573C162.627 110.077 165.188 108.686 164.92 106.29C166.352 105.329 167.151 104.094 166.745 102.344C168.285 100.711 168.69 99.3602 168.035 98.1152C169.885 95.8819 169.064 94.7236 168.275 93.5511C169.66 91.1082 168.438 88.4897 164.567 88.9281C163.028 86.7282 159.671 87.2283 159.154 87.238C158.572 86.5311 157.804 85.9262 155.445 86.219C153.918 84.8947 152.209 85.1207 150.447 85.7715C148.355 84.1896 146.969 85.4578 145.388 85.9375C142.855 85.1434 142.275 86.2303 141.031 86.6733C138.269 86.1137 137.429 87.3314 136.104 88.6172L134.563 88.5883C130.396 90.94 128.326 95.7324 127.593 98.1957C126.858 95.7312 124.794 90.9394 120.627 88.5883L119.087 88.616C117.76 87.3303 116.921 86.1137 114.158 86.6733C112.914 86.2303 112.335 85.144 109.8 85.9375C108.762 85.6226 107.807 84.9678 106.683 85.0012L106.685 85.0018Z" fill="#050606"/>
<path d="M98.4721 95.3554C109.528 100.815 115.954 105.234 119.475 108.997C117.673 115.922 108.266 116.237 104.825 116.043C105.531 115.729 106.118 115.352 106.326 114.775C105.463 114.188 102.403 114.713 100.266 113.562C101.087 113.399 101.471 113.241 101.855 112.661C99.836 112.044 97.6621 111.512 96.3831 110.49C97.0736 110.499 97.7176 110.639 98.6193 110.039C96.8108 109.105 94.8816 108.366 93.3835 106.939C94.3158 106.917 95.3251 106.929 95.6185 106.601C93.9635 105.619 92.5673 104.526 91.4124 103.332C92.7208 103.483 93.2724 103.353 93.5896 103.133C92.3379 101.906 90.7548 100.87 89.9997 99.3576C90.9711 99.6782 91.8598 99.8011 92.5004 99.3287C92.0745 98.41 90.2546 97.8679 89.2051 95.7218C90.228 95.8158 91.3127 95.9354 91.5285 95.7218C91.055 93.8685 90.241 92.8263 89.4418 91.7485C91.6299 91.7168 94.9456 91.7553 94.7955 91.5774L93.4418 90.2543C95.58 89.7021 97.7674 90.3432 99.3556 90.8173C100.068 90.2787 99.3432 89.5978 98.4737 88.9C100.29 89.1328 101.931 89.5338 103.414 90.0849C104.207 89.399 102.9 88.7137 102.268 88.0266C105.074 88.5375 106.264 89.254 107.444 89.9728C108.303 89.1844 107.494 88.516 106.916 87.8306C109.032 88.5811 110.121 89.5514 111.27 90.508C111.659 90.0039 112.257 89.6352 111.535 88.422C113.036 89.2518 114.168 90.2299 115.005 91.3248C115.934 90.7573 115.559 89.9813 115.564 89.2671C117.126 90.4843 118.116 91.7785 119.33 93.0444C119.573 92.8745 119.787 92.2956 119.977 91.3814C123.701 94.8439 128.966 103.567 121.329 107.024C114.831 101.89 107.07 98.1562 98.4692 95.3554H98.4709H98.4721ZM157.028 95.3554C145.974 100.816 139.546 105.233 136.025 108.997C137.829 115.922 147.236 116.237 150.675 116.043C149.97 115.729 149.383 115.352 149.175 114.775C150.038 114.188 153.099 114.713 155.235 113.562C154.414 113.399 154.03 113.241 153.647 112.661C155.665 112.044 157.839 111.512 159.118 110.49C158.428 110.499 157.783 110.639 156.881 110.039C158.69 109.105 160.619 108.366 162.119 106.939C161.183 106.917 160.176 106.929 159.883 106.601C161.538 105.619 162.935 104.526 164.09 103.332C162.781 103.483 162.229 103.353 161.912 103.133C163.163 101.906 164.747 100.87 165.502 99.3576C164.53 99.6782 163.642 99.8011 163.001 99.3287C163.426 98.41 165.247 97.8679 166.296 95.7218C165.272 95.8158 164.189 95.9354 163.971 95.7218C164.448 93.8685 165.26 92.8258 166.06 91.7473C163.872 91.7162 160.556 91.7541 160.706 91.5774L162.061 90.2543C159.921 89.7015 157.734 90.3421 156.147 90.8162C155.433 90.2775 156.16 89.5967 157.028 88.8995C155.213 89.1322 153.571 89.5333 152.088 90.0844C151.294 89.3979 152.602 88.7131 153.234 88.0261C150.428 88.537 149.239 89.2535 148.057 89.9705C147.2 89.1838 148.009 88.5149 148.586 87.8301C146.47 88.5806 145.38 89.5508 144.232 90.5058C143.844 90.0028 143.245 89.6341 143.968 88.4197C142.466 89.2506 141.334 90.2277 140.496 91.3237C139.567 90.7561 139.943 89.9802 139.937 89.2665C138.377 90.4831 137.385 91.7785 136.172 93.0438C135.928 92.8739 135.714 92.2951 135.525 91.3803C131.8 94.8428 126.536 103.565 134.172 107.024C140.668 101.887 148.427 98.1545 157.03 95.3548L157.028 95.3554Z" fill="#63C54D"/>
<path d="M141.121 165.867C141.16 172.329 135.262 177.595 127.948 177.63C120.634 177.664 114.675 172.454 114.636 165.991V165.867C114.597 159.405 120.495 154.139 127.808 154.105C135.123 154.071 141.082 159.281 141.121 165.743V165.866V165.867ZM120.474 132.443C125.96 135.887 126.949 143.695 122.683 149.882C118.415 156.069 110.508 158.293 105.02 154.848C99.534 151.404 98.5445 143.595 102.812 137.409C107.079 131.221 114.986 128.998 120.474 132.443ZM135.283 131.819C129.796 135.264 128.807 143.071 133.074 149.259C137.342 155.445 145.249 157.67 150.735 154.224C156.223 150.779 157.211 142.972 152.945 136.785C148.677 130.599 140.771 128.375 135.283 131.82V131.819ZM93.388 138.111C99.3115 136.588 95.3874 161.594 90.5684 159.543C85.2651 155.456 83.5568 143.489 93.3868 138.111H93.388ZM161.851 137.799C155.926 136.278 159.85 161.284 164.671 159.232C169.974 155.145 171.681 143.178 161.851 137.799ZM141.981 119.143C152.205 117.488 160.712 123.308 160.368 133.931C160.032 138.002 138.214 119.748 141.981 119.142V119.143ZM113.733 118.831C103.508 117.176 95.001 122.997 95.3449 133.619C95.6813 137.691 117.5 119.436 113.733 118.831ZM127.818 116.353C121.717 116.202 115.861 120.694 115.845 123.297C115.83 126.463 120.67 129.703 127.861 129.786C135.202 129.836 139.887 127.192 139.91 123.926C139.937 120.225 133.232 116.297 127.818 116.353ZM128.289 181.264C133.61 181.041 140.749 182.905 140.762 185.378C140.851 187.78 134.288 193.206 127.937 193.102C121.359 193.374 114.909 187.939 114.994 186.056C114.894 183.293 123.004 181.138 128.289 181.264ZM108.601 166.606C112.388 170.979 114.114 178.66 110.954 180.924C107.964 182.653 100.701 181.941 95.5386 174.836C92.0586 168.875 92.5077 162.808 94.9518 161.025C98.6068 158.891 104.254 161.773 108.6 166.606H108.601ZM146.737 165.219C142.638 169.82 140.356 178.208 143.345 180.909C146.203 183.009 153.877 182.715 159.546 175.179C163.662 170.118 162.282 161.666 159.932 159.422C156.439 156.833 151.426 160.146 146.736 165.218L146.737 165.219Z" fill="#C51850"/>
</g>
<defs>
<filter id="filter0_f_2043_38277" x="-20" y="25" width="298" height="184" filterUnits="userSpaceOnUse" color-interpolation-filters="sRGB">
<feFlood flood-opacity="0" result="BackgroundImageFix"/>
<feBlend mode="normal" in="SourceGraphic" in2="BackgroundImageFix" result="shape"/>
<feGaussianBlur stdDeviation="18.5" result="effect1_foregroundBlur_2043_38277"/>
</filter>
<filter id="filter1_ii_2043_38277" x="17" y="62" width="224" height="148" filterUnits="userSpaceOnUse" color-interpolation-filters="sRGB">
<feFlood flood-opacity="0" result="BackgroundImageFix"/>
<feBlend mode="normal" in="SourceGraphic" in2="BackgroundImageFix" result="shape"/>
<feColorMatrix in="SourceAlpha" type="matrix" values="0 0 0 0 0 0 0 0 0 0 0 0 0 0 0 0 0 0 127 0" result="hardAlpha"/>
<feOffset dy="-4"/>
<feComposite in2="hardAlpha" operator="arithmetic" k2="-1" k3="1"/>
<feColorMatrix type="matrix" values="0 0 0 0 0 0 0 0 0 0 0 0 0 0 0 0 0 0 0.25 0"/>
<feBlend mode="normal" in2="shape" result="effect1_innerShadow_2043_38277"/>
<feColorMatrix in="SourceAlpha" type="matrix" values="0 0 0 0 0 0 0 0 0 0 0 0 0 0 0 0 0 0 127 0" result="hardAlpha"/>
<feOffset dy="4"/>
<feComposite in2="hardAlpha" operator="arithmetic" k2="-1" k3="1"/>
<feColorMatrix type="matrix" values="0 0 0 0 1 0 0 0 0 1 0 0 0 0 1 0 0 0 0.25 0"/>
<feBlend mode="normal" in2="effect1_innerShadow_2043_38277" result="effect2_innerShadow_2043_38277"/>
</filter>
<linearGradient id="paint0_linear_2043_38277" x1="17" y1="34" x2="197.768" y2="215.142" gradientUnits="userSpaceOnUse">
<stop stop-color="#05815D"/>
<stop offset="1" stop-color="#0C575F"/>
</linearGradient>
<linearGradient id="paint1_linear_2043_38277" x1="17" y1="62" x2="241" y2="210" gradientUnits="userSpaceOnUse">
<stop stop-color="#5F585E"/>
<stop offset="1" stop-color="#010101"/>
</linearGradient>
<clipPath id="clip0_2043_38277">
<rect width="256" height="256" fill="white"/>
</clipPath>
</defs>
</svg>
