<svg width="256" height="256" viewBox="0 0 256 256" fill="none" xmlns="http://www.w3.org/2000/svg">
<path fill-rule="evenodd" clip-rule="evenodd" d="M104.425 42.3784C100.056 37.0733 93.5437 34 86.6712 34H29C22.3726 34 17 39.3726 17 46V58.1371V68.2V160C17 166.627 22.3726 172 29 172H229C235.627 172 241 166.627 241 160V70.1371C241 63.5097 235.627 58.1371 229 58.1371H117.404L104.425 42.3784Z" fill="#221E1D"/>
<mask id="mask0_780_17935" style="mask-type:alpha" maskUnits="userSpaceOnUse" x="17" y="34" width="224" height="138">
<path fill-rule="evenodd" clip-rule="evenodd" d="M104.425 42.3784C100.056 37.0733 93.5437 34 86.6712 34H29C22.3726 34 17 39.3726 17 46V58.1371V68.2V160C17 166.627 22.3726 172 29 172H229C235.627 172 241 166.627 241 160V70.1371C241 63.5097 235.627 58.1371 229 58.1371H117.404L104.425 42.3784Z" fill="url(#paint0_linear_780_17935)"/>
</mask>
<g mask="url(#mask0_780_17935)">
<g style="mix-blend-mode:multiply" filter="url(#filter0_f_780_17935)">
<path fill-rule="evenodd" clip-rule="evenodd" d="M92.789 74C97.7642 74 102.605 72.3868 106.586 69.4024L116.459 62H229C235.627 62 241 67.3726 241 74V108V160C241 166.627 235.627 172 229 172H29C22.3726 172 17 166.627 17 160L17 108V86C17 79.3726 22.3726 74 29 74H87H92.789Z" fill="black" fill-opacity="0.3"/>
</g>
</g>
<g filter="url(#filter1_ii_780_17935)">
<path fill-rule="evenodd" clip-rule="evenodd" d="M92.789 74C97.7642 74 102.605 72.3868 106.586 69.4024L116.459 62H229C235.627 62 241 67.3726 241 74V108V198C241 204.627 235.627 210 229 210H29C22.3726 210 17 204.627 17 198L17 108V86C17 79.3726 22.3726 74 29 74H87H92.789Z" fill="url(#paint1_linear_780_17935)"/>
</g>
<path d="M109.105 81.0016C108.554 81.0187 107.96 81.2223 107.287 81.7536C105.638 81.1176 104.039 80.8966 102.608 82.1914C100.4 81.905 99.6826 82.4961 99.1389 83.1861C98.6542 83.176 95.5115 82.6878 94.0703 84.8376C90.4486 84.409 89.304 86.9678 90.6009 89.354C89.8613 90.499 89.0948 91.6303 90.8246 93.8132C90.2127 95.0291 90.592 96.348 92.0334 97.9442C91.653 99.6534 92.4008 100.859 93.742 101.799C93.4912 104.138 95.8869 105.498 96.6022 105.982C96.8769 107.345 97.4494 108.631 100.186 109.342C100.637 111.373 102.282 111.724 103.874 112.15C98.6107 115.21 94.0969 119.235 94.1275 129.113L93.3565 130.488C87.3211 134.158 81.8911 145.955 90.3822 155.543C90.9368 158.545 91.867 160.7 92.6952 163.086C93.934 172.701 102.018 177.203 104.151 177.735C107.275 180.115 110.603 182.374 115.106 183.955C119.351 188.334 123.95 190.002 128.575 190C128.642 190 128.712 190 128.779 190C133.404 190.003 138.003 188.334 142.248 183.955C146.751 182.374 150.079 180.115 153.203 177.735C155.336 177.203 163.42 172.701 164.659 163.086C165.487 160.7 166.417 158.545 166.972 155.543C175.463 145.954 170.033 134.157 163.997 130.486L163.225 129.111C163.256 119.235 158.742 115.209 153.479 112.149C155.071 111.723 156.716 111.372 157.167 109.341C159.903 108.63 160.476 107.344 160.751 105.981C161.466 105.497 163.862 104.137 163.611 101.798C164.952 100.858 165.7 99.6519 165.319 97.9429C166.761 96.3467 167.14 95.0278 166.528 93.8119C168.258 91.6299 167.491 90.4986 166.752 89.3535C168.048 86.9674 166.904 84.4086 163.281 84.8371C161.841 82.6874 158.699 83.1756 158.213 83.1857C157.669 82.4956 156.952 81.9046 154.744 82.191C153.314 80.8962 151.715 81.1171 150.065 81.7532C148.107 80.2077 146.811 81.4466 145.33 81.915C142.959 81.1401 142.417 82.2014 141.252 82.6336C138.666 82.0872 137.88 83.2769 136.641 84.5325L135.199 84.504C131.298 86.8025 129.361 91.483 128.674 93.889C127.987 91.4825 126.053 86.8021 122.154 84.504L120.712 84.5325C119.471 83.2769 118.685 82.0872 116.099 82.6336C114.934 82.2014 114.393 81.1401 112.02 81.915C111.049 81.6076 110.155 80.9686 109.103 81.0012L109.105 81.0016Z" fill="black"/>
<path d="M101.34 91.1142C111.688 96.4492 117.703 100.765 120.999 104.44C119.311 111.205 110.507 111.514 107.287 111.324C107.946 111.017 108.496 110.65 108.691 110.085C107.884 109.511 105.019 110.024 103.019 108.901C103.788 108.742 104.147 108.587 104.506 108.02C102.617 107.417 100.582 106.898 99.385 105.9C100.031 105.908 100.634 106.044 101.478 105.459C99.7852 104.547 97.9795 103.825 96.5766 102.431C97.4515 102.409 98.3948 102.422 98.6691 102.1C97.1203 101.141 95.8134 100.074 94.7317 98.9064C95.9561 99.0542 96.4732 98.9269 96.7692 98.7136C95.5984 97.5144 94.1166 96.5019 93.4101 95.0242C94.3192 95.3375 95.151 95.4575 95.7505 94.9966C95.3527 94.0991 93.6481 93.5697 92.6667 91.4723C93.6238 91.5651 94.6389 91.6811 94.8419 91.4723C94.3977 89.6624 93.6355 88.645 92.8879 87.5908C94.9362 87.5603 98.0396 87.5987 97.8991 87.4256L96.6325 86.1315C98.6334 85.5928 100.681 86.218 102.167 86.6822C102.834 86.1556 102.155 85.4897 101.341 84.8099C103.041 85.0369 104.578 85.4278 105.966 85.9663C106.708 85.2963 105.485 84.6263 104.893 83.9563C107.52 84.4547 108.632 85.155 109.739 85.8562C110.541 85.087 109.785 84.4333 109.243 83.7637C111.224 84.4973 112.244 85.4444 113.318 86.3793C113.682 85.8878 114.243 85.5276 113.566 84.3418C114.972 85.1524 116.031 86.1076 116.815 87.1778C117.685 86.6237 117.333 85.8661 117.338 85.1678C118.799 86.3567 119.727 87.6219 120.862 88.8573C121.091 88.6907 121.291 88.126 121.468 87.2328C124.955 90.6155 129.882 99.1357 122.735 102.514C116.652 97.4973 109.388 93.8509 101.338 91.1156L101.34 91.1142Z" fill="#75A928"/>
<path d="M156.246 91.114C145.899 96.4494 139.883 100.764 136.588 104.44C138.276 111.205 147.08 111.513 150.3 111.324C149.64 111.017 149.09 110.649 148.895 110.085C149.703 109.511 152.568 110.024 154.567 108.901C153.799 108.742 153.44 108.587 153.081 108.02C154.97 107.417 157.005 106.898 158.202 105.9C157.556 105.908 156.953 106.044 156.109 105.459C157.802 104.547 159.607 103.824 161.01 102.43C160.135 102.409 159.192 102.422 158.918 102.1C160.467 101.14 161.773 100.073 162.855 98.9061C161.631 99.0539 161.114 98.9267 160.818 98.7134C161.988 97.5142 163.47 96.5016 164.177 95.0239C163.268 95.3373 162.436 95.4572 161.836 94.9964C162.234 94.0989 163.939 93.5695 164.92 91.472C163.963 91.5648 162.948 91.6808 162.745 91.472C163.19 89.6614 163.952 88.644 164.7 87.5898C162.651 87.5594 159.548 87.5978 159.689 87.4246L160.955 86.1305C158.954 85.5918 156.907 86.217 155.421 86.6812C154.753 86.1546 155.433 85.4887 156.247 84.8089C154.546 85.0359 153.01 85.4268 151.621 85.9653C150.879 85.2953 152.103 84.6253 152.695 83.9553C150.068 84.4537 148.955 85.154 147.849 85.8552C147.047 85.086 147.803 84.4323 148.345 83.7627C146.364 84.4963 145.344 85.4434 144.27 86.3783C143.905 85.8869 143.344 85.5266 144.022 84.3408C142.616 85.1514 141.556 86.1066 140.773 87.1768C139.903 86.6228 140.254 85.8651 140.25 85.1668C138.788 86.3557 137.861 87.6209 136.725 88.8563C136.497 88.6898 136.296 88.125 136.12 87.2318C132.633 90.6145 127.706 99.1347 134.853 102.513C140.932 97.4953 148.196 93.8492 156.247 91.1139L156.246 91.114Z" fill="#75A928"/>
<g filter="url(#filter2_i_780_17935)">
<path d="M141.324 159.997C141.333 161.503 141.019 162.996 140.4 164.389C139.781 165.783 138.869 167.05 137.717 168.118C136.565 169.186 135.196 170.033 133.688 170.611C132.18 171.189 130.563 171.487 128.929 171.487C127.296 171.487 125.679 171.189 124.171 170.611C122.663 170.033 121.293 169.186 120.142 168.118C118.99 167.05 118.078 165.783 117.459 164.389C116.84 162.996 116.526 161.503 116.534 159.997C116.526 158.491 116.84 156.998 117.459 155.604C118.078 154.211 118.99 152.944 120.142 151.876C121.293 150.808 122.663 149.961 124.171 149.383C125.679 148.804 127.296 148.507 128.929 148.507C130.563 148.507 132.18 148.804 133.688 149.383C135.196 149.961 136.565 150.808 137.717 151.876C138.869 152.944 139.781 154.211 140.4 155.604C141.019 156.998 141.333 158.491 141.324 159.997Z" fill="#9C0822"/>
</g>
<g filter="url(#filter3_i_780_17935)">
<path d="M121.757 127.346C122.978 128.146 124.001 129.221 124.765 130.51C125.53 131.8 126.023 133.277 126.215 134.859C126.407 136.441 126.295 138.096 125.885 139.73C125.475 141.364 124.775 142.945 123.825 144.382C122.875 145.819 121.695 147.084 120.35 148.106C119.005 149.127 117.523 149.885 115.988 150.335C114.453 150.786 112.895 150.92 111.403 150.731C109.912 150.542 108.515 150.032 107.294 149.232C106.073 148.432 105.051 147.357 104.286 146.068C103.521 144.779 103.029 143.301 102.837 141.719C102.645 140.137 102.757 138.482 103.167 136.848C103.577 135.214 104.277 133.634 105.226 132.196C106.176 130.759 107.357 129.494 108.702 128.472C110.046 127.451 111.528 126.693 113.063 126.243C114.599 125.793 116.156 125.658 117.648 125.847C119.14 126.037 120.536 126.546 121.757 127.346Z" fill="#9C0822"/>
</g>
<g filter="url(#filter4_i_780_17935)">
<path d="M135.62 126.737C134.398 127.537 133.376 128.612 132.611 129.901C131.846 131.19 131.354 132.668 131.162 134.25C130.97 135.832 131.082 137.487 131.492 139.121C131.902 140.755 132.602 142.335 133.552 143.772C134.501 145.209 135.682 146.475 137.027 147.496C138.371 148.518 139.854 149.275 141.389 149.726C142.924 150.176 144.482 150.311 145.973 150.121C147.465 149.932 148.861 149.423 150.082 148.623C151.304 147.823 152.326 146.747 153.091 145.458C153.856 144.169 154.348 142.692 154.54 141.11C154.732 139.528 154.62 137.873 154.21 136.239C153.8 134.605 153.1 133.024 152.15 131.587C151.201 130.15 150.02 128.885 148.675 127.863C147.33 126.842 145.848 126.084 144.313 125.634C142.778 125.183 141.22 125.049 139.729 125.238C138.237 125.427 136.841 125.936 135.62 126.737Z" fill="#9C0822"/>
</g>
<g filter="url(#filter5_i_780_17935)">
<path d="M96.0884 132.847C101.633 131.361 97.9604 155.787 93.4487 153.783C88.4859 149.792 86.8875 138.102 96.0884 132.847Z" fill="#9C0822"/>
</g>
<g filter="url(#filter6_i_780_17935)">
<path d="M160.169 132.543C154.623 131.057 158.297 155.484 162.808 153.48C167.771 149.488 169.37 137.797 160.169 132.543Z" fill="#9C0822"/>
</g>
<g filter="url(#filter7_i_780_17935)">
<path d="M141.329 114.353C150.898 112.737 158.861 118.422 158.539 128.799C158.224 132.777 137.803 114.945 141.329 114.353Z" fill="#9C0822"/>
</g>
<g filter="url(#filter8_i_780_17935)">
<path d="M114.889 114.048C105.319 112.432 97.357 118.119 97.6783 128.495C97.9931 132.473 118.415 114.641 114.889 114.048Z" fill="#9C0822"/>
</g>
<g filter="url(#filter9_i_780_17935)">
<path d="M128.635 111.629C122.924 111.48 117.442 115.868 117.429 118.412C117.413 121.505 121.945 124.671 128.674 124.751C135.546 124.8 139.931 122.217 139.953 119.026C139.978 115.41 133.703 111.573 128.635 111.629L128.635 111.629Z" fill="#9C0822"/>
</g>
<g filter="url(#filter10_i_780_17935)">
<path d="M128.984 175.037C133.963 174.82 140.645 176.641 140.658 179.057C140.741 181.403 134.598 186.704 128.654 186.601C122.497 186.867 116.46 181.558 116.539 179.718C116.447 177.02 124.035 174.913 128.984 175.037Z" fill="#9C0822"/>
</g>
<g filter="url(#filter11_i_780_17935)">
<path d="M110.591 160.718C114.136 164.989 115.753 172.493 112.794 174.705C109.995 176.394 103.198 175.698 98.3664 168.758C95.1081 162.934 95.528 157.007 97.8157 155.266C101.237 153.182 106.523 155.997 110.591 160.718H110.591Z" fill="#9C0822"/>
</g>
<g filter="url(#filter12_i_780_17935)">
<path d="M146.666 159.364C142.831 163.857 140.695 172.052 143.493 174.691C146.168 176.742 153.351 176.455 158.656 169.093C162.509 164.149 161.218 155.892 159.017 153.7C155.748 151.171 151.056 154.407 146.666 159.363L146.666 159.364Z" fill="#9C0822"/>
</g>
<defs>
<filter id="filter0_f_780_17935" x="-20" y="25" width="298" height="184" filterUnits="userSpaceOnUse" color-interpolation-filters="sRGB">
<feFlood flood-opacity="0" result="BackgroundImageFix"/>
<feBlend mode="normal" in="SourceGraphic" in2="BackgroundImageFix" result="shape"/>
<feGaussianBlur stdDeviation="18.5" result="effect1_foregroundBlur_780_17935"/>
</filter>
<filter id="filter1_ii_780_17935" x="17" y="62" width="224" height="148" filterUnits="userSpaceOnUse" color-interpolation-filters="sRGB">
<feFlood flood-opacity="0" result="BackgroundImageFix"/>
<feBlend mode="normal" in="SourceGraphic" in2="BackgroundImageFix" result="shape"/>
<feColorMatrix in="SourceAlpha" type="matrix" values="0 0 0 0 0 0 0 0 0 0 0 0 0 0 0 0 0 0 127 0" result="hardAlpha"/>
<feOffset dy="4"/>
<feComposite in2="hardAlpha" operator="arithmetic" k2="-1" k3="1"/>
<feColorMatrix type="matrix" values="0 0 0 0 1 0 0 0 0 1 0 0 0 0 1 0 0 0 0.25 0"/>
<feBlend mode="normal" in2="shape" result="effect1_innerShadow_780_17935"/>
<feColorMatrix in="SourceAlpha" type="matrix" values="0 0 0 0 0 0 0 0 0 0 0 0 0 0 0 0 0 0 127 0" result="hardAlpha"/>
<feOffset dy="-4"/>
<feComposite in2="hardAlpha" operator="arithmetic" k2="-1" k3="1"/>
<feColorMatrix type="matrix" values="0 0 0 0 0 0 0 0 0 0 0 0 0 0 0 0 0 0 0.9 0"/>
<feBlend mode="soft-light" in2="effect1_innerShadow_780_17935" result="effect2_innerShadow_780_17935"/>
</filter>
<filter id="filter2_i_780_17935" x="116.534" y="148.507" width="26.6589" height="24.849" filterUnits="userSpaceOnUse" color-interpolation-filters="sRGB">
<feFlood flood-opacity="0" result="BackgroundImageFix"/>
<feBlend mode="normal" in="SourceGraphic" in2="BackgroundImageFix" result="shape"/>
<feColorMatrix in="SourceAlpha" type="matrix" values="0 0 0 0 0 0 0 0 0 0 0 0 0 0 0 0 0 0 127 0" result="hardAlpha"/>
<feOffset dx="1.86857" dy="1.86857"/>
<feGaussianBlur stdDeviation="7.78571"/>
<feComposite in2="hardAlpha" operator="arithmetic" k2="-1" k3="1"/>
<feColorMatrix type="matrix" values="0 0 0 0 0.909804 0 0 0 0 0.113725 0 0 0 0 0.431373 0 0 0 1 0"/>
<feBlend mode="normal" in2="shape" result="effect1_innerShadow_780_17935"/>
</filter>
<filter id="filter3_i_780_17935" x="102.746" y="125.765" width="25.4289" height="26.9184" filterUnits="userSpaceOnUse" color-interpolation-filters="sRGB">
<feFlood flood-opacity="0" result="BackgroundImageFix"/>
<feBlend mode="normal" in="SourceGraphic" in2="BackgroundImageFix" result="shape"/>
<feColorMatrix in="SourceAlpha" type="matrix" values="0 0 0 0 0 0 0 0 0 0 0 0 0 0 0 0 0 0 127 0" result="hardAlpha"/>
<feOffset dx="1.86857" dy="1.86857"/>
<feGaussianBlur stdDeviation="7.78571"/>
<feComposite in2="hardAlpha" operator="arithmetic" k2="-1" k3="1"/>
<feColorMatrix type="matrix" values="0 0 0 0 0.909804 0 0 0 0 0.113725 0 0 0 0 0.431373 0 0 0 1 0"/>
<feBlend mode="normal" in2="shape" result="effect1_innerShadow_780_17935"/>
</filter>
<filter id="filter4_i_780_17935" x="131.071" y="125.155" width="25.4289" height="26.9184" filterUnits="userSpaceOnUse" color-interpolation-filters="sRGB">
<feFlood flood-opacity="0" result="BackgroundImageFix"/>
<feBlend mode="normal" in="SourceGraphic" in2="BackgroundImageFix" result="shape"/>
<feColorMatrix in="SourceAlpha" type="matrix" values="0 0 0 0 0 0 0 0 0 0 0 0 0 0 0 0 0 0 127 0" result="hardAlpha"/>
<feOffset dx="1.86857" dy="1.86857"/>
<feGaussianBlur stdDeviation="7.78571"/>
<feComposite in2="hardAlpha" operator="arithmetic" k2="-1" k3="1"/>
<feColorMatrix type="matrix" values="0 0 0 0 0.909804 0 0 0 0 0.113725 0 0 0 0 0.431373 0 0 0 1 0"/>
<feBlend mode="normal" in2="shape" result="effect1_innerShadow_780_17935"/>
</filter>
<filter id="filter5_i_780_17935" x="89.45" y="132.782" width="11.3027" height="22.9867" filterUnits="userSpaceOnUse" color-interpolation-filters="sRGB">
<feFlood flood-opacity="0" result="BackgroundImageFix"/>
<feBlend mode="normal" in="SourceGraphic" in2="BackgroundImageFix" result="shape"/>
<feColorMatrix in="SourceAlpha" type="matrix" values="0 0 0 0 0 0 0 0 0 0 0 0 0 0 0 0 0 0 127 0" result="hardAlpha"/>
<feOffset dx="1.86857" dy="1.86857"/>
<feGaussianBlur stdDeviation="7.78571"/>
<feComposite in2="hardAlpha" operator="arithmetic" k2="-1" k3="1"/>
<feColorMatrix type="matrix" values="0 0 0 0 0.909804 0 0 0 0 0.113725 0 0 0 0 0.431373 0 0 0 1 0"/>
<feBlend mode="normal" in2="shape" result="effect1_innerShadow_780_17935"/>
</filter>
<filter id="filter6_i_780_17935" x="157.373" y="132.478" width="11.3029" height="22.9877" filterUnits="userSpaceOnUse" color-interpolation-filters="sRGB">
<feFlood flood-opacity="0" result="BackgroundImageFix"/>
<feBlend mode="normal" in="SourceGraphic" in2="BackgroundImageFix" result="shape"/>
<feColorMatrix in="SourceAlpha" type="matrix" values="0 0 0 0 0 0 0 0 0 0 0 0 0 0 0 0 0 0 127 0" result="hardAlpha"/>
<feOffset dx="1.86857" dy="1.86857"/>
<feGaussianBlur stdDeviation="7.78571"/>
<feComposite in2="hardAlpha" operator="arithmetic" k2="-1" k3="1"/>
<feColorMatrix type="matrix" values="0 0 0 0 0.909804 0 0 0 0 0.113725 0 0 0 0 0.431373 0 0 0 1 0"/>
<feBlend mode="normal" in2="shape" result="effect1_innerShadow_780_17935"/>
</filter>
<filter id="filter7_i_780_17935" x="140.92" y="114.081" width="19.4975" height="17.1645" filterUnits="userSpaceOnUse" color-interpolation-filters="sRGB">
<feFlood flood-opacity="0" result="BackgroundImageFix"/>
<feBlend mode="normal" in="SourceGraphic" in2="BackgroundImageFix" result="shape"/>
<feColorMatrix in="SourceAlpha" type="matrix" values="0 0 0 0 0 0 0 0 0 0 0 0 0 0 0 0 0 0 127 0" result="hardAlpha"/>
<feOffset dx="1.86857" dy="1.86857"/>
<feGaussianBlur stdDeviation="7.78571"/>
<feComposite in2="hardAlpha" operator="arithmetic" k2="-1" k3="1"/>
<feColorMatrix type="matrix" values="0 0 0 0 0.909804 0 0 0 0 0.113725 0 0 0 0 0.431373 0 0 0 1 0"/>
<feBlend mode="normal" in2="shape" result="effect1_innerShadow_780_17935"/>
</filter>
<filter id="filter8_i_780_17935" x="97.6689" y="113.776" width="19.4975" height="17.1654" filterUnits="userSpaceOnUse" color-interpolation-filters="sRGB">
<feFlood flood-opacity="0" result="BackgroundImageFix"/>
<feBlend mode="normal" in="SourceGraphic" in2="BackgroundImageFix" result="shape"/>
<feColorMatrix in="SourceAlpha" type="matrix" values="0 0 0 0 0 0 0 0 0 0 0 0 0 0 0 0 0 0 127 0" result="hardAlpha"/>
<feOffset dx="1.86857" dy="1.86857"/>
<feGaussianBlur stdDeviation="7.78571"/>
<feComposite in2="hardAlpha" operator="arithmetic" k2="-1" k3="1"/>
<feColorMatrix type="matrix" values="0 0 0 0 0.909804 0 0 0 0 0.113725 0 0 0 0 0.431373 0 0 0 1 0"/>
<feBlend mode="normal" in2="shape" result="effect1_innerShadow_780_17935"/>
</filter>
<filter id="filter9_i_780_17935" x="117.429" y="111.625" width="24.3925" height="14.9955" filterUnits="userSpaceOnUse" color-interpolation-filters="sRGB">
<feFlood flood-opacity="0" result="BackgroundImageFix"/>
<feBlend mode="normal" in="SourceGraphic" in2="BackgroundImageFix" result="shape"/>
<feColorMatrix in="SourceAlpha" type="matrix" values="0 0 0 0 0 0 0 0 0 0 0 0 0 0 0 0 0 0 127 0" result="hardAlpha"/>
<feOffset dx="1.86857" dy="1.86857"/>
<feGaussianBlur stdDeviation="7.78571"/>
<feComposite in2="hardAlpha" operator="arithmetic" k2="-1" k3="1"/>
<feColorMatrix type="matrix" values="0 0 0 0 0.909804 0 0 0 0 0.113725 0 0 0 0 0.431373 0 0 0 1 0"/>
<feBlend mode="normal" in2="shape" result="effect1_innerShadow_780_17935"/>
</filter>
<filter id="filter10_i_780_17935" x="116.538" y="175.02" width="25.9897" height="13.4604" filterUnits="userSpaceOnUse" color-interpolation-filters="sRGB">
<feFlood flood-opacity="0" result="BackgroundImageFix"/>
<feBlend mode="normal" in="SourceGraphic" in2="BackgroundImageFix" result="shape"/>
<feColorMatrix in="SourceAlpha" type="matrix" values="0 0 0 0 0 0 0 0 0 0 0 0 0 0 0 0 0 0 127 0" result="hardAlpha"/>
<feOffset dx="1.86857" dy="1.86857"/>
<feGaussianBlur stdDeviation="7.78571"/>
<feComposite in2="hardAlpha" operator="arithmetic" k2="-1" k3="1"/>
<feColorMatrix type="matrix" values="0 0 0 0 0.909804 0 0 0 0 0.113725 0 0 0 0 0.431373 0 0 0 1 0"/>
<feBlend mode="normal" in2="shape" result="effect1_innerShadow_780_17935"/>
</filter>
<filter id="filter11_i_780_17935" x="96.011" y="154.569" width="20.1916" height="22.7778" filterUnits="userSpaceOnUse" color-interpolation-filters="sRGB">
<feFlood flood-opacity="0" result="BackgroundImageFix"/>
<feBlend mode="normal" in="SourceGraphic" in2="BackgroundImageFix" result="shape"/>
<feColorMatrix in="SourceAlpha" type="matrix" values="0 0 0 0 0 0 0 0 0 0 0 0 0 0 0 0 0 0 127 0" result="hardAlpha"/>
<feOffset dx="1.86857" dy="1.86857"/>
<feGaussianBlur stdDeviation="7.78571"/>
<feComposite in2="hardAlpha" operator="arithmetic" k2="-1" k3="1"/>
<feColorMatrix type="matrix" values="0 0 0 0 0.909804 0 0 0 0 0.113725 0 0 0 0 0.431373 0 0 0 1 0"/>
<feBlend mode="normal" in2="shape" result="effect1_innerShadow_780_17935"/>
</filter>
<filter id="filter12_i_780_17935" x="142.216" y="152.819" width="20.7719" height="24.8363" filterUnits="userSpaceOnUse" color-interpolation-filters="sRGB">
<feFlood flood-opacity="0" result="BackgroundImageFix"/>
<feBlend mode="normal" in="SourceGraphic" in2="BackgroundImageFix" result="shape"/>
<feColorMatrix in="SourceAlpha" type="matrix" values="0 0 0 0 0 0 0 0 0 0 0 0 0 0 0 0 0 0 127 0" result="hardAlpha"/>
<feOffset dx="1.86857" dy="1.86857"/>
<feGaussianBlur stdDeviation="7.78571"/>
<feComposite in2="hardAlpha" operator="arithmetic" k2="-1" k3="1"/>
<feColorMatrix type="matrix" values="0 0 0 0 0.909804 0 0 0 0 0.113725 0 0 0 0 0.431373 0 0 0 1 0"/>
<feBlend mode="normal" in2="shape" result="effect1_innerShadow_780_17935"/>
</filter>
<linearGradient id="paint0_linear_780_17935" x1="17" y1="34" x2="197.768" y2="215.142" gradientUnits="userSpaceOnUse">
<stop stop-color="#05815D"/>
<stop offset="1" stop-color="#0C575F"/>
</linearGradient>
<linearGradient id="paint1_linear_780_17935" x1="17" y1="62" x2="241" y2="210" gradientUnits="userSpaceOnUse">
<stop stop-color="#FD68AD"/>
<stop offset="1" stop-color="#FF316B"/>
</linearGradient>
</defs>
</svg>
