<svg width="256" height="256" viewBox="0 0 256 256" fill="none" xmlns="http://www.w3.org/2000/svg">
<path fill-rule="evenodd" clip-rule="evenodd" d="M104.425 42.3784C100.056 37.0733 93.5437 34 86.6712 34H29C22.3726 34 17 39.3726 17 46V58.1371V68.2V160C17 166.627 22.3726 172 29 172H229C235.627 172 241 166.627 241 160V70.1371C241 63.5097 235.627 58.1371 229 58.1371H117.404L104.425 42.3784Z" fill="#141414"/>
<mask id="mask0_758_21390" style="mask-type:alpha" maskUnits="userSpaceOnUse" x="17" y="34" width="224" height="138">
<path fill-rule="evenodd" clip-rule="evenodd" d="M104.425 42.3784C100.056 37.0733 93.5437 34 86.6712 34H29C22.3726 34 17 39.3726 17 46V58.1371V68.2V160C17 166.627 22.3726 172 29 172H229C235.627 172 241 166.627 241 160V70.1371C241 63.5097 235.627 58.1371 229 58.1371H117.404L104.425 42.3784Z" fill="url(#paint0_linear_758_21390)"/>
</mask>
<g mask="url(#mask0_758_21390)">
<g style="mix-blend-mode:multiply" filter="url(#filter0_f_758_21390)">
<path fill-rule="evenodd" clip-rule="evenodd" d="M92.789 74C97.7642 74 102.605 72.3868 106.586 69.4024L116.459 62H229C235.627 62 241 67.3726 241 74V108V160C241 166.627 235.627 172 229 172H29C22.3726 172 17 166.627 17 160L17 108V86C17 79.3726 22.3726 74 29 74H87H92.789Z" fill="black" fill-opacity="0.3"/>
</g>
</g>
<g filter="url(#filter1_ii_758_21390)">
<path fill-rule="evenodd" clip-rule="evenodd" d="M92.789 74C97.7642 74 102.605 72.3868 106.586 69.4024L116.459 62H229C235.627 62 241 67.3726 241 74V108V198C241 204.627 235.627 210 229 210H29C22.3726 210 17 204.627 17 198L17 108V86C17 79.3726 22.3726 74 29 74H87H92.789Z" fill="url(#paint1_linear_758_21390)"/>
</g>
<path d="M166.104 126.642L167.627 124H150.825V126.642H166.104Z" fill="#00FF00"/>
<path d="M166.104 137.322L167.627 134.681H150.825V137.322H166.104Z" fill="#00FF00"/>
<path d="M166.104 148.003L167.627 145.361H150.825V148.003H166.104Z" fill="#00FF00"/>
<path d="M201.24 131.438V129.915C201.24 129.139 201.087 128.369 200.789 127.652C200.492 126.934 200.056 126.282 199.507 125.733C198.958 125.183 198.306 124.748 197.588 124.45C196.87 124.153 196.101 124 195.324 124H184.43V148.011H187.072V137.353H192.02L198.187 148.011H201.232L195.066 137.353H195.317C196.094 137.354 196.864 137.202 197.583 136.905C198.301 136.608 198.954 136.173 199.504 135.623C200.054 135.074 200.491 134.422 200.789 133.703C201.086 132.985 201.24 132.215 201.24 131.438H201.24ZM187.072 126.642H195.324C196.192 126.644 197.023 126.989 197.637 127.603C198.25 128.216 198.596 129.048 198.598 129.915V131.438C198.596 132.306 198.25 133.137 197.637 133.75C197.023 134.364 196.192 134.71 195.324 134.712H187.072V126.642Z" fill="#00FF00"/>
<path d="M66.8095 131.438V129.915C66.8095 129.139 66.6565 128.369 66.3592 127.652C66.0619 126.934 65.6262 126.282 65.0769 125.733C64.5277 125.183 63.8756 124.748 63.1579 124.45C62.4402 124.153 61.671 124 60.8942 124H50V148.011H52.6417V137.353H57.613L63.7795 148.011H66.8247L60.6582 137.353H60.9094C62.4756 137.349 63.9763 136.724 65.0823 135.615C66.1884 134.506 66.8095 133.004 66.8095 131.438ZM52.6417 126.642H60.8942C61.7618 126.644 62.5933 126.989 63.2067 127.603C63.8202 128.216 64.1658 129.048 64.1678 129.915V131.438C64.1658 132.306 63.8202 133.137 63.2067 133.75C62.5933 134.364 61.7618 134.71 60.8942 134.712H52.6417L52.6417 126.642Z" fill="#00FF00"/>
<path d="M101.669 148.003L93.3934 127.525L91.9698 124L90.5462 127.525L82.271 148.003H85.1182L91.9698 131.05L98.8214 148.003H101.669Z" fill="#00FF00"/>
<path d="M203.349 124H205.031V124.335H204.384V126.33H204.003V124.335H203.349V124Z" fill="#00FF00"/>
<path d="M205.678 124.008H206.325L206.828 125.827L207.345 124.008H208V126.33H207.627V124.419H207.589L207.041 126.238H206.652L206.066 124.419V126.33H205.693L205.678 124.008Z" fill="#00FF00"/>
<path d="M129.555 126.642L118.744 145.362L117.214 148.003H132.592L134.115 145.362H121.789L132.6 126.642L134.122 124H117.214V126.642H129.555Z" fill="#00FF00"/>
<path d="M166.104 126.642L167.627 124H150.825V126.642H166.104Z" fill="#00FF00"/>
<path d="M166.104 137.322L167.627 134.681H150.825V137.322H166.104Z" fill="#00FF00"/>
<path d="M166.104 148.003L167.627 145.361H150.825V148.003H166.104Z" fill="#00FF00"/>
<path d="M101.669 148.003L93.3934 127.525L91.9698 124L90.5462 127.525L82.271 148.003H85.1182L91.9698 131.05L98.8214 148.003H101.669Z" fill="#00FF00"/>
<defs>
<filter id="filter0_f_758_21390" x="-20" y="25" width="298" height="184" filterUnits="userSpaceOnUse" color-interpolation-filters="sRGB">
<feFlood flood-opacity="0" result="BackgroundImageFix"/>
<feBlend mode="normal" in="SourceGraphic" in2="BackgroundImageFix" result="shape"/>
<feGaussianBlur stdDeviation="18.5" result="effect1_foregroundBlur_758_21390"/>
</filter>
<filter id="filter1_ii_758_21390" x="17" y="62" width="224" height="148" filterUnits="userSpaceOnUse" color-interpolation-filters="sRGB">
<feFlood flood-opacity="0" result="BackgroundImageFix"/>
<feBlend mode="normal" in="SourceGraphic" in2="BackgroundImageFix" result="shape"/>
<feColorMatrix in="SourceAlpha" type="matrix" values="0 0 0 0 0 0 0 0 0 0 0 0 0 0 0 0 0 0 127 0" result="hardAlpha"/>
<feOffset dy="4"/>
<feComposite in2="hardAlpha" operator="arithmetic" k2="-1" k3="1"/>
<feColorMatrix type="matrix" values="0 0 0 0 0.4 0 0 0 0 0.72549 0 0 0 0 0.2 0 0 0 1 0"/>
<feBlend mode="normal" in2="shape" result="effect1_innerShadow_758_21390"/>
<feColorMatrix in="SourceAlpha" type="matrix" values="0 0 0 0 0 0 0 0 0 0 0 0 0 0 0 0 0 0 127 0" result="hardAlpha"/>
<feOffset dy="-4"/>
<feComposite in2="hardAlpha" operator="arithmetic" k2="-1" k3="1"/>
<feColorMatrix type="matrix" values="0 0 0 0 0.226064 0 0 0 0 0.445833 0 0 0 0 0.0910243 0 0 0 1 0"/>
<feBlend mode="normal" in2="effect1_innerShadow_758_21390" result="effect2_innerShadow_758_21390"/>
</filter>
<linearGradient id="paint0_linear_758_21390" x1="17" y1="34" x2="197.768" y2="215.142" gradientUnits="userSpaceOnUse">
<stop stop-color="#05815D"/>
<stop offset="1" stop-color="#0C575F"/>
</linearGradient>
<linearGradient id="paint1_linear_758_21390" x1="17" y1="62" x2="241" y2="210" gradientUnits="userSpaceOnUse">
<stop stop-color="#202020"/>
<stop offset="1" stop-color="#121212"/>
</linearGradient>
</defs>
</svg>
