<svg width="256" height="256" viewBox="0 0 256 256" fill="none" xmlns="http://www.w3.org/2000/svg">
<path fill-rule="evenodd" clip-rule="evenodd" d="M104.425 42.3784C100.056 37.0733 93.5437 34 86.6712 34H29C22.3726 34 17 39.3726 17 46V58.1371V68.2V160C17 166.627 22.3726 172 29 172H229C235.627 172 241 166.627 241 160V70.1371C241 63.5097 235.627 58.1371 229 58.1371H117.404L104.425 42.3784Z" fill="#141414"/>
<mask id="mask0_758_21384" style="mask-type:alpha" maskUnits="userSpaceOnUse" x="17" y="34" width="224" height="138">
<path fill-rule="evenodd" clip-rule="evenodd" d="M104.425 42.3784C100.056 37.0733 93.5437 34 86.6712 34H29C22.3726 34 17 39.3726 17 46V58.1371V68.2V160C17 166.627 22.3726 172 29 172H229C235.627 172 241 166.627 241 160V70.1371C241 63.5097 235.627 58.1371 229 58.1371H117.404L104.425 42.3784Z" fill="url(#paint0_linear_758_21384)"/>
</mask>
<g mask="url(#mask0_758_21384)">
<g style="mix-blend-mode:multiply" filter="url(#filter0_f_758_21384)">
<path fill-rule="evenodd" clip-rule="evenodd" d="M92.789 74C97.7642 74 102.605 72.3868 106.586 69.4024L116.459 62H229C235.627 62 241 67.3726 241 74V108V160C241 166.627 235.627 172 229 172H29C22.3726 172 17 166.627 17 160L17 108V86C17 79.3726 22.3726 74 29 74H87H92.789Z" fill="black" fill-opacity="0.3"/>
</g>
</g>
<g filter="url(#filter1_ii_758_21384)">
<path fill-rule="evenodd" clip-rule="evenodd" d="M92.789 74C97.7642 74 102.605 72.3868 106.586 69.4024L116.459 62H229C235.627 62 241 67.3726 241 74V108V198C241 204.627 235.627 210 229 210H29C22.3726 210 17 204.627 17 198L17 108V86C17 79.3726 22.3726 74 29 74H87H92.789Z" fill="url(#paint1_linear_758_21384)"/>
</g>
<path d="M186.125 80.2489C186.256 79.5435 185.981 78.8003 185.37 78.3592C184.587 77.7938 183.504 77.907 182.852 78.6203L181.836 79.7359L180.232 80.4244C179.662 80.2481 179.026 80.233 178.364 80.3966C177.984 80.4907 177.872 80.4686 177.534 80.402C176.796 80.2571 176.023 80.1694 174.791 80.5632C174.356 80.5378 173.847 80.6 173.047 80.8623C172.042 81.1937 171.416 81.9838 170.959 82.5632L170.808 82.7576C167.934 83.4979 166.799 85.1133 166.358 86.3706C166.271 86.6149 166.213 86.8584 166.166 87.1019C163.138 84.8061 158.975 84.5979 155.441 86.6635C151.385 89.0374 149.572 93.5316 150.822 98.115C152.839 105.519 159.863 112.492 164.058 116.661L165.418 118.02C167.604 120.249 170.432 124.744 169.868 127.748C169.73 128.498 169.333 129.585 167.502 130.414C166.569 130.836 165.676 131.098 164.813 131.2C166.362 126.857 165.613 122.187 162.672 119.127C158.474 114.769 154.509 115.856 152.994 117.04C152.356 117.541 152.104 118.392 152.367 119.158C152.633 119.924 153.357 120.44 154.171 120.439C156.186 120.438 158.452 121.938 159.437 123.928C160.267 125.605 160.107 127.423 158.982 129.23C158.129 128.535 157.394 127.768 156.765 127.106C156.505 126.835 156.262 126.579 156.046 126.37L155.89 126.196C152.877 122.801 149.808 120.82 146.734 120.278C146.348 114.845 142.51 109.349 136.691 106.153C136.22 105.892 135.73 105.662 135.223 105.453C134.137 99.7756 130.665 95.9688 125.125 94.4102C117.041 92.1321 110.622 95.7449 107.514 104.317C106.453 107.242 104.199 117.213 102.348 125.572L102 127.139C101.752 128.244 100.464 130.231 99.0916 130.704C98.7128 130.837 98.2353 130.898 97.5747 130.359C96.2269 129.262 97.0228 126.097 97.4509 124.397C97.5348 124.066 97.6047 123.782 97.6629 123.523C98.0127 121.903 97.4811 120.096 96.2728 118.81C95.0917 117.551 93.4573 116.973 91.7887 117.225C88.2547 117.757 87.134 120.616 86.6936 121.904C86.3511 121.25 85.8792 120.391 84.9884 119.882C84.265 119.469 83.78 119.305 83.3474 119.242C82.2099 118.602 81.4373 118.539 80.6782 118.534C80.3369 118.532 80.2208 118.532 79.8687 118.362C79.1654 118.027 78.4402 117.924 77.7618 118.053L76.4515 117.223L75.6221 115.959C75.0864 115.142 74.0205 114.866 73.1523 115.316C72.4937 115.659 72.1161 116.342 72.1321 117.05C71.4769 117.34 71.0193 117.986 71.0006 118.739C70.976 119.704 71.68 120.535 72.637 120.669L74.1309 120.88L75.4228 121.699C75.5853 122.347 75.9707 122.957 76.5603 123.459C76.8582 123.713 76.9058 123.818 77.0481 124.132C77.3615 124.82 77.7352 125.5 78.7828 126.277C79.0143 126.642 79.3598 127.019 80.037 127.513C80.8917 128.138 81.8984 128.183 82.6339 128.215C82.7062 128.221 82.7959 128.223 82.881 128.229C85.154 130.136 87.1305 130.119 88.4112 129.743C88.6576 129.672 88.8906 129.577 89.1147 129.475C89.0133 133.273 91.2675 136.781 95.0032 138.447C99.2933 140.365 104.004 139.221 107.003 135.537C111.846 129.585 113.428 119.815 114.371 113.978L114.687 112.079C115.227 109.004 117.232 104.088 120.003 102.796C120.691 102.474 121.809 102.164 123.549 103.171C124.437 103.681 125.167 104.254 125.752 104.896C121.321 106.167 117.961 109.497 117.187 113.67C116.084 119.616 119.278 122.21 121.123 122.75C121.904 122.98 122.738 122.688 123.209 122.024C123.68 121.365 123.676 120.476 123.204 119.818C122.026 118.178 121.927 115.463 122.972 113.502C123.852 111.852 125.425 110.922 127.545 110.786C127.481 111.885 127.283 112.93 127.116 113.826C127.046 114.194 126.979 114.541 126.933 114.839C126.927 114.871 126.901 114.98 126.881 115.065C125.966 119.092 126.033 122.484 127.072 125.19C122.609 127.946 119.445 133.579 118.986 139.875C118.945 140.412 118.939 140.958 118.96 141.501C114.252 144.854 112.24 149.597 113.129 155.284C114.427 163.582 120.382 167.911 129.473 167.166C132.574 166.912 142.578 164.811 150.95 163.009L152.516 162.67C153.626 162.437 155.968 162.778 156.97 163.828C157.247 164.121 157.504 164.527 157.289 165.353C156.854 167.035 153.643 167.629 151.919 167.95C151.586 168.011 151.296 168.064 151.039 168.121C149.419 168.479 147.997 169.715 147.331 171.349C146.679 172.946 146.832 174.675 147.757 176.085C149.714 179.077 152.778 178.905 154.133 178.768C153.682 179.353 153.098 180.138 153.006 181.163C152.933 181.991 152.985 182.502 153.107 182.918C152.997 184.218 153.264 184.95 153.575 185.639C153.716 185.951 153.761 186.057 153.757 186.447C153.744 187.251 153.971 187.972 154.395 188.546L154.114 190.5L153.303 191.773C152.775 192.599 152.959 193.685 153.726 194.29C154.005 194.51 154.34 194.648 154.694 194.687C155.047 194.726 155.404 194.666 155.725 194.511C156.26 194.991 157.037 195.144 157.731 194.852C158.621 194.479 159.091 193.498 158.822 192.569L158.402 191.118L158.7 189.041C159.195 188.624 159.567 188.038 159.772 187.326C159.876 186.952 159.951 186.865 160.178 186.603C160.672 186.033 161.136 185.408 161.405 184.135C161.642 183.773 161.839 183.299 162.008 182.479C162.221 181.442 161.841 180.508 161.566 179.826L161.474 179.595C162.262 176.735 161.422 174.945 160.55 173.937C160.379 173.744 160.196 173.572 160.012 173.409C163.506 171.922 165.755 168.409 165.717 164.318C165.669 159.618 162.668 155.815 158.072 154.621C150.641 152.7 141.101 155.33 135.403 156.904L133.547 157.409C130.524 158.2 125.22 158.423 122.892 156.443C122.312 155.951 121.565 155.068 121.755 153.062C121.851 152.043 122.067 151.141 122.405 150.342C125.408 153.842 129.835 155.509 133.95 154.473C139.815 152.997 140.842 149.014 140.564 147.112C140.448 146.309 139.834 145.667 139.038 145.517C138.24 145.367 137.434 145.739 137.034 146.443C136.032 148.194 133.605 149.416 131.388 149.284C129.519 149.173 128.02 148.131 127.011 146.256C128.04 145.86 129.068 145.602 129.955 145.383C130.32 145.293 130.662 145.209 130.952 145.127C131.028 145.112 131.104 145.096 131.18 145.079C135.774 144.116 139.082 142.353 141.053 139.836C145.648 142.169 151.847 142.035 157.432 139.36C157.916 139.128 158.39 138.862 158.853 138.572C164.104 140.992 169.221 140.386 173.714 136.79C180.27 131.544 181.073 124.222 175.912 116.704C174.151 114.138 167.359 106.498 161.636 100.128L160.567 98.9343C159.815 98.0863 158.947 95.8853 159.361 94.4932C159.475 94.1075 159.703 93.6824 160.526 93.4594C162.2 93.0036 164.312 95.4933 165.446 96.831C165.665 97.0912 165.853 97.3142 166.033 97.5115C167.147 98.7411 168.926 99.3585 170.673 99.127C172.386 98.8998 173.808 97.9063 174.575 96.403C176.2 93.2197 174.526 90.6453 173.736 89.5364C174.467 89.6387 175.439 89.7561 176.374 89.3252C177.131 88.9783 177.545 88.6788 177.848 88.3657C179.031 87.8169 179.533 87.2216 179.976 86.6094C180.182 86.3327 180.248 86.2385 180.589 86.0503C181.524 85.5332 181.953 84.8485 182.153 84.3121L183.55 83.7106L185.058 83.7387C186.036 83.7583 186.87 83.034 186.984 82.0631C187.068 81.3291 186.718 80.6335 186.125 80.2489ZM134.363 133.347C133.761 135.002 130.051 136.62 127.421 137.606C128.12 136.282 129.048 135.037 130.123 134.036C132.156 132.14 133.86 132.19 134.217 132.382C134.48 132.846 134.445 133.122 134.363 133.347ZM137.16 123.124C136.629 123.167 136.394 123.022 136.222 122.854C134.967 121.617 135.043 117.572 135.243 114.769C136.155 115.955 136.901 117.319 137.365 118.715C138.239 121.349 137.484 122.879 137.16 123.124ZM146.824 132.595C144.169 131.773 143.366 130.268 143.358 129.864C143.63 129.403 143.886 129.297 144.121 129.255C145.857 128.957 149.103 131.372 151.263 133.167C149.771 133.218 148.226 133.029 146.824 132.595Z" fill="#66B933"/>
<path d="M185.092 81.8436L183.385 81.4642L184.259 79.9023L182.965 81.322L180.146 82.5332C179.896 82.2647 179.474 82.081 178.822 82.2423C177.1 82.6718 177.05 81.7536 175.137 82.4504C174.745 82.5949 174.877 82.2619 173.64 82.6699C172.78 82.9518 172.2 84.3923 171.625 84.5157C166.075 85.7036 168.273 90.4381 169.04 91.3753C169.992 92.5415 169.201 92.941 168.779 92.5218C168.121 91.863 167.306 90.7835 165.742 89.243C160.383 83.956 150.399 89.3313 152.657 97.6118C154.784 105.41 163.242 113.084 166.778 116.687C169.977 119.947 175.537 128.858 168.288 132.143C165.823 133.261 163.709 133.347 161.908 132.892C164.438 128.767 164.291 123.552 161.303 120.445C157.19 116.172 154.168 118.537 154.168 118.537C158.955 118.533 164.967 124.592 160.013 131.084C159.815 131.344 159.602 131.592 159.376 131.829C157.255 130.572 155.73 128.724 154.695 127.704C154.236 127.249 150.044 121.906 144.834 122.021C145.29 116.476 141.28 110.839 135.78 107.816C135.061 107.422 134.305 107.098 133.524 106.848C132.985 102.702 130.947 98.0219 124.609 96.2365C114.953 93.5168 110.841 100.716 109.302 104.963C107.983 108.599 104.45 124.913 103.855 127.555C103.291 130.074 99.7584 134.591 96.3739 131.832C93.7633 129.706 95.4071 124.95 95.8027 123.12C96.228 121.151 94.4805 118.74 92.0701 119.103C89.1816 119.538 88.6405 122.192 88.3093 123.046C87.6104 124.848 85.9798 123.957 85.6518 123.742C85.157 123.423 84.8299 121.98 84.0423 121.53C82.9116 120.885 82.9767 121.237 82.6203 121.02C80.8858 119.952 80.6504 120.841 79.0496 120.079C78.5505 119.841 78.1554 119.864 77.8645 119.999C77.7672 120.061 77.7017 120.127 77.6099 120.211L75.086 118.609L74.0344 117.005L74.6834 118.627L72.9028 118.787L74.804 119.055L77.2963 120.635C77.169 121.009 77.2175 121.521 77.7954 122.014C79.1445 123.166 78.4292 123.741 80.1108 124.891C80.4561 125.126 80.1078 125.212 81.1596 125.979C81.8891 126.513 83.3982 126.147 83.835 126.544C88.031 130.363 90.6015 125.821 90.9166 124.65C91.3094 123.198 92.0969 123.608 92.0014 124.194C91.8467 125.114 91.4449 126.404 91.1028 128.572C89.9232 136.011 100.108 140.998 105.526 134.34C110.626 128.071 111.942 116.725 112.812 111.754C113.604 107.254 117.61 97.544 124.5 101.525C126.844 102.878 128.143 104.548 128.823 106.275C123.995 106.62 119.84 109.778 119.056 114.018C117.977 119.847 121.659 120.927 121.659 120.927C118.866 117.038 120.296 108.623 128.458 108.87C128.784 108.88 129.11 108.908 129.433 108.954C129.646 111.409 129.033 113.726 128.807 115.159C128.706 115.776 126.939 121.851 129.605 126.021C124.606 128.076 121.325 133.92 120.881 140.012C120.819 140.856 120.844 141.674 120.938 142.465C117.393 144.685 113.99 148.487 115.008 154.992C116.558 164.903 124.814 165.642 129.318 165.272C133.17 164.956 149.475 161.371 152.122 160.813C154.649 160.278 160.226 161.608 159.13 165.833C158.282 169.091 153.275 169.579 151.448 169.98C149.477 170.413 148.016 173.008 149.351 175.047C150.951 177.491 153.588 176.878 154.501 176.824C156.433 176.711 156.3 178.563 156.241 178.951C156.156 179.535 154.982 180.434 154.901 181.333C154.785 182.629 155.078 182.425 155.029 182.839C154.779 184.861 155.685 184.702 155.659 186.477C155.651 187.014 155.828 187.358 156.061 187.566L156.069 187.557L156.138 187.63L156.206 187.683V187.685C156.275 187.73 156.349 187.766 156.428 187.79L155.938 191.18L154.905 192.8L156.122 191.541L156.999 193.101L156.464 191.256L156.959 187.832C157.333 187.772 157.744 187.504 157.941 186.811C158.426 185.105 159.247 185.516 159.59 183.509C159.662 183.097 159.882 183.378 160.144 182.103C160.328 181.217 159.365 179.997 159.543 179.436C161.266 174.027 156.065 173.585 154.873 173.784C153.388 174.032 153.432 173.146 154.007 172.991C154.907 172.745 156.246 172.574 158.359 171.983C165.612 169.952 165.903 158.619 157.595 156.468C149.768 154.443 138.907 157.974 134.027 159.254C129.607 160.411 119.111 160.814 119.86 152.89C120.114 150.196 121.088 148.319 122.376 146.982C124.702 151.224 129.303 153.686 133.484 152.632C139.236 151.187 138.683 147.39 138.683 147.39C136.309 151.546 128.067 153.756 124.889 146.233C124.763 145.932 124.653 145.624 124.559 145.312C126.704 144.093 129.063 143.687 130.463 143.296C131.099 143.119 138.095 142.093 140.442 137.256C144.719 140.338 151.229 140.229 156.605 137.65C157.368 137.286 158.067 136.856 158.707 136.383C162.392 138.357 167.385 139.423 172.526 135.311C180.359 129.043 176.9 121.51 174.343 117.784C172.154 114.597 160.949 102.226 159.145 100.205C157.431 98.2758 155.812 92.7778 160.025 91.6313C163.273 90.7474 166.184 94.853 167.441 96.2414C168.795 97.7342 171.77 97.7162 172.88 95.5444C174.209 92.942 172.364 90.9569 171.865 90.1912C170.807 88.572 172.48 87.7684 172.845 87.6235C173.393 87.4086 174.757 87.9831 175.579 87.6037C176.763 87.0608 176.44 86.9078 176.823 86.7454C178.702 85.9563 178.115 85.2492 179.666 84.3909C180.094 84.1542 180.309 83.8681 180.396 83.5887L180.38 83.5343C180.449 83.2933 180.441 83.1279 180.406 82.9971L183.174 81.8084L185.092 81.8436ZM133.54 112.432C133.593 111.915 133.64 111.31 133.67 110.642C136.335 112.461 138.266 115.4 139.17 118.112C140.477 122.053 139.028 124.826 137.455 125.005C132.227 125.604 133.138 116.464 133.54 112.432ZM126.007 140.126C125.515 140.296 124.944 140.502 124.322 140.755C124.868 137.575 126.736 134.594 128.826 132.644C131.862 129.812 134.987 129.975 135.806 131.33C138.527 135.832 129.837 138.811 126.007 140.126ZM146.26 134.411C142.294 133.183 140.885 130.387 141.653 129.005C144.21 124.405 151.112 130.467 154.157 133.141C154.547 133.485 155.009 133.878 155.538 134.29C152.507 135.397 148.99 135.258 146.26 134.411Z" fill="black"/>
<path d="M160.711 193.183H161.071V192.134H161.481V191.881H160.314V192.134H160.711V193.183ZM161.587 193.14V191.905H162.131L162.33 192.741H162.334L162.53 191.905H163.061V193.14H162.762V192.106L162.757 192.103L162.471 193.14H162.161L161.89 192.094L161.886 192.099V193.14H161.587Z" fill="#66B933"/>
<defs>
<filter id="filter0_f_758_21384" x="-20" y="25" width="298" height="184" filterUnits="userSpaceOnUse" color-interpolation-filters="sRGB">
<feFlood flood-opacity="0" result="BackgroundImageFix"/>
<feBlend mode="normal" in="SourceGraphic" in2="BackgroundImageFix" result="shape"/>
<feGaussianBlur stdDeviation="18.5" result="effect1_foregroundBlur_758_21384"/>
</filter>
<filter id="filter1_ii_758_21384" x="17" y="62" width="224" height="148" filterUnits="userSpaceOnUse" color-interpolation-filters="sRGB">
<feFlood flood-opacity="0" result="BackgroundImageFix"/>
<feBlend mode="normal" in="SourceGraphic" in2="BackgroundImageFix" result="shape"/>
<feColorMatrix in="SourceAlpha" type="matrix" values="0 0 0 0 0 0 0 0 0 0 0 0 0 0 0 0 0 0 127 0" result="hardAlpha"/>
<feOffset dy="4"/>
<feComposite in2="hardAlpha" operator="arithmetic" k2="-1" k3="1"/>
<feColorMatrix type="matrix" values="0 0 0 0 0.4 0 0 0 0 0.72549 0 0 0 0 0.2 0 0 0 1 0"/>
<feBlend mode="normal" in2="shape" result="effect1_innerShadow_758_21384"/>
<feColorMatrix in="SourceAlpha" type="matrix" values="0 0 0 0 0 0 0 0 0 0 0 0 0 0 0 0 0 0 127 0" result="hardAlpha"/>
<feOffset dy="-4"/>
<feComposite in2="hardAlpha" operator="arithmetic" k2="-1" k3="1"/>
<feColorMatrix type="matrix" values="0 0 0 0 0.226064 0 0 0 0 0.445833 0 0 0 0 0.0910243 0 0 0 1 0"/>
<feBlend mode="normal" in2="effect1_innerShadow_758_21384" result="effect2_innerShadow_758_21384"/>
</filter>
<linearGradient id="paint0_linear_758_21384" x1="17" y1="34" x2="197.768" y2="215.142" gradientUnits="userSpaceOnUse">
<stop stop-color="#05815D"/>
<stop offset="1" stop-color="#0C575F"/>
</linearGradient>
<linearGradient id="paint1_linear_758_21384" x1="17" y1="62" x2="241" y2="210" gradientUnits="userSpaceOnUse">
<stop stop-color="#202020"/>
<stop offset="1" stop-color="#121212"/>
</linearGradient>
</defs>
</svg>
