<svg width="256" height="256" viewBox="0 0 256 256" fill="none" xmlns="http://www.w3.org/2000/svg">
<path fill-rule="evenodd" clip-rule="evenodd" d="M104.425 42.3784C100.056 37.0733 93.5437 34 86.6712 34H29C22.3726 34 17 39.3726 17 46V58.1371V68.2V160C17 166.627 22.3726 172 29 172H229C235.627 172 241 166.627 241 160V70.1371C241 63.5097 235.627 58.1371 229 58.1371H117.404L104.425 42.3784Z" fill="#6848BB"/>
<mask id="mask0_2031_32805" style="mask-type:alpha" maskUnits="userSpaceOnUse" x="17" y="34" width="224" height="138">
<path fill-rule="evenodd" clip-rule="evenodd" d="M104.425 42.3784C100.056 37.0733 93.5437 34 86.6712 34H29C22.3726 34 17 39.3726 17 46V58.1371V68.2V160C17 166.627 22.3726 172 29 172H229C235.627 172 241 166.627 241 160V70.1371C241 63.5097 235.627 58.1371 229 58.1371H117.404L104.425 42.3784Z" fill="url(#paint0_linear_2031_32805)"/>
</mask>
<g mask="url(#mask0_2031_32805)">
<g style="mix-blend-mode:multiply" filter="url(#filter0_f_2031_32805)">
<path fill-rule="evenodd" clip-rule="evenodd" d="M92.789 74C97.7642 74 102.605 72.3868 106.586 69.4024L116.459 62H229C235.627 62 241 67.3726 241 74V108V160C241 166.627 235.627 172 229 172H29C22.3726 172 17 166.627 17 160L17 108V86C17 79.3726 22.3726 74 29 74H87H92.789Z" fill="black" fill-opacity="0.3"/>
</g>
</g>
<g filter="url(#filter1_ii_2031_32805)">
<path fill-rule="evenodd" clip-rule="evenodd" d="M92.789 74C97.7642 74 102.605 72.3868 106.586 69.4024L116.459 62H229C235.627 62 241 67.3726 241 74V108V198C241 204.627 235.627 210 229 210H29C22.3726 210 17 204.627 17 198L17 108V86C17 79.3726 22.3726 74 29 74H87H92.789Z" fill="url(#paint1_linear_2031_32805)"/>
</g>
<path d="M149.374 156.166C153.335 155.756 156.34 152.341 156.203 148.243C156.067 144.145 152.652 140.867 148.554 140.867H148.281C144.047 141.004 140.768 144.555 140.905 148.789C141.042 150.838 141.861 152.614 143.09 153.843C138.446 162.995 131.344 169.688 120.689 175.288C113.45 179.113 105.937 180.479 98.4249 179.523C92.2783 178.703 87.4976 175.971 84.4926 171.464C80.1217 164.771 79.7119 157.532 83.3999 150.292C85.9951 145.101 90.0928 141.277 92.6881 139.365C92.1418 137.589 91.3222 134.584 90.9124 132.398C71.1066 146.741 73.1555 166.137 79.1655 175.288C83.673 182.118 92.8247 186.352 102.932 186.352C105.664 186.352 108.396 186.079 111.128 185.396C128.612 181.981 141.861 171.6 149.374 156.166Z" fill="white"/>
<path d="M173.413 139.227C163.033 127.07 147.734 120.377 130.251 120.377H128.065C126.836 117.918 124.24 116.279 121.372 116.279H121.099C116.865 116.416 113.586 119.967 113.723 124.202C113.86 128.299 117.274 131.577 121.372 131.577H121.645C124.65 131.441 127.246 129.529 128.338 126.934H130.797C141.178 126.934 151.012 129.938 159.891 135.812C166.72 140.32 171.638 146.193 174.37 153.296C176.692 159.032 176.555 164.633 174.096 169.413C170.272 176.653 163.852 180.614 155.383 180.614C149.92 180.614 144.729 178.975 141.997 177.746C140.495 179.111 137.763 181.297 135.851 182.663C141.724 185.394 147.734 186.897 153.471 186.897C166.584 186.897 176.282 179.658 179.97 172.418C183.931 164.496 183.658 150.837 173.413 139.227Z" fill="white"/>
<path d="M104.024 158.487C104.161 162.584 107.576 165.862 111.673 165.862H111.947C116.181 165.725 119.459 162.174 119.322 157.94C119.186 153.842 115.771 150.564 111.673 150.564H111.4C111.127 150.564 110.717 150.564 110.444 150.701C104.844 141.412 102.522 131.304 103.341 120.377C103.888 112.182 106.619 105.079 111.4 99.2055C115.361 94.1517 123.01 91.693 128.201 91.5564C142.68 91.2832 148.826 109.313 149.236 116.553C151.012 116.962 154.017 117.919 156.066 118.602C154.427 96.4737 140.767 85 127.654 85C115.361 85 104.024 93.8784 99.5167 106.991C93.2334 124.475 97.3312 141.275 104.98 154.525C104.297 155.481 103.888 156.984 104.024 158.487Z" fill="white"/>
<defs>
<filter id="filter0_f_2031_32805" x="-20" y="25" width="298" height="184" filterUnits="userSpaceOnUse" color-interpolation-filters="sRGB">
<feFlood flood-opacity="0" result="BackgroundImageFix"/>
<feBlend mode="normal" in="SourceGraphic" in2="BackgroundImageFix" result="shape"/>
<feGaussianBlur stdDeviation="18.5" result="effect1_foregroundBlur_2031_32805"/>
</filter>
<filter id="filter1_ii_2031_32805" x="17" y="62" width="224" height="148" filterUnits="userSpaceOnUse" color-interpolation-filters="sRGB">
<feFlood flood-opacity="0" result="BackgroundImageFix"/>
<feBlend mode="normal" in="SourceGraphic" in2="BackgroundImageFix" result="shape"/>
<feColorMatrix in="SourceAlpha" type="matrix" values="0 0 0 0 0 0 0 0 0 0 0 0 0 0 0 0 0 0 127 0" result="hardAlpha"/>
<feOffset dy="4"/>
<feComposite in2="hardAlpha" operator="arithmetic" k2="-1" k3="1"/>
<feColorMatrix type="matrix" values="0 0 0 0 1 0 0 0 0 1 0 0 0 0 1 0 0 0 0.25 0"/>
<feBlend mode="normal" in2="shape" result="effect1_innerShadow_2031_32805"/>
<feColorMatrix in="SourceAlpha" type="matrix" values="0 0 0 0 0 0 0 0 0 0 0 0 0 0 0 0 0 0 127 0" result="hardAlpha"/>
<feOffset dy="-4"/>
<feComposite in2="hardAlpha" operator="arithmetic" k2="-1" k3="1"/>
<feColorMatrix type="matrix" values="0 0 0 0 0 0 0 0 0 0 0 0 0 0 0 0 0 0 0.9 0"/>
<feBlend mode="soft-light" in2="effect1_innerShadow_2031_32805" result="effect2_innerShadow_2031_32805"/>
</filter>
<linearGradient id="paint0_linear_2031_32805" x1="17" y1="34" x2="197.768" y2="215.142" gradientUnits="userSpaceOnUse">
<stop stop-color="#05815D"/>
<stop offset="1" stop-color="#0C575F"/>
</linearGradient>
<linearGradient id="paint1_linear_2031_32805" x1="17" y1="62" x2="241" y2="210" gradientUnits="userSpaceOnUse">
<stop stop-color="#8353CF"/>
<stop offset="1" stop-color="#6446B8"/>
</linearGradient>
</defs>
</svg>
