<svg width="256" height="256" viewBox="0 0 256 256" fill="none" xmlns="http://www.w3.org/2000/svg">
<g clip-path="url(#clip0_2043_36947)">
<path fill-rule="evenodd" clip-rule="evenodd" d="M104.425 42.3784C100.056 37.0733 93.5437 34 86.6712 34H29C22.3726 34 17 39.3726 17 46V58.1371V68.2V160C17 166.627 22.3726 172 29 172H229C235.627 172 241 166.627 241 160V70.1371C241 63.5097 235.627 58.1371 229 58.1371H117.404L104.425 42.3784Z" fill="#E6E6E6"/>
<mask id="mask0_2043_36947" style="mask-type:alpha" maskUnits="userSpaceOnUse" x="17" y="34" width="224" height="138">
<path fill-rule="evenodd" clip-rule="evenodd" d="M104.425 42.3784C100.056 37.0733 93.5437 34 86.6712 34H29C22.3726 34 17 39.3726 17 46V58.1371V68.2V160C17 166.627 22.3726 172 29 172H229C235.627 172 241 166.627 241 160V70.1371C241 63.5097 235.627 58.1371 229 58.1371H117.404L104.425 42.3784Z" fill="url(#paint0_linear_2043_36947)"/>
</mask>
<g mask="url(#mask0_2043_36947)">
<g style="mix-blend-mode:multiply" filter="url(#filter0_f_2043_36947)">
<path fill-rule="evenodd" clip-rule="evenodd" d="M92.789 74C97.7642 74 102.605 72.3868 106.586 69.4024L116.459 62H229C235.627 62 241 67.3726 241 74V108V160C241 166.627 235.627 172 229 172H29C22.3726 172 17 166.627 17 160L17 108V86C17 79.3726 22.3726 74 29 74H87H92.789Z" fill="black" fill-opacity="0.3"/>
</g>
</g>
<g filter="url(#filter1_ii_2043_36947)">
<path fill-rule="evenodd" clip-rule="evenodd" d="M92.789 74C97.7642 74 102.605 72.3868 106.586 69.4024L116.459 62H229C235.627 62 241 67.3726 241 74V108V198C241 204.627 235.627 210 229 210H29C22.3726 210 17 204.627 17 198L17 108V86C17 79.3726 22.3726 74 29 74H87H92.789Z" fill="url(#paint1_linear_2043_36947)"/>
</g>
<path d="M101.785 103.032C101.785 109.122 97.0041 114.063 91.1121 114.063C85.2163 114.063 80.4355 109.122 80.4355 103.032C80.4355 96.9373 85.2163 92 91.1121 92C97.0041 92 101.785 96.9373 101.785 103.032Z" fill="white"/>
<path d="M101.785 140.625C101.785 146.716 97.0041 151.657 91.1121 151.657C85.2163 151.657 80.4355 146.716 80.4355 140.625C80.4355 134.531 85.2163 129.594 91.1121 129.594C97.0041 129.594 101.785 134.531 101.785 140.625Z" fill="white"/>
<path d="M101.785 178.219C101.785 184.31 97.0041 189.251 91.1121 189.251C85.2163 189.251 80.4355 184.31 80.4355 178.219C80.4355 172.129 85.2163 167.188 91.1121 167.188C97.0041 167.188 101.785 172.129 101.785 178.219Z" fill="white"/>
<path d="M139.035 140.625C139.035 146.716 134.258 151.657 128.362 151.657C122.466 151.657 117.686 146.716 117.686 140.625C117.686 134.531 122.466 129.594 128.362 129.594C134.258 129.594 139.035 134.531 139.035 140.625Z" fill="white"/>
<path d="M139.035 103.032C139.035 109.122 134.258 114.063 128.362 114.063C122.466 114.063 117.686 109.122 117.686 103.032C117.686 96.9373 122.466 92 128.362 92C134.258 92 139.035 96.9373 139.035 103.032Z" fill="white"/>
<path d="M176.289 140.625C176.289 146.716 171.508 151.657 165.612 151.657C159.716 151.657 154.939 146.716 154.939 140.625C154.939 134.531 159.716 129.594 165.612 129.594C171.508 129.594 176.289 134.531 176.289 140.625Z" fill="white"/>
<path d="M176.289 103.032C176.289 109.122 171.508 114.063 165.612 114.063C159.716 114.063 154.939 109.122 154.939 103.032C154.939 96.9373 159.716 92 165.612 92C171.508 92 176.289 96.9373 176.289 103.032Z" fill="white"/>
<path d="M176.289 178.219C176.289 184.31 171.508 189.251 165.612 189.251C159.716 189.251 154.939 184.31 154.939 178.219C154.939 172.129 159.716 167.188 165.612 167.188C171.508 167.188 176.289 172.129 176.289 178.219Z" fill="white"/>
<path d="M139.035 178.219C139.035 184.31 134.258 189.251 128.362 189.251C122.467 189.251 117.686 184.31 117.686 178.219C117.686 172.129 122.467 167.188 128.362 167.188C134.258 167.188 139.035 172.129 139.035 178.219Z" fill="white"/>
</g>
<defs>
<filter id="filter0_f_2043_36947" x="-20" y="25" width="298" height="184" filterUnits="userSpaceOnUse" color-interpolation-filters="sRGB">
<feFlood flood-opacity="0" result="BackgroundImageFix"/>
<feBlend mode="normal" in="SourceGraphic" in2="BackgroundImageFix" result="shape"/>
<feGaussianBlur stdDeviation="18.5" result="effect1_foregroundBlur_2043_36947"/>
</filter>
<filter id="filter1_ii_2043_36947" x="17" y="62" width="224" height="148" filterUnits="userSpaceOnUse" color-interpolation-filters="sRGB">
<feFlood flood-opacity="0" result="BackgroundImageFix"/>
<feBlend mode="normal" in="SourceGraphic" in2="BackgroundImageFix" result="shape"/>
<feColorMatrix in="SourceAlpha" type="matrix" values="0 0 0 0 0 0 0 0 0 0 0 0 0 0 0 0 0 0 127 0" result="hardAlpha"/>
<feOffset dy="-4"/>
<feComposite in2="hardAlpha" operator="arithmetic" k2="-1" k3="1"/>
<feColorMatrix type="matrix" values="0 0 0 0 0 0 0 0 0 0 0 0 0 0 0 0 0 0 0.25 0"/>
<feBlend mode="normal" in2="shape" result="effect1_innerShadow_2043_36947"/>
<feColorMatrix in="SourceAlpha" type="matrix" values="0 0 0 0 0 0 0 0 0 0 0 0 0 0 0 0 0 0 127 0" result="hardAlpha"/>
<feOffset dy="4"/>
<feComposite in2="hardAlpha" operator="arithmetic" k2="-1" k3="1"/>
<feColorMatrix type="matrix" values="0 0 0 0 1 0 0 0 0 1 0 0 0 0 1 0 0 0 0.25 0"/>
<feBlend mode="normal" in2="effect1_innerShadow_2043_36947" result="effect2_innerShadow_2043_36947"/>
</filter>
<linearGradient id="paint0_linear_2043_36947" x1="17" y1="34" x2="197.768" y2="215.142" gradientUnits="userSpaceOnUse">
<stop stop-color="#05815D"/>
<stop offset="1" stop-color="#0C575F"/>
</linearGradient>
<linearGradient id="paint1_linear_2043_36947" x1="17" y1="62" x2="241" y2="210" gradientUnits="userSpaceOnUse">
<stop stop-color="#5F585E"/>
<stop offset="1" stop-color="#010101"/>
</linearGradient>
<clipPath id="clip0_2043_36947">
<rect width="256" height="256" fill="white"/>
</clipPath>
</defs>
</svg>
