<svg width="256" height="256" viewBox="0 0 256 256" fill="none" xmlns="http://www.w3.org/2000/svg">
<path fill-rule="evenodd" clip-rule="evenodd" d="M104.425 42.3784C100.056 37.0733 93.5437 34 86.6712 34H29C22.3726 34 17 39.3726 17 46V58.1371V68.2V160C17 166.627 22.3726 172 29 172H229C235.627 172 241 166.627 241 160V70.1371C241 63.5097 235.627 58.1371 229 58.1371H117.404L104.425 42.3784Z" fill="#221E1D"/>
<mask id="mask0_780_17986" style="mask-type:alpha" maskUnits="userSpaceOnUse" x="17" y="34" width="224" height="138">
<path fill-rule="evenodd" clip-rule="evenodd" d="M104.425 42.3784C100.056 37.0733 93.5437 34 86.6712 34H29C22.3726 34 17 39.3726 17 46V58.1371V68.2V160C17 166.627 22.3726 172 29 172H229C235.627 172 241 166.627 241 160V70.1371C241 63.5097 235.627 58.1371 229 58.1371H117.404L104.425 42.3784Z" fill="url(#paint0_linear_780_17986)"/>
</mask>
<g mask="url(#mask0_780_17986)">
<g style="mix-blend-mode:multiply" filter="url(#filter0_f_780_17986)">
<path fill-rule="evenodd" clip-rule="evenodd" d="M92.789 74C97.7642 74 102.605 72.3868 106.586 69.4024L116.459 62H229C235.627 62 241 67.3726 241 74V108V160C241 166.627 235.627 172 229 172H29C22.3726 172 17 166.627 17 160L17 108V86C17 79.3726 22.3726 74 29 74H87H92.789Z" fill="black" fill-opacity="0.3"/>
</g>
</g>
<g filter="url(#filter1_ii_780_17986)">
<path fill-rule="evenodd" clip-rule="evenodd" d="M92.789 74C97.7642 74 102.605 72.3868 106.586 69.4024L116.459 62H229C235.627 62 241 67.3726 241 74V108V198C241 204.627 235.627 210 229 210H29C22.3726 210 17 204.627 17 198L17 108V86C17 79.3726 22.3726 74 29 74H87H92.789Z" fill="url(#paint1_linear_780_17986)"/>
</g>
<path d="M179.429 134.833L175.143 132.178C175.107 131.76 175.066 131.343 175.021 130.928L178.711 127.492C179.086 127.142 179.254 126.625 179.153 126.125C179.054 125.622 178.702 125.208 178.222 125.032L173.507 123.274C173.389 122.866 173.265 122.461 173.138 122.054L176.076 117.973C176.376 117.558 176.438 117.019 176.242 116.548C176.047 116.076 175.621 115.739 175.12 115.656L170.151 114.847C169.957 114.47 169.756 114.1 169.553 113.734L171.642 109.146C171.856 108.679 171.812 108.14 171.527 107.711C171.243 107.285 170.762 107.036 170.248 107.056L165.201 107.231C164.94 106.905 164.675 106.582 164.404 106.265L165.566 101.354C165.683 100.856 165.536 100.329 165.173 99.9681C164.812 99.6069 164.289 99.4575 163.786 99.5746L158.876 100.736C158.557 100.467 158.234 100.2 157.907 99.9398L158.084 94.8925C158.103 94.3819 157.855 93.8967 157.429 93.6136C157.002 93.3285 156.462 93.2856 155.994 93.4974L151.415 95.5866C151.045 95.3835 150.674 95.1824 150.302 94.9882L149.492 90.019C149.41 89.5152 149.072 89.0876 148.6 88.8963C148.128 88.7 147.584 88.7635 147.174 89.0622L143.093 92.0008C142.691 91.8729 142.287 91.7499 141.883 91.6327L140.126 86.9174C139.947 86.4371 139.533 86.0846 139.032 85.985C138.53 85.8864 138.017 86.0534 137.665 86.4263L134.229 90.1166C133.814 90.0707 133.396 90.0287 132.979 89.9946L130.324 85.699C130.055 85.2646 129.58 85 129.064 85C128.549 85 128.078 85.2646 127.815 85.699L125.159 89.9946C124.742 90.0287 124.324 90.0707 123.91 90.1166L120.473 86.4263C120.125 86.0534 119.607 85.8864 119.107 85.985C118.604 86.0856 118.19 86.4371 118.013 86.9174L116.256 91.6327C115.848 91.7499 115.444 91.8739 115.045 92.0008L110.965 89.0622C110.55 88.7625 110.009 88.6991 109.539 88.8963C109.068 89.0915 108.729 89.5191 108.647 90.019L107.837 94.9882C107.462 95.1824 107.091 95.3826 106.724 95.5866L102.145 93.4974C101.679 93.2846 101.139 93.3285 100.71 93.6136C100.284 93.8967 100.035 94.3819 100.055 94.8925L100.231 99.9398C99.9044 100.2 99.5813 100.467 99.2621 100.736L94.3514 99.5746C93.8526 99.4585 93.3264 99.6069 92.9652 99.9681C92.602 100.33 92.4546 100.853 92.5717 101.354L93.7237 106.265C93.4552 106.583 93.1897 106.905 92.929 107.231L87.8817 107.056C87.3731 107.041 86.886 107.285 86.6028 107.711C86.3178 108.135 86.2748 108.677 86.4867 109.146L88.5759 113.734C88.3728 114.102 88.1717 114.473 87.9774 114.847L83.0082 115.656C82.5035 115.738 82.0779 116.075 81.8855 116.548C81.6903 117.021 81.7537 117.563 82.0515 117.973L84.9901 122.054C84.8622 122.457 84.7382 122.862 84.621 123.274L79.9057 125.032C79.4273 125.21 79.0749 125.624 78.9753 126.125C78.8757 126.627 79.0427 127.14 79.4166 127.492L83.1068 130.928C83.061 131.343 83.02 131.761 82.9848 132.178L78.699 134.833C78.2646 135.102 78 135.576 78 136.093C78 136.609 78.2646 137.079 78.699 137.342L82.9848 139.998C83.02 140.416 83.061 140.833 83.1068 141.247L79.4166 144.684C79.0427 145.032 78.8757 145.55 78.9753 146.051C79.0749 146.553 79.4273 146.966 79.9057 147.144L84.621 148.901C84.7382 149.309 84.8622 149.715 84.9901 150.122L82.0515 154.202C81.7528 154.618 81.6893 155.158 81.8855 155.628C82.0818 156.101 82.5084 156.439 83.018 156.52L87.9872 157.328C88.1815 157.705 88.3806 158.076 88.5856 158.441L86.4964 163.02C86.2836 163.486 86.3275 164.026 86.6126 164.455C86.8977 164.882 87.3829 165.131 87.8915 165.11L92.929 164.934C93.1916 165.262 93.4562 165.583 93.7257 165.902L92.5737 170.813C92.4565 171.311 92.6039 171.828 92.9671 172.189C93.3273 172.553 93.8516 172.699 94.3534 172.582L99.264 171.43C99.5833 171.701 99.9064 171.965 100.232 172.224L100.057 177.272C100.037 177.782 100.286 178.267 100.712 178.551C101.136 178.835 101.678 178.878 102.147 178.665L106.726 176.576C107.095 176.781 107.466 176.98 107.839 177.174L108.649 182.143C108.731 182.649 109.069 183.076 109.541 183.276C110.013 183.472 110.556 183.408 110.966 183.111L115.047 180.172C115.45 180.3 115.856 180.425 116.268 180.542L118.025 185.257C118.204 185.736 118.617 186.09 119.118 186.188C119.62 186.289 120.134 186.121 120.485 185.747L123.922 182.056C124.336 182.104 124.754 182.144 125.171 182.181L127.827 186.467C128.094 186.9 128.57 187.166 129.076 187.166C129.583 187.166 130.062 186.9 130.336 186.467L132.991 182.181C133.409 182.144 133.826 182.104 134.241 182.056L137.677 185.747C138.026 186.121 138.543 186.289 139.044 186.188C139.547 186.089 139.961 185.736 140.137 185.257L141.895 180.542C142.303 180.425 142.708 180.3 143.115 180.172L147.196 183.111C147.611 183.408 148.151 183.472 148.621 183.276C149.094 183.081 149.431 182.653 149.513 182.143L150.324 177.174C150.698 176.98 151.069 176.778 151.437 176.576L156.015 178.665C156.481 178.878 157.021 178.835 157.45 178.551C157.876 178.265 158.124 177.782 158.105 177.272L157.93 172.224C158.256 171.964 158.579 171.701 158.897 171.43L163.808 172.582C164.307 172.699 164.833 172.553 165.194 172.189C165.557 171.827 165.705 171.307 165.587 170.813L164.436 165.902C164.705 165.583 164.97 165.262 165.23 164.934L170.277 165.11C170.786 165.131 171.273 164.882 171.556 164.455C171.841 164.03 171.885 163.488 171.672 163.02L169.582 158.441C169.786 158.071 169.987 157.7 170.18 157.328L175.149 156.52C175.655 156.439 176.08 156.101 176.272 155.628C176.467 155.156 176.405 154.613 176.106 154.202L173.167 150.122C173.294 149.719 173.418 149.313 173.536 148.901L178.252 147.144C178.731 146.964 179.084 146.552 179.182 146.051C179.284 145.549 179.116 145.035 178.741 144.684L175.05 141.247C175.095 140.833 175.136 140.415 175.172 139.998L179.458 137.342C179.893 137.075 180.157 136.599 180.157 136.093C180.157 135.586 179.894 135.107 179.459 134.833H179.429ZM150.727 170.467C149.087 170.114 148.052 168.495 148.403 166.855C148.754 165.215 150.366 164.17 152.006 164.522C153.646 164.872 154.69 166.494 154.339 168.134C153.988 169.774 152.377 170.819 150.737 170.467H150.727ZM149.272 160.607C147.778 160.287 146.304 161.237 145.992 162.735L144.469 169.842C139.773 171.97 134.511 173.162 129.044 173.162C123.421 173.162 118.11 171.922 113.326 169.696L111.803 162.589C111.483 161.095 110.017 160.138 108.523 160.46L102.246 161.808C101.084 160.607 100 159.328 99.0043 157.981H129.561C129.907 157.981 130.137 157.918 130.137 157.604V146.767C130.137 146.453 129.907 146.39 129.561 146.39H120.629V139.547H130.284C131.165 139.547 134.999 139.799 136.22 144.701C136.603 146.205 137.45 151.106 138.026 152.678C138.6 154.435 140.935 157.949 143.424 157.949H158.654C158.827 157.949 159.011 157.93 159.206 157.895C158.151 159.33 156.99 160.687 155.75 161.956L149.326 160.579L149.272 160.607ZM107 170.321C105.36 170.674 103.749 169.629 103.398 167.987C103.047 166.347 104.089 164.727 105.731 164.375C107.371 164.025 108.982 165.069 109.333 166.708C109.684 168.349 108.641 169.969 107 170.321ZM95.3824 123.362C96.0619 124.895 95.3707 126.691 93.8399 127.375C92.3072 128.055 90.5206 127.363 89.8372 125.832C89.1538 124.301 89.8489 122.503 91.3797 121.82C92.9124 121.14 94.699 121.832 95.3824 123.362ZM91.819 131.797L98.36 128.888C99.756 128.268 100.391 126.633 99.7658 125.237L98.4186 122.191H103.71V146.012H93.0686C92.1422 142.751 91.6433 139.314 91.6433 135.761C91.6433 134.404 91.7165 133.066 91.8571 131.748L91.819 131.797ZM120.521 129.483V122.454H133.115C133.766 122.454 137.713 123.207 137.713 126.154C137.713 128.605 134.687 129.483 132.197 129.483H120.482H120.521ZM166.308 135.81C166.308 136.743 166.274 137.665 166.205 138.582H162.369C161.985 138.582 161.831 138.834 161.831 139.21V140.967C161.831 145.107 159.498 146.015 157.447 146.239C155.495 146.459 153.337 145.423 153.074 144.228C151.922 137.755 150.008 136.379 146.982 133.977C150.74 131.595 154.646 128.071 154.646 123.336C154.646 118.25 151.16 115.047 148.788 113.476C145.449 111.279 141.759 110.84 140.763 110.84H101.127C106.506 104.845 113.818 100.589 122.019 99.027L126.695 103.928C127.749 105.031 129.497 105.08 130.61 104.018L135.843 99.0192C146.777 101.06 156.051 107.874 161.421 117.275L157.838 125.359C157.22 126.755 157.851 128.395 159.244 129.01L166.136 132.075C166.255 133.296 166.318 134.536 166.318 135.785L166.308 135.81ZM126.672 94.9042C127.882 93.7424 129.805 93.7913 130.957 95.0028C132.109 96.2134 132.07 98.1366 130.857 99.2984C129.646 100.46 127.723 100.411 126.571 99.1988C125.419 97.9882 125.458 96.065 126.672 94.9032V94.9042ZM162.208 123.509C162.886 121.976 164.678 121.283 166.21 121.966C167.743 122.646 168.436 124.446 167.753 125.979C167.074 127.511 165.283 128.205 163.75 127.521C162.217 126.842 161.524 125.041 162.208 123.509Z" fill="black"/>
<defs>
<filter id="filter0_f_780_17986" x="-20" y="25" width="298" height="184" filterUnits="userSpaceOnUse" color-interpolation-filters="sRGB">
<feFlood flood-opacity="0" result="BackgroundImageFix"/>
<feBlend mode="normal" in="SourceGraphic" in2="BackgroundImageFix" result="shape"/>
<feGaussianBlur stdDeviation="18.5" result="effect1_foregroundBlur_780_17986"/>
</filter>
<filter id="filter1_ii_780_17986" x="17" y="62" width="224" height="148" filterUnits="userSpaceOnUse" color-interpolation-filters="sRGB">
<feFlood flood-opacity="0" result="BackgroundImageFix"/>
<feBlend mode="normal" in="SourceGraphic" in2="BackgroundImageFix" result="shape"/>
<feColorMatrix in="SourceAlpha" type="matrix" values="0 0 0 0 0 0 0 0 0 0 0 0 0 0 0 0 0 0 127 0" result="hardAlpha"/>
<feOffset dy="4"/>
<feComposite in2="hardAlpha" operator="arithmetic" k2="-1" k3="1"/>
<feColorMatrix type="matrix" values="0 0 0 0 1 0 0 0 0 1 0 0 0 0 1 0 0 0 0.25 0"/>
<feBlend mode="normal" in2="shape" result="effect1_innerShadow_780_17986"/>
<feColorMatrix in="SourceAlpha" type="matrix" values="0 0 0 0 0 0 0 0 0 0 0 0 0 0 0 0 0 0 127 0" result="hardAlpha"/>
<feOffset dy="-4"/>
<feComposite in2="hardAlpha" operator="arithmetic" k2="-1" k3="1"/>
<feColorMatrix type="matrix" values="0 0 0 0 0 0 0 0 0 0 0 0 0 0 0 0 0 0 0.9 0"/>
<feBlend mode="soft-light" in2="effect1_innerShadow_780_17986" result="effect2_innerShadow_780_17986"/>
</filter>
<linearGradient id="paint0_linear_780_17986" x1="17" y1="34" x2="197.768" y2="215.142" gradientUnits="userSpaceOnUse">
<stop stop-color="#05815D"/>
<stop offset="1" stop-color="#0C575F"/>
</linearGradient>
<linearGradient id="paint1_linear_780_17986" x1="17" y1="62" x2="241" y2="210" gradientUnits="userSpaceOnUse">
<stop stop-color="#F59300"/>
<stop offset="1" stop-color="#F74C00"/>
</linearGradient>
</defs>
</svg>
