<svg width="256" height="256" viewBox="0 0 256 256" fill="none" xmlns="http://www.w3.org/2000/svg">
<path fill-rule="evenodd" clip-rule="evenodd" d="M104.425 42.3784C100.056 37.0733 93.5437 34 86.6712 34H29C22.3726 34 17 39.3726 17 46V58.1371V68.2V160C17 166.627 22.3726 172 29 172H229C235.627 172 241 166.627 241 160V70.1371C241 63.5097 235.627 58.1371 229 58.1371H117.404L104.425 42.3784Z" fill="#F75F00"/>
<mask id="mask0_780_18042" style="mask-type:alpha" maskUnits="userSpaceOnUse" x="17" y="34" width="224" height="138">
<path fill-rule="evenodd" clip-rule="evenodd" d="M104.425 42.3784C100.056 37.0733 93.5437 34 86.6712 34H29C22.3726 34 17 39.3726 17 46V58.1371V68.2V160C17 166.627 22.3726 172 29 172H229C235.627 172 241 166.627 241 160V70.1371C241 63.5097 235.627 58.1371 229 58.1371H117.404L104.425 42.3784Z" fill="url(#paint0_linear_780_18042)"/>
</mask>
<g mask="url(#mask0_780_18042)">
<g style="mix-blend-mode:multiply" filter="url(#filter0_f_780_18042)">
<path fill-rule="evenodd" clip-rule="evenodd" d="M92.789 74C97.7642 74 102.605 72.3868 106.586 69.4024L116.459 62H229C235.627 62 241 67.3726 241 74V108V160C241 166.627 235.627 172 229 172H29C22.3726 172 17 166.627 17 160L17 108V86C17 79.3726 22.3726 74 29 74H87H92.789Z" fill="black" fill-opacity="0.3"/>
</g>
</g>
<g filter="url(#filter1_ii_780_18042)">
<path fill-rule="evenodd" clip-rule="evenodd" d="M92.789 74C97.7642 74 102.605 72.3868 106.586 69.4024L116.459 62H229C235.627 62 241 67.3726 241 74V108V198C241 204.627 235.627 210 229 210H29C22.3726 210 17 204.627 17 198L17 108V86C17 79.3726 22.3726 74 29 74H87H92.789Z" fill="url(#paint1_linear_780_18042)"/>
</g>
<path d="M129.419 131.654C116.143 131.654 104.081 133.25 95.1509 135.851V158.07C104.081 160.671 116.143 162.267 129.419 162.267C144.614 162.267 158.217 160.177 167.355 156.881V137.041C158.217 133.745 144.614 131.654 129.419 131.654Z" fill="#A52B00"/>
<path d="M181.059 149.713L179.503 146.489C179.511 146.367 179.517 146.244 179.517 146.121C179.517 142.466 175.717 139.098 169.323 136.401V155.841C172.306 154.583 174.727 153.178 176.458 151.666C175.948 153.715 174.206 157.859 172.817 160.774C170.533 164.942 169.707 168.571 169.813 168.75C169.88 168.864 170.659 167.662 171.808 165.715C174.481 161.906 179.546 154.635 180.558 152.783C181.705 150.683 181.059 149.713 181.059 149.713Z" fill="#A52B00"/>
<path d="M80.3523 146.338C80.3523 147.042 80.4939 147.735 80.7672 148.415L79.8352 150.074C79.8352 150.074 79.0886 151.043 80.4033 153.086C81.5629 154.888 87.3716 161.942 90.4374 165.635C91.7543 167.529 92.6471 168.695 92.7253 168.583C92.8484 168.404 91.9066 164.849 89.2913 160.793C88.071 158.614 86.6135 155.728 85.7388 153.596C88.181 155.142 91.3764 156.544 95.1728 157.75V134.926C86.0244 137.833 80.3523 141.872 80.3523 146.338Z" fill="#A52B00"/>
<path d="M127.764 97.8195L124.723 102.9C124.229 102.943 123.734 102.986 123.24 103.029L119.288 98.6442C118.915 98.1788 118.317 97.9821 117.747 98.1149C117.178 98.2477 116.72 98.7028 116.516 99.2187L114.52 104.871C114.033 104.997 113.546 105.123 113.149 105.323L108.437 101.751C107.997 101.458 107.323 101.351 106.843 101.559C106.288 101.856 105.913 102.304 105.798 102.895L104.827 108.873C104.43 109.074 104.04 109.357 103.56 109.565L98.3655 107.115C97.8424 106.828 97.1835 106.886 96.7181 107.259C96.2455 107.549 95.9664 108.155 95.9345 108.738L96.1311 114.78C95.8232 115.056 95.4402 115.422 95.05 115.705L89.455 114.368C88.8568 114.172 88.2946 114.387 87.8364 114.842C87.4534 115.207 87.2639 115.888 87.3967 116.457L88.7393 122.316C88.4387 122.674 88.138 123.033 87.8446 123.473L82.0138 123.236C81.43 123.204 80.875 123.502 80.5888 124.025C80.3025 124.548 80.1955 125.221 80.493 125.776L82.8776 131.212C82.5841 131.653 82.373 132.086 82.162 132.519L76.5217 133.511C75.8627 133.569 75.4045 134.024 75.2006 134.54C75.004 135.138 75.0616 135.797 75.352 136.269L78.7641 141.117C78.6889 141.206 78.6961 141.289 78.7034 141.371L69.1318 151.505C69.1318 151.505 67.7356 152.623 69.8 155.347C71.6636 157.674 81.2812 167.042 86.3624 171.992C88.4875 174.462 89.9496 175.994 90.1071 175.898C90.3326 175.629 89.1053 171.088 84.9086 165.811C81.6684 161.032 77.4563 153.681 78.3799 152.853C78.3799 152.853 79.5002 151.427 81.8168 150.395C81.7273 150.32 81.7273 150.32 81.8168 150.395C81.8168 150.395 129.473 172.371 173.646 150.744C178.71 149.803 181.77 152.523 181.77 152.523C182.823 153.178 180.08 160.722 177.862 165.73C174.789 171.394 174.347 175.832 174.608 175.975C174.78 176.043 175.879 174.37 177.468 171.658C181.394 166.251 188.705 155.9 190.061 153.375C191.636 150.498 190.067 149.639 190.067 149.639L179.866 142.149C179.755 141.826 179.644 141.504 179.608 141.092L182.918 136.238C183.294 135.79 183.319 135.123 183.103 134.561C182.888 133.999 182.44 133.623 181.849 133.509L176.118 132.516C175.918 132.119 175.71 131.639 175.509 131.242L177.848 125.725C178.134 125.202 178.077 124.543 177.697 123.995C177.407 123.523 176.883 123.236 176.307 123.287L170.512 123.462C170.229 123.072 169.863 122.689 169.58 122.298L170.895 116.456C171.01 115.865 170.87 115.213 170.504 114.83C170.049 114.372 169.451 114.176 168.881 114.308L163.277 115.712C162.919 115.411 162.56 115.11 162.195 114.727L162.335 108.739C162.367 108.155 162.069 107.6 161.622 107.225C161.091 106.856 160.507 106.824 159.952 107.122L154.771 109.567C154.338 109.356 153.897 109.062 153.464 108.851L152.533 102.957C152.475 102.298 152.02 101.839 151.504 101.636C150.981 101.349 150.322 101.407 149.857 101.78L145.182 105.26C144.755 105.131 144.329 105.002 143.82 104.881L141.833 99.2447C141.618 98.6825 141.163 98.2243 140.572 98.11C139.981 97.9957 139.419 98.2109 138.961 98.666L135.03 103.077C134.611 103.031 134.103 102.909 133.601 102.87L130.587 97.8216C130.289 97.2667 129.766 96.9804 129.182 96.9485C128.598 96.9166 128.051 97.2965 127.764 97.8195Z" fill="url(#paint2_linear_780_18042)"/>
<path d="M113.335 163.765C113.153 163.609 113.057 163.517 113.057 163.517L128.666 162.238C115.934 145.441 105.733 158.822 104.647 160.318V163.765H113.335Z" fill="black"/>
<path d="M145.805 163.624C145.987 163.469 146.082 163.376 146.082 163.376L131.082 162.279C143.82 144.792 153.407 158.681 154.492 160.177V163.624H145.805Z" fill="black"/>
<path d="M169.811 146.922C169.811 146.922 168.113 153.71 157.492 160.85L154.536 161.552C154.536 161.552 144.91 143.996 131.274 163.776C131.274 163.776 135.517 161.318 146.899 164.332C146.899 164.332 141.662 172.349 131.128 172.086C131.128 172.086 141.223 184.229 156.614 166.702C156.614 166.702 172.883 160.411 174.2 146.922L169.811 146.922Z" fill="url(#paint3_linear_780_18042)"/>
<path d="M138.158 138.205C138.158 138.205 142.92 132.991 147.682 138.205C147.682 138.205 151.424 145.158 147.682 148.634C147.682 148.634 141.56 153.5 138.158 148.634C138.158 148.634 134.077 144.81 138.158 138.205Z" fill="black"/>
<path d="M143.614 140.142C143.614 142.173 142.418 143.819 140.942 143.819C139.466 143.819 138.269 142.173 138.269 140.142C138.269 138.112 139.466 136.466 140.942 136.466C142.418 136.466 143.614 138.112 143.614 140.142Z" fill="white"/>
<path d="M116.876 136.825C116.876 136.825 125.044 133.209 127.274 141.281C127.274 141.281 129.609 150.69 120.566 151.222C120.566 151.222 109.034 149 116.876 136.825Z" fill="black"/>
<path d="M120.939 140.258C120.939 142.351 119.705 144.049 118.182 144.049C116.66 144.049 115.426 142.351 115.426 140.258C115.426 138.163 116.66 136.466 118.182 136.466C119.705 136.466 120.939 138.163 120.939 140.258Z" fill="white"/>
<path d="M104.6 167.798C119.519 186.931 126.586 171.567 126.586 171.567C118.21 170.625 112.269 165.05 112.269 165.05C122.32 163.767 128.13 163.663 128.13 163.663C114.677 145.917 103.762 161.988 103.762 161.988C101.04 160.993 98.2398 157.198 96.172 153.69L87.8226 151.23C97.4284 167.563 104.6 167.798 104.6 167.798Z" fill="url(#paint4_linear_780_18042)"/>
<defs>
<filter id="filter0_f_780_18042" x="-20" y="25" width="298" height="184" filterUnits="userSpaceOnUse" color-interpolation-filters="sRGB">
<feFlood flood-opacity="0" result="BackgroundImageFix"/>
<feBlend mode="normal" in="SourceGraphic" in2="BackgroundImageFix" result="shape"/>
<feGaussianBlur stdDeviation="18.5" result="effect1_foregroundBlur_780_18042"/>
</filter>
<filter id="filter1_ii_780_18042" x="17" y="62" width="224" height="148" filterUnits="userSpaceOnUse" color-interpolation-filters="sRGB">
<feFlood flood-opacity="0" result="BackgroundImageFix"/>
<feBlend mode="normal" in="SourceGraphic" in2="BackgroundImageFix" result="shape"/>
<feColorMatrix in="SourceAlpha" type="matrix" values="0 0 0 0 0 0 0 0 0 0 0 0 0 0 0 0 0 0 127 0" result="hardAlpha"/>
<feOffset dy="4"/>
<feComposite in2="hardAlpha" operator="arithmetic" k2="-1" k3="1"/>
<feColorMatrix type="matrix" values="0 0 0 0 1 0 0 0 0 1 0 0 0 0 1 0 0 0 0.25 0"/>
<feBlend mode="normal" in2="shape" result="effect1_innerShadow_780_18042"/>
<feColorMatrix in="SourceAlpha" type="matrix" values="0 0 0 0 0 0 0 0 0 0 0 0 0 0 0 0 0 0 127 0" result="hardAlpha"/>
<feOffset dy="-4"/>
<feComposite in2="hardAlpha" operator="arithmetic" k2="-1" k3="1"/>
<feColorMatrix type="matrix" values="0 0 0 0 0 0 0 0 0 0 0 0 0 0 0 0 0 0 0.9 0"/>
<feBlend mode="soft-light" in2="effect1_innerShadow_780_18042" result="effect2_innerShadow_780_18042"/>
</filter>
<linearGradient id="paint0_linear_780_18042" x1="17" y1="34" x2="197.768" y2="215.142" gradientUnits="userSpaceOnUse">
<stop stop-color="#05815D"/>
<stop offset="1" stop-color="#0C575F"/>
</linearGradient>
<linearGradient id="paint1_linear_780_18042" x1="17" y1="62" x2="241" y2="210" gradientUnits="userSpaceOnUse">
<stop stop-color="#FFF9F1"/>
<stop offset="1" stop-color="#FFAE8A"/>
</linearGradient>
<linearGradient id="paint2_linear_780_18042" x1="132.159" y1="179.689" x2="124.953" y2="97.3185" gradientUnits="userSpaceOnUse">
<stop stop-color="#F74C00"/>
<stop offset="0.33" stop-color="#F74C00"/>
<stop offset="1" stop-color="#F49600"/>
</linearGradient>
<linearGradient id="paint3_linear_780_18042" x1="152.664" y1="176.183" x2="152.664" y2="146.922" gradientUnits="userSpaceOnUse">
<stop stop-color="#CC3A00"/>
<stop offset="0.15" stop-color="#CC3A00"/>
<stop offset="0.74" stop-color="#F74C00"/>
<stop offset="1" stop-color="#F74C00"/>
</linearGradient>
<linearGradient id="paint4_linear_780_18042" x1="107.976" y1="177.404" x2="107.976" y2="151.23" gradientUnits="userSpaceOnUse">
<stop stop-color="#CC3A00"/>
<stop offset="0.15" stop-color="#CC3A00"/>
<stop offset="0.74" stop-color="#F74C00"/>
<stop offset="1" stop-color="#F74C00"/>
</linearGradient>
</defs>
</svg>
