<svg width="256" height="256" viewBox="0 0 256 256" fill="none" xmlns="http://www.w3.org/2000/svg">
<path fill-rule="evenodd" clip-rule="evenodd" d="M104.425 42.3784C100.056 37.0733 93.5437 34 86.6712 34H29C22.3726 34 17 39.3726 17 46V58.1371V68.2V160C17 166.627 22.3726 172 29 172H229C235.627 172 241 166.627 241 160V70.1371C241 63.5097 235.627 58.1371 229 58.1371H117.404L104.425 42.3784Z" fill="#CD6799"/>
<mask id="mask0_570_12927" style="mask-type:alpha" maskUnits="userSpaceOnUse" x="17" y="34" width="224" height="138">
<path fill-rule="evenodd" clip-rule="evenodd" d="M104.425 42.3784C100.056 37.0733 93.5437 34 86.6712 34H29C22.3726 34 17 39.3726 17 46V58.1371V68.2V160C17 166.627 22.3726 172 29 172H229C235.627 172 241 166.627 241 160V70.1371C241 63.5097 235.627 58.1371 229 58.1371H117.404L104.425 42.3784Z" fill="url(#paint0_linear_570_12927)"/>
</mask>
<g mask="url(#mask0_570_12927)">
<g style="mix-blend-mode:multiply" filter="url(#filter0_f_570_12927)">
<path fill-rule="evenodd" clip-rule="evenodd" d="M92.789 74C97.7642 74 102.605 72.3868 106.586 69.4024L116.459 62H229C235.627 62 241 67.3726 241 74V108V160C241 166.627 235.627 172 229 172H29C22.3726 172 17 166.627 17 160L17 108V86C17 79.3726 22.3726 74 29 74H87H92.789Z" fill="black" fill-opacity="0.3"/>
</g>
</g>
<g filter="url(#filter1_ii_570_12927)">
<path fill-rule="evenodd" clip-rule="evenodd" d="M92.789 74C97.7642 74 102.605 72.3868 106.586 69.4024L116.459 62H229C235.627 62 241 67.3726 241 74V108V198C241 204.627 235.627 210 229 210H29C22.3726 210 17 204.627 17 198L17 108V86C17 79.3726 22.3726 74 29 74H87H92.789Z" fill="url(#paint1_linear_570_12927)"/>
</g>
<path d="M172.913 142.887C168.622 142.91 164.892 143.94 161.769 145.464C160.623 143.201 159.478 141.184 159.276 139.705C159.051 137.98 158.781 136.927 159.051 134.865C159.32 132.804 160.534 129.869 160.511 129.644C160.489 129.42 160.242 128.367 157.77 128.345C155.299 128.322 153.165 128.815 152.918 129.465C152.67 130.115 152.199 131.594 151.884 133.118C151.457 135.358 146.941 143.358 144.358 147.548C143.527 145.912 142.808 144.478 142.65 143.335C142.426 141.61 142.156 140.557 142.426 138.495C142.695 136.434 143.908 133.499 143.886 133.274C143.864 133.05 143.616 131.997 141.145 131.975C138.674 131.952 136.539 132.445 136.292 133.095C136.045 133.745 135.776 135.269 135.259 136.748C134.742 138.226 128.744 151.581 127.171 155.032C126.362 156.802 125.666 158.214 125.171 159.177C125.171 159.177 125.149 159.245 125.082 159.357C124.655 160.186 124.408 160.634 124.408 160.634C124.408 160.634 124.408 160.634 124.408 160.656C124.071 161.261 123.711 161.821 123.531 161.821C123.397 161.821 123.149 160.208 123.576 158.012C124.475 153.374 126.609 146.159 126.587 145.912C126.587 145.778 126.991 144.523 125.194 143.873C123.442 143.223 122.812 144.299 122.655 144.299C122.498 144.299 122.386 144.68 122.386 144.68C122.386 144.68 124.34 136.568 118.656 136.568C115.107 136.568 110.209 140.445 107.782 143.94C106.255 144.769 102.997 146.54 99.5148 148.444C98.1893 149.184 96.8188 149.923 95.5383 150.618C95.4484 150.528 95.3585 150.416 95.2687 150.326C88.3939 142.999 75.6779 137.823 76.2171 127.986C76.4193 124.401 77.655 114.99 100.638 103.562C119.555 94.2633 134.607 96.8401 137.213 102.554C140.943 110.71 129.148 125.858 109.602 128.054C102.143 128.883 98.2342 126.014 97.2457 124.939C96.2122 123.819 96.055 123.751 95.6731 123.975C95.044 124.312 95.4484 125.32 95.6731 125.902C96.2572 127.426 98.6611 130.115 102.728 131.437C106.322 132.602 115.062 133.252 125.643 129.174C137.483 124.603 146.739 111.898 144.021 101.254C141.302 90.4541 123.329 86.8913 106.322 92.9189C96.2122 96.504 85.2486 102.151 77.3629 109.5C67.9944 118.239 66.5116 125.835 67.1182 129.017C69.2975 140.31 84.9116 147.66 91.1573 153.105C90.8428 153.284 90.5507 153.441 90.3036 153.576C87.1807 155.122 75.2735 161.328 72.308 167.894C68.938 175.333 72.8472 180.666 75.4308 181.383C83.4513 183.601 91.6965 179.613 96.1224 173.025C100.548 166.437 100.009 157.878 97.9646 153.956C97.9422 153.912 97.9197 153.867 97.8748 153.822C98.6836 153.351 99.5148 152.858 100.324 152.388C101.919 151.447 103.491 150.573 104.839 149.856C104.075 151.94 103.514 154.427 103.244 158.012C102.907 162.225 104.637 167.692 106.906 169.843C107.917 170.784 109.108 170.807 109.872 170.807C112.523 170.807 113.714 168.611 115.039 166.012C116.657 162.83 118.117 159.133 118.117 159.133C118.117 159.133 116.297 169.126 121.24 169.126C123.037 169.126 124.857 166.796 125.666 165.608C125.666 165.631 125.666 165.631 125.666 165.631C125.666 165.631 125.711 165.563 125.801 165.407C125.98 165.115 126.093 164.936 126.093 164.936C126.093 164.936 126.093 164.914 126.093 164.891C126.812 163.636 128.429 160.791 130.833 156.063C133.933 149.968 136.921 142.349 136.921 142.349C136.921 142.349 137.191 144.209 138.112 147.301C138.651 149.116 139.775 151.111 140.673 153.038C139.954 154.046 139.505 154.606 139.505 154.606C139.505 154.606 139.505 154.606 139.528 154.629C138.943 155.39 138.314 156.22 137.618 157.026C135.169 159.939 132.248 163.278 131.844 164.241C131.372 165.384 131.485 166.213 132.383 166.885C133.035 167.378 134.203 167.446 135.394 167.378C137.595 167.222 139.146 166.684 139.909 166.348C141.1 165.922 142.493 165.272 143.796 164.309C146.2 162.538 147.66 160.006 147.526 156.668C147.458 154.83 146.852 152.993 146.11 151.268C146.335 150.954 146.537 150.64 146.762 150.326C150.559 144.792 153.502 138.719 153.502 138.719C153.502 138.719 153.771 140.579 154.692 143.671C155.142 145.24 156.063 146.943 156.872 148.601C153.299 151.492 151.098 154.853 150.311 157.049C148.896 161.127 149.997 162.964 152.086 163.39C153.03 163.592 154.378 163.143 155.366 162.718C156.624 162.314 158.107 161.62 159.523 160.589C161.927 158.819 164.241 156.354 164.106 153.015C164.038 151.492 163.634 149.99 163.072 148.534C166.105 147.279 170.014 146.584 175.002 147.167C185.696 148.422 187.808 155.077 187.403 157.878C186.999 160.679 184.752 162.202 184.011 162.673C183.27 163.143 183.023 163.3 183.09 163.636C183.18 164.129 183.539 164.107 184.168 164.017C185.045 163.86 189.785 161.754 189.987 156.6C190.324 150.013 184.034 142.82 172.913 142.887ZM90.4159 170.627C86.8662 174.482 81.9236 175.938 79.7893 174.706C77.4977 173.384 78.3964 167.692 82.7549 163.614C85.4059 161.127 88.8208 158.819 91.0899 157.407C91.6066 157.093 92.3705 156.645 93.2916 156.085C93.4489 155.995 93.5387 155.951 93.5387 155.951C93.7185 155.839 93.8982 155.727 94.0779 155.615C95.6731 161.44 94.1453 166.572 90.4159 170.627ZM116.252 153.105C115.017 156.108 112.433 163.793 110.86 163.368C109.512 163.009 108.681 157.183 110.591 151.424C111.557 148.534 113.601 145.083 114.792 143.739C116.724 141.588 118.858 140.871 119.375 141.744C120.027 142.887 117.016 151.223 116.252 153.105ZM137.573 163.278C137.056 163.547 136.562 163.726 136.337 163.592C136.18 163.502 136.562 163.143 136.562 163.143C136.562 163.143 139.235 160.275 140.291 158.976C140.898 158.214 141.617 157.318 142.381 156.309C142.381 156.399 142.381 156.511 142.381 156.6C142.381 160.029 139.056 162.337 137.573 163.278ZM154.018 159.536C153.636 159.267 153.704 158.371 154.984 155.57C155.479 154.472 156.647 152.634 158.646 150.864C158.871 151.581 159.028 152.276 159.006 152.926C158.983 157.25 155.883 158.864 154.018 159.536Z" fill="#CD6799"/>
<defs>
<filter id="filter0_f_570_12927" x="-20" y="25" width="298" height="184" filterUnits="userSpaceOnUse" color-interpolation-filters="sRGB">
<feFlood flood-opacity="0" result="BackgroundImageFix"/>
<feBlend mode="normal" in="SourceGraphic" in2="BackgroundImageFix" result="shape"/>
<feGaussianBlur stdDeviation="18.5" result="effect1_foregroundBlur_570_12927"/>
</filter>
<filter id="filter1_ii_570_12927" x="17" y="62" width="224" height="148" filterUnits="userSpaceOnUse" color-interpolation-filters="sRGB">
<feFlood flood-opacity="0" result="BackgroundImageFix"/>
<feBlend mode="normal" in="SourceGraphic" in2="BackgroundImageFix" result="shape"/>
<feColorMatrix in="SourceAlpha" type="matrix" values="0 0 0 0 0 0 0 0 0 0 0 0 0 0 0 0 0 0 127 0" result="hardAlpha"/>
<feOffset dy="4"/>
<feComposite in2="hardAlpha" operator="arithmetic" k2="-1" k3="1"/>
<feColorMatrix type="matrix" values="0 0 0 0 1 0 0 0 0 1 0 0 0 0 1 0 0 0 0.25 0"/>
<feBlend mode="normal" in2="shape" result="effect1_innerShadow_570_12927"/>
<feColorMatrix in="SourceAlpha" type="matrix" values="0 0 0 0 0 0 0 0 0 0 0 0 0 0 0 0 0 0 127 0" result="hardAlpha"/>
<feOffset dy="-4"/>
<feComposite in2="hardAlpha" operator="arithmetic" k2="-1" k3="1"/>
<feColorMatrix type="matrix" values="0 0 0 0 0 0 0 0 0 0 0 0 0 0 0 0 0 0 0.9 0"/>
<feBlend mode="soft-light" in2="effect1_innerShadow_570_12927" result="effect2_innerShadow_570_12927"/>
</filter>
<linearGradient id="paint0_linear_570_12927" x1="17" y1="34" x2="197.768" y2="215.142" gradientUnits="userSpaceOnUse">
<stop stop-color="#05815D"/>
<stop offset="1" stop-color="#0C575F"/>
</linearGradient>
<linearGradient id="paint1_linear_570_12927" x1="17" y1="62" x2="241" y2="210" gradientUnits="userSpaceOnUse">
<stop stop-color="#FBD6E9"/>
<stop offset="1" stop-color="#F49BC9"/>
</linearGradient>
</defs>
</svg>
