<svg width="256" height="256" viewBox="0 0 256 256" fill="none" xmlns="http://www.w3.org/2000/svg">
<g clip-path="url(#clip0_2019_32544)">
<path fill-rule="evenodd" clip-rule="evenodd" d="M104.425 42.3784C100.056 37.0733 93.5437 34 86.6712 34H29C22.3726 34 17 39.3726 17 46V58.1371V68.2V160C17 166.627 22.3726 172 29 172H229C235.627 172 241 166.627 241 160V70.1371C241 63.5097 235.627 58.1371 229 58.1371H117.404L104.425 42.3784Z" fill="#D06097"/>
<mask id="mask0_2019_32544" style="mask-type:alpha" maskUnits="userSpaceOnUse" x="17" y="34" width="224" height="138">
<path fill-rule="evenodd" clip-rule="evenodd" d="M104.425 42.3784C100.056 37.0733 93.5437 34 86.6712 34H29C22.3726 34 17 39.3726 17 46V58.1371V68.2V160C17 166.627 22.3726 172 29 172H229C235.627 172 241 166.627 241 160V70.1371C241 63.5097 235.627 58.1371 229 58.1371H117.404L104.425 42.3784Z" fill="url(#paint0_linear_2019_32544)"/>
</mask>
<g mask="url(#mask0_2019_32544)">
<g style="mix-blend-mode:multiply" filter="url(#filter0_f_2019_32544)">
<path fill-rule="evenodd" clip-rule="evenodd" d="M92.789 74C97.7642 74 102.605 72.3868 106.586 69.4024L116.459 62H229C235.627 62 241 67.3726 241 74V108V160C241 166.627 235.627 172 229 172H29C22.3726 172 17 166.627 17 160L17 108V86C17 79.3726 22.3726 74 29 74H87H92.789Z" fill="black" fill-opacity="0.3"/>
</g>
</g>
<g filter="url(#filter1_ii_2019_32544)">
<path fill-rule="evenodd" clip-rule="evenodd" d="M92.789 74C97.7642 74 102.605 72.3868 106.586 69.4024L116.459 62H229C235.627 62 241 67.3726 241 74V108V198C241 204.627 235.627 210 229 210H29C22.3726 210 17 204.627 17 198L17 108V86C17 79.3726 22.3726 74 29 74H87H92.789Z" fill="url(#paint1_linear_2019_32544)"/>
</g>
<mask id="mask1_2019_32544" style="mask-type:luminance" maskUnits="userSpaceOnUse" x="61" y="85" width="136" height="102">
<path d="M196.826 85H61V186.808H196.826V85Z" fill="white"/>
</mask>
<g mask="url(#mask1_2019_32544)">
<path d="M177.884 143.519C173.148 143.543 169.032 144.684 165.586 146.37C164.321 143.866 163.056 141.634 162.833 139.997C162.585 138.088 162.288 136.923 162.585 134.642C162.883 132.361 164.222 129.113 164.197 128.865C164.172 128.616 163.899 127.452 161.172 127.427C158.444 127.402 156.089 127.948 155.816 128.667C155.543 129.385 155.023 131.022 154.676 132.708C154.205 135.188 149.22 144.04 146.369 148.676C145.452 146.866 144.659 145.279 144.485 144.014C144.237 142.105 143.94 140.94 144.237 138.659C144.534 136.378 145.874 133.129 145.849 132.881C145.824 132.634 145.551 131.468 142.824 131.444C140.096 131.419 137.74 131.964 137.468 132.683C137.195 133.402 136.898 135.089 136.327 136.725C135.757 138.361 129.137 153.139 127.401 156.957C126.509 158.916 125.74 160.478 125.195 161.544C125.195 161.544 125.17 161.619 125.096 161.742C124.624 162.66 124.351 163.156 124.351 163.156C124.351 163.156 124.351 163.156 124.351 163.181C123.98 163.851 123.583 164.47 123.384 164.47C123.236 164.47 122.963 162.685 123.434 160.255C124.426 155.122 126.781 147.138 126.757 146.866C126.757 146.717 127.203 145.329 125.219 144.609C123.285 143.89 122.591 145.081 122.417 145.081C122.244 145.081 122.12 145.502 122.12 145.502C122.12 145.502 124.277 136.526 118.004 136.526C114.086 136.526 108.681 140.816 106.003 144.684C104.317 145.602 100.722 147.56 96.8788 149.668C95.4159 150.486 93.9034 151.304 92.4901 152.073C92.391 151.974 92.2918 151.85 92.1926 151.75C84.6054 143.642 70.5715 137.915 71.1665 127.03C71.3897 123.063 72.7534 112.649 98.1185 100.004C118.996 89.7137 135.609 92.5651 138.485 98.8878C142.6 107.913 129.583 124.674 108.012 127.104C99.7798 128.022 95.4655 124.848 94.3746 123.658C93.234 122.418 93.0604 122.344 92.6389 122.592C91.9446 122.963 92.391 124.079 92.6389 124.724C93.2835 126.41 95.9366 129.385 100.424 130.848C104.392 132.138 114.037 132.857 125.715 128.344C138.782 123.286 148.998 109.227 145.997 97.4496C142.998 85.4986 123.162 81.5561 104.392 88.226C93.234 92.1932 81.1341 98.4415 72.4311 106.574C62.0916 116.244 60.4551 124.65 61.1246 128.17C63.5297 140.667 80.7622 148.8 87.6551 154.825C87.308 155.023 86.9857 155.197 86.7129 155.346C83.2664 157.056 70.1252 163.925 66.8522 171.19C63.133 179.422 67.4473 185.323 70.2987 186.116C79.1505 188.571 88.2502 184.157 93.1348 176.867C98.0194 169.578 97.4243 160.106 95.168 155.767C95.1432 155.718 95.1184 155.668 95.0688 155.619C95.9614 155.098 96.8788 154.553 97.7714 154.032C99.5319 152.991 101.267 152.023 102.755 151.23C101.912 153.536 101.292 156.288 100.995 160.255C100.623 164.917 102.532 170.966 105.036 173.347C106.152 174.388 107.466 174.413 108.309 174.413C111.235 174.413 112.549 171.983 114.012 169.107C115.797 165.586 117.409 161.495 117.409 161.495C117.409 161.495 115.4 172.554 120.855 172.554C122.839 172.554 124.847 169.975 125.74 168.661C125.74 168.685 125.74 168.685 125.74 168.685C125.74 168.685 125.79 168.611 125.889 168.437C126.087 168.115 126.211 167.916 126.211 167.916C126.211 167.916 126.211 167.892 126.211 167.867C127.005 166.479 128.789 163.33 131.443 158.098C134.864 151.354 138.162 142.924 138.162 142.924C138.162 142.924 138.46 144.982 139.476 148.403C140.071 150.412 141.311 152.618 142.303 154.751C141.51 155.867 141.014 156.486 141.014 156.486C141.014 156.486 141.014 156.486 141.038 156.511C140.394 157.354 139.7 158.271 138.931 159.164C136.228 162.388 133.005 166.082 132.559 167.148C132.038 168.413 132.162 169.33 133.154 170.074C133.873 170.619 135.162 170.693 136.476 170.619C138.906 170.446 140.617 169.851 141.46 169.478C142.774 169.008 144.312 168.289 145.749 167.222C148.403 165.264 150.014 162.462 149.866 158.767C149.791 156.734 149.121 154.701 148.304 152.792C148.552 152.444 148.774 152.097 149.022 151.75C153.213 145.626 156.461 138.907 156.461 138.907C156.461 138.907 156.758 140.964 157.775 144.387C158.271 146.122 159.287 148.006 160.18 149.841C156.238 153.04 153.808 156.759 152.94 159.189C151.378 163.702 152.593 165.734 154.899 166.206C155.94 166.429 157.428 165.933 158.519 165.462C159.907 165.016 161.544 164.247 163.106 163.106C165.759 161.148 168.313 158.42 168.164 154.726C168.089 153.04 167.643 151.378 167.023 149.767C170.371 148.379 174.685 147.61 180.19 148.254C191.992 149.643 194.323 157.007 193.876 160.106C193.43 163.205 190.95 164.892 190.132 165.413C189.314 165.933 189.041 166.107 189.116 166.479C189.215 167.024 189.612 166.999 190.306 166.9C191.273 166.727 196.504 164.396 196.728 158.693C197.1 151.403 190.157 143.444 177.884 143.519ZM86.8369 174.215C82.9193 178.479 77.4645 180.091 75.109 178.728C72.5799 177.264 73.5717 170.966 78.3818 166.454C81.3077 163.702 85.0764 161.148 87.5807 159.586C88.151 159.239 88.9941 158.743 90.0107 158.123C90.1842 158.024 90.2834 157.974 90.2834 157.974C90.4817 157.85 90.6801 157.726 90.8785 157.602C92.6389 164.049 90.9528 169.727 86.8369 174.215ZM115.351 154.825C113.987 158.148 111.136 166.652 109.4 166.181C107.912 165.784 106.995 159.338 109.103 152.965C110.169 149.767 112.425 145.949 113.739 144.461C115.872 142.08 118.227 141.287 118.797 142.254C119.517 143.519 116.194 152.742 115.351 154.825ZM138.881 166.082C138.311 166.38 137.766 166.578 137.518 166.429C137.344 166.33 137.766 165.933 137.766 165.933C137.766 165.933 140.716 162.759 141.882 161.321C142.551 160.478 143.345 159.486 144.187 158.371C144.187 158.47 144.187 158.594 144.187 158.693C144.187 162.487 140.518 165.04 138.881 166.082ZM157.031 161.941C156.609 161.643 156.684 160.652 158.097 157.552C158.643 156.337 159.932 154.305 162.139 152.345C162.387 153.139 162.561 153.907 162.536 154.627C162.511 159.412 159.089 161.197 157.031 161.941Z" fill="white"/>
</g>
</g>
<defs>
<filter id="filter0_f_2019_32544" x="-20" y="25" width="298" height="184" filterUnits="userSpaceOnUse" color-interpolation-filters="sRGB">
<feFlood flood-opacity="0" result="BackgroundImageFix"/>
<feBlend mode="normal" in="SourceGraphic" in2="BackgroundImageFix" result="shape"/>
<feGaussianBlur stdDeviation="18.5" result="effect1_foregroundBlur_2019_32544"/>
</filter>
<filter id="filter1_ii_2019_32544" x="17" y="62" width="224" height="148" filterUnits="userSpaceOnUse" color-interpolation-filters="sRGB">
<feFlood flood-opacity="0" result="BackgroundImageFix"/>
<feBlend mode="normal" in="SourceGraphic" in2="BackgroundImageFix" result="shape"/>
<feColorMatrix in="SourceAlpha" type="matrix" values="0 0 0 0 0 0 0 0 0 0 0 0 0 0 0 0 0 0 127 0" result="hardAlpha"/>
<feOffset dy="-4"/>
<feComposite in2="hardAlpha" operator="arithmetic" k2="-1" k3="1"/>
<feColorMatrix type="matrix" values="0 0 0 0 0 0 0 0 0 0 0 0 0 0 0 0 0 0 0.25 0"/>
<feBlend mode="normal" in2="shape" result="effect1_innerShadow_2019_32544"/>
<feColorMatrix in="SourceAlpha" type="matrix" values="0 0 0 0 0 0 0 0 0 0 0 0 0 0 0 0 0 0 127 0" result="hardAlpha"/>
<feOffset dy="4"/>
<feComposite in2="hardAlpha" operator="arithmetic" k2="-1" k3="1"/>
<feColorMatrix type="matrix" values="0 0 0 0 1 0 0 0 0 1 0 0 0 0 1 0 0 0 0.25 0"/>
<feBlend mode="normal" in2="effect1_innerShadow_2019_32544" result="effect2_innerShadow_2019_32544"/>
</filter>
<linearGradient id="paint0_linear_2019_32544" x1="17" y1="34" x2="197.768" y2="215.142" gradientUnits="userSpaceOnUse">
<stop stop-color="#05815D"/>
<stop offset="1" stop-color="#0C575F"/>
</linearGradient>
<linearGradient id="paint1_linear_2019_32544" x1="17" y1="62" x2="241" y2="210" gradientUnits="userSpaceOnUse">
<stop stop-color="#DE79AB"/>
<stop offset="1" stop-color="#CE5C94"/>
</linearGradient>
<clipPath id="clip0_2019_32544">
<rect width="256" height="256" fill="white"/>
</clipPath>
</defs>
</svg>
