<?xml version="1.0" encoding="UTF-8" standalone="no"?>
<svg
   width="256"
   height="256"
   viewBox="0 0 256 256"
   fill="none"
   version="1.1"
   id="svg866"
   sodipodi:docname="Scoop.svg"
   xml:space="preserve"
   inkscape:version="1.2.2 (732a01da63, 2022-12-09)"
   xmlns:inkscape="http://www.inkscape.org/namespaces/inkscape"
   xmlns:sodipodi="http://sodipodi.sourceforge.net/DTD/sodipodi-0.dtd"
   xmlns="http://www.w3.org/2000/svg"
   xmlns:svg="http://www.w3.org/2000/svg"><sodipodi:namedview
     id="namedview868"
     pagecolor="#ffffff"
     bordercolor="#000000"
     borderopacity="0.25"
     inkscape:showpageshadow="2"
     inkscape:pageopacity="0.0"
     inkscape:pagecheckerboard="0"
     inkscape:deskcolor="#d1d1d1"
     showgrid="false"
     inkscape:zoom="1.0247524"
     inkscape:cx="-189.31402"
     inkscape:cy="73.188411"
     inkscape:window-width="1920"
     inkscape:window-height="974"
     inkscape:window-x="-11"
     inkscape:window-y="-11"
     inkscape:window-maximized="1"
     inkscape:current-layer="svg866" /><path
     fill-rule="evenodd"
     clip-rule="evenodd"
     d="M104.425 42.3784C100.056 37.0733 93.5437 34 86.6712 34H29C22.3726 34 17 39.3726 17 46V58.1371V68.2V160C17 166.627 22.3726 172 29 172H229C235.627 172 241 166.627 241 160V70.1371C241 63.5097 235.627 58.1371 229 58.1371H117.404L104.425 42.3784Z"
     fill="#5E5E5E"
     id="path513"
     style="fill:#6d6875;fill-opacity:1" /><mask
     id="mask0_725_16484"
     style="mask-type:alpha"
     maskUnits="userSpaceOnUse"
     x="17"
     y="34"
     width="224"
     height="138"><path
       fill-rule="evenodd"
       clip-rule="evenodd"
       d="M104.425 42.3784C100.056 37.0733 93.5437 34 86.6712 34H29C22.3726 34 17 39.3726 17 46V58.1371V68.2V160C17 166.627 22.3726 172 29 172H229C235.627 172 241 166.627 241 160V70.1371C241 63.5097 235.627 58.1371 229 58.1371H117.404L104.425 42.3784Z"
       fill="url(#paint0_linear_725_16484)"
       id="path515" /></mask><g
     mask="url(#mask0_725_16484)"
     id="g522"><g
       style="mix-blend-mode:multiply"
       filter="url(#filter0_f_725_16484)"
       id="g520"><path
         fill-rule="evenodd"
         clip-rule="evenodd"
         d="M92.789 74C97.7642 74 102.605 72.3868 106.586 69.4024L116.459 62H229C235.627 62 241 67.3726 241 74V108V160C241 166.627 235.627 172 229 172H29C22.3726 172 17 166.627 17 160L17 108V86C17 79.3726 22.3726 74 29 74H87H92.789Z"
         fill="black"
         fill-opacity="0.3"
         id="path518" /></g></g><g
     filter="url(#filter1_ii_725_16484)"
     id="g526"><path
       fill-rule="evenodd"
       clip-rule="evenodd"
       d="M92.789 74C97.7642 74 102.605 72.3868 106.586 69.4024L116.459 62H229C235.627 62 241 67.3726 241 74V108V198C241 204.627 235.627 210 229 210H29C22.3726 210 17 204.627 17 198L17 108V86C17 79.3726 22.3726 74 29 74H87H92.789Z"
       fill="url(#paint1_linear_725_16484)"
       id="path524" /></g><defs
     id="defs864"><filter
       id="filter0_f_725_16484"
       x="-20"
       y="25"
       width="298"
       height="184"
       filterUnits="userSpaceOnUse"
       color-interpolation-filters="sRGB"><feFlood
         flood-opacity="0"
         result="BackgroundImageFix"
         id="feFlood614" /><feBlend
         mode="normal"
         in="SourceGraphic"
         in2="BackgroundImageFix"
         result="shape"
         id="feBlend616" /><feGaussianBlur
         stdDeviation="18.5"
         result="effect1_foregroundBlur_725_16484"
         id="feGaussianBlur618" /></filter><filter
       id="filter1_ii_725_16484"
       x="17"
       y="62"
       width="224"
       height="148"
       filterUnits="userSpaceOnUse"
       color-interpolation-filters="sRGB"><feFlood
         flood-opacity="0"
         result="BackgroundImageFix"
         id="feFlood621" /><feBlend
         mode="normal"
         in="SourceGraphic"
         in2="BackgroundImageFix"
         result="shape"
         id="feBlend623" /><feColorMatrix
         in="SourceAlpha"
         type="matrix"
         values="0 0 0 0 0 0 0 0 0 0 0 0 0 0 0 0 0 0 127 0"
         result="hardAlpha"
         id="feColorMatrix625" /><feOffset
         dy="4"
         id="feOffset627" /><feComposite
         in2="hardAlpha"
         operator="arithmetic"
         k2="-1"
         k3="1"
         id="feComposite629" /><feColorMatrix
         type="matrix"
         values="0 0 0 0 1 0 0 0 0 1 0 0 0 0 1 0 0 0 0.25 0"
         id="feColorMatrix631" /><feBlend
         mode="normal"
         in2="shape"
         result="effect1_innerShadow_725_16484"
         id="feBlend633" /><feColorMatrix
         in="SourceAlpha"
         type="matrix"
         values="0 0 0 0 0 0 0 0 0 0 0 0 0 0 0 0 0 0 127 0"
         result="hardAlpha"
         id="feColorMatrix635" /><feOffset
         dy="-4"
         id="feOffset637" /><feComposite
         in2="hardAlpha"
         operator="arithmetic"
         k2="-1"
         k3="1"
         id="feComposite639" /><feColorMatrix
         type="matrix"
         values="0 0 0 0 0 0 0 0 0 0 0 0 0 0 0 0 0 0 0.9 0"
         id="feColorMatrix641" /><feBlend
         mode="soft-light"
         in2="effect1_innerShadow_725_16484"
         result="effect2_innerShadow_725_16484"
         id="feBlend643" /></filter><filter
       id="filter2_f_725_16484"
       x="72.5583"
       y="80.4272"
       width="112.73"
       height="111.144"
       filterUnits="userSpaceOnUse"
       color-interpolation-filters="sRGB"><feFlood
         flood-opacity="0"
         result="BackgroundImageFix"
         id="feFlood646" /><feBlend
         mode="normal"
         in="SourceGraphic"
         in2="BackgroundImageFix"
         result="shape"
         id="feBlend648" /><feGaussianBlur
         stdDeviation="3.22096"
         result="effect1_foregroundBlur_725_16484"
         id="feGaussianBlur650" /></filter><filter
       id="filter3_f_725_16484"
       x="51.0717"
       y="59.8109"
       width="155.702"
       height="154.116"
       filterUnits="userSpaceOnUse"
       color-interpolation-filters="sRGB"><feFlood
         flood-opacity="0"
         result="BackgroundImageFix"
         id="feFlood653" /><feBlend
         mode="normal"
         in="SourceGraphic"
         in2="BackgroundImageFix"
         result="shape"
         id="feBlend655" /><feGaussianBlur
         stdDeviation="13.9642"
         result="effect1_foregroundBlur_725_16484"
         id="feGaussianBlur657" /></filter><filter
       id="filter4_f_725_16484"
       x="103.7"
       y="153.587"
       width="45.0077"
       height="36.0119"
       filterUnits="userSpaceOnUse"
       color-interpolation-filters="sRGB"><feFlood
         flood-opacity="0"
         result="BackgroundImageFix"
         id="feFlood660" /><feBlend
         mode="normal"
         in="SourceGraphic"
         in2="BackgroundImageFix"
         result="shape"
         id="feBlend662" /><feGaussianBlur
         stdDeviation="4.14946"
         result="effect1_foregroundBlur_725_16484"
         id="feGaussianBlur664" /></filter><filter
       id="filter5_f_725_16484"
       x="135.533"
       y="128.715"
       width="50.3073"
       height="31.6566"
       filterUnits="userSpaceOnUse"
       color-interpolation-filters="sRGB"><feFlood
         flood-opacity="0"
         result="BackgroundImageFix"
         id="feFlood667" /><feBlend
         mode="normal"
         in="SourceGraphic"
         in2="BackgroundImageFix"
         result="shape"
         id="feBlend669" /><feGaussianBlur
         stdDeviation="4.49277"
         result="effect1_foregroundBlur_725_16484"
         id="feGaussianBlur671" /></filter><filter
       id="filter6_f_725_16484"
       x="160.266"
       y="153.736"
       width="18.2471"
       height="13.1123"
       filterUnits="userSpaceOnUse"
       color-interpolation-filters="sRGB"><feFlood
         flood-opacity="0"
         result="BackgroundImageFix"
         id="feFlood674" /><feBlend
         mode="normal"
         in="SourceGraphic"
         in2="BackgroundImageFix"
         result="shape"
         id="feBlend676" /><feGaussianBlur
         stdDeviation="2.03906"
         result="effect1_foregroundBlur_725_16484"
         id="feGaussianBlur678" /></filter><filter
       id="filter7_f_725_16484"
       x="159.036"
       y="157.717"
       width="20.266"
       height="8.9244"
       filterUnits="userSpaceOnUse"
       color-interpolation-filters="sRGB"><feFlood
         flood-opacity="0"
         result="BackgroundImageFix"
         id="feFlood681" /><feBlend
         mode="normal"
         in="SourceGraphic"
         in2="BackgroundImageFix"
         result="shape"
         id="feBlend683" /><feGaussianBlur
         stdDeviation="1.73989"
         result="effect1_foregroundBlur_725_16484"
         id="feGaussianBlur685" /></filter><filter
       id="filter8_f_725_16484"
       x="156.853"
       y="163.541"
       width="9.34338"
       height="9.62195"
       filterUnits="userSpaceOnUse"
       color-interpolation-filters="sRGB"><feFlood
         flood-opacity="0"
         result="BackgroundImageFix"
         id="feFlood688" /><feBlend
         mode="normal"
         in="SourceGraphic"
         in2="BackgroundImageFix"
         result="shape"
         id="feBlend690" /><feGaussianBlur
         stdDeviation="1.34079"
         result="effect1_foregroundBlur_725_16484"
         id="feGaussianBlur692" /></filter><filter
       id="filter9_f_725_16484"
       x="157.797"
       y="166.204"
       width="9.8033"
       height="7.28621"
       filterUnits="userSpaceOnUse"
       color-interpolation-filters="sRGB"><feFlood
         flood-opacity="0"
         result="BackgroundImageFix"
         id="feFlood695" /><feBlend
         mode="normal"
         in="SourceGraphic"
         in2="BackgroundImageFix"
         result="shape"
         id="feBlend697" /><feGaussianBlur
         stdDeviation="1.14406"
         result="effect1_foregroundBlur_725_16484"
         id="feGaussianBlur699" /></filter><filter
       id="filter10_f_725_16484"
       x="96.6578"
       y="162.573"
       width="15.5761"
       height="10.5907"
       filterUnits="userSpaceOnUse"
       color-interpolation-filters="sRGB"><feFlood
         flood-opacity="0"
         result="BackgroundImageFix"
         id="feFlood702" /><feBlend
         mode="normal"
         in="SourceGraphic"
         in2="BackgroundImageFix"
         result="shape"
         id="feBlend704" /><feGaussianBlur
         stdDeviation="1.65744"
         result="effect1_foregroundBlur_725_16484"
         id="feGaussianBlur706" /></filter><filter
       id="filter11_f_725_16484"
       x="96.7061"
       y="164.641"
       width="15.5212"
       height="10.1831"
       filterUnits="userSpaceOnUse"
       color-interpolation-filters="sRGB"><feFlood
         flood-opacity="0"
         result="BackgroundImageFix"
         id="feFlood709" /><feBlend
         mode="normal"
         in="SourceGraphic"
         in2="BackgroundImageFix"
         result="shape"
         id="feBlend711" /><feGaussianBlur
         stdDeviation="1.40929"
         result="effect1_foregroundBlur_725_16484"
         id="feGaussianBlur713" /></filter><filter
       id="filter12_f_725_16484"
       x="75.6837"
       y="82.6803"
       width="106.489"
       height="104.893"
       filterUnits="userSpaceOnUse"
       color-interpolation-filters="sRGB"><feFlood
         flood-opacity="0"
         result="BackgroundImageFix"
         id="feFlood716" /><feBlend
         mode="normal"
         in="SourceGraphic"
         in2="BackgroundImageFix"
         result="shape"
         id="feBlend718" /><feGaussianBlur
         stdDeviation="1.30439"
         result="effect1_foregroundBlur_725_16484"
         id="feGaussianBlur720" /></filter><filter
       id="filter13_f_725_16484"
       x="85.3836"
       y="131.765"
       width="75.4865"
       height="60.2822"
       filterUnits="userSpaceOnUse"
       color-interpolation-filters="sRGB"><feFlood
         flood-opacity="0"
         result="BackgroundImageFix"
         id="feFlood723" /><feBlend
         mode="normal"
         in="SourceGraphic"
         in2="BackgroundImageFix"
         result="shape"
         id="feBlend725" /><feGaussianBlur
         stdDeviation="7.2036"
         result="effect1_foregroundBlur_725_16484"
         id="feGaussianBlur727" /></filter><filter
       id="filter14_f_725_16484"
       x="130.949"
       y="147.957"
       width="28.8294"
       height="33.9984"
       filterUnits="userSpaceOnUse"
       color-interpolation-filters="sRGB"><feFlood
         flood-opacity="0"
         result="BackgroundImageFix"
         id="feFlood730" /><feBlend
         mode="normal"
         in="SourceGraphic"
         in2="BackgroundImageFix"
         result="shape"
         id="feBlend732" /><feGaussianBlur
         stdDeviation="2.42465"
         result="effect1_foregroundBlur_725_16484"
         id="feGaussianBlur734" /></filter><filter
       id="filter15_f_725_16484"
       x="115.423"
       y="99.6721"
       width="70.3769"
       height="93.435"
       filterUnits="userSpaceOnUse"
       color-interpolation-filters="sRGB"><feFlood
         flood-opacity="0"
         result="BackgroundImageFix"
         id="feFlood737" /><feBlend
         mode="normal"
         in="SourceGraphic"
         in2="BackgroundImageFix"
         result="shape"
         id="feBlend739" /><feGaussianBlur
         stdDeviation="5.41198"
         result="effect1_foregroundBlur_725_16484"
         id="feGaussianBlur741" /></filter><linearGradient
       id="paint0_linear_725_16484"
       x1="17"
       y1="34"
       x2="197.768"
       y2="215.142"
       gradientUnits="userSpaceOnUse"><stop
         stop-color="#05815D"
         id="stop744" /><stop
         offset="1"
         stop-color="#0C575F"
         id="stop746" /></linearGradient><linearGradient
       id="paint1_linear_725_16484"
       x1="17"
       y1="62"
       x2="303.5"
       y2="331.5"
       gradientUnits="userSpaceOnUse"><stop
         stop-color="#FAFAFA"
         id="stop749" /><stop
         offset="1"
         stop-color="#DFD8D8"
         id="stop751" /></linearGradient><linearGradient
       id="paint2_linear_725_16484"
       x1="101.218"
       y1="109.333"
       x2="123.697"
       y2="131.819"
       gradientUnits="userSpaceOnUse"><stop
         stop-color="white"
         id="stop754" /><stop
         offset="1"
         stop-color="white"
         stop-opacity="0"
         id="stop756" /></linearGradient><linearGradient
       id="paint3_linear_725_16484"
       x1="125.359"
       y1="96.0239"
       x2="152.089"
       y2="122.762"
       gradientUnits="userSpaceOnUse"><stop
         stop-color="white"
         id="stop759" /><stop
         offset="1"
         stop-color="white"
         stop-opacity="0"
         id="stop761" /></linearGradient><radialGradient
       id="paint4_radial_725_16484"
       cx="0"
       cy="0"
       r="1"
       gradientUnits="userSpaceOnUse"
       gradientTransform="translate(111.999 179.856) scale(22.6794 15.176)"><stop
         stop-color="white"
         id="stop764" /><stop
         offset="1"
         stop-color="white"
         stop-opacity="0"
         id="stop766" /></radialGradient><radialGradient
       id="paint5_radial_725_16484"
       cx="0"
       cy="0"
       r="1"
       gradientUnits="userSpaceOnUse"
       gradientTransform="translate(123.957 180.4) scale(28.937 19.3633)"><stop
         stop-color="white"
         id="stop769" /><stop
         offset="1"
         stop-color="white"
         stop-opacity="0"
         id="stop771" /></radialGradient><radialGradient
       id="paint6_radial_725_16484"
       cx="0"
       cy="0"
       r="1"
       gradientUnits="userSpaceOnUse"
       gradientTransform="translate(160.686 145.368) scale(16.1681 6.84278)"><stop
         stop-color="white"
         id="stop774" /><stop
         offset="1"
         stop-color="white"
         stop-opacity="0"
         id="stop776" /></radialGradient><radialGradient
       id="paint7_radial_725_16484"
       cx="0"
       cy="0"
       r="1"
       gradientUnits="userSpaceOnUse"
       gradientTransform="translate(164.109 147.257) scale(16.1681 6.84278)"><stop
         stop-color="white"
         id="stop779" /><stop
         offset="1"
         stop-color="white"
         stop-opacity="0"
         id="stop781" /></radialGradient><linearGradient
       id="paint8_linear_725_16484"
       x1="170.186"
       y1="157.137"
       x2="170.245"
       y2="160.116"
       gradientUnits="userSpaceOnUse"><stop
         stop-color="white"
         id="stop784" /><stop
         offset="1"
         stop-color="white"
         stop-opacity="0"
         id="stop786" /></linearGradient><linearGradient
       id="paint9_linear_725_16484"
       x1="170.304"
       y1="156.794"
       x2="170.304"
       y2="161.317"
       gradientUnits="userSpaceOnUse"><stop
         stop-color="white"
         id="stop789" /><stop
         offset="1"
         stop-color="white"
         stop-opacity="0"
         id="stop791" /></linearGradient><radialGradient
       id="paint10_radial_725_16484"
       cx="0"
       cy="0"
       r="1"
       gradientUnits="userSpaceOnUse"
       gradientTransform="translate(169.169 162.181) scale(6.65321 0.982706)"><stop
         stop-color="white"
         id="stop794" /><stop
         offset="1"
         stop-color="white"
         stop-opacity="0"
         id="stop796" /></radialGradient><linearGradient
       id="paint11_linear_725_16484"
       x1="160.846"
       y1="165.973"
       x2="162.312"
       y2="168.564"
       gradientUnits="userSpaceOnUse"><stop
         stop-color="white"
         id="stop799" /><stop
         offset="1"
         stop-color="white"
         stop-opacity="0"
         id="stop801" /></linearGradient><linearGradient
       id="paint12_linear_725_16484"
       x1="160.294"
       y1="165.053"
       x2="162.339"
       y2="169.088"
       gradientUnits="userSpaceOnUse"><stop
         stop-color="white"
         id="stop804" /><stop
         offset="1"
         stop-color="white"
         stop-opacity="0"
         id="stop806" /></linearGradient><radialGradient
       id="paint13_radial_725_16484"
       cx="0"
       cy="0"
       r="1"
       gradientUnits="userSpaceOnUse"
       gradientTransform="translate(162.735 170.67) rotate(-26.879) scale(2.87645 0.982773)"><stop
         stop-color="white"
         id="stop809" /><stop
         offset="1"
         stop-color="white"
         stop-opacity="0"
         id="stop811" /></radialGradient><radialGradient
       id="paint14_radial_725_16484"
       cx="0"
       cy="0"
       r="1"
       gradientUnits="userSpaceOnUse"
       gradientTransform="translate(103.862 156.57) scale(10.7394 4.37042)"><stop
         stop-color="white"
         stop-opacity="0.33"
         id="stop814" /><stop
         offset="1"
         stop-color="white"
         stop-opacity="0"
         id="stop816" /></radialGradient><linearGradient
       id="paint15_linear_725_16484"
       x1="104.408"
       y1="165.519"
       x2="104.909"
       y2="167.639"
       gradientUnits="userSpaceOnUse"><stop
         stop-color="white"
         id="stop819" /><stop
         offset="1"
         stop-color="white"
         stop-opacity="0"
         id="stop821" /></linearGradient><linearGradient
       id="paint16_linear_725_16484"
       x1="104.431"
       y1="165.257"
       x2="105.139"
       y2="168.482"
       gradientUnits="userSpaceOnUse"><stop
         stop-color="white"
         id="stop824" /><stop
         offset="1"
         stop-color="white"
         stop-opacity="0"
         id="stop826" /></linearGradient><radialGradient
       id="paint17_radial_725_16484"
       cx="0"
       cy="0"
       r="1"
       gradientUnits="userSpaceOnUse"
       gradientTransform="translate(104.143 171.828) rotate(-15.4823) scale(6.07718 2.27319)"><stop
         stop-color="white"
         id="stop829" /><stop
         offset="1"
         stop-color="white"
         stop-opacity="0"
         id="stop831" /></radialGradient><radialGradient
       id="paint18_radial_725_16484"
       cx="0"
       cy="0"
       r="1"
       gradientUnits="userSpaceOnUse"
       gradientTransform="translate(132.846 97.7159) scale(84.0862 82.7339)"><stop
         stop-color="white"
         id="stop834" /><stop
         offset="1"
         stop-color="white"
         stop-opacity="0"
         id="stop836" /></radialGradient><linearGradient
       id="paint19_linear_725_16484"
       x1="108.267"
       y1="161.906"
       x2="133.508"
       y2="168.582"
       gradientUnits="userSpaceOnUse"><stop
         stop-color="white"
         id="stop839" /><stop
         offset="1"
         stop-color="white"
         stop-opacity="0"
         id="stop841" /></linearGradient><linearGradient
       id="paint20_linear_725_16484"
       x1="121.648"
       y1="146.568"
       x2="118.815"
       y2="153.063"
       gradientUnits="userSpaceOnUse"><stop
         stop-color="#EEEEEC"
         id="stop844" /><stop
         offset="1"
         stop-color="#EEEEEC"
         stop-opacity="0"
         id="stop846" /></linearGradient><radialGradient
       id="paint21_radial_725_16484"
       cx="0"
       cy="0"
       r="1"
       gradientUnits="userSpaceOnUse"
       gradientTransform="translate(145.575 164.684) scale(13.2143 16.788)"><stop
         stop-color="white"
         id="stop849" /><stop
         offset="1"
         stop-color="white"
         stop-opacity="0"
         id="stop851" /></radialGradient><linearGradient
       id="paint22_linear_725_16484"
       x1="98.9112"
       y1="148.784"
       x2="102.882"
       y2="151.94"
       gradientUnits="userSpaceOnUse"><stop
         stop-color="white"
         id="stop854" /><stop
         offset="1"
         stop-color="white"
         stop-opacity="0"
         id="stop856" /></linearGradient><linearGradient
       id="paint23_linear_725_16484"
       x1="145.396"
       y1="165.968"
       x2="133.603"
       y2="134.205"
       gradientUnits="userSpaceOnUse"><stop
         stop-color="#729FCF"
         id="stop859" /><stop
         offset="1"
         stop-color="#729FCF"
         stop-opacity="0"
         id="stop861" /></linearGradient></defs><style
     type="text/css"
     id="style1028">
	.st0{fill:#6D6875;}
	.st1{fill:#7D7983;}
	.st2{fill:#44404B;}
	.st3{fill:#F07B96;}
	.st4{fill:#E4E87C;}
	.st5{fill:#775DA6;}
	.st6{fill:#D5C2E2;}
	.st7{fill:#FAFAE8;}
	.st8{fill:#FAC8D0;}
	.st9{fill:#D8D4DC;}
</style><g
     id="g1069"
     transform="matrix(0.34785437,0,0,0.34785437,72.812936,76.412546)"><path
       class="st0"
       d="m 158.6,142.9 c 50.4,0.4 100.2,4.4 150,12 5.8,0.9 9.7,6.6 8.5,12.1 -15.5,71.3 -72,175.6 -158.4,175.6 C 72.3,342.6 15.8,238.4 0.2,167 -1,161.4 2.9,155.8 8.6,154.9 c 49.9,-7.7 99.7,-11.7 150,-12 z"
       id="path1030" /><path
       class="st1"
       d="m 317,167 c -0.5,2.5 -1.1,5 -1.8,7.6 C 303.7,185.8 238,194.4 158.6,194.4 79.2,194.4 13.5,185.8 2,174.6 1.3,172 0.8,169.5 0.2,167 -1,161.4 2.9,155.8 8.6,154.9 c 49.8,-7.6 99.6,-11.6 150,-12 50.4,0.4 100.2,4.4 150,12 5.8,0.9 9.7,6.5 8.4,12.1 z"
       id="path1032" /><ellipse
       class="st2"
       cx="158.60001"
       cy="165.89999"
       rx="148.39999"
       ry="21.5"
       id="ellipse1034" /><g
       id="g1048">
	<circle
   class="st3"
   cx="157.7"
   cy="76.5"
   r="76.5"
   id="circle1036" />
	<path
   class="st4"
   d="m 173.7,147.8 c 0,1.2 0,2.3 -0.1,3.5 -0.6,13.1 -4.5,25.4 -10.9,36 -1.4,0 -2.7,0 -4.1,0 -1.5,0 -3.1,0 -4.6,0 -56.1,-0.2 -104.4,-5 -128.1,-11.8 -3.3,-8.6 -5.2,-17.9 -5.2,-27.7 0,-36.8 26,-67.5 60.6,-74.8 5.1,-1.1 10.5,-1.7 15.9,-1.7 25.3,0 47.8,12.3 61.8,31.3 2.3,3.1 4.4,6.5 6.2,10 2,3.9 3.7,7.9 5,12.1 2.3,7.3 3.5,15.1 3.5,23.1 z"
   id="path1038" />
	<path
   class="st5"
   d="m 296.5,148.7 c 0,9.4 -1.7,18.3 -4.8,26.6 -23.7,6.9 -72.4,11.8 -129,12 -1.4,0 -2.7,0 -4.1,0 -1.5,0 -3.1,0 -4.6,0 -6.2,-10.5 -9.9,-22.7 -10.4,-35.7 0,-1 -0.1,-2 -0.1,-2.9 0,-17.3 5.7,-33.3 15.4,-46.1 14,-18.5 36.1,-30.4 61.1,-30.4 4.8,0 9.5,0.5 14.1,1.3 35.6,6.6 62.4,37.8 62.4,75.2 z"
   id="path1040" />
	<path
   class="st6"
   d="m 155.2,140.7 c -0.6,-10.2 3.8,-17.8 8.3,-25.3 6.4,-10.7 13.3,-21.1 24,-28.1 3.3,-2.2 6.8,-4 11.1,-3.3 2.6,0.4 5.5,0.1 6.4,3.3 1,3.6 0.3,7.2 -2.5,9.6 -6.9,5.9 -14.1,11.4 -21,17.2 -8.4,7 -16.2,14.5 -20.1,25.2 -0.2,0.6 -0.5,1.1 -0.8,1.7 -1.1,2 -2.1,5.2 -4.4,4.7 -2.4,-0.7 -0.4,-4 -1,-5 z"
   id="path1042" />
	<path
   class="st7"
   d="m 31.7,131.6 c 1.2,-7.3 3.5,-14.2 8.9,-20.1 5.3,-5.8 9.7,-12.3 15.7,-17.5 6.3,-5.4 12.6,-11 21.3,-12.4 4.2,-0.7 7.5,0.3 9.3,4.5 1.5,3.6 -0.2,5.5 -2.7,8.2 -5.3,5.5 -12.3,8.1 -18.4,12 -11.3,7.2 -21.6,15.2 -28.3,27.1 -1,1.8 -1.8,4.8 -4.4,3.9 -2.4,-0.7 -0.8,-3.6 -1.4,-5.7 z"
   id="path1044" />
	<path
   class="st8"
   d="m 92.8,60.6 c 1.4,-7.9 5.4,-15.2 10.5,-21.8 7.2,-9.4 15.1,-18.2 25.5,-24.5 4.5,-2.7 9.1,-3.5 14.1,-3.4 2.8,0 4.5,2.1 5.4,4.4 1.1,2.6 0.1,5.2 -1.7,7.3 -3.8,4.4 -9.1,6.9 -14,9.6 -14.1,7.7 -27,16.5 -35.1,30.9 -0.7,1.3 -1.9,3.2 -3.4,2.6 -2,-0.6 -0.7,-2.9 -1.3,-5.1 z"
   id="path1046" />
</g><path
       class="st9"
       d="m 28.3,194.3 c 6,1.1 10.9,2.9 15.7,2.7 8.8,-0.3 11.1,4.4 12.8,11.9 3.8,16.2 9.1,32 15.3,47.5 5.4,13.4 12,26.2 18.1,39.2 0.7,1.5 2.2,2.7 0.2,4.2 -1.9,1.5 -3.6,0.4 -4.8,-0.9 -4.8,-5 -9.8,-9.9 -14.1,-15.4 C 62.1,271.4 54,258.6 47,245 39.2,229.7 32.4,214 28.2,197.3 c -0.1,-1.1 -1.2,-2.7 0.1,-3 z"
       id="path1050" /></g></svg>
