<svg width="256" height="256" viewBox="0 0 256 256" fill="none" xmlns="http://www.w3.org/2000/svg">
<path fill-rule="evenodd" clip-rule="evenodd" d="M104.425 42.3784C100.056 37.0733 93.5437 34 86.6712 34H29C22.3726 34 17 39.3726 17 46V58.1371V68.2V160C17 166.627 22.3726 172 29 172H229C235.627 172 241 166.627 241 160V70.1371C241 63.5097 235.627 58.1371 229 58.1371H117.404L104.425 42.3784Z" fill="url(#paint0_linear_989_23974)"/>
<mask id="mask0_989_23974" style="mask-type:alpha" maskUnits="userSpaceOnUse" x="17" y="34" width="224" height="138">
<path fill-rule="evenodd" clip-rule="evenodd" d="M104.425 42.3784C100.056 37.0733 93.5437 34 86.6712 34H29C22.3726 34 17 39.3726 17 46V58.1371V68.2V160C17 166.627 22.3726 172 29 172H229C235.627 172 241 166.627 241 160V70.1371C241 63.5097 235.627 58.1371 229 58.1371H117.404L104.425 42.3784Z" fill="url(#paint1_linear_989_23974)"/>
</mask>
<g mask="url(#mask0_989_23974)">
<g style="mix-blend-mode:multiply" filter="url(#filter0_f_989_23974)">
<path fill-rule="evenodd" clip-rule="evenodd" d="M92.789 74C97.7642 74 102.605 72.3868 106.586 69.4024L116.459 62H229C235.627 62 241 67.3726 241 74V108V160C241 166.627 235.627 172 229 172H29C22.3726 172 17 166.627 17 160L17 108V86C17 79.3726 22.3726 74 29 74H87H92.789Z" fill="black" fill-opacity="0.3"/>
</g>
</g>
<g filter="url(#filter1_ii_989_23974)">
<path fill-rule="evenodd" clip-rule="evenodd" d="M92.789 74C97.7642 74 102.605 72.3868 106.586 69.4024L116.459 62H229C235.627 62 241 67.3726 241 74V108V198C241 204.627 235.627 210 229 210H29C22.3726 210 17 204.627 17 198L17 108V86C17 79.3726 22.3726 74 29 74H87H92.789Z" fill="url(#paint2_linear_989_23974)"/>
</g>
<path d="M47.0089 160L68.4247 159.978C77.1866 159.978 84.2873 152.899 84.2873 144.177C84.2873 135.437 77.1866 128.358 68.4247 128.358L62.8629 128.388C62.4246 128.388 62.0692 128.029 62.0692 127.586C62.0692 127.144 62.4246 126.784 62.8629 126.784L84.2398 126.789L84.2484 120.082H62.8583C58.7228 120.082 55.3582 123.442 55.3582 127.569C55.3582 131.701 58.7223 135.047 62.8583 135.047L68.4464 135.121C73.4665 135.121 77.5289 139.169 77.5289 144.164C77.5289 149.163 73.4671 153.22 68.4464 153.22H47.0175L47.0089 160Z" fill="white"/>
<path d="M47.0171 151.646H68.4461C72.5947 151.646 75.9502 148.3 75.9502 144.164C75.9502 140.033 72.5947 136.69 68.4461 136.69L62.858 136.63C57.8465 136.63 53.7801 132.576 53.7801 127.569C53.7801 122.575 57.8465 118.521 62.858 118.521L84.2481 118.517L84.2395 111.785H62.8626C54.1098 111.785 47 118.856 47 127.587C47 136.318 54.1098 143.393 62.8626 143.393L68.3941 143.401C68.8147 143.401 69.1701 143.744 69.1701 144.177C69.1701 144.602 68.8147 144.945 68.3941 144.945L47.0086 144.962L47.0171 151.646Z" fill="white"/>
<path d="M100.891 153.264C97.1752 153.264 94.1317 150.302 94.1317 146.522V125.128C94.1317 121.491 97.1752 118.5 100.891 118.5L123.75 118.504V111.785H100.891C93.4517 111.785 87.4259 117.789 87.4259 125.202V146.522C87.4259 153.936 93.4517 159.949 100.891 159.949L123.655 159.958L123.65 153.256L100.891 153.264Z" fill="white"/>
<path d="M95.7705 125.202C95.7705 122.367 98.0511 120.069 100.891 120.069H123.75V126.797H104.055C102.478 126.797 102.456 128.363 102.456 128.363H118.886V135.06H95.7625L95.7705 125.202Z" fill="white"/>
<path d="M100.891 151.634C98.0597 151.634 95.762 149.349 95.762 146.522V136.655H118.886V143.367H102.455C102.477 144.944 104.055 144.952 104.055 144.952H123.654L123.649 151.624L100.891 151.634Z" fill="white"/>
<path d="M139.769 153.246C136.067 153.246 133.041 150.229 133.041 146.522V125.201C133.041 121.49 136.045 118.499 139.751 118.499H161.892V111.785H139.7C132.264 111.785 126.238 117.789 126.238 125.202V146.522C126.238 153.936 132.316 159.949 139.751 159.949L161.892 159.958V128.363H142.864V135.06H155.168V153.246H139.769Z" fill="white"/>
<path d="M134.619 146.521C134.619 149.362 136.916 151.672 139.751 151.672H153.581V136.646H142.881V143.366H146.852L146.865 144.944H142.911C142.049 144.944 141.342 144.229 141.342 143.366L141.307 128.358C141.307 128.358 141.302 126.797 142.894 126.758H161.899L161.891 120.064L139.75 120.069C136.915 120.069 134.618 122.367 134.618 125.202V146.521" fill="white"/>
<path d="M182.696 119.969C182.995 119.116 183.806 118.5 184.764 118.5C185.723 118.5 186.542 119.116 186.832 119.969L197.579 151.72H181.842L181.859 144.251H187.118L184.751 137.215L177.039 159.952H169.105L182.696 119.969Z" fill="white"/>
<path d="M199.746 153.246H181.868V159.952H209.075L194.925 118.088C193.685 114.004 189.598 111 184.759 111C179.913 111 175.838 113.991 174.588 118.071L160.309 159.953H167.432L181.296 119.241C181.859 117.893 183.186 116.944 184.747 116.944C186.299 116.944 187.634 117.893 188.202 119.233L199.746 153.246Z" fill="white"/>
<defs>
<filter id="filter0_f_989_23974" x="-20" y="25" width="298" height="184" filterUnits="userSpaceOnUse" color-interpolation-filters="sRGB">
<feFlood flood-opacity="0" result="BackgroundImageFix"/>
<feBlend mode="normal" in="SourceGraphic" in2="BackgroundImageFix" result="shape"/>
<feGaussianBlur stdDeviation="18.5" result="effect1_foregroundBlur_989_23974"/>
</filter>
<filter id="filter1_ii_989_23974" x="17" y="62" width="224" height="148" filterUnits="userSpaceOnUse" color-interpolation-filters="sRGB">
<feFlood flood-opacity="0" result="BackgroundImageFix"/>
<feBlend mode="normal" in="SourceGraphic" in2="BackgroundImageFix" result="shape"/>
<feColorMatrix in="SourceAlpha" type="matrix" values="0 0 0 0 0 0 0 0 0 0 0 0 0 0 0 0 0 0 127 0" result="hardAlpha"/>
<feOffset dy="4"/>
<feComposite in2="hardAlpha" operator="arithmetic" k2="-1" k3="1"/>
<feColorMatrix type="matrix" values="0 0 0 0 1 0 0 0 0 1 0 0 0 0 1 0 0 0 0.25 0"/>
<feBlend mode="normal" in2="shape" result="effect1_innerShadow_989_23974"/>
<feColorMatrix in="SourceAlpha" type="matrix" values="0 0 0 0 0 0 0 0 0 0 0 0 0 0 0 0 0 0 127 0" result="hardAlpha"/>
<feOffset dy="-4"/>
<feComposite in2="hardAlpha" operator="arithmetic" k2="-1" k3="1"/>
<feColorMatrix type="matrix" values="0 0 0 0 0 0 0 0 0 0 0 0 0 0 0 0 0 0 0.9 0"/>
<feBlend mode="soft-light" in2="effect1_innerShadow_989_23974" result="effect2_innerShadow_989_23974"/>
</filter>
<linearGradient id="paint0_linear_989_23974" x1="129" y1="34" x2="129" y2="172" gradientUnits="userSpaceOnUse">
<stop stop-color="#023D7B"/>
</linearGradient>
<linearGradient id="paint1_linear_989_23974" x1="17" y1="34" x2="197.768" y2="215.142" gradientUnits="userSpaceOnUse">
<stop stop-color="#05815D"/>
<stop offset="1" stop-color="#0C575F"/>
</linearGradient>
<linearGradient id="paint2_linear_989_23974" x1="17" y1="62" x2="241" y2="210" gradientUnits="userSpaceOnUse">
<stop stop-color="#0259A5"/>
<stop offset="0.9999" stop-color="#023C79"/>
</linearGradient>
</defs>
</svg>
