<svg width="256" height="256" viewBox="0 0 256 256" fill="none" xmlns="http://www.w3.org/2000/svg">
<path fill-rule="evenodd" clip-rule="evenodd" d="M104.425 42.3784C100.056 37.0733 93.5437 34 86.6712 34H29C22.3726 34 17 39.3726 17 46V58.1371V68.2V160C17 166.627 22.3726 172 29 172H229C235.627 172 241 166.627 241 160V70.1371C241 63.5097 235.627 58.1371 229 58.1371H117.404L104.425 42.3784Z" fill="#E54725"/>
<mask id="mask0_522_13079" style="mask-type:alpha" maskUnits="userSpaceOnUse" x="17" y="34" width="224" height="138">
<path fill-rule="evenodd" clip-rule="evenodd" d="M104.425 42.3784C100.056 37.0733 93.5437 34 86.6712 34H29C22.3726 34 17 39.3726 17 46V58.1371V68.2V160C17 166.627 22.3726 172 29 172H229C235.627 172 241 166.627 241 160V70.1371C241 63.5097 235.627 58.1371 229 58.1371H117.404L104.425 42.3784Z" fill="url(#paint0_linear_522_13079)"/>
</mask>
<g mask="url(#mask0_522_13079)">
<g style="mix-blend-mode:multiply" filter="url(#filter0_f_522_13079)">
<path fill-rule="evenodd" clip-rule="evenodd" d="M92.789 74C97.7642 74 102.605 72.3868 106.586 69.4024L116.459 62H229C235.627 62 241 67.3726 241 74V108V160C241 166.627 235.627 172 229 172H29C22.3726 172 17 166.627 17 160L17 108V86C17 79.3726 22.3726 74 29 74H87H92.789Z" fill="black" fill-opacity="0.3"/>
</g>
</g>
<g filter="url(#filter1_ii_522_13079)">
<path fill-rule="evenodd" clip-rule="evenodd" d="M92.789 74C97.7642 74 102.605 72.3868 106.586 69.4024L116.459 62H229C235.627 62 241 67.3726 241 74V108V198C241 204.627 235.627 210 229 210H29C22.3726 210 17 204.627 17 198L17 108V86C17 79.3726 22.3726 74 29 74H87H92.789Z" fill="url(#paint1_linear_522_13079)"/>
</g>
<path d="M49.8347 143.078C49.4966 143.078 49.2284 143.339 49.1846 143.712L48 152.711L49.1846 161.554C49.2284 161.927 49.4965 162.187 49.8347 162.187C50.1621 162.187 50.4287 161.929 50.4809 161.558L51.8851 152.711L50.4809 143.71C50.4304 143.339 50.1604 143.078 49.8347 143.078ZM56.4968 138.162C56.441 137.775 56.164 137.508 55.8226 137.508C55.4793 137.508 55.1953 137.784 55.1483 138.162C55.1483 138.165 53.5559 152.711 53.5559 152.711L55.1483 166.938C55.1937 167.319 55.4777 167.595 55.8226 167.595C56.1622 167.595 56.4394 167.326 56.495 166.941L58.3068 152.711L56.4968 138.162ZM81.5917 124.741C80.9384 124.741 80.3982 125.276 80.3669 125.956L79.0986 152.723L80.3669 170.021C80.4 170.697 80.9384 171.23 81.5917 171.23C82.2416 171.23 82.7799 170.695 82.8182 170.018V170.023L84.252 152.723L82.8182 125.956C82.7798 125.276 82.2414 124.741 81.5917 124.741ZM68.6034 134.045C68.1017 134.045 67.6923 134.445 67.652 134.98L66.2235 152.716L67.652 169.875C67.6904 170.406 68.1016 170.807 68.6034 170.807C69.0999 170.807 69.5093 170.406 69.553 169.875L71.1767 152.716L69.553 134.977C69.5093 134.445 69.0999 134.045 68.6034 134.045ZM94.7908 171.229C95.6009 171.229 96.2594 170.575 96.2925 169.739L97.5366 152.732L96.2943 117.095C96.2612 116.258 95.6025 115.605 94.7926 115.605C93.9754 115.605 93.3152 116.26 93.2889 117.096L92.1861 152.73L93.2889 169.744C93.3151 170.574 93.9753 171.229 94.7908 171.229ZM121.812 171.309C122.928 171.309 123.848 170.391 123.868 169.262L124.736 152.742L123.868 111.584C123.849 110.457 122.927 109.537 121.812 109.537C120.696 109.537 119.774 110.455 119.756 111.586L118.981 152.728C118.981 152.754 119.756 169.272 119.756 169.272C119.774 170.391 120.697 171.309 121.812 171.309ZM108.199 171.244C109.169 171.244 109.951 170.466 109.978 169.473V169.485L111.033 152.735L109.976 116.84C109.95 115.847 109.167 115.07 108.197 115.07C107.22 115.07 106.437 115.847 106.416 116.84L105.478 152.737L106.418 169.483C106.439 170.466 107.221 171.244 108.199 171.244ZM75.0723 171.088C75.649 171.088 76.116 170.626 76.1595 170.018L77.6892 152.716L76.1595 136.257C76.1178 135.649 75.6509 135.191 75.0723 135.191C74.4871 135.191 74.0201 135.653 73.9835 136.264L72.6367 152.716L73.9835 170.016C74.0219 170.626 74.4869 171.088 75.0723 171.088ZM62.187 170.14C62.6085 170.14 62.95 169.807 62.9987 169.347L64.7165 152.712L63.0004 135.451C62.9498 134.989 62.6083 134.656 62.1868 134.656C61.7599 134.656 61.4184 134.991 61.3749 135.451L59.8627 152.712L61.3749 169.344C61.4168 169.805 61.7583 170.14 62.187 170.14ZM114.98 116.243C113.926 116.243 113.08 117.081 113.06 118.154L112.203 152.739L113.06 169.38C113.081 170.439 113.924 171.278 114.98 171.278C116.032 171.278 116.872 170.441 116.896 169.368V169.382L117.858 152.74L116.896 118.15C116.872 117.081 116.032 116.243 114.98 116.243ZM88.1668 171.264C88.895 171.264 89.4961 170.669 89.531 169.911L90.869 152.728L89.531 119.838C89.4943 119.079 88.895 118.487 88.1668 118.487C87.4316 118.487 86.8323 119.081 86.8009 119.838L85.6163 152.728L86.8027 169.919C86.8322 170.669 87.4315 171.264 88.1668 171.264ZM103.108 169.642V169.633L104.258 152.733L103.108 115.896C103.08 114.981 102.359 114.264 101.468 114.264C100.573 114.264 99.8517 114.98 99.8275 115.896L98.8065 152.732L99.8291 169.64C99.8535 170.546 100.575 171.262 101.469 171.262C102.361 171.262 103.078 170.546 103.108 169.635V169.642H103.108ZM190.076 131.499C187.346 131.499 184.741 132.051 182.368 133.046C180.783 115.088 165.723 101 147.353 101C142.858 101 138.477 101.885 134.607 103.382C133.104 103.964 132.703 104.563 132.689 105.725V168.967C132.705 170.187 133.651 171.202 134.841 171.323C134.891 171.328 189.719 171.356 190.074 171.356C201.078 171.356 210 162.434 210 151.428C210 140.423 201.08 131.499 190.076 131.499ZM128.616 105.669C127.419 105.669 126.436 106.652 126.419 107.859L125.52 152.747L126.421 169.039C126.436 170.229 127.419 171.21 128.616 171.21C129.809 171.21 130.792 170.229 130.809 169.021V169.04L131.786 152.747L130.809 107.856C130.792 106.652 129.809 105.669 128.616 105.669Z" fill="url(#paint2_linear_522_13079)"/>
<defs>
<filter id="filter0_f_522_13079" x="-20" y="25" width="298" height="184" filterUnits="userSpaceOnUse" color-interpolation-filters="sRGB">
<feFlood flood-opacity="0" result="BackgroundImageFix"/>
<feBlend mode="normal" in="SourceGraphic" in2="BackgroundImageFix" result="shape"/>
<feGaussianBlur stdDeviation="18.5" result="effect1_foregroundBlur_522_13079"/>
</filter>
<filter id="filter1_ii_522_13079" x="17" y="62" width="224" height="148" filterUnits="userSpaceOnUse" color-interpolation-filters="sRGB">
<feFlood flood-opacity="0" result="BackgroundImageFix"/>
<feBlend mode="normal" in="SourceGraphic" in2="BackgroundImageFix" result="shape"/>
<feColorMatrix in="SourceAlpha" type="matrix" values="0 0 0 0 0 0 0 0 0 0 0 0 0 0 0 0 0 0 127 0" result="hardAlpha"/>
<feOffset dy="4"/>
<feComposite in2="hardAlpha" operator="arithmetic" k2="-1" k3="1"/>
<feColorMatrix type="matrix" values="0 0 0 0 1 0 0 0 0 1 0 0 0 0 1 0 0 0 0.25 0"/>
<feBlend mode="normal" in2="shape" result="effect1_innerShadow_522_13079"/>
<feColorMatrix in="SourceAlpha" type="matrix" values="0 0 0 0 0 0 0 0 0 0 0 0 0 0 0 0 0 0 127 0" result="hardAlpha"/>
<feOffset dy="-4"/>
<feComposite in2="hardAlpha" operator="arithmetic" k2="-1" k3="1"/>
<feColorMatrix type="matrix" values="0 0 0 0 0 0 0 0 0 0 0 0 0 0 0 0 0 0 0.9 0"/>
<feBlend mode="soft-light" in2="effect1_innerShadow_522_13079" result="effect2_innerShadow_522_13079"/>
</filter>
<linearGradient id="paint0_linear_522_13079" x1="17" y1="34" x2="197.768" y2="215.142" gradientUnits="userSpaceOnUse">
<stop stop-color="#05815D"/>
<stop offset="1" stop-color="#0C575F"/>
</linearGradient>
<linearGradient id="paint1_linear_522_13079" x1="17" y1="62" x2="241" y2="210" gradientUnits="userSpaceOnUse">
<stop stop-color="#EC7D32"/>
<stop offset="1" stop-color="#E44525"/>
</linearGradient>
<linearGradient id="paint2_linear_522_13079" x1="128.992" y1="100.987" x2="128.992" y2="193.335" gradientUnits="userSpaceOnUse">
<stop stop-color="white"/>
<stop offset="1" stop-color="#F0DCD8"/>
</linearGradient>
</defs>
</svg>
