<svg width="256" height="256" viewBox="0 0 256 256" fill="none" xmlns="http://www.w3.org/2000/svg">
<g clip-path="url(#clip0_2043_38837)">
<path fill-rule="evenodd" clip-rule="evenodd" d="M104.425 42.3784C100.056 37.0733 93.5437 34 86.6712 34H29C22.3726 34 17 39.3726 17 46V58.1371V68.2V160C17 166.627 22.3726 172 29 172H229C235.627 172 241 166.627 241 160V70.1371C241 63.5097 235.627 58.1371 229 58.1371H117.404L104.425 42.3784Z" fill="#E6E6E6"/>
<mask id="mask0_2043_38837" style="mask-type:alpha" maskUnits="userSpaceOnUse" x="17" y="34" width="224" height="138">
<path fill-rule="evenodd" clip-rule="evenodd" d="M104.425 42.3784C100.056 37.0733 93.5437 34 86.6712 34H29C22.3726 34 17 39.3726 17 46V58.1371V68.2V160C17 166.627 22.3726 172 29 172H229C235.627 172 241 166.627 241 160V70.1371C241 63.5097 235.627 58.1371 229 58.1371H117.404L104.425 42.3784Z" fill="url(#paint0_linear_2043_38837)"/>
</mask>
<g mask="url(#mask0_2043_38837)">
<g style="mix-blend-mode:multiply" filter="url(#filter0_f_2043_38837)">
<path fill-rule="evenodd" clip-rule="evenodd" d="M92.789 74C97.7642 74 102.605 72.3868 106.586 69.4024L116.459 62H229C235.627 62 241 67.3726 241 74V108V160C241 166.627 235.627 172 229 172H29C22.3726 172 17 166.627 17 160L17 108V86C17 79.3726 22.3726 74 29 74H87H92.789Z" fill="black" fill-opacity="0.3"/>
</g>
</g>
<g filter="url(#filter1_ii_2043_38837)">
<path fill-rule="evenodd" clip-rule="evenodd" d="M92.789 74C97.7642 74 102.605 72.3868 106.586 69.4024L116.459 62H229C235.627 62 241 67.3726 241 74V108V198C241 204.627 235.627 210 229 210H29C22.3726 210 17 204.627 17 198L17 108V86C17 79.3726 22.3726 74 29 74H87H92.789Z" fill="url(#paint1_linear_2043_38837)"/>
</g>
<path d="M174.828 160.461C160.886 179.038 131.103 172.767 112.008 173.669C112.008 173.669 108.628 173.857 105.223 174.417C105.223 174.417 106.511 173.868 108.153 173.302C121.564 168.664 127.901 167.733 136.05 163.547C151.361 155.703 166.6 138.619 169.701 120.872C163.872 137.941 146.148 152.632 130.008 158.597C118.961 162.674 98.9847 166.641 98.9818 166.642C98.9911 166.657 98.1856 166.224 98.1744 166.215C84.5886 159.605 84.1965 130.18 108.871 120.695C119.69 116.534 130.037 118.819 141.733 116.036C154.206 113.07 168.653 103.72 174.525 91.4967C181.107 111.022 189.015 141.569 174.828 160.461ZM175.071 85.4463C173.411 89.3896 171.385 92.9431 169.05 96.1214C158.772 85.5725 144.425 79 128.568 79C97.3744 79 72 104.377 72 135.565C72 151.914 78.9786 166.659 90.1048 176.995L91.3436 178.092C89.275 176.405 88.9569 173.368 90.6335 171.297C92.3203 169.226 95.3611 168.905 97.4307 170.582C99.5058 172.263 99.822 175.309 98.1418 177.383C96.4678 179.458 93.4216 179.772 91.3492 178.097L92.1922 178.844C102.034 187.13 114.721 192.136 128.568 192.136C158.383 192.136 182.866 168.933 184.962 139.647C186.514 125.308 182.279 107.1 175.071 85.4463Z" fill="#5FB832"/>
</g>
<defs>
<filter id="filter0_f_2043_38837" x="-20" y="25" width="298" height="184" filterUnits="userSpaceOnUse" color-interpolation-filters="sRGB">
<feFlood flood-opacity="0" result="BackgroundImageFix"/>
<feBlend mode="normal" in="SourceGraphic" in2="BackgroundImageFix" result="shape"/>
<feGaussianBlur stdDeviation="18.5" result="effect1_foregroundBlur_2043_38837"/>
</filter>
<filter id="filter1_ii_2043_38837" x="17" y="62" width="224" height="148" filterUnits="userSpaceOnUse" color-interpolation-filters="sRGB">
<feFlood flood-opacity="0" result="BackgroundImageFix"/>
<feBlend mode="normal" in="SourceGraphic" in2="BackgroundImageFix" result="shape"/>
<feColorMatrix in="SourceAlpha" type="matrix" values="0 0 0 0 0 0 0 0 0 0 0 0 0 0 0 0 0 0 127 0" result="hardAlpha"/>
<feOffset dy="-4"/>
<feComposite in2="hardAlpha" operator="arithmetic" k2="-1" k3="1"/>
<feColorMatrix type="matrix" values="0 0 0 0 0 0 0 0 0 0 0 0 0 0 0 0 0 0 0.25 0"/>
<feBlend mode="normal" in2="shape" result="effect1_innerShadow_2043_38837"/>
<feColorMatrix in="SourceAlpha" type="matrix" values="0 0 0 0 0 0 0 0 0 0 0 0 0 0 0 0 0 0 127 0" result="hardAlpha"/>
<feOffset dy="4"/>
<feComposite in2="hardAlpha" operator="arithmetic" k2="-1" k3="1"/>
<feColorMatrix type="matrix" values="0 0 0 0 1 0 0 0 0 1 0 0 0 0 1 0 0 0 0.25 0"/>
<feBlend mode="normal" in2="effect1_innerShadow_2043_38837" result="effect2_innerShadow_2043_38837"/>
</filter>
<linearGradient id="paint0_linear_2043_38837" x1="17" y1="34" x2="197.768" y2="215.142" gradientUnits="userSpaceOnUse">
<stop stop-color="#05815D"/>
<stop offset="1" stop-color="#0C575F"/>
</linearGradient>
<linearGradient id="paint1_linear_2043_38837" x1="17" y1="62" x2="241" y2="210" gradientUnits="userSpaceOnUse">
<stop stop-color="#5F585E"/>
<stop offset="1" stop-color="#010101"/>
</linearGradient>
<clipPath id="clip0_2043_38837">
<rect width="256" height="256" fill="white"/>
</clipPath>
</defs>
</svg>
