<svg width="256" height="256" viewBox="0 0 256 256" fill="none" xmlns="http://www.w3.org/2000/svg">
<path d="M104.425 42.3784C100.056 37.0733 93.5437 34 86.6712 34H29C22.3726 34 17 39.3726 17 46V107C17 113.627 22.3726 119 29 119H217C223.627 119 229 113.627 229 107V70.1371C229 63.5097 223.627 58.1371 217 58.1371H117.404L104.425 42.3784Z" fill="#006011"/>
<mask id="mask0_897_20669" style="mask-type:alpha" maskUnits="userSpaceOnUse" x="17" y="34" width="212" height="92">
<path fill-rule="evenodd" clip-rule="evenodd" d="M104.425 42.3784C100.056 37.0733 93.5437 34 86.6712 34H29C22.3726 34 17 39.3726 17 46V58V68.2V114C17 120.627 22.3726 126 29 126H217C223.627 126 229 120.627 229 114V70C229 63.3726 223.627 58 217 58H117.291L104.425 42.3784Z" fill="url(#paint0_linear_897_20669)"/>
</mask>
<g mask="url(#mask0_897_20669)">
<g style="mix-blend-mode:multiply" filter="url(#filter0_f_897_20669)">
<path fill-rule="evenodd" clip-rule="evenodd" d="M92.789 74C97.7642 74 102.605 72.3868 106.586 69.4024L116.459 62H229C235.627 62 241 67.3726 241 74V108V160C241 166.627 235.627 172 229 172H29C22.3726 172 17 166.627 17 160L17 108V86C17 79.3726 22.3726 74 29 74H87H92.789Z" fill="black" fill-opacity="0.3"/>
</g>
</g>
<path d="M229 77V161.5H234.5V77H229Z" fill="#E2AF28"/>
<path d="M229 178.5V194.5H234.5V178.5H229Z" fill="#E2AF28"/>
<path d="M234.5 161.5V77H239.5V161.5H234.5Z" fill="#F2C036"/>
<path d="M234.5 178.5V194.5H239.5V178.5H234.5Z" fill="#F2C036"/>
<path d="M244 161.5C247.314 161.5 250 158.814 250 155.5V83C250 79.6863 247.314 77 244 77H239.5V161.5H244Z" fill="#FFD257"/>
<path d="M244 194.5C247.314 194.5 250 191.814 250 188.5V184.5C250 181.186 247.314 178.5 244 178.5H239.5V194.5H244Z" fill="#FFD257"/>
<g filter="url(#filter1_ii_897_20669)">
<path d="M92.789 74C97.7642 74 102.605 72.3868 106.586 69.4024L116.459 62H217C223.627 62 229 67.3726 229 74V161.5H215V161.515C210.538 161.773 207 165.474 207 170C207 174.526 210.538 178.227 215 178.485V178.5H229V198C229 204.627 223.627 210 217 210H29C22.3726 210 17 204.627 17 198V158C25.8366 158 33 150.837 33 142C33 133.163 25.8366 126 17 126L17 86C17 79.3726 22.3726 74 29 74H92.789Z" fill="url(#paint1_linear_897_20669)"/>
</g>
<path d="M92.789 78C97.7642 78 102.605 76.3868 106.586 73.4024L116.459 66H217C223.627 66 229 71.3726 229 78V161.5H215V161.515C210.538 161.773 207 165.474 207 170C207 174.526 210.538 178.227 215 178.485V178.5H229V194C229 200.627 223.627 206 217 206H29C22.3726 206 17 200.627 17 194V158C25.8366 158 33 150.837 33 142C33 133.163 25.8366 126 17 126L17 90C17 83.3726 22.3726 78 29 78H92.789Z" fill="url(#paint2_linear_897_20669)"/>
<rect x="43" y="95" width="64" height="84" rx="5" fill="url(#paint3_linear_897_20669)"/>
<rect x="112" y="93" width="64" height="84" rx="5" fill="url(#paint4_linear_897_20669)"/>
<rect x="180" y="95" width="42" height="42" rx="5" fill="url(#paint5_linear_897_20669)"/>
<path d="M17 163C29.0457 163 38 154.046 38 142C38 129.954 29.0457 121 17 121V126C25.8366 126 33 133.163 33 142C33 150.837 25.8366 158 17 158V163Z" fill="#E2AF28"/>
<defs>
<filter id="filter0_f_897_20669" x="-20" y="25" width="298" height="184" filterUnits="userSpaceOnUse" color-interpolation-filters="sRGB">
<feFlood flood-opacity="0" result="BackgroundImageFix"/>
<feBlend mode="normal" in="SourceGraphic" in2="BackgroundImageFix" result="shape"/>
<feGaussianBlur stdDeviation="18.5" result="effect1_foregroundBlur_897_20669"/>
</filter>
<filter id="filter1_ii_897_20669" x="17" y="62" width="212" height="148" filterUnits="userSpaceOnUse" color-interpolation-filters="sRGB">
<feFlood flood-opacity="0" result="BackgroundImageFix"/>
<feBlend mode="normal" in="SourceGraphic" in2="BackgroundImageFix" result="shape"/>
<feColorMatrix in="SourceAlpha" type="matrix" values="0 0 0 0 0 0 0 0 0 0 0 0 0 0 0 0 0 0 127 0" result="hardAlpha"/>
<feOffset dy="4"/>
<feComposite in2="hardAlpha" operator="arithmetic" k2="-1" k3="1"/>
<feColorMatrix type="matrix" values="0 0 0 0 1 0 0 0 0 1 0 0 0 0 1 0 0 0 0.25 0"/>
<feBlend mode="normal" in2="shape" result="effect1_innerShadow_897_20669"/>
<feColorMatrix in="SourceAlpha" type="matrix" values="0 0 0 0 0 0 0 0 0 0 0 0 0 0 0 0 0 0 127 0" result="hardAlpha"/>
<feOffset dy="-4"/>
<feComposite in2="hardAlpha" operator="arithmetic" k2="-1" k3="1"/>
<feColorMatrix type="matrix" values="0 0 0 0 0 0 0 0 0 0 0 0 0 0 0 0 0 0 0.9 0"/>
<feBlend mode="soft-light" in2="effect1_innerShadow_897_20669" result="effect2_innerShadow_897_20669"/>
</filter>
<linearGradient id="paint0_linear_897_20669" x1="17" y1="34" x2="197.768" y2="215.142" gradientUnits="userSpaceOnUse">
<stop stop-color="#05815D"/>
<stop offset="1" stop-color="#0C575F"/>
</linearGradient>
<linearGradient id="paint1_linear_897_20669" x1="17" y1="67" x2="229" y2="216" gradientUnits="userSpaceOnUse">
<stop stop-color="#21AD64"/>
<stop offset="1" stop-color="#088242"/>
</linearGradient>
<linearGradient id="paint2_linear_897_20669" x1="17" y1="67" x2="229" y2="216" gradientUnits="userSpaceOnUse">
<stop stop-color="#21AD64"/>
<stop offset="1" stop-color="#088242"/>
</linearGradient>
<linearGradient id="paint3_linear_897_20669" x1="43" y1="95" x2="129.789" y2="155.212" gradientUnits="userSpaceOnUse">
<stop stop-color="#464646"/>
<stop offset="1" stop-color="#343434"/>
</linearGradient>
<linearGradient id="paint4_linear_897_20669" x1="112" y1="93" x2="198.789" y2="153.212" gradientUnits="userSpaceOnUse">
<stop stop-color="#464646"/>
<stop offset="1" stop-color="#343434"/>
</linearGradient>
<linearGradient id="paint5_linear_897_20669" x1="180" y1="95" x2="226.125" y2="137" gradientUnits="userSpaceOnUse">
<stop stop-color="#464646"/>
<stop offset="1" stop-color="#343434"/>
</linearGradient>
</defs>
</svg>
