<svg width="256" height="256" viewBox="0 0 256 256" fill="none" xmlns="http://www.w3.org/2000/svg">
<g clip-path="url(#clip0_4402_13382)">
<path d="M104.425 42.3784C100.056 37.0733 93.5437 34 86.6712 34H29C22.3726 34 17 39.3726 17 46V160C17 166.627 22.3726 172 29 172H229C235.627 172 241 166.627 241 160V70.1371C241 63.5097 235.627 58.1371 229 58.1371H117.404L104.425 42.3784Z" fill="url(#paint0_linear_4402_13382)"/>
<mask id="mask0_4402_13382" style="mask-type:alpha" maskUnits="userSpaceOnUse" x="17" y="34" width="224" height="138">
<path d="M86.6709 34C93.5434 34 100.057 37.0729 104.426 42.3779L117.403 58.1367H229C235.627 58.1367 241 63.5095 241 70.1367V160C241 166.627 235.627 172 229 172H29C22.3726 172 17 166.627 17 160V46C17 39.3726 22.3726 34 29 34H86.6709Z" fill="url(#paint1_linear_4402_13382)"/>
</mask>
<g mask="url(#mask0_4402_13382)">
<g filter="url(#filter0_f_4402_13382)" style="mix-blend-mode:multiply">
<path d="M241 160C241 166.627 235.627 172 229 172H29C22.3726 172 17 166.627 17 160V86C17 79.3726 22.3726 74 29 74H92.79C97.7649 73.9999 102.605 72.3865 106.586 69.4023L116.46 62H229C235.627 62 241 67.3726 241 74V160Z" fill="black" fill-opacity="0.3"/>
</g>
</g>
<g filter="url(#filter1_ii_4402_13382)">
<path d="M241 198C241 204.627 235.627 210 229 210H29C22.3726 210 17 204.627 17 198V86C17 79.3726 22.3726 74 29 74H92.79C97.7649 73.9999 102.605 72.3865 106.586 69.4023L116.46 62H229C235.627 62 241 67.3726 241 74V198Z" fill="url(#paint2_linear_4402_13382)"/>
</g>
<g clip-path="url(#clip1_4402_13382)">
<path d="M98.418 178.406H123.259V183.68H98.418V178.406Z" fill="#D0E4FC"/>
<path d="M132.74 178.406H157.582V183.68H132.74V178.406Z" fill="#B4C5F2"/>
<path d="M98.418 102.865H123.259V108.139H98.418V102.865Z" fill="#D0E4FC"/>
<path d="M131.729 102.865H157.766V108.139H131.729V102.865Z" fill="#B4C5F2"/>
<path d="M134.318 140.426H160.883V145.699H134.318V140.426Z" fill="#B4C5F2"/>
<path d="M95.1172 140.426H121.61V145.699H95.1172V140.426Z" fill="#D0E4FC"/>
<path d="M94.6758 172.584L123.291 143.968L127.02 147.697L98.4041 176.312L94.6758 172.584Z" fill="#D0E4FC"/>
<path d="M129.928 137.338L157.577 109.689L161.305 113.417L133.656 141.066L129.928 137.338Z" fill="#B4C5F2"/>
<path d="M128.959 147.699L132.687 143.971L161.303 172.587L157.575 176.315L128.959 147.699Z" fill="#B4C5F2"/>
<path d="M94.6797 113.414L98.408 109.686L126.057 137.335L122.329 141.063L94.6797 113.414Z" fill="#D0E4FC"/>
<path d="M92.7383 137.334L123.258 106.815L126.986 110.543L96.4666 141.062L92.7383 137.334Z" fill="#EBF3FE"/>
<path d="M91.7676 147.697L95.4959 143.969L127.019 175.492L123.291 179.22L91.7676 147.697Z" fill="#EBF3FE"/>
<path d="M128.957 175.926L160.911 143.972L164.639 147.7L132.685 179.654L128.957 175.926Z" fill="#D0E4FC"/>
<path d="M129.43 110.547L133.158 106.819L163.677 137.338L159.949 141.066L129.43 110.547Z" fill="#D0E4FC"/>
<path d="M92.0274 169.945C87.0496 169.945 83 173.995 83 178.973C83 183.951 87.0496 188.001 92.0274 188.001C97.0052 188.001 101.055 183.951 101.055 178.973C101.055 173.995 97.0054 169.945 92.0274 169.945Z" fill="#674CC3"/>
<path d="M90.4393 150.377C94.5134 150.377 97.8162 147.074 97.8162 143C97.8162 138.926 94.5134 135.623 90.4393 135.623C86.3652 135.623 83.0625 138.926 83.0625 143C83.0625 147.074 86.3652 150.377 90.4393 150.377Z" fill="#45E6D1"/>
<path d="M165.56 150.377C169.635 150.377 172.937 147.074 172.937 143C172.937 138.926 169.635 135.623 165.56 135.623C161.486 135.623 158.184 138.926 158.184 143C158.184 147.074 161.486 150.377 165.56 150.377Z" fill="#29CCCC"/>
<path d="M163.973 169.945C158.995 169.945 154.945 173.995 154.945 178.973C154.945 183.951 158.995 188.001 163.973 188.001C168.951 188.001 173 183.951 173 178.973C173 173.995 168.951 169.945 163.973 169.945Z" fill="#68339F"/>
<path d="M92.0274 98C87.0496 98 83 102.05 83 107.028C83 112.005 87.0496 116.055 92.0274 116.055C97.0052 116.055 101.055 112.005 101.055 107.028C101.055 102.05 97.0054 98 92.0274 98Z" fill="#674CC3"/>
<path d="M163.973 116.055C168.951 116.055 173 112.005 173 107.028C173 102.05 168.951 98 163.973 98C158.995 98 154.945 102.05 154.945 107.028C154.945 112.005 158.995 116.055 163.973 116.055Z" fill="#68339F"/>
<path d="M120.623 180.623C120.623 184.691 123.932 188 128 188L131.729 180.623L128 173.246C123.932 173.246 120.623 176.555 120.623 180.623Z" fill="#45E6D1"/>
<path d="M120.623 105.502C120.623 109.57 123.932 112.879 128 112.879L131.688 105.502L128 98.125C123.932 98.125 120.623 101.434 120.623 105.502Z" fill="#45E6D1"/>
<path d="M135.377 105.502C135.377 101.434 132.068 98.125 128 98.125V112.879C132.068 112.879 135.377 109.569 135.377 105.502Z" fill="#29CCCC"/>
<path d="M118.973 143C118.973 147.978 123.022 152.028 128 152.028L131.729 143.504L128 133.973C123.022 133.973 118.973 138.022 118.973 143Z" fill="#FFE500"/>
<path d="M128 173.246V188C132.068 188 135.377 184.691 135.377 180.623C135.377 176.555 132.068 173.246 128 173.246Z" fill="#29CCCC"/>
<path d="M137.027 143C137.027 138.022 132.978 133.973 128 133.973V152.028C132.978 152.028 137.027 147.978 137.027 143Z" fill="#FDCA4C"/>
</g>
</g>
<defs>
<filter id="filter0_f_4402_13382" x="-20" y="25" width="298" height="184" filterUnits="userSpaceOnUse" color-interpolation-filters="sRGB">
<feFlood flood-opacity="0" result="BackgroundImageFix"/>
<feBlend mode="normal" in="SourceGraphic" in2="BackgroundImageFix" result="shape"/>
<feGaussianBlur stdDeviation="18.5" result="effect1_foregroundBlur_4402_13382"/>
</filter>
<filter id="filter1_ii_4402_13382" x="17" y="62" width="224" height="148" filterUnits="userSpaceOnUse" color-interpolation-filters="sRGB">
<feFlood flood-opacity="0" result="BackgroundImageFix"/>
<feBlend mode="normal" in="SourceGraphic" in2="BackgroundImageFix" result="shape"/>
<feColorMatrix in="SourceAlpha" type="matrix" values="0 0 0 0 0 0 0 0 0 0 0 0 0 0 0 0 0 0 127 0" result="hardAlpha"/>
<feOffset dy="4"/>
<feComposite in2="hardAlpha" operator="arithmetic" k2="-1" k3="1"/>
<feColorMatrix type="matrix" values="0 0 0 0 1 0 0 0 0 1 0 0 0 0 1 0 0 0 0.25 0"/>
<feBlend mode="normal" in2="shape" result="effect1_innerShadow_4402_13382"/>
<feColorMatrix in="SourceAlpha" type="matrix" values="0 0 0 0 0 0 0 0 0 0 0 0 0 0 0 0 0 0 127 0" result="hardAlpha"/>
<feOffset dy="-4"/>
<feComposite in2="hardAlpha" operator="arithmetic" k2="-1" k3="1"/>
<feColorMatrix type="matrix" values="0 0 0 0 0 0 0 0 0 0 0 0 0 0 0 0 0 0 0.9 0"/>
<feBlend mode="soft-light" in2="effect1_innerShadow_4402_13382" result="effect2_innerShadow_4402_13382"/>
</filter>
<linearGradient id="paint0_linear_4402_13382" x1="17" y1="34" x2="197.768" y2="215.142" gradientUnits="userSpaceOnUse">
<stop stop-color="#0C0915"/>
</linearGradient>
<linearGradient id="paint1_linear_4402_13382" x1="17" y1="34" x2="197.768" y2="215.142" gradientUnits="userSpaceOnUse">
<stop stop-color="#05815D"/>
<stop offset="1" stop-color="#0C575F"/>
</linearGradient>
<linearGradient id="paint2_linear_4402_13382" x1="17" y1="62" x2="241" y2="210" gradientUnits="userSpaceOnUse">
<stop stop-color="#231747"/>
<stop offset="1" stop-color="#05050A"/>
</linearGradient>
<clipPath id="clip0_4402_13382">
<rect width="256" height="256" fill="white"/>
</clipPath>
<clipPath id="clip1_4402_13382">
<rect width="90" height="90" fill="white" transform="translate(83 98)"/>
</clipPath>
</defs>
</svg>
