<svg xmlns="http://www.w3.org/2000/svg" xmlns:xlink="http://www.w3.org/1999/xlink" fill="none" version="1.1" width="256" height="256" viewBox="0 0 256 256"><defs><clipPath id="master_svg0_4_04781"><rect x="0" y="0" width="256" height="256" rx="0"/></clipPath><mask id="master_svg1_4_04787" style="mask-type:alpha" maskUnits="objectBoundingBox"><g><g><path d="M104.425,42.3784C100.056,37.0733,93.5437,34,86.6712,34L29,34C22.3726,34,17,39.3726,17,46L17,58.137100000000004L17,68.2L17,160C17,166.627,22.3726,172,29,172L229,172C235.627,172,241,166.627,241,160L241,70.1371C241,63.509699999999995,235.627,58.137100000000004,229,58.137100000000004L117.404,58.137100000000004L104.425,42.3784Z" fill-rule="evenodd" fill="#0D5091" fill-opacity="1" style="mix-blend-mode:passthrough"/></g></g></mask><filter id="master_svg2_4_04785" filterUnits="objectBoundingBox" color-interpolation-filters="sRGB" x="-0.33035714285714285" y="-0.5362318840579711" width="1.6607142857142858" height="2.072463768115942"><feFlood flood-opacity="0" result="BackgroundImageFix"/><feBlend mode="normal" in="SourceGraphic" in2="BackgroundImageFix" result="shape"/><feGaussianBlur stdDeviation="18.5" result="effect1_foregroundBlur"/></filter><linearGradient x1="-0.03118896484375" y1="0" x2="1.4024671995998657" y2="0.6105594654458093" id="master_svg3_4_04843"><stop offset="0%" stop-color="#0D5091" stop-opacity="1"/><stop offset="100%" stop-color="#083764" stop-opacity="1"/></linearGradient><linearGradient x1="0" y1="0.5" x2="1" y2="0.5" id="master_svg4_4_05409"><stop offset="0%" stop-color="#3D8EDE" stop-opacity="1"/><stop offset="100%" stop-color="#4A9AF0" stop-opacity="1"/></linearGradient><linearGradient x1="0" y1="0.5" x2="1" y2="0.5" id="master_svg5_4_05273"><stop offset="0%" stop-color="#082744" stop-opacity="1"/><stop offset="100%" stop-color="#091C2F" stop-opacity="1"/><stop offset="100%" stop-color="#FFFFFF" stop-opacity="1"/></linearGradient></defs><g clip-path="url(#master_svg0_4_04781)"><g><path d="M104.425,42.3784C100.056,37.0733,93.5437,34,86.6712,34L29,34C22.3726,34,17,39.3726,17,46L17,58.137100000000004L17,68.2L17,160C17,166.627,22.3726,172,29,172L229,172C235.627,172,241,166.627,241,160L241,70.1371C241,63.509699999999995,235.627,58.137100000000004,229,58.137100000000004L117.404,58.137100000000004L104.425,42.3784Z" fill-rule="evenodd" fill="#1867B5" fill-opacity="1" style="mix-blend-mode:passthrough"/></g><g mask="url(#master_svg1_4_04787)"><g><g style="mix-blend-mode:multiply" filter="url(#master_svg2_4_04785)"><g><path d="M92.789,49.054500000000004C97.7642,49.054500000000004,102.605,47.030699999999996,106.586,43.28664L116.459,34L229,34C235.627,34,241,40.74017,241,49.054500000000004L241,91.7091L241,156.945C241,165.259,235.627,172,229,172L29,172C22.3726,172,17,165.259,17,156.945L17,91.7091L17,64.1091C17,55.7947,22.3726,49.054500000000004,29,49.054500000000004L87,49.054500000000004L92.789,49.054500000000004Z" fill-rule="evenodd" fill="#000000" fill-opacity="0.30000001192092896" style="mix-blend-mode:passthrough"/></g></g></g></g><g><g><path d="M92.789,74C97.7642,74,102.605,72.3868,106.586,69.4024L116.459,62L229,62C235.627,62,241,67.3726,241,74L241,108L241,198C241,204.627,235.627,210,229,210L29,210C22.3726,210,17,204.627,17,198L17,108L17,86C17,79.3726,22.3726,74,29,74L87,74L92.789,74Z" fill-rule="evenodd" fill="url(#master_svg3_4_04843)" fill-opacity="1" style="mix-blend-mode:passthrough"/></g><g><path d="M106.59,69.4C102.61,72.38,97.77,74,92.79,74L29,74C22.37,74,17,79.37,17,86L17,90C17,83.37,22.37,78,29,78L92.79,78C97.77,78,102.61,76.39,106.59,73.4L116.46,66L229,66C235.63,66,241,71.37,241,78L241,74C241,67.37,235.63,62,229,62L116.46,62L106.59,69.4Z" fill-rule="evenodd" fill="url(#master_svg4_4_05409)" fill-opacity="1" style="mix-blend-mode:passthrough"/></g></g><g><path d="M17,194L17,198C17,204.63,22.37,210,29,210L229,210C235.63,210,241,204.63,241,198L241,194C241,200.63,235.63,206,229,206L29,206C22.37,206,17,200.63,17,194Z" fill-rule="evenodd" fill="url(#master_svg5_4_05273)" fill-opacity="1" style="mix-blend-mode:passthrough"/></g><g><g><path d="M109.5617,163.728C104.9235,159.9861,101.2302,155.0258,98.997,149.4572C94.0152,155.2869,91.8679,160.33499999999998,93.6716,163.2068C95.47540000000001,166.16469999999998,101.4878,166.16469999999998,109.5617,163.728ZM152.7656,109.7741C157.6615,113.8642,161.3549,119.3466,163.4163,125.5252C169.6005,118.8245,172.52089999999998,112.90690000000001,170.5454,109.7741C168.4839,106.5543,161.6984,106.8154,152.7656,109.7741ZM130.7772,101.76806C136.9614,101.76806,142.8021,103.42148,147.78390000000002,106.3802C167.3673,96.720755,183,93.15284,186.35,98.4612C189.613,103.68255,180.337,115.8657,164.27519999999998,129.1801C164.79059999999998,131.5297,165.04829999999998,134.0534,165.04829999999998,136.577C165.04829999999998,155.722,149.6735,171.299,130.7772,171.299C125.0224,171.299,119.6112,169.81959999999998,114.8012,167.296C95.9049,176.4333,80.87367,179.74020000000002,77.609763,174.5188C74.60352,169.55849999999998,82.93508,158.1586,97.7086,145.6274C96.9356,142.75560000000002,96.5061,139.7099,96.5061,136.577C96.5061,117.3451,111.8808,101.76806,130.7772,101.76806ZM159.55110000000002,103.94362Q138.2498,110.0352,128.3722,117.6061C118.49459999999999,125.0901,120.4701,130.7465,122.3597,134.0534C124.2493,137.3602,131.2066,141.53730000000002,129.4888,148.9342C127.2556,158.6807,112.91149999999999,164.3372,104.7518,168.2532Q130.09,160.4212,136.9614,152.8502C143.74689999999998,145.3663,139.71,138.1443,137.5627,135.2717C135.4154,132.487,131.1207,126.4824,133.6975,121.1741C138.1639,111.8627,150.7901,107.5115,159.55110000000002,103.94362Z" fill="#FFFFFF" fill-opacity="1" style="mix-blend-mode:passthrough"/></g></g></g></svg>