<svg width="256" height="256" viewBox="0 0 256 256" fill="none" xmlns="http://www.w3.org/2000/svg">
<path fill-rule="evenodd" clip-rule="evenodd" d="M104.425 42.3784C100.056 37.0733 93.5437 34 86.6712 34H29C22.3726 34 17 39.3726 17 46V58.1371V68.2V160C17 166.627 22.3726 172 29 172H229C235.627 172 241 166.627 241 160V70.1371C241 63.5097 235.627 58.1371 229 58.1371H117.404L104.425 42.3784Z" fill="black"/>
<mask id="mask0_556_12558" style="mask-type:alpha" maskUnits="userSpaceOnUse" x="17" y="34" width="224" height="138">
<path fill-rule="evenodd" clip-rule="evenodd" d="M104.425 42.3784C100.056 37.0733 93.5437 34 86.6712 34H29C22.3726 34 17 39.3726 17 46V58.1371V68.2V160C17 166.627 22.3726 172 29 172H229C235.627 172 241 166.627 241 160V70.1371C241 63.5097 235.627 58.1371 229 58.1371H117.404L104.425 42.3784Z" fill="url(#paint0_linear_556_12558)"/>
</mask>
<g mask="url(#mask0_556_12558)">
<g style="mix-blend-mode:multiply" filter="url(#filter0_f_556_12558)">
<path fill-rule="evenodd" clip-rule="evenodd" d="M92.789 74C97.7642 74 102.605 72.3868 106.586 69.4024L116.459 62H229C235.627 62 241 67.3726 241 74V108V160C241 166.627 235.627 172 229 172H29C22.3726 172 17 166.627 17 160L17 108V86C17 79.3726 22.3726 74 29 74H87H92.789Z" fill="black" fill-opacity="0.3"/>
</g>
</g>
<g filter="url(#filter1_ii_556_12558)">
<path fill-rule="evenodd" clip-rule="evenodd" d="M92.789 74C97.7642 74 102.605 72.3868 106.586 69.4024L116.459 62H229C235.627 62 241 67.3726 241 74V108V198C241 204.627 235.627 210 229 210H29C22.3726 210 17 204.627 17 198L17 108V86C17 79.3726 22.3726 74 29 74H87H92.789Z" fill="url(#paint1_linear_556_12558)"/>
</g>
<path fill-rule="evenodd" clip-rule="evenodd" d="M102 130.867C102 120.412 102 115.185 104.016 111.192C105.79 107.68 108.62 104.824 112.101 103.035C116.058 101 121.239 101 131.6 101H146.4C156.761 101 161.941 101 165.898 103.035C169.38 104.824 172.209 107.68 173.984 111.192C176 115.185 176 120.412 176 130.867V135.133C176 145.588 176 150.815 173.984 154.808C172.209 158.321 169.38 161.176 165.898 162.966C161.941 165 156.761 165 146.4 165H118.914C112.994 165 110.033 165 107.772 163.838C105.783 162.815 104.166 161.183 103.152 159.176C102 156.895 102 153.907 102 147.933V130.867ZM128.428 133C128.428 130.055 130.795 127.667 133.714 127.667C136.633 127.667 139 130.055 139 133V143.667C139 146.612 136.633 149 133.714 149C130.795 149 128.428 146.612 128.428 143.667V133ZM154.857 127.667C151.938 127.667 149.572 130.055 149.572 133V143.667C149.572 146.612 151.938 149 154.857 149C157.776 149 160.143 146.612 160.143 143.667V133C160.143 130.055 157.776 127.667 154.857 127.667Z" fill="#09161D"/>
<path fill-rule="evenodd" clip-rule="evenodd" d="M119.959 84.7394C120.318 87.7023 118.268 90.4028 115.379 90.7713C113.787 90.9744 112.507 91.2507 111.375 91.6126C102.279 94.5196 95.1566 101.825 92.3223 111.154C91.9694 112.315 91.7 113.627 91.502 115.261C91.1428 118.223 88.5097 120.327 85.621 119.958C82.7322 119.59 80.6816 116.889 81.0408 113.926C81.2988 111.798 81.6807 109.837 82.2579 107.937C86.1229 95.2158 95.8354 85.2543 108.239 81.2901C110.091 80.6981 112.003 80.3065 114.078 80.0419C116.967 79.6734 119.6 81.7766 119.959 84.7394Z" fill="#09161D"/>
<path d="M62.7273 177.463C59.7479 177.463 57.0579 179.314 57.0579 182.091C57.0579 184.694 59.4587 185.562 61.8306 185.909C63.3926 186.141 63.9711 186.256 63.9711 186.835C63.9711 187.355 63.5083 187.616 62.7851 187.616C60.9628 187.616 60.2975 186.951 58.7934 186.951C57.4917 186.951 57 187.905 57 189.12C57 190.422 59.343 191.347 62.2934 191.347C66.1984 191.347 68.2521 189.583 68.2521 186.719C68.2521 184.058 66.2562 183.017 63.1612 182.583C62.1488 182.438 61.3099 182.438 61.3099 181.831C61.3099 181.281 62.0041 181.021 62.8719 181.021C63.8554 181.021 65.0703 181.599 66.0248 181.599C67.2686 181.599 67.7893 180.789 67.7893 179.603C67.7893 178.793 67.2686 178.331 66.6612 178.07C65.5909 177.608 64.376 177.463 62.7273 177.463Z" fill="#09161D"/>
<path d="M70.6875 181.715H71.6709C71.6999 183.074 71.642 184.492 71.642 185.851C71.642 189.669 73.6668 191.232 76.328 191.232C77.8321 191.232 78.4395 191.116 79.1048 190.653C79.6255 190.306 79.8858 189.814 79.8858 188.715C79.8858 187.789 79.2784 186.864 78.237 186.864C77.8032 186.864 77.6875 187.008 77.109 187.008C76.3569 187.008 76.1544 186.141 76.1544 185.446V181.686H78.1503C79.1916 181.686 79.7123 180.76 79.7123 179.69C79.7123 178.36 79.018 177.694 77.8321 177.723H76.1833C76.2123 176.74 76.2412 176.074 76.2412 175.525C76.2412 174.426 75.518 173.731 74.3321 173.731C72.6833 173.731 71.8156 174.599 71.7577 176.219L71.6999 177.752H70.8032C69.7329 177.752 69.0098 178.591 69.0098 179.69C69.0098 180.905 69.4726 181.715 70.6875 181.715Z" fill="#09161D"/>
<path d="M81.9549 179.69V182.293C81.9549 184.26 81.897 186.806 81.897 189.033C81.897 190.74 82.9094 191.203 84.2111 191.203C85.5127 191.203 86.583 190.682 86.6119 189.322C86.6698 188.223 86.5541 186.661 86.5541 185.591C86.5541 182.785 87.6822 181.917 89.2152 181.917H89.5913C90.8351 181.917 91.4136 180.731 91.4136 179.632C91.4136 178.128 90.7194 177.463 89.4177 177.463C88.145 177.463 86.7276 178.331 86.207 179.517L86.0045 178.793C85.7731 177.984 85.1656 177.579 84.2689 177.579C82.8227 177.579 81.9549 178.302 81.9549 179.69Z" fill="#09161D"/>
<path d="M96.9361 185.591C100.494 185.562 102.374 185.504 102.953 185.504C104.891 185.475 105.296 184.694 105.296 182.959C105.296 180.182 102.808 177.463 99.1055 177.463C95.2006 177.463 92.1345 180.471 92.1345 184.723C92.1345 188.397 95.1717 191.318 98.9898 191.318C101.333 191.318 102.634 190.913 103.647 190.306C104.341 189.901 104.717 189.265 104.717 188.57C104.717 187.384 103.878 186.343 102.837 186.343C102.316 186.343 101.853 186.488 101.362 186.748C100.899 187.008 100.089 187.269 99.2791 187.269C98.3245 187.269 97.1386 186.719 96.9361 185.591ZM99.0477 181.136C100.06 181.136 100.841 181.773 100.841 182.612C100.841 182.727 100.668 182.756 100.494 182.756C99.3369 182.785 98.0064 182.843 96.9072 182.843C96.994 181.975 97.8907 181.136 99.0477 181.136Z" fill="#09161D"/>
<path d="M121.339 181.888L121.368 179.661C121.368 178.331 120.645 177.607 119.17 177.607C118.447 177.607 117.811 177.81 117.434 178.331C117.29 178.533 117.174 178.764 117.087 179.083C116.393 178.099 115.178 177.55 113.848 177.55C109.972 177.55 106.992 180.269 106.992 184.694C106.992 188.455 109.48 191.26 113.501 191.26C115.034 191.26 116.277 190.537 116.972 189.409C117.348 190.711 117.984 191.174 118.996 191.174C120.327 191.174 121.426 190.826 121.426 189.207C121.368 188.223 121.339 187.24 121.339 186.256V181.888ZM111.794 184.578C111.794 182.64 112.806 181.57 114.282 181.57C115.583 181.57 116.769 182.554 116.769 184.376C116.769 186.198 115.554 187.298 114.137 187.298C112.777 187.298 111.794 186.112 111.794 184.578Z" fill="#09161D"/>
<path d="M124.581 183.797L124.552 187.269C124.494 188.628 124.523 188.744 124.523 189.12C124.523 190.711 125.709 191.174 126.837 191.174C128.138 191.174 129.295 190.624 129.295 189.322V184.405C129.266 182.959 129.585 181.397 131.233 181.397C132.333 181.397 132.853 182.612 132.853 183.624C132.882 186.343 132.795 187.153 132.795 189.293C132.795 190.537 133.721 191.145 135.052 191.174C136.324 191.202 137.424 190.682 137.481 189.409C137.51 188.483 137.51 187.442 137.51 186.632C137.51 185.446 137.51 184.492 137.539 183.306C137.539 182.264 138.378 181.454 139.362 181.454C140.547 181.454 140.837 182.496 140.837 183.624C140.837 185.967 140.75 187.645 140.75 189.322C140.75 190.45 141.676 191.174 143.122 191.174C143.99 191.174 145.407 190.942 145.494 189.467C145.552 188.31 145.552 187.269 145.552 186.256L145.523 183.016C145.523 179.661 143.903 177.405 140.229 177.463C138.841 177.492 137.192 178.359 136.353 179.545C135.63 178.331 134.386 177.463 132.477 177.463C131.089 177.463 129.614 178.388 129.093 179.343L128.977 178.822C128.804 178.07 128.052 177.463 127.01 177.463C125.39 177.463 124.552 178.186 124.552 179.516C124.552 180.442 124.638 181.078 124.581 183.797Z" fill="#09161D"/>
<path d="M148.706 172.314C148.648 177.087 148.561 183.393 148.677 188.021C148.706 190.624 149.747 191.347 151.367 191.174C153.074 191 153.566 190.364 153.623 188.975C153.652 188.021 153.566 186.922 153.566 185.707C153.566 181.194 153.566 176.798 153.652 172.314C153.681 170.868 152.698 170.174 151.165 170.174C149.834 170.174 148.735 170.839 148.706 172.314Z" fill="#09161D"/>
<path d="M170.406 181.888L170.435 179.661C170.435 178.331 169.711 177.607 168.236 177.607C167.513 177.607 166.877 177.81 166.501 178.331C166.356 178.533 166.24 178.764 166.154 179.083C165.459 178.099 164.244 177.55 162.914 177.55C159.038 177.55 156.058 180.269 156.058 184.694C156.058 188.455 158.546 191.26 162.567 191.26C164.1 191.26 165.344 190.537 166.038 189.409C166.414 190.711 167.05 191.174 168.063 191.174C169.393 191.174 170.492 190.826 170.492 189.207C170.435 188.223 170.406 187.24 170.406 186.256V181.888ZM160.86 184.578C160.86 182.64 161.873 181.57 163.348 181.57C164.649 181.57 165.835 182.554 165.835 184.376C165.835 186.198 164.62 187.298 163.203 187.298C161.844 187.298 160.86 186.112 160.86 184.578Z" fill="#09161D"/>
<path d="M173.647 172.198L173.705 183.826L173.618 188.715C173.589 190.219 174.139 191.087 175.47 191.145C176.655 191.203 177.465 190.855 177.726 189.756L177.812 189.38C178.478 190.537 179.895 191.289 181.37 191.289C185.478 191.289 188.255 188.136 188.255 184.202C188.255 180.471 185.651 177.463 181.833 177.463C180.387 177.463 179.027 177.897 178.275 179.083C178.275 179.054 178.275 178.649 178.362 172.025C178.391 170.318 177.176 170 175.903 170C174.631 170 173.676 170.607 173.647 172.198ZM183.511 184.231C183.511 186.025 182.18 187.326 180.821 187.326C179.519 187.326 178.333 186.169 178.333 184.463C178.333 182.438 179.577 181.541 181.052 181.541C182.325 181.541 183.511 182.554 183.511 184.231Z" fill="#09161D"/>
<path d="M195.915 177.463C192.936 177.463 190.246 179.314 190.246 182.091C190.246 184.694 192.647 185.562 195.019 185.909C196.581 186.141 197.159 186.256 197.159 186.835C197.159 187.355 196.696 187.616 195.973 187.616C194.151 187.616 193.486 186.951 191.982 186.951C190.68 186.951 190.188 187.905 190.188 189.12C190.188 190.422 192.531 191.347 195.482 191.347C199.386 191.347 201.44 189.583 201.44 186.719C201.44 184.058 199.444 183.017 196.349 182.583C195.337 182.438 194.498 182.438 194.498 181.831C194.498 181.281 195.192 181.021 196.06 181.021C197.043 181.021 198.258 181.599 199.213 181.599C200.457 181.599 200.977 180.789 200.977 179.603C200.977 178.793 200.457 178.331 199.849 178.07C198.779 177.608 197.564 177.463 195.915 177.463Z" fill="#09161D"/>
<defs>
<filter id="filter0_f_556_12558" x="-20" y="25" width="298" height="184" filterUnits="userSpaceOnUse" color-interpolation-filters="sRGB">
<feFlood flood-opacity="0" result="BackgroundImageFix"/>
<feBlend mode="normal" in="SourceGraphic" in2="BackgroundImageFix" result="shape"/>
<feGaussianBlur stdDeviation="18.5" result="effect1_foregroundBlur_556_12558"/>
</filter>
<filter id="filter1_ii_556_12558" x="17" y="62" width="224" height="148" filterUnits="userSpaceOnUse" color-interpolation-filters="sRGB">
<feFlood flood-opacity="0" result="BackgroundImageFix"/>
<feBlend mode="normal" in="SourceGraphic" in2="BackgroundImageFix" result="shape"/>
<feColorMatrix in="SourceAlpha" type="matrix" values="0 0 0 0 0 0 0 0 0 0 0 0 0 0 0 0 0 0 127 0" result="hardAlpha"/>
<feOffset dy="4"/>
<feComposite in2="hardAlpha" operator="arithmetic" k2="-1" k3="1"/>
<feColorMatrix type="matrix" values="0 0 0 0 1 0 0 0 0 1 0 0 0 0 1 0 0 0 0.25 0"/>
<feBlend mode="normal" in2="shape" result="effect1_innerShadow_556_12558"/>
<feColorMatrix in="SourceAlpha" type="matrix" values="0 0 0 0 0 0 0 0 0 0 0 0 0 0 0 0 0 0 127 0" result="hardAlpha"/>
<feOffset dy="-4"/>
<feComposite in2="hardAlpha" operator="arithmetic" k2="-1" k3="1"/>
<feColorMatrix type="matrix" values="0 0 0 0 0 0 0 0 0 0 0 0 0 0 0 0 0 0 0.9 0"/>
<feBlend mode="soft-light" in2="effect1_innerShadow_556_12558" result="effect2_innerShadow_556_12558"/>
</filter>
<linearGradient id="paint0_linear_556_12558" x1="17" y1="34" x2="197.768" y2="215.142" gradientUnits="userSpaceOnUse">
<stop stop-color="#05815D"/>
<stop offset="1" stop-color="#0C575F"/>
</linearGradient>
<linearGradient id="paint1_linear_556_12558" x1="17" y1="62" x2="241" y2="210" gradientUnits="userSpaceOnUse">
<stop stop-color="#B1FFD0"/>
<stop offset="0.474482" stop-color="#80F5D2"/>
<stop offset="1" stop-color="#49D6BC"/>
</linearGradient>
</defs>
</svg>
