<svg width="256" height="256" viewBox="0 0 256 256" fill="none" xmlns="http://www.w3.org/2000/svg">
<path fill-rule="evenodd" clip-rule="evenodd" d="M104.425 42.3784C100.056 37.0733 93.5437 34 86.6712 34H29C22.3726 34 17 39.3726 17 46V58.1371V68.2V160C17 166.627 22.3726 172 29 172H229C235.627 172 241 166.627 241 160V70.1371C241 63.5097 235.627 58.1371 229 58.1371H117.404L104.425 42.3784Z" fill="#DF7D8A"/>
<mask id="mask0_2031_33551" style="mask-type:alpha" maskUnits="userSpaceOnUse" x="17" y="34" width="224" height="138">
<path fill-rule="evenodd" clip-rule="evenodd" d="M104.425 42.3784C100.056 37.0733 93.5437 34 86.6712 34H29C22.3726 34 17 39.3726 17 46V58.1371V68.2V160C17 166.627 22.3726 172 29 172H229C235.627 172 241 166.627 241 160V70.1371C241 63.5097 235.627 58.1371 229 58.1371H117.404L104.425 42.3784Z" fill="url(#paint0_linear_2031_33551)"/>
</mask>
<g mask="url(#mask0_2031_33551)">
<g style="mix-blend-mode:multiply" filter="url(#filter0_f_2031_33551)">
<path fill-rule="evenodd" clip-rule="evenodd" d="M92.789 74C97.7642 74 102.605 72.3868 106.586 69.4024L116.459 62H229C235.627 62 241 67.3726 241 74V108V160C241 166.627 235.627 172 229 172H29C22.3726 172 17 166.627 17 160L17 108V86C17 79.3726 22.3726 74 29 74H87H92.789Z" fill="black" fill-opacity="0.3"/>
</g>
</g>
<g filter="url(#filter1_ii_2031_33551)">
<path fill-rule="evenodd" clip-rule="evenodd" d="M92.789 74C97.7642 74 102.605 72.3868 106.586 69.4024L116.459 62H229C235.627 62 241 67.3726 241 74V108V198C241 204.627 235.627 210 229 210H29C22.3726 210 17 204.627 17 198L17 108V86C17 79.3726 22.3726 74 29 74H87H92.789Z" fill="url(#paint1_linear_2031_33551)"/>
</g>
<path d="M66.9619 136.534L93.9595 147.474V155.132L62 140.324V135.831L66.9619 136.534ZM93.9595 127.549L67.001 138.644L62 139.192V134.659L93.9595 119.891V127.549Z" fill="white"/>
<path d="M190.338 138.099L162.559 127.277V119.814L195.924 134.583V139.154L190.338 138.099ZM162.559 147.632L190.416 136.576L195.924 135.755V140.287L162.559 155.095V147.632Z" fill="white"/>
<path fill-rule="evenodd" clip-rule="evenodd" d="M155.299 100.053C155.144 102.504 154.04 105.063 154.348 107.445C156.276 110.855 160.52 111.399 164.021 111.633C166.447 112.066 166.417 110.46 166.254 108.655C166.264 105.771 166.273 102.887 166.283 100.002C162.622 100.016 158.959 99.966 155.299 100.053ZM126.424 106.907C120.463 107.919 114.42 110.767 109.46 114.197C105.468 117.304 112.887 120.315 115.578 120.818C120.993 120.884 125.796 117.232 129.353 113.44C130.515 111.846 131.966 109.406 130.506 107.558C129.392 106.592 127.772 106.827 126.424 106.907ZM139.11 115.577C134.208 116.51 129.544 118.531 125.418 121.344C122.393 122.293 119.899 125.615 123.648 127.279C127.585 130.416 132.147 129.648 135.772 127.53C139.092 125.557 142.678 123.122 144.214 119.407C145.665 115.337 141.922 115.186 139.11 115.577ZM153.015 131.346C152.102 135.159 148.263 136.892 146.22 139.913C144.55 142.117 145.323 144.713 147.225 146.448C148.15 148.367 149.773 149.44 151.514 147.773C155.996 144.725 157.236 138.79 157.05 133.647C157.381 131.522 154.944 133.443 153.015 131.346ZM135.957 138.507C130.005 139.526 124.051 142.426 119.09 145.85C115.238 148.953 122.492 151.85 125.206 152.309C130.721 152.317 135.641 148.763 139.129 144.726C140.342 143.123 141.812 140.01 139.41 138.735C138.336 138.28 137.089 138.413 135.957 138.507Z" fill="#B956A6"/>
<path fill-rule="evenodd" clip-rule="evenodd" d="M109.459 114.196C104.881 116.028 100.465 118.252 96.104 120.581C95.2934 123.594 95.9434 127.326 95.7332 130.63C95.7174 144.217 95.7252 157.804 95.7226 171.391C99.0896 171.391 102.457 171.391 105.824 171.391C107.863 169.471 110.418 168.065 112.633 166.322C121.163 160.204 129.69 154.063 138.209 147.962C138.836 148.244 138.435 144.274 137.06 147.031C133.801 150.098 129.477 152.619 124.899 152.373C122.302 151.519 118.114 150.069 118.088 146.886C119.917 144.733 114.715 148.013 113.291 148.483C108.664 150.705 104.146 153.186 99.5087 155.366C100.623 154.169 102.708 153.054 104.186 151.866C114.744 144.287 125.3 136.679 135.883 129.106C137.919 127.676 139.885 126.117 141.984 124.781C142.175 125.522 142.535 121.243 140.974 123.877C137.793 127.031 133.501 129.378 128.975 129.41C126.43 128.638 121.008 126.79 122.215 123.503C122.804 122.35 116.748 125.962 119.423 123.925C122.272 121.844 125.142 119.799 128.013 117.74C129.462 117.63 129.154 112.246 127.184 115.719C123.875 118.627 119.528 121.287 114.971 120.656C112.411 119.919 109.34 118.492 108.409 115.815C108.101 115.172 110.133 114.17 109.459 114.196ZM128.425 117.52C128.885 117.254 128.171 118.246 128.425 117.52Z" fill="#FCCC44"/>
<path fill-rule="evenodd" clip-rule="evenodd" d="M157.347 110.597C155.917 117.422 154.355 124.565 153.012 131.344C156.872 136.209 157.246 128.271 157.921 126.027C159.012 121.336 160.304 117.793 160.441 112.936C160.731 111.279 158.783 110.275 157.347 110.597ZM161.775 115.949C161.951 116.081 161.654 116.649 161.775 115.949ZM157.272 131.252C157.458 131.652 157.458 130.852 157.272 131.252Z" fill="#62777F"/>
<path fill-rule="evenodd" clip-rule="evenodd" d="M159.879 111.368C161.083 118.132 157.094 126.348 155.789 132.725C158.752 130.545 161.041 120.654 161.626 116.782C161.776 116.34 161.962 115.225 162.002 115.185C162.189 114.245 163.924 112.653 164.019 111.628C165.029 110.916 159.054 110.801 159.879 111.368ZM157.422 131.25C157.236 131.65 157.236 130.85 157.422 131.25Z" fill="#4E5E67"/>
<path fill-rule="evenodd" clip-rule="evenodd" d="M109.559 114.308C107.889 115.981 108.515 115.572 109.759 114.182L109.559 114.308ZM127.624 115.137C125.689 118.044 118.712 120.475 117.834 120.663C122.03 119.877 125.942 117.267 128.695 114.208C128.258 114.403 127.998 114.861 127.624 115.137ZM108.411 116.081C109.454 118.588 113.246 120.254 115.088 120.643C112.573 119.833 109.612 118.395 108.411 116.081ZM128.274 117.531C127.748 118.152 125.873 119.082 124.884 119.994C122.764 121.558 120.57 123.011 118.474 124.615C119.809 124.557 123.72 121.635 121.715 124.6C123.414 127.525 127.113 129.558 130.487 129.372C134.941 128.673 139.049 126.21 142.002 122.785C138.417 126.332 133.678 129.67 128.434 129.21C125.896 128.624 118.961 125.042 123.6 122.531C125.236 121.185 128.056 120.48 128.376 118.116C128.309 117.821 128.859 117.533 128.274 117.531ZM115.577 120.817C117.265 121.038 117.265 120.597 115.577 120.817ZM141.876 124.856C135.179 129.522 128.579 134.37 121.939 139.12C114.415 144.505 106.923 149.91 99.4004 155.291C102.229 154.337 105.062 152.475 107.872 151.188C111.741 149.141 115.822 147.524 119.442 145.038C126.6 140.824 134.171 136.809 139.677 130.361C140.878 128.952 142.083 126.684 142.137 125.158C141.964 125.207 142.095 124.548 141.876 124.856ZM119.088 145.849C117.883 147.211 117.394 148.184 118.645 146.452C118.623 146.653 119.659 145.377 119.088 145.849ZM137.419 146.501C134.245 149.847 129.551 152.262 125.146 152.424C130.239 152.461 134.833 149.439 138.282 145.873C138.056 145.599 137.597 146.51 137.419 146.501ZM138.389 147.553C127.726 155.315 116.694 163.367 105.995 171.102C107.68 171.631 111.35 171.879 113.025 169.721C116.589 167.261 120.595 165.453 124.171 162.961C129.348 159.601 134.892 155.929 137.832 150.283C137.972 149.525 139.013 148.163 138.389 147.553ZM118.095 148.045C118.59 150.134 124.776 152.531 124.105 152.073C121.824 151.273 119.562 150.027 118.095 148.045Z" fill="#DC9624"/>
<defs>
<filter id="filter0_f_2031_33551" x="-20" y="25" width="298" height="184" filterUnits="userSpaceOnUse" color-interpolation-filters="sRGB">
<feFlood flood-opacity="0" result="BackgroundImageFix"/>
<feBlend mode="normal" in="SourceGraphic" in2="BackgroundImageFix" result="shape"/>
<feGaussianBlur stdDeviation="18.5" result="effect1_foregroundBlur_2031_33551"/>
</filter>
<filter id="filter1_ii_2031_33551" x="17" y="62" width="224" height="148" filterUnits="userSpaceOnUse" color-interpolation-filters="sRGB">
<feFlood flood-opacity="0" result="BackgroundImageFix"/>
<feBlend mode="normal" in="SourceGraphic" in2="BackgroundImageFix" result="shape"/>
<feColorMatrix in="SourceAlpha" type="matrix" values="0 0 0 0 0 0 0 0 0 0 0 0 0 0 0 0 0 0 127 0" result="hardAlpha"/>
<feOffset dy="4"/>
<feComposite in2="hardAlpha" operator="arithmetic" k2="-1" k3="1"/>
<feColorMatrix type="matrix" values="0 0 0 0 1 0 0 0 0 1 0 0 0 0 1 0 0 0 0.25 0"/>
<feBlend mode="normal" in2="shape" result="effect1_innerShadow_2031_33551"/>
<feColorMatrix in="SourceAlpha" type="matrix" values="0 0 0 0 0 0 0 0 0 0 0 0 0 0 0 0 0 0 127 0" result="hardAlpha"/>
<feOffset dy="-4"/>
<feComposite in2="hardAlpha" operator="arithmetic" k2="-1" k3="1"/>
<feColorMatrix type="matrix" values="0 0 0 0 0 0 0 0 0 0 0 0 0 0 0 0 0 0 0.9 0"/>
<feBlend mode="soft-light" in2="effect1_innerShadow_2031_33551" result="effect2_innerShadow_2031_33551"/>
</filter>
<linearGradient id="paint0_linear_2031_33551" x1="17" y1="34" x2="197.768" y2="215.142" gradientUnits="userSpaceOnUse">
<stop stop-color="#05815D"/>
<stop offset="1" stop-color="#0C575F"/>
</linearGradient>
<linearGradient id="paint1_linear_2031_33551" x1="17" y1="62" x2="241" y2="210" gradientUnits="userSpaceOnUse">
<stop stop-color="#F1B065"/>
<stop offset="1" stop-color="#DD778E"/>
</linearGradient>
</defs>
</svg>
