<svg width="256" height="256" viewBox="0 0 256 256" fill="none" xmlns="http://www.w3.org/2000/svg">
<path fill-rule="evenodd" clip-rule="evenodd" d="M104.425 42.3784C100.056 37.0733 93.5437 34 86.6712 34H29C22.3726 34 17 39.3726 17 46V58.1371V68.2V160C17 166.627 22.3726 172 29 172H229C235.627 172 241 166.627 241 160V70.1371C241 63.5097 235.627 58.1371 229 58.1371H117.404L104.425 42.3784Z" fill="#4B4B4B"/>
<mask id="mask0_853_21769" style="mask-type:alpha" maskUnits="userSpaceOnUse" x="17" y="34" width="224" height="138">
<path fill-rule="evenodd" clip-rule="evenodd" d="M104.425 42.3784C100.056 37.0733 93.5437 34 86.6712 34H29C22.3726 34 17 39.3726 17 46V58.1371V68.2V160C17 166.627 22.3726 172 29 172H229C235.627 172 241 166.627 241 160V70.1371C241 63.5097 235.627 58.1371 229 58.1371H117.404L104.425 42.3784Z" fill="url(#paint0_linear_853_21769)"/>
</mask>
<g mask="url(#mask0_853_21769)">
<g style="mix-blend-mode:multiply" filter="url(#filter0_f_853_21769)">
<path fill-rule="evenodd" clip-rule="evenodd" d="M92.789 74C97.7642 74 102.605 72.3868 106.586 69.4024L116.459 62H229C235.627 62 241 67.3726 241 74V108V160C241 166.627 235.627 172 229 172H29C22.3726 172 17 166.627 17 160L17 108V86C17 79.3726 22.3726 74 29 74H87H92.789Z" fill="black" fill-opacity="0.3"/>
</g>
</g>
<g filter="url(#filter1_d_853_21769)">
<g filter="url(#filter2_ii_853_21769)">
<path fill-rule="evenodd" clip-rule="evenodd" d="M92.789 74C97.7642 74 102.605 72.3868 106.586 69.4024L116.459 62H229C235.627 62 241 67.3726 241 74V108V198C241 204.627 235.627 210 229 210H29C22.3726 210 17 204.627 17 198L17 108V86C17 79.3726 22.3726 74 29 74H87H92.789Z" fill="url(#paint1_linear_853_21769)"/>
</g>
</g>
<path fill-rule="evenodd" clip-rule="evenodd" d="M159.861 132.048C159.861 131.106 159.165 130.563 158.31 130.833L99.5376 149.47C98.6815 149.741 97.9871 150.726 97.9871 151.667V170.714C97.9871 171.656 98.6815 172.201 99.5376 171.93L158.31 153.294C159.165 153.023 159.861 152.038 159.861 151.096V132.048Z" fill="url(#paint2_linear_853_21769)"/>
<path fill-rule="evenodd" clip-rule="evenodd" d="M97.9871 131.713C97.9871 132.655 98.6815 133.64 99.5376 133.912L158.319 152.55C159.175 152.822 159.869 152.277 159.869 151.337V132.287C159.869 131.347 159.175 130.362 158.319 130.09L99.5376 111.452C98.6815 111.18 97.9871 111.723 97.9871 112.665V131.713V131.713Z" fill="#FF9800"/>
<path fill-rule="evenodd" clip-rule="evenodd" d="M159.861 93.2851C159.861 92.3431 159.165 91.7982 158.31 92.0698L99.5376 110.705C98.6815 110.977 97.9871 111.962 97.9871 112.904V131.951C97.9871 132.893 98.6815 133.436 99.5376 133.167L158.31 114.53C159.165 114.258 159.861 113.273 159.861 112.333V93.2851Z" fill="#FF9800"/>
<defs>
<filter id="filter0_f_853_21769" x="-20" y="25" width="298" height="184" filterUnits="userSpaceOnUse" color-interpolation-filters="sRGB">
<feFlood flood-opacity="0" result="BackgroundImageFix"/>
<feBlend mode="normal" in="SourceGraphic" in2="BackgroundImageFix" result="shape"/>
<feGaussianBlur stdDeviation="18.5" result="effect1_foregroundBlur_853_21769"/>
</filter>
<filter id="filter1_d_853_21769" x="13" y="62" width="232" height="156" filterUnits="userSpaceOnUse" color-interpolation-filters="sRGB">
<feFlood flood-opacity="0" result="BackgroundImageFix"/>
<feColorMatrix in="SourceAlpha" type="matrix" values="0 0 0 0 0 0 0 0 0 0 0 0 0 0 0 0 0 0 127 0" result="hardAlpha"/>
<feOffset dy="4"/>
<feGaussianBlur stdDeviation="2"/>
<feComposite in2="hardAlpha" operator="out"/>
<feColorMatrix type="matrix" values="0 0 0 0 0 0 0 0 0 0 0 0 0 0 0 0 0 0 0.25 0"/>
<feBlend mode="normal" in2="BackgroundImageFix" result="effect1_dropShadow_853_21769"/>
<feBlend mode="normal" in="SourceGraphic" in2="effect1_dropShadow_853_21769" result="shape"/>
</filter>
<filter id="filter2_ii_853_21769" x="17" y="62" width="224" height="148" filterUnits="userSpaceOnUse" color-interpolation-filters="sRGB">
<feFlood flood-opacity="0" result="BackgroundImageFix"/>
<feBlend mode="normal" in="SourceGraphic" in2="BackgroundImageFix" result="shape"/>
<feColorMatrix in="SourceAlpha" type="matrix" values="0 0 0 0 0 0 0 0 0 0 0 0 0 0 0 0 0 0 127 0" result="hardAlpha"/>
<feOffset dy="4"/>
<feComposite in2="hardAlpha" operator="arithmetic" k2="-1" k3="1"/>
<feColorMatrix type="matrix" values="0 0 0 0 1 0 0 0 0 1 0 0 0 0 1 0 0 0 0.25 0"/>
<feBlend mode="normal" in2="shape" result="effect1_innerShadow_853_21769"/>
<feColorMatrix in="SourceAlpha" type="matrix" values="0 0 0 0 0 0 0 0 0 0 0 0 0 0 0 0 0 0 127 0" result="hardAlpha"/>
<feOffset dy="-4"/>
<feComposite in2="hardAlpha" operator="arithmetic" k2="-1" k3="1"/>
<feColorMatrix type="matrix" values="0 0 0 0 0 0 0 0 0 0 0 0 0 0 0 0 0 0 0.9 0"/>
<feBlend mode="soft-light" in2="effect1_innerShadow_853_21769" result="effect2_innerShadow_853_21769"/>
</filter>
<linearGradient id="paint0_linear_853_21769" x1="17" y1="34" x2="197.768" y2="215.142" gradientUnits="userSpaceOnUse">
<stop stop-color="#05815D"/>
<stop offset="1" stop-color="#0C575F"/>
</linearGradient>
<linearGradient id="paint1_linear_853_21769" x1="17" y1="62" x2="241" y2="210" gradientUnits="userSpaceOnUse">
<stop stop-color="#436589"/>
<stop offset="1" stop-color="#99326B"/>
</linearGradient>
<linearGradient id="paint2_linear_853_21769" x1="132.09" y1="159.44" x2="139.053" y2="142.404" gradientUnits="userSpaceOnUse">
<stop stop-color="#FF9700"/>
<stop offset="0.53" stop-color="#F48E00"/>
<stop offset="1" stop-color="#D06F00"/>
</linearGradient>
</defs>
</svg>
