<svg xmlns="http://www.w3.org/2000/svg" xmlns:xlink="http://www.w3.org/1999/xlink" fill="none" version="1.1" width="256" height="256" viewBox="0 0 256 256"><defs><clipPath id="master_svg0_4_01468"><rect x="0" y="0" width="256" height="256" rx="0"/></clipPath><linearGradient x1="-5.134781488891349e-16" y1="-1.942890293094024e-16" x2="1.1710403214802918" y2="0.7229371082788956" id="master_svg1_1_109"><stop offset="0%" stop-color="#05815D" stop-opacity="1"/><stop offset="100%" stop-color="#0C575F" stop-opacity="1"/></linearGradient><mask id="master_svg2_4_01474" style="mask-type:alpha" maskUnits="objectBoundingBox"><g><g><path d="M104.425,42.3784C100.056,37.0733,93.5437,34,86.6712,34L29,34C22.3726,34,17,39.3726,17,46L17,58.137100000000004L17,68.2L17,160C17,166.627,22.3726,172,29,172L229,172C235.627,172,241,166.627,241,160L241,70.1371C241,63.509699999999995,235.627,58.137100000000004,229,58.137100000000004L117.404,58.137100000000004L104.425,42.3784Z" fill-rule="evenodd" fill="url(#master_svg1_1_109)" fill-opacity="1" style="mix-blend-mode:passthrough"/></g></g></mask><filter id="master_svg3_4_01472" filterUnits="objectBoundingBox" color-interpolation-filters="sRGB" x="-0.33035714285714285" y="-0.5362318840579711" width="1.6607142857142858" height="2.072463768115942"><feFlood flood-opacity="0" result="BackgroundImageFix"/><feBlend mode="normal" in="SourceGraphic" in2="BackgroundImageFix" result="shape"/><feGaussianBlur stdDeviation="18.5" result="effect1_foregroundBlur"/></filter><linearGradient x1="-5.134781488891349e-16" y1="-3.3306690738754696e-16" x2="1.2066012353081996" y2="0.526733766306418" id="master_svg4_4_01609"><stop offset="0%" stop-color="#D0D0D0" stop-opacity="1"/><stop offset="100%" stop-color="#9F9F9F" stop-opacity="1"/></linearGradient><linearGradient x1="0" y1="0.2975093424320221" x2="1.000103202729266" y2="0.298789373440286" id="master_svg5_4_02674"><stop offset="0%" stop-color="#8F8F8F" stop-opacity="1"/><stop offset="100%" stop-color="#BFBFBF" stop-opacity="1"/></linearGradient><linearGradient x1="-0.0003124999930150807" y1="0.41749998927116394" x2="0.9998560571887892" y2="0.41829728208495" id="master_svg6_4_01463"><stop offset="0%" stop-color="#8D8D8D" stop-opacity="1"/><stop offset="100%" stop-color="#CECDCA" stop-opacity="1"/></linearGradient></defs><g clip-path="url(#master_svg0_4_01468)"><g><path d="M104.425,42.3784C100.056,37.0733,93.5437,34,86.6712,34L29,34C22.3726,34,17,39.3726,17,46L17,58.137100000000004L17,68.2L17,160C17,166.627,22.3726,172,29,172L229,172C235.627,172,241,166.627,241,160L241,70.1371C241,63.509699999999995,235.627,58.137100000000004,229,58.137100000000004L117.404,58.137100000000004L104.425,42.3784Z" fill-rule="evenodd" fill="#CECDCA" fill-opacity="1" style="mix-blend-mode:passthrough"/></g><g mask="url(#master_svg2_4_01474)"><g><g style="mix-blend-mode:multiply" filter="url(#master_svg3_4_01472)"><g><path d="M92.789,49.054500000000004C97.7642,49.054500000000004,102.605,47.030699999999996,106.586,43.28664L116.459,34L229,34C235.627,34,241,40.74017,241,49.054500000000004L241,91.7091L241,156.945C241,165.259,235.627,172,229,172L29,172C22.3726,172,17,165.259,17,156.945L17,91.7091L17,64.1091C17,55.7947,22.3726,49.054500000000004,29,49.054500000000004L87,49.054500000000004L92.789,49.054500000000004Z" fill-rule="evenodd" fill="#000000" fill-opacity="0.15000000596046448" style="mix-blend-mode:passthrough"/></g></g></g></g><g><g><path d="M92.789,74C97.7642,74,102.605,72.3868,106.586,69.4024L116.459,62L229,62C235.627,62,241,67.3726,241,74L241,108L241,198C241,204.627,235.627,210,229,210L29,210C22.3726,210,17,204.627,17,198L17,108L17,86C17,79.3726,22.3726,74,29,74L87,74L92.789,74Z" fill-rule="evenodd" fill="url(#master_svg4_4_01609)" fill-opacity="1" style="mix-blend-mode:passthrough"/></g><g><path d="M106.59,69.4C102.61,72.38,97.77,74,92.79,74L29,74C22.37,74,17,79.37,17,86L17,90C17,83.37,22.37,78,29,78L92.79,78C97.77,78,102.61,76.39,106.59,73.4L116.46,66L229,66C235.63,66,241,71.37,241,78L241,74C241,67.37,235.63,62,229,62L116.46,62L106.59,69.4Z" fill-rule="evenodd" fill="url(#master_svg5_4_02674)" fill-opacity="1" style="mix-blend-mode:passthrough"/></g><g><path d="M17,194L17,198C17,204.63,22.37,210,29,210L229,210C235.63,210,241,204.63,241,198L241,194C241,200.63,235.63,206,229,206L29,206C22.37,206,17,200.63,17,194Z" fill-rule="evenodd" fill="url(#master_svg6_4_01463)" fill-opacity="1" style="mix-blend-mode:passthrough"/></g></g><g><g><ellipse cx="68" cy="136" rx="40" ry="40" fill="#F4F4F4" fill-opacity="1"/></g><g><rect x="57" y="108" width="21" height="56" rx="3" fill="#414141" fill-opacity="1"/></g><g transform="matrix(0,1,-1,0,222,30)"><rect x="96" y="126" width="21" height="56" rx="3" fill="#414141" fill-opacity="1"/></g><g><path d="M77,137Q77,137.19639,76.9904,137.39254Q76.9807,137.58868999999999,76.9615,137.78414Q76.9422,137.97958,76.9134,138.17384Q76.8846,138.36811,76.8463,138.56072Q76.80799999999999,138.75334,76.7602,138.94384Q76.7125,139.1343,76.6555,139.3223Q76.5985,139.5102,76.5324,139.6951Q76.4662,139.88,76.391,140.0615Q76.3159,140.2429,76.2319,140.4204Q76.14789999999999,140.598,76.0554,140.7712Q75.9628,140.9444,75.8618,141.1128Q75.76089999999999,141.2813,75.6518,141.4446Q75.5426,141.6079,75.4257,141.7656Q75.3087,141.9233,75.1841,142.0751Q75.0595,142.227,74.9276,142.3725Q74.7957,142.518,74.65690000000001,142.6569Q74.518,142.7957,74.3725,142.9276Q74.227,143.0595,74.0751,143.1841Q73.9233,143.3087,73.7656,143.4257Q73.6079,143.5426,73.4446,143.6518Q73.2813,143.7609,73.1128,143.8618Q72.9444,143.9628,72.7712,144.0554Q72.598,144.1479,72.4204,144.2319Q72.2429,144.3159,72.0615,144.391Q71.88,144.46620000000001,71.6951,144.5324Q71.5102,144.5985,71.3223,144.6555Q71.1343,144.7125,70.94384,144.7602Q70.75334,144.808,70.56072,144.84629999999999Q70.36811,144.8846,70.17384,144.9134Q69.97958,144.9422,69.78414000000001,144.9615Q69.58869,144.9807,69.39254,144.9904Q69.19639,145,69,145Q68.80361,145,68.60746,144.9904Q68.41131,144.9807,68.21586,144.9615Q68.02042,144.9422,67.82616,144.9134Q67.63189,144.8846,67.43928,144.84629999999999Q67.24666,144.808,67.05616,144.7602Q66.86565,144.7125,66.67772,144.6555Q66.48979,144.5985,66.30488,144.5324Q66.11997,144.46620000000001,65.93853,144.391Q65.75709,144.3159,65.57956,144.2319Q65.40203,144.1479,65.22883,144.0554Q65.05563,143.9628,64.88718,143.8618Q64.71873,143.7609,64.55544,143.6518Q64.39215,143.5426,64.23441,143.4257Q64.07666,143.3087,63.92485,143.1841Q63.77304,143.0595,63.62753,142.9276Q63.48201,142.7957,63.34315,142.6569Q63.20428,142.518,63.07239,142.3725Q62.9405,142.227,62.81592,142.0751Q62.69133,141.9233,62.57434,141.7656Q62.45735,141.6079,62.34824,141.4446Q62.23914,141.2813,62.13817,141.1128Q62.03721,140.9444,61.94463,140.7712Q61.852053,140.598,61.768086,140.4204Q61.684118,140.2429,61.608964,140.0615Q61.533809,139.88,61.467647,139.6951Q61.401486,139.5102,61.344477,139.3223Q61.287469,139.1343,61.23975,138.94384Q61.192031,138.75334,61.153718,138.56072Q61.115404,138.36811,61.0865879,138.17384Q61.0577717,137.97958,61.0385222,137.78414Q61.0192727,137.58868999999999,61.00963635,137.39254Q61,137.19639,61,137Q61,136.80361,61.00963635,136.60746Q61.0192727,136.41131000000001,61.0385222,136.21586Q61.0577717,136.02042,61.0865879,135.82616Q61.115404,135.63189,61.153718,135.43928Q61.192031,135.24666,61.23975,135.05616Q61.287469,134.86565,61.344477,134.67772Q61.401486,134.48979,61.467647,134.30488Q61.533809,134.11997,61.608964,133.93853000000001Q61.684118,133.75709,61.768086,133.57956Q61.852053,133.40203,61.94463,133.22883Q62.03721,133.05563,62.13817,132.88718Q62.23914,132.71873,62.34824,132.55544Q62.45735,132.39215,62.57434,132.23441Q62.69133,132.07666,62.81592,131.92485Q62.9405,131.77304,63.07239,131.62753Q63.20428,131.48201,63.34315,131.34315Q63.48201,131.20428,63.62753,131.07239Q63.77304,130.9405,63.92485,130.81592Q64.07666,130.69133,64.23441,130.57434Q64.39215,130.45735,64.55544,130.34824Q64.71873,130.23914,64.88718,130.13817Q65.05563,130.03721,65.22883,129.94463Q65.40203,129.852053,65.57956,129.768086Q65.75709,129.684118,65.93853,129.608964Q66.11997,129.533809,66.30488,129.467647Q66.48979,129.401486,66.67772,129.344477Q66.86565,129.287469,67.05616,129.23975Q67.24666,129.192031,67.43928,129.153718Q67.63189,129.115404,67.82616,129.0865879Q68.02042,129.0577717,68.21586,129.0385222Q68.41131,129.0192727,68.60746,129.00963635Q68.80361,129,69,129Q69.19639,129,69.39254,129.00963635Q69.58869,129.0192727,69.78414000000001,129.0385222Q69.97958,129.0577717,70.17384,129.0865879Q70.36811,129.115404,70.56072,129.153718Q70.75334,129.192031,70.94384,129.23975Q71.1343,129.287469,71.3223,129.344477Q71.5102,129.401486,71.6951,129.467647Q71.88,129.533809,72.0615,129.608964Q72.2429,129.684118,72.4204,129.768086Q72.598,129.852053,72.7712,129.94463Q72.9444,130.03721,73.1128,130.13817Q73.2813,130.23914,73.4446,130.34824Q73.6079,130.45735,73.7656,130.57434Q73.9233,130.69133,74.0751,130.81592Q74.227,130.9405,74.3725,131.07239Q74.518,131.20428,74.65690000000001,131.34315Q74.7957,131.48201,74.9276,131.62753Q75.0595,131.77304,75.1841,131.92485Q75.3087,132.07666,75.4257,132.23441Q75.5426,132.39215,75.6518,132.55544Q75.76089999999999,132.71873,75.8618,132.88718Q75.9628,133.05563,76.0554,133.22883Q76.14789999999999,133.40203,76.2319,133.57956Q76.3159,133.75709,76.391,133.93853000000001Q76.4662,134.11997,76.5324,134.30488Q76.5985,134.48979,76.6555,134.67772Q76.7125,134.86565,76.7602,135.05616Q76.80799999999999,135.24666,76.8463,135.43928Q76.8846,135.63189,76.9134,135.82616Q76.9422,136.02042,76.9615,136.21586Q76.9807,136.41131000000001,76.9904,136.60746Q77,136.80361,77,137ZM76.3,137Q76.3,136.8208,76.2912,136.64181Q76.2824,136.46282,76.2648,136.28448Q76.2473,136.10613,76.221,135.92887Q76.1947,135.7516,76.1597,135.57584Q76.1248,135.40008,76.0812,135.22624Q76.0377,135.05241,75.9857,134.88092Q75.9336,134.70943,75.8733,134.5407Q75.8129,134.37197,75.7443,134.20641Q75.6757,134.04085,75.59909999999999,133.87885Q75.52250000000001,133.71685,75.438,133.5588Q75.3535,133.40076,75.2614,133.24705Q75.16929999999999,133.09334,75.0697,132.94434Q74.9702,132.79533,74.8634,132.65139Q74.7567,132.50746,74.643,132.36893Q74.5293,132.2304,74.4089,132.09762Q74.2886,131.96484,74.1619,131.83812Q74.0352,131.7114,73.9024,131.59106Q73.7696,131.47071,73.6311,131.35702Q73.4925,131.24334,73.3486,131.13658Q73.2047,131.02983,73.0557,130.93027Q72.9067,130.83071,72.7529,130.73858Q72.5992,130.64645,72.4412,130.56197Q72.2832,130.4775,72.1212,130.40088Q71.9592,130.32426,71.7936,130.25568Q71.628,130.1871,71.4593,130.12673Q71.2906,130.06636,71.1191,130.01434Q70.94759,129.962315,70.77375,129.918772Q70.59992,129.875229,70.42416,129.840267Q70.2484,129.805306,70.07113,129.779011Q69.89386999999999,129.752717,69.71552,129.735152Q69.53718,129.717586,69.35819000000001,129.70879300000001Q69.1792,129.7,69,129.7Q68.8208,129.7,68.64181,129.70879300000001Q68.46282,129.717586,68.28448,129.735152Q68.10613000000001,129.752717,67.92887,129.779011Q67.7516,129.805306,67.57584,129.840267Q67.40008,129.875229,67.22624,129.918772Q67.05241,129.962315,66.88092,130.01434Q66.70943,130.06636,66.5407,130.12673Q66.37197,130.1871,66.20641,130.25568Q66.04085,130.32426,65.87885,130.40088Q65.71685,130.4775,65.5588,130.56197Q65.40076,130.64645,65.24705,130.73858Q65.09334,130.83071,64.94434,130.93027Q64.79533,131.02983,64.65139,131.13658Q64.50746,131.24334,64.36893,131.35702Q64.2304,131.47071,64.09762,131.59106Q63.96484,131.7114,63.83812,131.83812Q63.7114,131.96484,63.59106,132.09762Q63.47071,132.2304,63.35702,132.36893Q63.24334,132.50746,63.13658,132.65139Q63.02983,132.79533,62.93027,132.94434Q62.83071,133.09334,62.73858,133.24705Q62.64645,133.40076,62.56197,133.5588Q62.4775,133.71685,62.40088,133.87885Q62.32426,134.04085,62.25568,134.20641Q62.1871,134.37197,62.12673,134.5407Q62.06636,134.70943,62.01434,134.88092Q61.962315,135.05241,61.918772,135.22624Q61.875228,135.40008,61.840267,135.57584Q61.805306,135.7516,61.779011,135.92887Q61.752717,136.10613,61.735152,136.28448Q61.717586,136.46282,61.708793,136.64181Q61.7,136.8208,61.7,137Q61.7,137.1792,61.708793,137.35819Q61.717586,137.53718,61.735152,137.71552Q61.752717,137.89387,61.779011,138.07113Q61.805306,138.2484,61.840267,138.42416Q61.875229,138.59992,61.918772,138.77375Q61.962315,138.94759,62.01434,139.1191Q62.06636,139.2906,62.12673,139.4593Q62.1871,139.628,62.25568,139.7936Q62.32426,139.9592,62.40088,140.1212Q62.4775,140.2832,62.56197,140.4412Q62.64645,140.5992,62.73858,140.753Q62.83071,140.9067,62.93027,141.0557Q63.02983,141.2047,63.13658,141.3486Q63.24334,141.4925,63.35702,141.6311Q63.47071,141.7696,63.59106,141.9024Q63.7114,142.0352,63.83812,142.1619Q63.96484,142.2886,64.09762,142.4089Q64.2304,142.5293,64.36893,142.643Q64.50746,142.7567,64.65139,142.8634Q64.79533,142.9702,64.94434,143.0697Q65.09334,143.1693,65.24705,143.2614Q65.40076,143.3535,65.5588,143.438Q65.71685,143.5225,65.87885,143.5991Q66.04085,143.6757,66.20641,143.7443Q66.37197,143.8129,66.5407,143.8733Q66.70943,143.9336,66.88092,143.9857Q67.05241,144.0377,67.22624,144.0812Q67.40008,144.1248,67.57584,144.1597Q67.7516,144.1947,67.92887,144.221Q68.10613000000001,144.2473,68.28448,144.2648Q68.46282,144.2824,68.64181,144.2912Q68.8208,144.3,69,144.3Q69.1792,144.3,69.35819000000001,144.2912Q69.53718,144.2824,69.71552,144.2648Q69.89386999999999,144.2473,70.07113,144.221Q70.2484,144.1947,70.42416,144.1597Q70.59992,144.1248,70.77375,144.0812Q70.94759,144.0377,71.1191,143.9857Q71.2906,143.9336,71.4593,143.8733Q71.628,143.8129,71.7936,143.7443Q71.9592,143.6757,72.1212,143.5991Q72.2832,143.5225,72.4412,143.438Q72.5992,143.3535,72.753,143.2614Q72.9067,143.1693,73.0557,143.0697Q73.2047,142.9702,73.3486,142.8634Q73.4925,142.7567,73.6311,142.643Q73.7696,142.5293,73.9024,142.4089Q74.0352,142.2886,74.1619,142.1619Q74.2886,142.0352,74.4089,141.9024Q74.5293,141.7696,74.643,141.6311Q74.7567,141.4925,74.8634,141.3486Q74.9702,141.2047,75.0697,141.0557Q75.16929999999999,140.9067,75.2614,140.7529Q75.3535,140.5992,75.438,140.4412Q75.52250000000001,140.2832,75.59909999999999,140.1212Q75.6757,139.9592,75.7443,139.7936Q75.8129,139.628,75.8733,139.4593Q75.9336,139.2906,75.9857,139.1191Q76.0377,138.94759,76.0812,138.77375Q76.1248,138.59992,76.1597,138.42416Q76.1947,138.2484,76.221,138.07113Q76.2473,137.89387,76.2648,137.71552Q76.2824,137.53718,76.2912,137.35819Q76.3,137.1792,76.3,137Z" fill="#5D5D5D" fill-opacity="1"/></g></g><g><g><ellipse cx="68" cy="136" rx="40" ry="40" fill="#F4F4F4" fill-opacity="1"/></g><g><rect x="57" y="108" width="21" height="56" rx="3" fill="#414141" fill-opacity="1"/></g><g transform="matrix(0,1,-1,0,222,30)"><rect x="96" y="126" width="21" height="56" rx="3" fill="#414141" fill-opacity="1"/></g><g><path d="M77,137Q77,137.19639,76.9904,137.39254Q76.9807,137.58868999999999,76.9615,137.78414Q76.9422,137.97958,76.9134,138.17384Q76.8846,138.36811,76.8463,138.56072Q76.80799999999999,138.75334,76.7602,138.94384Q76.7125,139.1343,76.6555,139.3223Q76.5985,139.5102,76.5324,139.6951Q76.4662,139.88,76.391,140.0615Q76.3159,140.2429,76.2319,140.4204Q76.14789999999999,140.598,76.0554,140.7712Q75.9628,140.9444,75.8618,141.1128Q75.76089999999999,141.2813,75.6518,141.4446Q75.5426,141.6079,75.4257,141.7656Q75.3087,141.9233,75.1841,142.0751Q75.0595,142.227,74.9276,142.3725Q74.7957,142.518,74.65690000000001,142.6569Q74.518,142.7957,74.3725,142.9276Q74.227,143.0595,74.0751,143.1841Q73.9233,143.3087,73.7656,143.4257Q73.6079,143.5426,73.4446,143.6518Q73.2813,143.7609,73.1128,143.8618Q72.9444,143.9628,72.7712,144.0554Q72.598,144.1479,72.4204,144.2319Q72.2429,144.3159,72.0615,144.391Q71.88,144.46620000000001,71.6951,144.5324Q71.5102,144.5985,71.3223,144.6555Q71.1343,144.7125,70.94384,144.7602Q70.75334,144.808,70.56072,144.84629999999999Q70.36811,144.8846,70.17384,144.9134Q69.97958,144.9422,69.78414000000001,144.9615Q69.58869,144.9807,69.39254,144.9904Q69.19639,145,69,145Q68.80361,145,68.60746,144.9904Q68.41131,144.9807,68.21586,144.9615Q68.02042,144.9422,67.82616,144.9134Q67.63189,144.8846,67.43928,144.84629999999999Q67.24666,144.808,67.05616,144.7602Q66.86565,144.7125,66.67772,144.6555Q66.48979,144.5985,66.30488,144.5324Q66.11997,144.46620000000001,65.93853,144.391Q65.75709,144.3159,65.57956,144.2319Q65.40203,144.1479,65.22883,144.0554Q65.05563,143.9628,64.88718,143.8618Q64.71873,143.7609,64.55544,143.6518Q64.39215,143.5426,64.23441,143.4257Q64.07666,143.3087,63.92485,143.1841Q63.77304,143.0595,63.62753,142.9276Q63.48201,142.7957,63.34315,142.6569Q63.20428,142.518,63.07239,142.3725Q62.9405,142.227,62.81592,142.0751Q62.69133,141.9233,62.57434,141.7656Q62.45735,141.6079,62.34824,141.4446Q62.23914,141.2813,62.13817,141.1128Q62.03721,140.9444,61.94463,140.7712Q61.852053,140.598,61.768086,140.4204Q61.684118,140.2429,61.608964,140.0615Q61.533809,139.88,61.467647,139.6951Q61.401486,139.5102,61.344477,139.3223Q61.287469,139.1343,61.23975,138.94384Q61.192031,138.75334,61.153718,138.56072Q61.115404,138.36811,61.0865879,138.17384Q61.0577717,137.97958,61.0385222,137.78414Q61.0192727,137.58868999999999,61.00963635,137.39254Q61,137.19639,61,137Q61,136.80361,61.00963635,136.60746Q61.0192727,136.41131000000001,61.0385222,136.21586Q61.0577717,136.02042,61.0865879,135.82616Q61.115404,135.63189,61.153718,135.43928Q61.192031,135.24666,61.23975,135.05616Q61.287469,134.86565,61.344477,134.67772Q61.401486,134.48979,61.467647,134.30488Q61.533809,134.11997,61.608964,133.93853000000001Q61.684118,133.75709,61.768086,133.57956Q61.852053,133.40203,61.94463,133.22883Q62.03721,133.05563,62.13817,132.88718Q62.23914,132.71873,62.34824,132.55544Q62.45735,132.39215,62.57434,132.23441Q62.69133,132.07666,62.81592,131.92485Q62.9405,131.77304,63.07239,131.62753Q63.20428,131.48201,63.34315,131.34315Q63.48201,131.20428,63.62753,131.07239Q63.77304,130.9405,63.92485,130.81592Q64.07666,130.69133,64.23441,130.57434Q64.39215,130.45735,64.55544,130.34824Q64.71873,130.23914,64.88718,130.13817Q65.05563,130.03721,65.22883,129.94463Q65.40203,129.852053,65.57956,129.768086Q65.75709,129.684118,65.93853,129.608964Q66.11997,129.533809,66.30488,129.467647Q66.48979,129.401486,66.67772,129.344477Q66.86565,129.287469,67.05616,129.23975Q67.24666,129.192031,67.43928,129.153718Q67.63189,129.115404,67.82616,129.0865879Q68.02042,129.0577717,68.21586,129.0385222Q68.41131,129.0192727,68.60746,129.00963635Q68.80361,129,69,129Q69.19639,129,69.39254,129.00963635Q69.58869,129.0192727,69.78414000000001,129.0385222Q69.97958,129.0577717,70.17384,129.0865879Q70.36811,129.115404,70.56072,129.153718Q70.75334,129.192031,70.94384,129.23975Q71.1343,129.287469,71.3223,129.344477Q71.5102,129.401486,71.6951,129.467647Q71.88,129.533809,72.0615,129.608964Q72.2429,129.684118,72.4204,129.768086Q72.598,129.852053,72.7712,129.94463Q72.9444,130.03721,73.1128,130.13817Q73.2813,130.23914,73.4446,130.34824Q73.6079,130.45735,73.7656,130.57434Q73.9233,130.69133,74.0751,130.81592Q74.227,130.9405,74.3725,131.07239Q74.518,131.20428,74.65690000000001,131.34315Q74.7957,131.48201,74.9276,131.62753Q75.0595,131.77304,75.1841,131.92485Q75.3087,132.07666,75.4257,132.23441Q75.5426,132.39215,75.6518,132.55544Q75.76089999999999,132.71873,75.8618,132.88718Q75.9628,133.05563,76.0554,133.22883Q76.14789999999999,133.40203,76.2319,133.57956Q76.3159,133.75709,76.391,133.93853000000001Q76.4662,134.11997,76.5324,134.30488Q76.5985,134.48979,76.6555,134.67772Q76.7125,134.86565,76.7602,135.05616Q76.80799999999999,135.24666,76.8463,135.43928Q76.8846,135.63189,76.9134,135.82616Q76.9422,136.02042,76.9615,136.21586Q76.9807,136.41131000000001,76.9904,136.60746Q77,136.80361,77,137ZM76.3,137Q76.3,136.8208,76.2912,136.64181Q76.2824,136.46282,76.2648,136.28448Q76.2473,136.10613,76.221,135.92887Q76.1947,135.7516,76.1597,135.57584Q76.1248,135.40008,76.0812,135.22624Q76.0377,135.05241,75.9857,134.88092Q75.9336,134.70943,75.8733,134.5407Q75.8129,134.37197,75.7443,134.20641Q75.6757,134.04085,75.59909999999999,133.87885Q75.52250000000001,133.71685,75.438,133.5588Q75.3535,133.40076,75.2614,133.24705Q75.16929999999999,133.09334,75.0697,132.94434Q74.9702,132.79533,74.8634,132.65139Q74.7567,132.50746,74.643,132.36893Q74.5293,132.2304,74.4089,132.09762Q74.2886,131.96484,74.1619,131.83812Q74.0352,131.7114,73.9024,131.59106Q73.7696,131.47071,73.6311,131.35702Q73.4925,131.24334,73.3486,131.13658Q73.2047,131.02983,73.0557,130.93027Q72.9067,130.83071,72.7529,130.73858Q72.5992,130.64645,72.4412,130.56197Q72.2832,130.4775,72.1212,130.40088Q71.9592,130.32426,71.7936,130.25568Q71.628,130.1871,71.4593,130.12673Q71.2906,130.06636,71.1191,130.01434Q70.94759,129.962315,70.77375,129.918772Q70.59992,129.875229,70.42416,129.840267Q70.2484,129.805306,70.07113,129.779011Q69.89386999999999,129.752717,69.71552,129.735152Q69.53718,129.717586,69.35819000000001,129.70879300000001Q69.1792,129.7,69,129.7Q68.8208,129.7,68.64181,129.70879300000001Q68.46282,129.717586,68.28448,129.735152Q68.10613000000001,129.752717,67.92887,129.779011Q67.7516,129.805306,67.57584,129.840267Q67.40008,129.875229,67.22624,129.918772Q67.05241,129.962315,66.88092,130.01434Q66.70943,130.06636,66.5407,130.12673Q66.37197,130.1871,66.20641,130.25568Q66.04085,130.32426,65.87885,130.40088Q65.71685,130.4775,65.5588,130.56197Q65.40076,130.64645,65.24705,130.73858Q65.09334,130.83071,64.94434,130.93027Q64.79533,131.02983,64.65139,131.13658Q64.50746,131.24334,64.36893,131.35702Q64.2304,131.47071,64.09762,131.59106Q63.96484,131.7114,63.83812,131.83812Q63.7114,131.96484,63.59106,132.09762Q63.47071,132.2304,63.35702,132.36893Q63.24334,132.50746,63.13658,132.65139Q63.02983,132.79533,62.93027,132.94434Q62.83071,133.09334,62.73858,133.24705Q62.64645,133.40076,62.56197,133.5588Q62.4775,133.71685,62.40088,133.87885Q62.32426,134.04085,62.25568,134.20641Q62.1871,134.37197,62.12673,134.5407Q62.06636,134.70943,62.01434,134.88092Q61.962315,135.05241,61.918772,135.22624Q61.875228,135.40008,61.840267,135.57584Q61.805306,135.7516,61.779011,135.92887Q61.752717,136.10613,61.735152,136.28448Q61.717586,136.46282,61.708793,136.64181Q61.7,136.8208,61.7,137Q61.7,137.1792,61.708793,137.35819Q61.717586,137.53718,61.735152,137.71552Q61.752717,137.89387,61.779011,138.07113Q61.805306,138.2484,61.840267,138.42416Q61.875229,138.59992,61.918772,138.77375Q61.962315,138.94759,62.01434,139.1191Q62.06636,139.2906,62.12673,139.4593Q62.1871,139.628,62.25568,139.7936Q62.32426,139.9592,62.40088,140.1212Q62.4775,140.2832,62.56197,140.4412Q62.64645,140.5992,62.73858,140.753Q62.83071,140.9067,62.93027,141.0557Q63.02983,141.2047,63.13658,141.3486Q63.24334,141.4925,63.35702,141.6311Q63.47071,141.7696,63.59106,141.9024Q63.7114,142.0352,63.83812,142.1619Q63.96484,142.2886,64.09762,142.4089Q64.2304,142.5293,64.36893,142.643Q64.50746,142.7567,64.65139,142.8634Q64.79533,142.9702,64.94434,143.0697Q65.09334,143.1693,65.24705,143.2614Q65.40076,143.3535,65.5588,143.438Q65.71685,143.5225,65.87885,143.5991Q66.04085,143.6757,66.20641,143.7443Q66.37197,143.8129,66.5407,143.8733Q66.70943,143.9336,66.88092,143.9857Q67.05241,144.0377,67.22624,144.0812Q67.40008,144.1248,67.57584,144.1597Q67.7516,144.1947,67.92887,144.221Q68.10613000000001,144.2473,68.28448,144.2648Q68.46282,144.2824,68.64181,144.2912Q68.8208,144.3,69,144.3Q69.1792,144.3,69.35819000000001,144.2912Q69.53718,144.2824,69.71552,144.2648Q69.89386999999999,144.2473,70.07113,144.221Q70.2484,144.1947,70.42416,144.1597Q70.59992,144.1248,70.77375,144.0812Q70.94759,144.0377,71.1191,143.9857Q71.2906,143.9336,71.4593,143.8733Q71.628,143.8129,71.7936,143.7443Q71.9592,143.6757,72.1212,143.5991Q72.2832,143.5225,72.4412,143.438Q72.5992,143.3535,72.753,143.2614Q72.9067,143.1693,73.0557,143.0697Q73.2047,142.9702,73.3486,142.8634Q73.4925,142.7567,73.6311,142.643Q73.7696,142.5293,73.9024,142.4089Q74.0352,142.2886,74.1619,142.1619Q74.2886,142.0352,74.4089,141.9024Q74.5293,141.7696,74.643,141.6311Q74.7567,141.4925,74.8634,141.3486Q74.9702,141.2047,75.0697,141.0557Q75.16929999999999,140.9067,75.2614,140.7529Q75.3535,140.5992,75.438,140.4412Q75.52250000000001,140.2832,75.59909999999999,140.1212Q75.6757,139.9592,75.7443,139.7936Q75.8129,139.628,75.8733,139.4593Q75.9336,139.2906,75.9857,139.1191Q76.0377,138.94759,76.0812,138.77375Q76.1248,138.59992,76.1597,138.42416Q76.1947,138.2484,76.221,138.07113Q76.2473,137.89387,76.2648,137.71552Q76.2824,137.53718,76.2912,137.35819Q76.3,137.1792,76.3,137Z" fill="#5D5D5D" fill-opacity="1"/></g></g><g transform="matrix(0.8660253882408142,-0.4999999701976776,0.4999999701976776,0.8660253882408142,-71.01450148321601,76.90530514232523)"><rect x="108" y="170.967529296875" width="19.651901245117188" height="5.78000020980835" rx="2.890000104904175" fill="#414141" fill-opacity="1"/></g><g transform="matrix(0.8660253882408142,-0.4999999701976776,0.4999999701976776,0.8660253882408142,-68.45365710283477,86.17747068236713)"><rect x="126.58251953125" y="170.82501220703125" width="19.649999618530273" height="5.78000020980835" rx="2.890000104904175" fill="#414141" fill-opacity="1"/></g><g><g><ellipse cx="191" cy="137" rx="40" ry="40" fill="#757575" fill-opacity="1"/></g><g transform="matrix(0.7071067690849304,0.7071067690849304,-0.7071067690849304,0.7071067690849304,146.75736265037995,-114.30360860969085)"><rect x="211.3553466796875" y="120" width="20" height="50" rx="10" fill="#D8D8D8" fill-opacity="1"/><g><ellipse cx="221.3553466796875" cy="130" rx="8" ry="8" fill="#C80000" fill-opacity="1"/></g><g><ellipse cx="221.3553466796875" cy="160" rx="8" ry="8" fill="#FFC300" fill-opacity="1"/></g></g><g transform="matrix(0.7071067690849304,0.7071067690849304,-0.7071067690849304,0.7071067690849304,129.87868295763474,-105.55487169171829)"><rect x="192.3553466796875" y="104" width="20" height="50" rx="10" fill="#D8D8D8" fill-opacity="1"/><g><ellipse cx="202.3553466796875" cy="114" rx="8" ry="8" fill="#003CC8" fill-opacity="1"/></g><g><ellipse cx="202.3553466796875" cy="144" rx="8" ry="8" fill="#00D848" fill-opacity="1"/></g></g></g></g></svg>