<svg width="256" height="256" viewBox="0 0 256 256" fill="none" xmlns="http://www.w3.org/2000/svg">
<g clip-path="url(#clip0_2043_35747)">
<path fill-rule="evenodd" clip-rule="evenodd" d="M104.425 42.3784C100.056 37.0733 93.5437 34 86.6712 34H29C22.3726 34 17 39.3726 17 46V58.1371V68.2V160C17 166.627 22.3726 172 29 172H229C235.627 172 241 166.627 241 160V70.1371C241 63.5097 235.627 58.1371 229 58.1371H117.404L104.425 42.3784Z" fill="#E6E6E6"/>
<mask id="mask0_2043_35747" style="mask-type:alpha" maskUnits="userSpaceOnUse" x="17" y="34" width="224" height="138">
<path fill-rule="evenodd" clip-rule="evenodd" d="M104.425 42.3784C100.056 37.0733 93.5437 34 86.6712 34H29C22.3726 34 17 39.3726 17 46V58.1371V68.2V160C17 166.627 22.3726 172 29 172H229C235.627 172 241 166.627 241 160V70.1371C241 63.5097 235.627 58.1371 229 58.1371H117.404L104.425 42.3784Z" fill="url(#paint0_linear_2043_35747)"/>
</mask>
<g mask="url(#mask0_2043_35747)">
<g style="mix-blend-mode:multiply" filter="url(#filter0_f_2043_35747)">
<path fill-rule="evenodd" clip-rule="evenodd" d="M92.789 74C97.7642 74 102.605 72.3868 106.586 69.4024L116.459 62H229C235.627 62 241 67.3726 241 74V108V160C241 166.627 235.627 172 229 172H29C22.3726 172 17 166.627 17 160L17 108V86C17 79.3726 22.3726 74 29 74H87H92.789Z" fill="black" fill-opacity="0.3"/>
</g>
</g>
<g filter="url(#filter1_ii_2043_35747)">
<path fill-rule="evenodd" clip-rule="evenodd" d="M92.789 74C97.7642 74 102.605 72.3868 106.586 69.4024L116.459 62H229C235.627 62 241 67.3726 241 74V108V198C241 204.627 235.627 210 229 210H29C22.3726 210 17 204.627 17 198L17 108V86C17 79.3726 22.3726 74 29 74H87H92.789Z" fill="url(#paint1_linear_2043_35747)"/>
</g>
<path d="M70 138.883H186.229V177.395C186.229 186.445 178.836 193.376 169.185 193.376H87.0443C77.3914 193.376 70 186.445 70 177.395V138.883Z" fill="black"/>
<path d="M93.5143 133.041C89.9194 129.669 84.0898 129.669 80.495 133.041C76.9001 136.412 76.9001 141.877 80.495 145.25C84.0898 148.62 89.9194 148.62 93.5143 145.25H162.636C166.233 148.62 172.06 148.62 175.657 145.25C179.252 141.877 179.252 136.412 175.657 133.041C172.06 129.669 166.233 129.669 162.636 133.041H93.5143Z" fill="#FFB13B" stroke="black" stroke-width="12.9801"/>
<path d="M108.239 111.914C108.239 107.144 104.117 103.279 99.0326 103.279C93.9459 103.279 89.8242 107.144 89.8242 111.914C89.8242 116.681 93.9459 120.546 99.0326 120.546L147.908 166.375C147.908 171.143 152.03 175.008 157.114 175.008C162.199 175.008 166.321 171.143 166.321 166.375C166.321 161.608 162.199 157.744 157.114 157.744L108.239 111.914Z" fill="#FFB13B" stroke="black" stroke-width="12.9937"/>
<path d="M134.585 106.739C138.179 103.366 138.179 97.9006 134.585 94.5279C130.987 91.1574 125.158 91.1574 121.563 94.5279C117.968 97.9006 117.968 103.366 121.563 106.739V171.551C117.968 174.922 117.968 180.389 121.563 183.759C125.158 187.132 130.987 187.132 134.585 183.759C138.179 180.389 138.179 174.922 134.585 171.551V106.739Z" fill="#FFB13B" stroke="black" stroke-width="12.9801"/>
<path d="M157.114 120.546C162.199 120.546 166.321 116.681 166.321 111.914C166.321 107.144 162.199 103.279 157.114 103.279C152.03 103.279 147.908 107.144 147.908 111.914L99.0326 157.744C93.9459 157.744 89.8242 161.608 89.8242 166.375C89.8242 171.143 93.9459 175.008 99.0326 175.008C104.117 175.008 108.239 171.143 108.239 166.375L157.114 120.546Z" fill="#FFB13B" stroke="black" stroke-width="12.9937"/>
<path d="M93.5143 133.041C89.9194 129.669 84.0898 129.669 80.495 133.041C76.9001 136.412 76.9001 141.877 80.495 145.25C84.0898 148.62 89.9194 148.62 93.5143 145.25H162.636C166.233 148.62 172.06 148.62 175.657 145.25C179.252 141.877 179.252 136.412 175.657 133.041C172.06 129.669 166.233 129.669 162.636 133.041H93.5143Z" fill="#FFB13B"/>
<path d="M108.239 111.914C108.239 107.144 104.117 103.279 99.0326 103.279C93.9459 103.279 89.8242 107.144 89.8242 111.914C89.8242 116.681 93.9459 120.546 99.0326 120.546L147.908 166.375C147.908 171.143 152.03 175.008 157.114 175.008C162.199 175.008 166.321 171.143 166.321 166.375C166.321 161.608 162.199 157.744 157.114 157.744L108.239 111.914Z" fill="#FFB13B"/>
<path d="M134.585 106.739C138.179 103.366 138.179 97.9006 134.585 94.5279C130.987 91.1574 125.158 91.1574 121.563 94.5279C117.968 97.9006 117.968 103.366 121.563 106.739V171.551C117.968 174.922 117.968 180.389 121.563 183.759C125.158 187.132 130.987 187.132 134.585 183.759C138.179 180.389 138.179 174.922 134.585 171.551V106.739Z" fill="#FFB13B"/>
<path d="M157.114 120.546C162.199 120.546 166.321 116.681 166.321 111.914C166.321 107.144 162.199 103.279 157.114 103.279C152.03 103.279 147.908 107.144 147.908 111.914L99.0326 157.744C93.9459 157.744 89.8242 161.608 89.8242 166.375C89.8242 171.143 93.9459 175.008 99.0326 175.008C104.117 175.008 108.239 171.143 108.239 166.375L157.114 120.546Z" fill="#FFB13B"/>
<path d="M70 139.41H186.229V177.923C186.229 186.973 178.836 193.903 169.185 193.903H87.0443C77.3914 193.903 70 186.973 70 177.923V139.41Z" fill="black" fill-opacity="0.9"/>
<path d="M87.3982 166.345C84.6718 163.789 82.9844 160.26 82.9844 156.363C82.9844 148.564 89.7317 142.24 98.045 142.24C106.362 142.24 113.108 148.564 113.108 156.363H104.286C104.286 153.132 101.49 150.514 98.045 150.514C94.6003 150.514 91.808 153.132 91.808 156.363C91.808 157.976 92.5076 159.439 93.6311 160.492H93.6353C94.7649 161.556 95.7053 161.863 98.045 162.213C102.206 162.618 105.969 163.793 108.696 166.349C111.422 168.906 113.108 172.435 113.108 176.333C113.108 184.131 106.362 190.457 98.045 190.457C89.7317 190.457 82.9844 184.131 82.9844 176.333H91.808C91.808 179.564 94.6003 182.185 98.045 182.185C101.49 182.185 104.286 179.564 104.286 176.333C104.286 174.719 103.589 173.261 102.463 172.203H102.459C101.329 171.143 99.7076 170.779 98.045 170.487V170.485C94.0118 169.905 90.1247 168.902 87.3982 166.345Z" fill="white"/>
<path d="M143.233 142.24L132.578 190.457H123.756L113.109 142.24H121.933L128.176 170.48L134.409 142.24H143.233Z" fill="white"/>
<path d="M158.297 162.214H173.355V176.335H173.36C173.36 184.135 166.614 190.461 158.297 190.461C149.977 190.461 143.236 184.135 143.236 176.335V156.365H143.232C143.232 148.566 149.977 142.244 158.297 142.244C166.61 142.244 173.355 148.566 173.355 156.365H164.534C164.534 153.138 161.738 150.516 158.297 150.516C154.85 150.516 152.058 153.138 152.058 156.365V176.335C152.058 179.566 154.85 182.185 158.297 182.185C161.738 182.185 164.53 179.566 164.534 176.339V170.491H158.297V162.214Z" fill="white"/>
</g>
<defs>
<filter id="filter0_f_2043_35747" x="-20" y="25" width="298" height="184" filterUnits="userSpaceOnUse" color-interpolation-filters="sRGB">
<feFlood flood-opacity="0" result="BackgroundImageFix"/>
<feBlend mode="normal" in="SourceGraphic" in2="BackgroundImageFix" result="shape"/>
<feGaussianBlur stdDeviation="18.5" result="effect1_foregroundBlur_2043_35747"/>
</filter>
<filter id="filter1_ii_2043_35747" x="17" y="62" width="224" height="148" filterUnits="userSpaceOnUse" color-interpolation-filters="sRGB">
<feFlood flood-opacity="0" result="BackgroundImageFix"/>
<feBlend mode="normal" in="SourceGraphic" in2="BackgroundImageFix" result="shape"/>
<feColorMatrix in="SourceAlpha" type="matrix" values="0 0 0 0 0 0 0 0 0 0 0 0 0 0 0 0 0 0 127 0" result="hardAlpha"/>
<feOffset dy="-4"/>
<feComposite in2="hardAlpha" operator="arithmetic" k2="-1" k3="1"/>
<feColorMatrix type="matrix" values="0 0 0 0 0 0 0 0 0 0 0 0 0 0 0 0 0 0 0.25 0"/>
<feBlend mode="normal" in2="shape" result="effect1_innerShadow_2043_35747"/>
<feColorMatrix in="SourceAlpha" type="matrix" values="0 0 0 0 0 0 0 0 0 0 0 0 0 0 0 0 0 0 127 0" result="hardAlpha"/>
<feOffset dy="4"/>
<feComposite in2="hardAlpha" operator="arithmetic" k2="-1" k3="1"/>
<feColorMatrix type="matrix" values="0 0 0 0 1 0 0 0 0 1 0 0 0 0 1 0 0 0 0.25 0"/>
<feBlend mode="normal" in2="effect1_innerShadow_2043_35747" result="effect2_innerShadow_2043_35747"/>
</filter>
<linearGradient id="paint0_linear_2043_35747" x1="17" y1="34" x2="197.768" y2="215.142" gradientUnits="userSpaceOnUse">
<stop stop-color="#05815D"/>
<stop offset="1" stop-color="#0C575F"/>
</linearGradient>
<linearGradient id="paint1_linear_2043_35747" x1="17" y1="62" x2="241" y2="210" gradientUnits="userSpaceOnUse">
<stop stop-color="#5F585E"/>
<stop offset="1" stop-color="#010101"/>
</linearGradient>
<clipPath id="clip0_2043_35747">
<rect width="256" height="256" fill="white"/>
</clipPath>
</defs>
</svg>
