<svg id="Layer_1" data-name="Layer 1" xmlns="http://www.w3.org/2000/svg" xmlns:xlink="http://www.w3.org/1999/xlink" width="256" height="256" viewBox="0 0 256 256">
  <defs>
    <style>
      .cls-1, .cls-2, .cls-4, .cls-5, .cls-6, .cls-7 {
        fill-rule: evenodd;
      }

      .cls-1 {
        fill: url(#linear-gradient);
      }

      .cls-2 {
        fill: url(#linear-gradient-2);
      }

      .cls-3 {
        mask: url(#mask);
      }

      .cls-4 {
        fill: #a6a1a1;
      }

      .cls-5 {
        fill: #01a0a1;
      }

      .cls-6 {
        opacity: 0.16;
      }

      .cls-7 {
        fill: #fff;
        opacity: 0.2;
      }

      .cls-8 {
        fill: #fcfcfc;
      }
    </style>
    <linearGradient id="linear-gradient" x1="32.58" y1="239.55" x2="213.35" y2="58.41" gradientTransform="matrix(1, 0, 0, -1, 0, 258)" gradientUnits="userSpaceOnUse">
      <stop offset="0" stop-color="#05815d"/>
      <stop offset="1" stop-color="#0c575f"/>
    </linearGradient>
    <linearGradient id="linear-gradient-2" x1="129" y1="20.71" x2="129" y2="93.36" gradientUnits="userSpaceOnUse">
      <stop offset="0" stop-color="#01a0a1"/>
      <stop offset="0.24" stop-color="#019b9b"/>
      <stop offset="0.56" stop-color="#018e8b"/>
      <stop offset="0.91" stop-color="#007770"/>
      <stop offset="0.98" stop-color="#00726a"/>
    </linearGradient>
    <mask id="mask" x="17" y="34" width="224" height="138" maskUnits="userSpaceOnUse">
      <g id="mask0_501_11930" data-name="mask0 501 11930">
        <path class="cls-1" d="M104.43,42.38A23,23,0,0,0,86.67,34H29A12,12,0,0,0,17,46V160a12,12,0,0,0,12,12H229a12,12,0,0,0,12-12V70.14a12,12,0,0,0-12-12H117.4Z"/>
      </g>
    </mask>
  </defs>
  <path class="cls-2" d="M104.43,42.38A23,23,0,0,0,86.67,34H29A12,12,0,0,0,17,46V160a12,12,0,0,0,12,12H229a12,12,0,0,0,12-12V70.14a12,12,0,0,0-12-12H117.4Z"/>
  <g class="cls-3">
    <path class="cls-4" d="M92.79,74a23,23,0,0,0,13.8-4.6l9.87-7.4H229a12,12,0,0,1,12,12v86a12,12,0,0,1-12,12H29a12,12,0,0,1-12-12V86A12,12,0,0,1,29,74H92.79Z"/>
  </g>
  <path class="cls-5" d="M92.79,74a23,23,0,0,0,13.8-4.6l9.87-7.4H229a12,12,0,0,1,12,12V198a12,12,0,0,1-12,12H29a12,12,0,0,1-12-12V86A12,12,0,0,1,29,74H92.79Z"/>
  <path class="cls-6" d="M17,194v4a12,12,0,0,0,12,12H229a12,12,0,0,0,12-12v-4a12,12,0,0,1-12,12H29A12,12,0,0,1,17,194Z"/>
  <path class="cls-7" d="M106.59,69.4A23,23,0,0,1,92.79,74H29A12,12,0,0,0,17,86v4A12,12,0,0,1,29,78H92.79a23,23,0,0,0,13.8-4.6l9.87-7.4H229a12,12,0,0,1,12,12V74a12,12,0,0,0-12-12H116.46Z"/>
  <g id="Taghche_Logo" data-name="Taghche Logo">
    <path class="cls-8" d="M189.52,161.82c0,14.22-11.35,24.94-26.39,24.94H95.77a2.35,2.35,0,0,1-2-3.62l3-5.7a1.58,1.58,0,0,1,1.39-.83h64.91c9.41,0,16.25-6.23,16.25-14.8s-7.14-15.53-16.25-15.53H113.21a14.94,14.94,0,0,1-5.53-1l-.07,0-.15-.05-.07,0a13,13,0,0,1-8.81-9,.14.14,0,0,0,0-.06,11.74,11.74,0,0,1-.25-1.34V91.19a2.26,2.26,0,0,1,1-1.87l6.29-3.49a1.91,1.91,0,0,1,3.07,1.51v42.84a6.54,6.54,0,0,0,4.19,6h50.28C177.93,136.15,189.52,147.42,189.52,161.82Z"/>
    <rect class="cls-8" x="107.68" y="151.73" width="62.57" height="3.26" rx="1.63"/>
    <rect class="cls-8" x="109.75" y="159.82" width="63.86" height="3.26" rx="1.63"/>
    <rect class="cls-8" x="107.93" y="168.36" width="62.31" height="3.26" rx="1.63"/>
  </g>
</svg>
