<?xml version="1.0" encoding="UTF-8" standalone="no"?>
<svg
   id="Layer_1"
   data-name="Layer 1"
   viewBox="0 0 256 256"
   version="1.1"
   sodipodi:docname="tencent_wemeet.svg"
   xml:space="preserve"
   inkscape:version="1.4 (86a8ad7, 2024-10-11)"
   xmlns:inkscape="http://www.inkscape.org/namespaces/inkscape"
   xmlns:sodipodi="http://sodipodi.sourceforge.net/DTD/sodipodi-0.dtd"
   xmlns:xlink="http://www.w3.org/1999/xlink"
   xmlns="http://www.w3.org/2000/svg"
   xmlns:svg="http://www.w3.org/2000/svg"><sodipodi:namedview
     id="namedview11"
     pagecolor="#ffffff"
     bordercolor="#000000"
     borderopacity="0.25"
     inkscape:showpageshadow="2"
     inkscape:pageopacity="0.0"
     inkscape:pagecheckerboard="0"
     inkscape:deskcolor="#d1d1d1"
     inkscape:zoom="1.5274611"
     inkscape:cx="126.35346"
     inkscape:cy="147.6306"
     inkscape:window-width="1366"
     inkscape:window-height="745"
     inkscape:window-x="-8"
     inkscape:window-y="-8"
     inkscape:window-maximized="1"
     inkscape:current-layer="Layer_1" /><defs
     id="defs6"><style
       id="style1">
      .cls-1 {
        fill: #fff;
      }
      .cls-2 {
        fill: url(#_未命名的渐变_5);
      }
      .cls-2, .cls-3, .cls-4, .cls-5, .cls-6 {
        fill-rule: evenodd;
      }
      .cls-3 {
        fill: url(#_未命名的渐变_4-2);
      }
      .cls-4 {
        fill: url(#_未命名的渐变_3);
      }
      .cls-5 {
        fill: url(#_未命名的渐变_4);
      }
      .cls-6 {
        fill: #a6a1a1;
      }
    </style><linearGradient
       id="_未命名的渐变_4"
       data-name="未命名的渐变 4"
       x1="17"
       y1="155"
       x2="241"
       y2="155"
       gradientTransform="translate(0 258) scale(1 -1)"
       gradientUnits="userSpaceOnUse"><stop
         offset="0"
         stop-color="#2f6cfa"
         id="stop1" /><stop
         offset="1"
         stop-color="#03c"
         id="stop2" /></linearGradient><linearGradient
       id="_未命名的渐变_3"
       data-name="未命名的渐变 3"
       x1="166.00122"
       y1="896.96149"
       x2="91.998871"
       y2="1155.0383"
       gradientTransform="translate(0,-890)"
       gradientUnits="userSpaceOnUse"><stop
         offset="0"
         stop-color="#39f"
         id="stop3"
         style="stop-color:#0099ff;stop-opacity:1;" /><stop
         offset="0.94999999"
         stop-color="#36f"
         id="stop4"
         style="stop-color:#0055ff;stop-opacity:1;" /></linearGradient><linearGradient
       id="_未命名的渐变_4-2"
       data-name="未命名的渐变 4"
       x1="16.93"
       y1="1090.68"
       x2="240.94"
       y2="1093.18"
       gradientTransform="translate(0 -890)"
       xlink:href="#_未命名的渐变_4" /><linearGradient
       id="_未命名的渐变_5"
       data-name="未命名的渐变 5"
       x1="17"
       y1="966"
       x2="241"
       y2="966"
       gradientTransform="translate(0 -890)"
       gradientUnits="userSpaceOnUse"><stop
         offset="0"
         stop-color="#39f"
         id="stop5" /><stop
         offset="1"
         stop-color="#39f"
         id="stop6" /></linearGradient></defs><path
     class="cls-5"
     d="m104.43,42.38c-4.37-5.31-10.88-8.38-17.75-8.38H29c-6.63,0-12,5.37-12,12v114c0,6.63,5.37,12,12,12h200c6.63,0,12-5.37,12-12v-89.86c0-6.63-5.37-12-12-12h-111.6l-12.98-15.76h.01Z"
     id="path6"
     inkscape:label="path6" /><path
     class="cls-6"
     d="m92.79,74c4.98,0,9.82-1.61,13.8-4.6l9.87-7.4h112.54c6.63,0,12,5.37,12,12v86c0,6.63-5.37,12-12,12H29c-6.63,0-12-5.37-12-12v-74c0-6.63,5.37-12,12-12h63.79Z"
     id="path7" /><path
     class="cls-4"
     d="m92.79,74c4.98,0,9.82-1.61,13.8-4.6l9.87-7.4h112.54c6.63,0,12,5.37,12,12v124c0,6.63-5.37,12-12,12H29c-6.63,0-12-5.37-12-12v-112c0-6.63,5.37-12,12-12h63.79Z"
     id="path8" /><path
     class="cls-3"
     d="m17,194v4c0,6.63,5.37,12,12,12h200c6.63,0,12-5.37,12-12v-4c0,6.63-5.37,12-12,12H29c-6.63,0-12-5.37-12-12Z"
     id="path9" /><path
     class="cls-2"
     d="m106.59,69.4c-3.98,2.98-8.82,4.6-13.8,4.6H29c-6.63,0-12,5.37-12,12v4c0-6.63,5.37-12,12-12h63.79c4.98,0,9.82-1.61,13.8-4.6l9.87-7.4h112.54c6.63,0,12,5.37,12,12v-4c0-6.63-5.37-12-12-12h-112.54l-9.87,7.4Z"
     id="path10" /><g
     id="g17"
     transform="matrix(2.4947553,0,0,2.4947553,-180.89317,-220.35498)"><path
       style="fill:#e7f0fe;fill-opacity:1;stroke-width:10;paint-order:stroke fill markers"
       d="m 111.90956,125.68855 -0.0542,25.05286 -12.730556,13.07776 -10.595245,-11.31016 c -0.36629,-0.39101 -0.303549,-1.94421 0.04403,-2.30929 z"
       id="path17"
       sodipodi:nodetypes="cccsscc" /><path
       style="fill:#8aafff;fill-opacity:1;stroke-width:10;paint-order:stroke fill markers"
       d="m 111.9132,125.68535 v 25.22966 l 12.72172,-12.24536 z"
       id="path16" /><path
       style="fill:#ffffff;fill-opacity:1;stroke-width:10;paint-order:stroke fill markers"
       d="m 112.02893,150.79928 12.61483,12.73056 12.96203,-12.73056 12.96202,12.84629 9.82672,-10.83441 c 0.99276,-1.09457 0.85348,-2.99623 -0.14799,-4.01352 l -22.52502,-22.88082 z"
       id="path15"
       sodipodi:nodetypes="ccccsscc" /></g></svg>
