<svg width="256" height="256" viewBox="0 0 256 256" fill="none" xmlns="http://www.w3.org/2000/svg">
<path d="M104.425 42.3784C100.056 37.0733 93.5437 34 86.6712 34H29C22.3726 34 17 39.3726 17 46V160C17 166.627 22.3726 172 29 172H229C235.627 172 241 166.627 241 160V70.1371C241 63.5097 235.627 58.1371 229 58.1371H117.404L104.425 42.3784Z" fill="url(#paint0_linear_2492_44767)"/>
<mask id="mask0_2492_44767" style="mask-type:alpha" maskUnits="userSpaceOnUse" x="17" y="34" width="224" height="138">
<path fill-rule="evenodd" clip-rule="evenodd" d="M104.425 42.3784C100.056 37.0733 93.5437 34 86.6712 34H29C22.3726 34 17 39.3726 17 46V58.1371V68.2V160C17 166.627 22.3726 172 29 172H229C235.627 172 241 166.627 241 160V70.1371C241 63.5097 235.627 58.1371 229 58.1371H117.404L104.425 42.3784Z" fill="url(#paint1_linear_2492_44767)"/>
</mask>
<g mask="url(#mask0_2492_44767)">
<g style="mix-blend-mode:multiply" filter="url(#filter0_f_2492_44767)">
<path fill-rule="evenodd" clip-rule="evenodd" d="M92.789 74C97.7642 74 102.605 72.3868 106.586 69.4024L116.459 62H229C235.627 62 241 67.3726 241 74V108V160C241 166.627 235.627 172 229 172H29C22.3726 172 17 166.627 17 160L17 108V86C17 79.3726 22.3726 74 29 74H87H92.789Z" fill="black" fill-opacity="0.3"/>
</g>
</g>
<path d="M104.425 42.3784C100.056 37.0733 93.5437 34 86.6712 34H29C22.3726 34 17 39.3726 17 46V160C17 166.627 22.3726 172 29 172H229C235.627 172 241 166.627 241 160V70.1371C241 63.5097 235.627 58.1371 229 58.1371H117.404L104.425 42.3784Z" fill="url(#paint2_linear_2492_44767)"/>
<mask id="mask1_2492_44767" style="mask-type:alpha" maskUnits="userSpaceOnUse" x="17" y="34" width="224" height="138">
<path fill-rule="evenodd" clip-rule="evenodd" d="M104.425 42.3784C100.056 37.0733 93.5437 34 86.6712 34H29C22.3726 34 17 39.3726 17 46V58.1371V68.2V160C17 166.627 22.3726 172 29 172H229C235.627 172 241 166.627 241 160V70.1371C241 63.5097 235.627 58.1371 229 58.1371H117.404L104.425 42.3784Z" fill="url(#paint3_linear_2492_44767)"/>
</mask>
<g mask="url(#mask1_2492_44767)">
<g style="mix-blend-mode:multiply" filter="url(#filter1_f_2492_44767)">
<path fill-rule="evenodd" clip-rule="evenodd" d="M92.789 74C97.7642 74 102.605 72.3868 106.586 69.4024L116.459 62H229C235.627 62 241 67.3726 241 74V108V160C241 166.627 235.627 172 229 172H29C22.3726 172 17 166.627 17 160L17 108V86C17 79.3726 22.3726 74 29 74H87H92.789Z" fill="black" fill-opacity="0.3"/>
</g>
</g>
<g filter="url(#filter2_ii_2492_44767)">
<path d="M92.789 74C97.7642 74 102.605 72.3868 106.586 69.4024L116.459 62H229C235.627 62 241 67.3726 241 74V198C241 204.627 235.627 210 229 210H29C22.3726 210 17 204.627 17 198L17 86C17 79.3726 22.3726 74 29 74H92.789Z" fill="url(#paint4_linear_2492_44767)"/>
</g>
<path fill-rule="evenodd" clip-rule="evenodd" d="M81.2005 84.1931C80.9019 83.9498 80.8726 83.0677 80.8358 82.2524C80.7912 81.269 81.079 80.0895 81.6951 80.0161C81.8292 80 83.2186 79.249 84.5622 78.4445C85.6817 77.7742 91.4206 73.636 91.4916 73.6303C92.3933 73.5594 88.1823 77.5807 88.1602 77.5844C88.0239 77.6065 85.0888 80.2427 85.0888 80.5C84.716 80.5 82.3711 83.4491 82.1784 83.8998C82.0959 84.0928 81.5677 84.492 81.2005 84.1931ZM75.0577 89.5696C75.6474 88.4625 75.9726 87.6647 76.5449 86.9C77.0822 86.1818 77.3494 85.3298 77.8579 84.8438C78.6748 84.0638 78.811 83.1115 78.9659 83.2287C79.0685 83.3063 79.9125 84.5057 79.7182 85.6236C79.5177 86.7772 78.4573 88.0329 77.6461 88.6017C77.3666 88.7974 75.0201 91.5734 74.3664 92.1314C74.2731 92.2112 74.1801 92.1599 74.1683 92.1392C74.0296 91.8938 74.3642 90.8719 75.0577 89.5696ZM85.7925 107.389C85.7624 107.323 85.4998 106.796 85.5097 106.129C85.5164 105.673 85.768 105.187 85.8446 104.596C85.983 103.535 86.4101 102.375 86.4018 101.323C86.3897 99.8259 85.6248 98.9064 85.6248 98.4568C85.6248 97.5219 86.3792 96.6459 86.8717 96.3806C89.7302 94.84 91.6504 93.1028 94.0297 91.7524C96.1512 90.5483 98.3373 89.1828 100.824 88.2461C102.417 87.6456 104.146 87.3462 106.02 86.9678C107.903 86.5874 109.526 86.1337 109.511 86.4928C109.486 87.0809 106.56 89.1344 103.744 91.5772C100.45 94.4338 97.1673 97.7138 96.7302 98.1552C96.6299 98.2568 94.8664 99.7432 92.8812 101.461C90.5436 103.483 87.8522 105.73 87.1278 106.447C86.4456 107.123 85.9613 107.756 85.7925 107.389ZM50.618 108.052C50.5922 108.049 50.2114 108.252 49.8652 107.913C49.401 107.458 49.4816 106.93 49.4518 106.524C49.4217 106.119 49.5655 105.528 50.0326 104.993C50.757 104.163 51.8085 103.644 52.7275 103.137C53.6626 102.621 53.9518 102.039 54.1905 102.696C54.2136 102.76 54.0222 102.856 53.8626 103.052C53.629 103.337 53.3615 103.785 53.0976 104.238C52.6697 104.973 52.0528 105.711 51.6249 106.449C51.0922 107.368 50.761 108.071 50.618 108.052ZM46.6618 112.905C46.765 112.722 47.5552 109.215 48.0476 108.85C48.4118 108.58 48.5505 109.197 48.603 109.303C48.7089 109.517 48.9389 109.62 48.8911 110.097C48.7379 111.621 47.6138 113.002 46.9445 113.506C46.8419 113.584 46.4785 113.23 46.6618 112.905ZM127.555 113.402C127.431 112.702 127.821 112.12 127.951 111.766C128.305 110.797 130.7 109.333 130.7 109.011C130.952 109.011 132.805 107.481 132.805 107.236C132.981 107.236 135.877 104.586 135.877 104.482C136.199 104.482 137.982 102.024 137.982 103.019C137.963 103.019 135.393 106.173 135.393 106.257C135.321 106.257 132.644 109.117 132.644 109.345C132.327 109.345 129.253 113.263 129.078 113.552C128.972 113.727 128.908 114.227 128.336 114.331C128.169 114.362 127.93 114.423 127.812 114.294C127.616 114.08 127.588 113.589 127.555 113.402ZM72.029 119.858C71.8261 119.791 71.9685 118.668 72.1053 117.831C72.3174 116.535 73.1754 114.236 73.7525 113.137C74.6349 111.458 75.8753 109.809 76.922 108.356C78.506 106.156 79.5714 104.367 79.7494 104.269C79.9864 104.139 80.6493 105.149 81.608 106.137C82.1007 106.644 82.8184 107.025 83.1646 107.606C83.7419 108.573 83.6497 109.796 82.4155 110.885C81.6706 111.541 80.3453 112.041 79.3228 113.031C78.0009 114.31 76.6425 116.018 75.3859 117.291C73.7699 118.926 72.3771 119.972 72.029 119.858ZM42.3878 120.363C41.5452 119.844 43.2377 106.07 43.6062 105.256C43.8581 104.7 43.8535 95.9603 44.683 96.5419C45.2636 96.9489 45.4759 99.5824 46.2903 101.893C46.7171 103.104 47.3297 104.237 47.6025 105.284C47.7842 105.982 47.6482 106.421 47.649 106.84C47.6506 107.696 46.1589 111.927 46.1035 111.927C46.1035 113.683 43.7578 121.207 42.3878 120.363ZM116.953 127.646C116.953 127.289 118.871 124.408 119.059 124.408C119.059 124.046 122.425 119.383 122.452 119.383C122.452 119.249 124.151 116.842 124.235 116.79C124.287 116.758 124.89 116.931 124.436 118.393C124.375 118.589 124.52 119.096 124.208 119.542C123.908 119.97 123.342 120.291 122.816 120.834C122.22 121.449 121.647 122.302 121.079 123.056C119.405 125.277 117.701 127.646 116.953 127.646ZM84.5383 127.82C85.2095 127.294 85.8409 127.063 86.2443 127.123C86.7827 127.203 86.927 128.17 86.9676 128.716C87.0353 129.625 86.6238 130.351 85.864 131.091C85.128 131.806 84.2338 131.69 83.7422 131.163C83.4148 130.812 83.371 129.895 83.3828 129.486C83.4073 128.648 83.925 128.301 84.5383 127.82ZM59.2931 131.093C59.1281 130.427 59.3509 130.383 59.1993 129.999C58.9776 129.438 58.2747 128.674 57.0184 128.5C56.7751 128.467 56.3835 128.282 56.2953 128.142C55.1861 126.364 57.5017 126.412 58.4005 126.033C59.0797 125.747 59.9707 125.879 60.9161 125.883C61.9208 125.888 65.3817 125.597 66.5036 125.119C66.7261 125.024 65.4077 126.702 65.2763 126.688C65.2338 126.683 63.2209 128.768 62.933 128.948C62.5634 129.18 61.3501 130.08 61.1499 130.4C60.9787 130.675 60.5414 131 60.2702 131.324C59.9793 131.672 59.8522 132.008 59.6119 131.905C59.4571 131.839 59.3885 131.477 59.2931 131.093ZM78.7043 132.893C78.6245 132.707 78.6662 132.371 78.635 132.035C78.6076 131.737 78.4987 131.442 78.5482 131.215C78.6207 130.885 79.111 130.825 79.429 130.562C79.6921 130.344 82.266 128.713 82.2889 129.291C82.3077 129.764 82.3332 130.486 82.1429 131.089C82.1316 131.125 81.4986 131.635 80.7439 132.069C79.8332 132.592 78.7678 133.04 78.7043 132.893ZM77.8071 134.779C77.7259 135.204 77.5378 135.304 77.369 135.479C77.0798 135.781 76.8 135.92 76.4516 135.873C76.2425 135.845 75.9635 135.827 75.7694 135.519C75.1542 134.543 75.2644 133.395 75.6832 132.883C76.0256 132.464 76.5215 132.093 76.8798 132.159C78.0541 132.375 77.9821 133.864 77.8071 134.779ZM86.1333 137.497C85.7317 137.49 85.0402 135.939 86.7426 136.144C86.8889 136.162 87.0646 136.668 86.9383 137.083C86.8198 137.473 86.566 137.505 86.1333 137.497ZM84.4537 136.501C84.7249 136.558 84.7249 137.124 84.7259 137.318C84.7297 137.959 84.4163 138.072 84.1806 138.145C83.9048 138.231 83.5301 138.262 83.314 138.005C83.1232 137.777 83.0683 137.282 83.1396 137.011C83.2264 136.682 83.3917 136.281 84.4537 136.501ZM80.0434 139.429C80.0198 140.027 79.737 140.112 79.4593 140.139C78.811 140.2 78.7307 139.871 78.761 139.202C78.7704 138.998 78.6831 138.699 78.8884 138.526C79.2524 138.217 79.6803 138.358 79.8969 138.641C80.0708 138.868 80.0504 139.254 80.0434 139.429ZM77.3359 140.624C77.2005 139.782 77.6109 139.617 77.7918 139.687C77.9966 139.766 78.1767 140.063 78.1796 140.09C78.2597 140.846 77.4107 141.089 77.3359 140.624ZM74.4134 142.397C74.4134 141.872 74.2524 141.746 74.2524 141.095C73.9081 141.095 72.959 130.4 73.9304 130.4C73.9304 129.637 74.3701 127.646 75.0577 127.646C75.0577 127.131 78.2901 126.258 78.2901 125.871C78.5917 125.871 80.8785 124.395 80.8785 124.247C81.2202 124.247 83.95 122.484 83.95 122.299C84.8536 122.299 85.8422 120.847 86.7107 120.847C86.7107 120.613 89.0857 119.706 89.4601 119.706C89.4601 119.632 90.2654 119.039 90.2654 119.383C90.7341 119.383 90.4417 119.545 90.9096 119.545C90.9096 120.198 91.8359 127.646 92.0485 127.646C92.0485 130.034 93.3368 131.819 93.3368 134.296C93.1097 134.296 92.9667 135.586 92.5315 135.586C92.5315 136.519 88.3212 137.395 88.3212 137.695C87.8057 137.695 83.4667 139.595 83.4667 139.643C83.0697 139.643 79.59 141.168 79.59 141.256C78.6414 141.256 77.6961 142.236 76.5186 142.236C76.5186 142.57 74.7932 142.397 74.4134 142.397ZM48.2086 144.022C47.7778 143.912 47.4472 143.287 47.3139 142.701C46.973 141.205 47.1004 139.068 47.6482 137.019C48.2194 134.882 49.373 133.083 49.6695 132.671C50.3253 131.759 51.6265 130.202 52.6114 129.211C53.0925 128.727 53.4016 128.265 53.7099 128.298C54.023 128.331 54.5297 128.818 54.0236 129.599C53.8507 129.867 53.3591 129.879 53.1669 130.107C52.9702 130.341 52.6264 131.16 52.5659 131.859C52.5038 132.581 52.7312 133.182 52.9213 133.421C53.2489 133.834 53.7016 134.389 54.1416 134.649C54.5297 134.878 54.9318 134.812 54.8963 135.15C54.8753 135.349 54.7797 135.856 54.4875 135.645C54.276 135.492 53.9875 134.934 53.718 134.676C53.5083 134.475 53.3097 134.522 53.1672 134.651C52.9119 134.881 53.7247 135.358 53.6104 136.08C53.4959 136.801 52.4539 137.766 52.2154 137.956C52.0273 138.106 51.7964 138.122 51.6644 138.256C51.3827 138.542 51.4295 138.937 51.5437 139.068C51.7007 139.249 52.1555 139.368 52.2103 139.638C52.2977 140.07 52.013 140.668 51.6841 141.181C51.2481 141.859 50.4839 142.297 49.8859 142.867C49.1811 143.538 48.7481 144.16 48.2086 144.022ZM76.7529 151.122C76.6301 151.028 76.2237 149.551 75.7219 148.318C75.4208 147.578 74.8048 147.039 74.9811 146.625C75.1316 146.272 75.5966 146.319 75.9218 146.564C76.1173 146.712 76.1076 147.001 76.3817 147.121C76.9588 147.374 77.9998 147.019 78.8317 146.613C79.2096 146.429 79.6144 146.356 79.79 146.11C79.941 145.899 79.9851 145.723 79.7719 145.639C79.0519 145.356 76.5406 145.522 75.0547 145.529C74.4615 145.531 74.1554 144.372 74.1503 144.113C74.143 143.757 74.8937 143.981 75.9614 144.125C78.313 144.443 81.5381 144.566 83.7771 144.191C84.2128 144.118 85.8333 143.11 87.7772 142.08C88.1414 141.887 92.1122 139.897 94.4262 138.749C95.2629 138.334 95.862 138.081 95.9249 137.857C96.0158 137.532 95.944 136.738 96.1322 135.988C96.5754 134.217 97.2097 133.363 98.9738 133.988C99.442 134.153 99.5135 134.153 99.8497 134.658C100.038 134.94 100.14 135.406 99.997 135.782C99.8454 136.183 99.4457 136.494 99.5745 136.869C99.7812 137.469 100.445 137.891 100.783 138.381C101.1 138.84 101.589 138.882 101.665 139.217C101.883 140.172 101.1 141.019 100.247 141.243C99.1501 141.532 97.6828 141.037 97.6715 140.494C97.65 139.434 92.7457 141.629 92.5315 141.752C92.1584 141.966 89.2991 143.239 89.2991 143.527C89.1512 143.527 88.9354 143.622 88.8392 143.728C88.7908 143.782 88.5102 144.1 88.8972 144.194C89.3345 144.301 90.0337 144.271 90.7992 144.261C91.6668 144.249 92.6202 144.231 93.375 143.894C93.8886 143.666 94.2154 143.226 94.495 142.821C94.7011 142.522 94.9694 142.34 94.9586 141.913C94.9433 141.302 95.7731 141.039 96.5197 141.038C97.3148 141.036 97.5164 141.505 98.0301 142.236C98.2454 142.541 98.1989 143.303 97.9658 143.769C97.8062 144.087 97.489 144.128 97.3858 144.345C97.0528 145.046 97.5866 145.554 97.9935 146.088C98.2378 146.408 98.4507 146.837 98.3644 147.046C98.2548 147.312 98.1357 147.628 97.872 147.773C97.4621 147.998 96.6834 148.142 96.127 147.937C95.1454 147.574 94.5447 146.438 94.3074 145.9C94.2466 145.763 93.708 145.86 92.9293 145.851C90.7602 145.827 86.2309 145.881 84.1728 145.728C83.6919 145.692 83.1896 145.929 82.6695 146.17C82.0421 146.46 81.3884 146.795 80.7159 147.186C79.6967 147.777 78.592 148.246 77.8364 148.5C77.6098 148.575 77.7152 149.092 77.6391 149.601C77.5281 150.344 77.0809 151.373 76.7529 151.122ZM39.1554 155.039C39.1554 153.109 41.0643 131.38 41.249 131.38C41.249 128.934 42.4854 135.264 42.5488 135.264C42.5488 136.929 45.4512 144.183 46.7591 144.183C46.7591 147.174 42.0655 147.587 42.0655 149.369C39.9798 149.369 43.5151 153.746 43.5151 151.951C44.3255 151.951 48.2086 149.547 48.2086 150.176C47.9436 150.176 47.8283 150.66 47.5644 150.66C47.5644 151.033 43.9981 151.805 43.9981 152.446C42.8671 152.446 41.088 155.039 39.1554 155.039ZM119.864 160.871C119.864 160.737 118.793 160.22 118.391 159.82C118.194 159.624 117.732 159.279 117.61 159.135C117.014 158.433 116.161 157.106 115.622 156.368C114.387 154.678 112.41 154.111 111.577 151.787C111.429 151.373 111.205 151.178 110.968 150.826C110.568 150.231 109.793 148.977 109.258 147.714C108.754 146.527 108.483 145.322 108.33 144.946C108.113 144.412 107.246 140.673 107.342 140.603C107.366 140.586 107.735 140.423 107.73 140.548C107.696 141.445 108.512 143.771 108.383 143.849C108.368 143.859 110.931 150.042 111.946 151.489C112.143 151.769 112.273 151.922 112.468 152.231C112.727 152.641 113.075 153.368 113.614 153.935C114.644 155.017 115.999 155.966 116.148 156.169C116.403 156.517 117.623 158.399 118.356 159.035C118.468 159.133 118.773 159.392 118.891 159.477C118.977 159.538 119.882 159.896 119.943 160.269C119.964 160.393 120.192 160.871 119.864 160.871ZM108.705 160.225C108.601 160.07 108.437 159.717 108.732 159.715C109.891 159.707 113.711 160.965 113.892 161.297C113.896 161.305 113.09 161.619 112.354 162.026C111.64 162.42 111.341 162.842 110.981 162.899C110.374 162.995 109.553 162.379 109.127 161.631C108.846 161.136 108.909 160.529 108.705 160.225ZM83.789 162.98C83.6562 162.951 82.4703 162.165 81.8333 160.898C81.3288 159.894 80.7014 159.036 80.2732 158.225C79.5303 156.817 79.111 155.604 78.6627 154.694C78.2673 153.89 77.8138 153.336 77.598 152.874C76.765 151.09 77.5028 151.652 78.3565 152.993C78.961 153.942 79.2983 155.494 79.9716 156.703C80.4643 157.588 80.9748 158.689 81.4239 159.156C81.4704 159.205 82.2655 160.244 82.7592 160.499C82.8643 160.553 82.9205 160.039 83.4933 160.121C84.1634 160.217 84.2303 160.372 84.2983 160.564C84.4281 160.931 84.0201 161.43 84.018 161.893C84.0153 162.429 84.186 163.066 83.789 162.98ZM84.9275 163.302C84.8703 162.593 84.7569 161.986 84.8028 161.411C84.8345 161.018 84.9883 160.639 85.0888 160.225C85.1969 159.781 85.3839 161.094 85.3896 161.167C85.4544 161.981 85.4097 162.549 85.3976 163.42C85.3941 163.676 85.1802 163.92 85.2783 164.249C85.3003 164.323 85.3971 165.865 84.9692 164.793C84.7937 164.353 84.9439 163.507 84.9275 163.302ZM58.7835 165.804C60.4263 165.375 62.1944 163.455 63.8859 163.752C64.2382 163.815 64.9167 163.89 65.0234 164.219C65.0736 164.374 65.3126 164.772 65.0306 164.961C64.9234 165.033 64.1538 164.996 63.7125 165.05C62.6269 165.184 61.523 165.35 61.1585 165.437C60.4535 165.604 59.8877 165.904 59.4719 166.04C59.2058 166.128 58.9827 166.108 58.8843 166.077C58.6722 166.012 58.644 165.84 58.7835 165.804ZM51.5349 160.17C51.476 159.132 51.4362 156.883 51.9157 155.28C53.0933 151.344 52.8003 153.949 52.7304 155.581C52.6993 156.305 52.5729 156.987 52.517 157.875C52.3904 159.884 52.6358 162.105 53.082 163.893C53.3712 165.052 53.8825 166.356 53.7378 166.453C53.4459 166.648 53.2737 166.269 52.8433 165.397C52.3996 164.497 51.6994 163.057 51.5349 160.17ZM112.904 164.27C113.434 164.092 114.414 163.292 114.635 163.883C115.268 165.577 112.95 167.349 112.674 167.041C112.113 166.413 111.463 165.913 111.867 165.23C112.162 164.731 112.726 164.33 112.904 164.27ZM86.3771 165.734C86.1677 165.148 86.2532 164.579 86.2696 163.995C86.2903 163.244 86.2838 162.481 86.3104 161.761C86.337 161.043 86.3809 160.305 86.5384 159.569C86.5951 159.302 86.8752 159.319 86.9622 159.735C87.038 160.096 86.941 160.809 87.0386 161.473C87.1724 162.385 87.138 163.479 87.2181 164.378C87.2676 164.933 87.1816 165.488 87.1413 165.956C87.0593 166.899 86.8956 167.467 86.5354 166.809C86.4357 166.627 86.5077 166.1 86.3771 165.734ZM108.866 164.432C108.809 164.627 106.924 161.562 106.922 161.516C106.911 161.112 106.634 160.953 106.473 160.654C106.14 160.035 105.891 159.657 105.936 159.391C105.956 159.269 105.9 159.08 106.165 159.061C106.935 159.008 107.572 160.155 108.269 161.372C108.297 161.42 108.682 161.951 108.965 162.649C109.215 163.264 109.343 164.008 109.679 164.665C110.022 165.338 111.278 166.725 111.13 167.387C110.962 168.136 110.384 167.822 109.933 167.031C109.353 166.014 108.895 164.334 108.866 164.432ZM82.8227 168.65C82.6418 168.604 80.2394 167.84 77.5252 166.994C76.4011 166.644 75.0878 166.309 73.9621 165.97C72.7203 165.597 71.2388 165.6 70.1851 165.212C67.3903 164.181 68.0241 163.496 69.532 163.407C71.0877 163.315 73.5751 163.839 74.2607 164.004C75.8154 164.379 77.1634 165.053 77.9681 165.238C78.36 165.329 78.8538 165.714 79.6886 166.045C80.8323 166.497 82.3864 166.969 83.0949 167.562C83.8551 168.198 83.6414 168.859 82.8227 168.65ZM109.027 169.134C109.011 169.134 108.277 169.135 107.812 168.388C107.461 167.826 107.371 167.019 107.048 166.373C106.115 164.508 103.628 161.886 103.132 159.544C102.931 158.595 102.683 158.488 102.954 158.496C103.182 158.502 103.737 158.469 104.148 158.759C104.386 158.926 104.954 159.662 105.571 160.693C106.27 161.861 107.049 163.403 107.781 164.827C108.958 167.118 109.917 169.143 109.027 169.134ZM67.6486 168.664C67.669 169.135 67.5295 169.224 67.2406 169.259C66.9565 169.294 66.6576 169.369 66.6087 169.258C66.4385 168.875 66.188 168.172 66.4453 167.928C66.5864 167.794 66.7845 167.918 66.9842 167.933C67.7623 167.989 67.6266 168.154 67.6486 168.664ZM69.8696 168.766C69.8373 168.606 69.857 168.3 69.9419 168.221C70.0757 168.099 70.3351 168.313 70.6467 168.441C70.8891 168.542 71.1858 168.515 71.3342 168.722C71.5662 169.046 71.51 169.56 71.1552 169.784C70.9447 169.917 70.7786 169.691 70.5459 169.636C70.3408 169.587 70.0628 169.727 69.9578 169.553C69.825 169.334 69.9112 168.971 69.8696 168.766ZM105.668 169.604C105.533 169.348 105.428 168.887 105.22 168.447C104.533 166.997 103.647 164.731 102.734 162.718C102.083 161.283 101.193 160.165 100.827 159.345C100.589 158.814 100.568 158.538 100.679 158.44C100.864 158.278 101.417 158.613 101.947 159.091C102.491 159.582 102.739 160.264 103.046 160.71C103.137 160.842 104.399 164.11 105.601 166.62C106.423 168.337 107.283 169.479 107.244 169.618C106.941 170.711 106.041 170.311 105.668 169.604ZM59.8503 169.618C59.62 169.33 59.6834 168.922 59.7831 168.555C59.864 168.258 60.2616 168.808 60.7736 169.251C61.4528 169.839 61.8039 170.279 62.2775 169.618C62.4979 169.31 62.8591 169.241 62.9306 169.053C62.9349 169.042 62.9368 167.913 63.3082 167.919C63.412 167.921 63.627 167.771 63.7792 168.052C63.9023 168.28 63.8595 168.652 63.8781 169.031C63.8926 169.322 64.0899 169.514 63.8791 169.735C63.6708 169.953 63.0792 169.886 62.1221 170.101C61.8891 170.154 61.9979 170.237 61.7584 170.265C61.1405 170.337 60.2202 170.08 59.8503 169.618ZM73.6084 169.134C74.0879 169.213 74.0202 169.101 74.5604 169.419C74.8378 169.582 74.7878 169.952 74.6967 170.264C74.6223 170.519 74.9701 170.604 73.9533 170.604C73.4251 170.604 73.2523 169.075 73.6084 169.134ZM103.062 169.657C102.788 169.181 102.682 168.595 102.425 168.025C101.742 166.507 100.96 164.818 100.406 163.51C99.7148 161.88 99.0356 160.68 98.8353 160.387C97.2912 158.128 97.6857 157.587 98.3314 158.127C98.6582 158.4 99.1074 159.149 99.5487 159.819C100.537 161.32 101.015 162.521 101.856 164.158C102.617 165.64 103.225 167.061 103.881 168.49C104.201 169.189 104.721 169.879 104.913 170.593C105.302 172.042 104.108 171.571 103.422 170.607C103.193 170.286 103.158 169.824 103.062 169.657ZM77.8071 171.242C77.7501 171.78 77.1798 172.025 76.9419 171.56C76.7505 171.186 76.8398 170.832 76.8696 170.656C76.9002 170.474 77.1042 170.509 77.3475 170.501C77.5367 170.495 77.763 170.396 77.8638 170.577C77.9407 170.715 77.8351 170.979 77.8071 171.242ZM87.7726 159.129C88.1863 158.442 90.1294 158.608 90.7892 158.53C91.7942 158.41 91.5281 160.05 91.577 160.542C91.7044 161.815 92.0095 163.687 92.1651 164.552C92.4638 166.216 92.6191 167.506 92.8465 168.405C93.2328 169.933 93.9257 170.785 93.4319 172.372C93.3602 172.601 92.0259 171.5 90.7473 170.574C89.1832 169.441 88.4097 168.945 88.1519 168.087C87.9718 167.489 88.1489 165.235 88.0358 163.073C87.9436 161.31 87.506 159.573 87.7726 159.129ZM79.9289 172.155C79.8399 171.506 79.9002 171.315 79.9921 171.28C80.3603 171.141 80.6584 171.256 80.753 171.516C80.7992 171.642 80.7205 171.846 80.7259 171.988C80.7304 172.116 80.8301 172.344 80.8062 172.411C80.757 172.549 80.5482 172.443 80.4563 172.446C79.9638 172.463 79.9579 172.368 79.9289 172.155ZM102.39 173.018C102.174 173.081 101.507 171.688 100.897 170.224C99.8801 167.786 98.777 164.787 98.6743 164.593C98.2835 163.855 95.2729 158.981 95.9249 158.116C96.0792 157.912 96.9081 159.366 97.6253 160.823C98.6079 162.821 99.86 165.25 100.114 165.756C100.954 167.427 101.619 169.078 102.041 170.097C102.723 171.745 103.679 172.638 102.39 173.018ZM93.7531 169.453C93.5247 168.029 93.4505 166.22 93.1583 164.54C92.9003 163.058 92.4605 161.65 92.3189 160.561C92.1942 159.6 92.2248 158.933 92.2313 158.729C92.2434 158.339 92.5944 158.128 92.7949 158.732C92.9715 159.263 92.5181 159.106 92.7199 159.963C93.1054 161.6 93.9652 164.43 93.9845 164.519C94.056 164.845 94.2781 165.772 94.3816 166.866C94.4598 167.691 94.4025 168.597 94.5436 169.496C94.7425 170.761 95.2806 172.132 95.3766 172.89C95.4723 173.648 95.1258 173.793 94.7444 173.305C94.3883 172.85 94.0563 171.34 93.7531 169.453ZM83.1447 173.179C82.9767 173.034 82.9595 172.772 83.0858 172.564C83.303 172.208 83.8986 172.19 84.0575 172.452C84.148 172.602 84.0878 172.965 83.9543 173.491C83.9 173.705 83.2818 173.297 83.1447 173.179ZM112.617 171.958C112.452 170.093 113.086 171.404 113.612 172.292C113.771 172.561 114.274 173.231 114.184 173.449C114.158 173.51 114.304 173.709 114.117 173.643C114.035 173.614 113.889 173.714 113.818 173.684C113.513 173.553 113.376 173.27 113.143 172.987C112.961 172.764 112.665 172.508 112.617 171.958ZM59.528 173.997C59.431 173.922 59.2826 173.755 59.0741 173.564C58.4483 172.994 57.3221 172.204 57.4914 172.109C57.7264 171.977 58.1115 172.361 58.6053 172.529C58.7848 172.59 59.2047 172.632 59.5829 172.481C59.8242 172.385 59.9334 171.901 60.161 171.796C60.5809 171.602 60.9462 171.909 61.087 172.068C61.2155 172.214 61.4222 172.499 61.3856 172.739C61.3609 172.903 61.1582 172.867 61.0642 173.022C60.8967 173.299 60.7986 173.746 60.7064 173.898C60.6513 173.989 60.5454 173.813 60.3916 173.827C60.0973 173.852 59.653 174.094 59.528 173.997ZM86.8606 174.605C85.6592 174.481 86.1352 174.783 85.7495 173.72C85.4277 172.833 86.4351 173.229 86.7644 173.3C87.0646 173.365 87.0746 173.809 87.0668 174.009C87.0439 174.612 87.2033 174.64 86.8606 174.605ZM42.0604 167.219L41.8932 167.105C41.9983 167.065 42.1878 167.061 42.4185 167.017C42.8222 166.939 43.3192 166.793 43.7895 166.764C44.619 166.714 47.0652 167.736 47.7786 168.175C48.8024 168.806 49.6824 169.707 50.5541 170.464C51.3693 171.171 52.3813 172.197 53.3981 173.006C54.1558 173.609 55.2616 174.104 55.7793 174.422C56.1696 174.662 56.0862 174.797 56.0532 174.835C55.9395 174.964 54.2281 174.126 51.5118 172.51C49.6561 171.406 47.8735 170.236 47.5813 170.06C46.4677 169.388 45.223 169.121 44.4601 168.633C43.9535 168.309 43.6358 168.005 43.5847 167.917C43.3933 167.589 43.4393 167.24 43.2229 167.244C42.6665 167.255 42.2609 167.2 42.0604 167.219ZM130.277 174.355C129.995 172.314 130.348 172.592 130.788 173.166C130.999 173.442 131.418 173.833 131.535 174.172C131.755 174.807 131.213 175.019 130.816 174.938C130.545 174.883 130.301 174.525 130.277 174.355ZM110.567 172.526C110.791 172.294 111.522 172.421 111.58 172.738C111.719 173.492 112.146 173.848 112.276 174.085C112.473 174.447 112.362 174.653 112.137 174.786C111.983 174.876 111.745 174.896 111.64 175.057C111.439 175.368 110.122 172.987 110.567 172.526ZM72.7916 175.449C72.734 175.439 72.1631 175.315 71.8771 174.871C71.7272 174.639 71.624 174.132 71.8253 173.836C71.9621 173.634 71.8989 173.716 72.1473 173.674C72.9292 173.542 73.127 173.765 73.3498 174.136C73.5466 174.464 73.8232 174.9 73.6783 175.404C73.5891 175.713 73.12 175.507 72.7916 175.449ZM120.186 176.267C119.787 176.039 120.056 175.364 120.066 174.844C120.097 173.215 120.318 171.33 120.512 169.927C120.586 169.39 121.2 165.961 121.644 165.55C122.307 164.935 123.334 164.769 124.344 164.618C125.642 164.423 126.901 164.378 127.189 164.755C127.449 165.094 127.299 165.665 127.412 166.246C127.781 168.143 127.81 170.883 127.635 172.237C127.617 172.38 127.415 172.702 127.071 172.855C126.534 173.095 125.703 173.172 125.094 173.417C123.849 173.919 123.004 174.41 122.388 174.787C121.344 175.427 120.364 176.369 120.186 176.267ZM108.866 173.513C108.899 173.516 109.9 174.587 110.163 175.33C110.266 175.621 110.424 175.828 110.155 176.106C109.316 176.972 108.251 175.475 108.063 174.702C108.049 174.643 108.131 174.108 108.347 173.784C108.495 173.563 108.768 173.503 108.866 173.513ZM90.1044 172.372C89.5963 172.148 90.0296 172.006 90.5253 172.144C90.9908 172.274 91.5047 172.676 91.5537 172.695C91.7593 172.771 92.5382 173.163 93.1285 173.804C93.5384 174.249 93.7725 174.788 93.9684 175.293C94.1023 175.638 94.2746 175.974 94.2493 176.228C94.2224 176.496 94.2308 176.999 93.8623 177.078C93.2887 177.2 92.317 176.487 91.6131 175.394C90.7731 174.09 90.3188 172.467 90.1044 172.372ZM105.893 175.819C106.13 175.702 105.96 175.193 106.117 174.965C106.226 174.808 106.101 174.871 106.278 174.804C106.742 174.626 106.901 174.869 107.18 175.195C107.312 175.35 107.349 175.708 107.504 175.961C107.61 176.135 107.859 176.191 107.884 176.374C108.062 177.674 107.513 177.913 107.057 177.718C106.812 177.613 106.71 177.289 106.505 177.01C106.114 176.48 105.725 175.901 105.893 175.819ZM71.8253 178.042C71.5842 177.544 71.6721 177.191 71.7581 176.946C71.9616 176.367 72.8292 176.369 73.6468 176.733C75.4155 177.522 75.3853 178.04 74.6819 178.216C74.5088 178.259 73.4504 178.189 72.6701 178.134C72.2325 178.103 71.8823 178.16 71.8253 178.042ZM102.39 178.526C102.39 178.36 100.296 177.542 100.296 177.235C100.161 177.235 98.0725 175.612 98.0301 175.61C97.933 175.607 97.4643 174.654 97.1006 172.995C96.7369 171.337 96.4781 168.971 95.9795 166.782C95.1793 163.267 94.1609 159.809 94.3031 158.6C94.3404 158.281 95.6639 161.398 97.0603 164.623C98.0615 166.937 99.3681 169.436 100.225 171.384C101.005 173.158 101.382 174.483 101.424 174.642C101.504 174.948 101.452 175.808 101.887 176.507C102.597 177.652 103.051 178.526 102.39 178.526ZM95.143 176.267C95.3521 175.727 96.019 175.6 96.2295 176.801C96.3254 177.348 96.3837 178.311 96.1706 178.532C96.0429 178.665 95.704 178.327 95.5346 178.045C95.4347 177.878 95.067 176.463 95.143 176.267ZM105.139 176.912C105.158 176.979 105.32 177.632 105.446 178.11C105.803 179.458 103.866 177.999 103.736 177.68C103.578 177.288 103.664 176.696 103.913 176.37C104.515 175.578 105.001 176.428 105.139 176.912ZM115.205 178.349C115.289 178.127 115.787 177.873 116.251 177.715C116.369 177.674 116.564 177.565 116.791 177.638C116.947 177.688 117.196 177.858 117.133 178.06C117.079 178.234 116.752 178.221 116.55 178.387C116.469 178.454 116.133 178.727 115.778 178.829C115.554 178.893 115.552 178.798 115.444 178.679C115.371 178.598 115.126 178.556 115.205 178.349ZM91.3926 179.022C91.3711 179.02 89.9616 178.502 88.4766 177.851C87.3695 177.365 86.4123 176.756 85.7094 176.34C85.2124 176.046 84.7456 175.875 84.8692 175.798C84.9517 175.746 85.7946 175.887 86.7808 176.249C87.9119 176.663 89.1999 177.4 90.2678 177.946C91.3695 178.509 92.2286 178.877 91.8888 179.03C91.8079 179.067 91.6015 179.043 91.3926 179.022ZM113.56 178.699C113.729 178.594 113.914 178.697 114.017 178.679C114.422 178.611 114.354 178.937 114.606 179.006C114.655 179.019 114.763 179.144 114.729 179.188C114.674 179.262 114.421 179.278 114.277 179.404C114.097 179.561 113.971 179.804 113.653 179.633C113.348 179.468 113.186 178.932 113.56 178.699ZM100.709 179.319C100.518 179.606 99.9091 179.772 99.3939 179.838C99.0181 179.886 98.6966 179.954 98.5964 179.621C97.9392 177.447 98.6897 177.782 99.3842 178.201C99.5057 178.274 100.875 179.069 100.709 179.319ZM41.9045 167.102L42.0698 167.218C42.076 167.218 40.9995 167.356 40.2625 167.753C39.5478 168.138 39.0707 168.683 39.0836 168.768C39.1307 169.08 39.5381 169.26 39.8198 169.502C40.3222 169.933 40.86 170.354 41.2836 170.619C42.376 171.302 43.6855 172.101 44.8703 172.909C47.7423 174.868 50.213 176.95 50.4761 177.135C52.567 178.603 54.9143 179.756 54.8633 180.441C54.8423 180.723 48.6742 180.758 48.0264 180.749C46.1699 180.725 44.6755 180.257 41.6164 178.764C40.1676 178.057 38.2692 176.753 37.2629 174.952C36.2302 173.103 36.5594 171.07 37.6314 169.395C37.9391 168.914 38.1222 168.504 38.5232 168.167C38.7804 167.951 39.1258 167.682 39.5806 167.553C39.9714 167.442 40.7818 167.424 41.092 167.335L41.9045 167.102ZM111.052 180.959C110.749 180.573 111.142 179.933 111.26 179.743C111.315 179.656 112.082 179.635 112.201 179.667C112.46 179.737 112.454 179.933 112.464 180.065C112.485 180.343 112.106 180.818 111.71 181.005C111.439 181.132 111.13 181.059 111.052 180.959ZM72.351 178.994C72.826 179.036 74.1632 179.047 74.9376 179.634C76.2371 180.62 77.4695 181.663 75.4187 181.511C74.5672 181.447 73.6229 181.118 72.7107 180.92C72.0011 180.767 71.2684 180.782 70.8837 180.485C70.4343 180.138 70.5698 179.8 70.9482 179.471C71.2227 179.231 71.5103 178.919 72.351 178.994ZM108.861 181.141C108.846 180.87 109.144 180.798 109.664 180.795C109.97 180.794 110.007 181.327 109.999 181.643C109.994 181.812 109.918 181.761 109.756 181.879C109.702 181.918 109.651 181.953 109.603 181.982C109.04 182.321 108.906 181.935 108.861 181.141ZM126.757 181.74C126.986 181.2 127.827 180.497 128.417 180.068C128.743 179.832 129.102 179.396 129.521 179.208C130.026 178.982 130.474 178.276 130.907 178.023C131.412 177.727 131.866 177.904 131.915 177.966C131.961 178.023 131.415 178.789 130.758 179.665C130.45 180.076 129.948 180.355 129.551 180.715C129.148 181.081 127.265 182.172 127.146 182.421C127.089 182.541 126.752 182.379 126.679 182.223C126.61 182.076 126.724 181.818 126.757 181.74ZM94.9586 183.067C94.9422 183.066 93.2642 182.61 91.7095 181.978C90.203 181.366 88.8378 180.563 88.6432 180.474C87.785 180.078 85.8374 179.358 85.113 178.167C84.9009 177.818 84.6606 177.246 84.9275 177.074C85.1095 176.957 87.5385 178.052 87.8315 178.174C89.2555 178.767 91.129 179.969 91.3926 180.151C92.1555 180.677 93.7943 181.49 95.1761 181.95C95.9255 182.2 97.4559 182.313 97.0068 182.356C97.0001 182.357 97.0756 182.92 96.5617 183.034C96.0174 183.156 95.2239 183.083 94.9586 183.067ZM100.296 183.228C100.221 183.217 99.5103 182.976 99.0606 182.739C98.6112 182.502 98.4983 182.204 99.1573 182.098C99.2616 182.082 100.099 181.911 101.096 181.662C101.775 181.492 102.132 181.184 102.599 181.119C102.986 181.066 103.526 181.238 103.69 181.28C104.331 181.444 104.032 181.62 103.671 181.88C103.237 182.194 102.557 182.41 102.39 182.583C102.252 182.725 101.915 182.74 101.75 182.828C101.254 183.089 100.836 183.303 100.296 183.228ZM107.084 183.389C107.074 183.389 106.87 183.414 106.733 183.248C106.556 183.034 106.469 182.571 106.746 182.12C106.934 181.815 107.225 181.972 107.354 182.004C107.363 182.006 107.557 182.054 107.617 182.239C107.678 182.423 107.606 182.745 107.614 182.949C107.623 183.164 107.711 183.389 107.389 183.389C107.288 183.389 107.185 183.399 107.084 183.389ZM82.6617 183.55C82.5294 183.519 82.0171 183.595 81.3193 182.651C80.6428 181.736 79.9421 179.701 79.7701 178.873C79.6636 178.362 78.9427 176.236 78.3213 175.004C77.8679 174.106 77.4612 174.034 77.4147 173.678C77.3402 173.107 77.913 173.46 78.1915 173.551C79.8418 174.092 81.4395 178.827 81.9276 180.374C82.4114 181.905 82.9847 183.627 82.6617 183.55ZM105.139 183.067C105.334 183.294 105.461 183.252 105.49 183.355C105.563 183.617 105.069 183.992 104.833 184.169C104.031 184.773 104.204 184.773 103.144 184.612C102.418 184.502 101.916 184.23 101.956 184.016C102.011 183.722 102.833 183.753 103.494 183.521C104.372 183.213 104.912 182.801 105.139 183.067ZM83.0396 179.617C82.5716 178.482 81.7233 176.199 82.0641 175.206C82.1623 174.92 83.8725 176.919 84.6058 180.151C84.648 180.338 84.8869 181.262 85.2485 182.162C85.7436 183.396 86.3556 184.676 85.9707 184.784C85.4533 184.929 85.3925 184.344 85.0901 183.84C84.3115 182.54 83.6075 180.994 83.0396 179.617ZM56.0475 183.379C56.1913 183.277 56.1489 183.016 56.2897 182.961C56.5829 182.849 57.0326 182.929 57.3971 182.905C57.9559 182.869 57.8643 183.509 57.3651 184.005C57.0531 184.314 56.2604 184.61 55.7828 184.783C54.9385 185.088 54.9686 184.394 55.3444 183.865C55.5151 183.625 55.8669 183.507 56.0475 183.379ZM93.1755 185.014C93.0927 184.988 92.2764 184.765 91.2816 184.346C90.7959 184.141 89.2875 183.43 88.1417 182.759C87.8328 182.579 86.5717 181.997 86.5384 181.776C86.4768 181.37 86.3094 180.97 86.5142 180.839C86.6994 180.722 87.3662 181.066 87.9836 181.29C88.4951 181.475 88.9733 181.533 89.115 181.58C89.964 181.858 90.8438 182.38 91.752 182.765C92.8476 183.23 93.9378 183.578 94.4482 184.137C94.6345 184.342 94.2125 184.596 93.9808 185.014C93.8529 185.246 93.4389 185.097 93.1755 185.014ZM89.8963 189.094C89.5899 188.993 95.243 185.534 95.4419 185.337C95.9101 184.872 96.6767 184.218 97.2135 183.874C97.8371 183.473 98.8068 184.961 98.6644 185.201C98.6109 185.291 97.851 184.684 97.2272 184.638C96.9345 184.616 96.4482 184.987 95.7946 185.43C94.9516 186 93.6921 186.697 92.7006 187.411C91.5897 188.211 90.6847 189.165 90.1441 189.288C90.0441 189.31 89.9718 189.119 89.8963 189.094ZM106.117 186.305C105.735 186.112 105.224 185.624 105.342 185.451C105.629 185.032 107.384 185.269 108.97 184.338C109.436 184.065 109.953 183.268 110.57 182.956C111.377 182.55 112.39 182.537 113.253 181.988C114.545 181.166 115.854 180.321 117.085 179.702C117.492 179.497 118.613 178.774 120.008 178.439C120.339 178.359 120.613 178.515 120.976 178.556C121.364 178.599 121.841 178.526 122.201 178.363C123.356 177.841 124.291 177.1 125.169 176.532C126.087 175.938 126.936 175.052 127.215 175.341C127.53 175.667 127.85 176.175 127.552 176.553C127.235 176.954 126.272 177.228 125.765 177.636C124.516 178.643 123.785 179.144 122.411 180.108C121.913 180.457 121.413 180.25 121.257 180.183C121.2 180.158 121.134 179.998 121.312 179.878C121.652 179.648 122.42 179.368 122.599 179.094C122.786 178.807 122.157 178.707 121.896 178.814C120.94 179.206 118.705 180.725 116.953 180.958C116.947 180.959 115.263 181.398 113.624 182.226C111.548 183.275 109.414 184.774 109.349 184.812C108.303 185.424 107.288 185.815 106.751 186.12C106.493 186.267 106.424 186.46 106.117 186.305ZM87.3549 183.712C88.2831 183.703 89.599 184.367 90.6124 184.927C91.3757 185.35 92.0232 185.652 91.8912 185.908C91.508 186.65 90.6546 186.979 89.853 186.818C89.3507 186.717 88.9314 186.297 88.4658 186.057C88.0113 185.823 87.5331 185.751 87.2947 185.455C87.1047 185.218 87.3149 185.008 87.2928 184.764C87.2584 184.381 87.0539 183.715 87.3549 183.712ZM136.799 187.457C136.312 186.795 135.851 185.922 135.717 185.704C135.449 185.269 135.324 184.756 135.053 184.679C134.78 184.601 134.683 185.047 134.502 185.422C134.321 185.798 134.055 186.103 133.984 186.068C132.514 185.342 133.021 182.184 133.449 181.937C133.581 181.862 133.516 181.345 133.491 180.886C133.47 180.481 133.51 180.122 133.288 180.151C133.227 180.159 132.532 180.535 131.844 181.082C130.697 181.994 129.34 183.303 129.067 183.407C128.458 183.639 128.381 183.162 128.277 183.06C128.013 182.798 128.812 182.24 129.265 181.915C129.602 181.674 129.913 181.174 130.378 180.796C130.811 180.444 131.257 179.999 132.249 179.298C133.534 178.389 135.598 178.222 137.165 178.86C137.632 179.051 139.047 179.696 138.828 180.525C138.785 180.686 138.518 181.15 138.142 181.325C137.472 181.636 136.595 181.69 137.013 182.187C137.205 182.414 137.844 182.362 138.459 182.48C139.717 182.723 141.334 183.071 142.019 183.712C143.293 184.903 142.967 186.699 141.973 187.445C141.293 187.956 140.139 187.752 139.197 187.813C138.667 187.848 138.049 188.316 137.613 188.3C137.274 188.287 137.102 187.868 136.799 187.457ZM55.3293 188.414C55.3293 187.51 55.3441 187.081 56.0034 186.278C56.5692 185.589 57.4979 185.002 58.0785 185.176C58.3854 185.267 58.3002 185.481 58.2911 185.698C58.2774 186.026 58.1244 186.503 57.6573 186.923C57.3769 187.175 56.8329 187.371 56.559 187.601C56.2021 187.902 56.1147 188.209 55.8207 188.353C55.6344 188.444 55.4363 188.414 55.3293 188.414ZM82.384 186.825C81.3352 186.331 80.1348 185.892 78.9062 185.469C78.3882 185.291 75.8396 184.255 73.1797 183.666C70.7773 183.134 68.2268 183.062 67.4013 182.959C67.211 182.935 67.1841 182.752 67.1906 182.741C67.4102 182.347 68.0668 182.228 68.7815 182.079C69.6715 181.893 70.7018 181.735 71.6737 181.812C72.912 181.911 73.8855 182.255 73.9304 182.26C74.8464 182.369 78.478 184.206 78.4759 183.133C78.4745 182.478 78.1302 181.83 77.8563 181.192C77.8133 181.092 76.8739 179.412 76.006 177.532C74.9588 175.263 73.9742 172.731 74.2524 172.695C74.9123 172.61 75.2502 173.622 75.8877 174.993C76.31 175.9 77.0255 176.94 77.4711 178.014C77.8133 178.839 78.0289 179.672 78.4358 180.396C78.8868 181.198 78.7376 182.122 78.9688 182.717C79.226 183.379 79.8061 184.002 79.9329 184.006C79.9528 184.006 81.3056 184.064 83.0947 184.785C85.4904 185.751 88.3422 187.065 88.7876 187.62C88.9827 187.863 88.6115 188.247 88.1261 188.48C87.2412 188.905 87.1784 189.035 87.0144 189.119C86.8252 189.216 85.8328 188.447 82.384 186.825ZM83.789 190.846C83.568 190.908 83.0783 190.581 82.7401 190.452C81.3473 189.923 79.3231 188.761 78.2901 188.414C77.6585 188.202 74.8784 187.133 72.0097 186.52C68.3211 185.731 64.1576 185.645 64.2006 185.413C64.4646 183.98 64.7266 183.669 66.2533 183.719C68.0389 183.778 71.209 184.363 72.9018 184.728C76.2646 185.454 79.837 186.593 82.3061 187.895C82.7514 188.13 84.841 188.687 85.4057 189.457C85.7922 189.984 84.3765 190.679 83.789 190.846ZM57.2619 188.253C57.3527 188.144 57.9567 187.78 58.3336 187.784C58.6212 187.787 59.1001 188.767 59.0418 189.046C58.9692 189.394 58.5099 190.196 57.196 190.963C56.7896 191.201 56.4289 191.455 56.1868 191.34C55.4874 191.008 55.7599 190.031 56.2034 189.383C56.4507 189.021 56.9531 188.62 57.2619 188.253ZM80.3955 192.632C80.1206 192.581 78.8341 191.978 77.1462 191.325C74.0344 190.123 71.3014 189.372 67.9531 188.949C67.0403 188.833 65.9184 189.107 65.3491 189.05C64.3345 188.947 64.1283 188.609 64.0603 188.414C63.4037 186.529 64.3517 186.716 67.3707 187.029C68.7431 187.17 70.4811 187.231 71.9481 187.723C73.234 188.154 74.7615 188.335 76.3035 188.814C79.1919 189.711 82.0187 190.856 82.6098 191.033C83.5957 191.329 82.4337 191.621 81.9897 191.994C81.4185 192.473 81.0745 192.758 80.3955 192.632ZM99.5213 191.568C99.0899 191.336 98.6875 190.947 98.1634 190.856C97.4468 190.733 96.7055 191.064 96.2139 191.33C95.9459 191.474 95.7542 191.505 95.4578 191.761C95.2186 191.968 94.6476 192.408 94.6907 192.04C94.6971 191.987 94.8855 191.818 94.9092 191.731C94.9275 191.661 95.2981 191.491 95.6991 191.188C96.4749 190.601 97.1869 190.213 97.8035 190.354C98.1792 190.439 99.4304 190.721 100.225 191.132C100.349 191.196 100.993 191.676 101.575 192.057C102.591 192.722 102.217 192.896 101.757 192.73C101.563 192.66 101.277 192.41 100.931 192.228C100.426 191.961 99.8312 191.735 99.5213 191.568ZM106.439 192.955C106.228 192.918 106.23 192.533 106.309 192.405C106.448 192.182 106.749 192.205 107.042 192.13C107.733 191.955 108.518 191.402 109.095 190.945C109.397 190.706 109.576 190.338 109.909 190.325C110.791 190.291 111.433 190.657 111.347 190.975C111.314 191.1 111.345 191.274 110.972 191.33C110.242 191.438 109.88 191.861 109.333 192.185C108.811 192.495 108.129 192.767 107.359 192.872C107.058 192.914 106.784 193.014 106.439 192.955ZM76.0874 193.51C74.5849 192.948 72.7521 192.307 70.9127 191.914C70.5972 191.847 69.3817 191.496 68.1123 191.363C66.4799 191.191 64.7578 191.234 64.7436 191.184C64.3796 189.904 64.6092 189.994 66.4875 190.039C66.5141 190.039 68.921 190.186 70.9939 190.499C72.4588 190.719 73.757 191.124 73.9304 191.168C75.1926 191.493 77.0064 192.14 78.2361 192.776C78.5963 192.962 79.0922 193.032 79.2787 193.236C79.6523 193.644 79.3876 194.279 78.7833 194.367C78.2501 194.445 77.494 194.037 76.0874 193.51ZM56.8265 192.885C56.92 191.808 57.661 191.426 58.0416 191.19C58.4026 190.966 58.858 190.843 59.2085 191.056C59.356 191.146 59.3286 191.351 59.3955 191.494C59.5423 191.809 59.6675 192.14 59.7363 192.522C59.8143 192.955 59.5442 193.075 59.324 193.372C59.1732 193.575 59.2224 194.016 58.7228 194.084C58.4881 194.116 58.1107 194.577 57.768 194.48C57.5627 194.423 57.3786 193.889 57.2205 193.711C57.049 193.518 56.7859 193.353 56.8265 192.885ZM80.5563 195.225C80.5563 194.918 80.2375 194.741 80.5563 194.741C80.5563 194.242 81.6951 194.157 81.6951 193.761C81.9703 193.761 82.8227 193.368 82.8227 193.116C83.0976 193.116 83.95 192.722 83.95 192.471H84.2835C84.2835 192.181 85.7328 191.518 85.7328 190.846C86.0395 190.846 86.3771 190.89 86.3771 191.168C85.6793 191.168 85.7076 192.148 85.2498 192.148C85.2498 192.834 84.2835 192.916 84.2835 193.277C83.6231 193.277 83.2877 193.922 82.5004 193.922C82.5004 194.211 81.6951 194.166 81.6951 194.568C81.1024 194.568 81.1519 195.225 80.5563 195.225ZM103.854 193.686C104.07 193.467 104.551 193.486 104.718 193.708C104.854 193.889 103.894 194.638 103.742 194.727C103.563 194.832 103.227 194.874 102.927 195C102.451 195.2 101.99 195.473 101.813 195.49C100.845 195.584 101.873 195.172 102.42 194.739C102.927 194.339 103.283 194.267 103.854 193.686ZM68.1289 192.689C69.1377 192.734 70.0784 192.699 71.0544 192.891C71.9056 193.059 72.7569 193.234 73.2791 193.576C73.7294 193.871 73.7011 194.63 73.9624 194.901C74.6008 195.564 74.5983 195.744 74.1038 195.611C73.8949 195.555 73.714 195.392 73.2697 195.269C72.6144 195.087 71.7016 194.536 70.6636 194.327C69.4997 194.093 67.9953 194.026 67.0226 193.809C65.9808 193.576 65.8655 193.427 65.8045 193.01C65.6281 191.807 66.3533 192.61 68.1289 192.689ZM60.4605 195.918C60.4597 196.194 60.447 196.66 60.0941 196.747C59.7065 196.842 59.2114 196.56 59.0104 196.438C57.9234 195.78 59.148 194.085 59.9514 194.099C60.372 194.106 60.4634 194.721 60.4605 195.918ZM45.9422 196.838C45.9422 196.494 46.1043 195.709 46.4255 195.709C46.4255 195.137 47.2424 194.949 47.2424 194.568C47.7138 194.568 47.8168 194.084 48.3696 194.084C48.3696 193.884 49.0139 193.777 49.0139 193.439C49.4518 193.439 49.5563 193.116 49.9918 193.116C49.9918 192.778 50.7968 193.011 50.7968 192.632C50.9344 192.632 51.1191 192.442 51.1191 192.309H53.0632C53.0632 192.835 53.5462 193.08 53.5462 193.6C53.947 193.6 53.9002 194.407 54.1905 194.407C54.1905 194.878 53.5462 194.312 53.5462 193.922C53.243 193.922 53.25 193.439 52.7409 193.439C52.7409 193.108 52.0966 193.285 52.0966 192.955C51.6357 192.955 50.1525 192.939 50.1525 193.439C49.6792 193.439 49.6144 193.761 49.0139 193.761C49.0139 194.104 48.2086 194.169 48.2086 194.568C47.8732 194.568 47.6458 195.386 47.0814 195.386C47.0814 195.935 46.4255 196.019 46.4255 196.354C46.0551 196.354 46.2331 196.838 45.9422 196.838ZM146.23 197C146.097 196.986 145.271 196.711 144.682 196.465C143.732 196.069 142.72 195.303 141.618 194.662C140.059 193.754 138.396 192.913 137.131 192.146C135.859 191.375 134.377 190.656 133.051 189.823C130.488 188.215 128.211 186.798 127.125 186.321C126.2 185.913 125.281 185.422 124.724 185.029C123.856 184.417 123.528 183.955 122.682 184.037C121.818 184.121 120.889 185.046 119.359 186.137C118.026 187.086 116.455 187.646 115.144 188.213C114.602 188.446 114.164 189.217 113.55 189.175C113.256 189.154 112.996 189.072 112.788 188.918C112.628 188.799 114.512 187.933 116.609 186.842C117.953 186.142 119.349 185.287 120.468 184.684C121.505 184.125 122.146 183.532 122.289 183.44C123.019 182.971 125.595 184.68 128.877 186.908C130.923 188.298 133.839 189.697 135.927 191.05C138.304 192.591 141.571 194.336 144.148 195.728C145.5 196.459 146.957 197.075 146.23 197ZM72.941 196.219C73.7272 196.412 74.3949 196.48 74.3188 196.766C73.9877 198.011 72.4491 197.278 71.4952 197.039C70.2755 196.734 68.8947 196.604 68.1515 196.351C66.2544 195.705 66.6697 194.845 67.7663 194.882C69.3691 194.935 72.5338 196.12 72.941 196.219ZM134.556 196.788C133.616 196.308 132.612 195.698 132.336 195.511C131.999 195.282 131.24 194.802 130.628 194.411C130.331 194.222 130.121 194.021 129.909 193.939C129.669 193.845 129.433 193.875 129.192 193.726C128.95 193.577 128.916 193.3 129.43 193.262C129.68 193.244 130.301 193.59 131.079 193.962C132.418 194.603 134.222 195.535 135.393 196.354C135.701 196.569 136.058 196.815 136.373 196.953C136.602 197.053 136.782 197.124 136.748 197.239C136.72 197.335 136.513 197.563 136.191 197.561C135.847 197.56 135.437 197.239 134.556 196.788ZM107.389 138.973C107.563 138.4 107.895 138.775 108.637 137.761C110.106 135.756 112.363 132.172 112.414 132.156C112.543 132.118 115.324 128.445 118.116 124.376C118.947 123.165 119.65 121.688 120.445 120.552C121.628 118.862 122.858 117.543 123.589 116.535C124.089 115.845 124.35 115.265 124.389 115.146C125.245 112.609 124.834 112.941 124.097 112.109C123.762 111.731 123.122 110.617 122.94 109.748C122.488 107.587 122.303 105.677 123.697 104.914C123.925 104.789 124.079 104.501 124.389 104.452C124.738 104.397 125.738 104.248 125.839 102.182C125.844 102.08 126.231 97.8364 126.757 93.4323C127.305 88.8455 128.303 84.1974 128.588 83.7963C128.911 83.3424 129.027 83.5227 129.108 84.5352C129.157 85.1462 129.134 86.0138 129.092 86.95C129.068 87.5115 128.923 87.6739 128.84 88.0464C128.601 89.1231 128.822 90.3356 128.836 91.3546C128.853 92.5093 128.678 93.4162 128.588 93.596C128.289 94.1973 128.266 95.9621 128.036 97.8415C127.734 100.304 127.28 103.028 127.766 104.07C128.062 104.706 128.783 104.59 129.097 104.951C129.427 105.33 129.332 106.889 129.329 108.07C129.328 108.435 129.34 109.16 129.566 109.203C129.822 109.251 129.985 108.81 130.405 108.412C130.881 107.962 131.558 107.408 132.355 106.863C133.225 106.268 135.238 104.473 137.496 101.672C138.256 100.729 139.26 99.8886 140.212 98.9459C141.297 97.8724 142.945 97.0448 144.037 95.9431C144.413 95.5641 144.994 95.0993 145.282 94.6045C145.588 94.0774 145.602 93.5197 145.971 93.1224C146.367 92.6964 146.904 92.7558 147.219 92.301C149.791 88.5901 152.667 86.0775 152.849 85.4943C152.902 85.3247 153.539 84.9209 154.061 84.6516C154.467 84.4422 155.25 84.4302 154.793 84.8376C154.508 85.0919 153.755 86.1719 152.731 87.7679C152.179 88.6278 151.068 89.2135 150.389 90.3249C149.766 91.3449 149.309 92.6854 148.645 93.8538C147.614 95.667 146.291 97.5679 145.27 99.472C141.525 106.458 136.884 118.961 136.014 127.565C135.891 128.781 135.444 131.518 135.581 134.469C135.796 139.096 136.929 143.896 137.713 146.352C138.162 147.76 138.718 149.795 139.369 151.007C141.011 154.062 144.055 157.57 144.762 158.086C145.032 158.283 147.55 161.313 150.393 163.839C152.982 166.139 155.97 167.706 156.7 168.148C157.142 168.416 160.228 170.762 159.511 170.964C158.298 171.305 151.907 165.984 146.706 165.37C146.594 165.356 146.323 165.334 145.928 165.305C144.173 165.178 139.974 164.43 136.397 164.219C134.846 164.128 133.374 163.919 132.307 163.99C131.384 164.051 130.209 164.188 130.003 164.809C129.678 165.788 130.334 167.859 130.371 168.297C130.481 169.558 130.131 170.915 130.379 171.503C130.492 171.773 131.541 172.151 132.053 172.726C132.634 173.378 132.685 174.22 132.798 174.289C133.368 174.639 133.731 174.339 134.195 174.537C135.702 175.18 135.271 176.408 135.835 176.77C137.183 177.635 138.231 177.449 139.025 178.013C139.613 178.431 139.868 179.039 140.187 179.648C140.394 180.044 140.465 180.504 140.696 180.821C140.872 181.062 140.974 181.323 141.262 181.482C141.996 181.888 143.117 182.034 143.688 182.495C144.462 183.119 145.061 184.893 145.052 186.292C145.041 188.007 143.929 189.137 143.218 190.029C142.895 190.434 142.773 190.82 142.668 191.138C142.527 191.568 142.481 192.432 143.079 193.024C144.246 194.18 146.872 194.794 149.536 196.102C152.462 197.538 155.587 199.319 158.036 200.36C160.045 201.215 162.386 201.827 164.575 201.846C165.402 201.853 166.56 201.666 167.099 200.823C169.747 196.68 162.342 194.833 162.397 197.465C162.428 198.94 163.75 198.73 164.521 198.194C164.641 198.11 164.814 197.81 164.824 197.625C164.85 197.163 165.025 196.585 165.158 197.059C165.297 197.551 165.685 198.86 165.089 199.541C164.704 199.98 164.022 200.458 163.278 200.615C162.436 200.793 161.526 200.592 161.073 200.037C160.545 199.391 160.337 198.49 160.292 198.272C160.217 197.913 159.95 197.081 160.033 196.535C160.243 195.156 161.842 194.08 163.8 194.017C165.946 193.947 168.079 195.004 169.356 196.497C169.781 196.995 170.108 197.401 170.389 197.97C170.606 198.41 171.154 199.921 170.958 201.124C170.6 203.33 170.133 204.747 168.617 205.58C168.111 205.858 167.478 205.728 166.8 206L30.0215 205.93C29.1157 205.861 28.6991 205.732 28.6346 205.728C28.2996 205.706 27.6538 205.076 27.4325 204.23C27.2726 203.618 27.4186 202.856 27.5629 202.096C27.7072 201.335 27.8502 200.576 28.4386 200.171C28.881 199.866 29.4912 200.036 30.2449 200.046C30.2701 200.046 30.801 200.308 30.98 200.7C31.0673 200.891 31.2144 201.056 30.9007 201.348C30.7171 201.519 30.2656 201.558 30.1922 201.691C29.6777 202.621 32.8064 202.722 33.8743 201.821C35.2136 200.693 35.8496 200.398 36.2665 199.567C36.521 199.06 36.5629 198.516 36.7412 198.135C37.0193 197.539 37.4126 197.249 37.7983 197.415C38.0458 197.522 38.0974 197.96 38.639 198.509C40.3622 200.258 43.6541 202.879 45.8675 200.702C46.4478 200.131 47.0472 199.488 46.983 198.86C46.9142 198.187 46.0699 197.86 45.0808 198.29C44.7327 198.441 44.5765 198.881 44.0755 199.263C43.4732 199.724 42.7708 200.01 42.7759 199.829C42.7843 199.534 43.2643 198.84 43.7446 197.868C44.3709 196.601 45.1456 194.946 46.3844 193.936C47.7283 192.84 48.9938 192.015 50.3906 191.624C51.2857 191.373 52.2668 191.507 53.2521 191.182C53.296 191.168 53.3382 191.153 53.3785 191.138C53.4943 191.095 53.0995 188.349 53.0987 188.098C53.0938 186.568 53.1247 184.969 53.6596 183.592C54.1795 182.254 55.2594 181.425 53.9865 181.398C53.0618 181.379 50.5353 181.801 48.1081 181.717C44.8864 181.605 42.4929 180.347 41.7371 180.121C38.6597 179.201 34.9997 176.597 33.0529 174.05C32.2548 173.006 31.8245 171.915 31.3291 170.944C30.8233 169.952 29.9352 168.125 30.3567 164.077C30.3857 163.798 29.7199 164.098 29.6008 163.917C29.2133 163.328 29.7597 162.86 30.4921 162.191C32.2371 160.597 35.7953 158.75 35.7515 157.791C35.6891 156.43 35.3972 156.782 33.7173 155.344C30.118 152.262 23.0368 146.41 22.3192 145.283C21.9679 144.731 21.7859 144.131 22.0294 144.079C23.5161 143.763 32.869 152.514 33.9721 152.739C34.1968 152.785 37.9924 156.976 38.0098 154.675C38.0101 154.657 38.5928 148.226 39.2438 141.902C39.7868 136.628 40.1913 131.408 40.437 130.209C40.4789 130.005 41.7707 116.218 42.3077 111.343C42.7832 107.029 43.3557 102.794 43.6812 98.4038C43.8105 96.6613 44.0062 95.1303 43.9218 93.9565C43.8199 92.5397 43.3917 91.6191 43.0254 91.1643C42.1951 90.1338 39.3099 95.9809 39.3099 97.641C38.7433 97.641 37.3733 104.775 37.3658 104.775C37.3658 105.981 36.878 108.47 36.2915 110.646C35.6687 112.956 34.1484 115.687 33.8025 115.388C33.7786 115.367 33.2445 114.443 33.8676 114.01C34.1842 113.79 34.4121 112.128 34.6779 110.42C35.0072 108.305 34.8282 105.499 35.2263 103.139C35.9359 98.932 36.4506 95.012 36.5148 94.815C36.8218 93.8702 40.9202 85.5131 40.9202 85.4943C40.9262 81.9882 40.659 81.0211 40.8813 80.9574C41.3777 80.8144 42.737 85.2061 44.2142 89.9072C45.9132 95.3125 47.6928 101.178 47.7189 101.859C47.7197 101.885 48.1834 103.563 48.2855 103.66C48.3941 103.762 48.6927 104.117 48.8462 104.129C49.051 104.146 49.2908 104.433 49.5104 104.377C50.1807 104.207 50.7643 103.444 51.4806 102.946C52.6745 102.116 53.9155 101.422 54.1838 101.041C54.7923 100.177 57.4277 99.3583 57.4277 97.9635C57.4753 97.9635 59.1544 95.048 59.7823 95.0192C59.9272 95.0125 60.2271 95.2259 60.0159 95.5321C59.8699 95.7436 59.6536 96.0159 59.4412 96.2336C58.5187 97.1784 57.6242 99.4988 57.5517 101.826C57.4764 104.234 58.8749 108.882 59.9791 111.152C62.3188 115.961 70.3633 124.931 70.5187 121.623C70.5238 121.512 70.7305 121.281 70.6819 121.058C70.4187 119.857 68.9098 117.754 68.6756 117.572C67.8859 116.958 66.3845 113.811 65.9335 110.33C65.476 106.801 66.202 103.147 65.6461 103.401C65.179 103.614 64.86 104.094 64.5318 104.35C64.11 104.678 63.7324 104.755 63.634 104.674C63.4093 104.49 63.7378 103.56 64.4087 102.695C64.818 102.167 65.8969 101.068 67.1419 99.8875C67.9666 99.1053 68.9235 98.4635 69.5952 97.294C71.3694 94.2059 73.327 90.7805 75.1015 87.8392C76.4385 85.6233 77.7319 83.7724 78.4256 82.0404C78.6549 81.4687 78.861 81.5254 78.9263 80.9545C79.2088 78.4803 78.0907 75.3833 77.5209 72.8782C76.7599 69.534 76.6793 65.832 76.0288 62.9643C75.9643 62.6792 75.0047 63.9761 73.7603 65.2721C72.8241 66.2473 70.841 67.8189 70.2631 69.3147C69.5575 71.1411 69.6833 72.9519 69.6113 74.3318C69.5435 75.6279 69.2584 76.5442 69.2304 76.7359C69.045 77.993 67.7021 79.7594 66.1173 81.1905C64.4828 82.6666 61.7332 84.8919 59.8503 87.8238C57.9677 90.756 56.9515 94.3948 56.012 94.344C55.6113 94.3223 55.3387 93.2673 55.4027 91.8435C55.4387 91.045 55.7161 90.13 55.8059 89.2167C55.8303 88.9667 57.8075 84.4793 57.2221 84.2947C56.3504 84.02 55.3546 84.9376 54.2305 85.4548C52.9568 86.0413 51.6077 86.2332 51.4306 86.0149C51.2317 85.7706 53.0699 83.4641 55.7674 81.3918C57.1525 80.3277 58.7526 79.4487 60.0457 78.3663C61.6063 77.0603 62.7505 75.5632 62.9263 74.4657C63.0236 73.8588 63.3042 68.4728 63.7316 68.4728C63.7316 67.3611 64.8591 66.5053 64.8591 66.0411C64.9653 66.0411 65.4585 65.564 65.5147 65.5573C65.9797 65.5009 66.9275 64.9039 67.8803 63.7288C68.7762 62.6232 68.6407 61.6876 69.5323 60.245C70.1362 59.2683 71.3971 59.2244 71.7796 58.0904C72.0927 57.1634 72.2763 56.2071 72.7698 55.333C73.2052 54.5615 73.9549 53.8681 74.2073 53.1069C74.6537 51.7613 74.4433 50.2843 74.0847 49.8382C73.3141 48.8789 73.1582 48.1658 73.07 47.7414C72.9566 47.1957 73.1273 47.3438 75.5633 47.4468C75.6098 47.4487 74.9244 48.2486 74.9083 49.2541C74.8889 50.4677 75.6751 51.9812 75.6953 52.7537C75.7528 54.9545 76.3006 57.2886 76.7691 59.6666C77.8533 65.1684 79.3766 70.9043 79.5835 75.7677C79.5937 76.0101 79.6338 77.3914 80.0216 78.3954C80.1735 78.7883 80.2388 79.1512 80.5866 79.3237C80.7632 79.4111 81.1933 79.4872 81.3664 79.3289C81.4615 79.242 84.4816 77.3143 86.9805 75.6605C88.6354 74.5654 90.2103 73.6884 90.2586 73.4975C90.3608 73.0957 93.1876 71.5491 95.7865 69.5835C97.2444 68.4809 98.6079 67.0881 99.4337 66.0772C100.561 64.6961 104.656 59.7155 105.298 60.8955C105.667 61.5744 104.318 62.5574 103.013 63.8648C101.808 65.0724 100.239 66.823 99.2933 68.3441C98.9235 68.9395 98.9283 69.4157 98.6676 69.9367C98.3134 70.6454 97.5868 73.5424 97.9008 76.3351C98.53 81.9323 102.606 84.053 107.496 84.3519C109.34 84.4645 111.931 84.868 112.092 84.5148C112.445 83.7442 123.852 73.7464 123.763 75.0425C123.76 75.0836 123.514 75.768 123.105 76.4166C122.908 76.73 122.565 77.4946 122.011 77.9895C121.023 78.8716 119.819 79.6019 119.696 79.6517C119.014 79.9266 117.818 82.5503 116.268 85.8211C113.504 91.6532 110.386 97.9157 108.33 104.268C106.907 108.666 106.164 113.074 105.65 117.562C105.485 119.001 105.764 120.27 105.668 121.648C105.189 128.548 105.543 133.531 107.11 140.071C107.376 141.183 107.532 140.815 107.622 140.937C107.854 141.249 107.264 139.385 107.389 138.973Z" fill="black"/>
<defs>
<filter id="filter0_f_2492_44767" x="-20" y="25" width="298" height="184" filterUnits="userSpaceOnUse" color-interpolation-filters="sRGB">
<feFlood flood-opacity="0" result="BackgroundImageFix"/>
<feBlend mode="normal" in="SourceGraphic" in2="BackgroundImageFix" result="shape"/>
<feGaussianBlur stdDeviation="18.5" result="effect1_foregroundBlur_2492_44767"/>
</filter>
<filter id="filter1_f_2492_44767" x="-20" y="25" width="298" height="184" filterUnits="userSpaceOnUse" color-interpolation-filters="sRGB">
<feFlood flood-opacity="0" result="BackgroundImageFix"/>
<feBlend mode="normal" in="SourceGraphic" in2="BackgroundImageFix" result="shape"/>
<feGaussianBlur stdDeviation="18.5" result="effect1_foregroundBlur_2492_44767"/>
</filter>
<filter id="filter2_ii_2492_44767" x="17" y="62" width="224" height="148" filterUnits="userSpaceOnUse" color-interpolation-filters="sRGB">
<feFlood flood-opacity="0" result="BackgroundImageFix"/>
<feBlend mode="normal" in="SourceGraphic" in2="BackgroundImageFix" result="shape"/>
<feColorMatrix in="SourceAlpha" type="matrix" values="0 0 0 0 0 0 0 0 0 0 0 0 0 0 0 0 0 0 127 0" result="hardAlpha"/>
<feOffset dy="4"/>
<feComposite in2="hardAlpha" operator="arithmetic" k2="-1" k3="1"/>
<feColorMatrix type="matrix" values="0 0 0 0 1 0 0 0 0 1 0 0 0 0 1 0 0 0 0.25 0"/>
<feBlend mode="normal" in2="shape" result="effect1_innerShadow_2492_44767"/>
<feColorMatrix in="SourceAlpha" type="matrix" values="0 0 0 0 0 0 0 0 0 0 0 0 0 0 0 0 0 0 127 0" result="hardAlpha"/>
<feOffset dy="-4"/>
<feComposite in2="hardAlpha" operator="arithmetic" k2="-1" k3="1"/>
<feColorMatrix type="matrix" values="0 0 0 0 0 0 0 0 0 0 0 0 0 0 0 0 0 0 0.9 0"/>
<feBlend mode="soft-light" in2="effect1_innerShadow_2492_44767" result="effect2_innerShadow_2492_44767"/>
</filter>
<linearGradient id="paint0_linear_2492_44767" x1="17" y1="34" x2="197.768" y2="215.142" gradientUnits="userSpaceOnUse">
<stop stop-color="#49331E"/>
</linearGradient>
<linearGradient id="paint1_linear_2492_44767" x1="17" y1="34" x2="197.768" y2="215.142" gradientUnits="userSpaceOnUse">
<stop stop-color="#05815D"/>
<stop offset="1" stop-color="#0C575F"/>
</linearGradient>
<linearGradient id="paint2_linear_2492_44767" x1="17" y1="34" x2="197.768" y2="215.142" gradientUnits="userSpaceOnUse">
<stop stop-color="#49331E"/>
</linearGradient>
<linearGradient id="paint3_linear_2492_44767" x1="17" y1="34" x2="197.768" y2="215.142" gradientUnits="userSpaceOnUse">
<stop stop-color="#05815D"/>
<stop offset="1" stop-color="#0C575F"/>
</linearGradient>
<linearGradient id="paint4_linear_2492_44767" x1="17" y1="62" x2="241" y2="210" gradientUnits="userSpaceOnUse">
<stop stop-color="#8A6141"/>
<stop offset="1" stop-color="#473425"/>
</linearGradient>
</defs>
</svg>
