<svg width="256" height="256" viewBox="0 0 256 256" fill="none" xmlns="http://www.w3.org/2000/svg">
<path d="M104.425 42.3784C100.056 37.0733 93.5437 34 86.6712 34H29C22.3726 34 17 39.3726 17 46V160C17 166.627 22.3726 172 29 172H229C235.627 172 241 166.627 241 160V70.1371C241 63.5097 235.627 58.1371 229 58.1371H117.404L104.425 42.3784Z" fill="url(#paint0_linear_2492_44896)"/>
<mask id="mask0_2492_44896" style="mask-type:alpha" maskUnits="userSpaceOnUse" x="17" y="34" width="224" height="138">
<path fill-rule="evenodd" clip-rule="evenodd" d="M104.425 42.3784C100.056 37.0733 93.5437 34 86.6712 34H29C22.3726 34 17 39.3726 17 46V58.1371V68.2V160C17 166.627 22.3726 172 29 172H229C235.627 172 241 166.627 241 160V70.1371C241 63.5097 235.627 58.1371 229 58.1371H117.404L104.425 42.3784Z" fill="url(#paint1_linear_2492_44896)"/>
</mask>
<g mask="url(#mask0_2492_44896)">
<g style="mix-blend-mode:multiply" filter="url(#filter0_f_2492_44896)">
<path fill-rule="evenodd" clip-rule="evenodd" d="M92.789 74C97.7642 74 102.605 72.3868 106.586 69.4024L116.459 62H229C235.627 62 241 67.3726 241 74V108V160C241 166.627 235.627 172 229 172H29C22.3726 172 17 166.627 17 160L17 108V86C17 79.3726 22.3726 74 29 74H87H92.789Z" fill="black" fill-opacity="0.3"/>
</g>
</g>
<path d="M104.425 42.3784C100.056 37.0733 93.5437 34 86.6712 34H29C22.3726 34 17 39.3726 17 46V160C17 166.627 22.3726 172 29 172H229C235.627 172 241 166.627 241 160V70.1371C241 63.5097 235.627 58.1371 229 58.1371H117.404L104.425 42.3784Z" fill="url(#paint2_linear_2492_44896)"/>
<mask id="mask1_2492_44896" style="mask-type:alpha" maskUnits="userSpaceOnUse" x="17" y="34" width="224" height="138">
<path fill-rule="evenodd" clip-rule="evenodd" d="M104.425 42.3784C100.056 37.0733 93.5437 34 86.6712 34H29C22.3726 34 17 39.3726 17 46V58.1371V68.2V160C17 166.627 22.3726 172 29 172H229C235.627 172 241 166.627 241 160V70.1371C241 63.5097 235.627 58.1371 229 58.1371H117.404L104.425 42.3784Z" fill="url(#paint3_linear_2492_44896)"/>
</mask>
<g mask="url(#mask1_2492_44896)">
<g style="mix-blend-mode:multiply" filter="url(#filter1_f_2492_44896)">
<path fill-rule="evenodd" clip-rule="evenodd" d="M92.789 74C97.7642 74 102.605 72.3868 106.586 69.4024L116.459 62H229C235.627 62 241 67.3726 241 74V108V160C241 166.627 235.627 172 229 172H29C22.3726 172 17 166.627 17 160L17 108V86C17 79.3726 22.3726 74 29 74H87H92.789Z" fill="black" fill-opacity="0.3"/>
</g>
</g>
<g filter="url(#filter2_ii_2492_44896)">
<path d="M92.789 74C97.7642 74 102.605 72.3868 106.586 69.4024L116.459 62H229C235.627 62 241 67.3726 241 74V198C241 204.627 235.627 210 229 210H29C22.3726 210 17 204.627 17 198L17 86C17 79.3726 22.3726 74 29 74H92.789Z" fill="url(#paint4_linear_2492_44896)"/>
</g>
<path d="M85.1062 180.889C84.2757 180.658 83.6253 180.104 83.1644 179.235L82.9281 178.79L82.9706 176.009C82.9938 174.48 83.0112 172.812 83.009 172.302L83.0048 171.375L82.4708 170.196C81.4815 168.011 81.103 166.616 81.1051 165.165C81.1075 164.108 81.264 163.406 81.6718 162.635C82.5117 161.048 84.7981 159.621 86.5194 159.61C87.0514 159.606 87.2204 159.644 87.6886 159.873C88.6235 160.33 89.4074 161.273 89.8366 162.457C89.9349 162.728 90.1821 163.651 90.386 164.509L90.7567 166.067L91.8059 166.057C92.8838 166.046 93.9745 165.9 102.103 164.679C103.97 164.398 107.482 163.873 109.909 163.512L114.321 162.855L114.343 162.566C114.356 162.406 114.332 162.226 114.292 162.164C114.201 162.026 113.085 161.834 110.079 161.438C108.819 161.272 107.196 161.043 106.473 160.929C105.75 160.814 103.459 160.473 101.382 160.17C99.3056 159.867 96.9002 159.507 96.0369 159.37C94.4133 159.112 93.1286 158.927 90.437 158.564C89.5737 158.448 88.3137 158.26 87.6371 158.148C84.9166 157.695 83.0633 157.508 82.8392 157.664C82.6938 157.766 82.4176 158.19 81.8617 159.165C81.0779 160.54 80.4799 161.345 79.5805 162.236C78.3299 163.475 77.4219 163.87 75.8434 163.861C74.3321 163.852 73.1189 163.339 72.1279 162.29C71.0755 161.177 71.0979 160.425 72.2497 158.178C72.8139 157.077 73.386 156.22 74.3691 155.004C74.7833 154.492 75.2508 153.862 75.408 153.604L75.6937 153.136L75.4194 151.64C74.8481 148.524 75.125 146.832 76.4333 145.443C77.3019 144.522 78.3601 144.032 79.8449 143.865C80.7818 143.76 81.4206 143.851 82.1421 144.193C83.8332 144.996 84.4305 146.3 84.671 149.714C84.7819 151.29 84.8638 151.593 85.2353 151.808C85.4294 151.92 87.3875 152.274 92.1502 153.058C95.8045 153.659 101.028 154.528 103.758 154.988C114.839 156.855 121.298 157.903 125.606 158.533C126.866 158.718 128.698 159.004 129.678 159.169C132.113 159.581 133.181 159.588 135.193 159.208C139.417 158.411 163.499 153.203 168.538 151.997C169.238 151.829 170.612 151.521 171.592 151.311C173.455 150.912 174.175 150.653 174.411 150.296C174.487 150.18 174.581 149.861 174.619 149.587C174.789 148.351 175.448 146.511 176.042 145.614C177.305 143.706 179.23 142.882 181.435 143.303C182.321 143.472 182.678 143.629 183.145 144.056C183.887 144.736 184.153 145.551 184.141 147.11C184.134 148.063 184.086 148.42 183.774 149.849C183.569 150.789 183.414 151.73 183.411 152.048C183.404 152.735 183.522 153.003 184.677 154.915C185.808 156.789 186.466 158.111 186.58 158.737C186.696 159.378 186.629 160.524 186.456 160.856C186.044 161.648 184.337 162.324 182.744 162.327C181.272 162.331 180.189 161.935 179.046 160.976C178.361 160.4 178.075 160.061 177.274 158.87C176.748 158.087 176.631 157.963 176.279 157.818L175.88 157.654L174.967 157.844C174.464 157.948 173.499 158.123 172.823 158.232C172.146 158.341 170.905 158.564 170.065 158.729C169.225 158.893 166.591 159.368 164.211 159.784C155.985 161.221 154.958 161.403 153.902 161.614C152.497 161.894 152.162 162.121 152.668 162.45C153.03 162.686 153.63 162.818 155.68 163.117C156.779 163.277 158.657 163.56 159.853 163.747C163.645 164.338 166.022 164.677 166.378 164.677C166.923 164.677 167.171 164.487 167.83 163.561C168.54 162.563 169.992 161.088 170.774 160.57C171.467 160.111 171.998 159.959 172.902 159.96C174.05 159.962 174.789 160.222 175.854 161.002C176.464 161.448 176.899 161.997 177.165 162.655C177.414 163.274 177.437 164.866 177.202 165.223C177.12 165.346 176.998 165.602 176.931 165.792C176.695 166.456 175.737 167.826 174.535 169.217C173.765 170.109 173.864 169.778 173.667 172.134C173.357 175.842 172.615 177.585 171.013 178.368C170.242 178.745 169.354 178.929 168.321 178.926C166.697 178.922 165.87 178.547 165.139 177.484C164.474 176.518 164.343 175.986 164.098 173.255C164.052 172.747 163.972 172.358 163.885 172.226C163.69 171.931 162.823 171.676 160.42 171.205C159.332 170.992 157.869 170.687 157.169 170.529C156.469 170.37 154.941 170.053 153.775 169.824C151.695 169.416 149.135 168.886 145.163 168.042C144.066 167.809 142.673 167.521 142.066 167.402C141.459 167.283 140.375 167.055 139.656 166.895C138.937 166.735 137.62 166.457 136.729 166.278C135.838 166.098 134.65 165.851 134.09 165.728C132.775 165.44 132.308 165.45 130.346 165.81C128.357 166.176 118.179 168.189 116.485 168.552C114.409 168.997 107.108 170.481 101.17 171.665C99.7701 171.944 98.2238 172.266 97.7338 172.379C97.2438 172.493 96.5565 172.629 96.2066 172.682C95.8566 172.735 95.2266 172.868 94.8066 172.977C94.3866 173.087 93.6065 173.257 93.0731 173.356C91.9977 173.555 91.5507 173.741 91.3056 174.091C91.0392 174.47 90.9529 174.828 90.7731 176.299C90.6794 177.066 90.5267 177.971 90.434 178.309C90.1031 179.517 89.5082 180.398 88.7722 180.769C88.3871 180.964 88.2608 180.979 86.9583 180.997C85.9254 181.01 85.4398 180.982 85.1062 180.889ZM95.4005 150.61L90.5643 150.565L89.928 150.239C87.5155 149.004 86.5881 147.512 86.322 144.438L86.2657 143.789L85.5615 143.407L84.8573 143.026L84.7944 139.025C84.7133 133.871 84.7981 129.945 84.9955 129.711C85.0718 129.621 85.4014 129.441 85.7281 129.312L86.322 129.078L86.3766 128.321C86.4067 127.905 86.4354 121.241 86.4403 113.512L86.4495 99.4606L86.7139 98.9364C87.7902 96.8031 89.7455 95.2498 91.5735 95.076C91.9519 95.04 108.996 95.0082 129.449 95.0053L166.637 95L167.471 95.4099C168.55 95.9403 169.004 96.2556 169.702 96.9566C170.329 97.5877 170.864 98.414 171.139 99.1783C171.299 99.621 171.326 99.9509 171.387 102.161C171.424 103.529 171.463 109.329 171.472 115.052C171.481 120.775 171.512 126.254 171.541 127.227L171.593 128.996L172.102 129.264C172.382 129.412 172.668 129.618 172.738 129.723C172.848 129.887 172.869 130.797 172.891 136.34C172.908 140.846 172.888 142.819 172.824 142.939C172.773 143.033 172.469 143.241 172.147 143.402L171.563 143.694L171.517 144.138C171.492 144.383 171.449 144.829 171.421 145.131C171.257 146.91 170.575 148.227 169.175 149.464C168.291 150.245 167.947 150.357 165.866 150.539C164.737 150.638 104.811 150.699 95.4005 150.61ZM108.522 149.06C109.719 148.78 110.544 147.889 110.8 146.599C111.048 145.348 110.325 143.934 109.143 143.357C108.781 143.18 108.602 143.151 107.873 143.151C106.894 143.151 106.561 143.245 105.959 143.694C104.374 144.877 104.281 147.067 105.759 148.408C106.509 149.089 107.45 149.311 108.522 149.06ZM151.244 148.938C151.812 148.647 152.595 147.87 152.859 147.336C153.058 146.933 153.095 146.752 153.094 146.184C153.094 145.607 153.055 145.43 152.831 144.957C152.52 144.303 151.882 143.634 151.3 143.354C150.988 143.204 150.704 143.149 150.113 143.123C149.415 143.092 149.287 143.111 148.854 143.308C148.545 143.448 148.166 143.732 147.801 144.097C147.303 144.595 147.205 144.746 147.032 145.286C146.849 145.856 146.842 145.948 146.936 146.46C147.188 147.818 147.949 148.717 149.132 149.055C149.724 149.224 150.803 149.164 151.244 148.938ZM118.756 147.711C119.503 147.441 120.062 146.834 120.342 145.986C120.557 145.338 120.496 144.055 120.227 143.539C119.964 143.037 119.283 142.379 118.796 142.155C118.459 142.001 118.241 141.971 117.461 141.971C116.601 141.971 116.491 141.99 116.073 142.209C114.817 142.866 114.149 144.279 114.475 145.591C114.715 146.557 115.374 147.353 116.23 147.712C116.89 147.989 117.99 147.989 118.756 147.712V147.711ZM141.115 147.87C142.019 147.636 142.714 147.016 143.234 145.978C143.626 145.194 143.612 144.699 143.174 143.817C142.78 143.025 142.07 142.274 141.557 142.109C141.37 142.048 140.827 141.978 140.35 141.953C139.533 141.91 139.455 141.92 139.019 142.132C138.479 142.395 137.753 143.139 137.492 143.698C137.347 144.009 137.315 144.238 137.318 144.962C137.321 145.724 137.35 145.905 137.528 146.268C137.914 147.055 138.682 147.649 139.605 147.876C140.185 148.019 140.545 148.017 141.115 147.87ZM109.697 128.699C111.244 128.459 113.631 126.719 114.375 125.289C115.833 122.487 115.453 119.193 113.425 117.04C112.001 115.528 110.602 114.903 108.312 114.754C107.239 114.684 106.611 114.791 105.635 115.212C103.714 116.039 102.513 117.137 101.709 118.801C101.17 119.917 101.015 120.695 101.063 122.041C101.098 123.017 101.142 123.296 101.362 123.965C101.689 124.954 102.178 125.773 102.889 126.521C103.842 127.525 105.594 128.545 106.623 128.694C107.323 128.796 109.053 128.798 109.697 128.699ZM151.145 128.699C152.649 128.486 154.614 127.119 155.66 125.557C156.897 123.709 157.131 121.195 156.26 119.112C155.603 117.54 154.384 116.307 152.578 115.391C151.673 114.931 150.982 114.794 149.543 114.789C148.304 114.785 147.739 114.867 147.157 115.134C146.97 115.22 146.606 115.387 146.347 115.506C145.729 115.79 144.711 116.664 144.052 117.476C143.048 118.714 142.533 120.138 142.533 121.673C142.533 123.774 143.231 125.458 144.664 126.811C145.657 127.749 147.048 128.541 147.963 128.69C148.607 128.795 150.427 128.8 151.145 128.699ZM137.731 123.438C138.089 122.973 138.133 122.471 138.104 119.199C138.081 116.556 138.061 116.158 137.934 115.928C137.649 115.412 138.014 115.432 128.957 115.432C124.407 115.432 120.54 115.462 120.363 115.5C120.126 115.549 120.016 115.627 119.949 115.794C119.825 116.1 119.756 119.665 119.835 121.738C119.894 123.312 119.907 123.403 120.079 123.501C120.254 123.601 123.795 123.653 134.483 123.714L137.507 123.731L137.731 123.438Z" fill="white"/>
<defs>
<filter id="filter0_f_2492_44896" x="-20" y="25" width="298" height="184" filterUnits="userSpaceOnUse" color-interpolation-filters="sRGB">
<feFlood flood-opacity="0" result="BackgroundImageFix"/>
<feBlend mode="normal" in="SourceGraphic" in2="BackgroundImageFix" result="shape"/>
<feGaussianBlur stdDeviation="18.5" result="effect1_foregroundBlur_2492_44896"/>
</filter>
<filter id="filter1_f_2492_44896" x="-20" y="25" width="298" height="184" filterUnits="userSpaceOnUse" color-interpolation-filters="sRGB">
<feFlood flood-opacity="0" result="BackgroundImageFix"/>
<feBlend mode="normal" in="SourceGraphic" in2="BackgroundImageFix" result="shape"/>
<feGaussianBlur stdDeviation="18.5" result="effect1_foregroundBlur_2492_44896"/>
</filter>
<filter id="filter2_ii_2492_44896" x="17" y="62" width="224" height="148" filterUnits="userSpaceOnUse" color-interpolation-filters="sRGB">
<feFlood flood-opacity="0" result="BackgroundImageFix"/>
<feBlend mode="normal" in="SourceGraphic" in2="BackgroundImageFix" result="shape"/>
<feColorMatrix in="SourceAlpha" type="matrix" values="0 0 0 0 0 0 0 0 0 0 0 0 0 0 0 0 0 0 127 0" result="hardAlpha"/>
<feOffset dy="4"/>
<feComposite in2="hardAlpha" operator="arithmetic" k2="-1" k3="1"/>
<feColorMatrix type="matrix" values="0 0 0 0 1 0 0 0 0 1 0 0 0 0 1 0 0 0 0.25 0"/>
<feBlend mode="normal" in2="shape" result="effect1_innerShadow_2492_44896"/>
<feColorMatrix in="SourceAlpha" type="matrix" values="0 0 0 0 0 0 0 0 0 0 0 0 0 0 0 0 0 0 127 0" result="hardAlpha"/>
<feOffset dy="-4"/>
<feComposite in2="hardAlpha" operator="arithmetic" k2="-1" k3="1"/>
<feColorMatrix type="matrix" values="0 0 0 0 0 0 0 0 0 0 0 0 0 0 0 0 0 0 0.9 0"/>
<feBlend mode="soft-light" in2="effect1_innerShadow_2492_44896" result="effect2_innerShadow_2492_44896"/>
</filter>
<linearGradient id="paint0_linear_2492_44896" x1="17" y1="34" x2="197.768" y2="215.142" gradientUnits="userSpaceOnUse">
<stop stop-color="#49331E"/>
</linearGradient>
<linearGradient id="paint1_linear_2492_44896" x1="17" y1="34" x2="197.768" y2="215.142" gradientUnits="userSpaceOnUse">
<stop stop-color="#05815D"/>
<stop offset="1" stop-color="#0C575F"/>
</linearGradient>
<linearGradient id="paint2_linear_2492_44896" x1="17" y1="34" x2="197.768" y2="215.142" gradientUnits="userSpaceOnUse">
<stop stop-color="#49331E"/>
</linearGradient>
<linearGradient id="paint3_linear_2492_44896" x1="17" y1="34" x2="197.768" y2="215.142" gradientUnits="userSpaceOnUse">
<stop stop-color="#05815D"/>
<stop offset="1" stop-color="#0C575F"/>
</linearGradient>
<linearGradient id="paint4_linear_2492_44896" x1="17" y1="62" x2="241" y2="210" gradientUnits="userSpaceOnUse">
<stop stop-color="#8A6141"/>
<stop offset="1" stop-color="#473425"/>
</linearGradient>
</defs>
</svg>
