<?xml version="1.0" encoding="UTF-8"?>
<svg id="base" xmlns="http://www.w3.org/2000/svg" width="256" height="256" version="1.1" xmlns:xlink="http://www.w3.org/1999/xlink" viewBox="0 0 256 256">
  <defs>
    <style>
      .st0 {
        fill: url(#top);
      }

      .st0, .st1, .st2, .st3, .st4, .st5 {
        fill-rule: evenodd;
      }

      .st6 {
        fill: url(#iii);
      }

      .st7 {
        fill: url(#iii1);
      }

      .st8 {
        mask: url(#mask);
      }

      .st9 {
        fill: url(#iii3);
      }

      .st1 {
        fill: url(#bottom);
      }

      .st2 {
        fill: #a6a1a1;
      }

      .st3 {
        fill: url(#color);
      }

      .st4 {
        fill: #191919;
      }

      .st10 {
        fill: url(#iii4);
      }

      .st5 {
        fill: url(#linear-gradient);
      }

      .st11 {
        fill: url(#iii2);
      }
    </style>
    <linearGradient id="linear-gradient" x1="32.6" y1="239.5" x2="213.3" y2="58.4" gradientTransform="translate(0 258) scale(1 -1)" gradientUnits="userSpaceOnUse">
      <stop offset="0" stop-color="#05815d"/>
      <stop offset="1" stop-color="#0c575f"/>
    </linearGradient>
    <mask id="mask" x="17" y="34" width="224" height="138" maskUnits="userSpaceOnUse">
      <g id="mask0_501_11930">
        <path class="st5" d="M104.4,42.4c-4.4-5.3-10.9-8.4-17.8-8.4H29c-6.6,0-12,5.4-12,12v114c0,6.6,5.4,12,12,12h200c6.6,0,12-5.4,12-12v-89.9c0-6.6-5.4-12-12-12h-111.6l-13-15.8Z"/>
      </g>
    </mask>
    <linearGradient id="color" x1="17" y1="196" x2="241" y2="48" gradientTransform="translate(0 258) scale(1 -1)" gradientUnits="userSpaceOnUse">
      <stop offset="0" stop-color="#212121"/>
      <stop offset="1" stop-color="#1c1c1c"/>
    </linearGradient>
    <linearGradient id="bottom" x1="16.9" y1="57.3" x2="240.9" y2="54.8" gradientTransform="translate(0 258) scale(1 -1)" gradientUnits="userSpaceOnUse">
      <stop offset="0" stop-color="#0f0f0f"/>
      <stop offset="1" stop-color="#000"/>
    </linearGradient>
    <linearGradient id="top" x1="17" y1="182" x2="241" y2="182" gradientTransform="translate(0 258) scale(1 -1)" gradientUnits="userSpaceOnUse">
      <stop offset="0" stop-color="#343434"/>
      <stop offset="1" stop-color="#2d2d2d"/>
    </linearGradient>
    <radialGradient id="iii" cx="130.5" cy="138.7" fx="130.5" fy="138.7" r="44" gradientUnits="userSpaceOnUse">
      <stop offset="0" stop-color="#df0000"/>
      <stop offset="1" stop-color="#a00"/>
    </radialGradient>
    <radialGradient id="iii1" data-name="iii" cx="108.4" cy="134.9" fx="108.4" fy="134.9" r="33.8" xlink:href="#iii"/>
    <radialGradient id="iii2" data-name="iii" cx="155.8" cy="134.7" fx="155.8" fy="134.7" r="35" xlink:href="#iii"/>
    <radialGradient id="iii3" data-name="iii" cx="149.1" cy="156.3" fx="149.1" fy="156.3" r=".9" xlink:href="#iii"/>
    <radialGradient id="iii4" data-name="iii" cx="104" cy="105" fx="104" fy="105" r=".8" xlink:href="#iii"/>
  </defs>
  <path class="st4" d="M104.4,42.4c-4.4-5.3-10.9-8.4-17.8-8.4H29c-6.6,0-12,5.4-12,12v114c0,6.6,5.4,12,12,12h200c6.6,0,12-5.4,12-12v-89.9c0-6.6-5.4-12-12-12h-111.6l-13-15.8Z"/>
  <g class="st8">
    <path class="st2" d="M92.8,74c5,0,9.8-1.6,13.8-4.6l9.9-7.4h112.5c6.6,0,12,5.4,12,12v86c0,6.6-5.4,12-12,12H29c-6.6,0-12-5.4-12-12v-74c0-6.6,5.4-12,12-12h63.8Z"/>
  </g>
  <path class="st3" d="M92.8,74c5,0,9.8-1.6,13.8-4.6l9.9-7.4h112.5c6.6,0,12,5.4,12,12v124c0,6.6-5.4,12-12,12H29c-6.6,0-12-5.4-12-12v-112c0-6.6,5.4-12,12-12h63.8Z"/>
  <path class="st1" d="M17,194v4c0,6.6,5.4,12,12,12h200c6.6,0,12-5.4,12-12v-4c0,6.6-5.4,12-12,12H29c-6.6,0-12-5.4-12-12Z"/>
  <path class="st0" d="M106.6,69.4c-4,3-8.8,4.6-13.8,4.6H29c-6.6,0-12,5.4-12,12v4c0-6.6,5.4-12,12-12h63.8c5,0,9.8-1.6,13.8-4.6l9.9-7.4h112.5c6.6,0,12,5.4,12,12v-4c0-6.6-5.4-12-12-12h-112.5l-9.9,7.4Z"/>
  <path class="st6" d="M132.4,156.6c.8-.4.4-1.8.8-2.3,1-.3.9.6,1.2,1.3s.7,1.5,1.1,2.1c.6.8,1.8,1.3,1.6,2.6-.3,0-.2-.4-.4-.5s-.5,0-.8-.1-.5-.6-.8-.3c1,.4,1.1,2,2.2,1.5,0,2.9-.1,5.7-.4,8.6-.8,8.1-2.5,16-3.5,24-.2,1.6-.2,3.3-.5,4.9,0,.4-.3,1.8-.5,2.1s-.7-.6-.8-.8c-2.4-5.7-3.4-13-4.7-19.1-.4-1.8-1-3.5-1.4-5.3l.4-.4c-.5-.7.3-1.2.3-1.8,0-3.4,0-7.3-.7-10.7s-.8-1.9-.7-2.4c.1-.9,1.8-1.2,1.6-2.1l-1,1c-.5.2.1-.9.2-1.1.3-.4,1.6-1.6,1.7-1.7.2-.3,0-1.2.4-1.6.4,0,.2.3.2.5,0,.7.2,1.9.4,2.5s.5-.3.5-.7c0-1.5-.5-3.5-.7-5.1-.5-3.6-.1-4.4-3.2-6.8-.5-.4-1.4-.6-1.4-1.3,0-4.5-.1-9,.3-13.5s1.8-10.3,2-15.6-.4-7.8-.3-11.6,1.1-8,.9-11.9c1.4-.9,1.1-2.7,1.7-4.2s.7-1.1.9-1.7,0-.8.2-1.2h.2c0,.1,1.5,13.9,1.5,13.9,0,.3.2,1.1.5.6,0-2.3-.1-4.5-.3-6.8-.2-3.7-.6-7.3-.7-11s.1-1.4.3-2.3.2-1.5.2-1.5c.5,0,.3.7.4,1.1,1.1,6.2,2.1,12.3,2.9,18.5s.4,7.4.6,11.3c.6,12.1,2.2,24.3,2.7,36.4-.4.3-.9.6-1.2.9-1.1,1.1-2.1,3.8-2.7,5.3s-1.1,4.1-1.2,6.2Z"/>
  <path class="st7" d="M100.2,88.1l4.4,15.4c3,7.2,4.3,15.1,6.6,22.4s1,2.2,1.3,3.3c.7,2.5.8,5.3,1.1,7.8s.7,3,.4,4.6c-1.4,1.5-2.7,3.7-2.9,5.8s.2,1.4.3,2.2c0,1.1-.3,1.5,0,2.6s.4,2.4.8,3,1.6,1.3,2.1,1.8l.3,5c.2,3,1.3,6.3,1.6,9.3s0,1.6.5,3.1.9,2.9,1.1,4,.2,2.3.2,2.7-.2.5-.5.5c-.5,0-1.8-1.8-2.2-2.3-1.6-2-4.7-5.6-5.4-7.9s-.4-2-.8-3c-.8-2.4-2.1-4.7-3-7.1-2.4-6.1-4.4-12.4-7-18.5-.1-.7,1.2.9,1.4.6-.5-.5-.8-1.3-1.4-1.4-.1-.2.6-.9.8-1,.5-.1,1.2,1.3,1.6.6-.7-3.8-.3-7.6-.4-11.4s-1.9-9.5-1.9-14,0-1.6.5-1.9c.7-.6.8,0,1.4.4-.3-2.1-1.8-4.1-2-6.3s0-2.9.3-3.7.6-.2.6-.6c-1-2.1-1-4.1-1-6.4s0-2-.1-3.2c0-1.9,0-3.9,0-5.8v-.3c.1,0,.5,0,.5,0,.2.2,0,1.1.6,1.3.2-.8-.6-1,0-1.7s0-.3.3-.2ZM100.8,93c-.3-.8-.3-2-.9-2.6,0,.7.2,1.6.5,2.3s0,.4.4.3ZM101.9,119.3c-.1-.7-.8-1.8-1.3-2.4s-.4-.6-.8-.6c0,.1.4,1.1.5,1.2.1.2.4.1.5.2.2.3.5,1.4,1,1.6ZM112,157.3c.2.3,1.8,1.6,2,.9-.1-1.1-.5-.6-1.1-.6s-.6-.4-1-.3Z"/>
  <path class="st11" d="M158.9,111.4c.3-.2.5-.8.7-1.1.6-1.2,1.1-2.5,1.6-3.8,1.1-1.1.5,2.7.5,3,0,1.8,0,3.7,0,5.5,0,2.1-.4,3.3-.1,5.5.3,3.3,0,7.6.1,11,0,1.5,0,3.8.1,5.2s1.3-.3,1.5,1c0,.2-1.7.5-1.5,1.2,1.4-.3,2.3-1.1,3.1-2.3.9.3,1.1,1.7,0,1.7h.3c-1.4,4.7-3.6,8.9-5.2,13.4-1.4,3.9-2.5,7.8-4.1,11.6-1.4,3.2-3.2,6.1-4.7,9.2s-3,7.2-4.6,10.6c-.2.2-.7.1-.8,0-.1-2.1.5-4,.7-6.1s.3-4.4.8-6.2,1.1-1.2-.4-.7l.4-6.3c0-1,0-2.1,0-3.2s.3-1.6.3-1.7c.1-.2.8-.3,1-.5s.7-1.5.9-1.9c.8-1.5.3-1,.6-2.3s.7-1.2.7-1.8l.5.3v-.7c0,0-.4,0-.4,0,.2-1,.7-1.9.7-2.9.1-1.9-.7-3.5-1.2-5.3l-2.8-2.5c.7-2,1-4,1.3-6.1.5-3.5,1-7.3,1.6-10.8.4-1.9,1.7-4.6,2.3-6.6,1.3-3.9,2.5-7.8,3.8-11.7s-.2-1,.6-.9c0-.3-.2-.5-.1-.8s.5-1.8.6-2.1.3-1.3.8-1.1v-.9c-.1,0,.6-.5.6-.5h-.4c0-1.3.7-2.1,1.3-3l.2.5.5-1-.6.2.4-1.5h.5c0,.1,1.2-3.1,1.2-3.1l-.3-.2c-.2.2-.7,2.3-.9,2.7s-.2.2-.2.1v-.5s2.5-7.6,2.5-7.6l.3-.3c0,0,.2.1.2.2.1.4,0,2.1,0,2.6-.3,5.8-2.8,12.3-4.2,18.1-.3,1.4-1,2.8-1,4.3ZM150.8,154.6c.4-.3,1.1-1.1.5-1.6-.4.4-.5,1-.5,1.6Z"/>
  <path class="st9" d="M148.2,157.2c0-.6.7-.6.9-.9s.3-.9.8-1c-.2,1.1-.7,1.6-1.7,1.9Z"/>
  <path class="st10" d="M104.3,106.1c-.3,0-.2,0-.3-.2-.2-.5-.4-1.3-.4-1.8.5.5.4,1.4.7,2Z"/>
</svg>