<?xml version="1.0" encoding="UTF-8"?>
<svg id="Layer_1" data-name="Layer 1" xmlns="http://www.w3.org/2000/svg" xmlns:xlink="http://www.w3.org/1999/xlink" viewBox="0 0 224 176">
  <defs>
    <style>
      .cls-1 {
        fill: url(#_未命名的渐变_102);
      }

      .cls-1, .cls-2, .cls-3, .cls-4, .cls-5, .cls-6 {
        fill-rule: evenodd;
      }

      .cls-7 {
        fill: #fff;
      }

      .cls-2 {
        fill: url(#_未命名的渐变_34);
      }

      .cls-3 {
        fill: url(#linear-gradient);
      }

      .cls-4 {
        fill: url(#_未命名的渐变_75);
      }

      .cls-8 {
        fill: none;
        mask: url(#mask);
      }

      .cls-5 {
        fill: #a6a1a1;
      }

      .cls-6 {
        fill: url(#_未命名的渐变_75-2);
      }
    </style>
    <linearGradient id="_未命名的渐变_75" data-name="未命名的渐变 75" x1="0" y1="69" x2="224" y2="69" gradientUnits="userSpaceOnUse">
      <stop offset="0" stop-color="#2f6cfa"/>
      <stop offset="1" stop-color="#03c"/>
    </linearGradient>
    <linearGradient id="linear-gradient" x1="15.58" y1="205.55" x2="196.35" y2="24.41" gradientTransform="translate(0 190) scale(1 -1)" gradientUnits="userSpaceOnUse">
      <stop offset="0" stop-color="#05815d"/>
      <stop offset="1" stop-color="#0c575f"/>
    </linearGradient>
    <mask id="mask" x="0" y="0" width="224" height="138" maskUnits="userSpaceOnUse">
      <g id="mask0_501_11930" data-name="mask0 501 11930">
        <path class="cls-3" d="m87.43,8.38c-4.37-5.31-10.88-8.38-17.75-8.38H12C5.37,0,0,5.37,0,12v114c0,6.63,5.37,12,12,12h200c6.63,0,12-5.37,12-12V36.14c0-6.63-5.37-12-12-12h-111.6l-12.98-15.76Z"/>
      </g>
    </mask>
    <linearGradient id="_未命名的渐变_34" data-name="未命名的渐变 34" x1="0" y1="162" x2="224" y2="14" gradientTransform="translate(0 190) scale(1 -1)" gradientUnits="userSpaceOnUse">
      <stop offset="0" stop-color="#39f"/>
      <stop offset=".95" stop-color="#36f"/>
    </linearGradient>
    <linearGradient id="_未命名的渐变_75-2" data-name="未命名的渐变 75" x1="-.07" y1="23.32" x2="223.94" y2="20.82" gradientTransform="translate(0 190) scale(1 -1)" xlink:href="#_未命名的渐变_75"/>
    <linearGradient id="_未命名的渐变_102" data-name="未命名的渐变 102" x1="0" y1="148" x2="224" y2="148" gradientTransform="translate(0 190) scale(1 -1)" gradientUnits="userSpaceOnUse">
      <stop offset="0" stop-color="#39f"/>
      <stop offset="1" stop-color="#39f"/>
    </linearGradient>
  </defs>
  <path class="cls-4" d="m87.43,8.38c-4.37-5.31-10.88-8.38-17.75-8.38H12C5.37,0,0,5.37,0,12v114c0,6.63,5.37,12,12,12h200c6.63,0,12-5.37,12-12V36.14c0-6.63-5.37-12-12-12h-111.6l-12.98-15.76Z"/>
  <g class="cls-8">
    <path class="cls-5" d="m75.79,40c4.98,0,9.82-1.61,13.8-4.6l9.87-7.4h112.54c6.63,0,12,5.37,12,12v86c0,6.63-5.37,12-12,12H12c-6.63,0-12-5.37-12-12V52c0-6.63,5.37-12,12-12h63.79Z"/>
  </g>
  <path class="cls-2" d="m75.79,40c4.98,0,9.82-1.61,13.8-4.6l9.87-7.4h112.54c6.63,0,12,5.37,12,12v124c0,6.63-5.37,12-12,12H12c-6.63,0-12-5.37-12-12V52c0-6.63,5.37-12,12-12h63.79Z"/>
  <path class="cls-6" d="m0,160v4c0,6.63,5.37,12,12,12h200c6.63,0,12-5.37,12-12v-4c0,6.63-5.37,12-12,12H12c-6.63,0-12-5.37-12-12Z"/>
  <path class="cls-1" d="m89.59,35.4c-3.98,2.98-8.82,4.6-13.8,4.6H12c-6.63,0-12,5.37-12,12v4c0-6.63,5.37-12,12-12h63.79c4.98,0,9.82-1.61,13.8-4.6l9.87-7.4h112.54c6.63,0,12,5.37,12,12v-4c0-6.63-5.37-12-12-12h-112.54l-9.87,7.4Z"/>
  <path class="cls-7" d="m159.84,70.35c0-2.22-.12-4.41-.87-6.59-1.08-3.14-2.44-6.06-4.63-8.58-2.5-2.87-5.46-5.04-9.06-6.4-2.6-.98-5.26-1.55-8-1.55-17.51-.03-35.02-.01-52.54-.01-5.03,0-9.53,1.52-13.56,4.55-3.63,2.72-6.17,6.23-7.75,10.45-1,2.68-1.3,5.45-1.29,8.32.06,17.02.03,34.03.03,51.05,0,1.3.05,2.59.07,3.89,0,.29.05.53.37.61.01.2.03.39.04.59.17,1.62.68,3.15,1.38,4.61.97,2.02,2.06,3.97,3.57,5.65,1.71,1.9,3.64,3.55,5.85,4.81,2.03,1.16,4.14,2.19,6.51,2.46.14.06.28.12.41.17,1.07.46,2.22.33,3.32.34,5.92.07,11.83.11,17.75.02,1.72-.03,3.02.58,4.26,1.61,2.12,1.77,4.24,3.54,6.37,5.3,3.35,2.77,6.67,5.58,10.05,8.3,3.06,2.46,6.08,4.96,9.07,7.5.32.27.69.41,1.05.49.99.24,2.01-.39,1.98-1.16.1-.03.18-.08.15-.21.02-.76.05-1.52.05-2.28,0-5.76-.02-11.52-.04-17.27,0-.13,0-.27,0-.4,0-.13,0-.26,0-.4,0-.13,0-.27,0-.4.02-.13.03-.26.05-.39-.04-.16-.06-.3-.06-.41,0,.11.02.25.06.41.63-.67,1.45-.66,2.29-.68,3.06-.05,6.08-.29,8.86-1.75l.1.02s.09-.04.09-.04c2.43-.81,4.52-2.24,6.38-3.9,1.94-1.73,3.63-3.72,4.83-6.1,1.24-2.45,2.17-4.98,2.54-7.71.12-.18.29-.35.19-.6.05-.99.14-1.99.14-2.98,0-17.12.02-34.23-.01-51.35Zm-2.49,55.18s-.03,0-.04,0h0s.03,0,.04,0Zm-6.82,12.48l.03-.03h0s-.02.02-.03.03Zm-2.49.71s0-.03,0-.04c0-.02,0-.03,0-.04.3-.04.64-.27.85.14-.21-.4-.54-.18-.83-.05Zm-.03-.07s-.01,0-.02,0c0,0,.01,0,.02,0,0,0,0,0,0,0Zm-.02-.02s0,0,0,.01c-.07-.02-.19,0-.3,0,.11-.01.23-.03.3-.02Zm-45.17-76.29c-.11.17-.21.33-.31.5h0c.1-.17.2-.34.31-.5Zm-24.61,19.3s.02-.09.05-.13c-.04.04-.05.08-.05.13Zm-1.64,9.42c.01-.15.04-.29.06-.44-.03.15-.05.29-.06.44,0,.07-.01.15-.01.22,0-.07,0-.15.01-.22Zm.17,1.09c.44-.33.22-.85.36-1.28,1.03-3.08,1.97-6.19,2.96-9.28.29-.91,1-1.18,1.96-1.02.84.14,1.63.46,2.41.72,3.3,1.1,6.61,2.22,9.94,3.23,1.6.48,3.16,1.08,4.77,1.55,1.18.34,2.39.66,3.54,1.12,1.04.42,1.1.39,1.1-.68,0-7.28,0-14.56,0-21.83,0-1.06.35-1.45,1.4-1.45,3.82,0,7.64,0,11.46.02.8,0,1.31.41,1.48,1.17.09.38.08.79.08,1.19,0,7.11-.02,14.22-.04,21.33,0,.55.05.68.66.42,1.11-.46,2.28-.77,3.44-1.1,1.65-.47,3.26-1.08,4.9-1.57,1.87-.56,3.71-1.29,5.58-1.88,2.25-.71,4.53-1.35,6.77-2.09,1.13-.37,1.84-.14,2.28.96.22.55.42,1.1.59,1.66.41,1.37.7,2.79,1.21,4.11.61,1.57,1.07,3.19,1.63,4.77.3.86.03,1.41-.68,1.67-1.18.42-2.36.84-3.53,1.28-.82.31-1.78.4-2.53.75-1.61.73-3.39.93-4.96,1.69-1.62.79-3.49.75-5.1,1.59-.2.06-.4.13-.6.19-1.22.4-2.45.78-3.67,1.2-.49.17-1.21.29-1.38.64-.25.54.51.83.81,1.25.04.05.06.12.1.17,2.69,3.73,5.37,7.46,8.06,11.19,1.33,1.84,2.72,3.65,4.03,5.51,1.1,1.57.7,1.84-.64,2.77-1.63,1.13-3.21,2.32-4.9,3.37-1.11.69-2.14,1.57-3.15,2.4-1.12.92-1.54,1.16-2.61.34-.76-1.06-1.52-2.11-2.28-3.17-2.42-3.35-4.83-6.7-7.25-10.04-1.1-1.52-2.18-3.05-3.29-4.55-.36-.49-.69-.88-1.25-.02-1.09,1.68-2.34,3.25-3.52,4.87-1.75,2.39-3.5,4.78-5.24,7.18-1.31,1.81-2.61,3.62-3.92,5.43-.53.73-1.26,1.07-2.06.58-1.15-.7-2.22-1.53-3.34-2.29-2.07-1.43-3.97-3.1-6.14-4.37,0,0,0,0,0,0-.62-.64-1.01-1.43-.35-2.14.3-.32.54-.67.78-1.01,1.88-2.56,3.65-5.2,5.6-7.7,1.29-1.66,2.38-3.45,3.7-5.08,1-1.24,1.85-2.6,2.8-3.87.45-.6.45-.91-.35-1.13-1.44-.38-2.79-1.05-4.26-1.33-.13-.06-.27-.12-.4-.18h0c-1.21-.25-2.3-.83-3.51-1.13-1.63-.41-3.15-1.18-4.8-1.57-1.89-.45-3.65-1.31-5.54-1.8-1.05-.27-2.12-.58-3.07-1.15-.04-.46-.38-.91-.05-1.38v-.22Zm47.5,65.41c.07.02.11.06.13.12-.02-.06-.06-.1-.13-.12Zm-.42-29.37c.08,0,.16,0,.24.01-.08,0-.16-.01-.24-.01Zm-31.91-28.52c-.17-.01-.34-.03-.52-.06.17.02.34.04.52.06.09,0,.17.01.26.01-.09,0-.17,0-.26-.01Zm-15.99-6.25c.04.07.09.12.14.17-.06-.05-.11-.1-.14-.17Zm54.76,34.61h0s0,.03,0,.04c0-.01,0-.03,0-.04Zm-65.17.93s.02.06.02.09c0-.03,0-.06-.02-.09Zm.91.38h0s-.04-.08-.06-.11h0s.04.08.06.11Zm-1.62.13c-.5-.07-.73-.25-.68-.56-.02.25.2.35.71.24,0-.09.03-.16.05-.2-.03.06-.04.13-.05.2,0,0,0,0,0,0,0,.01,0,.02,0,.03,0,.1-.13.31.13.29-.05.89.39,1.42.5,2.06-.13-.72-.67-1.3-.65-2.06Zm-.59-.85s0,0,0,0c0,0,0,0,0,0Zm-.07.18s0,.04-.01.05c0-.02,0-.03.01-.05Zm4.4,6.85c-.15.71.22.95.9.88.01-.02.02-.03.03-.03,0,.01-.02.02-.03.03,0,0,0,0,0,0,0,0-.01.02-.02.02-.03.05-.04.08-.03.09-.63-.04-1.01-.28-.85-1Zm.85,1s.04,0,.09-.03c0,0,.02-.01.03-.02.71,1.08,1.88,1.46,2.94,1.94-1.09-.49-2.28-.87-3.06-1.89Zm64.99,8.38c0-.07,0-.13.01-.19,0,.06-.01.12-.01.19Z"/>
</svg>