<?xml version="1.0" encoding="UTF-8"?>
<svg id="Layer_1" data-name="Layer 1" xmlns="http://www.w3.org/2000/svg" xmlns:xlink="http://www.w3.org/1999/xlink"  width="256" height="256" viewBox="0 0 256 256">
  <defs>
    <style>
      .cls-1 {
        fill: #001935;
      }

      .cls-1, .cls-2, .cls-3, .cls-4 {
        fill-rule: evenodd;
      }

      .cls-5 {
        fill: #fff;
      }

      .cls-6 {
        mask: url(#mask);
      }

      .cls-2 {
        fill: #a6a1a1;
      }

      .cls-3 {
        fill: url(#linear-gradient);
      }

      .cls-4 {
        fill: #3d5a70;
      }
    </style>
    <linearGradient id="linear-gradient" x1="15.58" y1="205.55" x2="196.35" y2="24.41" gradientTransform="translate(0 190) scale(1 -1)" gradientUnits="userSpaceOnUse">
      <stop offset="0" stop-color="#05815d"/>
      <stop offset="1" stop-color="#0c575f"/>
    </linearGradient>
    <mask id="mask" x="0" y="0" width="224" height="138" maskUnits="userSpaceOnUse">
      <g id="mask0_501_11930" data-name="mask0 501 11930">
        <path class="cls-3" d="M87.43,8.38c-4.37-5.31-10.88-8.38-17.75-8.38H12C5.37,0,0,5.37,0,12v114c0,6.63,5.37,12,12,12h200c6.63,0,12-5.37,12-12V36.14c0-6.63-5.37-12-12-12h-111.6l-12.98-15.76Z"/>
      </g>
    </mask>
  </defs>
  <g transform="translate(17, 34)">
  <path class="cls-1" d="M87.43,8.38c-4.37-5.31-10.88-8.38-17.75-8.38H12C5.37,0,0,5.37,0,12v114c0,6.63,5.37,12,12,12h200c6.63,0,12-5.37,12-12V36.14c0-6.63-5.37-12-12-12h-111.6l-12.98-15.76Z"/>
  <g class="cls-6">
    <path class="cls-2" d="M75.79,40c4.98,0,9.82-1.61,13.8-4.6l9.87-7.4h112.54c6.63,0,12,5.37,12,12v86c0,6.63-5.37,12-12,12H12c-6.63,0-12-5.37-12-12V52c0-6.63,5.37-12,12-12h63.79Z"/>
  </g>
  <path class="cls-1" d="M75.79,40c4.98,0,9.82-1.61,13.8-4.6l9.87-7.4h112.54c6.63,0,12,5.37,12,12v124c0,6.63-5.37,12-12,12H12c-6.63,0-12-5.37-12-12V52c0-6.63,5.37-12,12-12h63.79Z"/>
  <path class="cls-4" d="M0,160v4c0,6.63,5.37,12,12,12h200c6.63,0,12-5.37,12-12v-4c0,6.63-5.37,12-12,12H12c-6.63,0-12-5.37-12-12Z"/>
  <path class="cls-4" d="M89.59,35.4c-3.98,2.98-8.82,4.6-13.8,4.6H12c-6.63,0-12,5.37-12,12v4c0-6.63,5.37-12,12-12h63.79c4.98,0,9.82-1.61,13.8-4.6l9.87-7.4h112.54c6.63,0,12,5.37,12,12v-4c0-6.63-5.37-12-12-12h-112.54l-9.87,7.4Z"/>
  <path class="cls-5" d="M136,150.01h-14.75c-13.28,0-23.18-6.83-23.18-23.18v-26.18h-12.07v-14.18c13.28-3.45,18.84-14.88,19.48-24.78h13.79v22.48h16.09v16.47h-16.09v22.8c0,6.83,3.45,9.19,8.94,9.19h7.79v17.37Z"/>
  </g>
</svg>
