<svg width="256" height="256" viewBox="0 0 256 256" fill="none" xmlns="http://www.w3.org/2000/svg">
<path fill-rule="evenodd" clip-rule="evenodd" d="M104.425 42.3784C100.056 37.0733 93.5437 34 86.6712 34H29C22.3726 34 17 39.3726 17 46V58.1371V68.2V160C17 166.627 22.3726 172 29 172H229C235.627 172 241 166.627 241 160V70.1371C241 63.5097 235.627 58.1371 229 58.1371H117.404L104.425 42.3784Z" fill="#C04114"/>
<mask id="mask0_632_15240" style="mask-type:alpha" maskUnits="userSpaceOnUse" x="17" y="34" width="224" height="138">
<path fill-rule="evenodd" clip-rule="evenodd" d="M104.425 42.3784C100.056 37.0733 93.5437 34 86.6712 34H29C22.3726 34 17 39.3726 17 46V58.1371V68.2V160C17 166.627 22.3726 172 29 172H229C235.627 172 241 166.627 241 160V70.1371C241 63.5097 235.627 58.1371 229 58.1371H117.404L104.425 42.3784Z" fill="url(#paint0_linear_632_15240)"/>
</mask>
<g mask="url(#mask0_632_15240)">
<g style="mix-blend-mode:multiply" filter="url(#filter0_f_632_15240)">
<path fill-rule="evenodd" clip-rule="evenodd" d="M92.789 74C97.7642 74 102.605 72.3868 106.586 69.4024L116.459 62H229C235.627 62 241 67.3726 241 74V108V160C241 166.627 235.627 172 229 172H29C22.3726 172 17 166.627 17 160L17 108V86C17 79.3726 22.3726 74 29 74H87H92.789Z" fill="black" fill-opacity="0.3"/>
</g>
</g>
<g filter="url(#filter1_ii_632_15240)">
<path fill-rule="evenodd" clip-rule="evenodd" d="M92.789 74C97.7642 74 102.605 72.3868 106.586 69.4024L116.459 62H229C235.627 62 241 67.3726 241 74V108V198C241 204.627 235.627 210 229 210H29C22.3726 210 17 204.627 17 198L17 108V86C17 79.3726 22.3726 74 29 74H87H92.789Z" fill="url(#paint1_linear_632_15240)"/>
</g>
<path d="M68.1527 154.213C67.0333 154.493 65.5465 154.79 63.6924 155.105C61.8733 155.42 59.7569 155.577 57.3431 155.577C55.2441 155.577 53.4775 155.28 52.0432 154.685C50.6089 154.055 49.4545 153.181 48.5799 152.061C47.7054 150.942 47.0757 149.63 46.6909 148.126C46.3061 146.587 46.1137 144.89 46.1137 143.036V127.714H50.9937V141.986C50.9937 145.31 51.5185 147.689 52.568 149.123C53.6174 150.557 55.3841 151.274 57.8678 151.274C58.3926 151.274 58.9348 151.257 59.4945 151.222C60.0542 151.187 60.579 151.152 61.0687 151.117C61.5585 151.047 61.9958 150.994 62.3806 150.96C62.8004 150.89 63.0977 150.82 63.2726 150.75V127.714H68.1527V154.213ZM81.4401 128.92C82.0348 128.536 82.9269 128.133 84.1163 127.714C85.3407 127.294 86.74 127.084 88.3142 127.084C90.2732 127.084 92.0049 127.434 93.5091 128.133C95.0483 128.833 96.3427 129.813 97.3922 131.072C98.4417 132.331 99.2288 133.836 99.7535 135.585C100.313 137.334 100.593 139.258 100.593 141.357C100.593 143.561 100.261 145.555 99.5961 147.339C98.9664 149.088 98.0569 150.575 96.8674 151.799C95.678 153.023 94.2437 153.968 92.5646 154.633C90.8854 155.297 88.9964 155.63 86.8974 155.63C84.6235 155.63 82.612 155.472 80.8629 155.157C79.1138 154.843 77.6795 154.528 76.56 154.213V115.12L81.4401 114.28V128.92ZM81.4401 150.75C81.9299 150.89 82.612 151.029 83.4866 151.169C84.3961 151.274 85.5156 151.327 86.8449 151.327C89.4686 151.327 91.5676 150.47 93.1418 148.756C94.716 147.006 95.5031 144.54 95.5031 141.357C95.5031 139.957 95.3632 138.646 95.0833 137.421C94.8035 136.197 94.3487 135.147 93.719 134.273C93.0893 133.363 92.2672 132.664 91.2527 132.174C90.2732 131.649 89.0838 131.387 87.6845 131.387C86.3552 131.387 85.1308 131.614 84.0113 132.069C82.8919 132.524 82.0348 132.996 81.4401 133.486V150.75ZM129.184 154.213C128.065 154.493 126.578 154.79 124.724 155.105C122.905 155.42 120.789 155.577 118.375 155.577C116.276 155.577 114.509 155.28 113.075 154.685C111.641 154.055 110.486 153.181 109.612 152.061C108.737 150.942 108.107 149.63 107.723 148.126C107.338 146.587 107.145 144.89 107.145 143.036V127.714H112.025V141.986C112.025 145.31 112.55 147.689 113.6 149.123C114.649 150.557 116.416 151.274 118.9 151.274C119.424 151.274 119.966 151.257 120.526 151.222C121.086 151.187 121.611 151.152 122.1 151.117C122.59 151.047 123.027 150.994 123.412 150.96C123.832 150.89 124.129 150.82 124.304 150.75V127.714H129.184V154.213ZM137.592 128.501C138.711 128.221 140.198 127.923 142.052 127.609C143.906 127.294 146.04 127.136 148.454 127.136C150.623 127.136 152.424 127.451 153.859 128.081C155.293 128.676 156.43 129.533 157.269 130.652C158.144 131.737 158.756 133.048 159.106 134.588C159.456 136.127 159.631 137.824 159.631 139.678V155H154.751V140.727C154.751 139.048 154.628 137.614 154.383 136.424C154.173 135.235 153.806 134.273 153.281 133.538C152.757 132.804 152.057 132.279 151.182 131.964C150.308 131.614 149.223 131.439 147.929 131.439C147.404 131.439 146.862 131.457 146.302 131.492C145.743 131.527 145.2 131.579 144.676 131.649C144.186 131.684 143.731 131.737 143.311 131.807C142.927 131.876 142.647 131.929 142.472 131.964V155H137.592V128.501ZM172.288 127.714H182.626V131.807H172.288V144.4C172.288 145.765 172.393 146.902 172.603 147.811C172.813 148.686 173.128 149.385 173.548 149.91C173.968 150.4 174.492 150.75 175.122 150.96C175.752 151.169 176.486 151.274 177.326 151.274C178.795 151.274 179.967 151.117 180.842 150.802C181.751 150.452 182.381 150.207 182.731 150.067L183.675 154.108C183.186 154.353 182.328 154.65 181.104 155C179.88 155.385 178.48 155.577 176.906 155.577C175.052 155.577 173.513 155.35 172.288 154.895C171.099 154.405 170.137 153.688 169.402 152.744C168.668 151.799 168.143 150.645 167.828 149.28C167.548 147.881 167.408 146.272 167.408 144.453V120.105L172.288 119.265V127.714ZM210.56 154.213C209.441 154.493 207.954 154.79 206.1 155.105C204.281 155.42 202.164 155.577 199.75 155.577C197.651 155.577 195.885 155.28 194.451 154.685C193.016 154.055 191.862 153.181 190.987 152.061C190.113 150.942 189.483 149.63 189.098 148.126C188.713 146.587 188.521 144.89 188.521 143.036V127.714H193.401V141.986C193.401 145.31 193.926 147.689 194.975 149.123C196.025 150.557 197.791 151.274 200.275 151.274C200.8 151.274 201.342 151.257 201.902 151.222C202.462 151.187 202.986 151.152 203.476 151.117C203.966 151.047 204.403 150.994 204.788 150.96C205.208 150.89 205.505 150.82 205.68 150.75V127.714H210.56V154.213Z" fill="white"/>
<defs>
<filter id="filter0_f_632_15240" x="-20" y="25" width="298" height="184" filterUnits="userSpaceOnUse" color-interpolation-filters="sRGB">
<feFlood flood-opacity="0" result="BackgroundImageFix"/>
<feBlend mode="normal" in="SourceGraphic" in2="BackgroundImageFix" result="shape"/>
<feGaussianBlur stdDeviation="18.5" result="effect1_foregroundBlur_632_15240"/>
</filter>
<filter id="filter1_ii_632_15240" x="17" y="62" width="224" height="148" filterUnits="userSpaceOnUse" color-interpolation-filters="sRGB">
<feFlood flood-opacity="0" result="BackgroundImageFix"/>
<feBlend mode="normal" in="SourceGraphic" in2="BackgroundImageFix" result="shape"/>
<feColorMatrix in="SourceAlpha" type="matrix" values="0 0 0 0 0 0 0 0 0 0 0 0 0 0 0 0 0 0 127 0" result="hardAlpha"/>
<feOffset dy="4"/>
<feComposite in2="hardAlpha" operator="arithmetic" k2="-1" k3="1"/>
<feColorMatrix type="matrix" values="0 0 0 0 1 0 0 0 0 1 0 0 0 0 1 0 0 0 0.25 0"/>
<feBlend mode="normal" in2="shape" result="effect1_innerShadow_632_15240"/>
<feColorMatrix in="SourceAlpha" type="matrix" values="0 0 0 0 0 0 0 0 0 0 0 0 0 0 0 0 0 0 127 0" result="hardAlpha"/>
<feOffset dy="-4"/>
<feComposite in2="hardAlpha" operator="arithmetic" k2="-1" k3="1"/>
<feColorMatrix type="matrix" values="0 0 0 0 0 0 0 0 0 0 0 0 0 0 0 0 0 0 0.9 0"/>
<feBlend mode="soft-light" in2="effect1_innerShadow_632_15240" result="effect2_innerShadow_632_15240"/>
</filter>
<linearGradient id="paint0_linear_632_15240" x1="17" y1="34" x2="197.768" y2="215.142" gradientUnits="userSpaceOnUse">
<stop stop-color="#05815D"/>
<stop offset="1" stop-color="#0C575F"/>
</linearGradient>
<linearGradient id="paint1_linear_632_15240" x1="17" y1="62" x2="241" y2="210" gradientUnits="userSpaceOnUse">
<stop stop-color="#E1663B"/>
<stop offset="1" stop-color="#DD4814"/>
</linearGradient>
</defs>
</svg>
