<svg xmlns="http://www.w3.org/2000/svg" width="256" height="256" fill="none" viewBox="0 0 256 256">
  <path fill="url(#a)" fill-rule="evenodd" d="M104.425 42.378A23 23 0 0 0 86.671 34H29c-6.627 0-12 5.373-12 12v114c0 6.627 5.373 12 12 12h200c6.627 0 12-5.373 12-12V70.137c0-6.627-5.373-12-12-12H117.404l-12.979-15.759Z" clip-rule="evenodd"/>
  <mask id="d" width="224" height="138" x="17" y="34" maskUnits="userSpaceOnUse" style="mask-type:alpha">
    <path fill="url(#b)" fill-rule="evenodd" d="M104.425 42.378A23 23 0 0 0 86.671 34H29c-6.627 0-12 5.373-12 12v114c0 6.627 5.373 12 12 12h200c6.627 0 12-5.373 12-12V70.137c0-6.627-5.373-12-12-12H117.404l-12.979-15.759Z" clip-rule="evenodd"/>
  </mask>
  <g filter="url(#c)" mask="url(#d)">
    <path fill="#000" fill-opacity=".3" fill-rule="evenodd" d="M92.789 74c4.975 0 9.816-1.613 13.797-4.598L116.459 62H229c6.627 0 12 5.373 12 12v86c0 6.627-5.373 12-12 12H29c-6.627 0-12-5.373-12-12V86c0-6.627 5.373-12 12-12h63.789Z" clip-rule="evenodd"/>
  </g>
  <g filter="url(#e)">
    <path fill="url(#f)" fill-rule="evenodd" d="M92.789 74c4.975 0 9.816-1.613 13.797-4.598L116.459 62H229c6.627 0 12 5.373 12 12v124c0 6.627-5.373 12-12 12H29c-6.627 0-12-5.373-12-12V86c0-6.627 5.373-12 12-12h63.789Z" clip-rule="evenodd"/>
  </g>
  <path fill="#0085CA" d="M175.579 184.173V96.827A2.86 2.86 0 0 0 172.696 94H83.883C82.153 94 81 95.13 81 96.827v87.346A2.86 2.86 0 0 0 83.883 187h88.813a2.862 2.862 0 0 0 2.883-2.827Zm-3.748-.847h-87.08v-85.65h87.08v85.65Z"/>
  <path fill="#0085CA" d="M117.045 169.477c12.975 0 21.338-7.071 21.338-25.443V112.94h-9.517v31.941c0 12.156-4.901 16.113-11.821 16.113s-11.246-3.957-11.246-16.113v-31.659H95.707v31.096c0 18.091 8.363 25.159 21.338 25.159Zm39.215-48.906c3.461 0 6.055-2.261 6.055-5.369 0-3.393-2.594-5.654-6.055-5.654-3.462 0-6.056 2.261-6.056 5.654 0 3.108 2.597 5.369 6.056 5.369Zm4.901 7.35h-9.803v41.556h9.803v-41.556Z"/>
  <defs>
    <linearGradient id="a" x1="129" x2="129" y1="34" y2="172" gradientUnits="userSpaceOnUse">
      <stop stop-color="#0085CA"/>
      <stop offset="1" stop-color="#0085CA"/>
    </linearGradient>
    <linearGradient id="b" x1="17" x2="197.768" y1="34" y2="215.142" gradientUnits="userSpaceOnUse">
      <stop stop-color="#05815D"/>
      <stop offset="1" stop-color="#0C575F"/>
    </linearGradient>
    <linearGradient id="f" x1="17" x2="241" y1="62" y2="210" gradientUnits="userSpaceOnUse">
      <stop stop-color="#F2FBFF"/>
      <stop offset="1" stop-color="#BDE0EF"/>
    </linearGradient>
    <filter id="c" width="298" height="184" x="-20" y="25" color-interpolation-filters="sRGB" filterUnits="userSpaceOnUse">
      <feFlood flood-opacity="0" result="BackgroundImageFix"/>
      <feBlend in="SourceGraphic" in2="BackgroundImageFix" result="shape"/>
      <feGaussianBlur result="effect1_foregroundBlur_494_391" stdDeviation="18.5"/>
    </filter>
    <filter id="e" width="224" height="148" x="17" y="62" color-interpolation-filters="sRGB" filterUnits="userSpaceOnUse">
      <feFlood flood-opacity="0" result="BackgroundImageFix"/>
      <feBlend in="SourceGraphic" in2="BackgroundImageFix" result="shape"/>
      <feColorMatrix in="SourceAlpha" result="hardAlpha" values="0 0 0 0 0 0 0 0 0 0 0 0 0 0 0 0 0 0 127 0"/>
      <feOffset dy="4"/>
      <feComposite in2="hardAlpha" k2="-1" k3="1" operator="arithmetic"/>
      <feColorMatrix values="0 0 0 0 1 0 0 0 0 1 0 0 0 0 1 0 0 0 0.25 0"/>
      <feBlend in2="shape" result="effect1_innerShadow_494_391"/>
      <feColorMatrix in="SourceAlpha" result="hardAlpha" values="0 0 0 0 0 0 0 0 0 0 0 0 0 0 0 0 0 0 127 0"/>
      <feOffset dy="-4"/>
      <feComposite in2="hardAlpha" k2="-1" k3="1" operator="arithmetic"/>
      <feColorMatrix values="0 0 0 0 0 0 0 0 0 0 0 0 0 0 0 0 0 0 0.9 0"/>
      <feBlend in2="effect1_innerShadow_494_391" mode="soft-light" result="effect2_innerShadow_494_391"/>
    </filter>
  </defs>
</svg>
