<?xml version="1.0" encoding="UTF-8"?>
<svg id="Layer_1" data-name="Layer 1" xmlns="http://www.w3.org/2000/svg" xmlns:xlink="http://www.w3.org/1999/xlink" viewBox="0 0 256 256">
  <defs>
    <style>
      .cls-1, .cls-2, .cls-3, .cls-4, .cls-5, .cls-6, .cls-7 {
        stroke-width: 0px;
      }

      .cls-1, .cls-2, .cls-4, .cls-5, .cls-6, .cls-7 {
        fill-rule: evenodd;
      }

      .cls-2 {
        fill: url(#_Безымянный_градиент_180);
      }

      .cls-3 {
        fill: #fff;
      }

      .cls-4 {
        fill: url(#linear-gradient);
      }

      .cls-5 {
        fill: url(#_Безымянный_градиент_132);
      }

      .cls-6 {
        fill: url(#_Безымянный_градиент_125);
      }

      .cls-7 {
        fill: #a6a1a1;
      }

      .cls-8 {
        mask: url(#mask);
      }
    </style>
    <linearGradient id="linear-gradient" x1="32.58" y1="239.55" x2="213.35" y2="58.41" gradientTransform="translate(0 258) scale(1 -1)" gradientUnits="userSpaceOnUse">
      <stop offset="0" stop-color="#05815d"/>
      <stop offset="1" stop-color="#0c575f"/>
    </linearGradient>
    <mask id="mask" x="17" y="34" width="224" height="138" maskUnits="userSpaceOnUse">
      <g id="mask0_501_11930" data-name="mask0 501 11930">
        <path class="cls-4" d="m104.43,42.38c-4.37-5.31-10.88-8.38-17.75-8.38H29c-6.63,0-12,5.37-12,12v114c0,6.63,5.37,12,12,12h200c6.63,0,12-5.37,12-12v-89.86c0-6.63-5.37-12-12-12h-111.6l-12.98-15.76Z"/>
      </g>
    </mask>
    <linearGradient id="_Безымянный_градиент_132" data-name="Безымянный градиент 132" x1="17" y1="196" x2="241" y2="48" gradientTransform="translate(0 258) scale(1 -1)" gradientUnits="userSpaceOnUse">
      <stop offset="0" stop-color="#505050"/>
      <stop offset=".95" stop-color="#343434"/>
    </linearGradient>
    <linearGradient id="_Безымянный_градиент_125" data-name="Безымянный градиент 125" x1="16.93" y1="57.32" x2="240.94" y2="54.82" gradientTransform="translate(0 258) scale(1 -1)" gradientUnits="userSpaceOnUse">
      <stop offset="0" stop-color="#262121"/>
      <stop offset="1" stop-color="#000"/>
    </linearGradient>
    <linearGradient id="_Безымянный_градиент_180" data-name="Безымянный градиент 180" x1="17" y1="182" x2="241" y2="182" gradientTransform="translate(0 258) scale(1 -1)" gradientUnits="userSpaceOnUse">
      <stop offset="0" stop-color="#646464"/>
      <stop offset="1" stop-color="#505050"/>
    </linearGradient>
  </defs>
  <path class="cls-1" d="m104.43,42.38c-4.37-5.31-10.88-8.38-17.75-8.38H29c-6.63,0-12,5.37-12,12v114c0,6.63,5.37,12,12,12h200c6.63,0,12-5.37,12-12v-89.86c0-6.63-5.37-12-12-12h-111.6l-12.98-15.76Z"/>
  <g class="cls-8">
    <path class="cls-7" d="m92.79,74c4.98,0,9.82-1.61,13.8-4.6l9.87-7.4h112.54c6.63,0,12,5.37,12,12v86c0,6.63-5.37,12-12,12H29c-6.63,0-12-5.37-12-12v-74c0-6.63,5.37-12,12-12h63.79Z"/>
  </g>
  <path class="cls-5" d="m92.79,74c4.98,0,9.82-1.61,13.8-4.6l9.87-7.4h112.54c6.63,0,12,5.37,12,12v124c0,6.63-5.37,12-12,12H29c-6.63,0-12-5.37-12-12v-112c0-6.63,5.37-12,12-12h63.79Z"/>
  <path class="cls-6" d="m17,194v4c0,6.63,5.37,12,12,12h200c6.63,0,12-5.37,12-12v-4c0,6.63-5.37,12-12,12H29c-6.63,0-12-5.37-12-12Z"/>
  <path class="cls-2" d="m106.59,69.4c-3.98,2.98-8.82,4.6-13.8,4.6H29c-6.63,0-12,5.37-12,12v4c0-6.63,5.37-12,12-12h63.79c4.98,0,9.82-1.61,13.8-4.6l9.87-7.4h112.54c6.63,0,12,5.37,12,12v-4c0-6.63-5.37-12-12-12h-112.54l-9.87,7.4Z"/>
  <g>
    <path class="cls-3" d="m104.5,128.33c.36-.1.73-.14,1.1-.13,2.07.07,3.69,1.81,3.62,3.88v22.79c0,2.32-1.49,2.83-2.87,2.8-.93-.07-1.86-.24-2.75-.52,5.76,7.8,14.84,12.45,24.54,12.59l8.4-8.45,4.98,5.6c12.4-5.86,16.3-16.68,17.17-20.9-4.54,4.67-9.55,9.37-12.94,6.11,0,0-.18-17.4-.18-24.53,0-9.58,9.11-16.74,9.11-16.74-5,.89-11.01,2.66-17.38,8.92-.58.57-1.12,1.17-1.64,1.8-2.74-2.09-6.28-1.47-6.28-1.47,1.91,1.05,3.82,4.11,3.82,6.65v24.92s-4.17,3.67-7.39,3.67c-1.47.01-2.86-.69-3.72-1.88-.25-.33-.46-.7-.62-1.09v-30.77c-.95.78-4.16,1.41-4.16-3.9,0-3.32,2.39-7.27,6.64-9.69-4.3.67-9.96,2.37-15.75,7.27-6.87,5.93-10.78,14.59-10.69,23.67,0,0,3.11-9.71,7-10.6Z"/>
    <path class="cls-3" d="m128.55,189.44c28.02,0,50.73-22.72,50.73-50.74,0-28.02-22.71-50.73-50.73-50.73h0c-28.02,0-50.73,22.72-50.73,50.74,0,28.02,22.72,50.73,50.74,50.73Zm-.01-99.44c26.9,0,48.71,21.8,48.71,48.7h0c0,26.9-21.8,48.71-48.7,48.71-26.9,0-48.71-21.8-48.71-48.7,0-26.9,21.8-48.71,48.7-48.71Z"/>
  </g>
</svg>