<svg width="256" height="256" viewBox="0 0 256 256" fill="none" xmlns="http://www.w3.org/2000/svg">
<path fill-rule="evenodd" clip-rule="evenodd" d="M104.425 42.3784C100.056 37.0733 93.5437 34 86.6712 34H29C22.3726 34 17 39.3726 17 46V58.1371V68.2V160C17 166.627 22.3726 172 29 172H229C235.627 172 241 166.627 241 160V70.1371C241 63.5097 235.627 58.1371 229 58.1371H117.404L104.425 42.3784Z" fill="#091E36"/>
<mask id="mask0_510_11948" style="mask-type:alpha" maskUnits="userSpaceOnUse" x="17" y="34" width="224" height="138">
<path fill-rule="evenodd" clip-rule="evenodd" d="M104.425 42.3784C100.056 37.0733 93.5437 34 86.6712 34H29C22.3726 34 17 39.3726 17 46V58.1371V68.2V160C17 166.627 22.3726 172 29 172H229C235.627 172 241 166.627 241 160V70.1371C241 63.5097 235.627 58.1371 229 58.1371H117.404L104.425 42.3784Z" fill="url(#paint0_linear_510_11948)"/>
</mask>
<g mask="url(#mask0_510_11948)">
<g style="mix-blend-mode:multiply" filter="url(#filter0_f_510_11948)">
<path fill-rule="evenodd" clip-rule="evenodd" d="M92.789 74C97.7642 74 102.605 72.3868 106.586 69.4024L116.459 62H229C235.627 62 241 67.3726 241 74V108V160C241 166.627 235.627 172 229 172H29C22.3726 172 17 166.627 17 160L17 108V86C17 79.3726 22.3726 74 29 74H87H92.789Z" fill="black" fill-opacity="0.3"/>
</g>
</g>
<g filter="url(#filter1_ii_510_11948)">
<path fill-rule="evenodd" clip-rule="evenodd" d="M92.789 74C97.7642 74 102.605 72.3868 106.586 69.4024L116.459 62H229C235.627 62 241 67.3726 241 74V108V198C241 204.627 235.627 210 229 210H29C22.3726 210 17 204.627 17 198L17 108V86C17 79.3726 22.3726 74 29 74H87H92.789Z" fill="url(#paint1_linear_510_11948)"/>
</g>
<path fill-rule="evenodd" clip-rule="evenodd" d="M126.179 94.3216C124.977 94.732 123.732 95.2206 122.291 95.848C118.366 97.5561 114.82 99.5079 110.918 102.108C104.817 106.175 99.7677 110.705 94.6594 116.697C89.7925 122.406 86.3822 127.896 84.342 133.308C83.2273 136.265 82.5006 139.356 82.1938 142.444C82.0201 144.192 81.936 146.676 82.0569 146.486C82.086 146.44 82.3855 145.954 82.7225 145.406C83.6794 143.85 85.7826 140.701 87.1042 138.845C92.7204 130.96 97.7075 125.605 101.4 123.495C101.98 123.163 102.92 122.762 103.455 122.618C104.013 122.468 104.818 122.422 105.336 122.509C106.641 122.73 107.688 123.806 108.401 125.66L108.601 126.179L108.587 142.825L108.573 159.47L108.451 159.79C107.928 161.165 106.975 161.921 105.433 162.183C104.522 162.338 103.064 162.253 102.012 161.984C101.773 161.923 101.566 161.885 101.552 161.899C101.513 161.938 101.793 162.397 102.162 162.9C103.63 164.899 106.437 167.359 109.401 169.244C112.777 171.393 116.471 173.103 120.742 174.495C124.078 175.582 128.399 176.496 132.167 176.912L132.968 177L133.933 176.01C136.245 173.641 138.145 171.628 141.019 168.506C142.732 166.645 142.954 166.423 143.033 166.491C143.083 166.533 145.06 168.208 147.428 170.213C149.796 172.219 151.876 173.983 152.051 174.135L152.37 174.411L152.934 174.028C154.771 172.782 157.477 170.652 159.694 168.707C165.794 163.355 170.722 157.45 173.992 151.573C174.785 150.149 176.108 147.372 175.993 147.372C175.838 147.372 173.606 149.086 171.347 150.94C170.607 151.547 169.703 152.284 169.339 152.577C166.495 154.867 164.353 156.115 162.741 156.422C161.357 156.685 160.215 156.357 159.294 155.429C159.051 155.185 158.735 154.807 158.59 154.589L158.328 154.193V134.112V114.03L159.249 112.665C164.384 105.044 168.371 99.5718 169.619 98.4303L169.946 98.1309L169.725 98.1708C168.837 98.3313 167.253 98.7829 165.558 99.3587C164.538 99.7054 164.149 99.8474 162.891 100.331C161.991 100.677 160.073 101.533 158.797 102.158C154.861 104.086 151.449 106.3 148.616 108.766C147.266 109.942 145.542 111.736 144.745 112.795L144.52 113.095L144.138 112.772C143.086 111.884 141.14 111.217 138.708 110.913C138.109 110.838 136.638 110.724 136.638 110.752C136.638 110.757 137.001 111.118 137.445 111.556C139.608 113.688 140.865 115.685 141.177 117.484C141.232 117.805 141.244 121.591 141.233 135.938L141.219 153.988L140.681 154.503C138.388 156.696 135.969 158.192 133.836 158.738C133.41 158.846 133.218 158.861 132.195 158.858C128.818 158.849 126.876 158.028 125.126 155.868L124.716 155.362V134.258C124.716 122.65 124.706 113.153 124.692 113.153C124.679 113.153 124.549 113.227 124.403 113.316C124.256 113.406 123.979 113.532 123.786 113.596C122.766 113.934 121.915 113.715 121.098 112.904C120.288 112.1 119.679 110.879 119.351 109.403C119.247 108.936 119.23 108.689 119.228 107.589C119.226 106.475 119.241 106.237 119.352 105.688C119.64 104.258 120.042 103.123 120.743 101.762C122.058 99.2108 123.998 96.8707 127.034 94.1706C127.141 94.0761 127.203 93.9993 127.172 94C127.142 94.0007 126.695 94.1454 126.179 94.3216Z" fill="white"/>
<defs>
<filter id="filter0_f_510_11948" x="-20" y="25" width="298" height="184" filterUnits="userSpaceOnUse" color-interpolation-filters="sRGB">
<feFlood flood-opacity="0" result="BackgroundImageFix"/>
<feBlend mode="normal" in="SourceGraphic" in2="BackgroundImageFix" result="shape"/>
<feGaussianBlur stdDeviation="18.5" result="effect1_foregroundBlur_510_11948"/>
</filter>
<filter id="filter1_ii_510_11948" x="17" y="62" width="224" height="148" filterUnits="userSpaceOnUse" color-interpolation-filters="sRGB">
<feFlood flood-opacity="0" result="BackgroundImageFix"/>
<feBlend mode="normal" in="SourceGraphic" in2="BackgroundImageFix" result="shape"/>
<feColorMatrix in="SourceAlpha" type="matrix" values="0 0 0 0 0 0 0 0 0 0 0 0 0 0 0 0 0 0 127 0" result="hardAlpha"/>
<feOffset dy="4"/>
<feComposite in2="hardAlpha" operator="arithmetic" k2="-1" k3="1"/>
<feColorMatrix type="matrix" values="0 0 0 0 1 0 0 0 0 1 0 0 0 0 1 0 0 0 0.25 0"/>
<feBlend mode="normal" in2="shape" result="effect1_innerShadow_510_11948"/>
<feColorMatrix in="SourceAlpha" type="matrix" values="0 0 0 0 0 0 0 0 0 0 0 0 0 0 0 0 0 0 127 0" result="hardAlpha"/>
<feOffset dy="-4"/>
<feComposite in2="hardAlpha" operator="arithmetic" k2="-1" k3="1"/>
<feColorMatrix type="matrix" values="0 0 0 0 0 0 0 0 0 0 0 0 0 0 0 0 0 0 0.9 0"/>
<feBlend mode="soft-light" in2="effect1_innerShadow_510_11948" result="effect2_innerShadow_510_11948"/>
</filter>
<linearGradient id="paint0_linear_510_11948" x1="17" y1="34" x2="197.768" y2="215.142" gradientUnits="userSpaceOnUse">
<stop stop-color="#05815D"/>
<stop offset="1" stop-color="#0C575F"/>
</linearGradient>
<linearGradient id="paint1_linear_510_11948" x1="17" y1="62" x2="241" y2="210" gradientUnits="userSpaceOnUse">
<stop stop-color="#0D1027"/>
<stop offset="1" stop-color="#081F37"/>
</linearGradient>
</defs>
</svg>
