<svg width="256" height="256" viewBox="0 0 256 256" fill="none" xmlns="http://www.w3.org/2000/svg">
<path fill-rule="evenodd" clip-rule="evenodd" d="M104.425 42.3784C100.056 37.0733 93.5437 34 86.6712 34H29C22.3726 34 17 39.3726 17 46V58.1371V68.2V160C17 166.627 22.3726 172 29 172H229C235.627 172 241 166.627 241 160V70.1371C241 63.5097 235.627 58.1371 229 58.1371H117.404L104.425 42.3784Z" fill="#4B4949"/>
<mask id="mask0_751_16627" style="mask-type:alpha" maskUnits="userSpaceOnUse" x="17" y="34" width="224" height="138">
<path fill-rule="evenodd" clip-rule="evenodd" d="M104.425 42.3784C100.056 37.0733 93.5437 34 86.6712 34H29C22.3726 34 17 39.3726 17 46V58.1371V68.2V160C17 166.627 22.3726 172 29 172H229C235.627 172 241 166.627 241 160V70.1371C241 63.5097 235.627 58.1371 229 58.1371H117.404L104.425 42.3784Z" fill="url(#paint0_linear_751_16627)"/>
</mask>
<g mask="url(#mask0_751_16627)">
<g style="mix-blend-mode:multiply" filter="url(#filter0_f_751_16627)">
<path fill-rule="evenodd" clip-rule="evenodd" d="M92.789 74C97.7642 74 102.605 72.3868 106.586 69.4024L116.459 62H229C235.627 62 241 67.3726 241 74V108V160C241 166.627 235.627 172 229 172H29C22.3726 172 17 166.627 17 160L17 108V86C17 79.3726 22.3726 74 29 74H87H92.789Z" fill="black" fill-opacity="0.3"/>
</g>
</g>
<g filter="url(#filter1_ii_751_16627)">
<path fill-rule="evenodd" clip-rule="evenodd" d="M92.789 74C97.7642 74 102.605 72.3868 106.586 69.4024L116.459 62H229C235.627 62 241 67.3726 241 74V108V198C241 204.627 235.627 210 229 210H29C22.3726 210 17 204.627 17 198L17 108V86C17 79.3726 22.3726 74 29 74H87H92.789Z" fill="url(#paint1_linear_751_16627)"/>
</g>
<g filter="url(#filter2_d_751_16627)">
<path d="M127.027 184.725C124.539 184.115 122.119 182.215 121.033 179.976C120.355 178.528 120.061 176.425 120.332 174.706C120.717 172.196 121.802 170.409 124.041 168.6L124.652 168.08V152.949C124.652 144.604 124.561 137.751 124.448 137.683C124.358 137.615 123.77 137.864 123.159 138.249C119.88 140.307 118.116 143.428 117.754 147.793L117.596 149.557L119.088 150.982C120.807 152.633 121.644 154.216 121.938 156.387C122.39 159.44 121.44 162.018 119.111 164.19C117.256 165.931 115.741 166.542 113.231 166.542C107.961 166.564 103.935 162.222 104.388 157.043C104.636 154.351 105.224 153.085 107.192 151.163L108.888 149.489L109.069 147.295C109.386 143.631 109.996 141.279 111.218 138.882C112.1 137.231 115.379 133.409 116.759 132.459C117.256 132.097 117.596 131.78 117.55 131.713C117.482 131.667 113.525 131.599 108.775 131.577L100.113 131.554L100.045 114.773L100 97.9689L105.473 97.9237L110.969 97.8558L111.082 92.4279L111.195 87H129.288H147.381L147.449 92.4958L147.494 97.9689H152.922H158.35L158.305 114.773L158.237 131.554L149.62 131.622L141.003 131.667L143.288 133.997C144.532 135.263 146.002 136.982 146.522 137.796C148.105 140.239 149.123 143.677 149.417 147.68L149.575 149.783L150.548 150.507C151.837 151.479 152.809 152.814 153.51 154.532C154.03 155.776 154.076 156.206 154.008 158.015C153.94 159.644 153.804 160.322 153.329 161.34C152.538 163.059 150.977 164.687 149.236 165.614C147.879 166.361 147.766 166.383 145.233 166.383C142.813 166.383 142.541 166.338 141.32 165.728C139.692 164.891 137.928 163.059 137.136 161.363C136.593 160.187 136.525 159.779 136.525 157.676C136.525 155.482 136.571 155.188 137.227 153.831C137.905 152.384 139.058 151.027 140.167 150.303C140.642 149.964 140.709 149.783 140.709 148.426C140.687 144.197 138.38 139.945 135.123 138.181L133.97 137.548L133.811 150.846C133.721 158.151 133.698 165.026 133.766 166.112L133.902 168.125L135.259 169.391C136.231 170.319 136.819 171.133 137.362 172.264C138.041 173.734 138.109 174.028 138.086 176.108C138.086 178.189 138.041 178.483 137.362 179.863C136.118 182.441 134.128 184.047 131.437 184.68C129.718 185.087 128.587 185.11 127.027 184.725ZM131.708 179.931C132.16 179.637 132.816 179.026 133.178 178.574C133.744 177.805 133.811 177.556 133.811 175.995C133.811 174.457 133.744 174.163 133.201 173.44C132.093 171.992 131.301 171.585 129.401 171.517C127.795 171.427 127.637 171.472 126.597 172.196C125.036 173.236 124.358 174.548 124.471 176.289C124.72 179.772 128.768 181.83 131.708 179.931ZM115.13 161.883C116.103 161.363 117.369 159.825 117.641 158.807C118.161 156.862 117.279 154.713 115.515 153.628C114.542 153.017 112.168 152.927 111.15 153.447C107.984 155.12 107.735 159.44 110.72 161.476C111.647 162.086 112.009 162.199 113.163 162.199C113.886 162.199 114.768 162.064 115.13 161.883ZM147.766 161.453C149.168 160.39 149.801 159.056 149.711 157.314C149.62 155.686 148.987 154.6 147.63 153.696C146.929 153.221 146.477 153.108 145.255 153.108C143.966 153.085 143.582 153.175 142.768 153.718C141.411 154.623 140.709 155.912 140.709 157.54C140.709 160.367 142.541 162.199 145.391 162.199C146.612 162.199 146.906 162.109 147.766 161.453ZM121.938 115.044V109.503L119.292 109.481C117.822 109.481 116.125 109.458 115.492 109.435C114.882 109.435 113.615 109.435 112.733 109.458L111.082 109.503V115.044V120.585H116.51H121.938V115.044ZM147.449 115.18C147.472 112.262 147.426 109.797 147.336 109.707C147.155 109.548 141.976 109.413 138.176 109.481L136.412 109.503V114.886C136.412 117.849 136.48 120.359 136.571 120.45C136.661 120.517 139.126 120.563 142.044 120.54L147.381 120.472L147.449 115.18Z" fill="black"/>
</g>
<defs>
<filter id="filter0_f_751_16627" x="-20" y="25" width="298" height="184" filterUnits="userSpaceOnUse" color-interpolation-filters="sRGB">
<feFlood flood-opacity="0" result="BackgroundImageFix"/>
<feBlend mode="normal" in="SourceGraphic" in2="BackgroundImageFix" result="shape"/>
<feGaussianBlur stdDeviation="18.5" result="effect1_foregroundBlur_751_16627"/>
</filter>
<filter id="filter1_ii_751_16627" x="17" y="62" width="224" height="148" filterUnits="userSpaceOnUse" color-interpolation-filters="sRGB">
<feFlood flood-opacity="0" result="BackgroundImageFix"/>
<feBlend mode="normal" in="SourceGraphic" in2="BackgroundImageFix" result="shape"/>
<feColorMatrix in="SourceAlpha" type="matrix" values="0 0 0 0 0 0 0 0 0 0 0 0 0 0 0 0 0 0 127 0" result="hardAlpha"/>
<feOffset dy="4"/>
<feComposite in2="hardAlpha" operator="arithmetic" k2="-1" k3="1"/>
<feColorMatrix type="matrix" values="0 0 0 0 1 0 0 0 0 1 0 0 0 0 1 0 0 0 0.25 0"/>
<feBlend mode="normal" in2="shape" result="effect1_innerShadow_751_16627"/>
<feColorMatrix in="SourceAlpha" type="matrix" values="0 0 0 0 0 0 0 0 0 0 0 0 0 0 0 0 0 0 127 0" result="hardAlpha"/>
<feOffset dy="-4"/>
<feComposite in2="hardAlpha" operator="arithmetic" k2="-1" k3="1"/>
<feColorMatrix type="matrix" values="0 0 0 0 0 0 0 0 0 0 0 0 0 0 0 0 0 0 0.9 0"/>
<feBlend mode="soft-light" in2="effect1_innerShadow_751_16627" result="effect2_innerShadow_751_16627"/>
</filter>
<filter id="filter2_d_751_16627" x="94" y="82" width="70.3502" height="110" filterUnits="userSpaceOnUse" color-interpolation-filters="sRGB">
<feFlood flood-opacity="0" result="BackgroundImageFix"/>
<feColorMatrix in="SourceAlpha" type="matrix" values="0 0 0 0 0 0 0 0 0 0 0 0 0 0 0 0 0 0 127 0" result="hardAlpha"/>
<feOffset dy="1"/>
<feGaussianBlur stdDeviation="3"/>
<feComposite in2="hardAlpha" operator="out"/>
<feColorMatrix type="matrix" values="0 0 0 0 0 0 0 0 0 0 0 0 0 0 0 0 0 0 0.15 0"/>
<feBlend mode="normal" in2="BackgroundImageFix" result="effect1_dropShadow_751_16627"/>
<feBlend mode="normal" in="SourceGraphic" in2="effect1_dropShadow_751_16627" result="shape"/>
</filter>
<linearGradient id="paint0_linear_751_16627" x1="17" y1="34" x2="197.768" y2="215.142" gradientUnits="userSpaceOnUse">
<stop stop-color="#05815D"/>
<stop offset="1" stop-color="#0C575F"/>
</linearGradient>
<linearGradient id="paint1_linear_751_16627" x1="17" y1="62" x2="241" y2="210" gradientUnits="userSpaceOnUse">
<stop stop-color="white"/>
<stop offset="1" stop-color="#B3B4B5"/>
</linearGradient>
</defs>
</svg>
