<svg width="256" height="256" viewBox="0 0 256 256" fill="none" xmlns="http://www.w3.org/2000/svg">
<path fill-rule="evenodd" clip-rule="evenodd" d="M104.425 42.3784C100.056 37.0733 93.5437 34 86.6712 34H29C22.3726 34 17 39.3726 17 46V58.1371V68.2V160C17 166.627 22.3726 172 29 172H229C235.627 172 241 166.627 241 160V70.1371C241 63.5097 235.627 58.1371 229 58.1371H117.404L104.425 42.3784Z" fill="#8640B9"/>
<mask id="mask0_2031_33471" style="mask-type:alpha" maskUnits="userSpaceOnUse" x="17" y="34" width="224" height="138">
<path fill-rule="evenodd" clip-rule="evenodd" d="M104.425 42.3784C100.056 37.0733 93.5437 34 86.6712 34H29C22.3726 34 17 39.3726 17 46V58.1371V68.2V160C17 166.627 22.3726 172 29 172H229C235.627 172 241 166.627 241 160V70.1371C241 63.5097 235.627 58.1371 229 58.1371H117.404L104.425 42.3784Z" fill="url(#paint0_linear_2031_33471)"/>
</mask>
<g mask="url(#mask0_2031_33471)">
<g style="mix-blend-mode:multiply" filter="url(#filter0_f_2031_33471)">
<path fill-rule="evenodd" clip-rule="evenodd" d="M92.789 74C97.7642 74 102.605 72.3868 106.586 69.4024L116.459 62H229C235.627 62 241 67.3726 241 74V108V160C241 166.627 235.627 172 229 172H29C22.3726 172 17 166.627 17 160L17 108V86C17 79.3726 22.3726 74 29 74H87H92.789Z" fill="black" fill-opacity="0.3"/>
</g>
</g>
<g filter="url(#filter1_ii_2031_33471)">
<path fill-rule="evenodd" clip-rule="evenodd" d="M92.789 74C97.7642 74 102.605 72.3868 106.586 69.4024L116.459 62H229C235.627 62 241 67.3726 241 74V108V198C241 204.627 235.627 210 229 210H29C22.3726 210 17 204.627 17 198L17 108V86C17 79.3726 22.3726 74 29 74H87H92.789Z" fill="url(#paint1_linear_2031_33471)"/>
</g>
<path opacity="0.15" d="M130.831 82C126.937 82 123.03 82.4946 119.122 83.4687C115.272 84.3922 111.555 85.7089 107.973 87.4189C104.462 89.0696 101.113 91.0669 97.9742 93.3829C97.9694 93.3869 97.9645 93.3909 97.9598 93.3949C94.961 95.6178 92.2101 98.1775 89.7578 101.027C89.752 101.035 89.7462 101.043 89.7405 101.051C87.4594 103.748 85.5654 106.77 84.1168 110.024C84.112 110.035 84.1071 110.046 84.1024 110.057C82.7318 113.218 82.0156 116.641 82 120.105C82 122.822 82.3172 125.235 83.0757 127.356C83.0832 127.377 83.0909 127.397 83.0988 127.418C83.8832 129.474 85.0599 131.27 86.6085 132.632C86.6219 132.643 86.6354 132.656 86.6489 132.668C88.2063 133.99 90.0751 134.914 92.1515 135.488C92.1736 135.495 92.1956 135.501 92.2178 135.506C94.2423 136.016 96.4659 136.257 98.9086 136.257C99.6852 136.257 100.43 135.939 100.979 135.371C101.529 134.805 101.838 134.036 101.839 133.233C101.839 132.113 101.458 131.339 101.072 130.701L101.207 130.951C101.047 130.591 100.905 130.222 100.78 129.846C100.78 129.843 100.774 129.846 100.774 129.84C100.57 129.151 100.398 128.452 100.261 127.746C100.106 126.525 100.036 125.295 100.053 124.064C100.053 117.016 101.617 111.412 104.633 106.935C106.932 103.565 110.113 101.09 113.775 99.0311L115.768 186.383C115.786 187.173 116.103 187.924 116.65 188.476C117.198 189.028 117.933 189.338 118.698 189.338H137.531C138.127 189.338 138.71 189.15 139.201 188.798C139.692 188.447 140.066 187.949 140.276 187.371L176.596 86.7427C176.761 86.2852 176.816 85.7935 176.757 85.3093C176.697 84.8252 176.526 84.3629 176.257 83.9621C175.987 83.5612 175.628 83.2336 175.21 83.0071C174.791 82.7807 174.326 82.662 173.854 82.6613H164.729C164.119 82.661 163.523 82.8576 163.027 83.2234C162.53 83.5892 162.156 84.1062 161.957 84.702L139.898 150.985L138.992 85.2501C138.982 84.5077 138.708 83.7952 138.222 83.2481C137.736 82.701 137.072 82.3575 136.357 82.283C135.461 82.1905 134.562 82.1209 133.663 82.0744H133.657C132.716 82.0252 131.773 82.0014 130.831 82.003V82Z" fill="#201C2C"/>
<path opacity="0.3" d="M118.697 186.311L116.591 94.0598C110.462 96.4331 105.675 100.147 102.229 105.201C98.8226 110.258 97.1191 116.544 97.1191 124.062C97.1191 125.776 97.2047 127.183 97.3758 128.283C97.5873 129.338 97.7997 130.194 98.0131 130.854C98.2266 131.469 98.4188 131.953 98.59 132.304C98.8014 132.656 98.9071 132.964 98.9071 133.228C96.6519 133.228 94.6524 133.009 92.9086 132.57C91.1628 132.085 89.6939 131.337 88.5019 130.326C87.3522 129.318 86.4581 127.977 85.8199 126.305C85.2238 124.637 84.9258 122.571 84.9258 120.108C84.9258 117.12 85.542 114.174 86.7745 111.273C88.0511 108.373 89.7747 105.625 91.9453 103.03C94.1583 100.438 96.7337 98.0428 99.6714 95.8442C102.652 93.6457 105.822 91.755 109.183 90.1722C112.586 88.5457 116.117 87.2934 119.778 86.4156C123.481 85.4901 127.163 85.0273 130.824 85.0273C131.803 85.0273 132.696 85.0492 133.506 85.0929C134.356 85.1366 135.205 85.2021 136.055 85.2895L137.206 168.375L164.719 85.6827H173.846L137.526 186.315H118.694L118.697 186.311Z" fill="#201C2C"/>
<path d="M118.697 183.331L116.591 91.0793C110.462 93.4527 105.675 97.1665 102.229 102.221C98.8226 107.277 97.1191 113.564 97.1191 121.081C97.1191 122.795 97.2047 124.202 97.3758 125.303C97.5873 126.357 97.7997 127.214 98.0131 127.873C98.2266 128.489 98.4188 128.972 98.59 129.324C98.8014 129.675 98.9071 129.984 98.9071 130.248C96.6519 130.248 94.6524 130.028 92.9086 129.59C91.1628 129.105 89.6939 128.357 88.5019 127.346C87.3522 126.337 86.4581 124.997 85.8199 123.324C85.2238 121.656 84.9258 119.591 84.9258 117.128C84.9258 114.139 85.542 111.194 86.7745 108.292C88.0511 105.393 89.7747 102.645 91.9453 100.049C94.1583 97.4574 96.7337 95.0623 99.6714 92.8638C102.652 90.6653 105.822 88.7746 109.183 87.1917C112.586 85.5652 116.117 84.3129 119.778 83.4351C123.481 82.5097 127.163 82.0469 130.824 82.0469C131.803 82.0469 132.696 82.0687 133.506 82.1125C134.356 82.1561 135.205 82.2217 136.055 82.3091L137.206 165.394L164.719 82.7023H173.846L137.526 183.334H118.694L118.697 183.331Z" fill="white"/>
<defs>
<filter id="filter0_f_2031_33471" x="-20" y="25" width="298" height="184" filterUnits="userSpaceOnUse" color-interpolation-filters="sRGB">
<feFlood flood-opacity="0" result="BackgroundImageFix"/>
<feBlend mode="normal" in="SourceGraphic" in2="BackgroundImageFix" result="shape"/>
<feGaussianBlur stdDeviation="18.5" result="effect1_foregroundBlur_2031_33471"/>
</filter>
<filter id="filter1_ii_2031_33471" x="17" y="62" width="224" height="148" filterUnits="userSpaceOnUse" color-interpolation-filters="sRGB">
<feFlood flood-opacity="0" result="BackgroundImageFix"/>
<feBlend mode="normal" in="SourceGraphic" in2="BackgroundImageFix" result="shape"/>
<feColorMatrix in="SourceAlpha" type="matrix" values="0 0 0 0 0 0 0 0 0 0 0 0 0 0 0 0 0 0 127 0" result="hardAlpha"/>
<feOffset dy="4"/>
<feComposite in2="hardAlpha" operator="arithmetic" k2="-1" k3="1"/>
<feColorMatrix type="matrix" values="0 0 0 0 1 0 0 0 0 1 0 0 0 0 1 0 0 0 0.25 0"/>
<feBlend mode="normal" in2="shape" result="effect1_innerShadow_2031_33471"/>
<feColorMatrix in="SourceAlpha" type="matrix" values="0 0 0 0 0 0 0 0 0 0 0 0 0 0 0 0 0 0 127 0" result="hardAlpha"/>
<feOffset dy="-4"/>
<feComposite in2="hardAlpha" operator="arithmetic" k2="-1" k3="1"/>
<feColorMatrix type="matrix" values="0 0 0 0 0 0 0 0 0 0 0 0 0 0 0 0 0 0 0.9 0"/>
<feBlend mode="soft-light" in2="effect1_innerShadow_2031_33471" result="effect2_innerShadow_2031_33471"/>
</filter>
<linearGradient id="paint0_linear_2031_33471" x1="17" y1="34" x2="197.768" y2="215.142" gradientUnits="userSpaceOnUse">
<stop stop-color="#05815D"/>
<stop offset="1" stop-color="#0C575F"/>
</linearGradient>
<linearGradient id="paint1_linear_2031_33471" x1="17" y1="62" x2="241" y2="210" gradientUnits="userSpaceOnUse">
<stop stop-color="#AA63D4"/>
<stop offset="1" stop-color="#803BB5"/>
</linearGradient>
</defs>
</svg>
