<svg width="256" height="256" viewBox="0 0 256 256" fill="none" xmlns="http://www.w3.org/2000/svg">
<path fill-rule="evenodd" clip-rule="evenodd" d="M104.425 42.3784C100.056 37.0733 93.5437 34 86.6712 34H29C22.3726 34 17 39.3726 17 46V58.1371V68.2V160C17 166.627 22.3726 172 29 172H229C235.627 172 241 166.627 241 160V70.1371C241 63.5097 235.627 58.1371 229 58.1371H117.404L104.425 42.3784Z" fill="#676563"/>
<mask id="mask0_1009_26394" style="mask-type:alpha" maskUnits="userSpaceOnUse" x="17" y="34" width="224" height="138">
<path fill-rule="evenodd" clip-rule="evenodd" d="M104.425 42.3784C100.056 37.0733 93.5437 34 86.6712 34H29C22.3726 34 17 39.3726 17 46V58.1371V68.2V160C17 166.627 22.3726 172 29 172H229C235.627 172 241 166.627 241 160V70.1371C241 63.5097 235.627 58.1371 229 58.1371H117.404L104.425 42.3784Z" fill="url(#paint0_linear_1009_26394)"/>
</mask>
<g mask="url(#mask0_1009_26394)">
<g style="mix-blend-mode:multiply" filter="url(#filter0_f_1009_26394)">
<path fill-rule="evenodd" clip-rule="evenodd" d="M92.789 74C97.7642 74 102.605 72.3868 106.586 69.4024L116.459 62H229C235.627 62 241 67.3726 241 74V108V160C241 166.627 235.627 172 229 172H29C22.3726 172 17 166.627 17 160L17 108V86C17 79.3726 22.3726 74 29 74H87H92.789Z" fill="black" fill-opacity="0.3"/>
</g>
</g>
<g filter="url(#filter1_d_1009_26394)">
<g filter="url(#filter2_ii_1009_26394)">
<path fill-rule="evenodd" clip-rule="evenodd" d="M92.789 74C97.7642 74 102.605 72.3868 106.586 69.4024L116.459 62H229C235.627 62 241 67.3726 241 74V108V198C241 204.627 235.627 210 229 210H29C22.3726 210 17 204.627 17 198L17 108V86C17 79.3726 22.3726 74 29 74H87H92.789Z" fill="url(#paint1_linear_1009_26394)"/>
</g>
</g>
<path d="M101.098 90.6622C105.221 90.6622 109.233 89.3252 112.532 86.852L119.67 81.5H209.233C213.465 81.5 216.895 84.9305 216.895 89.1622V183.838C216.895 188.07 213.465 191.5 209.233 191.5H41.1622C36.9305 191.5 33.5 188.07 33.5 183.838V98.3243C33.5 94.0926 36.9305 90.6622 41.1622 90.6622H101.098Z" stroke="#979593" stroke-width="3"/>
<path d="M49.7718 172.52C49.8755 173.742 50.434 174.88 51.3369 175.71C52.2398 176.539 53.4212 177 54.6473 177C55.8735 177 57.0549 176.539 57.9578 175.71C58.8607 174.88 59.4192 173.742 59.5229 172.52L64.2658 116.462C64.2888 116.192 64.2999 115.921 64.2999 115.649C64.3009 110.32 59.9809 106 54.6509 106C54.3799 106 54.1089 106.011 53.8379 106.034C48.5279 106.483 44.5858 111.152 45.0348 116.463L49.7718 172.519V172.52Z" fill="url(#paint2_linear_1009_26394)"/>
<path d="M127.651 121C138.955 121 148.151 130.196 148.151 141.5C148.151 152.804 138.955 162 127.651 162C116.347 162 107.151 152.804 107.151 141.5C107.151 130.196 116.347 121 127.651 121ZM127.651 99C104.179 99 85.1509 118.028 85.1509 141.5C85.1509 164.972 104.179 184 127.651 184C151.123 184 170.151 164.972 170.151 141.5C170.151 118.028 151.123 99 127.651 99Z" fill="url(#paint3_linear_1009_26394)"/>
<path d="M228.5 106H205.5C204.837 106 204.201 105.737 203.732 105.268C203.263 104.799 203 104.163 203 103.5V91.5C203 90.837 203.263 90.2011 203.732 89.7322C204.201 89.2634 204.837 89 205.5 89H228.5C229.163 89 229.799 89.2634 230.268 89.7322C230.737 90.2011 231 90.837 231 91.5V103.5C231 104.163 230.737 104.799 230.268 105.268C229.799 105.737 229.163 106 228.5 106V106Z" fill="url(#paint4_linear_1009_26394)"/>
<path d="M228.5 184H205.5C204.837 184 204.201 183.737 203.732 183.268C203.263 182.799 203 182.163 203 181.5V169.5C203 168.837 203.263 168.201 203.732 167.732C204.201 167.263 204.837 167 205.5 167H228.5C229.163 167 229.799 167.263 230.268 167.732C230.737 168.201 231 168.837 231 169.5V181.5C231 182.163 230.737 182.799 230.268 183.268C229.799 183.737 229.163 184 228.5 184Z" fill="url(#paint5_linear_1009_26394)"/>
<path fill-rule="evenodd" clip-rule="evenodd" d="M50.984 215H33.016C32.7162 215 32.4232 214.91 32.1749 214.742C31.9266 214.574 31.7343 214.335 31.623 214.057L30 210H54L52.377 214.057C52.2657 214.335 52.0734 214.574 51.8251 214.742C51.5768 214.91 51.2838 215 50.984 215V215Z" fill="url(#paint6_linear_1009_26394)"/>
<path fill-rule="evenodd" clip-rule="evenodd" d="M222.984 215H205.016C204.716 215 204.423 214.91 204.175 214.742C203.927 214.574 203.734 214.335 203.623 214.057L202 210H226L224.377 214.057C224.266 214.335 224.073 214.574 223.825 214.742C223.577 214.91 223.284 215 222.984 215V215Z" fill="url(#paint7_linear_1009_26394)"/>
<defs>
<filter id="filter0_f_1009_26394" x="-20" y="25" width="298" height="184" filterUnits="userSpaceOnUse" color-interpolation-filters="sRGB">
<feFlood flood-opacity="0" result="BackgroundImageFix"/>
<feBlend mode="normal" in="SourceGraphic" in2="BackgroundImageFix" result="shape"/>
<feGaussianBlur stdDeviation="18.5" result="effect1_foregroundBlur_1009_26394"/>
</filter>
<filter id="filter1_d_1009_26394" x="13" y="62" width="232" height="156" filterUnits="userSpaceOnUse" color-interpolation-filters="sRGB">
<feFlood flood-opacity="0" result="BackgroundImageFix"/>
<feColorMatrix in="SourceAlpha" type="matrix" values="0 0 0 0 0 0 0 0 0 0 0 0 0 0 0 0 0 0 127 0" result="hardAlpha"/>
<feOffset dy="4"/>
<feGaussianBlur stdDeviation="2"/>
<feComposite in2="hardAlpha" operator="out"/>
<feColorMatrix type="matrix" values="0 0 0 0 0 0 0 0 0 0 0 0 0 0 0 0 0 0 0.25 0"/>
<feBlend mode="normal" in2="BackgroundImageFix" result="effect1_dropShadow_1009_26394"/>
<feBlend mode="normal" in="SourceGraphic" in2="effect1_dropShadow_1009_26394" result="shape"/>
</filter>
<filter id="filter2_ii_1009_26394" x="17" y="62" width="224" height="148" filterUnits="userSpaceOnUse" color-interpolation-filters="sRGB">
<feFlood flood-opacity="0" result="BackgroundImageFix"/>
<feBlend mode="normal" in="SourceGraphic" in2="BackgroundImageFix" result="shape"/>
<feColorMatrix in="SourceAlpha" type="matrix" values="0 0 0 0 0 0 0 0 0 0 0 0 0 0 0 0 0 0 127 0" result="hardAlpha"/>
<feOffset dy="4"/>
<feComposite in2="hardAlpha" operator="arithmetic" k2="-1" k3="1"/>
<feColorMatrix type="matrix" values="0 0 0 0 1 0 0 0 0 1 0 0 0 0 1 0 0 0 0.25 0"/>
<feBlend mode="normal" in2="shape" result="effect1_innerShadow_1009_26394"/>
<feColorMatrix in="SourceAlpha" type="matrix" values="0 0 0 0 0 0 0 0 0 0 0 0 0 0 0 0 0 0 127 0" result="hardAlpha"/>
<feOffset dy="-4"/>
<feComposite in2="hardAlpha" operator="arithmetic" k2="-1" k3="1"/>
<feColorMatrix type="matrix" values="0 0 0 0 0 0 0 0 0 0 0 0 0 0 0 0 0 0 0.9 0"/>
<feBlend mode="soft-light" in2="effect1_innerShadow_1009_26394" result="effect2_innerShadow_1009_26394"/>
</filter>
<linearGradient id="paint0_linear_1009_26394" x1="17" y1="34" x2="197.768" y2="215.142" gradientUnits="userSpaceOnUse">
<stop stop-color="#05815D"/>
<stop offset="1" stop-color="#0C575F"/>
</linearGradient>
<linearGradient id="paint1_linear_1009_26394" x1="129" y1="62" x2="129" y2="210" gradientUnits="userSpaceOnUse">
<stop stop-color="#C8C6C4"/>
<stop offset="1" stop-color="#B3B0AD"/>
</linearGradient>
<linearGradient id="paint2_linear_1009_26394" x1="54.6499" y1="106" x2="54.6499" y2="177" gradientUnits="userSpaceOnUse">
<stop offset="0.001" stop-color="#797775"/>
<stop offset="1" stop-color="#605E5C"/>
</linearGradient>
<linearGradient id="paint3_linear_1009_26394" x1="127.651" y1="99" x2="127.651" y2="184" gradientUnits="userSpaceOnUse">
<stop offset="0.001" stop-color="#8A8886"/>
<stop offset="1" stop-color="#797775"/>
</linearGradient>
<linearGradient id="paint4_linear_1009_26394" x1="217" y1="89" x2="217" y2="106" gradientUnits="userSpaceOnUse">
<stop offset="0.001" stop-color="#797775"/>
<stop offset="1" stop-color="#605E5C"/>
</linearGradient>
<linearGradient id="paint5_linear_1009_26394" x1="217" y1="167" x2="217" y2="184" gradientUnits="userSpaceOnUse">
<stop offset="0.001" stop-color="#797775"/>
<stop offset="1" stop-color="#605E5C"/>
</linearGradient>
<linearGradient id="paint6_linear_1009_26394" x1="42" y1="215" x2="42" y2="210" gradientUnits="userSpaceOnUse">
<stop offset="0.001" stop-color="#797775"/>
<stop offset="1" stop-color="#605E5C"/>
</linearGradient>
<linearGradient id="paint7_linear_1009_26394" x1="214" y1="215" x2="214" y2="210" gradientUnits="userSpaceOnUse">
<stop offset="0.001" stop-color="#797775"/>
<stop offset="1" stop-color="#605E5C"/>
</linearGradient>
</defs>
</svg>
