<svg width="256" height="256" viewBox="0 0 256 256" fill="none" xmlns="http://www.w3.org/2000/svg">
<path fill-rule="evenodd" clip-rule="evenodd" d="M104.425 42.3784C100.056 37.0733 93.5437 34 86.6712 34H29C22.3726 34 17 39.3726 17 46V58.1371V68.2V160C17 166.627 22.3726 172 29 172H229C235.627 172 241 166.627 241 160V70.1371C241 63.5097 235.627 58.1371 229 58.1371H117.404L104.425 42.3784Z" fill="#4C4C4C"/>
<mask id="mask0_1104_27180" style="mask-type:alpha" maskUnits="userSpaceOnUse" x="17" y="34" width="224" height="138">
<path fill-rule="evenodd" clip-rule="evenodd" d="M104.425 42.3784C100.056 37.0733 93.5437 34 86.6712 34H29C22.3726 34 17 39.3726 17 46V58.1371V68.2V160C17 166.627 22.3726 172 29 172H229C235.627 172 241 166.627 241 160V70.1371C241 63.5097 235.627 58.1371 229 58.1371H117.404L104.425 42.3784Z" fill="url(#paint0_linear_1104_27180)"/>
</mask>
<g mask="url(#mask0_1104_27180)">
<g style="mix-blend-mode:multiply" filter="url(#filter0_f_1104_27180)">
<path fill-rule="evenodd" clip-rule="evenodd" d="M92.789 74C97.7642 74 102.605 72.3868 106.586 69.4024L116.459 62H229C235.627 62 241 67.3726 241 74V108V160C241 166.627 235.627 172 229 172H29C22.3726 172 17 166.627 17 160L17 108V86C17 79.3726 22.3726 74 29 74H87H92.789Z" fill="black" fill-opacity="0.3"/>
</g>
</g>
<g filter="url(#filter1_ii_1104_27180)">
<path fill-rule="evenodd" clip-rule="evenodd" d="M92.789 74C97.7642 74 102.605 72.3868 106.586 69.4024L116.459 62H229C235.627 62 241 67.3726 241 74V108V198C241 204.627 235.627 210 229 210H29C22.3726 210 17 204.627 17 198L17 108V86C17 79.3726 22.3726 74 29 74H87H92.789Z" fill="url(#paint1_linear_1104_27180)"/>
<path fill-rule="evenodd" clip-rule="evenodd" d="M92.789 74C97.7642 74 102.605 72.3868 106.586 69.4024L116.459 62H229C235.627 62 241 67.3726 241 74V108V198C241 204.627 235.627 210 229 210H29C22.3726 210 17 204.627 17 198L17 108V86C17 79.3726 22.3726 74 29 74H87H92.789Z" fill="url(#paint2_linear_1104_27180)"/>
</g>
<g filter="url(#filter2_d_1104_27180)">
<path d="M151.842 134.567C136.526 126.382 121.86 118.857 106.869 111V158C122.644 149.424 139.272 141.571 151.907 134.567H151.842V134.567Z" fill="white"/>
</g>
<path d="M151.842 134.567C136.526 126.382 106.869 111 106.869 111L146.409 137.576C146.412 137.576 139.207 141.571 151.842 134.567Z" fill="black" fill-opacity="0.17"/>
<path d="M73.8091 192.745C75.268 192.745 76.6432 192.387 77.8517 191.753L95.2985 180.403C95.4428 180.331 95.5847 180.254 95.724 180.174L85.7372 167.426C81.1798 170.483 73.964 175.3 73.8091 175.298L53.5964 160.404L41.4688 157L48.9155 176.787L69.7666 191.753C70.975 192.387 72.3503 192.745 73.8091 192.745Z" fill="#555555"/>
<path d="M99.7665 173.17C99.7665 168.705 96.1467 165.085 91.6814 165.085C89.937 165.085 88.3216 165.638 87.0006 166.577C86.6116 166.839 86.1874 167.123 85.7372 167.426L95.724 180.174C98.1406 178.776 99.7665 176.163 99.7665 173.17Z" fill="#F8C33E"/>
<circle cx="38.7025" cy="132.957" r="15.9574" fill="url(#paint3_linear_1104_27180)"/>
<path d="M31.2553 157C14.8298 159.128 7.21277 173.312 7 182.532V217H19.7089L31.2553 157Z" fill="url(#paint4_linear_1104_27180)"/>
<path d="M13.1702 225.085C16.5779 225.085 19.3404 222.323 19.3404 218.915L19.7089 217H7V218.915C7 222.323 9.76249 225.085 13.1702 225.085Z" fill="#F8C33D"/>
<path fill-rule="evenodd" clip-rule="evenodd" d="M30.8289 157.067C24.8953 157.812 18.9141 164.642 18.9141 172.957V237H54.6587L58.8008 174.868C58.8663 174.319 58.904 173.761 58.9123 173.197L58.914 173.17H58.9126C58.9135 173.099 58.914 173.028 58.914 172.957C58.914 164.806 53.5423 158.822 46.7864 157.269L38.914 189.979L30.8289 157.067Z" fill="url(#paint5_linear_1104_27180)"/>
<path d="M45.2977 157.001L31.8928 157C31.5392 157 31.1842 157.023 30.8289 157.067L38.914 189.979L46.7864 157.269C46.2969 157.156 45.8002 157.067 45.2977 157.001Z" fill="white"/>
<defs>
<filter id="filter0_f_1104_27180" x="-20" y="25" width="298" height="184" filterUnits="userSpaceOnUse" color-interpolation-filters="sRGB">
<feFlood flood-opacity="0" result="BackgroundImageFix"/>
<feBlend mode="normal" in="SourceGraphic" in2="BackgroundImageFix" result="shape"/>
<feGaussianBlur stdDeviation="18.5" result="effect1_foregroundBlur_1104_27180"/>
</filter>
<filter id="filter1_ii_1104_27180" x="17" y="62" width="224" height="148" filterUnits="userSpaceOnUse" color-interpolation-filters="sRGB">
<feFlood flood-opacity="0" result="BackgroundImageFix"/>
<feBlend mode="normal" in="SourceGraphic" in2="BackgroundImageFix" result="shape"/>
<feColorMatrix in="SourceAlpha" type="matrix" values="0 0 0 0 0 0 0 0 0 0 0 0 0 0 0 0 0 0 127 0" result="hardAlpha"/>
<feOffset dy="4"/>
<feComposite in2="hardAlpha" operator="arithmetic" k2="-1" k3="1"/>
<feColorMatrix type="matrix" values="0 0 0 0 1 0 0 0 0 1 0 0 0 0 1 0 0 0 0.25 0"/>
<feBlend mode="normal" in2="shape" result="effect1_innerShadow_1104_27180"/>
<feColorMatrix in="SourceAlpha" type="matrix" values="0 0 0 0 0 0 0 0 0 0 0 0 0 0 0 0 0 0 127 0" result="hardAlpha"/>
<feOffset dy="-4"/>
<feComposite in2="hardAlpha" operator="arithmetic" k2="-1" k3="1"/>
<feColorMatrix type="matrix" values="0 0 0 0 0 0 0 0 0 0 0 0 0 0 0 0 0 0 0.9 0"/>
<feBlend mode="soft-light" in2="effect1_innerShadow_1104_27180" result="effect2_innerShadow_1104_27180"/>
</filter>
<filter id="filter2_d_1104_27180" x="91.8691" y="96" width="75.0381" height="77" filterUnits="userSpaceOnUse" color-interpolation-filters="sRGB">
<feFlood flood-opacity="0" result="BackgroundImageFix"/>
<feColorMatrix in="SourceAlpha" type="matrix" values="0 0 0 0 0 0 0 0 0 0 0 0 0 0 0 0 0 0 127 0" result="hardAlpha"/>
<feOffset/>
<feGaussianBlur stdDeviation="7.5"/>
<feComposite in2="hardAlpha" operator="out"/>
<feColorMatrix type="matrix" values="0 0 0 0 0 0 0 0 0 0 0 0 0 0 0 0 0 0 0.25 0"/>
<feBlend mode="normal" in2="BackgroundImageFix" result="effect1_dropShadow_1104_27180"/>
<feBlend mode="normal" in="SourceGraphic" in2="effect1_dropShadow_1104_27180" result="shape"/>
</filter>
<linearGradient id="paint0_linear_1104_27180" x1="17" y1="34" x2="197.768" y2="215.142" gradientUnits="userSpaceOnUse">
<stop stop-color="#05815D"/>
<stop offset="1" stop-color="#0C575F"/>
</linearGradient>
<linearGradient id="paint1_linear_1104_27180" x1="17" y1="62" x2="241" y2="210" gradientUnits="userSpaceOnUse">
<stop stop-color="#2770CE"/>
<stop offset="1" stop-color="#38B3D4"/>
</linearGradient>
<linearGradient id="paint2_linear_1104_27180" x1="17" y1="62" x2="241" y2="210" gradientUnits="userSpaceOnUse">
<stop stop-color="#1840FB"/>
<stop offset="1" stop-color="#23D9D6"/>
</linearGradient>
<linearGradient id="paint3_linear_1104_27180" x1="38.7025" y1="117" x2="38.7025" y2="148.915" gradientUnits="userSpaceOnUse">
<stop stop-color="#FFCE52"/>
<stop offset="1" stop-color="#F1B625"/>
</linearGradient>
<linearGradient id="paint4_linear_1104_27180" x1="19.1276" y1="157" x2="19.1276" y2="225.085" gradientUnits="userSpaceOnUse">
<stop stop-color="#666666"/>
<stop offset="1" stop-color="#4E4E4E"/>
</linearGradient>
<linearGradient id="paint5_linear_1104_27180" x1="38.914" y1="157" x2="38.914" y2="237" gradientUnits="userSpaceOnUse">
<stop stop-color="#6B6B6B"/>
<stop offset="1" stop-color="#4B4B4B"/>
</linearGradient>
</defs>
</svg>
