<?xml version="1.0" encoding="UTF-8" standalone="no"?>
<svg
   width="256"
   height="256"
   viewBox="0 0 256 256"
   fill="none"
   version="1.1"
   id="svg20"
   sodipodi:docname="visual_studio_code-1.svg"
   inkscape:version="1.4 (86a8ad7, 2024-10-11)"
   xmlns:inkscape="http://www.inkscape.org/namespaces/inkscape"
   xmlns:sodipodi="http://sodipodi.sourceforge.net/DTD/sodipodi-0.dtd"
   xmlns="http://www.w3.org/2000/svg"
   xmlns:svg="http://www.w3.org/2000/svg">
  <defs
     id="defs21" />
  <sodipodi:namedview
     id="namedview20"
     pagecolor="#ffffff"
     bordercolor="#000000"
     borderopacity="0.25"
     inkscape:showpageshadow="2"
     inkscape:pageopacity="0.0"
     inkscape:pagecheckerboard="0"
     inkscape:deskcolor="#d1d1d1"
     inkscape:zoom="2.2792969"
     inkscape:cx="135.34876"
     inkscape:cy="134.69066"
     inkscape:window-width="1444"
     inkscape:window-height="1360"
     inkscape:window-x="1913"
     inkscape:window-y="0"
     inkscape:window-maximized="0"
     inkscape:current-layer="base-svg-group" />
  <g
     clip-path="url(#clip0_16_132)"
     id="base-svg-group">
    <path
       fill-rule="evenodd"
       clip-rule="evenodd"
       d="M104.425 42.3784C100.056 37.0733 93.5437 34 86.6712 34H29C22.3726 34 17 39.3726 17 46V58.1371V68.2V160C17 166.627 22.3726 172 29 172H229C235.627 172 241 166.627 241 160V70.1371C241 63.5097 235.627 58.1371 229 58.1371H117.404L104.425 42.3784Z"
       fill="#0c5687"
       id="path1" />
    <mask
       id="mask0_16_132"
       style="mask-type:alpha"
       maskUnits="userSpaceOnUse"
       x="17"
       y="34"
       width="224"
       height="138">
      <path
         id="back-svg-group"
         fill-rule="evenodd"
         clip-rule="evenodd"
         d="M104.425 42.3784C100.056 37.0733 93.5437 34 86.6712 34H29C22.3726 34 17 39.3726 17 46V58.1371V68.2V160C17 166.627 22.3726 172 29 172H229C235.627 172 241 166.627 241 160V70.1371C241 63.5097 235.627 58.1371 229 58.1371H117.404L104.425 42.3784Z"
         fill="url(#paint0_linear_16_132)" />
    </mask>
    <g
       mask="url(#mask0_16_132)"
       id="g3">
      <g
         style="mix-blend-mode:multiply"
         filter="url(#filter0_f_16_132)"
         id="g2">
        <path
           fill-rule="evenodd"
           clip-rule="evenodd"
           d="M92.789 74C97.7642 74 102.605 72.3868 106.586 69.4024L116.459 62H229C235.627 62 241 67.3726 241 74V108V160C241 166.627 235.627 172 229 172H29C22.3726 172 17 166.627 17 160L17 108V86C17 79.3726 22.3726 74 29 74H87H92.789Z"
           fill="black"
           fill-opacity="0.3"
           id="path2" />
      </g>
    </g>
    <path
       id="front-svg-group"
       filter="url(#filter1_ii_16_132)"
       fill-rule="evenodd"
       clip-rule="evenodd"
       d="m 92.789,74 c 4.9752,0 9.816,-1.6132 13.797,-4.5976 L 116.459,62 H 229 c 6.627,0 12,5.3726 12,12 v 34 90 c 0,6.627 -5.373,12 -12,12 H 29 c -6.6274,0 -12,-5.373 -12,-12 V 108 86 c 0,-6.6274 5.3726,-12 12,-12 h 58 z"
       fill="url(#paint1_linear_16_132)"
       style="display:inline" />
    <defs
       id="defs10">
      <filter
         id="filter0_f_16_132"
         x="-20"
         y="25"
         width="298"
         height="184"
         filterUnits="userSpaceOnUse"
         color-interpolation-filters="sRGB">
        <feFlood
           flood-opacity="0"
           result="BackgroundImageFix"
           id="feFlood3" />
        <feBlend
           mode="normal"
           in="SourceGraphic"
           in2="BackgroundImageFix"
           result="shape"
           id="feBlend3" />
        <feGaussianBlur
           stdDeviation="18.5"
           result="effect1_foregroundBlur_16_132"
           id="feGaussianBlur3" />
      </filter>
      <filter
         id="filter1_ii_16_132"
         x="17"
         y="62"
         width="224"
         height="148"
         filterUnits="userSpaceOnUse"
         color-interpolation-filters="sRGB">
        <feFlood
           flood-opacity="0"
           result="BackgroundImageFix"
           id="feFlood4" />
        <feBlend
           mode="normal"
           in="SourceGraphic"
           in2="BackgroundImageFix"
           result="shape"
           id="feBlend4" />
        <feColorMatrix
           in="SourceAlpha"
           type="matrix"
           values="0 0 0 0 0 0 0 0 0 0 0 0 0 0 0 0 0 0 127 0"
           result="hardAlpha"
           id="feColorMatrix4" />
        <feOffset
           dy="4"
           id="feOffset4" />
        <feComposite
           in2="hardAlpha"
           operator="arithmetic"
           k2="-1"
           k3="1"
           id="feComposite4" />
        <feColorMatrix
           type="matrix"
           values="0 0 0 0 1 0 0 0 0 1 0 0 0 0 1 0 0 0 0.25 0"
           id="feColorMatrix5" />
        <feBlend
           mode="normal"
           in2="shape"
           result="effect1_innerShadow_16_132"
           id="feBlend5" />
        <feColorMatrix
           in="SourceAlpha"
           type="matrix"
           values="0 0 0 0 0 0 0 0 0 0 0 0 0 0 0 0 0 0 127 0"
           result="hardAlpha"
           id="feColorMatrix6" />
        <feOffset
           dy="-4"
           id="feOffset6" />
        <feComposite
           in2="hardAlpha"
           operator="arithmetic"
           k2="-1"
           k3="1"
           id="feComposite6" />
        <feColorMatrix
           type="matrix"
           values="0 0 0 0 0 0 0 0 0 0 0 0 0 0 0 0 0 0 0.9 0"
           id="feColorMatrix7" />
        <feBlend
           mode="soft-light"
           in2="effect1_innerShadow_16_132"
           result="effect2_innerShadow_16_132"
           id="feBlend7" />
      </filter>
      <linearGradient
         id="paint0_linear_16_132"
         x1="17"
         y1="34"
         x2="197.768"
         y2="215.142"
         gradientUnits="userSpaceOnUse">
        <stop
           stop-color="#FFE7A2"
           id="stop7" />
        <stop
           offset="1"
           stop-color="#FFCB3D"
           id="stop8" />
      </linearGradient>
      <linearGradient
         id="paint1_linear_16_132"
         x1="17"
         y1="62"
         x2="241"
         y2="210"
         gradientUnits="userSpaceOnUse">
        <stop
           stop-color="#3c99d4"
           id="stop9" />
        <stop
           offset="0.953125"
           stop-color="#1070b3"
           id="stop10" />
      </linearGradient>
      <clipPath
         id="clip0_16_132">
        <rect
           width="256"
           height="256"
           fill="white"
           id="rect10" />
      </clipPath>
    </defs>
    <g
       id="custom-svg-container">
      <g
         class="custom-svg"
         transform="translate(82.85427579048356 90.12) scale(0.9223538462895271)"
         style="filter: none;"
         id="g20">
        <mask
           id="mask0"
           mask-type="alpha"
           maskUnits="userSpaceOnUse"
           x="0"
           y="0"
           width="100"
           height="100">
          <path
             fill-rule="evenodd"
             clip-rule="evenodd"
             d="M70.9119 99.3171C72.4869 99.9307 74.2828 99.8914 75.8725 99.1264L96.4608 89.2197C98.6242 88.1787 100 85.9892 100 83.5872V16.4133C100 14.0113 98.6243 11.8218 96.4609 10.7808L75.8725 0.873756C73.7862 -0.130129 71.3446 0.11576 69.5135 1.44695C69.252 1.63711 69.0028 1.84943 68.769 2.08341L29.3551 38.0415L12.1872 25.0096C10.589 23.7965 8.35363 23.8959 6.86933 25.2461L1.36303 30.2549C-0.452552 31.9064 -0.454633 34.7627 1.35853 36.417L16.2471 50.0001L1.35853 63.5832C-0.454633 65.2374 -0.452552 68.0938 1.36303 69.7453L6.86933 74.7541C8.35363 76.1043 10.589 76.2037 12.1872 74.9905L29.3551 61.9587L68.769 97.9167C69.3925 98.5406 70.1246 99.0104 70.9119 99.3171ZM75.0152 27.2989L45.1091 50.0001L75.0152 72.7012V27.2989Z"
             fill="white"
             style="opacity: 1;"
             id="path10" />
        </mask>
        <g
           mask="url(#mask0)"
           id="g15"
           style="display:inline">
          <path
             d="M 96.4614,10.7962 75.8569,0.875542 C 73.4719,-0.272773 70.6217,0.211611 68.75,2.08333 L 1.29858,63.5832 c -1.814273,1.6541 -1.812187,4.5105 0.0045,6.162 l 5.50964,5.0088 c 1.48521,1.3502 3.72198,1.4496 5.32108,0.2365 L 93.3609,13.3699 C 96.086,11.3026 100,13.2462 100,16.6667 v -0.2392 c 0,-2.401 -1.3754,-4.5897 -3.5386,-5.6313 z"
             fill="#9db2ed"
             style="display:inline;opacity:1"
             id="path11" />
          <g
             filter="url(#filter0_d)"
             id="g12">
            <path
               d="m 96.4614,89.2038 -20.6045,9.9207 c -2.385,1.1485 -5.2352,0.6639 -7.1069,-1.2078 L 1.29858,36.4169 c -1.814273,-1.6542 -1.812187,-4.5106 0.0045,-6.1621 L 6.81272,25.246 C 8.29793,23.8958 10.5347,23.7964 12.1338,25.0095 L 93.3609,86.6301 C 96.086,88.6974 100,86.7538 100,83.3334 v 0.2392 c 0,2.4009 -1.3754,4.5896 -3.5386,5.6312 z"
               fill="#c0dff0"
               style="opacity:1"
               id="path12" />
          </g>
          <g
             filter="url(#filter1_d)"
             id="g13">
            <path
               d="M 75.8578,99.1263 C 73.4721,100.274 70.6219,99.7885 68.75,97.9166 71.0564,100.223 75,98.5895 75,95.3278 V 4.67213 C 75,1.41039 71.0564,-0.223106 68.75,2.08329 70.6219,0.211402 73.4721,-0.273666 75.8578,0.873633 L 96.4587,10.7807 C 98.6234,11.8217 100,14.0112 100,16.4132 v 67.1739 c 0,2.402 -1.3766,4.5915 -3.5414,5.6325 z"
               fill="#d4e6f7"
               style="opacity:1"
               id="path13" />
          </g>
          <g
             style="display:inline;mix-blend-mode:overlay"
             opacity="0.25"
             id="g14">
            <path
               fill-rule="evenodd"
               clip-rule="evenodd"
               d="m 70.8511,99.3171 c 1.575,0.6135 3.371,0.5742 4.9606,-0.1907 L 96.4,89.2197 c 2.1634,-1.041 3.5392,-3.2305 3.5392,-5.6326 V 16.4133 c 0,-2.4021 -1.3757,-4.5916 -3.5391,-5.6326 L 75.8117,0.873695 C 73.7255,-0.13019 71.2838,0.115699 69.4527,1.44688 69.1912,1.63705 68.942,1.84937 68.7082,2.08335 L 29.2943,38.0414 12.1264,25.0096 C 10.5283,23.7964 8.29285,23.8959 6.80855,25.246 l -5.5063,5.0088 c -1.815584,1.6516 -1.817665,4.5079 -0.0045,6.1621 L 16.1863,50 1.29775,63.5832 c -1.813165,1.6542 -1.811084,4.5105 0.0045,6.162 l 5.5063,5.0088 c 1.4843,1.3502 3.71975,1.4496 5.31785,0.2365 L 29.2943,61.9586 68.7082,97.9167 c 0.6235,0.6238 1.3556,1.0937 2.1429,1.4004 z M 74.9544,27.2989 45.0483,50 74.9544,72.7012 Z"
               fill="url(#paint0_linear)"
               id="path14" />
          </g>
        </g>
        <defs
           id="defs20">
          <filter
             id="filter0_d"
             x="-8.39411"
             y="15.8291"
             width="116.727"
             height="92.2456"
             filterUnits="userSpaceOnUse"
             color-interpolation-filters="sRGB">
            <feFlood
               flood-opacity="0"
               result="BackgroundImageFix"
               id="feFlood15" />
            <feColorMatrix
               in="SourceAlpha"
               type="matrix"
               values="0 0 0 0 0 0 0 0 0 0 0 0 0 0 0 0 0 0 127 0"
               id="feColorMatrix15" />
            <feOffset
               id="feOffset15" />
            <feGaussianBlur
               stdDeviation="4.16667"
               id="feGaussianBlur15" />
            <feColorMatrix
               type="matrix"
               values="0 0 0 0 0 0 0 0 0 0 0 0 0 0 0 0 0 0 0.25 0"
               id="feColorMatrix16" />
            <feBlend
               mode="overlay"
               in2="BackgroundImageFix"
               result="effect1_dropShadow"
               id="feBlend16" />
            <feBlend
               mode="normal"
               in="SourceGraphic"
               in2="effect1_dropShadow"
               result="shape"
               id="feBlend17" />
          </filter>
          <filter
             id="filter1_d"
             x="60.4167"
             y="-8.07558"
             width="47.9167"
             height="116.151"
             filterUnits="userSpaceOnUse"
             color-interpolation-filters="sRGB">
            <feFlood
               flood-opacity="0"
               result="BackgroundImageFix"
               id="feFlood17" />
            <feColorMatrix
               in="SourceAlpha"
               type="matrix"
               values="0 0 0 0 0 0 0 0 0 0 0 0 0 0 0 0 0 0 127 0"
               id="feColorMatrix17" />
            <feOffset
               id="feOffset17" />
            <feGaussianBlur
               stdDeviation="4.16667"
               id="feGaussianBlur17" />
            <feColorMatrix
               type="matrix"
               values="0 0 0 0 0 0 0 0 0 0 0 0 0 0 0 0 0 0 0.25 0"
               id="feColorMatrix18" />
            <feBlend
               mode="overlay"
               in2="BackgroundImageFix"
               result="effect1_dropShadow"
               id="feBlend18" />
            <feBlend
               mode="normal"
               in="SourceGraphic"
               in2="effect1_dropShadow"
               result="shape"
               id="feBlend19" />
          </filter>
          <linearGradient
             id="paint0_linear"
             x1="49.9392"
             y1="0.257812"
             x2="49.9392"
             y2="99.7423"
             gradientUnits="userSpaceOnUse">
            <stop
               stop-color="white"
               id="stop19" />
            <stop
               offset="1"
               stop-color="white"
               stop-opacity="0"
               id="stop20" />
          </linearGradient>
        </defs>
      </g>
    </g>
  </g>
</svg>
