<svg width="256" height="256" viewBox="0 0 256 256" fill="none" xmlns="http://www.w3.org/2000/svg">
<g clip-path="url(#clip0_4306_13350)">
<path d="M104.425 42.3784C100.056 37.0733 93.5437 34 86.6712 34H29C22.3726 34 17 39.3726 17 46V160C17 166.627 22.3726 172 29 172H229C235.627 172 241 166.627 241 160V70.1371C241 63.5097 235.627 58.1371 229 58.1371H117.404L104.425 42.3784Z" fill="url(#paint0_linear_4306_13350)"/>
<mask id="mask0_4306_13350" style="mask-type:alpha" maskUnits="userSpaceOnUse" x="17" y="34" width="224" height="138">
<path d="M86.6709 34C93.5434 34 100.057 37.0729 104.426 42.3779L117.403 58.1367H229C235.627 58.1367 241 63.5095 241 70.1367V160C241 166.627 235.627 172 229 172H29C22.3726 172 17 166.627 17 160V46C17 39.3726 22.3726 34 29 34H86.6709Z" fill="url(#paint1_linear_4306_13350)"/>
</mask>
<g mask="url(#mask0_4306_13350)">
<g filter="url(#filter0_f_4306_13350)" style="mix-blend-mode:multiply">
<path d="M241 160C241 166.627 235.627 172 229 172H29C22.3726 172 17 166.627 17 160V86C17 79.3726 22.3726 74 29 74H92.79C97.7649 73.9999 102.605 72.3865 106.586 69.4023L116.46 62H229C235.627 62 241 67.3726 241 74V160Z" fill="black" fill-opacity="0.3"/>
</g>
</g>
<g filter="url(#filter1_ii_4306_13350)">
<path fill-rule="evenodd" clip-rule="evenodd" d="M92.789 74C97.7642 74 102.605 72.3868 106.586 69.4024L116.459 62H229C235.627 62 241 67.3726 241 74V108V198C241 204.627 235.627 210 229 210H29C22.3726 210 17 204.627 17 198L17 108V86C17 79.3726 22.3726 74 29 74H87H92.789Z" fill="url(#paint2_linear_4306_13350)"/>
</g>
<g clip-path="url(#clip1_4306_13350)">
<mask id="mask1_4306_13350" style="mask-type:luminance" maskUnits="userSpaceOnUse" x="81" y="88" width="96" height="96">
<path d="M177 88H81V184H177V88Z" fill="white"/>
</mask>
<g mask="url(#mask1_4306_13350)">
<path d="M105.405 169.014L86.085 159.099L85.905 159.009C82.995 157.524 81 154.494 81 150.999V120.999C81 117.504 82.995 114.474 85.905 112.989L86.085 112.899L105.405 102.984C102.495 104.484 100.5 107.499 100.5 110.994V161.004C100.5 164.499 102.495 167.514 105.405 169.014Z" fill="url(#paint3_linear_4306_13350)"/>
<path d="M171.465 102.684C170.4 102.249 169.23 101.994 168 101.994C165 101.994 162.345 103.464 160.71 105.714L160.68 105.759L153 116.349L138.75 135.999L123.855 156.534L116.82 166.239L116.79 166.284C115.155 168.534 112.5 170.004 109.5 170.004C108.06 170.004 106.695 169.659 105.48 169.059C105.45 169.044 105.42 169.029 105.405 169.014L86.085 159.099C87.27 159.669 88.6049 159.999 89.9999 159.999C93.1649 159.999 95.9399 158.364 97.5449 155.904L100.5 151.359L110.49 135.999L123.855 115.464L136.455 96.0994C138.06 93.6244 140.835 92.0044 144 92.0044C145.23 92.0044 146.4 92.2444 147.465 92.6944L171.465 102.684Z" fill="url(#paint4_linear_4306_13350)"/>
<path d="M171.465 102.684C170.4 102.249 169.23 101.994 168 101.994C165 101.994 162.345 103.464 160.71 105.714L160.68 105.759L153 116.349L138.75 135.999L123.855 156.534L116.82 166.239L116.79 166.284C115.155 168.534 112.5 170.004 109.5 170.004C108.06 170.004 106.695 169.659 105.48 169.059C105.45 169.044 105.42 169.029 105.405 169.014L86.085 159.099C87.27 159.669 88.6049 159.999 89.9999 159.999C93.1649 159.999 95.9399 158.364 97.5449 155.904L100.5 151.359L110.49 135.999L123.855 115.464L136.455 96.0994C138.06 93.6244 140.835 92.0044 144 92.0044C145.23 92.0044 146.4 92.2444 147.465 92.6944L171.465 102.684Z" fill="url(#paint5_linear_4306_13350)" fill-opacity="0.3"/>
<path d="M171.465 169.315L147.465 179.305C146.4 179.755 145.23 179.995 144 179.995C140.835 179.995 138.06 178.375 136.455 175.9L123.855 156.535L110.49 136L100.5 120.64L97.5449 116.095C95.9399 113.635 93.1649 112 89.9999 112C88.6049 112 87.27 112.33 86.085 112.9L105.405 102.985C105.42 102.97 105.45 102.955 105.48 102.94C106.695 102.34 108.06 101.995 109.5 101.995C112.5 101.995 115.155 103.465 116.79 105.715L116.82 105.76L123.855 115.465L138.75 136L153 155.65L160.68 166.24L160.71 166.285C162.345 168.535 165 170.005 168 170.005C169.23 170.005 170.4 169.75 171.465 169.315Z" fill="url(#paint6_linear_4306_13350)"/>
<path d="M171.465 169.315L147.465 179.305C146.4 179.755 145.23 179.995 144 179.995C140.835 179.995 138.06 178.375 136.455 175.9L123.855 156.535L110.49 136L100.5 120.64L97.5449 116.095C95.9399 113.635 93.1649 112 89.9999 112C88.6049 112 87.27 112.33 86.085 112.9L105.405 102.985C105.42 102.97 105.45 102.955 105.48 102.94C106.695 102.34 108.06 101.995 109.5 101.995C112.5 101.995 115.155 103.465 116.79 105.715L116.82 105.76L123.855 115.465L138.75 136L153 155.65L160.68 166.24L160.71 166.285C162.345 168.535 165 170.005 168 170.005C169.23 170.005 170.4 169.75 171.465 169.315Z" fill="url(#paint7_radial_4306_13350)"/>
<path d="M177 110.994V161.004C177 164.739 174.72 167.949 171.465 169.314L147.465 179.304C150.72 177.954 153 174.744 153 170.994V101.004C153 97.2543 150.72 94.0443 147.465 92.6943L171.465 102.684C174.72 104.049 177 107.259 177 110.994Z" fill="url(#paint8_linear_4306_13350)"/>
</g>
</g>
</g>
<defs>
<filter id="filter0_f_4306_13350" x="-20" y="25" width="298" height="184" filterUnits="userSpaceOnUse" color-interpolation-filters="sRGB">
<feFlood flood-opacity="0" result="BackgroundImageFix"/>
<feBlend mode="normal" in="SourceGraphic" in2="BackgroundImageFix" result="shape"/>
<feGaussianBlur stdDeviation="18.5" result="effect1_foregroundBlur_4306_13350"/>
</filter>
<filter id="filter1_ii_4306_13350" x="17" y="62" width="224" height="148" filterUnits="userSpaceOnUse" color-interpolation-filters="sRGB">
<feFlood flood-opacity="0" result="BackgroundImageFix"/>
<feBlend mode="normal" in="SourceGraphic" in2="BackgroundImageFix" result="shape"/>
<feColorMatrix in="SourceAlpha" type="matrix" values="0 0 0 0 0 0 0 0 0 0 0 0 0 0 0 0 0 0 127 0" result="hardAlpha"/>
<feOffset dy="4"/>
<feComposite in2="hardAlpha" operator="arithmetic" k2="-1" k3="1"/>
<feColorMatrix type="matrix" values="0 0 0 0 0.419608 0 0 0 0 0.14902 0 0 0 0 0.690196 0 0 0 1 0"/>
<feBlend mode="normal" in2="shape" result="effect1_innerShadow_4306_13350"/>
<feColorMatrix in="SourceAlpha" type="matrix" values="0 0 0 0 0 0 0 0 0 0 0 0 0 0 0 0 0 0 127 0" result="hardAlpha"/>
<feOffset dy="-4"/>
<feComposite in2="hardAlpha" operator="arithmetic" k2="-1" k3="1"/>
<feColorMatrix type="matrix" values="0 0 0 0 0.0730768 0 0 0 0 0.034852 0 0 0 0 0.034852 0 0 0 1 0"/>
<feBlend mode="soft-light" in2="effect1_innerShadow_4306_13350" result="effect2_innerShadow_4306_13350"/>
</filter>
<linearGradient id="paint0_linear_4306_13350" x1="17" y1="34" x2="197.768" y2="215.142" gradientUnits="userSpaceOnUse">
<stop stop-color="#F6F2FF"/>
</linearGradient>
<linearGradient id="paint1_linear_4306_13350" x1="17" y1="34" x2="197.768" y2="215.142" gradientUnits="userSpaceOnUse">
<stop stop-color="#05815D"/>
<stop offset="1" stop-color="#0C575F"/>
</linearGradient>
<linearGradient id="paint2_linear_4306_13350" x1="176.439" y1="200.973" x2="119.815" y2="52.5335" gradientUnits="userSpaceOnUse">
<stop stop-color="#FFE3EC"/>
<stop offset="1" stop-color="#F6F2FF"/>
</linearGradient>
<linearGradient id="paint3_linear_4306_13350" x1="71.9117" y1="169.014" x2="112.333" y2="147.507" gradientUnits="userSpaceOnUse">
<stop offset="0.0725439" stop-color="#85148A"/>
<stop offset="0.296162" stop-color="#7F21A9"/>
<stop offset="0.661273" stop-color="#5B2AB5"/>
<stop offset="0.854932" stop-color="#4B20A0"/>
</linearGradient>
<linearGradient id="paint4_linear_4306_13350" x1="143.038" y1="89.0044" x2="101.928" y2="175.539" gradientUnits="userSpaceOnUse">
<stop stop-color="#4B20A0"/>
<stop offset="0.265936" stop-color="#6D37CD"/>
<stop offset="0.7848" stop-color="#7A41DC"/>
<stop offset="1" stop-color="#CA59F7"/>
</linearGradient>
<linearGradient id="paint5_linear_4306_13350" x1="134.274" y1="129.504" x2="104.639" y2="150.703" gradientUnits="userSpaceOnUse">
<stop stop-color="#30116E" stop-opacity="0"/>
<stop offset="0.164241" stop-color="#30116E" stop-opacity="0.7"/>
<stop offset="0.712141" stop-color="#30116E"/>
<stop offset="1" stop-color="#30116E" stop-opacity="0"/>
</linearGradient>
<linearGradient id="paint6_linear_4306_13350" x1="97.8096" y1="101.995" x2="142.842" y2="189.94" gradientUnits="userSpaceOnUse">
<stop offset="0.0374343" stop-color="#FFBAC7"/>
<stop offset="0.187907" stop-color="#EA71EF"/>
<stop offset="0.349289" stop-color="#CA59F7"/>
<stop offset="0.618324" stop-color="#8B52F4"/>
<stop offset="1" stop-color="#5750E2"/>
</linearGradient>
<radialGradient id="paint7_radial_4306_13350" cx="0" cy="0" r="1" gradientTransform="matrix(80.9051 32.5 -73.9418 184.501 79.6125 143.995)" gradientUnits="userSpaceOnUse">
<stop offset="0.611142" stop-color="#8B52F4" stop-opacity="0"/>
<stop offset="0.977982" stop-color="#30116E"/>
</radialGradient>
<linearGradient id="paint8_linear_4306_13350" x1="162.232" y1="84.0174" x2="162.232" y2="190.98" gradientUnits="userSpaceOnUse">
<stop stop-color="#FFBAC7"/>
<stop offset="0.291496" stop-color="#EA71EF"/>
<stop offset="0.675458" stop-color="#8B52F4"/>
<stop offset="0.916582" stop-color="#5750E2"/>
</linearGradient>
<clipPath id="clip0_4306_13350">
<rect width="256" height="256" fill="white"/>
</clipPath>
<clipPath id="clip1_4306_13350">
<rect width="96" height="96" fill="white" transform="translate(81 88)"/>
</clipPath>
</defs>
</svg>
