<svg width="256" height="256" viewBox="0 0 256 256" fill="none" xmlns="http://www.w3.org/2000/svg">
<path fill-rule="evenodd" clip-rule="evenodd" d="M104.425 42.3784C100.056 37.0733 93.5437 34 86.6712 34H29C22.3726 34 17 39.3726 17 46V58.1371V68.2V160C17 166.627 22.3726 172 29 172H229C235.627 172 241 166.627 241 160V70.1371C241 63.5097 235.627 58.1371 229 58.1371H117.404L104.425 42.3784Z" fill="#1C2623"/>
<mask id="mask0_489_92" style="mask-type:alpha" maskUnits="userSpaceOnUse" x="17" y="34" width="224" height="138">
<path fill-rule="evenodd" clip-rule="evenodd" d="M104.425 42.3784C100.056 37.0733 93.5437 34 86.6712 34H29C22.3726 34 17 39.3726 17 46V58.1371V68.2V160C17 166.627 22.3726 172 29 172H229C235.627 172 241 166.627 241 160V70.1371C241 63.5097 235.627 58.1371 229 58.1371H117.404L104.425 42.3784Z" fill="url(#paint0_linear_489_92)"/>
</mask>
<g mask="url(#mask0_489_92)">
<g style="mix-blend-mode:multiply" filter="url(#filter0_f_489_92)">
<path fill-rule="evenodd" clip-rule="evenodd" d="M92.789 74C97.7642 74 102.605 72.3868 106.586 69.4024L116.459 62H229C235.627 62 241 67.3726 241 74V108V160C241 166.627 235.627 172 229 172H29C22.3726 172 17 166.627 17 160V108V86C17 79.3726 22.3726 74 29 74H87H92.789Z" fill="#45B84A" fill-opacity="0.3"/>
</g>
</g>
<g filter="url(#filter1_ii_489_92)">
<path fill-rule="evenodd" clip-rule="evenodd" d="M92.789 74C97.7642 74 102.605 72.3868 106.586 69.4024L116.459 62H229C235.627 62 241 67.3726 241 74V108V198C241 204.627 235.627 210 229 210H29C22.3726 210 17 204.627 17 198V108V86C17 79.3726 22.3726 74 29 74H87H92.789Z" fill="url(#paint1_linear_489_92)"/>
</g>
<path d="M81.9184 121.302C81.9184 121.302 79.5673 119.607 82.3887 117.344L88.9622 111.466C88.9622 111.466 90.8431 109.488 92.8318 111.212L153.492 157.138V179.161C153.492 179.161 153.463 182.619 149.025 182.237L81.9184 121.302Z" fill="#00B294"/>
<path d="M97.5538 135.498L81.9185 149.712C81.9185 149.712 80.3119 150.908 81.9185 153.043L89.1778 159.646C89.1778 159.646 90.902 161.498 93.4491 159.391L110.025 146.822L97.5538 135.498Z" fill="#019B7D"/>
<path d="M125.004 135.615L153.678 113.72L153.492 91.8145C153.492 91.8145 152.268 87.0338 148.183 89.5221L110.025 124.251L125.004 135.615Z" fill="#019B7D"/>
<path d="M149.025 182.266C150.69 183.971 152.708 183.413 152.708 183.413L175.054 172.401C177.915 170.452 177.513 168.032 177.513 168.032V102.277C177.513 99.3874 174.554 98.3881 174.554 98.3881L155.187 89.052C150.955 86.4363 148.182 89.5222 148.182 89.5222C148.182 89.5222 151.748 86.9555 153.492 91.8146V178.759C153.492 179.357 153.365 179.945 153.11 180.474C152.6 181.502 151.493 182.462 148.838 182.061L149.025 182.266Z" fill="#24BFA5"/>
<defs>
<filter id="filter0_f_489_92" x="-20" y="25" width="298" height="184" filterUnits="userSpaceOnUse" color-interpolation-filters="sRGB">
<feFlood flood-opacity="0" result="BackgroundImageFix"/>
<feBlend mode="normal" in="SourceGraphic" in2="BackgroundImageFix" result="shape"/>
<feGaussianBlur stdDeviation="18.5" result="effect1_foregroundBlur_489_92"/>
</filter>
<filter id="filter1_ii_489_92" x="17" y="58" width="224" height="152" filterUnits="userSpaceOnUse" color-interpolation-filters="sRGB">
<feFlood flood-opacity="0" result="BackgroundImageFix"/>
<feBlend mode="normal" in="SourceGraphic" in2="BackgroundImageFix" result="shape"/>
<feColorMatrix in="SourceAlpha" type="matrix" values="0 0 0 0 0 0 0 0 0 0 0 0 0 0 0 0 0 0 127 0" result="hardAlpha"/>
<feOffset dy="4"/>
<feComposite in2="hardAlpha" operator="arithmetic" k2="-1" k3="1"/>
<feColorMatrix type="matrix" values="0 0 0 0 0.192157 0 0 0 0 0.945098 0 0 0 0 0.719216 0 0 0 0.3 0"/>
<feBlend mode="normal" in2="shape" result="effect1_innerShadow_489_92"/>
<feColorMatrix in="SourceAlpha" type="matrix" values="0 0 0 0 0 0 0 0 0 0 0 0 0 0 0 0 0 0 127 0" result="hardAlpha"/>
<feOffset dy="-4"/>
<feGaussianBlur stdDeviation="2"/>
<feComposite in2="hardAlpha" operator="arithmetic" k2="-1" k3="1"/>
<feColorMatrix type="matrix" values="0 0 0 0 0 0 0 0 0 0 0 0 0 0 0 0 0 0 0.25 0"/>
<feBlend mode="normal" in2="effect1_innerShadow_489_92" result="effect2_innerShadow_489_92"/>
</filter>
<linearGradient id="paint0_linear_489_92" x1="17" y1="34" x2="197.768" y2="215.142" gradientUnits="userSpaceOnUse">
<stop stop-color="#179633"/>
<stop offset="1" stop-color="#0C575F"/>
</linearGradient>
<linearGradient id="paint1_linear_489_92" x1="17" y1="62" x2="241" y2="210" gradientUnits="userSpaceOnUse">
<stop stop-color="#3D4D3D"/>
<stop offset="1" stop-color="#182418"/>
</linearGradient>
</defs>
</svg>
