<?xml version="1.0" encoding="UTF-8" standalone="no"?>
<svg
   width="256"
   height="256"
   viewBox="0 0 256 256"
   fill="none"
   version="1.1"
   id="svg20"
   sodipodi:docname="visual_studio-1.svg"
   xml:space="preserve"
   inkscape:version="1.4 (86a8ad7, 2024-10-11)"
   xmlns:inkscape="http://www.inkscape.org/namespaces/inkscape"
   xmlns:sodipodi="http://sodipodi.sourceforge.net/DTD/sodipodi-0.dtd"
   xmlns="http://www.w3.org/2000/svg"
   xmlns:svg="http://www.w3.org/2000/svg"><defs
     id="defs21"><filter
       id="filter0_dd"
       x="6.03194"
       y="4.38577"
       width="180.604"
       height="161.087"
       filterUnits="userSpaceOnUse"
       color-interpolation-filters="sRGB"><feFlood
         flood-opacity="0"
         result="BackgroundImageFix"
         id="feFlood11" /><feColorMatrix
         in="SourceAlpha"
         type="matrix"
         values="0 0 0 0 0 0 0 0 0 0 0 0 0 0 0 0 0 0 127 0"
         result="hardAlpha"
         id="feColorMatrix11" /><feOffset
         dy="0.246095"
         id="feOffset11" /><feGaussianBlur
         stdDeviation="0.246095"
         id="feGaussianBlur11" /><feColorMatrix
         type="matrix"
         values="0 0 0 0 0 0 0 0 0 0 0 0 0 0 0 0 0 0 0.24 0"
         id="feColorMatrix12" /><feBlend
         mode="normal"
         in2="BackgroundImageFix"
         result="effect1_dropShadow"
         id="feBlend12" /><feColorMatrix
         in="SourceAlpha"
         type="matrix"
         values="0 0 0 0 0 0 0 0 0 0 0 0 0 0 0 0 0 0 127 0"
         result="hardAlpha"
         id="feColorMatrix13" /><feOffset
         dy="1.29524"
         id="feOffset13" /><feGaussianBlur
         stdDeviation="2.59048"
         id="feGaussianBlur13" /><feColorMatrix
         type="matrix"
         values="0 0 0 0 0 0 0 0 0 0 0 0 0 0 0 0 0 0 0.22 0"
         id="feColorMatrix14" /><feBlend
         mode="normal"
         in2="effect1_dropShadow"
         result="effect2_dropShadow"
         id="feBlend14" /><feBlend
         mode="normal"
         in="SourceGraphic"
         in2="effect2_dropShadow"
         result="shape"
         id="feBlend15" /></filter><filter
       id="filter1_dd"
       x="6.03194"
       y="30.1181"
       width="180.604"
       height="161.085"
       filterUnits="userSpaceOnUse"
       color-interpolation-filters="sRGB"><feFlood
         flood-opacity="0"
         result="BackgroundImageFix"
         id="feFlood15-0" /><feColorMatrix
         in="SourceAlpha"
         type="matrix"
         values="0 0 0 0 0 0 0 0 0 0 0 0 0 0 0 0 0 0 127 0"
         result="hardAlpha"
         id="feColorMatrix15-9" /><feOffset
         dy="0.246095"
         id="feOffset15-0" /><feGaussianBlur
         stdDeviation="0.246095"
         id="feGaussianBlur15-0" /><feColorMatrix
         type="matrix"
         values="0 0 0 0 0 0 0 0 0 0 0 0 0 0 0 0 0 0 0.24 0"
         id="feColorMatrix16-6" /><feBlend
         mode="normal"
         in2="BackgroundImageFix"
         result="effect1_dropShadow"
         id="feBlend16-1" /><feColorMatrix
         in="SourceAlpha"
         type="matrix"
         values="0 0 0 0 0 0 0 0 0 0 0 0 0 0 0 0 0 0 127 0"
         result="hardAlpha"
         id="feColorMatrix17-3" /><feOffset
         dy="1.29524"
         id="feOffset17-8" /><feGaussianBlur
         stdDeviation="2.59048"
         id="feGaussianBlur17-9" /><feColorMatrix
         type="matrix"
         values="0 0 0 0 0 0 0 0 0 0 0 0 0 0 0 0 0 0 0.22 0"
         id="feColorMatrix18-3" /><feBlend
         mode="normal"
         in2="effect1_dropShadow"
         result="effect2_dropShadow"
         id="feBlend18-4" /><feBlend
         mode="normal"
         in="SourceGraphic"
         in2="effect2_dropShadow"
         result="shape"
         id="feBlend19-4" /></filter><filter
       id="filter2_dd"
       x="121.688"
       y="-6.05857"
       width="78.583"
       height="205.117"
       filterUnits="userSpaceOnUse"
       color-interpolation-filters="sRGB"><feFlood
         flood-opacity="0"
         result="BackgroundImageFix"
         id="feFlood19" /><feColorMatrix
         in="SourceAlpha"
         type="matrix"
         values="0 0 0 0 0 0 0 0 0 0 0 0 0 0 0 0 0 0 127 0"
         result="hardAlpha"
         id="feColorMatrix19" /><feOffset
         id="feOffset19" /><feGaussianBlur
         stdDeviation="0.129524"
         id="feGaussianBlur19" /><feColorMatrix
         type="matrix"
         values="0 0 0 0 0 0 0 0 0 0 0 0 0 0 0 0 0 0 0.24 0"
         id="feColorMatrix20" /><feBlend
         mode="normal"
         in2="BackgroundImageFix"
         result="effect1_dropShadow"
         id="feBlend20" /><feColorMatrix
         in="SourceAlpha"
         type="matrix"
         values="0 0 0 0 0 0 0 0 0 0 0 0 0 0 0 0 0 0 127 0"
         result="hardAlpha"
         id="feColorMatrix21" /><feOffset
         id="feOffset21" /><feGaussianBlur
         stdDeviation="7.77143"
         id="feGaussianBlur21" /><feColorMatrix
         type="matrix"
         values="0 0 0 0 0 0 0 0 0 0 0 0 0 0 0 0 0 0 0.3 0"
         id="feColorMatrix22" /><feBlend
         mode="normal"
         in2="effect1_dropShadow"
         result="effect2_dropShadow"
         id="feBlend22" /><feBlend
         mode="normal"
         in="SourceGraphic"
         in2="effect2_dropShadow"
         result="shape"
         id="feBlend23" /></filter><linearGradient
       id="paint0_linear-6"
       x1="151.642"
       y1="8.27149"
       x2="20.6141"
       y2="140.148"
       gradientUnits="userSpaceOnUse"><stop
         stop-color="#7252AA"
         id="stop23" /><stop
         offset="1"
         stop-color="#7252AA"
         id="stop24" /></linearGradient><linearGradient
       id="paint1_linear"
       x1="24.8145"
       y1="40.4371"
       x2="147.966"
       y2="178.293"
       gradientUnits="userSpaceOnUse"><stop
         stop-color="#AE7FE2"
         id="stop25"
         offset="0"
         style="stop-color:#9db2ed;stop-opacity:1;" /><stop
         offset="1"
         stop-color="#9A70D4"
         id="stop26" /></linearGradient><linearGradient
       id="paint2_linear"
       x1="160.457"
       y1="5.93579"
       x2="160.457"
       y2="183.367"
       gradientUnits="userSpaceOnUse"><stop
         stop-color="#D59DFF"
         id="stop27" /><stop
         offset="1"
         stop-color="#C18EF1"
         id="stop28" /></linearGradient><clipPath
       id="clip0"><rect
         width="176.457"
         height="176.457"
         fill="white"
         transform="translate(8.27148 8.27148)"
         id="rect28" /></clipPath><clipPath
       id="clip1"><rect
         width="176.457"
         height="176.457"
         fill="white"
         transform="translate(8.27148 8.27148)"
         id="rect29" /></clipPath><filter
       id="filter0_dd-3"
       x="6.03194"
       y="4.38577"
       width="180.604"
       height="161.087"
       filterUnits="userSpaceOnUse"
       color-interpolation-filters="sRGB"><feFlood
         flood-opacity="0"
         result="BackgroundImageFix"
         id="feFlood11-5" /><feColorMatrix
         in="SourceAlpha"
         type="matrix"
         values="0 0 0 0 0 0 0 0 0 0 0 0 0 0 0 0 0 0 127 0"
         result="hardAlpha"
         id="feColorMatrix11-9" /><feOffset
         dy="0.246095"
         id="feOffset11-8" /><feGaussianBlur
         stdDeviation="0.246095"
         id="feGaussianBlur11-4" /><feColorMatrix
         type="matrix"
         values="0 0 0 0 0 0 0 0 0 0 0 0 0 0 0 0 0 0 0.24 0"
         id="feColorMatrix12-0" /><feBlend
         mode="normal"
         in2="BackgroundImageFix"
         result="effect1_dropShadow"
         id="feBlend12-7" /><feColorMatrix
         in="SourceAlpha"
         type="matrix"
         values="0 0 0 0 0 0 0 0 0 0 0 0 0 0 0 0 0 0 127 0"
         result="hardAlpha"
         id="feColorMatrix13-6" /><feOffset
         dy="1.29524"
         id="feOffset13-3" /><feGaussianBlur
         stdDeviation="2.59048"
         id="feGaussianBlur13-6" /><feColorMatrix
         type="matrix"
         values="0 0 0 0 0 0 0 0 0 0 0 0 0 0 0 0 0 0 0.22 0"
         id="feColorMatrix14-1" /><feBlend
         mode="normal"
         in2="effect1_dropShadow"
         result="effect2_dropShadow"
         id="feBlend14-5" /><feBlend
         mode="normal"
         in="SourceGraphic"
         in2="effect2_dropShadow"
         result="shape"
         id="feBlend15-4" /></filter><filter
       id="filter1_dd-2"
       x="6.03194"
       y="30.1181"
       width="180.604"
       height="161.085"
       filterUnits="userSpaceOnUse"
       color-interpolation-filters="sRGB"><feFlood
         flood-opacity="0"
         result="BackgroundImageFix"
         id="feFlood15-09" /><feColorMatrix
         in="SourceAlpha"
         type="matrix"
         values="0 0 0 0 0 0 0 0 0 0 0 0 0 0 0 0 0 0 127 0"
         result="hardAlpha"
         id="feColorMatrix15-7" /><feOffset
         dy="0.246095"
         id="feOffset15-3" /><feGaussianBlur
         stdDeviation="0.246095"
         id="feGaussianBlur15-7" /><feColorMatrix
         type="matrix"
         values="0 0 0 0 0 0 0 0 0 0 0 0 0 0 0 0 0 0 0.24 0"
         id="feColorMatrix16-2" /><feBlend
         mode="normal"
         in2="BackgroundImageFix"
         result="effect1_dropShadow"
         id="feBlend16-6" /><feColorMatrix
         in="SourceAlpha"
         type="matrix"
         values="0 0 0 0 0 0 0 0 0 0 0 0 0 0 0 0 0 0 127 0"
         result="hardAlpha"
         id="feColorMatrix17-0" /><feOffset
         dy="1.29524"
         id="feOffset17-1" /><feGaussianBlur
         stdDeviation="2.59048"
         id="feGaussianBlur17-6" /><feColorMatrix
         type="matrix"
         values="0 0 0 0 0 0 0 0 0 0 0 0 0 0 0 0 0 0 0.22 0"
         id="feColorMatrix18-5" /><feBlend
         mode="normal"
         in2="effect1_dropShadow"
         result="effect2_dropShadow"
         id="feBlend18-7" /><feBlend
         mode="normal"
         in="SourceGraphic"
         in2="effect2_dropShadow"
         result="shape"
         id="feBlend19-5" /></filter><filter
       id="filter2_dd-4"
       x="121.688"
       y="-6.05857"
       width="78.583"
       height="205.117"
       filterUnits="userSpaceOnUse"
       color-interpolation-filters="sRGB"><feFlood
         flood-opacity="0"
         result="BackgroundImageFix"
         id="feFlood19-1" /><feColorMatrix
         in="SourceAlpha"
         type="matrix"
         values="0 0 0 0 0 0 0 0 0 0 0 0 0 0 0 0 0 0 127 0"
         result="hardAlpha"
         id="feColorMatrix19-2" /><feOffset
         id="feOffset19-0" /><feGaussianBlur
         stdDeviation="0.129524"
         id="feGaussianBlur19-0" /><feColorMatrix
         type="matrix"
         values="0 0 0 0 0 0 0 0 0 0 0 0 0 0 0 0 0 0 0.24 0"
         id="feColorMatrix20-1" /><feBlend
         mode="normal"
         in2="BackgroundImageFix"
         result="effect1_dropShadow"
         id="feBlend20-4" /><feColorMatrix
         in="SourceAlpha"
         type="matrix"
         values="0 0 0 0 0 0 0 0 0 0 0 0 0 0 0 0 0 0 127 0"
         result="hardAlpha"
         id="feColorMatrix21-6" /><feOffset
         id="feOffset21-0" /><feGaussianBlur
         stdDeviation="7.77143"
         id="feGaussianBlur21-7" /><feColorMatrix
         type="matrix"
         values="0 0 0 0 0 0 0 0 0 0 0 0 0 0 0 0 0 0 0.3 0"
         id="feColorMatrix22-1" /><feBlend
         mode="normal"
         in2="effect1_dropShadow"
         result="effect2_dropShadow"
         id="feBlend22-7" /><feBlend
         mode="normal"
         in="SourceGraphic"
         in2="effect2_dropShadow"
         result="shape"
         id="feBlend23-7" /></filter><linearGradient
       id="paint0_linear-7"
       x1="151.642"
       y1="8.27149"
       x2="20.6141"
       y2="140.148"
       gradientUnits="userSpaceOnUse"><stop
         stop-color="#7252AA"
         id="stop23-7" /><stop
         offset="1"
         stop-color="#7252AA"
         id="stop24-3" /></linearGradient><linearGradient
       id="paint1_linear-3"
       x1="24.8145"
       y1="40.4371"
       x2="147.966"
       y2="178.293"
       gradientUnits="userSpaceOnUse"><stop
         stop-color="#AE7FE2"
         id="stop25-5" /><stop
         offset="1"
         stop-color="#9A70D4"
         id="stop26-9" /></linearGradient><linearGradient
       id="paint2_linear-9"
       x1="160.457"
       y1="5.93579"
       x2="160.457"
       y2="183.367"
       gradientUnits="userSpaceOnUse"><stop
         stop-color="#D59DFF"
         id="stop27-8" /><stop
         offset="1"
         stop-color="#C18EF1"
         id="stop28-1" /></linearGradient><clipPath
       id="clip0-8"><rect
         width="176.457"
         height="176.457"
         fill="white"
         transform="translate(8.27148 8.27148)"
         id="rect28-2" /></clipPath><clipPath
       id="clip1-6"><rect
         width="176.457"
         height="176.457"
         fill="white"
         transform="translate(8.27148 8.27148)"
         id="rect29-6" /></clipPath></defs><sodipodi:namedview
     id="namedview20"
     pagecolor="#ffffff"
     bordercolor="#000000"
     borderopacity="0.25"
     inkscape:showpageshadow="2"
     inkscape:pageopacity="0.0"
     inkscape:pagecheckerboard="0"
     inkscape:deskcolor="#d1d1d1"
     inkscape:zoom="2.2792969"
     inkscape:cx="119.77378"
     inkscape:cy="86.868895"
     inkscape:window-width="1705"
     inkscape:window-height="1360"
     inkscape:window-x="1913"
     inkscape:window-y="0"
     inkscape:window-maximized="0"
     inkscape:current-layer="base-svg-group" /><g
     clip-path="url(#clip0_16_132)"
     id="base-svg-group"
     style="display:inline"><path
       fill-rule="evenodd"
       clip-rule="evenodd"
       d="M 104.425,42.3784 C 100.056,37.0733 93.5437,34 86.6712,34 H 29 C 22.3726,34 17,39.3726 17,46 V 58.1371 68.2 160 c 0,6.627 5.3726,12 12,12 h 200 c 6.627,0 12,-5.373 12,-12 V 70.1371 c 0,-6.6274 -5.373,-12 -12,-12 H 117.404 Z"
       fill="#0c5687"
       id="path1"
       style="fill:#523a7e;fill-opacity:1" /><mask
       id="mask0_16_132"
       maskUnits="userSpaceOnUse"
       x="17"
       y="34"
       width="224"
       height="138"><path
         id="back-svg-group"
         fill-rule="evenodd"
         clip-rule="evenodd"
         d="M 104.425,42.3784 C 100.056,37.0733 93.5437,34 86.6712,34 H 29 C 22.3726,34 17,39.3726 17,46 V 58.1371 68.2 160 c 0,6.627 5.3726,12 12,12 h 200 c 6.627,0 12,-5.373 12,-12 V 70.1371 c 0,-6.6274 -5.373,-12 -12,-12 H 117.404 Z"
         fill="url(#paint0_linear_16_132)" /></mask><g
       mask="url(#mask0_16_132)"
       id="g3"
       style="display:inline"><g
         style="mix-blend-mode:multiply"
         filter="url(#filter0_f_16_132)"
         id="g2"><path
           fill-rule="evenodd"
           clip-rule="evenodd"
           d="m 92.789,74 c 4.9752,0 9.816,-1.6132 13.797,-4.5976 L 116.459,62 H 229 c 6.627,0 12,5.3726 12,12 v 34 52 c 0,6.627 -5.373,12 -12,12 H 29 c -6.6274,0 -12,-5.373 -12,-12 V 108 86 c 0,-6.6274 5.3726,-12 12,-12 h 58 z"
           fill="#000000"
           fill-opacity="0.3"
           id="path2" /></g></g><path
       id="front-svg-group"
       filter="url(#filter1_ii_16_132)"
       fill-rule="evenodd"
       clip-rule="evenodd"
       d="m 92.789,74 c 4.9752,0 9.816,-1.6132 13.797,-4.5976 L 116.459,62 H 229 c 6.627,0 12,5.3726 12,12 v 34 90 c 0,6.627 -5.373,12 -12,12 H 29 c -6.6274,0 -12,-5.373 -12,-12 V 108 86 c 0,-6.6274 5.3726,-12 12,-12 h 58 z"
       fill="url(#paint1_linear_16_132)" /><defs
       id="defs10"><filter
         id="filter0_f_16_132"
         x="-20"
         y="25"
         width="298"
         height="184"
         filterUnits="userSpaceOnUse"
         color-interpolation-filters="sRGB"><feFlood
           flood-opacity="0"
           result="BackgroundImageFix"
           id="feFlood3" /><feBlend
           mode="normal"
           in="SourceGraphic"
           in2="BackgroundImageFix"
           result="shape"
           id="feBlend3" /><feGaussianBlur
           stdDeviation="18.5"
           result="effect1_foregroundBlur_16_132"
           id="feGaussianBlur3" /></filter><filter
         id="filter1_ii_16_132"
         x="17"
         y="62"
         width="224"
         height="148"
         filterUnits="userSpaceOnUse"
         color-interpolation-filters="sRGB"><feFlood
           flood-opacity="0"
           result="BackgroundImageFix"
           id="feFlood4" /><feBlend
           mode="normal"
           in="SourceGraphic"
           in2="BackgroundImageFix"
           result="shape"
           id="feBlend4" /><feColorMatrix
           in="SourceAlpha"
           type="matrix"
           values="0 0 0 0 0 0 0 0 0 0 0 0 0 0 0 0 0 0 127 0"
           result="hardAlpha"
           id="feColorMatrix4" /><feOffset
           dy="4"
           id="feOffset4" /><feComposite
           in2="hardAlpha"
           operator="arithmetic"
           k2="-1"
           k3="1"
           id="feComposite4"
           k1="0"
           k4="0" /><feColorMatrix
           type="matrix"
           values="0 0 0 0 1 0 0 0 0 1 0 0 0 0 1 0 0 0 0.25 0"
           id="feColorMatrix5" /><feBlend
           mode="normal"
           in2="shape"
           result="effect1_innerShadow_16_132"
           id="feBlend5" /><feColorMatrix
           in="SourceAlpha"
           type="matrix"
           values="0 0 0 0 0 0 0 0 0 0 0 0 0 0 0 0 0 0 127 0"
           result="hardAlpha"
           id="feColorMatrix6" /><feOffset
           dy="-4"
           id="feOffset6" /><feComposite
           in2="hardAlpha"
           operator="arithmetic"
           k2="-1"
           k3="1"
           id="feComposite6"
           k1="0"
           k4="0" /><feColorMatrix
           type="matrix"
           values="0 0 0 0 0 0 0 0 0 0 0 0 0 0 0 0 0 0 0.9 0"
           id="feColorMatrix7" /><feBlend
           mode="normal"
           in2="effect1_innerShadow_16_132"
           result="effect2_innerShadow_16_132"
           id="feBlend7" /></filter><linearGradient
         id="paint0_linear_16_132"
         x1="17"
         y1="34"
         x2="197.76801"
         y2="215.142"
         gradientUnits="userSpaceOnUse"><stop
           stop-color="#FFE7A2"
           id="stop7" /><stop
           offset="1"
           stop-color="#FFCB3D"
           id="stop8" /></linearGradient><linearGradient
         id="paint1_linear_16_132"
         x1="17"
         y1="62"
         x2="241"
         y2="210"
         gradientUnits="userSpaceOnUse"><stop
           stop-color="#3c99d4"
           id="stop9"
           offset="0"
           style="stop-color:#d59dff;stop-opacity:1;" /><stop
           offset="0.953125"
           stop-color="#1070b3"
           id="stop10"
           style="stop-color:#5e438f;stop-opacity:1;" /></linearGradient><clipPath
         id="clip0_16_132"><rect
           width="256"
           height="256"
           fill="#ffffff"
           id="rect10"
           x="0"
           y="0" /></clipPath></defs><g
       id="custom-svg-container"
       style="display:none"><g
         class="custom-svg"
         transform="matrix(0.92235385,0,0,0.92235385,82.854276,90.12)"
         id="g20"><mask
           id="mask0"
           mask-type="alpha"
           maskUnits="userSpaceOnUse"
           x="0"
           y="0"
           width="100"
           height="100"><path
             fill-rule="evenodd"
             clip-rule="evenodd"
             d="m 70.9119,99.3171 c 1.575,0.6136 3.3709,0.5743 4.9606,-0.1907 L 96.4608,89.2197 C 98.6242,88.1787 100,85.9892 100,83.5872 V 16.4133 c 0,-2.402 -1.3757,-4.5915 -3.5391,-5.6325 L 75.8725,0.873756 C 73.7862,-0.130129 71.3446,0.11576 69.5135,1.44695 69.252,1.63711 69.0028,1.84943 68.769,2.08341 L 29.3551,38.0415 12.1872,25.0096 C 10.589,23.7965 8.35363,23.8959 6.86933,25.2461 l -5.5063,5.0088 c -1.815582,1.6515 -1.817663,4.5078 -0.0045,6.1621 L 16.2471,50.0001 1.35853,63.5832 c -1.813163,1.6542 -1.811082,4.5106 0.0045,6.1621 l 5.5063,5.0088 c 1.4843,1.3502 3.71967,1.4496 5.31787,0.2364 L 29.3551,61.9587 68.769,97.9167 c 0.6235,0.6239 1.3556,1.0937 2.1429,1.4004 z M 75.0152,27.2989 45.1091,50.0001 75.0152,72.7012 Z"
             fill="#ffffff"
             style="opacity:1"
             id="path10" /></mask><g
           mask="url(#mask0)"
           id="g15"
           style="display:inline"><path
             d="M 96.4614,10.7962 75.8569,0.875542 C 73.4719,-0.272773 70.6217,0.211611 68.75,2.08333 L 1.29858,63.5832 c -1.814273,1.6541 -1.812187,4.5105 0.0045,6.162 l 5.50964,5.0088 c 1.48521,1.3502 3.72198,1.4496 5.32108,0.2365 L 93.3609,13.3699 C 96.086,11.3026 100,13.2462 100,16.6667 v -0.2392 c 0,-2.401 -1.3754,-4.5897 -3.5386,-5.6313 z"
             fill="#9db2ed"
             style="display:inline;opacity:1"
             id="path11" /><g
             filter="url(#filter0_d)"
             id="g12"><path
               d="m 96.4614,89.2038 -20.6045,9.9207 c -2.385,1.1485 -5.2352,0.6639 -7.1069,-1.2078 L 1.29858,36.4169 c -1.814273,-1.6542 -1.812187,-4.5106 0.0045,-6.1621 L 6.81272,25.246 C 8.29793,23.8958 10.5347,23.7964 12.1338,25.0095 L 93.3609,86.6301 C 96.086,88.6974 100,86.7538 100,83.3334 v 0.2392 c 0,2.4009 -1.3754,4.5896 -3.5386,5.6312 z"
               fill="#c0dff0"
               style="display:inline;opacity:1"
               id="path12" /></g><g
             filter="url(#filter1_d)"
             id="g13"><path
               d="M 75.8578,99.1263 C 73.4721,100.274 70.6219,99.7885 68.75,97.9166 71.0564,100.223 75,98.5895 75,95.3278 V 4.67213 C 75,1.41039 71.0564,-0.223106 68.75,2.08329 70.6219,0.211402 73.4721,-0.273666 75.8578,0.873633 L 96.4587,10.7807 C 98.6234,11.8217 100,14.0112 100,16.4132 v 67.1739 c 0,2.402 -1.3766,4.5915 -3.5414,5.6325 z"
               fill="#d4e6f7"
               style="display:inline;opacity:1"
               id="path13" /></g><g
             style="display:none;mix-blend-mode:overlay"
             opacity="0.25"
             id="g14"><path
               fill-rule="evenodd"
               clip-rule="evenodd"
               d="m 70.8511,99.3171 c 1.575,0.6135 3.371,0.5742 4.9606,-0.1907 L 96.4,89.2197 c 2.1634,-1.041 3.5392,-3.2305 3.5392,-5.6326 V 16.4133 c 0,-2.4021 -1.3757,-4.5916 -3.5391,-5.6326 L 75.8117,0.873695 C 73.7255,-0.13019 71.2838,0.115699 69.4527,1.44688 69.1912,1.63705 68.942,1.84937 68.7082,2.08335 L 29.2943,38.0414 12.1264,25.0096 C 10.5283,23.7964 8.29285,23.8959 6.80855,25.246 l -5.5063,5.0088 c -1.815584,1.6516 -1.817665,4.5079 -0.0045,6.1621 L 16.1863,50 1.29775,63.5832 c -1.813165,1.6542 -1.811084,4.5105 0.0045,6.162 l 5.5063,5.0088 c 1.4843,1.3502 3.71975,1.4496 5.31785,0.2365 L 29.2943,61.9586 68.7082,97.9167 c 0.6235,0.6238 1.3556,1.0937 2.1429,1.4004 z M 74.9544,27.2989 45.0483,50 74.9544,72.7012 Z"
               fill="url(#paint0_linear)"
               id="path14"
               style="display:inline" /></g></g><defs
           id="defs20"><filter
             id="filter0_d"
             x="-8.3941097"
             y="15.8291"
             width="116.727"
             height="92.245598"
             filterUnits="userSpaceOnUse"
             color-interpolation-filters="sRGB"><feFlood
               flood-opacity="0"
               result="BackgroundImageFix"
               id="feFlood15" /><feColorMatrix
               in="SourceAlpha"
               type="matrix"
               values="0 0 0 0 0 0 0 0 0 0 0 0 0 0 0 0 0 0 127 0"
               id="feColorMatrix15" /><feOffset
               id="feOffset15" /><feGaussianBlur
               stdDeviation="4.16667"
               id="feGaussianBlur15" /><feColorMatrix
               type="matrix"
               values="0 0 0 0 0 0 0 0 0 0 0 0 0 0 0 0 0 0 0.25 0"
               id="feColorMatrix16" /><feBlend
               mode="overlay"
               in2="BackgroundImageFix"
               result="effect1_dropShadow"
               id="feBlend16" /><feBlend
               mode="normal"
               in="SourceGraphic"
               in2="effect1_dropShadow"
               result="shape"
               id="feBlend17" /></filter><filter
             id="filter1_d"
             x="60.416698"
             y="-8.0755796"
             width="47.916698"
             height="116.151"
             filterUnits="userSpaceOnUse"
             color-interpolation-filters="sRGB"><feFlood
               flood-opacity="0"
               result="BackgroundImageFix"
               id="feFlood17" /><feColorMatrix
               in="SourceAlpha"
               type="matrix"
               values="0 0 0 0 0 0 0 0 0 0 0 0 0 0 0 0 0 0 127 0"
               id="feColorMatrix17" /><feOffset
               id="feOffset17" /><feGaussianBlur
               stdDeviation="4.16667"
               id="feGaussianBlur17" /><feColorMatrix
               type="matrix"
               values="0 0 0 0 0 0 0 0 0 0 0 0 0 0 0 0 0 0 0.25 0"
               id="feColorMatrix18" /><feBlend
               mode="overlay"
               in2="BackgroundImageFix"
               result="effect1_dropShadow"
               id="feBlend18" /><feBlend
               mode="normal"
               in="SourceGraphic"
               in2="effect1_dropShadow"
               result="shape"
               id="feBlend19" /></filter><linearGradient
             id="paint0_linear"
             x1="49.939201"
             y1="0.25781199"
             x2="49.939201"
             y2="99.742302"
             gradientUnits="userSpaceOnUse"><stop
               stop-color="white"
               id="stop19" /><stop
               offset="1"
               stop-color="white"
               stop-opacity="0"
               id="stop20" /></linearGradient></defs></g></g><g
       style="display:inline;fill:none"
       id="g35"
       transform="matrix(0.55245649,0,0,0.55245649,76.687959,83.024344)"><g
         clip-path="url(#clip1)"
         id="g10"><mask
           id="mask0-8"
           maskUnits="userSpaceOnUse"
           x="8"
           y="8"
           width="177"
           height="177"><path
             d="M 40.6211,157.524 11.2134,135.467 c -0.9169,-0.681 -1.66096,-1.568 -2.17198,-2.59 -0.51102,-1.022 -0.77474,-2.149 -0.76987,-3.291 V 63.4144 C 8.26668,62.2721 8.5304,61.1447 9.04142,60.1232 9.55244,59.1016 10.2965,58.2145 11.2134,57.5334 L 40.6211,35.4762 c -0.79,0.7418 -1.387,1.6652 -1.7392,2.6901 -0.3522,1.0249 -0.4489,2.1202 -0.2818,3.1909 V 151.643 c -0.1671,1.071 -0.0704,2.166 0.2818,3.191 0.3522,1.025 0.9492,1.948 1.7392,2.69 z"
             fill="#ffffff"
             id="path1-6" /><path
             d="m 181.456,38.8951 c -1.212,-0.7959 -2.631,-1.2178 -4.081,-1.2131 -0.939,-0.0076 -1.871,0.1702 -2.741,0.5232 -0.871,0.3529 -1.663,0.8741 -2.332,1.5336 l -0.513,0.5156 -58.672,56.2457 -32.4622,31.1369 -30.0336,28.784 -0.5155,0.516 c -0.6682,0.66 -1.4604,1.182 -2.331,1.536 -0.8707,0.353 -1.8026,0.531 -2.7422,0.523 -1.5906,-0.003 -3.1377,-0.519 -4.4114,-1.472 L 11.2134,135.467 c 1.4941,1.122 3.3597,1.633 5.2171,1.428 1.8574,-0.205 3.5668,-1.11 4.7803,-2.531 L 53.8554,96.4642 80.6548,65.3637 127.601,10.8439 c 0.681,-0.8074 1.531,-1.45598 2.49,-1.90034 0.959,-0.44436 2.003,-0.67373 3.06,-0.67204 1.45,-0.00468 2.869,0.41722 4.08,1.21315 z"
             fill="#ffffff"
             id="path2-5" /><path
             d="m 181.456,154.105 -44.114,29.41 c -1.501,0.98 -3.305,1.386 -5.081,1.143 -1.775,-0.243 -3.404,-1.119 -4.586,-2.466 L 80.6548,127.637 53.8554,96.4642 21.2108,58.5975 c -1.2243,-1.4066 -2.9353,-2.2981 -4.7897,-2.4955 -1.8543,-0.1974 -3.7147,0.314 -5.2077,1.4314 L 40.6211,35.4762 c 1.2737,-0.9528 2.8208,-1.4692 4.4114,-1.4724 0.9396,-0.0079 1.8715,0.17 2.7422,0.5234 0.8706,0.3535 1.6628,0.8756 2.331,1.5362 l 0.5155,0.5156 30.0336,28.7847 32.4622,31.1364 58.672,56.2459 0.513,0.515 c 0.669,0.66 1.461,1.181 2.332,1.534 0.87,0.353 1.802,0.531 2.741,0.523 1.45,0.005 2.869,-0.417 4.081,-1.213 z"
             fill="#ffffff"
             id="path3" /><path
             d="M 184.729,45.0325 V 147.968 c 10e-4,1.213 -0.297,2.408 -0.868,3.478 -0.571,1.071 -1.397,1.984 -2.405,2.659 l -44.114,29.41 c 1.008,-0.675 1.834,-1.589 2.405,-2.66 0.57,-1.071 0.868,-2.266 0.867,-3.48 V 15.6248 c -0.016,-1.2226 -0.333,-2.4223 -0.923,-3.4932 -0.59,-1.0709 -1.435,-1.98 -2.46,-2.64693 l 44.225,29.41043 c 1.005,0.6777 1.83,1.5915 2.4,2.6614 0.571,1.07 0.87,2.2634 0.873,3.476 z"
             fill="#ffffff"
             id="path4" /></mask><g
           mask="url(#mask0-8)"
           id="g9"><path
             d="M 40.6211,157.524 11.2134,135.467 c -0.9169,-0.681 -1.66096,-1.569 -2.17198,-2.59 -0.51102,-1.022 -0.77474,-2.149 -0.76987,-3.291 V 63.4143 C 8.26668,62.272 8.5304,61.1446 9.04142,60.1231 9.55244,59.1015 10.2965,58.2144 11.2134,57.5333 L 40.6211,35.4761 c -0.79,0.7418 -1.387,1.6652 -1.7392,2.6901 -0.3522,1.0249 -0.4489,2.1202 -0.2818,3.1909 V 151.643 c -0.1671,1.071 -0.0704,2.166 0.2818,3.191 0.3522,1.025 0.9492,1.948 1.7392,2.69 z"
             fill="#5e438f"
             id="path5"
             style="fill:#a5b8ee;fill-opacity:1" /><g
             filter="url(#filter0_dd)"
             id="g6"><path
               d="m 181.455,38.8951 c -1.211,-0.7959 -2.63,-1.2178 -4.08,-1.2131 -0.939,-0.0076 -1.871,0.1702 -2.742,0.5232 -0.87,0.3529 -1.662,0.8741 -2.331,1.5336 l -0.513,0.5156 -31.25,29.9619 -27.422,26.2838 -32.4627,31.1369 -30.0336,28.784 -0.5155,0.516 c -0.6682,0.66 -1.4604,1.182 -2.331,1.536 -0.8707,0.353 -1.8026,0.531 -2.7422,0.523 -1.5906,-0.003 -3.1377,-0.519 -4.4114,-1.472 L 11.2129,135.467 c 1.494,1.122 3.3597,1.633 5.2171,1.428 1.8574,-0.205 3.5668,-1.11 4.7803,-2.531 L 37.6815,115.249 53.8549,96.4643 80.6543,65.3637 127.6,10.8439 c 0.682,-0.8074 1.532,-1.45598 2.491,-1.90034 0.958,-0.44436 2.003,-0.67373 3.059,-0.67204 1.45,-0.00468 2.869,0.41722 4.081,1.21315 z"
               fill="url(#paint0_linear)"
               id="path6"
               style="fill:#86bbe8;fill-opacity:1" /></g><g
             filter="url(#filter1_dd)"
             id="g7"><path
               d="m 181.455,154.105 -44.114,29.411 c -1.5,0.98 -3.304,1.385 -5.08,1.142 -1.776,-0.243 -3.404,-1.118 -4.586,-2.466 L 80.6543,127.637 53.8549,96.4644 37.6815,77.7158 21.2103,58.5978 c -1.2243,-1.4067 -2.9354,-2.2981 -4.7897,-2.4956 -1.8543,-0.1974 -3.7147,0.314 -5.2077,1.4313 L 40.6206,35.4764 c 1.2737,-0.9528 2.8208,-1.4692 4.4114,-1.4723 0.9396,-0.008 1.8715,0.1699 2.7422,0.5234 0.8706,0.3534 1.6628,0.8755 2.331,1.5362 l 0.5155,0.5155 30.0336,28.7846 32.4627,31.1364 27.461,26.3228 31.211,29.923 0.513,0.516 c 0.669,0.659 1.461,1.18 2.331,1.533 0.871,0.353 1.803,0.531 2.742,0.523 1.45,0.005 2.869,-0.417 4.08,-1.213 z"
               fill="url(#paint1_linear)"
               id="path7"
               style="display:inline;fill:#c0dff0;fill-opacity:1" /></g><path
             d="M 184.729,45.0321 V 147.967 c 10e-4,1.214 -0.297,2.408 -0.868,3.479 -0.571,1.07 -1.397,1.984 -2.405,2.659 l -44.115,29.41 c 1.009,-0.675 1.835,-1.589 2.405,-2.66 0.571,-1.071 0.869,-2.266 0.868,-3.48 V 15.6244 c -0.016,-1.2225 -0.333,-2.4223 -0.923,-3.4932 -0.59,-1.0709 -1.435,-1.98 -2.46,-2.64692 l 44.225,29.41042 c 1.005,0.6777 1.829,1.5915 2.4,2.6615 0.57,1.0699 0.87,2.2634 0.873,3.4759 z"
             fill="url(#paint2_linear)"
             id="path8"
             style="display:inline;fill:#d4e6f7;fill-opacity:1" /><g
             filter="url(#filter2_dd)"
             id="g8" /></g></g></g></g></svg>
