<svg width="256" height="256" viewBox="0 0 256 256" fill="none" xmlns="http://www.w3.org/2000/svg">
<g clip-path="url(#clip0_2043_35907)">
<path fill-rule="evenodd" clip-rule="evenodd" d="M104.425 42.3784C100.056 37.0733 93.5437 34 86.6712 34H29C22.3726 34 17 39.3726 17 46V58.1371V68.2V160C17 166.627 22.3726 172 29 172H229C235.627 172 241 166.627 241 160V70.1371C241 63.5097 235.627 58.1371 229 58.1371H117.404L104.425 42.3784Z" fill="#E6E6E6"/>
<mask id="mask0_2043_35907" style="mask-type:alpha" maskUnits="userSpaceOnUse" x="17" y="34" width="224" height="138">
<path fill-rule="evenodd" clip-rule="evenodd" d="M104.425 42.3784C100.056 37.0733 93.5437 34 86.6712 34H29C22.3726 34 17 39.3726 17 46V58.1371V68.2V160C17 166.627 22.3726 172 29 172H229C235.627 172 241 166.627 241 160V70.1371C241 63.5097 235.627 58.1371 229 58.1371H117.404L104.425 42.3784Z" fill="url(#paint0_linear_2043_35907)"/>
</mask>
<g mask="url(#mask0_2043_35907)">
<g style="mix-blend-mode:multiply" filter="url(#filter0_f_2043_35907)">
<path fill-rule="evenodd" clip-rule="evenodd" d="M92.789 74C97.7642 74 102.605 72.3868 106.586 69.4024L116.459 62H229C235.627 62 241 67.3726 241 74V108V160C241 166.627 235.627 172 229 172H29C22.3726 172 17 166.627 17 160L17 108V86C17 79.3726 22.3726 74 29 74H87H92.789Z" fill="black" fill-opacity="0.3"/>
</g>
</g>
<g filter="url(#filter1_ii_2043_35907)">
<path fill-rule="evenodd" clip-rule="evenodd" d="M92.789 74C97.7642 74 102.605 72.3868 106.586 69.4024L116.459 62H229C235.627 62 241 67.3726 241 74V108V198C241 204.627 235.627 210 229 210H29C22.3726 210 17 204.627 17 198L17 108V86C17 79.3726 22.3726 74 29 74H87H92.789Z" fill="url(#paint1_linear_2043_35907)"/>
</g>
<path d="M183.765 98.7678L130.618 193.804C129.52 195.766 126.701 195.778 125.587 193.825L71.3865 98.777C70.1731 96.6491 71.9926 94.0717 74.4039 94.5028L127.608 104.013C127.947 104.073 128.295 104.073 128.634 104.011L180.725 94.5163C183.129 94.0783 184.956 96.6358 183.765 98.7678Z" fill="url(#paint2_linear_2043_35907)"/>
<path d="M152.955 82.0279L113.625 89.7345C112.978 89.8612 112.5 90.409 112.461 91.0665L110.042 131.928C109.985 132.89 110.869 133.637 111.808 133.42L122.758 130.893C123.783 130.657 124.708 131.559 124.498 132.59L121.245 148.52C121.025 149.593 122.032 150.509 123.079 150.191L129.843 148.136C130.891 147.818 131.899 148.737 131.677 149.811L126.506 174.834C126.183 176.4 128.265 177.253 129.133 175.911L129.713 175.015L161.762 111.056C162.299 109.985 161.373 108.764 160.197 108.991L148.926 111.167C147.867 111.371 146.966 110.384 147.264 109.348L154.621 83.8455C154.92 82.8074 154.016 81.8202 152.955 82.0279Z" fill="url(#paint3_linear_2043_35907)"/>
</g>
<defs>
<filter id="filter0_f_2043_35907" x="-20" y="25" width="298" height="184" filterUnits="userSpaceOnUse" color-interpolation-filters="sRGB">
<feFlood flood-opacity="0" result="BackgroundImageFix"/>
<feBlend mode="normal" in="SourceGraphic" in2="BackgroundImageFix" result="shape"/>
<feGaussianBlur stdDeviation="18.5" result="effect1_foregroundBlur_2043_35907"/>
</filter>
<filter id="filter1_ii_2043_35907" x="17" y="62" width="224" height="148" filterUnits="userSpaceOnUse" color-interpolation-filters="sRGB">
<feFlood flood-opacity="0" result="BackgroundImageFix"/>
<feBlend mode="normal" in="SourceGraphic" in2="BackgroundImageFix" result="shape"/>
<feColorMatrix in="SourceAlpha" type="matrix" values="0 0 0 0 0 0 0 0 0 0 0 0 0 0 0 0 0 0 127 0" result="hardAlpha"/>
<feOffset dy="-4"/>
<feComposite in2="hardAlpha" operator="arithmetic" k2="-1" k3="1"/>
<feColorMatrix type="matrix" values="0 0 0 0 0 0 0 0 0 0 0 0 0 0 0 0 0 0 0.25 0"/>
<feBlend mode="normal" in2="shape" result="effect1_innerShadow_2043_35907"/>
<feColorMatrix in="SourceAlpha" type="matrix" values="0 0 0 0 0 0 0 0 0 0 0 0 0 0 0 0 0 0 127 0" result="hardAlpha"/>
<feOffset dy="4"/>
<feComposite in2="hardAlpha" operator="arithmetic" k2="-1" k3="1"/>
<feColorMatrix type="matrix" values="0 0 0 0 1 0 0 0 0 1 0 0 0 0 1 0 0 0 0.25 0"/>
<feBlend mode="normal" in2="effect1_innerShadow_2043_35907" result="effect2_innerShadow_2043_35907"/>
</filter>
<linearGradient id="paint0_linear_2043_35907" x1="17" y1="34" x2="197.768" y2="215.142" gradientUnits="userSpaceOnUse">
<stop stop-color="#05815D"/>
<stop offset="1" stop-color="#0C575F"/>
</linearGradient>
<linearGradient id="paint1_linear_2043_35907" x1="17" y1="62" x2="241" y2="210" gradientUnits="userSpaceOnUse">
<stop stop-color="#5F585E"/>
<stop offset="1" stop-color="#010101"/>
</linearGradient>
<linearGradient id="paint2_linear_2043_35907" x1="70.0631" y1="91.1063" x2="136.209" y2="180.937" gradientUnits="userSpaceOnUse">
<stop stop-color="#41D1FF"/>
<stop offset="1" stop-color="#BD34FE"/>
</linearGradient>
<linearGradient id="paint3_linear_2043_35907" x1="124.558" y1="84.1202" x2="136.523" y2="166.202" gradientUnits="userSpaceOnUse">
<stop stop-color="#FFEA83"/>
<stop offset="0.0833333" stop-color="#FFDD35"/>
<stop offset="1" stop-color="#FFA800"/>
</linearGradient>
<clipPath id="clip0_2043_35907">
<rect width="256" height="256" fill="white"/>
</clipPath>
</defs>
</svg>
