<?xml version="1.0" encoding="UTF-8"?>
<svg width="256" height="256" viewBox="0 0 256 256" xmlns="http://www.w3.org/2000/svg">
  <defs>
    <style>
      .cls-1 {
        fill: #fff;
      }

      .cls-2 {
        fill: #00897b;
      }

      .cls-3 {
        fill: url(#_未命名的渐变_15);
      }

      .cls-3, .cls-4, .cls-5, .cls-6, .cls-7, .cls-8 {
        fill-rule: evenodd;
      }

      .cls-4 {
        fill: url(#linear-gradient);
      }

      .cls-5 {
        fill: #24ae91;
      }

      .cls-9 {
        fill: none;
        mask: url(#mask);
      }

      .cls-6 {
        fill: url(#_未命名的渐变_8);
      }

      .cls-7 {
        fill: #a6a1a1;
      }

      .cls-8 {
        fill: #109978;
      }
    </style>
    <linearGradient id="linear-gradient" x1="15.58" y1="205.55" x2="196.35" y2="24.41" gradientTransform="translate(0 190) scale(1 -1)" gradientUnits="userSpaceOnUse">
      <stop offset="0" stop-color="#05815d"/>
      <stop offset="1" stop-color="#0c575f"/>
    </linearGradient>
    <mask id="mask" x="0" y="0" width="224" height="138" maskUnits="userSpaceOnUse">
      <g id="mask0_501_11930" data-name="mask0 501 11930">
        <path class="cls-4" d="m87.43,8.38c-4.37-5.31-10.88-8.38-17.75-8.38H12C5.37,0,0,5.37,0,12v114c0,6.63,5.37,12,12,12h200c6.63,0,12-5.37,12-12V36.14c0-6.63-5.37-12-12-12h-111.6l-12.98-15.76Z"/>
      </g>
    </mask>
    <linearGradient id="_未命名的渐变_15" data-name="未命名的渐变 15" x1="0" y1="162" x2="224" y2="14" gradientTransform="translate(0 190) scale(1 -1)" gradientUnits="userSpaceOnUse">
      <stop offset="0" stop-color="#67dba5"/>
      <stop offset="1" stop-color="#079b99"/>
    </linearGradient>
    <linearGradient id="_未命名的渐变_8" data-name="未命名的渐变 8" x1="-.07" y1="23.32" x2="223.94" y2="20.82" gradientTransform="translate(0 190) scale(1 -1)" gradientUnits="userSpaceOnUse">
      <stop offset=".06" stop-color="#24ae91"/>
      <stop offset="1" stop-color="#1c846b"/>
    </linearGradient>
  </defs>
  <g transform="translate(17, 34)">
  <path class="cls-5" d="m87.43,8.38c-4.37-5.31-10.88-8.38-17.75-8.38H12C5.37,0,0,5.37,0,12v114c0,6.63,5.37,12,12,12h200c6.63,0,12-5.37,12-12V36.14c0-6.63-5.37-12-12-12h-111.6l-12.98-15.76Z"/>
  <g class="cls-9">
    <path class="cls-7" d="m75.79,40c4.98,0,9.82-1.61,13.8-4.6l9.87-7.4h112.54c6.63,0,12,5.37,12,12v86c0,6.63-5.37,12-12,12H12c-6.63,0-12-5.37-12-12V52c0-6.63,5.37-12,12-12h63.79Z"/>
  </g>
  <path class="cls-3" d="m75.79,40c4.98,0,9.82-1.61,13.8-4.6l9.87-7.4h112.54c6.63,0,12,5.37,12,12v124c0,6.63-5.37,12-12,12H12c-6.63,0-12-5.37-12-12V52c0-6.63,5.37-12,12-12h63.79Z"/>
  <path class="cls-6" d="m0,160v4c0,6.63,5.37,12,12,12h200c6.63,0,12-5.37,12-12v-4c0,6.63-5.37,12-12,12H12c-6.63,0-12-5.37-12-12Z"/>
  <path class="cls-8" d="m89.59,35.4c-3.98,2.98-8.82,4.6-13.8,4.6H12c-6.63,0-12,5.37-12,12v4c0-6.63,5.37-12,12-12h63.79c4.98,0,9.82-1.61,13.8-4.6l9.87-7.4h112.54c6.63,0,12,5.37,12,12v-4c0-6.63-5.37-12-12-12h-112.54l-9.87,7.4Z"/>
  <g>
    <g id="_00897bff" data-name="#00897bff">
      <path class="cls-2" d="m83.14,66.13c.64-.27,1.29-.63,2.02-.58,18.01,0,36.02,0,54.03,0,.73-.06,1.36.32,2.01.6.14,1.69.13,3.38.12,5.08,0,19.2,0,38.4,0,57.6,0,2.29.07,4.58-.09,6.87-1.26.9-2.84.59-4.28.63-16.23,0-32.45-.02-48.68,0,.03,1.4-.15,2.81.12,4.19.29.93,1.27,1.33,2.18,1.25,18.02,0,36.04,0,54.05,0,1.23.2,2.42-.81,2.32-2.07.03-21.69-.01-43.39.02-65.08,1.32,0,2.66-.08,3.97.06,1.08.21,1.36,1.44,1.29,2.38,0,21.15,0,42.3,0,63.44-.02,2.01.11,4.03-.19,6.03-1.44.86-3.15.53-4.73.58-19.79,0-39.59,0-59.38,0-1.6-.06-3.31.29-4.76-.58-.1-.81-.18-1.62-.19-2.43.02-23.99,0-47.98,0-71.98.01-2-.11-4.01.18-6m38.77,16.1c1.66,2.21,3.52,4.25,5.33,6.32,2.63,2.81,5.04,5.86,8,8.34,0-4.21.03-8.42,0-12.63.05-1.07-.86-2.11-1.96-2.04-3.79-.05-7.58-.02-11.36,0m-32.18,4.07c4.18,11.76,8.41,23.51,12.62,35.26.4.94.92,2.28,2.16,2.19,3.47.06,6.96,0,10.44.02-.37-1.71-.99-3.35-1.68-4.95-3.59-10.06-7.18-20.12-10.8-30.16-.34-1.28-1.46-2.47-2.87-2.36-3.29-.03-6.58,0-9.87,0m21.99,25.53c.84,4.12,2.41,8.02,3.35,12.11,6.12-9.03,13.1-17.43,19.66-26.14.15-.32.28-.65.39-.99-2.5-1.86-4.6-4.18-6.87-6.3-5.64,7-10.98,14.24-16.52,21.31Z"/>
    </g>
    <g id="_ffffffff" data-name="#ffffffff">
      <path class="cls-1" d="m121.92,82.23c3.78-.02,7.57-.05,11.36,0,1.1-.07,2.02.97,1.96,2.04.04,4.21,0,8.42,0,12.63-2.96-2.48-5.36-5.54-8-8.34-1.81-2.07-3.67-4.12-5.33-6.32Z"/>
      <path class="cls-1" d="m89.74,86.3c3.29-.01,6.58-.04,9.87,0,1.41-.11,2.53,1.08,2.87,2.36,3.62,10.05,7.21,20.11,10.8,30.16.69,1.6,1.31,3.24,1.68,4.95-3.48-.02-6.96.04-10.44-.02-1.24.09-1.76-1.25-2.16-2.19-4.22-11.75-8.45-23.5-12.62-35.26Z"/>
      <path class="cls-1" d="m111.73,111.83c5.55-7.07,10.89-14.31,16.52-21.31,2.27,2.12,4.37,4.44,6.87,6.3-.11.34-.24.67-.39.99-6.56,8.7-13.54,17.11-19.66,26.14-.94-4.09-2.51-8-3.35-12.11Z"/>
    </g>
  </g>
  </g>
</svg>
