<svg width="256" height="256" viewBox="0 0 256 256" fill="none" xmlns="http://www.w3.org/2000/svg">
<g clip-path="url(#clip0_900_904)">
<path fill-rule="evenodd" clip-rule="evenodd" d="M104.425 42.3784C100.056 37.0733 93.5437 34 86.6712 34H29C22.3726 34 17 39.3726 17 46V58.1371V68.2V160C17 166.627 22.3726 172 29 172H229C235.627 172 241 166.627 241 160V70.1371C241 63.5097 235.627 58.1371 229 58.1371H117.404L104.425 42.3784Z" fill="#156373"/>
<mask id="mask0_900_904" style="mask-type:alpha" maskUnits="userSpaceOnUse" x="17" y="34" width="224" height="138">
<path fill-rule="evenodd" clip-rule="evenodd" d="M104.425 42.3784C100.056 37.0733 93.5437 34 86.6712 34H29C22.3726 34 17 39.3726 17 46V58.1371V68.2V160C17 166.627 22.3726 172 29 172H229C235.627 172 241 166.627 241 160V70.1371C241 63.5097 235.627 58.1371 229 58.1371H117.404L104.425 42.3784Z" fill="url(#paint0_linear_900_904)"/>
</mask>
<g mask="url(#mask0_900_904)">
<g filter="url(#filter0_f_900_904)">
<path fill-rule="evenodd" clip-rule="evenodd" d="M92.789 74C97.7642 74 102.605 72.3868 106.586 69.4024L116.459 62H229C235.627 62 241 67.3726 241 74V108V160C241 166.627 235.627 172 229 172H29C22.3726 172 17 166.627 17 160L17 108V86C17 79.3726 22.3726 74 29 74H87H92.789Z" fill="black" fill-opacity="0.3"/>
</g>
</g>
<g filter="url(#filter1_ii_900_904)">
<path fill-rule="evenodd" clip-rule="evenodd" d="M92.789 74C97.7642 74 102.605 72.3868 106.586 69.4024L116.459 62H229C235.627 62 241 67.3726 241 74V108V198C241 204.627 235.627 210 229 210H29C22.3726 210 17 204.627 17 198L17 108V86C17 79.3726 22.3726 74 29 74H87H92.789Z" fill="url(#paint1_linear_900_904)"/>
</g>
<g filter="url(#filter2_d_900_904)">
<mask id="path-5-outside-1_900_904" maskUnits="userSpaceOnUse" x="42" y="105" width="173" height="71" fill="black">
<rect fill="white" x="42" y="105" width="173" height="71"/>
<path fill-rule="evenodd" clip-rule="evenodd" d="M51 108C47.6863 108 45 110.686 45 114V148C45 151.314 47.6863 154 51 154H188.874L203.224 171.636C203.818 172.366 205 171.945 205 171.004V154H206C209.314 154 212 151.314 212 148V114C212 110.686 209.314 108 206 108H51Z"/>
</mask>
<path fill-rule="evenodd" clip-rule="evenodd" d="M51 108C47.6863 108 45 110.686 45 114V148C45 151.314 47.6863 154 51 154H188.874L203.224 171.636C203.818 172.366 205 171.945 205 171.004V154H206C209.314 154 212 151.314 212 148V114C212 110.686 209.314 108 206 108H51Z" fill="white"/>
<path d="M188.874 154L191.2 152.106L190.3 151H188.874V154ZM203.224 171.636L205.551 169.742L205.551 169.742L203.224 171.636ZM205 154V151H202V154H205ZM48 114C48 112.343 49.3431 111 51 111V105C46.0294 105 42 109.029 42 114H48ZM48 148V114H42V148H48ZM51 151C49.3431 151 48 149.657 48 148H42C42 152.971 46.0294 157 51 157V151ZM188.874 151H51V157H188.874V151ZM205.551 169.742L191.2 152.106L186.547 155.894L200.897 173.529L205.551 169.742ZM202 171.004C202 169.122 204.363 168.282 205.551 169.742L200.897 173.529C203.273 176.449 208 174.769 208 171.004H202ZM202 154V171.004H208V154H202ZM206 151H205V157H206V151ZM209 148C209 149.657 207.657 151 206 151V157C210.971 157 215 152.971 215 148H209ZM209 114V148H215V114H209ZM206 111C207.657 111 209 112.343 209 114H215C215 109.029 210.971 105 206 105V111ZM51 111H206V105H51V111Z" fill="black" mask="url(#path-5-outside-1_900_904)"/>
</g>
<path d="M68.013 146.24C67.2663 146.24 66.5596 146.093 65.893 145.8C65.2263 145.507 64.7996 145.067 64.613 144.48L56.693 119.32C56.6396 119.16 56.613 119 56.613 118.84C56.613 118.44 56.7863 118.093 57.133 117.8C57.4796 117.48 57.9063 117.227 58.413 117.04C58.9463 116.853 59.453 116.76 59.933 116.76C60.333 116.76 60.693 116.84 61.013 117C61.3596 117.16 61.573 117.427 61.653 117.8L67.973 139.48L71.373 125.56C71.5063 125.08 71.813 124.72 72.293 124.48C72.7996 124.24 73.3463 124.12 73.933 124.12C74.5196 124.12 75.053 124.24 75.533 124.48C76.0396 124.72 76.3463 125.08 76.453 125.56L79.853 139.48L86.173 117.8C86.2796 117.427 86.493 117.16 86.813 117C87.133 116.84 87.493 116.76 87.893 116.76C88.3996 116.76 88.9063 116.853 89.413 117.04C89.9196 117.227 90.3463 117.48 90.693 117.8C91.0396 118.093 91.213 118.44 91.213 118.84C91.213 119 91.1863 119.16 91.133 119.32L83.213 144.48C82.9996 145.067 82.573 145.507 81.933 145.8C81.293 146.093 80.5863 146.24 79.813 146.24C79.0663 146.24 78.3596 146.093 77.693 145.8C77.0263 145.507 76.6263 145.067 76.493 144.48L73.933 133.68L71.333 144.48C71.1996 145.067 70.7996 145.507 70.133 145.8C69.4663 146.093 68.7596 146.24 68.013 146.24ZM103.007 146.24C101.247 146.24 99.6607 145.947 98.2473 145.36C96.834 144.747 95.7007 143.773 94.8473 142.44C94.0207 141.08 93.6073 139.28 93.6073 137.04V125.96C93.6073 123.72 94.0207 121.933 94.8473 120.6C95.7007 119.24 96.8207 118.267 98.2073 117.68C99.6207 117.067 101.221 116.76 103.007 116.76C104.767 116.76 106.354 117.067 107.767 117.68C109.207 118.267 110.341 119.24 111.167 120.6C111.994 121.933 112.407 123.72 112.407 125.96V137.04C112.407 139.28 111.994 141.08 111.167 142.44C110.341 143.773 109.207 144.747 107.767 145.36C106.354 145.947 104.767 146.24 103.007 146.24ZM103.007 141.68C104.314 141.68 105.341 141.307 106.087 140.56C106.834 139.813 107.207 138.64 107.207 137.04V125.96C107.207 124.36 106.834 123.187 106.087 122.44C105.341 121.693 104.314 121.32 103.007 121.32C101.701 121.32 100.674 121.693 99.9273 122.44C99.2073 123.187 98.8473 124.36 98.8473 125.96V137.04C98.8473 138.64 99.2073 139.813 99.9273 140.56C100.674 141.307 101.701 141.68 103.007 141.68ZM132.936 146.2C132.589 146.2 132.243 146.093 131.896 145.88C131.576 145.667 131.323 145.36 131.136 144.96L125.456 133.92H122.096V144.32C122.096 144.88 121.829 145.307 121.296 145.6C120.763 145.867 120.163 146 119.496 146C118.856 146 118.256 145.867 117.696 145.6C117.163 145.307 116.896 144.88 116.896 144.32V118.4C116.896 117.947 117.043 117.56 117.336 117.24C117.656 116.92 118.069 116.76 118.576 116.76H126.496C128.256 116.76 129.843 117.013 131.256 117.52C132.696 118.027 133.843 118.893 134.696 120.12C135.549 121.32 135.976 122.987 135.976 125.12C135.976 126.667 135.749 127.987 135.296 129.08C134.843 130.147 134.216 131.013 133.416 131.68C132.643 132.32 131.749 132.8 130.736 133.12L136.016 142.84C136.069 142.947 136.109 143.067 136.136 143.2C136.163 143.307 136.176 143.4 136.176 143.48C136.176 143.907 136.016 144.333 135.696 144.76C135.376 145.187 134.963 145.533 134.456 145.8C133.976 146.067 133.469 146.2 132.936 146.2ZM122.096 129.84H126.496C127.803 129.84 128.843 129.52 129.616 128.88C130.389 128.24 130.776 127.147 130.776 125.6C130.776 124 130.389 122.893 129.616 122.28C128.843 121.64 127.803 121.32 126.496 121.32H122.096V129.84ZM141.91 146C141.35 146 140.83 145.867 140.35 145.6C139.87 145.307 139.63 144.88 139.63 144.32V118.4C139.63 117.813 139.897 117.4 140.43 117.16C140.99 116.893 141.59 116.76 142.23 116.76C142.897 116.76 143.497 116.893 144.03 117.16C144.564 117.4 144.83 117.813 144.83 118.4V141.44H154.63C155.164 141.44 155.55 141.68 155.79 142.16C156.03 142.613 156.15 143.133 156.15 143.72C156.15 144.28 156.03 144.8 155.79 145.28C155.55 145.76 155.164 146 154.63 146H141.91ZM161.246 146C160.553 146 159.993 145.84 159.566 145.52C159.166 145.2 158.966 144.813 158.966 144.36V118.4C158.966 117.947 159.166 117.56 159.566 117.24C159.993 116.92 160.553 116.76 161.246 116.76H168.326C170.113 116.76 171.713 117.067 173.126 117.68C174.54 118.267 175.66 119.24 176.486 120.6C177.34 121.933 177.766 123.72 177.766 125.96V136.8C177.766 139.04 177.34 140.84 176.486 142.2C175.66 143.533 174.54 144.507 173.126 145.12C171.713 145.707 170.113 146 168.326 146H161.246ZM164.166 141.44H168.326C169.66 141.44 170.7 141.067 171.446 140.32C172.193 139.547 172.566 138.373 172.566 136.8V125.96C172.566 124.387 172.193 123.227 171.446 122.48C170.7 121.707 169.673 121.32 168.366 121.32H164.166V141.44ZM190.009 146.36C188.275 146.36 186.702 146.107 185.289 145.6C183.902 145.093 182.795 144.467 181.969 143.72C181.169 142.947 180.769 142.173 180.769 141.4C180.769 141.027 180.862 140.627 181.049 140.2C181.262 139.747 181.542 139.373 181.889 139.08C182.235 138.76 182.622 138.6 183.049 138.6C183.475 138.6 183.875 138.76 184.249 139.08C184.622 139.373 185.049 139.733 185.529 140.16C186.009 140.56 186.595 140.92 187.289 141.24C187.982 141.533 188.835 141.68 189.849 141.68C190.649 141.68 191.382 141.56 192.049 141.32C192.742 141.053 193.289 140.667 193.689 140.16C194.115 139.653 194.329 139 194.329 138.2C194.329 137.347 194.102 136.627 193.649 136.04C193.195 135.453 192.582 134.947 191.809 134.52C191.035 134.093 190.195 133.68 189.289 133.28C188.382 132.88 187.462 132.453 186.529 132C185.622 131.547 184.782 131 184.009 130.36C183.262 129.72 182.649 128.933 182.169 128C181.715 127.067 181.489 125.92 181.489 124.56C181.489 123.067 181.769 121.813 182.329 120.8C182.915 119.787 183.675 118.973 184.609 118.36C185.569 117.72 186.622 117.267 187.769 117C188.915 116.707 190.062 116.56 191.209 116.56C191.822 116.56 192.542 116.613 193.369 116.72C194.222 116.8 195.062 116.96 195.889 117.2C196.742 117.44 197.435 117.773 197.969 118.2C198.529 118.6 198.809 119.133 198.809 119.8C198.809 120.093 198.729 120.453 198.569 120.88C198.435 121.307 198.209 121.693 197.889 122.04C197.595 122.387 197.209 122.56 196.729 122.56C196.302 122.56 195.875 122.44 195.449 122.2C195.049 121.933 194.515 121.68 193.849 121.44C193.209 121.173 192.329 121.04 191.209 121.04C190.275 121.04 189.462 121.16 188.769 121.4C188.075 121.64 187.555 121.987 187.209 122.44C186.862 122.867 186.689 123.413 186.689 124.08C186.689 124.773 186.915 125.36 187.369 125.84C187.849 126.32 188.462 126.747 189.209 127.12C189.982 127.493 190.822 127.867 191.729 128.24C192.635 128.613 193.542 129.053 194.449 129.56C195.382 130.04 196.235 130.627 197.009 131.32C197.782 132.013 198.395 132.88 198.849 133.92C199.302 134.933 199.529 136.187 199.529 137.68C199.529 139.573 199.115 141.173 198.289 142.48C197.462 143.76 196.329 144.733 194.889 145.4C193.475 146.04 191.849 146.36 190.009 146.36Z" fill="black"/>
</g>
<defs>
<filter id="filter0_f_900_904" x="-20" y="25" width="298" height="184" filterUnits="userSpaceOnUse" color-interpolation-filters="sRGB">
<feFlood flood-opacity="0" result="BackgroundImageFix"/>
<feBlend mode="normal" in="SourceGraphic" in2="BackgroundImageFix" result="shape"/>
<feGaussianBlur stdDeviation="18.5" result="effect1_foregroundBlur_900_904"/>
</filter>
<filter id="filter1_ii_900_904" x="17" y="62" width="224" height="148" filterUnits="userSpaceOnUse" color-interpolation-filters="sRGB">
<feFlood flood-opacity="0" result="BackgroundImageFix"/>
<feBlend mode="normal" in="SourceGraphic" in2="BackgroundImageFix" result="shape"/>
<feColorMatrix in="SourceAlpha" type="matrix" values="0 0 0 0 0 0 0 0 0 0 0 0 0 0 0 0 0 0 127 0" result="hardAlpha"/>
<feOffset dy="4"/>
<feComposite in2="hardAlpha" operator="arithmetic" k2="-1" k3="1"/>
<feColorMatrix type="matrix" values="0 0 0 0 1 0 0 0 0 1 0 0 0 0 1 0 0 0 0.25 0"/>
<feBlend mode="normal" in2="shape" result="effect1_innerShadow_900_904"/>
<feColorMatrix in="SourceAlpha" type="matrix" values="0 0 0 0 0 0 0 0 0 0 0 0 0 0 0 0 0 0 127 0" result="hardAlpha"/>
<feOffset dy="-4"/>
<feComposite in2="hardAlpha" operator="arithmetic" k2="-1" k3="1"/>
<feColorMatrix type="matrix" values="0 0 0 0 0 0 0 0 0 0 0 0 0 0 0 0 0 0 0.9 0"/>
<feBlend mode="soft-light" in2="effect1_innerShadow_900_904" result="effect2_innerShadow_900_904"/>
</filter>
<filter id="filter2_d_900_904" x="-5" y="65" width="267" height="164.012" filterUnits="userSpaceOnUse" color-interpolation-filters="sRGB">
<feFlood flood-opacity="0" result="BackgroundImageFix"/>
<feColorMatrix in="SourceAlpha" type="matrix" values="0 0 0 0 0 0 0 0 0 0 0 0 0 0 0 0 0 0 127 0" result="hardAlpha"/>
<feOffset dy="7"/>
<feGaussianBlur stdDeviation="23.5"/>
<feComposite in2="hardAlpha" operator="out"/>
<feColorMatrix type="matrix" values="0 0 0 0 0 0 0 0 0 0 0 0 0 0 0 0 0 0 0.25 0"/>
<feBlend mode="normal" in2="BackgroundImageFix" result="effect1_dropShadow_900_904"/>
<feBlend mode="normal" in="SourceGraphic" in2="effect1_dropShadow_900_904" result="shape"/>
</filter>
<linearGradient id="paint0_linear_900_904" x1="17" y1="34" x2="197.768" y2="215.142" gradientUnits="userSpaceOnUse">
<stop stop-color="#05815D"/>
<stop offset="1" stop-color="#0C575F"/>
</linearGradient>
<linearGradient id="paint1_linear_900_904" x1="17" y1="62" x2="241" y2="210" gradientUnits="userSpaceOnUse">
<stop stop-color="#6CE5FB"/>
<stop offset="0.953125" stop-color="#10888E"/>
</linearGradient>
<clipPath id="clip0_900_904">
<rect width="256" height="256" fill="white"/>
</clipPath>
</defs>
</svg>
