<svg width="256" height="256" viewBox="0 0 256 256" fill="none" xmlns="http://www.w3.org/2000/svg">
<path fill-rule="evenodd" clip-rule="evenodd" d="M104.425 42.3784C100.056 37.0733 93.5437 34 86.6712 34H29C22.3726 34 17 39.3726 17 46V58.1371V68.2V160C17 166.627 22.3726 172 29 172H229C235.627 172 241 166.627 241 160V70.1371C241 63.5097 235.627 58.1371 229 58.1371H117.404L104.425 42.3784Z" fill="#156373"/>
<mask id="mask0_689_737" style="mask-type:alpha" maskUnits="userSpaceOnUse" x="17" y="34" width="224" height="138">
<path fill-rule="evenodd" clip-rule="evenodd" d="M104.425 42.3784C100.056 37.0733 93.5437 34 86.6712 34H29C22.3726 34 17 39.3726 17 46V58.1371V68.2V160C17 166.627 22.3726 172 29 172H229C235.627 172 241 166.627 241 160V70.1371C241 63.5097 235.627 58.1371 229 58.1371H117.404L104.425 42.3784Z" fill="url(#paint0_linear_689_737)"/>
</mask>
<g mask="url(#mask0_689_737)">
<g filter="url(#filter0_f_689_737)">
<path fill-rule="evenodd" clip-rule="evenodd" d="M92.789 74C97.7642 74 102.605 72.3868 106.586 69.4024L116.459 62H229C235.627 62 241 67.3726 241 74V108V160C241 166.627 235.627 172 229 172H29C22.3726 172 17 166.627 17 160L17 108V86C17 79.3726 22.3726 74 29 74H87H92.789Z" fill="black" fill-opacity="0.3"/>
</g>
</g>
<g filter="url(#filter1_ii_689_737)">
<path fill-rule="evenodd" clip-rule="evenodd" d="M92.789 74C97.7642 74 102.605 72.3868 106.586 69.4024L116.459 62H229C235.627 62 241 67.3726 241 74V108V198C241 204.627 235.627 210 229 210H29C22.3726 210 17 204.627 17 198L17 108V86C17 79.3726 22.3726 74 29 74H87H92.789Z" fill="url(#paint1_linear_689_737)"/>
</g>
<g filter="url(#filter2_d_689_737)">
<mask id="path-5-outside-1_689_737" maskUnits="userSpaceOnUse" x="51" y="105" width="155" height="71" fill="black">
<rect fill="white" x="51" y="105" width="155" height="71"/>
<path fill-rule="evenodd" clip-rule="evenodd" d="M60 108C56.6863 108 54 110.686 54 114V148C54 151.314 56.6863 154 60 154H179.874L194.224 171.636C194.818 172.366 196 171.945 196 171.004V154H197C200.314 154 203 151.314 203 148V114C203 110.686 200.314 108 197 108H60Z"/>
</mask>
<path fill-rule="evenodd" clip-rule="evenodd" d="M60 108C56.6863 108 54 110.686 54 114V148C54 151.314 56.6863 154 60 154H179.874L194.224 171.636C194.818 172.366 196 171.945 196 171.004V154H197C200.314 154 203 151.314 203 148V114C203 110.686 200.314 108 197 108H60Z" fill="white"/>
<path d="M179.874 154L182.2 152.106L181.3 151H179.874V154ZM194.224 171.636L196.551 169.742L196.551 169.742L194.224 171.636ZM196 154V151H193V154H196ZM57 114C57 112.343 58.3431 111 60 111V105C55.0294 105 51 109.029 51 114H57ZM57 148V114H51V148H57ZM60 151C58.3431 151 57 149.657 57 148H51C51 152.971 55.0294 157 60 157V151ZM179.874 151H60V157H179.874V151ZM196.551 169.742L182.2 152.106L177.547 155.894L191.897 173.529L196.551 169.742ZM193 171.004C193 169.122 195.363 168.282 196.551 169.742L191.897 173.529C194.273 176.449 199 174.769 199 171.004H193ZM193 154V171.004H199V154H193ZM197 151H196V157H197V151ZM200 148C200 149.657 198.657 151 197 151V157C201.971 157 206 152.971 206 148H200ZM200 114V148H206V114H200ZM197 111C198.657 111 200 112.343 200 114H206C206 109.029 201.971 105 197 105V111ZM60 111H197V105H60V111Z" fill="black" mask="url(#path-5-outside-1_689_737)"/>
</g>
<path d="M67.64 146C67.16 146 66.6667 145.907 66.16 145.72C65.6533 145.533 65.2267 145.28 64.88 144.96C64.5333 144.64 64.36 144.267 64.36 143.84C64.36 143.76 64.3733 143.627 64.4 143.44L72.12 118.28C72.3067 117.693 72.72 117.253 73.36 116.96C74.0267 116.667 74.7333 116.52 75.48 116.52C76.2533 116.52 76.96 116.667 77.6 116.96C78.24 117.253 78.6533 117.693 78.84 118.28L86.56 143.44C86.6133 143.627 86.64 143.76 86.64 143.84C86.64 144.24 86.4533 144.613 86.08 144.96C85.7333 145.28 85.3067 145.533 84.8 145.72C84.2933 145.907 83.8 146 83.32 146C82.8933 146 82.52 145.933 82.2 145.8C81.9067 145.64 81.7067 145.36 81.6 144.96L80.08 139.64H70.88L69.4 144.96C69.2933 145.36 69.08 145.64 68.76 145.8C68.44 145.933 68.0667 146 67.64 146ZM72 135.56H78.96L75.48 123.28L72 135.56ZM96.9253 146.24C96.1786 146.24 95.472 146.093 94.8053 145.8C94.1653 145.507 93.7653 145.067 93.6053 144.48L85.8453 119.32C85.792 119.133 85.7653 119 85.7653 118.92C85.7653 118.493 85.9386 118.12 86.2853 117.8C86.632 117.48 87.0586 117.227 87.5653 117.04C88.0986 116.853 88.6053 116.76 89.0853 116.76C89.512 116.76 89.8853 116.84 90.2053 117C90.5253 117.133 90.7253 117.4 90.8053 117.8L96.9253 139.48L103.005 117.8C103.139 117.4 103.352 117.133 103.645 117C103.965 116.84 104.339 116.76 104.765 116.76C105.245 116.76 105.739 116.853 106.245 117.04C106.752 117.227 107.179 117.48 107.525 117.8C107.899 118.12 108.085 118.493 108.085 118.92C108.085 118.973 108.072 119.04 108.045 119.12C108.045 119.173 108.032 119.24 108.005 119.32L100.285 144.48C100.125 145.067 99.712 145.507 99.0453 145.8C98.4053 146.093 97.6986 146.24 96.9253 146.24ZM110.57 146C110.09 146 109.596 145.907 109.09 145.72C108.583 145.533 108.156 145.28 107.81 144.96C107.463 144.64 107.29 144.267 107.29 143.84C107.29 143.76 107.303 143.627 107.33 143.44L115.05 118.28C115.236 117.693 115.65 117.253 116.29 116.96C116.956 116.667 117.663 116.52 118.41 116.52C119.183 116.52 119.89 116.667 120.53 116.96C121.17 117.253 121.583 117.693 121.77 118.28L129.49 143.44C129.543 143.627 129.57 143.76 129.57 143.84C129.57 144.24 129.383 144.613 129.01 144.96C128.663 145.28 128.236 145.533 127.73 145.72C127.223 145.907 126.73 146 126.25 146C125.823 146 125.45 145.933 125.13 145.8C124.836 145.64 124.636 145.36 124.53 144.96L123.01 139.64H113.81L112.33 144.96C112.223 145.36 112.01 145.64 111.69 145.8C111.37 145.933 110.996 146 110.57 146ZM114.93 135.56H121.89L118.41 123.28L114.93 135.56ZM137.957 146C137.29 146 136.69 145.867 136.157 145.6C135.623 145.307 135.357 144.88 135.357 144.32V121.44H129.477C128.97 121.44 128.57 121.2 128.277 120.72C127.983 120.24 127.837 119.693 127.837 119.08C127.837 118.52 127.97 118 128.237 117.52C128.503 117.013 128.917 116.76 129.477 116.76H146.397C146.983 116.76 147.397 117.013 147.637 117.52C147.903 118 148.037 118.52 148.037 119.08C148.037 119.693 147.89 120.24 147.597 120.72C147.33 121.2 146.93 121.44 146.397 121.44H140.557V144.32C140.557 144.88 140.277 145.307 139.717 145.6C139.183 145.867 138.597 146 137.957 146ZM149.632 146C149.152 146 148.659 145.907 148.152 145.72C147.646 145.533 147.219 145.28 146.872 144.96C146.526 144.64 146.352 144.267 146.352 143.84C146.352 143.76 146.366 143.627 146.392 143.44L154.112 118.28C154.299 117.693 154.712 117.253 155.352 116.96C156.019 116.667 156.726 116.52 157.472 116.52C158.246 116.52 158.952 116.667 159.592 116.96C160.232 117.253 160.646 117.693 160.832 118.28L168.552 143.44C168.606 143.627 168.632 143.76 168.632 143.84C168.632 144.24 168.446 144.613 168.072 144.96C167.726 145.28 167.299 145.533 166.792 145.72C166.286 145.907 165.792 146 165.312 146C164.886 146 164.512 145.933 164.192 145.8C163.899 145.64 163.699 145.36 163.592 144.96L162.072 139.64H152.872L151.392 144.96C151.286 145.36 151.072 145.64 150.752 145.8C150.432 145.933 150.059 146 149.632 146ZM153.992 135.56H160.952L157.472 123.28L153.992 135.56ZM187.401 146.2C187.054 146.2 186.708 146.093 186.361 145.88C186.041 145.667 185.788 145.36 185.601 144.96L179.921 133.92H176.561V144.32C176.561 144.88 176.294 145.307 175.761 145.6C175.228 145.867 174.628 146 173.961 146C173.321 146 172.721 145.867 172.161 145.6C171.628 145.307 171.361 144.88 171.361 144.32V118.4C171.361 117.947 171.508 117.56 171.801 117.24C172.121 116.92 172.534 116.76 173.041 116.76H180.961C182.721 116.76 184.308 117.013 185.721 117.52C187.161 118.027 188.308 118.893 189.161 120.12C190.014 121.32 190.441 122.987 190.441 125.12C190.441 126.667 190.214 127.987 189.761 129.08C189.308 130.147 188.681 131.013 187.881 131.68C187.108 132.32 186.214 132.8 185.201 133.12L190.481 142.84C190.534 142.947 190.574 143.067 190.601 143.2C190.628 143.307 190.641 143.4 190.641 143.48C190.641 143.907 190.481 144.333 190.161 144.76C189.841 145.187 189.428 145.533 188.921 145.8C188.441 146.067 187.934 146.2 187.401 146.2ZM176.561 129.84H180.961C182.268 129.84 183.308 129.52 184.081 128.88C184.854 128.24 185.241 127.147 185.241 125.6C185.241 124 184.854 122.893 184.081 122.28C183.308 121.64 182.268 121.32 180.961 121.32H176.561V129.84Z" fill="black"/>
<defs>
<filter id="filter0_f_689_737" x="-20" y="25" width="298" height="184" filterUnits="userSpaceOnUse" color-interpolation-filters="sRGB">
<feFlood flood-opacity="0" result="BackgroundImageFix"/>
<feBlend mode="normal" in="SourceGraphic" in2="BackgroundImageFix" result="shape"/>
<feGaussianBlur stdDeviation="18.5" result="effect1_foregroundBlur_689_737"/>
</filter>
<filter id="filter1_ii_689_737" x="17" y="62" width="224" height="148" filterUnits="userSpaceOnUse" color-interpolation-filters="sRGB">
<feFlood flood-opacity="0" result="BackgroundImageFix"/>
<feBlend mode="normal" in="SourceGraphic" in2="BackgroundImageFix" result="shape"/>
<feColorMatrix in="SourceAlpha" type="matrix" values="0 0 0 0 0 0 0 0 0 0 0 0 0 0 0 0 0 0 127 0" result="hardAlpha"/>
<feOffset dy="4"/>
<feComposite in2="hardAlpha" operator="arithmetic" k2="-1" k3="1"/>
<feColorMatrix type="matrix" values="0 0 0 0 1 0 0 0 0 1 0 0 0 0 1 0 0 0 0.25 0"/>
<feBlend mode="normal" in2="shape" result="effect1_innerShadow_689_737"/>
<feColorMatrix in="SourceAlpha" type="matrix" values="0 0 0 0 0 0 0 0 0 0 0 0 0 0 0 0 0 0 127 0" result="hardAlpha"/>
<feOffset dy="-4"/>
<feComposite in2="hardAlpha" operator="arithmetic" k2="-1" k3="1"/>
<feColorMatrix type="matrix" values="0 0 0 0 0 0 0 0 0 0 0 0 0 0 0 0 0 0 0.9 0"/>
<feBlend mode="soft-light" in2="effect1_innerShadow_689_737" result="effect2_innerShadow_689_737"/>
</filter>
<filter id="filter2_d_689_737" x="4" y="65" width="249" height="164.012" filterUnits="userSpaceOnUse" color-interpolation-filters="sRGB">
<feFlood flood-opacity="0" result="BackgroundImageFix"/>
<feColorMatrix in="SourceAlpha" type="matrix" values="0 0 0 0 0 0 0 0 0 0 0 0 0 0 0 0 0 0 127 0" result="hardAlpha"/>
<feOffset dy="7"/>
<feGaussianBlur stdDeviation="23.5"/>
<feComposite in2="hardAlpha" operator="out"/>
<feColorMatrix type="matrix" values="0 0 0 0 0 0 0 0 0 0 0 0 0 0 0 0 0 0 0.25 0"/>
<feBlend mode="normal" in2="BackgroundImageFix" result="effect1_dropShadow_689_737"/>
<feBlend mode="normal" in="SourceGraphic" in2="effect1_dropShadow_689_737" result="shape"/>
</filter>
<linearGradient id="paint0_linear_689_737" x1="17" y1="34" x2="197.768" y2="215.142" gradientUnits="userSpaceOnUse">
<stop stop-color="#05815D"/>
<stop offset="1" stop-color="#0C575F"/>
</linearGradient>
<linearGradient id="paint1_linear_689_737" x1="17" y1="62" x2="241" y2="210" gradientUnits="userSpaceOnUse">
<stop stop-color="#6CE5FB"/>
<stop offset="0.953125" stop-color="#10888E"/>
</linearGradient>
</defs>
</svg>
