<svg width="256" height="256" viewBox="0 0 256 256" fill="none" xmlns="http://www.w3.org/2000/svg">
<path fill-rule="evenodd" clip-rule="evenodd" d="M104.425 42.3784C100.056 37.0733 93.5437 34 86.6712 34H29C22.3726 34 17 39.3726 17 46V58.1371V68.2V160C17 166.627 22.3726 172 29 172H229C235.627 172 241 166.627 241 160V70.1371C241 63.5097 235.627 58.1371 229 58.1371H117.404L104.425 42.3784Z" fill="#001455"/>
<mask id="mask0_2242_40312" style="mask-type:alpha" maskUnits="userSpaceOnUse" x="17" y="34" width="224" height="138">
<path fill-rule="evenodd" clip-rule="evenodd" d="M104.425 42.3784C100.056 37.0733 93.5437 34 86.6712 34H29C22.3726 34 17 39.3726 17 46V58.1371V68.2V160C17 166.627 22.3726 172 29 172H229C235.627 172 241 166.627 241 160V70.1371C241 63.5097 235.627 58.1371 229 58.1371H117.404L104.425 42.3784Z" fill="url(#paint0_linear_2242_40312)"/>
</mask>
<g mask="url(#mask0_2242_40312)">
<g style="mix-blend-mode:multiply" filter="url(#filter0_f_2242_40312)">
<path fill-rule="evenodd" clip-rule="evenodd" d="M92.789 74C97.7642 74 102.605 72.3868 106.586 69.4024L116.459 62H229C235.627 62 241 67.3726 241 74V108V160C241 166.627 235.627 172 229 172H29C22.3726 172 17 166.627 17 160L17 108V86C17 79.3726 22.3726 74 29 74H87H92.789Z" fill="black" fill-opacity="0.3"/>
</g>
</g>
<g filter="url(#filter1_ii_2242_40312)">
<path d="M92.789 74C97.7642 74 102.605 72.3868 106.586 69.4024L116.459 62H229C235.627 62 241 67.3726 241 74V198C241 204.627 235.627 210 229 210H29C22.3726 210 17 204.627 17 198L17 86C17 79.3726 22.3726 74 29 74H92.789Z" fill="url(#paint1_linear_2242_40312)"/>
</g>
<mask id="mask1_2242_40312" style="mask-type:luminance" maskUnits="userSpaceOnUse" x="74" y="83" width="111" height="111">
<path d="M184.273 83H74V193.273H184.273V83Z" fill="white"/>
</mask>
<g mask="url(#mask1_2242_40312)">
<path d="M127.219 85.5126C124.072 87.5317 123.164 91.7143 125.192 94.8505C136.34 112.114 138.971 125.135 137.829 136.546C133.215 158.398 123.186 162.83 114.422 162.83C105.865 162.83 108.156 148.748 114.588 144.625C118.428 142.228 123.346 140.67 127.121 140.67C130.861 140.67 133.894 137.647 133.894 133.918C133.894 130.187 130.861 127.165 127.121 127.165C122.712 127.165 118.387 128.091 114.35 129.668C115.175 125.776 115.479 121.571 114.413 117.1C112.794 110.312 108.134 103.828 100.042 97.5423C98.6253 96.4396 96.8278 95.9444 95.0447 96.1649C93.2616 96.3855 91.6395 97.303 90.5357 98.7166C88.2398 101.661 88.7713 105.904 91.7244 108.195C98.3165 113.315 100.493 117.105 101.238 120.224C101.982 123.344 101.383 126.691 99.8879 131.289C97.9769 137.487 95.7582 143.019 94.7856 148.324C94.307 150.936 94.2662 153.777 94.1427 156.048C89.3955 151.421 87.5373 145.312 87.5373 136.385C87.5363 132.655 84.5038 129.631 80.7644 129.633C77.0273 129.636 73.9992 132.657 73.998 136.385C73.998 148.576 77.5632 160.177 87.1183 167.916C95.7681 176.157 117.764 173.111 117.764 186.341C117.764 190.074 123.229 191.891 126.969 191.891C130.804 191.891 135.631 189.328 135.631 186.341C135.631 171.33 151.449 162.207 177.49 162.247C181.231 162.253 184.265 159.232 184.271 155.503C184.277 151.772 181.251 148.743 177.511 148.736C175.73 148.734 173.994 148.795 172.283 148.896C175.194 142.049 176.486 134.511 176.219 126.369C176.095 122.64 172.966 119.718 169.229 119.839C165.487 119.961 162.556 123.085 162.678 126.815C163.031 137.477 162.632 146.997 154.689 152.015C152.431 153.441 149.805 154.678 147.315 154.678C149.248 149.42 150.708 143.87 151.306 137.888C151.688 134.07 151.728 129.534 151.293 126.011C150.616 120.553 149.8 114.362 151.873 109.699C153.734 105.683 157.905 104.001 164.028 104.001C167.765 103.998 170.793 100.975 170.794 97.249C170.796 93.5184 167.767 90.4925 164.028 90.4892C154.928 90.4892 148.031 95.2783 144.12 101.064C142.076 96.6976 139.586 92.1973 136.578 87.5394C135.606 86.0342 134.076 84.9767 132.321 84.5963C131.452 84.4077 130.555 84.3912 129.679 84.5477C128.804 84.7054 127.968 85.0329 127.219 85.5126Z" fill="url(#paint2_linear_2242_40312)"/>
</g>
<defs>
<filter id="filter0_f_2242_40312" x="-20" y="25" width="298" height="184" filterUnits="userSpaceOnUse" color-interpolation-filters="sRGB">
<feFlood flood-opacity="0" result="BackgroundImageFix"/>
<feBlend mode="normal" in="SourceGraphic" in2="BackgroundImageFix" result="shape"/>
<feGaussianBlur stdDeviation="18.5" result="effect1_foregroundBlur_2242_40312"/>
</filter>
<filter id="filter1_ii_2242_40312" x="17" y="62" width="224" height="148" filterUnits="userSpaceOnUse" color-interpolation-filters="sRGB">
<feFlood flood-opacity="0" result="BackgroundImageFix"/>
<feBlend mode="normal" in="SourceGraphic" in2="BackgroundImageFix" result="shape"/>
<feColorMatrix in="SourceAlpha" type="matrix" values="0 0 0 0 0 0 0 0 0 0 0 0 0 0 0 0 0 0 127 0" result="hardAlpha"/>
<feOffset dy="4"/>
<feComposite in2="hardAlpha" operator="arithmetic" k2="-1" k3="1"/>
<feColorMatrix type="matrix" values="0 0 0 0 1 0 0 0 0 1 0 0 0 0 1 0 0 0 0.25 0"/>
<feBlend mode="normal" in2="shape" result="effect1_innerShadow_2242_40312"/>
<feColorMatrix in="SourceAlpha" type="matrix" values="0 0 0 0 0 0 0 0 0 0 0 0 0 0 0 0 0 0 127 0" result="hardAlpha"/>
<feOffset dy="-4"/>
<feComposite in2="hardAlpha" operator="arithmetic" k2="-1" k3="1"/>
<feColorMatrix type="matrix" values="0 0 0 0 0 0 0 0 0 0 0 0 0 0 0 0 0 0 0.9 0"/>
<feBlend mode="soft-light" in2="effect1_innerShadow_2242_40312" result="effect2_innerShadow_2242_40312"/>
</filter>
<linearGradient id="paint0_linear_2242_40312" x1="17" y1="34" x2="197.768" y2="215.142" gradientUnits="userSpaceOnUse">
<stop stop-color="#05815D"/>
<stop offset="1" stop-color="#0C575F"/>
</linearGradient>
<linearGradient id="paint1_linear_2242_40312" x1="17" y1="62" x2="241" y2="210" gradientUnits="userSpaceOnUse">
<stop stop-color="#056284"/>
<stop offset="1" stop-color="#000F53"/>
</linearGradient>
<linearGradient id="paint2_linear_2242_40312" x1="73.998" y1="84.4407" x2="180.597" y2="187.293" gradientUnits="userSpaceOnUse">
<stop stop-color="#62A0EA"/>
<stop offset="1" stop-color="#1A5FB4"/>
</linearGradient>
</defs>
</svg>
