<svg width="256" height="256" viewBox="0 0 256 256" fill="none" xmlns="http://www.w3.org/2000/svg">
<g clip-path="url(#clip0_1_38)">
<path d="M86.6709 34C93.5434 34 100.057 37.0729 104.426 42.3779L117.403 58.1367H229C235.627 58.1367 241 63.5095 241 70.1367V160C241 166.627 235.627 172 229 172H29C22.3726 172 17 166.627 17 160V46C17 39.3726 22.3726 34 29 34H86.6709Z" fill="#A7152B"/>
<mask id="mask0_1_38" style="mask-type:alpha" maskUnits="userSpaceOnUse" x="17" y="34" width="224" height="138">
<path d="M86.6709 34C93.5434 34 100.057 37.0729 104.426 42.3779L117.403 58.1367H229C235.627 58.1367 241 63.5095 241 70.1367V160C241 166.627 235.627 172 229 172H29C22.3726 172 17 166.627 17 160V46C17 39.3726 22.3726 34 29 34H86.6709Z" fill="url(#paint0_linear_1_38)"/>
</mask>
<g mask="url(#mask0_1_38)">
<g filter="url(#filter0_f_1_38)">
<path d="M241 160C241 166.627 235.627 172 229 172H29C22.3726 172 17 166.627 17 160V86C17 79.3726 22.3726 74 29 74H92.79C97.7649 73.9999 102.605 72.3865 106.586 69.4023L116.46 62H229C235.627 62 241 67.3726 241 74V160Z" fill="black" fill-opacity="0.3"/>
</g>
</g>
<g filter="url(#filter1_ii_1_38)">
<path d="M241 198C241 204.627 235.627 210 229 210H29C22.3726 210 17 204.627 17 198V86C17 79.3726 22.3726 74 29 74H92.79C97.7649 73.9999 102.605 72.3865 106.586 69.4023L116.46 62H229C235.627 62 241 67.3726 241 74V198Z" fill="url(#paint1_linear_1_38)"/>
</g>
<path d="M145.574 158.212H137.941V133.748C140.385 135.106 143.6 137.605 145.574 140.014V158.212Z" fill="white"/>
<path d="M81.2744 158.212H71.7611L59.3524 119.821H68.0008L76.5365 146.733H76.6437L85.2922 119.821H93.997L81.2744 158.212Z" fill="white"/>
<path d="M119.629 158.212H112.371V154.336C111.954 154.398 111.868 155.068 111.535 155.331C110.452 156.792 108.868 157.819 107.142 158.356C104.947 159.094 102.563 159.022 100.312 158.596C98.0769 158.157 95.946 156.815 94.9127 154.735C93.8344 152.639 93.6378 150.228 93.5712 147.909C93.5646 142.074 93.5703 136.238 93.5684 130.403H101.202C101.206 135.811 101.193 141.219 101.208 146.626C101.272 148.319 101.455 150.135 102.493 151.539C103.522 152.823 105.306 153.023 106.843 152.901C108.463 152.806 110.144 152.06 110.934 150.573C111.976 148.631 112.008 146.356 112.003 144.204V130.411H119.636V158.263L119.63 158.225L119.629 158.212Z" fill="white"/>
<path d="M146.89 141.463V140.334L156.479 130.36H165.503L154.974 140.711L166.631 158.212H157.419L146.89 141.463Z" fill="white"/>
<path d="M168.135 139.017C168.227 137.015 168.893 134.997 170.281 133.516C172.273 131.275 175.276 130.275 178.176 129.923C180.939 129.574 183.758 129.7 186.494 130.205C188.778 130.681 191.077 131.765 192.403 133.764C193.37 135.192 193.425 136.965 193.394 138.631C193.401 143.395 193.381 148.159 193.405 152.923C193.487 154.565 193.511 156.265 194.114 157.818C194.506 158.298 194.266 158.345 193.804 158.297H186.617C186.327 157.428 186.149 156.521 186.079 155.608C184.59 157.187 182.564 158.165 180.454 158.589C177.631 159.187 174.589 159.213 171.882 158.116C169.916 157.314 168.299 155.658 167.675 153.611C167.126 151.753 167.119 149.722 167.66 147.861C168.29 145.898 169.86 144.322 171.747 143.536C173.512 142.799 175.417 142.476 177.297 142.184C179.536 141.81 181.875 141.863 184.016 141.028C184.861 140.699 185.704 140.03 185.73 139.047C185.813 137.893 185.598 136.595 184.654 135.822C183.512 134.874 181.932 134.878 180.525 134.867C178.97 134.894 177.187 135.377 176.38 136.833C175.993 137.514 175.82 138.295 175.746 139.07H168.113L168.128 139.033L168.135 139.017ZM185.752 144.663C184.776 145.482 183.448 145.638 182.24 145.87C180.333 146.162 178.31 146.248 176.591 147.216C175.486 147.84 174.828 149.1 174.898 150.363C174.839 151.59 175.481 152.864 176.631 153.372C178.029 154 179.628 153.981 181.121 153.805C183.011 153.594 184.721 152.247 185.324 150.434C185.908 148.709 185.72 146.866 185.754 145.075C185.753 144.948 185.755 144.745 185.752 144.663Z" fill="white"/>
<path d="M197.465 130.36H204.722V134.237H204.882C207.395 130.043 211.705 129.615 213.361 129.615C214.736 129.615 219.074 129.624 221.464 132.763C223.218 135.135 223.481 138.207 223.506 141.063V158.169H215.873V142.474C215.873 136.743 213.717 135.643 210.983 135.643C206.618 135.643 205.074 138.295 205.074 143.596V158.162H197.44V130.309L197.465 130.36Z" fill="white"/>
<path d="M124.517 125.655V158.212H132.15V129.796C129.706 128.294 127.149 126.879 124.517 125.58V125.655Z" fill="white"/>
<path d="M46.6809 126.973C51.0991 114.006 77.5145 109.245 105.716 116.359C122.637 120.612 136.362 128.873 145.574 137.06C141.476 126.22 121.697 110.713 94.2475 105.444C63.4138 99.4592 32.7681 104.719 29.0079 118.448C26.2817 128.365 38.258 139.901 56.8334 147.994C48.5234 141.256 44.4623 133.672 46.7561 126.916L46.6809 126.973Z" fill="white"/>
<path d="M145.574 132.43V119.897H137.941V123.698C141.193 126.615 143.769 129.57 145.574 132.43Z" fill="white"/>
</g>
<defs>
<filter id="filter0_f_1_38" x="-20" y="25" width="298" height="184" filterUnits="userSpaceOnUse" color-interpolation-filters="sRGB">
<feFlood flood-opacity="0" result="BackgroundImageFix"/>
<feBlend mode="normal" in="SourceGraphic" in2="BackgroundImageFix" result="shape"/>
<feGaussianBlur stdDeviation="18.5" result="effect1_foregroundBlur_1_38"/>
</filter>
<filter id="filter1_ii_1_38" x="17" y="62" width="224" height="148" filterUnits="userSpaceOnUse" color-interpolation-filters="sRGB">
<feFlood flood-opacity="0" result="BackgroundImageFix"/>
<feBlend mode="normal" in="SourceGraphic" in2="BackgroundImageFix" result="shape"/>
<feColorMatrix in="SourceAlpha" type="matrix" values="0 0 0 0 0 0 0 0 0 0 0 0 0 0 0 0 0 0 127 0" result="hardAlpha"/>
<feOffset dy="4"/>
<feComposite in2="hardAlpha" operator="arithmetic" k2="-1" k3="1"/>
<feColorMatrix type="matrix" values="0 0 0 0 1 0 0 0 0 1 0 0 0 0 1 0 0 0 0.25 0"/>
<feBlend mode="normal" in2="shape" result="effect1_innerShadow_1_38"/>
<feColorMatrix in="SourceAlpha" type="matrix" values="0 0 0 0 0 0 0 0 0 0 0 0 0 0 0 0 0 0 127 0" result="hardAlpha"/>
<feOffset dy="-4"/>
<feComposite in2="hardAlpha" operator="arithmetic" k2="-1" k3="1"/>
<feColorMatrix type="matrix" values="0 0 0 0 0 0 0 0 0 0 0 0 0 0 0 0 0 0 0.9 0"/>
<feBlend mode="soft-light" in2="effect1_innerShadow_1_38" result="effect2_innerShadow_1_38"/>
</filter>
<linearGradient id="paint0_linear_1_38" x1="17" y1="34" x2="197.768" y2="215.142" gradientUnits="userSpaceOnUse">
<stop stop-color="#05815D"/>
<stop offset="1" stop-color="#0C575F"/>
</linearGradient>
<linearGradient id="paint1_linear_1_38" x1="17" y1="62" x2="241" y2="210" gradientUnits="userSpaceOnUse">
<stop stop-color="#C21F36"/>
<stop offset="0.953125" stop-color="#AB1C30"/>
</linearGradient>
<clipPath id="clip0_1_38">
<rect width="256" height="256" fill="white"/>
</clipPath>
</defs>
</svg>
