<svg width="256" height="256" viewBox="0 0 256 256" fill="none" xmlns="http://www.w3.org/2000/svg">
<g clip-path="url(#clip0_725_16338)">
<path fill-rule="evenodd" clip-rule="evenodd" d="M104.425 42.3784C100.056 37.0733 93.5437 34 86.6712 34H29C22.3726 34 17 39.3726 17 46V58.1371V68.2V160C17 166.627 22.3726 172 29 172H229C235.627 172 241 166.627 241 160V70.1371C241 63.5097 235.627 58.1371 229 58.1371H117.404L104.425 42.3784Z" fill="#728077"/>
<mask id="mask0_725_16338" style="mask-type:alpha" maskUnits="userSpaceOnUse" x="17" y="34" width="224" height="138">
<path fill-rule="evenodd" clip-rule="evenodd" d="M104.425 42.3784C100.056 37.0733 93.5437 34 86.6712 34H29C22.3726 34 17 39.3726 17 46V58.1371V68.2V160C17 166.627 22.3726 172 29 172H229C235.627 172 241 166.627 241 160V70.1371C241 63.5097 235.627 58.1371 229 58.1371H117.404L104.425 42.3784Z" fill="url(#paint0_linear_725_16338)"/>
</mask>
<g mask="url(#mask0_725_16338)">
<g style="mix-blend-mode:multiply" filter="url(#filter0_f_725_16338)">
<path fill-rule="evenodd" clip-rule="evenodd" d="M92.789 74C97.7642 74 102.605 72.3868 106.586 69.4024L116.459 62H229C235.627 62 241 67.3726 241 74V108V160C241 166.627 235.627 172 229 172H29C22.3726 172 17 166.627 17 160L17 108V86C17 79.3726 22.3726 74 29 74H87H92.789Z" fill="black" fill-opacity="0.3"/>
</g>
</g>
<g filter="url(#filter1_ii_725_16338)">
<path fill-rule="evenodd" clip-rule="evenodd" d="M92.789 74C97.7642 74 102.605 72.3868 106.586 69.4024L116.459 62H229C235.627 62 241 67.3726 241 74V108V198C241 204.627 235.627 210 229 210H29C22.3726 210 17 204.627 17 198L17 108V86C17 79.3726 22.3726 74 29 74H87H92.789Z" fill="url(#paint1_linear_725_16338)"/>
</g>
<ellipse cx="49.7252" cy="95.5888" rx="0.725163" ry="0.588813" fill="#C4C4C4"/>
<ellipse cx="65.5806" cy="95.5888" rx="0.725163" ry="0.588813" fill="#C4C4C4"/>
<ellipse cx="49.7252" cy="106.893" rx="0.725163" ry="0.588813" fill="#C4C4C4"/>
<ellipse cx="65.5806" cy="106.893" rx="0.725163" ry="0.588813" fill="#C4C4C4"/>
<ellipse cx="49.7252" cy="118.196" rx="0.725163" ry="0.588813" fill="#C4C4C4"/>
<ellipse cx="65.5806" cy="118.196" rx="0.725163" ry="0.588813" fill="#C4C4C4"/>
<ellipse cx="49.7252" cy="129.5" rx="0.725163" ry="0.588813" fill="#C4C4C4"/>
<ellipse cx="65.5806" cy="129.5" rx="0.725163" ry="0.588813" fill="#C4C4C4"/>
<ellipse cx="49.7252" cy="140.804" rx="0.725163" ry="0.588813" fill="#C4C4C4"/>
<ellipse cx="65.5806" cy="140.804" rx="0.725163" ry="0.588813" fill="#C4C4C4"/>
<ellipse cx="49.7252" cy="152.107" rx="0.725163" ry="0.588813" fill="#C4C4C4"/>
<ellipse cx="65.5806" cy="152.107" rx="0.725163" ry="0.588813" fill="#C4C4C4"/>
<ellipse cx="49.7252" cy="163.411" rx="0.725163" ry="0.588813" fill="#C4C4C4"/>
<ellipse cx="65.5806" cy="163.411" rx="0.725163" ry="0.588813" fill="#C4C4C4"/>
<ellipse cx="49.7252" cy="174.715" rx="0.725163" ry="0.588813" fill="#C4C4C4"/>
<ellipse cx="65.5806" cy="174.715" rx="0.725163" ry="0.588813" fill="#C4C4C4"/>
<ellipse cx="81.4351" cy="95.5888" rx="0.725163" ry="0.588813" fill="#C4C4C4"/>
<ellipse cx="81.4351" cy="106.893" rx="0.725163" ry="0.588813" fill="#C4C4C4"/>
<ellipse cx="81.4351" cy="118.196" rx="0.725163" ry="0.588813" fill="#C4C4C4"/>
<ellipse cx="81.4351" cy="129.5" rx="0.725163" ry="0.588813" fill="#C4C4C4"/>
<ellipse cx="81.4351" cy="140.804" rx="0.725163" ry="0.588813" fill="#C4C4C4"/>
<ellipse cx="81.4351" cy="152.107" rx="0.725163" ry="0.588813" fill="#C4C4C4"/>
<ellipse cx="81.4351" cy="163.411" rx="0.725163" ry="0.588813" fill="#C4C4C4"/>
<ellipse cx="81.4351" cy="174.715" rx="0.725163" ry="0.588813" fill="#C4C4C4"/>
<ellipse cx="97.2896" cy="95.5888" rx="0.725163" ry="0.588813" fill="#C4C4C4"/>
<ellipse cx="97.2896" cy="106.893" rx="0.725163" ry="0.588813" fill="#C4C4C4"/>
<ellipse cx="97.2896" cy="118.196" rx="0.725163" ry="0.588813" fill="#C4C4C4"/>
<ellipse cx="97.2896" cy="129.5" rx="0.725163" ry="0.588813" fill="#C4C4C4"/>
<ellipse cx="97.2896" cy="140.804" rx="0.725163" ry="0.588813" fill="#C4C4C4"/>
<ellipse cx="97.2896" cy="152.107" rx="0.725163" ry="0.588813" fill="#C4C4C4"/>
<ellipse cx="97.2896" cy="163.411" rx="0.725163" ry="0.588813" fill="#C4C4C4"/>
<ellipse cx="97.2896" cy="174.715" rx="0.725163" ry="0.588813" fill="#C4C4C4"/>
<ellipse cx="113.145" cy="95.5888" rx="0.725163" ry="0.588813" fill="#C4C4C4"/>
<ellipse cx="113.145" cy="106.893" rx="0.725163" ry="0.588813" fill="#C4C4C4"/>
<ellipse cx="113.145" cy="118.196" rx="0.725163" ry="0.588813" fill="#C4C4C4"/>
<ellipse cx="113.145" cy="129.5" rx="0.725163" ry="0.588813" fill="#C4C4C4"/>
<ellipse cx="113.145" cy="140.804" rx="0.725163" ry="0.588813" fill="#C4C4C4"/>
<ellipse cx="113.145" cy="152.107" rx="0.725163" ry="0.588813" fill="#C4C4C4"/>
<ellipse cx="113.145" cy="163.411" rx="0.725163" ry="0.588813" fill="#C4C4C4"/>
<ellipse cx="113.145" cy="174.715" rx="0.725163" ry="0.588813" fill="#C4C4C4"/>
<ellipse cx="128.999" cy="95.5888" rx="0.725163" ry="0.588813" fill="#C4C4C4"/>
<ellipse cx="128.999" cy="106.893" rx="0.725163" ry="0.588813" fill="#C4C4C4"/>
<ellipse cx="128.999" cy="118.196" rx="0.725163" ry="0.588813" fill="#C4C4C4"/>
<ellipse cx="128.999" cy="129.5" rx="0.725163" ry="0.588813" fill="#C4C4C4"/>
<ellipse cx="128.999" cy="140.804" rx="0.725163" ry="0.588813" fill="#C4C4C4"/>
<ellipse cx="128.999" cy="152.107" rx="0.725163" ry="0.588813" fill="#C4C4C4"/>
<ellipse cx="128.999" cy="163.411" rx="0.725163" ry="0.588813" fill="#C4C4C4"/>
<ellipse cx="128.999" cy="174.715" rx="0.725163" ry="0.588813" fill="#C4C4C4"/>
<ellipse cx="144.855" cy="95.5888" rx="0.725163" ry="0.588813" fill="#C4C4C4"/>
<ellipse cx="144.855" cy="106.893" rx="0.725163" ry="0.588813" fill="#C4C4C4"/>
<ellipse cx="144.855" cy="118.196" rx="0.725163" ry="0.588813" fill="#C4C4C4"/>
<ellipse cx="144.855" cy="129.5" rx="0.725163" ry="0.588813" fill="#C4C4C4"/>
<ellipse cx="144.855" cy="140.804" rx="0.725163" ry="0.588813" fill="#C4C4C4"/>
<ellipse cx="144.855" cy="152.107" rx="0.725163" ry="0.588813" fill="#C4C4C4"/>
<ellipse cx="144.855" cy="163.411" rx="0.725163" ry="0.588813" fill="#C4C4C4"/>
<ellipse cx="144.855" cy="174.715" rx="0.725163" ry="0.588813" fill="#C4C4C4"/>
<ellipse cx="160.71" cy="95.5888" rx="0.725163" ry="0.588813" fill="#C4C4C4"/>
<ellipse cx="160.71" cy="106.893" rx="0.725163" ry="0.588813" fill="#C4C4C4"/>
<ellipse cx="160.71" cy="118.196" rx="0.725163" ry="0.588813" fill="#C4C4C4"/>
<ellipse cx="160.71" cy="129.5" rx="0.725163" ry="0.588813" fill="#C4C4C4"/>
<ellipse cx="160.71" cy="140.804" rx="0.725163" ry="0.588813" fill="#C4C4C4"/>
<ellipse cx="160.71" cy="152.107" rx="0.725163" ry="0.588813" fill="#C4C4C4"/>
<ellipse cx="160.71" cy="163.411" rx="0.725163" ry="0.588813" fill="#C4C4C4"/>
<ellipse cx="160.71" cy="174.715" rx="0.725163" ry="0.588813" fill="#C4C4C4"/>
<ellipse cx="176.565" cy="95.5888" rx="0.725163" ry="0.588813" fill="#C4C4C4"/>
<ellipse cx="176.565" cy="106.893" rx="0.725163" ry="0.588813" fill="#C4C4C4"/>
<ellipse cx="176.565" cy="118.196" rx="0.725163" ry="0.588813" fill="#C4C4C4"/>
<ellipse cx="176.565" cy="129.5" rx="0.725163" ry="0.588813" fill="#C4C4C4"/>
<ellipse cx="176.565" cy="140.804" rx="0.725163" ry="0.588813" fill="#C4C4C4"/>
<ellipse cx="176.565" cy="152.107" rx="0.725163" ry="0.588813" fill="#C4C4C4"/>
<ellipse cx="176.565" cy="163.411" rx="0.725163" ry="0.588813" fill="#C4C4C4"/>
<ellipse cx="176.565" cy="174.715" rx="0.725163" ry="0.588813" fill="#C4C4C4"/>
<ellipse cx="192.419" cy="95.5888" rx="0.725163" ry="0.588813" fill="#C4C4C4"/>
<ellipse cx="192.419" cy="106.893" rx="0.725163" ry="0.588813" fill="#C4C4C4"/>
<ellipse cx="192.419" cy="118.196" rx="0.725163" ry="0.588813" fill="#C4C4C4"/>
<ellipse cx="192.419" cy="129.5" rx="0.725163" ry="0.588813" fill="#C4C4C4"/>
<ellipse cx="192.419" cy="140.804" rx="0.725163" ry="0.588813" fill="#C4C4C4"/>
<ellipse cx="192.419" cy="152.107" rx="0.725163" ry="0.588813" fill="#C4C4C4"/>
<ellipse cx="192.419" cy="163.411" rx="0.725163" ry="0.588813" fill="#C4C4C4"/>
<ellipse cx="192.419" cy="174.715" rx="0.725163" ry="0.588813" fill="#C4C4C4"/>
<ellipse cx="208.275" cy="95.5888" rx="0.725163" ry="0.588813" fill="#C4C4C4"/>
<ellipse cx="208.275" cy="106.893" rx="0.725163" ry="0.588813" fill="#C4C4C4"/>
<ellipse cx="208.275" cy="118.196" rx="0.725163" ry="0.588813" fill="#C4C4C4"/>
<ellipse cx="208.275" cy="129.5" rx="0.725163" ry="0.588813" fill="#C4C4C4"/>
<ellipse cx="208.275" cy="140.804" rx="0.725163" ry="0.588813" fill="#C4C4C4"/>
<ellipse cx="208.275" cy="152.107" rx="0.725163" ry="0.588813" fill="#C4C4C4"/>
<ellipse cx="208.275" cy="163.411" rx="0.725163" ry="0.588813" fill="#C4C4C4"/>
<ellipse cx="208.275" cy="174.715" rx="0.725163" ry="0.588813" fill="#C4C4C4"/>
<rect x="158.747" y="199.865" width="22.2481" height="9.66583" transform="rotate(-180 158.747 199.865)" fill="url(#paint2_linear_725_16338)" stroke="#2E2E2E" stroke-width="0.4"/>
<rect x="136.099" y="199.865" width="12.3221" height="9.66583" transform="rotate(-180 136.099 199.865)" fill="url(#paint3_linear_725_16338)" stroke="#2E2E2E" stroke-width="0.4"/>
<rect x="123.376" y="199.865" width="22.2481" height="9.66583" transform="rotate(-180 123.376 199.865)" fill="url(#paint4_linear_725_16338)" stroke="#2E2E2E" stroke-width="0.4"/>
<mask id="path-96-inside-1_725_16338" fill="white">
<path fill-rule="evenodd" clip-rule="evenodd" d="M82.7538 190.007C80.104 190.152 78 192.347 78 195.033C78 197.718 80.104 199.913 82.7538 200.058V200.065H83.0228C83.0262 200.065 83.0295 200.065 83.0329 200.065C83.0362 200.065 83.0396 200.065 83.0429 200.065H100.928V190H82.7538V190.007Z"/>
</mask>
<path fill-rule="evenodd" clip-rule="evenodd" d="M82.7538 190.007C80.104 190.152 78 192.347 78 195.033C78 197.718 80.104 199.913 82.7538 200.058V200.065H83.0228C83.0262 200.065 83.0295 200.065 83.0329 200.065C83.0362 200.065 83.0396 200.065 83.0429 200.065H100.928V190H82.7538V190.007Z" fill="url(#paint5_linear_725_16338)"/>
<path d="M82.7538 190.007L82.7756 190.407L83.1538 190.386V190.007H82.7538ZM82.7538 200.058H83.1538V199.679L82.7756 199.658L82.7538 200.058ZM82.7538 200.065H82.3538V200.465H82.7538V200.065ZM83.0228 200.065L83.0236 199.665H83.0228V200.065ZM83.0429 200.065L83.0429 199.665L83.0421 199.665L83.0429 200.065ZM100.928 200.065V200.465H101.328V200.065H100.928ZM100.928 190H101.328V189.6H100.928V190ZM82.7538 190V189.6H82.3538V190H82.7538ZM78.4 195.033C78.4 192.56 80.3368 190.54 82.7756 190.407L82.732 189.608C79.8712 189.764 77.6 192.133 77.6 195.033H78.4ZM82.7756 199.658C80.3368 199.525 78.4 197.505 78.4 195.033H77.6C77.6 197.932 79.8712 200.301 82.732 200.457L82.7756 199.658ZM83.1538 200.065V200.058H82.3538V200.065H83.1538ZM83.0228 199.665H82.7538V200.465H83.0228V199.665ZM83.0329 199.665C83.0298 199.665 83.0267 199.665 83.0236 199.665L83.022 200.465C83.0256 200.465 83.0292 200.465 83.0329 200.465V199.665ZM83.0421 199.665C83.0391 199.665 83.036 199.665 83.0329 199.665V200.465C83.0365 200.465 83.0401 200.465 83.0437 200.465L83.0421 199.665ZM100.928 199.665H83.0429V200.465H100.928V199.665ZM100.528 190V200.065H101.328V190H100.528ZM82.7538 190.4H100.928V189.6H82.7538V190.4ZM83.1538 190.007V190H82.3538V190.007H83.1538Z" fill="#2E2E2E" mask="url(#path-96-inside-1_725_16338)"/>
<mask id="path-98-inside-2_725_16338" fill="white">
<path fill-rule="evenodd" clip-rule="evenodd" d="M158.947 200.065H177.122V200.058C179.771 199.912 181.874 197.718 181.874 195.033C181.874 192.347 179.771 190.153 177.122 190.007V190H176.861C176.855 190 176.848 190 176.841 190C176.834 190 176.828 190 176.821 190H158.947V200.065Z"/>
</mask>
<path fill-rule="evenodd" clip-rule="evenodd" d="M158.947 200.065H177.122V200.058C179.771 199.912 181.874 197.718 181.874 195.033C181.874 192.347 179.771 190.153 177.122 190.007V190H176.861C176.855 190 176.848 190 176.841 190C176.834 190 176.828 190 176.821 190H158.947V200.065Z" fill="url(#paint6_linear_725_16338)"/>
<path d="M177.122 200.065V200.465H177.522V200.065H177.122ZM158.947 200.065H158.547V200.465H158.947V200.065ZM177.122 200.058L177.1 199.658L176.722 199.679V200.058H177.122ZM177.122 190.007H176.722V190.386L177.1 190.407L177.122 190.007ZM177.122 190H177.522V189.6H177.122V190ZM176.861 190L176.86 190.4H176.861V190ZM176.821 190V190.4L176.822 190.4L176.821 190ZM158.947 190V189.6H158.547V190H158.947ZM177.122 199.665H158.947V200.465H177.122V199.665ZM176.722 200.058V200.065H177.522V200.058H176.722ZM181.474 195.032C181.474 197.504 179.538 199.524 177.1 199.658L177.144 200.457C180.004 200.3 182.274 197.931 182.274 195.032H181.474ZM177.1 190.407C179.538 190.541 181.474 192.561 181.474 195.032H182.274C182.274 192.133 180.004 189.765 177.144 189.608L177.1 190.407ZM176.722 190V190.007H177.522V190H176.722ZM176.861 190.4H177.122V189.6H176.861V190.4ZM176.841 190.4C176.847 190.4 176.854 190.4 176.86 190.4L176.863 189.6C176.856 189.6 176.848 189.6 176.841 189.6V190.4ZM176.822 190.4C176.829 190.4 176.835 190.4 176.841 190.4V189.6C176.834 189.6 176.827 189.6 176.819 189.6L176.822 190.4ZM158.947 190.4H176.821V189.6H158.947V190.4ZM159.347 200.065V190H158.547V200.065H159.347Z" fill="#2E2E2E" mask="url(#path-98-inside-2_725_16338)"/>
<rect x="112.605" y="206" width="35.7142" height="15" fill="#2D2B2C"/>
<path d="M125.66 211.238C125.102 211.238 124.839 211.296 124.548 211.408L124.496 211.427L124.812 211.988L124.849 211.974C125.064 211.886 125.301 211.856 125.745 211.856H126.217C126.906 211.856 127.301 212.199 127.301 212.804V214.662C127.301 215.266 126.906 215.61 126.217 215.61H125.448C124.741 215.61 124.397 215.326 124.397 214.737C124.397 214.153 124.741 213.87 125.448 213.87H126.519V213.247H125.415C124.366 213.247 123.765 213.793 123.765 214.742C123.765 215.66 124.397 216.232 125.415 216.232H126.245C127.404 216.232 127.933 215.459 127.933 214.742V212.724C127.933 212.007 127.404 211.238 126.245 211.238H125.66ZM130.329 211.238C129.17 211.238 128.641 212.007 128.641 212.724V214.742C128.641 215.459 129.17 216.232 130.329 216.232H131.045C131.636 216.232 132.022 216.146 132.333 215.944L132.37 215.916L132.012 215.393L131.974 215.416C131.743 215.557 131.45 215.61 130.965 215.61H130.357C129.658 215.61 129.272 215.275 129.272 214.662V212.804C129.272 212.191 129.658 211.856 130.357 211.856H130.965C131.449 211.856 131.742 211.914 131.974 212.054L132.012 212.078L132.37 211.55L132.333 211.526C132.022 211.325 131.636 211.238 131.045 211.238H130.329ZM134.464 211.238C133.302 211.238 132.771 212.007 132.771 212.724V214.742C132.771 215.459 133.301 216.232 134.459 216.232H135.289C136.448 216.232 136.973 215.459 136.973 214.742V212.724C136.973 212.007 136.443 211.238 135.28 211.238H134.464ZM139.364 211.248C138.364 211.248 137.718 211.815 137.718 212.691V216.208H138.35V212.771C138.35 212.163 138.69 211.865 139.392 211.865C140.058 211.865 140.425 212.169 140.425 212.714V216.208H141.056V212.714C141.056 212.169 141.423 211.865 142.089 211.865C142.792 211.865 143.136 212.163 143.136 212.771V216.208H143.763V212.691C143.763 211.815 143.117 211.248 142.117 211.248C141.45 211.248 141.048 211.413 140.74 211.809C140.434 211.413 140.03 211.248 139.364 211.248ZM117.13 211.271V214.789C117.13 215.664 117.776 216.232 118.776 216.232C119.442 216.232 119.846 216.068 120.153 215.671C120.46 216.068 120.863 216.232 121.53 216.232C122.529 216.232 123.175 215.664 123.175 214.789V211.271H122.548V214.709C122.548 215.317 122.204 215.61 121.501 215.61C120.835 215.61 120.469 215.31 120.469 214.765V211.271H119.842V214.765C119.842 215.31 119.475 215.61 118.809 215.61C118.107 215.61 117.762 215.317 117.762 214.709V211.271H117.13ZM134.488 211.856H135.256C135.946 211.856 136.341 212.199 136.341 212.804V214.662C136.341 215.266 135.946 215.61 135.256 215.61H134.488C133.788 215.61 133.403 215.275 133.403 214.662V212.804C133.403 212.199 133.798 211.856 134.488 211.856Z" fill="white"/>
<g filter="url(#filter2_d_725_16338)">
<path fill-rule="evenodd" clip-rule="evenodd" d="M207.888 168.681C209.81 167.53 211.515 166.507 211.677 166.406C211.879 166.281 210.925 165.516 208.67 163.993C206.853 162.766 205.346 161.796 205.319 161.836C205.165 162.07 204.108 170.853 204.238 170.816C204.324 170.792 205.967 169.831 207.888 168.681ZM231.3 135.608L250.076 105.813L249.49 105.152C248.711 104.276 247.655 103.602 246.446 103.21L245.456 102.89L226.968 129.815C216.799 144.624 207.862 157.668 207.108 158.801L205.738 160.862L209.131 163.132L212.524 165.403L231.3 135.608ZM214.5 154.969C214.324 154.85 214.15 154.601 214.112 154.415C214.044 154.075 224.219 138.311 224.863 137.759C225.332 137.358 226.162 137.636 226.282 138.235C226.41 138.87 215.889 154.969 215.264 155.095C215.019 155.144 214.676 155.087 214.5 154.969ZM251.446 102.225C251.869 100.88 252.124 99.6053 252.047 99.2244C251.87 98.3434 250.951 97.9371 250.207 98.4102C249.54 98.8332 246.121 101.81 246.148 101.944C246.159 101.999 246.757 102.194 247.477 102.376C248.504 102.637 248.942 102.9 249.505 103.593C249.899 104.08 250.332 104.497 250.467 104.52C250.602 104.544 251.042 103.511 251.446 102.225Z" fill="url(#paint7_linear_725_16338)"/>
</g>
</g>
<defs>
<filter id="filter0_f_725_16338" x="-20" y="25" width="298" height="184" filterUnits="userSpaceOnUse" color-interpolation-filters="sRGB">
<feFlood flood-opacity="0" result="BackgroundImageFix"/>
<feBlend mode="normal" in="SourceGraphic" in2="BackgroundImageFix" result="shape"/>
<feGaussianBlur stdDeviation="18.5" result="effect1_foregroundBlur_725_16338"/>
</filter>
<filter id="filter1_ii_725_16338" x="17" y="62" width="224" height="148" filterUnits="userSpaceOnUse" color-interpolation-filters="sRGB">
<feFlood flood-opacity="0" result="BackgroundImageFix"/>
<feBlend mode="normal" in="SourceGraphic" in2="BackgroundImageFix" result="shape"/>
<feColorMatrix in="SourceAlpha" type="matrix" values="0 0 0 0 0 0 0 0 0 0 0 0 0 0 0 0 0 0 127 0" result="hardAlpha"/>
<feOffset dy="4"/>
<feComposite in2="hardAlpha" operator="arithmetic" k2="-1" k3="1"/>
<feColorMatrix type="matrix" values="0 0 0 0 0.803922 0 0 0 0 0.909804 0 0 0 0 0.839216 0 0 0 1 0"/>
<feBlend mode="normal" in2="shape" result="effect1_innerShadow_725_16338"/>
<feColorMatrix in="SourceAlpha" type="matrix" values="0 0 0 0 0 0 0 0 0 0 0 0 0 0 0 0 0 0 127 0" result="hardAlpha"/>
<feOffset dy="-4"/>
<feComposite in2="hardAlpha" operator="arithmetic" k2="-1" k3="1"/>
<feColorMatrix type="matrix" values="0 0 0 0 0.803922 0 0 0 0 0.909804 0 0 0 0 0.839216 0 0 0 1 0"/>
<feBlend mode="soft-light" in2="effect1_innerShadow_725_16338" result="effect2_innerShadow_725_16338"/>
</filter>
<filter id="filter2_d_725_16338" x="189.227" y="83.2109" width="77.8337" height="102.605" filterUnits="userSpaceOnUse" color-interpolation-filters="sRGB">
<feFlood flood-opacity="0" result="BackgroundImageFix"/>
<feColorMatrix in="SourceAlpha" type="matrix" values="0 0 0 0 0 0 0 0 0 0 0 0 0 0 0 0 0 0 127 0" result="hardAlpha"/>
<feOffset/>
<feGaussianBlur stdDeviation="7.5"/>
<feComposite in2="hardAlpha" operator="out"/>
<feColorMatrix type="matrix" values="0 0 0 0 0.633333 0 0 0 0 0.612222 0 0 0 0 0.612222 0 0 0 0.25 0"/>
<feBlend mode="normal" in2="BackgroundImageFix" result="effect1_dropShadow_725_16338"/>
<feBlend mode="normal" in="SourceGraphic" in2="effect1_dropShadow_725_16338" result="shape"/>
</filter>
<linearGradient id="paint0_linear_725_16338" x1="17" y1="34" x2="197.768" y2="215.142" gradientUnits="userSpaceOnUse">
<stop stop-color="#05815D"/>
<stop offset="1" stop-color="#0C575F"/>
</linearGradient>
<linearGradient id="paint1_linear_725_16338" x1="17" y1="62" x2="241" y2="210" gradientUnits="userSpaceOnUse">
<stop stop-color="#3C3D3F"/>
<stop offset="1" stop-color="#2C2C2C"/>
</linearGradient>
<linearGradient id="paint2_linear_725_16338" x1="170.271" y1="200.065" x2="170.271" y2="210.131" gradientUnits="userSpaceOnUse">
<stop stop-color="#6A6A6A"/>
<stop offset="0.8125" stop-color="#262425"/>
</linearGradient>
<linearGradient id="paint3_linear_725_16338" x1="142.66" y1="200.065" x2="142.66" y2="210.131" gradientUnits="userSpaceOnUse">
<stop stop-color="#6A6A6A"/>
<stop offset="0.8125" stop-color="#262425"/>
</linearGradient>
<linearGradient id="paint4_linear_725_16338" x1="134.9" y1="200.065" x2="134.9" y2="210.131" gradientUnits="userSpaceOnUse">
<stop stop-color="#6A6A6A"/>
<stop offset="0.8125" stop-color="#262425"/>
</linearGradient>
<linearGradient id="paint5_linear_725_16338" x1="89.4641" y1="200.065" x2="89.4641" y2="190" gradientUnits="userSpaceOnUse">
<stop stop-color="#6A6A6A"/>
<stop offset="0.8125" stop-color="#262425"/>
</linearGradient>
<linearGradient id="paint6_linear_725_16338" x1="170.411" y1="200.065" x2="170.411" y2="190" gradientUnits="userSpaceOnUse">
<stop stop-color="#6A6A6A"/>
<stop offset="0.8125" stop-color="#262425"/>
</linearGradient>
<linearGradient id="paint7_linear_725_16338" x1="221.496" y1="151.64" x2="214.166" y2="146.847" gradientUnits="userSpaceOnUse">
<stop stop-color="#525253"/>
<stop offset="0.390625" stop-color="#656769"/>
<stop offset="0.682292" stop-color="#818183"/>
<stop offset="1" stop-color="#636367"/>
</linearGradient>
<clipPath id="clip0_725_16338">
<rect width="256" height="256" fill="white"/>
</clipPath>
</defs>
</svg>
