<svg width="256" height="256" viewBox="0 0 256 256" fill="none" xmlns="http://www.w3.org/2000/svg">
<g clip-path="url(#clip0_2002_33790)">
<path fill-rule="evenodd" clip-rule="evenodd" d="M104.425 42.3784C100.056 37.0733 93.5437 34 86.6712 34H29C22.3726 34 17 39.3726 17 46V58.1371V68.2V160C17 166.627 22.3726 172 29 172H229C235.627 172 241 166.627 241 160V70.1371C241 63.5097 235.627 58.1371 229 58.1371H117.404L104.425 42.3784Z" fill="#E6E6E6"/>
<mask id="mask0_2002_33790" style="mask-type:alpha" maskUnits="userSpaceOnUse" x="17" y="34" width="224" height="138">
<path fill-rule="evenodd" clip-rule="evenodd" d="M104.425 42.3784C100.056 37.0733 93.5437 34 86.6712 34H29C22.3726 34 17 39.3726 17 46V58.1371V68.2V160C17 166.627 22.3726 172 29 172H229C235.627 172 241 166.627 241 160V70.1371C241 63.5097 235.627 58.1371 229 58.1371H117.404L104.425 42.3784Z" fill="url(#paint0_linear_2002_33790)"/>
</mask>
<g mask="url(#mask0_2002_33790)">
<g style="mix-blend-mode:multiply" filter="url(#filter0_f_2002_33790)">
<path fill-rule="evenodd" clip-rule="evenodd" d="M92.789 74C97.7642 74 102.605 72.3868 106.586 69.4024L116.459 62H229C235.627 62 241 67.3726 241 74V108V160C241 166.627 235.627 172 229 172H29C22.3726 172 17 166.627 17 160L17 108V86C17 79.3726 22.3726 74 29 74H87H92.789Z" fill="black" fill-opacity="0.3"/>
</g>
</g>
<g filter="url(#filter1_ii_2002_33790)">
<path fill-rule="evenodd" clip-rule="evenodd" d="M92.789 74C97.7642 74 102.605 72.3868 106.586 69.4024L116.459 62H229C235.627 62 241 67.3726 241 74V108V198C241 204.627 235.627 210 229 210H29C22.3726 210 17 204.627 17 198L17 108V86C17 79.3726 22.3726 74 29 74H87H92.789Z" fill="url(#paint1_linear_2002_33790)"/>
</g>
<path d="M129.076 85L174.151 110.5V161.5L129.076 187L84 161.5V110.5L129.076 85Z" fill="white"/>
<path d="M166.102 159.74L130.564 179.842V164.185L152.706 152.005L166.102 159.74ZM168.533 157.538V115.497L155.528 123.003V150.024L168.533 157.538ZM91.9056 159.74L127.444 179.842V164.185L105.302 152.005L91.9056 159.74ZM89.4746 157.538V115.497L102.48 123.003V150.024L89.4746 157.538ZM90.9961 112.777L127.444 92.1562V107.295L104.095 120.138L103.916 120.24L90.9961 112.777ZM167.011 112.777L130.564 92.1562V107.295L153.913 120.138L154.092 120.24L167.011 112.777Z" fill="#8ED6FB"/>
<path d="M127.445 160.624L105.6 148.613V124.814L127.445 137.428V160.624ZM130.564 160.624L152.409 148.613V124.814L130.564 137.428V160.624ZM107.079 122.06L129.009 109.998L150.939 122.06L129.009 134.725L107.079 122.06Z" fill="#1C78C0"/>
</g>
<defs>
<filter id="filter0_f_2002_33790" x="-20" y="25" width="298" height="184" filterUnits="userSpaceOnUse" color-interpolation-filters="sRGB">
<feFlood flood-opacity="0" result="BackgroundImageFix"/>
<feBlend mode="normal" in="SourceGraphic" in2="BackgroundImageFix" result="shape"/>
<feGaussianBlur stdDeviation="18.5" result="effect1_foregroundBlur_2002_33790"/>
</filter>
<filter id="filter1_ii_2002_33790" x="17" y="62" width="224" height="148" filterUnits="userSpaceOnUse" color-interpolation-filters="sRGB">
<feFlood flood-opacity="0" result="BackgroundImageFix"/>
<feBlend mode="normal" in="SourceGraphic" in2="BackgroundImageFix" result="shape"/>
<feColorMatrix in="SourceAlpha" type="matrix" values="0 0 0 0 0 0 0 0 0 0 0 0 0 0 0 0 0 0 127 0" result="hardAlpha"/>
<feOffset dy="-4"/>
<feComposite in2="hardAlpha" operator="arithmetic" k2="-1" k3="1"/>
<feColorMatrix type="matrix" values="0 0 0 0 0 0 0 0 0 0 0 0 0 0 0 0 0 0 0.25 0"/>
<feBlend mode="normal" in2="shape" result="effect1_innerShadow_2002_33790"/>
<feColorMatrix in="SourceAlpha" type="matrix" values="0 0 0 0 0 0 0 0 0 0 0 0 0 0 0 0 0 0 127 0" result="hardAlpha"/>
<feOffset dy="4"/>
<feComposite in2="hardAlpha" operator="arithmetic" k2="-1" k3="1"/>
<feColorMatrix type="matrix" values="0 0 0 0 1 0 0 0 0 1 0 0 0 0 1 0 0 0 0.25 0"/>
<feBlend mode="normal" in2="effect1_innerShadow_2002_33790" result="effect2_innerShadow_2002_33790"/>
</filter>
<linearGradient id="paint0_linear_2002_33790" x1="17" y1="34" x2="197.768" y2="215.142" gradientUnits="userSpaceOnUse">
<stop stop-color="#05815D"/>
<stop offset="1" stop-color="#0C575F"/>
</linearGradient>
<linearGradient id="paint1_linear_2002_33790" x1="17" y1="62" x2="241" y2="210" gradientUnits="userSpaceOnUse">
<stop stop-color="#5F585E"/>
<stop offset="1" stop-color="#010101"/>
</linearGradient>
<clipPath id="clip0_2002_33790">
<rect width="256" height="256" fill="white"/>
</clipPath>
</defs>
</svg>
