<svg xmlns="http://www.w3.org/2000/svg" xmlns:xlink="http://www.w3.org/1999/xlink" fill="none" version="1.1" width="256" height="256" viewBox="0 0 256 256"><defs><clipPath id="master_svg0_1_61"><rect x="0" y="0" width="256" height="256" rx="0"/></clipPath><linearGradient x1="-5.134781488891349e-16" y1="-1.942890293094024e-16" x2="1.1710403214802918" y2="0.7229371082788956" id="master_svg1_1_109"><stop offset="0%" stop-color="#05815D" stop-opacity="1"/><stop offset="100%" stop-color="#0C575F" stop-opacity="1"/></linearGradient><mask id="master_svg2_1_66" style="mask-type:alpha" maskUnits="objectBoundingBox"><g><g><path d="M104.425,42.3784C100.056,37.0733,93.5437,34,86.6712,34L29,34C22.3726,34,17,39.3726,17,46L17,58.137100000000004L17,68.2L17,160C17,166.627,22.3726,172,29,172L229,172C235.627,172,241,166.627,241,160L241,70.1371C241,63.509699999999995,235.627,58.137100000000004,229,58.137100000000004L117.404,58.137100000000004L104.425,42.3784Z" fill-rule="evenodd" fill="url(#master_svg1_1_109)" fill-opacity="1" style="mix-blend-mode:passthrough"/></g></g></mask><filter id="master_svg3_1_73" filterUnits="objectBoundingBox" color-interpolation-filters="sRGB" x="-0.33035714285714285" y="-0.6727272727272727" width="1.6607142857142858" height="2.3454545454545452"><feFlood flood-opacity="0" result="BackgroundImageFix"/><feBlend mode="normal" in="SourceGraphic" in2="BackgroundImageFix" result="shape"/><feGaussianBlur stdDeviation="18.5" result="effect1_foregroundBlur"/></filter><linearGradient x1="-5.134781488891349e-16" y1="-3.3306690738754696e-16" x2="1.2066012353081996" y2="0.526733766306418" id="master_svg4_1_636"><stop offset="0%" stop-color="#2AAE67" stop-opacity="1"/><stop offset="100%" stop-color="#51D38D" stop-opacity="1"/></linearGradient><linearGradient x1="-5.134781488891349e-16" y1="0.5" x2="1" y2="0.5" id="master_svg5_1_969"><stop offset="0%" stop-color="#3CD984" stop-opacity="1"/><stop offset="100%" stop-color="#35CE7C" stop-opacity="1"/></linearGradient><linearGradient x1="-0.0003124999930150807" y1="0.41749998927116394" x2="0.9998560571887892" y2="0.41829728208495" id="master_svg6_2_711"><stop offset="0%" stop-color="#00B029" stop-opacity="1"/><stop offset="100%" stop-color="#00A527" stop-opacity="1"/></linearGradient></defs><g clip-path="url(#master_svg0_1_61)"><g><path d="M104.425,42.3784C100.056,37.0733,93.5437,34,86.6712,34L29,34C22.3726,34,17,39.3726,17,46L17,58.137100000000004L17,68.2L17,160C17,166.627,22.3726,172,29,172L229,172C235.627,172,241,166.627,241,160L241,70.1371C241,63.509699999999995,235.627,58.137100000000004,229,58.137100000000004L117.404,58.137100000000004L104.425,42.3784Z" fill-rule="evenodd" fill="#50C552" fill-opacity="1" style="mix-blend-mode:passthrough"/></g><g mask="url(#master_svg2_1_66)"><g><g style="mix-blend-mode:multiply" filter="url(#master_svg3_1_73)"><g><path d="M92.789,74C97.7642,74,102.605,72.3868,106.586,69.4024L116.459,62L229,62C235.627,62,241,67.3726,241,74L241,108L241,160C241,166.627,235.627,172,229,172L29,172C22.3726,172,17,166.627,17,160L17,108L17,86C17,79.3726,22.3726,74,29,74L87,74L92.789,74Z" fill-rule="evenodd" fill="#000000" fill-opacity="0.30000001192092896" style="mix-blend-mode:passthrough"/></g></g></g></g><g><g><path d="M92.789,74C97.7642,74,102.605,72.3868,106.586,69.4024L116.459,62L229,62C235.627,62,241,67.3726,241,74L241,108L241,198C241,204.627,235.627,210,229,210L29,210C22.3726,210,17,204.627,17,198L17,108L17,86C17,79.3726,22.3726,74,29,74L87,74L92.789,74Z" fill-rule="evenodd" fill="url(#master_svg4_1_636)" fill-opacity="1" style="mix-blend-mode:passthrough"/></g><g><path d="M106.59,69.4C102.61,72.38,97.77,74,92.79,74L29,74C22.37,74,17,79.37,17,86L17,90C17,83.37,22.37,78,29,78L92.79,78C97.77,78,102.61,76.39,106.59,73.4L116.46,66L229,66C235.63,66,241,71.37,241,78L241,74C241,67.37,235.63,62,229,62L116.46,62L106.59,69.4Z" fill-rule="evenodd" fill="url(#master_svg5_1_969)" fill-opacity="1" style="mix-blend-mode:passthrough"/></g><g><path d="M17,194L17,198C17,204.63,22.37,210,29,210L229,210C235.63,210,241,204.63,241,198L241,194C241,200.63,235.63,206,229,206L29,206C22.37,206,17,200.63,17,194Z" fill-rule="evenodd" fill="url(#master_svg6_2_711)" fill-opacity="1" style="mix-blend-mode:passthrough"/></g></g><g><g><path d="M105.89098474121093,88.32450137060547C102.08798474121093,88.73870037060547,95.43968474121094,90.66970237060546,91.48028474121094,92.51020237060547C74.79540474121094,100.26699237060546,66.02819474121094,115.97799237060548,69.91220074121094,131.16299237060548C71.58989474121094,137.72299237060548,74.45359474121094,142.47799237060548,80.03628474121093,147.97099237060547C83.23128474121094,151.11499237060548,84.90738474121093,153.13799237060547,84.90738474121093,153.84999237060546C84.90738474121093,154.44599237060547,84.45778474121094,156.55699237060549,83.90818474121093,158.5399923706055C82.11558474121094,165.00899237060548,82.68768474121094,165.49399237060547,88.29728474121094,162.25899237060548C90.44758474121093,161.01799237060547,93.14598474121094,159.51399237060548,94.29358474121094,158.91599237060547L96.38048474121094,157.82799237060547L101.26098474121093,158.83899237060547C106.90198474121094,160.00699237060547,112.89898474121094,160.52699237060546,113.86198474121093,159.93199237060549C114.39798474121093,159.60099237060547,114.41698474121094,159.07599237060546,113.95698474121093,157.24899237060546C113.64198474121093,155.99999237060547,113.38498474121093,153.21499237060547,113.38498474121093,151.05799237060546C113.38498474121093,138.93199237060549,120.85198474121094,128.55999237060547,133.94698474121094,122.49399237060547C139.35498474121096,119.98799237060547,143.42298474121094,118.98699237060546,149.73198474121094,118.60799237060547C153.45098474121093,118.38399237060547,154.85298474121095,118.12199237060547,154.85298474121095,117.64899237060547C154.85298474121095,117.28999237060546,154.32898474121095,115.55499237060548,153.68898474121093,113.79199237060547C147.44998474121093,96.60450237060547,127.49498474121094,85.97239237060546,105.89098474121093,88.32450137060547ZM130.55428474121095,116.66599237060547C127.81618474121095,119.22489237060547,123.14718474121094,118.41579237060547,121.55898474121093,114.61299237060547C121.55008474121094,114.59169237060547,121.54128474121094,114.57039237060548,121.53268474121094,114.54909237060546C119.33238474121094,109.12289237060547,126.00318474121093,104.40939237060547,130.39498474121095,108.33299237060547C132.38198474121094,110.10899237060548,132.90098474121095,113.15099237060546,131.59498474121094,115.36199237060546C131.29728474121094,115.86609237060547,130.94548474121095,116.30039237060546,130.55428474121095,116.66599237060547ZM92.33958474121094,113.53729237060547C92.39878474121093,113.81479237060547,92.47718474121093,114.09879237060547,92.57488474121094,114.38999237060547C94.06578474121093,118.83399237060547,100.56898474121094,119.46499237060547,102.68598474121094,115.36999237060547C103.94898474121094,112.92899237060547,103.59898474121093,110.56299237060547,101.69398474121094,108.65799237060547C100.26298474121094,107.22699237060547,99.63938474121093,106.95899237060547,97.73588474121094,106.95899237060547C96.81038474121094,106.95899237060547,96.17368474121093,107.02929237060548,95.61648474121094,107.25239237060546C95.06778474121094,107.47199237060548,94.59618474121093,107.83969237060546,94.00178474121094,108.43399237060547C92.46088474121093,109.97489237060547,91.92578474121093,111.59539237060547,92.33958474121094,113.53729237060547ZM148.41298474121095,121.54499237060547C133.47298474121095,122.78399237060546,120.27598474121095,132.93099237060545,117.36598474121094,145.41599237060547C115.84298474121094,151.95499237060545,117.16798474121094,159.61899237060547,120.78598474121094,165.19999237060546C125.49298474121093,172.45799237060547,133.17098474121093,177.73399237060545,142.61198474121093,180.19699237060547C147.29498474121095,181.41999237060548,157.15098474121095,181.43699237060548,162.27298474121093,180.23099237060546L165.94598474121094,179.3669923706055L169.26798474121094,181.2179923706055C171.09398474121093,182.23599237060546,173.42098474121093,183.53599237060547,174.43798474121093,184.10699237060547C177.29598474121093,185.71199237060546,177.62898474121096,184.90999237060547,176.26398474121095,179.70699237060546L175.12898474121096,175.37999237060546L178.91498474121096,171.77099237060548C183.39998474121094,167.49399237060547,185.41498474121096,164.62599237060547,187.14698474121093,160.04799237060547C193.88198474121094,142.25499237060546,178.84098474121095,123.28299237060547,156.60098474121094,121.51599237060546C154.40298474121096,121.34099237060548,150.71798474121096,121.35499237060546,148.41298474121095,121.54499237060547ZM143.89998474121094,138.39599237060548C147.71098474121095,142.20699237060546,143.28798474121095,148.22399237060546,138.49598474121092,145.74699237060548C138.27648474121094,145.63339237060546,138.06698474121094,145.49709237060546,137.86928474121095,145.34209237060549C136.48518474121096,144.25669237060546,135.67938474121092,142.25119237060545,136.08098474121095,140.64999237060547C137.01198474121094,136.93899237060546,141.22798474121095,135.72399237060546,143.89998474121094,138.39599237060548ZM169.34098474121095,141.51499237060546C169.34098474121095,139.90399237060547,169.04698474121093,139.27599237060548,167.80398474121094,138.22899237060545C164.00798474121092,135.03499237060547,158.81898474121095,138.54899237060548,160.37498474121094,143.26099237060546C160.58038474121093,143.88349237060547,160.87448474121095,144.40589237060547,161.23198474121094,144.83319237060547C163.73428474121096,147.82399237060548,169.34098474121095,146.15249237060547,169.34098474121095,141.51499237060546Z" fill-rule="evenodd" fill="#FFFFFF" fill-opacity="1" style="mix-blend-mode:passthrough"/></g></g></g></svg>