<svg width="256" height="256" viewBox="0 0 256 256" fill="none" xmlns="http://www.w3.org/2000/svg">
<path fill-rule="evenodd" clip-rule="evenodd" d="M104.425 42.3784C100.056 37.0733 93.5437 34 86.6712 34H29C22.3726 34 17 39.3726 17 46V58.1371V68.2V160C17 166.627 22.3726 172 29 172H229C235.627 172 241 166.627 241 160V70.1371C241 63.5097 235.627 58.1371 229 58.1371H117.404L104.425 42.3784Z" fill="#00AB5A"/>
<mask id="mask0_522_13061" style="mask-type:alpha" maskUnits="userSpaceOnUse" x="17" y="34" width="224" height="138">
<path fill-rule="evenodd" clip-rule="evenodd" d="M104.425 42.3784C100.056 37.0733 93.5437 34 86.6712 34H29C22.3726 34 17 39.3726 17 46V58.1371V68.2V160C17 166.627 22.3726 172 29 172H229C235.627 172 241 166.627 241 160V70.1371C241 63.5097 235.627 58.1371 229 58.1371H117.404L104.425 42.3784Z" fill="url(#paint0_linear_522_13061)"/>
</mask>
<g mask="url(#mask0_522_13061)">
<g style="mix-blend-mode:multiply" filter="url(#filter0_f_522_13061)">
<path fill-rule="evenodd" clip-rule="evenodd" d="M92.789 74C97.7642 74 102.605 72.3868 106.586 69.4024L116.459 62H229C235.627 62 241 67.3726 241 74V108V160C241 166.627 235.627 172 229 172H29C22.3726 172 17 166.627 17 160L17 108V86C17 79.3726 22.3726 74 29 74H87H92.789Z" fill="black" fill-opacity="0.3"/>
</g>
</g>
<g filter="url(#filter1_ii_522_13061)">
<path fill-rule="evenodd" clip-rule="evenodd" d="M92.789 74C97.7642 74 102.605 72.3868 106.586 69.4024L116.459 62H229C235.627 62 241 67.3726 241 74V108V198C241 204.627 235.627 210 229 210H29C22.3726 210 17 204.627 17 198L17 108V86C17 79.3726 22.3726 74 29 74H87H92.789Z" fill="url(#paint1_linear_522_13061)"/>
</g>
<path fill-rule="evenodd" clip-rule="evenodd" d="M126.738 91.0271C123.668 91.1996 120.97 91.6031 118.121 92.316C108.151 94.8107 99.3635 100.686 93.141 109.018C86.1212 118.418 83.1248 130.157 84.7565 141.867C85.2838 145.651 86.3001 149.338 87.8101 152.942C88.2656 154.029 89.39 156.341 89.9396 157.321C90.1155 157.635 90.2586 157.917 90.2576 157.948C90.2566 157.979 88.8383 163.174 87.106 169.493C85.3737 175.812 83.9761 180.99 84.0003 181C84.0245 181.009 89.3417 179.628 95.8162 177.93L107.588 174.843L108.703 175.409C113.666 177.927 118.967 179.486 124.44 180.038C126.107 180.206 127.006 180.247 129.01 180.246C131.533 180.245 133.057 180.139 135.407 179.802C141.928 178.867 148.224 176.435 153.79 172.702C160.779 168.014 166.37 161.369 169.781 153.696C171.889 148.955 173.086 144.114 173.513 138.603C173.599 137.501 173.599 133.684 173.513 132.597C173.169 128.228 172.446 124.699 171.101 120.821C167.324 109.93 159.081 100.654 148.619 95.5196C143.417 92.9665 138.143 91.5557 132.012 91.0772C131.089 91.0051 127.702 90.973 126.738 91.0271ZM130.55 98.5487C133.192 98.6718 135.512 99.0053 137.977 99.6166C147.01 101.856 154.876 107.466 160.06 115.364C164.683 122.407 166.739 130.901 165.877 139.386C165.095 147.067 161.98 154.196 156.81 160.132C156.108 160.938 154.304 162.74 153.464 163.475C147.645 168.567 140.618 171.669 132.979 172.518C131.098 172.727 128.224 172.789 126.503 172.659C121.931 172.313 117.85 171.298 113.812 169.504C112.417 168.884 111.34 168.319 109.651 167.321L108.701 166.76L101.724 168.59C97.8863 169.597 94.7321 170.406 94.7144 170.388C94.6967 170.371 95.5203 167.297 96.5447 163.557L98.4071 156.758L97.7347 155.684C96.9208 154.383 96.3953 153.465 95.8504 152.39C91.9931 144.782 90.8844 136.012 92.7213 127.639C93.4281 124.417 94.6731 121.046 96.2127 118.184C99.7514 111.605 105.045 106.333 111.645 102.812C117.362 99.7623 124.08 98.2473 130.55 98.5487ZM112.421 115.076C112.025 115.162 111.553 115.35 111.161 115.579C110.814 115.78 109.579 116.994 109.043 117.661C107.628 119.42 106.75 121.416 106.423 123.615C106.303 124.421 106.261 126.091 106.341 126.883C106.627 129.706 107.936 132.98 110.005 136.044C111.062 137.609 112.443 139.555 113.156 140.482C117.963 146.736 123.552 151.373 129.166 153.764C131.155 154.611 134.345 155.736 136.216 156.249C138.912 156.989 140.482 157.159 142.534 156.936C144.092 156.766 144.736 156.572 146.165 155.845C148.177 154.821 149.838 153.399 150.568 152.077C150.883 151.507 151.302 150.036 151.498 148.813C151.611 148.105 151.629 146.712 151.529 146.428C151.379 146.007 151.09 145.824 148.761 144.677C142.513 141.598 141.282 141.058 140.523 141.058C139.917 141.058 139.62 141.269 139.001 142.14C138.249 143.199 135.919 146.012 135.404 146.482C134.882 146.959 134.387 147.012 133.578 146.677C129.999 145.194 127.534 143.742 124.936 141.587C124.091 140.886 122.205 138.984 121.433 138.055C120.277 136.664 119.239 135.217 118.365 133.782C117.865 132.96 117.752 132.656 117.793 132.235C117.83 131.848 118 131.567 118.552 130.976C119.043 130.45 120.105 129.195 120.517 128.654C120.626 128.511 120.891 128.041 121.106 127.61C121.664 126.493 121.674 126.214 121.201 125.138C121.077 124.855 120.54 123.557 120.009 122.253C118.136 117.652 117.74 116.736 117.395 116.202C116.901 115.437 116.439 115.136 115.63 115.051C114.91 114.975 112.81 114.991 112.421 115.076Z" fill="white"/>
<defs>
<filter id="filter0_f_522_13061" x="-20" y="25" width="298" height="184" filterUnits="userSpaceOnUse" color-interpolation-filters="sRGB">
<feFlood flood-opacity="0" result="BackgroundImageFix"/>
<feBlend mode="normal" in="SourceGraphic" in2="BackgroundImageFix" result="shape"/>
<feGaussianBlur stdDeviation="18.5" result="effect1_foregroundBlur_522_13061"/>
</filter>
<filter id="filter1_ii_522_13061" x="17" y="62" width="224" height="148" filterUnits="userSpaceOnUse" color-interpolation-filters="sRGB">
<feFlood flood-opacity="0" result="BackgroundImageFix"/>
<feBlend mode="normal" in="SourceGraphic" in2="BackgroundImageFix" result="shape"/>
<feColorMatrix in="SourceAlpha" type="matrix" values="0 0 0 0 0 0 0 0 0 0 0 0 0 0 0 0 0 0 127 0" result="hardAlpha"/>
<feOffset dy="4"/>
<feComposite in2="hardAlpha" operator="arithmetic" k2="-1" k3="1"/>
<feColorMatrix type="matrix" values="0 0 0 0 1 0 0 0 0 1 0 0 0 0 1 0 0 0 0.25 0"/>
<feBlend mode="normal" in2="shape" result="effect1_innerShadow_522_13061"/>
<feColorMatrix in="SourceAlpha" type="matrix" values="0 0 0 0 0 0 0 0 0 0 0 0 0 0 0 0 0 0 127 0" result="hardAlpha"/>
<feOffset dy="-4"/>
<feComposite in2="hardAlpha" operator="arithmetic" k2="-1" k3="1"/>
<feColorMatrix type="matrix" values="0 0 0 0 0 0 0 0 0 0 0 0 0 0 0 0 0 0 0.9 0"/>
<feBlend mode="soft-light" in2="effect1_innerShadow_522_13061" result="effect2_innerShadow_522_13061"/>
</filter>
<linearGradient id="paint0_linear_522_13061" x1="17" y1="34" x2="197.768" y2="215.142" gradientUnits="userSpaceOnUse">
<stop stop-color="#05815D"/>
<stop offset="1" stop-color="#0C575F"/>
</linearGradient>
<linearGradient id="paint1_linear_522_13061" x1="17" y1="62" x2="241" y2="210" gradientUnits="userSpaceOnUse">
<stop stop-color="#00E15F"/>
<stop offset="1" stop-color="#00A058"/>
</linearGradient>
</defs>
</svg>
