<svg id="Layer_1" data-name="Layer 1" xmlns="http://www.w3.org/2000/svg" xmlns:xlink="http://www.w3.org/1999/xlink" width="256" height="256" viewBox="0 0 256 256">
  <defs>
    <style>
      .cls-1, .cls-2, .cls-4, .cls-5, .cls-6, .cls-7 {
        fill-rule: evenodd;
      }

      .cls-1 {
        fill: url(#linear-gradient);
      }

      .cls-2 {
        fill: url(#linear-gradient-2);
      }

      .cls-3 {
        mask: url(#mask);
      }

      .cls-4 {
        fill: #a6a1a1;
      }

      .cls-5 {
        fill: url(#linear-gradient-3);
      }

      .cls-6 {
        fill: #c1c1c1;
      }

      .cls-7 {
        fill: #fff;
        opacity: 0.63;
      }

      .cls-12, .cls-16, .cls-8 {
        fill: none;
        stroke-miterlimit: 10;
      }

      .cls-8 {
        stroke: #2d2829;
      }

      .cls-9 {
        fill: #2d2829;
      }

      .cls-10 {
        fill: #a2a4a5;
      }

      .cls-11 {
        fill: #a0a4a4;
      }

      .cls-12 {
        stroke: #a5a5a5;
        stroke-width: 0.5px;
      }

      .cls-13 {
        fill: #9fa1a3;
      }

      .cls-14 {
        fill: #2b2527;
      }

      .cls-15 {
        fill: #999797;
      }

      .cls-16 {
        stroke: #d1d1d1;
      }
    </style>
    <linearGradient id="linear-gradient" x1="32.58" y1="239.55" x2="213.35" y2="58.41" gradientTransform="matrix(1, 0, 0, -1, 0, 258)" gradientUnits="userSpaceOnUse">
      <stop offset="0" stop-color="#05815d"/>
      <stop offset="1" stop-color="#0c575f"/>
    </linearGradient>
    <linearGradient id="linear-gradient-2" x1="129" y1="35.57" x2="129" y2="87.03" gradientUnits="userSpaceOnUse">
      <stop offset="0" stop-color="#eaeaea"/>
      <stop offset="1" stop-color="#aaa"/>
    </linearGradient>
    <mask id="mask" x="17" y="34" width="224" height="138" maskUnits="userSpaceOnUse">
      <g id="mask0_501_11930" data-name="mask0 501 11930">
        <path class="cls-1" d="M104.43,42.38A23,23,0,0,0,86.67,34H29A12,12,0,0,0,17,46V160a12,12,0,0,0,12,12H229a12,12,0,0,0,12-12V70.14a12,12,0,0,0-12-12H117.4Z"/>
      </g>
    </mask>
    <linearGradient id="linear-gradient-3" x1="129" y1="67.43" x2="129" y2="211.01" gradientUnits="userSpaceOnUse">
      <stop offset="0" stop-color="#eaeaea"/>
      <stop offset="1" stop-color="#dedede"/>
    </linearGradient>
  </defs>
  <path class="cls-2" d="M104.43,42.38A23,23,0,0,0,86.67,34H29A12,12,0,0,0,17,46V160a12,12,0,0,0,12,12H229a12,12,0,0,0,12-12V70.14a12,12,0,0,0-12-12H117.4Z"/>
  <g class="cls-3">
    <path class="cls-4" d="M92.79,74a23,23,0,0,0,13.8-4.6l9.87-7.4H229a12,12,0,0,1,12,12v86a12,12,0,0,1-12,12H29a12,12,0,0,1-12-12V86A12,12,0,0,1,29,74H92.79Z"/>
  </g>
  <path class="cls-5" d="M92.79,74a23,23,0,0,0,13.8-4.6l9.87-7.4H229a12,12,0,0,1,12,12V198a12,12,0,0,1-12,12H29a12,12,0,0,1-12-12V86A12,12,0,0,1,29,74H92.79Z"/>
  <path class="cls-6" d="M17,194v4a12,12,0,0,0,12,12H229a12,12,0,0,0,12-12v-4a12,12,0,0,1-12,12H29A12,12,0,0,1,17,194Z"/>
  <path class="cls-7" d="M106.59,69.4A23,23,0,0,1,92.79,74H29A12,12,0,0,0,17,86v4A12,12,0,0,1,29,78H92.79a23,23,0,0,0,13.8-4.6l9.87-7.4H229a12,12,0,0,1,12,12V74a12,12,0,0,0-12-12H116.46Z"/>
  <g id="Wikipedia">
    <line class="cls-8" x1="110.39" y1="157.84" x2="139.82" y2="106.19"/>
    <path class="cls-9" d="M128.35,125.94l-18.27,32.28L70,89.07l-5,0a.8.8,0,0,1-.77-.6l-.15-.62a2,2,0,0,1,.11-1.3h0a.94.94,0,0,1,.87-.57h41.53Z"/>
    <path class="cls-9" d="M176.67,126,158.4,158.22,118.21,89.15l-4.77-.08a.8.8,0,0,1-.76-.6l-.15-.62a2,2,0,0,1,.11-1.3h0a.94.94,0,0,1,.87-.57H155Z"/>
    <path class="cls-9" d="M195.4,90.3a19.86,19.86,0,0,1-.69,4.66c-2.7,11.22-11.08,15.79-12.91,15.16-.43-.15,5-4.24,4.94-5.66a15.9,15.9,0,0,1-22.45-18.73l30.42-.09A16,16,0,0,1,195.4,90.3Z"/>
  </g>
  <rect class="cls-10" x="190.91" y="171.06" width="4.49" height="11.51"/>
  <rect class="cls-11" x="191.11" y="153.89" width="4.11" height="3.82"/>
  <g id="Lines">
    <line class="cls-12" x1="77.02" y1="78" x2="77.02" y2="203.26"/>
    <line class="cls-12" x1="190.91" y1="70.51" x2="190.91" y2="203.26"/>
    <line class="cls-12" x1="195.4" y1="70.51" x2="195.4" y2="203.26"/>
    <polyline class="cls-12" points="194.48 82.22 192.29 82.22 165.12 82.22 65.31 82.22"/>
    <polyline class="cls-12" points="42.9 86.08 164.29 85.73 194.71 85.64 216.52 85.58"/>
    <line class="cls-12" x1="216.73" y1="157.89" x2="43.11" y2="158.39"/>
    <line class="cls-12" x1="216.8" y1="170.81" x2="43.18" y2="171.31"/>
    <line class="cls-12" x1="217.05" y1="182.75" x2="43.43" y2="183.25"/>
    <line class="cls-12" x1="216.8" y1="189.68" x2="43.18" y2="190.18"/>
    <line class="cls-12" x1="189.37" y1="195.55" x2="78.42" y2="195.88"/>
    <line class="cls-12" x1="64.11" y1="78" x2="64.11" y2="203.26"/>
  </g>
  <rect class="cls-13" x="36.44" y="115.84" width="4.34" height="12.36"/>
  <g id="Wikipedia-2" data-name="Wikipedia">
    <path class="cls-14" d="M93.4,171.39h3.08l-4.33,11.5H89.61l-2.75-7.63-2.72,7.63H81.56l-4.32-11.5h3.1l2.7,7.16,2.54-7.16h2.53l2.59,7.13Z"/>
    <path class="cls-14" d="M99.72,165.71a1.91,1.91,0,1,1-2,1.91A1.88,1.88,0,0,1,99.72,165.71Zm-1.65,17.18V171.37h3.22v11.52Z"/>
    <path class="cls-14" d="M113.71,182.89l-3.92-5.26-2,1.78v3.48h-3.19v-11.5h3.19v4.71l5.25-4.73h3.72l-4.9,4.39,5.28,7.13Z"/>
    <path class="cls-14" d="M120.48,165.71a1.91,1.91,0,1,1-2,1.91A1.88,1.88,0,0,1,120.48,165.71Zm-1.65,17.18V171.37h3.22v11.52Z"/>
    <path class="cls-14" d="M137.43,172.76A6.06,6.06,0,0,1,133,183.2a5.39,5.39,0,0,1-4.44-2v6.94h-3.2v-16.8h2.92v2a5.33,5.33,0,0,1,4.72-2.35A6,6,0,0,1,137.43,172.76ZM136,177.13a3.36,3.36,0,0,0-1.05-2.54,3.52,3.52,0,0,0-2.65-1,3.56,3.56,0,0,0-2.64,1,3.36,3.36,0,0,0-1.05,2.54,3.42,3.42,0,0,0,1.05,2.57,3.65,3.65,0,0,0,2.64,1A3.48,3.48,0,0,0,136,177.13Z"/>
    <path class="cls-14" d="M150.4,178.88l2.37.87a5.6,5.6,0,0,1-5.62,3.48,6.52,6.52,0,0,1-4.65-1.71,5.79,5.79,0,0,1-1.79-4.41,5.91,5.91,0,0,1,1.67-4.37,6.9,6.9,0,0,1,8.82-.17,5,5,0,0,1,1.65,3.94,4.42,4.42,0,0,1-.18,1.27h-8.89a3.32,3.32,0,0,0,3.44,3A3.36,3.36,0,0,0,150.4,178.88Zm-6.6-3.07h5.87a2.62,2.62,0,0,0-2.89-2.4A2.76,2.76,0,0,0,143.8,175.81Z"/>
    <path class="cls-14" d="M165.08,165.61h3.2v17.28h-2.92v-2a5.31,5.31,0,0,1-4.72,2.35,5.76,5.76,0,0,1-6.12-6.07,5.91,5.91,0,0,1,1.67-4.37,6,6,0,0,1,4.45-1.7,5.38,5.38,0,0,1,4.44,2ZM164,179.7a3.42,3.42,0,0,0,1.05-2.57,3.36,3.36,0,0,0-1.05-2.54,3.54,3.54,0,0,0-2.64-1,3.63,3.63,0,0,0-2.68,1,3.44,3.44,0,0,0-1,2.54,3.48,3.48,0,0,0,3.7,3.58A3.64,3.64,0,0,0,164,179.7Z"/>
    <path class="cls-14" d="M173.1,165.71a1.91,1.91,0,1,1-2,1.91A1.88,1.88,0,0,1,173.1,165.71Zm-1.65,17.18V171.37h3.22v11.52Z"/>
    <path class="cls-14" d="M188,171.37h2.92v11.52H188v-2a5.31,5.31,0,0,1-4.72,2.35,5.76,5.76,0,0,1-6.12-6.07,5.91,5.91,0,0,1,1.67-4.37,6,6,0,0,1,4.45-1.7,5.31,5.31,0,0,1,4.72,2.35Zm-1.33,8.33a3.42,3.42,0,0,0,1.05-2.57,3.36,3.36,0,0,0-1.05-2.54,3.56,3.56,0,0,0-2.64-1,3.63,3.63,0,0,0-2.68,1,3.44,3.44,0,0,0-1,2.54,3.48,3.48,0,0,0,3.7,3.58A3.65,3.65,0,0,0,186.66,179.7Z"/>
  </g>
  <g id="Measurements">
    <g>
      <path class="cls-15" d="M137.69,162.67l1-.37v2.88h-.51V163l-.45.17Z"/>
      <path class="cls-15" d="M141,165.18h-.59l-.37-.57-.37.57h-.59l.64-1-.58-.88h.6l.3.48.3-.48h.6l-.58.88Z"/>
    </g>
    <g>
      <path class="cls-15" d="M43.89,120.54l1-.36v2.88h-.51v-2.21l-.45.17Z"/>
      <path class="cls-15" d="M47.22,123.06h-.59l-.37-.58-.37.58H45.3l.64-1-.57-.88H46l.3.49.31-.49h.59l-.58.88Z"/>
    </g>
    <g>
      <path class="cls-15" d="M203.37,175.2l1-.37v2.88h-.51v-2.2l-.45.17Z"/>
      <path class="cls-15" d="M206.7,177.71h-.59l-.37-.58-.37.58h-.59l.64-1-.58-.88h.59l.31.49.3-.49h.59l-.57.88Z"/>
    </g>
    <g>
      <path class="cls-15" d="M197.71,153l1-.36v2.88h-.51v-2.21l-.45.17Z"/>
      <path class="cls-15" d="M199.69,155.8h-.45l1.35-3.46H201Z"/>
      <path class="cls-15" d="M203.34,152.66l-.8,1a.85.85,0,0,1,.61.24.79.79,0,0,1,.25.63.89.89,0,0,1-.28.69,1,1,0,0,1-.73.27.89.89,0,0,1-.68-.25.93.93,0,0,1-.29-.55l.46-.12a.5.5,0,0,0,.51.44.52.52,0,0,0,.35-.14.45.45,0,0,0,.15-.34.38.38,0,0,0-.12-.29.5.5,0,0,0-.29-.12.93.93,0,0,0-.36,0l-.25-.37.52-.67h-.84v-.48Z"/>
      <path class="cls-15" d="M205.58,155.48H205l-.37-.58-.37.58h-.59l.64-1-.58-.88h.59l.31.49.3-.49h.59l-.57.88Z"/>
    </g>
    <g>
      <path class="cls-15" d="M128.73,77.32l1-.37v2.88h-.52v-2.2l-.44.17Z"/>
      <path class="cls-15" d="M130.62,77.4a1.12,1.12,0,0,1,.89-.41,1.14,1.14,0,0,1,.89.41,1.5,1.5,0,0,1,.36,1,1.52,1.52,0,0,1-.36,1,1.15,1.15,0,0,1-.89.42,1.13,1.13,0,0,1-.89-.42,1.52,1.52,0,0,1-.36-1A1.5,1.5,0,0,1,130.62,77.4Zm.37,1.71a.63.63,0,0,0,.52.27.64.64,0,0,0,.52-.27,1.18,1.18,0,0,0,0-1.37.66.66,0,0,0-.52-.28.64.64,0,0,0-.52.28,1.18,1.18,0,0,0,0,1.37Z"/>
      <path class="cls-15" d="M134.29,77.32l1-.37v2.88h-.51v-2.2l-.45.17Z"/>
      <path class="cls-15" d="M136.28,80.15h-.45l1.34-3.45h.45Z"/>
      <path class="cls-15" d="M139.93,77l-.81,1a1,1,0,0,1,.62.24.81.81,0,0,1,.25.64.9.9,0,0,1-.28.69,1,1,0,0,1-.74.27,1,1,0,0,1-.68-.25.91.91,0,0,1-.28-.55l.45-.12a.5.5,0,0,0,.17.31.52.52,0,0,0,.34.12.52.52,0,0,0,.36-.13.45.45,0,0,0,.15-.34.38.38,0,0,0-.12-.29.45.45,0,0,0-.29-.12.89.89,0,0,0-.36,0l-.26-.37.52-.67h-.84V77Z"/>
      <path class="cls-15" d="M142.17,79.83h-.6l-.36-.57-.37.57h-.59l.64-1-.58-.88h.59l.31.48.3-.48h.59l-.57.88Z"/>
    </g>
    <g>
      <path class="cls-15" d="M132.11,194l.64-.94a1,1,0,0,1-.75-.21.9.9,0,0,1-.3-.71,1,1,0,0,1,1.71-.71,1,1,0,0,1,.27.71,1.32,1.32,0,0,1-.18.63,12.79,12.79,0,0,1-.8,1.23Zm.93-2.23a.51.51,0,0,0-.7,0,.45.45,0,0,0-.13.34.47.47,0,0,0,.13.34.51.51,0,0,0,.7,0,.51.51,0,0,0,.13-.34A.49.49,0,0,0,133,191.8Z"/>
      <path class="cls-15" d="M135.86,194h-.6l-.36-.58-.37.58h-.59l.64-1-.58-.88h.59l.31.49.3-.49h.59l-.57.88Z"/>
    </g>
    <g>
      <path class="cls-15" d="M69.51,136.61l1-.37v2.88H70v-2.21l-.45.18Z"/>
      <path class="cls-15" d="M72.84,139.12h-.6l-.36-.58-.37.58h-.59l.64-1-.58-.88h.59l.31.49.3-.49h.59l-.57.88Z"/>
    </g>
  </g>
  <g>
    <g>
      <line class="cls-16" x1="136.21" y1="169.43" x2="136.21" y2="159.66"/>
      <polygon class="cls-15" points="137.45 160.38 134.96 160.39 136.2 158.22 137.45 160.38"/>
      <polygon class="cls-15" points="134.96 168.47 137.45 168.46 136.21 170.62 134.96 168.47"/>
    </g>
    <g>
      <line class="cls-16" x1="200.68" y1="181.29" x2="200.68" y2="172.27"/>
      <polygon class="cls-15" points="201.91 173.15 199.42 173.16 200.66 171.06 201.91 173.15"/>
      <polygon class="cls-15" points="199.43 180.46 201.92 180.45 200.68 182.55 199.43 180.46"/>
    </g>
    <g>
      <line class="cls-16" x1="66.14" y1="141.19" x2="75.43" y2="141.19"/>
      <polygon class="cls-15" points="74.62 142.42 74.61 139.93 76.78 141.17 74.62 142.42"/>
      <polygon class="cls-15" points="66.54 139.93 66.55 142.42 64.39 141.19 66.54 139.93"/>
      <polygon class="cls-15" points="66.54 139.93 66.55 142.42 64.39 141.19 66.54 139.93"/>
    </g>
    <g>
      <line class="cls-16" x1="191.86" y1="151.84" x2="194.53" y2="151.84"/>
      <polygon class="cls-15" points="194.43 152.58 194.41 151.07 195.17 151.84 194.43 152.58"/>
      <polygon class="cls-15" points="192.06 151.11 192.06 152.6 191.11 151.83 192.06 151.11"/>
    </g>
    <polygon class="cls-15" points="188.5 196.8 188.49 194.31 190.66 195.55 188.5 196.8"/>
    <polygon class="cls-15" points="192.97 83.47 192.96 80.97 195.12 82.21 192.97 83.47"/>
    <polygon class="cls-15" points="66.38 80.97 66.39 83.47 64.23 82.23 66.38 80.97"/>
    <polygon class="cls-15" points="79.37 194.63 79.38 197.12 77.22 195.88 79.37 194.63"/>
  </g>
</svg>
