<svg width="256" height="256" viewBox="0 0 256 256" fill="none" xmlns="http://www.w3.org/2000/svg">
<g clip-path="url(#clip0_2002_33738)">
<path fill-rule="evenodd" clip-rule="evenodd" d="M104.425 42.3784C100.056 37.0733 93.5437 34 86.6712 34H29C22.3726 34 17 39.3726 17 46V58.1371V68.2V160C17 166.627 22.3726 172 29 172H229C235.627 172 241 166.627 241 160V70.1371C241 63.5097 235.627 58.1371 229 58.1371H117.404L104.425 42.3784Z" fill="#E6E6E6"/>
<mask id="mask0_2002_33738" style="mask-type:alpha" maskUnits="userSpaceOnUse" x="17" y="34" width="224" height="138">
<path fill-rule="evenodd" clip-rule="evenodd" d="M104.425 42.3784C100.056 37.0733 93.5437 34 86.6712 34H29C22.3726 34 17 39.3726 17 46V58.1371V68.2V160C17 166.627 22.3726 172 29 172H229C235.627 172 241 166.627 241 160V70.1371C241 63.5097 235.627 58.1371 229 58.1371H117.404L104.425 42.3784Z" fill="url(#paint0_linear_2002_33738)"/>
</mask>
<g mask="url(#mask0_2002_33738)">
<g style="mix-blend-mode:multiply" filter="url(#filter0_f_2002_33738)">
<path fill-rule="evenodd" clip-rule="evenodd" d="M92.789 74C97.7642 74 102.605 72.3868 106.586 69.4024L116.459 62H229C235.627 62 241 67.3726 241 74V108V160C241 166.627 235.627 172 229 172H29C22.3726 172 17 166.627 17 160L17 108V86C17 79.3726 22.3726 74 29 74H87H92.789Z" fill="black" fill-opacity="0.3"/>
</g>
</g>
<g filter="url(#filter1_ii_2002_33738)">
<path fill-rule="evenodd" clip-rule="evenodd" d="M92.789 74C97.7642 74 102.605 72.3868 106.586 69.4024L116.459 62H229C235.627 62 241 67.3726 241 74V108V198C241 204.627 235.627 210 229 210H29C22.3726 210 17 204.627 17 198L17 108V86C17 79.3726 22.3726 74 29 74H87H92.789Z" fill="url(#paint1_linear_2002_33738)"/>
</g>
<path d="M130.79 106.647C130.79 98.0189 123.771 91 115.143 91C106.049 91 100.613 97.8178 100.613 104.412H109.554C109.554 102.557 111.289 99.9413 115.143 99.9413C118.84 99.9413 121.849 102.95 121.849 106.647C121.849 110.345 119.15 113.353 112.344 113.353H88V122.295H112.344C123.831 122.295 130.79 115.276 130.79 106.647ZM130.79 106.647C130.79 98.0189 123.771 91 115.143 91C106.049 91 100.613 97.8178 100.613 104.412H109.554C109.554 102.557 111.289 99.9413 115.143 99.9413C118.84 99.9413 121.849 102.95 121.849 106.647C121.849 110.345 119.15 113.353 112.344 113.353H88V122.295H112.344C123.831 122.295 130.79 115.276 130.79 106.647Z" fill="url(#paint2_linear_2002_33738)"/>
<path d="M150.628 164.354C150.628 172.983 143.609 180.002 134.981 180.002C125.888 180.002 120.451 173.184 120.451 166.59H129.392C129.392 168.445 131.127 171.061 134.981 171.061C138.678 171.061 141.687 168.052 141.687 164.354C141.687 160.657 138.287 157.648 132.182 157.648H105.168V148.707H132.182C143.668 148.707 150.628 155.726 150.628 164.354ZM150.628 164.354C150.628 172.983 143.609 180.002 134.981 180.002C125.888 180.002 120.451 173.184 120.451 166.59H129.392C129.392 168.445 131.127 171.061 134.981 171.061C138.678 171.061 141.687 168.052 141.687 164.354C141.687 160.657 138.287 157.648 132.182 157.648H105.168V148.707H132.182C143.668 148.707 150.628 155.726 150.628 164.354Z" fill="url(#paint3_linear_2002_33738)"/>
<path d="M152.97 104.795C143.108 104.795 136.151 112.295 136.151 122.157H144.07C144.07 117.255 147.63 113.695 152.97 113.695C158.31 113.695 160.98 117.255 160.98 122.157C160.98 127.059 157.512 131.098 148.075 131.098H88V140.04H149.41C163.386 140.04 169.88 131.057 169.88 122.157C169.88 112.295 163.205 104.795 152.97 104.795Z" fill="url(#paint4_linear_2002_33738)"/>
<path d="M99.7214 148.707H88V157.723H99.7214V148.707Z" fill="url(#paint5_linear_2002_33738)"/>
</g>
<defs>
<filter id="filter0_f_2002_33738" x="-20" y="25" width="298" height="184" filterUnits="userSpaceOnUse" color-interpolation-filters="sRGB">
<feFlood flood-opacity="0" result="BackgroundImageFix"/>
<feBlend mode="normal" in="SourceGraphic" in2="BackgroundImageFix" result="shape"/>
<feGaussianBlur stdDeviation="18.5" result="effect1_foregroundBlur_2002_33738"/>
</filter>
<filter id="filter1_ii_2002_33738" x="17" y="62" width="224" height="148" filterUnits="userSpaceOnUse" color-interpolation-filters="sRGB">
<feFlood flood-opacity="0" result="BackgroundImageFix"/>
<feBlend mode="normal" in="SourceGraphic" in2="BackgroundImageFix" result="shape"/>
<feColorMatrix in="SourceAlpha" type="matrix" values="0 0 0 0 0 0 0 0 0 0 0 0 0 0 0 0 0 0 127 0" result="hardAlpha"/>
<feOffset dy="-4"/>
<feComposite in2="hardAlpha" operator="arithmetic" k2="-1" k3="1"/>
<feColorMatrix type="matrix" values="0 0 0 0 0 0 0 0 0 0 0 0 0 0 0 0 0 0 0.25 0"/>
<feBlend mode="normal" in2="shape" result="effect1_innerShadow_2002_33738"/>
<feColorMatrix in="SourceAlpha" type="matrix" values="0 0 0 0 0 0 0 0 0 0 0 0 0 0 0 0 0 0 127 0" result="hardAlpha"/>
<feOffset dy="4"/>
<feComposite in2="hardAlpha" operator="arithmetic" k2="-1" k3="1"/>
<feColorMatrix type="matrix" values="0 0 0 0 1 0 0 0 0 1 0 0 0 0 1 0 0 0 0.25 0"/>
<feBlend mode="normal" in2="effect1_innerShadow_2002_33738" result="effect2_innerShadow_2002_33738"/>
</filter>
<linearGradient id="paint0_linear_2002_33738" x1="17" y1="34" x2="197.768" y2="215.142" gradientUnits="userSpaceOnUse">
<stop stop-color="#05815D"/>
<stop offset="1" stop-color="#0C575F"/>
</linearGradient>
<linearGradient id="paint1_linear_2002_33738" x1="17" y1="62" x2="241" y2="210" gradientUnits="userSpaceOnUse">
<stop stop-color="#5F585E"/>
<stop offset="1" stop-color="#010101"/>
</linearGradient>
<linearGradient id="paint2_linear_2002_33738" x1="95.12" y1="98.565" x2="146.74" y2="180" gradientUnits="userSpaceOnUse">
<stop offset="0.078" stop-color="#54C8F1"/>
<stop offset="0.573" stop-color="#41A2EF"/>
<stop offset="1" stop-color="#3386EE"/>
</linearGradient>
<linearGradient id="paint3_linear_2002_33738" x1="95.1216" y1="98.5667" x2="146.742" y2="180.002" gradientUnits="userSpaceOnUse">
<stop offset="0.078" stop-color="#54C8F1"/>
<stop offset="0.573" stop-color="#41A2EF"/>
<stop offset="1" stop-color="#3386EE"/>
</linearGradient>
<linearGradient id="paint4_linear_2002_33738" x1="95.12" y1="98.5649" x2="146.74" y2="180" gradientUnits="userSpaceOnUse">
<stop offset="0.078" stop-color="#54C8F1"/>
<stop offset="0.573" stop-color="#41A2EF"/>
<stop offset="1" stop-color="#3386EE"/>
</linearGradient>
<linearGradient id="paint5_linear_2002_33738" x1="95.12" y1="98.5666" x2="146.74" y2="180.002" gradientUnits="userSpaceOnUse">
<stop offset="0.078" stop-color="#54C8F1"/>
<stop offset="0.573" stop-color="#41A2EF"/>
<stop offset="1" stop-color="#3386EE"/>
</linearGradient>
<clipPath id="clip0_2002_33738">
<rect width="256" height="256" fill="white"/>
</clipPath>
</defs>
</svg>
