<svg width="256" height="256" viewBox="0 0 256 256" fill="none" xmlns="http://www.w3.org/2000/svg">
<path fill-rule="evenodd" clip-rule="evenodd" d="M104.425 42.3784C100.056 37.0733 93.5437 34 86.6712 34H29C22.3726 34 17 39.3726 17 46V58.1371V68.2V160C17 166.627 22.3726 172 29 172H229C235.627 172 241 166.627 241 160V70.1371C241 63.5097 235.627 58.1371 229 58.1371H117.404L104.425 42.3784Z" fill="#8F0A1C"/>
<mask id="mask0_641_15382" style="mask-type:alpha" maskUnits="userSpaceOnUse" x="17" y="34" width="224" height="138">
<path fill-rule="evenodd" clip-rule="evenodd" d="M104.425 42.3784C100.056 37.0733 93.5437 34 86.6712 34H29C22.3726 34 17 39.3726 17 46V58.1371V68.2V160C17 166.627 22.3726 172 29 172H229C235.627 172 241 166.627 241 160V70.1371C241 63.5097 235.627 58.1371 229 58.1371H117.404L104.425 42.3784Z" fill="url(#paint0_linear_641_15382)"/>
</mask>
<g mask="url(#mask0_641_15382)">
<g style="mix-blend-mode:multiply" filter="url(#filter0_f_641_15382)">
<path fill-rule="evenodd" clip-rule="evenodd" d="M92.789 74C97.7642 74 102.605 72.3868 106.586 69.4024L116.459 62H229C235.627 62 241 67.3726 241 74V108V160C241 166.627 235.627 172 229 172H29C22.3726 172 17 166.627 17 160L17 108V86C17 79.3726 22.3726 74 29 74H87H92.789Z" fill="black" fill-opacity="0.3"/>
</g>
</g>
<g filter="url(#filter1_ii_641_15382)">
<path fill-rule="evenodd" clip-rule="evenodd" d="M92.789 74C97.7642 74 102.605 72.3868 106.586 69.4024L116.459 62H229C235.627 62 241 67.3726 241 74V108V198C241 204.627 235.627 210 229 210H29C22.3726 210 17 204.627 17 198L17 108V86C17 79.3726 22.3726 74 29 74H87H92.789Z" fill="url(#paint1_linear_641_15382)"/>
</g>
<rect x="104.428" y="56" width="47.5429" height="156" rx="3.35901" fill="url(#paint2_linear_641_15382)"/>
<rect x="104.54" y="56.112" width="47.3189" height="155.776" rx="3.24704" stroke="#973E0F" stroke-opacity="0.3" stroke-width="0.223934"/>
<path d="M104.428 84.2286C104.428 71.9205 114.406 61.9429 126.714 61.9429H129.686C141.994 61.9429 151.971 71.9205 151.971 84.2286V165.943H104.428V84.2286Z" fill="url(#paint3_linear_641_15382)"/>
<path d="M126.714 62.4429H129.686C141.718 62.4429 151.471 72.1967 151.471 84.2286V165.443H104.928V84.2286C104.928 72.1967 114.682 62.4429 126.714 62.4429Z" stroke="#973E0F" stroke-opacity="0.3"/>
<g filter="url(#filter2_dd_641_15382)">
<path fill-rule="evenodd" clip-rule="evenodd" d="M104.429 119.886H101.457C98.9955 119.886 97 121.881 97 124.343V157.029C97 161.952 100.991 165.943 105.914 165.943H151.971C156.895 165.943 160.886 161.952 160.886 157.029V124.343C160.886 121.881 158.89 119.886 156.429 119.886H151.971V152.184C151.971 154.039 150.468 155.543 148.612 155.543H107.788C105.932 155.543 104.429 154.039 104.429 152.184V119.886Z" fill="url(#paint4_linear_641_15382)"/>
</g>
<rect x="102.943" y="90.1714" width="50.5143" height="14.8571" rx="3.35901" fill="url(#paint5_linear_641_15382)"/>
<g filter="url(#filter3_ddi_641_15382)">
<circle cx="128.943" cy="114.685" r="3.71429" fill="#8B4514"/>
</g>
<g filter="url(#filter4_ddi_641_15382)">
<circle cx="128.943" cy="142.171" r="3.71429" fill="#8B4514"/>
</g>
<g filter="url(#filter5_d_641_15382)">
<path d="M126.714 140.686C126.714 139.865 127.38 139.2 128.2 139.2H129.686C130.506 139.2 131.171 139.865 131.171 140.686V157.029C131.171 157.849 130.506 158.514 129.686 158.514H128.2C127.38 158.514 126.714 157.849 126.714 157.029V140.686Z" fill="url(#paint6_linear_641_15382)"/>
</g>
<path d="M28 92C28 88.5 29 82 29 82H35V108H29C29 108 28 101 28 98V95V92V92Z" fill="url(#paint7_linear_641_15382)"/>
<path d="M28 136C28 132.5 29 126 29 126H35V152H29C29 152 28 145 28 142V139V136V136Z" fill="url(#paint8_linear_641_15382)"/>
<path d="M28 182C28 178.5 29 172 29 172H35V198H29C29 198 28 191 28 188V185V182V182Z" fill="url(#paint9_linear_641_15382)"/>
<defs>
<filter id="filter0_f_641_15382" x="-20" y="25" width="298" height="184" filterUnits="userSpaceOnUse" color-interpolation-filters="sRGB">
<feFlood flood-opacity="0" result="BackgroundImageFix"/>
<feBlend mode="normal" in="SourceGraphic" in2="BackgroundImageFix" result="shape"/>
<feGaussianBlur stdDeviation="18.5" result="effect1_foregroundBlur_641_15382"/>
</filter>
<filter id="filter1_ii_641_15382" x="17" y="62" width="224" height="148" filterUnits="userSpaceOnUse" color-interpolation-filters="sRGB">
<feFlood flood-opacity="0" result="BackgroundImageFix"/>
<feBlend mode="normal" in="SourceGraphic" in2="BackgroundImageFix" result="shape"/>
<feColorMatrix in="SourceAlpha" type="matrix" values="0 0 0 0 0 0 0 0 0 0 0 0 0 0 0 0 0 0 127 0" result="hardAlpha"/>
<feOffset dy="4"/>
<feComposite in2="hardAlpha" operator="arithmetic" k2="-1" k3="1"/>
<feColorMatrix type="matrix" values="0 0 0 0 1 0 0 0 0 1 0 0 0 0 1 0 0 0 0.25 0"/>
<feBlend mode="normal" in2="shape" result="effect1_innerShadow_641_15382"/>
<feColorMatrix in="SourceAlpha" type="matrix" values="0 0 0 0 0 0 0 0 0 0 0 0 0 0 0 0 0 0 127 0" result="hardAlpha"/>
<feOffset dy="-4"/>
<feComposite in2="hardAlpha" operator="arithmetic" k2="-1" k3="1"/>
<feColorMatrix type="matrix" values="0 0 0 0 0 0 0 0 0 0 0 0 0 0 0 0 0 0 0.9 0"/>
<feBlend mode="soft-light" in2="effect1_innerShadow_641_15382" result="effect2_innerShadow_641_15382"/>
</filter>
<filter id="filter2_dd_641_15382" x="93" y="113.886" width="71.8857" height="60.0571" filterUnits="userSpaceOnUse" color-interpolation-filters="sRGB">
<feFlood flood-opacity="0" result="BackgroundImageFix"/>
<feColorMatrix in="SourceAlpha" type="matrix" values="0 0 0 0 0 0 0 0 0 0 0 0 0 0 0 0 0 0 127 0" result="hardAlpha"/>
<feOffset dy="-3"/>
<feGaussianBlur stdDeviation="1.5"/>
<feComposite in2="hardAlpha" operator="out"/>
<feColorMatrix type="matrix" values="0 0 0 0 0 0 0 0 0 0 0 0 0 0 0 0 0 0 0.25 0"/>
<feBlend mode="normal" in2="BackgroundImageFix" result="effect1_dropShadow_641_15382"/>
<feColorMatrix in="SourceAlpha" type="matrix" values="0 0 0 0 0 0 0 0 0 0 0 0 0 0 0 0 0 0 127 0" result="hardAlpha"/>
<feOffset dy="4"/>
<feGaussianBlur stdDeviation="2"/>
<feComposite in2="hardAlpha" operator="out"/>
<feColorMatrix type="matrix" values="0 0 0 0 0 0 0 0 0 0 0 0 0 0 0 0 0 0 0.25 0"/>
<feBlend mode="normal" in2="effect1_dropShadow_641_15382" result="effect2_dropShadow_641_15382"/>
<feBlend mode="normal" in="SourceGraphic" in2="effect2_dropShadow_641_15382" result="shape"/>
</filter>
<filter id="filter3_ddi_641_15382" x="123.743" y="108" width="10.3999" height="13.3716" filterUnits="userSpaceOnUse" color-interpolation-filters="sRGB">
<feFlood flood-opacity="0" result="BackgroundImageFix"/>
<feColorMatrix in="SourceAlpha" type="matrix" values="0 0 0 0 0 0 0 0 0 0 0 0 0 0 0 0 0 0 127 0" result="hardAlpha"/>
<feOffset dy="1.48571"/>
<feGaussianBlur stdDeviation="0.742857"/>
<feComposite in2="hardAlpha" operator="out"/>
<feColorMatrix type="matrix" values="0 0 0 0 1 0 0 0 0 0.827451 0 0 0 0 0.262745 0 0 0 1 0"/>
<feBlend mode="normal" in2="BackgroundImageFix" result="effect1_dropShadow_641_15382"/>
<feColorMatrix in="SourceAlpha" type="matrix" values="0 0 0 0 0 0 0 0 0 0 0 0 0 0 0 0 0 0 127 0" result="hardAlpha"/>
<feOffset dy="-1.48571"/>
<feGaussianBlur stdDeviation="0.742857"/>
<feComposite in2="hardAlpha" operator="out"/>
<feColorMatrix type="matrix" values="0 0 0 0 0.705882 0 0 0 0 0.254902 0 0 0 0 0.0823529 0 0 0 1 0"/>
<feBlend mode="normal" in2="effect1_dropShadow_641_15382" result="effect2_dropShadow_641_15382"/>
<feBlend mode="normal" in="SourceGraphic" in2="effect2_dropShadow_641_15382" result="shape"/>
<feColorMatrix in="SourceAlpha" type="matrix" values="0 0 0 0 0 0 0 0 0 0 0 0 0 0 0 0 0 0 127 0" result="hardAlpha"/>
<feOffset/>
<feGaussianBlur stdDeviation="2.78571"/>
<feComposite in2="hardAlpha" operator="arithmetic" k2="-1" k3="1"/>
<feColorMatrix type="matrix" values="0 0 0 0 0 0 0 0 0 0 0 0 0 0 0 0 0 0 0.5 0"/>
<feBlend mode="normal" in2="shape" result="effect3_innerShadow_641_15382"/>
</filter>
<filter id="filter4_ddi_641_15382" x="123.99" y="135.981" width="9.90466" height="12.3811" filterUnits="userSpaceOnUse" color-interpolation-filters="sRGB">
<feFlood flood-opacity="0" result="BackgroundImageFix"/>
<feColorMatrix in="SourceAlpha" type="matrix" values="0 0 0 0 0 0 0 0 0 0 0 0 0 0 0 0 0 0 127 0" result="hardAlpha"/>
<feOffset dy="1.2381"/>
<feGaussianBlur stdDeviation="0.619048"/>
<feComposite in2="hardAlpha" operator="out"/>
<feColorMatrix type="matrix" values="0 0 0 0 1 0 0 0 0 0.827451 0 0 0 0 0.262745 0 0 0 1 0"/>
<feBlend mode="normal" in2="BackgroundImageFix" result="effect1_dropShadow_641_15382"/>
<feColorMatrix in="SourceAlpha" type="matrix" values="0 0 0 0 0 0 0 0 0 0 0 0 0 0 0 0 0 0 127 0" result="hardAlpha"/>
<feOffset dy="-1.2381"/>
<feGaussianBlur stdDeviation="0.619048"/>
<feComposite in2="hardAlpha" operator="out"/>
<feColorMatrix type="matrix" values="0 0 0 0 0.705882 0 0 0 0 0.254902 0 0 0 0 0.0823529 0 0 0 1 0"/>
<feBlend mode="normal" in2="effect1_dropShadow_641_15382" result="effect2_dropShadow_641_15382"/>
<feBlend mode="normal" in="SourceGraphic" in2="effect2_dropShadow_641_15382" result="shape"/>
<feColorMatrix in="SourceAlpha" type="matrix" values="0 0 0 0 0 0 0 0 0 0 0 0 0 0 0 0 0 0 127 0" result="hardAlpha"/>
<feOffset/>
<feGaussianBlur stdDeviation="2.32143"/>
<feComposite in2="hardAlpha" operator="arithmetic" k2="-1" k3="1"/>
<feColorMatrix type="matrix" values="0 0 0 0 0 0 0 0 0 0 0 0 0 0 0 0 0 0 0.5 0"/>
<feBlend mode="normal" in2="shape" result="effect3_innerShadow_641_15382"/>
</filter>
<filter id="filter5_d_641_15382" x="122.257" y="134.743" width="16.3427" height="31.2002" filterUnits="userSpaceOnUse" color-interpolation-filters="sRGB">
<feFlood flood-opacity="0" result="BackgroundImageFix"/>
<feColorMatrix in="SourceAlpha" type="matrix" values="0 0 0 0 0 0 0 0 0 0 0 0 0 0 0 0 0 0 127 0" result="hardAlpha"/>
<feOffset dx="1.48571" dy="1.48571"/>
<feGaussianBlur stdDeviation="2.97143"/>
<feComposite in2="hardAlpha" operator="out"/>
<feColorMatrix type="matrix" values="0 0 0 0 0 0 0 0 0 0 0 0 0 0 0 0 0 0 1 0"/>
<feBlend mode="normal" in2="BackgroundImageFix" result="effect1_dropShadow_641_15382"/>
<feBlend mode="normal" in="SourceGraphic" in2="effect1_dropShadow_641_15382" result="shape"/>
</filter>
<linearGradient id="paint0_linear_641_15382" x1="17" y1="34" x2="197.768" y2="215.142" gradientUnits="userSpaceOnUse">
<stop stop-color="#05815D"/>
<stop offset="1" stop-color="#0C575F"/>
</linearGradient>
<linearGradient id="paint1_linear_641_15382" x1="129" y1="62" x2="129" y2="210" gradientUnits="userSpaceOnUse">
<stop stop-color="#EA3F71"/>
<stop offset="0.370213" stop-color="#880A1B"/>
<stop offset="0.370313" stop-color="#6669E5"/>
<stop offset="0.67751" stop-color="#252768"/>
<stop offset="0.677611" stop-color="#21B246"/>
<stop offset="1" stop-color="#0D4F1E"/>
</linearGradient>
<linearGradient id="paint2_linear_641_15382" x1="128.2" y1="56" x2="128.2" y2="212" gradientUnits="userSpaceOnUse">
<stop stop-color="#E3A729"/>
<stop offset="1" stop-color="#B34D13"/>
</linearGradient>
<linearGradient id="paint3_linear_641_15382" x1="24.9428" y1="64.9143" x2="24.9428" y2="168.914" gradientUnits="userSpaceOnUse">
<stop stop-color="#DDB159"/>
<stop offset="0.188018" stop-color="#DE9A26"/>
<stop offset="0.385939" stop-color="#7E4E17"/>
<stop offset="0.510941" stop-color="#D68120"/>
<stop offset="0.542191" stop-color="#DE9A26"/>
<stop offset="0.786988" stop-color="#B85314"/>
<stop offset="1" stop-color="#E17019"/>
</linearGradient>
<linearGradient id="paint4_linear_641_15382" x1="128.943" y1="119.886" x2="128.943" y2="165.943" gradientUnits="userSpaceOnUse">
<stop stop-color="#616D79"/>
<stop offset="0.302604" stop-color="#AEBBC4"/>
<stop offset="0.708861" stop-color="#DFE3E8"/>
<stop offset="1" stop-color="#FFFEFF"/>
</linearGradient>
<linearGradient id="paint5_linear_641_15382" x1="128.2" y1="90.1714" x2="128.2" y2="105.029" gradientUnits="userSpaceOnUse">
<stop stop-color="#E3A729"/>
<stop offset="1" stop-color="#B34D13"/>
</linearGradient>
<linearGradient id="paint6_linear_641_15382" x1="128.2" y1="148.114" x2="137.857" y2="148.114" gradientUnits="userSpaceOnUse">
<stop stop-color="#AEBBC4"/>
<stop offset="1" stop-color="#DDE2E7"/>
</linearGradient>
<linearGradient id="paint7_linear_641_15382" x1="31.5" y1="82" x2="31.5" y2="108" gradientUnits="userSpaceOnUse">
<stop stop-color="#FFFE6E"/>
<stop offset="1" stop-color="#AA5918"/>
</linearGradient>
<linearGradient id="paint8_linear_641_15382" x1="31.5" y1="126" x2="31.5" y2="152" gradientUnits="userSpaceOnUse">
<stop stop-color="#FFFE6E"/>
<stop offset="1" stop-color="#AA5918"/>
</linearGradient>
<linearGradient id="paint9_linear_641_15382" x1="31.5" y1="172" x2="31.5" y2="198" gradientUnits="userSpaceOnUse">
<stop stop-color="#FFFE6E"/>
<stop offset="1" stop-color="#AA5918"/>
</linearGradient>
</defs>
</svg>
