<svg width="256" height="256" viewBox="0 0 256 256" fill="none" xmlns="http://www.w3.org/2000/svg">
<path fill-rule="evenodd" clip-rule="evenodd" d="M104.425 42.3784C100.056 37.0733 93.5437 34 86.6712 34H29C22.3726 34 17 39.3726 17 46V58.1371V68.2V160C17 166.627 22.3726 172 29 172H229C235.627 172 241 166.627 241 160V70.1371C241 63.5097 235.627 58.1371 229 58.1371H117.404L104.425 42.3784Z" fill="#110029"/>
<mask id="mask0_758_21245" style="mask-type:alpha" maskUnits="userSpaceOnUse" x="17" y="34" width="224" height="138">
<path fill-rule="evenodd" clip-rule="evenodd" d="M104.425 42.3784C100.056 37.0733 93.5437 34 86.6712 34H29C22.3726 34 17 39.3726 17 46V58.1371V68.2V160C17 166.627 22.3726 172 29 172H229C235.627 172 241 166.627 241 160V70.1371C241 63.5097 235.627 58.1371 229 58.1371H117.404L104.425 42.3784Z" fill="url(#paint0_linear_758_21245)"/>
</mask>
<g mask="url(#mask0_758_21245)">
<g style="mix-blend-mode:multiply" filter="url(#filter0_f_758_21245)">
<path fill-rule="evenodd" clip-rule="evenodd" d="M92.789 74C97.7642 74 102.605 72.3868 106.586 69.4024L116.459 62H229C235.627 62 241 67.3726 241 74V108V160C241 166.627 235.627 172 229 172H29C22.3726 172 17 166.627 17 160L17 108V86C17 79.3726 22.3726 74 29 74H87H92.789Z" fill="black" fill-opacity="0.3"/>
</g>
</g>
<g filter="url(#filter1_ii_758_21245)">
<path fill-rule="evenodd" clip-rule="evenodd" d="M92.789 74C97.7642 74 102.605 72.3868 106.586 69.4024L116.459 62H229C235.627 62 241 67.3726 241 74V108V198C241 204.627 235.627 210 229 210H29C22.3726 210 17 204.627 17 198L17 108V86C17 79.3726 22.3726 74 29 74H87H92.789Z" fill="url(#paint1_linear_758_21245)"/>
</g>
<path fill-rule="evenodd" clip-rule="evenodd" d="M122.397 176.723L158.704 155.776C165.836 151.648 170.16 144.151 170.16 135.924C170.16 127.668 165.836 120.171 158.704 116.043L122.397 95.0958C115.265 90.9681 106.617 90.9681 99.4565 95.0958C92.3242 99.2235 88 106.721 88 114.976V156.871C88 165.126 92.3242 172.595 99.4565 176.723C106.617 180.851 115.265 180.851 122.397 176.723Z" fill="#37186B"/>
<path d="M157.89 154.371C164.517 150.524 168.532 143.588 168.532 135.923C168.532 128.229 164.517 121.293 157.89 117.446C145.773 110.49 133.677 103.497 121.584 96.4989C114.957 92.6801 106.926 92.6801 100.271 96.4989C93.6443 100.346 89.6289 107.281 89.6289 114.975V156.87C89.6289 164.536 93.6443 171.471 100.271 175.318C106.926 179.165 114.957 179.165 121.584 175.318C133.701 168.362 145.773 161.327 157.89 154.371Z" fill="#421B7B"/>
<path fill-rule="evenodd" clip-rule="evenodd" d="M157.078 118.878C144.981 111.877 132.869 104.903 120.771 97.9025C114.65 94.3645 107.237 94.3645 101.088 97.9025C94.9663 101.469 91.2598 107.871 91.2598 114.975V156.87C91.2598 163.946 94.9663 170.376 101.088 173.914C107.237 177.452 114.65 177.452 120.771 173.914C132.864 166.916 144.961 159.923 157.078 152.967C163.199 149.429 166.906 142.998 166.906 135.922C166.906 128.818 163.199 122.416 157.078 118.878Z" fill="#4B1C8B"/>
<path fill-rule="evenodd" clip-rule="evenodd" d="M119.955 172.51C114.34 175.739 107.544 175.739 101.9 172.51C96.2843 169.253 92.8867 163.356 92.8867 156.87V114.975C92.8867 108.46 96.2843 102.592 101.9 99.3345C107.544 96.0773 114.34 96.0773 119.955 99.3345C132.073 106.291 144.169 113.284 156.262 120.282C161.878 123.539 165.276 129.408 165.276 135.922C165.276 142.409 161.878 148.305 156.262 151.535C144.165 158.535 132.053 165.509 119.955 172.51Z" fill="#551E9A"/>
<path fill-rule="evenodd" clip-rule="evenodd" d="M155.448 121.687C143.323 114.726 131.258 107.695 119.141 100.739C114.031 97.7627 107.853 97.7627 102.715 100.739C97.6044 103.688 94.5156 109.051 94.5156 114.976V156.87C94.5156 162.795 97.6044 168.13 102.715 171.079C107.853 174.055 114.031 174.055 119.141 171.079C131.259 164.122 143.355 157.129 155.448 150.131C160.559 147.183 163.647 141.848 163.647 135.923C163.647 129.998 160.559 124.635 155.448 121.687Z" fill="#5F21AA"/>
<path fill-rule="evenodd" clip-rule="evenodd" d="M154.632 148.726C159.237 146.059 162.017 141.257 162.017 135.922C162.017 130.559 159.237 125.757 154.632 123.09C142.515 116.134 130.418 109.141 118.325 102.142C113.72 99.4747 108.161 99.4747 103.527 102.142C98.9224 104.81 96.1426 109.612 96.1426 114.975V156.869C96.1426 162.205 98.9224 167.006 103.527 169.674C108.161 172.342 113.72 172.342 118.325 169.674C130.443 162.717 142.515 155.683 154.632 148.726Z" fill="#6823BA"/>
<path fill-rule="evenodd" clip-rule="evenodd" d="M153.82 124.523C141.723 117.522 129.611 110.548 117.513 103.547C113.386 101.189 108.472 101.189 104.344 103.547C100.244 105.934 97.7734 110.202 97.7734 114.976V156.871C97.7734 161.616 100.244 165.884 104.344 168.271C108.472 170.658 113.386 170.658 117.513 168.271C129.606 161.273 141.703 154.28 153.82 147.323C157.92 144.937 160.391 140.669 160.391 135.923C160.391 131.15 157.92 126.881 153.82 124.523Z" fill="#7123CB"/>
<path fill-rule="evenodd" clip-rule="evenodd" d="M116.698 166.866C113.076 168.944 108.78 168.944 105.158 166.866C101.563 164.76 99.4014 161.026 99.4014 156.87V114.975C99.4014 110.791 101.563 107.057 105.158 104.979C108.78 102.873 113.076 102.873 116.698 104.979C128.816 111.935 140.912 118.928 153.005 125.926C156.599 128.004 158.762 131.739 158.762 135.923C158.762 140.078 156.599 143.813 153.005 145.891C140.908 152.892 128.796 159.866 116.698 166.866Z" fill="#7C27D9"/>
<path fill-rule="evenodd" clip-rule="evenodd" d="M152.19 144.487C155.279 142.69 157.132 139.517 157.132 135.923C157.132 132.328 155.279 129.127 152.19 127.33C140.065 120.369 128 113.339 115.883 106.383C112.767 104.586 109.088 104.586 105.971 106.383C102.854 108.18 101.029 111.381 101.029 114.975V156.87C101.029 160.464 102.854 163.637 105.971 165.434C109.088 167.231 112.767 167.231 115.883 165.434C128.001 158.478 140.097 151.485 152.19 144.487Z" fill="#8629E9"/>
<path fill-rule="evenodd" clip-rule="evenodd" d="M106.703 107.647C104.036 109.164 102.491 111.888 102.491 114.976V156.871C102.491 159.932 104.036 162.655 106.703 164.2C109.371 165.716 112.516 165.716 115.155 164.2C121.22 160.69 127.257 157.208 133.323 153.726C139.36 150.216 145.397 146.734 151.462 143.252C154.13 141.708 155.674 138.984 155.674 135.924C155.674 132.835 154.13 130.111 151.462 128.595C145.397 125.085 139.36 121.603 133.323 118.121C127.257 114.611 121.22 111.129 115.155 107.647C112.516 106.103 109.371 106.103 106.703 107.647Z" fill="#9335E5"/>
<path fill-rule="evenodd" clip-rule="evenodd" d="M114.45 162.935C126.546 155.958 138.632 148.964 150.729 141.987C152.947 140.695 154.239 138.477 154.239 135.922C154.239 133.339 152.947 131.12 150.729 129.829C138.632 122.852 126.522 115.9 114.45 108.881C112.232 107.618 109.648 107.618 107.43 108.881C105.212 110.173 103.92 112.391 103.92 114.975V156.869C103.92 159.425 105.212 161.643 107.43 162.935C109.648 164.226 112.232 164.226 114.45 162.935Z" fill="#9D43E4"/>
<path fill-rule="evenodd" clip-rule="evenodd" d="M113.722 110.146L150.001 131.093C151.77 132.104 152.781 133.873 152.781 135.923C152.781 137.945 151.77 139.714 150.001 140.724L113.722 161.672C111.953 162.711 109.932 162.711 108.163 161.672C106.394 160.661 105.383 158.892 105.383 156.87V114.975C105.383 112.926 106.394 111.157 108.163 110.146C109.932 109.135 111.953 109.135 113.722 110.146Z" fill="#B857E6"/>
<path d="M149.129 132.214C151.972 133.855 151.972 137.957 149.129 139.598L113.17 160.359C110.328 162.001 106.774 159.949 106.774 156.667V115.145C106.774 111.863 110.328 109.811 113.17 111.453L149.129 132.214Z" fill="url(#paint2_linear_758_21245)"/>
<path fill-rule="evenodd" clip-rule="evenodd" d="M112.953 111.291C110.182 109.691 106.718 111.692 106.718 114.892V135.907C106.718 136.643 106.121 137.239 105.385 137.239C104.649 137.239 104.053 136.643 104.053 135.907V114.892C104.053 109.64 109.737 106.358 114.285 108.984L127.47 116.596C128.107 116.964 128.326 117.779 127.958 118.416C127.59 119.053 126.775 119.272 126.138 118.904L112.953 111.291Z" fill="url(#paint3_linear_758_21245)"/>
<path fill-rule="evenodd" clip-rule="evenodd" d="M115.244 107.534C109.523 104.232 102.373 108.36 102.373 114.965V132.601C102.373 133.337 101.776 133.934 101.04 133.934C100.305 133.934 99.708 133.337 99.708 132.601V114.965C99.708 106.308 109.079 100.898 116.576 105.227L134.299 115.459C134.936 115.827 135.154 116.641 134.786 117.279C134.418 117.916 133.603 118.134 132.966 117.766L115.244 107.534Z" fill="url(#paint4_linear_758_21245)"/>
<path fill-rule="evenodd" clip-rule="evenodd" d="M117.56 103.282C108.642 98.1329 97.4939 104.569 97.4939 114.867V135.929C97.4939 136.665 96.8973 137.261 96.1615 137.261C95.4256 137.261 94.8291 136.665 94.8291 135.929V114.867C94.8291 102.518 108.198 94.7994 118.892 100.974L129.602 107.157C130.239 107.525 130.458 108.34 130.09 108.977C129.722 109.615 128.907 109.833 128.27 109.465L117.56 103.282Z" fill="url(#paint5_linear_758_21245)"/>
<path fill-rule="evenodd" clip-rule="evenodd" d="M120.181 99.1303C107.923 92.0531 92.6003 100.9 92.6003 115.054V135.92C92.6003 136.656 92.0038 137.253 91.2679 137.253C90.5321 137.253 89.9355 136.656 89.9355 135.92V115.054C89.9355 98.8482 107.479 88.7197 121.513 96.8225L134.932 104.57C135.569 104.937 135.787 105.752 135.419 106.39C135.051 107.027 134.236 107.245 133.599 106.877L120.181 99.1303Z" fill="url(#paint6_linear_758_21245)"/>
<path fill-rule="evenodd" clip-rule="evenodd" d="M106.742 156.936C106.742 160.136 110.207 162.136 112.978 160.536L131.178 150.028C131.815 149.66 132.63 149.879 132.998 150.516C133.366 151.153 133.147 151.968 132.51 152.336L114.31 162.843C109.763 165.469 104.078 162.187 104.078 156.936V141.711C104.078 140.975 104.674 140.379 105.41 140.379C106.146 140.379 106.742 140.975 106.742 141.711V156.936Z" fill="url(#paint7_linear_758_21245)"/>
<path fill-rule="evenodd" clip-rule="evenodd" d="M102.343 156.831C102.343 163.436 109.493 167.565 115.214 164.262L130.487 155.444C131.124 155.076 131.939 155.294 132.307 155.931C132.675 156.569 132.457 157.384 131.82 157.752L116.546 166.57C109.049 170.898 99.6782 165.487 99.6782 156.831V136.367C99.6782 135.631 100.275 135.034 101.011 135.034C101.747 135.034 102.343 135.631 102.343 136.367V156.831Z" fill="url(#paint8_linear_758_21245)"/>
<path fill-rule="evenodd" clip-rule="evenodd" d="M97.5027 156.95C97.5027 167.248 108.65 173.684 117.568 168.535L135.809 158.004C136.446 157.636 137.261 157.854 137.629 158.492C137.997 159.129 137.778 159.944 137.141 160.312L118.901 170.843C108.206 177.018 94.8379 169.299 94.8379 156.95V144.583C94.8379 143.847 95.4344 143.251 96.1703 143.251C96.9061 143.251 97.5027 143.847 97.5027 144.583V156.95Z" fill="url(#paint9_linear_758_21245)"/>
<path fill-rule="evenodd" clip-rule="evenodd" d="M92.5977 156.756C92.5977 170.91 107.92 179.757 120.178 172.679L138.249 162.247C138.886 161.879 139.701 162.097 140.069 162.734C140.437 163.372 140.219 164.186 139.581 164.554L121.511 174.987C107.476 183.09 89.9329 172.961 89.9329 156.756V141.262C89.9329 140.526 90.5294 139.93 91.2653 139.93C92.0011 139.93 92.5977 140.526 92.5977 141.262V156.756Z" fill="url(#paint10_linear_758_21245)"/>
<path fill-rule="evenodd" clip-rule="evenodd" d="M149.376 139.492C152.147 137.892 152.147 133.892 149.376 132.292L131.176 121.784C130.539 121.416 130.321 120.602 130.688 119.964C131.056 119.327 131.871 119.109 132.509 119.477L150.708 129.984C155.256 132.61 155.256 139.174 150.708 141.8L137.524 149.412C136.886 149.78 136.071 149.562 135.703 148.924C135.335 148.287 135.554 147.472 136.191 147.104L149.376 139.492Z" fill="url(#paint11_linear_758_21245)"/>
<path fill-rule="evenodd" clip-rule="evenodd" d="M151.486 143.354C157.206 140.051 157.206 131.795 151.486 128.492L136.212 119.674C135.575 119.306 135.357 118.491 135.725 117.854C136.093 117.217 136.908 116.998 137.545 117.366L152.818 126.184C160.315 130.513 160.315 141.334 152.818 145.662L135.096 155.894C134.458 156.262 133.643 156.043 133.275 155.406C132.907 154.769 133.126 153.954 133.763 153.586L151.486 143.354Z" fill="url(#paint12_linear_758_21245)"/>
<path fill-rule="evenodd" clip-rule="evenodd" d="M154.009 147.486C162.927 142.338 162.927 129.465 154.009 124.316L135.769 113.785C135.131 113.417 134.913 112.603 135.281 111.965C135.649 111.328 136.464 111.11 137.101 111.478L155.341 122.009C166.036 128.183 166.036 143.62 155.341 149.794L144.631 155.978C143.994 156.346 143.179 156.127 142.811 155.49C142.443 154.853 142.662 154.038 143.299 153.67L154.009 147.486Z" fill="url(#paint13_linear_758_21245)"/>
<path fill-rule="evenodd" clip-rule="evenodd" d="M156.294 151.831C168.551 144.754 168.551 127.061 156.294 119.984L138.223 109.551C137.586 109.183 137.367 108.368 137.735 107.731C138.103 107.094 138.918 106.875 139.555 107.243L157.626 117.676C171.66 125.779 171.66 146.036 157.626 154.139L144.208 161.886C143.571 162.254 142.756 162.036 142.388 161.399C142.02 160.761 142.238 159.946 142.876 159.578L156.294 151.831Z" fill="url(#paint14_linear_758_21245)"/>
<defs>
<filter id="filter0_f_758_21245" x="-20" y="25" width="298" height="184" filterUnits="userSpaceOnUse" color-interpolation-filters="sRGB">
<feFlood flood-opacity="0" result="BackgroundImageFix"/>
<feBlend mode="normal" in="SourceGraphic" in2="BackgroundImageFix" result="shape"/>
<feGaussianBlur stdDeviation="18.5" result="effect1_foregroundBlur_758_21245"/>
</filter>
<filter id="filter1_ii_758_21245" x="17" y="62" width="224" height="148" filterUnits="userSpaceOnUse" color-interpolation-filters="sRGB">
<feFlood flood-opacity="0" result="BackgroundImageFix"/>
<feBlend mode="normal" in="SourceGraphic" in2="BackgroundImageFix" result="shape"/>
<feColorMatrix in="SourceAlpha" type="matrix" values="0 0 0 0 0 0 0 0 0 0 0 0 0 0 0 0 0 0 127 0" result="hardAlpha"/>
<feOffset dy="4"/>
<feComposite in2="hardAlpha" operator="arithmetic" k2="-1" k3="1"/>
<feColorMatrix type="matrix" values="0 0 0 0 1 0 0 0 0 1 0 0 0 0 1 0 0 0 0.25 0"/>
<feBlend mode="normal" in2="shape" result="effect1_innerShadow_758_21245"/>
<feColorMatrix in="SourceAlpha" type="matrix" values="0 0 0 0 0 0 0 0 0 0 0 0 0 0 0 0 0 0 127 0" result="hardAlpha"/>
<feOffset dy="-4"/>
<feComposite in2="hardAlpha" operator="arithmetic" k2="-1" k3="1"/>
<feColorMatrix type="matrix" values="0 0 0 0 0 0 0 0 0 0 0 0 0 0 0 0 0 0 0.9 0"/>
<feBlend mode="soft-light" in2="effect1_innerShadow_758_21245" result="effect2_innerShadow_758_21245"/>
</filter>
<linearGradient id="paint0_linear_758_21245" x1="17" y1="34" x2="197.768" y2="215.142" gradientUnits="userSpaceOnUse">
<stop stop-color="#05815D"/>
<stop offset="1" stop-color="#0C575F"/>
</linearGradient>
<linearGradient id="paint1_linear_758_21245" x1="144.75" y1="62" x2="178.472" y2="218.478" gradientUnits="userSpaceOnUse">
<stop stop-color="#371B76"/>
<stop offset="1" stop-color="#330E47"/>
</linearGradient>
<linearGradient id="paint2_linear_758_21245" x1="138.025" y1="70.4056" x2="178.133" y2="197.357" gradientUnits="userSpaceOnUse">
<stop stop-color="#371B76"/>
<stop offset="1" stop-color="#330E47"/>
</linearGradient>
<linearGradient id="paint3_linear_758_21245" x1="129.87" y1="122.649" x2="94.0387" y2="134.796" gradientUnits="userSpaceOnUse">
<stop stop-color="#FDF01E"/>
<stop offset="0.266905" stop-color="#FD0AA3"/>
<stop offset="0.485794" stop-color="#9C30F7"/>
<stop offset="0.720858" stop-color="#7C2DC0" stop-opacity="0.01"/>
</linearGradient>
<linearGradient id="paint4_linear_758_21245" x1="133.998" y1="120.377" x2="89.9532" y2="141.641" gradientUnits="userSpaceOnUse">
<stop stop-color="#FDF01E"/>
<stop offset="0.266905" stop-color="#FD0AA3"/>
<stop offset="0.485794" stop-color="#9C30F7"/>
<stop offset="1" stop-color="#7C2DC0" stop-opacity="0.01"/>
</linearGradient>
<linearGradient id="paint5_linear_758_21245" x1="133.447" y1="113.344" x2="89.9601" y2="134.891" gradientUnits="userSpaceOnUse">
<stop stop-color="#FDF01E"/>
<stop offset="0.32902" stop-color="#FB0BB8"/>
<stop offset="0.627605" stop-color="#7709D6"/>
<stop offset="1" stop-color="#7C2DC0" stop-opacity="0.01"/>
</linearGradient>
<linearGradient id="paint6_linear_758_21245" x1="135.981" y1="106.978" x2="83.5086" y2="133.231" gradientUnits="userSpaceOnUse">
<stop stop-color="#FEF005"/>
<stop offset="0.253579" stop-color="#FF1794"/>
<stop offset="0.581545" stop-color="#6D00D0"/>
<stop offset="1" stop-color="#501982" stop-opacity="0"/>
</linearGradient>
<linearGradient id="paint7_linear_758_21245" x1="108.12" y1="136.606" x2="136.555" y2="161.564" gradientUnits="userSpaceOnUse">
<stop stop-color="#FDF01E"/>
<stop offset="0.266905" stop-color="#FD0AA3"/>
<stop offset="0.485794" stop-color="#9C30F7"/>
<stop offset="0.720858" stop-color="#7C2DC0" stop-opacity="0.01"/>
</linearGradient>
<linearGradient id="paint8_linear_758_21245" x1="104.088" y1="134.167" x2="144.526" y2="161.68" gradientUnits="userSpaceOnUse">
<stop stop-color="#FDF01E"/>
<stop offset="0.266905" stop-color="#FD0AA3"/>
<stop offset="0.485794" stop-color="#9C30F7"/>
<stop offset="1" stop-color="#7C2DC0" stop-opacity="0.01"/>
</linearGradient>
<linearGradient id="paint9_linear_758_21245" x1="98.2733" y1="138.16" x2="138.677" y2="165.047" gradientUnits="userSpaceOnUse">
<stop stop-color="#FDF01E"/>
<stop offset="0.32902" stop-color="#FB0BB8"/>
<stop offset="0.627605" stop-color="#7709D6"/>
<stop offset="1" stop-color="#7C2DC0" stop-opacity="0.01"/>
</linearGradient>
<linearGradient id="paint10_linear_758_21245" x1="91.4945" y1="139.149" x2="140.466" y2="171.465" gradientUnits="userSpaceOnUse">
<stop stop-color="#FEF005"/>
<stop offset="0.253579" stop-color="#FF1794"/>
<stop offset="0.581545" stop-color="#6D00D0"/>
<stop offset="1" stop-color="#501982" stop-opacity="0"/>
</linearGradient>
<linearGradient id="paint11_linear_758_21245" x1="131.081" y1="148.464" x2="138.477" y2="111.359" gradientUnits="userSpaceOnUse">
<stop stop-color="#FDF01E"/>
<stop offset="0.266905" stop-color="#FD0AA3"/>
<stop offset="0.485794" stop-color="#9C30F7"/>
<stop offset="0.720858" stop-color="#7C2DC0" stop-opacity="0.01"/>
</linearGradient>
<linearGradient id="paint12_linear_758_21245" x1="130.986" y1="153.175" x2="134.593" y2="104.398" gradientUnits="userSpaceOnUse">
<stop stop-color="#FDF01E"/>
<stop offset="0.266905" stop-color="#FD0AA3"/>
<stop offset="0.485794" stop-color="#9C30F7"/>
<stop offset="1" stop-color="#7C2DC0" stop-opacity="0.01"/>
</linearGradient>
<linearGradient id="paint13_linear_758_21245" x1="137.351" y1="156.214" x2="140.434" y2="107.78" gradientUnits="userSpaceOnUse">
<stop stop-color="#FDF01E"/>
<stop offset="0.32902" stop-color="#FB0BB8"/>
<stop offset="0.627605" stop-color="#7709D6"/>
<stop offset="1" stop-color="#7C2DC0" stop-opacity="0.01"/>
</linearGradient>
<linearGradient id="paint14_linear_758_21245" x1="141.597" y1="161.59" x2="145.098" y2="103.022" gradientUnits="userSpaceOnUse">
<stop stop-color="#FEF005"/>
<stop offset="0.253579" stop-color="#FF1794"/>
<stop offset="0.581545" stop-color="#6D00D0"/>
<stop offset="1" stop-color="#501982" stop-opacity="0"/>
</linearGradient>
</defs>
</svg>
