<svg xmlns="http://www.w3.org/2000/svg" xmlns:xlink="http://www.w3.org/1999/xlink" fill="none" version="1.1" width="256" height="256" viewBox="0 0 256 256"><defs><clipPath id="master_svg0_18_0024"><rect x="0" y="0" width="256" height="256" rx="0"/></clipPath><linearGradient x1="-4.464285652261424e-8" y1="-3.3306690738754696e-16" x2="1.2066010339670339" y2="0.5267337057816883" id="master_svg1_7_2917"><stop offset="0%" stop-color="#FFE7A2" stop-opacity="1"/><stop offset="95.3125%" stop-color="#FFCB3D" stop-opacity="1"/><stop offset="100%" stop-color="#FFCB3D" stop-opacity="1"/></linearGradient><linearGradient x1="-0.00033294642344117165" y1="0.41766124963760376" x2="0.9998690075402725" y2="0.4184586076996766" id="master_svg2_7_4013"><stop offset="0%" stop-color="#FFCF4E" stop-opacity="1"/><stop offset="100%" stop-color="#FFB504" stop-opacity="1"/></linearGradient><linearGradient x1="-5.134781488891349e-16" y1="0.5000002980232239" x2="1" y2="0.5000002980232239" id="master_svg3_7_4010"><stop offset="0%" stop-color="#FFECB5" stop-opacity="1"/><stop offset="100%" stop-color="#FFDE82" stop-opacity="1"/></linearGradient><clipPath id="master_svg4_18_0080"><rect x="30" y="89" width="111.08904266357422" height="47.83000183105469" rx="0"/></clipPath></defs><g clip-path="url(#master_svg0_18_0024)"><path d="M28.999996185302734,34C22.373031585302734,34,16.999996185302734,39.3720322,16.999996185302734,46L16.999996185302734,58.136719L16.999996185302734,68.201172L16.999996185302734,160C16.999996185302734,166.62695,22.373031585302734,172,28.999996185302734,172L229.00001618530274,172C235.62696618530273,172,241.00001618530274,166.62695,241.00001618530274,160L241.00001618530274,70.136719C241.00001618530274,63.508755,235.62696618530273,58.136719,229.00001618530274,58.136719L117.40429618530274,58.136719L104.42577718530274,42.3789062C100.05680418530274,37.0739326,93.54484218530274,34,86.67187118530273,34L28.999996185302734,34Z" fill="#FCBC19" fill-opacity="1" style="mix-blend-mode:passthrough"/><path d="M92.78906203515625,74C97.76425903515624,74,102.60506403515625,72.386803,106.58606003515625,69.4023972L116.45906103515625,62L229.00006103515625,62C235.62706103515626,62,241.00006103515625,67.3725967,241.00006103515625,74L241.00006103515625,108L241.00006103515625,198C241.00006103515625,204.627,235.62706103515626,210,229.00006103515625,210L29.00006103515625,210C22.37266163515625,210,17.00006103515625,204.627,17.00006103515625,198L17.00006103515625,108L17.00006103515625,86C17.00006103515625,79.372597,22.37266163515625,74,29.00006103515625,74L87.00006103515625,74L92.78906203515625,74Z" fill-rule="evenodd" fill="url(#master_svg1_7_2917)" fill-opacity="1" style="mix-blend-mode:passthrough"/><path d="M229,205.99998474121094L29,205.99998474121094C22.3719997,205.99998474121094,17,200.62797544121094,17,193.99998474121094L17,197.99998474121094C17,204.62698374121095,22.3719997,209.99998474121094,29,209.99998474121094L229,209.99998474121094C235.627,209.99998474121094,241,204.62698374121095,241,197.99998474121094L241,193.99998474121094C241,200.62797544121094,235.627,205.99998474121094,229,205.99998474121094Z" fill="url(#master_svg2_7_4013)" fill-opacity="1" style="mix-blend-mode:passthrough"/><path d="M116.458992,61.99998855590824L106.585991,69.40198514121094C102.604988,72.38698574121094,97.764,73.99998474121094,92.789001,73.99998474121094L87,73.99998474121094L29,73.99998474121094C22.3719997,73.99998474121094,17,79.37198674121093,17,85.99998474121094L17,89.99998474121094C17,83.37298574121094,22.3719997,77.99998474121094,29,77.99998474121094L87,77.99998474121094L92.789001,77.99998474121094C97.764,77.99998474121094,102.604996,76.38698574121094,106.585991,73.40298474121094L116.458992,65.99998474121094L229,65.99998474121094C235.627,65.99998474121094,241,71.37198634121094,241,77.99998474121094L241,73.99998474121094C241,67.37298584121093,235.627,61.99998474121094,229,61.99998474121094L116.458992,61.99998855590824Z" fill="url(#master_svg3_7_4010)" fill-opacity="1" style="mix-blend-mode:passthrough"/><g clip-path="url(#master_svg4_18_0080)"><path d="M54.9978261125,99.951532140625C54.9978261125,100.776985140625,55.131543612499996,101.538255140625,55.3989296125,102.235338140625C55.6663151125,102.932422140625,56.0280743125,103.537754140625,56.4842071125,104.051387140625C56.9403930125,104.565019140625,57.4672952125,104.968591140625,58.0650143125,105.262052140625C58.6784229125,105.537254140625,59.3233557125,105.67482914062501,59.9997139125,105.67482914062501C60.676018812500004,105.67482914062501,61.3130848125,105.537254140625,61.9108058125,105.262052140625C62.5242118125,104.968591140625,63.0589838125,104.565019140625,63.5151658125,104.051387140625C63.9870388125,103.537754140625,64.3566648125,102.932422140625,64.6240528125,102.235338140625C64.8914368125,101.538255140625,65.0251558125,100.776985140625,65.0251558125,99.951532140625C65.0251558125,99.126079140625,64.8914368125,98.364810940625,64.6240528125,97.667726540625C64.3566648125,96.970642540625,63.9870388125,96.365310240625,63.5151658125,95.851677440625C63.0589838125,95.338045140625,62.5242118125,94.943678840625,61.9108058125,94.668476540625C61.3130848125,94.375016240625,60.676018812500004,94.228234740625,59.9997139125,94.228234740625C59.3233557125,94.228234740625,58.6784229125,94.375016240625,58.0650143125,94.668476540625C57.4672952125,94.943678840625,56.9403930125,95.338045140625,56.4842071125,95.851677440625C56.0280743125,96.365310240625,55.6663151125,96.970642540625,55.3989296125,97.667726540625C55.131543612499996,98.364810940625,54.9978261125,99.126079140625,54.9978261125,99.951532140625ZM50.1611328125,99.951532140625C50.1611328125,98.410635040625,50.4049110425,96.979848840625,50.8925204825,95.659071940625C51.3801299125,94.319985840625,52.0564861125,93.155129940625,52.9215932125,92.164560540625C53.7866983125,91.173990940625,54.8169465125,90.403552340625,56.0123362125,89.853234770625C57.2235150125,89.284574600625,58.5526237125,89.000244140625,59.9997139125,89.000244140625C61.4310658125,89.000244140625,62.7523048125,89.284574600625,63.9634328125,89.853234770625C65.1745588125,90.403552340625,66.2126768125,91.173990940625,67.0777818125,92.164560540625C67.9586258125,93.155129940625,68.6428508125,94.319985840625,69.1304628125,95.659071940625C69.6180688125,96.979848840625,69.8618468125,98.410635040625,69.8618468125,99.951532140625C69.8618468125,101.492431140625,69.6180688125,102.932422140625,69.1304628125,104.271507140625C68.6428508125,105.592283140625,67.9586258125,106.747919140625,67.0777818125,107.738514140625C66.2126768125,108.729059140625,65.1745588125,109.508688140625,63.9634328125,110.077349140625C62.7523048125,110.627651140625,61.4310658125,110.902803140625,59.9997139125,110.902803140625C58.5526237125,110.902803140625,57.2235150125,110.627651140625,56.0123362125,110.077349140625C54.8169465125,109.508688140625,53.7866983125,108.729059140625,52.9215932125,107.738514140625C52.0564861125,106.747919140625,51.3801299125,105.592283140625,50.8925204825,104.271507140625C50.4049110425,102.932422140625,50.1611328125,101.492431140625,50.1611328125,99.951532140625Z" fill="#B18412" fill-opacity="1" style="mix-blend-mode:passthrough"/><path d="M56.27223775625,114.495361328125L56.27223775625,126.082513328125C56.27223775625,126.704253328125,56.29106045625,127.344865328125,56.32865615625,128.004304328125C56.38512565625,128.644865328125,56.52625135625,129.228955328125,56.75202895625,129.756475328125C56.996578256250004,130.284047328125,57.37289285625,130.717344328125,57.88086895625,131.056526328125C58.388895956249996,131.376779328125,59.10382465625,131.536934328125,60.02576065625,131.536934328125C60.94769765625,131.536934328125,61.65321665625,131.376779328125,62.14241865625,131.056526328125C62.65039465625,130.717344328125,63.02670665625,130.284047328125,63.27130865625,129.756475328125C63.51586065625,129.228955328125,63.65698465625,128.644865328125,63.69463365625,128.004304328125C63.751049656250004,127.344865328125,63.779285656249996,126.704253328125,63.779285656249996,126.082513328125L63.779285656249996,114.495361328125L69.28256465625,114.495361328125L69.28256465625,126.845584328125C69.28256465625,130.161538328125,68.52057665625,132.582613328125,66.99659965625,134.108749328125C65.49144565625,135.634836328125,63.167830656250004,136.397901328125,60.02576065625,136.397901328125C56.88369035625,136.397901328125,54.55071685625,135.634836328125,53.02668905625,134.108749328125C51.50271206625,132.582613328125,50.74072265625,130.161538328125,50.74072265625,126.845584328125L50.74072265625,114.495361328125L56.27223775625,114.495361328125Z" fill="#B18412" fill-opacity="1" style="mix-blend-mode:passthrough"/><path d="M126.9154489296875,128.338080390625L115.5936279296875,136.398103390625L115.5936279296875,129.539742390625L121.5435776296875,125.436496390625L115.5936279296875,121.362510190625L115.5936279296875,114.504150390625L126.9154489296875,122.593490590625L130.3957229296875,125.465810390625L126.9154489296875,128.338080390625Z" fill="#B18412" fill-opacity="1" style="mix-blend-mode:passthrough"/><rect x="130.2584228515625" y="130.3720703125" width="10.830667495727539" height="5.861850261688232" rx="0" fill="#B18412" fill-opacity="1" style="mix-blend-mode:passthrough"/><path d="M40.1451454640625,114.342041015625C43.8326846640625,114.342041015625,46.822058664062496,117.027876615625,46.822058664062496,120.715414515625C46.822058664062496,121.922326515625,46.501751664062496,123.054352715625,45.9416266640625,124.031321515625C47.4124776640625,125.337799015625,48.3395046640625,127.243027015625,48.3395046640625,129.365033015625C48.3395046640625,133.304016015625,45.1463636640625,136.193668015625,41.2073821640625,136.193668015625L31.9508056640625,136.193668015625L31.9508056640625,114.342041015625L40.1451454640625,114.342041015625ZM36.5032243640625,131.641230015625L40.7625121640625,131.641230015625C41.4336242640625,131.641230015625,42.0748036640625,131.363455015625,42.5338176640625,130.873838015625C43.4093626640625,129.939922015625,43.4093626640625,128.486607015625,42.5338176640625,127.552690015625C42.0748036640625,127.063125015625,41.4336242640625,126.785299015625,40.7625121640625,126.785299015625L36.5032243640625,126.785299015625L36.5032243640625,131.641230015625ZM36.5032243640625,122.839888615625L40.0162610640625,122.839888615625C40.4909095640625,122.839888615625,40.9496145640625,122.668783215625,41.308237064062496,122.357939715625C42.2158756640625,121.571316215625,42.2158756640625,120.163005315625,41.308237064062496,119.376433415625C40.9496145640625,119.065589415625,40.4909095640625,118.894480215625,40.0162610640625,118.894480215625L36.5032243640625,118.894480215625L36.5032243640625,122.839888615625Z" fill-rule="evenodd" fill="#B18412" fill-opacity="1" style="mix-blend-mode:passthrough"/><path d="M72.9229736328125,114.493896484375L72.9229736328125,136.042030484375L80.6620731328125,136.042030484375C86.61227763281249,136.042030484375,91.43591163281249,131.218351484375,91.43591163281249,125.267989484375C91.43591163281249,119.317629384375,86.61227763281249,114.493896484375,80.6620731328125,114.493896484375L72.9229736328125,114.493896484375ZM86.2769576328125,125.267989484375C86.2769576328125,128.368867484375,83.7630526328125,130.882614484375,80.6620731328125,130.882614484375L78.0823903328125,130.882614484375L78.0823903328125,119.653313184375L80.6620731328125,119.653313184375C83.7630526328125,119.653313184375,86.2769576328125,122.167115184375,86.2769576328125,125.267989484375Z" fill="#B18412" fill-opacity="1" style="mix-blend-mode:passthrough"/><path d="M94.167236328125,114.493896484375L94.167236328125,136.042030484375L101.90643782812501,136.042030484375C107.856906328125,136.042030484375,112.68053432812499,131.218351484375,112.68053432812499,125.267989484375C112.68053432812499,119.317629384375,107.856906328125,114.493896484375,101.90643782812501,114.493896484375L94.167236328125,114.493896484375ZM107.521066328125,125.267989484375C107.521066328125,128.368867484375,105.007163328125,130.882614484375,101.90643782812501,130.882614484375L99.326707828125,130.882614484375L99.326707828125,119.653313184375L101.90643782812501,119.653313184375C105.007163328125,119.653313184375,107.521066328125,122.167115184375,107.521066328125,125.267989484375Z" fill="#B18412" fill-opacity="1" style="mix-blend-mode:passthrough"/><path d="M99.3663444375,98.0408993L105.6541889375,89L112.0202119375,89L104.1544866375,99.378134L112.75720393750001,110.919104L106.0748919375,110.919104L99.3663444375,101.41306900000001L99.3663444375,110.919104L94.2099609375,110.919104L94.2099609375,89L99.3663444375,89L99.3663444375,98.0408993Z" fill="#B18412" fill-opacity="1" style="mix-blend-mode:passthrough"/><path d="M78.65079644375,98.816534059375L79.74527934375,98.816534059375C80.88903334375,98.816534059375,81.76643184375,98.587926859375,82.37793734375,98.130765959375C82.98943934375,97.673551559375,83.29493434375,97.016378359375,83.29493434375,96.159192559375C83.29493434375,95.301955659375,82.98943934375,94.644781159375,82.37793734375,94.187619159375C81.76643184375,93.730436359375,80.88903334375,93.501850159375,79.74527934375,93.501850159375L78.65079644375,93.501850159375L78.65079644375,98.816534059375ZM91.39980734375,110.731658859375L84.18210334375,110.731658859375L78.65079644375,102.445340859375L78.65079644375,110.731658859375L72.85302734375,110.731658859375L72.85302734375,89.187255859375L81.87494854375,89.187255859375C83.11750034375,89.187255859375,84.20216134374999,89.368220939375,85.12893434375,89.730150639375C86.05570534375,90.073035119375,86.81481234375,90.549257359375,87.40677334375,91.158822559375C88.01776134375,91.768392759375,88.47137634375,92.473201259375,88.76709834375,93.273258159375C89.08287834375,94.073315659375,89.24076834375,94.930527259375,89.24076834375,95.844851959375C89.24076834375,97.483106659375,88.82624134375,98.816534059375,87.99822034375,99.845136859375C87.18973634375,100.854760859375,85.98678734375,101.540529859375,84.38936734375,101.902443859375L91.39980734375,110.731658859375Z" fill="#B18412" fill-opacity="1" style="mix-blend-mode:passthrough"/><path d="M34.0047159234375,90.1240234375L35.9811392234375,103.0712564375L38.4136295234375,90.1240234375L40.785328823437496,90.1240234375L43.2178705234375,103.0712564375L45.194278523437504,90.1240234375L48.3109415234375,90.1240234375L44.8902235234375,110.1696914375L41.8495725234375,110.1696914375L39.5995044234375,98.5516815375L37.3494372234375,110.1696914375L34.3087811234375,110.1696914375L30.8880615234375,90.1240234375L34.0047159234375,90.1240234375Z" fill="#B18412" fill-opacity="1" style="mix-blend-mode:passthrough"/><path d="M34.6484647,89.374755859375L36.0575414,98.606036159375L37.7919707,89.374755859375L41.406993,89.374755859375L43.141318999999996,98.606036159375L44.550658999999996,89.374755859375L49.199015,89.374755859375L45.522534,110.919124859375L41.231411,110.919124859375L39.5995331,102.492918859375L37.9675527,110.919124859375L33.6764402,110.919124859375L30,89.374755859375L34.6484647,89.374755859375ZM34.9411941,109.420346859375L36.7313786,109.420346859375L38.8638773,98.409317059375L40.33524,98.409317059375L42.467739,109.420346859375L44.257918000000004,109.420346859375L47.422928,90.873446659375L45.837903,90.873446659375L43.958698,103.184447859375L42.481368,103.20969985937501L40.163618,90.873446659375L39.0353441,90.873446659375L36.7175956,103.20969985937501L35.2404199,103.184447859375L33.3610761,90.873446659375L31.776067,90.873446659375L34.9411941,109.420346859375Z" fill="#B18412" fill-opacity="1" style="mix-blend-mode:passthrough"/></g><g><path d="M241.00002999999998,131.623188C240.82587,131.530815,240.65800000000002,131.44393,240.49793,131.363461L238.31314,130.282909L236.766502,127.432699C232.762589,120.092332,226.322105,111.4978862,221.697464,107.31688C219.71785699999998,105.52385461,218.55515300000002,104.916807137,217.28537,105.0089789797C216.501427,105.055792343,216.43656900000002,105.092635401,215.367889,106.0462402C212.262077,108.7858739,207.906387,117.021075,203.653145,128.190929L202.46455400000002,131.294603L200.305374,131.984524C193.570057,134.13343,187.587616,136.845932,182.28803299999998,140.144794C177.203438,143.298901,174.444515,145.35075799999998,170.292908,149.009346L167.79121800000001,151.210579L166.653856,151.014038C155.69736699999999,149.089325,145.8481264,148.378262,141.3326483,149.167126C139.5394709,149.496765,138.0515305,150.094513,137.59783989,150.673283C136.85240299,151.632389,136.81575002,152.930088,137.42263362,155.851593C138.572417,161.179272,141.5521879,168.15245099999999,146.2432928,176.456673L149.272357,181.787331L149.177695,183.795273C149.058943,185.944191,149.17780199999999,189.27339899999998,149.437699,191.52344499999998C149.595118,192.897568,149.571742,192.93282299999998,148.851908,193.74906900000002C146.0620832,196.922951,145.6448536,202.239517,147.739292,208.12889C147.933469,208.66845999999998,148.214438,209.30851,148.553112,210L172.765457,210C171.755402,208.46667,170.581772,206.44558999999998,168.89805,203.544266C166.122782,198.762283,164.736639,196.369659,163.984577,194.151344C160.939817,185.16725200000002,163.61100199999998,175.241386,170.76322199999998,168.97575C172.52948,167.42865,174.933628,166.04855,179.740555,163.287243L207.394386,147.403431C212.20131700000002,144.642406,214.604919,143.26094799999998,216.834679,142.513016C225.337967,139.660378,234.68015300000002,141.853691,241.00002999999998,148.060566L241.00002999999998,131.623188ZM241.00002999999998,196.138077C239.88506999999998,196.796638,238.577,197.54787399999998,237.01529,198.44484699999998L216.89801799999998,210L229,210L229.038681,209.99993999999998L230.600037,209.99993999999998C236.34343,209.99993999999998,241.00002999999998,205.36171000000002,241.00002999999998,199.640968L241.00002999999998,196.138077ZM222.751968,184.317719L212.348442,166.39082C212.088959,165.94368,212.242546,165.370979,212.691025,165.11338L220.52569599999998,160.613251C220.97515900000002,160.35509100000002,221.548935,160.508705,221.80899,160.956821L232.212509,178.88371999999998C232.47199999999998,179.33085599999998,232.31842,179.903557,231.86992600000002,180.161163L224.035263,184.66128500000002C223.5858,184.919449,223.012024,184.765839,222.751968,184.317719ZM193.278015,201.244812L182.874504,183.317917C182.615017,182.870781,182.7686,182.29808,183.217079,182.040482L191.051746,177.54035199999998C191.501213,177.28218099999998,192.07498900000002,177.435799,192.335045,177.883911L202.738564,195.810822C202.99804699999999,196.25795,202.844467,196.83065,202.395981,197.088257L194.561314,201.588379C194.111855,201.846542,193.53807799999998,201.69294,193.278015,201.244812Z" fill-rule="evenodd" fill="#B18412" fill-opacity="1" style="mix-blend-mode:passthrough"/></g></g></svg>