<svg width="256" height="256" viewBox="0 0 256 256" fill="none" xmlns="http://www.w3.org/2000/svg">
<path fill-rule="evenodd" clip-rule="evenodd" d="M104.425 42.3784C100.056 37.0733 93.5437 34 86.6712 34H29C22.3726 34 17 39.3726 17 46V58.1371V68.2V160C17 166.627 22.3726 172 29 172H229C235.627 172 241 166.627 241 160V70.1371C241 63.5097 235.627 58.1371 229 58.1371H117.404L104.425 42.3784Z" fill="url(#paint0_linear_841_20934)"/>
<mask id="mask0_841_20934" style="mask-type:alpha" maskUnits="userSpaceOnUse" x="17" y="34" width="224" height="138">
<path fill-rule="evenodd" clip-rule="evenodd" d="M104.425 42.3784C100.056 37.0733 93.5437 34 86.6712 34H29C22.3726 34 17 39.3726 17 46V58.1371V68.2V160C17 166.627 22.3726 172 29 172H229C235.627 172 241 166.627 241 160V70.1371C241 63.5097 235.627 58.1371 229 58.1371H117.404L104.425 42.3784Z" fill="url(#paint1_linear_841_20934)"/>
</mask>
<g mask="url(#mask0_841_20934)">
<g style="mix-blend-mode:multiply" filter="url(#filter0_f_841_20934)">
<path fill-rule="evenodd" clip-rule="evenodd" d="M92.789 74C97.7642 74 102.605 72.3868 106.586 69.4024L116.459 62H229C235.627 62 241 67.3726 241 74V108V160C241 166.627 235.627 172 229 172H29C22.3726 172 17 166.627 17 160L17 108V86C17 79.3726 22.3726 74 29 74H87H92.789Z" fill="black" fill-opacity="0.3"/>
</g>
</g>
<g filter="url(#filter1_ii_841_20934)">
<path fill-rule="evenodd" clip-rule="evenodd" d="M92.789 74C97.7642 74 102.605 72.3868 106.586 69.4024L116.459 62H229C235.627 62 241 67.3726 241 74V108V198C241 204.627 235.627 210 229 210H29C22.3726 210 17 204.627 17 198L17 108V86C17 79.3726 22.3726 74 29 74H87H92.789Z" fill="url(#paint2_linear_841_20934)"/>
</g>
<path fill-rule="evenodd" clip-rule="evenodd" d="M142.076 172.151L132.193 151.748L140.482 134.213L150.046 153.979L169.812 112.534C170.131 111.578 169.812 110.303 168.856 109.984C168.537 109.984 168.218 109.665 167.899 109.665H146.221L116.253 172.151C114.34 176.615 109.239 178.527 104.776 176.933C102.544 175.977 100.95 174.383 99.9935 172.47V172.151L68.7504 106.158C66.8376 102.333 68.7504 97.5505 72.5761 95.6376C73.8513 95.3188 75.1266 95 76.083 95H113.702C118.484 95 122.629 97.5505 124.86 101.695L126.455 104.883L118.166 122.417L113.065 111.897C112.427 110.622 110.833 109.665 109.558 109.665H90.4293C89.4729 109.665 88.5165 110.622 88.5165 111.578C88.5165 111.897 88.5165 112.216 88.8353 112.534L108.601 153.979L121.035 128.156L129.324 110.94L133.787 102.014C135.7 97.5505 139.844 95 144.627 95H182.565C187.028 95 190.535 98.5069 190.535 102.97C190.535 104.245 190.216 105.202 189.897 106.477L158.335 172.47C156.422 176.933 151.321 179.165 146.858 177.252C144.627 176.296 143.032 174.702 142.076 172.151Z" fill="url(#paint3_linear_841_20934)"/>
<path fill-rule="evenodd" clip-rule="evenodd" d="M136.019 131.663H119.122L120.716 128.475L129.324 110.94L133.787 102.014C135.7 97.5505 139.845 95 144.627 95H161.523H160.886C156.423 95.3188 152.278 97.8693 150.684 101.695L136.975 130.069L136.019 131.663Z" fill="url(#paint4_linear_841_20934)"/>
<path fill-rule="evenodd" clip-rule="evenodd" d="M182.565 95C187.028 95 190.535 98.5069 190.535 102.97C190.535 104.245 190.216 105.202 189.898 106.477L177.783 131.982L161.843 130.388L170.132 112.853C170.45 111.897 170.132 110.622 169.175 110.303C168.856 110.303 168.537 109.984 168.219 109.984H146.54L150.365 102.014C152.278 97.8693 156.423 95 161.205 95H161.524H182.565Z" fill="url(#paint5_linear_841_20934)"/>
<defs>
<filter id="filter0_f_841_20934" x="-20" y="25" width="298" height="184" filterUnits="userSpaceOnUse" color-interpolation-filters="sRGB">
<feFlood flood-opacity="0" result="BackgroundImageFix"/>
<feBlend mode="normal" in="SourceGraphic" in2="BackgroundImageFix" result="shape"/>
<feGaussianBlur stdDeviation="18.5" result="effect1_foregroundBlur_841_20934"/>
</filter>
<filter id="filter1_ii_841_20934" x="17" y="62" width="224" height="148" filterUnits="userSpaceOnUse" color-interpolation-filters="sRGB">
<feFlood flood-opacity="0" result="BackgroundImageFix"/>
<feBlend mode="normal" in="SourceGraphic" in2="BackgroundImageFix" result="shape"/>
<feColorMatrix in="SourceAlpha" type="matrix" values="0 0 0 0 0 0 0 0 0 0 0 0 0 0 0 0 0 0 127 0" result="hardAlpha"/>
<feOffset dy="4"/>
<feComposite in2="hardAlpha" operator="arithmetic" k2="-1" k3="1"/>
<feColorMatrix type="matrix" values="0 0 0 0 1 0 0 0 0 1 0 0 0 0 1 0 0 0 0.25 0"/>
<feBlend mode="normal" in2="shape" result="effect1_innerShadow_841_20934"/>
<feColorMatrix in="SourceAlpha" type="matrix" values="0 0 0 0 0 0 0 0 0 0 0 0 0 0 0 0 0 0 127 0" result="hardAlpha"/>
<feOffset dy="-4"/>
<feComposite in2="hardAlpha" operator="arithmetic" k2="-1" k3="1"/>
<feColorMatrix type="matrix" values="0 0 0 0 0 0 0 0 0 0 0 0 0 0 0 0 0 0 0.9 0"/>
<feBlend mode="soft-light" in2="effect1_innerShadow_841_20934" result="effect2_innerShadow_841_20934"/>
</filter>
<linearGradient id="paint0_linear_841_20934" x1="129" y1="34" x2="129" y2="172" gradientUnits="userSpaceOnUse">
<stop stop-color="#FF3013"/>
<stop offset="0.433571" stop-color="#FF851B"/>
</linearGradient>
<linearGradient id="paint1_linear_841_20934" x1="17" y1="34" x2="197.768" y2="215.142" gradientUnits="userSpaceOnUse">
<stop stop-color="#05815D"/>
<stop offset="1" stop-color="#0C575F"/>
</linearGradient>
<linearGradient id="paint2_linear_841_20934" x1="17" y1="62" x2="241" y2="210" gradientUnits="userSpaceOnUse">
<stop stop-color="white"/>
<stop offset="1" stop-color="#E3E3E3"/>
</linearGradient>
<linearGradient id="paint3_linear_841_20934" x1="129.298" y1="177.263" x2="129.298" y2="95.0697" gradientUnits="userSpaceOnUse">
<stop stop-color="#FF5100"/>
<stop offset="1" stop-color="#FF1522"/>
</linearGradient>
<linearGradient id="paint4_linear_841_20934" x1="140.459" y1="124.341" x2="140.459" y2="96.1466" gradientUnits="userSpaceOnUse">
<stop stop-color="#FD7821" stop-opacity="0"/>
<stop offset="0.4893" stop-color="#FF5100"/>
<stop offset="1" stop-color="#FF9B27"/>
</linearGradient>
<linearGradient id="paint5_linear_841_20934" x1="179.001" y1="117.437" x2="161.054" y2="94.8764" gradientUnits="userSpaceOnUse">
<stop stop-color="#FD7821" stop-opacity="0"/>
<stop offset="1" stop-color="#881000" stop-opacity="0.9245"/>
</linearGradient>
</defs>
</svg>
