<svg width="256" height="256" viewBox="0 0 256 256" fill="none" xmlns="http://www.w3.org/2000/svg">
<path fill-rule="evenodd" clip-rule="evenodd" d="M104.425 42.3784C100.056 37.0733 93.5437 34 86.6712 34H29C22.3726 34 17 39.3726 17 46V58.1371V68.2V160C17 166.627 22.3726 172 29 172H229C235.627 172 241 166.627 241 160V70.1371C241 63.5097 235.627 58.1371 229 58.1371H117.404L104.425 42.3784Z" fill="#EA0400"/>
<mask id="mask0_841_21085" style="mask-type:alpha" maskUnits="userSpaceOnUse" x="17" y="34" width="224" height="138">
<path fill-rule="evenodd" clip-rule="evenodd" d="M104.425 42.3784C100.056 37.0733 93.5437 34 86.6712 34H29C22.3726 34 17 39.3726 17 46V58.1371V68.2V160C17 166.627 22.3726 172 29 172H229C235.627 172 241 166.627 241 160V70.1371C241 63.5097 235.627 58.1371 229 58.1371H117.404L104.425 42.3784Z" fill="url(#paint0_linear_841_21085)"/>
</mask>
<g mask="url(#mask0_841_21085)">
<g style="mix-blend-mode:multiply" filter="url(#filter0_f_841_21085)">
<path fill-rule="evenodd" clip-rule="evenodd" d="M92.789 74C97.7642 74 102.605 72.3868 106.586 69.4024L116.459 62H229C235.627 62 241 67.3726 241 74V108V160C241 166.627 235.627 172 229 172H29C22.3726 172 17 166.627 17 160L17 108V86C17 79.3726 22.3726 74 29 74H87H92.789Z" fill="black" fill-opacity="0.3"/>
</g>
</g>
<g filter="url(#filter1_ii_841_21085)">
<path fill-rule="evenodd" clip-rule="evenodd" d="M92.789 74C97.7642 74 102.605 72.3868 106.586 69.4024L116.459 62H229C235.627 62 241 67.3726 241 74V108V198C241 204.627 235.627 210 229 210H29C22.3726 210 17 204.627 17 198L17 108V86C17 79.3726 22.3726 74 29 74H87H92.789Z" fill="url(#paint1_linear_841_21085)"/>
</g>
<path d="M136.925 140.567C152.114 140.567 154.988 131.535 154.988 122.504C154.988 113.974 152.174 105.041 137.398 104.457L137.336 104.458H125.431V127.446C125.431 130.32 123.07 132.373 120.71 132.373C118.349 132.373 115.989 130.32 115.989 127.446V99.9422L115.99 99.8363L115.989 99.7369C115.989 98.3755 116.491 97.2064 117.345 96.3722C118.179 95.5177 119.348 95.016 120.71 95.016L120.809 95.0169L120.915 95.016H125.431V95H135.694C136.099 95 136.638 95 137.286 95.016H137.336C137.475 95.016 137.612 95.0206 137.747 95.0297C145.35 95.2939 165.25 97.9062 165.25 123.736C165.25 150.419 146.367 150.419 135.694 150.419H115.989L113.998 150.411C106.675 150.351 102.852 150.319 102.852 158.629C102.852 167.657 107.368 168.07 115.989 168.07V163.159C115.989 160.285 118.042 158.232 120.915 158.232C123.378 158.232 125.841 160.694 125.841 163.159V173.009C125.841 175.883 123.788 177.936 120.915 177.936L116.81 177.94C116.645 177.94 116.483 177.932 116.325 177.92H114.346C102.031 177.92 93 173.406 93 158.629C93 143.848 102.031 140.565 114.346 140.565L136.925 140.567Z" fill="white"/>
<defs>
<filter id="filter0_f_841_21085" x="-20" y="25" width="298" height="184" filterUnits="userSpaceOnUse" color-interpolation-filters="sRGB">
<feFlood flood-opacity="0" result="BackgroundImageFix"/>
<feBlend mode="normal" in="SourceGraphic" in2="BackgroundImageFix" result="shape"/>
<feGaussianBlur stdDeviation="18.5" result="effect1_foregroundBlur_841_21085"/>
</filter>
<filter id="filter1_ii_841_21085" x="17" y="62" width="224" height="148" filterUnits="userSpaceOnUse" color-interpolation-filters="sRGB">
<feFlood flood-opacity="0" result="BackgroundImageFix"/>
<feBlend mode="normal" in="SourceGraphic" in2="BackgroundImageFix" result="shape"/>
<feColorMatrix in="SourceAlpha" type="matrix" values="0 0 0 0 0 0 0 0 0 0 0 0 0 0 0 0 0 0 127 0" result="hardAlpha"/>
<feOffset dy="4"/>
<feComposite in2="hardAlpha" operator="arithmetic" k2="-1" k3="1"/>
<feColorMatrix type="matrix" values="0 0 0 0 1 0 0 0 0 1 0 0 0 0 1 0 0 0 0.25 0"/>
<feBlend mode="normal" in2="shape" result="effect1_innerShadow_841_21085"/>
<feColorMatrix in="SourceAlpha" type="matrix" values="0 0 0 0 0 0 0 0 0 0 0 0 0 0 0 0 0 0 127 0" result="hardAlpha"/>
<feOffset dy="-4"/>
<feComposite in2="hardAlpha" operator="arithmetic" k2="-1" k3="1"/>
<feColorMatrix type="matrix" values="0 0 0 0 0 0 0 0 0 0 0 0 0 0 0 0 0 0 0.9 0"/>
<feBlend mode="soft-light" in2="effect1_innerShadow_841_21085" result="effect2_innerShadow_841_21085"/>
</filter>
<linearGradient id="paint0_linear_841_21085" x1="17" y1="34" x2="197.768" y2="215.142" gradientUnits="userSpaceOnUse">
<stop stop-color="#05815D"/>
<stop offset="1" stop-color="#0C575F"/>
</linearGradient>
<linearGradient id="paint1_linear_841_21085" x1="17" y1="62" x2="241" y2="210" gradientUnits="userSpaceOnUse">
<stop stop-color="#EB6B68"/>
<stop offset="1" stop-color="#F13834"/>
</linearGradient>
</defs>
</svg>
