<?xml version="1.0" encoding="UTF-8"?>
<svg id="Layer_1" data-name="Layer 1" xmlns="http://www.w3.org/2000/svg" xmlns:xlink="http://www.w3.org/1999/xlink" viewBox="0 0 256 256">
  <defs>
    <style>
      .cls-1 {
        fill: #fff;
      }

      .cls-2 {
        fill: url(#linear-gradient);
      }

      .cls-2, .cls-3, .cls-4, .cls-5, .cls-6, .cls-7 {
        fill-rule: evenodd;
      }

      .cls-3 {
        fill: url(#_未命名的渐变_684);
      }

      .cls-4 {
        fill: url(#_未命名的渐变_677);
      }

      .cls-5 {
        fill: #df5100;
      }

      .cls-6 {
        fill: url(#_未命名的渐变_698);
      }

      .cls-8 {
        fill: none;
        mask: url(#mask);
      }

      .cls-9 {
        fill: #89898a;
      }

      .cls-7 {
        fill: #a6a1a1;
      }
    </style>
    <linearGradient id="linear-gradient" x1="32.58" y1="239.55" x2="213.35" y2="58.41" gradientTransform="translate(0 258) scale(1 -1)" gradientUnits="userSpaceOnUse">
      <stop offset="0" stop-color="#05815d"/>
      <stop offset="1" stop-color="#0c575f"/>
    </linearGradient>
    <mask id="mask" x="17" y="34" width="224" height="138" maskUnits="userSpaceOnUse">
      <g id="mask0_501_11930" data-name="mask0 501 11930">
        <path class="cls-2" d="m104.43,42.38c-4.37-5.31-10.88-8.38-17.75-8.38H29c-6.63,0-12,5.37-12,12v114c0,6.63,5.37,12,12,12h200c6.63,0,12-5.37,12-12v-89.86c0-6.63-5.37-12-12-12h-111.6l-12.98-15.76Z"/>
      </g>
    </mask>
    <linearGradient id="_未命名的渐变_677" data-name="未命名的渐变 677" x1="17" y1="196" x2="241" y2="48" gradientTransform="translate(0 258) scale(1 -1)" gradientUnits="userSpaceOnUse">
      <stop offset="0" stop-color="#ff6d1b"/>
      <stop offset="1" stop-color="#f25800"/>
    </linearGradient>
    <linearGradient id="_未命名的渐变_698" data-name="未命名的渐变 698" x1="16.93" y1="57.32" x2="240.94" y2="54.82" gradientTransform="translate(0 258) scale(1 -1)" gradientUnits="userSpaceOnUse">
      <stop offset="0" stop-color="#f25800"/>
      <stop offset="1" stop-color="#cb4a00"/>
    </linearGradient>
    <linearGradient id="_未命名的渐变_684" data-name="未命名的渐变 684" x1="17" y1="76" x2="241" y2="76" gradientUnits="userSpaceOnUse">
      <stop offset="0" stop-color="#ffc5a4"/>
      <stop offset="1" stop-color="#ff9355"/>
    </linearGradient>
  </defs>
  <path class="cls-5" d="m104.43,42.38c-4.37-5.31-10.88-8.38-17.75-8.38H29c-6.63,0-12,5.37-12,12v114c0,6.63,5.37,12,12,12h200c6.63,0,12-5.37,12-12v-89.86c0-6.63-5.37-12-12-12h-111.6l-12.98-15.76Z"/>
  <g class="cls-8">
    <path class="cls-7" d="m92.79,74c4.98,0,9.82-1.61,13.8-4.6l9.87-7.4h112.54c6.63,0,12,5.37,12,12v86c0,6.63-5.37,12-12,12H29c-6.63,0-12-5.37-12-12v-74c0-6.63,5.37-12,12-12h63.79Z"/>
  </g>
  <path class="cls-4" d="m92.79,74c4.98,0,9.82-1.61,13.8-4.6l9.87-7.4h112.54c6.63,0,12,5.37,12,12v124c0,6.63-5.37,12-12,12H29c-6.63,0-12-5.37-12-12v-112c0-6.63,5.37-12,12-12h63.79Z"/>
  <path class="cls-6" d="m17,194v4c0,6.63,5.37,12,12,12h200c6.63,0,12-5.37,12-12v-4c0,6.63-5.37,12-12,12H29c-6.63,0-12-5.37-12-12Z"/>
  <path class="cls-3" d="m106.59,69.4c-3.98,2.98-8.82,4.6-13.8,4.6H29c-6.63,0-12,5.37-12,12v4c0-6.63,5.37-12,12-12h63.79c4.98,0,9.82-1.61,13.8-4.6l9.87-7.4h112.54c6.63,0,12,5.37,12,12v-4c0-6.63-5.37-12-12-12h-112.54l-9.87,7.4Z"/>
  <g>
    <path class="cls-1" d="m192.24,144.8c0,3.13,0,5.71,0,8.3,0,.19-.02.39,0,.58.04.35-.15.44-.45.44-.75,0-1.49.01-2.24.01-.88,0-1.75-.02-2.63-.03-.52,0-.52-.02-.53-.55-.01-.9-.01-1.79-.01-2.69,0-3.91,0-7.82-.01-11.72,0-.86-.11-1.7-.27-2.54-.11-.57-.44-.94-.92-1.22-.53-.31-1.12-.41-1.7-.5-1.25-.21-2.52-.1-3.76.04-.71.08-1.54.29-1.83,1.15-.14.43-.25.89-.25,1.33-.02,4.98-.01,9.95-.01,14.93,0,.45-.02.9,0,1.34.01.34-.14.44-.46.44-1.5,0-2.99.01-4.49,0-.95,0-.95-.03-.95-.97,0-4.74-.01-9.48-.01-14.22,0-.68-.04-1.37-.13-2.04-.13-.97-.77-1.53-1.65-1.84-.26-.09-.54-.14-.81-.15-1.2-.04-2.39-.09-3.59,0-.5.04-.99.19-1.45.41-.84.41-1.01,1.18-1.08,2.01-.11,1.34-.12,2.69-.12,4.03,0,3.1,0,6.19,0,9.29,0,.96-.02,1.92-.03,2.88,0,.56-.02.58-.55.59-1.62,0-3.25,0-4.87,0-.34,0-.44-.12-.44-.45,0-1.09-.02-2.18-.02-3.27,0-4.21.02-8.42,0-12.62,0-1.24.13-2.47.46-3.63.28-.99.84-1.92,1.77-2.54,1.21-.8,2.52-1.27,3.96-1.47,1.85-.26,3.7-.28,5.56-.22.74.03,1.47.2,2.2.29,1.13.13,2.16.58,3.17,1.06.41.2.8.21,1.21-.02,1.48-.81,3.09-1.11,4.75-1.26,1.24-.12,2.47-.13,3.71-.08,1.29.05,2.59.16,3.82.63,1.01.39,1.98.85,2.78,1.62,1.14,1.09,1.62,2.46,1.76,3.98.26,3.07.06,6.15.13,8.67Z"/>
    <path class="cls-1" d="m107.56,154.46c-1.97.12-3.93-.07-5.84-.53-.96-.23-1.91-.58-2.71-1.2-.4-.31-.82-.61-1.21-.94-.7-.61-1.14-1.37-1.46-2.21-.51-1.36-.53-2.77-.5-4.2.03-1.19.47-2.27.92-3.33.17-.41.57-.68.91-.97,1.18-.97,2.55-1.53,4.03-1.84,1.4-.29,2.81-.46,4.23-.57,1.32-.1,2.65-.16,3.96-.07.91.06,1.83.03,2.74.18.15.02.3.03.45.04.17,0,.3-.05.3-.25,0-.58-.02-1.15-.25-1.69-.04-.1-.1-.18-.11-.29-.01-.57-.4-.92-.83-1.13-.87-.43-1.77-.74-2.76-.86-2.35-.28-4.64.02-6.92.57-.97.23-1.94.51-2.91.75-.37.09-.65.38-1.07.35-.52-.04-.66-.12-.66-.63,0-1.34.03-2.69.03-4.03,0-.37.17-.58.52-.7,1.57-.53,3.17-.91,4.83-1.07,1.76-.18,3.52-.38,5.3-.33,1.57.04,3.15.17,4.63.73,2.87,1.08,4.89,2.95,5.76,6,.55,1.91.67,3.85.71,5.81.03,1.37.03,2.74-.13,4.09-.09.74,0,1.54-.48,2.21.03.65-.33,1.17-.57,1.74-.22.54-.56.99-.97,1.4-.45.44-.91.87-1.37,1.29-.16.14-.35.24-.54.33-1.46.68-3,1.04-4.58,1.25-1.15.15-2.3.09-3.45.12Zm1.31-11.14c-.78,0-1.38-.03-1.98,0-1.28.06-2.54.23-3.79.52-.96.22-1.54.89-1.71,1.76-.16.78-.17,1.64.28,2.4.42.72.98,1.26,1.8,1.39.92.15,1.85.31,2.79.31,1.3,0,2.6,0,3.9-.14.61-.07,1.2-.25,1.74-.52.9-.44,1.21-1.3,1.4-2.22.21-.97.06-1.96.2-2.93.04-.28-.14-.32-.35-.33-1.49-.08-2.96-.37-4.28-.26Z"/>
    <path class="cls-1" d="m137.8,154.5c-1.26.02-2.75-.04-4.23-.27-3.04-.47-5.43-1.91-6.91-4.66-.6-1.11-.85-2.34-1.09-3.57-.36-1.86-.31-3.74-.22-5.61.06-1.15.18-2.31.5-3.44.45-1.58,1.09-3.06,2.26-4.24,1.26-1.27,2.8-2.05,4.55-2.43,2.4-.53,4.83-.48,7.26-.38,1.85.08,3.68.39,5.34,1.28.79.42,1.56.88,2.18,1.52,1.15,1.19,1.95,2.6,2.37,4.2.57,2.16.72,4.36.57,6.59-.06.92-.09,1.84-.32,2.73-.19.75-.31,1.52-.59,2.25-1.11,2.86-3.11,4.75-6.11,5.48-2.34.57-2.69.56-5.56.55Zm.08-4.74c1.12-.02,2.3,0,3.41-.46,1.25-.5,2.29-1.24,2.76-2.57.22-.64.35-1.31.39-2,.06-1.28.07-2.55.03-3.83-.02-.75-.04-1.49-.18-2.23-.29-1.53-1.04-2.69-2.55-3.3-.82-.33-1.65-.53-2.52-.59-1.32-.09-2.65-.14-3.95.12-.72.14-1.45.31-2.05.76-.92.69-1.61,1.52-1.78,2.74-.13.91-.19,1.82-.27,2.73-.15,1.67-.04,3.32.31,4.95.38,1.78,1.5,2.84,3.25,3.33,1.02.29,2.06.34,3.16.35Z"/>
    <path class="cls-1" d="m49.9,130.22c1.31,0,2.56,0,3.82,0,.96,0,1.92,0,2.88,0,.3,0,.49.08.68.35.89,1.25,1.86,2.44,2.73,3.7.83,1.21,1.77,2.34,2.59,3.55.18.26.31.31.55.09.23-.22.5-.4.64-.7.29-.67.93-1.09,1.22-1.76.14-.32.5-.5.71-.8.98-1.35,2.03-2.65,2.91-4.07.24-.39.63-.41.94-.4,1.84.11,3.67.02,5.51.05.26,0,.51,0,.77.01.36.02.46.17.32.49-.1.23-.23.46-.39.65-1.57,1.83-3.04,3.74-4.57,5.6-1.14,1.4-2.28,2.8-3.38,4.23-.07.08-.14.16-.22.24-.6.6-.49.57-.05,1.15.83,1.08,1.69,2.13,2.52,3.21.85,1.11,1.72,2.22,2.58,3.33.75.98,1.52,1.95,2.31,2.89.37.44.71.9,1.06,1.36.07.1.13.22.15.35.04.19-.02.34-.25.36-.13,0-.26.02-.38.02-1.99,0-3.97,0-5.96,0-.41,0-.65-.14-.89-.47-.98-1.39-2-2.76-3.01-4.14-.67-.91-1.33-1.83-2-2.74-.06-.09-.12-.18-.18-.26-.23-.29-.3-.31-.52-.02-.57.72-1.12,1.45-1.68,2.18-1.32,1.7-2.66,3.39-3.97,5.1-.23.3-.48.38-.82.38-1.24,0-2.48,0-3.72,0-.87,0-1.75-.09-2.62.04-.13.02-.21-.01-.23-.13-.04-.27-.08-.54.13-.78.63-.74,1.25-1.49,1.88-2.23.41-.49.7-1.06,1.12-1.55,1.09-1.27,2.19-2.53,3.2-3.87.8-1.06,1.72-2.03,2.51-3.1.2-.26.17-.4-.03-.65-1.52-1.86-3.02-3.74-4.53-5.61-1.22-1.51-2.44-3.02-3.66-4.53-.33-.41-.72-.8-.69-1.49Z"/>
    <path class="cls-1" d="m88.78,142.23c0,3.61,0,7.21,0,10.82,0,.34.1.73-.09,1-.23.33-.63.06-.94.07-1.41.03-2.82,0-4.23,0-.7,0-.72-.02-.72-.73,0-1.94-.01-3.88-.01-5.83,0-5.51,0-11.01.01-16.52,0-.86-.09-.81.78-.82,1.52-.01,3.03,0,4.55.01.63,0,.64.02.64.66,0,3.78,0,7.56,0,11.33h.02Z"/>
    <path class="cls-1" d="m206.09,142.21c0,3.7,0,7.39,0,11.09,0,.06,0,.13,0,.19q0,.59-.58.62c-1.24.06-2.48,0-3.72,0-.38,0-.77-.03-1.15,0-.34.02-.44-.14-.44-.45,0-1.13-.01-2.26-.01-3.4,0-6.37.01-12.73.02-19.1,0-.09,0-.17,0-.26.02-.59.06-.65.68-.65,1.54,0,3.08,0,4.61,0,.59,0,.6.03.6.63,0,3.78,0,7.56,0,11.34h-.01Z"/>
  </g>
  <path class="cls-9" d="m90.31,144.15c.07,0,.15-.03.13.09,0,.02-.08.01-.13.02-.02-.04-.02-.07,0-.11Z"/>
</svg>