<svg width="256" height="256" viewBox="0 0 256 256" fill="none" xmlns="http://www.w3.org/2000/svg">
<path fill-rule="evenodd" clip-rule="evenodd" d="M104.425 42.3784C100.056 37.0733 93.5437 34 86.6712 34H29C22.3726 34 17 39.3726 17 46V58.1371V68.2V160C17 166.627 22.3726 172 29 172H229C235.627 172 241 166.627 241 160V70.1371C241 63.5097 235.627 58.1371 229 58.1371H117.404L104.425 42.3784Z" fill="#BD2341"/>
<mask id="mask0_1936_29741" style="mask-type:alpha" maskUnits="userSpaceOnUse" x="17" y="34" width="224" height="138">
<path fill-rule="evenodd" clip-rule="evenodd" d="M104.425 42.3784C100.056 37.0733 93.5437 34 86.6712 34H29C22.3726 34 17 39.3726 17 46V58.1371V68.2V160C17 166.627 22.3726 172 29 172H229C235.627 172 241 166.627 241 160V70.1371C241 63.5097 235.627 58.1371 229 58.1371H117.404L104.425 42.3784Z" fill="url(#paint0_linear_1936_29741)"/>
</mask>
<g mask="url(#mask0_1936_29741)">
<g style="mix-blend-mode:multiply" filter="url(#filter0_f_1936_29741)">
<path fill-rule="evenodd" clip-rule="evenodd" d="M92.789 74C97.7642 74 102.605 72.3868 106.586 69.4024L116.459 62H229C235.627 62 241 67.3726 241 74V108V160C241 166.627 235.627 172 229 172H29C22.3726 172 17 166.627 17 160L17 108V86C17 79.3726 22.3726 74 29 74H87H92.789Z" fill="black" fill-opacity="0.3"/>
</g>
</g>
<g filter="url(#filter1_ii_1936_29741)">
<path fill-rule="evenodd" clip-rule="evenodd" d="M92.789 74C97.7642 74 102.605 72.3868 106.586 69.4024L116.459 62H229C235.627 62 241 67.3726 241 74V108V198C241 204.627 235.627 210 229 210H29C22.3726 210 17 204.627 17 198L17 108V86C17 79.3726 22.3726 74 29 74H87H92.789Z" fill="url(#paint1_linear_1936_29741)"/>
</g>
<path d="M150.31 136.174C138.43 129.825 115.427 117.895 115.427 117.895L146.096 138.508C146.098 138.508 140.509 141.607 150.31 136.174Z" fill="#E8E0E0" fill-opacity="0.17"/>
<path d="M117.662 182.887C92.9861 182.433 84.558 182.024 79.3776 180.957C75.8727 180.248 72.8269 178.673 70.5937 176.389C68.8677 174.661 67.495 172.024 66.4301 168.365C65.5166 165.317 65.1608 162.781 64.6536 156.586C63.8771 142.605 63.692 131.174 64.6536 118.402C65.4469 111.349 65.8315 102.976 71.1009 98.0915C73.589 95.8054 76.4833 94.3342 79.7334 93.726C84.8104 92.762 106.441 92 128.833 92C151.175 92 172.854 92.762 177.936 93.726C181.996 94.4881 185.804 96.7718 188.039 99.7166C192.847 107.279 192.931 116.683 193.419 124.039C193.621 127.544 193.621 147.446 193.419 150.951C192.66 162.577 192.049 166.69 190.323 170.954C189.256 173.647 188.345 175.067 186.768 176.642C184.294 179.065 181.141 180.677 177.729 181.262C156.375 182.868 138.242 183.217 117.662 182.887V182.887ZM150.363 136.174C138.483 129.826 127.107 123.938 115.48 117.844V154.302C127.716 147.651 140.615 141.557 150.413 136.124L150.363 136.174Z" fill="white"/>
<defs>
<filter id="filter0_f_1936_29741" x="-20" y="25" width="298" height="184" filterUnits="userSpaceOnUse" color-interpolation-filters="sRGB">
<feFlood flood-opacity="0" result="BackgroundImageFix"/>
<feBlend mode="normal" in="SourceGraphic" in2="BackgroundImageFix" result="shape"/>
<feGaussianBlur stdDeviation="18.5" result="effect1_foregroundBlur_1936_29741"/>
</filter>
<filter id="filter1_ii_1936_29741" x="17" y="62" width="224" height="148" filterUnits="userSpaceOnUse" color-interpolation-filters="sRGB">
<feFlood flood-opacity="0" result="BackgroundImageFix"/>
<feBlend mode="normal" in="SourceGraphic" in2="BackgroundImageFix" result="shape"/>
<feColorMatrix in="SourceAlpha" type="matrix" values="0 0 0 0 0 0 0 0 0 0 0 0 0 0 0 0 0 0 127 0" result="hardAlpha"/>
<feOffset dy="4"/>
<feComposite in2="hardAlpha" operator="arithmetic" k2="-1" k3="1"/>
<feColorMatrix type="matrix" values="0 0 0 0 1 0 0 0 0 1 0 0 0 0 1 0 0 0 0.25 0"/>
<feBlend mode="normal" in2="shape" result="effect1_innerShadow_1936_29741"/>
<feColorMatrix in="SourceAlpha" type="matrix" values="0 0 0 0 0 0 0 0 0 0 0 0 0 0 0 0 0 0 127 0" result="hardAlpha"/>
<feOffset dy="-4"/>
<feComposite in2="hardAlpha" operator="arithmetic" k2="-1" k3="1"/>
<feColorMatrix type="matrix" values="0 0 0 0 0 0 0 0 0 0 0 0 0 0 0 0 0 0 0.9 0"/>
<feBlend mode="soft-light" in2="effect1_innerShadow_1936_29741" result="effect2_innerShadow_1936_29741"/>
</filter>
<linearGradient id="paint0_linear_1936_29741" x1="17" y1="34" x2="197.768" y2="215.142" gradientUnits="userSpaceOnUse">
<stop stop-color="#05815D"/>
<stop offset="1" stop-color="#0C575F"/>
</linearGradient>
<linearGradient id="paint1_linear_1936_29741" x1="17" y1="62" x2="241" y2="210" gradientUnits="userSpaceOnUse">
<stop stop-color="#F5020D"/>
<stop offset="1" stop-color="#C50E4B"/>
</linearGradient>
</defs>
</svg>
