<svg width="256" height="256" viewBox="0 0 256 256" fill="none" xmlns="http://www.w3.org/2000/svg">
<path fill-rule="evenodd" clip-rule="evenodd" d="M104.425 42.3784C100.056 37.0733 93.5437 34 86.6712 34H29C22.3726 34 17 39.3726 17 46V58.1371V68.2V160C17 166.627 22.3726 172 29 172H229C235.627 172 241 166.627 241 160V70.1371C241 63.5097 235.627 58.1371 229 58.1371H117.404L104.425 42.3784Z" fill="#F6E4C2"/>
<mask id="mask0_864_21824" style="mask-type:alpha" maskUnits="userSpaceOnUse" x="17" y="34" width="224" height="138">
<path fill-rule="evenodd" clip-rule="evenodd" d="M104.425 42.3784C100.056 37.0733 93.5437 34 86.6712 34H29C22.3726 34 17 39.3726 17 46V58.1371V68.2V160C17 166.627 22.3726 172 29 172H229C235.627 172 241 166.627 241 160V70.1371C241 63.5097 235.627 58.1371 229 58.1371H117.404L104.425 42.3784Z" fill="url(#paint0_linear_864_21824)"/>
</mask>
<g mask="url(#mask0_864_21824)">
<g style="mix-blend-mode:multiply" filter="url(#filter0_f_864_21824)">
<path fill-rule="evenodd" clip-rule="evenodd" d="M92.789 74C97.7642 74 102.605 72.3868 106.586 69.4024L116.459 62H229C235.627 62 241 67.3726 241 74V108V160C241 166.627 235.627 172 229 172H29C22.3726 172 17 166.627 17 160L17 108V86C17 79.3726 22.3726 74 29 74H87H92.789Z" fill="black" fill-opacity="0.3"/>
</g>
</g>
<g filter="url(#filter1_d_864_21824)">
<g filter="url(#filter2_ii_864_21824)">
<path fill-rule="evenodd" clip-rule="evenodd" d="M92.789 74C97.7642 74 102.605 72.3868 106.586 69.4024L116.459 62H229C235.627 62 241 67.3726 241 74V108V198C241 204.627 235.627 210 229 210H29C22.3726 210 17 204.627 17 198L17 108V86C17 79.3726 22.3726 74 29 74H87H92.789Z" fill="url(#paint1_linear_864_21824)"/>
</g>
</g>
<path fill-rule="evenodd" clip-rule="evenodd" d="M139.425 92.0116C144.822 91.7048 148.7 97.5302 150.326 101.442C151.253 103.666 152.028 107.292 149.793 108.392C148.047 109.253 145.957 109.387 143.486 109.711C137.584 110.478 133.832 109.069 131.697 105.498C131.084 104.476 130.443 102.672 130.824 100.882C131.568 97.3486 133.751 94.5337 136.483 92.9421C136.992 92.6434 138.268 92.0777 139.425 92.0116Z" fill="#F6E4C2"/>
<path d="M122.889 113.287C126.05 113.292 129.355 113.804 132.434 114.623C135.803 115.521 138.971 116.708 141.626 117.767C146.713 119.797 150.441 121.278 150.441 121.278C150.441 121.278 153.01 119.503 153.989 118.844C156.36 117.384 158.566 115.914 161.489 115.277C162.434 115.072 164.194 115.064 165.075 115.22C168.535 115.836 170.636 117.342 170.928 120.278C171.325 124.223 166.288 128.399 165.103 129.512C164.043 130.505 158.963 135.303 152.716 135.804C149.676 136.05 146.802 135.049 144.735 134.181C144.044 133.89 142.247 132.994 142.247 132.994C142.247 132.994 139.47 135.637 136.922 138.306C134.362 140.987 128.019 148.747 128.019 148.762C135.019 148.259 143.059 150.493 148.157 152.461C160.147 157.092 171.716 165.242 179.533 176.262C182.217 180.051 184.776 184.232 186.714 188.717C187.245 189.95 188.293 192.56 187.36 193.674C186.393 194.826 184.164 193.459 182.909 192.847C180.626 191.739 175.761 188.021 172.246 185.202C170.638 183.911 168.156 181.68 167.723 179.71C167.448 178.449 168.213 176.8 168.477 175.508C168.901 173.441 167.696 171.844 166.861 170.805C164.904 168.364 161.547 166.839 158.389 165.602C152.121 163.137 147.727 162.35 137.101 161.005C126.476 159.661 119.364 160.508 118.576 160.538C117.758 161.511 116.705 162.763 115.886 163.735C113.625 166.078 105.214 174.383 102.782 176.227C98.4313 179.523 93.5706 182.72 88.4234 185.202C78.5158 189.978 72.1965 189.224 71.4774 188.432C70.7604 187.642 70.7328 185.392 72.2415 182.301C73.7641 179.184 77.3845 175.143 79.0539 173.427C80.7202 171.709 83.8179 168.866 88.0277 165.673C93.8441 161.257 102.691 156.812 107.09 154.653C113.227 151.636 119.37 150.188 120.911 149.77C129.349 138.174 138.286 130.815 138.286 130.815C138.286 130.815 134.701 128.523 133.188 127.512C129.894 125.313 126.649 122.958 122.85 121.301C120.457 120.259 116.505 118.786 113.084 119.652C108.875 120.716 103.332 123.876 101.108 126.605C100.367 127.511 99.7401 129.169 99.4924 130.58C99.2945 131.693 99.6008 133.317 99.3002 134.116C98.7724 135.518 96.4866 136.758 94.7064 137.539C92.2873 138.597 89.8025 139.691 87.0462 140.389C86.1169 140.623 84.4788 141.065 83.9722 140.378C83.3 139.465 84.3466 138.096 84.7024 137.467C86.1487 134.901 87.8854 132.747 89.7154 130.563C95.2928 123.91 101.364 118.952 109.89 115.557C112.03 114.706 116.138 113.278 122.889 113.287ZM164.548 119.061C163.095 119.197 161.501 119.469 160.189 119.981C158.252 120.734 156.528 121.647 154.752 122.719C158.67 123.91 163.177 124.586 166.718 122.442C167.579 121.919 168.356 121.214 168.393 120.376C168.437 119.432 165.998 118.925 164.548 119.061ZM111.529 161.401C111.529 161.401 109.567 161.76 108.513 161.974C107.46 162.19 105.03 162.885 103.4 163.309C98.9423 164.465 87.2533 169.002 81.9966 174.252C80.2813 175.965 78.9347 178.008 77.9357 180.441C77.6616 181.109 77.1056 182.657 77.6643 183.588C78.1402 184.379 79.5529 184.554 80.7641 184.288C83.2519 183.743 85.4945 182.719 87.4905 181.619C94.9916 177.481 102.196 171.473 106.671 166.642C108.121 165.076 109.976 163.146 110.501 162.562C111.026 161.974 111.529 161.401 111.529 161.401Z" fill="#F6E4C2"/>
<defs>
<filter id="filter0_f_864_21824" x="-20" y="25" width="298" height="184" filterUnits="userSpaceOnUse" color-interpolation-filters="sRGB">
<feFlood flood-opacity="0" result="BackgroundImageFix"/>
<feBlend mode="normal" in="SourceGraphic" in2="BackgroundImageFix" result="shape"/>
<feGaussianBlur stdDeviation="18.5" result="effect1_foregroundBlur_864_21824"/>
</filter>
<filter id="filter1_d_864_21824" x="13" y="62" width="232" height="156" filterUnits="userSpaceOnUse" color-interpolation-filters="sRGB">
<feFlood flood-opacity="0" result="BackgroundImageFix"/>
<feColorMatrix in="SourceAlpha" type="matrix" values="0 0 0 0 0 0 0 0 0 0 0 0 0 0 0 0 0 0 127 0" result="hardAlpha"/>
<feOffset dy="4"/>
<feGaussianBlur stdDeviation="2"/>
<feComposite in2="hardAlpha" operator="out"/>
<feColorMatrix type="matrix" values="0 0 0 0 0 0 0 0 0 0 0 0 0 0 0 0 0 0 0.25 0"/>
<feBlend mode="normal" in2="BackgroundImageFix" result="effect1_dropShadow_864_21824"/>
<feBlend mode="normal" in="SourceGraphic" in2="effect1_dropShadow_864_21824" result="shape"/>
</filter>
<filter id="filter2_ii_864_21824" x="17" y="62" width="224" height="148" filterUnits="userSpaceOnUse" color-interpolation-filters="sRGB">
<feFlood flood-opacity="0" result="BackgroundImageFix"/>
<feBlend mode="normal" in="SourceGraphic" in2="BackgroundImageFix" result="shape"/>
<feColorMatrix in="SourceAlpha" type="matrix" values="0 0 0 0 0 0 0 0 0 0 0 0 0 0 0 0 0 0 127 0" result="hardAlpha"/>
<feOffset dy="4"/>
<feComposite in2="hardAlpha" operator="arithmetic" k2="-1" k3="1"/>
<feColorMatrix type="matrix" values="0 0 0 0 1 0 0 0 0 1 0 0 0 0 1 0 0 0 0.25 0"/>
<feBlend mode="normal" in2="shape" result="effect1_innerShadow_864_21824"/>
<feColorMatrix in="SourceAlpha" type="matrix" values="0 0 0 0 0 0 0 0 0 0 0 0 0 0 0 0 0 0 127 0" result="hardAlpha"/>
<feOffset dy="-4"/>
<feComposite in2="hardAlpha" operator="arithmetic" k2="-1" k3="1"/>
<feColorMatrix type="matrix" values="0 0 0 0 0 0 0 0 0 0 0 0 0 0 0 0 0 0 0.9 0"/>
<feBlend mode="soft-light" in2="effect1_innerShadow_864_21824" result="effect2_innerShadow_864_21824"/>
</filter>
<linearGradient id="paint0_linear_864_21824" x1="17" y1="34" x2="197.768" y2="215.142" gradientUnits="userSpaceOnUse">
<stop stop-color="#05815D"/>
<stop offset="1" stop-color="#0C575F"/>
</linearGradient>
<linearGradient id="paint1_linear_864_21824" x1="194.181" y1="185.032" x2="116.056" y2="56.7906" gradientUnits="userSpaceOnUse">
<stop stop-color="#DF550E"/>
<stop offset="1" stop-color="#EA8854"/>
</linearGradient>
</defs>
</svg>
