<?xml version="1.0" encoding="UTF-8" standalone="no"?>
<svg
   width="256"
   height="256"
   viewBox="0 0 256 256"
   fill="none"
   version="1.1"
   id="svg38"
   sodipodi:docname="concepts-1.svg"
   inkscape:version="1.4 (86a8ad7, 2024-10-11)"
   xml:space="preserve"
   xmlns:inkscape="http://www.inkscape.org/namespaces/inkscape"
   xmlns:sodipodi="http://sodipodi.sourceforge.net/DTD/sodipodi-0.dtd"
   xmlns="http://www.w3.org/2000/svg"
   xmlns:svg="http://www.w3.org/2000/svg"><sodipodi:namedview
     id="namedview38"
     pagecolor="#505050"
     bordercolor="#eeeeee"
     borderopacity="1"
     inkscape:showpageshadow="0"
     inkscape:pageopacity="0"
     inkscape:pagecheckerboard="0"
     inkscape:deskcolor="#505050"
     inkscape:zoom="2"
     inkscape:cx="158.25"
     inkscape:cy="139.25"
     inkscape:window-width="1920"
     inkscape:window-height="991"
     inkscape:window-x="-9"
     inkscape:window-y="-9"
     inkscape:window-maximized="1"
     inkscape:current-layer="svg38"
     showguides="true"><sodipodi:guide
       position="131.91961,163.31097"
       orientation="0,-1"
       id="guide38"
       inkscape:locked="false" /><sodipodi:guide
       position="145.3125,77.683162"
       orientation="0,-1"
       id="guide39"
       inkscape:locked="false" /></sodipodi:namedview><path
     fill-rule="evenodd"
     clip-rule="evenodd"
     d="M 103.425,42.3784 C 99.056,37.0733 92.5437,34 85.6712,34 H 28 C 21.3726,34 16,39.3726 16,46 V 58.1371 68.2 160 c 0,6.627 5.3726,12 12,12 h 200 c 6.627,0 12,-5.373 12,-12 V 70.1371 c 0,-6.6274 -5.373,-12 -12,-12 H 116.404 Z"
     fill="#46368F"
     id="path1"
     style="display:inline;fill:#ff9955" /><mask
     id="mask0_1939_31356"
     style="mask-type:alpha"
     maskUnits="userSpaceOnUse"
     x="17"
     y="34"
     width="224"
     height="138"><path
       fill-rule="evenodd"
       clip-rule="evenodd"
       d="M104.425 42.3784C100.056 37.0733 93.5437 34 86.6712 34H29C22.3726 34 17 39.3726 17 46V58.1371V68.2V160C17 166.627 22.3726 172 29 172H229C235.627 172 241 166.627 241 160V70.1371C241 63.5097 235.627 58.1371 229 58.1371H117.404L104.425 42.3784Z"
       fill="url(#paint0_linear_1939_31356)"
       id="path2" /></mask><g
     mask="url(#mask0_1939_31356)"
     id="g4"
     transform="translate(-1)"><g
       style="display:inline;mix-blend-mode:multiply"
       filter="url(#filter0_f_1939_31356)"
       id="g3"><path
         fill-rule="evenodd"
         clip-rule="evenodd"
         d="m 92.789,74 c 4.9752,0 9.816,-1.6132 13.797,-4.5976 L 116.459,62 H 229 c 6.627,0 12,5.3726 12,12 v 34 52 c 0,6.627 -5.373,12 -12,12 H 29 c -6.6274,0 -12,-5.373 -12,-12 V 108 86 c 0,-6.6274 5.3726,-12 12,-12 h 58 z"
         fill="#000000"
         fill-opacity="0.3"
         id="path3"
         style="display:inline" /></g></g><g
     filter="url(#filter1_ii_1939_31356)"
     id="g5"
     transform="translate(-1)"
     style="display:inline"><path
       fill-rule="evenodd"
       clip-rule="evenodd"
       d="m 92.789,74 c 4.9752,0 9.816,-1.6132 13.797,-4.5976 L 116.459,62 H 229 c 6.627,0 12,5.3726 12,12 v 34 90 c 0,6.627 -5.373,12 -12,12 H 29 c -6.6274,0 -12,-5.373 -12,-12 V 108 86 c 0,-6.6274 5.3726,-12 12,-12 h 58 z"
       fill="url(#paint1_linear_1939_31356)"
       id="path4"
       style="display:inline;fill:url(#paint1_linear_1939_31356)" /></g><mask
     id="mask1_1939_31356"
     style="mask-type:luminance"
     maskUnits="userSpaceOnUse"
     x="80"
     y="86"
     width="99"
     height="99"><path
       d="M80 86H179V185H80V86Z"
       fill="white"
       id="path5" /></mask><defs
     id="defs38"><filter
       id="filter0_f_1939_31356"
       x="-20"
       y="25"
       width="298"
       height="184"
       filterUnits="userSpaceOnUse"
       color-interpolation-filters="sRGB"><feFlood
         flood-opacity="0"
         result="BackgroundImageFix"
         id="feFlood14" /><feBlend
         mode="normal"
         in="SourceGraphic"
         in2="BackgroundImageFix"
         result="shape"
         id="feBlend14" /><feGaussianBlur
         stdDeviation="18.5"
         result="effect1_foregroundBlur_1939_31356"
         id="feGaussianBlur14" /></filter><filter
       id="filter1_ii_1939_31356"
       x="17"
       y="62"
       width="224"
       height="148"
       filterUnits="userSpaceOnUse"
       color-interpolation-filters="sRGB"><feFlood
         flood-opacity="0"
         result="BackgroundImageFix"
         id="feFlood15" /><feBlend
         mode="normal"
         in="SourceGraphic"
         in2="BackgroundImageFix"
         result="shape"
         id="feBlend15" /><feColorMatrix
         in="SourceAlpha"
         type="matrix"
         values="0 0 0 0 0 0 0 0 0 0 0 0 0 0 0 0 0 0 127 0"
         result="hardAlpha"
         id="feColorMatrix15" /><feOffset
         dy="4"
         id="feOffset15" /><feComposite
         in2="hardAlpha"
         operator="arithmetic"
         k2="-1"
         k3="1"
         id="feComposite15" /><feColorMatrix
         type="matrix"
         values="0 0 0 0 1 0 0 0 0 1 0 0 0 0 1 0 0 0 0.25 0"
         id="feColorMatrix16" /><feBlend
         mode="normal"
         in2="shape"
         result="effect1_innerShadow_1939_31356"
         id="feBlend16" /><feColorMatrix
         in="SourceAlpha"
         type="matrix"
         values="0 0 0 0 0 0 0 0 0 0 0 0 0 0 0 0 0 0 127 0"
         result="hardAlpha"
         id="feColorMatrix17" /><feOffset
         dy="-4"
         id="feOffset17" /><feComposite
         in2="hardAlpha"
         operator="arithmetic"
         k2="-1"
         k3="1"
         id="feComposite17" /><feColorMatrix
         type="matrix"
         values="0 0 0 0 0 0 0 0 0 0 0 0 0 0 0 0 0 0 0.9 0"
         id="feColorMatrix18" /><feBlend
         mode="soft-light"
         in2="effect1_innerShadow_1939_31356"
         result="effect2_innerShadow_1939_31356"
         id="feBlend18" /></filter><linearGradient
       id="paint0_linear_1939_31356"
       x1="17"
       y1="34"
       x2="197.768"
       y2="215.142"
       gradientUnits="userSpaceOnUse"><stop
         stop-color="#05815D"
         id="stop18" /><stop
         offset="1"
         stop-color="#0C575F"
         id="stop19" /></linearGradient><linearGradient
       id="paint1_linear_1939_31356"
       x1="17"
       y1="62"
       x2="241"
       y2="210"
       gradientUnits="userSpaceOnUse"><stop
         stop-color="#152370"
         id="stop20"
         offset="0"
         style="stop-color:#ffffff;stop-opacity:1" /><stop
         offset="1"
         stop-color="#3C0E6E"
         id="stop21"
         style="stop-color:#cccccc;stop-opacity:1" /></linearGradient><radialGradient
       id="paint2_radial_1939_31356"
       cx="0"
       cy="0"
       r="1"
       gradientUnits="userSpaceOnUse"
       gradientTransform="translate(111.169 176.84) rotate(-104.693) scale(44.9767 29.9681)"><stop
         stop-color="white"
         stop-opacity="0.4"
         id="stop22" /><stop
         offset="1"
         stop-opacity="0.1"
         id="stop23" /></radialGradient><radialGradient
       id="paint3_radial_1939_31356"
       cx="0"
       cy="0"
       r="1"
       gradientUnits="userSpaceOnUse"
       gradientTransform="translate(149.571 158.317) rotate(-82.4846) scale(73.9182 54.6113)"><stop
         stop-color="white"
         stop-opacity="0.6"
         id="stop24" /><stop
         offset="1"
         stop-color="white"
         stop-opacity="0.1"
         id="stop25" /></radialGradient><radialGradient
       id="paint4_radial_1939_31356"
       cx="0"
       cy="0"
       r="1"
       gradientUnits="userSpaceOnUse"
       gradientTransform="translate(113.877 145.324) rotate(-77.7949) scale(63.1081 43.1209)"><stop
         stop-color="white"
         stop-opacity="0.8"
         id="stop26" /><stop
         offset="1"
         stop-color="white"
         stop-opacity="0.4"
         id="stop27" /></radialGradient><radialGradient
       id="paint5_radial_1939_31356"
       cx="0"
       cy="0"
       r="1"
       gradientUnits="userSpaceOnUse"
       gradientTransform="translate(144.795 185.001) rotate(-120.496) scale(36.5776 42.0482)"><stop
         stop-color="white"
         stop-opacity="0.3"
         id="stop28" /><stop
         offset="1"
         stop-opacity="0.3"
         id="stop29" /></radialGradient><radialGradient
       id="paint6_radial_1939_31356"
       cx="0"
       cy="0"
       r="1"
       gradientUnits="userSpaceOnUse"
       gradientTransform="translate(139.903 110.749) rotate(102.236) scale(32.8438 22.1478)"><stop
         stop-color="white"
         stop-opacity="0"
         id="stop30" /><stop
         offset="1"
         stop-color="white"
         stop-opacity="0.2"
         id="stop31" /></radialGradient><radialGradient
       id="paint7_radial_1939_31356"
       cx="0"
       cy="0"
       r="1"
       gradientUnits="userSpaceOnUse"
       gradientTransform="translate(101.424 128.538) rotate(45.3237) scale(24.2008 51.5471)"><stop
         stop-color="white"
         stop-opacity="0.2"
         id="stop32" /><stop
         offset="1"
         stop-color="white"
         stop-opacity="0.4"
         id="stop33" /></radialGradient><radialGradient
       id="paint8_radial_1939_31356"
       cx="0"
       cy="0"
       r="1"
       gradientUnits="userSpaceOnUse"
       gradientTransform="translate(121.534 140.873) rotate(86.0397) scale(25.1969 53.5069)"><stop
         stop-color="white"
         stop-opacity="0.2"
         id="stop34" /><stop
         offset="1"
         stop-color="white"
         stop-opacity="0.3"
         id="stop35" /></radialGradient><radialGradient
       id="paint9_radial_1939_31356"
       cx="0"
       cy="0"
       r="1"
       gradientUnits="userSpaceOnUse"
       gradientTransform="translate(157.306 163.148) rotate(-152.289) scale(43.2451 136.048)"><stop
         stop-color="white"
         stop-opacity="0.2"
         id="stop36" /><stop
         offset="0.5"
         stop-color="white"
         stop-opacity="0.2"
         id="stop37" /><stop
         offset="1"
         stop-color="white"
         stop-opacity="0.3"
         id="stop38" /></radialGradient><linearGradient
       id="paint0_linear_1_523"
       x1="11.5049"
       y1="8.1918497"
       x2="34.669601"
       y2="36.0355"
       gradientUnits="userSpaceOnUse"
       gradientTransform="translate(254.32571,71.076662)"><stop
         stop-color="#FFCB00"
         id="stop11" /><stop
         offset="1"
         stop-color="#FF363D"
         id="stop12" /></linearGradient><linearGradient
       id="paint1_linear_1_523"
       x1="19.197001"
       y1="23.831499"
       x2="22.955601"
       y2="15.6416"
       gradientUnits="userSpaceOnUse"
       gradientTransform="translate(254.32571,71.076662)"><stop
         stop-color="#FF363D"
         id="stop13" /><stop
         offset="1"
         stop-color="#FFCB00"
         id="stop14" /></linearGradient><linearGradient
       id="paint0_linear_1_523-1"
       x1="11.5049"
       y1="8.19185"
       x2="34.6696"
       y2="36.0355"
       gradientUnits="userSpaceOnUse"
       gradientTransform="translate(193.14909,94.99934)"><stop
         stop-color="#FFCB00"
         id="stop11-1" /><stop
         offset="1"
         stop-color="#FF363D"
         id="stop12-5" /></linearGradient><linearGradient
       id="paint1_linear_1_523-2"
       x1="19.197"
       y1="23.8315"
       x2="22.9556"
       y2="15.6416"
       gradientUnits="userSpaceOnUse"
       gradientTransform="translate(193.14909,94.99934)"><stop
         stop-color="#FF363D"
         id="stop13-7" /><stop
         offset="1"
         stop-color="#FFCB00"
         id="stop14-6" /></linearGradient></defs><g
     id="g1"
     inkscape:label="logo"
     transform="matrix(2.5071487,0,0,2.5071487,-408.90852,-157.83346)"><path
       fill-rule="evenodd"
       clip-rule="evenodd"
       d="m 227.084,116.38664 c 0,0 -0.21931,-0.0171 -0.35981,-0.0281 -0.14059,-0.0109 -0.3599,-0.028 -0.3599,-0.028 -1.71479,5e-4 -3.1282,0.7401 -4.37789,1.5251 -0.32161,0.2021 -0.62911,0.4042 -0.92871,0.6011 -0.9114,0.599 -1.74919,1.1497 -2.68519,1.5017 l -0.0106,0.004 -0.0105,0.004 c -2.24949,0.928 -4.93679,0.8187 -6.76529,-0.6786 l -0.007,-0.005 -0.007,-0.005 c -2.57981,-2.0101 -3.3012,-5.4178 -1.7916,-8.3244 l 0.002,-0.003 0.002,-0.003 c 1.3401,-2.6489 4.0108,-3.9354 7.0333,-4.3297 l 0.002,-3e-4 0.002,-3e-4 c 0.0167,-0.002 0.0335,-0.005 0.0505,-0.007 0.6573,-0.0899 1.5196,-0.2078 2.2505,-0.541 0.7983,-0.364 1.4985,-1.0131 1.669,-2.14162 l 0.001,-0.009 0.001,-0.009 c 0.1183,-0.93703 -0.0721,-1.72705 -0.5338,-2.35127 -0.4495,-0.60772 -1.1006,-0.98296 -1.7709,-1.21693 -1.322,-0.46148 -2.95161,-0.45233 -4.0803,-0.3828 l -0.005,3.1e-4 -0.005,3.9e-4 c -3.3998,0.25774 -6.6743,1.65622 -9.3109,3.75502 l -0.002,10e-4 -0.002,0.001 c -2.7543,2.21805 -4.70543,5.34085 -5.65678,8.70905 l -2.1e-4,7e-4 -2.1e-4,8e-4 c -1.19374,4.2612 -0.58939,8.9616 1.53388,12.819 1.87527,3.4352 4.99283,6.1086 8.57913,7.5873 6.1393,2.5738 13.7811,1.0621 18.4512,-3.697 l 0.006,-0.006 0.005,-0.006 c 1.77889,-1.8945 3.43339,-4.4151 3.47749,-7.287 0.0499,-2.5468 -1.792,-5.0497 -4.39709,-5.451 z"
       fill="url(#paint0_linear_1_523)"
       id="path1-2"
       style="display:inline;fill:url(#paint0_linear_1_523-1)"
       transform="translate(-1)" /><path
       fill-rule="evenodd"
       clip-rule="evenodd"
       d="m 211.2599,113.92424 c 0,-2.4063 1.9501,-4.357 4.35559,-4.357 2.40561,0 4.35561,1.9507 4.35561,4.357 0,2.4063 -1.95,4.357 -4.35561,4.357 -2.40549,0 -4.35559,-1.9507 -4.35559,-4.357 z"
       fill="url(#paint1_linear_1_523)"
       id="path2-3"
       style="display:inline;fill:url(#paint1_linear_1_523-2)"
       transform="translate(-1)" /></g></svg>
