<svg width="256" height="256" viewBox="0 0 256 256" fill="none" xmlns="http://www.w3.org/2000/svg">
<path fill-rule="evenodd" clip-rule="evenodd" d="M104.425 42.3784C100.056 37.0733 93.5437 34 86.6712 34H29C22.3726 34 17 39.3726 17 46V58.1371V68.2V160C17 166.627 22.3726 172 29 172H229C235.627 172 241 166.627 241 160V70.1371C241 63.5097 235.627 58.1371 229 58.1371H117.404L104.425 42.3784Z" fill="url(#paint0_linear_1708_29211)"/>
<mask id="mask0_1708_29211" style="mask-type:alpha" maskUnits="userSpaceOnUse" x="17" y="34" width="224" height="138">
<path fill-rule="evenodd" clip-rule="evenodd" d="M104.425 42.3784C100.056 37.0733 93.5437 34 86.6712 34H29C22.3726 34 17 39.3726 17 46V58.1371V68.2V160C17 166.627 22.3726 172 29 172H229C235.627 172 241 166.627 241 160V70.1371C241 63.5097 235.627 58.1371 229 58.1371H117.404L104.425 42.3784Z" fill="url(#paint1_linear_1708_29211)"/>
</mask>
<g mask="url(#mask0_1708_29211)">
<g style="mix-blend-mode:multiply" filter="url(#filter0_f_1708_29211)">
<path fill-rule="evenodd" clip-rule="evenodd" d="M92.789 74C97.7642 74 102.605 72.3868 106.586 69.4024L116.459 62H229C235.627 62 241 67.3726 241 74V108V160C241 166.627 235.627 172 229 172H29C22.3726 172 17 166.627 17 160L17 108V86C17 79.3726 22.3726 74 29 74H87H92.789Z" fill="black" fill-opacity="0.3"/>
</g>
</g>
<path d="M17 186H241V198C241 204.627 235.627 210 229 210H29C22.3726 210 17 204.627 17 198V186Z" fill="#023568"/>
<path d="M17 177H241V189C241 195.627 235.627 201 229 201H29C22.3726 201 17 195.627 17 189V177Z" fill="#024E9B"/>
<g filter="url(#filter1_i_1708_29211)">
<path d="M92.7891 74C97.7637 74 102.605 72.3867 106.586 69.4023L116.459 62H229C235.627 62 241 67.373 241 74V179C241 185.627 235.627 191 229 191H29C22.373 191 17 185.627 17 179V86C17 79.373 22.373 74 29 74H92.7891Z" fill="url(#paint2_linear_1708_29211)"/>
</g>
<g filter="url(#filter2_i_1708_29211)">
<path d="M171 65.0833C171 63.3805 172.479 62 174.304 62H184.875V71.25H174.304C172.479 71.25 171 69.8695 171 68.1667V65.0833Z" fill="white"/>
<path d="M198.75 77.4167C198.75 79.1196 197.271 80.5 195.446 80.5H184.875V71.25H195.446C197.271 71.25 198.75 72.6305 198.75 74.3333V77.4167Z" fill="white"/>
<path d="M171 83.5833C171 81.8804 172.479 80.5 174.304 80.5H184.875V89.75H174.304C172.479 89.75 171 88.3696 171 86.6667V83.5833Z" fill="white"/>
<path d="M198.75 95.9167C198.75 97.6196 197.271 99 195.446 99H184.875V89.75H195.446C197.271 89.75 198.75 91.1304 198.75 92.8333V95.9167Z" fill="white"/>
<path d="M171 102.083C171 100.38 172.479 99 174.304 99H184.875V108.25H174.304C172.479 108.25 171 106.87 171 105.167V102.083Z" fill="white"/>
<path d="M198.75 114.417C198.75 116.12 197.271 117.5 195.446 117.5H184.875V108.25H195.446C197.271 108.25 198.75 109.63 198.75 111.333V114.417Z" fill="white"/>
</g>
<g filter="url(#filter3_d_1708_29211)">
<path d="M194.414 126.895H175.336C172.941 126.895 171 128.836 171 131.23V150.164C171 152.559 172.941 154.5 175.336 154.5H194.414C196.809 154.5 198.75 152.559 198.75 150.164V131.23C198.75 128.836 196.809 126.895 194.414 126.895Z" fill="white"/>
<path d="M179.47 133.232C180.416 133.232 181.186 133.989 181.207 134.93C181.207 134.943 181.207 134.957 181.207 134.97C181.207 135.173 181.172 135.369 181.108 135.55C180.869 136.224 180.226 136.707 179.47 136.707C178.714 136.707 178.07 136.224 177.832 135.55C177.767 135.369 177.732 135.173 177.732 134.97C177.732 134.957 177.733 134.943 177.733 134.93C177.754 133.989 178.523 133.232 179.47 133.232Z" fill="#0475D9"/>
<path d="M179.47 145.469C180.23 145.469 180.876 145.957 181.112 146.637C181.173 146.815 181.207 147.007 181.207 147.206C181.207 148.166 180.429 148.943 179.47 148.943C178.51 148.943 177.732 148.166 177.732 147.206C177.732 147.007 177.766 146.815 177.828 146.637C178.063 145.957 178.709 145.469 179.47 145.469Z" fill="#0475D9"/>
<path d="M177.832 135.549C177.958 137.169 178.049 139.575 178.049 140.852C178.049 142.451 177.956 145.063 177.828 146.636C178.064 145.956 178.71 145.467 179.47 145.467C180.231 145.467 180.877 145.956 181.112 146.636C180.984 145.063 180.892 142.451 180.892 140.852C180.892 139.575 180.982 137.169 181.108 135.549C180.869 136.223 180.226 136.706 179.47 136.706C178.714 136.706 178.071 136.223 177.832 135.549Z" fill="#0475D9"/>
<path fill-rule="evenodd" clip-rule="evenodd" d="M177.733 134.93C177.767 134.932 177.801 135.149 177.832 135.549L177.733 134.93ZM177.732 134.93C177.733 134.93 177.733 134.93 177.733 134.93C177.733 134.943 177.732 134.956 177.732 134.969C177.732 135.173 177.767 135.368 177.832 135.549M177.828 146.637C177.798 147.006 177.766 147.205 177.732 147.205C177.732 147.006 177.766 146.815 177.828 146.637Z" fill="#0475D9"/>
<path fill-rule="evenodd" clip-rule="evenodd" d="M181.207 134.93C181.207 134.93 181.206 134.93 181.206 134.93C181.172 134.932 181.138 135.149 181.107 135.549C181.172 135.368 181.207 135.173 181.207 134.969C181.207 134.956 181.207 134.943 181.206 134.93M181.207 147.205C181.174 147.205 181.142 147.006 181.111 146.637C181.173 146.815 181.207 147.006 181.207 147.205Z" fill="#0475D9"/>
<path d="M190.684 133.232C191.63 133.232 192.399 133.989 192.42 134.93C192.421 134.943 192.421 134.957 192.421 134.97C192.421 135.173 192.386 135.369 192.322 135.55C192.083 136.224 191.44 136.707 190.684 136.707C189.928 136.707 189.284 136.224 189.046 135.55C188.981 135.369 188.946 135.173 188.946 134.97C188.946 134.957 188.946 134.943 188.947 134.93C188.968 133.989 189.737 133.232 190.684 133.232Z" fill="#0475D9"/>
<path d="M190.684 145.469C191.444 145.469 192.09 145.957 192.326 146.637C192.387 146.815 192.421 147.007 192.421 147.206C192.421 148.166 191.643 148.943 190.684 148.943C189.724 148.943 188.946 148.166 188.946 147.206C188.946 147.007 188.98 146.815 189.042 146.637C189.277 145.957 189.923 145.469 190.684 145.469Z" fill="#0475D9"/>
<path d="M189.046 135.549C189.172 137.169 189.263 139.575 189.263 140.852C189.263 142.451 189.17 145.063 189.042 146.636C189.277 145.956 189.924 145.467 190.684 145.467C191.444 145.467 192.091 145.956 192.326 146.636C192.198 145.063 192.105 142.451 192.105 140.852C192.105 139.575 192.196 137.169 192.322 135.549C192.083 136.223 191.44 136.706 190.684 136.706C189.928 136.706 189.285 136.223 189.046 135.549Z" fill="#0475D9"/>
<path fill-rule="evenodd" clip-rule="evenodd" d="M188.947 134.93C188.981 134.932 189.015 135.149 189.046 135.549L188.947 134.93ZM188.946 134.93C188.946 134.93 188.947 134.93 188.947 134.93C188.946 134.943 188.946 134.956 188.946 134.969C188.946 135.173 188.981 135.368 189.046 135.549M189.042 146.637C189.011 147.006 188.979 147.205 188.946 147.205C188.946 147.006 188.98 146.815 189.042 146.637Z" fill="#0475D9"/>
<path fill-rule="evenodd" clip-rule="evenodd" d="M192.421 134.93C192.42 134.93 192.42 134.93 192.42 134.93C192.386 134.932 192.352 135.149 192.321 135.549C192.386 135.368 192.421 135.173 192.421 134.969C192.421 134.956 192.42 134.943 192.42 134.93M192.421 147.205C192.387 147.205 192.355 147.006 192.325 146.637C192.387 146.815 192.421 147.006 192.421 147.205Z" fill="#0475D9"/>
<path d="M178.236 133.913C178.905 133.244 179.985 133.235 180.665 133.886C180.674 133.895 180.684 133.904 180.693 133.913C180.837 134.057 180.951 134.22 181.033 134.394C181.341 135.039 181.228 135.836 180.693 136.37C180.159 136.905 179.362 137.018 178.717 136.71C178.543 136.627 178.38 136.514 178.236 136.37C178.227 136.361 178.218 136.351 178.209 136.342C177.558 135.661 177.567 134.582 178.236 133.913Z" fill="#0475D9"/>
<path d="M189.154 144.831C189.692 144.293 190.494 144.182 191.142 144.496C191.311 144.579 191.47 144.69 191.611 144.831C192.29 145.51 192.29 146.61 191.611 147.288C190.933 147.966 189.833 147.966 189.154 147.288C189.013 147.147 188.902 146.988 188.82 146.819C188.505 146.171 188.617 145.369 189.154 144.831Z" fill="#0475D9"/>
<path d="M178.717 136.711C179.952 137.768 183.28 140.968 184.183 141.871C185.314 143.002 187.797 145.616 188.819 146.819C188.504 146.171 188.616 145.369 189.154 144.831C189.691 144.294 190.494 144.182 191.141 144.497C189.938 143.475 187.324 140.992 186.193 139.861C185.291 138.958 182.09 135.629 181.033 134.395C181.341 135.04 181.228 135.836 180.693 136.371C180.158 136.905 179.362 137.019 178.717 136.711Z" fill="#0475D9"/>
<path fill-rule="evenodd" clip-rule="evenodd" d="M178.209 136.342C178.235 136.319 178.412 136.45 178.717 136.711L178.209 136.342ZM178.209 136.343C178.209 136.343 178.209 136.343 178.209 136.342C178.218 136.352 178.227 136.361 178.237 136.371C178.381 136.515 178.544 136.628 178.717 136.711M188.819 146.819C189.06 147.101 189.178 147.265 189.154 147.288C189.013 147.147 188.902 146.988 188.819 146.819Z" fill="#0475D9"/>
<path fill-rule="evenodd" clip-rule="evenodd" d="M180.665 133.887C180.665 133.887 180.665 133.887 180.665 133.887C180.642 133.913 180.772 134.09 181.033 134.395C180.95 134.221 180.837 134.059 180.693 133.915C180.684 133.905 180.674 133.896 180.665 133.887M191.61 144.832C191.587 144.855 191.423 144.737 191.141 144.497C191.31 144.58 191.47 144.691 191.61 144.832Z" fill="#0475D9"/>
</g>
<defs>
<filter id="filter0_f_1708_29211" x="-20" y="25" width="298" height="184" filterUnits="userSpaceOnUse" color-interpolation-filters="sRGB">
<feFlood flood-opacity="0" result="BackgroundImageFix"/>
<feBlend mode="normal" in="SourceGraphic" in2="BackgroundImageFix" result="shape"/>
<feGaussianBlur stdDeviation="18.5" result="effect1_foregroundBlur_1708_29211"/>
</filter>
<filter id="filter1_i_1708_29211" x="17" y="62" width="224" height="129" filterUnits="userSpaceOnUse" color-interpolation-filters="sRGB">
<feFlood flood-opacity="0" result="BackgroundImageFix"/>
<feBlend mode="normal" in="SourceGraphic" in2="BackgroundImageFix" result="shape"/>
<feColorMatrix in="SourceAlpha" type="matrix" values="0 0 0 0 0 0 0 0 0 0 0 0 0 0 0 0 0 0 127 0" result="hardAlpha"/>
<feOffset dy="4"/>
<feComposite in2="hardAlpha" operator="arithmetic" k2="-1" k3="1"/>
<feColorMatrix type="matrix" values="0 0 0 0 1 0 0 0 0 1 0 0 0 0 1 0 0 0 0.25 0"/>
<feBlend mode="normal" in2="shape" result="effect1_innerShadow_1708_29211"/>
</filter>
<filter id="filter2_i_1708_29211" x="171" y="62" width="27.75" height="57.5234" filterUnits="userSpaceOnUse" color-interpolation-filters="sRGB">
<feFlood flood-opacity="0" result="BackgroundImageFix"/>
<feBlend mode="normal" in="SourceGraphic" in2="BackgroundImageFix" result="shape"/>
<feColorMatrix in="SourceAlpha" type="matrix" values="0 0 0 0 0 0 0 0 0 0 0 0 0 0 0 0 0 0 127 0" result="hardAlpha"/>
<feOffset dy="2.02344"/>
<feGaussianBlur stdDeviation="1.01172"/>
<feComposite in2="hardAlpha" operator="arithmetic" k2="-1" k3="1"/>
<feColorMatrix type="matrix" values="0 0 0 0 0 0 0 0 0 0 0 0 0 0 0 0 0 0 0.25 0"/>
<feBlend mode="normal" in2="shape" result="effect1_innerShadow_1708_29211"/>
</filter>
<filter id="filter3_d_1708_29211" x="168.688" y="126.316" width="32.375" height="32.2305" filterUnits="userSpaceOnUse" color-interpolation-filters="sRGB">
<feFlood flood-opacity="0" result="BackgroundImageFix"/>
<feColorMatrix in="SourceAlpha" type="matrix" values="0 0 0 0 0 0 0 0 0 0 0 0 0 0 0 0 0 0 127 0" result="hardAlpha"/>
<feOffset dy="1.73438"/>
<feGaussianBlur stdDeviation="1.15625"/>
<feColorMatrix type="matrix" values="0 0 0 0 0 0 0 0 0 0 0 0 0 0 0 0 0 0 0.25 0"/>
<feBlend mode="normal" in2="BackgroundImageFix" result="effect1_dropShadow_1708_29211"/>
<feBlend mode="normal" in="SourceGraphic" in2="effect1_dropShadow_1708_29211" result="shape"/>
</filter>
<linearGradient id="paint0_linear_1708_29211" x1="129" y1="34" x2="129" y2="172" gradientUnits="userSpaceOnUse">
<stop stop-color="#104C88"/>
<stop offset="1" stop-color="#023568"/>
</linearGradient>
<linearGradient id="paint1_linear_1708_29211" x1="17" y1="34" x2="197.768" y2="215.142" gradientUnits="userSpaceOnUse">
<stop stop-color="#05815D"/>
<stop offset="1" stop-color="#0C575F"/>
</linearGradient>
<linearGradient id="paint2_linear_1708_29211" x1="50" y1="52.5" x2="236.5" y2="194.5" gradientUnits="userSpaceOnUse">
<stop stop-color="#0188E2"/>
<stop offset="1" stop-color="#0267AD"/>
</linearGradient>
</defs>
</svg>
