<?xml version="1.0" encoding="UTF-8" standalone="no"?>
<!-- Created with Inkscape (http://www.inkscape.org/) -->

<svg
   version="1.1"
   id="svg1"
   width="341.33334"
   height="341.33334"
   viewBox="0 0 341.33334 341.33334"
   sodipodi:docname="sharex.svg"
   xml:space="preserve"
   inkscape:version="1.4 (86a8ad7, 2024-10-11)"
   xmlns:inkscape="http://www.inkscape.org/namespaces/inkscape"
   xmlns:sodipodi="http://sodipodi.sourceforge.net/DTD/sodipodi-0.dtd"
   xmlns="http://www.w3.org/2000/svg"
   xmlns:svg="http://www.w3.org/2000/svg"><defs
     id="defs1"><clipPath
       clipPathUnits="userSpaceOnUse"
       id="clipPath2"><path
         d="M 0,256 H 256 V 0 H 0 Z"
         transform="translate(-104.425,-213.62161)"
         id="path2" /></clipPath><mask
       maskUnits="userSpaceOnUse"
       x="0"
       y="0"
       width="1"
       height="1"
       id="mask2"><path
         id="path3"
         d="M 17,194 H 241 V 84 H 17 Z"
         style="fill:#000000;fill-opacity:1;fill-rule:nonzero;stroke:none"
         transform="matrix(1.3333333,0,0,-1.3333333,0,341.33333)"
         clip-path="url(#clipPath4)" /><path
         d="M 104.425,213.622 C 100.056,218.927 93.544,222 86.671,222 H 29 c -6.627,0 -12,-5.373 -12,-12 V 197.863 187.8 96 c 0,-6.627 5.373,-12 12,-12 h 200 c 6.627,0 12,5.373 12,12 v 89.863 c 0,6.627 -5.373,12 -12,12 H 117.404 Z"
         transform="matrix(1.3333333,0,0,-1.3333333,0,341.33333)"
         style="fill:url(#linearGradient5);fill-rule:evenodd;stroke:none"
         opacity="1"
         id="path5"
         clip-path="url(#clipPath6)" /></mask><clipPath
       clipPathUnits="userSpaceOnUse"
       id="clipPath4"><path
         d="M 17,194 H 241 V 84 H 17 Z"
         id="path4" /></clipPath><linearGradient
       x1="0"
       y1="0"
       x2="1"
       y2="0"
       gradientUnits="userSpaceOnUse"
       gradientTransform="matrix(180.76801,-181.142,181.142,180.76801,32.581543,237.54932)"
       spreadMethod="pad"
       id="linearGradient5"><stop
         style="stop-opacity:1;stop-color:#05815d"
         offset="0"
         id="stop4" /><stop
         style="stop-opacity:1;stop-color:#0c575f"
         offset="1"
         id="stop5" /></linearGradient><clipPath
       clipPathUnits="userSpaceOnUse"
       id="clipPath6"><path
         d="M 17,194 H 241 V 84 H 17 Z"
         id="path6" /></clipPath><clipPath
       clipPathUnits="userSpaceOnUse"
       id="clipPath7"><path
         d="M 17,194 H 241 V 84 H 17 Z"
         transform="translate(-92.789005,-182)"
         id="path7" /></clipPath><clipPath
       clipPathUnits="userSpaceOnUse"
       id="clipPath9"><path
         d="M 0,256 H 256 V 0 H 0 Z"
         transform="matrix(1.3333333,0,0,-1.3333333,0,341.33333)"
         id="path9" /></clipPath><linearGradient
       x1="0"
       y1="0"
       x2="1"
       y2="0"
       gradientUnits="userSpaceOnUse"
       gradientTransform="matrix(223.99998,-147.99998,147.99998,223.99998,16.999996,194)"
       spreadMethod="pad"
       id="linearGradient11"><stop
         style="stop-color:#353434;stop-opacity:1;"
         offset="0"
         id="stop9" /><stop
         style="stop-color:#1d1c1c;stop-opacity:1;"
         offset="1"
         id="stop11" /></linearGradient><linearGradient
       x1="0"
       y1="0"
       x2="1"
       y2="0"
       gradientUnits="userSpaceOnUse"
       gradientTransform="matrix(224.01749,-2.5002055,2.5002055,224.01749,16.925417,55.317421)"
       spreadMethod="pad"
       id="linearGradient13"><stop
         style="stop-opacity:1;stop-color:#333333"
         offset="0"
         id="stop12" /><stop
         style="stop-opacity:1;stop-color:#4d4d4d"
         offset="1"
         id="stop13" /></linearGradient><linearGradient
       x1="0"
       y1="0"
       x2="1"
       y2="0"
       gradientUnits="userSpaceOnUse"
       gradientTransform="matrix(224,0,0,224,17,180)"
       spreadMethod="pad"
       id="linearGradient15"><stop
         style="stop-opacity:1;stop-color:#ffecb5"
         offset="0"
         id="stop14" /><stop
         style="stop-opacity:1;stop-color:#ffde82"
         offset="1"
         id="stop15" /></linearGradient><style
       id="style1">.cls-1{fill:url(#radial-gradient);}.cls-2{fill:url(#radial-gradient-2);}.cls-3{fill:url(#radial-gradient-3);}.cls-4{fill:url(#radial-gradient-4);}.cls-5{fill:url(#radial-gradient-5);}.cls-6{fill:url(#radial-gradient-6);}.cls-7{fill:url(#radial-gradient-7);}.cls-8{fill:url(#radial-gradient-8);}</style><radialGradient
       id="radial-gradient"
       cx="200"
       cy="-16032.74"
       r="157.31"
       gradientTransform="matrix(1,0,0,-1,0,-15882)"
       gradientUnits="userSpaceOnUse"><stop
         offset="0"
         stop-color="#00bacf"
         id="stop1" /><stop
         offset="1"
         stop-color="#3675ff"
         id="stop2" /></radialGradient><radialGradient
       id="radial-gradient-2"
       cx="200"
       cy="-16080.24"
       r="140.23"
       gradientTransform="matrix(1,0,0,-1,0,-15882)"
       gradientUnits="userSpaceOnUse"><stop
         offset="0.24"
         stop-color="#38a8eb"
         id="stop3" /><stop
         offset="1"
         stop-color="#2155c7"
         id="stop4-0" /></radialGradient><radialGradient
       id="radial-gradient-3"
       cx="150.74"
       cy="-16182"
       r="157.31"
       gradientTransform="matrix(1,0,0,-1,0,-15882)"
       gradientUnits="userSpaceOnUse"><stop
         offset="0"
         stop-color="#ff5042"
         id="stop5-9" /><stop
         offset="1"
         stop-color="#f71812"
         id="stop6" /></radialGradient><radialGradient
       id="radial-gradient-4"
       cx="198.24"
       cy="-16182"
       r="140.23"
       gradientTransform="matrix(1,0,0,-1,0,-15882)"
       gradientUnits="userSpaceOnUse"><stop
         offset="0.4"
         stop-color="#d94343"
         id="stop7" /><stop
         offset="1"
         stop-color="#a00"
         id="stop8" /></radialGradient><radialGradient
       id="radial-gradient-5"
       cx="300"
       cy="-16231.26"
       r="157.31"
       gradientTransform="matrix(1,0,0,-1,0,-15882)"
       gradientUnits="userSpaceOnUse"><stop
         offset="0"
         stop-color="#f6ff00"
         id="stop9-4" /><stop
         offset="1"
         stop-color="#ffab00"
         id="stop10-8" /></radialGradient><radialGradient
       id="radial-gradient-6"
       cx="300"
       cy="-16183.76"
       r="140.23"
       gradientTransform="matrix(1,0,0,-1,0,-15882)"
       gradientUnits="userSpaceOnUse"><stop
         offset="0.22"
         stop-color="#f7ff1e"
         id="stop11-8" /><stop
         offset="1"
         stop-color="#d6751d"
         id="stop12-2" /></radialGradient><radialGradient
       id="radial-gradient-7"
       cx="349.26"
       cy="-16082"
       r="157.31"
       gradientTransform="matrix(1,0,0,-1,0,-15882)"
       gradientUnits="userSpaceOnUse"><stop
         offset="0"
         stop-color="#14e620"
         id="stop13-4" /><stop
         offset="1"
         stop-color="#00a822"
         id="stop14-5" /></radialGradient><radialGradient
       id="radial-gradient-8"
       cx="301.76"
       cy="-16082"
       r="140.23"
       gradientTransform="matrix(1,0,0,-1,0,-15882)"
       gradientUnits="userSpaceOnUse"><stop
         offset="0.21"
         stop-color="#59d941"
         id="stop15-5" /><stop
         offset="1"
         stop-color="#148200"
         id="stop16" /></radialGradient></defs><sodipodi:namedview
     id="namedview1"
     pagecolor="#505050"
     bordercolor="#eeeeee"
     borderopacity="1"
     inkscape:showpageshadow="0"
     inkscape:pageopacity="0"
     inkscape:pagecheckerboard="0"
     inkscape:deskcolor="#505050"
     inkscape:zoom="1.6013482"
     inkscape:cx="136.13529"
     inkscape:cy="190.15227"
     inkscape:window-width="1920"
     inkscape:window-height="991"
     inkscape:window-x="-9"
     inkscape:window-y="-9"
     inkscape:window-maximized="1"
     inkscape:current-layer="layer-MC0"><inkscape:page
       x="0"
       y="0"
       inkscape:label="1"
       id="page1"
       width="341.33334"
       height="341.33334"
       margin="61.333332 20 45.333332 22.666666"
       bleed="0" /></sodipodi:namedview><g
     id="layer-MC0"
     inkscape:groupmode="layer"
     inkscape:label="Layer 1"><path
       id="path1"
       d="m 0,0 c -4.369,5.305 -10.881,8.378 -17.754,8.378 h -57.671 c -6.627,0 -12,-5.372 -12,-12 v -12.137 -10.063 -91.8 c 0,-6.627 5.373,-12 12,-12 h 200 c 6.627,0 12,5.373 12,12 v 89.863 c 0,6.628 -5.373,12 -12,12 H 12.979 Z"
       style="fill:#cdcaca;fill-opacity:1;fill-rule:evenodd;stroke:none"
       transform="matrix(1.3333333,0,0,-1.3333333,139.23333,56.504533)"
       clip-path="url(#clipPath2)" /><g
       mask="url(#mask2)"
       id="g9"
       clip-path="url(#clipPath9)"><g
         id="g8"><path
           d="M 0,0 C 4.975,0 9.816,1.613 13.797,4.598 L 23.67,12 h 112.541 c 6.627,0 12,-5.373 12,-12 v -34 -52 c 0,-6.627 -5.373,-12 -12,-12 h -200 c -6.627,0 -12,5.373 -12,12 v 52 22 c 0,6.627 5.373,12 12,12 h 58 z"
           style="fill:#a6a1a1;fill-opacity:1;fill-rule:evenodd;stroke:none"
           transform="matrix(1.3333333,0,0,-1.3333333,123.71867,98.666667)"
           clip-path="url(#clipPath7)"
           id="path8" /></g></g><path
       id="path11"
       d="m 116.459,194 -9.873,-7.402 C 102.605,183.613 97.764,182 92.789,182 v 0 H 87 29 c -6.628,0 -12,-5.372 -12,-12 v 0 -22 -90 c 0,-6.627 5.372,-12 12,-12 v 0 h 200 c 6.627,0 12,5.373 12,12 v 0 90 34 c 0,6.627 -5.373,12 -12,12 v 0 z"
       transform="matrix(1.3333333,0,0,-1.3333333,0,341.33333)"
       style="fill:url(#linearGradient11);stroke:none" /><path
       id="path13"
       d="M 229,50 H 29 c -6.628,0 -12,5.372 -12,12 v 0 -4 c 0,-6.627 5.372,-12 12,-12 v 0 h 200 c 6.627,0 12,5.373 12,12 v 0 4 c 0,-6.628 -5.373,-12 -12,-12"
       transform="matrix(1.3333333,0,0,-1.3333333,0,341.33333)"
       style="fill:#000000;stroke:none;fill-opacity:1" /><path
       id="path15"
       d="m 116.459,194 -9.873,-7.402 C 102.605,183.613 97.764,182 92.789,182 v 0 H 87 29 c -6.628,0 -12,-5.372 -12,-12 v 0 -4 c 0,6.627 5.372,12 12,12 v 0 h 58 5.789 c 4.975,0 9.816,1.613 13.797,4.597 v 0 L 116.459,190 H 229 c 6.627,0 12,-5.372 12,-12 v 0 4 c 0,6.627 -5.373,12 -12,12 v 0 z"
       transform="matrix(1.3333333,0,0,-1.3333333,0,341.33333)"
       style="fill:#646363;stroke:none;fill-opacity:1" /></g><g
     id="g15"
     transform="matrix(0.25981571,0,0,0.25981571,112.24239,123.57572)"
     style="display:inline"
     inkscape:label="logo"><path
       class="cls-1"
       d="M 380,176.62 C 378.45,110.16 331.32,53.62 265.26,30.83 A 199.47,199.47 0 0 0 200,20 C 100.59,20 20,91.63 20,180 a 143.93,143.93 0 0 0 10.83,54.79 C 53.67,168.73 110.16,121.6 176.62,120 c 1.12,0 2.25,0 3.38,0 38.52,0 73.87,15.32 101.48,40.84 A 171.24,171.24 0 0 1 299.22,180 c 21.92,27.53 36.42,62.7 39.95,101.53 C 364.68,253.87 380,218.52 380,180 c 0,-1.13 0,-2.25 0,-3.38 z"
       transform="translate(-20,-20)"
       id="path16"
       style="fill:url(#radial-gradient)" /><path
       class="cls-2"
       d="m 339.16,276.48 c -3.53,-38.83 -18,-74 -39.95,-101.53 A 171.24,171.24 0 0 0 281.48,155.84 C 253.87,130.32 218.52,115 180,115 c -1.13,0 -2.25,0 -3.38,0 -66.46,1.55 -123,48.68 -145.79,114.74 A 144,144 0 0 1 20,177.67 c 0,0.78 0,1.55 0,2.33 a 143.93,143.93 0 0 0 10.83,54.79 C 53.67,168.73 110.16,121.6 176.62,120 c 1.12,0 2.25,0 3.38,0 38.52,0 73.87,15.32 101.48,40.84 A 171.24,171.24 0 0 1 299.22,180 c 21.92,27.53 36.42,62.7 39.95,101.53 C 364.68,253.87 380,218.52 380,180 c 0,-0.78 0,-1.55 0,-2.33 -0.72,37.49 -15.91,71.84 -40.84,98.81 z"
       transform="translate(-20,-20)"
       id="path17"
       style="fill:url(#radial-gradient-2)" /><path
       class="cls-3"
       d="m 120,323.38 c 0,-1.12 0,-2.25 0,-3.38 0,-38.52 15.32,-73.87 40.84,-101.48 29.33,-31.74 72.13,-53.27 120.64,-57.68 C 253.87,135.32 218.52,120 180,120 c -1.13,0 -2.25,0 -3.38,0 -66.46,1.55 -123,48.68 -145.79,114.74 A 199.47,199.47 0 0 0 20,300 c 0,99.41 71.63,180 160,180 a 143.93,143.93 0 0 0 54.79,-10.83 C 168.73,446.33 121.6,389.84 120,323.38 Z"
       transform="translate(-20,-20)"
       id="path18"
       style="fill:url(#radial-gradient-3)" /><path
       class="cls-4"
       d="m 120,323.38 c 0,-1.12 0,-2.25 0,-3.38 0,-38.52 15.32,-73.87 40.84,-101.48 29.33,-31.74 72.13,-53.27 120.64,-57.68 C 253.87,135.32 218.52,120 180,120 c -0.78,0 -1.55,0 -2.33,0 37.49,0.69 71.84,15.88 98.81,40.8 -48.51,4.41 -91.31,25.94 -120.64,57.68 -25.52,27.65 -40.84,63 -40.84,101.52 0,1.13 0,2.25 0,3.38 1.55,66.46 48.68,123 114.74,145.79 A 144,144 0 0 1 177.67,480 c 0.78,0 1.55,0 2.33,0 a 143.93,143.93 0 0 0 54.79,-10.83 C 168.73,446.33 121.6,389.84 120,323.38 Z"
       transform="translate(-20,-20)"
       id="path19"
       style="fill:url(#radial-gradient-4)" /><path
       class="cls-5"
       d="M 469.17,265.21 C 446.33,331.27 389.84,378.4 323.38,380 c -1.12,0 -2.25,0 -3.38,0 -38.52,0 -73.87,-15.32 -101.48,-40.84 C 186.78,309.83 165.25,267.03 160.84,218.52 135.32,246.13 120,281.48 120,320 c 0,1.13 0,2.25 0,3.38 1.55,66.46 48.68,123 114.74,145.79 A 199.47,199.47 0 0 0 300,480 c 99.41,0 180,-71.63 180,-160 a 143.93,143.93 0 0 0 -10.83,-54.79 z"
       transform="translate(-20,-20)"
       id="path20"
       style="fill:url(#radial-gradient-5)" /><path
       class="cls-6"
       d="m 160.84,223.52 c 4.41,48.51 25.94,91.31 57.68,120.64 27.61,25.52 62.96,40.84 101.48,40.84 1.13,0 2.25,0 3.38,0 66.46,-1.55 123,-48.68 145.79,-114.74 A 144,144 0 0 1 480,322.33 c 0,-0.78 0,-1.55 0,-2.33 A 143.93,143.93 0 0 0 469.17,265.21 C 446.33,331.27 389.84,378.4 323.38,380 c -1.12,0 -2.25,0 -3.38,0 -38.52,0 -73.87,-15.32 -101.48,-40.84 C 186.78,309.83 165.25,267.03 160.84,218.52 135.32,246.13 120,281.48 120,320 c 0,0.78 0,1.55 0,2.33 0.72,-37.49 15.91,-71.84 40.84,-98.81 z"
       transform="translate(-20,-20)"
       id="path21"
       style="fill:url(#radial-gradient-6)" /><path
       class="cls-7"
       d="m 320,20 a 143.93,143.93 0 0 0 -54.79,10.83 c 66.06,22.84 113.19,79.33 114.79,145.79 0,1.12 0,2.25 0,3.38 0,38.52 -15.32,73.87 -40.84,101.48 -29.33,31.74 -72.13,53.27 -120.64,57.68 27.61,25.52 62.96,40.84 101.48,40.84 1.13,0 2.25,0 3.38,0 66.46,-1.55 123,-48.68 145.79,-114.74 A 199.47,199.47 0 0 0 480,200 C 480,100.59 408.37,20 320,20 Z"
       transform="translate(-20,-20)"
       id="path22"
       style="fill:url(#radial-gradient-7)" /><path
       class="cls-8"
       d="m 223.52,339.16 c 48.51,-4.41 91.31,-25.94 120.64,-57.68 C 369.68,253.87 385,218.52 385,180 c 0,-1.13 0,-2.25 0,-3.38 -1.55,-66.46 -48.68,-123 -114.74,-145.79 A 144,144 0 0 1 322.33,20 c -0.78,0 -1.55,0 -2.33,0 a 143.93,143.93 0 0 0 -54.79,10.83 c 66.06,22.84 113.19,79.33 114.79,145.79 0,1.12 0,2.25 0,3.38 0,38.52 -15.32,73.87 -40.84,101.48 -29.33,31.74 -72.13,53.27 -120.64,57.68 27.61,25.52 62.96,40.84 101.48,40.84 0.78,0 1.55,0 2.33,0 -37.49,-0.72 -71.84,-15.91 -98.81,-40.84 z"
       transform="translate(-20,-20)"
       id="path23"
       style="fill:url(#radial-gradient-8)" /></g></svg>
