<svg width="256" height="256" viewBox="0 0 256 256" fill="none" xmlns="http://www.w3.org/2000/svg">
          <g clip-path="url(#clip0_16_132)" id="base-svg-group">
            <path id="back-svg-group" fill-rule="evenodd" clip-rule="evenodd" d="M104.425 42.3784C100.056 37.0733 93.5437 34 86.6712 34H29C22.3726 34 17 39.3726 17 46V58.1371V68.2V160C17 166.627 22.3726 172 29 172H229C235.627 172 241 166.627 241 160V70.1371C241 63.5097 235.627 58.1371 229 58.1371H117.404L104.425 42.3784Z" fill="#7dc44e"/>
            <mask id="mask0_16_132" style="mask-type:alpha" maskUnits="userSpaceOnUse" x="17" y="34" width="224" height="138">
              <path id="back-svg-group" fill-rule="evenodd" clip-rule="evenodd" d="M104.425 42.3784C100.056 37.0733 93.5437 34 86.6712 34H29C22.3726 34 17 39.3726 17 46V58.1371V68.2V160C17 166.627 22.3726 172 29 172H229C235.627 172 241 166.627 241 160V70.1371C241 63.5097 235.627 58.1371 229 58.1371H117.404L104.425 42.3784Z" fill="url(#paint0_linear_16_132)"/>
            </mask>
            <g mask="url(#mask0_16_132)">
              <g style="mix-blend-mode:multiply" filter="url(#filter0_f_16_132)">
                <path fill-rule="evenodd" clip-rule="evenodd" d="M92.789 74C97.7642 74 102.605 72.3868 106.586 69.4024L116.459 62H229C235.627 62 241 67.3726 241 74V108V160C241 166.627 235.627 172 229 172H29C22.3726 172 17 166.627 17 160L17 108V86C17 79.3726 22.3726 74 29 74H87H92.789Z" fill="black" fill-opacity="0.3"/>
              </g>
            </g>
            <path id="front-svg-group" filter="url(#filter1_ii_16_132)" fill-rule="evenodd" clip-rule="evenodd" d="M92.789 74C97.7642 74 102.605 72.3868 106.586 69.4024L116.459 62H229C235.627 62 241 67.3726 241 74V108V198C241 204.627 235.627 210 229 210H29C22.3726 210 17 204.627 17 198L17 108V86C17 79.3726 22.3726 74 29 74H87H92.789Z" fill="url(#paint1_linear_16_132)"/>
          </g>
          <g id="custom-svg-container"><g class="custom-svg" transform="translate(73.3976706133823 77.46000000000001) scale(1.155862671583941)">
  <!-- Generator: Adobe Illustrator 30.5.1, SVG Export Plug-In . SVG Version: 2.1.4 Build 3)  -->
  <defs transform="skewX(0) skewY(0)">
    <style transform="skewX(0) skewY(0)">
      .st0 {
        fill: #fff;
      }

      .st1 {
        fill: none;
        stroke: #fff;
        stroke-width: 9px;
      }

      .st2 {
        fill: #6db33f;
      }
    </style>
  </defs>
  <path class="st1" d="M87.37,12.91c-1.26,3.03-2.9,5.89-4.87,8.52C65.08,3.41,36.36,2.92,18.34,20.34.32,37.76-.17,66.48,17.25,84.5c.6.62,1.22,1.23,1.86,1.82l1.69,1.5c19.14,16.14,47.73,13.71,63.87-5.43,6.19-7.34,9.89-16.46,10.57-26.03,1.31-11.42-2.15-26.03-7.87-43.45Z" transform="skewX(0) skewY(0)"/>
  <g id="Layer_2" transform="skewX(0) skewY(0)">
    <g id="logos" transform="skewX(0) skewY(0)">
      <path class="st2" d="M87.37,12.91c-1.26,3.03-2.9,5.89-4.87,8.52C65.08,3.41,36.36,2.92,18.34,20.34.32,37.76-.17,66.48,17.25,84.5c.6.62,1.22,1.23,1.86,1.82l1.69,1.5c19.14,16.14,47.73,13.71,63.87-5.43,6.19-7.34,9.89-16.46,10.57-26.03,1.31-11.42-2.15-26.03-7.87-43.45Z" transform="skewX(0) skewY(0)"/>
      <path class="st0" d="M25.66,86.69c-1.34,1.65-3.77,1.9-5.43.56-1.65-1.34-1.9-3.77-.56-5.43,1.34-1.65,3.77-1.9,5.42-.56,1.61,1.37,1.86,3.76.56,5.43h.01Z" transform="skewX(0) skewY(0)"/>
      <path class="st0" d="M87.09,73.11c-11.14,14.89-35.11,9.83-50.37,10.58,0,0-2.72.19-5.43.56,0,0,1.03-.47,2.34-.94,10.77-3.75,15.82-4.49,22.38-7.87,12.27-6.27,24.53-20.04,26.97-34.27-4.68,13.67-18.91,25.47-31.84,30.24-8.9,3.28-24.91,6.46-24.91,6.46l-.66-.37c-10.86-5.34-11.24-28.93,8.61-36.52,8.71-3.37,16.95-1.5,26.4-3.75,10.02-2.34,21.63-9.83,26.31-19.66,5.24,15.82,11.61,40.36.19,55.52v.02Z" transform="skewX(0) skewY(0)"/>
    </g>
  </g>
</g></g>
          <defs>
            <filter id="filter0_f_16_132" x="-20" y="25" width="298" height="184" filterUnits="userSpaceOnUse" color-interpolation-filters="sRGB">
              <feFlood flood-opacity="0" result="BackgroundImageFix"/>
              <feBlend mode="normal" in="SourceGraphic" in2="BackgroundImageFix" result="shape"/>
              <feGaussianBlur stdDeviation="18.5" result="effect1_foregroundBlur_16_132"/>
            </filter>
            <filter id="filter1_ii_16_132" x="17" y="62" width="224" height="148" filterUnits="userSpaceOnUse" color-interpolation-filters="sRGB">
              <feFlood flood-opacity="0" result="BackgroundImageFix"/>
              <feBlend mode="normal" in="SourceGraphic" in2="BackgroundImageFix" result="shape"/>
              <feColorMatrix in="SourceAlpha" type="matrix" values="0 0 0 0 0 0 0 0 0 0 0 0 0 0 0 0 0 0 127 0" result="hardAlpha"/>
              <feOffset dy="4"/>
              <feComposite in2="hardAlpha" operator="arithmetic" k2="-1" k3="1"/>
              <feColorMatrix type="matrix" values="0 0 0 0 1 0 0 0 0 1 0 0 0 0 1 0 0 0 0.25 0"/>
              <feBlend mode="normal" in2="shape" result="effect1_innerShadow_16_132"/>
              <feColorMatrix in="SourceAlpha" type="matrix" values="0 0 0 0 0 0 0 0 0 0 0 0 0 0 0 0 0 0 127 0" result="hardAlpha"/>
              <feOffset dy="-4"/>
              <feComposite in2="hardAlpha" operator="arithmetic" k2="-1" k3="1"/>
              <feColorMatrix type="matrix" values="0 0 0 0 0 0 0 0 0 0 0 0 0 0 0 0 0 0 0.9 0"/>
              <feBlend mode="soft-light" in2="effect1_innerShadow_16_132" result="effect2_innerShadow_16_132"/>
            </filter>
            <linearGradient id="paint0_linear_16_132" x1="17" y1="34" x2="197.768" y2="215.142" gradientUnits="userSpaceOnUse">
              <stop stop-color="#FFE7A2"/>
              <stop offset="1" stop-color="#FFCB3D"/>
            </linearGradient>
            <linearGradient id="paint1_linear_16_132" x1="17" y1="62" x2="241" y2="210" gradientUnits="userSpaceOnUse">
              <stop stop-color="#b1ff97"/>
              <stop offset="0.953125" stop-color="#7ac946"/>
            </linearGradient>
          </defs>
        </svg>