<svg xmlns="http://www.w3.org/2000/svg" xmlns:xlink="http://www.w3.org/1999/xlink" fill="none" version="1.1" width="256" height="256" viewBox="0 0 256 256"><defs><clipPath id="master_svg0_13_0005"><rect x="0" y="0" width="256" height="256" rx="0"/></clipPath><linearGradient x1="0.5" y1="0" x2="0.5" y2="1" id="master_svg1_13_789"><stop offset="0%" stop-color="#08C8E5" stop-opacity="1"/><stop offset="100%" stop-color="#29E3F0" stop-opacity="1"/></linearGradient></defs><g clip-path="url(#master_svg0_13_0005)"><path d="M113.086418,21L205.5679,21L205.5679,80.753254L242,80.753254L242,235.00003L86.462967,235.00003L86.462967,187.75325L15,187.75325L15,59.909092L113.086418,59.909092L113.086418,21ZM113.086418,73.805199L29.012346,73.805199L29.012346,175.24677L86.462967,175.24677L86.462967,80.753254L113.086418,80.753254L113.086418,73.805199ZM106.080254,187.75325L106.080254,215.54546L125.69753,215.54546L125.69753,205.81818L163.53087,205.81818L163.53087,215.54546L220.98149,215.54546L220.98149,100.207802L205.5679,100.207802L205.5679,112.714287L204.16667,112.714287L204.16667,114.103897L139.70988,114.103897L139.70988,187.75325L106.080254,187.75325ZM125.69753,114.103897L125.69753,175.24677L106.080254,175.24677L106.080254,100.207802L113.086418,100.207802L113.086418,114.103897L125.69753,114.103897ZM139.70988,101.597412L192.9568,101.597412L192.9568,100.207802L139.70988,100.207802L139.70988,101.597412ZM125.69753,100.207802L125.69753,101.597412L124.2963,101.597412L124.2963,100.207802L125.69753,100.207802ZM125.69753,80.753254L124.2963,80.753254L124.2963,73.805199L125.69753,73.805199L125.69753,80.753254ZM139.70988,80.753254L139.70988,59.909092L124.2963,59.909092L124.2963,32.116884L192.9568,32.116884L192.9568,80.753254L139.70988,80.753254ZM24.8086424,196.09091L73.851856,196.09091L73.851856,225.27272L24.8086424,225.27272L24.8086424,196.09091ZM37.419754,207.20779L61.240742,207.20779L61.240742,214.15585L37.419754,214.15585L37.419754,207.20779Z" fill-rule="evenodd" fill="url(#master_svg1_13_789)" fill-opacity="1"/></g></svg>