<svg width="256" height="256" viewBox="0 0 256 256" fill="none" xmlns="http://www.w3.org/2000/svg">
<g clip-path="url(#clip0_1_17)">
<circle cx="128" cy="128" r="126" fill="#CE0050" stroke="#D60053" stroke-width="4"/>
<path d="M141.6 132.913C138.726 132.953 142.143 134.393 145.894 134.971C146.931 134.161 147.871 133.343 148.709 132.547C146.373 133.119 143.995 133.132 141.6 132.913Z" fill="white"/>
<path d="M157.021 129.069C158.732 126.707 159.979 124.122 160.419 121.448C160.035 123.354 159.001 125 158.027 126.736C152.656 130.118 157.522 124.728 158.024 122.68C152.249 129.948 157.231 127.038 157.021 129.069Z" fill="white"/>
<path d="M162.714 114.256C163.061 109.082 161.695 110.718 161.236 112.693C161.772 112.971 162.195 116.34 162.714 114.256Z" fill="white"/>
<path d="M130.705 43.536C132.238 43.811 134.018 44.0221 133.768 44.3882C135.445 44.0205 135.826 43.6815 130.705 43.536Z" fill="white"/>
<path d="M133.768 44.3882L132.684 44.6121L133.693 44.5225L133.768 44.3882Z" fill="white"/>
<path d="M181.582 116.218C181.754 120.865 180.223 123.119 178.843 127.11L176.36 128.351C174.328 132.297 176.557 130.856 175.102 133.995C171.93 136.816 165.475 142.821 163.409 143.37C161.901 143.336 164.431 141.59 164.762 140.906C160.515 143.822 161.354 145.284 154.86 147.055L154.669 146.633C138.651 154.169 116.401 139.235 116.693 118.858C116.522 120.152 116.207 119.829 115.852 120.352C115.026 109.867 120.694 99.3369 130.254 95.0374C139.604 90.4085 150.567 92.308 157.264 98.5502C153.585 93.7311 146.262 88.6225 137.583 89.1006C129.082 89.2349 121.129 94.6376 118.474 100.503C114.119 103.245 113.614 111.073 111.716 112.506C109.162 131.272 116.519 139.38 128.963 148.918C130.922 150.239 129.515 150.439 129.78 151.444C125.646 149.508 121.859 146.585 118.746 143.007C120.398 145.424 122.181 147.775 124.485 149.621C120.587 148.301 115.379 140.175 113.858 139.844C120.579 151.876 141.123 160.945 151.881 156.446C146.903 156.63 140.58 156.548 134.987 154.481C132.638 153.272 129.443 150.768 130.014 150.299C144.695 155.784 159.861 154.453 172.565 144.27C175.796 141.753 179.326 137.471 180.346 137.412C178.81 139.723 180.609 138.523 179.429 140.564C182.649 135.37 178.03 138.45 182.758 131.595L184.504 134C183.855 129.689 189.857 124.454 189.248 117.637C190.624 115.552 190.784 119.88 189.323 124.677C191.35 119.355 189.857 118.5 190.378 114.109C190.941 115.585 191.68 117.154 192.059 118.711C190.738 113.569 193.414 110.051 194.076 107.063C193.424 106.773 192.038 109.337 191.721 103.262C191.768 100.624 192.455 101.879 192.721 101.23C192.203 100.933 190.843 98.91 190.017 95.031C190.616 94.1196 191.619 97.3942 192.434 97.5285C191.91 94.4442 191.007 92.0922 190.97 89.7257C188.587 84.7467 190.127 90.3893 188.194 87.588C185.658 79.6781 190.298 85.7524 190.612 82.158C194.455 87.7271 196.648 96.3581 197.653 99.9333C196.886 95.5746 195.645 91.3519 194.131 87.2666C195.298 87.7575 192.25 78.2982 195.648 84.5628C192.019 71.2086 180.115 58.7306 169.164 52.8753C170.503 54.1017 172.195 55.6415 171.588 55.8829C166.142 52.6403 167.099 52.3877 166.319 51.0174C161.882 49.2122 161.591 51.1629 158.652 51.0206C150.29 46.5852 148.678 47.0568 140.983 44.2779L141.333 45.9136C135.792 44.0685 134.878 46.6139 128.89 45.92C128.525 45.6354 130.809 44.8903 132.687 44.6169C127.331 45.3236 127.582 43.5616 122.341 44.812C123.633 43.9054 124.998 43.3058 126.376 42.5351C122.008 42.8005 115.948 45.0774 117.819 43.0068C110.694 46.1854 98.0402 50.648 90.9394 57.306L90.7156 55.8142C87.4618 59.7203 76.5267 67.4799 75.6553 72.5389L74.7855 72.742C73.0922 75.6088 71.997 78.8579 70.6539 81.8079C68.4394 85.5813 67.408 83.2597 67.723 83.8513C63.3676 92.6822 61.2042 100.103 59.3351 106.188C60.667 108.179 59.3671 118.172 59.8707 126.17C57.6834 165.67 87.5929 204.022 120.286 212.877C125.078 214.591 132.204 214.525 138.266 214.701C131.114 212.656 130.19 213.617 123.223 211.188C118.198 208.822 117.096 206.119 113.537 203.03L114.946 205.52C107.965 203.05 110.886 202.463 105.207 200.664L106.711 198.699C104.449 198.528 100.718 194.885 99.6983 192.869L97.2232 192.967C94.2492 189.297 92.6647 186.653 92.7798 184.604L91.9803 186.029C91.0737 184.473 81.0389 172.267 86.245 175.108C85.2776 174.224 83.9921 173.669 82.5978 171.137L83.6579 169.925C81.1524 166.701 79.0466 162.57 79.2065 161.193C80.5432 162.998 81.4706 163.335 82.3884 163.644C76.0614 147.946 75.7065 162.779 70.9145 147.664L71.9282 147.583C71.1511 146.412 70.6794 145.141 70.0543 143.894L70.4956 139.497C65.9402 134.23 69.2212 117.103 69.8784 107.709C70.3341 103.889 73.6806 99.823 76.2261 93.4464L74.6752 93.1794C77.6396 88.0085 91.6014 72.4126 98.0674 73.2153C101.2 69.2803 97.4454 73.2009 96.8331 72.2095C103.713 65.0895 105.877 67.1793 110.52 65.8986C115.528 62.9262 106.222 67.0578 108.596 64.7649C117.253 62.5536 114.731 59.7379 126.025 58.6155C127.216 59.2934 123.26 59.6628 122.267 60.5422C129.48 57.0134 145.092 57.816 155.232 62.5009C166.999 67.9996 180.219 84.2542 180.74 99.5479L181.333 99.7078C181.032 105.787 182.264 112.817 180.131 119.275L181.582 116.218Z" fill="white"/>
<path d="M110.238 136.857L109.835 138.872C111.724 141.437 113.222 144.215 115.633 146.221C113.898 142.834 112.61 141.435 110.238 136.857Z" fill="white"/>
<path d="M114.703 136.681C113.703 135.577 113.112 134.246 112.45 132.921C113.083 135.25 114.38 137.252 115.587 139.288L114.703 136.681Z" fill="white"/>
<path d="M193.696 119.512L193.274 120.571C192.5 126.068 190.829 131.507 188.268 136.55C191.098 131.229 192.928 125.409 193.696 119.512Z" fill="white"/>
<path d="M131.272 42.1577C133.215 41.4462 136.048 41.7676 138.109 41.2991C135.423 41.5246 132.75 41.6589 130.11 41.9994L131.272 42.1577Z" fill="white"/>
<path d="M63.0702 78.4246C63.5179 82.569 59.9523 84.1775 63.86 81.4449C65.9546 76.7265 63.0414 80.1418 63.0702 78.4246Z" fill="white"/>
<path d="M58.478 97.6052C59.3782 94.8423 59.5413 93.1826 59.8851 91.5837C57.3972 94.764 58.7403 95.4419 58.478 97.6052Z" fill="white"/>
</g>
<defs>
<clipPath id="clip0_1_17">
<rect width="256" height="256" fill="white"/>
</clipPath>
</defs>
</svg>
