<?xml version="1.0" encoding="UTF-8" standalone="no"?>
<svg
   width="256"
   height="256"
   viewBox="0 0 256 256"
   fill="none"
   version="1.1"
   id="svg10"
   xml:space="preserve"
   xmlns:xlink="http://www.w3.org/1999/xlink"
   xmlns="http://www.w3.org/2000/svg"
   xmlns:svg="http://www.w3.org/2000/svg"><defs
     id="defs10"><linearGradient
       id="linearGradient18"><stop
         style="stop-color:#e9d5ff;stop-opacity:1;"
         offset="0"
         id="stop17" /><stop
         style="stop-color:#ffffff;stop-opacity:1;"
         offset="1"
         id="stop15" /></linearGradient><linearGradient
       id="linearGradient30"
       data-name="Unbenannter Verlauf 130"
       x1="57.470001"
       y1="9.7200003"
       x2="143.3"
       y2="158.38"
       gradientUnits="userSpaceOnUse"
       gradientTransform="matrix(1.2595591,0,0,1.2481084,5.5506032,33.467116)"
       spreadMethod="pad"><stop
         offset="0"
         stop-color="#ffe69c"
         id="stop28"
         style="stop-color:#9ce2ff;stop-opacity:1;" /><stop
         offset="0.42893508"
         stop-color="#ffde82"
         id="stop29"
         style="stop-color:#6881ff;stop-opacity:1;" /><stop
         offset="1"
         stop-color="#ffca38"
         id="stop30"
         style="stop-color:#dc38ff;stop-opacity:1;" /></linearGradient><linearGradient
       id="linearGradient43"><stop
         style="stop-color:#ffffff;stop-opacity:1;"
         offset="0"
         id="stop43" /><stop
         style="stop-color:#e9d5ff;stop-opacity:1;"
         offset="1"
         id="stop44" /></linearGradient><linearGradient
       xlink:href="#linearGradient30"
       id="linearGradient28"
       x1="56.631706"
       y1="34.953739"
       x2="196.47945"
       y2="222.41029"
       gradientUnits="userSpaceOnUse" /><linearGradient
       xlink:href="#linearGradient43"
       id="linearGradient56"
       x1="48.96981"
       y1="71.06884"
       x2="206.1156"
       y2="196.84082"
       gradientUnits="userSpaceOnUse" /><linearGradient
       xlink:href="#linearGradient43"
       id="linearGradient61"
       x1="48.96981"
       y1="72.958496"
       x2="206.1156"
       y2="198.73047"
       gradientUnits="userSpaceOnUse" /><linearGradient
       xlink:href="#linearGradient43"
       id="linearGradient62"
       gradientUnits="userSpaceOnUse"
       x1="48.96981"
       y1="71.06884"
       x2="201.68217"
       y2="197.02165" /><linearGradient
       xlink:href="#linearGradient43"
       id="linearGradient10"
       gradientUnits="userSpaceOnUse"
       x1="48.96981"
       y1="71.06884"
       x2="206.1156"
       y2="196.84082" /><linearGradient
       xlink:href="#linearGradient43"
       id="linearGradient11"
       gradientUnits="userSpaceOnUse"
       x1="48.96981"
       y1="71.06884"
       x2="206.1156"
       y2="196.84082"
       gradientTransform="translate(-2.6676529,-8.857832e-5)" /><linearGradient
       xlink:href="#linearGradient43"
       id="linearGradient12"
       gradientUnits="userSpaceOnUse"
       x1="48.96981"
       y1="71.06884"
       x2="206.1156"
       y2="196.84082"
       gradientTransform="translate(-2.6676369)" /><linearGradient
       xlink:href="#linearGradient43"
       id="linearGradient13"
       gradientUnits="userSpaceOnUse"
       x1="48.96981"
       y1="71.06884"
       x2="206.1156"
       y2="196.84082"
       gradientTransform="translate(2.9179134)" /><linearGradient
       xlink:href="#linearGradient18"
       id="linearGradient15"
       gradientUnits="userSpaceOnUse"
       x1="48.964489"
       y1="197.0152"
       x2="201.6875"
       y2="71.075294"
       gradientTransform="matrix(-1,0,0,1,255.939,-3.9575195e-7)" /><linearGradient
       xlink:href="#linearGradient43"
       id="linearGradient31"
       gradientUnits="userSpaceOnUse"
       x1="48.96981"
       y1="71.06884"
       x2="206.1156"
       y2="196.84082" /><linearGradient
       xlink:href="#linearGradient43"
       id="linearGradient32"
       gradientUnits="userSpaceOnUse"
       x1="48.96981"
       y1="71.06884"
       x2="206.1156"
       y2="196.84082" /><linearGradient
       xlink:href="#linearGradient43"
       id="linearGradient33"
       gradientUnits="userSpaceOnUse"
       x1="48.96981"
       y1="71.06884"
       x2="206.1156"
       y2="196.84082" /><linearGradient
       xlink:href="#linearGradient43"
       id="linearGradient34"
       gradientUnits="userSpaceOnUse"
       x1="48.96981"
       y1="71.06884"
       x2="206.1156"
       y2="196.84082" /><filter
       style="color-interpolation-filters:sRGB"
       id="filter15"
       x="-0.11018213"
       y="-0.13470163"
       width="1.2203643"
       height="1.2694033"><feFlood
         result="flood"
         in="SourceGraphic"
         flood-opacity="0.600000"
         flood-color="rgb(0,0,0)"
         id="feFlood14" /><feGaussianBlur
         result="blur"
         in="SourceGraphic"
         stdDeviation="7.000000"
         id="feGaussianBlur14" /><feOffset
         result="offset"
         in="blur"
         dx="0.000000"
         dy="0.000000"
         id="feOffset14" /><feComposite
         result="comp1"
         operator="in"
         in="flood"
         in2="offset"
         id="feComposite14" /><feComposite
         result="comp2"
         operator="over"
         in="SourceGraphic"
         in2="comp1"
         id="feComposite15" /></filter></defs><g
     id="layer4"
     style="display:inline"><g
       id="layer2"
       style="display:inline"><path
         style="opacity:1;fill:url(#linearGradient28);stroke-width:5;stroke-linecap:round;stroke-linejoin:round;stroke-dashoffset:6.34961;paint-order:stroke markers fill"
         id="rect26"
         width="197.04637"
         height="197.04637"
         x="29.476814"
         y="29.476814"
         ry="0"
         rx="0"
         d="m 79.476814,29.476814 h 97.046376 a 50,50 45 0 1 50,50 v 97.046376 a 50,50 135 0 1 -50,50 H 79.476814 a 50,50 45 0 1 -50,-50 V 79.476814 a 50,50 135 0 1 50,-50 z"
         transform="matrix(1.1468103,0,0,1.1468103,-18.791713,-18.791713)" /><g
         id="g54"
         style="fill:url(#linearGradient56);filter:url(#filter15)"
         transform="matrix(1.1468103,0,0,1.1468103,-18.791713,-18.791713)"><path
           id="path1-4"
           style="fill:url(#linearGradient31);fill-opacity:1;stroke:none;stroke-width:1.97662;stroke-linejoin:round;stroke-dasharray:none;stroke-dashoffset:6.34961;stroke-opacity:1;paint-order:stroke markers fill"
           d="m 124.5,106.9375 c -7.70044,16.15065 -17.96028,35.02468 -18.5625,45.57617 -0.54302,9.50718 4.65217,15.59926 5.5,27.36719 0.15869,2.20267 1.90221,3.98632 4.11133,3.97461 6.32879,-0.0335 18.57985,-0.0897 24.90625,-0.0566 2.20743,0.0115 3.95486,-1.71126 4.11328,-3.91406 0.86113,-11.97407 6.04117,-17.78982 5.49414,-27.3711 C 149.45991,141.96225 139.20029,123.08795 131.5,106.9375 v 33.4043 a 8.9689789,8.9689789 0 0 1 5.46875,8.25781 A 8.9689789,8.9689789 0 0 1 128,157.56836 8.9689789,8.9689789 0 0 1 119.03125,148.59961 8.9689789,8.9689789 0 0 1 124.5,140.3418 Z" /><g
           id="g59"
           style="display:inline;fill:url(#linearGradient10);stroke:url(#linearGradient61)"
           transform="translate(0.03047955)"><path
             style="fill:none;fill-opacity:1;stroke:url(#linearGradient62);stroke-width:7;stroke-linecap:round;stroke-linejoin:round;stroke-dasharray:none;stroke-dashoffset:6.34961;stroke-opacity:1;paint-order:stroke markers fill"
             d="m 62.336209,132.65524 c -2e-6,-27.48454 27.33981,-51.137591 47.963101,-51.137589 l -30.323377,-4e-6"
             id="path26" /><path
             style="fill:none;fill-opacity:1;stroke:url(#linearGradient15);stroke-width:7;stroke-linecap:round;stroke-linejoin:round;stroke-dasharray:none;stroke-dashoffset:6.34961;stroke-opacity:1;paint-order:stroke markers fill"
             d="m 193.60279,132.65524 c 0,-27.48454 -27.33981,-51.137591 -47.9631,-51.137589 l 30.32338,-4e-6"
             id="path13" /></g><path
           d="m 111.57076,190.44812 a 3.9237473,3.9237473 44.370926 0 0 3.97786,3.89145 l 24.85789,0 a 4,4 135 0 0 4,-4 3.9460687,3.9460687 44.211482 0 0 -4,-3.89139 h -24.81299 a 4.0228237,4.0228237 135.163 0 0 -4.02276,3.99994 z"
           style="fill:url(#linearGradient32);fill-opacity:1;stroke:none;stroke-width:1.97662;stroke-linejoin:round;stroke-dasharray:none;stroke-dashoffset:6.34961;stroke-opacity:1;paint-order:stroke markers fill"
           id="path1-9"
           transform="translate(0,1.4489849)" /><rect
           style="fill:url(#linearGradient33);fill-opacity:1;stroke:none;stroke-width:17.2745;stroke-linecap:round;stroke-linejoin:round;stroke-dasharray:none;stroke-dashoffset:6.34961;stroke-opacity:1;paint-order:stroke markers fill"
           id="rect19"
           width="20.896954"
           height="20.897619"
           x="117.55152"
           y="71.06884"
           ry="5" /><rect
           style="fill:url(#linearGradient11);fill-opacity:1;stroke:none;stroke-width:17.2745;stroke-linecap:round;stroke-linejoin:round;stroke-dasharray:none;stroke-dashoffset:6.34961;stroke-opacity:1;paint-order:stroke markers fill"
           id="rect20"
           width="20.896954"
           height="20.897619"
           x="183.46559"
           y="140.40794"
           ry="5" /><rect
           style="fill:url(#linearGradient34);fill-opacity:1;stroke:none;stroke-width:17.2745;stroke-linecap:round;stroke-linejoin:round;stroke-dasharray:none;stroke-dashoffset:6.34961;stroke-opacity:1;paint-order:stroke markers fill"
           id="rect21"
           width="20.896954"
           height="20.897619"
           x="51.887726"
           y="140.40794"
           ry="5" /><ellipse
           style="fill:url(#linearGradient13);fill-opacity:1;stroke:none;stroke-width:10;stroke-linecap:round;stroke-linejoin:round;stroke-dasharray:none;stroke-dashoffset:6.34961;stroke-opacity:1;paint-order:stroke markers fill"
           id="path25"
           cx="62.336205"
           cy="81.517647"
           rx="10.448477"
           ry="10.44881" /><ellipse
           style="fill:url(#linearGradient12);fill-opacity:1;stroke:none;stroke-width:10;stroke-linecap:round;stroke-linejoin:round;stroke-dasharray:none;stroke-dashoffset:6.34961;stroke-opacity:1;paint-order:stroke markers fill"
           id="ellipse25"
           cx="193.91406"
           cy="81.517647"
           rx="10.448477"
           ry="10.44881" /></g></g></g></svg>
