<svg width="256" height="256" viewBox="0 0 256 256" fill="none" xmlns="http://www.w3.org/2000/svg">
<path d="M187.667 79.4874H165.495L162.658 92.8679H184.821L187.667 79.4874Z" fill="#D31E47"/>
<path d="M14.8627 83.1684L0 156.029H74.1238L69.766 176.513H91.9337L97.3862 150.892H97.5967C100.468 155.077 107.306 158.324 117.133 158.324C133.949 158.324 146.926 149.661 153.132 137.672L149.237 156.029H171.405L175.741 135.63C175.851 151.069 188.158 158.324 209.824 158.324C234.253 158.324 247.166 149.45 254.054 133.798H230.603C227.47 140.414 221.357 143.693 213.34 143.693C202.679 143.693 197.842 137.942 200.014 127.693C202.195 117.445 209.698 111.694 220.056 111.694H220.835L221.571 111.715L222.308 111.757L223.003 111.82L223.677 111.904L224.329 111.988L224.961 112.094L226.14 112.346L226.687 112.515L227.213 112.683L227.719 112.873L228.203 113.062L228.645 113.273L229.087 113.504L229.487 113.757L229.866 114.009L230.224 114.283L230.561 114.578L230.897 114.894L231.192 115.209L231.697 115.883L231.929 116.241L232.139 116.62L232.329 116.999L232.476 117.399L232.624 117.82L232.75 118.241L232.855 118.683L232.982 119.609H255.97C256.72 103.012 243.251 97.0626 222.856 97.0626C201.753 97.0626 185.775 104.671 179.047 120.03L183.446 99.3573H161.279L157.195 118.557C156.235 105.235 146.1 97.8836 129.764 97.8836C120.771 97.8836 112.24 101.121 106.312 106.873H106.102L107.702 99.3573H86.1655L77.5553 139.924H28.2938L30.6516 127.209H74.629L77.9131 111.736H33.9567L36.3146 99.2731H86.2076L89.618 83.1684H14.8627ZM121.154 113.357C131.301 113.357 135.76 118.392 133.764 127.798L133.574 128.662L133.343 129.504L133.09 130.325L132.795 131.125L132.501 131.882L132.164 132.619L131.806 133.335L131.427 134.03L131.006 134.682L130.585 135.314L130.122 135.924L129.617 136.493L129.111 137.04L128.585 137.567L128.017 138.072L127.448 138.535L126.838 138.977L126.206 139.398L125.554 139.777L124.88 140.135L124.185 140.472L123.448 140.766L122.712 141.04L121.933 141.293L121.154 141.503L120.333 141.693L119.512 141.861L118.649 141.987L117.764 142.093L116.88 142.156L115.954 142.198L115.007 142.219C104.649 142.219 100.422 136.585 102.291 127.798C104.161 119.016 110.805 113.357 121.154 113.357Z" fill="#D31E47"/>
</svg>
