<svg width="31" height="31" viewBox="0 0 31 31" fill="none" xmlns="http://www.w3.org/2000/svg">
<g clip-path="url(#clip0_2409_39887)">
<path d="M23.2915 18.888L31.0005 13.0117L21.9462 16.6259L19.4016 13.9774L20.2129 17.6474L12.5039 23.5234L21.5586 19.9082L24.1028 22.5569L23.2915 18.888Z" fill="#FC0404"/>
<path fill-rule="evenodd" clip-rule="evenodd" d="M3.83777 23.036L4.5714 19.0925L7.85604 18.5714C9.60446 18.2943 11.5391 16.3279 11.8829 14.4809L12.3767 11.8236C12.7205 9.97543 11.4209 8.52244 9.67234 8.79966L2.49433 9.93837L0 23.6432L3.83777 23.036ZM5.78204 12.5773L5.1765 15.8346L7.44723 15.4743C7.74507 15.4272 7.97053 15.1984 8.02975 14.8832L8.4436 12.6539C8.50282 12.3398 8.35061 12.1699 8.05277 12.2171L5.78204 12.5773Z" fill="#FC0404"/>
<path d="M19.6915 17.3591L19.2094 15.4497L18.9376 15.4825L18.8502 15.9532C18.7896 16.2797 18.5274 16.5454 18.2193 16.595L16.3534 16.8905C16.0455 16.9397 15.8694 16.7427 15.9299 16.4164L16.8702 11.3593C16.9306 11.0341 17.193 10.768 17.5006 10.7187L19.367 10.4232C19.6748 10.3741 19.8508 10.5711 19.7899 10.8962L19.6695 11.5399L23.4414 10.9409L23.5848 10.1701C23.9463 8.22462 22.6234 6.74553 20.7817 7.03667L17.1732 7.60943C15.3329 7.90178 13.3622 9.90319 13.001 11.8487L11.9972 17.2487C11.6358 19.1941 12.9585 20.6732 14.8001 20.381L16.0063 20.1905L19.6915 17.3591ZM22.3651 16.2072C22.4635 15.9423 22.5317 15.8416 22.5821 15.5699L22.7102 14.8834L21.2092 15.122L22.3651 16.2072Z" fill="#FC0404"/>
</g>
<defs>
<clipPath id="clip0_2409_39887">
<rect width="31" height="31" fill="white"/>
</clipPath>
</defs>
</svg>
