<svg width="256" height="256" viewBox="0 0 256 256" fill="none" xmlns="http://www.w3.org/2000/svg">
<g clip-path="url(#clip0_1_2)">
<path d="M128 256C198.692 256 256 198.692 256 128C256 57.3076 198.692 0 128 0C57.3076 0 0 57.3076 0 128C0 198.692 57.3076 256 128 256Z" fill="#E05210"/>
<path d="M40.9605 145.088C50.3981 145.088 58.0488 137.438 58.0488 128C58.0488 118.562 50.3981 110.912 40.9605 110.912C31.5229 110.912 23.8723 118.562 23.8723 128C23.8723 137.438 31.5229 145.088 40.9605 145.088Z" fill="white"/>
<path d="M86.8127 189.768C71.8575 179.777 60.7322 164.502 56.1112 146.61C61.5101 142.211 64.9585 135.511 64.9585 128C64.9585 120.489 61.5101 113.789 56.1112 109.39C60.7322 91.4984 71.8575 76.2231 86.8127 66.2316L99.3068 87.1602C86.4727 96.1926 78.0801 111.109 78.0801 128C78.0801 144.891 86.4727 159.807 99.3068 168.84L86.8127 189.768Z" fill="white"/>
<path d="M156.841 43.9498C152.056 52.0524 154.749 62.5034 162.856 67.2927C170.963 72.0821 181.414 69.3961 186.199 61.2934C190.984 53.1908 188.291 42.7397 180.184 37.9504C172.077 33.1611 161.626 35.8471 156.841 43.9498Z" fill="white"/>
<path d="M95.1842 61.1587C111.391 53.3759 130.222 51.5331 148.016 56.579C149.08 63.418 153.119 69.7441 159.606 73.524C166.093 77.304 173.627 77.722 180.162 75.311C193.273 88.274 200.829 105.492 201.881 123.332L177.475 123.502C176.177 107.962 167.546 93.2653 152.957 84.7646C138.369 76.2639 121.233 75.9462 106.929 82.3946L95.1842 61.1587Z" fill="white"/>
<path d="M186.199 194.707C181.414 186.604 170.963 183.918 162.856 188.707C154.749 193.497 152.056 203.948 156.841 212.05C161.625 220.153 172.076 222.839 180.184 218.05C188.291 213.26 190.984 202.809 186.199 194.707Z" fill="white"/>
<path d="M201.881 132.668C200.829 150.508 193.273 167.726 180.162 180.689C173.627 178.278 166.093 178.696 159.606 182.476C153.119 186.256 149.08 192.582 148.016 199.421C130.221 204.467 111.391 202.624 95.1842 194.841L106.929 173.605C121.233 180.054 138.369 179.736 152.957 171.235C167.546 162.735 176.177 148.038 177.475 132.498L201.881 132.668Z" fill="white"/>
</g>
<defs>
<clipPath id="clip0_1_2">
<rect width="256" height="256" fill="white"/>
</clipPath>
</defs>
</svg>
