<?xml version="1.0" encoding="UTF-8" standalone="no"?>
<svg
   width="1024"
   height="1024"
   enable-background="new"
   version="1.1"
   id="svg19"
   xml:space="preserve"
   xmlns="http://www.w3.org/2000/svg"
   xmlns:svg="http://www.w3.org/2000/svg"
   xmlns:rdf="http://www.w3.org/1999/02/22-rdf-syntax-ns#"
   xmlns:cc="http://creativecommons.org/ns#"
   xmlns:dc="http://purl.org/dc/elements/1.1/"><title
     id="title1">Visual Studio 2022 Icon </title><defs
     id="defs10"><linearGradient
       id="linearGradient1403"
       x1="1142.588"
       x2="1280.895"
       y1="62.71332"
       y2="200.874"
       gradientTransform="rotate(-5.888766 1223.265 99.83401)"
       gradientUnits="userSpaceOnUse"><stop
         stop-color="#343434"
         offset="0"
         id="stop1" /><stop
         stop-color="#4d4d4d"
         offset="1"
         id="stop2" /></linearGradient><linearGradient
       id="linearGradient1405"
       x1="1327.594"
       x2="1324.91"
       y1="230.8623"
       y2="89.86234"
       gradientTransform="matrix(.0111212 .9999382 .9999382 -.0111212 1077.89 -1093.522)"
       gradientUnits="userSpaceOnUse"><stop
         stop-color="#5596ea"
         offset="0"
         id="stop3" /><stop
         stop-color="#5596ea"
         stop-opacity="0"
         offset="1"
         id="stop4" /></linearGradient><clipPath
       id="clipPath839-4"><circle
         cx="532"
         cy="538"
         r="400"
         fill-opacity=".4745098"
         id="circle4" /></clipPath><linearGradient
       id="linearGradient1351"
       x1="112"
       x2="711.8644"
       y1="512"
       y2="512"
       gradientTransform="translate(-1211.405 -699.405)"
       gradientUnits="userSpaceOnUse"><stop
         stop-color="#ff0"
         offset="0"
         id="stop5" /><stop
         stop-color="#ff0"
         stop-opacity="0"
         offset="1"
         id="stop6" /></linearGradient><linearGradient
       id="linearGradient1353"
       x1="112"
       x2="711.8644"
       y1="512"
       y2="512"
       gradientTransform="translate(-324.595 187.405)"
       gradientUnits="userSpaceOnUse"><stop
         stop-color="#0ff"
         offset="0"
         id="stop7" /><stop
         stop-color="#0ff"
         stop-opacity="0"
         offset="1"
         id="stop8" /></linearGradient><linearGradient
       id="linearGradient1355"
       x1="112"
       x2="711.8644"
       y1="512"
       y2="512"
       gradientTransform="translate(0,-1024)"
       gradientUnits="userSpaceOnUse"><stop
         stop-color="#f0f"
         offset="0"
         id="stop9" /><stop
         stop-color="#f0f"
         stop-opacity="0"
         offset="1"
         id="stop10" /></linearGradient><filter
       id="filter0_dd"
       x="6.03194"
       y="4.38577"
       width="180.604"
       height="161.087"
       filterUnits="userSpaceOnUse"
       color-interpolation-filters="sRGB"><feFlood
         flood-opacity="0"
         result="BackgroundImageFix"
         id="feFlood11" /><feColorMatrix
         in="SourceAlpha"
         type="matrix"
         values="0 0 0 0 0 0 0 0 0 0 0 0 0 0 0 0 0 0 127 0"
         result="hardAlpha"
         id="feColorMatrix11" /><feOffset
         dy="0.246095"
         id="feOffset11" /><feGaussianBlur
         stdDeviation="0.246095"
         id="feGaussianBlur11" /><feColorMatrix
         type="matrix"
         values="0 0 0 0 0 0 0 0 0 0 0 0 0 0 0 0 0 0 0.24 0"
         id="feColorMatrix12" /><feBlend
         mode="normal"
         in2="BackgroundImageFix"
         result="effect1_dropShadow"
         id="feBlend12" /><feColorMatrix
         in="SourceAlpha"
         type="matrix"
         values="0 0 0 0 0 0 0 0 0 0 0 0 0 0 0 0 0 0 127 0"
         result="hardAlpha"
         id="feColorMatrix13" /><feOffset
         dy="1.29524"
         id="feOffset13" /><feGaussianBlur
         stdDeviation="2.59048"
         id="feGaussianBlur13" /><feColorMatrix
         type="matrix"
         values="0 0 0 0 0 0 0 0 0 0 0 0 0 0 0 0 0 0 0.22 0"
         id="feColorMatrix14" /><feBlend
         mode="normal"
         in2="effect1_dropShadow"
         result="effect2_dropShadow"
         id="feBlend14" /><feBlend
         mode="normal"
         in="SourceGraphic"
         in2="effect2_dropShadow"
         result="shape"
         id="feBlend15" /></filter><filter
       id="filter1_dd"
       x="6.03194"
       y="30.1181"
       width="180.604"
       height="161.085"
       filterUnits="userSpaceOnUse"
       color-interpolation-filters="sRGB"><feFlood
         flood-opacity="0"
         result="BackgroundImageFix"
         id="feFlood15" /><feColorMatrix
         in="SourceAlpha"
         type="matrix"
         values="0 0 0 0 0 0 0 0 0 0 0 0 0 0 0 0 0 0 127 0"
         result="hardAlpha"
         id="feColorMatrix15" /><feOffset
         dy="0.246095"
         id="feOffset15" /><feGaussianBlur
         stdDeviation="0.246095"
         id="feGaussianBlur15" /><feColorMatrix
         type="matrix"
         values="0 0 0 0 0 0 0 0 0 0 0 0 0 0 0 0 0 0 0.24 0"
         id="feColorMatrix16" /><feBlend
         mode="normal"
         in2="BackgroundImageFix"
         result="effect1_dropShadow"
         id="feBlend16" /><feColorMatrix
         in="SourceAlpha"
         type="matrix"
         values="0 0 0 0 0 0 0 0 0 0 0 0 0 0 0 0 0 0 127 0"
         result="hardAlpha"
         id="feColorMatrix17" /><feOffset
         dy="1.29524"
         id="feOffset17" /><feGaussianBlur
         stdDeviation="2.59048"
         id="feGaussianBlur17" /><feColorMatrix
         type="matrix"
         values="0 0 0 0 0 0 0 0 0 0 0 0 0 0 0 0 0 0 0.22 0"
         id="feColorMatrix18" /><feBlend
         mode="normal"
         in2="effect1_dropShadow"
         result="effect2_dropShadow"
         id="feBlend18" /><feBlend
         mode="normal"
         in="SourceGraphic"
         in2="effect2_dropShadow"
         result="shape"
         id="feBlend19" /></filter><filter
       id="filter2_dd"
       x="121.688"
       y="-6.05857"
       width="78.583"
       height="205.117"
       filterUnits="userSpaceOnUse"
       color-interpolation-filters="sRGB"><feFlood
         flood-opacity="0"
         result="BackgroundImageFix"
         id="feFlood19" /><feColorMatrix
         in="SourceAlpha"
         type="matrix"
         values="0 0 0 0 0 0 0 0 0 0 0 0 0 0 0 0 0 0 127 0"
         result="hardAlpha"
         id="feColorMatrix19" /><feOffset
         id="feOffset19" /><feGaussianBlur
         stdDeviation="0.129524"
         id="feGaussianBlur19" /><feColorMatrix
         type="matrix"
         values="0 0 0 0 0 0 0 0 0 0 0 0 0 0 0 0 0 0 0.24 0"
         id="feColorMatrix20" /><feBlend
         mode="normal"
         in2="BackgroundImageFix"
         result="effect1_dropShadow"
         id="feBlend20" /><feColorMatrix
         in="SourceAlpha"
         type="matrix"
         values="0 0 0 0 0 0 0 0 0 0 0 0 0 0 0 0 0 0 127 0"
         result="hardAlpha"
         id="feColorMatrix21" /><feOffset
         id="feOffset21" /><feGaussianBlur
         stdDeviation="7.77143"
         id="feGaussianBlur21" /><feColorMatrix
         type="matrix"
         values="0 0 0 0 0 0 0 0 0 0 0 0 0 0 0 0 0 0 0.3 0"
         id="feColorMatrix22" /><feBlend
         mode="normal"
         in2="effect1_dropShadow"
         result="effect2_dropShadow"
         id="feBlend22" /><feBlend
         mode="normal"
         in="SourceGraphic"
         in2="effect2_dropShadow"
         result="shape"
         id="feBlend23" /></filter><linearGradient
       id="paint0_linear"
       x1="151.642"
       y1="8.27149"
       x2="20.6141"
       y2="140.148"
       gradientUnits="userSpaceOnUse"><stop
         stop-color="#7252AA"
         id="stop23" /><stop
         offset="1"
         stop-color="#7252AA"
         id="stop24" /></linearGradient><linearGradient
       id="paint1_linear"
       x1="24.8145"
       y1="40.4371"
       x2="147.966"
       y2="178.293"
       gradientUnits="userSpaceOnUse"><stop
         stop-color="#AE7FE2"
         id="stop25" /><stop
         offset="1"
         stop-color="#9A70D4"
         id="stop26" /></linearGradient><linearGradient
       id="paint2_linear"
       x1="160.457"
       y1="5.93579"
       x2="160.457"
       y2="183.367"
       gradientUnits="userSpaceOnUse"><stop
         stop-color="#D59DFF"
         id="stop27" /><stop
         offset="1"
         stop-color="#C18EF1"
         id="stop28" /></linearGradient><clipPath
       id="clip0"><rect
         width="176.457"
         height="176.457"
         fill="white"
         transform="translate(8.27148 8.27148)"
         id="rect28" /></clipPath><clipPath
       id="clip1"><rect
         width="176.457"
         height="176.457"
         fill="white"
         transform="translate(8.27148 8.27148)"
         id="rect29" /></clipPath></defs><metadata
     id="metadata10"><rdf:RDF><cc:Work
         rdf:about=""><dc:format>image/svg+xml</dc:format><dc:type
           rdf:resource="http://purl.org/dc/dcmitype/StillImage" /><dc:title>Visual Studio 2022 Icon </dc:title><cc:license
           rdf:resource="http://creativecommons.org/licenses/by-sa/4.0/" /><dc:creator><cc:Agent><dc:title>Wolthera van Hövell tot Westerflier and Timothée Giet</dc:title></cc:Agent></dc:creator><dc:description>Based on Krita icon by Timothée Giet, 2013</dc:description></cc:Work><cc:License
         rdf:about="http://creativecommons.org/licenses/by-sa/4.0/"><cc:permits
           rdf:resource="http://creativecommons.org/ns#Reproduction" /><cc:permits
           rdf:resource="http://creativecommons.org/ns#Distribution" /><cc:requires
           rdf:resource="http://creativecommons.org/ns#Notice" /><cc:requires
           rdf:resource="http://creativecommons.org/ns#Attribution" /><cc:permits
           rdf:resource="http://creativecommons.org/ns#DerivativeWorks" /><cc:requires
           rdf:resource="http://creativecommons.org/ns#ShareAlike" /></cc:License></rdf:RDF></metadata><g
     style="fill:none"
     id="g1"
     transform="matrix(4.812283,0,0,4.812283,47.743095,48.546607)"><g
       clip-path="url(#clip1)"
       id="g10"><mask
         id="mask0"
         maskUnits="userSpaceOnUse"
         x="8"
         y="8"
         width="177"
         height="177"><path
           d="M 40.6211,157.524 11.2134,135.467 c -0.9169,-0.681 -1.66096,-1.568 -2.17198,-2.59 -0.51102,-1.022 -0.77474,-2.149 -0.76987,-3.291 V 63.4144 C 8.26668,62.2721 8.5304,61.1447 9.04142,60.1232 9.55244,59.1016 10.2965,58.2145 11.2134,57.5334 L 40.6211,35.4762 c -0.79,0.7418 -1.387,1.6652 -1.7392,2.6901 -0.3522,1.0249 -0.4489,2.1202 -0.2818,3.1909 V 151.643 c -0.1671,1.071 -0.0704,2.166 0.2818,3.191 0.3522,1.025 0.9492,1.948 1.7392,2.69 z"
           fill="#ffffff"
           id="path1-0" /><path
           d="m 181.456,38.8951 c -1.212,-0.7959 -2.631,-1.2178 -4.081,-1.2131 -0.939,-0.0076 -1.871,0.1702 -2.741,0.5232 -0.871,0.3529 -1.663,0.8741 -2.332,1.5336 l -0.513,0.5156 -58.672,56.2457 -32.4622,31.1369 -30.0336,28.784 -0.5155,0.516 c -0.6682,0.66 -1.4604,1.182 -2.331,1.536 -0.8707,0.353 -1.8026,0.531 -2.7422,0.523 -1.5906,-0.003 -3.1377,-0.519 -4.4114,-1.472 L 11.2134,135.467 c 1.4941,1.122 3.3597,1.633 5.2171,1.428 1.8574,-0.205 3.5668,-1.11 4.7803,-2.531 L 53.8554,96.4642 80.6548,65.3637 127.601,10.8439 c 0.681,-0.8074 1.531,-1.45598 2.49,-1.90034 0.959,-0.44436 2.003,-0.67373 3.06,-0.67204 1.45,-0.00468 2.869,0.41722 4.08,1.21315 z"
           fill="#ffffff"
           id="path2-3" /><path
           d="m 181.456,154.105 -44.114,29.41 c -1.501,0.98 -3.305,1.386 -5.081,1.143 -1.775,-0.243 -3.404,-1.119 -4.586,-2.466 L 80.6548,127.637 53.8554,96.4642 21.2108,58.5975 c -1.2243,-1.4066 -2.9353,-2.2981 -4.7897,-2.4955 -1.8543,-0.1974 -3.7147,0.314 -5.2077,1.4314 L 40.6211,35.4762 c 1.2737,-0.9528 2.8208,-1.4692 4.4114,-1.4724 0.9396,-0.0079 1.8715,0.17 2.7422,0.5234 0.8706,0.3535 1.6628,0.8756 2.331,1.5362 l 0.5155,0.5156 30.0336,28.7847 32.4622,31.1364 58.672,56.2459 0.513,0.515 c 0.669,0.66 1.461,1.181 2.332,1.534 0.87,0.353 1.802,0.531 2.741,0.523 1.45,0.005 2.869,-0.417 4.081,-1.213 z"
           fill="#ffffff"
           id="path3-8" /><path
           d="M 184.729,45.0325 V 147.968 c 10e-4,1.213 -0.297,2.408 -0.868,3.478 -0.571,1.071 -1.397,1.984 -2.405,2.659 l -44.114,29.41 c 1.008,-0.675 1.834,-1.589 2.405,-2.66 0.57,-1.071 0.868,-2.266 0.867,-3.48 V 15.6248 c -0.016,-1.2226 -0.333,-2.4223 -0.923,-3.4932 -0.59,-1.0709 -1.435,-1.98 -2.46,-2.64693 l 44.225,29.41043 c 1.005,0.6777 1.83,1.5915 2.4,2.6614 0.571,1.07 0.87,2.2634 0.873,3.476 z"
           fill="#ffffff"
           id="path4-0" /></mask><g
         mask="url(#mask0)"
         id="g9"><path
           d="M 40.6211,157.524 11.2134,135.467 c -0.9169,-0.681 -1.66096,-1.569 -2.17198,-2.59 -0.51102,-1.022 -0.77474,-2.149 -0.76987,-3.291 V 63.4143 C 8.26668,62.272 8.5304,61.1446 9.04142,60.1231 9.55244,59.1015 10.2965,58.2144 11.2134,57.5333 L 40.6211,35.4761 c -0.79,0.7418 -1.387,1.6652 -1.7392,2.6901 -0.3522,1.0249 -0.4489,2.1202 -0.2818,3.1909 V 151.643 c -0.1671,1.071 -0.0704,2.166 0.2818,3.191 0.3522,1.025 0.9492,1.948 1.7392,2.69 z"
           fill="#5e438f"
           id="path5-1" /><g
           filter="url(#filter0_dd)"
           id="g6"><path
             d="m 181.455,38.8951 c -1.211,-0.7959 -2.63,-1.2178 -4.08,-1.2131 -0.939,-0.0076 -1.871,0.1702 -2.742,0.5232 -0.87,0.3529 -1.662,0.8741 -2.331,1.5336 l -0.513,0.5156 -31.25,29.9619 -27.422,26.2838 -32.4627,31.1369 -30.0336,28.784 -0.5155,0.516 c -0.6682,0.66 -1.4604,1.182 -2.331,1.536 -0.8707,0.353 -1.8026,0.531 -2.7422,0.523 -1.5906,-0.003 -3.1377,-0.519 -4.4114,-1.472 L 11.2129,135.467 c 1.494,1.122 3.3597,1.633 5.2171,1.428 1.8574,-0.205 3.5668,-1.11 4.7803,-2.531 L 37.6815,115.249 53.8549,96.4643 80.6543,65.3637 127.6,10.8439 c 0.682,-0.8074 1.532,-1.45598 2.491,-1.90034 0.958,-0.44436 2.003,-0.67373 3.059,-0.67204 1.45,-0.00468 2.869,0.41722 4.081,1.21315 z"
             fill="url(#paint0_linear)"
             id="path6-2"
             style="fill:url(#paint0_linear)" /></g><g
           filter="url(#filter1_dd)"
           id="g7"><path
             d="m 181.455,154.105 -44.114,29.411 c -1.5,0.98 -3.304,1.385 -5.08,1.142 -1.776,-0.243 -3.404,-1.118 -4.586,-2.466 L 80.6543,127.637 53.8549,96.4644 37.6815,77.7158 21.2103,58.5978 c -1.2243,-1.4067 -2.9354,-2.2981 -4.7897,-2.4956 -1.8543,-0.1974 -3.7147,0.314 -5.2077,1.4313 L 40.6206,35.4764 c 1.2737,-0.9528 2.8208,-1.4692 4.4114,-1.4723 0.9396,-0.008 1.8715,0.1699 2.7422,0.5234 0.8706,0.3534 1.6628,0.8755 2.331,1.5362 l 0.5155,0.5155 30.0336,28.7846 32.4627,31.1364 27.461,26.3228 31.211,29.923 0.513,0.516 c 0.669,0.659 1.461,1.18 2.331,1.533 0.871,0.353 1.803,0.531 2.742,0.523 1.45,0.005 2.869,-0.417 4.08,-1.213 z"
             fill="url(#paint1_linear)"
             id="path7-5"
             style="fill:url(#paint1_linear)" /></g><g
           filter="url(#filter2_dd)"
           id="g8"><path
             d="M 184.729,45.0321 V 147.967 c 10e-4,1.214 -0.297,2.408 -0.868,3.479 -0.571,1.07 -1.397,1.984 -2.405,2.659 l -44.115,29.41 c 1.009,-0.675 1.835,-1.589 2.405,-2.66 0.571,-1.071 0.869,-2.266 0.868,-3.48 V 15.6244 c -0.016,-1.2225 -0.333,-2.4223 -0.923,-3.4932 -0.59,-1.0709 -1.435,-1.98 -2.46,-2.64692 l 44.225,29.41042 c 1.005,0.6777 1.829,1.5915 2.4,2.6615 0.57,1.0699 0.87,2.2634 0.873,3.4759 z"
             fill="url(#paint2_linear)"
             id="path8-0"
             style="fill:url(#paint2_linear)" /></g></g></g></g></svg>
