<svg xmlns="http://www.w3.org/2000/svg" xmlns:xlink="http://www.w3.org/1999/xlink" fill="none" version="1.1" width="81" height="98" viewBox="0 0 81 98"><defs><linearGradient x1="0.028999878093600273" y1="0.22299917042255402" x2="0.9985838547924807" y2="0.8545686165427238" id="master_svg0_10_016"><stop offset="0%" stop-color="#FFE76D" stop-opacity="1"/><stop offset="34.700000286102295%" stop-color="#FFC757" stop-opacity="1"/><stop offset="100%" stop-color="#FF5454" stop-opacity="1"/></linearGradient></defs><path d="M77.702888,35.54274C76.841911,34.321487,75.618805,33.403263,74.207573,32.918205C72.796135,32.432949,71.267967,32.405582,69.840355,32.840168C66.020142,33.647514,64.074844,41.559437,61.074146,44.663967C58.073452,47.768696,55.37944,45.539013,51.970711,42.373474C48.56218,39.208134,47.206779,38.14397,45.095997,37.839924C42.98542,37.535877,41.417603,38.718216,38.501266,42.103275C35.584728,45.488338,35.584728,46.684261,32.53022,48.974747C29.475513,51.265034,25.655508,45.457932,23.089552,46.066029C20.523798,46.674122,20.793665,50.08614,23.089552,52.950878C24.121681,54.559086,25.510864,55.906624,27.148472,56.888088C28.786077,57.869759,30.627806,58.458797,32.53022,58.609409C37.314381,58.947308,40.028618,54.464424,42.87759,52.410282C45.726562,50.356339,48.315983,52.477982,53.15416,58.001308C53.797466,58.920139,54.625271,59.694042,55.584774,60.273354C56.544277,60.852467,57.614029,61.224213,58.725258,61.364483C59.836685,61.504749,60.964909,61.410496,62.037697,61.087997C63.110683,60.765305,64.104179,60.221466,64.954842,59.491138C66.71666,58.060097,68.193436,56.308777,69.307495,54.329227C69.443237,58.286709,68.791023,62.231625,67.388702,65.933708C65.986366,69.635788,63.862225,73.020851,61.140095,75.891472C58.417965,78.762077,55.152462,81.060677,51.533951,82.653076C47.915634,84.245476,44.017139,85.09964,40.065643,85.165924C34.743771,84.929169,29.60741,83.137924,25.288738,80.01313C20.97007,76.88813,17.657795,72.565994,15.759789,67.578804C13.676355,62.306019,12.66547,56.66938,12.786465,50.999706C12.90748,45.330032,14.157948,39.741638,16.464455,34.563103C19.753527,27.205559,24.63026,20.670364,30.743114,15.428523C33.5494,13.51272,36.855766,12.465703,40.250942,12.417663C43.646324,12.369602,46.980812,13.32265,49.839901,15.158266C53.659904,17.860882,54.897369,19.789862,57.823818,22.097157C58.966,22.944637,60.366505,23.367466,61.785629,23.293482C63.204754,23.219498,64.554085,22.653362,65.602188,21.691759C66.799194,20.824615,67.617897,19.529697,67.889183,18.07473C68.160263,16.619761,67.862885,15.116064,67.058746,13.874517C63.309547,9.905076,55.575066,0,41.077133,0C29.687923,0,22.196201,6.2666817,14.829215,13.881288C8.5594759,21.159271,4.0909224,29.816313,1.7863148,39.149151C-0.51829308,48.481991,-0.59399724,58.227928,1.5653439,67.595627C5.6281285,85.689697,21.279181,97.999962,41.215305,97.999962C49.971191,98.010712,58.481087,95.097527,65.400307,89.721169C72.319321,84.344795,77.253181,76.811516,79.422424,68.31176C83.030022,53.109592,79.577385,37.826344,77.702888,35.54274Z" fill-rule="evenodd" fill="url(#master_svg0_10_016)" fill-opacity="1" style="mix-blend-mode:passthrough"/></svg>