<svg xmlns="http://www.w3.org/2000/svg" xmlns:xlink="http://www.w3.org/1999/xlink" fill="none" version="1.1" width="256" height="256" viewBox="0 0 256 256"><defs><linearGradient x1="0.028999878093600273" y1="0.22299917042255402" x2="1.0044136660199745" y2="0.8480350533562149" id="master_svg0_10_016"><stop offset="0%" stop-color="#FFE76D" stop-opacity="1"/><stop offset="34.700000286102295%" stop-color="#FFC757" stop-opacity="1"/><stop offset="100%" stop-color="#FF5454" stop-opacity="1"/></linearGradient></defs><path d="M206.08014,99.986931C204.27313,97.444733,201.70613,95.533325,198.74428,94.523613C195.78201,93.513489,192.57474,93.45652,189.57852,94.361168C181.56079,96.041771,177.47806,112.511482,171.18031,118.973969C164.88254999999998,125.436882,159.22845,120.795502,152.07433,114.206009C144.92061999999999,107.616936,142.075958,105.401733,137.64592,104.768822C133.216309,104.13591,129.925827,106.597099,123.805122,113.643555C117.683998,120.69001,117.683998,123.179489,111.2733,127.94743C104.86219,132.71497,96.84489099999999,120.626717,91.459553,121.892555C86.074638,123.158379,86.641026,130.26094999999998,91.459553,136.22428C93.62575100000001,139.57198,96.54132100000001,142.37705,99.978271,144.4201C103.41522599999999,146.46357999999998,107.280579,147.68975,111.2733,148.00326C121.314133,148.70665,127.010681,139.37492,132.990005,135.09896C138.96933,130.8234,144.40392,135.23988,154.55811,146.73742C155.90825999999998,148.65009,157.64562,150.26108,159.6594,151.46698C161.67317,152.67248999999998,163.91833,153.44633,166.25054,153.73832C168.58317,154.0303,170.95104,153.83409,173.20258,153.16277C175.45453,152.49104,177.53963,151.35897,179.32498,149.83870000000002C183.02261,146.85979,186.12202,143.21419,188.46017,139.0935C188.74507,147.33153,187.37622,155.54338,184.43307,163.24977C181.4899,170.95613,177.03183,178.00259,171.31873,183.97816C165.60561,189.95372,158.75208,194.73857,151.15767,198.05336C143.56367,201.36813,135.381645,203.14619,127.088387,203.28418C115.919022,202.79134,105.13900799999999,199.06264,96.07513,192.55794C87.011257,186.05284,80.05957000000001,177.05574,76.076099,166.67426C71.703463,155.69824,69.58185,143.96483999999998,69.835789,132.16266000000002C70.08977300000001,120.360474,72.714211,108.727493,77.555027,97.947685C84.45801900000001,82.631981,94.693138,69.028107,107.522583,58.11652C113.412323,54.128519,120.351608,51.949017,127.477287,51.849012C134.60339399999998,51.748968000000005,141.601707,53.732864,147.60226,57.553942C155.61954,63.179794,158.2167,67.195225,164.35863,71.998165C166.7558,73.762306,169.69513,74.642483,172.67354,74.48847599999999C175.65195,74.334465,178.48387,73.155979,180.68359,71.154274C183.19583,69.349201,184.91411,66.65366,185.48347,63.624947C186.0524,60.596237,185.42827,57.466093,183.74057,54.881648999999996C175.87189,46.618731,159.63902000000002,26,129.211266,26C105.307987,26,89.584618,39.04493,74.123043,54.895744C60.964332999999996,70.04583,51.585886,88.06661199999999,46.7490559,107.494148C41.9122244,126.9217,41.7533392,147.20916,46.2852895,166.70927C54.812121,204.37448,87.660011,229.99992,129.501259,229.99992C147.87781,230.02229,165.73808,223.95813,180.2599,212.76651C194.7813,201.57487,205.13631,185.89336,209.68904,168.2C217.26053,136.55467,210.01427,104.740555,206.08014,99.986931Z" fill-rule="evenodd" fill="url(#master_svg0_10_016)" fill-opacity="1" style="mix-blend-mode:passthrough"/></svg>